<svg xmlns="http://www.w3.org/2000/svg" fill="none" viewBox="0 0 48 48" id="Add-Square--Streamline-Core-Remix" height="48" width="48">
  <desc>
    Add Square Streamline Icon: https://streamlinehq.com
  </desc>
  <g id="Free Remix/Interface Essential/add-square--square-remove-cross-buttons-add-plus-button-+-mathematics-math">
    <path id="Union" fill="#000000" fill-rule="evenodd" d="m41.14285714285714 5.571428571428571 -34.285714285714285 0c-0.7100914285714285 0 -1.2857142857142856 0.5756228571428571 -1.2857142857142856 1.2857142857142856l0 34.285714285714285c0 0.7100571428571428 0.5756228571428571 1.2857142857142856 1.2857142857142856 1.2857142857142856l34.285714285714285 0c0.7100571428571428 0 1.2857142857142856 -0.5756571428571428 1.2857142857142856 -1.2857142857142856l0 -34.285714285714285c0 -0.7100914285714285 -0.5756571428571428 -1.2857142857142856 -1.2857142857142856 -1.2857142857142856ZM6.857142857142857 1.2857142857142856h34.285714285714285c3.077142857142857 0 5.571428571428571 2.494422857142857 5.571428571428571 5.571428571428571l0 34.285714285714285c0 3.077142857142857 -2.494285714285714 5.571428571428571 -5.571428571428571 5.571428571428571l-34.285714285714285 0c-3.0770057142857143 0 -5.571428571428571 -2.494285714285714 -5.571428571428571 -5.571428571428571V6.857142857142857C1.2857142857142856 3.780137142857143 3.780137142857143 1.2857142857142856 6.857142857142857 1.2857142857142856ZM24 11.142857142857142c1.4201485714285715 0 2.571428571428571 1.1512799999999999 2.571428571428571 2.571428571428571v7.7142857142857135H34.285714285714285c1.4201142857142857 0 2.571428571428571 1.1512799999999999 2.571428571428571 2.571428571428571s-1.1513142857142855 2.571428571428571 -2.571428571428571 2.571428571428571H26.57142857142857V34.285714285714285c0 1.4201142857142857 -1.1512799999999999 2.571428571428571 -2.571428571428571 2.571428571428571s-2.571428571428571 -1.1513142857142855 -2.571428571428571 -2.571428571428571V26.57142857142857H13.714285714285714c-1.4201485714285715 0 -2.571428571428571 -1.1512799999999999 -2.571428571428571 -2.571428571428571s1.1512799999999999 -2.571428571428571 2.571428571428571 -2.571428571428571h7.7142857142857135V13.714285714285714c0 -1.4201485714285715 1.1512799999999999 -2.571428571428571 2.571428571428571 -2.571428571428571Z" clip-rule="evenodd" stroke-width="3.4286"></path>
  </g>
</svg>