<svg xmlns="http://www.w3.org/2000/svg" fill="none" viewBox="0 0 48 48" id="Add-Layer-2--Streamline-Core-Remix" height="48" width="48">
  <desc>
    Add Layer 2 Streamline Icon: https://streamlinehq.com
  </desc>
  <g id="Free Remix/Interface Essential/add-layer-2--layer-add-design-plus-layers-square-box">
    <path id="Union" fill="#000000" fill-rule="evenodd" d="M1.2857142857142856 41.14285714285714c0 3.077142857142857 2.494422857142857 5.571428571428571 5.571428571428571 5.571428571428571l25.71428571428571 0c3.077142857142857 0 5.571428571428571 -2.494285714285714 5.571428571428571 -5.571428571428571l0 -3 3 0c3.077142857142857 0 5.571428571428571 -2.494285714285714 5.571428571428571 -5.571428571428571l0 -25.71428571428571c0 -3.0770057142857143 -2.494285714285714 -5.571432 -5.571428571428571 -5.571432L15.428571428571427 1.2857142857142856c-3.0770057142857143 0 -5.571428571428571 2.494422857142857 -5.571428571428571 5.571428571428571l0 3 -3 0c-3.0770057142857143 0 -5.571428571428571 2.494422857142857 -5.571428571428571 5.571428571428571l0 25.71428571428571ZM6.857142857142857 42.42857142857142c-0.7100914285714285 0 -1.2857142857142856 -0.5756571428571428 -1.2857142857142856 -1.2857142857142856l0 -25.71428571428571c0 -0.7100914285714285 0.5756228571428571 -1.2857142857142856 1.2857142857142856 -1.2857142857142856l25.71428571428571 0c0.7100914285714285 0 1.2857142857142856 0.5756228571428571 1.2857142857142856 1.2857142857142856l0 25.71428571428571c0 0.7100571428571428 -0.5756228571428571 1.2857142857142856 -1.2857142857142856 1.2857142857142856l-25.71428571428571 0Zm2.571428571428571 -14.142857142857142c0 -1.4201485714285715 1.1512799999999999 -2.571428571428571 2.571428571428571 -2.571428571428571l5.142857142857142 0L17.142857142857142 20.57142857142857c0 -1.4201485714285715 1.1512799999999999 -2.571428571428571 2.571428571428571 -2.571428571428571s2.571428571428571 1.1512799999999999 2.571428571428571 2.571428571428571l0 5.142857142857142 5.142857142857142 0c1.4201485714285715 0 2.571428571428571 1.1512799999999999 2.571428571428571 2.571428571428571S28.84872 30.857142857142854 27.428571428571427 30.857142857142854L22.285714285714285 30.857142857142854l0 5.142857142857142c0 1.4201142857142857 -1.1512799999999999 2.571428571428571 -2.571428571428571 2.571428571428571S17.142857142857142 37.420114285714284 17.142857142857142 36L17.142857142857142 30.857142857142854 12 30.857142857142854c-1.4201485714285715 0 -2.571428571428571 -1.1512799999999999 -2.571428571428571 -2.571428571428571Z" clip-rule="evenodd" stroke-width="3.4286"></path>
  </g>
</svg>