<svg xmlns="http://www.w3.org/2000/svg" fill="none" viewBox="0 0 48 48" id="Add-Bell-Notification--Streamline-Core-Remix" height="48" width="48">
  <desc>
    Add Bell Notification Streamline Icon: https://streamlinehq.com
  </desc>
  <g id="Free Remix/Interface Essential/add-bell-notification--notification-alarm-alert-bell-add">
    <path id="Union" fill="#000000" fill-rule="evenodd" d="M38.57142857142857 2.571428571428571c0 -1.4201622857142857 -1.1513142857142855 -2.571428571428571 -2.571428571428571 -2.571428571428571s-2.571428571428571 1.1512662857142855 -2.571428571428571 2.571428571428571v6.857142857142857h-6.857142857142857c-1.4201485714285715 0 -2.571428571428571 1.1512799999999999 -2.571428571428571 2.571428571428571s1.1512799999999999 2.571428571428571 2.571428571428571 2.571428571428571h6.857142857142857v6.857142857142857c0 1.4201485714285715 1.1513142857142855 2.571428571428571 2.571428571428571 2.571428571428571s2.571428571428571 -1.1512799999999999 2.571428571428571 -2.571428571428571v-6.857142857142857h6.857142857142857c1.4201142857142857 0 2.571428571428571 -1.1512799999999999 2.571428571428571 -2.571428571428571s-1.1513142857142855 -2.571428571428571 -2.571428571428571 -2.571428571428571h-6.857142857142857v-6.857142857142857ZM17.57142857142857 42.857142857142854c-1.4201485714285715 0 -2.571428571428571 1.1513142857142855 -2.571428571428571 2.571428571428571s1.1512799999999999 2.571428571428571 2.571428571428571 2.571428571428571h6.857142857142857c1.4201485714285715 0 2.571428571428571 -1.1513142857142855 2.571428571428571 -2.571428571428571s-1.1512799999999999 -2.571428571428571 -2.571428571428571 -2.571428571428571h-6.857142857142857Zm3.4285714285714284 -38.14285714285714c-4.205588571428572 0 -8.238891428571428 1.6706742857142856 -11.212697142857143 4.644445714285714C6.813531428571428 12.332537142857142 5.142857142857142 16.36584 5.142857142857142 20.57142857142857v11.142857142857142c0 0.7956342857142856 -0.31607999999999997 1.5586971428571428 -0.8786742857142857 2.1213257142857143 -0.5626285714285714 0.56256 -1.3256742857142858 0.8786742857142857 -2.1213257142857143 0.8786742857142857 -1.1834674285714284 0 -2.142857142857143 0.9593142857142857 -2.142857142857143 2.142857142857143s0.9593897142857143 2.142857142857143 2.142857142857143 2.142857142857143h37.714285714285715c1.183542857142857 0 2.142857142857143 -0.9593142857142857 2.142857142857143 -2.142857142857143s-0.9593142857142857 -2.142857142857143 -2.142857142857143 -2.142857142857143c-0.7957714285714286 0 -1.5586285714285713 -0.31611428571428574 -2.121257142857143 -0.8786742857142857 -0.5626285714285714 -0.5626285714285714 -0.878742857142857 -1.3256571428571429 -0.878742857142857 -2.1213257142857143V29.142857142857142c0 -1.1834742857142857 -0.9593142857142857 -2.142857142857143 -2.142857142857143 -2.142857142857143 -1.1834742857142857 0 -2.142857142857143 0.9593828571428571 -2.142857142857143 2.142857142857143v2.571428571428571c0 1.044582857142857 0.22433142857142857 2.066057142857143 0.64632 3H8.782251428571428c0.4219885714285714 -0.933942857142857 0.64632 -1.9554171428571427 0.64632 -3V20.57142857142857c0 -3.068948571428571 1.2191314285714285 -6.012171428571428 3.3891771428571427 -8.182251428571428C14.987828571428572 10.219131428571428 17.93105142857143 9 21 9c1.1834742857142857 0 2.142857142857143 -0.9593828571428571 2.142857142857143 -2.142857142857143s-0.9593828571428571 -2.142857142857143 -2.142857142857143 -2.142857142857143Z" clip-rule="evenodd" stroke-width="3.4286"></path>
  </g>
</svg>