<svg xmlns="http://www.w3.org/2000/svg" fill="none" viewBox="0 0 48 48" id="Affordable-And-Clean-Energy--Streamline-Core-Remix" height="48" width="48">
  <desc>
    Affordable And Clean Energy Streamline Icon: https://streamlinehq.com
  </desc>
  <g id="Free Remix/Nature Ecology/affordable-and-clean-energy">
    <path id="Union" fill="#000000" fill-rule="evenodd" d="M24 6c-1.1834742857142857 0 -2.142857142857143 -0.9593828571428571 -2.142857142857143 -2.142857142857143v-1.7142857142857142C21.857142857142858 0.9593897142857143 22.816525714285714 0 24 0s2.142857142857143 0.9593897142857143 2.142857142857143 2.142857142857143v1.7142857142857142c0 1.1834742857142857 -0.9593828571428571 2.142857142857143 -2.142857142857143 2.142857142857143Zm12.727885714285714 5.271908571428571c-0.8369142857142857 -0.8368114285714285 -0.8369142857142857 -2.1936 0 -3.030445714285714l1.212 -1.2121714285714285c0.8369142857142857 -0.8368457142857142 2.193942857142857 -0.8368457142857142 3.0305142857142857 0 0.8369142857142857 0.8368457142857142 0.8369142857142857 2.1936 0 3.030445714285714l-1.212 1.2121714285714285c-0.8369142857142857 0.8368457142857142 -2.1936 0.8368457142857142 -3.0305142857142857 0ZM10.059874285714285 7.029428571428571c-0.8368457142857142 -0.8368457142857142 -2.1936342857142854 -0.8368457142857142 -3.030445714285714 0 -0.8368457142857142 0.8368114285714285 -0.8368457142857142 2.1936 0 3.030445714285714l1.2121714285714285 1.2121714285714285c0.8368457142857142 0.8368457142857142 2.1936 0.8368457142857142 3.030445714285714 0 0.8368457142857142 -0.8368457142857142 0.8368457142857142 -2.1936 0 -3.030445714285714l-1.2121714285714285 -1.2121714285714285ZM24 12.428571428571427C17.609280000000002 12.428571428571427 12.428571428571427 17.609280000000002 12.428571428571427 24S17.609280000000002 35.57142857142857 24 35.57142857142857 35.57142857142857 30.39072 35.57142857142857 24 30.39072 12.428571428571427 24 12.428571428571427ZM8.142857142857142 24c0 -8.757668571428571 7.099474285714285 -15.857142857142856 15.857142857142856 -15.857142857142856S39.857142857142854 15.242331428571429 39.857142857142854 24 32.757668571428574 39.857142857142854 24 39.857142857142854 8.142857142857142 32.757668571428574 8.142857142857142 24Zm10.646811428571427 -4.291782857142857c1.1049942857142858 0.4237714285714286 1.6572342857142857 1.663062857142857 1.2334628571428572 2.7680571428571428 -0.18034285714285714 0.47026285714285715 -0.2801828571428571 0.9828342857142858 -0.2801828571428571 1.5237599999999998 0 2.351142857142857 1.9059771428571428 4.25712 4.257154285714286 4.25712 2.351142857142857 0 4.257154285714286 -1.9059771428571428 4.257154285714286 -4.25712 0 -0.5409257142857142 -0.09987428571428571 -1.0534971428571427 -0.28021714285714283 -1.5237599999999998 -0.42373714285714287 -1.1049942857142858 0.12850285714285714 -2.344285714285714 1.2334971428571426 -2.7680571428571428 1.1049942857142858 -0.4237714285714286 2.344285714285714 0.12846857142857143 2.7680571428571428 1.2334628571428572 0.3652457142857143 0.9523885714285715 0.5643771428571428 1.9846285714285712 0.5643771428571428 3.0583542857142856 0 4.718091428571428 -3.824777142857143 8.542834285714285 -8.54286857142857 8.542834285714285S15.457234285714284 28.718125714285712 15.457234285714284 24.000034285714282c0 -1.0737257142857142 0.19913142857142857 -2.105965714285714 0.5643771428571428 -3.0583542857142856 0.42373714285714287 -1.1049942857142858 1.663062857142857 -1.6572342857142857 2.7680571428571428 -1.2334628571428572ZM26.142857142857142 16.68582857142857c0 -1.1834742857142857 -0.9593828571428571 -2.142857142857143 -2.142857142857143 -2.142857142857143s-2.142857142857143 0.9593828571428571 -2.142857142857143 2.142857142857143v3.6571542857142854c0 1.1834399999999998 0.9593828571428571 2.142857142857143 2.142857142857143 2.142857142857143s2.142857142857143 -0.9594171428571429 2.142857142857143 -2.142857142857143V16.68582857142857ZM42 24c0 -1.1834742857142857 0.9593142857142857 -2.142857142857143 2.142857142857143 -2.142857142857143h1.7142857142857142c1.183542857142857 0 2.142857142857143 0.9593828571428571 2.142857142857143 2.142857142857143s-0.9593142857142857 2.142857142857143 -2.142857142857143 2.142857142857143h-1.7142857142857142c-1.183542857142857 0 -2.142857142857143 -0.9593828571428571 -2.142857142857143 -2.142857142857143ZM2.142857142857143 21.857142857142858C0.9593897142857143 21.857142857142858 0 22.816525714285714 0 24s0.9593897142857143 2.142857142857143 2.142857142857143 2.142857142857143h1.7142857142857142c1.1834742857142857 0 2.142857142857143 -0.9593828571428571 2.142857142857143 -2.142857142857143s-0.9593828571428571 -2.142857142857143 -2.142857142857143 -2.142857142857143h-1.7142857142857142Zm34.58502857142857 14.871085714285712c0.8369142857142857 -0.8369142857142857 2.1936 -0.8369142857142857 3.0305142857142857 0l1.212 1.212c0.8369142857142857 0.8369142857142857 0.8369142857142857 2.1936 0 3.0305142857142857 -0.8365714285714285 0.8369142857142857 -2.1936 0.8369142857142857 -3.0305142857142857 0l-1.212 -1.2123428571428572c-0.8369142857142857 -0.8365714285714285 -0.8369142857142857 -2.1936 0 -3.0301714285714283Zm-29.698457142857144 1.212c-0.8368457142857142 0.8365714285714285 -0.8368457142857142 2.1936 0 3.0305142857142857 0.8368114285714285 0.8365714285714285 2.1936 0.8365714285714285 3.030445714285714 0l1.2121714285714285 -1.2123428571428572c0.8368457142857142 -0.8369142857142857 0.8368457142857142 -2.1936 0 -3.0305142857142857 -0.8368457142857142 -0.8369142857142857 -2.1936 -0.8369142857142857 -3.030445714285714 0l-1.2121714285714285 1.2123428571428572ZM21.857142857142858 45.857142857142854c0 1.183542857142857 0.9593828571428571 2.142857142857143 2.142857142857143 2.142857142857143s2.142857142857143 -0.9593142857142857 2.142857142857143 -2.142857142857143v-1.7142857142857142c0 -1.183542857142857 -0.9593828571428571 -2.142857142857143 -2.142857142857143 -2.142857142857143s-2.142857142857143 0.9593142857142857 -2.142857142857143 2.142857142857143v1.7142857142857142Z" clip-rule="evenodd" stroke-width="3.4286"></path>
  </g>
</svg>