<svg xmlns="http://www.w3.org/2000/svg" fill="none" viewBox="0 0 48 48" id="Ai-Cloud-Spark--Streamline-Core-Remix" height="48" width="48">
  <desc>
    Ai Cloud Spark Streamline Icon: https://streamlinehq.com
  </desc>
  <g id="Free Remix/Artificial Intelligence/ai-cloud-spark--cloud-internet-server-network-artificial-intelligence-ai">
    <path id="Union" fill="#000000" fill-rule="evenodd" d="M26.51616 4.364742857142857c-2.4740571428571427 -0.2992457142857143 -4.975817142857142 0.2569714285714286 -7.0879199999999996 1.575257142857143 -2.1120342857142855 1.3182514285714284 -3.7063542857142857 3.31848 -4.518205714285714 5.666365714285714 -0.028765714285714283 0.08324571428571428 -0.06267428571428571 0.16463999999999998 -0.10145142857142857 0.24370285714285714 -0.24476571428571425 0.4987885714285714 -0.6271199999999999 0.9165942857142857 -1.1012571428571427 1.2045599999999999 -0.4369028571428571 0.26537142857142854 -0.9351771428571428 0.4104685714285714 -1.4443542857142855 0.42216 -1.1084914285714285 0.08197714285714286 -2.1906514285714285 0.3771771428571428 -3.186822857142857 0.8693142857142857 -1.0140342857142857 0.5009828571428571 -1.918937142857143 1.1962285714285714 -2.663211428571428 2.045794285714286 -1.502982857142857 1.7156571428571425 -2.2607314285714284 3.9558514285714286 -2.1078514285714283 6.227794285714285 0.15284571428571428 2.271942857142857 1.2040114285714285 4.391348571428571 2.9237828571428572 5.891485714285714 0.4589828571428571 0.40035428571428566 0.9336342857142856 0.7308342857142857 1.42752 1.0020685714285713 1.0373485714285713 0.5696228571428571 1.41648 1.8723771428571427 0.8468228571428571 2.909725714285714 -0.5696571428571428 1.0373485714285713 -1.8723771428571427 1.41648 -2.909725714285714 0.8468228571428571 -0.7702628571428571 -0.4229828571428571 -1.4969485714285713 -0.9315771428571429 -2.1817714285714285 -1.5289371428571428C1.8354857142857142 29.49366857142857 0.2584086857142857 26.316377142857142 0.02902608 22.907417142857142 -0.2003581714285714 19.498422857142856 0.9369051428571429 16.13886857142857 3.189308571428571 13.567817142857141c1.1152285714285712 -1.2730285714285714 2.470577142857143 -2.3141142857142856 3.9885085714285715 -3.0640457142857143 1.2709371428571428 -0.6279428571428571 2.6351314285714285 -1.0414971428571427 4.037211428571428 -1.22592 1.2102171428571429 -2.873828571428571 3.2831657142857145 -5.312742857142857 5.943977142857142 -6.973494857142858C20.101714285714287 0.4676434285714285 23.585931428571428 -0.30663085714285715 27.03078857142857 0.11002594285714284 30.47568 0.5266868571428571 33.67409142857142 2.109264 36.09222857142857 4.5949028571428565c2.1946285714285714 2.255657142857143 3.6264000000000003 5.131302857142857 4.108457142857143 8.223531428571428 2.3077714285714284 0.7575771428571427 4.321028571428571 2.238822857142857 5.7305142857142854 4.2367542857142855 1.5983999999999998 2.265908571428571 2.309142857142857 5.038697142857142 1.9968 7.793279999999999 -0.31234285714285714 2.7545142857142855 -1.6261714285714284 5.298171428571428 -3.6912 7.149702857142857 -0.5098285714285714 0.45737142857142854 -1.0573714285714286 0.8647542857142857 -1.6340571428571429 1.2190971428571429 -1.008342857142857 0.6195428571428571 -2.328 0.3043885714285714 -2.947542857142857 -0.7039542857142856 -0.6195428571428571 -1.008342857142857 -0.3041142857142857 -2.3280342857142857 0.7042285714285714 -2.9475771428571425 0.3586285714285714 -0.22045714285714282 0.6990857142857142 -0.47386285714285714 1.0162285714285713 -0.7584 1.284342857142857 -1.1514857142857142 2.1 -2.7319885714285714 2.294057142857143 -4.441851428571428 0.1937142857142857 -1.709862857142857 -0.24719999999999998 -3.4317257142857143 -1.240457142857143 -4.839771428571428 -0.9935999999999999 -1.408182857142857 -2.470628571428571 -2.40504 -4.152685714285714 -2.8004571428571428 -0.0408 -0.009565714285714285 -0.0809142857142857 -0.020297142857142857 -0.12102857142857142 -0.032228571428571426 -0.5424 -0.16152 -1.0278857142857143 -0.47461714285714285 -1.3985142857142856 -0.9030857142857143l1.6199999999999999 -1.4023542857142857 -1.6199999999999999 1.4023885714285713 0 -0.00003428571428571428c-0.37097142857142856 -0.4285028571428571 -0.6116571428571428 -0.9544114285714286 -0.6932571428571428 -1.5158742857142857 -0.005485714285714286 -0.03747428571428572 -0.009942857142857142 -0.07511999999999999 -0.01337142857142857 -0.11283428571428572 -0.22628571428571428 -2.4730971428571427 -1.2953142857142856 -4.794822857142857 -3.0298285714285713 -6.577782857142857 -1.7347199999999998 -1.7830628571428568 -4.030354285714285 -2.919497142857143 -6.504411428571428 -3.2187085714285715Zm0.22995428571428572 21.004491428571427c-0.6691199999999999 -2.9831314285714283 -4.895931428571428 -2.961805714285714 -5.53872 0.024137142857142857l-0.07141714285714286 0.3317142857142857c-0.7879885714285714 3.6604114285714284 -3.6683999999999997 6.448525714285713 -7.2603085714285704 7.083977142857142 -3.0723085714285716 0.5434971428571428 -3.0723085714285716 4.981337142857143 0 5.5247657142857145 3.591908571428571 0.6353142857142856 6.47232 3.4234285714285715 7.2603085714285704 7.083771428571429l0.07141714285714286 0.3318857142857143c0.6427885714285714 2.985942857142857 4.869599999999999 3.0071999999999997 5.53872 0.024l0.08670857142857143 -0.38639999999999997c0.8178857142857143 -3.646285714285714 3.7014514285714286 -6.413485714285714 7.287017142857142 -7.047771428571428 3.078445714285714 -0.5444571428571429 3.078445714285714 -4.9911771428571425 0 -5.535737142857142 -3.585565714285714 -0.63432 -6.469131428571428 -3.40152 -7.287017142857142 -7.047771428571428l-0.08670857142857143 -0.38657142857142857Z" clip-rule="evenodd" stroke-width="3.4286"></path>
  </g>
</svg>