<svg xmlns="http://www.w3.org/2000/svg" fill="none" viewBox="0 0 48 48" id="Ai-Chip-Spark--Streamline-Core-Remix" height="48" width="48">
  <desc>
    Ai Chip Spark Streamline Icon: https://streamlinehq.com
  </desc>
  <g id="Free Remix/Artificial Intelligence/ai-chip-spark--chip-processor-artificial-intelligence-ai">
    <path id="Union" fill="#000000" fill-rule="evenodd" d="M17.190582857142854 9.857142857142856H11.42856c-0.8678742857142857 0 -1.5714171428571428 0.7035428571428571 -1.5714171428571428 1.5714171428571428v25.142982857142858c0 0.8677714285714285 0.7035428571428571 1.5713142857142857 1.5714171428571428 1.5713142857142857h25.142982857142858c0.8677714285714285 0 1.5713142857142857 -0.7035428571428571 1.5713142857142857 -1.5713142857142857V11.42856c0 -0.8678742857142857 -0.7035428571428571 -1.5714171428571428 -1.5713142857142857 -1.5714171428571428H17.190582857142854Zm15.761691428571426 -4.285714285714286v-3.4285714285714284c0 -1.1834674285714284 -0.9593828571428571 -2.142857142857143 -2.142857142857143 -2.142857142857143 -1.1834399999999998 0 -2.142857142857143 0.9593897142857143 -2.142857142857143 2.142857142857143v3.4285714285714284H19.33344v-3.4285714285714284c0 -1.1834674285714284 -0.9594171428571429 -2.142857142857143 -2.142857142857143 -2.142857142857143 -1.1834742857142857 0 -2.142857142857143 0.9593897142857143 -2.142857142857143 2.142857142857143v3.4285714285714284H11.42856c-3.234788571428571 0 -5.857131428571428 2.6223428571428573 -5.857131428571428 5.857131428571428v3.6191657142857143h-3.4285714285714284c-1.1834674285714284 0 -2.142857142857143 0.9593828571428571 -2.142857142857143 2.142857142857143 0 1.1834399999999998 0.9593897142857143 2.142857142857143 2.142857142857143 2.142857142857143h3.4285714285714284v9.33312h-3.4285714285714284c-1.1834674285714284 0 -2.142857142857143 0.9594171428571429 -2.142857142857143 2.142857142857143 0 1.1834742857142857 0.9593897142857143 2.142857142857143 2.142857142857143 2.142857142857143h3.4285714285714284v3.619268571428571c0 3.234857142857143 2.6223428571428573 5.857028571428571 5.857131428571428 5.857028571428571h3.6191657142857143v3.4285714285714284c0 1.183542857142857 0.9593828571428571 2.142857142857143 2.142857142857143 2.142857142857143 1.1834399999999998 0 2.142857142857143 -0.9593142857142857 2.142857142857143 -2.142857142857143v-3.4285714285714284h9.33312v3.4285714285714284c0 1.183542857142857 0.9594171428571429 2.142857142857143 2.142857142857143 2.142857142857143 1.1834742857142857 0 2.142857142857143 -0.9593142857142857 2.142857142857143 -2.142857142857143v-3.4285714285714284h3.619268571428571c3.234857142857143 0 5.857028571428571 -2.6221714285714284 5.857028571428571 -5.857028571428571V32.95227428571428h3.4285714285714284c1.183542857142857 0 2.142857142857143 -0.9593828571428571 2.142857142857143 -2.142857142857143 0 -1.1834399999999998 -0.9593142857142857 -2.142857142857143 -2.142857142857143 -2.142857142857143h-3.4285714285714284V19.33344h3.4285714285714284c1.183542857142857 0 2.142857142857143 -0.9594171428571429 2.142857142857143 -2.142857142857143 0 -1.1834742857142857 -0.9593142857142857 -2.142857142857143 -2.142857142857143 -2.142857142857143h-3.4285714285714284V11.42856c0 -3.234788571428571 -2.6221714285714284 -5.857131428571428 -5.857028571428571 -5.857131428571428H32.95227428571428ZM26.531451428571426 15.7632c-0.6158399999999999 -2.745462857142857 -4.509188571428571 -2.7256114285714284 -5.10072 0.022182857142857143l-0.057120000000000004 0.2654057142857143c-0.60168 2.7948685714285713 -2.799325714285714 4.918114285714285 -5.532822857142857 5.40168 -2.83536 0.5016 -2.8353257142857142 4.593462857142857 0 5.095062857142857 2.733497142857143 0.48356571428571427 4.931142857142857 2.6068114285714286 5.532822857142857 5.401714285714285l0.057120000000000004 0.26537142857142854c0.5915314285714285 2.7478971428571426 4.4848799999999995 2.767782857142857 5.10072 0.022182857142857143l0.06936 -0.30925714285714284c0.6246514285714285 -2.784822857142857 2.82528 -4.892777142857143 5.554765714285714 -5.375622857142857 2.8401942857142854 -0.5024571428571428 2.8401942857142854 -4.601382857142857 0 -5.10384 -2.729485714285714 -0.4828457142857143 -4.930114285714286 -2.5908 -5.554765714285714 -5.375622857142857l-0.06936 -0.30925714285714284Z" clip-rule="evenodd" stroke-width="3.4286"></path>
  </g>
</svg>