<svg xmlns="http://www.w3.org/2000/svg" fill="none" viewBox="0 0 48 48" id="Ai-Email-Generator-Spark--Streamline-Core-Remix" height="48" width="48">
  <desc>
    Ai Email Generator Spark Streamline Icon: https://streamlinehq.com
  </desc>
  <g id="Free Remix/Artificial Intelligence/ai-email-generator-spark--mail-envelope-inbox-artificial-intelligence-ai">
    <path id="Union" fill="#000000" fill-rule="evenodd" d="M5.268171428571429 4.321988571428571c0.09850285714285713 -0.023897142857142853 0.20022857142857142 -0.03627428571428572 0.30325714285714284 -0.03627428571428572h33.42857142857142c0.10285714285714284 0 0.20468571428571428 0.012342857142857142 0.3030857142857143 0.036239999999999994L22.285645714285714 16.241005714285713 5.268171428571429 4.321988571428571Zm-5.156158628571428 0.13776C0.03804788571428571 4.822937142857143 0 5.195245714285714 0 5.571428571428571v23.142857142857142c0 1.477645714285714 0.5869885714285714 2.894742857142857 1.631832 3.9395999999999995C2.676678857142857 33.69870857142857 4.093782857142857 34.285714285714285 5.571428571428571 34.285714285714285H17.142857142857142c1.1834742857142857 0 2.142857142857143 -0.9593828571428571 2.142857142857143 -2.142857142857143S18.32633142857143 30 17.142857142857142 30H5.571428571428571c-0.3410057142857143 0 -0.6680228571428571 -0.13546285714285713 -0.9091542857142857 -0.37659428571428566C4.421177142857142 29.382308571428567 4.285714285714286 29.05529142857143 4.285714285714286 28.71428571428571V8.866217142857144l16.77061714285714 11.746114285714285c0.7380342857142856 0.5169257142857142 1.7205942857142855 0.5169257142857142 2.458628571428571 0L40.285714285714285 8.866114285714286V22.71428571428571c0 1.1834742857142857 0.9593142857142857 2.142857142857143 2.142857142857143 2.142857142857143S44.57142857142857 23.897759999999998 44.57142857142857 22.71428571428571v-17.142857142857142c0 -0.37762285714285715 -0.0384 -0.7512685714285714 -0.11279999999999998 -1.1157599999999999 -0.014057142857142858 -0.08393142857142856 -0.03291428571428571 -0.16741714285714285 -0.057257142857142854 -0.24994285714285716 -0.2441142857142857 -0.9659828571428571 -0.7453714285714286 -1.8574525714285715 -1.461942857142857 -2.573893714285714C41.89474285714286 0.5869885714285714 40.47771428571428 0 39 0h-33.42857142857142C4.093782857142857 0 2.676678857142857 0.5869885714285714 1.631832 1.631832 0.9163645714285713 2.3473028571428567 0.4155805714285714 3.2373325714285714 0.17095062857142856 4.201817142857142c-0.025116 0.08513142857142857 -0.04473257142857143 0.17129142857142857 -0.05893782857142857 0.2579314285714286ZM38.31771428571428 25.3692c-0.6692571428571429 -2.9831314285714283 -4.896102857142856 -2.9617714285714283 -5.538891428571429 0.02417142857142857l-0.07141714285714286 0.3317142857142857c-0.7879885714285714 3.6604114285714284 -3.6683999999999997 6.448525714285713 -7.260342857142857 7.083977142857142 -3.0722742857142853 0.5434971428571428 -3.0722742857142853 4.981337142857143 0 5.5247657142857145 3.5919428571428567 0.6353142857142856 6.472354285714285 3.4234285714285715 7.260342857142857 7.083771428571429l0.07141714285714286 0.3318857142857143c0.6427885714285714 2.985942857142857 4.869634285714286 3.0071999999999997 5.538891428571429 0.024l0.08639999999999999 -0.38639999999999997c0.8180571428571428 -3.646285714285714 3.7014857142857136 -6.413485714285714 7.2870857142857135 -7.047771428571428 3.0785142857142858 -0.5444571428571429 3.0785142857142858 -4.9911771428571425 0 -5.535737142857142 -3.5856 -0.63432 -6.469028571428571 -3.40152 -7.2870857142857135 -7.047771428571428l-0.08639999999999999 -0.3866057142857143Z" clip-rule="evenodd" stroke-width="3.4286"></path>
  </g>
</svg>