<svg xmlns="http://www.w3.org/2000/svg" fill="none" viewBox="0 0 48 48" id="Ai-Edit-Spark--Streamline-Core-Remix" height="48" width="48">
  <desc>
    Ai Edit Spark Streamline Icon: https://streamlinehq.com
  </desc>
  <g id="Free Remix/Artificial Intelligence/ai-edit-spark--change-edit-modify-pencil-write-writing-artificial-intelligence-ai">
    <path id="Union" fill="#000000" fill-rule="evenodd" d="M9.635965714285714 2.2505142857142855c0.6427885714285714 -2.9859531428571424 4.869599999999999 -3.0072822857142856 5.53872 -0.02415085714285714l0.08670857142857143 0.3865851428571428c0.8178514285714286 3.6462514285714285 3.7014514285714286 6.413451428571428 7.286982857142857 7.047771428571428 3.0783428571428573 0.5445599999999999 3.0783428571428573 4.991142857142857 0 5.535702857142857 -3.585531428571428 0.63432 -6.469131428571428 3.40152 -7.286982857142857 7.047771428571428l-0.08670857142857143 0.3866057142857143c-0.6691199999999999 2.9831314285714283 -4.895931428571428 2.9617714285714283 -5.53872 -0.02417142857142857l-0.07141714285714286 -0.3317142857142857C8.776559999999998 18.614502857142856 5.896148571428571 15.826388571428572 2.3042194285714284 15.190971428571427c-3.072281142857143 -0.5435314285714286 -3.0723051428571426 -4.981268571428571 0 -5.5247657142857145C5.896148571428571 9.030754285714286 8.776559999999998 6.24264 9.56454857142857 2.582238857142857l1.6758857142857142 0.3607782857142857 -1.6758857142857142 -0.36078171428571426L9.635965714285714 2.2505142857142855Zm28.14174857142857 14.12581714285714c0.14674285714285712 -0.06174857142857143 0.30445714285714287 -0.09353142857142856 0.4635428571428571 -0.09353142857142856 0.15908571428571427 0 0.31679999999999997 0.03178285714285714 0.4635428571428571 0.09353142857142856 0.14674285714285712 0.061782857142857146 0.27977142857142856 0.15222857142857144 0.39085714285714285 0.2660571428571428l0 0.00003428571428571428 0.010971428571428571 0.011108571428571428 4.239428571428571 4.272685714285714 0 0.00006857142857142857 0.012342857142857142 0.012102857142857143c0.11177142857142855 0.11108571428571427 0.2009142857142857 0.24329142857142855 0.2616 0.3889371428571428 0.06068571428571429 0.14564571428571427 0.09188571428571428 0.30185142857142855 0.09188571428571428 0.4596342857142857 0 0.15778285714285714 -0.0312 0.3139885714285714 -0.09188571428571428 0.4596342857142857 -0.06068571428571429 0.14564571428571427 -0.14982857142857142 0.2778514285714286 -0.2616 0.3889371428571428l-0.011314285714285714 0.011074285714285714 -20.14258285714286 20.272594285714284 -6.692228571428571 0.5801142857142857 0.5800114285714285 -6.692228571428571 20.27262857142857 -20.142719999999997 0 0.00013714285714285713 0.021942857142857142 -0.022114285714285715c0.11108571428571427 -0.11382857142857142 0.2441142857142857 -0.2042742857142857 0.39085714285714285 -0.2660571428571428Zm0.4635428571428571 -4.379245714285714c-0.7302857142857142 0 -1.4530285714285713 0.14585142857142858 -2.1257142857142854 0.42905142857142853 -0.6678857142857143 0.28093714285714283 -1.2730285714285714 0.6913714285714285 -1.7807999999999997 1.207542857142857L13.514845714285713 34.32c-0.35948571428571424 0.35725714285714283 -0.5807657142857143 0.8300571428571428 -0.6245142857142857 1.3350857142857142l-0.8678742857142857 10.014171428571428c-0.054651428571428566 0.6305142857142857 0.1721485714285714 1.2528 0.6196114285714285 1.7002285714285714s1.0698171428571428 0.6740571428571428 1.700262857142857 0.6195428571428571l10.014102857142857 -0.8677714285714285c0.5048571428571428 -0.043885714285714285 0.9778971428571427 -0.2650285714285714 1.3350857142857142 -0.6246857142857143l20.69088 -20.824251428571426c0.5108571428571428 -0.5082514285714286 0.9164571428571427 -1.1122971428571427 1.1934857142857143 -1.7775428571428569 0.2784 -0.6678857142857143 0.4217142857142857 -1.3842857142857141 0.4217142857142857 -2.107817142857143 0 -0.7235657142857143 -0.1433142857142857 -1.4399314285714286 -0.4217142857142857 -2.107817142857143 -0.2770285714285714 -0.6649028571428571 -0.6822857142857143 -1.26864 -1.1927999999999999 -1.7767199999999996L42.15428571428571 13.640091428571427c-0.5094857142857143 -0.5191885714285714 -1.1166857142857143 -0.9318514285714284 -1.7873142857142856 -1.2139542857142855 -0.6726857142857143 -0.2832 -1.3957714285714287 -0.42905142857142853 -2.1257142857142854 -0.42905142857142853Z" clip-rule="evenodd" stroke-width="3.4286"></path>
  </g>
</svg>