<svg xmlns="http://www.w3.org/2000/svg" fill="none" viewBox="0 0 48 48" id="Ai-Generate-Landscape-Image-Spark--Streamline-Core-Remix" height="48" width="48">
  <desc>
    Ai Generate Landscape Image Spark Streamline Icon: https://streamlinehq.com
  </desc>
  <g id="Free Remix/Artificial Intelligence/ai-generate-landscape-image-spark--picture-photography-photo-image-artificial-intelligence-ai">
    <path id="Union" fill="#000000" fill-rule="evenodd" d="M5.571428571428571 4.285714285714286c-0.3410057142857143 0 -0.6680228571428571 0.13546285714285713 -0.9091542857142857 0.37655999999999995 -0.24109714285714282 0.24113142857142858 -0.37655999999999995 0.5681485714285713 -0.37655999999999995 0.9091542857142857v15.041314285714286C4.755325714285714 20.585314285714286 5.2284 20.57142857142857 5.704594285714285 20.57142857142857c7.220091428571427 0 13.693474285714286 3.1879885714285714 18.092194285714285 8.23062857142857C19.679211428571428 30.031234285714284 18.135908571428573 34.24666285714285 19.16677714285714 37.714285714285715H5.142857142857142c-1.3639542857142857 0 -2.6720777142857144 -0.5417142857142857 -3.636548571428571 -1.5061714285714285C0.5418342857142857 35.243657142857145 0 33.93555428571428 0 32.5716V5.571428571428571C0 4.093782857142857 0.5869885714285714 2.676678857142857 1.631832 1.631832 2.676678857142857 0.5869885714285714 4.093782857142857 0 5.571428571428571 0h26.57142857142857c1.477645714285714 0 2.894742857142857 0.5869885714285714 3.9394285714285715 1.631832C37.127314285714284 2.676678857142857 37.714285714285715 4.093782857142857 37.714285714285715 5.571428571428571V17.142857142857142c0 1.1834742857142857 -0.9593142857142857 2.142857142857143 -2.142857142857143 2.142857142857143S33.42857142857142 18.32633142857143 33.42857142857142 17.142857142857142V5.571428571428571c0 -0.3410057142857143 -0.13546285714285713 -0.6680228571428571 -0.37659428571428566 -0.9091542857142857C32.81088 4.421177142857142 32.48386285714286 4.285714285714286 32.14285714285714 4.285714285714286h-26.57142857142857Zm15.857142857142856 3.4285714285714284c-2.8403314285714285 0 -5.142857142857142 2.3025257142857143 -5.142857142857142 5.142857142857142s2.3025257142857143 5.142857142857142 5.142857142857142 5.142857142857142 5.142857142857142 -2.3025257142857143 5.142857142857142 -5.142857142857142 -2.3025257142857143 -5.142857142857142 -5.142857142857142 -5.142857142857142Zm16.889142857142858 17.654914285714284c-0.6692571428571429 -2.9831314285714283 -4.896102857142856 -2.9617714285714283 -5.538891428571429 0.02417142857142857l-0.07141714285714286 0.3317142857142857c-0.7879885714285714 3.6604114285714284 -3.6683999999999997 6.448525714285713 -7.260342857142857 7.083977142857142 -3.0722742857142853 0.5434971428571428 -3.0722742857142853 4.981337142857143 0 5.5247657142857145 3.5919428571428567 0.6353142857142856 6.472354285714285 3.4234285714285715 7.260342857142857 7.083771428571429l0.07141714285714286 0.3318857142857143c0.6427885714285714 2.985942857142857 4.869634285714286 3.0071999999999997 5.538891428571429 0.024l0.08639999999999999 -0.38639999999999997c0.8180571428571428 -3.646285714285714 3.7014857142857136 -6.413485714285714 7.2870857142857135 -7.047771428571428 3.0785142857142858 -0.5444571428571429 3.0785142857142858 -4.9911771428571425 0 -5.535737142857142 -3.5856 -0.63432 -6.469028571428571 -3.40152 -7.2870857142857135 -7.047771428571428l-0.08639999999999999 -0.3866057142857143Z" clip-rule="evenodd" stroke-width="3.4286"></path>
  </g>
</svg>