<svg xmlns="http://www.w3.org/2000/svg" fill="none" viewBox="0 0 48 48" id="Ai-Generate-Variation-Spark--Streamline-Core-Remix" height="48" width="48">
  <desc>
    Ai Generate Variation Spark Streamline Icon: https://streamlinehq.com
  </desc>
  <g id="Free Remix/Artificial Intelligence/ai-generate-variation-spark--module-application-artificial-intelligence-ai">
    <path id="Union" fill="#000000" fill-rule="evenodd" d="M38.36022857142857 3.5843999999999996c-0.626742857142857 -2.792996571428571 -4.586639999999999 -2.772853714285714 -5.188457142857143 0.022594285714285713l-0.059965714285714275 0.27863999999999994c-0.6389485714285714 2.9680114285714287 -2.9731542857142856 5.2242171428571424 -5.8783199999999995 5.73816 -2.882742857142857 0.5099657142857142 -2.882742857142857 4.671017142857142 0 5.180982857142857 2.905165714285714 0.5139428571428571 5.239371428571428 2.770182857142857 5.8783199999999995 5.73816l0.059965714285714275 0.27863999999999994c0.6017828571428572 2.7954514285714285 4.561714285714285 2.815611428571428 5.188457142857143 0.022594285714285713l0.07268571428571428 -0.32472c0.6634285714285714 -2.957108571428571 3.000685714285714 -5.196925714285714 5.901257142857142 -5.71008 2.8878857142857144 -0.5108571428571428 2.8878857142857144 -4.679314285714286 0 -5.190171428571428 -2.9005714285714284 -0.5131542857142857 -5.2378285714285715 -2.7529371428571427 -5.901257142857142 -5.71008l-0.07268571428571428 -0.32472Zm-32.57451428571428 2.6298857142857144v12h12v-12h-12Zm-4.285714285714286 -0.5102057142857143c0 -2.0851542857142857 1.6903542857142857 -3.7755051428571424 3.775508571428571 -3.7755051428571424h13.020411428571428c2.0851542857142857 0 3.775508571428571 1.690350857142857 3.775508571428571 3.7755051428571424v13.020411428571428c0 2.0851542857142857 -1.6903542857142857 3.775508571428571 -3.775508571428571 3.775508571428571H5.2755085714285705C3.1903542857142857 22.5 1.5 20.809645714285715 1.5 18.72449142857143V5.704079999999999Zm4.285714285714286 24.510205714285714v12h12v-12h-12Zm-4.285714285714286 -0.5102057142857143c0 -2.0851542857142857 1.6903542857142857 -3.775508571428571 3.775508571428571 -3.775508571428571h13.020411428571428c2.0851542857142857 0 3.775508571428571 1.6903542857142857 3.775508571428571 3.775508571428571v13.020377142857143c0 2.0852571428571425 -1.6903542857142857 3.775542857142857 -3.775508571428571 3.775542857142857H5.2755085714285705c-2.0851542857142857 0 -3.775508571428571 -1.6902857142857142 -3.775508571428571 -3.775542857142857V29.70408Zm28.285714285714285 12.510205714285714v-12h12v12h-12Zm-0.5102057142857143 -16.285714285714285c-2.0851542857142857 0 -3.775508571428571 1.6903542857142857 -3.775508571428571 3.775508571428571v13.020377142857143c0 2.0852571428571425 1.6903542857142857 3.775542857142857 3.775508571428571 3.775542857142857h13.020377142857143c2.0852571428571425 0 3.775542857142857 -1.6902857142857142 3.775542857142857 -3.775542857142857V29.70408c0 -2.0851542857142857 -1.6902857142857142 -3.775508571428571 -3.775542857142857 -3.775508571428571H29.275508571428574Z" clip-rule="evenodd" stroke-width="3.4286"></path>
  </g>
</svg>