<svg xmlns="http://www.w3.org/2000/svg" fill="none" viewBox="0 0 48 48" id="Ai-Gaming-Spark--Streamline-Core-Remix" height="48" width="48">
  <desc>
    Ai Gaming Spark Streamline Icon: https://streamlinehq.com
  </desc>
  <g id="Free Remix/Artificial Intelligence/ai-gaming-spark--remote-control-controller-technology-artificial-intelligence-ai">
    <path id="Union" fill="#000000" fill-rule="evenodd" d="M32.779062857142854 2.2505142857142855C33.42188571428571 -0.7354388571428571 37.6488 -0.756768 38.31771428571428 2.2263634285714287l0.08674285714285714 0.3865851428571428c0.8180571428571428 3.6462514285714285 3.7014857142857136 6.413451428571428 7.2870857142857135 7.047771428571428 3.0781714285714283 0.5445599999999999 3.0781714285714283 4.991142857142857 0 5.535702857142857 -3.5856 0.63432 -6.469028571428571 3.40152 -7.2870857142857135 7.047771428571428l-0.08674285714285714 0.3866057142857143c-0.6689142857142857 2.9831314285714283 -4.895828571428571 2.9617714285714283 -5.538651428571428 -0.02417142857142857l-0.07138285714285715 -0.3317142857142857C31.919657142857144 18.614502857142856 29.039279999999998 15.826388571428572 25.44733714285714 15.190971428571427c-3.0722742857142853 -0.5435314285714286 -3.0723085714285716 -4.981268571428571 0 -5.5247657142857145C29.039279999999998 9.030754285714286 31.919657142857144 6.24264 32.70764571428571 2.582238857142857l1.675782857142857 0.3607782857142857 -1.6757485714285711 -0.36078171428571426L32.779062857142854 2.2505142857142855ZM13.955314285714284 22.071839999999998c1.1834399999999998 0 2.142857142857143 0.9594171428571429 2.142857142857143 2.142857142857143v1.8189257142857143h1.8188914285714286c1.1834742857142857 0 2.142857142857143 0.9593828571428571 2.142857142857143 2.142857142857143s-0.9593828571428571 2.142857142857143 -2.142857142857143 2.142857142857143H16.098171428571426v1.818445714285714c0 1.1834742857142857 -0.9594171428571429 2.142857142857143 -2.142857142857143 2.142857142857143 -1.1834742857142857 0 -2.142857142857143 -0.9593828571428571 -2.142857142857143 -2.142857142857143v-1.818445714285714h-1.818445714285714c-1.1834742857142857 0 -2.142857142857143 -0.9593828571428571 -2.142857142857143 -2.142857142857143s0.9593828571428571 -2.142857142857143 2.142857142857143 -2.142857142857143h1.818445714285714v-1.8189257142857143c0 -1.1834399999999998 0.9593828571428571 -2.142857142857143 2.142857142857143 -2.142857142857143Zm-8.25006857142857 3.045325714285714c0.44646857142857144 -4.018217142857143 3.842914285714285 -7.058159999999999 7.885851428571429 -7.058159999999999h4.339954285714286c1.1834742857142857 0 2.142857142857143 -0.9593828571428571 2.142857142857143 -2.142857142857143s-0.9593828571428571 -2.142857142857143 -2.142857142857143 -2.142857142857143H13.591097142857143c-6.226731428571428 0 -11.457709714285714 4.681954285714285 -12.145337142857143 10.87062857142857L0.061171885714285716 37.10502857142857C-0.5845954285714285 42.917142857142856 3.9648342857142853 48 9.812502857142857 48c3.7162628571428566 0 7.1135657142857145 -2.099657142857143 8.775531428571428 -5.4236571428571425l0.6149828571428572 -1.2298285714285715h7.331622857142856l0.6149828571428572 1.2298285714285715C28.811588571428572 45.90034285714286 32.20889142857143 48 35.92525714285714 48c5.847428571428571 0 10.397142857142857 -5.082857142857143 9.751199999999999 -10.894971428571429l-1.2267428571428571 -11.041165714285714c-0.13062857142857143 -1.176205714285714 -1.190057142857143 -2.023782857142857 -2.3664 -1.8930857142857143 -1.1763428571428571 0.13069714285714285 -2.0238857142857145 1.1901599999999999 -1.8932571428571427 2.366365714285714l1.2270857142857141 11.041371428571429c0.3634285714285714 3.2732571428571426 -2.198742857142857 6.135771428571428 -5.491885714285714 6.135771428571428 -2.0930742857142857 0 -4.006388571428571 -1.1825142857142856 -4.942388571428571 -3.0545142857142857l-1.2072342857142855 -2.4144c-0.36298285714285716 -0.7261714285714285 -1.1049942857142858 -1.1845714285714284 -1.9166399999999997 -1.1845714285714284H17.878662857142857c-0.8116457142857142 0 -1.5536571428571428 0.45840000000000003 -1.9166399999999997 1.1845714285714284l-1.2072685714285714 2.4144c-0.936 1.872 -2.8493142857142852 3.0545142857142857 -4.942251428571428 3.0545142857142857 -3.293348571428571 0 -5.855519999999999 -2.8625142857142856 -5.491817142857142 -6.135771428571428l1.38456 -12.461348571428571Z" clip-rule="evenodd" stroke-width="3.4286"></path>
  </g>
</svg>