<svg xmlns="http://www.w3.org/2000/svg" fill="none" viewBox="0 0 48 48" id="Ai-Generate-Portrait-Image-Spark--Streamline-Core-Remix" height="48" width="48">
  <desc>
    Ai Generate Portrait Image Spark Streamline Icon: https://streamlinehq.com
  </desc>
  <g id="Free Remix/Artificial Intelligence/ai-generate-portrait-image-spark--picture-photography-photo-image-artificial-intelligence-ai">
    <path id="Union" fill="#000000" fill-rule="evenodd" d="M5.571428571428571 4.285714285714286c-0.3410057142857143 0 -0.6680228571428571 0.13546285714285713 -0.9091542857142857 0.37655999999999995 -0.24109714285714282 0.24113142857142858 -0.37655999999999995 0.5681485714285713 -0.37655999999999995 0.9091542857142857v26.57142857142857c0 0.3410057142857143 0.13546285714285713 0.6680228571428571 0.37655999999999995 0.9091199999999999 0.24113142857142858 0.24113142857142858 0.5681485714285713 0.37659428571428566 0.9091542857142857 0.37659428571428566H17.142857142857142c1.1834742857142857 0 2.142857142857143 0.9593142857142857 2.142857142857143 2.142857142857143S18.32633142857143 37.714285714285715 17.142857142857142 37.714285714285715H5.571428571428571c-1.477645714285714 0 -2.894749714285714 -0.5869714285714285 -3.939596571428571 -1.632C0.5869885714285714 35.0376 0 33.62050285714285 0 32.14285714285714v-26.57142857142857C0 4.093782857142857 0.5869885714285714 2.676678857142857 1.631832 1.631832 2.676678857142857 0.5869885714285714 4.093782857142857 0 5.571428571428571 0h26.57142857142857c1.477645714285714 0 2.894742857142857 0.5869885714285714 3.9394285714285715 1.631832C37.127314285714284 2.676678857142857 37.714285714285715 4.093782857142857 37.714285714285715 5.571428571428571V15.428571428571427c0 1.1834742857142857 -0.9593142857142857 2.142857142857143 -2.142857142857143 2.142857142857143S33.42857142857142 16.612045714285713 33.42857142857142 15.428571428571427V5.571428571428571c0 -0.3410057142857143 -0.13546285714285713 -0.6680228571428571 -0.37659428571428566 -0.9091542857142857C32.81088 4.421177142857142 32.48386285714286 4.285714285714286 32.14285714285714 4.285714285714286h-26.57142857142857ZM18.857142857142858 9.857142857142856c-1.6568571428571428 0 -3 1.343142857142857 -3 3s1.343142857142857 3 3 3 3 -1.343142857142857 3 -3 -1.343142857142857 -3 -3 -3Zm-7.285714285714286 3c0 -4.023805714285714 3.261942857142857 -7.285714285714286 7.285714285714286 -7.285714285714286s7.285714285714286 3.261908571428571 7.285714285714286 7.285714285714286c0 4.023771428571428 -3.261942857142857 7.285714285714286 -7.285714285714286 7.285714285714286S11.571428571428571 16.880914285714287 11.571428571428571 12.857142857142856Zm21.207394285714283 12.536228571428571c0.6427885714285714 -2.985942857142857 4.869634285714286 -3.007302857142857 5.538891428571429 -0.02417142857142857l0.08639999999999999 0.3866057142857143c0.8180571428571428 3.6462514285714285 3.7014857142857136 6.413451428571428 7.2870857142857135 7.047771428571428 3.0785142857142858 0.5445599999999999 3.0785142857142858 4.99128 0 5.535737142857142 -3.5856 0.6342857142857142 -6.469028571428571 3.4014857142857142 -7.2870857142857135 7.047771428571428l-0.08639999999999999 0.38639999999999997c-0.6692571428571429 2.9831999999999996 -4.896102857142856 2.9619428571428568 -5.538891428571429 -0.024l-0.07141714285714286 -0.3318857142857143c-0.7879885714285714 -3.660342857142857 -3.6683999999999997 -6.448457142857142 -7.260342857142857 -7.083771428571429 -3.0722742857142853 -0.5434285714285714 -3.0722742857142853 -4.981268571428571 0 -5.5247657142857145 3.5919428571428567 -0.6354514285714286 6.472354285714285 -3.423565714285714 7.260342857142857 -7.083977142857142l0.07141714285714286 -0.3317142857142857Zm-7.7867999999999995 -2.5205485714285714c1.2549257142857142 0.6274285714285713 2.401885714285714 1.4422285714285714 3.4032342857142854 2.412788571428571 -0.5529257142857142 1.7512799999999997 -1.99824 3.0031542857142854 -3.694765714285714 3.303257142857143 -1.06656 0.18870857142857142 -1.9871314285714283 0.5616 -2.76168 1.0682742857142857H9.256971428571427c-0.6488571428571428 0 -1.2421371428571428 -0.36634285714285714 -1.532742857142857 -0.9465257142857142 -0.2906057142857143 -0.5801828571428571 -0.22872 -1.2747085714285713 0.15984 -1.794342857142857 1.2758057142857142 -1.70616 2.932422857142857 -3.09072 4.837885714285714 -4.043451428571428 1.904742857142857 -0.9523885714285715 4.005497142857142 -1.4469257142857141 6.1350171428571425 -1.4442514285714285 2.1295542857142857 -0.002674285714285714 4.230308571428571 0.49186285714285716 6.135051428571428 1.4442514285714285ZM18.856971428571427 21.428571428571427l-0.0024342857142857144 0 0.0024342857142857144 1.7142857142857142 0.0024685714285714285 -1.7142857142857142 -0.0024685714285714285 0Z" clip-rule="evenodd" stroke-width="3.4286"></path>
  </g>
</svg>