<svg xmlns="http://www.w3.org/2000/svg" fill="none" viewBox="0 0 48 48" id="Ai-Generate-Music-Spark--Streamline-Core-Remix" height="48" width="48">
  <desc>
    Ai Generate Music Spark Streamline Icon: https://streamlinehq.com
  </desc>
  <g id="Free Remix/Artificial Intelligence/ai-generate-music-spark--music-audio-note-entertainment-artificial-intelligence-ai">
    <path id="Union" fill="#000000" fill-rule="evenodd" d="M38.31771428571428 2.2263634285714287c-0.6692571428571429 -2.9831314285714283 -4.896102857142856 -2.9618022857142856 -5.538891428571429 0.02415085714285714l-0.07141714285714286 0.3317211428571429 1.676022857142857 0.36078171428571426 -1.676022857142857 -0.3607782857142857C31.919417142857142 6.24264 29.03900571428571 9.030754285714286 25.447062857142857 9.666205714285715c-3.0722742857142853 0.5434971428571428 -3.0722742857142853 4.981234285714286 0 5.5247657142857145 3.5919428571428567 0.6354171428571428 6.472354285714285 3.4235314285714287 7.260342857142857 7.083942857142857l0.07141714285714286 0.3317142857142857c0.6427885714285714 2.985942857142857 4.869634285714286 3.007302857142857 5.538891428571429 0.02417142857142857l0.08639999999999999 -0.3866057142857143c0.8180571428571428 -3.6462514285714285 3.7014857142857136 -6.413451428571428 7.2870857142857135 -7.047771428571428 3.0785142857142858 -0.5445599999999999 3.0785142857142858 -4.991142857142857 0 -5.535702857142857 -3.5856 -0.63432 -6.469028571428571 -3.40152 -7.2870857142857135 -7.047771428571428L38.31771428571428 2.2263634285714287ZM18.66888 18.729394285714285c1.1376685714285715 -0.32612571428571424 1.7955085714285712 -1.5127542857142857 1.469382857142857 -2.650388571428571 -0.32612571428571424 -1.1376342857142856 -1.5127199999999998 -1.7955085714285712 -2.650388571428571 -1.469382857142857l-4.216525714285714 1.208742857142857c-0.7277828571428571 0.2007428571428571 -1.3708457142857142 0.6326742857142856 -1.8319885714285713 1.2309257142857142 -0.46549714285714283 0.6038742857142857 -0.7199314285714286 1.3438971428571427 -0.7242171428571428 2.106342857142857h-0.00003428571428571428v6.981291428571429c-0.0007199999999999999 0.03195428571428571 -0.0007199999999999999 0.06397714285714286 0 0.09610285714285713v7.488582857142856c-0.9743657142857143 -0.46296000000000004 -2.064377142857143 -0.7220228571428571 -3.2149028571428566 -0.7220228571428571C3.3579634285714284 32.99958857142857 0 36.3576 0 40.49965714285714 0 44.64205714285714 3.3579634285714284 48 7.5002057142857135 48c4.125565714285714 0 7.47312 -3.330857142857143 7.500034285714285 -7.450285714285714l0.0005828571428571429 -0.05039999999999999V27.814937142857143l12.053417142857143 -3.3481714285714284c1.1403085714285714 -0.31676571428571426 1.8079199999999997 -1.497942857142857 1.4911542857142854 -2.638217142857143 -0.31673142857142855 -1.1403085714285714 -1.4979085714285714 -1.8079199999999997 -2.638182857142857 -1.4911542857142854l-10.90638857142857 3.029554285714285V19.780902857142856l3.6680571428571427 -1.0515085714285715Zm12.939325714285713 13.198354285714284c-1.7753142857142858 0 -3.214525714285714 1.439177142857143 -3.214525714285714 3.214422857142857 0 1.7753142857142858 1.4392114285714284 3.2146285714285714 3.214525714285714 3.2146285714285714s3.214422857142857 -1.4393142857142855 3.214422857142857 -3.2146285714285714c0 -1.7752457142857143 -1.4391085714285714 -3.214422857142857 -3.214422857142857 -3.214422857142857Zm-7.50024 3.214422857142857c0 -4.142194285714285 3.3579771428571425 -7.500137142857142 7.50024 -7.500137142857142 1.4608114285714284 0 2.8239085714285714 0.4176342857142857 3.9769371428571425 1.14 0.3730285714285714 -0.31464 0.854742857142857 -0.5042742857142857 1.3810285714285713 -0.5042742857142857 1.1832 0 2.142857142857143 0.9593828571428571 2.142857142857143 2.142857142857143v4.721897142857143l-0.0006857142857142857 0.055885714285714275c-0.03017142857142857 4.116342857142857 -3.376457142857143 7.444114285714285 -7.500137142857142 7.444114285714285 -4.142262857142857 0 -7.50024 -3.357942857142857 -7.50024 -7.500342857142858Zm-16.60776 2.1431999999999998c-1.7753142857142858 0 -3.2144914285714283 1.4389714285714286 -3.2144914285714283 3.214285714285714s1.439177142857143 3.2146285714285714 3.2144914285714283 3.2146285714285714c1.7753485714285713 0 3.214525714285714 -1.4393142857142855 3.214525714285714 -3.2146285714285714s-1.439177142857143 -3.214285714285714 -3.214525714285714 -3.214285714285714Z" clip-rule="evenodd" stroke-width="3.4286"></path>
  </g>
</svg>