<svg xmlns="http://www.w3.org/2000/svg" fill="none" viewBox="0 0 48 48" id="Ai-Navigation-Spark--Streamline-Core-Remix" height="48" width="48">
  <desc>
    Ai Navigation Spark Streamline Icon: https://streamlinehq.com
  </desc>
  <g id="Free Remix/Artificial Intelligence/ai-navigation-spark--map-location-direction-travel-artificial-intelligence-ai">
    <path id="Union" fill="#000000" fill-rule="evenodd" d="M38.31771428571428 2.2263634285714287c-0.6692571428571429 -2.9831314285714283 -4.896102857142856 -2.9618022857142856 -5.538891428571429 0.02415085714285714l-0.07141714285714286 0.3317211428571429 1.676022857142857 0.36078171428571426 -1.676022857142857 -0.3607782857142857C31.919417142857142 6.24264 29.03900571428571 9.030754285714286 25.447062857142857 9.666205714285715c-3.0722742857142853 0.5434971428571428 -3.0722742857142853 4.981234285714286 0 5.5247657142857145 3.5919428571428567 0.6354171428571428 6.472354285714285 3.4235314285714287 7.260342857142857 7.083942857142857l0.07141714285714286 0.3317142857142857c0.6427885714285714 2.985942857142857 4.869634285714286 3.007302857142857 5.538891428571429 0.02417142857142857l0.08639999999999999 -0.3866057142857143c0.8180571428571428 -3.6462514285714285 3.7014857142857136 -6.413451428571428 7.2870857142857135 -7.047771428571428 3.0785142857142858 -0.5445599999999999 3.0785142857142858 -4.991142857142857 0 -5.535702857142857 -3.5856 -0.63432 -6.469028571428571 -3.40152 -7.2870857142857135 -7.047771428571428L38.31771428571428 2.2263634285714287ZM0 25.65438857142857c0 -9.035931428571427 7.325074285714286 -16.361005714285714 16.361005714285714 -16.361005714285714 0.5266285714285713 0 1.04808 0.02496 1.5630857142857142 0.07385142857142857 1.1781599999999999 0.11184000000000001 2.0425714285714283 1.157622857142857 1.9307314285714285 2.335782857142857 -0.11184000000000001 1.1781942857142857 -1.157622857142857 2.042605714285714 -2.335782857142857 1.9307657142857142 -0.38057142857142856 -0.03613714285714286 -0.7668342857142857 -0.05468571428571428 -1.1580342857142856 -0.05468571428571428 -6.669017142857142 0 -12.075291428571427 5.406308571428571 -12.075291428571427 12.075291428571427 0 4.165439999999999 2.28768 8.74824 5.232411428571428 12.40686857142857 1.4490514285714284 1.800342857142857 2.9843999999999995 3.283885714285714 4.330628571428571 4.296342857142857 0.6738857142857143 0.506742857142857 1.2653828571428571 0.8688 1.744765714285714 1.0957714285714284 0.23777142857142855 0.11279999999999998 0.4275085714285714 0.18239999999999998 0.5694857142857143 0.2225142857142857 0.12713142857142856 0.035314285714285715 0.18990857142857143 0.03977142857142857 0.19793142857142854 0.04045714285714285 0.0074742857142857146 -0.0006857142857142857 0.05739428571428572 -0.0041142857142857136 0.15658285714285713 -0.029485714285714285 0.11478857142857143 -0.029485714285714285 0.2705142857142857 -0.0816 0.46810285714285715 -0.168 0.3991542857142857 -0.17485714285714285 0.89736 -0.45737142857142854 1.4751771428571427 -0.8619428571428571 1.1550171428571427 -0.8084571428571429 2.49456 -2.009485714285714 3.820422857142857 -3.504 2.67456 -3.0143999999999997 5.06856 -6.964148571428572 5.8704342857142855 -10.844571428571427 0.23948571428571425 -1.15896 1.3731771428571427 -1.9043657142857144 2.5321714285714285 -1.6648457142857143 1.15896 0.23948571428571425 1.9043657142857144 1.3731771428571427 1.66488 2.5321371428571426C31.34605714285714 34.02771428571428 28.469074285714285 38.63657142857143 25.48700571428571 41.997257142857144c-1.5024685714285713 1.6933714285714285 -3.087668571428571 3.1344 -4.568708571428571 4.170857142857142 -0.7401942857142857 0.5180571428571429 -1.4878971428571428 0.9586285714285714 -2.2142742857142856 1.2768 -0.7029257142857143 0.3075428571428571 -1.5134057142857142 0.5571428571428572 -2.3430171428571427 0.5571428571428572 -0.9196799999999998 0 -1.8248571428571427 -0.30685714285714283 -2.602902857142857 -0.6757714285714286 -0.8097599999999999 -0.3836571428571428 -1.6505828571428571 -0.9161142857142857 -2.4850285714285714 -1.543542857142857 -1.6704685714285712 -1.2558857142857143 -3.4557942857142856 -2.9996571428571426 -5.093554285714285 -5.034171428571428C2.950577142857143 36.736799999999995 0 31.217142857142857 0 25.65438857142857ZM16.285714285714285 19.71428571428571C12.972 19.71428571428571 10.285714285714285 22.40057142857143 10.285714285714285 25.71428571428571s2.686285714285714 6 6 6S22.285714285714285 29.028 22.285714285714285 25.71428571428571s-2.686285714285714 -6 -6 -6Z" clip-rule="evenodd" stroke-width="3.4286"></path>
  </g>
</svg>