<svg xmlns="http://www.w3.org/2000/svg" fill="none" viewBox="0 0 48 48" id="Ai-Network-Spark--Streamline-Core-Remix" height="48" width="48">
  <desc>
    Ai Network Spark Streamline Icon: https://streamlinehq.com
  </desc>
  <g id="Free Remix/Artificial Intelligence/ai-network-spark--globe-internet-world-artificial-intelligence-ai">
    <path id="Union" fill="#000000" fill-rule="evenodd" d="M38.31771428571428 2.2263634285714287c-0.6692571428571429 -2.9831314285714283 -4.896102857142856 -2.9618022857142856 -5.538891428571429 0.02415085714285714l-0.07141714285714286 0.3317211428571429 1.676022857142857 0.36078171428571426 -1.676022857142857 -0.3607782857142857C31.919417142857142 6.24264 29.03900571428571 9.030754285714286 25.447062857142857 9.666205714285715c-3.0722742857142853 0.5434971428571428 -3.0722742857142853 4.981234285714286 0 5.5247657142857145 3.5919428571428567 0.6354171428571428 6.472354285714285 3.4235314285714287 7.260342857142857 7.083942857142857l0.07141714285714286 0.3317142857142857c0.6427885714285714 2.985942857142857 4.869634285714286 3.007302857142857 5.538891428571429 0.02417142857142857l0.08639999999999999 -0.3866057142857143c0.8180571428571428 -3.6462514285714285 3.7014857142857136 -6.413451428571428 7.2870857142857135 -7.047771428571428 3.0785142857142858 -0.5445599999999999 3.0785142857142858 -4.991142857142857 0 -5.535702857142857 -3.5856 -0.63432 -6.469028571428571 -3.40152 -7.2870857142857135 -7.047771428571428L38.31771428571428 2.2263634285714287ZM23.94853714285714 6.923451428571429c0.3956914285714285 -0.4865828571428571 0.5426399999999999 -1.0943314285714285 0.45671999999999996 -1.669302857142857 -0.07625142857142857 -0.5099999999999999 -0.33569142857142853 -0.9942171428571429 -0.76728 -1.3452 -0.39617142857142856 -0.3221485714285714 -0.8726742857142856 -0.4794171428571429 -1.3463999999999998 -0.4803771428571429L22.285714285714285 3.4285714285714284C9.977657142857142 3.4285714285714284 0 13.40622857142857 0 25.71428571428571 0 38.02251428571429 9.977657142857142 48 22.285714285714285 48c12.308228571428572 0 22.285714285714285 -9.977485714285713 22.285714285714285 -22.285714285714285 0 -1.1834742857142857 -0.9593142857142857 -2.142857142857143 -2.142857142857143 -2.142857142857143s-2.142857142857143 0.9593828571428571 -2.142857142857143 2.142857142857143c0 8.369965714285714 -5.712685714285714 15.405599999999998 -13.452 17.420571428571428 2.3192914285714283 -3.8036571428571424 3.923245714285714 -7.992342857142857 4.7496342857142855 -12.375119999999999 0.21925714285714287 -1.1629714285714285 -0.5457599999999999 -2.2834971428571427 -1.7087314285714283 -2.5027885714285714 -1.1629714285714285 -0.21925714285714287 -2.2835314285714285 0.5457599999999999 -2.5027885714285714 1.7087314285714283 -0.8303314285714285 4.404034285714285 -2.5464685714285715 8.58072 -5.06688 12.287691428571428 -3.0392571428571427 -4.4639999999999995 -4.752137142857142 -9.40056 -5.137028571428571 -14.396228571428571h9.895268571428572c1.1834742857142857 0 2.142857142857143 -0.9593828571428571 2.142857142857143 -2.142857142857143s-0.9593828571428571 -2.142857142857143 -2.142857142857143 -2.142857142857143h-9.9c0.4380342857142857 -5.851885714285714 2.698902857142857 -11.622754285714285 6.785348571428571 -16.647977142857144ZM12.867017142857144 23.57142857142857c0.3423085714285714 -5.271599999999999 1.9678971428571428 -10.491977142857143 4.878994285714286 -15.279805714285715 -7.072799999999999 1.8377485714285713 -12.454937142857142 7.868468571428572 -13.334057142857143 15.279805714285715h8.455062857142858Zm-8.455062857142858 4.285714285714286c0.880662857142857 7.424228571428571 6.279908571428571 13.462971428571427 13.370777142857142 15.289371428571426 -2.9208 -4.789371428571428 -4.558697142857143 -10.01328 -4.911531428571428 -15.289371428571426H4.411954285714286Z" clip-rule="evenodd" stroke-width="3.4286"></path>
  </g>
</svg>