<svg xmlns="http://www.w3.org/2000/svg" fill="none" viewBox="0 0 48 48" id="Ai-Prompt-Spark--Streamline-Core-Remix" height="48" width="48">
  <desc>
    Ai Prompt Spark Streamline Icon: https://streamlinehq.com
  </desc>
  <g id="Free Remix/Artificial Intelligence/ai-prompt-spark--app-code-apps-window-website-web-artificial-intelligence-ai">
    <path id="Union" fill="#000000" fill-rule="evenodd" d="M32.778822857142856 2.2505142857142855C33.42161142857143 -0.7354388571428571 37.64845714285714 -0.756768 38.31771428571428 2.2263634285714287l0.08639999999999999 0.3865851428571428c0.8180571428571428 3.6462514285714285 3.7014857142857136 6.413451428571428 7.2870857142857135 7.047771428571428 3.0785142857142858 0.5445599999999999 3.0785142857142858 4.991142857142857 0 5.535702857142857 -3.5856 0.63432 -6.469028571428571 3.40152 -7.2870857142857135 7.047771428571428l-0.08639999999999999 0.3866057142857143c-0.6692571428571429 2.9831314285714283 -4.896102857142856 2.9617714285714283 -5.538891428571429 -0.02417142857142857l-0.07141714285714286 -0.3317142857142857c-0.7879885714285714 -3.6604114285714284 -3.6683999999999997 -6.448525714285713 -7.260342857142857 -7.083942857142857 -3.0722742857142853 -0.5435314285714286 -3.0722742857142853 -4.981268571428571 0 -5.5247657142857145 3.5919428571428567 -0.6354514285714286 6.472354285714285 -3.423565714285714 7.260342857142857 -7.0839668571428565l1.676022857142857 0.3607782857142857 -1.676022857142857 -0.36078171428571426L32.778822857142856 2.2505142857142855ZM21.462034285714285 6.857142857142857c-3.844011428571428 3.031405714285714 -3.433542857142857 9.646731428571428 1.231062857142857 11.912948571428572H4.285714285714286V42.42857142857142c0 0.34114285714285714 0.13546285714285713 0.6678857142857143 0.37655999999999995 0.9092571428571428 0.24113142857142858 0.24102857142857143 0.5681485714285713 0.3764571428571428 0.9091542857142857 0.3764571428571428h33.42857142857142c0.7100571428571428 0 1.2857142857142856 -0.5756571428571428 1.2857142857142856 -1.2857142857142856V28.285714285714285c0 -1.1834742857142857 0.9593142857142857 -2.142857142857143 2.142857142857143 -2.142857142857143s2.142857142857143 0.9593828571428571 2.142857142857143 2.142857142857143v14.142857142857142c0 3.077142857142857 -2.494285714285714 5.571428571428571 -5.571428571428571 5.571428571428571h-33.42857142857142c-1.477645714285714 0 -2.894749714285714 -0.5869714285714285 -3.939596571428571 -1.632C0.5869885714285714 45.32331428571428 0 43.90628571428571 0 42.42857142857142v-30c0 -1.477645714285714 0.5869885714285714 -2.894742857142857 1.631832 -3.9395999999999995C2.676678857142857 7.4441485714285704 4.093782857142857 6.857142857142857 5.571428571428571 6.857142857142857h15.890605714285714ZM10.53246857142857 25.778571428571425c0.8368457142857142 -0.8368114285714285 2.1936342857142854 -0.8368114285714285 3.03048 0l5.142857142857142 5.142857142857142c0.8368457142857142 0.8368457142857142 0.8368457142857142 2.1936342857142854 0 3.03048l-5.142857142857142 5.14272c-0.8368457142857142 0.8369142857142857 -2.1936342857142854 0.8369142857142857 -3.03048 0 -0.8368114285714285 -0.8365714285714285 -0.8368114285714285 -2.1936 0 -3.0301714285714283l3.6276342857142856 -3.6278057142857145 -3.6276342857142856 -3.6275999999999997c-0.8368114285714285 -0.8368457142857142 -0.8368114285714285 -2.1936342857142854 0 -3.03048Zm11.800971428571428 9.658114285714285c-1.1834742857142857 0 -2.142857142857143 0.9593142857142857 -2.142857142857143 2.142857142857143s0.9593828571428571 2.142857142857143 2.142857142857143 2.142857142857143h5.142857142857142c1.1834399999999998 0 2.142857142857143 -0.9593142857142857 2.142857142857143 -2.142857142857143s-0.9594171428571429 -2.142857142857143 -2.142857142857143 -2.142857142857143h-5.142857142857142Z" clip-rule="evenodd" stroke-width="3.4286"></path>
  </g>
</svg>