<svg xmlns="http://www.w3.org/2000/svg" fill="none" viewBox="0 0 48 48" id="Ai-Redo-Spark--Streamline-Core-Remix" height="48" width="48">
  <desc>
    Ai Redo Spark Streamline Icon: https://streamlinehq.com
  </desc>
  <g id="Free Remix/Artificial Intelligence/ai-redo-spark--arrow-refresh-sync-synchronize-artificial-intelligence-ai">
    <path id="Union" fill="#000000" fill-rule="evenodd" d="m41.28411428571428 2.608844571428571 -2.4888 2.4887554285714284C34.71942857142857 1.9033474285714287 29.58185142857143 -0.0033482125714285713 24 -0.0033482125714285713 10.743325714285714 -0.0033482125714285713 -0.0033482125714285713 10.743325714285714 -0.0033482125714285713 24c0 1.1834742857142857 0.9593916411428571 2.142857142857143 2.142855641142857 2.142857142857143 1.1834674285714284 0 2.142846857142857 -0.9593828571428571 2.142846857142857 -2.142857142857143 0 -10.889759999999999 8.827885714285715 -19.717645714285712 19.717645714285712 -19.717645714285712 4.3972114285714285 0 8.457634285714287 1.4380799999999998 11.738057142857143 3.872537142857143l-2.8619314285714283 2.861828571428571c-0.4902857142857142 0.4902857142857142 -0.63696 1.2276342857142857 -0.37162285714285714 1.8682285714285716 0.2653371428571428 0.6405599999999999 0.8904342857142856 1.0582285714285713 1.5837942857142857 1.0582285714285713h8.407817142857143c0.9469714285714286 0 1.7142857142857142 -0.7674857142857142 1.7142857142857142 -1.7142857142857142V3.82104c0 -0.6933771428571428 -0.41759999999999997 -1.3184674285714284 -1.0580571428571428 -1.5838079999999999 -0.6408 -0.2653371428571428 -1.377942857142857 -0.11866971428571427 -1.8682285714285716 0.3716125714285714Zm2.4322285714285714 21.391223999999998c0 -1.1834742857142857 0.9593142857142857 -2.142857142857143 2.142857142857143 -2.142857142857143s2.142857142857143 0.9593828571428571 2.142857142857143 2.142857142857143c0 13.256845714285713 -10.746514285714285 24.00336 -24.00332571428571 24.00336 -5.58216 0 -10.719874285714285 -1.9069714285714285 -14.795862857142856 -5.1013714285714284l-2.489245714285714 2.489142857142857c-0.49025142857142856 0.4902857142857142 -1.2275999999999998 0.6370285714285714 -1.8681942857142855 0.3716571428571428s-1.058262857142857 -0.8903999999999999 -1.058262857142857 -1.584v-8.407885714285714c0 -0.9466285714285714 0.76752 -1.7141485714285714 1.7142857142857142 -1.7141485714285714h8.407885714285714c0.69336 0 1.3184571428571428 0.4178057142857142 1.5837942857142857 1.058262857142857 0.2653371428571428 0.6404571428571428 0.11866285714285714 1.377942857142857 -0.37162285714285714 1.8682285714285716l-2.861382857142857 2.861485714285714c3.280422857142857 2.434628571428571 7.34112 3.8729142857142853 11.738605714285715 3.8729142857142853 10.889725714285714 0 19.717611428571427 -8.827885714285715 19.717611428571427 -19.717645714285712ZM26.74549714285714 13.797771428571428c-0.6691199999999999 -2.9831314285714283 -4.895931428571428 -2.9617714285714283 -5.53872 0.02417142857142857l-0.07141714285714286 0.3317142857142857c-0.788022857142857 3.6604114285714284 -3.6683999999999997 6.448525714285713 -7.260342857142857 7.083942857142857 -3.0723085714285716 0.5435314285714286 -3.0722742857142853 4.981268571428571 0 5.5247657142857145 3.5919428571428567 0.6354514285714286 6.472354285714285 3.423565714285714 7.260342857142857 7.083977142857142l0.07141714285714286 0.3317142857142857c0.6427885714285714 2.985942857142857 4.869599999999999 3.0071999999999997 5.53872 0.02417142857142857l0.08670857142857143 -0.3866057142857143C27.650057142857143 30.169371428571427 30.53365714285714 27.402171428571428 34.11918857142857 26.767851428571426c3.078411428571428 -0.5445599999999999 3.078411428571428 -4.991142857142857 0 -5.535702857142857 -3.585531428571428 -0.63432 -6.469131428571428 -3.40152 -7.286982857142857 -7.047771428571428l-0.08670857142857143 -0.3866057142857143Z" clip-rule="evenodd" stroke-width="3.4286"></path>
  </g>
</svg>