<svg xmlns="http://www.w3.org/2000/svg" fill="none" viewBox="0 0 48 48" id="Ai-Science-Spark--Streamline-Core-Remix" height="48" width="48">
  <desc>
    Ai Science Spark Streamline Icon: https://streamlinehq.com
  </desc>
  <g id="Free Remix/Artificial Intelligence/ai-science-spark--atom-scientific-experiment-artificial-intelligence-ai">
    <path id="Union" fill="#000000" fill-rule="evenodd" d="M38.31737142857143 2.2263634285714287c-0.6692571428571429 -2.9831314285714283 -4.896034285714285 -2.9618022857142856 -5.538822857142857 0.02415085714285714l-0.07141714285714286 0.3317211428571429 1.6759542857142855 0.36078171428571426 -1.6759542857142855 -0.3607782857142857C31.91914285714285 6.24264 29.038731428571428 9.030754285714286 25.44678857142857 9.666205714285715c-3.0723085714285716 0.5434971428571428 -3.0722742857142853 4.981234285714286 0 5.5247657142857145 3.5919428571428567 0.6354171428571428 6.472354285714285 3.4235314285714287 7.260342857142857 7.083942857142857l0.07141714285714286 0.3317142857142857c0.6427885714285714 2.985942857142857 4.869565714285714 3.007302857142857 5.538822857142857 0.02417142857142857l0.08674285714285714 -0.3866057142857143c0.8177142857142856 -3.6462514285714285 3.7011428571428566 -6.413451428571428 7.286742857142857 -7.047771428571428 3.0785142857142858 -0.5445599999999999 3.0785142857142858 -4.991142857142857 0 -5.535702857142857 -3.5856 -0.63432 -6.469028571428571 -3.40152 -7.286742857142857 -7.047771428571428l-0.08674285714285714 -0.3865851428571428ZM18.835199999999997 11.479302857142855c-3.2836114285714286 -2.127668571428571 -6.506674285714285 -3.6427542857142856 -9.335485714285715 -4.281942857142856 -2.732674285714286 -0.6174514285714285 -5.697325714285714 -0.5315314285714285 -7.694334857142858 1.46544 -1.4821110857142856 1.4821371428571428 -1.9062555428571428 3.519085714285714 -1.7861386628571427 5.517428571428572C0.13955794285714285 16.181897142857142 0.8104799999999999 18.408651428571428 1.8481474285714286 20.691531428571427 2.8189954285714287 22.827394285714284 4.1543657142857136 25.10712 5.799634285714285 27.428571428571427 4.1543657142857136 29.750057142857138 2.8189988571428573 32.02974857142857 1.8481474285714286 34.165611428571424 0.8104799999999999 36.448457142857144 0.1395582857142857 38.675314285714286 0.019240937142857142 40.67691428571428c-0.12011739428571429 1.9985142857142855 0.3040270628571428 4.035428571428572 1.7861384914285712 5.517257142857143l1.5152297142857143 -1.5150857142857141 -1.5152297142857143 1.5150857142857141c1.4821131428571426 1.4821714285714285 3.5190891428571422 1.9062857142857144 5.5174319999999994 1.7862857142857143 2.001668571428571 -0.12034285714285714 4.228422857142857 -0.7913142857142856 6.511302857142857 -1.8287999999999998 2.135862857142857 -0.9709714285714286 4.415588571428571 -2.3063999999999996 6.73704 -3.9517714285714285 2.321417142857143 1.6453714285714285 4.601074285714286 2.9807999999999995 6.736902857142857 3.9514285714285715 2.28288 1.0378285714285715 4.509634285714285 1.7087999999999999 6.511302857142857 1.829142857142857 1.99824 0.12000000000000001 4.0351542857142855 -0.3041142857142857 5.517325714285715 -1.7862857142857143 2.0770285714285714 -2.0770285714285714 2.0907428571428572 -5.196685714285715 1.3813714285714285 -8.049257142857142 -0.7381714285714285 -2.9681142857142855 -2.4109714285714285 -6.357942857142857 -4.74 -9.798891428571428 -0.6630857142857142 -0.9800914285714285 -1.995428571428571 -1.2368914285714285 -2.9755199999999995 -0.5736 -0.9801257142857143 0.6633257142857143 -1.2369257142857142 1.9955999999999998 -0.5736 2.9756914285714284 2.1650057142857144 3.198925714285714 3.5552914285714285 6.120685714285713 4.12992 8.431199999999999 0.6034285714285713 2.4263999999999997 0.1793142857142857 3.552685714285714 -0.2526857142857143 3.9843428571428565 -0.3041142857142857 0.30445714285714287 -0.9342857142857143 0.6164571428571428 -2.2296685714285713 0.5386285714285713 -1.2920228571428571 -0.07748571428571428 -2.9854971428571426 -0.5389714285714285 -4.994982857142857 -1.452342857142857 -1.5446399999999998 -0.7021714285714286 -3.2123657142857143 -1.6422857142857141 -4.944171428571429 -2.7977142857142856 1.4854971428571426 -1.2373714285714286 2.9668799999999997 -2.5885714285714285 4.417885714285714 -4.039542857142856 0.7490742857142857 -0.7488 1.4704114285714285 -1.5049714285714284 2.162365714285714 -2.2643657142857143 0.7971085714285714 -0.8747999999999999 0.7341257142857143 -2.2301142857142855 -0.1406742857142857 -3.0272228571428568 -0.8747657142857141 -0.7970742857142856 -2.23008 -0.7340914285714285 -3.0271885714285713 0.1406742857142857 -0.6470742857142857 0.71016 -1.3226057142857142 1.4182285714285714 -2.0249485714285713 2.1205714285714286 -1.6412571428571427 1.6412571428571427 -3.3077485714285713 3.130114285714286 -4.953634285714285 4.449771428571428 -1.6459542857142857 -1.3196571428571429 -3.3124457142857144 -2.808582857142857 -4.953771428571428 -4.449908571428571 -1.6412571428571427 -1.6412571428571427 -3.1302171428571426 -3.3077142857142854 -4.449668571428571 -4.953634285714285 1.3194514285714285 -1.6458857142857142 2.808411428571428 -3.3123771428571427 4.449668571428571 -4.953634285714285 0.8932457142857142 -0.8932457142857142 1.7956457142857143 -1.7430514285714285 2.699862857142857 -2.546125714285714 0.8848457142857141 -0.7858971428571428 0.9650742857142857 -2.14032 0.17917714285714284 -3.025165714285714s-2.14032 -0.9650742857142857 -3.025165714285714 -0.17917714285714284c-0.9678171428571427 0.8596114285714285 -1.9317257142857143 1.7674285714285711 -2.8843199999999998 2.7200228571428573 -1.4510399999999999 1.451005714285714 -2.8021714285714285 2.9323885714285716 -4.039371428571428 4.41792 -1.1557028571428571 -1.7318742857142855 -2.0957142857142856 -3.3996342857142854 -2.797851428571428 -4.9443085714285715 -0.9134057142857142 -2.0095199999999998 -1.3748228571428571 -3.70296 -1.45248 -4.995017142857143 -0.07786285714285714 -1.2953485714285713 0.23437714285714287 -1.9255885714285712 0.5385942857142857 -2.2298057142857144 0.41276571428571424 -0.41276571428571424 1.460742857142857 -0.8259085714285713 3.7193142857142854 -0.3155657142857143 2.1624342857142858 0.48860571428571425 4.909165714285714 1.7282057142857141 7.94952 3.698262857142857 0.9931885714285713 0.6435428571428571 2.320045714285714 0.3601028571428571 2.9635885714285712 -0.6330857142857143 0.6435428571428571 -0.9931885714285713 0.3601371428571428 -2.320045714285714 -0.6330514285714285 -2.9635885714285712ZM8.547565714285714 30.99476571428571c-1.1557028571428571 1.73184 -2.0957142857142856 3.3996342857142854 -2.797851428571428 4.944205714285713 -0.9134057142857142 2.009485714285714 -1.3748228571428571 3.7032 -1.45248 4.995085714285715 -0.07786285714285714 1.2953142857142856 0.23437714285714287 1.9254857142857142 0.5385942857142857 2.229942857142857 0.30425142857142856 0.3041142857142857 0.9344914285714286 0.6164571428571428 2.22984 0.5386285714285713 1.2920228571428571 -0.07782857142857143 2.9854971428571426 -0.5393142857142856 4.994982857142857 -1.4526857142857144 1.5447085714285713 -0.7021714285714286 3.212468571428571 -1.641942857142857 4.9443085714285715 -2.7977142857142856 -1.4855657142857142 -1.2373714285714286 -2.966982857142857 -2.5885714285714285 -4.418022857142857 -4.039542857142856 -1.4510399999999999 -1.4510399999999999 -2.8021714285714285 -2.932422857142857 -4.039371428571428 -4.41792ZM16.28544 27.428571428571427c0 -2.3669142857142855 1.9187657142857142 -4.285714285714286 4.285714285714286 -4.285714285714286 2.3669142857142855 0 4.285714285714286 1.9187999999999998 4.285714285714286 4.285714285714286 0 2.3669485714285714 -1.9187999999999998 4.285714285714286 -4.285714285714286 4.285714285714286 -2.3669485714285714 0 -4.285714285714286 -1.9187657142857142 -4.285714285714286 -4.285714285714286Z" clip-rule="evenodd" stroke-width="3.4286"></path>
  </g>
</svg>