<svg xmlns="http://www.w3.org/2000/svg" fill="none" viewBox="0 0 48 48" id="Ai-Settings-Spark--Streamline-Core-Remix" height="48" width="48">
  <desc>
    Ai Settings Spark Streamline Icon: https://streamlinehq.com
  </desc>
  <g id="Free Remix/Artificial Intelligence/ai-settings-spark--cog-gear-settings-machine-artificial-intelligence">
    <path id="Union" fill="#000000" fill-rule="evenodd" d="M38.31771428571428 2.2263634285714287c-0.6692571428571429 -2.9831314285714283 -4.896102857142856 -2.9618022857142856 -5.538891428571429 0.02415085714285714l-0.07141714285714286 0.3317211428571429 1.676022857142857 0.36078171428571426 -1.676022857142857 -0.3607782857142857C31.919417142857142 6.24264 29.03900571428571 9.030754285714286 25.447062857142857 9.666205714285715c-3.0722742857142853 0.5434971428571428 -3.0722742857142853 4.981234285714286 0 5.5247657142857145 3.5919428571428567 0.6354171428571428 6.472354285714285 3.4235314285714287 7.260342857142857 7.083942857142857l0.07141714285714286 0.3317142857142857c0.6427885714285714 2.985942857142857 4.869634285714286 3.007302857142857 5.538891428571429 0.02417142857142857l0.08639999999999999 -0.3866057142857143c0.8180571428571428 -3.6462514285714285 3.7014857142857136 -6.413451428571428 7.2870857142857135 -7.047771428571428 3.0785142857142858 -0.5445599999999999 3.0785142857142858 -4.991142857142857 0 -5.535702857142857 -3.5856 -0.63432 -6.469028571428571 -3.40152 -7.2870857142857135 -7.047771428571428L38.31771428571428 2.2263634285714287ZM19.88214857142857 9.365314285714286c0.003497142857142857 1.1834742857142857 -0.9530742857142857 2.145702857142857 -2.1365485714285715 2.1492 -0.13361142857142855 0.00037714285714285714 -0.2639657142857143 0.04110857142857143 -0.37405714285714287 0.11688 -0.11005714285714284 0.07573714285714285 -0.19470857142857143 0.1829485714285714 -0.24277714285714283 0.30761142857142854l-0.0010285714285714284 0.0026399999999999996 -1.2066514285714285 3.1148571428571428c-0.17849142857142858 0.46073142857142857 -0.51072 0.8456228571428571 -0.9404571428571428 1.0895314285714286l-4.153097142857143 2.3571771428571426c-0.4185942857142857 0.23759999999999998 -0.9050399999999998 0.3273257142857143 -1.3808571428571428 0.25474285714285716l-3.2877942857142854 -0.5015314285714285c-0.12661714285714284 -0.014948571428571429 -0.2549828571428571 0.006891428571428571 -0.3696342857142857 0.06308571428571429 -0.11694857142857143 0.05729142857142856 -0.21442285714285714 0.14777142857142855 -0.2802857142857143 0.2600571428571428l-1.1185028571428572 1.9574057142857142 -0.013097142857142856 0.022937142857142854 -0.00013714285714285713 -0.00010285714285714286c-0.06798857142857143 0.1156457142857143 -0.09932571428571428 0.2491885714285714 -0.08986285714285713 0.3830057142857143 0.009394285714285713 0.13244571428571428 0.05832 0.25902857142857144 0.14036571428571426 0.36332571428571425l2.0993485714285716 2.603177142857143c0.30726857142857145 0.3809828571428571 0.4748228571428571 0.8557028571428571 0.4748228571428571 1.3451657142857143v4.714354285714285c0 0.47979428571428573 -0.16100571428571428 0.9457028571428572 -0.45726857142857136 1.3230857142857142l-2.0484685714285713 2.609725714285714 -0.009702857142857143 0.012377142857142856 -0.00006857142857142857 -0.00003428571428571428c-0.08358857142857141 0.10491428571428571 -0.13340571428571427 0.23269714285714285 -0.14290285714285714 0.3665142857142857 -0.009462857142857143 0.13378285714285712 0.021874285714285714 0.2674971428571429 0.08986285714285713 0.38304l0.01337142857142857 0.02262857142857143 -0.00013714285714285713 0.00034285714285714285 1.1185371428571427 1.9573714285714283c0.06586285714285714 0.11211428571428571 0.16330285714285714 0.2026285714285714 0.28025142857142854 0.2598857142857143 0.11465142857142856 0.05622857142857143 0.24298285714285714 0.07817142857142857 0.3696 0.06308571428571429l3.2878285714285713 -0.5016c0.4800685714285714 -0.07302857142857143 0.9708 0.018857142857142854 1.3917599999999999 0.2609142857142857l4.097005714285714 2.357485714285714c0.4245257142857143 0.2441142857142857 0.7525714285714286 0.6264 0.92952 1.0830857142857142l1.2066514285714285 3.1148571428571428 0.0010285714285714284 0.002742857142857143c0.048068571428571426 0.12445714285714285 0.13272 0.23177142857142854 0.24277714285714283 0.3075428571428571 0.1094742857142857 0.07542857142857141 0.2390742857142857 0.11622857142857142 0.3719314285714285 0.1169142857142857h2.348811428571428c0.13285714285714284 -0.0006857142857142857 0.2624228571428571 -0.041485714285714285 0.3718971428571428 -0.1169142857142857 0.11009142857142856 -0.07577142857142857 0.19470857142857143 -0.1830857142857143 0.24281142857142854 -0.3075428571428571l0.0010285714285714284 -0.002742857142857143 1.2066514285714285 -3.1148571428571428c0.17691428571428572 -0.4566857142857143 0.50496 -0.8389714285714285 0.92952 -1.0830857142857142l4.096971428571428 -2.357485714285714c0.42096 -0.24205714285714283 0.9116914285714285 -0.33394285714285715 1.3917942857142858 -0.2609142857142857l3.2877942857142854 0.5016c0.12661714285714284 0.015085714285714286 0.2549485714285714 -0.006857142857142857 0.3696 -0.06308571428571429 0.1169142857142857 -0.057257142857142854 0.21435428571428572 -0.14777142857142855 0.28021714285714283 -0.2598857142857143l0.0020228571428571426 -0.0034285714285714284 1.116582857142857 -1.953942857142857 0.013097142857142856 -0.02297142857142857 0.00013714285714285713 0c0.06798857142857143 -0.11554285714285714 0.09932571428571428 -0.24925714285714284 0.08982857142857142 -0.38304 -0.009359999999999999 -0.13244571428571428 -0.05828571428571429 -0.2589942857142857 -0.14033142857142858 -0.36329142857142854l-0.0025714285714285713 -0.0032228571428571428 -2.096777142857143 -2.5999885714285713c-0.7429371428571427 -0.921222857142857 -0.5983885714285714 -2.270262857142857 0.3228342857142857 -3.0132 0.921222857142857 -0.7429371428571427 2.270297142857143 -0.5983885714285714 3.013062857142857 0.3228342857142857l2.1048 2.609725714285714 0.007885714285714286 0.009737142857142857 0 0.00003428571428571428c0.6236571428571428 0.7827771428571428 0.9953142857142857 1.7362971428571428 1.0662857142857143 2.734731428571428 0.07028571428571428 0.9932228571428571 -0.16079999999999997 1.9847657142857142 -0.6627428571428571 2.8446514285714284l-1.1170285714285713 1.954285714285714 -0.005828571428571428 0.010285714285714285c-0.49165714285714285 0.8495999999999999 -1.224342857142857 1.5335999999999999 -2.1056914285714288 1.9652571428571428 -0.8812114285714286 0.43165714285714285 -1.8708685714285713 0.5917714285714285 -2.8432799999999996 0.45977142857142855l-0.03497142857142857 -0.0048 0.00003428571428571428 0 -2.56968 -0.3922285714285714 -2.790685714285714 1.6056 -0.9321942857142858 2.4065142857142856 -0.0009257142857142857 0.0024 -0.00010285714285714286 0.00034285714285714285c-0.3590742857142857 0.9287999999999998 -0.9900685714285715 1.728 -1.81056 2.292342857142857 -0.8212457142857142 0.5653714285714285 -1.7940342857142855 0.8691428571428571 -2.7909942857142855 0.8722285714285715l-0.006308571428571428 0h-2.3571771428571426l-0.006342857142857143 0c-0.9969257142857142 -0.0030857142857142854 -1.9697142857142858 -0.30685714285714283 -2.7909942857142855 -0.8722285714285715 -0.8210742857142856 -0.5650285714285714 -1.4524114285714285 -1.3645714285714285 -1.811348571428571 -2.2944l-0.00023999999999999998 -0.0006857142857142857 -0.9321942857142858 -2.4065142857142856 -2.7906514285714286 -1.6056 -2.569714285714286 0.3922285714285714 -0.03486857142857143 0.005142857142857143 -0.00003428571428571428 -0.00034285714285714285c-0.9724114285714285 0.13199999999999998 -1.9621028571428571 -0.028114285714285717 -2.843314285714286 -0.45977142857142855 -0.8812045714285714 -0.43165714285714285 -1.6141542857142857 -1.115657142857143 -2.105708571428571 -1.9652571428571428L1.847965714285714 38.777142857142856l0.00003085714285714286 -0.00034285714285714285 -1.1168022857142856 -1.954285714285714c-0.5020100571428572 -0.8598857142857144 -0.7330437154285714 -1.8510857142857144 -0.6627123428571428 -2.8446514285714284 0.07047668571428571 -0.9954857142857142 0.4402563428571428 -1.9463314285714284 1.0607077714285713 -2.727805714285714l1.5869931428571427 -2.021794285714286v-3.2173714285714285l-1.6297851428571428 -2.0209371428571425 -0.00785142857142857 -0.009737142857142857 0.00002742857142857142 -0.00003428571428571428C0.4548034285714285 23.19740571428571 0.08304377142857142 22.243885714285714 0.012359005714285713 21.245485714285714 -0.05797097142857143 20.252057142857144 0.1730496 19.260651428571425 0.6750377142857142 18.4008l1.1168365714285713 -1.9544571428571427 0.005852571428571428 -0.010251428571428571 0.00003085714285714286 0.00003428571428571428c0.4915508571428571 -0.8493257142857142 1.2245039999999998 -1.53336 2.105705142857143 -1.9651542857142854 0.8812114285714286 -0.4317942857142857 1.8709028571428572 -0.5918742857142857 2.843314285714286 -0.4598742857142857l0.034937142857142854 0.0047657142857142855 -0.00003428571428571428 0.00027428571428571427 2.5766742857142857 0.39305142857142855 2.8423885714285713 -1.6132457142857142 0.9296228571428571 -2.39976 0.00047999999999999996 -0.0012342857142857142c0.35897142857142855 -0.9295885714285713 0.9902057142857142 -1.7291314285714283 1.8111085714285715 -2.294057142857143 0.82128 -0.5651657142857142 1.7940685714285713 -0.8691428571428571 2.7909942857142855 -0.8720914285714284 1.1834742857142857 -0.003497142857142857 2.145702857142857 0.9530742857142857 2.1492 2.1365142857142856ZM18.88974857142857 20.708571428571428c-1.8308228571428569 0 -3.586662857142857 0.7273028571428571 -4.881257142857143 2.0218971428571426 -1.2945942857142856 1.2945942857142856 -2.0218971428571426 3.0504342857142857 -2.0218971428571426 4.881291428571428 0 1.3653257142857143 0.40484571428571425 2.6999657142857143 1.163382857142857 3.8352 0.7585371428571428 1.1352 1.8366514285714284 2.0200114285714283 3.0980571428571424 2.5424914285714286 1.2613714285714286 0.5225485714285714 2.6493942857142856 0.6593485714285714 3.9884571428571425 0.3929485714285714 1.3390971428571428 -0.2664685714285714 2.5691314285714286 -0.9239657142857143 3.534548571428571 -1.8893828571428568 0.9654171428571428 -0.9654171428571428 1.6228799999999999 -2.1954514285714284 1.8892457142857142 -3.5345142857142853 0.26636571428571426 -1.3390971428571428 0.12963428571428573 -2.7270857142857143 -0.39284571428571424 -3.988491428571429 -0.5224799999999999 -1.2613714285714286 -1.4072571428571428 -2.3394857142857144 -2.5424914285714286 -3.098022857142857 -1.1352 -0.7585371428571428 -2.4698742857142855 -1.163417142857143 -3.8352 -1.163417142857143Z" clip-rule="evenodd" stroke-width="3.4286"></path>
  </g>
</svg>