<svg xmlns="http://www.w3.org/2000/svg" fill="none" viewBox="0 0 48 48" id="Ai-Technology-Spark--Streamline-Core-Remix" height="48" width="48">
  <desc>
    Ai Technology Spark Streamline Icon: https://streamlinehq.com
  </desc>
  <g id="Free Remix/Artificial Intelligence/ai-technology-spark--lightbulb-idea-bright-lighting-artificial-intelligence-ai">
    <path id="Union" fill="#000000" fill-rule="evenodd" d="M38.31805714285714 2.2263634285714287c-0.6692571428571429 -2.9831314285714283 -4.896 -2.9618022857142856 -5.538822857142857 0.02415085714285714l-0.07141714285714286 0.3317211428571429 1.6759542857142855 0.36078171428571426 -1.6759542857142855 -0.3607782857142857C31.91982857142857 6.24264 29.03941714285714 9.030754285714286 25.447508571428568 9.666205714285715c-3.0723085714285716 0.5434971428571428 -3.0723085714285716 4.981234285714286 0 5.5247657142857145 3.591908571428571 0.6354171428571428 6.47232 3.4235314285714287 7.2603085714285704 7.083942857142857l0.07141714285714286 0.3317142857142857c0.6427885714285714 2.985942857142857 4.869565714285714 3.007302857142857 5.538822857142857 0.02417142857142857l0.08674285714285714 -0.3866057142857143c0.8177142857142856 -3.6462514285714285 3.7014857142857136 -6.413451428571428 7.286742857142857 -7.047771428571428 3.0785142857142858 -0.5445599999999999 3.0785142857142858 -4.991142857142857 0 -5.535702857142857 -3.585257142857143 -0.63432 -6.469028571428571 -3.40152 -7.286742857142857 -7.047771428571428l-0.08674285714285714 -0.3865851428571428Zm-13.468834285714285 -0.4340571428571428C22.37633142857143 0.5654674285714285 19.640125714285713 -0.050274514285714285 16.871314285714284 0.0032138434285714284 13.801028571428569 0.06252617142857143 10.802571428571428 0.9425794285714286 8.187222857142856 2.5520125714285715 5.571908571428572 4.1614628571428565 3.435051428571428 6.441599999999999 1.998486857142857 9.155725714285714c-1.4365577142857142 2.7141257142857143 -2.120440114285714 5.763325714285714 -1.9806497828571425 8.831005714285714C0.15762754285714284 21.054411428571427 1.1159931428571428 24.028765714285715 2.7934457142857143 26.600982857142853c1.4297999999999997 2.1925028571428573 3.3375942857142857 4.024697142857143 5.573262857142857 5.363142857142857v3.75096c0 1.0121142857142857 0.4020685714285714 1.9827428571428571 1.117782857142857 2.6986285714285714 0.71568 0.715542857142857 1.6863771428571428 1.1177142857142857 2.6984914285714283 1.1177142857142857h10.040502857142856c1.0121142857142857 0 1.9828114285714282 -0.40217142857142857 2.6984914285714283 -1.1177142857142857 0.7157142857142856 -0.7158857142857142 1.117782857142857 -1.6865142857142856 1.117782857142857 -2.6986285714285714V31.967760000000002c1.4939657142857143 -0.8898514285714285 2.8412228571428573 -2.0004342857142854 3.997165714285714 -3.29136 0.789462857142857 -0.8816914285714286 0.71472 -2.2364228571428573 -0.16693714285714284 -3.025885714285714 -0.8816571428571428 -0.789462857142857 -2.2363885714285714 -0.71472 -3.0258514285714284 0.16697142857142858 -1.092582857142857 1.22016 -2.412994285714286 2.2253828571428573 -3.8942742857142854 2.955222857142857 -0.7321714285714285 0.36072 -1.1958171428571427 1.106022857142857 -1.1958171428571427 1.9221942857142857V35.24571428571428H12.652422857142856V30.694902857142857c0 -0.8140114285714285 -0.46121142857142855 -1.557737142857143 -1.1904 -1.9195542857142855 -2.065577142857143 -1.0248685714285715 -3.8191885714285716 -2.5839771428571425 -5.078742857142857 -4.515394285714286 -1.2595885714285713 -1.9314514285714284 -1.9792114285714284 -4.164857142857143 -2.08416 -6.468308571428571 -0.10498285714285714 -2.303485714285714 0.4085485714285714 -4.593051428571428 1.4872114285714284 -6.631062857142856 1.0786971428571428 -2.0379771428571427 2.6832342857142857 -3.7501028571428567 4.647051428571428 -4.9586057142857145 1.963782857142857 -1.208502857142857 4.215291428571429 -1.8693257142857143 6.520697142857142 -1.913862857142857 2.0790514285714283 -0.04014857142857143 4.133622857142857 0.4221942857142857 5.990468571428571 1.3434171428571429 1.060182857142857 0.5259428571428572 2.346 0.09287999999999999 2.871942857142857 -0.9672685714285714 0.5259771428571428 -1.060182857142857 0.0929142857142857 -2.345996571428571 -0.9672685714285714 -2.871956571428571ZM10.714285714285714 43.714285714285715c-1.1834742857142857 0 -2.142857142857143 0.9593142857142857 -2.142857142857143 2.142857142857143s0.9593828571428571 2.142857142857143 2.142857142857143 2.142857142857143h12.857142857142856c1.1834742857142857 0 2.142857142857143 -0.9593142857142857 2.142857142857143 -2.142857142857143s-0.9593828571428571 -2.142857142857143 -2.142857142857143 -2.142857142857143h-12.857142857142856Z" clip-rule="evenodd" stroke-width="3.4286"></path>
  </g>
</svg>