<svg xmlns="http://www.w3.org/2000/svg" fill="none" viewBox="0 0 48 48" id="Ai-Upscale-Spark--Streamline-Core-Remix" height="48" width="48">
  <desc>
    Ai Upscale Spark Streamline Icon: https://streamlinehq.com
  </desc>
  <g id="Free Remix/Artificial Intelligence/ai-upscale-spark--magnifier-zoom-view-find-search-ai">
    <path id="Union" fill="#000000" fill-rule="evenodd" d="M22.285714285714285 4.285714285714286c-9.941108571428572 0 -18 8.058891428571428 -18 18 0 9.941142857142857 8.058891428571428 18 18 18 9.941142857142857 0 18 -8.058857142857141 18 -18 0 -9.941108571428572 -8.058857142857141 -18 -18 -18ZM0 22.285714285714285C0 9.977657142857142 9.977657142857142 0 22.285714285714285 0 34.593942857142856 0 44.57142857142857 9.977657142857142 44.57142857142857 22.285714285714285c0 5.072605714285714 -1.694742857142857 9.749348571428571 -4.549028571428571 13.494857142857143l7.098857142857143 7.098857142857143c1.171542857142857 1.171542857142857 1.171542857142857 3.0709714285714287 0 4.242857142857143 -1.171542857142857 1.171542857142857 -3.0709714285714287 1.171542857142857 -4.242514285714286 0l-7.098857142857143 -7.099200000000001C32.03427428571428 42.877028571428575 27.357874285714285 44.57142857142857 22.285714285714285 44.57142857142857 9.977657142857142 44.57142857142857 0 34.593942857142856 0 22.285714285714285Zm25.074754285714285 -10.595279999999999c-0.6797828571428571 -3.030685714285714 -4.9732457142857145 -3.0090514285714285 -5.62632 0.024548571428571427l-0.07426285714285713 0.34498285714285715C18.548914285714286 15.893485714285713 15.531942857142855 18.81456 11.768331428571429 19.480354285714284c-3.1196914285714286 0.5518971428571429 -3.1196571428571427 5.058822857142856 0 5.61072 3.7636114285714286 0.6657942857142857 6.780582857142857 3.5869028571428574 7.605840000000001 7.4204228571428565l0.07426285714285713 0.34498285714285715c0.65304 3.033462857142857 4.946537142857142 3.0550628571428566 5.62632 0.024548571428571427l0.09020571428571428 -0.4020685714285714c0.8564914285714286 -3.8185371428571426 3.8766857142857143 -6.7176 7.633405714285714 -7.382194285714285 3.125862857142857 -0.5529942857142857 3.125862857142857 -5.069108571428571 0 -5.622102857142857 -3.7567199999999996 -0.6645942857142857 -6.776914285714285 -3.563622857142857 -7.633405714285714 -7.382194285714285l-0.09020571428571428 -0.4020342857142857Z" clip-rule="evenodd" stroke-width="3.4286"></path>
  </g>
</svg>