<svg xmlns="http://www.w3.org/2000/svg" fill="none" viewBox="0 0 48 48" id="Ai-Vehicle-Spark-2--Streamline-Core-Remix" height="48" width="48">
  <desc>
    Ai Vehicle Spark 2 Streamline Icon: https://streamlinehq.com
  </desc>
  <g id="Free Remix/Artificial Intelligence/ai-vehicle-spark-2--car-automated-transportation-artificial-intelligence-ai">
    <path id="Union" fill="#000000" fill-rule="evenodd" d="M38.31771428571428 2.2263634285714287c-0.6692571428571429 -2.9831314285714283 -4.896102857142856 -2.9618022857142856 -5.538891428571429 0.02415085714285714l-0.07141714285714286 0.3317211428571429 1.676022857142857 0.36078171428571426 -1.676022857142857 -0.3607782857142857C31.919417142857142 6.24264 29.03900571428571 9.030754285714286 25.447062857142857 9.666205714285715c-3.0722742857142853 0.5434971428571428 -3.0722742857142853 4.981234285714286 0 5.5247657142857145 3.5919428571428567 0.6354171428571428 6.472354285714285 3.4235314285714287 7.260342857142857 7.083942857142857l0.07141714285714286 0.3317142857142857c0.6427885714285714 2.985942857142857 4.869634285714286 3.007302857142857 5.538891428571429 0.02417142857142857l0.08639999999999999 -0.3866057142857143c0.8180571428571428 -3.6462514285714285 3.7014857142857136 -6.413451428571428 7.2870857142857135 -7.047771428571428 3.0785142857142858 -0.5445599999999999 3.0785142857142858 -4.991142857142857 0 -5.535702857142857 -3.5856 -0.63432 -6.469028571428571 -3.40152 -7.2870857142857135 -7.047771428571428L38.31771428571428 2.2263634285714287ZM12.728982857142856 24.857142857142854c-1.4146285714285713 0 -2.6370171428571427 0.9882171428571428 -2.9334171428571425 2.3714057142857143L9.018 30.857142857142854h16.249645714285716l-0.7775314285714285 -3.6285942857142857C24.193714285714282 25.84536 22.971325714285715 24.857142857142854 21.556697142857143 24.857142857142854H12.728982857142856Zm17.15304 7.079725714285713L28.680685714285712 26.330571428571428C27.960857142857144 22.971359999999997 24.992194285714284 20.57142857142857 21.556697142857143 20.57142857142857H12.728982857142856c-3.4354971428571424 0 -6.404159999999999 2.3999314285714286 -7.123988571428571 5.759142857142857l-1.2013714285714285 5.606297142857143C1.7767405714285713 33.40141714285714 0 36.207428571428565 0 39.42857142857142c0 2.695885714285714 2.074488 4.9073142857142855 4.714285714285714 5.125371428571428v1.3032c0 1.183542857142857 0.9593828571428571 2.142857142857143 2.142857142857143 2.142857142857143s2.142857142857143 -0.9593142857142857 2.142857142857143 -2.142857142857143V44.57142857142857h16.285714285714285v1.2857142857142856c0 1.183542857142857 0.9593828571428571 2.142857142857143 2.142857142857143 2.142857142857143s2.142857142857143 -0.9593142857142857 2.142857142857143 -2.142857142857143v-1.3032C32.21122285714286 44.335885714285716 34.285714285714285 42.124457142857146 34.285714285714285 39.42857142857142c0 -3.221142857142857 -1.7767542857142857 -6.027188571428571 -4.403691428571428 -7.491702857142857Z" clip-rule="evenodd" stroke-width="3.4286"></path>
  </g>
</svg>