<svg xmlns="http://www.w3.org/2000/svg" fill="none" viewBox="0 0 48 48" id="Airplane--Streamline-Core-Remix" height="48" width="48">
  <desc>
    Airplane Streamline Icon: https://streamlinehq.com
  </desc>
  <g id="Free Remix/Map Travel/airplane--travel-plane-adventure-airplane-transportation">
    <path id="Vector 4494 (Stroke)" fill="#000000" fill-rule="evenodd" d="M4.285714285714286 10.714285714285714V27.428571428571427c0 0.7100914285714285 0.5756228571428571 1.2857142857142856 1.2857142857142856 1.2857142857142856H15.428571428571427c0.8237142857142856 0 1.5745371428571426 0.4721828571428571 1.9313485714285712 1.2146057142857143 0.35684571428571427 0.7424228571428572 0.25652571428571425 1.6236685714285712 -0.2580685714285714 2.2668685714285712L13.029908571428571 37.285714285714285h7.607965714285713c0.3905485714285714 0 0.7599771428571428 -0.17759999999999998 1.0039542857142858 -0.48239999999999994l5.827748571428571 -7.284788571428571c0.4066285714285714 -0.50832 1.0223314285714284 -0.80424 1.6732799999999999 -0.80424h13.285714285714285c0.7100571428571428 0 1.2857142857142856 -0.5756228571428571 1.2857142857142856 -1.2857142857142856v-0.3298285714285714c0 -7.323634285714285 -6.7176 -12.80478857142857 -13.891542857142857 -11.336434285714285 -0.0017142857142857142 0.00034285714285714285 -0.0033942857142857143 0.0006857142857142857 -0.0051085714285714285 0.0010285714285714284L13.298434285714285 19.239771428571427c-1.0898742857142856 0.22937142857142856 -2.1737485714285714 -0.41441142857142854 -2.4937714285714287 -1.4811771428571427L8.69136 10.714285714285714H4.285714285714286ZM0 10.285714285714285c0 -2.1302399999999997 1.726902857142857 -3.8571428571428568 3.8571428571428568 -3.8571428571428568h5.153074285714285c1.7033485714285712 0 3.205028571428571 1.1173028571428572 3.6944914285714288 2.7487885714285714l1.6388571428571428 5.462879999999999 14.612879999999999 -3.075222857142857C38.790171428571426 9.547851428571429 48 17.060262857142856 48 27.098742857142856V27.428571428571427c0 3.0770057142857143 -2.494285714285714 5.571428571428571 -5.571428571428571 5.571428571428571H30.172765714285713l-5.184342857142857 6.4803428571428565c-1.057302857142857 1.3217142857142856 -2.6580685714285712 2.091085714285714 -4.350548571428571 2.091085714285714H12.138205714285712c-3.23424 0 -5.0323199999999995 -3.7412571428571426 -3.0119314285714287 -6.266742857142857l1.8438171428571428 -2.3046857142857142H5.571428571428571C2.494412571428571 33 0 30.505577142857142 0 27.428571428571427V10.285714285714285Z" clip-rule="evenodd" stroke-width="3.4286"></path>
  </g>
</svg>