<svg xmlns="http://www.w3.org/2000/svg" fill="none" viewBox="0 0 48 48" id="Airplane-Disabled--Streamline-Core-Remix" height="48" width="48">
  <desc>
    Airplane Disabled Streamline Icon: https://streamlinehq.com
  </desc>
  <g id="Free Remix/Phone/airplane-disabled--server-plane-airplane-disabled-off-wireless-mode-internet-network">
    <path id="Union" fill="#000000" fill-rule="evenodd" d="M0.6276274285714285 0.6276274285714285c0.8368388571428571 -0.8368367999999999 2.1936205714285713 -0.8368367999999999 3.030452571428571 0L14.632079999999998 11.6016c-0.2186742857142857 -2.9749714285714286 0.6817371428571428 -5.936948571428571 2.5429714285714287 -8.294502857142858 3.4811314285714285 -4.4094617142857135 10.167565714285713 -4.4094617142857135 13.648697142857142 0 2.027485714285714 2.5681371428571427 2.9148342857142855 5.853497142857143 2.4574971428571426 9.091611428571428l-0.49076571428571425 5.319737142857143 13.198319999999999 6.693497142857142c0.72 0.3651428571428571 1.173942857142857 1.1038971428571427 1.173942857142857 1.9111542857142858v4.428034285714285c0 0.6292114285714285 -0.27668571428571426 1.22664 -0.7563428571428571 1.633782857142857 -0.47965714285714284 0.4071428571428571 -1.1142857142857143 0.5828914285714285 -1.7351999999999999 0.48054857142857144l-10.50678857142857 -1.7314971428571428L47.37222857142857 44.34171428571428c0.8369142857142857 0.8369142857142857 0.8369142857142857 2.1936 0 3.0305142857142857 -0.8369142857142857 0.8369142857142857 -2.1936 0.8369142857142857 -3.0305142857142857 0L16.016571428571428 19.04705142857143c-0.1447885714285714 -0.11190857142857143 -0.27524571428571426 -0.24212571428571428 -0.38759999999999994 -0.38763428571428565L0.6276274285714285 3.65808c-0.8368367999999999 -0.8368319999999999 -0.8368367999999999 -2.193613714285714 0 -3.030452571428571ZM19.386548571428573 16.356102857142854l9.577302857142856 9.577302857142856 13.913177142857144 2.292822857142857v-0.5872114285714286L29.55373714285714 20.882297142857144c-0.7836685714285714 -0.39743999999999996 -1.2452914285714285 -1.2330171428571428 -1.1645828571428571 -2.1079885714285713l0.6294857142857143 -6.82344c0.003497142857142857 -0.03792 0.008022857142857142 -0.07573714285714285 0.013508571428571427 -0.11341714285714284 0.3060342857142857 -2.0911199999999996 -0.26262857142857143 -4.215977142857143 -1.5721714285714286 -5.87472 -1.7652685714285714 -2.2360114285714285 -5.155885714285714 -2.2360114285714285 -6.921154285714286 0 -1.3095428571428571 1.658742857142857 -1.8782057142857143 3.7836 -1.5721714285714286 5.87472 0.00552 0.03768 0.01001142857142857 0.07549714285714286 0.013508571428571427 0.11341714285714284l0.4063885714285714 4.405234285714285ZM14.118274285714284 20.674491428571425c0.5353028571428571 1.0554857142857144 0.11358857142857143 2.3450399999999996 -0.9418971428571429 2.880342857142857L5.122765714285714 27.639154285714284v0.5872114285714286l14.399382857142855 -2.372982857142857c0.5855314285714285 -0.09647999999999998 1.18488 0.05417142857142857 1.6552114285714283 0.41609142857142856 0.4703314285714285 0.36188571428571426 0.7695085714285714 0.90264 0.8262514285714285 1.4933828571428571l0.7248342857142857 7.54662857142857c0.06901714285714285 0.7186285714285714 -0.22820571428571426 1.4232 -0.7907657142857143 1.8754285714285714L16.939542857142854 41.201142857142855v1.5822857142857143l6.319577142857143 -2.3293714285714286c0.47835428571428573 -0.17657142857142855 1.00392 -0.17657142857142855 1.4822742857142857 0l6.692708571428571 2.4668571428571426c0.3859885714285714 -0.564 1.0346057142857141 -0.9342857142857143 1.7696914285714282 -0.9342857142857143 1.1834057142857144 0 2.1427199999999997 0.9596571428571428 2.1427199999999997 2.142857142857143v1.7276571428571428c0 0.7004571428571429 -0.3425142857142857 1.3570285714285713 -0.9171428571428571 1.7578285714285715 -0.5748685714285714 0.4008 -1.3092685714285712 0.49508571428571424 -1.9667314285714284 0.2526857142857143l-8.462399999999999 -3.1193142857142857 -8.462399999999999 3.1193142857142857c-0.6574285714285714 0.24239999999999998 -1.3918285714285712 0.14811428571428573 -1.9666285714285714 -0.2526857142857143 -0.5748 -0.4008 -0.9173828571428571 -1.0573714285714286 -0.9173828571428571 -1.7578285714285715v-5.682857142857142c0 -0.6493714285714286 0.29444571428571426 -1.2637714285714285 0.8006057142857143 -1.6703999999999999l4.897405714285714 -3.9356571428571425 -0.39510857142857136 -4.113359999999999 -14.628384 2.4107314285714287c-0.6208422857142857 0.10230857142857142 -1.255278857142857 -0.07340571428571428 -1.7350114285714284 -0.48054857142857144 -0.47973599999999994 -0.4071428571428571 -0.7562811428571428 -1.0045714285714284 -0.7562811428571428 -1.633782857142857V26.323234285714282c0 -0.8072571428571428 0.45367199999999996 -1.5460114285714284 1.1736342857142856 -1.9111542857142858L11.237931428571429 19.73256c1.0554857142857144 -0.5353028571428571 2.345074285714286 -0.11358857142857143 2.880342857142857 0.9419314285714284Z" clip-rule="evenodd" stroke-width="3.4286"></path>
  </g>
</svg>