<svg xmlns="http://www.w3.org/2000/svg" fill="none" viewBox="0 0 48 48" id="Airplane-Enabled--Streamline-Core-Remix" height="48" width="48">
  <desc>
    Airplane Enabled Streamline Icon: https://streamlinehq.com
  </desc>
  <g id="Free Remix/Phone/airplane-enabled--server-plane-airplane-enabled-on-wireless-mode-internet-network">
    <path id="Vector 1959 (Stroke)" fill="#000000" fill-rule="evenodd" d="M27.46093714285714 5.962731428571429c-1.7652685714285714 -2.2360114285714285 -5.15592 -2.2360114285714285 -6.92118857142857 0 -1.3095771428571428 1.6587771428571427 -1.8782057142857143 3.7836342857142857 -1.5722057142857142 5.874754285714285 0.00552 0.03768 0.01001142857142857 0.07553142857142857 0.013542857142857143 0.11345142857142856l0.6294857142857143 6.82344c0.08070857142857142 0.8749714285714285 -0.3809142857142857 1.7105485714285713 -1.1645828571428571 2.1079885714285713L5.122765714285714 27.63912v0.5872457142857143l14.399451428571428 -2.372982857142857c0.5855657142857142 -0.09651428571428572 1.1849142857142858 0.05417142857142857 1.6552457142857142 0.41605714285714285 0.4702971428571428 0.36191999999999996 0.7694742857142857 0.9026742857142858 0.8262171428571428 1.4934171428571428l0.7248685714285714 7.54662857142857c0.06898285714285714 0.7186285714285714 -0.22824 1.4232 -0.7908 1.8754285714285714L16.93961142857143 41.201142857142855v1.5822857142857143l6.319577142857143 -2.3293714285714286c0.4783885714285714 -0.17657142857142855 1.00392 -0.17657142857142855 1.4823085714285713 0l6.319577142857143 2.3293714285714286v-1.5822857142857143l-4.998171428571428 -4.016228571428571c-0.5625257142857142 -0.45222857142857137 -0.8597485714285713 -1.1567999999999998 -0.7907657142857143 -1.8754285714285714l0.7248342857142857 -7.54662857142857c0.05674285714285714 -0.5907428571428571 0.35591999999999996 -1.1314971428571428 0.8262514285714285 -1.4934171428571428 0.4703314285714285 -0.36188571428571426 1.06968 -0.5125714285714286 1.6552457142857142 -0.41605714285714285l14.399588571428572 2.372982857142857v-0.5872457142857143L29.55469714285714 20.882365714285715c-0.7836685714285714 -0.39743999999999996 -1.2452914285714285 -1.2330171428571428 -1.1645828571428571 -2.1079885714285713l0.6294857142857143 -6.82344c0.003497142857142857 -0.03792 0.008022857142857142 -0.07577142857142857 0.013542857142857143 -0.11345142857142856 0.306 -2.0911199999999996 -0.26262857142857143 -4.215977142857143 -1.5722057142857142 -5.874754285714285ZM17.175942857142854 3.3071074285714284c3.481165714285714 -4.409478857142857 10.167599999999998 -4.409478857142857 13.648765714285714 0 2.027485714285714 2.568126857142857 2.9148342857142855 5.853486857142857 2.4574971428571426 9.091601142857142L32.79144 17.718514285714285l13.198388571428572 6.693565714285715c0.72 0.3651085714285714 1.173942857142857 1.1038628571428573 1.173942857142857 1.9111199999999997v4.428068571428571c0 0.6292114285714285 -0.27668571428571426 1.22664 -0.7563428571428571 1.633782857142857 -0.47965714285714284 0.4071428571428571 -1.1142857142857143 0.5828571428571429 -1.7351999999999999 0.48054857142857144l-14.628377142857142 -2.4107314285714287 -0.3950742857142857 4.113702857142857 4.897508571428571 3.935314285714285c0.5060571428571429 0.4066285714285714 0.8005714285714286 1.0210285714285714 0.8005714285714286 1.6703999999999999v5.682857142857142c0 0.7008 -0.3425142857142857 1.3570285714285713 -0.9174857142857142 1.7578285714285715 -0.5747314285714286 0.4008 -1.3091314285714286 0.49508571428571424 -1.9665942857142857 0.2526857142857143l-8.462434285714286 -3.1193142857142857 -8.462434285714286 3.1193142857142857c-0.6574628571428571 0.24239999999999998 -1.391862857142857 0.14811428571428573 -1.9666628571428568 -0.2526857142857143 -0.5747657142857143 -0.4008 -0.9173485714285714 -1.0570285714285714 -0.9173485714285714 -1.7578285714285715v-5.682857142857142c0 -0.6493714285714286 0.29444571428571426 -1.2637714285714285 0.8006057142857143 -1.6703999999999999l4.897405714285714 -3.935314285714285 -0.39510857142857136 -4.113702857142857 -14.628452571428571 2.4107314285714287c-0.6208422857142857 0.10230857142857142 -1.255278857142857 -0.07340571428571428 -1.7350114285714284 -0.48054857142857144 -0.47973599999999994 -0.4071428571428571 -0.7562811428571428 -1.0045714285714284 -0.7562811428571428 -1.633782857142857V26.3232c0 -0.8072571428571428 0.45367199999999996 -1.5460114285714284 1.1736342857142856 -1.9111199999999997L15.209245714285712 17.718514285714285l-0.49076571428571425 -5.319805714285714c-0.45737142857142854 -3.2381142857142855 0.43001142857142854 -6.523474285714285 2.4574628571428567 -9.091601142857142Z" clip-rule="evenodd" stroke-width="3.4286"></path>
  </g>
</svg>