<svg xmlns="http://www.w3.org/2000/svg" fill="none" viewBox="0 0 48 48" id="Airport-Plane-Transit--Streamline-Core-Remix" height="48" width="48">
  <desc>
    Airport Plane Transit Streamline Icon: https://streamlinehq.com
  </desc>
  <g id="Free Remix/Map Travel/airport-plane-transit">
    <path id="Union" fill="#000000" fill-rule="evenodd" d="M43.1808 14.571428571428571h-7.180114285714285c-0.6936 0 -1.3186285714285713 -0.4176685714285714 -1.584 -1.058262857142857 -0.2653028571428571 -0.6405942857142857 -0.11862857142857142 -1.3779085714285715 0.3716571428571428 -1.8681942857142855l2.621142857142857 -2.621108571428571C33.902742857142854 6.066 29.374079999999996 4.285714285714286 24.430251428571427 4.285714285714286c-11.124617142857142 0 -20.142857142857142 9.018274285714284 -20.142857142857142 20.142857142857142 0 1.1834742857142857 -0.9593965714285715 2.142857142857143 -2.142864 2.142857142857143 -1.183464 0 -2.142856179428571 -0.9593828571428571 -2.142856179428571 -2.142857142857143C0.0016741062857142856 10.93704 10.938719999999998 0 24.430251428571427 0 30.559817142857142 0 36.161142857142856 2.2583485714285714 40.44857142857143 5.984777142857142l2.054057142857143 -2.0540914285714287c0.4902857142857142 -0.4902857142857142 1.2277714285714285 -0.63696 1.8682285714285716 -0.37162285714285714 0.6404571428571428 0.2653371428571428 1.0583999999999998 0.8904342857142856 1.0583999999999998 1.5837942857142857v7.7142857142857135c0 0.9467657142857142 -0.7676571428571428 1.7142857142857142 -1.7142857142857142 1.7142857142857142h-0.4666285714285714c-0.02262857142857143 0.00034285714285714285 -0.04491428571428571 0.00034285714285714285 -0.06754285714285714 0Zm2.6770285714285715 6.857142857142857c-1.183542857142857 0 -2.142857142857143 0.9593828571428571 -2.142857142857143 2.142857142857143 0 11.124685714285713 -9.018514285714284 20.142857142857142 -20.14302857142857 20.142857142857142 -4.944102857142856 0 -9.473005714285714 -1.7804571428571427 -12.979817142857142 -4.738628571428571l2.6205942857142857 -2.6204571428571426c0.4902857142857142 -0.4902857142857142 0.6369257142857142 -1.2277714285714285 0.37158857142857143 -1.8682285714285716 -0.2653371428571428 -0.6407314285714285 -0.8903999999999999 -1.0583999999999998 -1.5837942857142857 -1.0583999999999998H4.821291428571429c-0.022457142857142856 -0.00034285714285714285 -0.04491428571428571 -0.00034285714285714285 -0.06737142857142857 0h-0.46769142857142854c-0.9467588571428571 0 -1.7142719999999998 0.76752 -1.7142719999999998 1.7142857142857142v7.7142857142857135c0 0.6932571428571428 0.41767542857142853 1.3182857142857143 1.0582491428571428 1.5836571428571427 0.6405942857142857 0.26537142857142854 1.377942857142857 0.11897142857142858 1.8682285714285716 -0.37131428571428565l2.0546399999999996 -2.054742857142857C11.84046857142857 45.7416 17.442102857142856 48 23.571942857142854 48c13.491599999999998 0 24.428742857142854 -10.937142857142856 24.428742857142854 -24.428571428571427 0 -1.1834742857142857 -0.9596571428571428 -2.142857142857143 -2.142857142857143 -2.142857142857143ZM30.14502857142857 16.32949714285714c1.0428685714285713 -0.09431999999999999 2.0937942857142855 0.03774857142857143 3.0809142857142855 0.38711999999999996 0.98712 0.34937142857142856 1.8870857142857143 0.9078171428571429 2.6386285714285713 1.6371771428571427 0.7511999999999999 0.7293257142857142 1.3361142857142856 1.6123542857142856 1.7146285714285714 2.5886742857142857 0.007542857142857143 0.018994285714285714 0.014057142857142858 0.038228571428571424 0.020228571428571426 0.057702857142857146 0.10079999999999999 0.3274971428571428 0.13611428571428572 0.6715885714285714 0.10388571428571428 1.0127314285714284 -0.032228571428571426 0.34110857142857137 -0.13131428571428572 0.6725485714285714 -0.2917714285714285 0.97536 -0.1601142857142857 0.30281142857142856 -0.3785142857142857 0.5710971428571429 -0.6425142857142857 0.7894971428571428 -0.26399999999999996 0.2184 -0.5684571428571429 0.38266285714285714 -0.8962285714285715 0.4833942857142857l-0.010285714285714285 0.0032228571428571428 0 -0.00006857142857142857 -6.036102857142857 1.7726057142857141 -0.24668571428571429 0.07590857142857142 -2.1693942857142856 6.352182857142856c-0.08019428571428572 0.27757714285714286 -0.22666285714285714 0.5317028571428571 -0.42699428571428566 0.7404 -0.2023542857142857 0.2107542857142857 -0.4532914285714285 0.36853714285714284 -0.7306628571428571 0.4596l-3.7049828571428565 1.3623085714285714 -0.02592 0.0096 -0.00013714285714285713 -0.00034285714285714285c-0.2992114285714286 0.09908571428571428 -0.6191657142857142 0.11862857142857142 -0.9281828571428572 0.05622857142857143 -0.3090171428571428 -0.0624 -0.5963657142857143 -0.20468571428571428 -0.8336228571428571 -0.4121142857142857 -0.23725714285714283 -0.20777142857142855 -0.41616 -0.4735885714285714 -0.5190514285714285 -0.7715657142857142 -0.10289142857142856 -0.29801142857142854 -0.12617142857142857 -0.6176914285714284 -0.06754285714285714 -0.9274285714285715 0.0057599999999999995 -0.03048 0.013165714285714286 -0.06058285714285715 0.022182857142857143 -0.09023999999999999l1.1999314285714286 -3.941794285714286 -5.440525714285713 1.770822857142857c-0.6421714285714285 0.21911999999999998 -1.3449257142857143 0.17674285714285712 -1.95624 -0.11814857142857141 -0.6138171428571428 -0.29605714285714285 -1.0857257142857142 -0.8226857142857142 -1.3129714285714285 -1.4651657142857142l-0.0074057142857142854 -0.020845714285714287 0.00027428571428571427 -0.00010285714285714286 -2.3183314285714283 -7.135337142857143 -0.011485714285714285 -0.03528 0.0007885714285714285 -0.00020571428571428572c-0.1164 -0.4191085714285714 -0.07093714285714285 -0.86664 0.12733714285714284 -1.2537942857142856 0.19830857142857142 -0.38711999999999996 0.5348914285714286 -0.6855085714285715 0.9430285714285714 -0.8359542857142856l0.020468571428571426 -0.007542857142857143 0.00006857142857142857 0.00023999999999999998 2.556342857142857 -0.8691428571428571c0.4126285714285714 -0.1596 0.8711314285714284 -0.15545142857142855 1.2812914285714285 0.012342857142857142 0.3934971428571428 0.16097142857142857 0.7131771428571428 0.4605942857142856 0.8995885714285714 0.8405828571428571l1.4318399999999998 2.2163999999999997 9.595954285714285 -4.797942857142857c0.9027428571428571 -0.5134285714285713 1.9051200000000001 -0.8275199999999999 2.939657142857143 -0.9210857142857143Z" clip-rule="evenodd" stroke-width="3.4286"></path>
  </g>
</svg>