<svg xmlns="http://www.w3.org/2000/svg" fill="none" viewBox="0 0 48 48" id="Airport-Security--Streamline-Core-Remix" height="48" width="48">
  <desc>
    Airport Security Streamline Icon: https://streamlinehq.com
  </desc>
  <g id="Free Remix/Map Travel/airport-security">
    <path id="Union" fill="#000000" fill-rule="evenodd" d="M1.2857142857142856 6.857142857142857C1.2857142857142856 3.780137142857143 3.780137142857143 1.2857142857142856 6.857142857142857 1.2857142857142856h34.285714285714285c3.077142857142857 0 5.571428571428571 2.494422857142857 5.571428571428571 5.571428571428571v9.172937142857142c0 13.871965714285713 -8.876571428571427 26.187634285714285 -22.036662857142858 30.57414857142857 -0.4398514285714285 0.14674285714285712 -0.9153942857142857 0.14674285714285712 -1.3552457142857144 0C10.162285714285714 42.21771428571428 1.2857142857142856 29.902045714285713 1.2857142857142856 16.030079999999998V6.857142857142857ZM6.857142857142857 5.571428571428571c-0.7100914285714285 0 -1.2857142857142856 0.5756228571428571 -1.2857142857142856 1.2857142857142856v9.172937142857142c0 11.7876 7.3925142857142845 22.279062857142854 18.428571428571427 26.273005714285713 11.035885714285714 -3.9939428571428572 18.428571428571427 -14.485405714285715 18.428571428571427 -26.273005714285713V6.857142857142857c0 -0.7100914285714285 -0.5756571428571428 -1.2857142857142856 -1.2857142857142856 -1.2857142857142856H6.857142857142857Zm23.28733714285714 6.458125714285714c1.0428685714285713 -0.09431999999999999 2.0938285714285714 0.03774857142857143 3.0809485714285714 0.38711999999999996 0.98712 0.34937142857142856 1.8872571428571427 0.9078171428571429 2.6384571428571424 1.6371771428571427 0.7515428571428571 0.7293257142857142 1.3364571428571428 1.6123542857142856 1.7149714285714284 2.5886742857142857 0.007199999999999999 0.018994285714285714 0.014057142857142858 0.038228571428571424 0.019885714285714284 0.057702857142857146 0.10079999999999999 0.3274628571428571 0.13611428571428572 0.6715885714285714 0.10388571428571428 1.0127314285714284 -0.032228571428571426 0.34110857142857137 -0.13131428571428572 0.6725485714285714 -0.2914285714285714 0.97536 -0.16045714285714285 0.30281142857142856 -0.37885714285714284 0.5710971428571429 -0.6428571428571428 0.7894971428571428s-0.5684571428571429 0.38266285714285714 -0.8958857142857142 0.4833942857142857l-0.010628571428571428 0.0032228571428571428 0 -0.00006857142857142857 -6.035931428571429 1.7726057142857141 -0.24668571428571429 0.07590857142857142 -2.1693942857142856 6.352182857142856c-0.08022857142857143 0.27757714285714286 -0.22669714285714285 0.5317028571428571 -0.42702857142857137 0.7404 -0.2023542857142857 0.2107542857142857 -0.45325714285714286 0.36853714285714284 -0.7306285714285714 0.4596l-3.705017142857143 1.3624457142857143 -0.025885714285714286 0.009531428571428571 -0.00013714285714285713 -0.00044571428571428567c-0.2992457142857143 0.09922285714285714 -0.6192 0.11859428571428572 -0.9282171428571429 0.056159999999999995 -0.30898285714285717 -0.0624 -0.5963314285714285 -0.2044457142857143 -0.8335885714285715 -0.41204571428571424 -0.23725714285714283 -0.20759999999999998 -0.4161942857142857 -0.47355428571428565 -0.5190857142857143 -0.7715314285714285 -0.10289142857142856 -0.29801142857142854 -0.12617142857142857 -0.6176914285714284 -0.06754285714285714 -0.9274285714285715 0.0057599999999999995 -0.03048 0.013165714285714286 -0.06058285714285715 0.022217142857142855 -0.09023999999999999l1.1998971428571428 -3.941794285714286 -5.440491428571429 1.770822857142857c-0.6422057142857143 0.21911999999999998 -1.3449257142857143 0.17674285714285712 -1.9562742857142856 -0.11814857142857141 -0.6137828571428572 -0.29605714285714285 -1.0857257142857142 -0.8226857142857142 -1.3129714285714285 -1.4651657142857142l-0.007371428571428571 -0.020845714285714287 0.00027428571428571427 -0.00010285714285714286 -2.318365714285714 -7.135337142857143 -0.01145142857142857 -0.03528 0.0007542857142857143 -0.00023999999999999998c-0.1164 -0.41907428571428573 -0.07090285714285714 -0.8666057142857142 0.12737142857142858 -1.25376 0.1982742857142857 -0.38711999999999996 0.5348914285714286 -0.6855085714285715 0.9429942857142857 -0.8359542857142856l0.020468571428571426 -0.007577142857142857 0.00010285714285714286 0.00027428571428571427 2.556342857142857 -0.8691428571428571c0.4126285714285714 -0.1596 0.8710971428571429 -0.15545142857142855 1.2812571428571427 0.012342857142857142 0.3934971428571428 0.16097142857142857 0.7131771428571428 0.4605942857142856 0.8996228571428572 0.8405828571428571l1.4318399999999998 2.2163999999999997 9.59592 -4.797942857142857c0.9027771428571427 -0.5134285714285713 1.9051542857142856 -0.8275199999999999 2.939657142857143 -0.9210857142857143Z" clip-rule="evenodd" stroke-width="3.4286"></path>
  </g>
</svg>