<svg xmlns="http://www.w3.org/2000/svg" fill="none" viewBox="0 0 48 48" id="Airport-Plane--Streamline-Core-Remix" height="48" width="48">
  <desc>
    Airport Plane Streamline Icon: https://streamlinehq.com
  </desc>
  <g id="Free Remix/Map Travel/airport-plane">
    <path id="Vector 4710" stroke="#000000" stroke-linecap="round" stroke-linejoin="round" stroke-width="4.2857" d="M36.62777142857143 3.65808 28.285714285714285 12 14.163565714285712 5.275165714285714c-2.3718171428571426 -1.12944 -5.1804 -0.8045485714285714 -7.231748571428571 0.8365028571428571l-3.2479542857142856 2.5983771428571427c-0.9449897142857142 0.756 -0.8303485714285714 2.2266514285714285 0.22035428571428567 2.827062857142857L19.71428571428571 20.57142857142857 13.285714285714285 27l-4.929085714285715 -0.7583314285714284C5.089405714285714 25.73904 2.142857142857143 28.266925714285712 2.142857142857143 31.572582857142855c0 1.31832 0.9530914285714285 2.443405714285714 2.253462857142857 2.660125714285714L12.428571428571427 35.57142857142857l1.33872 8.032114285714284c0.21672 1.300457142857143 1.3418057142857143 2.2536 2.660125714285714 2.2536 3.3056571428571426 0 5.833542857142857 -2.9465142857142856 5.330914285714286 -6.2139428571428565L21 34.714285714285715 27.428571428571427 28.285714285714285l9.034285714285714 15.810171428571428c0.6003428571428572 1.0505142857142857 2.0711999999999997 1.1653714285714285 2.8272 0.22011428571428568l2.5981714285714284 -3.2478857142857143c1.6412571428571427 -2.0513142857142856 1.9659428571428572 -4.859999999999999 0.8365714285714285 -7.231679999999999L36 19.71428571428571l8.342057142857142 -8.341919999999998c0.969942857142857 -0.9701828571428571 1.5150857142857141 -2.2860342857142855 1.5150857142857141 -3.65808s-0.5451428571428572 -2.6878971428571425 -1.5150857142857141 -3.65808l-0.3984 -0.39812571428571425C42.97371428571429 2.687900571428571 41.65782857142857 2.142857142857143 40.285714285714285 2.142857142857143s-2.688 0.5450434285714285 -3.657942857142857 1.515222857142857Z"></path>
  </g>
</svg>