<svg xmlns="http://www.w3.org/2000/svg" fill="none" viewBox="0 0 48 48" id="Alarm-Clock--Streamline-Core-Remix" height="48" width="48">
  <desc>
    Alarm Clock Streamline Icon: https://streamlinehq.com
  </desc>
  <g id="Free Remix/Interface Essential/alarm-clock--time-tock-stopwatch-measure-clock-tick">
    <path id="Union" fill="#000000" fill-rule="evenodd" d="M14.33646857142857 4.901108571428571c1.2862971428571428 -0.6018514285714286 1.8411771428571426 -2.1325234285714285 1.2392914285714285 -3.4188411428571426 -0.6018514285714286 -1.2863190857142857 -2.1325371428571427 -1.8411771428571426 -3.4188342857142855 -1.2393126857142858C7.48128 2.430678857142857 3.4657714285714283 5.7869142857142855 0.4837508571428571 9.934834285714286c-0.8289874285714285 1.1530971428571428 -0.5662405714285714 2.7598971428571426 0.5868582857142858 3.588891428571428 1.1531005714285714 0.8289599999999999 2.7598937142857145 0.5662285714285714 3.588888 -0.5868685714285714 2.474022857142857 -3.441325714285714 5.804982857142857 -6.224057142857142 9.676971428571427 -8.035748571428572ZM32.42461714285714 1.4822674285714283c0.6018857142857142 -1.2863194285714286 2.13264 -1.8411771428571426 3.41904 -1.2393126857142858C40.5192 2.430678857142857 44.53474285714285 5.7869142857142855 47.516571428571424 9.934834285714286c0.8290285714285713 1.1530971428571428 0.5664 2.7598971428571426 -0.5866285714285714 3.588891428571428 -1.1533714285714285 0.8289599999999999 -2.7600000000000002 0.5662285714285714 -3.589028571428571 -0.5868685714285714 -2.4740571428571427 -3.441325714285714 -5.804914285714285 -6.224057142857142 -9.676971428571427 -8.035748571428572 -1.2863314285714285 -0.6018514285714286 -1.8411771428571426 -2.1325234285714285 -1.2393257142857144 -3.4188411428571426ZM7.707462857142856 27.426959999999998c0 -8.998217142857143 7.294491428571428 -16.29270857142857 16.29270857142857 -16.29270857142857s16.292742857142855 7.294491428571428 16.292742857142855 16.29270857142857c0 8.998182857142856 -7.294525714285713 16.292811428571426 -16.292742857142855 16.292811428571426 -8.998217142857143 0 -16.29270857142857 -7.2946285714285715 -16.29270857142857 -16.292811428571426Zm16.29270857142857 -20.578422857142858c-11.365131428571429 0 -20.578415999999997 9.213291428571427 -20.578415999999997 20.578422857142858 0 11.36526857142857 9.213284571428572 20.578525714285714 20.578415999999997 20.578525714285714 11.3652 0 20.57845714285714 -9.213257142857142 20.57845714285714 -20.578525714285714 0 -11.365131428571429 -9.213257142857142 -20.578422857142858 -20.57845714285714 -20.578422857142858Zm2.571462857142857 10.292434285714284c0 -1.420182857142857 -1.1512799999999999 -2.571428571428571 -2.571428571428571 -2.571428571428571 -1.420182857142857 0 -2.571428571428571 1.1512457142857142 -2.571428571428571 2.571428571428571v10.285714285714285c0 1.4201485714285715 1.1512457142857142 2.571428571428571 2.571428571428571 2.571428571428571h8.571428571428571c1.4201485714285715 0 2.5715657142857142 -1.1512799999999999 2.5715657142857142 -2.571428571428571 0 -1.420182857142857 -1.151417142857143 -2.571428571428571 -2.5715657142857142 -2.571428571428571h-6v-7.7142857142857135Z" clip-rule="evenodd" stroke-width="3.4286"></path>
  </g>
</svg>