<svg xmlns="http://www.w3.org/2000/svg" fill="none" viewBox="0 0 48 48" id="Alien--Streamline-Core-Remix" height="48" width="48">
  <desc>
    Alien Streamline Icon: https://streamlinehq.com
  </desc>
  <g id="Free Remix/Nature Ecology/alien--science-extraterristerial-life-form-space-universe-head-astronomy">
    <path id="Union" fill="#000000" fill-rule="evenodd" d="M5.571428571428571 20.57142857142857c0 -5.628582857142857 1.8578399999999997 -9.220491428571428 4.826125714285714 -11.48286857142857C13.47168 6.745474285714286 18.069599999999998 5.571428571428571 24 5.571428571428571c5.9304 0 10.528457142857143 1.1740457142857144 13.602514285714285 3.5171314285714286 2.9681142857142855 2.262377142857143 4.826057142857143 5.854285714285714 4.826057142857143 11.48286857142857 0 11.551611428571427 -7.997485714285713 21.857142857142858 -18.428571428571427 21.857142857142858 -10.430948571428571 0 -18.428571428571427 -10.30553142857143 -18.428571428571427 -21.857142857142858ZM24 1.2857142857142856c-6.378171428571428 0 -12.065965714285714 1.2430834285714285 -16.200411428571428 4.394297142857143C3.559302857142857 8.91192 1.2857142857142856 13.891439999999998 1.2857142857142856 20.57142857142857c0 13.065531428571427 9.145234285714285 26.142857142857142 22.71428571428571 26.142857142857142 13.568914285714284 0 22.71428571428571 -13.077325714285713 22.71428571428571 -26.142857142857142 0 -6.679988571428571 -2.273485714285714 -11.659508571428571 -6.513942857142856 -14.891417142857142C36.06582857142857 2.5287977142857145 30.378171428571427 1.2857142857142856 24 1.2857142857142856ZM10.339474285714285 16.539085714285715c1.5174514285714285 -0.3267085714285714 3.0859199999999998 -0.33757714285714285 4.607725714285714 -0.03195428571428571 1.5218399999999999 0.30558857142857143 2.9645142857142854 0.9211885714285712 4.23816 1.8083999999999998 0.08321142857142856 0.057942857142857136 0.15545142857142855 0.13018285714285713 0.2133942857142857 0.2133942857142857 0.8872457142857143 1.27368 1.5028114285714285 2.7163199999999996 1.8083999999999998 4.23816 0.30562285714285714 1.5218057142857142 0.2947542857142857 3.0902742857142855 -0.03195428571428571 4.607725714285714 -0.07090285714285714 0.32934857142857143 -0.3281828571428571 0.5866285714285714 -0.6575314285714285 0.6575314285714285 -1.5174514285714285 0.3267085714285714 -3.0859199999999998 0.33757714285714285 -4.607725714285714 0.03195428571428571 -1.5218399999999999 -0.30558857142857143 -2.9644799999999996 -0.9211542857142857 -4.23816 -1.8083999999999998 -0.08321142857142856 -0.057942857142857136 -0.15545142857142855 -0.13018285714285713 -0.2133942857142857 -0.2133942857142857 -0.8872114285714285 -1.273645714285714 -1.5028114285714285 -2.7163199999999996 -1.8083999999999998 -4.23816 -0.30562285714285714 -1.5218057142857142 -0.2947542857142857 -3.0902742857142855 0.03195428571428571 -4.607725714285714 0.07090285714285714 -0.32934857142857143 0.3281828571428571 -0.5866285714285714 0.6575314285714285 -0.6575314285714285Zm27.321325714285713 0c-1.5171428571428571 -0.3267085714285714 -3.0857142857142854 -0.33757714285714285 -4.607588571428571 -0.03195428571428571 -1.5218399999999999 0.30558857142857143 -2.9644799999999996 0.9211542857142857 -4.23816 1.8083999999999998 -0.08317714285714285 0.057942857142857136 -0.15545142857142855 0.13018285714285713 -0.2133942857142857 0.2133942857142857 -0.8872114285714285 1.273645714285714 -1.5027771428571426 2.7163199999999996 -1.8083999999999998 4.23816 -0.30562285714285714 1.5218057142857142 -0.2947542857142857 3.0902742857142855 0.03195428571428571 4.607725714285714 0.07090285714285714 0.32934857142857143 0.3281828571428571 0.5866285714285714 0.6575314285714285 0.6575314285714285 1.5174514285714285 0.3267085714285714 3.0859199999999998 0.33757714285714285 4.60776 0.03195428571428571 1.5218057142857142 -0.30558857142857143 2.964582857142857 -0.9211885714285712 4.238297142857142 -1.8083999999999998 0.08297142857142857 -0.057942857142857136 0.1553142857142857 -0.13018285714285713 0.21325714285714284 -0.2133942857142857 0.8873142857142856 -1.27368 1.5027428571428572 -2.7163199999999996 1.8082285714285713 -4.23816 0.3058285714285714 -1.5218057142857142 0.2948571428571428 -3.0902742857142855 -0.03188571428571428 -4.607725714285714 -0.07097142857142856 -0.32934857142857143 -0.3281142857142857 -0.5866285714285714 -0.6576 -0.6575314285714285Z" clip-rule="evenodd" stroke-width="3.4286"></path>
  </g>
</svg>