<svg xmlns="http://www.w3.org/2000/svg" fill="none" viewBox="0 0 48 48" id="Align-Front-1--Streamline-Core-Remix" height="48" width="48">
  <desc>
    Align Front 1 Streamline Icon: https://streamlinehq.com
  </desc>
  <g id="Free Remix/Interface Essential/align-front-1--design-front-layer-layers-pile-stack-arrange-square">
    <path id="Union" fill="#000000" fill-rule="evenodd" d="M41.14285714285714 46.71428571428571c3.077142857142857 0 5.571428571428571 -2.494285714285714 5.571428571428571 -5.571428571428571l0 -25.71428571428571c0 -3.0770057142857143 -2.494285714285714 -5.571428571428571 -5.571428571428571 -5.571428571428571l-25.71428571428571 0c-3.0770057142857143 0 -5.571428571428571 2.494422857142857 -5.571428571428571 5.571428571428571l0 25.71428571428571c0 3.077142857142857 2.494422857142857 5.571428571428571 5.571428571428571 5.571428571428571l25.71428571428571 0ZM1.2857142857142856 34.285714285714285c0 1.183542857142857 0.9593897142857143 2.142857142857143 2.142857142857143 2.142857142857143 1.1834742857142857 0 2.142857142857143 -0.9593142857142857 2.142857142857143 -2.142857142857143l0 -27.428571428571427c0 -0.3410057142857143 0.13546285714285713 -0.6680228571428571 0.37655999999999995 -0.9091199999999999C6.18912 5.706891428571428 6.516137142857142 5.571428571428571 6.857142857142857 5.571428571428571l27.428571428571427 0c1.183542857142857 0 2.142857142857143 -0.9593828571428571 2.142857142857143 -2.142857142857143 0 -1.1834674285714284 -0.9593142857142857 -2.142857142857143 -2.142857142857143 -2.142857142857143L6.857142857142857 1.2857177142857141c-1.477645714285714 0 -2.894742857142857 0.586992 -3.9395999999999995 1.6318285714285712C1.8726994285714285 3.9623999999999997 1.2857108571428573 5.379497142857143 1.2857108571428573 6.857142857142857L1.2857142857142856 34.285714285714285Z" clip-rule="evenodd" stroke-width="3.4286"></path>
  </g>
</svg>