<svg xmlns="http://www.w3.org/2000/svg" fill="none" viewBox="0 0 48 48" id="Align-Left-1--Streamline-Core-Remix" height="48" width="48">
  <desc>
    Align Left 1 Streamline Icon: https://streamlinehq.com
  </desc>
  <g id="Free Remix/Interface Essential/align-left-1--paragraph-text-alignment-align-left-formatting-right">
    <path id="Union" fill="#000000" fill-rule="evenodd" d="M1.2857142857142856 3.4285714285714284C1.2857142857142856 2.245104 2.245104 1.2857142857142856 3.4285714285714284 1.2857142857142856h41.14285714285714c1.183542857142857 0 2.142857142857143 0.9593897142857143 2.142857142857143 2.142857142857143 0 1.1834742857142857 -0.9593142857142857 2.142857142857143 -2.142857142857143 2.142857142857143H3.4285714285714284C2.245104 5.571428571428571 1.2857142857142856 4.612045714285714 1.2857142857142856 3.4285714285714284Zm0 10.285714285714285c0 -1.1834742857142857 0.9593897142857143 -2.142857142857143 2.142857142857143 -2.142857142857143h30.857142857142854c1.183542857142857 0 2.142857142857143 0.9593828571428571 2.142857142857143 2.142857142857143s-0.9593142857142857 2.142857142857143 -2.142857142857143 2.142857142857143H3.4285714285714284C2.245104 15.857142857142856 1.2857142857142856 14.89776 1.2857142857142856 13.714285714285714ZM3.4285714285714284 21.857142857142858c-1.1834674285714284 0 -2.142857142857143 0.9593828571428571 -2.142857142857143 2.142857142857143s0.9593897142857143 2.142857142857143 2.142857142857143 2.142857142857143h20.57142857142857c1.1834742857142857 0 2.142857142857143 -0.9593828571428571 2.142857142857143 -2.142857142857143S25.183474285714283 21.857142857142858 24 21.857142857142858H3.4285714285714284ZM1.2857142857142856 44.57142857142857c0 -1.183542857142857 0.9593897142857143 -2.142857142857143 2.142857142857143 -2.142857142857143h41.14285714285714c1.183542857142857 0 2.142857142857143 0.9593142857142857 2.142857142857143 2.142857142857143s-0.9593142857142857 2.142857142857143 -2.142857142857143 2.142857142857143H3.4285714285714284c-1.1834674285714284 0 -2.142857142857143 -0.9593142857142857 -2.142857142857143 -2.142857142857143ZM3.4285714285714284 32.14285714285714c-1.1834674285714284 0 -2.142857142857143 0.9593828571428571 -2.142857142857143 2.142857142857143 0 1.183542857142857 0.9593897142857143 2.142857142857143 2.142857142857143 2.142857142857143h30.857142857142854c1.183542857142857 0 2.142857142857143 -0.9593142857142857 2.142857142857143 -2.142857142857143 0 -1.1834742857142857 -0.9593142857142857 -2.142857142857143 -2.142857142857143 -2.142857142857143H3.4285714285714284Z" clip-rule="evenodd" stroke-width="3.4286"></path>
  </g>
</svg>