<svg xmlns="http://www.w3.org/2000/svg" fill="none" viewBox="0 0 48 48" id="Alt--Streamline-Core-Remix" height="48" width="48">
  <desc>
    Alt Streamline Icon: https://streamlinehq.com
  </desc>
  <g id="Free Remix/Computer Devices/alt--windows-key-alt-pc-keyboard">
    <path id="Union" fill="#000000" fill-rule="evenodd" d="M6.593417142857142 5.571428571428571c-0.5644457142857142 0 -1.0219885714285715 0.45754285714285714 -1.0219885714285715 1.0219885714285715V41.40651428571429c0 0.5643428571428571 0.45754285714285714 1.0220571428571428 1.0219885714285715 1.0220571428571428H41.40651428571429c0.5643428571428571 0 1.0220571428571428 -0.45771428571428574 1.0220571428571428 -1.0220571428571428V6.593417142857142c0 -0.5644457142857142 -0.45771428571428574 -1.0219885714285715 -1.0220571428571428 -1.0219885714285715H6.593417142857142ZM1.2857142857142856 6.593417142857142C1.2857142857142856 3.662057142857143 3.662057142857143 1.2857142857142856 6.593417142857142 1.2857142857142856H41.40651428571429c2.931428571428571 0 5.307771428571429 2.3763428571428573 5.307771428571429 5.307702857142856V41.40651428571429c0 2.931428571428571 -2.3763428571428573 5.307771428571429 -5.307771428571429 5.307771428571429H6.593417142857142C3.662057142857143 46.71428571428571 1.2857142857142856 44.337942857142856 1.2857142857142856 41.40651428571429V6.593417142857142Zm33.42857142857142 9.108342857142857H31.03889142857143c-1.1834742857142857 0 -2.142857142857143 0.9593828571428571 -2.142857142857143 2.142857142857143s0.9593828571428571 2.142857142857143 2.142857142857143 2.142857142857143H32.57142857142857v10.167942857142856c0 1.1834742857142857 0.9593828571428571 2.142857142857143 2.142857142857143 2.142857142857143 1.183542857142857 0 2.142857142857143 -0.9593828571428571 2.142857142857143 -2.142857142857143V19.987474285714285h1.531885714285714c1.183542857142857 0 2.142857142857143 -0.9593828571428571 2.142857142857143 -2.142857142857143s-0.9593142857142857 -2.142857142857143 -2.142857142857143 -2.142857142857143H34.714285714285715Zm-10.968754285714285 0c1.1834742857142857 0 2.142857142857143 0.9593828571428571 2.142857142857143 2.142857142857143v10.167977142857143h2.4670285714285716c1.1834742857142857 0 2.142857142857143 0.9593828571428571 2.142857142857143 2.142857142857143 0 1.1834399999999998 -0.9593828571428571 2.142857142857143 -2.142857142857143 2.142857142857143H23.745531428571425c-1.1834742857142857 0 -2.142857142857143 -0.9594171428571429 -2.142857142857143 -2.142857142857143V17.844617142857143c0 -1.1834742857142857 0.9593828571428571 -2.142857142857143 2.142857142857143 -2.142857142857143Zm-8.051211428571428 15.131314285714284 -0.8795657142857142 -2.6386971428571426h-2.7198171428571425l-0.8795657142857142 2.6386971428571426c-0.3742628571428571 1.12272 -1.5878057142857143 1.7295085714285714 -2.710525714285714 1.3552457142857144 -1.12272 -0.3742285714285714 -1.7295085714285714 -1.5877714285714286 -1.3552457142857144 -2.710525714285714l1.349622857142857 -4.048902857142857c0.011279999999999998 -0.03726857142857142 0.023588571428571427 -0.07409142857142857 0.036822857142857136 -0.11046857142857142l2.66376 -7.9913485714285715c0.3235542857142857 -0.9705942857142857 1.2318857142857143 -1.6253142857142857 2.2550399999999997 -1.6253142857142857 1.02312 0 1.9314857142857143 0.6546857142857143 2.2550057142857143 1.6253142857142857l2.6666742857142856 8.000022857142858c0.011005714285714285 0.03068571428571428 0.02136 0.06167999999999999 0.03099428571428571 0.09298285714285713l1.3525714285714285 4.057714285714286c0.3742628571428571 1.1227542857142856 -0.23252571428571428 2.3362971428571426 -1.3552457142857144 2.710525714285714 -1.1227542857142856 0.3742628571428571 -2.3362971428571426 -0.23252571428571428 -2.710525714285714 -1.3552457142857144Z" clip-rule="evenodd" stroke-width="3.4286"></path>
  </g>
</svg>