<svg xmlns="http://www.w3.org/2000/svg" fill="none" viewBox="0 0 48 48" id="Amazon--Streamline-Core-Remix" height="48" width="48">
  <desc>
    Amazon Streamline Icon: https://streamlinehq.com
  </desc>
  <g id="Free Remix/Computer Devices/amazon">
    <path id="Union" fill="#000000" fill-rule="evenodd" d="M20.393314285714286 4.285714285714286c-3.9293828571428566 0 -6.262114285714285 2.4725485714285713 -6.262114285714285 4.581154285714286 0 1.1834399999999998 -0.9594171428571429 2.142857142857143 -2.142857142857143 2.142857142857143 -1.1834742857142857 0 -2.142857142857143 -0.9594171428571429 -2.142857142857143 -2.142857142857143C9.845485714285713 3.5483314285714282 15.038845714285713 0 20.393314285714286 0c5.354502857142857 0 10.547862857142857 3.5483314285714282 10.547862857142857 8.86686857142857v14.02926857142857c0.12785142857142856 0.5078057142857142 0.3994285714285714 1.2509142857142856 0.822102857142857 1.9117714285714285 0.48730285714285715 0.7619657142857142 1.0005257142857142 1.1531999999999998 1.4731199999999998 1.2666514285714285 1.1508 0.27617142857142857 1.8598285714285714 1.4329714285714283 1.5834857142857142 2.5837714285714286 -0.27599999999999997 1.1508 -1.4328685714285714 1.8597942857142857 -2.5836342857142856 1.5835885714285713 -1.5972342857142856 -0.38331428571428566 -2.758937142857143 -1.3740342857142858 -3.566228571428571 -2.3969142857142858 -2.0134285714285713 2.1058285714285714 -5.117005714285714 3.341417142857143 -8.276708571428571 3.341417142857143 -5.354468571428571 0 -10.547828571428571 -3.5483314285714282 -10.547828571428571 -8.86686857142857 0 -5.318502857142858 5.193359999999999 -8.866834285714285 10.547828571428571 -8.866834285714285h6.262148571428571V8.86686857142857c0 -2.108605714285714 -2.3327314285714285 -4.581154285714286 -6.262148571428571 -4.581154285714286Zm0 13.45272h6.262148571428571v4.581119999999999c0 2.108605714285714 -2.3327314285714285 4.581154285714286 -6.262148571428571 4.581154285714286 -3.9293828571428566 0 -6.262114285714285 -2.4725485714285713 -6.262114285714285 -4.581154285714286 0 -2.108605714285714 2.3327314285714285 -4.581119999999999 6.262114285714285 -4.581119999999999ZM3.518537142857143 35.293028571428565c-0.907392 -0.7597714285714285 -2.2588834285714285 -0.6401142857142857 -3.0186274285714285 0.2674285714285714 -0.7597467428571428 0.9072 -0.6400467428571428 2.2587428571428574 0.26735657142857144 3.0185142857142853C5.45208 42.50125714285714 14.430617142857141 45.791999999999994 25.25286857142857 45.263999999999996c5.3756571428571425 -0.26262857142857143 10.017531428571429 -1.406742857142857 13.700845714285714 -2.7778285714285715l2.0509714285714282 3.3994285714285715c0.2650285714285714 0.43988571428571427 0.7134857142857143 0.7374857142857143 1.221942857142857 0.8111999999999999 0.5081142857142856 0.07337142857142856 1.0227428571428572 -0.08468571428571428 1.401942857142857 -0.43097142857142856 2.0208 -1.845942857142857 3.0147428571428567 -4.571314285714285 3.5204571428571425 -6.614742857142857 0.2609142857142857 -1.0542857142857143 0.4097142857142857 -2.0029714285714286 0.49371428571428566 -2.688685714285714 0.04251428571428571 -0.34422857142857144 0.06857142857142857 -0.6253714285714286 0.08434285714285714 -0.8242285714285714 0.008228571428571427 -0.09977142857142857 0.01337142857142857 -0.17897142857142856 0.0168 -0.2355428571428571l0.0041142857142857136 -0.06754285714285714 0.0010285714285714284 -0.020228571428571426 0.00034285714285714285 -0.006857142857142857 0 -0.002742857142857143 0 -0.0010285714285714284c0 -0.00034285714285714285 0 -0.0006857142857142857 -1.7122285714285714 -0.07817142857142857l1.7122285714285714 0.07748571428571428c0.03154285714285714 -0.6915428571428571 -0.35622857142857145 -1.3337142857142856 -0.9822857142857142 -1.6285714285714283l-0.7299428571428571 1.5510857142857142c0.7299428571428571 -1.5510857142857142 0.7295999999999999 -1.551257142857143 0.7292571428571428 -1.551462857142857l-0.0010285714285714284 -0.00044571428571428567 -0.0024 -0.001097142857142857 -0.006171428571428571 -0.0028799999999999997 -0.018514285714285716 -0.008605714285714286 -0.06137142857142856 -0.02801142857142857c-0.05177142857142857 -0.02328 -0.12445714285714285 -0.05547428571428571 -0.216 -0.09486857142857143 -0.1834285714285714 -0.07875428571428571 -0.4443428571428571 -0.18661714285714284 -0.7686857142857143 -0.30980571428571424 -0.6459428571428572 -0.24555428571428572 -1.5545142857142857 -0.5562514285714285 -2.6088 -0.8171657142857143 -2.043428571428571 -0.5057142857142857 -4.917599999999999 -0.8974628571428571 -7.493142857142858 0.02921142857142857 -0.48308571428571423 0.17386285714285712 -0.8629714285714285 0.5552571428571429 -1.0347428571428572 1.0392342857142856 -0.17211428571428572 0.48383999999999994 -0.11794285714285714 1.019382857142857 0.1474285714285714 1.4592685714285714l1.9937142857142858 3.3047999999999997c-3.1739314285714286 1.1060571428571428 -7.115314285714285 2.017714285714286 -11.652719999999999 2.2392 -9.965142857142856 0.4861714285714286 -17.82150857142857 -2.5892571428571425 -21.52542857142857 -5.6903999999999995Z" clip-rule="evenodd" stroke-width="3.4286"></path>
  </g>
</svg>