<svg xmlns="http://www.w3.org/2000/svg" fill="none" viewBox="0 0 48 48" id="Ambulance--Streamline-Core-Remix" height="48" width="48">
  <desc>
    Ambulance Streamline Icon: https://streamlinehq.com
  </desc>
  <g id="Free Remix/Health/ambulance--car-emergency-health-medical-ambulance">
    <path id="Union" fill="#000000" fill-rule="evenodd" d="M5.571428571428571 7.7142857142857135c-0.7100914285714285 0 -1.2857142857142856 0.5756228571428571 -1.2857142857142856 1.2857142857142856v24.857142857142854c0 0.7100571428571428 0.5756228571428571 1.2857142857142856 1.2857142857142856 1.2857142857142856H6.857142857142857c0.06781714285714285 0 0.13488 0.0030857142857142854 0.20105142857142855 0.009257142857142858 1.0837371428571427 -1.5639085714285712 2.8913142857142855 -2.5882285714285715 4.938171428571428 -2.5882285714285715 2.3970857142857143 0 4.466022857142857 1.4048571428571428 5.428457142857142 3.4361142857142855h11.428799999999999c0.4513028571428571 -0.9524571428571428 1.145897142857143 -1.767222857142857 2.00352 -2.3639657142857144V9c0 -0.7100914285714285 -0.5756228571428571 -1.2857142857142856 -1.2857142857142856 -1.2857142857142856h-24ZM34.285714285714285 26.142857142857142v6.421028571428571c2.0413714285714284 0.0012 3.8441142857142854 1.0211657142857142 4.928228571428571 2.5789714285714282h3.2146285714285714c0.7100571428571428 0 1.2857142857142856 -0.5756571428571428 1.2857142857142856 -1.2857142857142856v-7.7142857142857135H34.285714285714285Zm-22.28934857142857 18.428228571428573c3.023348571428571 0 5.524731428571428 -2.2347428571428574 5.942365714285714 -5.142514285714285h10.401017142857143c0.4176342857142857 2.9077714285714285 2.9190171428571428 5.142514285714285 5.942331428571428 5.142514285714285 3.0235199999999995 0 5.524662857142856 -2.2347428571428574 5.942262857142857 -5.142514285714285h2.204228571428571c3.077142857142857 0 5.571428571428571 -2.494285714285714 5.571428571428571 -5.571428571428571V24.034525714285714c0.0006857142857142857 -0.03953142857142857 0.00034285714285714285 -0.07916571428571428 -0.0017142857142857142 -0.11883428571428573 -0.01817142857142857 -0.46991999999999995 -0.18754285714285712 -0.9009942857142857 -0.46114285714285713 -1.2459085714285714l-3.9133714285714283 -7.82688C42.75257142857143 13.100571428571428 40.97177142857143 12 39.023999999999994 12H35.14285714285714v-3C35.14285714285714 5.922994285714285 32.64843428571429 3.4285714285714284 29.57142857142857 3.4285714285714284h-24C2.494412571428571 3.4285714285714284 0 5.922994285714285 0 9v24.857142857142854c0 3.077142857142857 2.494412571428571 5.571428571428571 5.571428571428571 5.571428571428571h0.4825714285714285c0.4176342857142857 2.9077714285714285 2.9190171428571428 5.142514285714285 5.942365714285714 5.142514285714285ZM9.428571428571429 18.983554285714288c0 -1.420182857142857 1.1512799999999999 -2.571428571428571 2.571428571428571 -2.571428571428571h2.571428571428571V13.714285714285714c0 -1.4201485714285715 1.1512799999999999 -2.571428571428571 2.571428571428571 -2.571428571428571s2.571428571428571 1.1512799999999999 2.571428571428571 2.571428571428571v2.69784h2.571428571428571c1.4201485714285715 0 2.571428571428571 1.1512457142857142 2.571428571428571 2.571428571428571 0 1.4201485714285715 -1.1512799999999999 2.571428571428571 -2.571428571428571 2.571428571428571h-2.571428571428571V24c0 1.4201485714285715 -1.1512799999999999 2.571428571428571 -2.571428571428571 2.571428571428571s-2.571428571428571 -1.1512799999999999 -2.571428571428571 -2.571428571428571v-2.445017142857143H12c-1.4201485714285715 0 -2.571428571428571 -1.1512799999999999 -2.571428571428571 -2.571428571428571Z" clip-rule="evenodd" stroke-width="3.4286"></path>
  </g>
</svg>