<svg xmlns="http://www.w3.org/2000/svg" fill="none" viewBox="0 0 48 48" id="Ampersand--Streamline-Core-Remix" height="48" width="48">
  <desc>
    Ampersand Streamline Icon: https://streamlinehq.com
  </desc>
  <g id="Free Remix/Interface Essential/ampersand">
    <path id="Vector 4134" stroke="#000000" stroke-linecap="round" stroke-linejoin="round" stroke-width="4.2857" d="m40.79931428571429 45.860228571428564 -10.930319999999998 -10.930285714285715m0 0L16.891542857142856 21.952491428571427m12.977451428571428 12.977451428571428 -8.14416 8.14422857142857c-1.7839200000000002 1.783885714285714 -4.203462857142857 2.7860571428571426 -6.7263085714285715 2.7860571428571426h-0.1697142857142857c-5.1598628571428575 0 -9.342754285714285 -4.182857142857142 -9.342754285714285 -9.342857142857143 0 -2.6187428571428573 1.0991314285714284 -5.117348571428572 3.029622857142857 -6.886971428571429L16.891542857142856 21.952491428571427m12.977451428571428 12.977451428571428 7.567234285714286 -7.567131428571428M16.891542857142856 21.952491428571427 11.287097142857142 16.348045714285714c-1.56096 -1.56096 -2.437885714285714 -3.6780342857142854 -2.437885714285714 -5.885554285714285 0 -4.596891428571428 3.7265142857142854 -8.323402285714284 8.323405714285714 -8.323402285714284h0.31748571428571426c4.51488 0 8.174914285714285 3.660030857142857 8.174914285714285 8.174910857142857 0 2.2914857142857143 -0.9617485714285713 4.477748571428571 -2.650902857142857 6.02616L16.891542857142856 21.952491428571427Z"></path>
  </g>
</svg>