<svg xmlns="http://www.w3.org/2000/svg" fill="none" viewBox="0 0 48 48" id="Anchor--Streamline-Core-Remix" height="48" width="48">
  <desc>
    Anchor Streamline Icon: https://streamlinehq.com
  </desc>
  <g id="Free Remix/Map Travel/anchor--anchor-marina-harbor-port-travel-places">
    <path id="Union" fill="#000000" fill-rule="evenodd" d="M21 7.285714285714286c0 -1.6568571428571428 1.343142857142857 -3 3 -3s3 1.343142857142857 3 3S25.65685714285714 10.285714285714285 24 10.285714285714285s-3 -1.343142857142857 -3 -3Zm10.285714285714285 0c0 3.278022857142857 -2.1648685714285714 6.050434285714285 -5.142857142857142 6.965485714285714V20.57142857142857H29.142857142857142c1.1834742857142857 0 2.142857142857143 0.9593828571428571 2.142857142857143 2.142857142857143s-0.9593828571428571 2.142857142857143 -2.142857142857143 2.142857142857143h-3v18.719314285714287c3.6423771428571428 -0.47074285714285713 7.050822857142857 -2.1325714285714286 9.675771428571428 -4.757828571428571 2.625257142857143 -2.6249142857142855 4.2870857142857135 -6.0333942857142855 4.757828571428571 -9.675771428571428H37.714285714285715c-1.183542857142857 0 -2.142857142857143 -0.9593828571428571 -2.142857142857143 -2.142857142857143s0.9593142857142857 -2.142857142857143 2.142857142857143 -2.142857142857143h5.142857142857142c0.5684571428571429 0 1.1132571428571427 0.22577142857142857 1.5150857142857141 0.6276342857142857 0.40217142857142857 0.4018628571428571 0.6277714285714285 0.946902857142857 0.6277714285714285 1.515222857142857 0 5.5695428571428565 -2.2124571428571427 10.911085714285713 -6.150857142857142 14.849142857142859C34.91108571428571 45.78754285714285 29.569542857142853 48 24 48c-5.5695428571428565 0 -10.910982857142857 -2.2124571428571427 -14.849245714285715 -6.150857142857142C5.212491428571428 37.91108571428571 3 32.56954285714286 3 27c0 -0.5683199999999999 0.22576457142857143 -1.11336 0.6276342857142857 -1.515222857142857C4.029497142857143 25.082914285714285 4.574537142857143 24.857142857142854 5.142857142857142 24.857142857142854H10.285714285714285c1.1834742857142857 0 2.142857142857143 0.9593828571428571 2.142857142857143 2.142857142857143S11.469188571428571 29.142857142857142 10.285714285714285 29.142857142857142h-2.8621371428571427c0.4707771428571428 3.6423771428571428 2.132502857142857 7.050857142857144 4.757622857142857 9.675771428571428 2.6251542857142853 2.625257142857143 6.0335657142857135 4.2870857142857135 9.675942857142857 4.757828571428571V24.857142857142854H18.857142857142858c-1.1834742857142857 0 -2.142857142857143 -0.9593828571428571 -2.142857142857143 -2.142857142857143S17.67366857142857 20.57142857142857 18.857142857142858 20.57142857142857h3V14.251199999999999c-2.9779885714285714 -0.9150514285714286 -5.142857142857142 -3.6874628571428567 -5.142857142857142 -6.965485714285714C16.71428571428571 3.261925714285714 19.976228571428567 0 24 0s7.285714285714286 3.261925714285714 7.285714285714286 7.285714285714286Z" clip-rule="evenodd" stroke-width="3.4286"></path>
  </g>
</svg>