<svg xmlns="http://www.w3.org/2000/svg" fill="none" viewBox="0 0 48 48" id="Android--Streamline-Core-Remix" height="48" width="48">
  <desc>
    Android Streamline Icon: https://streamlinehq.com
  </desc>
  <g id="Free Remix/Computer Devices/android--android-code-apps-bugdroid-programming">
    <path id="Union" fill="#000000" fill-rule="evenodd" d="M39.22868571428572 0.6276274285714285c0.8369142857142857 0.8368388571428571 0.8369142857142857 2.1936205714285713 0 3.030452571428571l-4.217142857142857 4.21728c0.06754285714285714 0.06524571428571428 0.13474285714285714 0.13110857142857144 0.20125714285714286 0.19765714285714284 2.8820571428571427 2.8821942857142857 4.540114285714286 6.759634285714285 4.639542857142857 10.824582857142856 2.0742857142857143 0.19724571428571427 4.025828571428571 1.109862857142857 5.511771428571428 2.5955657142857143C47.05165714285714 23.18101714285714 48 25.470205714285715 48 27.857142857142854v6.857142857142857c0 1.183542857142857 -0.9593142857142857 2.142857142857143 -2.142857142857143 2.142857142857143s-2.142857142857143 -0.9593142857142857 -2.142857142857143 -2.142857142857143v-6.857142857142857c0 -1.2502971428571428 -0.49679999999999996 -2.449405714285714 -1.3806857142857143 -3.3334971428571425 -0.6795428571428571 -0.6793714285714285 -1.5449142857142857 -1.1299542857142855 -2.476457142857143 -1.3022399999999998V45.857142857142854c0 1.183542857142857 -0.9593142857142857 2.142857142857143 -2.142857142857143 2.142857142857143s-2.142857142857143 -0.9593142857142857 -2.142857142857143 -2.142857142857143v-6h-23.142857142857142v6c0 1.183542857142857 -0.9593828571428571 2.142857142857143 -2.142857142857143 2.142857142857143s-2.142857142857143 -0.9593142857142857 -2.142857142857143 -2.142857142857143V23.221405714285716c-0.9316457142857143 0.1722857142857143 -1.7970171428571426 0.6228685714285714 -2.4763542857142853 1.3022399999999998 -0.8840914285714284 0.8840914285714284 -1.3807885714285713 2.0832 -1.3807885714285713 3.3334971428571425v6.857142857142857c0 1.183542857142857 -0.9593897142857143 2.142857142857143 -2.142857142857143 2.142857142857143S0 35.89782857142857 0 34.714285714285715v-6.857142857142857c0 -2.3869371428571426 0.9482125714285713 -4.676125714285714 2.63604 -6.363977142857142 1.48572 -1.485702857142857 3.4374 -2.3983199999999996 5.511548571428571 -2.5955999999999997 0.09942857142857142 -4.064914285714285 1.75752 -7.942354285714286 4.639714285714286 -10.824548571428572 0.06641142857142857 -0.06641142857142857 0.13337142857142856 -0.13217142857142858 0.20081142857142856 -0.19727999999999998L8.770491428571427 3.65808c-0.8368457142857142 -0.8368319999999999 -0.8368457142857142 -2.193613714285714 0 -3.030452571428571 0.8368457142857142 -0.8368367999999999 2.1936 -0.8368367999999999 3.030445714285714 0L16.491942857142856 5.318639999999999C18.779519999999998 4.089051428571428 21.355714285714285 3.4285714285714284 24 3.4285714285714284c2.6441142857142856 0 5.220137142857142 0.6603771428571429 7.507577142857142 1.8898285714285714L36.19817142857143 0.6276274285714285c0.8369142857142857 -0.8368367999999999 2.1936 -0.8368367999999999 3.0305142857142857 0ZM12.428571428571427 23.142857142857142v12.428571428571427h23.142857142857142V23.142857142857142h-23.142857142857142Z" clip-rule="evenodd" stroke-width="3.4286"></path>
  </g>
</svg>