<svg xmlns="http://www.w3.org/2000/svg" fill="none" viewBox="0 0 48 48" id="Angle-Brackets--Streamline-Core-Remix" height="48" width="48">
  <desc>
    Angle Brackets Streamline Icon: https://streamlinehq.com
  </desc>
  <g id="Free Remix/Programming/Programming/Script/angle-brackets--code-angle-programming-file-bracket">
    <path id="Union" fill="#000000" fill-rule="evenodd" d="M19.086651428571425 10.086651428571429c0.8368457142857142 -0.8368457142857142 0.8368457142857142 -2.1936 0 -3.030445714285714 -0.8368457142857142 -0.8368457142857142 -2.1936 -0.8368457142857142 -3.030445714285714 0l-15.428578285714286 15.428571428571427c-0.8368367999999999 0.8368457142857142 -0.8368367999999999 2.1936 0 3.030445714285714L16.056205714285714 40.94365714285714c0.8368457142857142 0.8369142857142857 2.1936 0.8369142857142857 3.030445714285714 0 0.8368457142857142 -0.8365714285714285 0.8368457142857142 -2.1936 0 -3.0301714285714283L5.173302857142857 24l13.913348571428571 -13.913348571428571Zm12.857142857142856 -3.030445714285714c-0.8368457142857142 -0.8368457142857142 -2.1936 -0.8368457142857142 -3.030445714285714 0 -0.8368457142857142 0.8368457142857142 -0.8368457142857142 2.1936 0 3.030445714285714L42.826628571428564 24l-13.91328 13.913485714285713c-0.8368457142857142 0.8365714285714285 -0.8368457142857142 2.1936 0 3.0301714285714283 0.8368457142857142 0.8369142857142857 2.1936 0.8369142857142857 3.030445714285714 0l15.428434285714284 -15.428434285714284c0.8369142857142857 -0.8368457142857142 0.8369142857142857 -2.1936 0 -3.030445714285714l-15.428434285714284 -15.428571428571427Z" clip-rule="evenodd" stroke-width="3.4286"></path>
  </g>
</svg>