<svg xmlns="http://www.w3.org/2000/svg" fill="none" viewBox="0 0 48 48" id="Announcement-Megaphone--Streamline-Core-Remix" height="48" width="48">
  <desc>
    Announcement Megaphone Streamline Icon: https://streamlinehq.com
  </desc>
  <g id="Free Remix/Money Shopping/announcement-megaphone">
    <path id="Union" fill="#000000" fill-rule="evenodd" d="M26.570502857142856 2.6007257142857143c0 -1.4201622857142857 -1.1512799999999999 -2.5714288457142853 -2.571428571428571 -2.5714288457142853 -1.420182857142857 0 -2.571428571428571 1.1512665599999998 -2.571428571428571 2.5714288457142853V7.029942857142856c0 1.4201485714285715 1.1512457142857142 2.571428571428571 2.571428571428571 2.571428571428571 1.4201485714285715 0 2.571428571428571 -1.1512799999999999 2.571428571428571 -2.571428571428571V2.6007257142857143ZM25.867062857142855 12.337337142857143c-0.5917371428571429 -1.024902857142857 -1.9022742857142858 -1.3760914285714285 -2.9271771428571425 -0.7843542857142857 -0.9595885714285715 0.5540228571428572 -1.3285714285714285 1.7380799999999996 -0.8861142857142857 2.7279085714285713L0.744408 37.07451428571428c-0.6440958857142857 0.6888 -0.7620053485714284 1.7180571428571427 -0.29043085714285716 2.5347428571428567l2.0451874285714284 3.5423999999999993c0.4715725714285714 0.8166857142857142 1.4217497142857143 1.229142857142857 2.3404354285714284 1.0158857142857143l5.400651428571429 -1.2538285714285715 0.9634971428571428 1.6686857142857143 0.004937142857142857 0.008571428571428572c0.9242742857142856 1.584 2.439942857142857 2.736 4.213645714285714 3.2026285714285714s3.6601028571428573 0.20948571428571428 5.244205714285714 -0.7148571428571427c1.584102857142857 -0.9243428571428571 2.7361714285714287 -2.4397714285714285 3.202765714285714 -4.2137142857142855 0.2721942857142857 -1.0347428571428572 0.29808 -2.107542857142857 0.08890285714285714 -3.1368l11.276537142857142 -2.6184c0.6373714285714286 0.8736 1.843885714285714 1.1434285714285715 2.801485714285714 0.5907428571428571 1.0248 -0.5917714285714285 1.3758857142857142 -1.9021714285714284 0.7844571428571429 -2.9273142857142855l-0.6253714285714286 -1.0827085714285714c-0.0336 -0.06613714285714285 -0.07062857142857143 -0.13004571428571426 -0.1104 -0.1915542857142857L26.606262857142855 13.61766857142857c-0.03329142857142857 -0.06531428571428571 -0.07018285714285713 -0.12925714285714285 -0.11057142857142857 -0.1915542857142857l-0.6286285714285714 -1.0887771428571429ZM10.72158857142857 38.40205714285714c0.06370285714285713 -0.017828571428571426 0.12785142857142856 -0.03291428571428571 0.19224 -0.04457142857142857l22.068685714285714 -5.124411428571428 -8.697051428571427 -15.063737142857141 -19.32606857142857 20.672262857142858 0.45744 0.7923428571428571 5.304754285714286 -1.2318857142857143Zm4.190914285714285 4.032685714285714 -0.30853714285714284 -0.5345142857142857 5.175394285714286 -1.2017142857142855c0.055714285714285716 0.3555428571428571 0.038502857142857144 0.7217142857142856 -0.05478857142857143 1.0762285714285713 -0.1773942857142857 0.6744 -0.6154971428571429 1.2507428571428572 -1.2178285714285715 1.6025142857142856 -0.6023657142857143 0.35142857142857137 -1.3196571428571429 0.4491428571428571 -1.9941257142857143 0.27154285714285714 -0.6730628571428572 -0.17691428571428572 -1.2484457142857142 -0.6137142857142857 -1.6001142857142856 -1.214057142857143Zm23.48646857142857 -18.433062857142858c0 -1.420182857142857 1.1513142857142855 -2.571428571428571 2.571428571428571 -2.571428571428571h4.429371428571429c1.4201142857142857 0 2.571428571428571 1.1512457142857142 2.571428571428571 2.571428571428571 0 1.4201485714285715 -1.1513142857142855 2.571428571428571 -2.571428571428571 2.571428571428571h-4.429371428571429c-1.4201142857142857 0 -2.571428571428571 -1.1512799999999999 -2.571428571428571 -2.571428571428571Zm-35.79740914285714 -2.571428571428571c-1.4201588571428572 0 -2.5714283657142856 1.1512457142857142 -2.5714283657142856 2.571428571428571 0 1.4201485714285715 1.1512660799999999 2.571428571428571 2.5714283657142856 2.571428571428571H7.0308c1.4201485714285715 0 2.571428571428571 -1.1512799999999999 2.571428571428571 -2.571428571428571 0 -1.420182857142857 -1.1512799999999999 -2.571428571428571 -2.571428571428571 -2.571428571428571H2.601562285714286ZM7.04622857142857 7.050719999999999c1.0041942857142856 -1.0041942857142856 2.6323542857142854 -1.0041942857142856 3.636548571428571 0l3.1319314285714284 3.1319314285714284c1.0041942857142856 1.0042285714285712 1.0041942857142856 2.6323542857142854 0 3.636548571428571 -1.0041942857142856 1.0042285714285712 -2.6323542857142854 1.0042285714285712 -3.636548571428571 0l-3.1319314285714284 -3.1319314285714284c-1.0041942857142856 -1.0041942857142856 -1.0041942857142856 -2.6323542857142854 0 -3.636548571428571ZM40.950514285714284 10.686857142857143c1.0042285714285712 -1.0041942857142856 1.0042285714285712 -2.6323542857142854 0 -3.636548571428571s-2.6321142857142856 -1.0041942857142856 -3.636342857142857 0l-3.1320342857142855 3.1319314285714284c-1.0041942857142856 1.0041942857142856 -1.0041942857142856 2.6323542857142854 0 3.636548571428571 1.0042628571428571 1.0041942857142856 2.6324914285714285 1.0041942857142856 3.63672 0l3.1316571428571427 -3.1319314285714284Z" clip-rule="evenodd" stroke-width="3.4286"></path>
  </g>
</svg>