<svg xmlns="http://www.w3.org/2000/svg" fill="none" viewBox="0 0 48 48" id="App-Store--Streamline-Core-Remix" height="48" width="48">
  <desc>
    App Store Streamline Icon: https://streamlinehq.com
  </desc>
  <g id="Free Remix/Computer Devices/app-store">
    <path id="Union" fill="#000000" fill-rule="evenodd" d="M24.00548571428571 3.257533714285714C25.905874285714283 1.0345782857142858 29.17824 0.4099851428571428 31.8024 1.9250571428571426c2.960914285714286 1.7094685714285713 3.975428571428571 5.495502857142856 2.2658742857142857 8.456348571428572l-1.8557485714285713 -1.0714285714285714 1.8557485714285713 1.0714285714285714 -2.9147314285714288 5.048468571428571 5.580857142857143 9.666411428571429h5.085942857142857c3.418971428571428 0 6.190628571428571 2.7715542857142856 6.190628571428571 6.190457142857142 0 2.7590057142857143 -1.8047999999999997 5.096571428571428 -4.2984 5.896114285714285l0.25165714285714286 0.43577142857142853c1.709485714285714 2.960914285714286 0.6949714285714285 6.7470857142857135 -2.265942857142857 8.456228571428571 -2.960914285714286 1.709485714285714 -6.7467428571428565 0.6953142857142857 -8.456262857142857 -2.2656l-3.6557142857142852 -6.331885714285714H18.424799999999998l-2.2100914285714284 3.828 -1.4456571428571428 2.503885714285714c-1.7094514285714284 2.960914285714286 -5.49552 3.975428571428571 -8.456365714285713 2.265942857142857 -2.9608628571428572 -1.709485714285714 -3.9753291428571425 -5.495657142857143 -2.2658742857142857 -8.456571428571428l0.25169142857142857 -0.43577142857142853C1.8049611428571428 36.383314285714285 0 34.04578285714286 0 31.286742857142855c0 -3.418902857142857 2.7715714285714284 -6.190457142857142 6.190491428571429 -6.190457142857142h5.085874285714286l5.58096 -9.666582857142856 -2.914628571428571 -5.048297142857143c-1.7094514285714284 -2.960845714285714 -0.6949714285714285 -6.74688 2.2658742857142857 -8.456348571428572 2.6241942857142857 -1.515072 5.896525714285714 -0.890478857142857 7.796914285714284 1.3324765714285713Zm2.474262857142857 20.267574857142854 2.199462857142857 -3.80952 4.962308571428571 8.594982857142858c0.38276571428571426 0.6629828571428571 1.0902514285714284 1.0714285714285714 1.8558514285714287 1.0714285714285714h6.322971428571428c1.0522285714285713 0 1.9049142857142856 0.8527885714285715 1.9049142857142856 1.904742857142857 0 1.0519885714285713 -0.8526857142857143 1.904777142857143 -1.9049142857142856 1.904777142857143h-1.649142857142857c-0.7656 0 -1.4732571428571428 0.40841142857142854 -1.8558857142857141 1.0714285714285714 -0.38262857142857143 0.66288 -0.38262857142857143 1.4799085714285714 0 2.142994285714286l1.9374857142857143 3.355542857142857c0.5259428571428572 0.9109714285714285 0.21359999999999998 2.076 -0.6973714285714285 2.601942857142857 -0.9109714285714285 0.5259428571428572 -2.076 0.21394285714285713 -2.601942857142857 -0.6970285714285714L26.47974857142857 23.525108571428568Zm-4.618628571428571 5.856891428571428h3.0513942857142853l2.1994285714285713 3.80952H6.190491428571429c-1.0519885714285713 0 -1.904777142857143 -0.8527885714285715 -1.904777142857143 -1.904777142857143 0 -1.0519542857142856 0.8527885714285715 -1.904742857142857 1.904777142857143 -1.904742857142857h6.32304c0.7655657142857142 0 1.4729828571428571 -0.40844571428571425 1.8557828571428572 -1.0714285714285714l6.818159999999999 -11.809439999999999c0.38276571428571426 -0.6629828571428571 0.38276571428571426 -1.4798399999999998 0 -2.142857142857143L17.65422857142857 8.23854857142857c-0.5259771428571428 -0.91104 -0.21384 -2.075965714285714 0.6971999999999999 -2.601942857142857 0.91104 -0.5260114285714286 2.075965714285714 -0.21384 2.6019771428571428 0.6971999999999999l1.1963314285714286 2.0720914285714285c0.38276571428571426 0.6630171428571429 1.090182857142857 1.0714285714285714 1.8557485714285713 1.0714285714285714s1.4729828571428571 -0.40841142857142854 1.8557828571428572 -1.0714285714285714l1.1963314285714286 -2.0720914285714285c0.5259771428571428 -0.91104 1.690902857142857 -1.2232114285714284 2.601942857142857 -0.6971999999999999 0.91104 0.5259771428571428 1.223177142857143 1.690902857142857 0.6971999999999999 2.601942857142857L20.00533714285714 26.167714285714283c-0.38276571428571426 0.6629828571428571 -0.38276571428571426 1.4798399999999998 0 2.142857142857143 0.3828 0.6629828571428571 1.0902171428571428 1.0714285714285714 1.8557828571428572 1.0714285714285714ZM13.47606857142857 37.47737142857142H9.077177142857142l-1.3188342857142856 2.2841142857142858c-0.5259771428571428 0.9109714285714285 -0.21384 2.076 0.6971999999999999 2.601942857142857 0.91104 0.5259428571428572 2.075965714285714 0.21394285714285713 2.601942857142857 -0.6970285714285714l1.4456914285714284 -2.503885714285714 0.9728914285714285 -1.685142857142857Z" clip-rule="evenodd" stroke-width="3.4286"></path>
  </g>
</svg>