<svg xmlns="http://www.w3.org/2000/svg" fill="none" viewBox="0 0 48 48" id="Apple--Streamline-Core-Remix" height="48" width="48">
  <desc>
    Apple Streamline Icon: https://streamlinehq.com
  </desc>
  <g id="Free Remix/Computer Devices/apple--os-system-apple">
    <path id="Union" fill="#000000" fill-rule="evenodd" d="M33.60267428571428 5.121325714285714c1.1716114285714285 -1.1715771428571429 1.1716114285714285 -3.0710742857142854 0 -4.242644571428571 -1.1715771428571429 -1.1715744 -3.0710742857142854 -1.1715744 -4.242617142857143 0L25.081234285714284 5.157462857142857c-1.171542857142857 1.1715771428571429 -1.171542857142857 3.0710742857142854 0 4.2426514285714285 1.1715771428571429 1.1715771428571429 3.0710742857142854 1.1715771428571429 4.2426514285714285 0l4.278788571428572 -4.278788571428572Zm1.048182857142857 7.175211428571427c-1.5681257142857141 -0.37158857142857143 -3.1969714285714286 -0.4082057142857143 -4.780182857142857 -0.10745142857142856 -1.5440914285714284 0.29328 -3.0109371428571428 0.901062857142857 -4.309474285714286 1.7850514285714285 -0.14701714285714285 0.07378285714285714 -0.30953142857142857 0.11238857142857141 -0.4745828571428571 0.11238857142857141 -0.17554285714285714 0 -0.3481714285714286 -0.04368 -0.5023885714285714 -0.12685714285714284 -1.4034514285714283 -0.8805942857142857 -2.973805714285714 -1.4620114285714285 -4.612799999999999 -1.7075657142857141 -1.6582971428571427 -0.24846857142857143 -3.350228571428571 -0.14763428571428572 -4.96728 0.29605714285714285 -1.6170514285714286 0.4436914285714285 -3.1235314285714284 1.2204 -4.422857142857143 2.2803771428571427 -1.2915771428571428 1.0536342857142857 -2.35008 2.3640342857142853 -3.1085485714285714 3.8480571428571424 -1.9928571428571429 3.683794285714286 -2.681211428571429 7.932857142857143 -1.9540799999999998 12.056537142857142 0.6030171428571428 5.488354285714285 2.981554285714285 10.630525714285714 6.775062857142856 14.644011428571426 0.026777142857142857 0.028457142857142854 0.05430857142857143 0.05622857142857143 0.08256 0.08297142857142857 1.4402742857142856 1.3662857142857143 3.4010742857142855 2.4065142857142856 5.589154285714285 2.527885714285714 2.1869485714285712 0.12171428571428569 4.23312 -0.6946285714285714 5.810194285714285 -1.8853714285714287 0.35701714285714287 -0.2616 0.7881942857142857 -0.4025142857142857 1.23096 -0.4025142857142857 0.4343314285714285 0 0.8574857142857142 0.13577142857142857 1.2104571428571427 0.38777142857142854 1.5996685714285712 1.2754285714285714 3.596708571428571 1.949142857142857 5.643154285714286 1.902857142857143 2.0653714285714284 -0.04662857142857142 4.047565714285714 -0.8235428571428571 5.594194285714285 -2.1929142857142856 0.03497142857142857 -0.030857142857142854 0.06925714285714285 -0.06308571428571429 0.10217142857142857 -0.09634285714285713 2.9033142857142855 -2.931085714285714 4.972799999999999 -6.5832 5.9952 -10.579885714285714 0.1512 -0.5914285714285713 0.043199999999999995 -1.219302857142857 -0.29725714285714283 -1.7260114285714283 -0.34045714285714285 -0.5067085714285714 -0.8804571428571427 -0.8442171428571428 -1.4852571428571426 -0.9278057142857143 -1.4036571428571427 -0.19405714285714284 -2.6876571428571427 -0.8956457142857143 -3.6092571428571425 -1.9721828571428568 -0.9215999999999999 -1.0765371428571429 -1.4166857142857143 -2.453348571428571 -1.3920000000000001 -3.8702057142857145l0.00034285714285714285 0 0 -0.03370285714285714c0.0024 -1.2370971428571427 0.39805714285714283 -2.441417142857143 1.1300571428571429 -3.438617142857143 0.7323428571428572 -0.9972 1.7626285714285714 -1.735577142857143 2.9423999999999997 -2.1081942857142857 0.6099428571428571 -0.19268571428571427 1.1019428571428571 -0.6478285714285714 1.3416 -1.24104 0.23965714285714285 -0.5932114285714286 0.20159999999999997 -1.2624 -0.10388571428571428 -1.8246171428571427 -0.7686857142857143 -1.4163085714285715 -1.8277714285714286 -2.654502857142857 -3.1076571428571427 -3.633702857142857 -1.2798857142857143 -0.9792000000000001 -2.7517714285714283 -1.6773942857142856 -4.319999999999999 -2.048982857142857Zm-3.9803999999999995 4.102971428571428c0.9910285714285713 -0.18826285714285712 2.010617142857143 -0.16532571428571427 2.9921828571428573 0.06726857142857141 0.981702857142857 0.2325942857142857 1.90296 0.6696342857142857 2.704217142857143 1.28256 0.19542857142857142 0.1495542857142857 0.38262857142857143 0.30877714285714286 0.5609142857142857 0.47687999999999997 -0.9527999999999999 0.6448457142857142 -1.7945142857142855 1.4515885714285712 -2.484 2.3905371428571427 -1.2670285714285714 1.7260114285714283 -1.9536342857142857 3.809588571428571 -1.9609714285714284 5.950525714285714 -0.03888 2.458628571428571 0.8221714285714286 4.846971428571428 2.4214285714285713 6.715268571428571 1.0542857142857143 1.2318514285714286 2.381828571428571 2.181565714285714 3.8616 2.78328 -0.9267428571428571 2.4497142857142857 -2.355085714285714 4.687542857142857 -4.201371428571428 6.566057142857143 -0.7806171428571428 0.6709714285714286 -1.7704114285714285 1.0512 -2.8009028571428574 1.0745142857142858 -1.0522285714285713 0.023657142857142856 -2.0788457142857144 -0.3264 -2.8975885714285714 -0.9877714285714286 -0.023657142857142856 -0.0192 -0.04776 -0.03771428571428571 -0.07223999999999998 -0.055885714285714275 -1.0961828571428571 -0.8108571428571427 -2.4236571428571425 -1.248342857142857 -3.787131428571428 -1.248342857142857 -1.3635085714285713 0 -2.6909828571428567 0.43748571428571426 -3.787165714285714 1.248342857142857l-0.00006857142857142857 0 -0.019062857142857142 0.014399999999999998c-0.9491999999999999 0.7186285714285714 -2.0236799999999997 1.0858285714285714 -2.99712 1.0319999999999998 -0.9624685714285715 -0.05348571428571428 -1.9849714285714284 -0.5273142857142856 -2.83704 -1.320342857142857 -3.1421485714285713 -3.3442285714285713 -5.106822857142856 -7.623428571428571 -5.594297142857142 -12.187234285714284 -0.005485714285714286 -0.05139428571428571 -0.012822857142857141 -0.10254857142857142 -0.02201142857142857 -0.1533942857142857 -0.57768 -3.19752 -0.04752 -6.496422857142857 1.502982857142857 -9.351874285714285l0.027359999999999995 -0.05208c0.48894857142857134 -0.9626057142857143 1.1736685714285715 -1.812377142857143 2.0102399999999996 -2.4948342857142856 0.8365714285714285 -0.6824914285714285 1.8065485714285714 -1.1825828571428572 2.847702857142857 -1.4682514285714285 1.0411885714285714 -0.28566857142857144 2.1305485714285712 -0.3506057142857143 3.1982742857142856 -0.1906285714285714 1.0677257142857142 0.15997714285714285 2.0902628571428568 0.5413371428571429 3.0019885714285715 1.1196 0.025097142857142856 0.01594285714285714 0.05053714285714285 0.031337142857142855 0.07628571428571428 0.04621714285714286 0.8123999999999999 0.4689942857142857 1.7338971428571426 0.7159199999999999 2.6719542857142855 0.7159199999999999 0.938022857142857 0 1.8595542857142857 -0.24692571428571428 2.6719199999999996 -0.7159199999999999 0.05228571428571428 -0.030205714285714284 0.10326857142857143 -0.06257142857142857 0.15281142857142857 -0.09706285714285713 0.8279314285714285 -0.5763428571428572 1.7680799999999999 -0.9715199999999999 2.7591085714285715 -1.1597485714285714Z" clip-rule="evenodd" stroke-width="3.4286"></path>
  </g>
</svg>