<svg xmlns="http://www.w3.org/2000/svg" fill="none" viewBox="0 0 48 48" id="Application-Add--Streamline-Core-Remix" height="48" width="48">
  <desc>
    Application Add Streamline Icon: https://streamlinehq.com
  </desc>
  <g id="Free Remix/Programming/Programming/Applications/application-add--application-new-add-square">
    <path id="Union" fill="#000000" fill-rule="evenodd" d="M5.142857142857142 6.116879999999999c0 -0.5379428571428572 0.43607999999999997 -0.9740228571428571 0.9740228571428571 -0.9740228571428571h10.909097142857142c0.5379428571428572 0 0.9740228571428571 0.43607999999999997 0.9740228571428571 0.9740228571428571v10.909097142857142c0 0.5379428571428572 -0.43607999999999997 0.9740228571428571 -0.9740228571428571 0.9740228571428571H6.116879999999999c-0.5379428571428572 0 -0.9740228571428571 -0.43607999999999997 -0.9740228571428571 -0.9740228571428571V6.116879999999999ZM6.116879999999999 0.8571428571428571C3.2120091428571427 0.8571428571428571 0.8571428571428571 3.2120091428571427 0.8571428571428571 6.116879999999999v10.909097142857142C0.8571428571428571 19.930834285714283 3.2120091428571427 22.285714285714285 6.116879999999999 22.285714285714285h10.909097142857142C19.930834285714283 22.285714285714285 22.285714285714285 19.930834285714283 22.285714285714285 17.02597714285714V6.116879999999999C22.285714285714285 3.2120091428571427 19.930834285714283 0.8571428571428571 17.02597714285714 0.8571428571428571H6.116879999999999ZM30 30.97402285714286c0 -0.5379428571428572 0.43607999999999997 -0.9740228571428571 0.9740228571428571 -0.9740228571428571h10.909062857142857c0.5379428571428572 0 0.9740571428571428 0.43607999999999997 0.9740571428571428 0.9740228571428571v10.909062857142857c0 0.5379428571428572 -0.43611428571428573 0.9740571428571428 -0.9740571428571428 0.9740571428571428H30.97402285714286c-0.5379428571428572 0 -0.9740228571428571 -0.43611428571428573 -0.9740228571428571 -0.9740571428571428V30.97402285714286ZM30.97402285714286 25.71428571428571C28.069165714285713 25.71428571428571 25.71428571428571 28.069165714285713 25.71428571428571 30.97402285714286v10.909062857142857c0 2.9050285714285713 2.35488 5.259771428571429 5.2597371428571424 5.259771428571429h10.909062857142857c2.9050285714285713 0 5.259771428571429 -2.354742857142857 5.259771428571429 -5.259771428571429V30.97402285714286c0 -2.9048571428571424 -2.354742857142857 -5.2597371428571424 -5.259771428571429 -5.2597371428571424H30.97402285714286ZM0.8571428571428571 30.97402285714286C0.8571428571428571 28.069165714285713 3.2120091428571427 25.71428571428571 6.116879999999999 25.71428571428571h10.909097142857142C19.930834285714283 25.71428571428571 22.285714285714285 28.069165714285713 22.285714285714285 30.97402285714286v10.909062857142857c0 2.9050285714285713 -2.35488 5.259771428571429 -5.2597371428571424 5.259771428571429H6.116879999999999C3.2120091428571427 47.14285714285714 0.8571428571428571 44.788114285714286 0.8571428571428571 41.88308571428571V30.97402285714286ZM36.42857142857142 0.8571428571428571c1.4201142857142857 0 2.571428571428571 1.1512662857142855 2.571428571428571 2.571428571428571v5.571428571428571H44.57142857142857c1.4201142857142857 0 2.571428571428571 1.1512799999999999 2.571428571428571 2.571428571428571s-1.1513142857142855 2.571428571428571 -2.571428571428571 2.571428571428571h-5.571428571428571v5.571497142857142c0 1.4201485714285715 -1.1513142857142855 2.571428571428571 -2.571428571428571 2.571428571428571s-2.571428571428571 -1.1512799999999999 -2.571428571428571 -2.571428571428571V14.142857142857142H28.285714285714285c-1.4201485714285715 0 -2.571428571428571 -1.1512799999999999 -2.571428571428571 -2.571428571428571s1.1512799999999999 -2.571428571428571 2.571428571428571 -2.571428571428571h5.571428571428571V3.4285714285714284c0 -1.4201622857142857 1.1513142857142855 -2.571428571428571 2.571428571428571 -2.571428571428571Z" clip-rule="evenodd" stroke-width="3.4286"></path>
  </g>
</svg>