<svg xmlns="http://www.w3.org/2000/svg" fill="none" viewBox="0 0 48 48" id="Archive-Box--Streamline-Core-Remix" height="48" width="48">
  <desc>
    Archive Box Streamline Icon: https://streamlinehq.com
  </desc>
  <g id="Free Remix/Interface Essential/archive-box--box-content-banker-archive-file">
    <path id="Union" fill="#000000" fill-rule="evenodd" d="M3.8571428571428568 3C1.726902857142857 3 0 4.726902857142856 0 6.857142857142857v6.857142857142857c0 1.985382857142857 1.5000205714285713 3.6203999999999996 3.4285714285714284 3.8335885714285713V39.42857142857142c0 3.077142857142857 2.494422857142857 5.571428571428571 5.571428571428571 5.571428571428571h30c3.077142857142857 0 5.571428571428571 -2.494285714285714 5.571428571428571 -5.571428571428571V17.547874285714283c1.9285714285714284 -0.21318857142857142 3.4285714285714284 -1.8482057142857142 3.4285714285714284 -3.8335885714285713V6.857142857142857c0 -2.1302399999999997 -1.7269714285714286 -3.8571428571428568 -3.8571428571428568 -3.8571428571428568H3.8571428571428568ZM7.7142857142857135 39.42857142857142V17.57142857142857h32.57142857142857V39.42857142857142c0 0.7100571428571428 -0.5756571428571428 1.2857142857142856 -1.2857142857142856 1.2857142857142856h-30c-0.7100914285714285 0 -1.2857142857142856 -0.5756571428571428 -1.2857142857142856 -1.2857142857142856ZM18.857142857142858 23.57142857142857c-1.1834742857142857 0 -2.142857142857143 0.9593828571428571 -2.142857142857143 2.142857142857143s0.9593828571428571 2.142857142857143 2.142857142857143 2.142857142857143h10.285714285714285c1.1834742857142857 0 2.142857142857143 -0.9593828571428571 2.142857142857143 -2.142857142857143s-0.9593828571428571 -2.142857142857143 -2.142857142857143 -2.142857142857143h-10.285714285714285Z" clip-rule="evenodd" stroke-width="3.4286"></path>
  </g>
</svg>