<svg xmlns="http://www.w3.org/2000/svg" fill="none" viewBox="0 0 48 48" id="Artificial-Intelligence-Spark--Streamline-Core-Remix" height="48" width="48">
  <desc>
    Artificial Intelligence Spark Streamline Icon: https://streamlinehq.com
  </desc>
  <g id="Free Remix/Artificial Intelligence/artificial-intelligence-spark--brain-thought-ai-automated-ai">
    <path id="Union" fill="#000000" fill-rule="evenodd" d="M38.31771428571428 2.2263634285714287c-0.6692571428571429 -2.9831314285714283 -4.896102857142856 -2.9618022857142856 -5.538891428571429 0.02415085714285714l-0.07141714285714286 0.3317211428571429 1.676022857142857 0.36078171428571426 -1.676022857142857 -0.3607782857142857C31.919417142857142 6.24264 29.03900571428571 9.030754285714286 25.447062857142857 9.666205714285715c-3.0722742857142853 0.5434971428571428 -3.0722742857142853 4.981234285714286 0 5.5247657142857145 3.5919428571428567 0.6354171428571428 6.472354285714285 3.4235314285714287 7.260342857142857 7.083942857142857l0.07141714285714286 0.3317142857142857c0.6427885714285714 2.985942857142857 4.869634285714286 3.007302857142857 5.538891428571429 0.02417142857142857l0.08639999999999999 -0.3866057142857143c0.8180571428571428 -3.6462514285714285 3.7014857142857136 -6.413451428571428 7.2870857142857135 -7.047771428571428 3.0785142857142858 -0.5445599999999999 3.0785142857142858 -4.991142857142857 0 -5.535702857142857 -3.5856 -0.63432 -6.469028571428571 -3.40152 -7.2870857142857135 -7.047771428571428L38.31771428571428 2.2263634285714287ZM15.513188571428572 3.3829542857142854c-5.598651428571428 0 -10.018799999999999 4.628897142857142 -10.130125714285713 10.220279999999999C1.994657142857143 16.200925714285713 0 21.106525714285713 0 25.83072c0 1.9609371428571427 0.33685474285714284 4.07832 0.9342822857142856 6.0059314285714285 0.4927851428571428 1.5899657142857142 1.1995405714285714 3.169062857142857 2.1378891428571425 4.446548571428571l-0.00028114285714285714 0.08194285714285714C3.0718902857142854 42.71485714285714 8.050354285714285 48 14.358582857142856 48c3.7931314285714284 0 7.10598857142857 -1.9110857142857143 9.144582857142856 -4.815428571428572C25.541451428571428 46.08891428571428 28.853862857142857 48 32.64713142857143 48c6.308297142857143 0 11.286582857142857 -5.285142857142858 11.286582857142857 -11.634857142857141l-0.00034285714285714285 -0.08194285714285714c0.9383999999999999 -1.2774857142857141 1.6453714285714285 -2.856582857142857 2.138057142857143 -4.446548571428571 0.5976 -1.9276114285714288 0.9342857142857143 -4.044994285714285 0.9342857142857143 -6.0059314285714285 0 -1.5721714285714286 -0.21634285714285714 -3.1262742857142856 -0.6126857142857143 -4.591851428571428 -0.30857142857142855 -1.1425028571428573 -1.4849142857142856 -1.818342857142857 -2.6276571428571427 -1.5095657142857142 -1.1423999999999999 0.30877714285714286 -1.8181714285714285 1.4852571428571426 -1.5096 2.627725714285714 0.3010285714285714 1.1127085714285714 0.4642285714285714 2.2910742857142856 0.4642285714285714 3.4736914285714287 0 1.4484685714285714 -0.24480000000000002 3.071005714285714 -0.6911999999999999 4.569462857142857 -0.37097142857142856 -0.5433257142857143 -0.8060571428571428 -1.0538399999999999 -1.3100571428571428 -1.466502857142857 -0.9157714285714286 -0.7496571428571428 -2.265942857142857 -0.6150171428571428 -3.0157714285714285 0.3007542857142857 -0.7494857142857142 0.9157714285714286 -0.614742857142857 2.26584 0.3010285714285714 3.0154971428571424 0.24925714285714284 0.2040342857142857 0.6195428571428571 0.6831771428571428 0.9815999999999999 1.4466171428571428 0.27634285714285717 0.582 0.49405714285714286 1.2169371428571427 0.6318857142857143 1.80048 -0.002742857142857143 0.08022857142857143 -0.0006857142857142857 0.16114285714285714 0.005485714285714286 0.2417142857142857 0.0168 0.20605714285714286 0.025028571428571428 0.41519999999999996 0.025028571428571428 0.6264 0 4.135199999999999 -3.209142857142857 7.349142857142857 -7.000868571428572 7.349142857142857 -3.700011428571428 0 -6.8452457142857135 -3.0603428571428566 -6.9953828571428565 -7.050514285714286 0.013645714285714285 -0.09737142857142857 0.02067428571428571 -0.19714285714285715 0.02067428571428571 -0.2986285714285714l0.00020571428571428572 -10.35030857142857c0.00003428571428571428 -1.1834742857142857 -0.9593485714285714 -2.1428914285714282 -2.1428228571428574 -2.1428914285714282 -1.1834742857142857 -0.00003428571428571428 -2.142857142857143 0.9593485714285714 -2.1428914285714282 2.1428228571428574l-0.00020571428571428572 10.014034285714285c-0.01728 0.10971428571428571 -0.026262857142857143 0.2218285714285714 -0.026262857142857143 0.33634285714285717 0 4.134857142857142 -3.2098285714285715 7.349142857142857 -7.001862857142856 7.349142857142857 -3.7917942857142855 0 -7.000971428571428 -3.213942857142857 -7.000971428571428 -7.349142857142857 0 -0.19268571428571427 0.007028571428571429 -0.38331428571428566 0.02077714285714286 -0.571542857142857 0.1284342857142857 -0.6596571428571428 0.3720685714285714 -1.4149714285714285 0.6956571428571429 -2.097051428571428 0.3620914285714285 -0.76344 0.7326171428571429 -1.2425828571428572 0.9818742857142857 -1.4466171428571428 0.9157714285714286 -0.7496571428571428 1.0504114285714283 -2.099725714285714 0.3007542857142857 -3.0154971428571424 -0.7496571428571428 -0.9157714285714286 -2.099725714285714 -1.0504114285714283 -3.0154971428571424 -0.3007542857142857 -0.5211771428571429 0.4266514285714285 -0.9687771428571428 0.9578742857142857 -1.3476685714285712 1.5218057142857142C4.536617142857143 28.941737142857143 4.285714285714286 27.29705142857143 4.285714285714286 25.83072c0 -2.8766399999999996 0.9406285714285714 -5.527337142857142 2.277428571428571 -7.335702857142857 0.3727542857142857 0.6624685714285714 0.8068457142857143 1.2391885714285713 1.26288 1.7299885714285714 1.0813028571428571 1.1636571428571427 2.3953028571428567 1.957817142857143 3.485657142857143 2.215542857142857 1.15176 0.27222857142857143 2.3060914285714285 -0.4407428571428571 2.5783199999999997 -1.592502857142857 0.27222857142857143 -1.1517257142857142 -0.44077714285714287 -2.3060571428571426 -1.592502857142857 -2.5782857142857143l0.00047999999999999996 0.00003428571428571428c-0.006891428571428571 -0.0020914285714285713 -0.048377142857142855 -0.014502857142857144 -0.1233942857142857 -0.047965714285714285 -0.08732571428571428 -0.03894857142857143 -0.20088 -0.09785142857142856 -0.3332571428571428 -0.18082285714285715 -0.26612571428571424 -0.16679999999999998 -0.5754857142857143 -0.41015999999999997 -0.8757599999999999 -0.733302857142857 -0.5737714285714285 -0.6174857142857143 -1.0932685714285713 -1.5003085714285713 -1.2549942857142855 -2.6924571428571427 -0.0018857142857142857 -0.03929142857142857 -0.004902857142857143 -0.07872 -0.008982857142857141 -0.11821714285714284 -0.023039999999999998 -0.22186285714285714 -0.034937142857142854 -0.4479428571428571 -0.034937142857142854 -0.6776914285714285 0 -3.4730742857142856 2.6923199999999996 -6.150651428571429 5.846537142857143 -6.150651428571429 1.1319428571428571 0 2.1871542857142856 0.33648 3.0856799999999995 0.9256114285714285 0.9896914285714287 0.6488914285714286 2.318057142857143 0.3726171428571428 2.9669485714285715 -0.6170742857142857 0.6489257142857142 -0.9896914285714287 0.3726514285714285 -2.318057142857143 -0.6170399999999999 -2.966982857142857 -1.5678171428571428 -1.02792 -3.434777142857143 -1.6272857142857142 -5.435588571428571 -1.6272857142857142Z" clip-rule="evenodd" stroke-width="3.4286"></path>
  </g>
</svg>