<svg xmlns="http://www.w3.org/2000/svg" fill="none" viewBox="0 0 48 48" id="Ascending-Number-Order--Streamline-Core-Remix" height="48" width="48">
  <desc>
    Ascending Number Order Streamline Icon: https://streamlinehq.com
  </desc>
  <g id="Free Remix/Interface Essential/ascending-number-order">
    <path id="Union" fill="#000000" fill-rule="evenodd" d="M39.539657142857145 2.5799999999999996c0 -1.1598857142857142 -0.9404571428571428 -2.1 -2.1 -2.1 -1.1598857142857142 0 -2.1 0.9401142857142857 -2.1 2.1 0 1.159542857142857 -0.9401142857142857 2.1 -2.1 2.1h-1.3998857142857142c-1.1598857142857142 0 -2.1 0.9401142857142857 -2.1 2.099657142857143s0.9401142857142857 2.1 2.1 2.1h1.3998857142857142c0.7364571428571428 0 1.443085714285714 -0.12617142857142857 2.1 -0.35828571428571426v8.757942857142856H31.840114285714282c-1.1598857142857142 0 -2.1 0.9401142857142857 -2.1 2.1s0.9401142857142857 2.1 2.1 2.1h11.199428571428571c1.1598857142857142 0 2.1 -0.9401142857142857 2.1 -2.1s-0.9401142857142857 -2.1 -2.1 -2.1h-3.499885714285714V2.5799999999999996Zm-2.3969142857142858 32.65405714285714h-2.2049142857142856c-1.4787428571428571 0 -2.6773714285714285 -1.1989714285714286 -2.6773714285714285 -2.6777142857142855 0 -1.4784 1.1986285714285714 -2.6773714285714285 2.6773714285714285 -2.6773714285714285l2.2049142857142856 0c1.4636571428571428 0 2.6530285714285715 1.1746285714285714 2.676685714285714 2.6328v0.08948571428571428c-0.023657142857142856 1.4578285714285715 -1.2130285714285713 2.6328 -2.676685714285714 2.6328Zm0 -9.554742857142857c3.523542857142857 0 6.428571428571428 2.649942857142857 6.830057142857142 6.065828571428572 0.030514285714285713 0.14297142857142855 0.04662857142857142 0.2914285714285714 0.04662857142857142 0.4436571428571428v0.29588571428571425l0.0006857142857142857 0.07165714285714285 -0.0006857142857142857 0.07165714285714285v8.380457142857143c0 3.5955428571428567 -2.914285714285714 6.509828571428571 -6.509485714285714 6.509828571428571h-2.94c-2.837828571428571 0 -5.2460571428571425 -1.8140571428571428 -6.138857142857143 -4.339885714285714 -0.38639999999999997 -1.0937142857142856 0.1865142857142857 -2.293028571428571 1.2802285714285715 -2.6797714285714282 1.0933714285714287 -0.38639999999999997 2.293028571428571 0.18685714285714283 2.6794285714285713 1.2802285714285715 0.31817142857142855 0.9 1.1766857142857143 1.5397714285714286 2.1792000000000002 1.5397714285714286h2.94c1.2754285714285714 0 2.309485714285714 -1.0340571428571428 2.309485714285714 -2.309828571428571v-2.115428571428571c-0.8225142857142856 0.34800000000000003 -1.7273142857142858 0.5403428571428571 -2.676685714285714 0.5403428571428571h-2.2049142857142856c-3.798171428571428 0 -6.877371428571428 -3.0788571428571427 -6.877371428571428 -6.877371428571428 0 -3.798171428571428 3.0791999999999997 -6.87702857142857 6.877371428571428 -6.87702857142857l2.2049142857142856 0Zm-32.18228571428571 9.24102857142857c-0.8492571428571428 0 -1.6152 0.5118857142857142 -1.9402285714285712 1.296342857142857 -0.3250285714285714 0.7847999999999999 -0.14537142857142857 1.6882285714285714 0.45531428571428567 2.2885714285714283l8.399657142857142 8.399657142857142c0.8201142857142857 0.8201142857142857 2.1497142857142855 0.8201142857142857 2.9698285714285713 0l8.399657142857142 -8.399657142857142c0.6006857142857143 -0.6003428571428572 0.7803428571428571 -1.5037714285714285 0.45531428571428567 -2.2885714285714283 -0.3250285714285714 -0.7844571428571429 -1.0906285714285713 -1.296342857142857 -1.9402285714285712 -1.296342857142857H15.460114285714285V2.5817142857142854c0 -1.1598857142857142 -0.9401142857142857 -2.1 -2.1 -2.1s-2.1 0.9401142857142857 -2.1 2.1v32.33862857142857H4.960457142857143Z" clip-rule="evenodd" stroke-width="3.4286"></path>
  </g>
</svg>