<svg xmlns="http://www.w3.org/2000/svg" fill="none" viewBox="0 0 48 48" id="Asterisk-1--Streamline-Core-Remix" height="48" width="48">
  <desc>
    Asterisk 1 Streamline Icon: https://streamlinehq.com
  </desc>
  <g id="Free Remix/Computer Devices/asterisk-1--asterisk-star-keyboard">
    <path id="Union" fill="#000000" fill-rule="evenodd" d="M24.000274285714283 0c1.1834742857142857 0 2.142857142857143 0.9593897142857143 2.142857142857143 2.142857142857143v17.953542857142853l15.563725714285713 -9.904251428571428c0.9984 -0.6353828571428571 2.3228571428571425 -0.34104 2.9585142857142857 0.6573942857142857 0.6353142857142856 0.9984685714285713 0.3408 2.3229257142857143 -0.6576 2.9583085714285713L27.991611428571428 24l16.01616 10.192148571428572c0.9984 0.63528 1.2929142857142857 1.9597371428571428 0.6576 2.9581371428571424 -0.6356571428571428 0.9987428571428572 -1.9601142857142855 1.2929142857142857 -2.9585142857142857 0.6576L26.143131428571426 27.9036V45.857142857142854c0 1.183542857142857 -0.9593828571428571 2.142857142857143 -2.142857142857143 2.142857142857143s-2.142857142857143 -0.9593142857142857 -2.142857142857143 -2.142857142857143V27.9036L6.293588571428572 37.80788571428571c-0.9984685714285713 0.6353142857142856 -2.3229257142857143 0.34114285714285714 -2.9583085714285713 -0.6576 -0.6353725714285714 -0.9984 -0.34104685714285715 -2.3228571428571425 0.6573942857142857 -2.9581371428571424L20.008937142857143 24 3.9926742857142856 13.807851428571427c-0.9984411428571429 -0.6353828571428571 -1.292766857142857 -1.95984 -0.6573942857142857 -2.9583085714285713 0.6353828571428571 -0.9984342857142857 1.95984 -1.2927771428571428 2.9583085714285713 -0.6573942857142857l15.563828571428573 9.904251428571428V2.142857142857143c0 -1.1834674285714284 0.9593828571428571 -2.142857142857143 2.142857142857143 -2.142857142857143Z" clip-rule="evenodd" stroke-width="3.4286"></path>
  </g>
</svg>