<svg xmlns="http://www.w3.org/2000/svg" fill="none" viewBox="0 0 48 48" id="Attribution--Streamline-Core-Remix" height="48" width="48">
  <desc>
    Attribution Streamline Icon: https://streamlinehq.com
  </desc>
  <g id="Free Remix/Interface Essential/attribution">
    <path id="Union" fill="#000000" fill-rule="evenodd" d="M4.285714285714286 24c0 -10.887908571428571 8.826377142857142 -19.71428571428571 19.71428571428571 -19.71428571428571 10.887771428571428 0 19.71428571428571 8.826377142857142 19.71428571428571 19.71428571428571 0 10.887771428571428 -8.826514285714284 19.71428571428571 -19.71428571428571 19.71428571428571 -10.887908571428571 0 -19.71428571428571 -8.826514285714284 -19.71428571428571 -19.71428571428571ZM24 0C10.745177142857143 0 0 10.745177142857143 0 24c0 13.254857142857142 10.745177142857143 24 24 24 13.254857142857142 0 24 -10.745142857142856 24 -24 0 -13.254822857142857 -10.745142857142856 -24 -24 -24ZM18.84661714285714 18.864445714285715C16.77068571428571 20.428697142857143 15.428571428571427 22.914754285714285 15.428571428571427 25.71428571428571v4.285714285714286c0 0.9467657142857142 0.76752 1.7142857142857142 1.7142857142857142 1.7142857142857142h1.8630514285714286l0.7154057142857143 7.8696c0.08029714285714286 0.8828571428571428 0.8206285714285714 1.5589714285714285 1.7072571428571428 1.5589714285714285h5.142857142857142c0.8866285714285713 0 1.62696 -0.6761142857142857 1.7072571428571428 -1.5589714285714285L28.994091428571426 31.71428571428571H30.857142857142854c0.9467657142857142 0 1.7142857142857142 -0.76752 1.7142857142857142 -1.7142857142857142V25.71428571428571c0 -2.7995314285714286 -1.3421142857142858 -5.285588571428572 -3.418045714285714 -6.8498399999999995C30.470914285714283 17.54612571428571 31.285714285714285 15.725348571428572 31.285714285714285 13.714285714285714c0 -4.023771428571428 -3.261942857142857 -7.285714285714286 -7.285714285714286 -7.285714285714286S16.71428571428571 9.690514285714285 16.71428571428571 13.714285714285714c0 2.011062857142857 0.8148 3.83184 2.1323314285714283 5.15016ZM24 10.714285714285714c-1.6568571428571428 0 -3 1.343142857142857 -3 3s1.343142857142857 3 3 3 3 -1.343142857142857 3 -3 -1.343142857142857 -3 -3 -3Z" clip-rule="evenodd" stroke-width="3.4286"></path>
  </g>
</svg>