<svg xmlns="http://www.w3.org/2000/svg" fill="none" viewBox="0 0 48 48" id="Auto-Flash--Streamline-Core-Remix" height="48" width="48">
  <desc>
    Auto Flash Streamline Icon: https://streamlinehq.com
  </desc>
  <g id="Free Remix/Images Photography/auto-flash">
    <path id="Union" fill="#000000" fill-rule="evenodd" d="M21.78785142857143 0.09889165714285714c0.6838628571428571 0.24278845714285713 1.1407542857142856 0.8898329142857142 1.1407542857142856 1.6154866285714284V15.000102857142856H34.714285714285715c0.6613714285714285 0 1.2637714285714285 0.38039999999999996 1.548 0.9775199999999998 0.28422857142857144 0.5971542857142856 0.19954285714285713 1.304502857142857 -0.21737142857142855 1.8177599999999998L16.544777142857143 41.795314285714284c-0.4575771428571428 0.5633142857142857 -1.2201942857142856 0.7772571428571429 -1.9040228571428568 0.5345142857142857 -0.6838628571428571 -0.24274285714285715 -1.14072 -0.8897142857142857 -1.14072 -1.6155428571428572V27.428674285714287H1.7143028571428571c-0.6613234285714286 0 -1.263672 -0.38039999999999996 -1.5478923428571427 -0.9775542857142856 -0.28421897142857144 -0.59712 -0.19961492571428568 -1.304502857142857 0.21741119999999997 -1.8177599999999998L19.88382857142857 0.6333634285714286c0.4575771428571428 -0.5631901714285713 1.2201942857142856 -0.7772602285714285 1.9040228571428568 -0.5344717714285714ZM37.64057142857143 28.281325714285714c-0.05897142857142857 0 -0.11142857142857143 0.03771428571428571 -0.12994285714285714 0.0936l-2.921828571428571 8.766102857142856h6.103542857142857l-2.921828571428571 -8.766102857142856c-0.018857142857142854 -0.055885714285714275 -0.07097142857142856 -0.0936 -0.12994285714285714 -0.0936ZM27.391782857142857 45.17897142857142l2.173645714285714 -6.5211428571428565c0.010697142857142856 -0.03497142857142857 0.02225142857142857 -0.0696 0.03469714285714286 -0.10388571428571428l3.8447314285714285 -11.534262857142856c0.6019885714285714 -1.8059314285714285 2.2921714285714283 -3.0240685714285713 4.195714285714285 -3.0240685714285713 1.9035428571428572 0 3.5934857142857144 1.218102857142857 4.195542857142857 3.0240685714285713l3.8482285714285713 11.544548571428571c0.009942857142857142 0.027428571428571427 0.0192 0.0552 0.02777142857142857 0.0833142857142857l2.177142857142857 6.531428571428571c0.3744 1.1225142857142858 -0.23245714285714283 2.3362285714285713 -1.3553142857142857 2.710285714285714 -1.1228571428571428 0.3744 -2.3362285714285713 -0.23245714285714283 -2.7106285714285714 -1.3553142857142857l-1.7022857142857142 -5.1072H33.160045714285715l-1.7024571428571427 5.1072c-0.3742628571428571 1.1228571428571428 -1.5878057142857143 1.7297142857142855 -2.710525714285714 1.3553142857142857 -1.1227542857142856 -0.37405714285714287 -1.7295085714285714 -1.5877714285714286 -1.3552799999999998 -2.710285714285714Z" clip-rule="evenodd" stroke-width="3.4286"></path>
  </g>
</svg>