<svg xmlns="http://www.w3.org/2000/svg" fill="none" viewBox="0 0 48 48" id="Backpack--Streamline-Core-Remix" height="48" width="48">
  <desc>
    Backpack Streamline Icon: https://streamlinehq.com
  </desc>
  <g id="Free Remix/Money Shopping/backpack--bag-backpack-school-baggage-cloth-clothing-accessories">
    <path id="Union" fill="#000000" fill-rule="evenodd" d="M20.666502857142856 6.952217142857142C21.550594285714286 6.068125714285714 22.749702857142854 5.571428571428571 24 5.571428571428571c1.2502971428571428 0 2.449405714285714 0.49669714285714284 3.3334971428571425 1.3807885714285713 0.7847314285714285 0.7847314285714285 1.2642514285714286 1.8176571428571429 1.3621371428571427 2.9142514285714283 -0.13625142857142855 -0.006205714285714285 -0.2729142857142857 -0.009325714285714286 -0.40991999999999995 -0.009325714285714286h-8.571428571428571c-0.1370057142857143 0 -0.2736685714285714 0.00312 -0.40991999999999995 0.009325714285714286 0.09788571428571427 -1.0965942857142856 0.5774057142857143 -2.12952 1.3621371428571427 -2.9142514285714283ZM15 11.190582857142857V10.285714285714285c0 -2.3869371428571426 0.9482057142857141 -4.676125714285714 2.636022857142857 -6.363977142857142C19.323874285714282 2.233926857142857 21.613062857142857 1.2857142857142856 24 1.2857142857142856c2.3869371428571426 0 4.676125714285714 0.9482125714285713 6.363977142857142 2.636022857142857C32.05179428571429 5.609588571428572 33 7.898777142857142 33 10.285714285714285v0.9048685714285714c0.5941371428571428 0.3653142857142857 1.1484342857142855 0.80136 1.6498285714285714 1.302582857142857 1.6875428571428572 1.6878514285714286 2.635885714285714 3.9770399999999997 2.635885714285714 6.363977142857142v6.857142857142857H41.14285714285714c1.3638857142857141 0 2.672228571428571 0.5418514285714285 3.636685714285714 1.5063085714285713S46.285714285714285 29.493154285714283 46.285714285714285 30.857142857142854v13.714285714285714c0 0.9466285714285714 -0.7676571428571428 1.7142857142857142 -1.7142857142857142 1.7142857142857142H3.4285714285714284c-0.9467725714285714 0 -1.7142857142857142 -0.7676571428571428 -1.7142857142857142 -1.7142857142857142V30.857142857142854c0 -1.3639885714285713 0.5418342857142857 -2.6720914285714286 1.5063085714285713 -3.636548571428571C4.185051428571428 26.256137142857142 5.493154285714286 25.71428571428571 6.857142857142857 25.71428571428571h3.8571428571428568v-6.857142857142857c0 -2.3869371428571426 0.9482057142857141 -4.676125714285714 2.636022857142857 -6.363977142857142 0.5012571428571428 -0.5012228571428571 1.0555542857142857 -0.9372685714285713 1.6496914285714284 -1.302582857142857ZM19.71428571428571 14.142857142857142c-1.2502971428571428 0 -2.449405714285714 0.49669714285714284 -3.3334971428571425 1.3807885714285713S15 17.60684571428571 15 18.857142857142858v3.8571428571428568H21.428571428571427V21.428571428571427c0 -1.4201485714285715 1.1512799999999999 -2.571428571428571 2.571428571428571 -2.571428571428571s2.571428571428571 1.1512799999999999 2.571428571428571 2.571428571428571v1.2857142857142856h6.428571428571428V18.857142857142858c0 -1.2502971428571428 -0.49669714285714284 -2.449405714285714 -1.3807885714285713 -3.3334971428571425S29.536011428571427 14.142857142857142 28.285714285714285 14.142857142857142h-8.571428571428571Zm-4.714285714285714 12.857142857142856H21.428571428571427v1.2857142857142856c0 1.4201485714285715 1.1512799999999999 2.571428571428571 2.571428571428571 2.571428571428571s2.571428571428571 -1.1512799999999999 2.571428571428571 -2.571428571428571v-1.2857142857142856h6.428571428571428v15h-18V27Z" clip-rule="evenodd" stroke-width="3.4286"></path>
  </g>
</svg>