<svg xmlns="http://www.w3.org/2000/svg" fill="none" viewBox="0 0 48 48" id="Back-Camera-1--Streamline-Core-Remix" height="48" width="48">
  <desc>
    Back Camera 1 Streamline Icon: https://streamlinehq.com
  </desc>
  <g id="Free Remix/Phone/back-camera-1--android-phone-mobile-device-smartphone-iphone-camera-lenses">
    <path id="Union" fill="#000000" fill-rule="evenodd" d="M12.2304 4.285714285714286c-0.67368 0 -1.219782857142857 0.5461028571428571 -1.219782857142857 1.219782857142857V42.4944c0 0.6737142857142857 0.5461028571428571 1.2198857142857142 1.219782857142857 1.2198857142857142h23.538514285714285c0.6737142857142857 0 1.219542857142857 -0.5461714285714285 1.219542857142857 -1.2198857142857142V5.505497142857142c0 -0.67368 -0.5458285714285714 -1.219782857142857 -1.219542857142857 -1.219782857142857H12.2304Zm-5.505497142857142 1.219782857142857C6.724902857142856 2.4648925714285714 9.189771428571428 0 12.2304 0h23.538514285714285c3.040457142857143 0 5.505257142857142 2.4648925714285714 5.505257142857142 5.505497142857142V42.4944c0 3.0408 -2.4648 5.505599999999999 -5.505257142857142 5.505599999999999H12.2304c-3.0406285714285715 0 -5.505497142857142 -2.4648 -5.505497142857142 -5.505599999999999V5.505497142857142Zm17.243759999999998 8.867897142857142c-1.6335771428571428 -0.01649142857142857 -2.9527542857142857 -1.3458514285714285 -2.9527542857142857 -2.9833371428571427 0 -1.6477714285714287 1.3357714285714286 -2.983542857142857 2.983508571428571 -2.983542857142857 0.010422857142857143 0 0.02081142857142857 0.00010285714285714286 0.031165714285714286 0.00023999999999999998 1.6334742857142857 0.01659428571428571 2.9525485714285713 1.3459542857142857 2.9525485714285713 2.983371428571428 0 1.6477371428571428 -1.3357714285714286 2.983508571428571 -2.983508571428571 2.983508571428571 -0.010354285714285713 0 -0.02067428571428571 -0.00006857142857142857 -0.030959999999999998 -0.00023999999999999998Z" clip-rule="evenodd" stroke-width="3.4286"></path>
  </g>
</svg>