<svg xmlns="http://www.w3.org/2000/svg" fill="none" viewBox="0 0 48 48" id="Bacteria-Virus-Cells-Biology--Streamline-Core-Remix" height="48" width="48">
  <desc>
    Bacteria Virus Cells Biology Streamline Icon: https://streamlinehq.com
  </desc>
  <g id="Free Remix/Health/bacteria-virus-cells-biology">
    <path id="Union" fill="#000000" fill-rule="evenodd" d="M12.541028571428571 0.014237451428571428c1.1719885714285714 -0.16453848 2.2554514285714284 0.652149977142857 2.419988571428571 1.8241214057142856l0.19032 1.3556537142857141c1.4849142857142856 -0.1063062857142857 2.8321714285714283 0.07115999999999999 4.071531428571428 0.5018159999999999 0.43148571428571425 0.14993142857142855 0.8389371428571428 0.32698285714285713 1.2245485714285713 0.5251885714285714l0.7336457142857142 -1.1378228571428572c0.6413485714285714 -0.9946251428571428 1.9675542857142856 -1.281013714285714 2.962182857142857 -0.6396719999999999s1.2810171428571429 1.9675405714285712 0.6396685714285715 2.962169142857143l-0.9463199999999998 1.4675999999999998c0.15997714285714285 0.16909714285714286 0.3146742857142857 0.3381942857142857 0.4645714285714286 0.5058857142857142 0.43450285714285714 0.4860342857142857 0.8698971428571428 1.0088914285714286 1.274022857142857 1.4942399999999998l0.00010285714285714286 0.00006857142857142857 0.00010285714285714286 0.00013714285714285713c0.16724571428571428 0.20088 0.32917714285714283 0.3953142857142857 0.4834628571428571 0.5780571428571428 0.5556 0.6581485714285714 1.0668685714285713 1.2322971428571428 1.595382857142857 1.7222057142857143 0.17945142857142854 0.16632 0.3584228571428571 0.3207085714285714 0.5385942857142857 0.4626857142857142l0.5649942857142857 -1.1641714285714286c0.51672 -1.0646742857142855 1.7987314285714286 -1.5089142857142857 2.8634399999999998 -0.9921942857142856 1.0647085714285713 0.51672 1.5089142857142857 1.7987314285714286 0.9921942857142856 2.8634399999999998l-0.2568685714285714 0.5292685714285714c1.9935771428571427 0.2280685714285714 3.7723199999999997 0.7953257142857143 5.318605714285714 1.6343657142857142l1.1818285714285715 -1.2663428571428572c0.8074285714285714 -0.8652342857142856 2.1634285714285713 -0.9120685714285713 3.0287999999999995 -0.10463999999999998 0.8653714285714286 0.807462857142857 0.912 2.1634285714285713 0.10457142857142857 3.028662857142857l-0.9229714285714286 0.9891085714285714c0.25097142857142857 0.2736685714285714 0.4899428571428571 0.5576914285714285 0.7169142857142857 0.8513485714285713 0.9294857142857142 1.2027428571428571 1.6392 2.543828571428571 2.136342857142857 3.9625714285714286l1.6350857142857143 -0.23194285714285715c1.171542857142857 -0.16621714285714287 2.256342857142857 0.6489257142857142 2.422628571428571 1.8206742857142857 0.16594285714285714 1.1717142857142857 -0.6490285714285714 2.256342857142857 -1.8209142857142857 2.42256l-1.3885714285714286 0.19704c0.05554285714285714 0.8516571428571429 0.046285714285714284 1.7096571428571428 -0.027428571428571427 2.563062857142857 -0.09565714285714286 1.113702857142857 -0.30171428571428566 2.226925714285714 -0.6168 3.3176228571428568l1.5541714285714283 1.00128c0.9949714285714286 0.6409714285714285 1.281942857142857 1.9669714285714284 0.6411428571428571 2.9619428571428568 -0.6411428571428571 0.9949714285714286 -1.9673142857142856 1.281942857142857 -2.9619428571428568 0.6408l-0.9534857142857143 -0.6140571428571429c-1.215085714285714 2.054742857142857 -2.8885714285714283 3.896571428571429 -5.014628571428571 5.333485714285715l0.6994285714285714 1.2737142857142856c0.5694857142857143 1.0371428571428571 0.19028571428571428 2.34 -0.8472 2.9094857142857142 -1.0374857142857141 0.5694857142857143 -2.340342857142857 0.19028571428571428 -2.909828571428571 -0.8472l-0.7672457142857143 -1.3978285714285714c-1.8652799999999998 0.6754285714285714 -3.959588571428571 1.0913142857142857 -6.280594285714285 1.1777142857142857 -0.12534857142857142 0.0048 -0.2501828571428571 0.008571428571428572 -0.3745028571428571 0.011314285714285714l-0.05026285714285714 1.4249142857142858c-0.041691428571428574 1.1828571428571426 -1.0342971428571428 2.107542857142857 -2.217017142857143 2.066057142857143 -1.1827542857142856 -0.04182857142857143 -2.1077142857142857 -1.0344 -2.066022857142857 -2.217257142857143l0.05458285714285714 -1.548c-1.7073599999999998 -0.26845714285714284 -3.295234285714286 -0.7223999999999999 -4.765851428571428 -1.3302857142857143l-0.6962742857142857 1.3025142857142857c-0.5578628571428571 1.0439999999999998 -1.8562285714285713 1.4376 -2.8999542857142857 0.8797714285714285s-1.4375657142857141 -1.8562285714285713 -0.879702857142857 -2.899885714285714l0.7108457142857142 -1.329942857142857c-1.3589485714285714 -0.9366857142857142 -2.583085714285714 -2.020457142857143 -3.6752228571428565 -3.2125714285714286l-1.3952914285714284 0.9023999999999999c-0.9938400000000001 0.6425142857142857 -2.3203885714285715 0.3579428571428571 -2.963005714285714 -0.636 -0.6425828571428571 -0.993942857142857 -0.3578742857142857 -2.3204571428571428 0.6359314285714286 -2.962971428571428l1.1150057142857142 -0.7209942857142857c-1.0406742857142857 -1.6404342857142855 -1.891302857142857 -3.3886971428571426 -2.556788571428571 -5.175497142857142l-1.4449371428571427 0.40104c-1.1403668571428571 0.3164914285714286 -2.321382857142857 -0.3513942857142857 -2.6378845714285712 -1.4917371428571427 -0.31649828571428573 -1.1403771428571428 0.3513737142857143 -2.321382857142857 1.491733714285714 -2.6378742857142856l1.3901965714285713 -0.38585142857142857C3.5688342857142854 22.65942857142857 3.3462102857142857 20.35961142857143 3.3939634285714284 18.154662857142856l-1.5631851428571426 -0.2240228571428571c-1.1714982857142857 -0.16786285714285712 -1.9850893714285711 -1.2536571428571428 -1.817203714285714 -2.425165714285714C0.1814598857142857 14.333999999999998 1.2672445714285714 13.520399999999999 2.438742857142857 13.688297142857142l1.414902857142857 0.20276571428571427c0.05636571428571428 -0.27822857142857144 0.11790857142857142 -0.5531314285714285 0.18456 -0.8244685714285713 0.2897142857142857 -1.17936 0.6879771428571428 -2.3273142857142854 1.2037371428571428 -3.3942514285714287l-1.3559314285714286 -1.1058857142857141c-0.9171119999999999 -0.7480114285714285 -1.0542 -2.09784 -0.30620571428571425 -3.0149485714285715 0.7480114285714285 -0.9171085714285714 2.09784 -1.0542171428571427 3.0149485714285715 -0.30620571428571425l1.1300571428571429 0.9216685714285714c0.9136114285714285 -0.8774057142857143 1.9863428571428572 -1.578342857142857 3.2305371428571426 -2.0344457142857144L10.716925714285715 2.434206857142857c-0.16453714285714285 -1.1719748571428572 0.6521485714285714 -2.255430857142857 1.824102857142857 -2.4199694057142853ZM17.816194285714285 7.744114285714286c-1.1478171428571429 -0.39884571428571425 -2.775188571428571 -0.49799999999999994 -5.312125714285714 0.3859542857142857 -1.8987085714285714 0.6615771428571428 -3.4927542857142857 2.657211428571429 -4.30392 5.958994285714286 -0.7980342857142857 3.248537142857143 -0.70992 7.3597028571428575 0.4059085714285714 11.392217142857142 2.232342857142857 8.067394285714286 8.291588571428571 15.114034285714286 18.518708571428572 14.732434285714286 8.54574857142857 -0.31885714285714284 12.854091428571428 -6.118114285714285 13.34712 -11.842011428571428 0.24925714285714284 -2.896388571428571 -0.48925714285714283 -5.689165714285714 -2.0784 -7.745417142857143 -1.5534857142857141 -2.0098971428571426 -4.0275428571428575 -3.4627199999999996 -7.612045714285714 -3.573462857142857 -0.027325714285714283 -0.0008571428571428571 -0.054651428571428566 -0.0022285714285714283 -0.08190857142857143 -0.0041142857142857136 -2.584662857142857 -0.17904 -4.472365714285714 -1.3540457142857143 -5.958651428571429 -2.7316457142857145 -0.7262057142857142 -0.6730971428571428 -1.373382857142857 -1.409657142857143 -1.9567542857142857 -2.100685714285714 -0.19542857142857142 -0.23146285714285714 -0.3797828571428571 -0.45291428571428566 -0.5585485714285714 -0.6676457142857142l-0.0005142857142857142 -0.0006514285714285715 -0.00006857142857142857 -0.00006857142857142857 -0.00006857142857142857 -0.00006857142857142857c-0.3807085714285714 -0.4573371428571429 -0.7360457142857143 -0.8842285714285715 -1.1188114285714286 -1.3123885714285715 -1.0995085714285713 -1.2298285714285715 -2.0946171428571425 -2.0761028571428572 -3.2899199999999995 -2.49144Zm1.9841485714285712 5.307359999999999c-2.1783085714285715 -2.1742971428571427 -5.708708571428572 -2.1742971428571427 -7.887017142857143 0 -2.1800571428571427 2.1760457142857144 -2.1800571428571427 5.705382857142856 0 7.881428571428572 2.1783085714285715 2.1742971428571427 5.708708571428572 2.1742971428571427 7.887017142857143 0 2.1800571428571427 -2.1760457142857144 2.1800571428571427 -5.705382857142856 0 -7.881428571428572Zm4.589588571428571 11.444674285714285c2.677645714285714 -2.6726742857142853 7.0176 -2.6726742857142853 9.695245714285715 0 2.679394285714286 2.674422857142857 2.679394285714286 7.011874285714285 0 9.686297142857143 -2.677645714285714 2.67264 -7.0176 2.67264 -9.695245714285715 0 -2.6793599999999995 -2.674422857142857 -2.6793599999999995 -7.011874285714285 0 -9.686297142857143ZM13.654971428571427 29.01072c0 -1.4202171428571428 1.1513142857142855 -2.5715657142857142 2.5715314285714284 -2.5715657142857142 1.4207999999999998 0 2.5713257142857144 1.1518971428571427 2.5713257142857144 2.5715657142857142 0 1.4196342857142856 -1.1505257142857142 2.5715314285714284 -2.5713257142857144 2.5715314285714284 -1.4202171428571428 0 -2.5715314285714284 -1.1513142857142855 -2.5715314285714284 -2.5715314285714284Z" clip-rule="evenodd" stroke-width="3.4286"></path>
  </g>
</svg>