<svg xmlns="http://www.w3.org/2000/svg" fill="none" viewBox="0 0 48 48" id="Bag-Pound--Streamline-Core-Remix" height="48" width="48">
  <desc>
    Bag Pound Streamline Icon: https://streamlinehq.com
  </desc>
  <g id="Free Remix/Money Shopping/bag-pound--bag-payment-cash-money-finance">
    <path id="Union" fill="#000000" fill-rule="evenodd" d="M17.464388571428568 -0.0035552228571428574V-0.0036490285714285715l-0.020057142857142857 0.00018761142857142855c-0.7738285714285714 0.00724248 -1.5194742857142858 0.23778335999999997 -2.1600342857142856 0.6507517028571428 -0.6386742857142856 0.4117885714285714 -1.1441142857142856 0.9855222857142856 -1.4834399999999999 1.6455359999999999 -0.33898285714285714 0.6593142857142856 -0.5064685714285714 1.3923394285714286 -0.49608 2.1269451428571426 0.010354285714285713 0.7346742857142856 0.19848 1.4630742857142855 0.5570742857142857 2.1128571428571425 0.03860571428571428 0.06997714285714286 0.08108571428571429 0.13772571428571426 0.12726857142857143 0.20293714285714284l2.2857600000000002 3.228205714285714c-3.854228571428571 2.394685714285714 -6.921702857142856 5.1913028571428566 -9.10272 8.5608C4.601622857142857 22.49574857142857 3.359931428571428 27.112354285714286 3.359931428571428 32.495485714285714c0 5.3028 2.2731085714285713 9.318 6.153805714285713 11.913771428571428 3.7636457142857145 2.5176 8.866354285714285 3.5938285714285714 14.486365714285713 3.5938285714285714 5.619771428571428 0 10.72446857142857 -1.0762285714285713 14.489382857142857 -3.604114285714285 3.882857142857143 -2.607428571428571 6.150857142857142 -6.640114285714286 6.150857142857142 -11.970651428571427 0 -5.382857142857143 -1.241485714285714 -10.000011428571428 -3.8129142857142857 -13.967691428571428 -2.1792000000000002 -3.362742857142857 -5.243314285714286 -6.150548571428571 -9.092502857142856 -8.531382857142857l2.2723542857142855 -3.188262857142857c0.04765714285714285 -0.06689142857142856 0.09144 -0.13642285714285712 0.13110857142857144 -0.2083542857142857 0.3585257142857142 -0.6497828571428571 0.5467542857142856 -1.3781828571428572 0.55704 -2.1128571428571425 0.010285714285714285 -0.7346057142857143 -0.15702857142857143 -1.4676205714285713 -0.49604571428571426 -2.1269451428571426 -0.3393257142857143 -0.6600171428571429 -0.8447657142857142 -1.233750857142857 -1.4834742857142857 -1.6455359999999999 -0.6405257142857143 -0.41296834285714284 -1.3861714285714284 -0.6435092228571428 -2.1599999999999997 -0.6507517028571428l0 -0.00009380571428571428H17.464388571428568ZM21.12462857142857 9.39672 17.596525714285715 4.413942857142858c-0.003668571428571428 -0.015874285714285712 -0.006171428571428571 -0.034217142857142856 -0.00648 -0.05461714285714285 -0.00041142857142857143 -0.030000000000000002 0.0041142857142857136 -0.05626285714285714 0.010457142857142858 -0.07717714285714285h12.799234285714284c0.006342857142857143 0.020914285714285715 0.010868571428571429 0.047177142857142855 0.010457142857142858 0.07717714285714285 -0.00030857142857142856 0.019748571428571428 -0.002674285714285714 0.03757714285714285 -0.006137142857142857 0.05310857142857143L26.879451428571425 9.357737142857143c-0.35591999999999996 0.4993371428571428 -0.4808228571428571 1.1272457142857142 -0.34316571428571424 1.7247771428571426 0.13769142857142858 0.5975657142857143 0.5247428571428571 1.1074971428571427 1.0632685714285715 1.4007771428571427 4.409622857142857 2.4015771428571426 7.566274285714286 5.121702857142857 9.631302857142858 8.308079999999999 2.0530285714285714 3.168068571428571 3.1237714285714286 6.945874285714285 3.1237714285714286 11.63694857142857 0 3.937508571428571 -1.5857142857142856 6.620708571428572 -4.254171428571428 8.41248 -2.7859885714285713 1.8706285714285713 -6.929965714285714 2.8765714285714283 -12.100354285714285 2.8765714285714283 -5.17008 0 -9.316011428571427 -1.0056 -12.103508571428572 -2.8704 -2.670445714285714 -1.7862857142857143 -4.250948571428571 -4.453371428571428 -4.250948571428571 -8.351485714285714 0 -4.690834285714286 1.0704685714285713 -8.469188571428571 3.124285714285714 -11.642125714285713 2.0659199999999998 -3.191622857142857 5.224285714285714 -5.920662857142857 9.636000000000001 -8.339348571428571 0.5357828571428571 -0.29376 0.9206742857142857 -0.8022171428571427 1.05792 -1.3975885714285714 0.13727999999999999 -0.5954057142857143 0.013851428571428572 -1.2210514285714285 -0.3392228571428571 -1.7197028571428572ZM29.500114285714286 21.3288c0.8702742857142857 -1.95816 0.869622857142857 -1.9584685714285712 0.8689371428571429 -1.9587771428571428l-0.0014399999999999999 -0.0006171428571428571 -0.0032228571428571428 -0.0014399999999999999 -0.007679999999999999 -0.0033599999999999997 -0.020434285714285714 -0.008879999999999999 -0.060617142857142856 -0.025748571428571426c-0.04896 -0.020468571428571426 -0.11495999999999998 -0.04738285714285714 -0.19642285714285712 -0.07909714285714285 -0.1625142857142857 -0.06325714285714286 -0.38845714285714283 -0.14633142857142858 -0.6644914285714286 -0.23519999999999996 -0.54624 -0.17592 -1.317737142857143 -0.38413714285714284 -2.1999771428571426 -0.4992 -1.6776342857142856 -0.21881142857142857 -4.274742857142857 -0.15802285714285713 -6.2298857142857145 1.7970857142857142 -1.3640571428571426 1.3640228571428572 -1.75416 3.1488342857142855 -1.8776914285714286 4.642868571428571 -0.045668571428571426 0.5519657142857143 -0.05787428571428571 1.1419885714285714 -0.054548571428571425 1.7294742857142857h-1.0525371428571428c-1.1834742857142857 0 -2.142857142857143 0.9593828571428571 -2.142857142857143 2.142857142857143 0 1.1834399999999998 0.9593828571428571 2.142857142857143 2.142857142857143 2.142857142857143h1.0738971428571429c-0.04954285714285714 0.6082628571428571 -0.1449257142857143 1.1078742857142856 -0.30380571428571423 1.5182742857142857 -0.21983999999999998 0.5678057142857142 -0.5674971428571428 1.0027199999999998 -1.4077714285714287 1.2925714285714285 -0.15126857142857142 0.04707428571428571 -0.29530285714285714 0.11046857142857142 -0.4301485714285714 0.18809142857142855 -0.2614285714285714 0.14986285714285713 -0.48281142857142856 0.3504685714285714 -0.6554742857142857 0.5842971428571427 -0.1908342857142857 0.2578285714285714 -0.3252342857142857 0.5598857142857142 -0.38489142857142855 0.888 -0.04381714285714285 0.23794285714285715 -0.04762285714285714 0.4858285714285714 -0.006617142857142857 0.7333714285714286 0.03994285714285714 0.2451428571428571 0.12137142857142857 0.4758857142857143 0.23684571428571427 0.6853714285714285 0.1603542857142857 0.29245714285714286 0.38338285714285714 0.5365714285714286 0.6459085714285714 0.7206857142857143 0.23664 0.1666285714285714 0.5085599999999999 0.2866285714285714 0.8022857142857143 0.3462857142857143 0.15702857142857143 0.032228571428571426 0.31865142857142853 0.04731428571428571 0.48195428571428567 0.043199999999999995h11.947817142857144c1.1834742857142857 0 2.142857142857143 -0.9593142857142857 2.142857142857143 -2.142857142857143s-0.9593828571428571 -2.14296 -2.142857142857143 -2.14296H22.89270857142857c0.2941028571428571 -0.8887885714285715 0.42473142857142854 -1.8218742857142856 0.47804571428571424 -2.7143314285714286H28.000114285714286c1.1834742857142857 0 2.142857142857143 -0.9594171428571429 2.142857142857143 -2.142857142857143 0 -1.1834742857142857 -0.9593828571428571 -2.142857142857143 -2.142857142857143 -2.142857142857143H23.336845714285715c-0.0044228571428571424 -0.47660571428571424 0.004457142857142857 -0.9288342857142856 0.04145142857142857 -1.3762971428571429 0.09339428571428571 -1.1291314285714285 0.3441942857142857 -1.6727657142857142 0.6370285714285714 -1.9655657142857141 0.5448685714285714 -0.5448342857142857 1.4477485714285714 -0.7340571428571429 2.645142857142857 -0.5778514285714286 0.5552228571428571 0.07241142857142857 1.064982857142857 0.20794285714285715 1.4406171428571428 0.32886857142857145 0.18490285714285712 0.05955428571428571 0.3300685714285714 0.11321142857142857 0.4233942857142857 0.1495542857142857 0.046491428571428565 0.018102857142857143 0.07957714285714286 0.03171428571428571 0.09778285714285714 0.03929142857142857l0.014708571428571428 0.006205714285714285 0.0006514285714285715 0.00030857142857142856c1.0797257142857142 0.47485714285714287 2.3411657142857143 -0.01248 2.8206514285714284 -1.0913485714285713 0.48065142857142856 -1.0814742857142856 -0.0064114285714285705 -2.347817142857143 -1.0878857142857143 -2.8284342857142857l-0.8702742857142857 1.95816Z" clip-rule="evenodd" stroke-width="3.4286"></path>
  </g>
</svg>