<svg xmlns="http://www.w3.org/2000/svg" fill="none" viewBox="0 0 48 48" id="Bag-Yen--Streamline-Core-Remix" height="48" width="48">
  <desc>
    Bag Yen Streamline Icon: https://streamlinehq.com
  </desc>
  <g id="Free Remix/Money Shopping/bag-yen--bag-payment-cash-money-finance">
    <path id="Union" fill="#000000" fill-rule="evenodd" d="M17.464388571428568 -0.0035552228571428574V-0.0036490285714285715l-0.020057142857142857 0.00018761142857142855c-0.7738285714285714 0.00724248 -1.5194742857142858 0.23778335999999997 -2.1600342857142856 0.6507517028571428 -0.6386742857142856 0.4117885714285714 -1.1441142857142856 0.9855222857142856 -1.4834399999999999 1.6455359999999999 -0.33898285714285714 0.6593142857142856 -0.5064685714285714 1.3923394285714286 -0.49608 2.1269451428571426 0.010354285714285713 0.7346742857142856 0.19848 1.4630742857142855 0.5570742857142857 2.1128571428571425 0.03860571428571428 0.06997714285714286 0.08108571428571429 0.13772571428571426 0.12726857142857143 0.20293714285714284l2.2857600000000002 3.228205714285714c-3.854228571428571 2.394685714285714 -6.921702857142856 5.1913028571428566 -9.10272 8.5608C4.601622857142857 22.49574857142857 3.359931428571428 27.112354285714286 3.359931428571428 32.495485714285714c0 5.3028 2.2731085714285713 9.318 6.153805714285713 11.913771428571428 3.7636457142857145 2.5176 8.866354285714285 3.5938285714285714 14.486365714285713 3.5938285714285714 5.619771428571428 0 10.72446857142857 -1.0762285714285713 14.489382857142857 -3.604114285714285 3.882857142857143 -2.607428571428571 6.150857142857142 -6.640114285714286 6.150857142857142 -11.970651428571427 0 -5.382857142857143 -1.241485714285714 -10.000011428571428 -3.8129142857142857 -13.967691428571428 -2.1792000000000002 -3.362742857142857 -5.243314285714286 -6.150548571428571 -9.092502857142856 -8.531382857142857l2.2723542857142855 -3.188262857142857c0.04765714285714285 -0.06689142857142856 0.09144 -0.13642285714285712 0.13110857142857144 -0.2083542857142857 0.3585257142857142 -0.6497828571428571 0.5467542857142856 -1.3781828571428572 0.55704 -2.1128571428571425 0.010285714285714285 -0.7346057142857143 -0.15702857142857143 -1.4676205714285713 -0.49604571428571426 -2.1269451428571426 -0.3393257142857143 -0.6600171428571429 -0.8447657142857142 -1.233750857142857 -1.4834742857142857 -1.6455359999999999 -0.6405257142857143 -0.41296834285714284 -1.3861714285714284 -0.6435092228571428 -2.1599999999999997 -0.6507517028571428l0 -0.00009380571428571428H17.464388571428568ZM21.12462857142857 9.39672 17.596525714285715 4.413942857142858c-0.003668571428571428 -0.015874285714285712 -0.006171428571428571 -0.034217142857142856 -0.00648 -0.05461714285714285 -0.00041142857142857143 -0.030000000000000002 0.0041142857142857136 -0.05626285714285714 0.010457142857142858 -0.07717714285714285h12.799234285714284c0.006342857142857143 0.020914285714285715 0.010868571428571429 0.047177142857142855 0.010457142857142858 0.07717714285714285 -0.00030857142857142856 0.019748571428571428 -0.002674285714285714 0.03757714285714285 -0.006137142857142857 0.05310857142857143L26.879451428571425 9.357737142857143c-0.35591999999999996 0.4993371428571428 -0.4808228571428571 1.1272457142857142 -0.34316571428571424 1.7247771428571426 0.13769142857142858 0.5975657142857143 0.5247428571428571 1.1074971428571427 1.0632685714285715 1.4007771428571427 4.409622857142857 2.4015771428571426 7.566274285714286 5.121702857142857 9.631302857142858 8.308079999999999 2.0530285714285714 3.168068571428571 3.1237714285714286 6.945874285714285 3.1237714285714286 11.63694857142857 0 3.937508571428571 -1.5857142857142856 6.620708571428572 -4.254171428571428 8.41248 -2.7859885714285713 1.8706285714285713 -6.929965714285714 2.8765714285714283 -12.100354285714285 2.8765714285714283 -5.17008 0 -9.316011428571427 -1.0056 -12.103508571428572 -2.8704 -2.670445714285714 -1.7862857142857143 -4.250948571428571 -4.453371428571428 -4.250948571428571 -8.351485714285714 0 -4.690834285714286 1.0704685714285713 -8.469188571428571 3.124285714285714 -11.642125714285713 2.0659199999999998 -3.191622857142857 5.224285714285714 -5.920662857142857 9.636000000000001 -8.339348571428571 0.5357828571428571 -0.29376 0.9206742857142857 -0.8022171428571427 1.05792 -1.3975885714285714 0.13727999999999999 -0.5954057142857143 0.013851428571428572 -1.2210514285714285 -0.3392228571428571 -1.7197028571428572ZM16.714388571428568 18.857142857142858c0.9467657142857142 -0.7100914285714285 2.289908571428571 -0.5181942857142857 3 0.42857142857142855l4.285714285714286 5.714297142857143 4.285714285714286 -5.714297142857143c0.7100914285714285 -0.9467657142857142 2.0532342857142853 -1.1386628571428572 3 -0.42857142857142855 0.9467657142857142 0.7100914285714285 1.1386628571428572 2.0532342857142853 0.42857142857142855 3L27.964457142857142 26.857062857142857h2.0356457142857143c1.1834742857142857 0 2.142857142857143 0.9594171428571429 2.142857142857143 2.142857142857143 0 1.1834742857142857 -0.9593828571428571 2.142857142857143 -2.142857142857143 2.142857142857143h-3.8571428571428568v1.9999542857142854h3.8571428571428568c1.1834742857142857 0 2.142857142857143 0.9593828571428571 2.142857142857143 2.1427542857142856 0 1.183542857142857 -0.9593828571428571 2.142857142857143 -2.142857142857143 2.142857142857143h-3.8571428571428568v1.0001142857142857c0 1.183542857142857 -0.9593828571428571 2.142857142857143 -2.142857142857143 2.142857142857143s-2.142857142857143 -0.9593142857142857 -2.142857142857143 -2.142857142857143v-1.0001142857142857h-3.8571428571428568c-1.1834742857142857 0 -2.142857142857143 -0.9593142857142857 -2.142857142857143 -2.142857142857143 0 -1.1833714285714285 0.9593828571428571 -2.1427542857142856 2.142857142857143 -2.1427542857142856h3.8571428571428568v-1.9999542857142854h-3.8571428571428568c-1.1834742857142857 0 -2.142857142857143 -0.9593828571428571 -2.142857142857143 -2.142857142857143 0 -1.1834399999999998 0.9593828571428571 -2.142857142857143 2.142857142857143 -2.142857142857143h2.03568L16.28581714285714 21.857142857142858c-0.7100914285714285 -0.9467657142857142 -0.5181942857142857 -2.289908571428571 0.42857142857142855 -3Z" clip-rule="evenodd" stroke-width="3.4286"></path>
  </g>
</svg>