<svg xmlns="http://www.w3.org/2000/svg" fill="none" viewBox="0 0 48 48" id="Bag-Suitcase-1--Streamline-Core-Remix" height="48" width="48">
  <desc>
    Bag Suitcase 1 Streamline Icon: https://streamlinehq.com
  </desc>
  <g id="Free Remix/Money Shopping/bag-suitcase-1--product-business-briefcase">
    <path id="Union" fill="#000000" fill-rule="evenodd" d="M18.857142857142858 1.2857142857142856c-1.7049599999999998 0 -3.34008 0.6772937142857143 -4.545668571428571 1.882885714285714C13.105851428571428 4.374205714285714 12.428571428571427 6.009325714285714 12.428571428571427 7.7142857142857135v3.8571428571428568H6.857142857142857C3.780137142857143 11.571428571428571 1.2857142857142856 14.06585142857143 1.2857142857142856 17.142857142857142v24c0 3.077142857142857 2.494422857142857 5.571428571428571 5.571428571428571 5.571428571428571h34.285714285714285c3.077142857142857 0 5.571428571428571 -2.494285714285714 5.571428571428571 -5.571428571428571V17.142857142857142c0 -3.0770057142857143 -2.494285714285714 -5.571428571428571 -5.571428571428571 -5.571428571428571h-5.571428571428571V7.7142857142857135c0 -1.7049599999999998 -0.6771428571428572 -3.34008 -1.882902857142857 -4.545685714285714C32.48293714285714 1.963008 30.847817142857142 1.2857142857142856 29.142857142857142 1.2857142857142856h-10.285714285714285Zm10.714285714285714 10.285714285714285V7.7142857142857135c0 -0.11365714285714285 -0.04515428571428571 -0.22268571428571426 -0.12552 -0.3030514285714285C29.365542857142856 7.330868571428572 29.25651428571428 7.285714285714286 29.142857142857142 7.285714285714286h-10.285714285714285c-0.11365714285714285 0 -0.22268571428571426 0.04515428571428571 -0.3030514285714285 0.12552 -0.08036571428571428 0.08036571428571428 -0.12552 0.18939428571428568 -0.12552 0.3030514285714285v3.8571428571428568h11.142857142857142ZM5.571428571428571 17.142857142857142c0 -0.7100914285714285 0.5756228571428571 -1.2857142857142856 1.2857142857142856 -1.2857142857142856h34.285714285714285c0.7100571428571428 0 1.2857142857142856 0.5756228571428571 1.2857142857142856 1.2857142857142856v24c0 0.7100571428571428 -0.5756571428571428 1.2857142857142856 -1.2857142857142856 1.2857142857142856H6.857142857142857c-0.7100914285714285 0 -1.2857142857142856 -0.5756571428571428 -1.2857142857142856 -1.2857142857142856V17.142857142857142ZM12.857142857142856 21.428571428571427c-1.4201485714285715 0 -2.571428571428571 1.1512799999999999 -2.571428571428571 2.571428571428571s1.1512799999999999 2.571428571428571 2.571428571428571 2.571428571428571h22.285714285714285c1.4201142857142857 0 2.571428571428571 -1.1512799999999999 2.571428571428571 -2.571428571428571s-1.1513142857142855 -2.571428571428571 -2.571428571428571 -2.571428571428571h-22.285714285714285ZM10.285714285714285 34.285714285714285c0 -1.4201485714285715 1.1512799999999999 -2.571428571428571 2.571428571428571 -2.571428571428571h22.285714285714285c1.4201142857142857 0 2.571428571428571 1.1512799999999999 2.571428571428571 2.571428571428571 0 1.4201142857142857 -1.1513142857142855 2.571428571428571 -2.571428571428571 2.571428571428571h-22.285714285714285c-1.4201485714285715 0 -2.571428571428571 -1.1513142857142855 -2.571428571428571 -2.571428571428571Z" clip-rule="evenodd" stroke-width="3.4286"></path>
  </g>
</svg>