<svg xmlns="http://www.w3.org/2000/svg" fill="none" viewBox="0 0 48 48" id="Bag--Streamline-Core-Remix" height="48" width="48">
  <desc>
    Bag Streamline Icon: https://streamlinehq.com
  </desc>
  <g id="Free Remix/Money Shopping/bag--bag-payment-cash-money-finance">
    <path id="Union" fill="#000000" fill-rule="evenodd" d="M31.57971428571429 0.004458891428571428 31.525302857142854 0.003766731428571428H16.474011428571426l-0.05441142857142856 0.00069216h-0.00003428571428571428C15.685199999999998 0.02312790857142857 14.967634285714286 0.22837302857142855 14.33448 0.600870857142857c-0.6331542857142857 0.3725005714285714 -1.16112 0.9 -1.5341485714285714 1.532838857142857 -0.3730285714285714 0.6328354285714285 -0.5789142857142857 1.3501988571428571 -0.5982171428571428 2.0845645714285714 -0.01930285714285714 0.7343657142857142 0.1485942857142857 1.4615314285714285 0.4878857142857143 2.113097142857143 0.029417142857142857 0.056502857142857146 0.06137142857142856 0.11166857142857142 0.09569142857142857 0.16532571428571427l3.1001142857142856 4.844365714285714c-4.161154285714286 2.2520571428571428 -7.5408342857142845 4.679142857142857 -9.958662857142857 7.7175771428571425C3.0535439999999996 22.669919999999998 1.677456 26.964514285714284 1.677456 32.408159999999995c0 5.4209828571428575 2.519046857142857 9.457782857142856 6.693778285714286 12.03126857142857 4.0476 2.4953142857142856 9.543565714285714 3.564342857142857 15.62838857142857 3.564342857142857 6.084788571428571 0 11.58072 -1.0690285714285714 15.628491428571426 -3.564342857142857 4.174628571428571 -2.5734857142857144 6.693599999999999 -6.610285714285713 6.693599999999999 -12.03126857142857 0 -5.443645714285714 -1.3758857142857142 -9.73824 -4.249714285714286 -13.349519999999998 -2.4178285714285717 -3.0384342857142856 -5.797371428571428 -5.46552 -9.958525714285715 -7.7175771428571425l3.1000114285714284 -4.844365714285714c0.034628571428571425 -0.053657142857142855 0.0665142857142857 -0.10882285714285712 0.096 -0.16532571428571427 0.33908571428571427 -0.6515657142857142 0.5070857142857143 -1.3787314285714285 0.4878857142857143 -2.113097142857143 -0.019542857142857143 -0.7343657142857142 -0.22525714285714282 -1.4517291428571428 -0.5982857142857142 -2.0845645714285714 -0.3730285714285714 -0.6328354285714285 -0.9010285714285713 -1.1603382857142857 -1.5342514285714284 -1.532838857142857 -0.6331542857142857 -0.37249782857142855 -1.3506857142857143 -0.5777429485714285 -2.0850514285714286 -0.5964119657142857h-0.00006857142857142857ZM9.280697142857141 21.7272c2.0014628571428568 -2.5152342857142855 4.984559999999999 -4.68192 9.154971428571427 -6.889748571428571 3.114102857142857 2.8888114285714286 8.013908571428571 2.8888114285714286 11.128011428571428 0.00003428571428571428 4.170377142857143 2.2077942857142854 7.153577142857143 4.374479999999999 9.154834285714285 6.889714285714286 2.1713142857142853 2.72856 3.317485714285714 6.034971428571428 3.317485714285714 10.680959999999999 0 3.861325714285714 -1.6847999999999999 6.5510399999999995 -4.6570285714285715 8.383268571428571 -3.099222857142857 1.9104 -7.6928914285714285 2.926628571428571 -13.37934857142857 2.926628571428571s-10.280125714285713 -1.0162285714285713 -13.379382857142856 -2.926628571428571c-2.9720914285714284 -1.8322285714285713 -4.657062857142857 -4.521942857142856 -4.657062857142857 -8.383268571428571 0 -4.645988571428571 1.1463085714285715 -7.952399999999999 3.3175199999999996 -10.680959999999999Z" clip-rule="evenodd" stroke-width="3.4286"></path>
  </g>
</svg>