<svg xmlns="http://www.w3.org/2000/svg" fill="none" viewBox="0 0 48 48" id="Baggage--Streamline-Core-Remix" height="48" width="48">
  <desc>
    Baggage Streamline Icon: https://streamlinehq.com
  </desc>
  <g id="Free Remix/Map Travel/baggage--check-baggage-travel-adventure-luggage-bag-checked-airport">
    <path id="Union" fill="#000000" fill-rule="evenodd" d="M19.285714285714285 10.285714285714285c0 -2.6036228571428572 2.110662857142857 -4.714285714285714 4.714285714285714 -4.714285714285714S28.71428571428571 7.682091428571429 28.71428571428571 10.285714285714285v1.2857142857142856h-9.428571428571429V10.285714285714285Zm-4.285714285714286 1.2857142857142856V10.285714285714285C15 5.315142857142857 19.02942857142857 1.2857142857142856 24 1.2857142857142856S33 5.315142857142857 33 10.285714285714285v1.2857142857142856H37.714285714285715c4.9704 0 9 4.0294285714285705 9 9v17.142857142857142c0 4.9704 -4.029599999999999 9 -9 9H10.285714285714285C5.315142857142857 46.71428571428571 1.2857142857142856 42.68468571428571 1.2857142857142856 37.714285714285715V20.57142857142857C1.2857142857142856 15.600857142857143 5.315142857142857 11.571428571428571 10.285714285714285 11.571428571428571h4.714285714285714Zm20.57142857142857 4.285714285714286v26.57142857142857H37.714285714285715c2.6036571428571427 0 4.714285714285714 -2.1106285714285713 4.714285714285714 -4.714285714285714V20.57142857142857c0 -2.6036228571428572 -2.1106285714285713 -4.714285714285714 -4.714285714285714 -4.714285714285714h-2.142857142857143Zm-6 26.57142857142857v-26.57142857142857h-11.142857142857142v26.57142857142857h11.142857142857142ZM10.285714285714285 15.857142857142856h2.142857142857143v26.57142857142857H10.285714285714285c-2.6036228571428572 0 -4.714285714285714 -2.1106285714285713 -4.714285714285714 -4.714285714285714V20.57142857142857c0 -2.6036228571428572 2.110662857142857 -4.714285714285714 4.714285714285714 -4.714285714285714Z" clip-rule="evenodd" stroke-width="3.4286"></path>
  </g>
</svg>