<svg xmlns="http://www.w3.org/2000/svg" fill="none" viewBox="0 0 48 48" id="Ball--Streamline-Core-Remix" height="48" width="48">
  <desc>
    Ball Streamline Icon: https://streamlinehq.com
  </desc>
  <g id="Free Remix/Money Shopping/ball--sports-ball-sport-basketball-shopping-catergories">
    <path id="Union" fill="#000000" fill-rule="evenodd" d="M21.857142857142858 4.400811428571429c-4.223794285714286 0.45648 -8.04768 2.246845714285714 -11.041851428571428 4.941222857142857 1.7163428571428572 1.46688 3.1680342857142856 3.229165714285714 4.282114285714285 5.211325714285715 1.6212 2.8843885714285715 2.4730628571428572 6.13824 2.473611428571428 9.447051428571427 -0.0009599999999999999 5.624777142857143 -2.525657142857143 11.026559999999998 -6.761279999999999 14.659474285714285 2.9950285714285716 2.6972571428571426 6.821005714285714 4.489371428571428 11.047405714285714 4.946057142857143V4.400811428571429Zm4.285714285714286 39.20513142857143c4.225954285714285 -0.4566857142857143 8.05158857142857 -2.2484571428571427 11.046514285714286 -4.945028571428571 -1.7177142857142855 -1.4681142857142857 -3.1700914285714283 -3.2317714285714283 -4.28448 -5.215577142857143 -1.62024 -2.884354285714285 -2.4713142857142856 -6.13704 -2.4713142857142856 -9.445337142857143s0.8510742857142857 -6.560982857142857 2.4713142857142856 -9.445337142857143c1.1135657142857143 -1.9822971428571425 2.5647085714285716 -3.7448228571428572 4.280708571428571 -5.212114285714286 -2.99448 -2.6946857142857144 -6.818639999999999 -4.485257142857143 -11.042742857142857 -4.941737142857143V43.60594285714286Zm13.90045714285714 -31.06796571428571c-1.3662857142857143 1.1533714285714285 -2.52 2.5459199999999997 -3.401828571428571 4.115657142857143 -1.260342857142857 2.243382857142857 -1.9220571428571427 4.773257142857143 -1.9220571428571427 7.346365714285714 0 2.573108571428571 0.6617142857142857 5.102982857142857 1.9220571428571427 7.346365714285714 0.8825142857142857 1.570902857142857 2.0372571428571424 2.964377142857143 3.4049142857142853 4.118091428571428 2.3112 -3.229782857142857 3.6713142857142853 -7.18656 3.6713142857142853 -11.461028571428571 0 -4.2763542857142856 -1.3611428571428572 -8.234742857142857 -3.6744000000000003 -11.465451428571427ZM7.952879999999999 35.46377142857143c3.332262857142857 -2.8241485714285717 5.331668571428571 -7.067588571428572 5.332422857142857 -11.46408 -0.00044571428571428567 -2.57352 -0.6629828571428571 -5.103051428571429 -1.9239085714285713 -7.346468571428572 -0.8824457142857143 -1.5699771428571427 -2.0371542857142857 -2.962628571428571 -3.4042971428571427 -4.115862857142857 -2.3132228571428572 3.2308114285714287 -3.6747428571428573 7.189439999999999 -3.6747428571428573 11.46606857142857 0 4.274022857142858 1.3598742857142856 8.230422857142857 3.670525714285714 11.460342857142857ZM24.00006857142857 0C10.74336 0 -0.0033482125714285713 10.746685714285714 -0.0033482125714285713 24.00342857142857c0 13.256571428571426 10.746708212571429 24.00342857142857 24.003416784 24.00342857142857 13.256845714285713 0 24.00336 -10.746857142857143 24.00336 -24.00342857142857C48.003428571428564 10.746685714285714 37.25691428571428 0 24.00006857142857 0Z" clip-rule="evenodd" stroke-width="3.4286"></path>
  </g>
</svg>