<svg xmlns="http://www.w3.org/2000/svg" fill="none" viewBox="0 0 48 48" id="Balloon--Streamline-Core-Remix" height="48" width="48">
  <desc>
    Balloon Streamline Icon: https://streamlinehq.com
  </desc>
  <g id="Free Remix/Entertainment/balloon--hobby-entertainment-party-balloon">
    <path id="Union" fill="#000000" fill-rule="evenodd" d="M7.647325714285714 15.319611428571427c0 3.124834285714286 1.313862857142857 6.733611428571428 3.5063657142857143 9.554845714285713 2.200285714285714 2.831245714285714 5.016891428571428 4.548822857142857 7.861817142857142 4.548822857142857 2.84496 0 5.661771428571429 -1.7176114285714286 7.86222857142857 -4.548891428571428 2.192674285714286 -2.8212342857142856 3.5066742857142854 -6.4300114285714285 3.5066742857142854 -9.554777142857143 0 -3.2022514285714285 -1.032582857142857 -5.934205714285714 -2.8718399999999997 -7.85136C25.690045714285713 5.568617142857143 22.90038857142857 4.285714285714286 19.015508571428573 4.285714285714286c-3.8848457142857145 0 -6.674297142857142 1.2828685714285715 -8.496617142857142 3.182502857142857 -1.83912 1.9170857142857143 -2.871565714285714 4.649074285714286 -2.871565714285714 7.851394285714285ZM15.108342857142857 33.04032c-2.932525714285714 -1.0185257142857143 -5.44512 -3.0995314285714284 -7.338651428571428 -5.536045714285714C5.072194285714286 24.033222857142857 3.361608 19.518754285714284 3.361608 15.319611428571427c0 -4.121588571428571 1.3397862857142855 -7.978011428571428 4.064574857142857 -10.81830857142857C10.167702857142856 1.6435199999999999 14.133805714285712 0 19.015508571428573 0 23.897245714285713 0 27.863451428571427 1.6435131428571428 30.60514285714286 4.501234285714285c2.72496 2.8402628571428568 4.064914285714285 6.696685714285714 4.064914285714285 10.818377142857143 0 4.199211428571428 -1.7107542857142857 8.713714285714286 -4.408422857142857 12.184731428571428 -1.8741257142857142 2.411382857142857 -4.354697142857142 4.474594285714286 -7.248514285714285 5.504194285714286l1.8618514285714283 2.3177485714285715c1.8279771428571427 2.275542857142857 0.5208342857142857 5.554628571428571 -2.144708571428571 6.130971428571428 0.3380228571428571 0.29897142857142855 0.7189028571428571 0.5616 1.1402742857142856 0.7930285714285714 2.3346171428571427 1.2816 4.3781485714285715 0.39119999999999994 7.805999999999999 -1.2329142857142856 1.5158399999999999 -0.7179428571428571 3.4392342857142855 -1.6275428571428572 5.46072 -1.8586285714285715 2.237828571428571 -0.2561142857142857 4.4890285714285705 0.3144 6.578057142857142 2.1853714285714285 1.0577142857142856 0.9476571428571428 1.1468571428571428 2.5734857142857144 0.1992 3.6311999999999998 -0.9476571428571428 1.0577142857142856 -2.573142857142857 1.1472 -3.6308571428571423 0.19954285714285713 -0.9630857142857142 -0.8629714285714285 -1.7417142857142855 -1.0004571428571427 -2.561485714285714 -0.9068571428571428 -1.0361142857142858 0.11862857142857142 -2.1977142857142855 0.6171428571428571 -3.843702857142857 1.397142857142857 -0.14417142857142856 0.06822857142857143 -0.2925257142857142 0.1392 -0.44492571428571426 0.2122285714285714l-0.0012 0.0006857142857142857c-2.9088 1.392342857142857 -7.28712 3.4878857142857145 -12.036891428571428 0.8801142857142856 -2.0477142857142856 -1.1242285714285714 -3.7670399999999997 -2.8244571428571428 -4.761428571428571 -5.2128h-0.43248c-3.23472 0 -5.008422857142857 -3.766285714285714 -2.9481257142857142 -6.259885714285714l1.854925714285714 -2.245165714285714Zm2.073188571428571 4.2193371428571425h3.7493142857142856l-1.8483085714285712 -2.3009142857142857 -1.901005714285714 2.3009142857142857Z" clip-rule="evenodd" stroke-width="3.4286"></path>
  </g>
</svg>