<svg xmlns="http://www.w3.org/2000/svg" fill="none" viewBox="0 0 48 48" id="Bandage--Streamline-Core-Remix" height="48" width="48">
  <desc>
    Bandage Streamline Icon: https://streamlinehq.com
  </desc>
  <g id="Free Remix/Health/bandage--health-medical-hospital-medicine-capsule-bandage-vaccine">
    <path id="Union" fill="#000000" fill-rule="evenodd" d="M34.60971428571428 0c3.5513142857142856 0 6.957257142857142 1.4107542857142856 9.468342857142856 3.9219085714285713C46.58914285714285 6.433062857142857 48 9.838937142857143 48 13.390251428571428s-1.4108571428571428 6.9571885714285715 -3.9219428571428567 9.468342857142856L22.858594285714283 44.07805714285714C20.34744 46.58914285714285 16.941565714285716 48 13.390251428571428 48s-6.9571885714285715 -1.4108571428571428 -9.468342857142856 -3.9219428571428567C1.410750857142857 41.56697142857143 0 38.16102857142857 0 34.60971428571428c0 -3.5512799999999998 1.410750857142857 -6.957154285714286 3.9219085714285713 -9.46830857142857l21.219497142857144 -21.219497142857144C27.652559999999998 1.4107542857142856 31.058434285714284 0 34.60971428571428 0Zm0.9709714285714286 25.29510857142857L22.704891428571425 12.419348571428571l-10.285714285714285 10.285714285714285 12.87576 12.875622857142856 10.285748571428572 -10.285577142857143Z" clip-rule="evenodd" stroke-width="3.4286"></path>
  </g>
</svg>