<svg xmlns="http://www.w3.org/2000/svg" fill="none" viewBox="0 0 48 48" id="Bank--Streamline-Core-Remix" height="48" width="48">
  <desc>
    Bank Streamline Icon: https://streamlinehq.com
  </desc>
  <g id="Free Remix/Money Shopping/bank--institution-saving-bank-payment-finance">
    <path id="Union" fill="#000000" fill-rule="evenodd" d="M24.000857142857143 1.7142857142857142c-0.71088 0 -1.4074285714285713 0.1927302857142857 -2.017268571428571 0.5563371428571428 -0.02369142857142857 0.014132571428571427 -0.04707428571428571 0.028837714285714286 -0.07004571428571428 0.044098285714285715L3.209355428571428 14.728662857142858l-0.00000342857142857143 0 -0.004272 0.0028457142857142856c-1.3782205714285714 0.9206742857142857 -1.786998857142857 2.5015542857142856 -1.2609085714285715 3.8434971428571423 0.5080251428571428 1.2958628571428572 1.798045714285714 2.183211428571428 3.3524914285714282 2.183211428571428h0.3074057142857143v13.549439999999999h-0.5930742857142857c-2.109692571428571 0 -3.72528 1.7396571428571426 -3.72528 3.7669714285714284v4.872685714285714c0 2.0273142857142856 1.6155874285714285 3.7669714285714284 3.72528 3.7669714285714284H42.98914285714286c2.1096 0 3.725142857142857 -1.7396571428571426 3.725142857142857 -3.7669714285714284v-4.872685714285714c0 -2.0273142857142856 -1.6155428571428572 -3.7669714285714284 -3.725142857142857 -3.7669714285714284h-0.5931428571428571V20.75821714285714h0.3089142857142857c1.5545142857142857 0 2.8446857142857143 -0.8873485714285714 3.352457142857143 -2.183211428571428 0.5262857142857142 -1.341942857142857 0.11759999999999998 -2.9228228571428567 -1.2606857142857144 -3.8434971428571423l-0.004457142857142857 -0.0028457142857142856L26.088171428571428 2.314721142857143c-0.023005714285714282 -0.015260571428571429 -0.046354285714285716 -0.029965714285714283 -0.07004571428571428 -0.044098285714285715C25.408285714285714 1.9070159999999998 24.71173714285714 1.7142857142857142 24.000857142857143 1.7142857142857142Zm12.395142857142856 19.043931428571426H32.131988571428565v13.549439999999999h4.264011428571428V20.75821714285714Zm-10.264011428571427 0H21.868011428571428v13.549439999999999h4.263977142857143V20.75821714285714Zm-10.263977142857144 0H11.604068571428572v13.549439999999999h4.263942857142856V20.75821714285714ZM5.571428571428571 38.59337142857142v3.8352h36.857142857142854v-3.8352H5.571428571428571Z" clip-rule="evenodd" stroke-width="3.4286"></path>
  </g>
</svg>