<svg xmlns="http://www.w3.org/2000/svg" fill="none" viewBox="0 0 48 48" id="Battery-Empty-2--Streamline-Core-Remix" height="48" width="48">
  <desc>
    Battery Empty 2 Streamline Icon: https://streamlinehq.com
  </desc>
  <g id="Free Remix/Computer Devices/battery-empty-2--phone-mobile-charge-device-electricity-empty-power-battery">
    <path id="Union" fill="#000000" fill-rule="evenodd" d="M3.65808 0.6276274285714285c-0.8368319999999999 -0.8368367999999999 -2.193613714285714 -0.8368367999999999 -3.030452571428571 0 -0.8368367999999999 0.8368388571428571 -0.8368367999999999 2.1936205714285713 0 3.030452571428571l6.428578285714286 6.428571428571428 29.629165714285712 29.629234285714283 0.0010285714285714284 0.0010285714285714284 7.655657142857142 7.655314285714286c0.8365714285714285 0.8369142857142857 2.1936 0.8369142857142857 3.0301714285714283 0 0.8369142857142857 -0.8365714285714285 0.8369142857142857 -2.1936 0 -3.0301714285714283l-6.531771428571428 -6.531771428571428c0.1985142857142857 -0.5773714285714285 0.3024 -1.1883428571428571 0.3024 -1.8102857142857143v-2.142857142857143h3c1.0230857142857142 0 2.004 -0.40635428571428567 2.7274285714285713 -1.1297142857142857 0.7234285714285713 -0.72336 1.1297142857142857 -1.7044457142857143 1.1297142857142857 -2.7274285714285713v-12c0 -1.0229828571428572 -0.40628571428571425 -2.0040685714285713 -1.1297142857142857 -2.7274285714285713 -0.7234285714285713 -0.7233257142857142 -1.704342857142857 -1.1297142857142857 -2.7274285714285713 -1.1297142857142857H41.14285714285714V12c0 -1.477645714285714 -0.5869714285714285 -2.894742857142857 -1.632 -3.9395999999999995 -1.0446857142857142 -1.044857142857143 -2.4617142857142853 -1.6318285714285712 -3.9394285714285715 -1.6318285714285712H9.459017142857142L3.65808 0.6276274285714285ZM2.142857142857143 12c1.1834674285714284 0 2.142857142857143 0.9593828571428571 2.142857142857143 2.142857142857143V36c0 0.34114285714285714 0.13546285714285713 0.6678857142857143 0.37655999999999995 0.9092571428571428 0.24113142857142858 0.24102857142857143 0.5681485714285713 0.3764571428571428 0.9091542857142857 0.3764571428571428H27.428571428571427c1.1834742857142857 0 2.142857142857143 0.9593142857142857 2.142857142857143 2.142857142857143s-0.9593828571428571 2.142857142857143 -2.142857142857143 2.142857142857143H5.571428571428571c-1.477645714285714 0 -2.894749714285714 -0.5869714285714285 -3.939596571428571 -1.632C0.5869885714285714 38.89474285714286 0 37.47771428571428 0 36V14.142857142857142C0 12.959382857142856 0.9593897142857143 12 2.142857142857143 12Z" clip-rule="evenodd" stroke-width="3.4286"></path>
  </g>
</svg>