<svg xmlns="http://www.w3.org/2000/svg" fill="none" viewBox="0 0 48 48" id="Battery-Charging--Streamline-Core-Remix" height="48" width="48">
  <desc>
    Battery Charging Streamline Icon: https://streamlinehq.com
  </desc>
  <g id="Free Remix/Computer Devices/battery-charging--phone-mobile-charge-device-electricity-power-battery-charging">
    <path id="Union" fill="#000000" fill-rule="evenodd" d="M5.571428571428571 6.428571428571428c-1.477645714285714 0 -2.894749714285714 0.5869714285714285 -3.939596571428571 1.6318285714285712C0.5869885714285714 9.105257142857143 0 10.522354285714286 0 12v24c0 1.4777142857142855 0.5869885714285714 2.894742857142857 1.631832 3.9394285714285715 1.044846857142857 1.0450285714285714 2.461950857142857 1.632 3.939596571428571 1.632h30c1.4777142857142855 0 2.894742857142857 -0.5869714285714285 3.9394285714285715 -1.632 1.0450285714285714 -1.0446857142857142 1.632 -2.4617142857142853 1.632 -3.9394285714285715v-2.142857142857143h3c1.0230857142857142 0 2.004 -0.4063885714285714 2.7274285714285713 -1.1297142857142857 0.7234285714285713 -0.72336 1.1297142857142857 -1.7044457142857143 1.1297142857142857 -2.7274285714285713v-12c0 -1.0229828571428572 -0.40628571428571425 -2.0040685714285713 -1.1297142857142857 -2.7274285714285713 -0.7234285714285713 -0.7233257142857142 -1.704342857142857 -1.1297142857142857 -2.7274285714285713 -1.1297142857142857H41.14285714285714V12c0 -1.477645714285714 -0.5869714285714285 -2.894742857142857 -1.632 -3.9395999999999995 -1.0446857142857142 -1.044857142857143 -2.4617142857142853 -1.6318285714285712 -3.9394285714285715 -1.6318285714285712h-30Zm-0.9091542857142857 4.662274285714286c0.24113142857142858 -0.24109714285714282 0.5681485714285713 -0.37655999999999995 0.9091542857142857 -0.37655999999999995h30c0.34114285714285714 0 0.6678857142857143 0.13546285714285713 0.9092571428571428 0.37655999999999995 0.24102857142857143 0.24113142857142858 0.3764571428571428 0.5681485714285713 0.3764571428571428 0.9091542857142857v4.285714285714286c0 1.1834742857142857 0.9593142857142857 2.142857142857143 2.142857142857143 2.142857142857143h4.714285714285714v11.142857142857142h-4.714285714285714c-1.183542857142857 0 -2.142857142857143 0.9593828571428571 -2.142857142857143 2.142857142857143v4.285714285714286c0 0.34114285714285714 -0.13542857142857143 0.6678857142857143 -0.3764571428571428 0.9092571428571428 -0.24137142857142857 0.24102857142857143 -0.5681142857142857 0.3764571428571428 -0.9092571428571428 0.3764571428571428h-30c-0.3410057142857143 0 -0.6680228571428571 -0.13542857142857143 -0.9091542857142857 -0.3764571428571428 -0.24109714285714282 -0.24137142857142857 -0.37655999999999995 -0.5681142857142857 -0.37655999999999995 -0.9092571428571428v-24c0 -0.3410057142857143 0.13546285714285713 -0.6680228571428571 0.37655999999999995 -0.9091542857142857Zm19.49225142857143 6.893245714285714c0.9208799999999999 -1.0811314285714284 0.7909714285714284 -2.70408 -0.29016 -3.6249599999999997s-2.70408 -0.7909714285714284 -3.6249599999999997 0.29016l-6.540719999999999 7.678971428571428c-0.6502285714285715 0.7633714285714285 -0.7973828571428571 1.8351085714285715 -0.3769371428571428 2.745497142857143 0.42041142857142855 0.9103885714285713 1.3317257142857142 1.4933142857142856 2.3345142857142855 1.4933142857142856h4.929428571428572l-2.9317028571428567 3.4515428571428566c-0.9194057142857143 1.0823999999999998 -0.7872342857142857 2.7051771428571425 0.29516571428571425 3.6245485714285715 1.0823999999999998 0.9192342857142857 2.7051771428571425 0.7872342857142857 3.6245485714285715 -0.29516571428571425l6.529851428571428 -7.687645714285715c0.6487542857142857 -0.7638171428571429 0.7946742857142857 -1.834937142857143 0.37388571428571427 -2.7444342857142856 -0.4207885714285714 -0.9094971428571428 -1.3316228571428572 -1.4917028571428572 -2.33376 -1.4917028571428572H21.22433142857143l2.9301942857142853 -3.4401257142857142Z" clip-rule="evenodd" stroke-width="3.4286"></path>
  </g>
</svg>