<svg xmlns="http://www.w3.org/2000/svg" fill="none" viewBox="0 0 48 48" id="Battery-Empty-1--Streamline-Core-Remix" height="48" width="48">
  <desc>
    Battery Empty 1 Streamline Icon: https://streamlinehq.com
  </desc>
  <g id="Free Remix/Computer Devices/battery-empty-1--phone-mobile-charge-device-electricity-empty-power-battery">
    <path id="Vector" stroke="#000000" stroke-linecap="round" stroke-linejoin="round" stroke-width="4.2857" d="M45.857142857142854 18c0 -0.45466285714285715 -0.18068571428571426 -0.8907085714285714 -0.5019428571428571 -1.2121714285714285 -0.32159999999999994 -0.32149714285714287 -0.7577142857142857 -0.5021142857142856 -1.2123428571428572 -0.5021142857142856h-5.142857142857142V12c0 -0.9093257142857143 -0.3613714285714285 -1.781382857142857 -1.0042285714285712 -2.424377142857143 -0.6428571428571428 -0.64296 -1.5150857142857141 -1.0041942857142856 -2.424342857142857 -1.0041942857142856h-30c-0.9093257142857143 0 -1.781382857142857 0.3612342857142857 -2.424366857142857 1.0041942857142856C2.504081142857143 10.218617142857143 2.142857142857143 11.090674285714286 2.142857142857143 12v24c0 0.9092571428571428 0.361224 1.7814857142857141 1.0042045714285714 2.424342857142857 0.642984 0.6428571428571428 1.5150411428571426 1.0042285714285712 2.424366857142857 1.0042285714285712h30c0.9092571428571428 0 1.7814857142857141 -0.3613714285714285 2.424342857142857 -1.0042285714285712s1.0042285714285712 -1.5150857142857141 1.0042285714285712 -2.424342857142857V31.71428571428571h5.142857142857142c0.4546285714285714 0 0.8907428571428571 -0.18061714285714284 1.2123428571428572 -0.5021142857142856 0.32125714285714285 -0.3214628571428571 0.5019428571428571 -0.7575085714285714 0.5019428571428571 -1.2121714285714285v-12Z"></path>
  </g>
</svg>