<svg xmlns="http://www.w3.org/2000/svg" fill="none" viewBox="0 0 48 48" id="Battery-Medium-1--Streamline-Core-Remix" height="48" width="48">
  <desc>
    Battery Medium 1 Streamline Icon: https://streamlinehq.com
  </desc>
  <g id="Free Remix/Computer Devices/battery-medium-1--phone-mobile-charge-medium-device-electricity-power-battery">
    <path id="Union" fill="#000000" fill-rule="evenodd" d="M5.571428571428571 6.428571428571428c-1.477645714285714 0 -2.894749714285714 0.5869714285714285 -3.939596571428571 1.6318285714285712C0.5869885714285714 9.105257142857143 0 10.522354285714286 0 12v24c0 1.4777142857142855 0.5869885714285714 2.894742857142857 1.631832 3.9394285714285715 1.044846857142857 1.0450285714285714 2.461950857142857 1.632 3.939596571428571 1.632h30c1.4777142857142855 0 2.894742857142857 -0.5869714285714285 3.9394285714285715 -1.632 1.0450285714285714 -1.0446857142857142 1.632 -2.4617142857142853 1.632 -3.9394285714285715v-2.142857142857143h3c1.0230857142857142 0 2.004 -0.4063885714285714 2.7274285714285713 -1.1297142857142857 0.7234285714285713 -0.72336 1.1297142857142857 -1.7044457142857143 1.1297142857142857 -2.7274285714285713v-12c0 -1.0229828571428572 -0.40628571428571425 -2.0040685714285713 -1.1297142857142857 -2.7274285714285713 -0.7234285714285713 -0.7233257142857142 -1.704342857142857 -1.1297142857142857 -2.7274285714285713 -1.1297142857142857H41.14285714285714V12c0 -1.477645714285714 -0.5869714285714285 -2.894742857142857 -1.632 -3.9395999999999995 -1.0446857142857142 -1.044857142857143 -2.4617142857142853 -1.6318285714285712 -3.9394285714285715 -1.6318285714285712h-30Zm-0.9091542857142857 4.662274285714286c0.24113142857142858 -0.24109714285714282 0.5681485714285713 -0.37655999999999995 0.9091542857142857 -0.37655999999999995h30c0.34114285714285714 0 0.6678857142857143 0.13546285714285713 0.9092571428571428 0.37655999999999995 0.24102857142857143 0.24113142857142858 0.3764571428571428 0.5681485714285713 0.3764571428571428 0.9091542857142857v4.285714285714286c0 1.1834742857142857 0.9593142857142857 2.142857142857143 2.142857142857143 2.142857142857143h4.714285714285714v11.142857142857142h-4.714285714285714c-1.183542857142857 0 -2.142857142857143 0.9593828571428571 -2.142857142857143 2.142857142857143v4.285714285714286c0 0.34114285714285714 -0.13542857142857143 0.6678857142857143 -0.3764571428571428 0.9092571428571428 -0.24137142857142857 0.24102857142857143 -0.5681142857142857 0.3764571428571428 -0.9092571428571428 0.3764571428571428h-30c-0.3410057142857143 0 -0.6680228571428571 -0.13542857142857143 -0.9091542857142857 -0.3764571428571428 -0.24109714285714282 -0.24137142857142857 -0.37655999999999995 -0.5681142857142857 -0.37655999999999995 -0.9092571428571428v-24c0 -0.3410057142857143 0.13546285714285713 -0.6680228571428571 0.37655999999999995 -0.9091542857142857ZM11.142857142857142 14.571428571428571c1.4201485714285715 0 2.571428571428571 1.1512799999999999 2.571428571428571 2.571428571428571v13.714285714285714c0 1.4201485714285715 -1.1512799999999999 2.571428571428571 -2.571428571428571 2.571428571428571S8.571428571428571 32.27729142857143 8.571428571428571 30.857142857142854V17.142857142857142c0 -1.4201485714285715 1.1512799999999999 -2.571428571428571 2.571428571428571 -2.571428571428571Zm9.428571428571429 0c1.4201485714285715 0 2.571428571428571 1.1512799999999999 2.571428571428571 2.571428571428571v13.714285714285714c0 1.4201485714285715 -1.1512799999999999 2.571428571428571 -2.571428571428571 2.571428571428571s-2.571428571428571 -1.1512799999999999 -2.571428571428571 -2.571428571428571V17.142857142857142c0 -1.4201485714285715 1.1512799999999999 -2.571428571428571 2.571428571428571 -2.571428571428571Z" clip-rule="evenodd" stroke-width="3.4286"></path>
  </g>
</svg>