<svg xmlns="http://www.w3.org/2000/svg" fill="none" viewBox="0 0 48 48" id="Beach--Streamline-Core-Remix" height="48" width="48">
  <desc>
    Beach Streamline Icon: https://streamlinehq.com
  </desc>
  <g id="Free Remix/Map Travel/beach--island-waves-outdoor-recreation-tree-beach-palm-wave-water-travel-places">
    <path id="Union" fill="#000000" fill-rule="evenodd" d="M24.21517714285714 12.4728c-0.10943999999999998 0.026468571428571428 -0.2184 0.05550857142857142 -0.32687999999999995 0.08711999999999999 -1.6267542857142856 0.4742742857142857 -3.037302857142857 1.5007542857142857 -3.988937142857143 2.9027657142857137 -0.9305142857142856 1.3708799999999999 -2.7961714285714283 1.727862857142857 -4.167051428571428 0.7973485714285713s-1.727862857142857 -2.7961714285714283 -0.7973485714285713 -4.167051428571428c1.735337142857143 -2.5565828571428573 4.307519999999999 -4.428377142857142 7.27392 -5.293234285714285 0.23519999999999996 -0.06857142857142857 0.47170285714285715 -0.13049142857142856 0.7092685714285714 -0.18572571428571427 -0.8395542857142857 -0.21661714285714284 -1.7243314285714284 -0.24572571428571427 -2.590011428571428 -0.07529142857142856 -1.625622857142857 0.32012571428571424 -3.2029714285714284 -0.73824 -3.523062857142857 -2.363862857142857 -0.3200914285714285 -1.625646857142857 0.73824 -3.202981714285714 2.3638971428571427 -3.5230834285714283 2.9762399999999998 -0.5860505142857143 6.063942857142857 -0.007985142857142856 8.62662857142857 1.6150525714285713 1.5127542857142857 0.9580765714285714 2.774502857142857 2.237173714285714 3.707177142857143 3.729425142857143 1.6932685714285713 -0.5786742857142857 3.504651428571428 -0.7926857142857142 5.313222857142857 -0.6098742857142857 3.0377142857142854 0.30713142857142856 5.8590857142857145 1.7127771428571428 7.933714285714285 3.9530057142857142 1.1256 1.2156342857142857 1.0529142857142857 3.113725714285714 -0.16285714285714284 4.239531428571428 -1.2154285714285713 1.125805714285714 -3.113485714285714 1.052982857142857 -4.239428571428571 -0.16265142857142859 -0.8225142857142856 -0.88824 -1.870285714285714 -1.5247542857142857 -3.0216 -1.84896 0.1872 0.2502857142857143 0.36479999999999996 0.5088 0.5328 0.7751314285714286 1.6237714285714286 2.5778057142857143 2.1826285714285714 5.685874285714285 1.5575999999999999 8.66784 -0.33977142857142856 1.6216114285714285 -1.929942857142857 2.660742857142857 -3.5516571428571426 2.320902857142857 -1.6214742857142856 -0.33980571428571427 -2.660605714285714 -1.9298742857142859 -2.3207999999999998 -3.55152 0.30562285714285714 -1.4583085714285713 0.032434285714285714 -2.9783314285714284 -0.7617942857142856 -4.239017142857143 -0.7729371428571428 -1.2269142857142856 -1.9805828571428572 -2.1147428571428573 -3.3788914285714284 -2.4876685714285713 -1.258902857142857 1.068342857142857 -2.312125714285714 2.6116457142857143 -3.131005714285714 4.594799999999999 -0.9435428571428571 2.28504 -1.5265028571428572 5.044731428571428 -1.75176 8.037497142857141 1.4371542857142856 0.33593142857142855 2.8391999999999995 0.8236457142857142 4.181862857142857 1.4577942857142856 1.8011657142857143 0.850662857142857 3.466731428571429 1.9512 4.949382857142857 3.2647542857142855 0.8858057142857142 0.7847999999999999 0.9677485714285714 2.1391199999999997 0.1829485714285714 3.024925714285714 -0.7847657142857143 0.8858742857142856 -2.1390857142857143 0.9678171428571427 -3.024925714285714 0.1829485714285714 -1.1796 -1.0450285714285714 -2.5046742857142856 -1.9206171428571428 -3.937645714285714 -2.5973828571428568 -1.4900571428571427 -0.7037485714285714 -3.072 -1.1808685714285714 -4.693542857142856 -1.4196342857142856 -0.12500571428571428 -0.006205714285714285 -0.24709714285714282 -0.023074285714285714 -0.36541714285714283 -0.049679999999999995 -0.6831428571428572 -0.0852 -1.37256 -0.12822857142857144 -2.0644114285714283 -0.12822857142857144 -2.463257142857143 0 -4.8959657142857145 0.5455542857142858 -7.123337142857143 1.597542857142857 -2.227337142857143 1.0519542857142856 -4.194068571428572 2.584182857142857 -5.758834285714285 4.486594285714285 -0.7517828571428571 0.9140571428571428 -2.1021942857142855 1.0453714285714286 -3.016182857142857 0.2938285714285714 -0.9140125714285714 -0.7518857142857143 -1.045518857142857 -2.102262857142857 -0.29372571428571426 -3.016285714285714 1.9668342857142855 -2.3912228571428567 4.438868571428571 -4.31712 7.238502857142857 -5.639382857142857 2.7996342857142853 -1.3222628571428572 5.857405714285714 -2.0080114285714283 8.953577142857142 -2.0080114285714283 0.17197714285714286 0 0.3438171428571428 0.0021257142857142855 0.5154857142857143 0.006342857142857143 0.26341714285714285 -3.2578285714285715 0.9188914285714286 -6.397988571428571 2.04672 -9.129325714285715 0.5201828571428571 -1.2596914285714285 1.150902857142857 -2.4547542857142854 1.9043999999999999 -3.5392799999999998ZM14.142857142857142 39c0 -1.183542857142857 -0.9593828571428571 -2.142857142857143 -2.142857142857143 -2.142857142857143s-2.142857142857143 0.9593142857142857 -2.142857142857143 2.142857142857143c0 2.1301714285714284 -1.726902857142857 3.8571428571428568 -3.8571428571428568 3.8571428571428568 -0.5954742857142857 0 -1.1538171428571429 -0.13337142857142856 -1.6519542857142857 -0.36994285714285713 -0.6638742857142856 -0.3154285714285714 -1.4430685714285714 -0.2688 -2.064356571428571 0.12411428571428572 -0.6212914285714286 0.39257142857142857 -0.997974857142857 1.0762285714285713 -0.997974857142857 1.8113142857142857v1.4345142857142856c0 1.183542857142857 0.9593897142857143 2.142857142857143 2.142857142857143 2.142857142857143h41.14285714285714c1.183542857142857 0 2.142857142857143 -0.9593142857142857 2.142857142857143 -2.142857142857143v-1.4345142857142856c0 -0.7350857142857142 -0.37679999999999997 -1.418742857142857 -0.9980571428571429 -1.8113142857142857 -0.6212571428571428 -0.39291428571428566 -1.4005714285714284 -0.4395428571428571 -2.064342857142857 -0.12411428571428572 -0.4981714285714286 0.23657142857142857 -1.056342857142857 0.36994285714285713 -1.6518857142857142 0.36994285714285713 -2.1301714285714284 0 -3.8571428571428568 -1.7269714285714286 -3.8571428571428568 -3.8571428571428568 0 -1.183542857142857 -0.9593142857142857 -2.142857142857143 -2.142857142857143 -2.142857142857143s-2.142857142857143 0.9593142857142857 -2.142857142857143 2.142857142857143c0 2.1301714285714284 -1.726902857142857 3.8571428571428568 -3.8571428571428568 3.8571428571428568s-3.8571428571428568 -1.7269714285714286 -3.8571428571428568 -3.8571428571428568c0 -1.183542857142857 -0.9593828571428571 -2.142857142857143 -2.142857142857143 -2.142857142857143s-2.142857142857143 0.9593142857142857 -2.142857142857143 2.142857142857143c0 2.1301714285714284 -1.726902857142857 3.8571428571428568 -3.8571428571428568 3.8571428571428568s-3.8571428571428568 -1.7269714285714286 -3.8571428571428568 -3.8571428571428568Z" clip-rule="evenodd" stroke-width="3.4286"></path>
  </g>
</svg>