<svg xmlns="http://www.w3.org/2000/svg" fill="none" viewBox="0 0 48 48" id="Beanie--Streamline-Core-Remix" height="48" width="48">
  <desc>
    Beanie Streamline Icon: https://streamlinehq.com
  </desc>
  <g id="Free Remix/Money Shopping/beanie--beanie-winter-hat-warm-cloth-clothing-wearable-accessories">
    <path id="Union" fill="#000000" fill-rule="evenodd" d="M26.142857142857142 3.4285714285714284c0 -1.1834674285714284 -0.9593828571428571 -2.142857142857143 -2.142857142857143 -2.142857142857143S21.857142857142858 2.245104 21.857142857142858 3.4285714285714284v3.1177028571428567c-9.642754285714284 1.065942857142857 -17.142857142857142 9.241097142857143 -17.142857142857142 19.16801142857143v7.323462857142857C2.9438331428571427 33.85032 1.7142857142857142 35.63862857142857 1.7142857142857142 37.714285714285715v3.4285714285714284c0 2.8402285714285713 2.3025257142857143 5.142857142857142 5.142857142857142 5.142857142857142h34.285714285714285c2.8402285714285713 0 5.142857142857142 -2.302628571428571 5.142857142857142 -5.142857142857142v-3.4285714285714284c0 -2.075657142857143 -1.229485714285714 -3.863965714285714 -3 -4.676537142857143V25.71428571428571c0 -9.926914285714286 -7.5 -18.10206857142857 -17.142857142857142 -19.16801142857143V3.4285714285714284ZM24 10.714285714285714c-8.284285714285714 0 -15 6.715714285714285 -15 15v6.857142857142857h30v-6.857142857142857c0 -8.284285714285714 -6.715714285714285 -15 -15 -15Z" clip-rule="evenodd" stroke-width="3.4286"></path>
  </g>
</svg>