<svg xmlns="http://www.w3.org/2000/svg" fill="none" viewBox="0 0 48 48" id="Beer-Mug--Streamline-Core-Remix" height="48" width="48">
  <desc>
    Beer Mug Streamline Icon: https://streamlinehq.com
  </desc>
  <g id="Free Remix/Food Drink/beer-mug--beer-cook-brewery-drink-mug-cooking-nutrition-brew-brewing-food">
    <path id="Union" fill="#000000" fill-rule="evenodd" d="M6.857142857142857 1.2857142857142856C3.780137142857143 1.2857142857142856 1.2857142857142856 3.780137142857143 1.2857142857142856 6.857142857142857v30.857142857142854c0 4.9704 4.0294285714285705 9 9 9h17.142857142857142c4.82688 0 8.766171428571427 -3.7998857142857143 8.990057142857143 -8.571428571428571H41.14285714285714c3.077142857142857 0 5.571428571428571 -2.494285714285714 5.571428571428571 -5.571428571428571v-17.142857142857142c0 -3.0770057142857143 -2.494285714285714 -5.571428571428571 -5.571428571428571 -5.571428571428571h-4.714285714285714V6.857142857142857c0 -3.0770057142857143 -2.494422857142857 -5.571428571428571 -5.571428571428571 -5.571428571428571H6.857142857142857ZM32.14285714285714 12V6.857142857142857c0 -0.7100914285714285 -0.5756228571428571 -1.2857142857142856 -1.2857142857142856 -1.2857142857142856H6.857142857142857c-0.7100914285714285 0 -1.2857142857142856 0.5756228571428571 -1.2857142857142856 1.2857142857142856v30.857142857142854c0 2.6036571428571427 2.110662857142857 4.714285714285714 4.714285714285714 4.714285714285714h17.142857142857142c2.6036228571428572 0 4.714285714285714 -2.1106285714285713 4.714285714285714 -4.714285714285714V12Zm4.285714285714286 21.857142857142858v-19.71428571428571H41.14285714285714c0.7100571428571428 0 1.2857142857142856 0.5756228571428571 1.2857142857142856 1.2857142857142856v17.142857142857142c0 0.7100914285714285 -0.5756571428571428 1.2857142857142856 -1.2857142857142856 1.2857142857142856h-4.714285714285714ZM13.714285714285714 11.571428571428571c1.1834742857142857 0 2.142857142857143 0.9593828571428571 2.142857142857143 2.142857142857143v18.857142857142858c0 1.1834742857142857 -0.9593828571428571 2.142857142857143 -2.142857142857143 2.142857142857143s-2.142857142857143 -0.9593828571428571 -2.142857142857143 -2.142857142857143V13.714285714285714c0 -1.1834742857142857 0.9593828571428571 -2.142857142857143 2.142857142857143 -2.142857142857143ZM26.142857142857142 13.714285714285714c0 -1.1834742857142857 -0.9593828571428571 -2.142857142857143 -2.142857142857143 -2.142857142857143s-2.142857142857143 0.9593828571428571 -2.142857142857143 2.142857142857143v18.857142857142858c0 1.1834742857142857 0.9593828571428571 2.142857142857143 2.142857142857143 2.142857142857143s2.142857142857143 -0.9593828571428571 2.142857142857143 -2.142857142857143V13.714285714285714Z" clip-rule="evenodd" stroke-width="3.4286"></path>
  </g>
</svg>