<svg xmlns="http://www.w3.org/2000/svg" fill="none" viewBox="0 0 48 48" id="Beer-Pitch--Streamline-Core-Remix" height="48" width="48">
  <desc>
    Beer Pitch Streamline Icon: https://streamlinehq.com
  </desc>
  <g id="Free Remix/Food Drink/beer-pitch--drink-glass-beer-pitch">
    <path id="Union" fill="#000000" fill-rule="evenodd" d="M14.236457142857143 9.613062857142856C14.757462857142857 6.587588571428571 17.397771428571428 4.285714285714286 20.57142857142857 4.285714285714286c3.1736571428571425 0 5.813965714285714 2.3018742857142853 6.334971428571428 5.327348571428571 0.10278857142857142 0.59688 0.45335999999999993 1.1223771428571427 0.9650057142857142 1.4465142857142856 0.5116457142857143 0.32413714285714285 1.1365714285714286 0.4166057142857143 1.7201485714285714 0.25453714285714285C29.99187428571428 11.202925714285714 30.415782857142858 11.142857142857142 30.857142857142854 11.142857142857142c2.6036228571428572 0 4.714285714285714 2.110662857142857 4.714285714285714 4.714285714285714S33.460765714285714 20.57142857142857 30.857142857142854 20.57142857142857H18.857142857142858c-1.1834742857142857 0 -2.142857142857143 0.9593828571428571 -2.142857142857143 2.142857142857143v6.857142857142857c0 1.6568571428571428 -1.343142857142857 3 -3 3s-3 -1.343142857142857 -3 -3V22.498251428571425c0 -0.97776 -0.6618514285714285 -1.8315085714285715 -1.60872 -2.0752114285714285C7.071805714285714 19.89956571428571 5.571428571428571 18.05088 5.571428571428571 15.857142857142856c0 -2.6036228571428572 2.110662857142857 -4.714285714285714 4.714285714285714 -4.714285714285714 0.4413942857142857 0 0.865302857142857 0.06006857142857143 1.2655885714285715 0.17125714285714286 0.5835771428571428 0.16206857142857142 1.208502857142857 0.0696 1.7201485714285714 -0.25453714285714285 0.5116457142857143 -0.32413714285714285 0.8622171428571428 -0.8496342857142857 0.9650057142857142 -1.4465142857142856ZM6.428571428571428 29.142857142857142V23.990331428571427C3.388669714285714 22.546182857142856 1.2857142857142856 19.449222857142857 1.2857142857142856 15.857142857142856 1.2857142857142856 10.886571428571429 5.315142857142857 6.857142857142857 10.285714285714285 6.857142857142857c0.09552 0 0.19073142857142855 0.0015085714285714286 0.2856342857142857 0.004457142857142857C12.118868571428571 2.847606857142857 16.011017142857142 0 20.57142857142857 0s8.452559999999998 2.847606857142857 10.000079999999999 6.8616C30.666411428571426 6.858651428571429 30.761622857142854 6.857142857142857 30.857142857142854 6.857142857142857c4.9704 0 9 4.0294285714285705 9 9 0 1.7285485714285715 -0.48719999999999997 3.3432685714285713 -1.332 4.714285714285714H39.42857142857142c3.3137142857142856 0 6 2.686285714285714 6 6v10.285714285714285c0 3.3137142857142856 -2.686285714285714 6 -6 6h-4.7303999999999995c-0.21908571428571427 2.8769142857142853 -2.622514285714286 5.142857142857142 -5.555314285714286 5.142857142857142h-17.142857142857142c-3.0770057142857143 0 -5.571428571428571 -2.494285714285714 -5.571428571428571 -5.571428571428571V29.142857142857142Zm28.285714285714285 -3.4285714285714284V37.714285714285715H39.42857142857142c0.4734857142857143 0 0.8571428571428571 -0.3836571428571428 0.8571428571428571 -0.8571428571428571v-10.285714285714285c0 -0.4733828571428571 -0.3836571428571428 -0.8571428571428571 -0.8571428571428571 -0.8571428571428571h-4.714285714285714Z" clip-rule="evenodd" stroke-width="3.4286"></path>
  </g>
</svg>