<svg xmlns="http://www.w3.org/2000/svg" fill="none" viewBox="0 0 48 48" id="Bicycle-Bike--Streamline-Core-Remix" height="48" width="48">
  <desc>
    Bicycle Bike Streamline Icon: https://streamlinehq.com
  </desc>
  <g id="Free Remix/Map Travel/bicycle-bike">
    <path id="Union" fill="#000000" fill-rule="evenodd" d="M29.163154285714285 9.83053714285714C29.568994285714286 9.306617142857142 30.194434285714287 9 30.857142857142854 9h8.571428571428571c1.183542857142857 0 2.142857142857143 0.9593828571428571 2.142857142857143 2.142857142857143s-0.9593142857142857 2.142857142857143 -2.142857142857143 2.142857142857143H33.62321142857143L37.27542857142857 27.437759999999997C37.4208 27.43165714285714 37.5672 27.428571428571427 37.714285714285715 27.428571428571427c5.6808 0 10.285714285714285 4.605085714285714 10.285714285714285 10.285714285714285 0 5.6808 -4.604914285714285 10.285714285714285 -10.285714285714285 10.285714285714285 -5.680628571428571 0 -10.285714285714285 -4.604914285714285 -10.285714285714285 -10.285714285714285 0 -4.031451428571429 2.3193599999999996 -7.521188571428572 5.696468571428571 -9.20766857142857l-0.7207542857142857 -2.7929142857142857 -12.535988571428572 8.255348571428572C20.322239999999997 35.129485714285714 20.57142857142857 36.39291428571428 20.57142857142857 37.714285714285715c0 5.6808 -4.605085714285714 10.285714285714285 -10.285714285714285 10.285714285714285s-10.285714285714285 -4.604914285714285 -10.285714285714285 -10.285714285714285c0 -5.680628571428571 4.605085714285714 -10.285714285714285 10.285714285714285 -10.285714285714285 2.8149257142857143 0 5.365714285714286 1.1307771428571427 7.222971428571428 2.9628342857142855l2.3069142857142855 -1.5191657142857142L13.424605714285713 19.285714285714285H10.285714285714285c-1.1834742857142857 0 -2.142857142857143 -0.9593828571428571 -2.142857142857143 -2.142857142857143s0.9593828571428571 -2.142857142857143 2.142857142857143 -2.142857142857143h9.428571428571429c1.1834742857142857 0 2.142857142857143 0.9593828571428571 2.142857142857143 2.142857142857143s-0.9593828571428571 2.142857142857143 -2.142857142857143 2.142857142857143h-1.138902857142857l4.819611428571428 7.2293828571428564 7.8774171428571425 -5.187531428571429 -2.490137142857143 -9.64926857142857c-0.1656 -0.6416914285714285 -0.024994285714285712 -1.3238742857142856 0.38087999999999994 -1.84776ZM13.011942857142856 33.35266285714285C12.22158857142857 32.857611428571424 11.287062857142857 32.57142857142857 10.285714285714285 32.57142857142857c-2.8403314285714285 0 -5.142857142857142 2.302628571428571 -5.142857142857142 5.142857142857142s2.3025257142857143 5.142857142857142 5.142857142857142 5.142857142857142 5.142857142857142 -2.302628571428571 5.142857142857142 -5.142857142857142c0 -0.2660571428571428 -0.020194285714285713 -0.5273142857142856 -0.05914285714285714 -0.7823999999999999l-3.905177142857143 2.571428571428571c-0.9883885714285713 0.6510857142857143 -2.3173028571428573 0.37748571428571426 -2.9681828571428572 -0.6109714285714285 -0.6509142857142857 -0.9884571428571428 -0.37731428571428566 -2.317371428571428 0.6111085714285714 -2.9681142857142855l3.904765714285714 -2.5715657142857142Zm22.627371428571426 4.8971657142857135 -1.1681142857142857 -4.52712C33.31196571428571 34.6656 32.57142857142857 36.103542857142855 32.57142857142857 37.714285714285715c0 2.8402285714285713 2.302628571428571 5.142857142857142 5.142857142857142 5.142857142857142s5.142857142857142 -2.302628571428571 5.142857142857142 -5.142857142857142c0 -2.530971428571428 -1.8284571428571428 -4.635051428571429 -4.236342857142857 -5.063245714285714l1.1684571428571429 4.527702857142857c0.2955428571428571 1.1461714285714284 -0.39359999999999995 2.3146285714285715 -1.5394285714285714 2.6105142857142853 -1.1461714285714284 0.2955428571428571 -2.3146285714285715 -0.39359999999999995 -2.6105142857142853 -1.5394285714285714Z" clip-rule="evenodd" stroke-width="3.4286"></path>
  </g>
</svg>