<svg xmlns="http://www.w3.org/2000/svg" fill="none" viewBox="0 0 48 48" id="Bill-4--Streamline-Core-Remix" height="48" width="48">
  <desc>
    Bill 4 Streamline Icon: https://streamlinehq.com
  </desc>
  <g id="Free Remix/Money Shopping/bill-4--accounting-billing-payment-finance-cash-currency-money-bill-dollar-stack">
    <path id="Union" fill="#000000" fill-rule="evenodd" d="M5.606571428571429 7.7142857142857135c-0.7690285714285714 0 -1.2857142857142856 0.5899199999999999 -1.2857142857142856 1.18776v22.481622857142856c0 0.5978399999999999 0.5166514285714285 1.18776 1.2857142857142856 1.18776h29.14302857142857c0.7690285714285714 0 1.2857142857142856 -0.5899199999999999 1.2857142857142856 -1.18776V8.902045714285713c0 -0.5978399999999999 -0.5166857142857143 -1.18776 -1.2857142857142856 -1.18776H5.606571428571429Zm-5.5714152 1.18776C0.03515622857142857 5.820994285714285 2.5885474285714287 3.4285714285714284 5.606571428571429 3.4285714285714284h29.14302857142857c3.0178285714285713 0 5.571428571428571 2.392422857142857 5.571428571428571 5.4734742857142855V11.142857142857142h2.108228571428571c3.0181714285714283 0 5.571428571428571 2.392422857142857 5.571428571428571 5.4734742857142855v22.481725714285712c0 3.0809142857142855 -2.553257142857143 5.473371428571428 -5.571428571428571 5.473371428571428h-29.142857142857142c-3.0180342857142857 0 -5.571428571428571 -2.392457142857143 -5.571428571428571 -5.473371428571428V36.857142857142854h-2.1084c-3.0180205714285715 0 -5.5714152 -2.392457142857143 -5.5714152 -5.4734742857142855V8.902045714285713ZM6.54912 20.142857142857142c0 1.6568571428571428 1.343142857142857 3 3 3h0.00013714285714285713c1.6568571428571428 0 3 -1.343142857142857 3 -3S11.206114285714285 17.142857142857142 9.549257142857142 17.142857142857142h-0.00013714285714285713c-1.6568571428571428 0 -3 1.343142857142857 -3 3Zm21.257794285714287 0c0 1.6568571428571428 1.343142857142857 3 3 3h0.00017142857142857143c1.6568571428571428 0 3 -1.343142857142857 3 -3S32.463942857142854 17.142857142857142 30.807085714285712 17.142857142857142h-0.00017142857142857143c-1.6568571428571428 0 -3 1.343142857142857 -3 3Zm-7.628914285714285 -5.142857142857142c-2.840297142857143 0 -5.142857142857142 2.3025257142857143 -5.142857142857142 5.142857142857142s2.3025599999999997 5.142857142857142 5.142857142857142 5.142857142857142c2.8403314285714285 0 5.142857142857142 -2.3025257142857143 5.142857142857142 -5.142857142857142s-2.3025257142857143 -5.142857142857142 -5.142857142857142 -5.142857142857142Z" clip-rule="evenodd" stroke-width="3.4286"></path>
  </g>
</svg>