<svg xmlns="http://www.w3.org/2000/svg" fill="none" viewBox="0 0 48 48" id="Bill-2--Streamline-Core-Remix" height="48" width="48">
  <desc>
    Bill 2 Streamline Icon: https://streamlinehq.com
  </desc>
  <g id="Free Remix/Money Shopping/bill-2--currency-billing-payment-finance-cash-bill-money-accounting">
    <path id="Union" fill="#000000" fill-rule="evenodd" d="M4.285714285714286 10.285714285714285c0 -0.7100914285714285 0.5756228571428571 -1.2857142857142856 1.2857142857142856 -1.2857142857142856h36.857142857142854c0.7100571428571428 0 1.2857142857142856 0.5756228571428571 1.2857142857142856 1.2857142857142856v27.428571428571427c0 0.7100571428571428 -0.5756571428571428 1.2857142857142856 -1.2857142857142856 1.2857142857142856H5.571428571428571c-0.7100914285714285 0 -1.2857142857142856 -0.5756571428571428 -1.2857142857142856 -1.2857142857142856V10.285714285714285Zm1.2857142857142856 -5.571428571428571C2.494412571428571 4.714285714285714 0 7.208708571428571 0 10.285714285714285v27.428571428571427c0 3.077142857142857 2.494412571428571 5.571428571428571 5.571428571428571 5.571428571428571h36.857142857142854c3.077142857142857 0 5.571428571428571 -2.494285714285714 5.571428571428571 -5.571428571428571V10.285714285714285c0 -3.0770057142857143 -2.494285714285714 -5.571428571428571 -5.571428571428571 -5.571428571428571H5.571428571428571ZM30.857142857142854 24c0 3.7870971428571427 -3.070045714285714 6.857142857142857 -6.857142857142857 6.857142857142857s-6.857142857142857 -3.070045714285714 -6.857142857142857 -6.857142857142857 3.070045714285714 -6.857142857142857 6.857142857142857 -6.857142857142857 6.857142857142857 3.070045714285714 6.857142857142857 6.857142857142857ZM10.371085714285714 27.428571428571427c-1.8935314285714284 0 -3.4285714285714284 -1.53504 -3.4285714285714284 -3.4285714285714284s1.53504 -3.4285714285714284 3.4285714285714284 -3.4285714285714284h0.00010285714285714286c1.893565714285714 0 3.4285714285714284 1.53504 3.4285714285714284 3.4285714285714284s-1.535005714285714 3.4285714285714284 -3.4285714285714284 3.4285714285714284H10.371085714285714Zm27.25782857142857 0c-1.8936 0 -3.4285714285714284 -1.53504 -3.4285714285714284 -3.4285714285714284s1.5349714285714284 -3.4285714285714284 3.4285714285714284 -3.4285714285714284 3.4285714285714284 1.53504 3.4285714285714284 3.4285714285714284 -1.5349714285714284 3.4285714285714284 -3.4285714285714284 3.4285714285714284Z" clip-rule="evenodd" stroke-width="3.4286"></path>
  </g>
</svg>