<svg xmlns="http://www.w3.org/2000/svg" fill="none" viewBox="0 0 48 48" id="Bill-Cashless--Streamline-Core-Remix" height="48" width="48">
  <desc>
    Bill Cashless Streamline Icon: https://streamlinehq.com
  </desc>
  <g id="Free Remix/Money Shopping/bill-cashless--currency-billing-payment-finance-no-cash-bill-money-accounting-cashless">
    <path id="Union" fill="#000000" fill-rule="evenodd" d="M3.65808 0.6276274285714285c-0.8368319999999999 -0.8368367999999999 -2.193613714285714 -0.8368367999999999 -3.030452571428571 0 -0.8368367999999999 0.8368388571428571 -0.8368367999999999 2.1936205714285713 0 3.030452571428571L44.342057142857136 47.37222857142857c0.8365714285714285 0.8369142857142857 2.1936 0.8369142857142857 3.0301714285714283 0 0.8369142857142857 -0.8365714285714285 0.8369142857142857 -2.1936 0 -3.0301714285714283l-3.087085714285714 -3.087428571428571C46.44925714285714 40.49005714285714 48 38.42605714285714 48 36V12.428571428571427C48 9.351565714285714 45.505714285714284 6.857142857142857 42.42857142857142 6.857142857142857H9.887588571428571L3.65808 0.6276274285714285ZM19.646022857142857 16.61557714285714l11.7384 11.7384C32.13809142857142 27.078 32.57142857142857 25.58886857142857 32.57142857142857 24c0 -4.733862857142857 -3.837565714285714 -8.571428571428571 -8.571428571428571 -8.571428571428571 -1.5888685714285713 0 -3.078 0.43333714285714287 -4.3539771428571425 1.1870057142857142ZM2.142857142857143 11.571428571428571c1.1834674285714284 0 2.142857142857143 0.9593828571428571 2.142857142857143 2.142857142857143v21.857142857142858c0 0.7100571428571428 0.5756228571428571 1.2857142857142856 1.2857142857142856 1.2857142857142856h21.428571428571427c1.1834742857142857 0 2.142857142857143 0.9593142857142857 2.142857142857143 2.142857142857143S28.183474285714283 41.14285714285714 27 41.14285714285714h-21.428571428571427C2.494412571428571 41.14285714285714 0 38.64857142857143 0 35.57142857142857V13.714285714285714c0 -1.1834742857142857 0.9593897142857143 -2.142857142857143 2.142857142857143 -2.142857142857143Z" clip-rule="evenodd" stroke-width="3.4286"></path>
  </g>
</svg>