<svg xmlns="http://www.w3.org/2000/svg" fill="none" viewBox="0 0 48 48" id="Binance-Circle--Streamline-Core-Remix" height="48" width="48">
  <desc>
    Binance Circle Streamline Icon: https://streamlinehq.com
  </desc>
  <g id="Free Remix/Money Shopping/binance-circle--crypto-circle-payment-blockchain-finance-binance-currency">
    <path id="Union" fill="#000000" fill-rule="evenodd" d="M4.282354285714286 24.00342857142857c0 -10.889794285714286 8.827919999999999 -19.717714285714287 19.717714285714287 -19.717714285714287 10.889759999999999 0 19.717645714285712 8.827919999999999 19.717645714285712 19.717714285714287 0 10.889828571428572 -8.827885714285715 19.717714285714287 -19.717645714285712 19.717714285714287 -10.889794285714286 0 -19.717714285714287 -8.827885714285715 -19.717714285714287 -19.717714285714287ZM24.00006857142857 0C10.74336 0 -0.0033482125714285713 10.746685714285714 -0.0033482125714285713 24.00342857142857c0 13.256571428571426 10.746708212571429 24.00342857142857 24.003416784 24.00342857142857 13.256845714285713 0 24.00336 -10.746857142857143 24.00336 -24.00342857142857C48.003428571428564 10.746685714285714 37.25691428571428 0 24.00006857142857 0Zm-1.3278857142857141 8.175257142857143c0.7785257142857143 -0.61464 1.8771085714285713 -0.61464 2.6556342857142856 0l8.142857142857142 6.428571428571428c0.9288685714285714 0.7333371428571428 1.0872685714285715 2.0808 0.3540685714285714 3.009702857142857 -0.7333371428571428 0.9288685714285714 -2.0808 1.0874057142857143 -3.009702857142857 0.3540685714285714L24 12.587314285714285 17.184959999999997 17.967599999999997c-0.9289028571428571 0.7333371428571428 -2.276365714285714 0.5748 -3.009702857142857 -0.3540685714285714 -0.7333371428571428 -0.9289028571428571 -0.5748 -2.276365714285714 0.3540685714285714 -3.009702857142857l8.142857142857142 -6.428571428571428ZM14.175257142857143 30.38646857142857c0.7333371428571428 -0.9288685714285714 2.0808 -1.0874057142857143 3.009702857142857 -0.3540685714285714L24 35.41268571428571l6.81504 -5.380285714285714c0.9289028571428571 -0.7333371428571428 2.276365714285714 -0.5748 3.009702857142857 0.3540685714285714 0.7332 0.9289028571428571 0.5748 2.276365714285714 -0.3540685714285714 3.009702857142857l-8.142857142857142 6.428742857142857c-0.7785257142857143 0.6144 -1.8771085714285713 0.6144 -2.6556342857142856 0l-8.142857142857142 -6.428742857142857c-0.9288685714285714 -0.7333371428571428 -1.0874057142857143 -2.0808 -0.3540685714285714 -3.009702857142857ZM24 27c-1.6568571428571428 0 -3 -1.343142857142857 -3 -3s1.343142857142857 -3 3 -3 3 1.343142857142857 3 3 -1.343142857142857 3 -3 3Zm-10.971257142857143 0c-1.6568571428571428 0 -3 -1.343142857142857 -3 -3s1.343142857142857 -3 3 -3 3 1.343142857142857 3 3 -1.343142857142857 3 -3 3Zm21.942685714285712 0c-1.6570285714285713 0 -3.0001714285714285 -1.343142857142857 -3.0001714285714285 -3s1.343142857142857 -3 3.0001714285714285 -3c1.6566857142857143 0 3 1.343142857142857 3 3s-1.3433142857142857 3 -3 3Z" clip-rule="evenodd" stroke-width="3.4286"></path>
  </g>
</svg>