<svg xmlns="http://www.w3.org/2000/svg" fill="none" viewBox="0 0 48 48" id="Bitcoin--Streamline-Core-Remix" height="48" width="48">
  <desc>
    Bitcoin Streamline Icon: https://streamlinehq.com
  </desc>
  <g id="Free Remix/Money Shopping/bitcoin--crypto-circle-payment-blokchain-finance-bitcoin-money-currency">
    <path id="Union" fill="#000000" fill-rule="evenodd" d="M19.285714285714285 2.142857142857143C19.285714285714285 0.9593897142857143 18.32633142857143 0 17.142857142857142 0s-2.142857142857143 0.9593897142857143 -2.142857142857143 2.142857142857143v3.016251428571428c-2.8767771428571427 0.21881142857142857 -5.142857142857142 2.6223771428571427 -5.142857142857142 5.555177142857143v26.57142857142857c0 2.9328 2.2660799999999997 5.336228571428571 5.142857142857142 5.555314285714286v3.0161142857142855c0 1.183542857142857 0.9593828571428571 2.142857142857143 2.142857142857143 2.142857142857143s2.142857142857143 -0.9593142857142857 2.142857142857143 -2.142857142857143V42.857142857142854h6v3c0 1.183542857142857 0.9593828571428571 2.142857142857143 2.142857142857143 2.142857142857143s2.142857142857143 -0.9593142857142857 2.142857142857143 -2.142857142857143v-3.176571428571428c4.877828571428571 -0.9058285714285713 8.571428571428571 -5.183314285714285 8.571428571428571 -10.323428571428572 0 -3.82008 -2.0399999999999996 -7.1637257142857145 -5.090091428571428 -9.000857142857141 2.0760342857142855 -1.9182857142857141 3.375805714285714 -4.664057142857143 3.375805714285714 -7.7134285714285715 0 -4.518205714285714 -2.8537714285714286 -8.369862857142856 -6.857142857142857 -9.85086857142857V2.142857142857143C29.57142857142857 0.9593897142857143 28.61204571428571 0 27.428571428571427 0s-2.142857142857143 0.9593897142857143 -2.142857142857143 2.142857142857143V5.142857142857142h-6V2.142857142857143Zm6.642857142857142 19.71428571428571c3.4320685714285712 0 6.2142857142857135 -2.7822171428571427 6.2142857142857135 -6.2142857142857135S29.36064 9.428571428571429 25.928571428571427 9.428571428571429H15.428571428571427c-0.7100914285714285 0 -1.2857142857142856 0.5756228571428571 -1.2857142857142856 1.2857142857142856v11.142857142857142h11.785714285714285ZM27.428571428571427 38.57142857142857h0.21428571428571427c3.4320685714285712 0 6.2142857142857135 -2.782285714285714 6.2142857142857135 -6.2142857142857135 0 -3.4320685714285712 -2.7822171428571427 -6.2142857142857135 -6.2142857142857135 -6.2142857142857135H14.142857142857142v11.142857142857142c0 0.7100571428571428 0.5756228571428571 1.2857142857142856 1.2857142857142856 1.2857142857142856H27.428571428571427Z" clip-rule="evenodd" stroke-width="3.4286"></path>
  </g>
</svg>