<svg xmlns="http://www.w3.org/2000/svg" fill="none" viewBox="0 0 48 48" id="Blank-Notepad--Streamline-Core-Remix" height="48" width="48">
  <desc>
    Blank Notepad Streamline Icon: https://streamlinehq.com
  </desc>
  <g id="Free Remix/Interface Essential/blank-notepad--content-notes-book-notepad-notebook">
    <path id="Union" fill="#000000" fill-rule="evenodd" d="M15.428571428571427 2.571428571428571C15.428571428571427 1.1512662857142855 14.277291428571427 0 12.857142857142856 0S10.285714285714285 1.1512662857142855 10.285714285714285 2.571428571428571v3H6.857142857142857c-3.0770057142857143 0 -5.571428571428571 2.494422857142857 -5.571428571428571 5.571428571428571v31.285714285714285C1.2857142857142856 45.505714285714284 3.780137142857143 48 6.857142857142857 48h34.285714285714285c3.077142857142857 0 5.571428571428571 -2.494285714285714 5.571428571428571 -5.571428571428571V11.142857142857142c0 -3.0770057142857143 -2.494285714285714 -5.571428571428571 -5.571428571428571 -5.571428571428571h-3.4285714285714284V2.571428571428571c0 -1.4201622857142857 -1.1513142857142855 -2.571428571428571 -2.571428571428571 -2.571428571428571 -1.4201485714285715 0 -2.571428571428571 1.1512662857142855 -2.571428571428571 2.571428571428571v3H26.57142857142857V2.571428571428571C26.57142857142857 1.1512662857142855 25.42014857142857 0 24 0s-2.571428571428571 1.1512662857142855 -2.571428571428571 2.571428571428571v3H15.428571428571427V2.571428571428571Zm17.142857142857142 7.285714285714286H26.57142857142857v3c0 1.4201485714285715 -1.1512799999999999 2.571428571428571 -2.571428571428571 2.571428571428571s-2.571428571428571 -1.1512799999999999 -2.571428571428571 -2.571428571428571v-3H15.428571428571427v3c0 1.4201485714285715 -1.1512799999999999 2.571428571428571 -2.571428571428571 2.571428571428571S10.285714285714285 14.277291428571427 10.285714285714285 12.857142857142856v-3H6.857142857142857c-0.7100914285714285 0 -1.2857142857142856 0.5756228571428571 -1.2857142857142856 1.2857142857142856v31.285714285714285c0 0.7100571428571428 0.5756228571428571 1.2857142857142856 1.2857142857142856 1.2857142857142856h34.285714285714285c0.7100571428571428 0 1.2857142857142856 -0.5756571428571428 1.2857142857142856 -1.2857142857142856V11.142857142857142c0 -0.7100914285714285 -0.5756571428571428 -1.2857142857142856 -1.2857142857142856 -1.2857142857142856h-3.4285714285714284v3c0 1.4201485714285715 -1.1513142857142855 2.571428571428571 -2.571428571428571 2.571428571428571 -1.4201485714285715 0 -2.571428571428571 -1.1512799999999999 -2.571428571428571 -2.571428571428571v-3Z" clip-rule="evenodd" stroke-width="3.4286"></path>
  </g>
</svg>