<svg xmlns="http://www.w3.org/2000/svg" fill="none" viewBox="0 0 48 48" id="Block-Bell-Notification--Streamline-Core-Remix" height="48" width="48">
  <desc>
    Block Bell Notification Streamline Icon: https://streamlinehq.com
  </desc>
  <g id="Free Remix/Interface Essential/block-bell-notification--notification-alarm-alert-bell-block">
    <path id="Union" fill="#000000" fill-rule="evenodd" d="M43.714285714285715 13.285714285714285c0 -4.970571428571429 -4.029599999999999 -9 -9 -9 -1.7084914285714283 0 -3.30576 0.47605714285714285 -4.666457142857143 1.3027542857142855L42.411428571428566 17.952171428571425c0.8269714285714285 -1.3606971428571428 1.3028571428571427 -2.957965714285714 1.3028571428571427 -4.666457142857143Zm0.5478857142857142 9.238354285714285C46.57611428571428 20.133154285714284 48 16.87573714285714 48 13.285714285714285 48 5.948228571428571 42.05177142857143 0 34.714285714285715 0 31.124262857142853 0 27.86684571428571 1.4239097142857142 25.47593142857143 3.7377599999999997c-0.05598857142857143 0.04570285714285714 -0.11022857142857141 0.09462857142857142 -0.16241142857142857 0.14684571428571427 -0.052182857142857135 0.052182857142857135 -0.10110857142857142 0.10638857142857142 -0.14677714285714286 0.16234285714285715C22.85262857142857 6.4378971428571425 21.428571428571427 9.695485714285715 21.428571428571427 13.285714285714285c0 7.337485714285713 5.948228571428571 13.285714285714285 13.285714285714285 13.285714285714285 3.5900571428571424 0 6.847885714285714 -1.4240571428571427 9.23862857142857 -3.7381714285714285 0.05622857142857143 -0.045668571428571426 0.1104 -0.09459428571428571 0.1625142857142857 -0.14677714285714286 0.05211428571428571 -0.052182857142857135 0.10114285714285713 -0.10642285714285714 0.14674285714285712 -0.16241142857142857Zm-4.880914285714286 -1.5413485714285713L27.01728 8.618845714285714C26.190445714285715 9.979611428571427 25.71428571428571 11.577051428571428 25.71428571428571 13.285714285714285 25.71428571428571 18.256285714285713 29.743714285714283 22.285714285714285 34.714285714285715 22.285714285714285c1.7087999999999999 0 3.3061714285714285 -0.47615999999999997 4.666971428571428 -1.3029942857142855ZM15 45.42857142857142c0 -1.4201142857142857 1.1512799999999999 -2.571428571428571 2.571428571428571 -2.571428571428571h6.857142857142857c1.4201485714285715 0 2.571428571428571 1.1513142857142855 2.571428571428571 2.571428571428571s-1.1512799999999999 2.571428571428571 -2.571428571428571 2.571428571428571h-6.857142857142857c-1.4201485714285715 0 -2.571428571428571 -1.1513142857142855 -2.571428571428571 -2.571428571428571Zm1.2990857142857142 -35.430617142857145c1.0814057142857143 -0.48075428571428575 1.5683314285714285 -1.7471657142857142 1.087542857142857 -2.8285714285714283 -0.48075428571428575 -1.0814057142857143 -1.7471657142857142 -1.5683314285714285 -2.8285714285714283 -1.087542857142857 -1.7610857142857144 0.7829485714285714 -3.3815999999999997 1.8878057142857143 -4.770754285714285 3.27696C6.813531428571428 12.332605714285714 5.142857142857142 16.36590857142857 5.142857142857142 20.571497142857144v11.142857142857142c0 0.7956342857142856 -0.31607999999999997 1.5586971428571428 -0.8786742857142857 2.1213257142857143 -0.5626285714285714 0.5624914285714285 -1.3256742857142858 0.8786057142857142 -2.1213257142857143 0.8786057142857142 -1.1834674285714284 0 -2.142857142857143 0.9593142857142857 -2.142857142857143 2.142857142857143s0.9593897142857143 2.142857142857143 2.142857142857143 2.142857142857143h37.714285714285715c1.183542857142857 0 2.142857142857143 -0.9593142857142857 2.142857142857143 -2.142857142857143s-0.9593142857142857 -2.142857142857143 -2.142857142857143 -2.142857142857143c-0.7957714285714286 0 -1.5586285714285713 -0.31611428571428574 -2.121257142857143 -0.8786057142857142 -0.44331428571428566 -0.44331428571428566 -0.7337142857142857 -1.01112 -0.8369142857142857 -1.6213714285714285 -0.19714285714285715 -1.1669142857142856 -1.3028571428571427 -1.9529828571428571 -2.469942857142857 -1.7557714285714285 -1.16688 0.19724571428571427 -1.9529485714285713 1.303097142857143 -1.7557371428571429 2.470011428571428 0.10443428571428572 0.6179657142857143 0.28793142857142856 1.2180342857142856 0.5444571428571429 1.7857371428571427H8.782251428571428c0.4219885714285714 -0.9338742857142857 0.64632 -1.9553485714285712 0.64632 -2.9999314285714282v-11.142857142857142c0 -3.068948571428571 1.2191314285714285 -6.012171428571428 3.3891771428571427 -8.182251428571428 1.01376 -1.0137257142857141 2.1961028571428574 -1.8198857142857143 3.481337142857143 -2.3912914285714284Z" clip-rule="evenodd" stroke-width="3.4286"></path>
  </g>
</svg>