<svg xmlns="http://www.w3.org/2000/svg" fill="none" viewBox="0 0 48 48" id="Blood-Drop-Donation--Streamline-Core-Remix" height="48" width="48">
  <desc>
    Blood Drop Donation Streamline Icon: https://streamlinehq.com
  </desc>
  <g id="Free Remix/Health/blood-drop-donation">
    <path id="Union" fill="#000000" fill-rule="evenodd" d="m23.999177142857143 2.142857142857143 1.0939542857142857 -1.842592457142857c-0.6743657142857142 -0.4003529142857143 -1.513542857142857 -0.4003529142857143 -2.1878742857142854 0L23.999177142857143 2.142857142857143ZM22.380342857142853 5.831691428571428c0.6319542857142857 -0.46556571428571425 1.1819657142857143 -0.8478514285714286 1.6188342857142857 -1.1416114285714285 0.4369028571428571 0.29376 0.9869142857142856 0.6760457142857142 1.6188685714285713 1.1416114285714285 1.6670399999999999 1.2280457142857142 3.8852914285714286 3.021565714285714 6.096411428571428 5.282777142857142 4.478228571428571 4.5797485714285715 8.636742857142856 10.775999999999998 8.636742857142856 17.875474285714287 0 8.7432 -8.050251428571427 14.724342857142856 -16.352022857142856 14.724342857142856 -8.301737142857142 0 -16.351851428571425 -5.981142857142856 -16.351851428571425 -14.724342857142856 0 -7.099474285714285 4.158308571428571 -13.295725714285714 8.636605714285714 -17.875474285714287 2.2111199999999998 -2.2612114285714284 4.429371428571429 -4.054731428571428 6.096411428571428 -5.282777142857142ZM23.999177142857143 2.142857142857143C22.905257142857142 0.30026468571428566 22.90460571428571 0.30064594285714286 22.90392 0.30106937142857143l-0.0017828571428571427 0.0010584 -0.004834285714285714 0.002878285714285714 -0.014674285714285713 0.008791542857142856 -0.04909714285714285 0.02966982857142857c-0.041382857142857145 0.025124571428571427 -0.09980571428571428 0.06092914285714285 -0.17420571428571427 0.10722514285714287 -0.14876571428571428 0.09257485714285714 -0.36144 0.22719085714285714 -0.6289028571428571 0.4023771428571429 -0.53472 0.35021142857142856 -1.2898285714285713 0.8634994285714286 -2.191988571428571 1.5281074285714284 -1.8007199999999997 1.3265485714285712 -4.206137142857143 3.2697599999999998 -6.61872 5.73696C8.450674285714285 12.995211428571428 3.361608 20.222502857142857 3.361608 28.989942857142854 3.361608 40.75817142857143 14.047302857142856 48 23.999177142857143 48c9.95190857142857 0 20.63773714285714 -7.241828571428571 20.63773714285714 -19.010057142857143 0 -8.76744 -5.089371428571428 -15.994731428571429 -9.85817142857143 -20.871805714285713 -2.4126514285714284 -2.4672 -4.818068571428571 -4.410411428571428 -6.618788571428571 -5.73696 -0.9021599999999999 -0.664608 -1.6572685714285713 -1.1778959999999998 -2.191988571428571 -1.5281074285714284 -0.2674628571428571 -0.1751862857142857 -0.4801371428571428 -0.3098022857142857 -0.6289028571428571 -0.4023771428571429 -0.0744 -0.046296 -0.13285714285714284 -0.08210057142857143 -0.17420571428571427 -0.10722514285714287L25.115759999999998 0.3137976 25.101085714285713 0.3050060571428571 25.096251428571428 0.3021277714285714 25.094468571428568 0.30106937142857143C25.093782857142855 0.30064594285714286 25.09313142857143 0.30026468571428566 23.999177142857143 2.142857142857143ZM19.994777142857142 19.67622857142857c0 -0.6890742857142856 0.5585828571428572 -1.2476571428571428 1.2476228571428571 -1.2476571428571428h5.5152c0.68904 0 1.2476228571428571 0.5585828571428572 1.2476228571428571 1.2476571428571428v4.604297142857142H32.60948571428572c0.6890742857142856 0 1.2476571428571428 0.5586171428571428 1.2476571428571428 1.2476571428571428v5.5152c0 0.68904 -0.5585828571428572 1.2476228571428571 -1.2476571428571428 1.2476228571428571H28.005222857142854v4.604194285714285c0 0.6891428571428572 -0.5585828571428572 1.2476571428571428 -1.2476228571428571 1.2476571428571428H21.2424c-0.68904 0 -1.2476228571428571 -0.5585142857142856 -1.2476228571428571 -1.2476571428571428V32.29100571428571H15.390514285714286c-0.6890742857142856 0 -1.2476571428571428 -0.5585828571428572 -1.2476571428571428 -1.2476228571428571v-5.5152c0 -0.68904 0.5585828571428572 -1.2476571428571428 1.2476571428571428 -1.2476571428571428h4.604262857142857V19.67622857142857Z" clip-rule="evenodd" stroke-width="3.4286"></path>
  </g>
</svg>