<svg xmlns="http://www.w3.org/2000/svg" fill="none" viewBox="0 0 48 48" id="Blood-Bag-Donation--Streamline-Core-Remix" height="48" width="48">
  <desc>
    Blood Bag Donation Streamline Icon: https://streamlinehq.com
  </desc>
  <g id="Free Remix/Health/blood-bag-donation">
    <path id="Union" fill="#000000" fill-rule="evenodd" d="M12.23142857142857 4.285714285714286c-2.5307999999999997 0 -4.582422857142857 2.0516228571428567 -4.582422857142857 4.582422857142857v16.26750857142857c0 3.4197942857142856 2.188285714285714 6.455897142857142 5.432605714285715 7.537337142857142l3.19008 1.0633714285714284c0.8750057142857142 0.29166857142857144 1.4651999999999998 1.1106171428571427 1.4651999999999998 2.0329028571428567v1.6813714285714285c0 0.6737142857142857 0.5461371428571428 1.219542857142857 1.219782857142857 1.219542857142857h5.019702857142857l0.023622857142857143 0 0.023622857142857143 0h5.020971428571428c0.67368 0 1.219782857142857 -0.5458285714285714 1.219782857142857 -1.219542857142857v-1.6813714285714285c0 -0.9222857142857143 0.5901942857142857 -1.7412342857142855 1.4652342857142857 -2.0329028571428567l3.190045714285714 -1.0633714285714284c3.2444571428571427 -1.08144 5.432571428571428 -4.1175428571428565 5.432571428571428 -7.537337142857142V8.868137142857142c0 -2.5307999999999997 -2.051657142857143 -4.582422857142857 -4.582285714285714 -4.582422857142857H12.23142857142857Zm6.725245714285714 38.67017142857143H21.857142857142858v2.9012571428571423c0 1.1832 0.9593828571428571 2.142857142857143 2.142857142857143 2.142857142857143s2.142857142857143 -0.9596571428571428 2.142857142857143 -2.142857142857143v-2.9012571428571423h2.901737142857143c3.0405942857142856 0 5.505462857142857 -2.4648 5.505462857142857 -5.505257142857142v-0.13679999999999998l1.7249142857142856 -0.5749714285714285c4.9944 -1.6649142857142856 8.362971428571429 -6.338742857142857 8.362971428571429 -11.603211428571427V8.868137142857142C44.63794285714285 3.970388571428571 40.66765714285714 0 35.76994285714286 0H12.23142857142857C7.33368 0 3.3632811428571427 3.970388571428571 3.3632811428571427 8.868137142857142v16.26750857142857c0 5.264468571428571 3.368718857142857 9.938297142857143 8.363050285714285 11.603211428571427l1.724845714285714 0.5749714285714285v0.13679999999999998c0 3.040457142857143 2.464902857142857 5.505257142857142 5.505497142857142 5.505257142857142Zm6.436457142857142 -34.84772571428571L24 9.107142857142856l-1.3931314285714287 -0.9989828571428572c0.3219771428571428 -0.44900571428571423 0.8406171428571428 -0.7153028571428571 1.3931314285714287 -0.7153028571428571 0.5525142857142856 0 1.0711542857142855 0.26629714285714284 1.3931314285714287 0.7153028571428571ZM24 9.107142857142856c-1.3931314285714287 -0.9989828571428572 -1.3932685714285713 -0.9988114285714286 -1.3934057142857141 -0.9986057142857143l-0.00041142857142857143 0.0005828571428571429 -0.001337142857142857 0.0018514285714285714 -0.004457142857142857 0.006274285714285714 -0.016251428571428573 0.022765714285714285 -0.06058285714285715 0.08533714285714285c-0.05242285714285714 0.07409142857142857 -0.1284 0.18202285714285713 -0.22460571428571427 0.32002285714285716 -0.19234285714285712 0.27599999999999997 -0.46577142857142856 0.6727542857142857 -0.7933371428571429 1.1602971428571427 -0.6541028571428571 0.9735771428571428 -1.5289371428571428 2.316582857142857 -2.406377142857143 3.787371428571428 -0.87408 1.4651314285714285 -1.768765714285714 3.0870171428571425 -2.450262857142857 4.613177142857142C15.99678857142857 19.566754285714286 15.428571428571427 21.175885714285716 15.428571428571427 22.532262857142857c0 2.3276571428571424 0.8865942857142857 4.573508571428571 2.4857485714285716 6.2401028571428565 1.6014857142857142 1.6690285714285713 3.7890171428571424 2.6204914285714285 6.08568 2.6204914285714285 2.296662857142857 0 4.484194285714286 -0.951462857142857 6.08568 -2.6204914285714285C31.68486857142857 27.105771428571426 32.57142857142857 24.85992 32.57142857142857 22.532262857142857c0 -1.356377142857143 -0.5682171428571428 -2.9655085714285714 -1.2204 -4.4260457142857135 -0.6814971428571428 -1.52616 -1.576182857142857 -3.148045714285714 -2.450262857142857 -4.613177142857142 -0.8774399999999999 -1.4707885714285713 -1.7522742857142855 -2.8137942857142857 -2.406377142857143 -3.787371428571428 -0.3275657142857143 -0.4875428571428571 -0.6009942857142857 -0.8842971428571428 -0.7933371428571429 -1.1602971428571427 -0.09620571428571428 -0.13799999999999998 -0.17218285714285714 -0.24593142857142858 -0.22460571428571427 -0.32002285714285716l-0.06058285714285715 -0.08533714285714285 -0.016251428571428573 -0.022765714285714285 -0.004457142857142857 -0.006274285714285714 -0.001337142857142857 -0.0018514285714285714 -0.00041142857142857143 -0.0005828571428571429c-0.00013714285714285713 -0.00020571428571428572 -0.00027428571428571427 -0.00037714285714285714 -1.3934057142857141 0.9986057142857143Z" clip-rule="evenodd" stroke-width="3.4286"></path>
  </g>
</svg>