<svg xmlns="http://www.w3.org/2000/svg" fill="none" viewBox="0 0 48 48" id="Blood-Donate-Drop--Streamline-Core-Remix" height="48" width="48">
  <desc>
    Blood Donate Drop Streamline Icon: https://streamlinehq.com
  </desc>
  <g id="Free Remix/Health/blood-donate-drop">
    <path id="Union" fill="#000000" fill-rule="evenodd" d="m23.999451428571426 1.7142857142857142 1.3931314285714287 -0.9989691428571429C25.070605714285712 0.266304 24.551965714285714 0 23.999451428571426 0c-0.5525142857142856 0 -1.0711885714285714 0.266304 -1.3931657142857141 0.7153165714285713L23.999451428571426 1.7142857142857142Zm0 0c1.3931314285714287 -0.9989691428571429 1.3932685714285713 -0.9987942857142856 1.3934057142857141 -0.9985817142857142l0.00047999999999999996 0.0006445714285714285 0.0014399999999999999 0.002050285714285714 0.0051085714285714285 0.0071348571428571424 0.018719999999999997 0.02621142857142857 0.07011428571428571 0.09879085714285714c0.06078857142857142 0.08592 0.14904 0.21128571428571427 0.26088 0.3717325714285714 0.22357714285714286 0.3208182857142857 0.5416799999999999 0.7823451428571429 0.9228 1.3496434285714285 0.7612457142857143 1.1330708571428572 1.7789142857142857 2.6954022857142856 2.799257142857143 4.405642285714285 1.0169142857142857 1.704582857142857 2.054468571428571 3.586045714285714 2.843108571428571 5.352137142857143 0.7593257142857143 1.7004685714285714 1.39896 3.5299199999999997 1.39896 5.047234285714286 0 2.6435314285714284 -1.0069714285714286 5.192331428571428 -2.82048 7.082297142857142C29.077439999999996 26.351622857142853 26.599199999999996 27.428571428571427 23.999451428571426 27.428571428571427c-2.599782857142857 0 -5.078022857142857 -1.0769485714285714 -6.893828571428571 -2.9693485714285712 -1.8134742857142856 -1.889965714285714 -2.82048 -4.438765714285714 -2.82048 -7.082297142857142 0 -1.5173142857142856 0.6396685714285715 -3.346765714285714 1.3989942857142856 -5.047234285714286 0.7886057142857142 -1.7660914285714284 1.8261942857142857 -3.647554285714286 2.843108571428571 -5.352137142857143 1.0203085714285713 -1.7102399999999998 2.038011428571428 -3.2725714285714282 2.799222857142857 -4.405642285714285 0.3811542857142857 -0.5672982857142856 0.6992228571428571 -1.0288251428571429 0.9228342857142857 -1.3496434285714285 0.11180571428571429 -0.16044685714285714 0.20009142857142856 -0.2858125714285714 0.26088 -0.3717325714285714l0.07011428571428571 -0.09879085714285714 0.018685714285714285 -0.02621142857142857 0.0051085714285714285 -0.0071348571428571424 0.0014742857142857142 -0.002050285714285714 0.00044571428571428567 -0.0006445714285714285C22.606182857142855 0.7154914285714286 22.60628571428571 0.7153165714285713 23.999451428571426 1.7142857142857142Zm11.30832 22.845599999999997c0 -4.2786857142857135 3.468342857142857 -7.747234285714285 7.747199999999999 -7.747234285714285 2.7312 0 4.945028571428571 2.213965714285714 4.945028571428571 4.945028571428571v16.21477714285714c0 2.3869714285714285 -0.9483428571428572 4.675885714285713 -2.635885714285714 6.363771428571429l-3.0356571428571426 3.0356571428571426c-0.8369142857142857 0.8369142857142857 -2.1936 0.8369142857142857 -3.0305142857142857 0 -0.8369142857142857 -0.8369142857142857 -0.8369142857142857 -2.1936 0 -3.0305142857142857l3.0356571428571426 -3.0356571428571426c0.8838857142857142 -0.8838857142857142 1.3806857142857143 -2.0832 1.3806857142857143 -3.3332571428571427V21.757679999999997c0 -0.3641142857142857 -0.29519999999999996 -0.6593142857142856 -0.6593142857142856 -0.6593142857142856 -1.9117714285714285 0 -3.4614857142857143 1.549782857142857 -3.4614857142857143 3.4615199999999993v6.969051428571428c0.07234285714285714 0.06531428571428571 0.1433142857142857 0.13282285714285713 0.21291428571428572 0.20252571428571425 2.2296 2.2296685714285713 2.2296 5.844651428571428 0 8.074251428571428l-2.5220571428571428 2.5220571428571428c-0.8365714285714285 0.8369142857142857 -2.1936 0.8369142857142857 -3.0303428571428572 0 -0.8368457142857142 -0.8369142857142857 -0.8368457142857142 -2.1936 0 -3.0305142857142857l2.5218857142857143 -2.521714285714286c0.5561142857142857 -0.5561142857142857 0.5561142857142857 -1.457485714285714 0 -2.0136 -0.09668571428571428 -0.09702857142857142 -0.204 -0.17691428571428572 -0.31817142857142855 -0.24000000000000002l-0.03394285714285714 -0.01817142857142857c-0.5358857142857142 -0.2775428571428571 -1.2116571428571428 -0.19165714285714283 -1.661142857142857 0.25817142857142855L29.862754285714285 39.66171428571428c-0.22875428571428572 0.22868571428571427 -0.35725714285714283 0.5389714285714285 -0.35725714285714283 0.8622857142857142v5.332457142857142c0 1.183542857142857 -0.9593828571428571 2.142857142857143 -2.142857142857143 2.142857142857143s-2.142857142857143 -0.9593142857142857 -2.142857142857143 -2.142857142857143v-5.332457142857142c0 -1.4598857142857142 0.5800457142857143 -2.860457142857143 1.6125257142857143 -3.8928L31.732011428571425 31.731428571428573c0.9973714285714285 -0.9973371428571427 2.2719085714285714 -1.548582857142857 3.5757599999999994 -1.6536685714285715V24.559885714285713Zm-22.615474285714285 0c0 -4.2786857142857135 -3.4685485714285713 -7.747234285714285 -7.747234285714285 -7.747234285714285C2.2139759999999997 16.812651428571428 0 19.02661714285714 0 21.757679999999997v16.21477714285714c0 2.3869714285714285 0.9482125714285713 4.675885714285713 2.63604 6.363771428571429l3.0355371428571427 3.0356571428571426c0.8368457142857142 0.8369142857142857 2.1936342857142854 0.8369142857142857 3.03048 0 0.8368114285714285 -0.8369142857142857 0.8368114285714285 -2.1936 0 -3.0305142857142857l-3.0355542857142854 -3.0356571428571426c-0.8840914285714284 -0.8838857142857142 -1.3807885714285713 -2.0832 -1.3807885714285713 -3.3332571428571427V21.757679999999997c0 -0.3641142857142857 0.29519999999999996 -0.6593142857142856 0.6593485714285714 -0.6593142857142856 1.9117371428571428 0 3.4615199999999993 1.549782857142857 3.4615199999999993 3.4615199999999993v6.969462857142857c-0.07230857142857143 0.06531428571428571 -0.1433485714285714 0.13282285714285713 -0.21301714285714285 0.20252571428571425 -2.2297028571428568 2.2296685714285713 -2.2297028571428568 5.844582857142856 0 8.074525714285715l2.5219885714285715 2.521714285714286c0.8368114285714285 0.8369142857142857 2.1936 0.8369142857142857 3.030445714285714 0 0.8368457142857142 -0.8365714285714285 0.8368457142857142 -2.1936 0 -3.0301714285714283l-2.5219885714285715 -2.5220571428571428c-0.5560114285714286 -0.5561142857142857 -0.5560114285714286 -1.457485714285714 0 -2.0136 0.5560114285714286 -0.5559771428571428 1.457485714285714 -0.5559771428571428 2.0134971428571427 0l4.899737142857142 4.8997714285714284c0.22875428571428572 0.22868571428571427 0.35725714285714283 0.5389714285714285 0.35725714285714283 0.8626285714285713v5.332457142857142c0 1.1832 0.9593828571428571 2.142857142857143 2.142857142857143 2.142857142857143s2.142857142857143 -0.9596571428571428 2.142857142857143 -2.142857142857143v-5.332457142857142c0 -1.4602285714285714 -0.5800457142857143 -2.860457142857143 -1.6125257142857143 -3.893142857142857L16.26798857142857 31.731874285714284c-0.9973714285714285 -0.9973714285714285 -2.2719085714285714 -1.548617142857143 -3.5756914285714285 -1.653702857142857V24.559885714285713Z" clip-rule="evenodd" stroke-width="3.4286"></path>
  </g>
</svg>