<svg xmlns="http://www.w3.org/2000/svg" fill="none" viewBox="0 0 48 48" id="Bluetooth-Disabled--Streamline-Core-Remix" height="48" width="48">
  <desc>
    Bluetooth Disabled Streamline Icon: https://streamlinehq.com
  </desc>
  <g id="Free Remix/Computer Devices/bluetooth-disabled--bluetooth-internet-server-network-wireless-disabled-off-connection">
    <path id="Union" fill="#000000" fill-rule="evenodd" d="M21.305485714285712 0.18971794285714283c0.7678628571428571 -0.34651577142857143 1.6674857142857142 -0.21099901714285713 2.299165714285714 0.3463357714285714L37.20548571428571 12.536057142857143c0.4882285714285714 0.43086857142857143 0.7542857142857142 1.0604228571428571 0.722742857142857 1.7109257142857142 -0.03188571428571428 0.6504685714285714 -0.3576 1.2512914285714285 -0.8852571428571427 1.63272L26.516777142857144 23.48636571428571l20.855451428571428 20.85569142857143c0.8369142857142857 0.8365714285714285 0.8369142857142857 2.1936 0 3.0305142857142857 -0.8365714285714285 0.8365714285714285 -2.1936 0.8365714285714285 -3.0301714285714283 0L21.707897142857142 24.73841142857143c-0.00010285714285714286 -0.00010285714285714286 -0.00017142857142857143 -0.00020571428571428572 -0.00027428571428571427 -0.00030857142857142856l-1.0359085714285714 -1.0359085714285714L0.6276274285714285 3.658114285714286c-0.8368367999999999 -0.8368285714285714 -0.8368367999999999 -2.193613714285714 0 -3.030449142857143 0.8368388571428571 -0.8368385142857142 2.1936205714285713 -0.8368385142857142 3.030452571428571 0L20.044079999999997 17.01366857142857V2.1428948571428568c0 -0.8424068571428571 0.4935771428571428 -1.6066628571428572 1.2614057142857142 -1.953176914285714ZM24.329794285714286 6.891222857142856v12.887897142857142l8.03016 -5.802925714285714 -8.03016 -7.0849714285714285ZM18.060274285714282 26.953234285714284c0.6931885714285714 0.9592114285714286 0.47749714285714284 2.2987542857142857 -0.48171428571428576 2.991908571428571l-6.037748571428571 4.3632c-0.9592114285714286 0.6932571428571428 -2.2987542857142857 0.4776 -2.991908571428571 -0.4817828571428571 -0.6931885714285714 -0.9592114285714286 -0.47749714285714284 -2.2987542857142857 0.48171428571428576 -2.991942857142857l6.037714285714285 -4.363131428571428c0.9592457142857141 -0.6931542857142856 2.2987542857142857 -0.47749714285714284 2.991942857142857 0.4817485714285714Zm4.126182857142857 4.975268571428571c1.1834742857142857 0 2.142857142857143 0.9593828571428571 2.142857142857143 2.142857142857143v7.037554285714286l2.7008571428571426 -2.3828571428571426c0.8874171428571428 -0.7830857142857142 2.241565714285714 -0.6983999999999999 3.0245485714285714 0.1889142857142857 0.7829828571428571 0.8876571428571429 0.6982971428571428 2.2416 -0.18911999999999998 3.024685714285714l-6.261428571428571 5.524457142857142c-0.6316799999999999 0.5571428571428572 -1.531302857142857 0.6925714285714286 -2.299131428571428 0.3462857142857143 -0.7678628571428571 -0.3466285714285714 -1.2614400000000001 -1.1108571428571428 -1.2614400000000001 -1.9532571428571428V34.07136c0 -1.1834742857142857 0.9594171428571429 -2.142857142857143 2.142857142857143 -2.142857142857143Z" clip-rule="evenodd" stroke-width="3.4286"></path>
  </g>
</svg>