<svg xmlns="http://www.w3.org/2000/svg" fill="none" viewBox="0 0 48 48" id="Bluetooth-Searching--Streamline-Core-Remix" height="48" width="48">
  <desc>
    Bluetooth Searching Streamline Icon: https://streamlinehq.com
  </desc>
  <g id="Free Remix/Computer Devices/bluetooth-searching--bluetooth-internet-server-network-wireless-searching-connecting-connection">
    <path id="Union" fill="#000000" fill-rule="evenodd" d="M13.16232 0.18971794285714283c0.7678628571428571 -0.34651577142857143 1.6674857142857142 -0.21099901714285713 2.299165714285714 0.3463357714285714L29.062354285714285 12.536057142857143c0.4883314285714285 0.43086857142857143 0.7542514285714285 1.0604228571428571 0.7226057142857143 1.7109257142857142 -0.031611428571428575 0.6504685714285714 -0.35736 1.2512914285714285 -0.885222857142857 1.63272L17.662765714285715 24.000034285714282l11.236971428571428 8.120331428571427c0.5278628571428572 0.3814285714285714 0.8536114285714285 0.9822514285714286 0.885222857142857 1.63272 0.031645714285714284 0.6505714285714286 -0.2342742857142857 1.2800571428571428 -0.7226057142857143 1.7110285714285713l-13.60086857142857 12c-0.6316799999999999 0.5571428571428572 -1.531302857142857 0.6929142857142857 -2.299165714285714 0.3462857142857143 -0.7678285714285714 -0.3466285714285714 -1.2614057142857142 -1.1108571428571428 -1.2614057142857142 -1.9532571428571428V28.163794285714282L3.3981154285714283 34.308342857142854c-0.9592182857142857 0.6932571428571428 -2.2987508571428568 0.4776 -2.9919257142857143 -0.4817828571428571 -0.6931731428571428 -0.9592114285714286 -0.4774995428571428 -2.2987542857142857 0.4817211428571428 -2.991908571428571L10.345714285714285 24.000034285714282 0.887910857142857 17.16541714285714c-0.9592206857142856 -0.6931542857142856 -1.1748942857142857 -2.0326971428571428 -0.4817211428571428 -2.991908571428571 0.6931748571428571 -0.9592114285714286 2.0327074285714284 -1.174902857142857 2.9919257142857143 -0.48171428571428576L11.900914285714284 19.836274285714286V2.1428948571428568c0 -0.8424068571428571 0.4935771428571428 -1.6066628571428572 1.2614057142857142 -1.953176914285714ZM16.18662857142857 28.22094857142857l8.03016 5.802925714285714L16.18662857142857 41.108914285714285V28.22094857142857Zm0 -8.441828571428571V6.891222857142856l8.03016 7.0849714285714285L16.18662857142857 19.77912Zm24.04182857142857 14.739394285714285c5.790857142857143 -5.790788571428571 5.790857142857143 -15.246034285714286 0 -21.036959999999997 -0.6696 -0.6694971428571428 -0.6696 -1.7549142857142856 0 -2.424377142857143 0.6692571428571429 -0.669462857142857 1.7547428571428572 -0.669462857142857 2.424342857142857 0 7.129714285714285 7.129885714285713 7.129714285714285 18.75596571428571 0 25.886022857142855 -0.6696 0.6692571428571429 -1.7550857142857144 0.6692571428571429 -2.424342857142857 0 -0.6696 -0.6696 -0.6696 -1.7550857142857144 0 -2.4246857142857143Zm-5.211085714285714 -14.728731428571429c2.2501714285714285 2.2500685714285713 2.2501714285714285 6.169542857142857 0 8.419577142857142 -0.6692571428571429 0.6694971428571428 -0.6692571428571429 1.7549142857142856 0 2.424377142857143 0.6696 0.669462857142857 1.7550857142857144 0.669462857142857 2.424342857142857 0 3.589028571428571 -3.588994285714286 3.589028571428571 -9.679337142857142 0 -13.268331428571429 -0.6692571428571429 -0.669462857142857 -1.7547428571428572 -0.669462857142857 -2.424342857142857 0 -0.6692571428571429 0.6694971428571428 -0.6692571428571429 1.7549142857142856 0 2.424377142857143Z" clip-rule="evenodd" stroke-width="3.4286"></path>
  </g>
</svg>