<svg xmlns="http://www.w3.org/2000/svg" fill="none" viewBox="0 0 48 48" id="Bomb--Streamline-Core-Remix" height="48" width="48">
  <desc>
    Bomb Streamline Icon: https://streamlinehq.com
  </desc>
  <g id="Free Remix/Interface Essential/bomb--delete-bomb-remove">
    <path id="Union" fill="#000000" fill-rule="evenodd" d="M44.57142857142857 25.71428571428571c0 -6.558034285714285 -2.8326857142857143 -12.454491428571426 -7.341257142857143 -16.532502857142855 1.3491428571428572 -1.979862857142857 3.5982857142857143 -3.181782857142857 6.019885714285714 -3.181782857142857h1.749942857142857c1.6566857142857143 0 3 -1.343142857142857 3 -3C48 1.3431462857142857 46.656685714285715 0 45 0h-1.749942857142857C38.83885714285714 0 34.74171428571428 2.1869382857142856 32.28065142857143 5.790171428571428 29.274582857142857 4.279234285714286 25.87950857142857 3.4285714285714284 22.285714285714285 3.4285714285714284 9.977657142857142 3.4285714285714284 0 13.40622857142857 0 25.71428571428571 0 38.02251428571429 9.977657142857142 48 22.285714285714285 48c12.308228571428572 0 22.285714285714285 -9.977485714285713 22.285714285714285 -22.285714285714285ZM22.285714285714285 7.7142857142857135c-9.941108571428572 0 -18 8.058857142857141 -18 18s8.058891428571428 18 18 18c9.941142857142857 0 18 -8.058857142857141 18 -18S32.22685714285714 7.7142857142857135 22.285714285714285 7.7142857142857135ZM16.83089142857143 20.259462857142857C18.277611428571426 18.812742857142855 20.23974857142857 18 22.285714285714285 18c1.4201485714285715 0 2.571428571428571 -1.1512799999999999 2.571428571428571 -2.571428571428571s-1.1512799999999999 -2.571428571428571 -2.571428571428571 -2.571428571428571c-3.4099199999999996 0 -6.680194285714285 1.3545942857142856 -9.091371428571428 3.765771428571428S9.428571428571429 22.304365714285712 9.428571428571429 25.71428571428571c0 1.4201485714285715 1.1512799999999999 2.571428571428571 2.571428571428571 2.571428571428571s2.571428571428571 -1.1512799999999999 2.571428571428571 -2.571428571428571c0 -2.0459657142857144 0.8127428571428571 -4.008102857142857 2.2594628571428568 -5.454822857142856Z" clip-rule="evenodd" stroke-width="3.4286"></path>
  </g>
</svg>