<svg xmlns="http://www.w3.org/2000/svg" fill="none" viewBox="0 0 48 48" id="Bone--Streamline-Core-Remix" height="48" width="48">
  <desc>
    Bone Streamline Icon: https://streamlinehq.com
  </desc>
  <g id="Free Remix/Nature Ecology/bone--nature-pet-dog-bone-food-snack">
    <path id="Vector" stroke="#000000" stroke-linecap="round" stroke-linejoin="round" stroke-width="4.2857" d="M39.13405714285714 8.865737142857142c0 -1.7839542857142856 -0.7086857142857143 -3.4948114285714285 -1.9700571428571427 -4.756251428571429 -1.2613714285714286 -1.2614159999999999 -2.9721942857142856 -1.9700811428571428 -4.756114285714285 -1.9700811428571428 -1.7839200000000002 0 -3.4947771428571426 0.7086651428571428 -4.7562171428571425 1.9700811428571428 -1.2614057142857142 1.2614400000000001 -1.9700914285714284 2.9722971428571427 -1.9700914285714284 4.756251428571429 0.007508571428571429 1.78104 0.7210971428571429 3.486411428571428 1.9842857142857142 4.742057142857143L13.607862857142857 27.66582857142857c-1.2556457142857143 -1.2631885714285713 -2.960982857142857 -1.9767771428571426 -4.742057142857143 -1.9842857142857142 -1.7839200000000002 0 -3.4947771428571426 0.7086857142857143 -4.7562171428571425 1.9700914285714284 -1.2614159999999999 1.2614400000000001 -1.9700811428571428 2.9722971428571427 -1.9700811428571428 4.756251428571429 0 1.7839200000000002 0.7086651428571428 3.494742857142857 1.9700811428571428 4.756114285714285 1.2614400000000001 1.2613714285714286 2.9722971428571427 1.9700571428571427 4.7562171428571425 1.9700571428571427 0 1.7842285714285713 0.7086857142857143 3.4950857142857146 1.9700914285714284 4.756457142857142 1.2614400000000001 1.2613714285714286 2.9722971428571427 1.9700571428571427 4.7562171428571425 1.9700571428571427 1.7839542857142856 0 3.4948114285714285 -0.7086857142857143 4.7562171428571425 -1.9700571428571427 1.2614400000000001 -1.2613714285714286 1.9700914285714284 -2.9722285714285714 1.9700914285714284 -4.756457142857142 -0.007508571428571429 -1.7807999999999997 -0.7210971428571429 -3.4861714285714283 -1.9842514285714286 -4.742057142857143l14.057828571428571 -14.057897142857144c1.2558857142857143 1.2631885714285713 2.961257142857143 1.9767771428571426 4.742057142857143 1.9842857142857142 1.7842285714285713 0 3.4950857142857146 -0.7086514285714286 4.756457142857142 -1.9700914285714284 1.2613714285714286 -1.2614400000000001 1.9700571428571427 -2.9722971428571427 1.9700571428571427 -4.756251428571429 0 -1.7839200000000002 -0.7086857142857143 -3.4947771428571426 -1.9700571428571427 -4.7562171428571425s-2.9722285714285714 -1.9700914285714284 -4.756457142857142 -1.9700914285714284Z"></path>
  </g>
</svg>