<svg xmlns="http://www.w3.org/2000/svg" fill="none" viewBox="0 0 48 48" id="Book-Reading--Streamline-Core-Remix" height="48" width="48">
  <desc>
    Book Reading Streamline Icon: https://streamlinehq.com
  </desc>
  <g id="Free Remix/Work Education/book-reading--book-reading-learning">
    <path id="Union" fill="#000000" fill-rule="evenodd" d="M5.575885714285715 5.645451428571429c-0.003977142857142857 0.008365714285714285 -0.0044228571428571424 0.012582857142857142 -0.0044228571428571424 0.01745142857142857v17.995679999999997l0.001302857142857143 0.0034285714285714284c0.005211428571428572 0.013062857142857142 0.016765714285714287 0.034217142857142856 0.03678857142857143 0.05674285714285714 0.020057142857142857 0.022525714285714284 0.039702857142857144 0.03644571428571428 0.05208 0.043131428571428564l0.0035657142857142853 0.001817142857142857 0.0408 0.005039999999999999c3.6651428571428566 0.49710857142857146 7.128822857142857 1.8726857142857143 10.110137142857141 3.978925714285714V10.832571428571429c-2.7432685714285716 -2.768022857142857 -6.290571428571429 -4.611771428571428 -10.146137142857143 -5.261142857142857 -0.0029828571428571426 0.00013714285714285713 -0.006514285714285714 0.0007542857142857143 -0.011519999999999999 0.0023314285714285715 -0.01145142857142857 0.0035657142857142853 -0.02928 0.012137142857142857 -0.04789714285714285 0.028285714285714286 -0.018617142857142856 0.01618285714285714 -0.02955428571428571 0.03260571428571428 -0.03469714285714286 0.043405714285714284Zm15.304662857142858 26.863885714285715c-0.6341485714285714 0.3984685714285714 -1.682845714285714 0.93864 -2.8795542857142857 0.9545828571428571l-0.054994285714285704 0.00037714285714285714c-1.0720457142857143 -0.00023999999999999998 -2.0143885714285714 -0.4249371428571428 -2.63256 -0.7782171428571427 -0.5917371428571429 -0.3381942857142857 -1.0972114285714285 -0.73344 -1.4416114285714285 -1.0504799999999999 -2.5315542857142854 -1.926102857142857 -5.532102857142856 -3.1809942857142857 -8.720982857142857 -3.617177142857143C2.9793119999999997 27.76152 1.2764605714285713 25.840182857142857 1.2857519999999998 23.651554285714283l0.00004114285714285714 -0.007645714285714286 2.1428125714285713 0.012994285714285713H1.2857519999999998V5.663177142857142l2.1428537142857143 -0.00013714285714285713H1.2857519999999998C1.2856628571428572 3.020784 3.6619542857142857 0.9580594285714286 6.277268571428571 1.3284342857142857l0.05039999999999999 0.007748571428571428c4.350068571428571 0.7219748571428571 8.38344 2.679737142857143 11.630159999999998 5.617302857142857C21.20448 4.015954285714285 25.237679999999997 2.0581611428571427 29.58778285714286 1.3361828571428571l0.05039999999999999 -0.007748571428571428c2.6153142857142857 -0.3703748571428571 4.991759999999999 1.692342857142857 4.991417142857142 4.334605714285714v6.172148571428571c0 1.1834742857142857 -0.9592799999999999 2.142857142857143 -2.1427542857142856 2.142857142857143 -1.1834742857142857 0 -2.142857142857143 -0.9593828571428571 -2.142857142857143 -2.142857142857143V5.662902857142857c0 -0.004868571428571429 -0.00044571428571428567 -0.009085714285714286 -0.0044228571428571424 -0.01745142857142857 -0.005142857142857143 -0.010799999999999999 -0.016079999999999997 -0.02722285714285714 -0.03469714285714286 -0.043405714285714284 -0.018617142857142856 -0.016148571428571425 -0.03644571428571428 -0.02472 -0.04789714285714285 -0.028285714285714286 -0.005005714285714285 -0.001577142857142857 -0.008537142857142856 -0.002194285714285714 -0.011519999999999999 -0.0023314285714285715 -3.8544342857142855 0.6491999999999999 -7.400674285714285 2.4920571428571425 -10.1436 5.258777142857142v17.752491428571428c0.5793942857142856 0.09932571428571428 1.1157599999999999 0.43525714285714284 1.4531314285714285 0.9722057142857141 0.6296228571428572 1.0020685714285713 0.3276685714285714 2.3248457142857144 -0.6744342857142857 2.9544342857142856Zm4.54824 -10.67598857142857c0 -2.69568 2.1852685714285713 -4.880948571428571 4.880948571428571 -4.880948571428571s4.881119999999999 2.1852685714285713 4.881119999999999 4.880948571428571V29.142857142857142h0.5591999999999999c5.8186285714285715 0 10.536 4.717165714285714 10.536 10.536l0 4.892571428571428c0 0.4546285714285714 -0.18068571428571426 0.8907428571428571 -0.5022857142857142 1.2123428571428572 -0.32159999999999994 0.32125714285714285 -0.7573714285714286 0.5019428571428571 -1.212 0.5019428571428571H24.762137142857142c-0.5087657142857143 0 -0.9912685714285714 -0.22594285714285714 -1.3169485714285714 -0.6168l-1.8768342857142855 -2.2522285714285712c-3.3297942857142857 -3.9956571428571426 -1.1657485714285714 -10.059257142857142 3.8604342857142857 -11.101337142857142V21.83334857142857Z" clip-rule="evenodd" stroke-width="3.4286"></path>
  </g>
</svg>