<svg xmlns="http://www.w3.org/2000/svg" fill="none" viewBox="0 0 48 48" id="Bow-Tie--Streamline-Core-Remix" height="48" width="48">
  <desc>
    Bow Tie Streamline Icon: https://streamlinehq.com
  </desc>
  <g id="Free Remix/Money Shopping/bow-tie--bow-tie-dress-gentleman-cloth-clothing-accessories">
    <path id="Union" fill="#000000" fill-rule="evenodd" d="M0 13.639131428571428c0 -2.881302857142857 2.267797714285714 -5.498742857142856 5.392079999999999 -5.451497142857143 3.2398285714285713 0.04902857142857143 5.8643657142857135 0.5814171428571429 8.595462857142858 1.8285599999999997 2.6244685714285714 1.1984914285714285 5.277839999999999 3.028285714285714 8.60592 5.527234285714285C23.051108571428568 15.467862857142855 23.52096 15.428571428571427 24 15.428571428571427s0.9488914285714285 0.03929142857142857 1.4065371428571427 0.11485714285714285c3.3281142857142854 -2.498948571428571 5.981451428571429 -4.328742857142857 8.60592 -5.527234285714285 2.7312 -1.247142857142857 5.355771428571429 -1.7795314285714285 8.595428571428572 -1.8285599999999997C45.732342857142854 8.140388571428572 48 10.757828571428572 48 13.639131428571428v20.654125714285712c0 2.8337142857142856 -2.1963428571428567 5.430857142857143 -5.276228571428571 5.446971428571429 -3.236571428571428 0.017142857142857144 -5.840914285714286 -0.48239999999999994 -8.579622857142857 -1.7235428571428573 -2.6245371428571427 -1.1897142857142855 -5.311062857142857 -3.036342857142857 -8.735657142857141 -5.560422857142857C24.950228571428568 32.532 24.479725714285713 32.57142857142857 24 32.57142857142857s-0.9502285714285714 -0.039428571428571424 -1.4084914285714285 -0.11516571428571429c-3.4245942857142855 2.52408 -6.11112 4.370708571428572 -8.735657142857141 5.560422857142857 -2.738742857142857 1.241142857142857 -5.343051428571428 1.7406857142857144 -8.579657142857142 1.7235428571428573C2.196198857142857 39.724114285714286 0 37.12697142857142 0 34.29325714285714V13.639131428571428Zm29.77566857142857 16.694262857142856c2.4885257142857142 1.7803200000000001 4.375988571428571 2.981245714285714 6.137588571428571 3.779691428571428 2.1044571428571426 0.9536571428571429 4.085485714285714 1.3558285714285714 6.787885714285714 1.3414285714285714 0.47965714285714284 -0.0024 1.0131428571428571 -0.4354285714285714 1.0131428571428571 -1.1612571428571428V13.639131428571428c0 -0.7359428571428571 -0.5489142857142857 -1.1737028571428572 -1.0416 -1.166262857142857 -2.733942857142857 0.04134857142857142 -4.761257142857143 0.47430857142857136 -6.880114285714285 1.441817142857143 -1.7567314285714284 0.8022857142857143 -3.621565714285714 1.991142857142857 -6.0312342857142855 3.738857142857143C31.48758857142857 19.221565714285713 32.57142857142857 21.484217142857144 32.57142857142857 24c0 2.508822857142857 -1.0778742857142856 4.765885714285714 -2.79576 6.333394285714285ZM12.207291428571427 13.914685714285712c1.7568685714285712 0.8022857142857143 3.621702857142857 1.991142857142857 6.031371428571428 3.738857142857143C16.512411428571426 19.221565714285713 15.428571428571427 21.484217142857144 15.428571428571427 24c0 2.508822857142857 1.0778742857142856 4.765885714285714 2.79576 6.333394285714285 -2.4885257142857142 1.7803200000000001 -4.375988571428571 2.981245714285714 -6.137657142857142 3.779691428571428 -2.10432 0.9536571428571429 -4.085245714285714 1.3558285714285714 -6.787851428571428 1.3414285714285714 -0.4795885714285714 -0.0024 -1.0131085714285712 -0.4354285714285714 -1.0131085714285712 -1.1612571428571428V13.639131428571428c0 -0.7359428571428571 0.5490171428571428 -1.1737028571428572 1.0415314285714286 -1.166262857142857 2.733942857142857 0.04134857142857142 4.761394285714286 0.47430857142857136 6.880045714285713 1.441817142857143Z" clip-rule="evenodd" stroke-width="3.4286"></path>
  </g>
</svg>