<svg xmlns="http://www.w3.org/2000/svg" fill="none" viewBox="0 0 48 48" id="Bow--Streamline-Core-Remix" height="48" width="48">
  <desc>
    Bow Streamline Icon: https://streamlinehq.com
  </desc>
  <g id="Free Remix/Entertainment/bow--entertainment-gaming-bow-weapon">
    <path id="Union" fill="#000000" fill-rule="evenodd" d="M39.39702857142857 5.571428571428571 29.81550857142857 15.152948571428569C24.475062857142856 10.63769142857143 18.09805714285714 8.983165714285713 13.01670857142857 8.457737142857143c-1.2664799999999998 -0.13097142857142854 -2.4632228571428567 -0.19306285714285712 -3.5577942857142855 -0.21068571428571425 -0.05081142857142857 -0.0035999999999999995 -0.10213714285714286 -0.005417142857142857 -0.15384 -0.005417142857142857 -0.032502857142857146 0 -0.0648 0.0007199999999999999 -0.09692571428571428 0.00216 -1.232742857142857 -0.01248 -2.3287542857142856 0.03068571428571428 -3.2395199999999997 0.09312 -0.8861142857142857 0.060719999999999996 -1.6014857142857142 0.14002285714285714 -2.102331428571428 0.20537142857142857 -0.25056 0.03267428571428571 -0.44782285714285713 0.06195428571428571 -0.5863405714285714 0.08372571428571428 -0.06927428571428572 0.010902857142857143 -0.12389485714285714 0.019954285714285713 -0.16318285714285713 0.026605714285714285l-0.04736914285714285 0.008194285714285715 -0.01491085714285714 0.0026399999999999996 -0.0052354285714285706 0.0009599999999999999 -0.0020605714285714285 0.00034285714285714285c-0.0008742857142857143 0.00017142857142857143 -0.001686857142857143 0.00030857142857142856 0.3817508571428571 2.108605714285714l-0.38343771428571427 -2.108297142857143c-1.1643668571428571 0.21178285714285713 -1.9366045714285713 1.3273371428571428 -1.7248422857142858 2.4917142857142855 0.21168342857142855 1.1639314285714286 1.3264971428571428 1.9360114285714285 2.490394285714286 1.7250857142857141l0.0009257142857142857 -0.00017142857142857143 0.00037714285714285714 -0.00006857142857142857 0.022114285714285715 -0.003805714285714286 0.11153142857142857 -0.01813714285714286c0.10326857142857143 -0.016251428571428573 0.26331428571428567 -0.04011428571428571 0.4747885714285714 -0.06771428571428571 0.42325714285714283 -0.05523428571428571 1.0510285714285714 -0.12524571428571427 1.8409028571428572 -0.17938285714285712 0.2808685714285714 -0.019234285714285714 0.5816571428571428 -0.03644571428571428 0.9005142857142856 -0.05026285714285714v23.988308571428572H3.4289485714285712c-1.1834742857142857 0 -2.142864 0.9596571428571428 -2.142864 2.142857142857143 0 1.183542857142857 0.9593897142857143 2.142857142857143 2.142864 2.142857142857143h3.7332685714285714v3.734742857142857c0 1.183542857142857 0.9593828571428571 2.142857142857143 2.142857142857143 2.142857142857143 1.1834399999999998 0 2.142857142857143 -0.9593142857142857 2.142857142857143 -2.142857142857143v-3.734742857142857h23.987725714285713c-0.013714285714285714 0.31885714285714284 -0.030857142857142854 0.6195428571428571 -0.050057142857142856 0.9 -0.05417142857142857 0.7899428571428571 -0.12411428571428572 1.4177142857142855 -0.1793142857142857 1.8411428571428572 -0.02777142857142857 0.21154285714285712 -0.05142857142857142 0.3716571428571428 -0.06788571428571429 0.47485714285714287l-0.01817142857142857 0.11142857142857143 -0.0037714285714285714 0.022285714285714284 0 0.00034285714285714285 0 0.0010285714285714284 -0.00034285714285714285 0.00034285714285714285 0 0.0006857142857142857c-0.21017142857142856 1.1633142857142855 0.5619428571428571 2.2776 1.7255999999999998 2.489142857142857 1.1643428571428571 0.21154285714285712 2.279657142857143 -0.5605714285714286 2.491542857142857 -1.7249142857142856l-1.956342857142857 -0.3558857142857143c1.956342857142857 0.3558857142857143 1.956342857142857 0.3548571428571428 1.9566857142857141 0.3541714285714286l0.00034285714285714285 -0.0020571428571428568 0.0006857142857142857 -0.005485714285714286 0.002742857142857143 -0.014742857142857143 0.008228571428571427 -0.04731428571428571 0.015085714285714286 -0.09119999999999999 0.011657142857142856 -0.072c0.021599999999999998 -0.1385142857142857 0.050742857142857145 -0.336 0.08365714285714286 -0.5862857142857143 0.06514285714285714 -0.5009142857142858 0.14434285714285713 -1.216457142857143 0.20502857142857142 -2.102742857142857 0.0624 -0.9102857142857143 0.1056 -2.0060571428571428 0.09325714285714284 -3.2386285714285714 0.0013714285714285714 -0.03188571428571428 0.0020571428571428568 -0.06445714285714285 0.0020571428571428568 -0.09702857142857142 0 -0.05177142857142857 -0.0017142857142857142 -0.10319999999999999 -0.005485714285714286 -0.15394285714285713 -0.017485714285714285 -1.094742857142857 -0.07988571428571428 -2.292 -0.21085714285714285 -3.5588571428571427 -0.5256 -5.0808 -2.179885714285714 -11.45712 -6.694148571428571 -16.797154285714285l9.581348571428572 -9.581417142857141V15.428571428571427c0 1.1834742857142857 0.9593142857142857 2.142857142857143 2.142857142857143 2.142857142857143s2.142857142857143 -0.9593828571428571 2.142857142857143 -2.142857142857143V3.459462857142857c0.008228571428571427 -0.5586445714285714 -0.2009142857142857 -1.11984 -0.6274285714285713 -1.5461211428571429 -0.23005714285714288 -0.23004342857142857 -0.4992 -0.3968502857142857 -0.7861714285714285 -0.5004171428571428 -0.22422857142857142 -0.08086971428571428 -0.4590857142857142 -0.12318171428571428 -0.6946285714285714 -0.126936l-0.03428571428571429 -0.00027428571428571427H32.570125714285716c-1.1834742857142857 0 -2.142857142857143 0.9593897142857143 -2.142857142857143 2.142857142857143 0 1.1834742857142857 0.9593828571428571 2.142857142857143 2.142857142857143 2.142857142857143h6.826902857142857Zm-4.021371428571428 30.9792c-0.0264 -0.36857142857142855 -0.05897142857142857 -0.7450285714285714 -0.09874285714285713 -1.1286857142857143 -0.4656 -4.502331428571428 -1.8838971428571427 -9.797451428571428 -5.474571428571428 -14.194902857142857L14.478582857142857 36.55062857142857h20.897074285714282Zm-23.92772571428571 -3.030068571428571V12.622114285714284c0.3682285714285714 0.026365714285714284 0.7446171428571429 0.05897142857142857 1.1279657142857142 0.09860571428571428 4.502537142857142 0.4656 9.79830857142857 1.8840342857142858 14.196102857142856 5.475737142857143L11.447931428571428 33.520559999999996Z" clip-rule="evenodd" stroke-width="3.4286"></path>
  </g>
</svg>