<svg xmlns="http://www.w3.org/2000/svg" fill="none" viewBox="0 0 48 48" id="Box-Sign--Streamline-Core-Remix" height="48" width="48">
  <desc>
    Box Sign Streamline Icon: https://streamlinehq.com
  </desc>
  <g id="Free Remix/Shipping/box-sign--box-package-label-delivery-shipment-shipping-this-way-up-arrow-sign-sticker">
    <path id="Union" fill="#000000" fill-rule="evenodd" d="M7.285714285714286 1.7142857142857142C5.808068571428572 1.7142857142857142 4.3909714285714285 2.301274285714286 3.346117714285714 3.346117714285714 2.301274285714286 4.3909714285714285 1.7142857142857142 5.808068571428572 1.7142857142857142 7.285714285714286v33.42857142857142c0 1.4777142857142855 0.5869885714285714 2.894742857142857 1.631832 3.9394285714285715 1.0448537142857142 1.0450285714285714 2.461950857142857 1.632 3.939596571428571 1.632h33.42857142857142c1.4777142857142855 0 2.894742857142857 -0.5869714285714285 3.9394285714285715 -1.632 1.0450285714285714 -1.0446857142857142 1.632 -2.4617142857142853 1.632 -3.9394285714285715v-33.42857142857142c0 -1.477645714285714 -0.5869714285714285 -2.894742857142857 -1.632 -3.939596571428571C43.609028571428574 2.301274285714286 42.19199999999999 1.7142857142857142 40.714285714285715 1.7142857142857142h-33.42857142857142Zm-0.9091542857142857 4.662274285714286c0.24113142857142858 -0.24109714285714282 0.5681485714285713 -0.37655999999999995 0.9091542857142857 -0.37655999999999995h33.42857142857142c0.34114285714285714 0 0.6678857142857143 0.13546285714285713 0.9092571428571428 0.37655999999999995 0.24102857142857143 0.24113142857142858 0.3764571428571428 0.5681485714285713 0.3764571428571428 0.9091542857142857v33.42857142857142c0 0.34114285714285714 -0.13542857142857143 0.6678857142857143 -0.3764571428571428 0.9092571428571428 -0.24137142857142857 0.24102857142857143 -0.5681142857142857 0.3764571428571428 -0.9092571428571428 0.3764571428571428h-33.42857142857142c-0.3410057142857143 0 -0.6680228571428571 -0.13542857142857143 -0.9091542857142857 -0.3764571428571428 -0.24109714285714282 -0.24137142857142857 -0.37655999999999995 -0.5681142857142857 -0.37655999999999995 -0.9092571428571428v-33.42857142857142c0 -0.3410057142857143 0.13546285714285713 -0.6680228571428571 0.37655999999999995 -0.9091542857142857ZM12.428571428571427 33.42857142857142c-1.4201485714285715 0 -2.571428571428571 1.1513142857142855 -2.571428571428571 2.571428571428571s1.1512799999999999 2.571428571428571 2.571428571428571 2.571428571428571h23.142857142857142c1.4201142857142857 0 2.571428571428571 -1.1513142857142855 2.571428571428571 -2.571428571428571s-1.1513142857142855 -2.571428571428571 -2.571428571428571 -2.571428571428571h-23.142857142857142Zm7.412605714285714 -23.37569142857143c0.9608914285714285 0.3980228571428571 1.5873942857142858 1.3356342857142858 1.5873942857142858 2.3756914285714283v16.285714285714285c0 1.4201485714285715 -1.1512799999999999 2.571428571428571 -2.571428571428571 2.571428571428571s-2.571428571428571 -1.1512799999999999 -2.571428571428571 -2.571428571428571V18.636548571428573l-2.46744 2.46744c-1.0041942857142856 1.0041942857142856 -2.6323542857142854 1.0041942857142856 -3.636548571428571 0s-1.0041942857142856 -2.6323542857142854 0 -3.636548571428571l6.857142857142857 -6.857142857142857c0.7354285714285713 -0.7354285714285713 1.8414514285714283 -0.9554399999999998 2.802308571428571 -0.5574171428571428Zm11.119954285714286 0.5574171428571428c-0.7354285714285713 -0.7354285714285713 -1.8414514285714283 -0.9554399999999998 -2.802308571428571 -0.5574171428571428 -0.9608914285714285 0.3980228571428571 -1.5873942857142858 1.3356342857142858 -1.5873942857142858 2.3756914285714283v16.285714285714285c0 1.4201485714285715 1.1512799999999999 2.571428571428571 2.571428571428571 2.571428571428571s2.571428571428571 -1.1512799999999999 2.571428571428571 -2.571428571428571V18.636548571428573l2.46744 2.46744c1.0043314285714287 1.0041942857142856 2.632217142857143 1.0041942857142856 3.636445714285714 0 1.0042285714285712 -1.0041942857142856 1.0042285714285712 -2.6323542857142854 0 -3.636548571428571l-6.85704 -6.857142857142857Z" clip-rule="evenodd" stroke-width="3.4286"></path>
  </g>
</svg>