<svg xmlns="http://www.w3.org/2000/svg" fill="none" viewBox="0 0 48 48" id="Braces-Circle--Streamline-Core-Remix" height="48" width="48">
  <desc>
    Braces Circle Streamline Icon: https://streamlinehq.com
  </desc>
  <g id="Free Remix/Interface Essential/braces-circle--interface-math-braces-sign-mathematics">
    <path id="Union" fill="#000000" fill-rule="evenodd" d="M4.285714285714286 24c0 -10.887908571428571 8.826377142857142 -19.71428571428571 19.71428571428571 -19.71428571428571 10.887771428571428 0 19.71428571428571 8.826377142857142 19.71428571428571 19.71428571428571 0 10.887771428571428 -8.826514285714284 19.71428571428571 -19.71428571428571 19.71428571428571 -10.887908571428571 0 -19.71428571428571 -8.826514285714284 -19.71428571428571 -19.71428571428571ZM24 0C10.745177142857143 0 0 10.745177142857143 0 24c0 13.254857142857142 10.745177142857143 24 24 24 13.254857142857142 0 24 -10.745142857142856 24 -24 0 -13.254822857142857 -10.745142857142856 -24 -24 -24ZM12.832148571428572 19.23750857142857C13.090285714285713 14.89590857142857 16.731874285714287 13.285714285714285 18.857142857142858 13.285714285714285c1.1834742857142857 0 2.142857142857143 0.9593828571428571 2.142857142857143 2.142857142857143s-0.9593828571428571 2.142857142857143 -2.142857142857143 2.142857142857143c-0.1932342857142857 0 -0.6496799999999999 0.10213714285714286 -1.0462971428571428 0.41732571428571424 -0.32790857142857144 0.2606057142857143 -0.6522171428571428 0.6907542857142858 -0.7005257142857143 1.50312C17.03136 20.819794285714284 16.681028571428573 22.60224 15.593828571428569 24c1.0872 1.39776 1.4375314285714285 3.180205714285714 1.5164914285714284 4.508125714285714 0.04830857142857142 0.8123657142857142 0.3726171428571428 1.2425142857142857 0.7005257142857143 1.50312 0.39661714285714283 0.31518857142857143 0.8530628571428571 0.41732571428571424 1.0462971428571428 0.41732571428571424 1.1834742857142857 0 2.142857142857143 0.9593828571428571 2.142857142857143 2.142857142857143s-0.9593828571428571 2.142857142857143 -2.142857142857143 2.142857142857143c-2.1252685714285713 0 -5.766857142857142 -1.6101942857142857 -6.0249942857142855 -5.951794285714286 -0.08934857142857142 -1.5030171428571428 -0.56856 -2.234914285714286 -1.021542857142857 -2.461405714285714l-0.7689257142857142 -0.3844457142857142C10.315714285714286 25.55365714285714 9.857142857142856 24.81164571428571 9.857142857142856 24c0 -0.8116457142857142 0.4585714285714286 -1.5536571428571428 1.184537142857143 -1.9166399999999997l0.7689257142857142 -0.3844457142857142c0.4529828571428571 -0.22649142857142854 0.9321942857142858 -0.9583885714285714 1.021542857142857 -2.461405714285714Zm22.33573714285714 0C34.90971428571429 14.89590857142857 31.268125714285716 13.285714285714285 29.142857142857142 13.285714285714285c-1.1834742857142857 0 -2.142857142857143 0.9593828571428571 -2.142857142857143 2.142857142857143s0.9593828571428571 2.142857142857143 2.142857142857143 2.142857142857143c0.1932342857142857 0 0.6496799999999999 0.10213714285714286 1.0462971428571428 0.41732571428571424 0.32790857142857144 0.2606057142857143 0.6522171428571428 0.6907542857142858 0.7005257142857143 1.50312 0.07895999999999999 1.32792 0.4292914285714285 3.1103657142857144 1.5164914285714284 4.508125714285714 -1.0872 1.39776 -1.4375314285714285 3.180205714285714 -1.5164914285714284 4.508125714285714 -0.04830857142857142 0.8123657142857142 -0.3726171428571428 1.2425142857142857 -0.7005257142857143 1.50312 -0.39661714285714283 0.31518857142857143 -0.8530628571428571 0.41732571428571424 -1.0462971428571428 0.41732571428571424 -1.1834742857142857 0 -2.142857142857143 0.9593828571428571 -2.142857142857143 2.142857142857143s0.9593828571428571 2.142857142857143 2.142857142857143 2.142857142857143c2.1252685714285713 0 5.766857142857142 -1.6101942857142857 6.025028571428571 -5.951794285714286 0.08914285714285713 -1.5030171428571428 0.5684571428571429 -2.234914285714286 1.0213714285714286 -2.461405714285714l0.7690285714285714 -0.3844457142857142c0.7258285714285714 -0.36298285714285716 1.1845714285714284 -1.1049942857142858 1.1845714285714284 -1.9166399999999997 0 -0.8116457142857142 -0.4587428571428571 -1.5536571428571428 -1.1845714285714284 -1.9166399999999997l-0.7690285714285714 -0.3844457142857142c-0.45291428571428566 -0.22649142857142854 -0.9322285714285713 -0.9583885714285714 -1.0213714285714286 -2.461405714285714Z" clip-rule="evenodd" stroke-width="3.4286"></path>
  </g>
</svg>