<svg xmlns="http://www.w3.org/2000/svg" fill="none" viewBox="0 0 48 48" id="Brain--Streamline-Core-Remix" height="48" width="48">
  <desc>
    Brain Streamline Icon: https://streamlinehq.com
  </desc>
  <g id="Free Remix/Health/brain--medical-health-brain">
    <path id="Union" fill="#000000" fill-rule="evenodd" d="M15.994799999999998 3.359568c-5.480091428571428 0 -9.945634285714284 4.343952 -10.141097142857141 9.776352C2.368289142857143 15.856902857142856 -0.0033482125714285713 19.467051428571427 -0.0033482125714285713 24.611039999999996c0 3.942102857142857 1.432592784 6.601508571428571 3.543142498285714 9.096994285714286 0.19618285714285713 6.070937142857143 5.179234285714285 10.932651428571427 11.298171428571429 10.932651428571427 3.7694742857142853 0 7.108045714285713 -1.8449142857142857 9.161931428571428 -4.6813714285714285 2.053885714285714 2.836457142857143 5.392457142857142 4.6813714285714285 9.161931428571428 4.6813714285714285 6.118971428571428 0 11.102057142857143 -4.861714285714285 11.298171428571429 -10.932651428571427 2.1106285714285713 -2.495485714285714 3.5430857142857146 -5.154891428571428 3.5430857142857146 -9.096994285714286 0 -5.143988571428571 -2.371542857142857 -8.754137142857143 -5.857028571428571 -11.475119999999999 -0.19542857142857142 -5.4323999999999995 -4.660799999999999 -9.776352 -10.141062857142856 -9.776352 -3.25272 0 -6.148011428571428 1.5303634285714285 -8.005097142857142 3.9103748571428567C22.142811428571427 4.889931428571429 19.247519999999998 3.359568 15.994799999999998 3.359568ZM10.132765714285714 13.507337142857141c0 -3.2375314285714283 2.6245371428571427 -5.862068571428571 5.8620342857142855 -5.862068571428571 3.2375314285714283 0 5.862068571428571 2.6245371428571427 5.862068571428571 5.862068571428571L21.8568 20.098902857142857c-0.05602285714285714 0.6503657142857142 -0.4284 2.0139428571428573 -1.28352 3.260914285714285 -0.8474057142857142 1.2356914285714284 -2.0245714285714285 2.1619885714285716 -3.6380571428571424 2.3420914285714285 -1.1761714285714286 0.13124571428571427 -2.0232342857142855 1.1911542857142856 -1.8919542857142855 2.3673257142857143 0.13127999999999998 1.1761371428571428 1.1911542857142856 2.0231999999999997 2.3673257142857143 1.89192 1.7918742857142858 -0.1999885714285714 3.2636571428571424 -0.8800799999999999 4.446137142857143 -1.7831314285714284l-0.00006857142857142857 5.158182857142857c0 3.87648 -3.142388571428571 7.018765714285714 -7.0186971428571425 7.018765714285714 -3.87624 0 -7.018457142857143 -3.142285714285714 -7.018457142857143 -7.018765714285714v-0.06504c0.12178285714285715 -0.6401485714285714 0.36771428571428566 -1.3885714285714286 0.6997028571428572 -2.063691428571428 0.3574285714285714 -0.7268914285714285 0.7219885714285713 -1.180937142857143 0.9666514285714286 -1.3741371428571427 0.9288342857142856 -0.7334057142857142 1.0872685714285715 -2.0809028571428567 0.3538628571428571 -3.0097371428571424 -0.7333714285714286 -0.9287999999999998 -2.0808685714285713 -1.0872342857142856 -3.009702857142857 -0.3538628571428571 -0.69072 0.5454171428571428 -1.2543428571428572 1.2685371428571428 -1.7009485714285713 2.0095199999999998 -0.5648571428571428 -1.1411999999999998 -0.84672 -2.3555314285714286 -0.84672 -3.868217142857143 0 -2.7984342857142854 0.9531085714285714 -4.940811428571428 2.7115885714285715 -6.762994285714285 0.3814285714285714 0.6604457142857142 0.8266971428571428 1.2325714285714284 1.2928457142857144 1.7164457142857144 1.08816 1.1295428571428572 2.401165714285714 1.8907199999999997 3.4773599999999996 2.1360685714285714 1.1538514285714285 0.2630742857142857 2.3024914285714284 -0.4590857142857142 2.565565714285714 -1.6129371428571428 0.26304 -1.1538514285714285 -0.4590857142857142 -2.3024914285714284 -1.6129371428571428 -2.565565714285714 0.0006514285714285715 0.00017142857142857143 0.0005828571428571429 0.00013714285714285713 -0.00020571428571428572 -0.00010285714285714286 -0.005862857142857142 -0.0016114285714285714 -0.05053714285714285 -0.013988571428571428 -0.1325142857142857 -0.04923428571428571 -0.08924571428571429 -0.0384 -0.2040342857142857 -0.09593142857142857 -0.3370285714285714 -0.17629714285714285 -0.2674971428571429 -0.16172571428571428 -0.5758971428571429 -0.39613714285714285 -0.8737371428571429 -0.7053257142857142 -0.5813828571428571 -0.6034971428571428 -1.095257142857143 -1.4595085714285714 -1.2405257142857142 -2.6107542857142856v-0.47300571428571425Zm20.456434285714284 16.453817142857144c-1.7918742857142858 -0.1999885714285714 -3.2636571428571424 -0.8800799999999999 -4.446137142857143 -1.7831314285714284l0.00006857142857142857 5.158182857142857c0 3.87648 3.142388571428571 7.018765714285714 7.0186971428571425 7.018765714285714 3.8763428571428573 0 7.018285714285715 -3.142285714285714 7.018285714285715 -7.018765714285714v-0.06504c-0.12171428571428569 -0.6401485714285714 -0.3675428571428571 -1.3885714285714286 -0.6994285714285714 -2.063691428571428 -0.3576 -0.7268914285714285 -0.7220571428571428 -1.180937142857143 -0.9668571428571427 -1.3741371428571427 -0.9287999999999998 -0.7334057142857142 -1.0872 -2.0809028571428567 -0.35382857142857144 -3.0097371428571424 0.7333714285714286 -0.9287999999999998 2.0808 -1.0872342857142856 3.009942857142857 -0.3538628571428571 0.6905142857142856 0.5454171428571428 1.2541714285714285 1.2685371428571428 1.7009142857142856 2.0095199999999998 0.5646857142857143 -1.1411999999999998 0.8465142857142857 -2.3555314285714286 0.8465142857142857 -3.868217142857143 0 -2.7982971428571424 -0.9527999999999999 -4.940605714285714 -2.7113142857142853 -6.76272 -0.3812571428571428 0.6603085714285715 -0.8266285714285714 1.232365714285714 -1.2925714285714285 1.7161714285714287 -1.0882285714285713 1.1295428571428572 -2.4013714285714287 1.8907199999999997 -3.477257142857143 2.1360685714285714 -1.154057142857143 0.2630742857142857 -2.3026628571428573 -0.4590857142857142 -2.565702857142857 -1.6129371428571428 -0.2630742857142857 -1.1538514285714285 0.45905142857142855 -2.3024914285714284 1.6129028571428572 -2.565565714285714l0.00034285714285714285 -0.00006857142857142857 0 -0.00003428571428571428c0.005828571428571428 -0.0016114285714285714 0.05039999999999999 -0.013988571428571428 0.13234285714285715 -0.04923428571428571 0.08914285714285713 -0.0384 0.204 -0.09593142857142857 0.3370285714285714 -0.17629714285714285 0.2674285714285714 -0.16172571428571428 0.576 -0.39613714285714285 0.8739428571428571 -0.7053257142857142 0.5808 -0.6029142857142857 1.0940571428571428 -1.457862857142857 1.2401142857142857 -2.607428571428571v-0.4763314285714285c0 -3.2375314285714283 -2.624571428571428 -5.862068571428571 -5.8622057142857145 -5.862068571428571 -3.2375314285714283 0 -5.862068571428571 2.6245371428571427 -5.862068571428571 5.862068571428571l0.00006857142857142857 6.5916c0.05602285714285714 0.6504 0.4284 2.0139085714285714 1.28352 3.26088 0.8474057142857142 1.2356914285714284 2.0245714285714285 2.1619885714285716 3.6380571428571424 2.3420914285714285 1.1761714285714286 0.13124571428571427 2.0232342857142855 1.1911542857142856 1.8919542857142855 2.3673257142857143 -0.13127999999999998 1.1761371428571428 -1.1911542857142856 2.0231999999999997 -2.3673257142857143 1.89192Z" clip-rule="evenodd" stroke-width="3.4286"></path>
  </g>
</svg>