<svg xmlns="http://www.w3.org/2000/svg" fill="none" viewBox="0 0 48 48" id="Brain-Cognitive--Streamline-Core-Remix" height="48" width="48">
  <desc>
    Brain Cognitive Streamline Icon: https://streamlinehq.com
  </desc>
  <g id="Free Remix/Health/brain-cognitive--health-medical-brain-cognitive-specialities">
    <path id="Union" fill="#000000" fill-rule="evenodd" d="M34.08528 2.6316994285714284C30.88501714285714 0.8393931428571428 27.264925714285713 -0.06765291428571428 23.597622857142856 0.0039317828571428575 19.930354285714284 0.07551634285714286 16.348422857142857 1.1231451428571428 13.220537142857141 3.038976c-3.127885714285714 1.915824 -5.68872 4.630635428571429 -7.418811428571428 7.8649439999999995 -1.7300914285714284 3.234308571428571 -2.567005714285714 6.871268571428571 -2.424541714285714 10.53648 0.14245028571428572 3.665211428571429 1.259136 7.226262857142857 3.2350559999999997 10.316502857142858 1.7357142857142855 2.7146399999999997 4.0793485714285715 4.979554285714285 6.83808 6.620468571428571v7.4797714285714285c0 1.183542857142857 0.9593828571428571 2.142857142857143 2.142857142857143 2.142857142857143s2.142857142857143 -0.9593142857142857 2.142857142857143 -2.142857142857143v-8.743542857142856c0 -0.8053714285714285 -0.4515085714285714 -1.5425142857142857 -1.1688342857142857 -1.908685714285714 -2.5887085714285716 -1.321062857142857 -4.778605714285715 -3.3081599999999995 -6.344228571428571 -5.756708571428572 -1.565622857142857 -2.4485485714285713 -2.4504342857142856 -5.270125714285714 -2.563302857142857 -8.174262857142857 -0.11286857142857142 -2.9041028571428567 0.5502171428571428 -5.785851428571428 1.921062857142857 -8.348537142857142 1.3708457142857142 -2.562685714285714 3.399908571428571 -4.713771428571428 5.878285714285713 -6.231771428571428 2.478342857142857 -1.5179999999999998 5.316514285714286 -2.3480914285714287 8.222262857142857 -2.4048 2.905748571428571 -0.05670857142857142 5.774125714285714 0.6619542857142856 8.309862857142855 2.082102857142857 2.5356 1.4201142857142857 4.647257142857143 3.490354285714285 6.117085714285714 5.997634285714285 1.469485714285714 2.5071085714285712 2.244685714285714 5.36064 2.2453714285714286 8.2668v13.451622857142857c0 0.32352 -0.12857142857142856 0.6338057142857142 -0.35725714285714283 0.8628342857142857 -0.22902857142857141 0.22868571428571427 -0.5393142857142856 0.35725714285714283 -0.8629714285714285 0.35725714285714283H32.40768c-1.1834742857142857 0 -2.142857142857143 0.9593142857142857 -2.142857142857143 2.142857142857143v8.4072c0 1.183542857142857 0.9593828571428571 2.142857142857143 2.142857142857143 2.142857142857143s2.1427199999999997 -0.9593142857142857 2.1427199999999997 -2.142857142857143v-6.264342857142856h4.582971428571429c1.4602285714285714 0 2.8608 -0.5801142857142857 3.893142857142857 -1.6127999999999998 1.0326857142857142 -1.032342857142857 1.6127999999999998 -2.432914285714286 1.6127999999999998 -3.8930057142857137v-13.452c-0.0006857142857142857 -3.6679885714285714 -0.9788571428571428 -7.269531428571429 -2.8340571428571426 -10.433862857142858 -1.854857142857143 -3.1643314285714284 -4.519542857142857 -5.777142857142857 -7.719977142857143 -7.569432ZM18.42881142857143 10.611668571428572c5.029885714285714 -2.904034285714286 11.287474285714286 -1.7490514285714287 14.984399999999999 2.447005714285714 1.230102857142857 1.3961485714285715 0.8875885714285714 3.4019657142857143 -0.3772114285714286 4.544365714285714 -3.7303199999999994 3.3693942857142853 -9.91398857142857 7.7377714285714285 -16.058125714285715 9.365417142857142 -1.5631199999999998 0.4140685714285714 -3.276548571428571 -0.34350857142857144 -3.8510742857142852 -1.9517142857142857 -1.9109485714285712 -5.349257142857143 0.20729142857142857 -11.46366857142857 5.302011428571428 -14.405074285714285Z" clip-rule="evenodd" stroke-width="3.4286"></path>
  </g>
</svg>