<svg xmlns="http://www.w3.org/2000/svg" fill="none" viewBox="0 0 48 48" id="Braille-Blind--Streamline-Core-Remix" height="48" width="48">
  <desc>
    Braille Blind Streamline Icon: https://streamlinehq.com
  </desc>
  <g id="Free Remix/Map Travel/braille-blind--disability-braille-blind">
    <path id="Union" fill="#000000" fill-rule="evenodd" d="M8.142857142857142 4.285714285714286c0 -1.893541714285714 -1.53504 -3.4285714285714284 -3.4285714285714284 -3.4285714285714284 -1.893541714285714 0 -3.4285714285714284 1.535029714285714 -3.4285714285714284 3.4285714285714284 0 1.8935314285714284 1.535029714285714 3.4285714285714284 3.4285714285714284 3.4285714285714284 1.8935314285714284 0 3.4285714285714284 -1.53504 3.4285714285714284 -3.4285714285714284Zm12 3.4285714285714284c-1.8935314285714284 0 -3.4285714285714284 -1.53504 -3.4285714285714284 -3.4285714285714284 0 -1.893541714285714 1.53504 -3.4285714285714284 3.4285714285714284 -3.4285714285714284s3.4285714285714284 1.535029714285714 3.4285714285714284 3.4285714285714284c0 1.8935314285714284 -1.53504 3.4285714285714284 -3.4285714285714284 3.4285714285714284Zm23.142857142857142 0c-1.8936 0 -3.4285714285714284 -1.53504 -3.4285714285714284 -3.4285714285714284 0 -1.893541714285714 1.5349714285714284 -3.4285714285714284 3.4285714285714284 -3.4285714285714284s3.4285714285714284 1.535029714285714 3.4285714285714284 3.4285714285714284c0 1.8935314285714284 -1.5349714285714284 3.4285714285714284 -3.4285714285714284 3.4285714285714284Zm0 10.285714285714285c-1.8936 0 -3.4285714285714284 -1.53504 -3.4285714285714284 -3.4285714285714284s1.5349714285714284 -3.4285714285714284 3.4285714285714284 -3.4285714285714284 3.4285714285714284 1.53504 3.4285714285714284 3.4285714285714284 -1.5349714285714284 3.4285714285714284 -3.4285714285714284 3.4285714285714284Zm-9.428571428571429 0c-1.8935314285714284 0 -3.4285714285714284 -1.53504 -3.4285714285714284 -3.4285714285714284s1.53504 -3.4285714285714284 3.4285714285714284 -3.4285714285714284c1.8936 0 3.4285714285714284 1.53504 3.4285714285714284 3.4285714285714284s-1.5349714285714284 3.4285714285714284 -3.4285714285714284 3.4285714285714284Zm-29.142857142857142 0c-1.893541714285714 0 -3.4285714285714284 -1.53504 -3.4285714285714284 -3.4285714285714284s1.535029714285714 -3.4285714285714284 3.4285714285714284 -3.4285714285714284c1.8935314285714284 0 3.4285714285714284 1.53504 3.4285714285714284 3.4285714285714284s-1.53504 3.4285714285714284 -3.4285714285714284 3.4285714285714284Zm0.5232685714285714 15.732c-2.182944 2.182971428571429 -2.324712 5.675999999999999 -0.32581714285714286 8.028685714285713l4.659325714285714 5.483999999999999c0.7662514285714285 0.9017142857142857 2.118582857142857 1.0117714285714283 3.0204685714285713 0.24548571428571425 0.90192 -0.7662857142857142 1.0118399999999999 -2.118514285714286 0.2455885714285714 -3.0205714285714285l-4.659325714285714 -5.483999999999999c-0.5535428571428571 -0.6514285714285714 -0.5142857142857142 -1.6186285714285713 0.09020571428571428 -2.223085714285714 0.6409714285714285 -0.6411428571428571 1.6801714285714284 -0.6411428571428571 2.321142857142857 0l4.181348571428571 4.181142857142857c0.6128571428571428 0.6130285714285714 1.5345257142857143 0.7964571428571429 2.3352685714285712 0.4645714285714286 0.8007085714285713 -0.3315428571428571 1.3228114285714285 -1.1129142857142857 1.3228114285714285 -1.9796571428571428l0 -21.428571428571427c0 -1.1834742857142857 0.9593828571428571 -2.142857142857143 2.142857142857143 -2.142857142857143s2.142857142857143 0.9593828571428571 2.142857142857143 2.142857142857143v13.189782857142857c0 0.5752114285714286 0.23122285714285712 1.1262514285714285 0.6416914285714285 1.5291771428571428 0.4104685714285714 0.4029257142857143 0.9656571428571429 0.6239657142857143 1.5407657142857143 0.6133371428571428l8.032217142857142 -0.14845714285714284C36.939428571428564 33.10971428571428 40.11017142857143 36.562285714285714 39.69565714285714 40.55177142857143l-0.5283428571428571 5.083885714285714c-0.12240000000000001 1.1770285714285713 0.7326857142857143 2.230628571428571 1.910057142857143 2.3530285714285712 1.1770285714285713 0.12205714285714285 2.230285714285714 -0.7330285714285714 2.3526857142857143 -1.910057142857143l0.5283428571428571 -5.083885714285714c0.6802285714285714 -6.5496 -4.525028571428572 -12.217542857142856 -11.10864 -12.095897142857142L27 29.00698285714285V18c0 -3.5504228571428564 -2.878182857142857 -6.428571428571428 -6.428571428571428 -6.428571428571428s-6.428571428571428 2.878148571428571 -6.428571428571428 6.428571428571428l0 16.25526857142857 -0.5232685714285714 -0.5232685714285714c-2.3146285714285715 -2.314662857142857 -6.067405714285714 -2.314662857142857 -8.382034285714285 0ZM1.2857142857142856 24.857142857142854c0 1.8935314285714284 1.535029714285714 3.4285714285714284 3.4285714285714284 3.4285714285714284 1.8935314285714284 0 3.4285714285714284 -1.53504 3.4285714285714284 -3.4285714285714284s-1.53504 -3.4285714285714284 -3.4285714285714284 -3.4285714285714284c-1.893541714285714 0 -3.4285714285714284 1.53504 -3.4285714285714284 3.4285714285714284Z" clip-rule="evenodd" stroke-width="3.4286"></path>
  </g>
</svg>