<svg xmlns="http://www.w3.org/2000/svg" fill="none" viewBox="0 0 48 48" id="Briefcase-Dollar--Streamline-Core-Remix" height="48" width="48">
  <desc>
    Briefcase Dollar Streamline Icon: https://streamlinehq.com
  </desc>
  <g id="Free Remix/Money Shopping/briefcase-dollar--briefcase-payment-cash-money-finance-baggage-bag">
    <path id="Union" fill="#000000" fill-rule="evenodd" d="M12.59718857142857 1.882885714285714C13.802777142857142 0.6772937142857143 15.437897142857143 0 17.142857142857142 0h13.714285714285714c1.7049599999999998 0 3.34008 0.6772937142857143 4.5456 1.882885714285714 1.2058285714285715 1.2055885714285715 1.8829714285714285 2.840725714285714 1.8829714285714285 4.545685714285714v3h5.142857142857142c3.077142857142857 0 5.571428571428571 2.494422857142857 5.571428571428571 5.571428571428571v27.428571428571427c0 3.077142857142857 -2.494285714285714 5.571428571428571 -5.571428571428571 5.571428571428571H5.571428571428571C2.494412571428571 48 0 45.505714285714284 0 42.42857142857142v-27.428571428571427C0 11.922994285714285 2.494412571428571 9.428571428571429 5.571428571428571 9.428571428571429h5.142857142857142v-3c0 -1.7049599999999998 0.67728 -3.3400971428571427 1.882902857142857 -4.545685714285714ZM31.285714285714285 6.428571428571428v3h-14.571428571428571v-3c0 -0.11365714285714285 0.04515428571428571 -0.22268571428571426 0.12552 -0.3030514285714285C16.92017142857143 6.045154285714285 17.0292 6 17.142857142857142 6h13.714285714285714c0.11365714285714285 0 0.22268571428571426 0.04515428571428571 0.3030514285714285 0.12552 0.08036571428571428 0.08036571428571428 0.12552 0.18939428571428568 0.12552 0.3030514285714285ZM5.571428571428571 13.714285714285714c-0.7100914285714285 0 -1.2857142857142856 0.5756228571428571 -1.2857142857142856 1.2857142857142856v27.428571428571427c0 0.7100571428571428 0.5756228571428571 1.2857142857142856 1.2857142857142856 1.2857142857142856h36.857142857142854c0.7100571428571428 0 1.2857142857142856 -0.5756571428571428 1.2857142857142856 -1.2857142857142856v-27.428571428571427c0 -0.7100914285714285 -0.5756571428571428 -1.2857142857142856 -1.2857142857142856 -1.2857142857142856H5.571428571428571Zm20.57142857142857 4.285714285714286v1.2126514285714285c1.36824 0.2126057142857143 2.5806171428571427 0.8992457142857143 3.4603542857142853 1.882182857142857 0.5029028571428571 0.5618742857142857 0.9001371428571427 1.2233485714285715 1.1580685714285714 1.953085714285714 0.39438857142857137 1.1158285714285714 -0.19042285714285712 2.340102857142857 -1.3062514285714284 2.734491428571429 -1.1158285714285714 0.39438857142857137 -2.340102857142857 -0.19045714285714285 -2.7344571428571425 -1.3062857142857143 -0.06819428571428572 -0.19292571428571428 -0.17420571428571427 -0.3704571428571428 -0.31076571428571426 -0.5230971428571428 -0.29081142857142855 -0.32489142857142855 -0.7065942857142856 -0.5243314285714286 -1.1717828571428572 -0.5243314285714286h-2.874994285714285c-0.6475885714285714 0 -1.1726057142857143 0.5250171428571427 -1.1726057142857143 1.17264 0 0.55104 0.3837257142857143 1.0277485714285715 0.9220457142857142 1.14552l4.377188571428571 0.9574971428571428c2.689645714285714 0.5883771428571428 4.605462857142856 2.9712 4.605462857142856 5.722937142857142 0 2.92608 -2.146388571428571 5.353851428571428 -4.952262857142856 5.788937142857142V39.42857142857142c0 1.183542857142857 -0.9593828571428571 2.142857142857143 -2.142857142857143 2.142857142857143s-2.142857142857143 -0.9593142857142857 -2.142857142857143 -2.142857142857143v-1.2123428571428572c-2.151325714285714 -0.3332571428571428 -3.912342857142857 -1.8373714285714287 -4.618594285714285 -3.835542857142857 -0.39438857142857137 -1.115657142857143 0.19045714285714285 -2.3399314285714286 1.3062857142857143 -2.73432 1.1157942857142857 -0.39438857142857137 2.340068571428571 0.19045714285714285 2.7344571428571425 1.3062857142857143 0.2167542857142857 0.6132 0.8017028571428572 1.0473942857142855 1.4825485714285713 1.0473942857142855h2.476182857142857c0.8668457142857142 0 1.571382857142857 -0.7038857142857143 1.571382857142857 -1.5727542857142858 0 -0.7392342857142856 -0.5149371428571428 -1.37856 -1.2355885714285713 -1.5362057142857142l-4.377188571428571 -0.9574971428571428c-2.50584 -0.54816 -4.29192 -2.767165714285714 -4.29192 -5.332251428571428 0 -2.844 2.1750514285714284 -5.1799542857142855 4.952434285714285 -5.435211428571428V18c0 -1.1834742857142857 0.9593828571428571 -2.142857142857143 2.142857142857143 -2.142857142857143s2.142857142857143 0.9593828571428571 2.142857142857143 2.142857142857143Z" clip-rule="evenodd" stroke-width="3.4286"></path>
  </g>
</svg>