<svg xmlns="http://www.w3.org/2000/svg" fill="none" viewBox="0 0 48 48" id="Brightness-3--Streamline-Core-Remix" height="48" width="48">
  <desc>
    Brightness 3 Streamline Icon: https://streamlinehq.com
  </desc>
  <g id="Free Remix/Interface Essential/brightness-3--bright-adjust-brightness-adjustment-sun-raise-controls-dot-small">
    <path id="Union" fill="#000000" fill-rule="evenodd" d="M24 0c1.1834742857142857 0 2.142857142857143 0.9593897142857143 2.142857142857143 2.142857142857143v3.4285714285714284c0 1.1834742857142857 -0.9593828571428571 2.142857142857143 -2.142857142857143 2.142857142857143s-2.142857142857143 -0.9593828571428571 -2.142857142857143 -2.142857142857143v-3.4285714285714284C21.857142857142858 0.9593897142857143 22.816525714285714 0 24 0Zm5.142857142857142 24c0 2.8403314285714285 -2.3025257142857143 5.142857142857142 -5.142857142857142 5.142857142857142S18.857142857142858 26.840331428571428 18.857142857142858 24 21.159668571428572 18.857142857142858 24 18.857142857142858s5.142857142857142 2.3025257142857143 5.142857142857142 5.142857142857142Zm-3 18.428571428571427c0 -1.183542857142857 -0.9593828571428571 -2.142857142857143 -2.142857142857143 -2.142857142857143s-2.142857142857143 0.9593142857142857 -2.142857142857143 2.142857142857143v3.4285714285714284c0 1.183542857142857 0.9593828571428571 2.142857142857143 2.142857142857143 2.142857142857143s2.142857142857143 -0.9593142857142857 2.142857142857143 -2.142857142857143v-3.4285714285714284ZM48 24c0 1.1834742857142857 -0.9593142857142857 2.142857142857143 -2.142857142857143 2.142857142857143h-3.4285714285714284c-1.183542857142857 0 -2.142857142857143 -0.9593828571428571 -2.142857142857143 -2.142857142857143s0.9593142857142857 -2.142857142857143 2.142857142857143 -2.142857142857143h3.4285714285714284c1.183542857142857 0 2.142857142857143 0.9593828571428571 2.142857142857143 2.142857142857143Zm-42.42857142857142 2.142857142857143c1.1834742857142857 0 2.142857142857143 -0.9593828571428571 2.142857142857143 -2.142857142857143s-0.9593828571428571 -2.142857142857143 -2.142857142857143 -2.142857142857143h-3.4285714285714284C0.9593897142857143 21.857142857142858 0 22.816525714285714 0 24s0.9593897142857143 2.142857142857143 2.142857142857143 2.142857142857143h3.4285714285714284Zm1.458 -19.11342857142857c0.8368114285714285 -0.8368457142857142 2.1936 -0.8368457142857142 3.030445714285714 0l2.424377142857143 2.424342857142857c0.8368114285714285 0.8368457142857142 0.8368114285714285 2.1936342857142854 0 3.03048 -0.8368457142857142 0.8368114285714285 -2.1936342857142854 0.8368114285714285 -3.03048 0l-2.424342857142857 -2.424377142857143c-0.8368457142857142 -0.8368457142857142 -0.8368457142857142 -2.1936342857142854 0 -3.030445714285714Zm31.516971428571424 28.48645714285714c-0.8369142857142857 -0.8365714285714285 -2.1936 -0.8365714285714285 -3.0305142857142857 0 -0.8369142857142857 0.8369142857142857 -0.8369142857142857 2.1936 0 3.0305142857142857l2.424342857142857 2.424342857142857c0.8369142857142857 0.8369142857142857 2.1936 0.8369142857142857 3.0305142857142857 0 0.8365714285714285 -0.8365714285714285 0.8365714285714285 -2.1936 0 -3.0305142857142857l-2.424342857142857 -2.424342857142857Zm2.424342857142857 -28.48645714285714c0.8365714285714285 0.8368114285714285 0.8365714285714285 2.1936 0 3.030445714285714l-2.4246857142857143 2.424377142857143c-0.8365714285714285 0.8368114285714285 -2.1936 0.8368114285714285 -3.0301714285714283 0 -0.8369142857142857 -0.8368457142857142 -0.8369142857142857 -2.1936342857142854 0 -3.03048l2.424342857142857 -2.424342857142857c0.8365714285714285 -0.8368457142857142 2.1936 -0.8368457142857142 3.0305142857142857 0ZM12.484182857142857 38.5464c0.8368457142857142 -0.8369142857142857 0.8368457142857142 -2.1936 0 -3.0305142857142857 -0.8368457142857142 -0.8365714285714285 -2.1936 -0.8365714285714285 -3.030445714285714 0l-2.424377142857143 2.424342857142857c-0.8368457142857142 0.8369142857142857 -0.8368457142857142 2.193942857142857 0 3.0305142857142857 0.8368457142857142 0.8369142857142857 2.1936342857142854 0.8369142857142857 3.030445714285714 0l2.424377142857143 -2.424342857142857Z" clip-rule="evenodd" stroke-width="3.4286"></path>
  </g>
</svg>