<svg xmlns="http://www.w3.org/2000/svg" fill="none" viewBox="0 0 48 48" id="Brightness-1--Streamline-Core-Remix" height="48" width="48">
  <desc>
    Brightness 1 Streamline Icon: https://streamlinehq.com
  </desc>
  <g id="Free Remix/Interface Essential/brightness-1--bright-adjust-brightness-adjustment-sun-raise-controls">
    <path id="Union" fill="#000000" fill-rule="evenodd" d="M24 0c1.1834742857142857 0 2.142857142857143 0.9593897142857143 2.142857142857143 2.142857142857143v3.4285714285714284c0 1.1834742857142857 -0.9593828571428571 2.142857142857143 -2.142857142857143 2.142857142857143s-2.142857142857143 -0.9593828571428571 -2.142857142857143 -2.142857142857143v-3.4285714285714284C21.857142857142858 0.9593897142857143 22.816525714285714 0 24 0Zm-0.00003428571428571428 19.292399999999997c-2.599782857142857 0 -4.70736 2.1075771428571426 -4.70736 4.70736 0 2.599782857142857 2.1075771428571426 4.70736 4.70736 4.70736 2.599782857142857 0 4.70736 -2.1075771428571426 4.70736 -4.70736 0 -2.599782857142857 -2.1075771428571426 -4.70736 -4.70736 -4.70736ZM15.006891428571429 23.99976c0 -4.966731428571428 4.026342857142857 -8.993074285714286 8.993074285714286 -8.993074285714286S32.99304 19.03302857142857 32.99304 23.99976 28.966697142857143 32.99283428571428 23.999965714285715 32.99283428571428 15.006891428571429 28.96649142857143 15.006891428571429 23.99976ZM26.142857142857142 42.42857142857142c0 -1.183542857142857 -0.9593828571428571 -2.142857142857143 -2.142857142857143 -2.142857142857143s-2.142857142857143 0.9593142857142857 -2.142857142857143 2.142857142857143v3.4285714285714284c0 1.183542857142857 0.9593828571428571 2.142857142857143 2.142857142857143 2.142857142857143s2.142857142857143 -0.9593142857142857 2.142857142857143 -2.142857142857143v-3.4285714285714284ZM48 24c0 1.1834742857142857 -0.9593142857142857 2.142857142857143 -2.142857142857143 2.142857142857143h-3.4285714285714284c-1.183542857142857 0 -2.142857142857143 -0.9593828571428571 -2.142857142857143 -2.142857142857143s0.9593142857142857 -2.142857142857143 2.142857142857143 -2.142857142857143h3.4285714285714284c1.183542857142857 0 2.142857142857143 0.9593828571428571 2.142857142857143 2.142857142857143Zm-42.42857142857142 2.142857142857143c1.1834742857142857 0 2.142857142857143 -0.9593828571428571 2.142857142857143 -2.142857142857143s-0.9593828571428571 -2.142857142857143 -2.142857142857143 -2.142857142857143h-3.4285714285714284C0.9593897142857143 21.857142857142858 0 22.816525714285714 0 24s0.9593897142857143 2.142857142857143 2.142857142857143 2.142857142857143h3.4285714285714284Zm1.458 -19.11342857142857c0.8368114285714285 -0.8368457142857142 2.1936 -0.8368457142857142 3.030445714285714 0l2.424377142857143 2.424342857142857c0.8368114285714285 0.8368457142857142 0.8368114285714285 2.1936342857142854 0 3.03048 -0.8368457142857142 0.8368114285714285 -2.1936342857142854 0.8368114285714285 -3.03048 0l-2.424342857142857 -2.424377142857143c-0.8368457142857142 -0.8368457142857142 -0.8368457142857142 -2.1936342857142854 0 -3.030445714285714Zm31.516971428571424 28.48645714285714c-0.8369142857142857 -0.8365714285714285 -2.1936 -0.8365714285714285 -3.0305142857142857 0 -0.8369142857142857 0.8369142857142857 -0.8369142857142857 2.1936 0 3.0305142857142857l2.424342857142857 2.424342857142857c0.8369142857142857 0.8369142857142857 2.1936 0.8369142857142857 3.0305142857142857 0 0.8365714285714285 -0.8365714285714285 0.8365714285714285 -2.1936 0 -3.0305142857142857l-2.424342857142857 -2.424342857142857Zm2.424342857142857 -28.48645714285714c0.8365714285714285 0.8368114285714285 0.8365714285714285 2.1936 0 3.030445714285714l-2.4246857142857143 2.424377142857143c-0.8365714285714285 0.8368114285714285 -2.1936 0.8368114285714285 -3.0301714285714283 0 -0.8369142857142857 -0.8368457142857142 -0.8369142857142857 -2.1936342857142854 0 -3.03048l2.424342857142857 -2.424342857142857c0.8365714285714285 -0.8368457142857142 2.1936 -0.8368457142857142 3.0305142857142857 0ZM12.484182857142857 38.5464c0.8368457142857142 -0.8369142857142857 0.8368457142857142 -2.1936 0 -3.0305142857142857 -0.8368457142857142 -0.8365714285714285 -2.1936 -0.8365714285714285 -3.030445714285714 0l-2.424377142857143 2.424342857142857c-0.8368457142857142 0.8369142857142857 -0.8368457142857142 2.193942857142857 0 3.0305142857142857 0.8368457142857142 0.8369142857142857 2.1936342857142854 0.8369142857142857 3.030445714285714 0l2.424377142857143 -2.424342857142857Z" clip-rule="evenodd" stroke-width="3.4286"></path>
  </g>
</svg>