<svg xmlns="http://www.w3.org/2000/svg" fill="none" viewBox="0 0 48 48" id="Broken-Link-2--Streamline-Core-Remix" height="48" width="48">
  <desc>
    Broken Link 2 Streamline Icon: https://streamlinehq.com
  </desc>
  <g id="Free Remix/Interface Essential/broken-link-2--break-broken-hyperlink-link-remove-unlink-chain">
    <path id="Union" fill="#000000" fill-rule="evenodd" d="M0.6265611428571428 0.6259371428571429c0.8368388571428571 -0.8368371428571428 2.1936205714285713 -0.8368405714285714 3.0304559999999996 -0.00000342857142857143L23.091462857142854 20.060399999999998l5.34192 -5.34192c1.33896 -1.33896 3.5097942857142854 -1.33896 4.848754285714286 0 1.3388914285714286 1.338925714285714 1.3388914285714286 3.5097942857142854 0 4.848719999999999L27.94021714285714 24.909119999999998l19.435439999999996 19.435679999999998c0.8369142857142857 0.8365714285714285 0.8369142857142857 2.1936 0 3.0301714285714283 -0.8369142857142857 0.8369142857142857 -2.1936 0.8369142857142857 -3.0305142857142857 0L0.6265645714285714 3.6563999999999997C-0.2102718857142857 2.8195577142857142 -0.21027497142857143 1.4627759999999999 0.6265611428571428 0.6259371428571429ZM24.352354285714284 43.82194285714285c-5.570708571428571 5.570742857142857 -14.602628571428571 5.570742857142857 -20.173337142857143 0s-5.570701714285714 -14.602594285714284 0 -20.173302857142858l3.4285714285714284 -3.4285714285714284c0.8368457142857142 -0.8368457142857142 2.1936342857142854 -0.8368457142857142 3.03048 0 0.8368114285714285 0.8368457142857142 0.8368114285714285 2.1936 0 3.030445714285714l-3.4286057142857143 3.4285714285714284c-3.897017142857143 3.897051428571429 -3.897017142857143 10.21542857142857 0 14.112342857142858 3.897051428571429 3.8972571428571428 10.215394285714286 3.8972571428571428 14.112411428571427 0l3.4285714285714284 -3.4285714285714284c0.8368457142857142 -0.8369142857142857 2.1936342857142854 -0.8369142857142857 3.030445714285714 0 0.8368457142857142 0.8369142857142857 0.8368457142857142 2.1936 0 3.0305142857142857l-3.428537142857143 3.4285714285714284ZM43.82228571428571 4.1780228571428575c-5.570742857142857 -5.570722285714286 -14.602697142857142 -5.570712 -20.173405714285714 0l-4.285714285714286 4.285714285714286c-0.8368457142857142 0.8368114285714285 -0.8368457142857142 2.1936 0 3.030445714285714 0.8368457142857142 0.8368457142857142 2.1936342857142854 0.8368457142857142 3.03048 0l4.285679999999999 -4.285714285714286c3.897051428571429 -3.8970274285714286 10.215531428571428 -3.8970308571428567 14.112445714285714 0 3.8969142857142858 3.897017142857143 3.8969142857142858 10.21536 0 14.112411428571427l-4.285714285714286 4.285714285714286c-0.8369142857142857 0.8368114285714285 -0.8369142857142857 2.1936 0 3.030445714285714 0.8369142857142857 0.8368457142857142 2.1936 0.8368457142857142 3.0305142857142857 0l4.285714285714286 -4.285714285714286c5.570742857142857 -5.570708571428571 5.570742857142857 -14.602594285714284 0 -20.173302857142858ZM14.719645714285715 28.43273142857143c-1.33896 1.338925714285714 -1.3389942857142856 3.5097599999999995 -0.00006857142857142857 4.848719999999999 1.338925714285714 1.3388914285714286 3.5097942857142854 1.3388914285714286 4.848719999999999 0.00006857142857142857l2.5408114285714283 -2.5407085714285715 -4.848685714285714 -4.848788571428572 -2.540777142857143 2.5407085714285715Z" clip-rule="evenodd" stroke-width="3.4286"></path>
  </g>
</svg>