<svg xmlns="http://www.w3.org/2000/svg" fill="none" viewBox="0 0 48 48" id="Browser-Multiple-Window--Streamline-Core-Remix" height="48" width="48">
  <desc>
    Browser Multiple Window Streamline Icon: https://streamlinehq.com
  </desc>
  <g id="Free Remix/Programming/Programming/Browser/browser-multiple-window--app-code-apps-two-window-cascade">
    <path id="Union" fill="#000000" fill-rule="evenodd" d="M12.428571428571427 12V17.142857142857142c0 1.1834742857142857 -0.9593828571428571 2.142857142857143 -2.142857142857143 2.142857142857143S8.142857142857142 18.32633142857143 8.142857142857142 17.142857142857142V5.571428571428571c0 -1.477645714285714 0.5869714285714285 -2.894749714285714 1.6318285714285712 -3.939596571428571C10.819542857142856 0.5869885714285714 12.23664 0 13.714285714285714 0h28.71428571428571c1.4777142857142855 0 2.894742857142857 0.5869885714285714 3.9394285714285715 1.631832C47.41302857142857 2.676678857142857 48 4.093782857142857 48 5.571428571428571V32.57142857142857c0 1.477645714285714 -0.5869714285714285 2.894742857142857 -1.632 3.9394285714285715 -1.0446857142857142 1.0450285714285714 -2.4617142857142853 1.632 -3.9394285714285715 1.632H37.714285714285715c-1.183542857142857 0 -2.142857142857143 -0.9593142857142857 -2.142857142857143 -2.142857142857143s0.9593142857142857 -2.142857142857143 2.142857142857143 -2.142857142857143h4.714285714285714c0.34114285714285714 0 0.6678857142857143 -0.13546285714285713 0.9092571428571428 -0.37659428571428566 0.24102857142857143 -0.24109714285714282 0.3764571428571428 -0.5681142857142857 0.3764571428571428 -0.9091199999999999v-20.57142857142857H12.428571428571427ZM4.285714285714286 42.42857142857142V34.285714285714285h22.71428571428571v8.142857142857142c0 0.7100571428571428 -0.5756228571428571 1.2857142857142856 -1.2857142857142856 1.2857142857142856H5.571428571428571c-0.7100914285714285 0 -1.2857142857142856 -0.5756571428571428 -1.2857142857142856 -1.2857142857142856ZM0 29.142857142857142c0 -3.0770057142857143 2.494412571428571 -5.571428571428571 5.571428571428571 -5.571428571428571H25.71428571428571c3.0770057142857143 0 5.571428571428571 2.494422857142857 5.571428571428571 5.571428571428571v13.285714285714285C31.285714285714285 45.505714285714284 28.79129142857143 48 25.71428571428571 48H5.571428571428571C2.494412571428571 48 0 45.505714285714284 0 42.42857142857142V29.142857142857142Z" clip-rule="evenodd" stroke-width="3.4286"></path>
  </g>
</svg>