<svg xmlns="http://www.w3.org/2000/svg" fill="none" viewBox="0 0 48 48" id="Browser-Add--Streamline-Core-Remix" height="48" width="48">
  <desc>
    Browser Add Streamline Icon: https://streamlinehq.com
  </desc>
  <g id="Free Remix/Programming/Programming/Browser/browser-add--app-code-apps-add-window-plus">
    <path id="Union" fill="#000000" fill-rule="evenodd" d="M5.571428571428571 12.063051428571429v29.343462857142857c0 0.5643428571428571 0.45754285714285714 1.0220571428571428 1.0219885714285715 1.0220571428571428H41.40651428571429c0.5643428571428571 0 1.0220571428571428 -0.45771428571428574 1.0220571428571428 -1.0220571428571428V12.063051428571429H5.571428571428571ZM6.593417142857142 1.2857142857142856C3.662057142857143 1.2857142857142856 1.2857142857142856 3.662057142857143 1.2857142857142856 6.593417142857142V41.40651428571429c0 2.931428571428571 2.3763428571428573 5.307771428571429 5.307702857142856 5.307771428571429H41.40651428571429c2.931428571428571 0 5.307771428571429 -2.3763428571428573 5.307771428571429 -5.307771428571429V6.593417142857142c0 -2.9313599999999997 -2.3763428571428573 -5.307702857142856 -5.307771428571429 -5.307702857142856H6.593417142857142ZM26.57142857142857 18.857142857142858c0 -1.4201485714285715 -1.1512799999999999 -2.571428571428571 -2.571428571428571 -2.571428571428571s-2.571428571428571 1.1512799999999999 -2.571428571428571 2.571428571428571v6H15.428571428571427c-1.4201485714285715 0 -2.571428571428571 1.1512799999999999 -2.571428571428571 2.571428571428571s1.1512799999999999 2.571428571428571 2.571428571428571 2.571428571428571h6v6c0 1.4201142857142857 1.1512799999999999 2.571428571428571 2.571428571428571 2.571428571428571s2.571428571428571 -1.1513142857142855 2.571428571428571 -2.571428571428571V30H32.57142857142857c1.4201485714285715 0 2.571428571428571 -1.1512799999999999 2.571428571428571 -2.571428571428571s-1.1512799999999999 -2.571428571428571 -2.571428571428571 -2.571428571428571H26.57142857142857V18.857142857142858Z" clip-rule="evenodd" stroke-width="3.4286"></path>
  </g>
</svg>