<svg xmlns="http://www.w3.org/2000/svg" fill="none" viewBox="0 0 48 48" id="Browser-Build--Streamline-Core-Remix" height="48" width="48">
  <desc>
    Browser Build Streamline Icon: https://streamlinehq.com
  </desc>
  <g id="Free Remix/Programming/Programming/Browser/browser-build--build-website-development-window-code-web-backend-browser-dev">
    <path id="Union" fill="#000000" fill-rule="evenodd" d="M5.571428571428571 12.063051428571429v29.343462857142857c0 0.5643428571428571 0.45754285714285714 1.0220571428571428 1.0219885714285715 1.0220571428571428H41.40651428571429c0.5643428571428571 0 1.0220571428571428 -0.45771428571428574 1.0220571428571428 -1.0220571428571428V27.857142857142854H18.857142857142858c-1.1834742857142857 0 -2.142857142857143 -0.9593828571428571 -2.142857142857143 -2.142857142857143V12.063051428571429h-11.142857142857142ZM6.593417142857142 1.2857142857142856C3.662057142857143 1.2857142857142856 1.2857142857142856 3.662057142857143 1.2857142857142856 6.593417142857142V41.40651428571429c0 2.931428571428571 2.3763428571428573 5.307771428571429 5.307702857142856 5.307771428571429H41.40651428571429c2.931428571428571 0 5.307771428571429 -2.3763428571428573 5.307771428571429 -5.307771428571429V25.71428571428571c0 -1.1834742857142857 -0.9593142857142857 -2.142857142857143 -2.142857142857143 -2.142857142857143h-8.142857142857142v-7.7142857142857135h7.285714285714286c1.6566857142857143 0 3 -1.343142857142857 3 -3s-1.3433142857142857 -3 -3 -3h-7.285714285714286V4.285714285714286c0 -1.656853714285714 -1.3433142857142857 -3 -3 -3 -1.6568571428571428 0 -3 1.3431462857142857 -3 3v5.571428571428571h-9.428571428571429V3.4285714285714284c0 -1.1834674285714284 -0.9593828571428571 -2.142857142857143 -2.142857142857143 -2.142857142857143H6.593417142857142ZM30.428571428571427 15.857142857142856h-9.428571428571429v7.7142857142857135h9.428571428571429v-7.7142857142857135Z" clip-rule="evenodd" stroke-width="3.4286"></path>
  </g>
</svg>