<svg xmlns="http://www.w3.org/2000/svg" fill="none" viewBox="0 0 48 48" id="Browser-Wifi--Streamline-Core-Remix" height="48" width="48">
  <desc>
    Browser Wifi Streamline Icon: https://streamlinehq.com
  </desc>
  <g id="Free Remix/Computer Devices/browser-wifi--wireless-wifi-internet-server-network-browser-connection">
    <path id="Union" fill="#000000" fill-rule="evenodd" d="M5.142857142857142 12.063051428571429v29.343462857142857c0 0.8012571428571428 0.64944 1.4506285714285712 1.4505599999999998 1.4506285714285712H41.40651428571429c0.8012571428571428 0 1.4506285714285712 -0.6493714285714286 1.4506285714285712 -1.4506285714285712V12.063051428571429h-37.714285714285715ZM6.593417142857142 1.7142857142857142C3.8987314285714283 1.7142857142857142 1.7142857142857142 3.8987314285714283 1.7142857142857142 6.593417142857142V41.40651428571429c0 2.694857142857143 2.184445714285714 4.8792 4.879131428571428 4.8792H41.40651428571429c2.694857142857143 0 4.8792 -2.184342857142857 4.8792 -4.8792V6.593417142857142C46.285714285714285 3.8987314285714283 44.101371428571426 1.7142857142857142 41.40651428571429 1.7142857142857142H6.593417142857142Zm27.719382857142858 23.543794285714284c-5.677577142857143 -5.67744 -14.949359999999999 -5.67744 -20.6268 0 -0.8368457142857142 0.8368457142857142 -2.1936342857142854 0.8368457142857142 -3.03048 0 -0.8368114285714285 -0.8368457142857142 -0.8368114285714285 -2.1936 0 -3.030445714285714 7.351131428571429 -7.351131428571429 19.336491428571428 -7.351131428571429 26.687451428571425 0 0.8369142857142857 0.8368457142857142 0.8369142857142857 2.1936 0 3.030445714285714 -0.8365714285714285 0.8368457142857142 -2.1936 0.8368457142857142 -3.0301714285714283 0ZM19.875154285714284 30.51346285714286c2.1070285714285713 -2.107062857142857 5.796891428571429 -2.107062857142857 7.903919999999999 0 0.8368457142857142 0.8368114285714285 2.1936342857142854 0.8368114285714285 3.03048 0 0.8368457142857142 -0.8368457142857142 0.8368457142857142 -2.1936342857142854 0 -3.03048 -3.78072 -3.780685714285714 -10.184125714285713 -3.780685714285714 -13.964845714285714 0 -0.8368457142857142 0.8368457142857142 -0.8368457142857142 2.1936342857142854 0 3.03048 0.8368457142857142 0.8368114285714285 2.1936 0.8368114285714285 3.030445714285714 0Zm0.9541028571428571 5.649051428571428c0 1.6566857142857143 1.343142857142857 3 3 3 1.6568228571428572 0 3 -1.3433142857142857 3 -3 0 -1.6570285714285713 -1.3431771428571428 -3.0001371428571426 -3 -3.0001371428571426 -1.6568571428571428 0 -3 1.3431085714285713 -3 3.0001371428571426Z" clip-rule="evenodd" stroke-width="3.4286"></path>
  </g>
</svg>