<svg xmlns="http://www.w3.org/2000/svg" fill="none" viewBox="0 0 48 48" id="Browser-Delete--Streamline-Core-Remix" height="48" width="48">
  <desc>
    Browser Delete Streamline Icon: https://streamlinehq.com
  </desc>
  <g id="Free Remix/Programming/Programming/Browser/browser-delete--app-code-apps-fail-delete-window-remove-cross">
    <path id="Union" fill="#000000" fill-rule="evenodd" d="M5.571428571428571 12.063051428571429v29.343462857142857c0 0.5643428571428571 0.45754285714285714 1.0220571428571428 1.0219885714285715 1.0220571428571428H41.40651428571429c0.5643428571428571 0 1.0220571428571428 -0.45771428571428574 1.0220571428571428 -1.0220571428571428V12.063051428571429H5.571428571428571ZM6.593417142857142 1.2857142857142856C3.662057142857143 1.2857142857142856 1.2857142857142856 3.662057142857143 1.2857142857142856 6.593417142857142V41.40651428571429c0 2.931428571428571 2.3763428571428573 5.307771428571429 5.307702857142856 5.307771428571429H41.40651428571429c2.931428571428571 0 5.307771428571429 -2.3763428571428573 5.307771428571429 -5.307771428571429V6.593417142857142c0 -2.9313599999999997 -2.3763428571428573 -5.307702857142856 -5.307771428571429 -5.307702857142856H6.593417142857142Zm12.367714285714285 17.46744c-1.0041942857142856 -1.0041942857142856 -2.6323542857142854 -1.0041942857142856 -3.636548571428571 0s-1.0041942857142856 2.6323542857142854 0 3.636548571428571L20.363451428571427 27.428571428571427 15.324582857142856 32.46744c-1.0041942857142856 1.0041942857142856 -1.0041942857142856 2.632217142857143 0 3.636445714285714 1.0041942857142856 1.0042285714285712 2.6323542857142854 1.0042285714285712 3.636548571428571 0L24 31.06512l5.038868571428571 5.038765714285714c1.0041942857142856 1.0042285714285712 2.6323542857142854 1.0042285714285712 3.636548571428571 0s1.0041942857142856 -2.6322514285714282 0 -3.636445714285714L27.63654857142857 27.428571428571427l5.038868571428571 -5.038868571428571c1.0041942857142856 -1.0041942857142856 1.0041942857142856 -2.6323542857142854 0 -3.636548571428571s-2.6323542857142854 -1.0041942857142856 -3.636548571428571 0L24 23.792022857142854 18.961131428571427 18.753154285714285Z" clip-rule="evenodd" stroke-width="3.4286"></path>
  </g>
</svg>