<svg xmlns="http://www.w3.org/2000/svg" fill="none" viewBox="0 0 48 48" id="Browser-Check--Streamline-Core-Remix" height="48" width="48">
  <desc>
    Browser Check Streamline Icon: https://streamlinehq.com
  </desc>
  <g id="Free Remix/Programming/Programming/Browser/browser-check--checkmark-pass-window-app-code-success-check-apps">
    <path id="Union" fill="#000000" fill-rule="evenodd" d="M5.571428571428571 12.063051428571429v29.343462857142857c0 0.5643428571428571 0.45754285714285714 1.0220571428571428 1.0219885714285715 1.0220571428571428H41.40651428571429c0.5643428571428571 0 1.0220571428571428 -0.45771428571428574 1.0220571428571428 -1.0220571428571428V12.063051428571429H5.571428571428571ZM6.593417142857142 1.2857142857142856C3.662057142857143 1.2857142857142856 1.2857142857142856 3.662057142857143 1.2857142857142856 6.593417142857142V41.40651428571429c0 2.931428571428571 2.3763428571428573 5.307771428571429 5.307702857142856 5.307771428571429H41.40651428571429c2.931428571428571 0 5.307771428571429 -2.3763428571428573 5.307771428571429 -5.307771428571429V6.593417142857142c0 -2.9313599999999997 -2.3763428571428573 -5.307702857142856 -5.307771428571429 -5.307702857142856H6.593417142857142Zm28.52852571428571 17.350525714285713c1.0686857142857142 0.9351771428571428 1.1770285714285713 2.5597028571428573 0.24205714285714283 3.6284914285714285L23.363862857142855 35.97908571428571c-0.8857371428571429 1.0121142857142857 -2.4019542857142855 1.1708571428571428 -3.478045714285714 0.3637714285714285l-6.857142857142857 -5.142857142857142c-1.1361257142857142 -0.852102857142857 -1.3663885714285713 -2.4638742857142857 -0.5142857142857142 -3.6 0.852102857142857 -1.1361257142857142 2.4638742857142857 -1.3663885714285713 3.6 -0.5142857142857142l4.9494171428571425 3.7120457142857144L31.493485714285715 18.878125714285712c0.9351771428571428 -1.0687885714285714 2.5597028571428573 -1.1770628571428572 3.6284571428571426 -0.2418857142857143Z" clip-rule="evenodd" stroke-width="3.4286"></path>
  </g>
</svg>