<svg xmlns="http://www.w3.org/2000/svg" fill="none" viewBox="0 0 48 48" id="Browser-Block--Streamline-Core-Remix" height="48" width="48">
  <desc>
    Browser Block Streamline Icon: https://streamlinehq.com
  </desc>
  <g id="Free Remix/Programming/Programming/Browser/browser-block--block-access-denied-window-browser-privacy-remove">
    <path id="Union" fill="#000000" fill-rule="evenodd" d="M5.571428571428571 12.063051428571429v29.343462857142857c0 0.5643428571428571 0.45754285714285714 1.0220571428571428 1.0219885714285715 1.0220571428571428H41.40651428571429c0.5643428571428571 0 1.0220571428571428 -0.45771428571428574 1.0220571428571428 -1.0220571428571428V12.063051428571429H5.571428571428571ZM6.593417142857142 1.2857142857142856C3.662057142857143 1.2857142857142856 1.2857142857142856 3.662057142857143 1.2857142857142856 6.593417142857142V41.40651428571429c0 2.931428571428571 2.3763428571428573 5.307771428571429 5.307702857142856 5.307771428571429H41.40651428571429c2.931428571428571 0 5.307771428571429 -2.3763428571428573 5.307771428571429 -5.307771428571429V6.593417142857142c0 -2.9313599999999997 -2.3763428571428573 -5.307702857142856 -5.307771428571429 -5.307702857142856H6.593417142857142Zm17.406685714285715 14.571428571428571c-6.39072 0 -11.571428571428571 5.180708571428571 -11.571428571428571 11.571428571428571s5.180708571428571 11.571428571428571 11.571428571428571 11.571428571428571c3.1785942857142855 0 6.05784 -1.2816 8.1492 -3.3562285714285713l0.033737142857142854 -0.03325714285714285 0.033222857142857144 -0.03394285714285714C34.29051428571429 33.48545142857143 35.57142857142857 30.60665142857143 35.57142857142857 27.428571428571427c0 -6.39072 -5.180605714285714 -11.571428571428571 -11.571325714285713 -11.571428571428571Zm6.440502857142857 14.98062857142857c0.5395885714285714 -1.0171885714285713 0.8452114285714285 -2.17752 0.8452114285714285 -3.4092 0 -4.023771428571428 -3.261908571428571 -7.285714285714286 -7.285714285714286 -7.285714285714286 -1.2316799999999999 0 -2.3920114285714287 0.30562285714285714 -3.4092 0.8452114285714285l9.849702857142857 9.849702857142857ZM17.560182857142856 24.018274285714284c-0.5399314285714286 1.0174628571428572 -0.8457942857142856 2.1781714285714284 -0.8457942857142856 3.410297142857143 0 4.023771428571428 3.261942857142857 7.285714285714286 7.285714285714286 7.285714285714286 1.2321257142857143 0 2.3928342857142857 -0.3058285714285714 3.410297142857143 -0.8457942857142856L17.560182857142856 24.018274285714284Z" clip-rule="evenodd" stroke-width="3.4286"></path>
  </g>
</svg>