<svg xmlns="http://www.w3.org/2000/svg" fill="none" viewBox="0 0 48 48" id="Browser-Hash--Streamline-Core-Remix" height="48" width="48">
  <desc>
    Browser Hash Streamline Icon: https://streamlinehq.com
  </desc>
  <g id="Free Remix/Programming/Programming/Browser/browser-hash--window-hash-code-internet-language-browser-web-tag">
    <path id="Union" fill="#000000" fill-rule="evenodd" d="M5.571428571428571 12.063051428571429v29.343462857142857c0 0.5643428571428571 0.45754285714285714 1.0220571428571428 1.0219885714285715 1.0220571428571428H41.40651428571429c0.5643428571428571 0 1.0220571428571428 -0.45771428571428574 1.0220571428571428 -1.0220571428571428V12.063051428571429H5.571428571428571ZM6.593417142857142 1.2857142857142856C3.662057142857143 1.2857142857142856 1.2857142857142856 3.662057142857143 1.2857142857142856 6.593417142857142V41.40651428571429c0 2.931428571428571 2.3763428571428573 5.307771428571429 5.307702857142856 5.307771428571429H41.40651428571429c2.931428571428571 0 5.307771428571429 -2.3763428571428573 5.307771428571429 -5.307771428571429V6.593417142857142c0 -2.9313599999999997 -2.3763428571428573 -5.307702857142856 -5.307771428571429 -5.307702857142856H6.593417142857142Zm17.876605714285713 17.747862857142856c0.38362285714285715 -1.1195657142857143 -0.21301714285714285 -2.3381485714285715 -1.332582857142857 -2.7217371428571426 -1.1196 -0.3835885714285714 -2.3381485714285715 0.21301714285714285 -2.7217371428571426 1.332617142857143l-1.1069142857142857 3.230605714285714h-4.651885714285714c-1.1834742857142857 0 -2.142857142857143 0.9593828571428571 -2.142857142857143 2.142857142857143s0.9593828571428571 2.142857142857143 2.142857142857143 2.142857142857143h3.1834628571428567L16.107634285714283 30.218057142857138h-3.0078514285714286c-1.1834742857142857 0 -2.142857142857143 0.9593828571428571 -2.142857142857143 2.142857142857143s0.9593828571428571 2.142857142857143 2.142857142857143 2.142857142857143h1.5394285714285714l-0.45222857142857137 1.32c-0.3835885714285714 1.1194285714285714 0.21301714285714285 2.3379428571428567 1.332582857142857 2.7215999999999996 1.1196 0.3836571428571428 2.3381485714285715 -0.21291428571428572 2.7217371428571426 -1.3326857142857143l0.9282171428571429 -2.7089142857142856h4.8127885714285705l-0.45222857142857137 1.32c-0.38362285714285715 1.1194285714285714 0.21301714285714285 2.3379428571428567 1.332582857142857 2.7215999999999996s2.3381485714285715 -0.21291428571428572 2.7217371428571426 -1.3326857142857143l0.9281828571428572 -2.7089142857142856h4.830548571428571c1.1836114285714285 0 2.142925714285714 -0.9593828571428571 2.142925714285714 -2.142857142857143s-0.9593142857142857 -2.142857142857143 -2.142925714285714 -2.142857142857143h-3.3621257142857144l1.7327657142857142 -5.0572799999999996h3.186342857142857c1.183542857142857 0 2.142857142857143 -0.9593828571428571 2.142857142857143 -2.142857142857143s-0.9593142857142857 -2.142857142857143 -2.142857142857143 -2.142857142857143h-1.7179542857142858l0.63096 -1.8414857142857142c0.3835885714285714 -1.1195657142857143 -0.21301714285714285 -2.3381485714285715 -1.332617142857143 -2.7217371428571426 -1.1195657142857143 -0.3835885714285714 -2.3381142857142856 0.21301714285714285 -2.7217371428571426 1.332617142857143l-1.10688 3.230605714285714H23.839097142857142l0.6309257142857142 -1.8414857142857142Zm0.9806742857142857 11.184479999999999 1.7327657142857142 -5.0572799999999996H22.370674285714284L20.637908571428568 30.218057142857138h4.8127885714285705Z" clip-rule="evenodd" stroke-width="3.4286"></path>
  </g>
</svg>