<svg xmlns="http://www.w3.org/2000/svg" fill="none" viewBox="0 0 48 48" id="Browser-Lock--Streamline-Core-Remix" height="48" width="48">
  <desc>
    Browser Lock Streamline Icon: https://streamlinehq.com
  </desc>
  <g id="Free Remix/Programming/Programming/Browser/browser-lock--secure-password-window-browser-lock-security-login-encryption">
    <path id="Union" fill="#000000" fill-rule="evenodd" d="M5.571428571428571 12.063051428571429v29.343462857142857c0 0.5643428571428571 0.45754285714285714 1.0220571428571428 1.0219885714285715 1.0220571428571428H41.40651428571429c0.5643428571428571 0 1.0220571428571428 -0.45771428571428574 1.0220571428571428 -1.0220571428571428V12.063051428571429H5.571428571428571ZM6.593417142857142 1.2857142857142856C3.662057142857143 1.2857142857142856 1.2857142857142856 3.662057142857143 1.2857142857142856 6.593417142857142V41.40651428571429c0 2.931428571428571 2.3763428571428573 5.307771428571429 5.307702857142856 5.307771428571429H41.40651428571429c2.931428571428571 0 5.307771428571429 -2.3763428571428573 5.307771428571429 -5.307771428571429V6.593417142857142c0 -2.9313599999999997 -2.3763428571428573 -5.307702857142856 -5.307771428571429 -5.307702857142856H6.593417142857142ZM21.428571428571427 22.71428571428571c0 -1.4201485714285715 1.1512799999999999 -2.571428571428571 2.571428571428571 -2.571428571428571s2.571428571428571 1.1512799999999999 2.571428571428571 2.571428571428571v2.142857142857143h-5.142857142857142v-2.142857142857143ZM17.142857142857142 24.965142857142858V22.71428571428571c0 -3.7870971428571427 3.070045714285714 -6.857142857142857 6.857142857142857 -6.857142857142857s6.857142857142857 3.070045714285714 6.857142857142857 6.857142857142857v2.2508571428571424c1.4787771428571428 0.38064 2.571428571428571 1.7229942857142855 2.571428571428571 3.3205714285714283v6.857142857142857c0 1.8936 -1.53504 3.4285714285714284 -3.4285714285714284 3.4285714285714284h-12c-1.8935314285714284 0 -3.4285714285714284 -1.5349714285714284 -3.4285714285714284 -3.4285714285714284v-6.857142857142857c0 -1.5975771428571428 1.0926514285714284 -2.939965714285714 2.571428571428571 -3.3205714285714283Z" clip-rule="evenodd" stroke-width="3.4286"></path>
  </g>
</svg>