<svg xmlns="http://www.w3.org/2000/svg" fill="none" viewBox="0 0 48 48" id="Bug-Antivirus-Shield--Streamline-Core-Remix" height="48" width="48">
  <desc>
    Bug Antivirus Shield Streamline Icon: https://streamlinehq.com
  </desc>
  <g id="Free Remix/Programming/Programming/Bugs/bug-antivirus-shield--code-bug-security-programming-secure-computer-antivirus-shield-protection-malware">
    <path id="Union" fill="#000000" fill-rule="evenodd" d="M43.352914285714284 4.644274285714285c-0.2297142857142857 -0.23098285714285713 -0.5389714285714285 -0.35856 -0.8585142857142857 -0.35856H5.50512c-0.31961142857142855 0 -0.6285942857142857 0.12757714285714286 -0.8583085714285714 0.35856 -0.23009142857142856 0.2313942857142857 -0.3615085714285714 0.5477828571428571 -0.3615085714285714 0.8801828571428572v9.872571428571428c0.005039999999999999 6.116091428571428 1.8505028571428572 12.08646857142857 5.292308571428571 17.126057142857142 3.441702857142857 5.039314285714285 8.317954285714286 8.911542857142857 13.986274285714284 11.109257142857142l-0.77544 2.0002285714285715 0.7759885714285714 -1.9998857142857143c0.28035428571428567 0.10868571428571427 0.5903657142857143 0.10868571428571427 0.87072 0l0.7759885714285714 1.9998857142857143 -0.77544 -2.0002285714285715c5.66832 -2.1977142857142855 10.54464 -6.069942857142856 13.986239999999999 -11.109257142857142 3.4415999999999998 -5.039314285714285 5.2871999999999995 -11.009314285714286 5.292342857142857 -17.12509714285714V5.524457142857142c0 -0.3324 -0.13131428571428572 -0.6487885714285714 -0.3613714285714285 -0.8801828571428572ZM6.038502857142857 34.94022857142857c3.9284571428571424 5.752114285714285 9.497211428571429 10.176 15.97553142857143 12.687771428571429l0.0005142857142857142 0.00034285714285714285c1.2776228571428572 0.4957714285714286 2.6934514285714286 0.4954285714285714 3.971005714285714 -0.00034285714285714285 6.47832 -2.5117714285714285 12.047245714285713 -6.935657142857142 15.97536 -12.687771428571429C45.88937142857142 29.187942857142854 47.99417142857143 22.37626285714286 48 15.40056V5.524457142857142c0 -1.4612914285714285 -0.5770285714285714 -2.8651611428571426 -1.608342857142857 -3.9021154285714283C45.36 0.5849828571428571 43.9584 0 42.4944 0H5.50512C4.041051428571428 0 2.6394205714285714 0.5849828571428571 1.6078697142857141 1.6223417142857142 0.5767268571428571 2.659296 -0.0004119874285714285 4.063165714285714 -0.0004119874285714285 5.524457142857142v9.876102857142856C0.005332937142857142 22.37626285714286 2.1100559999999997 29.187942857142854 6.038502857142857 34.94022857142857ZM24 12.428571428571427c-2.6036228571428572 0 -4.714285714285714 2.110662857142857 -4.714285714285714 4.714285714285714h9.428571428571429c0 -2.6036228571428572 -2.110662857142857 -4.714285714285714 -4.714285714285714 -4.714285714285714ZM33 17.142857142857142c0 -0.77904 -0.09898285714285714 -1.5349714285714284 -0.28505142857142857 -2.255897142857143l2.6572799999999996 -2.657451428571428c0.8369142857142857 -0.8368457142857142 0.8369142857142857 -2.1936 0 -3.030445714285714 -0.8365714285714285 -0.8368457142857142 -2.193462857142857 -0.8368457142857142 -3.030308571428571 0l-1.782 1.782C28.918251428571427 9.233965714285713 26.58654857142857 8.142857142857142 24 8.142857142857142s-4.918251428571429 1.0911085714285715 -6.55992 2.8382057142857144l-1.782 -1.782c-0.8368457142857142 -0.8368457142857142 -2.1936 -0.8368457142857142 -3.030445714285714 0 -0.8368457142857142 0.8368457142857142 -0.8368457142857142 2.1936 0 3.030445714285714l2.6574171428571427 2.657451428571428C15.098982857142857 15.607885714285713 15 16.36381714285714 15 17.142857142857142v1.2857142857142856H12c-1.1834742857142857 0 -2.142857142857143 0.9593828571428571 -2.142857142857143 2.142857142857143s0.9593828571428571 2.142857142857143 2.142857142857143 2.142857142857143h3V24c0 0.77904 0.09898285714285714 1.5349714285714284 0.28505142857142857 2.255897142857143l-2.6574171428571427 2.657451428571428c-0.8368457142857142 0.8368457142857142 -0.8368457142857142 2.1936 0 3.030445714285714 0.8368457142857142 0.8368457142857142 2.1936 0.8368457142857142 3.030445714285714 0l1.782 -1.782C19.08174857142857 31.90889142857143 21.413451428571427 33 24 33s4.918251428571429 -1.0911085714285715 6.55992 -2.8382057142857144l1.782 1.782c0.8368457142857142 0.8368457142857142 2.1937371428571426 0.8368457142857142 3.030308571428571 0 0.8369142857142857 -0.8368457142857142 0.8369142857142857 -2.1936 0 -3.030445714285714l-2.6572799999999996 -2.657451428571428C32.90101714285714 25.534971428571428 33 24.77904 33 24v-1.2857142857142856h3c1.183542857142857 0 2.142857142857143 -0.9593828571428571 2.142857142857143 -2.142857142857143s-0.9593142857142857 -2.142857142857143 -2.142857142857143 -2.142857142857143h-3V17.142857142857142Z" clip-rule="evenodd" stroke-width="3.4286"></path>
  </g>
</svg>