<svg xmlns="http://www.w3.org/2000/svg" fill="none" viewBox="0 0 48 48" id="Bug-Antivirus-Debugging--Streamline-Core-Remix" height="48" width="48">
  <desc>
    Bug Antivirus Debugging Streamline Icon: https://streamlinehq.com
  </desc>
  <g id="Free Remix/Programming/Programming/Bugs/bug-antivirus-debugging--code-bug-security-programming-secure-computer-antivirus-block-protection-malware-debugging">
    <path id="Union" fill="#000000" fill-rule="evenodd" d="M24.00006857142857 4.285714285714286c-4.671977142857142 0 -8.964445714285715 1.6248685714285713 -12.343131428571429 4.340365714285714l4.570937142857143 4.570937142857143c0.06452571428571428 -0.06802285714285713 0.13004571428571426 -0.13525714285714285 0.19649142857142857 -0.20173714285714286 2.0093142857142854 -2.0093142857142854 4.734548571428571 -3.138137142857143 7.57614857142857 -3.138137142857143 2.8415999999999997 0 5.566834285714286 1.128822857142857 7.57614857142857 3.138137142857143 0.06641142857142857 0.06641142857142857 0.1318285714285714 0.13357714285714287 0.19632 0.20153142857142856l1.4263199999999998 -1.4263199999999998c0.8368457142857142 -0.8368457142857142 2.1934971428571424 -0.8368457142857142 3.0304114285714285 0 0.8369142857142857 0.8368457142857142 0.8369142857142857 2.1936 0 3.030445714285714l-2.146422857142857 2.146457142857143c0.41396571428571427 1.1517942857142858 0.6316799999999999 2.3766857142857143 0.6316799999999999 3.6240342857142855v1.2857142857142856h2.9996571428571426c1.183542857142857 0 2.142857142857143 0.9593828571428571 2.142857142857143 2.142857142857143s-0.9593142857142857 2.142857142857143 -2.142857142857143 2.142857142857143h-2.9996571428571426V27.428571428571427c0 1.2473142857142856 -0.2177142857142857 2.4722057142857143 -0.6316457142857143 3.6238971428571425l5.29416 5.29416c2.7154285714285713 -3.3787542857142854 4.340228571428571 -7.6712228571428565 4.340228571428571 -12.3432 0 -10.889794285714286 -8.827885714285715 -19.717714285714287 -19.717645714285712 -19.717714285714287Zm-19.717714285714287 19.717714285714287c0 -4.673931428571428 1.62624 -8.968011428571428 4.343725714285714 -12.347314285714285l27.72123428571428 27.721371428571427c-3.3792342857142854 2.717485714285714 -7.673348571428571 4.343657142857142 -12.347245714285714 4.343657142857142 -10.889794285714286 0 -19.717714285714287 -8.827885714285715 -19.717714285714287 -19.717714285714287Zm-4.285702498285714 0C-0.0033482125714285713 10.746685714285714 10.74336 0 24.00006857142857 0 37.25691428571428 0 48.003428571428564 10.746685714285714 48.003428571428564 24.00342857142857c0 13.256571428571426 -10.746514285714285 24.00342857142857 -24.00336 24.00342857142857 -13.256708571428572 0 -24.003416784 -10.746857142857143 -24.003416784 -24.00342857142857ZM17.571839999999998 24c0 -1.1834742857142857 -0.9593828571428571 -2.142857142857143 -2.142857142857143 -2.142857142857143h-5.142857142857142c-1.1834742857142857 0 -2.142857142857143 0.9593828571428571 -2.142857142857143 2.142857142857143s0.9593828571428571 2.142857142857143 2.142857142857143 2.142857142857143h3V27.428571428571427c0 1.24728 0.2174742857142857 2.4721371428571426 0.63144 3.6238628571428566l-2.146662857142857 2.146662857142857c-0.8368457142857142 0.8368457142857142 -0.8368457142857142 2.193702857142857 0 3.0306171428571425 0.8368457142857142 0.8365714285714285 2.1936342857142854 0.8365714285714285 3.030445714285714 0l1.4264914285714285 -1.4266285714285714c0.06452571428571428 0.06788571428571429 0.12997714285714285 0.13508571428571428 0.19642285714285712 0.20159999999999997 2.0093142857142854 2.009485714285714 4.734548571428571 3.1381714285714284 7.57614857142857 3.1381714285714284 0.7250742857142857 0 1.442742857142857 -0.07337142857142856 2.1428914285714282 -0.21634285714285714 1.159542857142857 -0.2369142857142857 1.9076571428571427 -1.3686857142857143 1.6709485714285714 -2.5282285714285715 -0.23670857142857143 -1.1595771428571429 -1.368582857142857 -1.9076914285714284 -2.52816 -1.670982857142857 -0.41993142857142857 0.08571428571428572 -0.8504228571428571 0.12983999999999998 -1.28568 0.12983999999999998 -1.7049599999999998 0 -3.34008 -0.67728 -4.545668571428571 -1.882902857142857C18.249154285714283 30.768651428571427 17.571839999999998 29.133531428571427 17.571839999999998 27.428571428571427V24Z" clip-rule="evenodd" stroke-width="3.4286"></path>
  </g>
</svg>