<svg xmlns="http://www.w3.org/2000/svg" fill="none" viewBox="0 0 48 48" id="Bug-Virus-Browser--Streamline-Core-Remix" height="48" width="48">
  <desc>
    Bug Virus Browser Streamline Icon: https://streamlinehq.com
  </desc>
  <g id="Free Remix/Programming/Programming/Bugs/bug-virus-browser--bug-browser-file-virus-threat-danger-internet">
    <path id="Union" fill="#000000" fill-rule="evenodd" d="M0.0368304 5.571428571428571C0.0368304 2.4961782857142856 2.5281462857142856 0 5.605268571428572 0h33.39884571428571c3.077142857142857 0 5.5683428571428575 2.496174857142857 5.5683428571428575 5.571428571428571V13.714285714285714c0 1.1834742857142857 -0.9593142857142857 2.142857142857143 -2.142857142857143 2.142857142857143s-2.142857142857143 -0.9593828571428571 -2.142857142857143 -2.142857142857143v-1.7142857142857142H4.322537142857143v23.57142857142857c0 0.7117714285714286 0.5760685714285714 1.2857142857142856 1.2827314285714286 1.2857142857142856h5.9850514285714285c1.1834742857142857 0 2.142857142857143 0.9593142857142857 2.142857142857143 2.142857142857143s-0.9593828571428571 2.142857142857143 -2.142857142857143 2.142857142857143H5.605268571428572c-3.0771257142857142 0 -5.5684381714285704 -2.496342857142857 -5.5684381714285704 -5.571428571428571v-30ZM27.598011428571425 25.88286857142857C28.803599999999996 24.67728 30.438719999999996 24 32.143679999999996 24c1.7049942857142857 0 3.3399771428571428 0.67728 4.545805714285714 1.8828685714285716 1.2054857142857143 1.205622857142857 1.8826285714285715 2.8407428571428572 1.8826285714285715 4.5457028571428575H25.71510857142857c0 -1.7049599999999998 0.6773142857142856 -3.34008 1.882902857142857 -4.5457028571428575ZM42.85782857142857 31.71428571428571v-1.2857142857142856c0 -1.2473142857142856 -0.21737142857142855 -2.4722057142857143 -0.6312 -3.6239314285714284l3.4319999999999995 -3.4322742857142856c0.8369142857142857 -0.8368457142857142 0.8369142857142857 -2.1936 0 -3.030445714285714 -0.8365714285714285 -0.8368457142857142 -2.1936 -0.8368457142857142 -3.0301714285714283 0l-2.712342857142857 2.712102857142857c-0.06445714285714285 -0.06798857142857143 -0.12994285714285714 -0.1351885714285714 -0.1961142857142857 -0.20159999999999997 -2.009485714285714 -2.0093142857142854 -4.734857142857143 -3.138137142857143 -7.57632 -3.138137142857143 -2.8415999999999997 0 -5.5668 1.128822857142857 -7.5761142857142865 3.138137142857143 -0.06648 0.06644571428571429 -0.13193142857142856 0.13368 -0.19645714285714283 0.20166857142857142l-2.7121714285714287 -2.7121714285714287c-0.8368457142857142 -0.8368457142857142 -2.1936342857142854 -0.8368457142857142 -3.03048 0 -0.8368457142857142 0.8368457142857142 -0.8368457142857142 2.1936 0 3.030445714285714l3.4323771428571423 3.4323771428571423c-0.41393142857142856 1.1517257142857142 -0.63144 2.3765828571428567 -0.63144 3.6238285714285716v1.2857142857142856h-3c-1.1834399999999998 0 -2.142857142857143 0.9593828571428571 -2.142857142857143 2.142857142857143 0 1.183542857142857 0.9594171428571429 2.142857142857143 2.142857142857143 2.142857142857143h3v1.2857142857142856c0 1.2473142857142856 0.2175085714285714 2.472 0.6314742857142858 3.6239999999999997L18.62845714285714 44.342057142857136c-0.8368457142857142 0.8365714285714285 -0.8368457142857142 2.1936 0 3.0305142857142857 0.8368457142857142 0.8365714285714285 2.1936342857142854 0.8365714285714285 3.03048 0l2.7121714285714287 -2.712342857142857c0.06452571428571428 0.06788571428571429 0.13001142857142858 0.13508571428571428 0.19645714285714283 0.20159999999999997 2.0093142857142854 2.009485714285714 4.734514285714286 3.1381714285714284 7.5761142857142865 3.1381714285714284 2.841462857142857 0 5.566834285714286 -1.1286857142857143 7.57632 -3.1381714285714284 0.06617142857142858 -0.0665142857142857 0.13165714285714283 -0.1337142857142857 0.1961142857142857 -0.20159999999999997l2.712342857142857 2.712342857142857c0.8365714285714285 0.8365714285714285 2.1936 0.8365714285714285 3.0301714285714283 0 0.8369142857142857 -0.8369142857142857 0.8369142857142857 -2.193942857142857 0 -3.0305142857142857l-3.4319999999999995 -3.4323428571428574c0.41382857142857143 -1.1516571428571427 0.6312 -2.3766857142857143 0.6312 -3.6239999999999997V36h3c1.183542857142857 0 2.142857142857143 -0.9593142857142857 2.142857142857143 -2.142857142857143 0 -1.1834742857142857 -0.9593142857142857 -2.142857142857143 -2.142857142857143 -2.142857142857143h-3Z" clip-rule="evenodd" stroke-width="3.4286"></path>
  </g>
</svg>