<svg xmlns="http://www.w3.org/2000/svg" fill="none" viewBox="0 0 48 48" id="Bug-Virus-Document--Streamline-Core-Remix" height="48" width="48">
  <desc>
    Bug Virus Document Streamline Icon: https://streamlinehq.com
  </desc>
  <g id="Free Remix/Programming/Programming/Bugs/bug-virus-document--bug-document-file-virus-threat-danger">
    <path id="Union" fill="#000000" fill-rule="evenodd" d="M4.662274285714286 4.662274285714286c0.24113142857142858 -0.24109714285714282 0.5681485714285713 -0.37655999999999995 0.9091542857142857 -0.37655999999999995h21.39812571428571l10.745074285714287 10.744971428571429C37.73074285714285 16.2 38.683885714285715 17.142857142857142 39.857142857142854 17.142857142857142c1.183542857142857 0 2.142857142857143 -0.9593828571428571 2.142857142857143 -2.142857142857143v-0.8571428571428571c0 -0.5683199999999999 -0.22559999999999997 -1.11336 -0.6277714285714285 -1.515222857142857L29.372365714285714 0.6276274285714285C28.970502857142858 0.2257649142857143 28.425462857142858 0 27.857142857142854 0h-22.285714285714285C4.093782857142857 0 2.676678857142857 0.5869885714285714 1.631832 1.631832 0.5869885714285714 2.676678857142857 0 4.093782857142857 0 5.571428571428571v36.857142857142854c0 1.4777142857142855 0.5869885714285714 2.894742857142857 1.631832 3.9394285714285715 1.044846857142857 1.0450285714285714 2.461950857142857 1.632 3.939596571428571 1.632h6c1.1834742857142857 0 2.142857142857143 -0.9593142857142857 2.142857142857143 -2.142857142857143s-0.9593828571428571 -2.142857142857143 -2.142857142857143 -2.142857142857143h-6c-0.3410057142857143 0 -0.6680228571428571 -0.13542857142857143 -0.9091542857142857 -0.3764571428571428 -0.24109714285714282 -0.24137142857142857 -0.37655999999999995 -0.5681142857142857 -0.37655999999999995 -0.9092571428571428V5.571428571428571c0 -0.3410057142857143 0.13546285714285713 -0.6680228571428571 0.37655999999999995 -0.9091542857142857Zm22.934914285714285 21.220594285714284C28.802777142857142 24.67728 30.437897142857143 24 32.14285714285714 24c1.7049599999999998 0 3.3401142857142854 0.67728 4.5456 1.8828685714285716 1.2058285714285715 1.205622857142857 1.8829714285714285 2.8407428571428572 1.8829714285714285 4.5457028571428575H25.71428571428571c0 -1.7049599999999998 0.67728 -3.34008 1.882902857142857 -4.5457028571428575ZM42.857142857142854 31.71428571428571v-1.2857142857142856c0 -1.2473142857142856 -0.21737142857142855 -2.4722057142857143 -0.6315428571428571 -3.6239314285714284l3.4323428571428574 -3.4322742857142856c0.8369142857142857 -0.8368457142857142 0.8369142857142857 -2.1936 0 -3.030445714285714 -0.8369142857142857 -0.8368457142857142 -2.1936 -0.8368457142857142 -3.0305142857142857 0l-2.712 2.712102857142857c-0.06445714285714285 -0.06798857142857143 -0.12994285714285714 -0.1351885714285714 -0.19645714285714283 -0.20159999999999997 -2.009142857142857 -2.0093142857142854 -4.734514285714286 -3.138137142857143 -7.5761142857142865 -3.138137142857143 -2.8415999999999997 0 -5.566834285714286 1.128822857142857 -7.57614857142857 3.138137142857143 -0.06644571428571429 0.06644571428571429 -0.13193142857142856 0.13368 -0.19642285714285712 0.20166857142857142l-2.712205714285714 -2.7121714285714287c-0.8368457142857142 -0.8368457142857142 -2.1936 -0.8368457142857142 -3.030445714285714 0 -0.8368457142857142 0.8368457142857142 -0.8368457142857142 2.1936 0 3.030445714285714l3.4323771428571423 3.4323771428571423C21.646045714285716 27.956468571428566 21.428571428571427 29.181325714285713 21.428571428571427 30.428571428571427v1.2857142857142856h-3c-1.1834742857142857 0 -2.142857142857143 0.9593828571428571 -2.142857142857143 2.142857142857143 0 1.183542857142857 0.9593828571428571 2.142857142857143 2.142857142857143 2.142857142857143h3v1.2857142857142856c0 1.2473142857142856 0.2174742857142857 2.472 0.63144 3.6239999999999997l-3.4323771428571423 3.4323428571428574c-0.8368457142857142 0.8365714285714285 -0.8368457142857142 2.1936 0 3.0305142857142857 0.8368457142857142 0.8365714285714285 2.1936 0.8365714285714285 3.030445714285714 0l2.712205714285714 -2.712342857142857c0.06449142857142857 0.06788571428571429 0.12997714285714285 0.13508571428571428 0.19642285714285712 0.20159999999999997C26.576022857142856 46.871314285714284 29.301257142857143 48 32.14285714285714 48c2.8415999999999997 0 5.566971428571428 -1.1286857142857143 7.5761142857142865 -3.1381714285714284 0.0665142857142857 -0.0665142857142857 0.13199999999999998 -0.1337142857142857 0.19645714285714283 -0.20159999999999997l2.712 2.712342857142857c0.8369142857142857 0.8365714285714285 2.1936 0.8365714285714285 3.0305142857142857 0 0.8369142857142857 -0.8369142857142857 0.8369142857142857 -2.193942857142857 0 -3.0305142857142857l-3.4323428571428574 -3.4323428571428574c0.4141714285714286 -1.1516571428571427 0.6315428571428571 -2.3766857142857143 0.6315428571428571 -3.6239999999999997V36h3c1.183542857142857 0 2.142857142857143 -0.9593142857142857 2.142857142857143 -2.142857142857143 0 -1.1834742857142857 -0.9593142857142857 -2.142857142857143 -2.142857142857143 -2.142857142857143H42.857142857142854Z" clip-rule="evenodd" stroke-width="3.4286"></path>
  </g>
</svg>