<svg xmlns="http://www.w3.org/2000/svg" fill="none" viewBox="0 0 48 48" id="Bug--Streamline-Core-Remix" height="48" width="48">
  <desc>
    Bug Streamline Icon: https://streamlinehq.com
  </desc>
  <g id="Free Remix/Programming/Programming/Bugs/bug--code-bug-security-programming-secure-computer">
    <path id="Union" fill="#000000" fill-rule="evenodd" d="M15.42792 3c-1.1834742857142857 0.0003805714285714286 -2.1425485714285712 0.9600685714285714 -2.1421714285714284 2.1435428571428568 0.0006171428571428571 1.88856 0.5004 3.743382857142857 1.4486742857142856 5.376582857142857 0.2887885714285714 0.49734857142857136 0.6160457142857143 0.9687771428571428 0.9778971428571427 1.4103771428571428 -1.9640571428571427 1.0524685714285715 -3.7048114285714284 2.467405714285714 -5.132845714285714 4.15536 -0.8027314285714285 -0.6019199999999999 -1.6701599999999999 -1.1175428571428572 -2.5882285714285715 -1.5364457142857142 -1.8376114285714282 -0.8384571428571428 -3.8347885714285708 -1.2695314285714285 -5.85460457142857 -1.2636342857142857 -1.183464 0.0034285714285714284 -2.140058088 0.9656228571428571 -2.1366150497142855 2.149062857142857C0.0034658742857142854 16.61832 0.9656434285714286 17.574925714285712 2.149104 17.571462857142855c1.4017645714285714 -0.00408 2.787798857142857 0.29509714285714284 4.063090285714286 0.87696 0.7203428571428572 0.32866285714285715 1.3957028571428571 0.7431428571428571 2.0120571428571425 1.2329142857142856 -0.8498742857142856 1.7273485714285712 -1.4243999999999999 3.614537142857143 -1.6663199999999998 5.6043771428571425H2.142857142857143C0.9593897142857143 25.285714285714285 -6.48e-8 26.24509714285714 -6.48e-8 27.428571428571427S0.9593897142857143 29.57142857142857 2.142857142857143 29.57142857142857h4.415074285714286c0.24191999999999997 1.9898742857142857 0.8164799999999999 3.8770971428571426 1.6663542857142857 5.604342857142857 -0.6163885714285714 0.4899428571428571 -1.2917485714285712 0.9044571428571427 -2.0120914285714284 1.2329142857142856 -1.2752914285714285 0.5821714285714286 -2.6613599999999997 0.8811428571428571 -4.063103999999999 0.8770285714285715 -1.183464 -0.0034285714285714284 -2.1456375085714288 0.9531428571428572 -2.1490805410285714 2.136685714285714C-0.003433302857142857 40.60594285714286 0.9531634285714284 41.568 2.136624 41.57142857142857c2.0198331428571428 0.005828571428571428 4.017010285714285 -0.4251428571428571 5.8545874285714286 -1.2634285714285713 0.9181371428571428 -0.41897142857142855 1.7855657142857142 -0.9346285714285714 2.588297142857143 -1.5366857142857142C13.80270857142857 42.58114285714285 18.61885714285714 45 24 45c5.381142857142857 0 10.197291428571427 -2.4188571428571426 13.420457142857142 -6.228685714285714 0.8026285714285714 0.6020571428571428 1.6700571428571427 1.1177142857142857 2.5882285714285715 1.5366857142857142 1.8377142857142856 0.8382857142857142 3.834857142857143 1.2692571428571426 5.854628571428571 1.2634285714285713 1.183542857142857 -0.0034285714285714284 2.1401142857142856 -0.9654857142857143 2.136685714285714 -2.1490285714285715 -0.0034285714285714284 -1.183542857142857 -0.9654857142857143 -2.1401142857142856 -2.1490285714285715 -2.136685714285714 -1.401942857142857 0.0041142857142857136 -2.787771428571429 -0.2948571428571428 -4.0632 -0.8770285714285715 -0.7203428571428572 -0.32845714285714284 -1.3957714285714287 -0.7429714285714285 -2.012228571428571 -1.2329142857142856 0.8499428571428571 -1.7272457142857143 1.4245714285714284 -3.614468571428571 1.6666285714285713 -5.604342857142857h4.4149714285714285c1.183542857142857 0 2.142857142857143 -0.9593828571428571 2.142857142857143 -2.142857142857143s-0.9593142857142857 -2.142857142857143 -2.142857142857143 -2.142857142857143h-4.4149714285714285c-0.24205714285714283 -1.98984 -0.8166857142857142 -3.8770285714285713 -1.6662857142857141 -5.6043771428571425 0.6161142857142857 -0.4897714285714286 1.291542857142857 -0.9042514285714285 2.011885714285714 -1.2329142857142856 1.2754285714285714 -0.5818628571428571 2.6612571428571425 -0.8810399999999998 4.0632 -0.87696 1.183542857142857 0.003462857142857143 2.1456 -0.9531428571428572 2.1490285714285715 -2.1366171428571428 0.0034285714285714284 -1.1834399999999998 -0.9531428571428572 -2.1456342857142854 -2.136685714285714 -2.149062857142857 -2.019771428571428 -0.005897142857142857 -4.016914285714285 0.4251771428571428 -5.854628571428571 1.2636342857142857 -0.9181714285714284 0.41890285714285713 -1.7852571428571429 0.9345257142857142 -2.5882285714285715 1.5364457142857142 -1.428 -1.6879542857142855 -3.1687199999999995 -3.1028571428571428 -5.132742857142857 -4.15536 0.36181714285714284 -0.4416 0.6891085714285714 -0.9130285714285713 0.9778971428571427 -1.4103771428571428 0.9482742857142856 -1.6332 1.4479885714285712 -3.4880228571428566 1.4486742857142856 -5.376582857142857 0.00034285714285714285 -1.1834742857142857 -0.9586971428571427 -2.143162285714286 -2.1421714285714284 -2.1435428571428568 -1.1834742857142857 -0.0003805714285714286 -2.1431657142857143 0.9586971428571427 -2.1435428571428568 2.1421714285714284 -0.00037714285714285714 1.1331085714285714 -0.30023999999999995 2.2460228571428567 -0.8692114285714286 3.225942857142857 -0.4342971428571428 0.7479428571428571 -1.0135885714285713 1.3981371428571427 -1.7010514285714287 1.913965714285714C26.616719999999997 10.003919999999999 25.325485714285712 9.857142857142856 24 9.857142857142856c-1.3254857142857142 0 -2.61672 0.14677714285714286 -3.8582742857142853 0.4249371428571428 -0.687462857142857 -0.5158285714285714 -1.2667542857142857 -1.166022857142857 -1.7010514285714287 -1.913965714285714 -0.5689714285714285 -0.97992 -0.8688342857142858 -2.0928342857142854 -0.8692114285714286 -3.225942857142857 -0.00037714285714285714 -1.1834742857142857 -0.9600685714285714 -2.142552 -2.1435428571428568 -2.1421714285714284ZM36.838971428571426 24c0.2914285714285714 1.0937828571428572 0.4467428571428571 2.24304 0.4467428571428571 3.4285714285714284 0 7.337485714285713 -5.948228571428571 13.285714285714285 -13.285714285714285 13.285714285714285S10.714285714285714 34.76605714285714 10.714285714285714 27.428571428571427c0 -1.1855314285714285 0.15527999999999997 -2.334788571428571 0.4466057142857142 -3.4285714285714284h25.678079999999998Z" clip-rule="evenodd" stroke-width="3.4286"></path>
  </g>
</svg>