<svg xmlns="http://www.w3.org/2000/svg" fill="none" viewBox="0 0 48 48" id="Building-2--Streamline-Core-Remix" height="48" width="48">
  <desc>
    Building 2 Streamline Icon: https://streamlinehq.com
  </desc>
  <g id="Free Remix/Money Shopping/building-2--real-home-tower-building-house-estate">
    <path id="Union" fill="#000000" fill-rule="evenodd" d="M17.624331428571427 1.7552811428571427c-0.7826057142857142 -0.626088 -1.8946285714285713 -0.626088 -2.6772342857142855 0L2.0899405714285715 12.041005714285713C1.5816205714285714 12.447634285714285 1.2857142857142856 13.063337142857142 1.2857142857142856 13.714285714285714v30.857142857142854c0 1.183542857142857 0.9593897142857143 2.142857142857143 2.142857142857143 2.142857142857143h41.14285714285714c1.183542857142857 0 2.142857142857143 -0.9593142857142857 2.142857142857143 -2.142857142857143V22.285714285714285c0 -1.1834742857142857 -0.9593142857142857 -2.142857142857143 -2.142857142857143 -2.142857142857143H31.285714285714285V13.714285714285714c0 -0.6509485714285714 -0.29591999999999996 -1.2666514285714285 -0.80424 -1.6732799999999999l-12.857142857142856 -10.28572457142857ZM27 22.285714285714285V14.744194285714286l-10.714285714285714 -8.571428571428571 -10.714285714285714 8.571428571428571V42.42857142857142H12.857142857142856V38.57142857142857c0 -1.8936 1.53504 -3.4285714285714284 3.4285714285714284 -3.4285714285714284s3.4285714285714284 1.5349714285714284 3.4285714285714284 3.4285714285714284v3.8571428571428568h7.285714285714286V22.285714285714285ZM9.428571428571429 28.285714285714285c0 -1.4201485714285715 1.1512799999999999 -2.571428571428571 2.571428571428571 -2.571428571428571H20.57142857142857c1.4201485714285715 0 2.571428571428571 1.1512799999999999 2.571428571428571 2.571428571428571S21.991577142857142 30.857142857142854 20.57142857142857 30.857142857142854H12c-1.4201485714285715 0 -2.571428571428571 -1.1512799999999999 -2.571428571428571 -2.571428571428571Zm2.571428571428571 -12c-1.4201485714285715 0 -2.571428571428571 1.1512799999999999 -2.571428571428571 2.571428571428571s1.1512799999999999 2.571428571428571 2.571428571428571 2.571428571428571H20.57142857142857c1.4201485714285715 0 2.571428571428571 -1.1512799999999999 2.571428571428571 -2.571428571428571s-1.1512799999999999 -2.571428571428571 -2.571428571428571 -2.571428571428571H12Z" clip-rule="evenodd" stroke-width="3.4286"></path>
  </g>
</svg>