<svg xmlns="http://www.w3.org/2000/svg" fill="none" viewBox="0 0 48 48" id="Bullet-List--Streamline-Core-Remix" height="48" width="48">
  <desc>
    Bullet List Streamline Icon: https://streamlinehq.com
  </desc>
  <g id="Free Remix/Interface Essential/bullet-list--points-bullet-unordered-list-lists-bullets">
    <path id="Union" fill="#000000" fill-rule="evenodd" d="M0.8571428571428571 5.142857142857142C0.8571428571428571 2.7759222857142856 2.7759222857142856 0.8571428571428571 5.142857142857142 0.8571428571428571c2.3669485714285714 0 4.285714285714286 1.9187794285714286 4.285714285714286 4.285714285714286 0 2.3669485714285714 -1.9187657142857142 4.285714285714286 -4.285714285714286 4.285714285714286C2.7759222857142856 9.428571428571429 0.8571428571428571 7.509805714285714 0.8571428571428571 5.142857142857142Zm14.142857142857142 0c0 -1.1834742857142857 0.9593828571428571 -2.142857142857143 2.142857142857143 -2.142857142857143h27.428571428571427c1.183542857142857 0 2.142857142857143 0.9593828571428571 2.142857142857143 2.142857142857143s-0.9593142857142857 2.142857142857143 -2.142857142857143 2.142857142857143H17.142857142857142c-1.1834742857142857 0 -2.142857142857143 -0.9593828571428571 -2.142857142857143 -2.142857142857143ZM5.142857142857142 19.71428571428571C2.7759222857142856 19.71428571428571 0.8571428571428571 21.633051428571427 0.8571428571428571 24S2.7759222857142856 28.285714285714285 5.142857142857142 28.285714285714285c2.3669485714285714 0 4.285714285714286 -1.9187657142857142 4.285714285714286 -4.285714285714286S7.509805714285714 19.71428571428571 5.142857142857142 19.71428571428571ZM15 24c0 -1.1834742857142857 0.9593828571428571 -2.142857142857143 2.142857142857143 -2.142857142857143h27.428571428571427c1.183542857142857 0 2.142857142857143 0.9593828571428571 2.142857142857143 2.142857142857143s-0.9593142857142857 2.142857142857143 -2.142857142857143 2.142857142857143H17.142857142857142c-1.1834742857142857 0 -2.142857142857143 -0.9593828571428571 -2.142857142857143 -2.142857142857143ZM5.142857142857142 38.57142857142857c-2.366934857142857 0 -4.285714285714286 1.9186285714285713 -4.285714285714286 4.285714285714286s1.9187794285714286 4.285714285714286 4.285714285714286 4.285714285714286c2.3669485714285714 0 4.285714285714286 -1.9186285714285713 4.285714285714286 -4.285714285714286s-1.9187657142857142 -4.285714285714286 -4.285714285714286 -4.285714285714286Zm12 2.142857142857143c-1.1834742857142857 0 -2.142857142857143 0.9593142857142857 -2.142857142857143 2.142857142857143s0.9593828571428571 2.142857142857143 2.142857142857143 2.142857142857143h27.428571428571427c1.183542857142857 0 2.142857142857143 -0.9593142857142857 2.142857142857143 -2.142857142857143s-0.9593142857142857 -2.142857142857143 -2.142857142857143 -2.142857142857143H17.142857142857142Z" clip-rule="evenodd" stroke-width="3.4286"></path>
  </g>
</svg>