<svg xmlns="http://www.w3.org/2000/svg" fill="none" viewBox="0 0 48 48" id="Burger-1--Streamline-Core-Remix" height="48" width="48">
  <desc>
    Burger 1 Streamline Icon: https://streamlinehq.com
  </desc>
  <g id="burger-1--burger-fast-cook-cooking-nutrition-food 1">
    <path id="Vector" fill="#000000" fill-rule="evenodd" d="M13.714285714285714 4.285714285714286c-2.159622857142857 0 -4.230788571428572 0.8578971428571428 -5.757874285714285 2.384982857142857S5.571428571428571 10.26894857142857 5.571428571428571 12.428571428571427c0 0.7097142857142856 0.576 1.2857142857142856 1.2857142857142856 1.2857142857142856h34.285714285714285c0.34114285714285714 0 0.6678857142857143 -0.13546285714285713 0.9092571428571428 -0.37655999999999995 0.24102857142857143 -0.24113142857142858 0.3764571428571428 -0.5681485714285713 0.3764571428571428 -0.9091542857142857 0 -2.159622857142857 -0.8578285714285713 -4.230788571428572 -2.3849142857142858 -5.757874285714285S36.44537142857143 4.285714285714286 34.285714285714285 4.285714285714286H13.714285714285714ZM1.2857142857142856 12.428571428571427c0 -3.2962628571428567 1.3094365714285714 -6.457508571428571 3.6402514285714282 -8.78832C7.2567771428571435 1.3094365714285714 10.418022857142857 0 13.714285714285714 0l20.57142857142857 0c3.2962285714285713 0 6.457371428571428 1.3094365714285714 8.788457142857142 3.6402514285714282 2.330742857142857 2.3308114285714283 3.6401142857142856 5.492057142857143 3.6401142857142856 8.78832 0 3.075428571428571 -2.4925714285714284 5.571428571428571 -5.571428571428571 5.571428571428571H6.857142857142857c-1.477645714285714 0 -2.894742857142857 -0.5870057142857142 -3.939593142857143 -1.6318285714285712C1.8727028571428572 15.323314285714284 1.2857142857142856 13.906217142857141 1.2857142857142856 12.428571428571427Zm5.142857142857142 23.57142857142857c-0.2273142857142857 0 -0.4453371428571429 0.09017142857142857 -0.606102857142857 0.25097142857142857 -0.16073142857142855 0.16079999999999997 -0.25104 0.37885714285714284 -0.25104 0.6061714285714286 0 1.8185142857142855 0.7224342857142857 3.562628571428571 2.008422857142857 4.848685714285714 1.2859542857142856 1.2860571428571428 3.030102857142857 2.0084571428571425 4.848719999999999 2.0084571428571425h23.142857142857142c1.8185142857142855 0 3.562628571428571 -0.7223999999999999 4.848685714285714 -2.0084571428571425s2.0084571428571425 -3.0301714285714283 2.0084571428571425 -4.848685714285714c0 -0.2273142857142857 -0.09017142857142857 -0.44537142857142853 -0.25097142857142857 -0.6061714285714286 -0.16079999999999997 -0.16079999999999997 -0.37885714285714284 -0.25097142857142857 -0.6061714285714286 -0.25097142857142857h-16.422857142857143l-2.794285714285714 4.1897142857142855c-0.30562285714285714 0.45840000000000003 -0.7760571428571428 0.7813714285714285 -1.3136571428571429 0.9020571428571428 -0.5375657142857143 0.12068571428571429 -1.100982857142857 0.029828571428571427 -1.5732 -0.2540571428571428L11.406857142857142 36H6.428571428571428Zm-5.142857142857142 0.8571428571428571c0 -1.3638857142857141 0.5418342857142857 -2.6720914285714286 1.5063085714285713 -3.636548571428571 0.9644571428571428 -0.9644571428571428 2.2725942857142853 -1.5063085714285713 3.636548571428571 -1.5063085714285713H12c0.3874285714285714 0 0.768 0.10285714285714284 1.1039999999999999 0.30857142857142855l6.819428571428571 4.090285714285714 2.2937142857142856 -3.4457142857142853c0.19580571428571428 -0.2933142857142857 0.4609714285714285 -0.53376 0.7719771428571428 -0.7000457142857143 0.31097142857142857 -0.16625142857142855 0.6582171428571428 -0.2532 1.01088 -0.25309714285714285h17.57142857142857c1.3638857142857141 0 2.672228571428571 0.5418514285714285 3.636685714285714 1.5063085714285713s1.5061714285714285 2.272662857142857 1.5061714285714285 3.636548571428571c0 1.4633142857142856 -0.2883428571428571 2.9122285714285714 -0.8482285714285714 4.264114285714285s-1.3806857142857143 2.580342857142857 -2.4154285714285715 3.6150857142857142c-1.0347428571428572 1.0347428571428572 -2.2632 1.8555428571428572 -3.6150857142857142 2.4154285714285715S37.03474285714285 48 35.57142857142857 48h-23.142857142857142c-2.9552571428571426 0 -5.789485714285714 -1.173942857142857 -7.879199999999999 -3.2636571428571424C2.4596914285714284 42.646628571428565 1.2857142857142856 39.812571428571424 1.2857142857142856 36.857142857142854ZM3.4285714285714284 21.857142857142858c-0.3939668571428571 0 -0.7840731428571428 0.07758857142857142 -1.1480502857142856 0.22837714285714286 -0.36397714285714283 0.1507542857142857 -0.6946937142857142 0.37172571428571427 -0.9732685714285714 0.6502971428571428 -0.2785782857142857 0.2785714285714286 -0.4995565714285714 0.6092914285714286 -0.6503211428571428 0.9732685714285714C0.5061702857142857 24.073062857142855 0.42857142857142855 24.46316571428571 0.42857142857142855 24.857142857142854c0 0.3939771428571428 0.07759885714285714 0.78408 0.22835999999999998 1.1480571428571427 0.15076457142857141 0.36397714285714283 0.3717428571428571 0.6946971428571428 0.6503211428571428 0.9732685714285714 0.2785748571428571 0.2785714285714286 0.6092914285714286 0.4995428571428571 0.9732685714285714 0.6502971428571428C2.6444982857142856 27.779554285714287 3.0346045714285714 27.857142857142854 3.4285714285714284 27.857142857142854h41.14285714285714c0.7957714285714286 0 1.5586285714285713 -0.31607999999999997 2.121257142857143 -0.8786742857142857 0.5626285714285714 -0.5626285714285714 0.878742857142857 -1.3256914285714285 0.878742857142857 -2.1213257142857143 0 -0.7956342857142856 -0.31611428571428574 -1.5586971428571428 -0.878742857142857 -2.1213257142857143 -0.5626285714285714 -0.5625942857142857 -1.3254857142857142 -0.8786742857142857 -2.121257142857143 -0.8786742857142857H3.4285714285714284Z" clip-rule="evenodd" stroke-width="3.4286"></path>
  </g>
</svg>