<svg xmlns="http://www.w3.org/2000/svg" fill="none" viewBox="0 0 48 48" id="Burrito-Fastfood--Streamline-Core-Remix" height="48" width="48">
  <desc>
    Burrito Fastfood Streamline Icon: https://streamlinehq.com
  </desc>
  <g id="Free Remix/Food Drink/burrito-fastfood">
    <path id="Union" fill="#000000" fill-rule="evenodd" d="M32.57142857142857 0c-1.8847885714285715 0 -3.629108571428571 0.609744 -5.043839999999999 1.6406228571428572 -2.9205942857142855 -1.4870639999999997 -6.582548571428571 -1.0100228571428571 -9.02550857142857 1.4329097142857143 -2.813691428571428 2.813701714285714 -3.0200571428571426 7.247393142857143 -0.6190971428571429 10.298718857142857l-0.9367885714285713 0.9368228571428571c-0.021599999999999998 0.020708571428571427 -0.04272 0.04182857142857143 -0.06332571428571428 0.06332571428571428L1.5151988571428572 29.740045714285714c-0.021476571428571425 0.020605714285714283 -0.04254857142857142 0.041691428571428574 -0.06320228571428571 0.06322285714285715l-0.2182765714285714 0.21826285714285712C0.44378399999999996 30.811474285714283 0 31.88286857142857 0 33c0 1.1171314285714284 0.4437805714285714 2.1884571428571427 1.23372 2.9783999999999997l10.787811428571429 10.788c0.7899428571428571 0.7899428571428571 1.8613371428571428 1.2336 2.9784685714285715 1.2336 1.1171314285714284 0 2.188525714285714 -0.4436571428571428 2.9784685714285715 -1.2336l7.108182857142857 -7.108457142857143 1.7142857142857142 -1.7142857142857142 7.826948571428571 -7.82664c3.051085714285714 2.40096 7.484914285714286 2.194594285714286 10.298742857142857 -0.6191314285714286 2.7257142857142855 -2.7258857142857145 3.0044571428571425 -6.972205714285714 0.8362285714285714 -10.009062857142856C47.15108571428571 17.966537142857142 48 15.939634285714286 48 13.714285714285714c0 -4.3863771428571425 -3.2948571428571425 -8.003211428571428 -7.544571428571428 -8.510571428571428C39.14708571428571 2.144650285714286 36.11142857142857 0 32.57142857142857 0ZM20.88606857142857 16.45326857142857 31.55828571428571 27.125519999999998 26.222194285714284 32.461645714285716 20.88606857142857 16.45326857142857ZM6.966925714285715 30.349234285714285l10.525165714285714 -10.525165714285714 5.262617142857143 15.787817142857142 -15.787782857142858 -5.262651428571428ZM15 43.683771428571426l-9.209005714285714 -9.2088 13.813508571428573 4.604228571428571 -4.604502857142857 4.604571428571428Z" clip-rule="evenodd" stroke-width="3.4286"></path>
  </g>
</svg>