<svg xmlns="http://www.w3.org/2000/svg" fill="none" viewBox="0 0 48 48" id="Bus--Streamline-Core-Remix" height="48" width="48">
  <desc>
    Bus Streamline Icon: https://streamlinehq.com
  </desc>
  <g id="Free Remix/Map Travel/bus--transportation-travel-bus-transit-transport-motorcoach-public">
    <path id="Union" fill="#000000" fill-rule="evenodd" d="M10.285714285714285 1.2857142857142856c-3.0770057142857143 0 -5.571428571428571 2.494422857142857 -5.571428571428571 5.571428571428571v9.857142857142856h-2.571428571428571C0.9593897142857143 16.71428571428571 0 17.67366857142857 0 18.857142857142858s0.9593897142857143 2.142857142857143 2.142857142857143 2.142857142857143h2.571428571428571V36c0 2.7853714285714286 2.0442171428571427 5.093485714285714 4.714285714285714 5.505942857142857V44.57142857142857c0 1.4201142857142857 1.1512799999999999 2.571428571428571 2.571428571428571 2.571428571428571s2.571428571428571 -1.1513142857142855 2.571428571428571 -2.571428571428571v-3h18.857142857142858V44.57142857142857c0 1.4201142857142857 1.1513142857142855 2.571428571428571 2.571428571428571 2.571428571428571s2.571428571428571 -1.1513142857142855 2.571428571428571 -2.571428571428571v-3.065485714285714c2.6701714285714284 -0.41245714285714286 4.714285714285714 -2.720571428571428 4.714285714285714 -5.505942857142857V21h2.571428571428571c1.183542857142857 0 2.142857142857143 -0.9593828571428571 2.142857142857143 -2.142857142857143s-0.9593142857142857 -2.142857142857143 -2.142857142857143 -2.142857142857143h-2.571428571428571V6.857142857142857c0 -3.0770057142857143 -2.494285714285714 -5.571428571428571 -5.571428571428571 -5.571428571428571H10.285714285714285ZM39 18.857142857142858V6.857142857142857c0 -0.7100914285714285 -0.5756571428571428 -1.2857142857142856 -1.2857142857142856 -1.2857142857142856H10.285714285714285c-0.7100914285714285 0 -1.2857142857142856 0.5756228571428571 -1.2857142857142856 1.2857142857142856v29.142857142857142c0 0.7100571428571428 0.5756228571428571 1.2857142857142856 1.2857142857142856 1.2857142857142856h27.428571428571427c0.7100571428571428 0 1.2857142857142856 -0.5756571428571428 1.2857142857142856 -1.2857142857142856v-17.142857142857142Zm-25.71428571428571 3.4285714285714284c0 0.9467657142857142 0.76752 1.7142857142857142 1.7142857142857142 1.7142857142857142h18c0.9467657142857142 0 1.7142857142857142 -0.76752 1.7142857142857142 -1.7142857142857142V11.571428571428571c0 -0.9467657142857142 -0.76752 -1.7142857142857142 -1.7142857142857142 -1.7142857142857142h-18c-0.9467657142857142 0 -1.7142857142857142 0.76752 -1.7142857142857142 1.7142857142857142V22.285714285714285ZM12.428571428571427 30.857142857142854c0 1.893565714285714 1.53504 3.4285714285714284 3.4285714285714284 3.4285714285714284s3.4285714285714284 -1.535005714285714 3.4285714285714284 -3.4285714285714284 -1.53504 -3.4285714285714284 -3.4285714285714284 -3.4285714285714284 -3.4285714285714284 1.535005714285714 -3.4285714285714284 3.4285714285714284Zm16.285714285714285 0c0 1.893565714285714 1.535005714285714 3.4285714285714284 3.4285714285714284 3.4285714285714284s3.4285714285714284 -1.535005714285714 3.4285714285714284 -3.4285714285714284 -1.535005714285714 -3.4285714285714284 -3.4285714285714284 -3.4285714285714284 -3.4285714285714284 1.535005714285714 -3.4285714285714284 3.4285714285714284Z" clip-rule="evenodd" stroke-width="3.4286"></path>
  </g>
</svg>