<svg xmlns="http://www.w3.org/2000/svg" fill="none" viewBox="0 0 48 48" id="Business-User-Curriculum--Streamline-Core-Remix" height="48" width="48">
  <desc>
    Business User Curriculum Streamline Icon: https://streamlinehq.com
  </desc>
  <g id="Free Remix/Money Shopping/business-user-curriculum">
    <path id="Union" fill="#000000" fill-rule="evenodd" d="M7.662274285714286 4.662274285714286C7.9034057142857135 4.421177142857142 8.230422857142857 4.285714285714286 8.571428571428571 4.285714285714286h19.15128c0.34097142857142854 0 0.6680228571428571 0.13546285714285713 0.9091199999999999 0.37655999999999995l11.706 11.705897142857141c0.24102857142857143 0.24109714285714282 0.3764571428571428 0.5681485714285713 0.3764571428571428 0.9091199999999999V42.42857142857142c0 0.34114285714285714 -0.13542857142857143 0.6678857142857143 -0.3764571428571428 0.9092571428571428 -0.24137142857142857 0.24102857142857143 -0.5681142857142857 0.3764571428571428 -0.9092571428571428 0.3764571428571428h-30.857142857142854c-0.3410057142857143 0 -0.6680228571428571 -0.13542857142857143 -0.9091542857142857 -0.3764571428571428 -0.24109714285714282 -0.24137142857142857 -0.37655999999999995 -0.5681142857142857 -0.37655999999999995 -0.9092571428571428V5.571428571428571c0 -0.3410057142857143 0.13546285714285713 -0.6680228571428571 0.37655999999999995 -0.9091542857142857ZM8.571428571428571 0c-1.477645714285714 0 -2.894742857142857 0.5869885714285714 -3.9395999999999995 1.631832C3.5869714285714283 2.676678857142857 3 4.093782857142857 3 5.571428571428571v36.857142857142854c0 1.4777142857142855 0.5869714285714285 2.894742857142857 1.6318285714285712 3.9394285714285715 1.044857142857143 1.0450285714285714 2.4619542857142855 1.632 3.9395999999999995 1.632h30.857142857142854c1.4777142857142855 0 2.894742857142857 -0.5869714285714285 3.9394285714285715 -1.632 1.0450285714285714 -1.0446857142857142 1.632 -2.4617142857142853 1.632 -3.9394285714285715V17.277291428571427c0 -1.4776114285714286 -0.5869714285714285 -2.894742857142857 -1.632 -3.939565714285714L31.662274285714286 1.631832C30.617451428571428 0.5869885714285714 29.200319999999998 0 27.72270857142857 0H8.571428571428571Zm14.17086857142857 16.32384c0.8364342857142857 -1.0416685714285714 1.337897142857143 -2.3651999999999997 1.337897142857143 -3.8074628571428573 0 -3.361748571428571 -2.7252342857142855 -6.086982857142856 -6.086982857142856 -6.086982857142856 -3.3617142857142857 0 -6.086948571428572 2.7252342857142855 -6.086948571428572 6.086982857142856 0 1.4425714285714286 0.5018057142857142 2.7679542857142856 1.3404342857142855 3.8110628571428573 -1.1434971428571428 0.8337942857142856 -2.0846057142857144 1.9483542857142857 -2.764045714285714 3.240685714285714 -0.2793942857142857 0.5313599999999999 -0.2604342857142857 1.1702057142857143 0.049988571428571424 1.68408 0.3103885714285714 0.5138742857142857 0.8670171428571428 0.8279314285714285 1.46736 0.8279314285714285h11.993897142857142c0.6003428571428572 0 1.1569714285714285 -0.31405714285714287 1.46736 -0.8279314285714285 0.3104228571428571 -0.5138742857142857 0.32938285714285714 -1.15272 0.049988571428571424 -1.68408 -0.6803999999999999 -1.294182857142857 -1.6232571428571427 -2.41008 -2.7689485714285715 -3.244285714285714ZM16.191977142857144 12.516377142857142c0 -0.9948 0.8064342857142857 -1.8012685714285714 1.8012342857142858 -1.8012685714285714 0.9948342857142856 0 1.8012685714285714 0.8064685714285714 1.8012685714285714 1.8012685714285714 0 0.7399885714285713 -0.4466057142857142 1.3805142857142856 -1.0935771428571428 1.657542857142857 -0.21445714285714282 0.09181714285714286 -0.45222857142857137 0.14372571428571426 -0.7076914285714285 0.14372571428571426 -0.9948 0 -1.8012342857142858 -0.8064685714285714 -1.8012342857142858 -1.8012685714285714ZM9.857142857142856 29.142857142857142c0 -1.1834742857142857 0.9593828571428571 -2.142857142857143 2.142857142857143 -2.142857142857143h24c1.183542857142857 0 2.142857142857143 0.9593828571428571 2.142857142857143 2.142857142857143s-0.9593142857142857 2.142857142857143 -2.142857142857143 2.142857142857143h-24c-1.1834742857142857 0 -2.142857142857143 -0.9593828571428571 -2.142857142857143 -2.142857142857143Zm2.142857142857143 6.428571428571428c-1.1834742857142857 0 -2.142857142857143 0.9593142857142857 -2.142857142857143 2.142857142857143s0.9593828571428571 2.142857142857143 2.142857142857143 2.142857142857143h13.714285714285714c1.1834742857142857 0 2.142857142857143 -0.9593142857142857 2.142857142857143 -2.142857142857143s-0.9593828571428571 -2.142857142857143 -2.142857142857143 -2.142857142857143h-13.714285714285714Z" clip-rule="evenodd" stroke-width="3.4286"></path>
  </g>
</svg>