<svg xmlns="http://www.w3.org/2000/svg" fill="none" viewBox="0 0 48 48" id="Business-Card--Streamline-Core-Remix" height="48" width="48">
  <desc>
    Business Card Streamline Icon: https://streamlinehq.com
  </desc>
  <g id="Free Remix/Money Shopping/business-card--name-card-business-information-money-payment">
    <path id="Union" fill="#000000" fill-rule="evenodd" d="M4.285714285714286 12c0 -0.7100914285714285 0.5756228571428571 -1.2857142857142856 1.2857142857142856 -1.2857142857142856h36.857142857142854c0.7100571428571428 0 1.2857142857142856 0.5756228571428571 1.2857142857142856 1.2857142857142856v24c0 0.7100571428571428 -0.5756571428571428 1.2857142857142856 -1.2857142857142856 1.2857142857142856H5.571428571428571c-0.7100914285714285 0 -1.2857142857142856 -0.5756571428571428 -1.2857142857142856 -1.2857142857142856v-24Zm1.2857142857142856 -5.571428571428571C2.494412571428571 6.428571428571428 0 8.922994285714285 0 12v24c0 3.077142857142857 2.494412571428571 5.571428571428571 5.571428571428571 5.571428571428571h36.857142857142854c3.077142857142857 0 5.571428571428571 -2.494285714285714 5.571428571428571 -5.571428571428571v-24c0 -3.0770057142857143 -2.494285714285714 -5.571428571428571 -5.571428571428571 -5.571428571428571H5.571428571428571Zm3.4285714285714284 17.57142857142857c0 -3.7870971428571427 3.070045714285714 -6.857142857142857 6.857142857142857 -6.857142857142857s6.857142857142857 3.070045714285714 6.857142857142857 6.857142857142857 -3.070045714285714 6.857142857142857 -6.857142857142857 6.857142857142857 -6.857142857142857 -3.070045714285714 -6.857142857142857 -6.857142857142857ZM26.57142857142857 18.857142857142858c0 -1.1834742857142857 0.9593828571428571 -2.142857142857143 2.142857142857143 -2.142857142857143h8.571428571428571c1.183542857142857 0 2.142857142857143 0.9593828571428571 2.142857142857143 2.142857142857143s-0.9593142857142857 2.142857142857143 -2.142857142857143 2.142857142857143h-8.571428571428571c-1.1834742857142857 0 -2.142857142857143 -0.9593828571428571 -2.142857142857143 -2.142857142857143Zm2.142857142857143 8.142857142857142c-1.1834742857142857 0 -2.142857142857143 0.9593828571428571 -2.142857142857143 2.142857142857143s0.9593828571428571 2.142857142857143 2.142857142857143 2.142857142857143h8.571428571428571c1.183542857142857 0 2.142857142857143 -0.9593828571428571 2.142857142857143 -2.142857142857143s-0.9593142857142857 -2.142857142857143 -2.142857142857143 -2.142857142857143h-8.571428571428571Z" clip-rule="evenodd" stroke-width="3.4286"></path>
  </g>
</svg>