<svg xmlns="http://www.w3.org/2000/svg" fill="none" viewBox="0 0 48 48" id="Business-Progress-Bar-2--Streamline-Core-Remix" height="48" width="48">
  <desc>
    Business Progress Bar 2 Streamline Icon: https://streamlinehq.com
  </desc>
  <g id="Free Remix/Money Shopping/business-progress-bar-2--business-production-arrow-workflow-money-flag-timeline">
    <path id="Union" fill="#000000" fill-rule="evenodd" d="M19.901965714285712 3.2722628571428567c-0.6636 -0.3708445714285714 -1.4740457142857142 -0.3623314285714285 -2.129725714285714 0.02237485714285714 -0.6556799999999999 0.3846994285714285 -1.0584342857142857 1.0880022857142857 -1.0584342857142857 1.8482194285714284v23.034514285714284c-2.300502857142857 0.7068685714285714 -4.11576 2.5221257142857145 -4.822628571428571 4.822628571428571H2.166294857142857c-1.1834674285714284 0 -2.1428573485714284 0.9593828571428571 -2.1428573485714284 2.142857142857143 0 1.183542857142857 0.9593899199999999 2.142857142857143 2.1428573485714284 2.142857142857143H11.891177142857142c0.9150514285714286 2.9780571428571427 3.687428571428571 5.142857142857142 6.965485714285714 5.142857142857142 3.278022857142857 0 6.0504 -2.1647999999999996 6.965485714285714 -5.142857142857142h10.12230857142857V42.857142857142854c0 0.8667428571428571 0.5221714285714285 1.6481142857142856 1.322742857142857 1.9796571428571428 0.8009142857142857 0.3318857142857143 1.7225142857142854 0.14845714285714284 2.3352 -0.4645714285714286l7.7142857142857135 -7.7142857142857135c0.8369142857142857 -0.8365714285714285 0.8369142857142857 -2.1936 0 -3.030308571428571l-7.7142857142857135 -7.7142857142857135c-0.6126857142857143 -0.6128571428571428 -1.5342857142857143 -0.7961828571428571 -2.3352 -0.4645028571428571 -0.8005714285714286 0.33164571428571427 -1.322742857142857 1.1130171428571427 -1.322742857142857 1.9797257142857143v5.571428571428571H25.82214857142857c-0.7069028571428572 -2.300502857142857 -2.52216 -4.11576 -4.822628571428571 -4.822628571428571V22.68582857142857l13.473737142857143 -7.52952c0.6778285714285713 -0.3786857142857143 1.0978285714285714 -1.0942971428571429 1.0978285714285714 -1.8705942857142857s-0.42 -1.4919085714285714 -1.0978285714285714 -1.8705942857142857L19.901965714285712 3.2722628571428567ZM21.856662857142855 35.14285714285714c0 -1.6568571428571428 -1.343142857142857 -3 -3 -3 -1.6546971428571426 0 -2.9965028571428567 1.3396457142857143 -3 2.993485714285714l0 0.006514285714285714 0 0.006514285714285714c0.003462857142857143 1.653942857142857 1.3453028571428571 2.993485714285714 3 2.993485714285714 1.6568571428571428 0 3 -1.3433142857142857 3 -3Zm-0.8571428571428571 -17.366502857142855V8.795074285714286L29.035371428571427 13.285714285714285 20.99952 17.776354285714287Z" clip-rule="evenodd" stroke-width="3.4286"></path>
  </g>
</svg>