<svg xmlns="http://www.w3.org/2000/svg" fill="none" viewBox="0 0 48 48" id="Business-Profession-Home-Office--Streamline-Core-Remix" height="48" width="48">
  <desc>
    Business Profession Home Office Streamline Icon: https://streamlinehq.com
  </desc>
  <g id="Free Remix/Money Shopping/business-profession-home-office--workspace-home-office-work-business-remote-working">
    <path id="Union" fill="#000000" fill-rule="evenodd" d="M25.447988571428567 1.8489565714285712c-0.8192571428571428 -0.7509908571428572 -2.07672 -0.7509908571428572 -2.8959771428571424 0L3.0923897142857144 19.68696l1.4222845714285715 1.5515657142857142 -1.4222845714285715 -1.5515657142857142C1.9411714285714283 20.74224 1.2857142857142856 22.23222857142857 1.2857142857142856 23.793942857142856V41.14285714285714c0 3.077142857142857 2.494422857142857 5.571428571428571 5.571428571428571 5.571428571428571h34.285714285714285c3.077142857142857 0 5.571428571428571 -2.494285714285714 5.571428571428571 -5.571428571428571V23.793942857142856c0 -1.5617142857142856 -0.6555428571428571 -3.051702857142857 -1.8065142857142857 -4.106982857142857L25.447988571428567 1.8489565714285712ZM5.9883428571428565 22.846182857142857 24 6.33552l18.011657142857143 16.510662857142858c0.2657142857142857 0.24353142857142854 0.4169142857142857 0.5873828571428571 0.4169142857142857 0.9477599999999999V41.14285714285714c0 0.7100571428571428 -0.5756571428571428 1.2857142857142856 -1.2857142857142856 1.2857142857142856H6.857142857142857c-0.7100914285714285 0 -1.2857142857142856 -0.5756571428571428 -1.2857142857142856 -1.2857142857142856V23.793942857142856c0 -0.36037714285714284 0.15126857142857142 -0.7042285714285714 0.4169142857142857 -0.9477599999999999Zm15.425999999999998 -2.6208685714285713c-0.23670857142857143 0 -0.42857142857142855 0.19186285714285714 -0.42857142857142855 0.42857142857142855v1.9624799999999998h6.034285714285714v-1.9624799999999998c0 -0.23670857142857143 -0.19186285714285714 -0.42857142857142855 -0.42857142857142855 -0.42857142857142855h-5.177142857142857Zm-4.714285714285714 0.42857142857142855v2.148651428571428c-2.1721371428571428 0.6017142857142856 -3.766731428571428 2.5929942857142856 -3.766731428571428 4.956685714285714v6.704434285714285c0 2.8405714285714283 2.3025257142857143 5.142857142857142 5.142857142857142 5.142857142857142h11.845371428571427c2.8403314285714285 0 5.1427885714285715 -2.302285714285714 5.1427885714285715 -5.142857142857142V27.759222857142852c0 -2.3607771428571427 -1.590582857142857 -4.35 -3.758571428571428 -4.954457142857143v-2.15088c0 -2.6036228571428572 -2.110662857142857 -4.714285714285714 -4.714285714285714 -4.714285714285714h-5.177142857142857c-2.6036228571428572 0 -4.714285714285714 2.110662857142857 -4.714285714285714 4.714285714285714Z" clip-rule="evenodd" stroke-width="3.4286"></path>
  </g>
</svg>