<svg xmlns="http://www.w3.org/2000/svg" fill="none" viewBox="0 0 48 48" id="Business-Handshake--Streamline-Core-Remix" height="48" width="48">
  <desc>
    Business Handshake Streamline Icon: https://streamlinehq.com
  </desc>
  <g id="Free Remix/Money Shopping/business-handshake--deal-contract-business-money-payment-agreement">
    <path id="Union" fill="#000000" fill-rule="evenodd" d="M46.77737142857143 7.330388571428571c1.0272 -0.5881714285714286 1.382742857142857 -1.8974742857142854 0.7947428571428571 -2.9244342857142858 -0.5883428571428572 -1.0269702857142857 -1.8977142857142857 -1.3826742857142857 -2.9245714285714284 -0.7945028571428571l-8.361257142857141 4.788857142857142 -7.303851428571428 0.34275428571428573c-1.9542171428571429 0.0917142857142857 -3.846 0.64272 -5.528297142857142 1.5929142857142857 -2.11752 -1.8351771428571426 -4.909885714285714 -2.624571428571428 -7.655931428571428 -2.120777142857143l-6.169097142857143 1.1317714285714284L2.563494857142857 5.317748571428571c-0.5306091428571429 -0.30257142857142855 -1.1821405714285713 -0.2999657142857143 -1.7103085714285713 0.006857142857142857C0.32501485714285716 5.631428571428572 0 6.196114285714285 0 6.806914285714285v23.06544c0 0.5841942857142858 0.2975136 1.1282057142857143 0.7894011428571428 1.4433942857142856L19.37310857142857 43.22365714285714c2.9938285714285713 1.9182857142857141 6.791314285714285 1.7794285714285714 9.632365714285713 -0.3555428571428571l0.004354285714285714 -0.0034285714285714284 10.235314285714285 -7.606628571428571c0.11897142857142858 -0.08845714285714286 0.2232 -0.1896 0.312 -0.29965714285714284 0.024685714285714283 -0.016457142857142854 0.049371428571428566 -0.0336 0.07337142857142856 -0.05108571428571428l7.059085714285714 -5.132571428571429c0.9572571428571428 -0.6959657142857143 1.1687999999999998 -2.0360914285714284 0.47279999999999994 -2.9933142857142854 -0.6956571428571429 -0.9571885714285713 -2.035885714285714 -1.168937142857143 -2.993142857142857 -0.4729714285714285l-5.5686857142857145 4.048902857142857 -5.539199999999999 -5.610137142857143c1.6100571428571429 -0.5357828571428571 3.0425142857142853 -1.56 3.942171428571428 -2.8741371428571427 0.6682285714285714 -0.9765600000000001 0.4186285714285714 -2.310171428571428 -0.5578285714285715 -2.9786742857142854 -0.9767999999999999 -0.6685371428571428 -2.31024 -0.4188342857142857 -2.9787771428571426 0.5577257142857143 -0.38609142857142853 0.5639657142857143 -1.216457142857143 1.1533371428571428 -2.2343999999999995 1.3545942857142856 -0.9346971428571427 0.1848 -1.8994285714285715 0.021257142857142856 -2.7376114285714284 -0.68448l-0.10738285714285714 -0.1087542857142857c-0.7605942857142857 -0.7703314285714284 -1.9762628571428569 -0.8524114285714286 -2.8334742857142854 -0.19131428571428571l-4.115245714285714 3.1736914285714284c-0.9120342857142858 0.7033371428571428 -2.223805714285714 0.5193942857142857 -2.9073942857142856 -0.40868571428571426 -0.6299657142857142 -0.8552571428571428 -0.5052342857142856 -2.04984 0.28717714285714285 -2.7562971428571426l0.01601142857142857 -0.014434285714285714 5.313291428571428 -4.736948571428571c1.3935771428571428 -1.2424114285714285 3.1712571428571428 -1.967965714285714 5.035405714285714 -2.055462857142857l7.819885714285714 -0.36695999999999995c0.3394285714285714 -0.015908571428571428 0.6699428571428571 -0.11225142857142856 0.9644571428571428 -0.2810057142857143l8.809714285714286 -5.045691428571428Z" clip-rule="evenodd" stroke-width="3.4286"></path>
  </g>
</svg>