<svg xmlns="http://www.w3.org/2000/svg" fill="none" viewBox="0 0 48 48" id="Business-Idea-Money--Streamline-Core-Remix" height="48" width="48">
  <desc>
    Business Idea Money Streamline Icon: https://streamlinehq.com
  </desc>
  <g id="Free Remix/Money Shopping/business-idea-money">
    <path id="Union" fill="#000000" fill-rule="evenodd" d="M23.65169142857143 0.0033540239999999997C26.859737142857142 -0.05861931428571428 30.02592 0.7392308571428571 32.82147428571428 2.3140799999999997c2.7955542857142857 1.5748457142857142 5.118754285714285 3.8692800000000003 6.728125714285714 6.645085714285714 1.6090285714285713 2.774982857142857 2.445942857142857 5.929919999999999 2.424342857142857 9.137485714285713 -0.014399999999999998 3.3293142857142852 -0.9569142857142857 6.588651428571428 -2.7215999999999996 9.411942857142858 -1.524 2.4388114285714284 -3.6095999999999995 4.4687657142857145 -6.074262857142857 5.925154285714285v3.159737142857143c0 1.0350857142857142 -0.4110857142857143 2.027657142857143 -1.1428800000000001 2.7593142857142854 -0.7317942857142856 0.7316571428571428 -1.724297142857143 1.142742857142857 -2.759142857142857 1.142742857142857H18.720994285714283c-1.03488 0 -2.027382857142857 -0.4110857142857143 -2.7591771428571428 -1.142742857142857 -0.73176 -0.7316571428571428 -1.1428800000000001 -1.7242285714285714 -1.1428800000000001 -2.7593142857142854v-3.163405714285714c-2.3589942857142856 -1.401222857142857 -4.371394285714286 -3.327325714285714 -5.876708571428571 -5.635611428571429 -1.75272 -2.687622857142857 -2.754102857142857 -5.795417142857143 -2.9001599999999996 -9.000754285714285 -0.14605714285714286 -3.2053028571428572 0.5685257142857142 -6.391302857142857 2.06952 -9.227211428571428 1.5009942857142857 -2.8359085714285714 3.7337485714285714 -5.218354285714285 6.466422857142857 -6.899993142857142C17.31068571428571 0.9848674285714285 20.44364571428571 0.06532731428571428 23.65169142857143 0.0033540239999999997ZM30.718011428571426 6.048068571428571c-2.1290742857142857 -1.199382857142857 -4.540354285714286 -1.8069942857142856 -6.9835199999999995 -1.759782857142857 -2.4432 0.047177142857142855 -4.829211428571428 0.7474971428571427 -6.910354285714285 2.0281714285714285 -2.081142857142857 1.2807085714285713 -3.781542857142857 3.095142857142857 -4.924697142857142 5.254902857142857 -1.14312 2.1597942857142858 -1.6873371428571429 4.5861600000000005 -1.57608 7.027268571428571 0.11122285714285712 2.4411085714285714 0.87384 4.807954285714286 2.208685714285714 6.8547771428571425 1.3348114285714285 2.0468571428571427 3.1932 3.6991199999999997 5.382205714285714 4.785222857142857 0.7291885714285714 0.36181714285714284 1.1904 1.1055428571428572 1.1904 1.9195542857142855v4.051645714285714h9.787714285714285V32.158182857142855c0 -0.8161714285714285 0.4636457142857142 -1.5614742857142856 1.1958171428571427 -1.9221942857142857 2.2723542857142855 -1.1195657142857143 4.187451428571428 -2.850685714285714 5.5298742857142855 -4.998822857142857 1.3426285714285713 -2.1481371428571427 2.059542857142857 -4.628159999999999 2.0701714285714283 -7.161325714285714l0 -0.005862857142857142c0.0168 -2.4435771428571424 -0.6205714285714286 -4.8471085714285715 -1.846285714285714 -6.961131428571429 -1.2257142857142855 -2.114022857142857 -2.9948914285714285 -3.8613942857142853 -5.123931428571429 -5.060777142857142ZM15.11928 45.857142857142854c0 -1.183542857142857 0.9593828571428571 -2.142857142857143 2.142857142857143 -2.142857142857143h13.473462857142856c1.1834742857142857 0 2.142857142857143 0.9593142857142857 2.142857142857143 2.142857142857143s-0.9593828571428571 2.142857142857143 -2.142857142857143 2.142857142857143H17.262137142857142c-1.1834742857142857 0 -2.142857142857143 -0.9593142857142857 -2.142857142857143 -2.142857142857143ZM26.142239999999997 9.051051428571428v1.320342857142857c1.2183428571428572 0.22844571428571425 2.2959771428571427 0.8579314285714286 3.0872914285714286 1.7420914285714284 0.47314285714285714 0.5286171428571429 0.8469599999999999 1.1509714285714285 1.089702857142857 1.8377828571428572 0.39438857142857137 1.1158285714285714 -0.19045714285714285 2.340102857142857 -1.3062857142857143 2.734491428571429 -1.1158285714285714 0.39435428571428566 -2.340068571428571 -0.19045714285714285 -2.7344571428571425 -1.3062857142857143 -0.05300571428571428 -0.14996571428571429 -0.13556571428571426 -0.28844571428571425 -0.24239999999999998 -0.4077942857142857 -0.22745142857142855 -0.25416 -0.5512114285714286 -0.4090285714285714 -0.9139542857142856 -0.4090285714285714h-2.6072571428571427c-0.4770857142857142 0 -0.8638628571428572 0.3867428571428571 -0.8638628571428572 0.8638628571428572 0 0.4059771428571428 0.28268571428571426 0.7571657142857142 0.6792685714285713 0.8439085714285713l3.9696 0.8683542857142856c2.5308342857142856 0.5536457142857143 4.333508571428571 2.795725714285714 4.333508571428571 5.384914285714285 0 2.694445714285714 -1.9340914285714286 4.9395428571428575 -4.491154285714285 5.41824v1.3194514285714285c0 1.1834742857142857 -0.9594171428571429 2.142857142857143 -2.142857142857143 2.142857142857143 -1.1834742857142857 0 -2.142857142857143 -0.9593828571428571 -2.142857142857143 -2.142857142857143v-1.319382857142857c-1.947428571428571 -0.3643542857142857 -3.53112 -1.7526171428571427 -4.1770628571428565 -3.580182857142857 -0.39438857142857137 -1.1157942857142857 0.19045714285714285 -2.340068571428571 1.3062514285714284 -2.7344571428571425 1.1158285714285714 -0.39438857142857137 2.340102857142857 0.19045714285714285 2.734491428571429 1.3062857142857143 0.1692685714285714 0.47886857142857137 0.6260914285714285 0.8168228571428571 1.1563542857142857 0.8168228571428571h1.0850057142857144c0.012582857142857142 -0.00020571428571428572 0.025165714285714284 -0.00034285714285714285 0.037817142857142855 -0.00034285714285714285 0.012617142857142856 0 0.025234285714285713 0.00013714285714285713 0.037817142857142855 0.00034285714285714285h1.0849371428571428c0.6758057142857142 0 1.225542857142857 -0.5489142857142857 1.225542857142857 -1.2267771428571428 0 -0.5766857142857142 -0.4017942857142857 -1.0753028571428571 -0.9636685714285713 -1.198182857142857l-3.9695657142857144 -0.8683542857142856c-2.364102857142857 -0.5171657142857142 -4.049142857142857 -2.6106514285714284 -4.049142857142857 -5.03064 0 -2.6209714285714285 1.9580914285714286 -4.7846400000000004 4.491222857142858 -5.107885714285714v-1.2675771428571427c0 -1.1834742857142857 0.9593828571428571 -2.142857142857143 2.142857142857143 -2.142857142857143 1.1834399999999998 0 2.142857142857143 0.9593828571428571 2.142857142857143 2.142857142857143Z" clip-rule="evenodd" stroke-width="3.4286"></path>
  </g>
</svg>