<svg xmlns="http://www.w3.org/2000/svg" fill="none" viewBox="0 0 48 48" id="Button-Rewind-2--Streamline-Core-Remix" height="48" width="48">
  <desc>
    Button Rewind 2 Streamline Icon: https://streamlinehq.com
  </desc>
  <g id="Free Remix/Entertainment/button-rewind-2--rewind-television-button-movies-buttons-tv-video-controls">
    <path id="Union" fill="#000000" fill-rule="evenodd" d="M16.570971428571426 5.027588571428571c3.4108799999999997 -3.445508571428571 9.572091428571428 -1.2083314285714286 9.572091428571428 3.8316v8.578217142857143l12.285051428571428 -12.409817142857143c3.410742857142857 -3.445508571428571 9.572228571428571 -1.2083314285714286 9.572228571428571 3.8316v30.280697142857143c0 5.04 -6.161485714285714 7.277142857142857 -9.572228571428571 3.831771428571428L26.14306285714286 30.56170285714286v8.578182857142856c0 5.04 -6.161211428571429 7.277142857142857 -9.572091428571428 3.831771428571428L6.042685714285714 32.33633142857143V41.208c0 1.6570285714285713 -1.343142857142857 3 -2.999996571428571 3s-2.999999314285714 -1.3429714285714285 -2.999999314285714 -3l0 -16.52856c-0.05691970285714286 -0.45137142857142853 -0.05691970285714286 -0.9084 0 -1.3597714285714286l0 -16.528731428571426c0 -1.6568571428571428 1.3431456 -3 2.999999314285714 -3s2.999996571428571 1.343142857142857 2.999996571428571 3v8.871839999999999L16.570971428571426 5.027588571428571ZM6.042685714285714 26.24454857142857V21.75456l13.574022857142857 -13.711851428571427c0.4039885714285714 -0.4081028571428571 0.9480685714285714 -0.4908342857142857 1.4501485714285713 -0.29328 0.49827428571428567 0.19604571428571427 0.7904914285714285 0.5967085714285714 0.7904914285714285 1.10976v30.280697142857143c0 0.5129142857142858 -0.29221714285714284 0.9137142857142857 -0.7904914285714285 1.1098285714285714 -0.50208 0.19748571428571426 -1.04616 0.11485714285714285 -1.4501485714285713 -0.29348571428571424L6.042685714285714 26.24454857142857Zm20.10037714285714 -2.266422857142857v0.04285714285714286c0.0054514285714285715 0.2856342857142857 0.11965714285714285 0.5698285714285714 0.34261714285714284 0.7950857142857142l14.988034285714285 15.140159999999998c0.40422857142857144 0.4083428571428571 0.9483428571428572 0.4909714285714285 1.4502857142857142 0.29348571428571424 0.4981714285714286 -0.1961142857142857 0.7906285714285713 -0.5969142857142857 0.7906285714285713 -1.1098285714285714V8.859188571428572c0 -0.5130514285714285 -0.29245714285714286 -0.9137142857142857 -0.7906285714285713 -1.10976 -0.5019428571428571 -0.19755428571428568 -1.0460571428571428 -0.11482285714285713 -1.4502857142857142 0.29328L26.48568 23.18304c-0.22296 0.22525714285714282 -0.33716571428571424 0.5094514285714286 -0.34261714285714284 0.7950857142857142Z" clip-rule="evenodd" stroke-width="3.4286"></path>
  </g>
</svg>