<svg xmlns="http://www.w3.org/2000/svg" fill="none" viewBox="0 0 48 48" id="Button-Fast-Forward-2--Streamline-Core-Remix" height="48" width="48">
  <desc>
    Button Fast Forward 2 Streamline Icon: https://streamlinehq.com
  </desc>
  <g id="Free Remix/Entertainment/button-fast-forward-2--button-controls-fast-forward-movies-television-video-tv">
    <path id="Union" fill="#000000" fill-rule="evenodd" d="M45.00994285714285 3.362444571428571c1.6570285714285713 0 3 1.3431325714285713 3 2.9999897142857144V41.63691428571428c0 1.6566857142857143 -1.3429714285714285 3 -3 3 -1.6566857142857143 0 -3 -1.3433142857142857 -3 -3V32.28332571428571L31.429234285714283 42.97165714285714c-3.4108799999999997 3.445371428571428 -9.572091428571428 1.2082285714285714 -9.572091428571428 -3.831771428571428V30.56180571428571L9.572091428571428 42.97165714285714C6.161211428571429 46.41702857142857 0 44.17988571428571 0 39.13988571428572V8.859291428571428C0 3.8193257142857138 6.161211428571429 1.5821622857142856 9.572091428571428 5.027657142857143L21.857142857142858 17.437474285714284V8.859291428571428c0 -5.039965714285714 6.161211428571429 -7.2771291428571425 9.572091428571428 -3.8316342857142858l10.580708571428572 10.688262857142856v-9.353485714285714c0 -1.6568571428571428 1.3433142857142857 -2.9999897142857144 3 -2.9999897142857144Zm-3 18.445258285714285L28.38349714285714 8.042777142857142c-0.4039885714285714 -0.4080685714285714 -0.9480685714285714 -0.4908342857142857 -1.4501485714285713 -0.29328 -0.49827428571428567 0.19607999999999998 -0.7904914285714285 0.5967428571428571 -0.7904914285714285 1.1097942857142855v15.092914285714285c0.00027428571428571427 0.031611428571428575 0.00027428571428571427 0.06322285714285715 0 0.0948342857142857v15.092845714285712c0 0.5132571428571429 0.29221714285714284 0.9137142857142857 0.7904914285714285 1.1098285714285714 0.50208 0.19748571428571426 1.04616 0.11485714285714285 1.4501485714285713 -0.29314285714285715l13.626445714285714 -13.764994285714284V21.807702857142854Zm-20.1528 2.170422857142857c-0.0054514285714285715 -0.28559999999999997 -0.11965714285714285 -0.5697599999999999 -0.34261714285714284 -0.7949828571428571L6.5263542857142856 8.042777142857142c-0.4039885714285714 -0.4080685714285714 -0.9480685714285714 -0.4908342857142857 -1.4501485714285713 -0.29328 -0.49827428571428567 0.19607999999999998 -0.7904914285714285 0.5967428571428571 -0.7904914285714285 1.1097942857142855v30.280594285714283c0 0.5132571428571429 0.29221714285714284 0.9137142857142857 0.7904914285714285 1.1098285714285714 0.50208 0.19748571428571426 1.04616 0.11485714285714285 1.4501485714285713 -0.29314285714285715l14.988171428571428 -15.140434285714285c0.22296 -0.2252228571428571 0.33716571428571424 -0.5093828571428571 0.34261714285714284 -0.7949828571428571v-0.04302857142857143Z" clip-rule="evenodd" stroke-width="3.4286"></path>
  </g>
</svg>