<svg xmlns="http://www.w3.org/2000/svg" fill="none" viewBox="0 0 48 48" id="Button-Fast-Forward-1--Streamline-Core-Remix" height="48" width="48">
  <desc>
    Button Fast Forward 1 Streamline Icon: https://streamlinehq.com
  </desc>
  <g id="Free Remix/Entertainment/button-fast-forward-1--button-controls-fast-forward-movies-television-video-tv">
    <path id="Union" fill="#000000" fill-rule="evenodd" d="M4.285714285714286 8.496754285714285c0 -0.5130514285714285 0.29221714285714284 -0.9137142857142857 0.7904914285714285 -1.10976 0.50208 -0.19758857142857142 1.04616 -0.11482285714285713 1.4501485714285713 0.29328l14.988171428571428 15.140331428571429c0.22296 0.2252228571428571 0.33716571428571424 0.5093828571428571 0.34261714285714284 0.7949828571428571v0.04302857142857143c-0.0054514285714285715 0.28559999999999997 -0.11965714285714285 0.5697599999999999 -0.34261714285714284 0.7949828571428571l-14.988171428571428 15.140228571428569c-0.4039885714285714 0.4083428571428571 -0.9480685714285714 0.4909714285714285 -1.4501485714285713 0.29348571428571424 -0.49827428571428567 -0.1961142857142857 -0.7904914285714285 -0.5969142857142857 -0.7904914285714285 -1.1098285714285714V8.496754285714285Zm17.57142857142857 21.702514285714287L9.572091428571428 42.608914285714285C6.161211428571429 46.05462857142857 0 43.81748571428571 0 38.77748571428571V8.496754285714285C0 3.456788571428571 6.161211428571429 1.2196354285714286 9.572091428571428 4.665154285714285L21.857142857142858 17.07493714285714V8.496754285714285c0 -5.039965714285714 6.161211428571429 -7.277118857142857 9.572091428571428 -3.8316L46.41737142857142 19.805485714285712c2.1102857142857143 2.1318514285714283 2.1102857142857143 5.531382857142857 0 7.663234285714286L31.429234285714283 42.608914285714285c-3.4108799999999997 3.4457142857142853 -9.572091428571428 1.2085714285714284 -9.572091428571428 -3.831428571428571V30.199268571428572Zm4.285714285714286 -6.514765714285714v15.092982857142857c0 0.5129142857142858 0.29221714285714284 0.9137142857142857 0.7904914285714285 1.1098285714285714 0.50208 0.19748571428571426 1.04616 0.11485714285714285 1.4501485714285713 -0.29348571428571424l14.988274285714285 -15.140228571428569c0.4570285714285714 -0.4617257142857143 0.4570285714285714 -1.1712342857142857 0 -1.6329942857142856L28.38349714285714 7.680274285714285c-0.4039885714285714 -0.4081028571428571 -0.9480685714285714 -0.4908685714285714 -1.4501485714285713 -0.29328 -0.49827428571428567 0.19604571428571427 -0.7904914285714285 0.5967085714285714 -0.7904914285714285 1.10976v15.092948571428572c0.00027428571428571427 0.031611428571428575 0.00027428571428571427 0.06322285714285715 0 0.0948Z" clip-rule="evenodd" stroke-width="3.4286"></path>
  </g>
</svg>