<svg xmlns="http://www.w3.org/2000/svg" fill="none" viewBox="0 0 48 48" id="Button-Stop--Streamline-Core-Remix" height="48" width="48">
  <desc>
    Button Stop Streamline Icon: https://streamlinehq.com
  </desc>
  <g id="Free Remix/Entertainment/button-stop--button-television-buttons-movies-stop-tv-video-controls">
    <path id="Vector (Stroke)" fill="#000000" fill-rule="evenodd" d="M6.593417142857142 5.571428571428571c-0.5644457142857142 0 -1.0219885714285715 0.45754285714285714 -1.0219885714285715 1.0219885714285715V41.40651428571429c0 0.5643428571428571 0.45754285714285714 1.0220571428571428 1.0219885714285715 1.0220571428571428H41.40651428571429c0.5643428571428571 0 1.0220571428571428 -0.45771428571428574 1.0220571428571428 -1.0220571428571428V6.593417142857142c0 -0.5644457142857142 -0.45771428571428574 -1.0219885714285715 -1.0220571428571428 -1.0219885714285715H6.593417142857142ZM1.2857142857142856 6.593417142857142C1.2857142857142856 3.662057142857143 3.662057142857143 1.2857142857142856 6.593417142857142 1.2857142857142856H41.40651428571429c2.931428571428571 0 5.307771428571429 2.3763428571428573 5.307771428571429 5.307702857142856V41.40651428571429c0 2.931428571428571 -2.3763428571428573 5.307771428571429 -5.307771428571429 5.307771428571429H6.593417142857142C3.662057142857143 46.71428571428571 1.2857142857142856 44.337942857142856 1.2857142857142856 41.40651428571429V6.593417142857142Z" clip-rule="evenodd" stroke-width="3.4286"></path>
  </g>
</svg>