<svg xmlns="http://www.w3.org/2000/svg" fill="none" viewBox="0 0 48 48" id="Button-Previous--Streamline-Core-Remix" height="48" width="48">
  <desc>
    Button Previous Streamline Icon: https://streamlinehq.com
  </desc>
  <g id="Free Remix/Entertainment/button-previous--button-television-buttons-movies-skip-previous-video-controls">
    <path id="Union" fill="#000000" fill-rule="evenodd" d="M46.713942857142854 6.833108571428571c0 -4.5443931428571425 -5.154857142857143 -7.110384 -8.813485714285715 -4.506682285714286L13.779428571428571 19.493177142857142c-3.1058399999999997 2.210365714285714 -3.1058399999999997 6.8029714285714284 0 9.013371428571427l24.12102857142857 17.166822857142858c3.658628571428571 2.6036571428571427 8.813485714285715 0.03771428571428571 8.813485714285715 -4.506857142857142V6.833108571428571Zm-6.328457142857143 -1.01496c0.8783999999999998 -0.6251314285714286 2.042742857142857 0.023039999999999998 2.042742857142857 1.01496V41.166514285714285c0 0.9918857142857143 -1.1643428571428571 1.6402285714285714 -2.042742857142857 1.0151999999999999L16.264422857142854 25.014822857142853c-0.70488 -0.5016685714285715 -0.70488 -1.528285714285714 0 -2.0299542857142856l24.121062857142856 -17.16672Zm-33.956914285714284 -1.5325714285714285c0 -1.6568674285714284 -1.343142857142857 -3.0000102857142856 -3 -3.0000102857142856 -1.656853714285714 0 -3 1.343142857142857 -3 3.0000102857142856V43.714285714285715c0 1.6566857142857143 1.3431462857142857 3 3 3 1.6568571428571428 0 3 -1.3433142857142857 3 -3V4.285577142857142Z" clip-rule="evenodd" stroke-width="3.4286"></path>
  </g>
</svg>