<svg xmlns="http://www.w3.org/2000/svg" fill="none" viewBox="0 0 48 48" id="Button-Power-1--Streamline-Core-Remix" height="48" width="48">
  <desc>
    Button Power 1 Streamline Icon: https://streamlinehq.com
  </desc>
  <g id="Free Remix/Entertainment/button-power-1--power-button-on-off">
    <path id="Union" fill="#000000" fill-rule="evenodd" d="M26.142857142857142 2.2742742857142857c0 -1.1834674285714284 -0.9593828571428571 -2.1428568 -2.142857142857143 -2.1428568S21.857142857142858 1.090806857142857 21.857142857142858 2.2742742857142857v18.49453714285714c0 1.1834742857142857 0.9593828571428571 2.142857142857143 2.142857142857143 2.142857142857143s2.142857142857143 -0.9593828571428571 2.142857142857143 -2.142857142857143V2.2742742857142857Zm-13.75512 7.1616c1.1227885714285712 -0.8695885714285715 1.3280228571428572 -2.4847542857142857 0.4584342857142857 -3.607542857142857 -0.869622857142857 -1.1227885714285712 -2.4847542857142857 -1.3280228571428572 -3.607542857142857 -0.45840000000000003C5.299028571428571 8.421188571428571 2.4146125714285716 12.618994285714285 0.9917279999999999 17.37973714285714c-1.4229497142857142 4.760948571428571 -1.3122133714285713 9.844251428571427 0.31652571428571424 14.539474285714286C2.936910857142857 36.61405714285714 6.001028571428571 40.68411428571428 10.069337142857142 43.56342857142857 14.137302857142856 46.4424 19.00734857142857 47.988685714285715 24 47.988685714285715c4.992617142857143 0 9.862697142857142 -1.5462857142857143 13.930628571428572 -4.425257142857142 4.0683428571428575 -2.8793142857142855 7.132457142857142 -6.949371428571428 8.76102857142857 -11.644217142857142 1.6289142857142858 -4.6952228571428565 1.7396571428571426 -9.778525714285713 0.3164571428571428 -14.539474285714286 -1.4228571428571428 -4.760742857142857 -4.306971428571428 -8.95854857142857 -8.246742857142857 -12.009805714285713 -1.1228571428571428 -0.869622857142857 -2.7380571428571425 -0.6643885714285714 -3.607542857142857 0.45840000000000003 -0.8695885714285715 1.1227885714285712 -0.6644571428571429 2.737954285714286 0.45840000000000003 3.607542857142857 3.0946285714285713 2.3967771428571427 5.354742857142857 5.689508571428571 6.468685714285714 9.416571428571428 1.1136 3.7268571428571424 1.0272 7.705302857142858 -0.2478857142857143 11.381279999999999 -1.2754285714285714 3.6762514285714287 -3.6768 6.8695885714285705 -6.873257142857143 9.13176 -3.196902857142857 2.262514285714286 -7.028331428571428 3.4803428571428565 -10.959771428571429 3.4803428571428565 -3.9314400000000003 0 -7.762868571428571 -1.2178285714285715 -10.95966857142857 -3.4803428571428565 -3.196491428571428 -2.2621714285714285 -5.598 -5.455508571428571 -6.873257142857143 -9.13176 -1.2751885714285713 -3.6759771428571426 -1.3617599999999999 -7.654422857142857 -0.24785142857142853 -11.381279999999999 1.1139428571428571 -3.727062857142857 3.3739542857142855 -7.019794285714285 6.468514285714285 -9.416571428571428Z" clip-rule="evenodd" stroke-width="3.4286"></path>
  </g>
</svg>