<svg xmlns="http://www.w3.org/2000/svg" fill="none" viewBox="0 0 48 48" id="Button-Next--Streamline-Core-Remix" height="48" width="48">
  <desc>
    Button Next Streamline Icon: https://streamlinehq.com
  </desc>
  <g id="Free Remix/Entertainment/button-next--button-television-buttons-movies-skip-next-video-controls">
    <path id="Union" fill="#000000" fill-rule="evenodd" d="M5.571428571428571 6.833108571428571c0 -0.99192 1.164445714285714 -1.6400914285714285 2.0427771428571426 -1.01496l24.121165714285713 17.16672c0.70488 0.5016685714285715 0.70488 1.528285714285714 0 2.0299542857142856L7.614205714285714 42.181714285714285c-0.8783314285714285 0.6250285714285714 -2.0427771428571426 -0.02331428571428571 -2.0427771428571426 -1.0151999999999999V6.833108571428571ZM10.0992 2.3264262857142852C6.440708571428571 -0.2772757714285714 1.2857142857142856 2.2887154285714284 1.2857142857142856 6.833108571428571V41.166514285714285c0 4.544571428571428 5.154994285714285 7.110514285714285 8.813485714285715 4.506857142857142l24.121165714285713 -17.166822857142858c3.1058057142857143 -2.210365714285714 3.1058057142857143 -6.803005714285714 0 -9.013371428571427L10.0992 2.3264262857142852Zm37.472228571428566 1.959150857142857c0 -1.6568674285714284 -1.3433142857142857 -3.0000102857142856 -3 -3.0000102857142856s-3 1.343142857142857 -3 3.0000102857142856V43.714285714285715c0 1.6566857142857143 1.3433142857142857 3 3 3s3 -1.3433142857142857 3 -3V4.285577142857142Z" clip-rule="evenodd" stroke-width="3.4286"></path>
  </g>
</svg>