<svg xmlns="http://www.w3.org/2000/svg" fill="none" viewBox="0 0 48 48" id="Button-Rewind-1--Streamline-Core-Remix" height="48" width="48">
  <desc>
    Button Rewind 1 Streamline Icon: https://streamlinehq.com
  </desc>
  <g id="Free Remix/Entertainment/button-rewind-1--rewind-television-button-movies-buttons-tv-video-controls">
    <path id="Union" fill="#000000" fill-rule="evenodd" d="M26.14306285714286 8.496754285714285c0 -5.039965714285714 -6.161211428571429 -7.277118857142857 -9.572091428571428 -3.8316L1.5828171428571427 19.805485714285712c-2.110422857142857 2.1318514285714283 -2.110422857142857 5.531382857142857 0 7.663234285714286L16.570971428571426 42.608914285714285c3.4108799999999997 3.4457142857142853 9.572091428571428 1.2085714285714284 9.572091428571428 -3.831428571428571V30.199268571428572l12.285051428571428 12.409645714285713c3.410742857142857 3.4457142857142853 9.572228571428571 1.2085714285714284 9.572228571428571 -3.831428571428571V8.496754285714285c0 -5.039965714285714 -6.161485714285714 -7.277118857142857 -9.572228571428571 -3.8316L26.14306285714286 17.07493714285714V8.496754285714285Zm0 15.16176v-0.04282285714285714c0.0054514285714285715 -0.2856342857142857 0.11965714285714285 -0.5698285714285714 0.34261714285714284 -0.7950857142857142l14.988034285714285 -15.140331428571429c0.40422857142857144 -0.4081028571428571 0.9483428571428572 -0.4908685714285714 1.4502857142857142 -0.29328 0.4981714285714286 0.19604571428571427 0.7906285714285713 0.5967085714285714 0.7906285714285713 1.10976v30.28073142857143c0 0.5129142857142858 -0.29245714285714286 0.9137142857142857 -0.7906285714285713 1.1098285714285714 -0.5019428571428571 0.19748571428571426 -1.0460571428571428 0.11485714285714285 -1.4502857142857142 -0.29348571428571424L26.48568 24.453599999999998c-0.22296 -0.2252228571428571 -0.33716571428571424 -0.5094171428571428 -0.34261714285714284 -0.7950857142857142Zm-4.285714285714286 -0.06850285714285714v-15.09325714285714c0 -0.5130514285714285 -0.29221714285714284 -0.9137142857142857 -0.7904914285714285 -1.10976 -0.50208 -0.19758857142857142 -1.04616 -0.11482285714285713 -1.4501485714285713 0.29328L4.628537142857143 22.820605714285715c-0.4570971428571428 0.46175999999999995 -0.4570971428571428 1.1712685714285713 0 1.6329942857142856l14.988171428571428 15.140228571428569c0.4039885714285714 0.4083428571428571 0.9480685714285714 0.4909714285714285 1.4501485714285713 0.29348571428571424 0.49827428571428567 -0.1961142857142857 0.7904914285714285 -0.5969142857142857 0.7904914285714285 -1.1098285714285714V23.684194285714284c-0.00027428571428571427 -0.03137142857142857 -0.00027428571428571427 -0.06277714285714285 0 -0.09418285714285714Z" clip-rule="evenodd" stroke-width="3.4286"></path>
  </g>
</svg>