<svg xmlns="http://www.w3.org/2000/svg" fill="none" viewBox="0 0 48 48" id="Button-Play--Streamline-Core-Remix" height="48" width="48">
  <desc>
    Button Play Streamline Icon: https://streamlinehq.com
  </desc>
  <g id="Free Remix/Entertainment/button-play--button-television-buttons-movies-play-tv-video-controls">
    <path id="Vector (Stroke)" fill="#000000" fill-rule="evenodd" d="M7.354937142857143 2.0450811428571427C8.254731428571429 1.5471497142857142 9.266502857142855 1.2857142857142856 10.295451428571427 1.2857142857142856c1.0469485714285713 0 2.076068571428571 0.2706411428571428 2.9875542857142854 0.7856605714285714 0.022559999999999997 0.012737142857142857 0.04484571428571428 0.02587885714285714 0.06692571428571428 0.03942514285714286l27.334525714285714 16.77984c0.912 0.4638514285714285 1.6820571428571427 1.1667085714285712 2.2272 2.0345142857142857 0.5667428571428571 0.9021942857142856 0.8674285714285714 1.9459885714285712 0.8674285714285714 3.0114514285714282 0 1.065462857142857 -0.3006857142857143 2.1092914285714284 -0.8674285714285714 3.0114514285714282 -0.5444571428571429 0.8666742857142857 -1.3131428571428572 1.5688114285714283 -2.2237714285714283 2.0326971428571428L13.356034285714284 45.8856c-0.024034285714285713 0.014742857142857143 -0.04841142857142857 0.029142857142857144 -0.07302857142857143 0.04285714285714286 -0.9114857142857141 0.5153142857142856 -1.9406057142857143 0.7858285714285713 -2.9875542857142854 0.7858285714285713 -1.0289485714285713 0 -2.04072 -0.2616 -2.9404799999999995 -0.7594285714285713 -0.9197142857142856 -0.47074285714285713 -1.69608 -1.1807999999999998 -2.247188571428571 -2.0554285714285716 -0.5608114285714285 -0.8900571428571428 -0.8669142857142857 -1.9169142857142858 -0.8850514285714285 -2.969142857142857l-0.0006171428571428571 -0.03668571428571428 0.00030857142857142856 -33.82402285714286c0.01813714285714286 -1.0519542857142856 0.3245485714285714 -2.0788114285714285 0.88536 -2.969005714285714 0.5511085714285714 -0.8747691428571428 1.32744 -1.5846582857142857 2.2471542857142857 -2.0554902857142854ZM10.295451428571427 5.571428571428571c-0.3080914285714285 0 -0.6109714285714285 0.07964571428571428 -0.8792571428571428 0.23122285714285712 -0.03147428571428571 0.017794285714285714 -0.06342857142857142 0.0348 -0.0957942857142857 0.050982857142857135 -0.24041142857142855 0.12020571428571428 -0.4432457142857143 0.30397714285714283 -0.5864914285714286 0.5313942857142856 -0.14070857142857143 0.22333714285714285 -0.21863999999999997 0.4803428571428571 -0.22577142857142857 0.7440342857142856v33.741908571428574c0.007131428571428571 0.2636571428571428 0.08506285714285713 0.5208 0.22577142857142857 0.744 0.14324571428571428 0.2273142857142857 0.34608 0.4110857142857143 0.5864914285714286 0.5314285714285714 0.03236571428571428 0.016114285714285713 0.06431999999999999 0.03325714285714285 0.0957942857142857 0.05108571428571428 0.2682857142857143 0.15154285714285715 0.5711657142857142 0.23108571428571428 0.8792571428571428 0.23108571428571428 0.29670857142857143 0 0.5885828571428571 -0.0737142857142857 0.8493257142857142 -0.21462857142857142l27.37316571428571 -16.930285714285713c0.06377142857142856 -0.039428571428571424 0.1296 -0.07549714285714286 0.19714285714285715 -0.10803428571428572 0.23314285714285715 -0.11235428571428571 0.4299428571428572 -0.28824 0.5677714285714285 -0.5073942857142857 0.13748571428571427 -0.21918857142857143 0.2105142857142857 -0.4727657142857143 0.2105142857142857 -0.7316228571428571 0 -0.25885714285714284 -0.07302857142857143 -0.5124342857142857 -0.2105142857142857 -0.7316228571428571 -0.1378285714285714 -0.21915428571428572 -0.33462857142857144 -0.39504 -0.5677714285714285 -0.5073942857142857 -0.06548571428571427 -0.03147428571428571 -0.12925714285714285 -0.06630857142857143 -0.19097142857142857 -0.10426285714285713l-27.376765714285714 -16.80582857142857c-0.2613942857142857 -0.14173714285714287 -0.5541942857142858 -0.21606857142857144 -0.8518971428571428 -0.21606857142857144Z" clip-rule="evenodd" stroke-width="3.4286"></path>
  </g>
</svg>