<svg xmlns="http://www.w3.org/2000/svg" fill="none" viewBox="0 0 48 48" id="Button-Pause-2--Streamline-Core-Remix" height="48" width="48">
  <desc>
    Button Pause 2 Streamline Icon: https://streamlinehq.com
  </desc>
  <g id="Free Remix/Entertainment/button-pause-2--button-television-buttons-movies-tv-pause-video-controls">
    <path id="Union" fill="#000000" fill-rule="evenodd" d="M5.571428571428571 6.857142857142857c0 -0.7100914285714285 0.5756228571428571 -1.2857142857142856 1.2857142857142856 -1.2857142857142856h8.571428571428571c0.7100914285714285 0 1.2857142857142856 0.5756228571428571 1.2857142857142856 1.2857142857142856v34.285714285714285c0 0.7100571428571428 -0.5756228571428571 1.2857142857142856 -1.2857142857142856 1.2857142857142856H6.857142857142857c-0.7100914285714285 0 -1.2857142857142856 -0.5756571428571428 -1.2857142857142856 -1.2857142857142856V6.857142857142857ZM6.857142857142857 1.2857142857142856C3.780137142857143 1.2857142857142856 1.2857142857142856 3.780137142857143 1.2857142857142856 6.857142857142857v34.285714285714285c0 3.077142857142857 2.494422857142857 5.571428571428571 5.571428571428571 5.571428571428571h8.571428571428571c3.0770057142857143 0 5.571428571428571 -2.494285714285714 5.571428571428571 -5.571428571428571V6.857142857142857c0 -3.0770057142857143 -2.494422857142857 -5.571428571428571 -5.571428571428571 -5.571428571428571H6.857142857142857ZM31.285714285714285 6.857142857142857c0 -0.7100914285714285 0.5756228571428571 -1.2857142857142856 1.2857142857142856 -1.2857142857142856H41.14285714285714c0.7100571428571428 0 1.2857142857142856 0.5756228571428571 1.2857142857142856 1.2857142857142856v34.285714285714285c0 0.7100571428571428 -0.5756571428571428 1.2857142857142856 -1.2857142857142856 1.2857142857142856H32.57142857142857c-0.7100914285714285 0 -1.2857142857142856 -0.5756571428571428 -1.2857142857142856 -1.2857142857142856V6.857142857142857ZM32.57142857142857 1.2857142857142856c-3.0770057142857143 0 -5.571428571428571 2.494422857142857 -5.571428571428571 5.571428571428571v34.285714285714285c0 3.077142857142857 2.494422857142857 5.571428571428571 5.571428571428571 5.571428571428571H41.14285714285714c3.077142857142857 0 5.571428571428571 -2.494285714285714 5.571428571428571 -5.571428571428571V6.857142857142857c0 -3.0770057142857143 -2.494285714285714 -5.571428571428571 -5.571428571428571 -5.571428571428571H32.57142857142857Z" clip-rule="evenodd" stroke-width="3.4286"></path>
  </g>
</svg>