<svg xmlns="http://www.w3.org/2000/svg" fill="none" viewBox="0 0 48 48" id="Cake-Slice--Streamline-Core-Remix" height="48" width="48">
  <desc>
    Cake Slice Streamline Icon: https://streamlinehq.com
  </desc>
  <g id="Free Remix/Food Drink/cake-slice--cherry-cake-birthday-event-special-sweet-bake">
    <path id="Union" fill="#000000" fill-rule="evenodd" d="M18.857142857142858 4.285714285714286c-1.0113257142857142 0 -1.9057714285714282 0.5004342857142857 -2.4492342857142857 1.2671657142857142C20.062594285714283 6.697748571428571 22.71428571428571 10.110617142857143 22.71428571428571 14.142857142857142c0 1.7285485714285715 -0.48730285714285715 3.3432685714285713 -1.332 4.714285714285714H41.14285714285714c3.077142857142857 0 5.571428571428571 2.494422857142857 5.571428571428571 5.571428571428571v17.142857142857142c0 3.077142857142857 -2.494285714285714 5.571428571428571 -5.571428571428571 5.571428571428571H6.857142857142857c-3.0770057142857143 0 -5.571428571428571 -2.494285714285714 -5.571428571428571 -5.571428571428571v-17.142857142857142c0 -2.8131771428571426 2.0849965714285714 -5.139394285714285 4.794 -5.5176 -0.8652685714285713 -1.3825371428571427 -1.3654285714285714 -3.016902857142857 -1.3654285714285714 -4.768114285714286 0 -4.325794285714285 3.0518742857142853 -7.938822857142857 7.119977142857143 -8.803337142857142C12.685611428571427 2.260638857142857 15.507394285714286 0 18.857142857142858 0c1.1834742857142857 0 2.142857142857143 0.9593897142857143 2.142857142857143 2.142857142857143s-0.9593828571428571 2.142857142857143 -2.142857142857143 2.142857142857143ZM5.571428571428571 30.857142857142854v10.714285714285714c0 0.7100571428571428 0.5756228571428571 1.2857142857142856 1.2857142857142856 1.2857142857142856h34.285714285714285c0.7100571428571428 0 1.2857142857142856 -0.5756571428571428 1.2857142857142856 -1.2857142857142856V30.857142857142854H5.571428571428571ZM13.714285714285714 18.857142857142858c2.6036228571428572 0 4.714285714285714 -2.110662857142857 4.714285714285714 -4.714285714285714S16.31790857142857 9.428571428571429 13.714285714285714 9.428571428571429s-4.714285714285714 2.110662857142857 -4.714285714285714 4.714285714285714S11.110662857142858 18.857142857142858 13.714285714285714 18.857142857142858Z" clip-rule="evenodd" stroke-width="3.4286"></path>
  </g>
</svg>