<svg xmlns="http://www.w3.org/2000/svg" fill="none" viewBox="0 0 48 48" id="Calculator-2--Streamline-Core-Remix" height="48" width="48">
  <desc>
    Calculator 2 Streamline Icon: https://streamlinehq.com
  </desc>
  <g id="Free Remix/Money Shopping/calculator-2--shop-shopping-pay-payment-store-cash-calculate-math-sign">
    <path id="Union" fill="#000000" fill-rule="evenodd" d="M22.285714285714285 42.857142857142854H9.758228571428571C7.209222857142857 42.857142857142854 5.142857142857142 40.79074285714285 5.142857142857142 38.2416V25.71428571428571h17.142857142857142v17.142857142857142Zm-20.57142857142857 -33.09891428571429v28.48337142857143C1.7142857142857142 42.68434285714286 5.315691428571428 46.285714285714285 9.758228571428571 46.285714285714285h28.48337142857143c4.442742857142857 0 8.044114285714285 -3.6013714285714284 8.044114285714285 -8.044114285714285V9.758228571428571C46.285714285714285 5.315691428571428 42.68434285714286 1.7142857142857142 38.2416 1.7142857142857142H9.758228571428571C5.315691428571428 1.7142857142857142 1.7142857142857142 5.315691428571428 1.7142857142857142 9.758228571428571ZM25.71428571428571 22.285714285714285h17.142857142857142V9.758228571428571C42.857142857142854 7.209222857142857 40.79074285714285 5.142857142857142 38.2416 5.142857142857142H25.71428571428571v17.142857142857142ZM30.857142857142854 11.571428571428571c-1.1834742857142857 0 -2.142857142857143 0.9593828571428571 -2.142857142857143 2.142857142857143s0.9593828571428571 2.142857142857143 2.142857142857143 2.142857142857143h6.857142857142857c1.183542857142857 0 2.142857142857143 -0.9593828571428571 2.142857142857143 -2.142857142857143s-0.9593142857142857 -2.142857142857143 -2.142857142857143 -2.142857142857143H30.857142857142854ZM7.285714285714286 13.714285714285714c0 -1.1834742857142857 0.9593828571428571 -2.142857142857143 2.142857142857143 -2.142857142857143h2.142857142857143V9.428571428571429c0 -1.1834742857142857 0.9593828571428571 -2.142857142857143 2.142857142857143 -2.142857142857143s2.142857142857143 0.9593828571428571 2.142857142857143 2.142857142857143v2.142857142857143h2.142857142857143c1.1834742857142857 0 2.142857142857143 0.9593828571428571 2.142857142857143 2.142857142857143s-0.9593828571428571 2.142857142857143 -2.142857142857143 2.142857142857143h-2.142857142857143v2.142857142857143c0 1.1834742857142857 -0.9593828571428571 2.142857142857143 -2.142857142857143 2.142857142857143s-2.142857142857143 -0.9593828571428571 -2.142857142857143 -2.142857142857143v-2.142857142857143H9.428571428571429c-1.1834742857142857 0 -2.142857142857143 -0.9593828571428571 -2.142857142857143 -2.142857142857143Zm4.309302857142857 15.421919999999998c-0.8368114285714285 -0.8368457142857142 -2.1936 -0.8368457142857142 -3.030445714285714 0 -0.8368457142857142 0.8368457142857142 -0.8368457142857142 2.1936342857142854 0 3.030445714285714L10.683634285714286 34.285714285714285l-2.119062857142857 2.1191999999999998c-0.8368457142857142 0.8365714285714285 -0.8368457142857142 2.1936 0 3.0301714285714283 0.8368457142857142 0.8369142857142857 2.1936342857142854 0.8369142857142857 3.030445714285714 0l2.119062857142857 -2.1188571428571428 2.119062857142857 2.1188571428571428c0.8368457142857142 0.8369142857142857 2.1936 0.8369142857142857 3.030445714285714 0 0.8368457142857142 -0.8365714285714285 0.8368457142857142 -2.1936 0 -3.0301714285714283L16.744525714285714 34.285714285714285l2.119062857142857 -2.119062857142857c0.8368457142857142 -0.8368114285714285 0.8368457142857142 -2.1936 0 -3.030445714285714 -0.8368457142857142 -0.8368457142857142 -2.1936 -0.8368457142857142 -3.030445714285714 0l-2.119062857142857 2.119062857142857 -2.119062857142857 -2.119062857142857ZM30.857142857142854 28.285714285714285c-1.1834742857142857 0 -2.142857142857143 0.9593828571428571 -2.142857142857143 2.142857142857143S29.67366857142857 32.57142857142857 30.857142857142854 32.57142857142857h6.857142857142857c1.183542857142857 0 2.142857142857143 -0.9593828571428571 2.142857142857143 -2.142857142857143S38.89782857142857 28.285714285714285 37.714285714285715 28.285714285714285H30.857142857142854Zm-2.142857142857143 9.857142857142856c0 -1.183542857142857 0.9593828571428571 -2.142857142857143 2.142857142857143 -2.142857142857143h6.857142857142857c1.183542857142857 0 2.142857142857143 0.9593142857142857 2.142857142857143 2.142857142857143s-0.9593142857142857 2.142857142857143 -2.142857142857143 2.142857142857143H30.857142857142854c-1.1834742857142857 0 -2.142857142857143 -0.9593142857142857 -2.142857142857143 -2.142857142857143Z" clip-rule="evenodd" stroke-width="3.4286"></path>
  </g>
</svg>