<svg xmlns="http://www.w3.org/2000/svg" fill="none" viewBox="0 0 48 48" id="Calculator-1--Streamline-Core-Remix" height="48" width="48">
  <desc>
    Calculator 1 Streamline Icon: https://streamlinehq.com
  </desc>
  <g id="Free Remix/Money Shopping/calculator-1--shop-shopping-pay-payment-store-cash-calculate-math">
    <path id="Union" fill="#000000" fill-rule="evenodd" d="M40.714285714285715 18.857142857142858h-33.42857142857142v23.57142857142857c0 0.7100571428571428 0.5756228571428571 1.2857142857142856 1.2857142857142856 1.2857142857142856h30.857142857142854c0.7100571428571428 0 1.2857142857142856 -0.5756571428571428 1.2857142857142856 -1.2857142857142856V18.857142857142858ZM8.571428571428571 0C5.494422857142857 0 3 2.494412571428571 3 5.571428571428571v36.857142857142854C3 45.505714285714284 5.494422857142857 48 8.571428571428571 48h30.857142857142854c3.077142857142857 0 5.571428571428571 -2.494285714285714 5.571428571428571 -5.571428571428571V5.571428571428571C45 2.494412571428571 42.505714285714284 0 39.42857142857142 0h-30.857142857142854Zm6 29.57142857142857c-1.6568571428571428 0 -3 -1.343142857142857 -3 -3s1.343142857142857 -3 3 -3 3 1.343142857142857 3 3 -1.343142857142857 3 -3 3Zm9.428571428571429 0c-1.6568571428571428 0 -3 -1.343142857142857 -3 -3s1.343142857142857 -3 3 -3 3 1.343142857142857 3 3 -1.343142857142857 3 -3 3Zm9.428571428571429 0c-1.6568571428571428 0 -3 -1.343142857142857 -3 -3s1.343142857142857 -3 3 -3c1.6566857142857143 0 3 1.343142857142857 3 3s-1.3433142857142857 3 -3 3Zm-18.857142857142858 9.428571428571429c-1.6568571428571428 0 -3 -1.3433142857142857 -3 -3s1.343142857142857 -3 3 -3 3 1.3433142857142857 3 3 -1.343142857142857 3 -3 3Zm9.428571428571429 0c-1.6568571428571428 0 -3 -1.3433142857142857 -3 -3s1.343142857142857 -3 3 -3 3 1.3433142857142857 3 3 -1.343142857142857 3 -3 3Zm9.428571428571429 0c-1.6568571428571428 0 -3 -1.3433142857142857 -3 -3s1.343142857142857 -3 3 -3c1.6566857142857143 0 3 1.3433142857142857 3 3s-1.3433142857142857 3 -3 3ZM27.428571428571427 9.428571428571429c0 -1.4201485714285715 1.1512799999999999 -2.571428571428571 2.571428571428571 -2.571428571428571h5.142857142857142c1.4201142857142857 0 2.571428571428571 1.1512799999999999 2.571428571428571 2.571428571428571s-1.1513142857142855 2.571428571428571 -2.571428571428571 2.571428571428571h-5.142857142857142c-1.4201485714285715 0 -2.571428571428571 -1.1512799999999999 -2.571428571428571 -2.571428571428571Z" clip-rule="evenodd" stroke-width="3.4286"></path>
  </g>
</svg>