<svg xmlns="http://www.w3.org/2000/svg" fill="none" viewBox="0 0 48 48" id="Calendar-Star--Streamline-Core-Remix" height="48" width="48">
  <desc>
    Calendar Star Streamline Icon: https://streamlinehq.com
  </desc>
  <g id="Free Remix/Interface Essential/calendar-star--calendar-date-day-favorite-like-month-star">
    <path id="Union" fill="#000000" fill-rule="evenodd" d="M12 0.8571428571428571c1.1834742857142857 0 2.142857142857143 0.9593897142857143 2.142857142857143 2.142857142857143V6.857142857142857h19.71428571428571V3c0 -1.1834674285714284 0.9593142857142857 -2.142857142857143 2.142857142857143 -2.142857142857143s2.142857142857143 0.9593897142857143 2.142857142857143 2.142857142857143V6.857142857142857H41.14285714285714c1.4777142857142855 0 2.894742857142857 0.5869714285714285 3.9394285714285715 1.6318285714285712 1.0450285714285714 1.044857142857143 1.632 2.4619542857142855 1.632 3.9395999999999995v28.285714285714285c0 1.4777142857142855 -0.5869714285714285 2.894742857142857 -1.632 3.9394285714285715 -1.0446857142857142 1.0450285714285714 -2.4617142857142853 1.632 -3.9394285714285715 1.632H6.857142857142857c-1.477645714285714 0 -2.894742857142857 -0.5869714285714285 -3.939596571428571 -1.632C1.8727028571428572 43.609028571428574 1.2857142857142856 42.19199999999999 1.2857142857142856 40.714285714285715v-28.285714285714285c0 -1.477645714285714 0.5869885714285714 -2.894742857142857 1.631832 -3.9395999999999995C3.9623999999999997 7.444114285714285 5.379497142857143 6.857142857142857 6.857142857142857 6.857142857142857h3V3c0 -1.1834674285714284 0.9593828571428571 -2.142857142857143 2.142857142857143 -2.142857142857143Zm21.857142857142858 10.285714285714285v2.142857142857143c0 1.1834742857142857 0.9593142857142857 2.142857142857143 2.142857142857143 2.142857142857143s2.142857142857143 -0.9593828571428571 2.142857142857143 -2.142857142857143V11.142857142857142H41.14285714285714c0.34114285714285714 0 0.6678857142857143 0.13546285714285713 0.9092571428571428 0.37655999999999995 0.24102857142857143 0.24113142857142858 0.3764571428571428 0.5681485714285713 0.3764571428571428 0.9091542857142857v28.285714285714285c0 0.34114285714285714 -0.13542857142857143 0.6678857142857143 -0.3764571428571428 0.9092571428571428 -0.24137142857142857 0.24102857142857143 -0.5681142857142857 0.3764571428571428 -0.9092571428571428 0.3764571428571428H6.857142857142857c-0.3410057142857143 0 -0.6680228571428571 -0.13542857142857143 -0.9091542857142857 -0.3764571428571428 -0.24109714285714282 -0.24137142857142857 -0.37655999999999995 -0.5681142857142857 -0.37655999999999995 -0.9092571428571428v-28.285714285714285c0 -0.3410057142857143 0.13546285714285713 -0.6680228571428571 0.37655999999999995 -0.9091542857142857C6.18912 11.278319999999999 6.516137142857142 11.142857142857142 6.857142857142857 11.142857142857142h3v2.142857142857143c0 1.1834742857142857 0.9593828571428571 2.142857142857143 2.142857142857143 2.142857142857143s2.142857142857143 -0.9593828571428571 2.142857142857143 -2.142857142857143V11.142857142857142h19.71428571428571ZM23.94582857142857 16.286194285714284c0.47238857142857144 -0.009085714285714286 0.9378857142857143 0.11417142857142858 1.3438971428571427 0.35581714285714283 0.4059771428571428 0.24167999999999998 0.7362514285714284 0.5921142857142857 0.9534857142857143 1.0116685714285714l0.012925714285714285 0.02496 -0.00020571428571428572 0.00010285714285714286 2.2207542857142855 4.467325714285714 4.921131428571428 0.7472228571428571c0.46824 0.06528 0.9091542857142857 0.2604 1.27224 0.5634514285714286 0.36925714285714284 0.3079885714285714 0.6431999999999999 0.71472 0.7896 1.1726742857142856 0.14674285714285712 0.45795428571428565 0.15977142857142856 0.9481371428571428 0.03805714285714286 1.4132914285714286 -0.12102857142857142 0.4612457142857143 -0.3696 0.8789142857142858 -0.7169142857142857 1.2050742857142858l-3.4228457142857143 3.2527542857142855 0.7231885714285714 5.089405714285714c0.08259428571428572 0.45771428571428574 0.03754285714285714 0.9298285714285713 -0.13086857142857142 1.3642285714285713 -0.17701714285714285 0.4570285714285714 -0.48281142857142856 0.8526857142857143 -0.8802514285714286 1.1389714285714285 -0.3974742857142857 0.2866285714285714 -0.86952 0.4518857142857143 -1.3589142857142855 0.47519999999999996 -0.47430857142857136 0.02297142857142857 -0.9451542857142857 -0.08811428571428571 -1.358982857142857 -0.31954285714285713l-4.364571428571428 -2.310857142857143 -4.3645371428571424 2.310857142857143c-0.41382857142857143 0.23142857142857143 -0.8847085714285714 0.3425142857142857 -1.359017142857143 0.31954285714285713 -0.4893942857142857 -0.02331428571428571 -0.96144 -0.18857142857142856 -1.35888 -0.47519999999999996 -0.39743999999999996 -0.2862857142857143 -0.7032342857142856 -0.6819428571428571 -0.8802857142857141 -1.1389714285714285 -0.17177142857142855 -0.44331428571428566 -0.21517714285714284 -0.9257142857142857 -0.12572571428571427 -1.3920000000000001l0.8343771428571428 -4.954148571428571 -3.548708571428571 -3.3977142857142857 -0.034937142857142854 -0.033428571428571426 0.00047999999999999996 -0.00047999999999999996c-0.32653714285714286 -0.3307885714285714 -0.5557371428571428 -0.7451314285714286 -0.6624685714285714 -1.1975314285714285 -0.10673142857142857 -0.4524342857142857 -0.08684571428571428 -0.9255085714285715 0.057428571428571426 -1.367382857142857s0.40741714285714287 -0.8355085714285714 0.7605599999999999 -1.1377714285714284c0.35317714285714286 -0.3022628571428571 0.7827085714285713 -0.5014628571428571 1.2415542857142856 -0.5758285714285714l0.02550857142857143 -0.0041142857142857136 0 0.00020571428571428572 4.926822857142857 -0.7222628571428571 2.213382857142857 -4.4524799999999995c0.2013942857142857 -0.4181828571428571 0.5138742857142857 -0.7731085714285714 0.9035314285714284 -1.0257942857142857 0.3964114285714285 -0.2571085714285714 0.8568342857142857 -0.39815999999999996 1.3291885714285714 -0.40724571428571427Z" clip-rule="evenodd" stroke-width="3.4286"></path>
  </g>
</svg>