<svg xmlns="http://www.w3.org/2000/svg" fill="none" viewBox="0 0 48 48" id="Calendar-Jump-To-Date--Streamline-Core-Remix" height="48" width="48">
  <desc>
    Calendar Jump To Date Streamline Icon: https://streamlinehq.com
  </desc>
  <g id="Free Remix/Interface Essential/calendar-jump-to-date">
    <path id="Union" fill="#000000" fill-rule="evenodd" d="M12 0.8571428571428571c1.1834742857142857 0 2.142857142857143 0.9593897142857143 2.142857142857143 2.142857142857143V6.857142857142857h19.71428571428571V3c0 -1.1834674285714284 0.9593142857142857 -2.142857142857143 2.142857142857143 -2.142857142857143s2.142857142857143 0.9593897142857143 2.142857142857143 2.142857142857143V6.857142857142857H41.14285714285714c1.4777142857142855 0 2.894742857142857 0.5869714285714285 3.9394285714285715 1.6318285714285712 1.0450285714285714 1.044857142857143 1.632 2.4619542857142855 1.632 3.9395999999999995v28.285714285714285c0 1.4777142857142855 -0.5869714285714285 2.894742857142857 -1.632 3.9394285714285715 -1.0446857142857142 1.0450285714285714 -2.4617142857142853 1.632 -3.9394285714285715 1.632H6.857142857142857c-1.477645714285714 0 -2.894742857142857 -0.5869714285714285 -3.939596571428571 -1.632C1.8727028571428572 43.609028571428574 1.2857142857142856 42.19199999999999 1.2857142857142856 40.714285714285715v-28.285714285714285c0 -1.477645714285714 0.5869885714285714 -2.894742857142857 1.631832 -3.9395999999999995C3.9623999999999997 7.444114285714285 5.379497142857143 6.857142857142857 6.857142857142857 6.857142857142857h3V3c0 -1.1834674285714284 0.9593828571428571 -2.142857142857143 2.142857142857143 -2.142857142857143Zm21.857142857142858 10.285714285714285v2.142857142857143c0 1.1834742857142857 0.9593142857142857 2.142857142857143 2.142857142857143 2.142857142857143s2.142857142857143 -0.9593828571428571 2.142857142857143 -2.142857142857143V11.142857142857142H41.14285714285714c0.34114285714285714 0 0.6678857142857143 0.13546285714285713 0.9092571428571428 0.37655999999999995 0.24102857142857143 0.24113142857142858 0.3764571428571428 0.5681485714285713 0.3764571428571428 0.9091542857142857v28.285714285714285c0 0.34114285714285714 -0.13542857142857143 0.6678857142857143 -0.3764571428571428 0.9092571428571428 -0.24137142857142857 0.24102857142857143 -0.5681142857142857 0.3764571428571428 -0.9092571428571428 0.3764571428571428H6.857142857142857c-0.3410057142857143 0 -0.6680228571428571 -0.13542857142857143 -0.9091542857142857 -0.3764571428571428 -0.24109714285714282 -0.24137142857142857 -0.37655999999999995 -0.5681142857142857 -0.37655999999999995 -0.9092571428571428v-28.285714285714285c0 -0.3410057142857143 0.13546285714285713 -0.6680228571428571 0.37655999999999995 -0.9091542857142857C6.18912 11.278319999999999 6.516137142857142 11.142857142857142 6.857142857142857 11.142857142857142h3v2.142857142857143c0 1.1834742857142857 0.9593828571428571 2.142857142857143 2.142857142857143 2.142857142857143s2.142857142857143 -0.9593828571428571 2.142857142857143 -2.142857142857143V11.142857142857142h19.71428571428571ZM25.751382857142854 18.591702857142856C24.950674285714285 18.92334857142857 24.428571428571427 19.70472 24.428571428571427 20.57142857142857v4.714285714285714H14.571428571428571c-1.1834742857142857 0 -2.142857142857143 0.9593828571428571 -2.142857142857143 2.142857142857143s0.9593828571428571 2.142857142857143 2.142857142857143 2.142857142857143h9.857142857142856V34.285714285714285c0 0.8667428571428571 0.5221028571428571 1.6481142857142856 1.3228114285714285 1.9796571428571428 0.8007428571428571 0.3318857142857143 1.7224114285714285 0.14845714285714284 2.3352685714285712 -0.4645714285714286l6.857005714285714 -6.857005714285714c0.40217142857142857 -0.4018628571428571 0.6277714285714285 -0.946902857142857 0.6277714285714285 -1.515222857142857 0 -0.5683199999999999 -0.22559999999999997 -1.11336 -0.6277714285714285 -1.515222857142857l-6.857005714285714 -6.857142857142857c-0.6128571428571428 -0.6128571428571428 -1.5345257142857143 -0.7961828571428571 -2.3352685714285712 -0.4645028571428571Z" clip-rule="evenodd" stroke-width="3.4286"></path>
  </g>
</svg>