<svg xmlns="http://www.w3.org/2000/svg" fill="none" viewBox="0 0 48 48" id="Calendar-Edit--Streamline-Core-Remix" height="48" width="48">
  <desc>
    Calendar Edit Streamline Icon: https://streamlinehq.com
  </desc>
  <g id="Free Remix/Interface Essential/calendar-edit--calendar-date-day-compose-edit-note">
    <path id="Union" fill="#000000" fill-rule="evenodd" d="M12 0.8571428571428571c1.1834742857142857 0 2.142857142857143 0.9593897142857143 2.142857142857143 2.142857142857143V6.857142857142857h19.71428571428571V3c0 -1.1834674285714284 0.9593142857142857 -2.142857142857143 2.142857142857143 -2.142857142857143s2.142857142857143 0.9593897142857143 2.142857142857143 2.142857142857143V6.857142857142857H41.14285714285714c1.4777142857142855 0 2.894742857142857 0.5869714285714285 3.9394285714285715 1.6318285714285712 1.0450285714285714 1.044857142857143 1.632 2.4619542857142855 1.632 3.9395999999999995v28.285714285714285c0 1.4777142857142855 -0.5869714285714285 2.894742857142857 -1.632 3.9394285714285715 -1.0446857142857142 1.0450285714285714 -2.4617142857142853 1.632 -3.9394285714285715 1.632H6.857142857142857c-1.477645714285714 0 -2.894742857142857 -0.5869714285714285 -3.939596571428571 -1.632C1.8727028571428572 43.609028571428574 1.2857142857142856 42.19199999999999 1.2857142857142856 40.714285714285715v-28.285714285714285c0 -1.477645714285714 0.5869885714285714 -2.894742857142857 1.631832 -3.9395999999999995C3.9623999999999997 7.444114285714285 5.379497142857143 6.857142857142857 6.857142857142857 6.857142857142857h3V3c0 -1.1834674285714284 0.9593828571428571 -2.142857142857143 2.142857142857143 -2.142857142857143Zm21.857142857142858 10.285714285714285v2.142857142857143c0 1.1834742857142857 0.9593142857142857 2.142857142857143 2.142857142857143 2.142857142857143s2.142857142857143 -0.9593828571428571 2.142857142857143 -2.142857142857143V11.142857142857142H41.14285714285714c0.34114285714285714 0 0.6678857142857143 0.13546285714285713 0.9092571428571428 0.37655999999999995 0.24102857142857143 0.24113142857142858 0.3764571428571428 0.5681485714285713 0.3764571428571428 0.9091542857142857v28.285714285714285c0 0.34114285714285714 -0.13542857142857143 0.6678857142857143 -0.3764571428571428 0.9092571428571428 -0.24137142857142857 0.24102857142857143 -0.5681142857142857 0.3764571428571428 -0.9092571428571428 0.3764571428571428H6.857142857142857c-0.3410057142857143 0 -0.6680228571428571 -0.13542857142857143 -0.9091542857142857 -0.3764571428571428 -0.24109714285714282 -0.24137142857142857 -0.37655999999999995 -0.5681142857142857 -0.37655999999999995 -0.9092571428571428v-28.285714285714285c0 -0.3410057142857143 0.13546285714285713 -0.6680228571428571 0.37655999999999995 -0.9091542857142857C6.18912 11.278319999999999 6.516137142857142 11.142857142857142 6.857142857142857 11.142857142857142h3v2.142857142857143c0 1.1834742857142857 0.9593828571428571 2.142857142857143 2.142857142857143 2.142857142857143s2.142857142857143 -0.9593828571428571 2.142857142857143 -2.142857142857143V11.142857142857142h19.71428571428571ZM27.893691428571426 17.142857142857142c0.45504 -0.00027428571428571427 0.8914971428571428 0.18034285714285714 1.2132342857142857 0.5021142857142856l5.533988571428571 5.533817142857143c0.6692571428571429 0.669462857142857 0.6692571428571429 1.7549142857142856 0 2.424377142857143L22.18961142857143 38.054399999999994c-0.2649942857142857 0.2650285714285714 -0.6095314285714285 0.43577142857142853 -0.9809142857142857 0.4861714285714286l-6.4060114285714285 0.8722285714285715c-0.53208 0.07268571428571428 -1.067382857142857 -0.10868571428571427 -1.4462399999999997 -0.48925714285714283 -0.37882285714285713 -0.38057142857142856 -0.5574514285714286 -0.9164571428571427 -0.48253714285714283 -1.4482285714285714l0.9022285714285714 -6.406148571428571c0.05180571428571428 -0.36771428571428566 0.22162285714285715 -0.7086857142857143 0.48390857142857135 -0.971622857142857l12.42102857142857 -12.451131428571427c0.32136 -0.32211428571428574 0.7576114285714285 -0.50328 1.2126171428571428 -0.5035542857142857Z" clip-rule="evenodd" stroke-width="3.4286"></path>
  </g>
</svg>