<svg xmlns="http://www.w3.org/2000/svg" fill="none" viewBox="0 0 48 48" id="Call-Center-Support-Service--Streamline-Core-Remix" height="48" width="48">
  <desc>
    Call Center Support Service Streamline Icon: https://streamlinehq.com
  </desc>
  <g id="Free Remix/Health/call-center-support-service">
    <path id="Union" fill="#000000" fill-rule="evenodd" d="M19.942422857142855 3.460731428571428C20.65398857142857 1.447525714285714 22.573851428571427 0 24.837325714285715 0h2.11104c2.8231542857142857 0 5.111794285714285 2.2886159999999998 5.111794285714285 5.11176 0 2.0309142857142857 -1.202262857142857 3.869177142857142 -3.06288 4.6831885714285715l-4.522731428571428 1.9786971428571427c-0.19580571428571428 0.08567999999999999 -0.3504342857142857 0.23540571428571427 -0.4436914285714285 0.41828571428571426h5.886445714285713c1.1834399999999998 0 2.142857142857143 0.9593828571428571 2.142857142857143 2.142857142857143 0 1.1834399999999998 -0.9594171428571429 2.142857142857143 -2.142857142857143 2.142857142857143H21.78936c-1.1834742857142857 0 -2.142857142857143 -0.9594171428571429 -2.142857142857143 -2.142857142857143v-1.7319085714285714c0 -2.0623199999999997 1.2208457142857143 -3.929005714285714 3.1102285714285713 -4.755634285714286l4.522731428571428 -1.9786971428571427c0.3006857142857143 -0.13152 0.4949828571428571 -0.4286057142857143 0.4949828571428571 -0.7567885714285714 0 -0.4562057142857143 -0.36983999999999995 -0.8260457142857143 -0.8260799999999999 -0.8260457142857143h-2.11104c-0.3907542857142857 0 -0.7289142857142857 0.24877714285714284 -0.8541599999999999 0.6032228571428572 -0.39438857142857137 1.1158285714285714 -1.618662857142857 1.7006742857142858 -2.734491428571429 1.3062857142857143 -1.1158285714285714 -0.39438857142857137 -1.70064 -1.618662857142857 -1.3062514285714284 -2.734491428571429ZM41.02628571428571 0.9154354285714286c1.6388571428571428 -1.7727977142857143 4.941257142857142 -0.8343562285714285 4.941257142857142 1.9151965714285712V9.143794285714284c1.1321142857142856 0.057702857142857146 2.0321142857142855 0.9937371428571428 2.0321142857142855 2.140045714285714 0 1.1462742857142858 -0.9 2.082342857142857 -2.0321142857142855 2.1400114285714285v0.9108685714285715c0 1.1834399999999998 -0.9593142857142857 2.142857142857143 -2.142857142857143 2.142857142857143s-2.142857142857143 -0.9594171428571429 -2.142857142857143 -2.142857142857143v-0.9080228571428571H36.435428571428574c-2.444091428571429 0 -3.7718399999999996 -2.7914399999999997 -2.22504 -4.712674285714286C34.68068571428571 8.129794285714285 40.58228571428571 1.3959154285714286 41.02628571428571 0.9154354285714286Zm0.6555428571428571 8.225547428571428v-2.4887657142857145l-0.8283428571428572 0.9459771428571427c-0.46114285714285713 0.5268342857142857 -0.921942857142857 1.0541142857142856 -1.3481142857142856 1.5427885714285714h2.1764571428571426ZM12.155074285714285 7.511657142857143c-2.0339314285714285 -2.0121942857142856 -5.368765714285714 -2.0121942857142856 -7.402697142857143 0l0 -0.00003428571428571428 -0.00816 0.00816 -1.2917142857142856 1.2917142857142856C1.5867702857142856 10.62576 0.3978034285714286 13.023942857142856 0.08346308571428572 15.607645714285713 -0.2315797714285714 18.197142857142858 0.3509897142857143 20.816365714285713 1.7339451428571429 23.028205714285715c0.012870857142857142 0.02057142857142857 0.026088 0.04093714285714285 0.039651428571428574 0.06106285714285714C4.908102857142857 27.74283428571428 10.280571428571427 33.23242285714286 14.96574857142857 37.62068571428571c4.670297142857143 4.374514285714286 8.91048 7.887428571428571 9.879428571428571 8.540228571428571 2.0609485714285714 1.3882285714285714 4.842171428571429 2.0502857142857143 7.419668571428572 1.7749714285714286 2.5066971428571425 -0.26777142857142855 4.851497142857142 -1.3583999999999998 6.669668571428571 -3.0980571428571424 0.11382857142857142 -0.08125714285714285 0.22525714285714282 -0.17211428571428572 0.33634285714285717 -0.27017142857142856 0.2993142857142857 -0.26434285714285716 0.6983999999999999 -0.6737142857142857 1.2586285714285712 -1.3302857142857143 1.6278857142857142 -1.908 2.014628571428571 -5.142171428571428 -0.10662857142857142 -7.2863999999999995l0 -0.00034285714285714285 -0.013028571428571428 -0.012685714285714286 -5.484342857142857 -5.450057142857142 -0.9327085714285714 -0.7103314285714285c0.0005828571428571429 0.00030857142857142856 0.0011657142857142858 0.0006514285714285715 0.0017142857142857142 0.0009599999999999999l0.9296228571428571 0.7079657142857143c-0.28937142857142856 -0.28796571428571427 -0.6030857142857142 -0.5211085714285714 -0.9296228571428571 -0.7079657142857143L18.749794285714284 18.17022857142857c0.5101714285714285 -1.7671885714285716 0.08057142857142857 -3.76056 -1.2887657142857143 -5.146834285714285l-5.2690971428571425 -5.4744 -0.03685714285714285 -0.03733714285714285Zm6.594685714285714 10.658674285714286 15.243017142857141 11.607222857142856c-0.9983657142857143 -0.5709942857142857 -2.1142628571428568 -0.7094057142857143 -3.0115885714285713 -0.6605142857142856 -1.1460685714285714 0.0624 -2.5245257142857143 0.4617257142857143 -3.436971428571429 1.3741714285714284 -0.18072 0.18072 -0.2765485714285714 0.24085714285714288 -0.30493714285714285 0.25590857142857143 -0.021085714285714284 0.004594285714285714 -0.11057142857142857 0.01848 -0.37412571428571423 0.01848 -0.2559428571428571 0 -0.5016 -0.10042285714285713 -0.68424 -0.27959999999999996L17.448445714285715 21.753565714285713c-0.17914285714285713 -0.18263999999999997 -0.27956571428571425 -0.42833142857142853 -0.27956571428571425 -0.6842742857142857 0 -0.2561828571428571 0.10059428571428572 -0.5021142857142856 0.28008 -0.6847885714285714 0.6325028571428571 -0.6361028571428571 1.06608 -1.4011885714285712 1.3008 -2.2141714285714285ZM10.201097142857142 11.660708571428572l8.548662857142856 6.509622857142857c0.00003428571428571428 -0.00003428571428571428 0.00003428571428571428 -0.00006857142857142857 0.00003428571428571428 -0.00010285714285714286L10.200857142857142 11.660502857142857l-1.0730742857142856 -1.1149028571428572c-0.19395428571428572 -0.18394285714285713 -0.4633371428571429 -0.26927999999999996 -0.7273028571428571 -0.25604571428571427L4.752377142857142 7.511657142857143l3.648068571428571 2.777897142857143c-0.23317714285714286 0.011725714285714284 -0.46210285714285715 0.10038857142857142 -0.6310628571428571 0.2659885714285714l-1.2975771428571428 1.297542857142857 -0.023485714285714283 0.02352 -0.00020571428571428572 -0.00017142857142857143c-1.1688342857142857 1.1331085714285714 -1.9136914285714284 2.6328 -2.1103199999999998 4.248788571428571 -0.19518857142857143 1.6045371428571429 0.1618285714285714 3.227382857142857 1.011702857142857 4.601451428571428 2.8479771428571428 4.216662857142857 7.896994285714285 9.41166857142857 12.546 13.766125714285712 4.675508571428572 4.379314285714286 8.691771428571428 7.674171428571428 9.343919999999999 8.113371428571428 1.1812457142857142 0.7957714285714286 2.9436685714285713 1.2418285714285715 4.570182857142857 1.068342857142857 1.6154399999999998 -0.17279999999999998 3.1230857142857142 -0.8928 4.272342857142857 -2.0410285714285714 0.11417142857142858 -0.11382857142857142 0.24000000000000002 -0.21394285714285713 0.37508571428571424 -0.29897142857142855 0.10525714285714285 -0.096 0.3555428571428571 -0.3435428571428571 0.8122285714285714 -0.878742857142857 0.2026285714285714 -0.23759999999999998 0.32194285714285714 -0.5578285714285715 0.3281142857142857 -0.8619428571428571 0.005828571428571428 -0.2852571428571428 -0.084 -0.4878857142857143 -0.2170285714285714 -0.6246857142857143L31.903268571428573 33.526422857142855l-0.0014399999999999999 -0.0014399999999999999c-0.011897142857142856 -0.011828571428571428 -0.20324571428571428 -0.15497142857142857 -0.6875657142857142 -0.12857142857142856 -0.21308571428571427 0.011588571428571429 -0.4089257142857143 0.05550857142857142 -0.5542971428571428 0.1092 -0.06661714285714285 0.024617142857142855 -0.1063542857142857 0.04501714285714285 -0.12476571428571427 0.055268571428571424 -0.5444914285714285 0.5370171428571427 -1.1357485714285713 0.9644914285714286 -1.8472799999999998 1.21992 -0.7076228571428571 0.2540571428571428 -1.3608685714285713 0.2705142857142857 -1.822765714285714 0.2705142857142857 -1.386 0 -2.716045714285714 -0.5468571428571428 -3.7013485714285714 -1.5215314285714285l-0.008194285714285715 -0.00809142857142857 0.00003428571428571428 -0.00003428571428571428 -8.742857142857142 -8.742857142857142 -0.008125714285714286 -0.008125714285714286 0 -0.00003428571428571428c-0.9747428571428571 -0.9853028571428571 -1.5214971428571427 -2.3153485714285713 -1.5214971428571427 -3.7013485714285714 0 -1.386 0.5467542857142856 -2.716045714285714 1.5214971428571427 -3.7013485714285714l0.0048 -0.004834285714285714c0.3497828571428571 -0.3513257142857143 0.3497828571428571 -0.9791657142857143 0 -1.3304914285714287l-0.025577142857142854 -0.025679999999999998 0.00023999999999999998 -0.00020571428571428572 -4.183028571428571 -4.346022857142857Zm-1.8006514285714286 -1.3711542857142855 1.8006514285714286 1.3711542857142855 -0.00023999999999999998 -0.00020571428571428572 -1.8003771428571427 -1.3709485714285714 -0.00003428571428571428 0Zm9.048514285714285 10.09494857142857c0.0008228571428571429 -0.0008228571428571429 0.0016114285714285714 -0.0016114285714285714 0.0024 -0.0024342857142857144l-1.5233485714285713 -1.507062857142857 1.5185485714285714 1.5118971428571426c0.0008228571428571429 -0.0007885714285714285 0.0016114285714285714 -0.0016114285714285714 0.0024 -0.0024Zm9.781165714285715 10.3668c0.00006857142857142857 -0.00020571428571428572 0.002811428571428571 -0.0016457142857142857 0.00816 -0.003668571428571428 -0.00552 0.0028799999999999997 -0.008194285714285715 0.003874285714285714 -0.00816 0.003668571428571428Z" clip-rule="evenodd" stroke-width="3.4286"></path>
  </g>
</svg>