<svg xmlns="http://www.w3.org/2000/svg" fill="none" viewBox="0 0 48 48" id="Call-Hang-Up--Streamline-Core-Remix" height="48" width="48">
  <desc>
    Call Hang Up Streamline Icon: https://streamlinehq.com
  </desc>
  <g id="Free Remix/Phone/call-hang-up--phone-telephone-mobile-device-smartphone-call-hang-up">
    <path id="Union" fill="#000000" fill-rule="evenodd" d="M0.6276274285714285 0.6276274285714285c0.8368388571428571 -0.8368367999999999 2.1936205714285713 -0.8368367999999999 3.030452571428571 0L24.76018285714286 21.729737142857143l3.4741714285714287 -3.4741714285714287 0.011108571428571428 -0.011074285714285714 0.00003428571428571428 0.00003428571428571428c0.5059885714285713 -0.49861714285714287 0.5089371428571428 -1.4362971428571427 0 -1.937862857142857l-0.024445714285714286 -0.02406857142857143 0.00020571428571428572 -0.00020571428571428572c-2.15304 -2.190788571428571 -2.15304 -5.77056 0 -7.961348571428571l0.013028571428571428 -0.013302857142857142 0.00006857142857142857 0.00006857142857142857L34.51371428571428 2.028462857142857l0.017142857142857144 -0.01711885714285714 0 0.00009942857142857142c2.201142857142857 -2.1517899428571425 5.785371428571429 -2.1517906285714283 7.986514285714286 0l0.034628571428571425 0.03375771428571429 -0.00034285714285714285 0.0003805714285714286 1.4413714285714285 1.4741554285714285c4.219885714285714 4.177645714285714 4.955314285714286 10.901314285714285 1.7351999999999999 15.892491428571427l-0.027428571428571427 0.041519999999999994c-3.101828571428571 4.5715200000000005 -6.578742857142857 8.86152 -10.388228571428572 12.828342857142857l12.05965714285714 12.059965714285713c0.8369142857142857 0.8365714285714285 0.8369142857142857 2.1936 0 3.0301714285714283 -0.8365714285714285 0.8369142857142857 -2.1936 0.8369142857142857 -3.0301714285714283 0L30.802799999999998 33.83328c-0.008262857142857141 -0.008057142857142856 -0.016525714285714282 -0.016217142857142857 -0.024685714285714283 -0.02441142857142857 -0.0064114285714285705 -0.0064114285714285705 -0.01272 -0.012857142857142855 -0.01902857142857143 -0.01930285714285714L23.266902857142856 26.29734857142857c-0.0074057142857142854 -0.007199999999999999 -0.014777142857142855 -0.014434285714285714 -0.02208 -0.02177142857142857 -0.007337142857142856 -0.007302857142857142 -0.014571428571428572 -0.014674285714285713 -0.02177142857142857 -0.02208L0.6276274285714285 3.65808c-0.8368367999999999 -0.8368319999999999 -0.8368367999999999 -2.193613714285714 0 -3.030452571428571ZM27.790662857142856 24.76018285714286l4.490811428571428 4.490811428571428c3.6132685714285717 -3.769234285714285 6.91224 -7.842891428571429 9.85841142857143 -12.181954285714285 2.1085714285714285 -3.2896457142857143 1.6110857142857142 -7.767154285714286 -1.171542857142857 -10.512822857142856l-0.027085714285714286 -0.026982857142857142 0 -0.00023999999999999998 -1.433142857142857 -1.465817142857143c-0.5351999999999999 -0.5085942857142857 -1.4424 -0.5064685714285714 -1.9745142857142854 0.006342857142857143L31.272994285714283 11.330057142857143c-0.5068114285714286 0.5214857142857143 -0.5077371428571428 1.417542857142857 -0.002811428571428571 1.9403999999999997 2.204982857142857 2.1912342857142852 2.1760114285714285 5.858982857142856 -0.010182857142857143 8.02038857142857L27.790662857142856 24.76018285714286Zm-11.448205714285713 3.393771428571428c-2.1910628571428568 -2.1500914285714283 -5.768571428571429 -2.149097142857143 -7.958365714285714 0.0029485714285714284l-0.005211428571428572 0.005142857142857143L2.0664925714285713 34.40845714285714l-0.02522742857142857 0.024685714285714283 0.00021257142857142856 0.00034285714285714285c-2.151788914285714 2.201142857142857 -2.1517906285714283 5.785371428571429 0 7.986514285714286l0.03375771428571429 0.034628571428571425 0.0003805714285714286 -0.0006857142857142857 1.4741211428571428 1.4413714285714285c4.177645714285714 4.220228571428572 10.90134857142857 4.9556571428571425 15.892525714285714 1.735542857142857l0.03716571428571429 -0.024 -0.00023999999999999998 -0.00034285714285714285c3.172765714285714 -2.1407999999999996 6.210891428571428 -4.461942857142857 9.100491428571429 -6.949371428571428 0.8968799999999999 -0.7721142857142858 0.9980571428571429 -2.1253714285714285 0.22594285714285714 -3.022285714285714 -0.77208 -0.8969142857142857 -2.125097142857143 -0.9980571428571429 -3.022011428571428 -0.22594285714285714 -2.7570514285714283 2.3736 -5.655565714285714 4.588457142857143 -8.682308571428571 6.631885714285714 -3.289851428571428 2.1106285714285713 -7.768799999999999 1.6134857142857142 -10.515051428571427 -1.1698285714285714l-0.02694857142857143 -0.027085714285714286 -0.00027428571428571427 0 -1.465817142857143 -1.433142857142857c-0.5075999999999999 -0.5341714285714285 -0.5064685714285714 -1.4389714285714286 0.0033599999999999997 -1.971428571428571l6.291531428571428 -6.225737142857142 0.0019199999999999998 -0.0018857142857142857c0.5236457142857143 -0.5124342857142857 1.4287542857142856 -0.5117828571428572 1.9514399999999998 0.0018857142857142857l0.004011428571428571 0.003908571428571428c1.06728 1.0434514285714285 2.5005942857142855 1.6277142857142857 3.993222857142857 1.6277142857142857 1.4925942857142855 0 2.9259085714285713 -0.5842628571428571 3.993222857142857 -1.6277142857142857 0.84624 -0.8273142857142857 0.8615657142857143 -2.1839999999999997 0.034217142857142856 -3.03024 -0.8273142857142857 -0.84624 -2.1840342857142856 -0.8615657142857143 -3.0302742857142855 -0.03425142857142857 -0.2665028571428571 0.26057142857142856 -0.6244457142857142 0.40649142857142856 -0.9971657142857142 0.40649142857142856 -0.37227428571428567 0 -0.7298057142857142 -0.14554285714285714 -0.9962399999999999 -0.40553142857142854Zm0 0 0.003017142857142857 0.0029485714285714284 -1.50192 1.5282514285714286 1.497942857142857 -1.53216 0.0009599999999999999 0.0009599999999999999Z" clip-rule="evenodd" stroke-width="3.4286"></path>
  </g>
</svg>