<svg xmlns="http://www.w3.org/2000/svg" fill="none" viewBox="0 0 48 48" id="Camera-Loading--Streamline-Core-Remix" height="48" width="48">
  <desc>
    Camera Loading Streamline Icon: https://streamlinehq.com
  </desc>
  <g id="Free Remix/Images Photography/camera-loading--photos-picture-camera-photography-photo-pictures-loading-option-setting">
    <path id="Union" fill="#000000" fill-rule="evenodd" d="M16.71428571428571 3c-0.7527085714285714 0 -1.4502171428571429 0.39492685714285714 -1.8374742857142856 1.0403657142857141L10.35816 11.571428571428571H5.571428571428571c-1.477645714285714 0 -2.894749714285714 0.5870057142857142 -3.939596571428571 1.6318285714285712C0.5869885714285714 14.248114285714287 0 15.665211428571428 0 17.142857142857142v22.285714285714285c0 1.4777142857142855 0.5869885714285714 2.894742857142857 1.631832 3.9394285714285715 1.044846857142857 1.0450285714285714 2.461950857142857 1.632 3.939596571428571 1.632h36.857142857142854c1.4777142857142855 0 2.894742857142857 -0.5869714285714285 3.9394285714285715 -1.632 1.0450285714285714 -1.0446857142857142 1.632 -2.4617142857142853 1.632 -3.9394285714285715V17.142857142857142c0 -1.477645714285714 -0.5869714285714285 -2.894742857142857 -1.632 -3.9395999999999995 -1.0446857142857142 -1.044822857142857 -2.4617142857142853 -1.6318285714285712 -3.9394285714285715 -1.6318285714285712h-4.786628571428571L33.12318857142857 4.040365714285714C32.735931428571426 3.394926857142857 32.038422857142855 3 31.285714285714285 3h-14.571428571428571Zm-3.305382857142857 11.816777142857141L17.927554285714283 7.285714285714286h12.144891428571428l4.5187542857142855 7.531062857142857c0.38708571428571426 0.6454285714285714 1.0848 1.0403657142857141 1.8373714285714287 1.0403657142857141h6c0.34114285714285714 0 0.6678857142857143 0.13546285714285713 0.9092571428571428 0.37659428571428566 0.24102857142857143 0.24109714285714282 0.3764571428571428 0.5681142857142857 0.3764571428571428 0.9091199999999999v22.285714285714285c0 0.34114285714285714 -0.13542857142857143 0.6678857142857143 -0.3764571428571428 0.9092571428571428 -0.24137142857142857 0.24102857142857143 -0.5681142857142857 0.3764571428571428 -0.9092571428571428 0.3764571428571428H5.571428571428571c-0.3410057142857143 0 -0.6680228571428571 -0.13542857142857143 -0.9091542857142857 -0.3764571428571428 -0.24109714285714282 -0.24137142857142857 -0.37655999999999995 -0.5681142857142857 -0.37655999999999995 -0.9092571428571428V17.142857142857142c0 -0.3410057142857143 0.13546285714285713 -0.6680228571428571 0.37655999999999995 -0.9091199999999999 0.24113142857142858 -0.24113142857142858 0.5681485714285713 -0.37659428571428566 0.9091542857142857 -0.37659428571428566h6c0.7527085714285714 0 1.4502171428571429 -0.3949371428571428 1.8374742857142856 -1.0403657142857141Zm0.12792 8.433222857142857c1.893565714285714 0 3.4285714285714284 1.53504 3.4285714285714284 3.4285714285714284s-1.535005714285714 3.4285714285714284 -3.4285714285714284 3.4285714285714284c-1.8935314285714284 0 -3.4285714285714284 -1.53504 -3.4285714285714284 -3.4285714285714284s1.53504 -3.4285714285714284 3.4285714285714284 -3.4285714285714284Zm13.89174857142857 3.4285714285714284c0 -1.8935314285714284 -1.53504 -3.4285714285714284 -3.4285714285714284 -3.4285714285714284s-3.4285714285714284 1.53504 -3.4285714285714284 3.4285714285714284 1.53504 3.4285714285714284 3.4285714285714284 3.4285714285714284 3.4285714285714284 -1.53504 3.4285714285714284 -3.4285714285714284Zm10.464 0c0 -1.8935314285714284 -1.5349714285714284 -3.4285714285714284 -3.4285714285714284 -3.4285714285714284 -1.8935314285714284 0 -3.4285714285714284 1.53504 -3.4285714285714284 3.4285714285714284s1.53504 3.4285714285714284 3.4285714285714284 3.4285714285714284c1.8936 0 3.4285714285714284 -1.53504 3.4285714285714284 -3.4285714285714284Z" clip-rule="evenodd" stroke-width="3.4286"></path>
  </g>
</svg>