<svg xmlns="http://www.w3.org/2000/svg" fill="none" viewBox="0 0 48 48" id="Camera-Video--Streamline-Core-Remix" height="48" width="48">
  <desc>
    Camera Video Streamline Icon: https://streamlinehq.com
  </desc>
  <g id="Free Remix/Entertainment/camera-video--film-television-tv-camera-movies-video-recorder">
    <path id="Union" fill="#000000" fill-rule="evenodd" d="M0.8571428571428571 12.857142857142856C0.8571428571428571 6.703097142857143 5.845954285714286 1.7142857142857142 12 1.7142857142857142s11.142857142857142 4.988811428571428 11.142857142857142 11.142857142857142S18.15404571428571 24 12 24 0.8571428571428571 19.01118857142857 0.8571428571428571 12.857142857142856ZM34.285714285714285 8.571428571428571c-4.260479999999999 0 -7.7142857142857135 3.453805714285714 -7.7142857142857135 7.7142857142857135S30.025234285714284 24 34.285714285714285 24c4.260342857142857 0 7.7142857142857135 -3.453805714285714 7.7142857142857135 -7.7142857142857135S38.54605714285714 8.571428571428571 34.285714285714285 8.571428571428571ZM14.571428571428571 31.285714285714285c-0.7100914285714285 0 -1.2857142857142856 0.5756228571428571 -1.2857142857142856 1.2857142857142856V41.14285714285714c0 0.7100571428571428 0.5756228571428571 1.2857142857142856 1.2857142857142856 1.2857142857142856h18.857142857142858c0.7100914285714285 0 1.2857142857142856 -0.5756571428571428 1.2857142857142856 -1.2857142857142856V32.57142857142857c0 -0.7100914285714285 -0.5756228571428571 -1.2857142857142856 -1.2857142857142856 -1.2857142857142856h-18.857142857142858ZM9 32.57142857142857c0 -3.0770057142857143 2.494422857142857 -5.571428571428571 5.571428571428571 -5.571428571428571h18.857142857142858c3.077142857142857 0 5.571428571428571 2.494422857142857 5.571428571428571 5.571428571428571V41.14285714285714c0 3.077142857142857 -2.494285714285714 5.571428571428571 -5.571428571428571 5.571428571428571h-18.857142857142858c-3.0770057142857143 0 -5.571428571428571 -2.494285714285714 -5.571428571428571 -5.571428571428571V32.57142857142857Zm38.14285714285714 1.7142857142857142c0 -1.4201485714285715 -1.1513142857142855 -2.571428571428571 -2.571428571428571 -2.571428571428571s-2.571428571428571 1.1512799999999999 -2.571428571428571 2.571428571428571v8.571428571428571c0 1.4201142857142857 1.1513142857142855 2.571428571428571 2.571428571428571 2.571428571428571s2.571428571428571 -1.1513142857142855 2.571428571428571 -2.571428571428571V34.285714285714285Z" clip-rule="evenodd" stroke-width="3.4286"></path>
  </g>
</svg>