<svg xmlns="http://www.w3.org/2000/svg" fill="none" viewBox="0 0 48 48" id="Camera-Square--Streamline-Core-Remix" height="48" width="48">
  <desc>
    Camera Square Streamline Icon: https://streamlinehq.com
  </desc>
  <g id="Free Remix/Images Photography/camera-square--photos-picture-camera-photography-photo-pictures-frame-square">
    <path id="Union" fill="#000000" fill-rule="evenodd" d="M42.42857142857142 41.40651428571429c0 0.5643428571428571 -0.45771428571428574 1.0220571428571428 -1.0220571428571428 1.0220571428571428H6.593417142857142c-0.5644457142857142 0 -1.0219885714285715 -0.45771428571428574 -1.0219885714285715 -1.0220571428571428V6.593417142857142c0 -0.5644457142857142 0.45754285714285714 -1.0219885714285715 1.0219885714285715 -1.0219885714285715H41.40651428571429c0.5643428571428571 0 1.0220571428571428 0.45754285714285714 1.0220571428571428 1.0219885714285715V41.40651428571429Zm-1.0220571428571428 5.307771428571429c2.931428571428571 0 5.307771428571429 -2.3763428571428573 5.307771428571429 -5.307771428571429V6.593417142857142c0 -2.9313599999999997 -2.3763428571428573 -5.307702857142856 -5.307771428571429 -5.307702857142856H6.593417142857142C3.662057142857143 1.2857142857142856 1.2857142857142856 3.662057142857143 1.2857142857142856 6.593417142857142V41.40651428571429c0 2.931428571428571 2.3763428571428573 5.307771428571429 5.307702857142856 5.307771428571429H41.40651428571429ZM19.145039999999998 12.763371428571427C19.463005714285714 12.286457142857142 19.99824 12 20.57142857142857 12h6.857142857142857c0.5731885714285714 0 1.1084228571428572 0.28645714285714285 1.4263885714285713 0.7633714285714285L31.774594285714286 17.142857142857142H32.57142857142857c1.3639885714285713 0 2.672228571428571 0.5418514285714285 3.636685714285714 1.5063085714285713S37.714285714285715 20.921725714285714 37.714285714285715 22.285714285714285V30.857142857142854c0 1.3639885714285713 -0.5417142857142857 2.6720914285714286 -1.5061714285714285 3.636685714285714 -0.9644571428571428 0.9644571428571428 -2.2726971428571425 1.5061714285714285 -3.636685714285714 1.5061714285714285h-17.142857142857142c-1.3639885714285713 0 -2.6720914285714286 -0.5417142857142857 -3.636548571428571 -1.5061714285714285C10.827565714285715 33.52923428571429 10.285714285714285 32.22113142857143 10.285714285714285 30.857142857142854V22.285714285714285c0 -1.3639885714285713 0.5418514285714285 -2.6720914285714286 1.5063085714285713 -3.636548571428571C12.75648 17.68470857142857 14.064617142857141 17.142857142857142 15.428571428571427 17.142857142857142h0.7968342857142857l2.9196342857142854 -4.379485714285714ZM19.285714285714285 25.71428571428571c0 2.6036228571428572 2.110662857142857 4.714285714285714 4.714285714285714 4.714285714285714h0.00017142857142857143c2.6036228571428572 0 4.714285714285714 -2.110662857142857 4.714285714285714 -4.714285714285714s-2.110662857142857 -4.714285714285714 -4.714285714285714 -4.714285714285714H24c-2.6036228571428572 0 -4.714285714285714 2.110662857142857 -4.714285714285714 4.714285714285714Z" clip-rule="evenodd" stroke-width="3.4286"></path>
  </g>
</svg>