<svg xmlns="http://www.w3.org/2000/svg" fill="none" viewBox="0 0 48 48" id="Camera-Disabled--Streamline-Core-Remix" height="48" width="48">
  <desc>
    Camera Disabled Streamline Icon: https://streamlinehq.com
  </desc>
  <g id="Free Remix/Images Photography/camera-disabled--photos-picture-camera-photography-photo-pictures-disabled-off">
    <path id="Union" fill="#000000" fill-rule="evenodd" d="M0.6276274285714285 0.6276274285714285c0.8368388571428571 -0.8368367999999999 2.1936205714285713 -0.8368367999999999 3.030452571428571 0L11.30670857142857 8.27622857142857 14.876811428571429 2.32608C15.26406857142857 1.6806411428571426 15.961577142857141 1.2857142857142856 16.71428571428571 1.2857142857142856h14.571428571428571c0.7527085714285714 0 1.4502171428571429 0.39492685714285714 1.8374742857142856 1.0403657142857141L37.64194285714285 9.857142857142856h4.786628571428571c1.4777142857142855 0 2.894742857142857 0.5870057142857142 3.9394285714285715 1.6318285714285712 1.0450285714285714 1.044857142857143 1.632 2.4619542857142855 1.632 3.9395999999999995V37.714285714285715c0 1.4777142857142855 -0.5869714285714285 2.894742857142857 -1.632 3.9394285714285715 -0.2852571428571428 0.28559999999999997 -0.5982857142857142 0.5365714285714286 -0.9325714285714286 0.7511999999999999l1.9367999999999999 1.9371428571428568c0.8369142857142857 0.8365714285714285 0.8369142857142857 2.1936 0 3.0301714285714283 -0.8365714285714285 0.8369142857142857 -2.1936 0.8369142857142857 -3.0301714285714283 0L0.6276274285714285 3.65808c-0.8368367999999999 -0.8368319999999999 -0.8368367999999999 -2.193613714285714 0 -3.030452571428571ZM20.273519999999998 17.243074285714286 14.430411428571428 11.399965714285715l3.497142857142857 -5.828537142857142h12.144891428571428l4.5187542857142855 7.531062857142857c0.38708571428571426 0.6454285714285714 1.0848 1.0403657142857141 1.8373714285714287 1.0403657142857141h6c0.34114285714285714 0 0.6678857142857143 0.13546285714285713 0.9092571428571428 0.37659428571428566 0.24102857142857143 0.24109714285714282 0.3764571428571428 0.5681142857142857 0.3764571428571428 0.9091199999999999V37.714285714285715c0 0.34114285714285714 -0.13542857142857143 0.6678857142857143 -0.3764571428571428 0.9092571428571428 -0.24137142857142857 0.24102857142857143 -0.5681142857142857 0.3764571428571428 -0.9092571428571428 0.3764571428571428h-0.39805714285714283L31.721108571428566 28.690662857142854c0.5448000000000001 -1.1267657142857141 0.8502171428571428 -2.3909142857142855 0.8502171428571428 -3.7263771428571424 0 -4.733862857142857 -3.837565714285714 -8.571428571428571 -8.571428571428571 -8.571428571428571 -1.335462857142857 0 -2.5996114285714285 0.3054171428571429 -3.7263771428571424 0.8502171428571428ZM15.428571428571427 24.96421714285714c0 -0.49560000000000004 0.04206857142857143 -0.9813257142857141 0.12281142857142856 -1.4538857142857142l9.902502857142856 9.902502857142856c-0.47256 0.08074285714285714 -0.9583199999999998 0.12281142857142856 -1.4538857142857142 0.12281142857142856 -4.733862857142857 0 -8.571428571428571 -3.837565714285714 -8.571428571428571 -8.571428571428571ZM4.457999999999999 14.785645714285714c0.5917028571428572 -1.024902857142857 0.24047999999999997 -2.3354742857142856 -0.7844228571428571 -2.9271771428571425 -1.0249474285714286 -0.5917028571428572 -2.3354845714285712 -0.24047999999999997 -2.9271874285714286 0.7844571428571429C0.26167748571428573 13.482514285714284 0 14.442034285714284 0 15.428571428571427V37.714285714285715c0 1.4777142857142855 0.5869885714285714 2.894742857142857 1.631832 3.9394285714285715 1.044846857142857 1.0450285714285714 2.461950857142857 1.632 3.939596571428571 1.632h24.45932571428571c1.1834742857142857 0 2.142857142857143 -0.9593142857142857 2.142857142857143 -2.142857142857143s-0.9593828571428571 -2.142857142857143 -2.142857142857143 -2.142857142857143H5.571428571428571c-0.3410057142857143 0 -0.6680228571428571 -0.13542857142857143 -0.9091542857142857 -0.3764571428571428C4.421177142857142 38.38217142857143 4.285714285714286 38.05542857142857 4.285714285714286 37.714285714285715V15.428571428571427c0 -0.2275885714285714 0.060308571428571434 -0.4489714285714286 0.1722857142857143 -0.6429257142857142Z" clip-rule="evenodd" stroke-width="3.4286"></path>
  </g>
</svg>