<svg xmlns="http://www.w3.org/2000/svg" fill="none" viewBox="0 0 48 48" id="Camping-Tent--Streamline-Core-Remix" height="48" width="48">
  <desc>
    Camping Tent Streamline Icon: https://streamlinehq.com
  </desc>
  <g id="Free Remix/Map Travel/camping-tent--outdoor-recreation-camping-tent-teepee-tipi-travel-places">
    <path id="Union" fill="#000000" fill-rule="evenodd" d="M20.674285714285713 2.2929359999999996C20.047062857142855 1.289358857142857 18.72500571428571 0.9842742857142857 17.72142857142857 1.6115108571428571c-1.003577142857143 0.6272365714285714 -1.3086514285714284 1.9492662857142857 -0.6814285714285714 2.9528434285714282l4.433039999999999 7.0928571428571425L1.611432 43.43588571428571c-0.4128582857142857 0.6603428571428571 -0.4347188571428571 1.493142857142857 -0.05709257142857142 2.1744 0.3776262857142857 0.6812571428571428 1.0952502857142856 1.1039999999999999 1.874232 1.1039999999999999h41.14285714285714c0.7789714285714285 0 1.4965714285714284 -0.42274285714285714 1.8743999999999998 -1.1039999999999999 0.37748571428571426 -0.6812571428571428 0.3555428571428571 -1.5140571428571428 -0.057257142857142854 -2.1744L26.52696 11.657211428571427 30.959999999999997 4.564354285714285c0.6272228571428571 -1.003577142857143 0.3221485714285714 -2.3256068571428568 -0.6814285714285714 -2.9528434285714282S27.95297142857143 1.289358857142857 27.325714285714284 2.2929359999999996L24 7.614102857142857 20.674285714285713 2.2929359999999996ZM7.294834285714286 42.42857142857142 24 15.700354285714285l16.70502857142857 26.72821714285714H27V34.285714285714285c0 -1.6567885714285713 -1.343142857142857 -2.9999314285714282 -3 -2.9999314285714282s-3 1.343142857142857 -3 2.9999314285714282v8.142857142857142H7.294834285714286Z" clip-rule="evenodd" stroke-width="3.4286"></path>
  </g>
</svg>