<svg xmlns="http://www.w3.org/2000/svg" fill="none" viewBox="0 0 48 48" id="Candy-Cane--Streamline-Core-Remix" height="48" width="48">
  <desc>
    Candy Cane Streamline Icon: https://streamlinehq.com
  </desc>
  <g id="Free Remix/Food Drink/candy-cane--candy-sweet-cane-christmas">
    <path id="Union" fill="#000000" fill-rule="evenodd" d="M11.496205714285715 10.99697142857143C9.918891428571428 13.371565714285714 9 16.221325714285715 9 19.285714285714285v0.8571428571428571C9 22.273097142857143 10.726902857142857 24 12.857142857142856 24s3.8571428571428568 -1.726902857142857 3.8571428571428568 -3.8571428571428568v-0.8571428571428571c0 -1.2398742857142857 0.3097028571428571 -2.4074057142857144 0.8560114285714285 -3.4294628571428567L11.496205714285715 10.99697142857143Zm18.441325714285714 4.065497142857143c0.84888 1.1913257142857143 1.3481828571428571 2.648982857142857 1.3481828571428571 4.2232457142857145V31.71428571428571L39 24V19.285714285714285c0 -3.7057714285714285 -1.3436571428571429 -7.097691428571428 -3.570857142857143 -9.714994285714285L29.93753142857143 15.062468571428571ZM24 0C13.3488 0 4.714285714285714 8.634514285714285 4.714285714285714 19.285714285714285v0.8571428571428571c0 4.497188571428571 3.6456685714285713 8.142857142857142 8.142857142857142 8.142857142857142s8.142857142857142 -3.6456685714285713 8.142857142857142 -8.142857142857142v-0.8571428571428571c0 -1.6568571428571428 1.343142857142857 -3 3 -3s3 1.343142857142857 3 3v20.57142857142857C27 44.3544 30.645668571428565 48 35.14285714285714 48c4.497257142857143 0 8.142857142857142 -3.6455999999999995 8.142857142857142 -8.142857142857142v-20.57142857142857C43.285714285714285 8.634514285714285 34.651199999999996 0 24 0Z" clip-rule="evenodd" stroke-width="3.4286"></path>
  </g>
</svg>