<svg xmlns="http://www.w3.org/2000/svg" fill="none" viewBox="0 0 48 48" id="Cane--Streamline-Core-Remix" height="48" width="48">
  <desc>
    Cane Streamline Icon: https://streamlinehq.com
  </desc>
  <g id="Free Remix/Money Shopping/cane--walking-stick-cane-accessories-gentleman-accessories">
    <path id="Vector (Stroke) (Stroke)" fill="#000000" fill-rule="evenodd" d="M19.014342857142854 4.056548571428571c5.413097142857143 -5.413124571428571 14.189485714285714 -5.413121142857142 19.602685714285716 0 5.413028571428571 5.413097142857143 5.413028571428571 14.189485714285714 0 19.60261714285714L16.12614857142857 46.149942857142854c-2.4712114285714284 2.4713142857142856 -6.47784 2.4713142857142856 -8.949085714285713 0 -2.4712114285714284 -2.4713142857142856 -2.4712114285714284 -6.477942857142857 0 -8.949257142857142l22.49081142857143 -22.490605714285714c0.47064 -0.4706742857142857 0.47064 -1.2337714285714285 0 -1.7044457142857143 -0.4706742857142857 -0.4706742857142857 -1.2338057142857142 -0.4706742857142857 -1.7044457142857143 0l-0.5918742857142857 0.5918399999999999c-2.4712114285714284 2.4712457142857143 -6.477874285714286 2.4712457142857143 -8.949085714285713 0 -2.4712114285714284 -2.4712114285714284 -2.4712114285714284 -6.47784 0 -8.949085714285713l0.5918742857142857 -0.5918399999999999Zm16.572171428571426 3.030445714285714c-3.739474285714286 -3.7394331428571426 -9.802285714285714 -3.7394365714285716 -13.541725714285713 0l-0.5918742857142857 0.5918742857142857c-0.79752 0.79752 -0.79752 2.090605714285714 0 2.88816 0.7975542857142857 0.7975542857142857 2.09064 0.7975542857142857 2.8881942857142855 0l0.5918399999999999 -0.5918742857142857c2.144365714285714 -2.1443314285714288 5.62104 -2.1443314285714288 7.765371428571428 0 2.1441942857142857 2.144365714285714 2.1441942857142857 5.62104 0 7.765371428571428L10.207542857142856 40.231199999999994c-0.7975542857142857 0.7974857142857142 -0.7975542857142857 2.0907428571428572 0 2.8882285714285714 0.7975542857142857 0.7974857142857142 2.090605714285714 0.7974857142857142 2.88816 0l22.49081142857143 -22.490742857142855c3.739542857142857 -3.73944 3.739542857142857 -9.802251428571427 0 -13.54169142857143Z" clip-rule="evenodd" stroke-width="3.4286"></path>
  </g>
</svg>