<svg xmlns="http://www.w3.org/2000/svg" fill="none" viewBox="0 0 48 48" id="Capitol--Streamline-Core-Remix" height="48" width="48">
  <desc>
    Capitol Streamline Icon: https://streamlinehq.com
  </desc>
  <g id="Free Remix/Map Travel/capitol--capitol-travel-places">
    <path id="Union" fill="#000000" fill-rule="evenodd" d="M24.000171428571427 1.2857142857142856c1.1834742857142857 0 2.142857142857143 0.9593897142857143 2.142857142857143 2.142857142857143v3.1612799999999996C32.93705142857143 7.622502857142857 38.14285714285714 13.488994285714284 38.14285714285714 20.57142857142857v3.4245942857142855l7.617257142857142 5.07816c0.7858285714285713 0.5237828571428571 1.1358857142857142 1.5001714285714285 0.8622857142857142 2.4039428571428574 -0.27359999999999995 0.9037371428571428 -1.1063999999999998 1.5218742857142855 -2.0509714285714282 1.5218742857142855h-1.2857142857142856v9.428571428571429H44.57142857142857c1.183542857142857 0 2.142857142857143 0.9593142857142857 2.142857142857143 2.142857142857143s-0.9593142857142857 2.142857142857143 -2.142857142857143 2.142857142857143H3.4287428571428573c-1.1834708571428572 0 -2.1428605714285713 -0.9593142857142857 -2.1428605714285713 -2.142857142857143s0.9593897142857143 -2.142857142857143 2.1428605714285713 -2.142857142857143h1.2857142857142856v-9.428571428571429h-1.2857142857142856c-0.9442902857142856 0 -1.7772754285714287 -0.6181371428571428 -2.0509165714285715 -1.5218742857142855 -0.2736377142857143 -0.9037714285714286 0.07657371428571429 -1.8801599999999998 0.8622685714285715 -2.4039428571428574L9.857314285714285 23.996022857142858V20.57142857142857c0 -7.082434285714286 5.205977142857143 -12.948925714285714 12 -13.981577142857143V3.4285714285714284c0 -1.1834674285714284 0.9593828571428571 -2.142857142857143 2.142857142857143 -2.142857142857143Zm9.857142857142856 19.85317714285714L25.188822857142853 15.359897142857141c-0.7197942857142856 -0.47986285714285715 -1.6575085714285713 -0.47986285714285715 -2.377302857142857 0L14.14302857142857 21.13889142857143V20.57142857142857c0 -5.443954285714286 4.413188571428571 -9.857142857142856 9.857142857142856 -9.857142857142856s9.857142857142856 4.413188571428571 9.857142857142856 9.857142857142856v0.567462857142857Zm-24.857142857142854 11.861108571428572v9.428571428571429h4.285714285714286v-9.428571428571429h-4.285714285714286Zm8.571428571428571 0v9.428571428571429h4.285714285714286v-9.428571428571429h-4.285714285714286Zm8.571428571428571 0v9.428571428571429h4.285714285714286v-9.428571428571429h-4.285714285714286Zm8.571257142857142 0v9.428571428571429h4.285714285714286v-9.428571428571429h-4.285714285714286Z" clip-rule="evenodd" stroke-width="3.4286"></path>
  </g>
</svg>