<svg xmlns="http://www.w3.org/2000/svg" fill="none" viewBox="0 0 48 48" id="Car-Taxi-1--Streamline-Core-Remix" height="48" width="48">
  <desc>
    Car Taxi 1 Streamline Icon: https://streamlinehq.com
  </desc>
  <g id="Free Remix/Map Travel/car-taxi-1--transportation-travel-taxi-transport-cab-car">
    <path id="Union" fill="#000000" fill-rule="evenodd" d="M20.57142857142857 3c-1.1834742857142857 0 -2.142857142857143 0.9593828571428571 -2.142857142857143 2.142857142857143v4.714285714285714H14.260799999999998c-2.228742857142857 0 -4.243028571428571 1.3282285714285715 -5.120948571428571 3.3767314285714285L5.443542857142856 21.858582857142856C2.425590857142857 21.926571428571428 0 24.394285714285715 0 27.428571428571427v6.857142857142857c0 3.045942857142857 2.4440194285714285 5.520685714285714 5.477897142857143 5.570742857142857 0.9008914285714285 2.7380571428571425 3.478834285714285 4.714628571428571 6.518468571428571 4.714628571428571 3.03936 0 5.617097142857142 -1.9762285714285714 6.518228571428571 -4.7139428571428565H29.478171428571425c0.9011314285714286 2.7377142857142855 3.478868571428571 4.7139428571428565 6.518057142857143 4.7139428571428565 3.0397714285714286 0 5.617714285714285 -1.9765714285714284 6.5184 -4.714628571428571C45.552 39.810514285714284 48 37.33405714285714 48 34.285714285714285V27.428571428571427c0 -3.0770057142857143 -2.494285714285714 -5.571428571428571 -5.571428571428571 -5.571428571428571h-6.7299428571428574L32.00300571428571 13.233874285714284C31.125085714285717 11.185337142857142 29.1108 9.857142857142856 26.882057142857143 9.857142857142856H22.71428571428571V5.142857142857142c0 -1.1834742857142857 -0.9593828571428571 -2.142857142857143 -2.142857142857143 -2.142857142857143Zm-6.3106285714285715 11.142857142857142h12.621257142857143c0.51432 0 0.9791657142857143 0.3065142857142857 1.18176 0.7792457142857143L32.31610285714286 24.844114285714284c0.33768 0.7878857142857143 1.1124 1.2987428571428572 1.9696114285714286 1.2987428571428572h8.142857142857142c0.7100571428571428 0 1.2857142857142856 0.5756228571428571 1.2857142857142856 1.2857142857142856v6.857142857142857c0 0.6805714285714286 -0.5290285714285714 1.2377142857142855 -1.197942857142857 1.2826285714285712 -0.9 -2.740045714285714 -3.478971428571428 -4.718742857142857 -6.5201142857142855 -4.718742857142857 -3.042102857142857 0 -5.621828571428571 1.980102857142857 -6.520628571428571 4.7218285714285715H18.517131428571428c-0.8987657142857142 -2.7417257142857143 -3.478525714285714 -4.7218285714285715 -6.520765714285714 -4.7218285714285715 -3.0409714285714284 0 -5.619839999999999 1.9784571428571427 -6.519668571428571 4.7184 -0.6658285714285714 -0.04834285714285714 -1.1909828571428571 -0.6041142857142857 -1.1909828571428571 -1.2822857142857143V27.428571428571427c0 -0.7100914285714285 0.5756228571428571 -1.2857142857142856 1.2857142857142856 -1.2857142857142856H6.857142857142857c0.8572114285714286 0 1.6319314285714286 -0.5108571428571428 1.9696114285714286 -1.2987428571428572l4.252285714285715 -9.922011428571428c0.2025942857142857 -0.4727314285714286 0.66744 -0.7792457142857143 1.18176 -0.7792457142857143Zm0.8055428571428571 12c-1.23072 0 -2.0605028571428567 -1.2583885714285714 -1.575702857142857 -2.3895771428571426l2.020422857142857 -4.714285714285714c0.27013714285714285 -0.6303085714285714 0.88992 -1.0389942857142855 1.5756685714285712 -1.0389942857142855h6.969325714285714c0.6857485714285714 0 1.3055314285714286 0.40868571428571426 1.5756685714285712 1.0389942857142855l2.020422857142857 4.714285714285714c0.48479999999999995 1.1311885714285714 -0.34498285714285715 2.3895771428571426 -1.5756685714285712 2.3895771428571426H15.066342857142857Z" clip-rule="evenodd" stroke-width="3.4286"></path>
  </g>
</svg>