<svg xmlns="http://www.w3.org/2000/svg" fill="none" viewBox="0 0 48 48" id="Car-Battery-Charging--Streamline-Core-Remix" height="48" width="48">
  <desc>
    Car Battery Charging Streamline Icon: https://streamlinehq.com
  </desc>
  <g id="Free Remix/Map Travel/car-battery-charging">
    <path id="Union" fill="#000000" fill-rule="evenodd" d="M7.7142857142857135 5.142857142857142c-0.9467657142857142 0 -1.7142857142857142 0.76752 -1.7142857142857142 1.7142857142857142v5.142857142857142h-0.42857142857142855C2.494412571428571 12 0 14.494422857142858 0 17.57142857142857v24.857142857142854C0 45.505714285714284 2.494412571428571 48 5.571428571428571 48h36.857142857142854c3.077142857142857 0 5.571428571428571 -2.494285714285714 5.571428571428571 -5.571428571428571v-24.857142857142854c0 -3.0770057142857143 -2.494285714285714 -5.571428571428571 -5.571428571428571 -5.571428571428571h-0.42857142857142855V6.857142857142857c0 -0.9467657142857142 -0.7676571428571428 -1.7142857142857142 -1.7142857142857142 -1.7142857142857142h-8.571428571428571c-0.9467657142857142 0 -1.7142857142857142 0.76752 -1.7142857142857142 1.7142857142857142v5.142857142857142h-12V6.857142857142857c0 -0.9467657142857142 -0.76752 -1.7142857142857142 -1.7142857142857142 -1.7142857142857142h-8.571428571428571Zm-2.142857142857143 11.142857142857142c-0.7100914285714285 0 -1.2857142857142856 0.5756228571428571 -1.2857142857142856 1.2857142857142856v24.857142857142854c0 0.7100571428571428 0.5756228571428571 1.2857142857142856 1.2857142857142856 1.2857142857142856h36.857142857142854c0.7100571428571428 0 1.2857142857142856 -0.5756571428571428 1.2857142857142856 -1.2857142857142856v-24.857142857142854c0 -0.7100914285714285 -0.5756571428571428 -1.2857142857142856 -1.2857142857142856 -1.2857142857142856H5.571428571428571Zm20.979359999999996 7.023462857142857c0.8019428571428571 -1.1720571428571427 0.5019085714285714 -2.7723085714285713 -0.6701828571428571 -3.574251428571428 -1.1720571428571427 -0.8019428571428571 -2.7723085714285713 -0.5019085714285714 -3.574251428571428 0.6701828571428571l-5.571428571428571 8.142857142857142c-0.5386628571428571 0.7872342857142857 -0.5972571428571428 1.8079885714285713 -0.15222857142857144 2.6516914285714286 0.4450285714285714 0.8437371428571429 1.3205485714285714 1.3717714285714286 2.274445714285714 1.3717714285714286h5.410594285714286l-2.818525714285714 4.119428571428571c-0.8019428571428571 1.1718857142857142 -0.5019085714285714 2.7723428571428568 0.6701828571428571 3.574285714285714 1.1720571428571427 0.8019428571428571 2.7723085714285713 0.5019428571428571 3.574251428571428 -0.6702857142857143l5.571428571428571 -8.142822857142857c0.5386628571428571 -0.7872342857142857 0.5972228571428572 -1.8079885714285713 0.15222857142857144 -2.6516914285714286C30.972274285714285 27.95660571428571 30.096754285714283 27.428571428571427 29.142857142857142 27.428571428571427H23.732262857142853l2.818525714285714 -4.119394285714285Z" clip-rule="evenodd" stroke-width="3.4286"></path>
  </g>
</svg>