<svg xmlns="http://www.w3.org/2000/svg" fill="none" viewBox="0 0 48 48" id="Cards--Streamline-Core-Remix" height="48" width="48">
  <desc>
    Cards Streamline Icon: https://streamlinehq.com
  </desc>
  <g id="Free Remix/Entertainment/cards">
    <path id="Union" fill="#000000" fill-rule="evenodd" d="m4.409588571428571 9.548365714285714 19.18848 -5.138948571428571L31.08318857142857 32.33005714285714l-19.18848 5.139085714285714 -7.485119999999999 -27.920777142857144ZM27.596091428571427 2.771753142857143C27.061474285714283 0.7775382857142857 25.01166857142857 -0.4059051428571428 23.017337142857144 0.128208L2.7726719999999996 5.55c-1.9950651428571429 0.5343085714285715 -3.1790262857142855 2.585005714285714 -2.644216457142857 4.5799199999999995L7.896685714285714 39.10662857142857c0.5346171428571429 1.9944 2.5844228571428567 3.1775999999999995 4.578754285714285 2.6434285714285712l1.1722971428571427 -0.31371428571428567c0.13381714285714286 0.07988571428571428 0.27915428571428574 0.1422857142857143 0.4326857142857143 0.18377142857142856l21.557862857142855 5.836799999999999 0.0041142857142857136 0.0013714285714285714c1.7664 0.4734857142857143 3.581828571428571 -0.5749714285714285 4.054971428571428 -2.341371428571428l7.760914285714285 -28.978594285714284c0.47279999999999994 -1.7657485714285712 -0.5749714285714285 -3.5805942857142856 -2.340342857142857 -4.053908571428571L28.929222857142854 7.744491428571428 27.596091428571427 2.771753142857143Z" clip-rule="evenodd" stroke-width="3.4286"></path>
  </g>
</svg>