<svg xmlns="http://www.w3.org/2000/svg" fill="none" viewBox="0 0 48 48" id="Cat-1--Streamline-Core-Remix" height="48" width="48">
  <desc>
    Cat 1 Streamline Icon: https://streamlinehq.com
  </desc>
  <g id="Free Remix/Nature Ecology/cat-1--nature-head-cat-pet-animals-felyne">
    <path id="Union" fill="#000000" fill-rule="evenodd" d="M42.03565714285714 1.4805325714285713c-0.7618285714285714 -0.3490662857142857 -1.6573714285714285 -0.22209257142857142 -2.292 0.3250182857142857L29.51478857142857 10.623222857142856c-1.7289599999999998 -0.4985142857142857 -3.5895771428571424 -0.7660457142857142 -5.5148914285714286 -0.7660457142857142 -1.925245714285714 0 -3.7858285714285715 0.2675314285714286 -5.514754285714286 0.7659771428571428L8.256274285714285 1.805550857142857C7.621577142857142 1.25844 6.726239999999999 1.1314662857142856 5.96448 1.4805325714285713 5.20272 1.8296022857142857 4.714285714285714 2.590662857142857 4.714285714285714 3.4286057142857143v21.428571428571427c0 1.0350171428571426 0.7397828571428571 1.9220914285714286 1.7579657142857141 2.1079885714285713 1.018182857142857 0.18593142857142855 2.0237142857142856 -0.3824914285714286 2.389474285714286 -1.35072 0.41667428571428566 -1.1029371428571426 1.596 -3.3641142857142854 3.3820799999999998 -5.575851428571428 1.2876342857142857 -1.594525714285714 2.791782857142857 -3.0402171428571427 4.431257142857143 -4.0302171428571425 0.6285257142857142 -0.3659314285714286 1.31496 -0.6884228571428571 2.050182857142857 -0.9579085714285714l0.02146285714285714 -0.007817142857142856c1.5612685714285712 -0.5693485714285714 3.3415542857142855 -0.8997599999999999 5.253188571428572 -0.8997599999999999 2.824525714285714 0 5.362182857142857 0.7213371428571428 7.330559999999999 1.8688457142857142 1.6373485714285714 0.9898971428571427 3.1397142857142852 2.4341485714285716 4.425771428571428 4.026857142857143 1.785942857142857 2.211737142857143 2.9653714285714283 4.472914285714285 3.381942857142857 5.575851428571428 0.3658285714285714 0.9682285714285713 1.3714285714285714 1.5366514285714283 2.3897142857142852 1.35072 1.017942857142857 -0.18589714285714284 1.7578285714285715 -1.0729714285714285 1.7578285714285715 -2.1079885714285713v-21.428571428571427c0 -0.8379428571428571 -0.4885714285714285 -1.5990034285714285 -1.2500571428571428 -1.948073142857143ZM31.767394285714282 42.44537142857143c1.0970057142857144 -0.444 2.3462742857142858 0.08537142857142856 2.7902057142857144 1.1821714285714284 0.4443428571428571 1.0971428571428572 -0.08502857142857143 2.3465142857142856 -1.1821371428571428 2.7905142857142855 -1.8392914285714286 0.7443428571428571 -3.8479885714285715 1.1533714285714285 -5.946891428571428 1.1533714285714285H20.57142857142857c-2.098902857142857 0 -4.1076 -0.4090285714285714 -5.946891428571428 -1.1533714285714285 -1.0970057142857144 -0.444 -1.6263085714285712 -1.6933714285714285 -1.1822742857142858 -2.7905142857142855 0.44406857142857137 -1.0968 1.6933371428571427 -1.6261714285714284 2.790342857142857 -1.1821714285714284 1.3370742857142857 0.5413714285714286 2.8003542857142856 0.8403428571428572 4.338822857142857 0.8403428571428572h6.857142857142857c1.5384685714285713 0 3.0017828571428566 -0.29897142857142855 4.338822857142857 -0.8403428571428572ZM44.57142857142857 29.571462857142855c1.183542857142857 0 2.142857142857143 0.9593828571428571 2.142857142857143 2.142857142857143s-0.9593142857142857 2.142857142857143 -2.142857142857143 2.142857142857143h-9.428571428571429c-1.1834742857142857 0 -2.142857142857143 -0.9593828571428571 -2.142857142857143 -2.142857142857143s0.9593828571428571 -2.142857142857143 2.142857142857143 -2.142857142857143H44.57142857142857ZM32.85980571428571 37.06937142857142c-0.5929714285714285 1.0241142857142858 -0.24336 2.3352 0.780822857142857 2.928l8.143028571428571 4.714285714285714c1.0241142857142858 0.5928 2.334857142857143 0.24342857142857138 2.928 -0.7806857142857143 0.5928 -1.0244571428571427 0.24342857142857138 -2.3352 -0.7810285714285714 -2.928342857142857l-8.142857142857142 -4.714285714285714c-1.0241142857142858 -0.5928 -2.3349942857142856 -0.24342857142857138 -2.927965714285714 0.7810285714285714ZM12.857142857142856 29.571462857142855c1.1834742857142857 0 2.142857142857143 0.9593828571428571 2.142857142857143 2.142857142857143s-0.9593828571428571 2.142857142857143 -2.142857142857143 2.142857142857143H3.4285714285714284c-1.1834674285714284 0 -2.142857142857143 -0.9593828571428571 -2.142857142857143 -2.142857142857143s0.9593897142857143 -2.142857142857143 2.142857142857143 -2.142857142857143h9.428571428571429Zm2.2830514285714285 7.497908571428571c-0.5929714285714285 -1.0244571428571427 -1.9039199999999998 -1.3738285714285714 -2.9281371428571425 -0.7810285714285714l-8.142857142857142 4.714285714285714c-1.0241965714285712 0.5931428571428571 -1.3737908571428572 1.9038857142857142 -0.7808297142857142 2.928342857142857 0.5929782857142857 1.0241142857142858 1.9039268571428571 1.3734857142857142 2.9281439999999996 0.7806857142857143l8.142857142857142 -4.714285714285714c1.024182857142857 -0.5928 1.3737942857142855 -1.9038857142857142 0.780822857142857 -2.928ZM26.57142857142857 30.428605714285712c0.9442971428571428 0 1.7772685714285714 0.6181371428571428 2.0509028571428574 1.5218742857142855 0.2736342857142857 0.9037714285714286 -0.07655999999999999 1.8801599999999998 -0.8622514285714284 2.4038057142857143l-2.571428571428571 1.7142857142857142c-0.7197942857142856 0.48000000000000004 -1.6575085714285713 0.48000000000000004 -2.377302857142857 0l-2.571428571428571 -1.7142857142857142c-0.7856914285714285 -0.5236457142857143 -1.1358857142857142 -1.5000342857142857 -0.8622514285714284 -2.4038057142857143 0.2736342857142857 -0.9037371428571428 1.1066057142857142 -1.5218742857142855 2.0509028571428574 -1.5218742857142855h5.142857142857142Zm7.286194285714285 -6.428571428571428c0 1.6568571428571428 -1.343142857142857 3 -3 3 -1.6568228571428572 0 -3 -1.343142857142857 -3 -3s1.3431771428571428 -3 3 -3c1.6568571428571428 0 3 1.343142857142857 3 3Zm-13.715314285714285 0c0 1.6568571428571428 -1.343142857142857 3 -3 3s-3 -1.343142857142857 -3 -3 1.343142857142857 -3 3 -3 3 1.343142857142857 3 3Z" clip-rule="evenodd" stroke-width="3.4286"></path>
  </g>
</svg>