<svg xmlns="http://www.w3.org/2000/svg" fill="none" viewBox="0 0 48 48" id="Cellular-Network-5g--Streamline-Core-Remix" height="48" width="48">
  <desc>
    Cellular Network 5g Streamline Icon: https://streamlinehq.com
  </desc>
  <g id="Free Remix/Phone/cellular-network-5g">
    <path id="Union" fill="#000000" fill-rule="evenodd" d="M5.528502857142857 7.899222857142856c-1.0829485714285714 0.9187199999999999 -1.21608 2.5413942857142855 -0.29736 3.6243771428571425 0.9187199999999999 1.0829485714285714 2.5414285714285714 1.21608 3.6243771428571425 0.29736 1.3073485714285713 -1.1091085714285713 2.7316114285714286 -2.081965714285714 4.2516 -2.8997142857142855 3.358765714285714 -1.8069942857142856 7.091965714285714 -2.806697142857143 10.903645714285714 -2.9202171428571426 3.8150399999999998 0.11489142857142856 7.550879999999999 1.1190514285714286 10.90992 2.932902857142857 1.5089142857142857 0.8149371428571428 2.9232 1.7831657142857145 4.2216 2.8860342857142856 1.0823999999999998 0.9193714285714285 2.705485714285714 0.7871999999999999 3.6246857142857136 -0.29519999999999996 0.9195428571428571 -1.0824342857142857 0.7871999999999999 -2.7051771428571425 -0.29519999999999996 -3.6245485714285715 -1.5709714285714285 -1.3342628571428572 -3.2818285714285715 -2.5056 -5.107542857142857 -3.4915199999999995C33.27582857142857 2.2009714285714286 28.725942857142854 0.9847577142857142 24.08129142857143 0.8580994285714284c-0.04645714285714285 -0.0012685714285714286 -0.0929142857142857 -0.0012754285714285712 -0.13937142857142856 -0.000024C19.302754285714286 0.9830605714285713 14.75742857142857 2.19348 10.670502857142855 4.392239999999999c-1.8382971428571429 0.9890057142857143 -3.560845714285714 2.165622857142857 -5.1419999999999995 3.506982857142857Zm8.450262857142857 6.792651428571428c-1.1580685714285714 0.822 -1.4305371428571427 2.4271885714285713 -0.6085371428571429 3.585257142857143 0.8219657142857143 1.158102857142857 2.4271542857142854 1.4305714285714286 3.585257142857143 0.6085714285714285 2.2356685714285716 -1.5868457142857142 4.664022857142857 -2.4510514285714287 7.101565714285713 -2.5916571428571427 2.4434742857142857 0.1337142857142857 4.878548571428571 0.9944228571428572 7.1206628571428565 2.5813714285714284 1.1591657142857141 0.8204228571428571 2.7640114285714286 0.5458285714285714 3.5845714285714285 -0.6133371428571428 0.8204571428571429 -1.1592 0.5458285714285714 -2.7640114285714286 -0.6134742857142857 -3.584468571428571 -3.0192342857142855 -2.1369599999999997 -6.436731428571428 -3.367645714285714 -9.979885714285714 -3.527177142857142 -0.07961142857142857 -0.0035999999999999995 -0.15932571428571426 -0.003462857142857143 -0.23893714285714285 0.00034285714285714285 -3.534274285714285 0.16961142857142855 -6.941417142857142 1.4048228571428572 -9.951222857142856 3.5410971428571427Zm18.29262857142857 14.114502857142854c-1.2891085714285713 0 -2.3341371428571427 1.0450285714285714 -2.3341371428571427 2.3341371428571427v8.953885714285713c0 1.2891428571428571 1.0450285714285714 2.334171428571428 2.3341371428571427 2.334171428571428h2.9846057142857143c1.2891428571428571 0 2.334171428571428 -1.0450285714285714 2.334171428571428 -2.334171428571428v-0.8417142857142856h-2.334171428571428c-1.1834057142857144 0 -2.142788571428571 -0.9593142857142857 -2.142788571428571 -2.142857142857143s0.9593828571428571 -2.142857142857143 2.142788571428571 -2.142857142857143h4.477028571428572c1.183542857142857 0 2.142857142857143 0.9593142857142857 2.142857142857143 2.142857142857143v2.9845714285714284c0 3.656228571428571 -2.9636571428571425 6.619885714285714 -6.619885714285714 6.619885714285714h-2.9846057142857143c-3.6560228571428572 0 -6.619851428571428 -2.9636571428571425 -6.619851428571428 -6.619885714285714V31.140514285714282c0 -3.6560571428571422 2.9638285714285715 -6.619851428571428 6.619851428571428 -6.619851428571428h2.9846057142857143c2.885828571428571 0 5.3348571428571425 1.8451885714285714 6.242742857142857 4.413428571428571 0.3942857142857143 1.1158285714285714 -0.1906285714285714 2.340102857142857 -1.3062857142857143 2.734491428571429 -1.1159999999999999 0.39435428571428566 -2.34 -0.19049142857142856 -2.7346285714285714 -1.3062857142857143 -0.32125714285714285 -0.9094971428571428 -1.1886857142857143 -1.55592 -2.2018285714285715 -1.55592h-2.9846057142857143Zm-12.821382857142856 0 -7.879028571428571 0 -0.5708914285714285 3.4253142857142853c0.7725942857142857 -0.16824 1.5635314285714283 -0.25388571428571427 2.359508571428571 -0.25388571428571427h2.36184c3.654548571428571 0 6.6171428571428565 2.9624228571428572 6.6171428571428565 6.617279999999999v1.4914285714285713c0 3.654514285714286 -2.962628571428571 6.6171428571428565 -6.6171428571428565 6.6171428571428565h-2.9828571428571427c-2.8844914285714283 0 -5.332697142857143 -1.8445714285714285 -6.240068571428571 -4.411885714285714 -0.39438857142857137 -1.115657142857143 0.19045714285714285 -2.34 1.3062514285714284 -2.734285714285714 1.1158285714285714 -0.3942857142857143 2.340102857142857 0.19028571428571428 2.734491428571429 1.3062857142857143 0.32108571428571425 0.9082285714285715 1.1875542857142858 1.5541714285714283 2.199325714285714 1.5541714285714283h2.9828571428571427c1.2875999999999999 0 2.3314285714285714 -1.0439999999999998 2.3314285714285714 -2.3314285714285714l0 -1.4914285714285713c0 -1.2877714285714286 -1.0438285714285713 -2.3314285714285714 -2.3314285714285714 -2.3314285714285714h-2.36184c-1.0565485714285714 0 -2.098594285714286 0.24582857142857142 -3.0436114285714284 0.7182857142857142l-1.0934057142857143 0.5468571428571428c-0.7208914285714285 0.36034285714285713 -1.58304 0.2859428571428571 -2.2313828571428567 -0.19302857142857144 -0.6483085714285715 -0.4789714285714285 -0.9731314285714286 -1.2809142857142857 -0.8406171428571428 -2.076l1.4914285714285713 -8.948537142857141c0.17221714285714285 -1.0332685714285714 1.066182857142857 -1.7905714285714285 2.113714285714286 -1.7905714285714285h9.694285714285714c1.1834399999999998 0 2.142857142857143 0.9593828571428571 2.142857142857143 2.142857142857143s-0.9594171428571429 2.142857142857143 -2.142857142857143 2.142857142857143Z" clip-rule="evenodd" stroke-width="3.4286"></path>
  </g>
</svg>