<svg xmlns="http://www.w3.org/2000/svg" fill="none" viewBox="0 0 48 48" id="Cellular-Network-4g--Streamline-Core-Remix" height="48" width="48">
  <desc>
    Cellular Network 4g Streamline Icon: https://streamlinehq.com
  </desc>
  <g id="Free Remix/Phone/cellular-network-4g">
    <path id="Union" fill="#000000" fill-rule="evenodd" d="M5.528502857142857 7.899222857142856c-1.0829485714285714 0.9187199999999999 -1.21608 2.5413942857142855 -0.29736 3.6243771428571425 0.9187199999999999 1.0829485714285714 2.5414285714285714 1.21608 3.6243771428571425 0.29736 1.3073485714285713 -1.1091085714285713 2.7316114285714286 -2.081965714285714 4.2516 -2.8997142857142855 3.358765714285714 -1.8069942857142856 7.091965714285714 -2.806697142857143 10.903645714285714 -2.9202171428571426 3.8150399999999998 0.11489142857142856 7.550879999999999 1.1190514285714286 10.90992 2.932902857142857 1.5089142857142857 0.8149371428571428 2.9232 1.7831657142857145 4.2216 2.8860342857142856 1.0823999999999998 0.9193714285714285 2.705485714285714 0.7871999999999999 3.6246857142857136 -0.29519999999999996 0.9195428571428571 -1.0824342857142857 0.7871999999999999 -2.7051771428571425 -0.29519999999999996 -3.6245485714285715 -1.5709714285714285 -1.3342628571428572 -3.2818285714285715 -2.5056 -5.107542857142857 -3.4915199999999995C33.27582857142857 2.2009714285714286 28.725942857142854 0.9847577142857142 24.08129142857143 0.8580994285714284c-0.04645714285714285 -0.0012685714285714286 -0.0929142857142857 -0.0012754285714285712 -0.13937142857142856 -0.000024C19.302754285714286 0.9830605714285713 14.75742857142857 2.19348 10.670502857142855 4.392239999999999c-1.8382971428571429 0.9890057142857143 -3.560845714285714 2.165622857142857 -5.1419999999999995 3.506982857142857Zm7.841725714285714 10.37790857142857c-0.822 -1.1580685714285714 -0.5495314285714286 -2.763257142857143 0.6085371428571429 -3.585257142857143 3.009805714285714 -2.1362742857142853 6.416948571428571 -3.371485714285714 9.951222857142856 -3.5410971428571427 0.07961142857142857 -0.003805714285714286 0.15932571428571426 -0.003942857142857143 0.23893714285714285 -0.00034285714285714285 3.5431542857142855 0.15953142857142857 6.9606514285714285 1.3902171428571428 9.979885714285714 3.527177142857142 1.159302857142857 0.8204571428571429 1.4339314285714284 2.4252685714285716 0.6134742857142857 3.584468571428571 -0.82056 1.1591657142857141 -2.425405714285714 1.43376 -3.5845714285714285 0.6133371428571428 -2.2421142857142855 -1.5869485714285714 -4.677188571428571 -2.4476571428571425 -7.1206628571428565 -2.5813714285714284 -2.437542857142857 0.14060571428571428 -4.8658971428571425 1.0048114285714285 -7.101565714285713 2.5916571428571427 -1.158102857142857 0.822 -2.7632914285714283 0.5495314285714286 -3.585257142857143 -0.6085714285714285Zm5.3876228571428575 6.243531428571428c-0.9139200000000001 0 -1.7833714285714284 0.39452571428571426 -2.385188571428571 1.0823314285714285L6.501497142857142 36.884228571428565c-0.5148342857142857 0.5883428571428572 -0.798582857142857 1.3436571428571429 -0.798582857142857 2.1253714285714285 0 1.7825142857142857 1.4450399999999999 3.227657142857143 3.227588571428571 3.227657142857143h8.711039999999999V44.57142857142857c0 1.183542857142857 0.9593828571428571 2.142857142857143 2.1428228571428574 2.142857142857143 1.1834742857142857 0 2.142857142857143 -0.9593142857142857 2.142857142857143 -2.142857142857143v-2.334171428571428h0.8418171428571428c1.1834742857142857 0 2.142857142857143 -0.9593142857142857 2.142857142857143 -2.142857142857143s-0.9593828571428571 -2.142857142857143 -2.142857142857143 -2.142857142857143h-0.8418171428571428V27.690034285714283c0 -1.7503885714285714 -1.4189485714285714 -3.1693714285714285 -3.1693714285714285 -3.1693714285714285Zm-1.1163085714285714 6.140434285714286v7.290445714285714h-6.3792l6.3792 -7.290445714285714Zm12.714274285714286 0.4794171428571429c0 -1.2891085714285713 1.0449942857142858 -2.3341371428571427 2.3341028571428573 -2.3341371428571427h2.984708571428571c1.0128 0 1.8802285714285714 0.6464228571428572 2.2018285714285715 1.55592 0.3942857142857143 1.1157942857142857 1.6186285714285713 1.70064 2.7346285714285714 1.3062857142857143 1.115657142857143 -0.39438857142857137 1.7005714285714284 -1.618662857142857 1.3062857142857143 -2.734491428571429 -0.9078857142857142 -2.56824 -3.3572571428571427 -4.413428571428571 -6.242742857142857 -4.413428571428571h-2.984708571428571c-3.6560228571428572 0 -6.619817142857142 2.9637942857142856 -6.619817142857142 6.619851428571428v8.953885714285713c0 3.656228571428571 2.9637942857142856 6.619885714285714 6.619817142857142 6.619885714285714h2.984708571428571c3.655885714285714 0 6.619885714285714 -2.9636571428571425 6.619885714285714 -6.619885714285714v-2.9845714285714284c0 -1.183542857142857 -0.9593142857142857 -2.142857142857143 -2.142857142857143 -2.142857142857143h-4.477028571428572c-1.183542857142857 0 -2.1428914285714282 0.9593142857142857 -2.1428914285714282 2.142857142857143s0.9593485714285714 2.142857142857143 2.1428914285714282 2.142857142857143h2.334171428571428v0.8417142857142856c0 1.2891428571428571 -1.0450285714285714 2.334171428571428 -2.334171428571428 2.334171428571428h-2.984708571428571c-1.2891085714285713 0 -2.3341028571428573 -1.0450285714285714 -2.3341028571428573 -2.334171428571428V31.140514285714282Z" clip-rule="evenodd" stroke-width="3.4286"></path>
  </g>
</svg>