<svg xmlns="http://www.w3.org/2000/svg" fill="none" viewBox="0 0 48 48" id="Cellular-Network-Lte--Streamline-Core-Remix" height="48" width="48">
  <desc>
    Cellular Network Lte Streamline Icon: https://streamlinehq.com
  </desc>
  <g id="Free Remix/Phone/cellular-network-lte">
    <path id="Union" fill="#000000" fill-rule="evenodd" d="M5.528468571428571 7.899222857142856c-1.0829485714285714 0.9187199999999999 -1.2161142857142857 2.5413942857142855 -0.29736 3.6243771428571425 0.9187199999999999 1.0829485714285714 2.5413942857142855 1.21608 3.6243428571428566 0.29736 1.307382857142857 -1.1091085714285713 2.7316457142857145 -2.081965714285714 4.251634285714285 -2.8997142857142855 3.358765714285714 -1.8069942857142856 7.091965714285714 -2.806697142857143 10.903611428571427 -2.9202171428571426 3.8150399999999998 0.11489142857142856 7.550879999999999 1.1190514285714286 10.90998857142857 2.932902857142857 1.5089142857142857 0.8149371428571428 2.9232 1.7831657142857145 4.2216 2.8860342857142856 1.0823999999999998 0.9193714285714285 2.705142857142857 0.7871999999999999 3.6246857142857136 -0.29519999999999996 0.9192 -1.0824342857142857 0.7871999999999999 -2.7051771428571425 -0.29519999999999996 -3.6245485714285715 -1.5709714285714285 -1.3342628571428572 -3.2818285714285715 -2.5056 -5.107542857142857 -3.4915199999999995C33.275794285714284 2.2009714285714286 28.725874285714283 0.9847577142857142 24.081222857142855 0.8580994285714284c-0.04642285714285714 -0.0012685714285714286 -0.0929142857142857 -0.0012754285714285712 -0.13933714285714285 -0.000024C19.302719999999997 0.9830605714285713 14.757394285714286 2.19348 10.670468571428572 4.392239999999999c-1.8382971428571429 0.9890057142857143 -3.5608799999999996 2.165622857142857 -5.1419999999999995 3.506982857142857Zm7.841691428571428 10.37790857142857c-0.822 -1.1580685714285714 -0.5495314285714286 -2.763257142857143 0.6085714285714285 -3.585257142857143 3.0097714285714283 -2.1362742857142853 6.416914285714285 -3.371485714285714 9.951222857142856 -3.5410971428571427 0.07957714285714286 -0.003805714285714286 0.15932571428571426 -0.003942857142857143 0.23893714285714285 -0.00034285714285714285 3.5431199999999996 0.15953142857142857 6.960617142857143 1.3902171428571428 9.979885714285714 3.527177142857142 1.1593371428571428 0.8204571428571429 1.433622857142857 2.4252685714285716 0.6131657142857142 3.584468571428571 -0.8202857142857142 1.1591657142857141 -2.4250971428571426 1.43376 -3.584297142857143 0.6133371428571428 -2.2420799999999996 -1.5869485714285714 -4.677188571428571 -2.4476571428571425 -7.12062857142857 -2.5813714285714284 -2.437542857142857 0.14060571428571428 -4.865931428571428 1.0048114285714285 -7.1015999999999995 2.5916571428571427 -1.1580685714285714 0.822 -2.763257142857143 0.5495314285714286 -3.585257142857143 -0.6085714285714285ZM3.4285714285714284 24.520662857142856c1.1834742857142857 0 2.142857142857143 0.9593828571428571 2.142857142857143 2.142857142857143V42.42857142857142h8.303451428571428c1.1834399999999998 0 2.142857142857143 0.9593142857142857 2.142857142857143 2.142857142857143s-0.9594171428571429 2.142857142857143 -2.142857142857143 2.142857142857143H3.4285714285714284c-1.1834674285714284 0 -2.142857142857143 -0.9593142857142857 -2.142857142857143 -2.142857142857143V26.66352c0 -1.1834742857142857 0.9593897142857143 -2.142857142857143 2.142857142857143 -2.142857142857143Zm17.24413714285714 0H14.703119999999998c-1.1834742857142857 0 -2.142857142857143 0.9593828571428571 -2.142857142857143 2.142857142857143s0.9593828571428571 2.142857142857143 2.142857142857143 2.142857142857143h3.8267314285714287V44.57142857142857c0 1.183542857142857 0.9593828571428571 2.142857142857143 2.142857142857143 2.142857142857143s2.142857142857143 -0.9593142857142857 2.142857142857143 -2.142857142857143V28.806377142857137h3.8261828571428564c1.1834742857142857 0 2.142857142857143 -0.9593828571428571 2.142857142857143 -2.142857142857143s-0.9593828571428571 -2.142857142857143 -2.142857142857143 -2.142857142857143H20.67270857142857Zm10.444594285714285 0.6276342857142857c0.4018628571428571 -0.4018628571428571 0.946902857142857 -0.6276342857142857 1.515222857142857 -0.6276342857142857h11.938559999999999c1.183542857142857 0 2.142857142857143 0.9593828571428571 2.142857142857143 2.142857142857143s-0.9593142857142857 2.142857142857143 -2.142857142857143 2.142857142857143h-9.795771428571427v3.9220114285714285h8.303657142857142c1.1832 0 2.142857142857143 0.9593828571428571 2.142857142857143 2.142925714285714s-0.9596571428571428 2.142857142857143 -2.142857142857143 2.142857142857143h-8.303657142857142v5.4144h9.795771428571427c1.183542857142857 0 2.142857142857143 0.9593142857142857 2.142857142857143 2.142857142857143s-0.9593142857142857 2.142857142857143 -2.142857142857143 2.142857142857143H32.63252571428571c-1.1834742857142857 0 -2.142857142857143 -0.9593142857142857 -2.142857142857143 -2.142857142857143V26.66352c0 -0.5683199999999999 0.22577142857142857 -1.11336 0.6276342857142857 -1.515222857142857Z" clip-rule="evenodd" stroke-width="3.4286"></path>
  </g>
</svg>