<svg xmlns="http://www.w3.org/2000/svg" fill="none" viewBox="0 0 48 48" id="Celsius--Streamline-Core-Remix" height="48" width="48">
  <desc>
    Celsius Streamline Icon: https://streamlinehq.com
  </desc>
  <g id="Free Remix/Interface Essential/celsius--degrees-temperature-centigrade-celsius-degree-weather">
    <path id="Union" fill="#000000" fill-rule="evenodd" d="M6.771085714285714 7.285782857142857c0 -1.7041714285714284 1.381542857142857 -3.0857142857142854 3.0857142857142854 -3.0857142857142854 1.704205714285714 0 3.0857142857142854 1.381542857142857 3.0857142857142854 3.0857142857142854 0 1.704205714285714 -1.3815085714285715 3.0857142857142854 -3.0857142857142854 3.0857142857142854 -1.7041714285714284 0 -3.0857142857142854 -1.3815085714285715 -3.0857142857142854 -3.0857142857142854Zm3.0857142857142854 -7.199984914285714C5.880342857142857 0.08579794285714284 2.656806857142857 3.3093462857142857 2.656806857142857 7.285782857142857c0 3.9764571428571425 3.2235359999999997 7.2 7.199993142857142 7.2 3.9764571428571425 0 7.2 -3.2235428571428573 7.2 -7.2 0 -3.976436571428571 -3.2235428571428573 -7.199984914285714 -7.2 -7.199984914285714Zm22.71428571428571 3.3428420571428568c-6.864102857142857 0 -12.428571428571427 5.564468571428571 -12.428571428571427 12.428571428571427V35.57142857142857c0 6.864342857142857 5.564468571428571 12.428571428571427 12.428571428571427 12.428571428571427 6.863999999999999 0 12.428571428571427 -5.564228571428571 12.428571428571427 -12.428571428571427 0 -1.183542857142857 -0.9593142857142857 -2.142788571428571 -2.142857142857143 -2.142788571428571s-2.142857142857143 0.9592457142857141 -2.142857142857143 2.142788571428571c0 4.497257142857143 -3.6455999999999995 8.142857142857142 -8.142857142857142 8.142857142857142 -4.497154285714285 0 -8.142857142857142 -3.6455999999999995 -8.142857142857142 -8.142857142857142V15.857211428571429c0 -4.497154285714285 3.645702857142857 -8.142857142857142 8.142857142857142 -8.142857142857142 4.497257142857143 0 8.142857142857142 3.645702857142857 8.142857142857142 8.142857142857142 0 1.1834742857142857 0.9593142857142857 2.142857142857143 2.142857142857143 2.142857142857143s2.142857142857143 -0.9593828571428571 2.142857142857143 -2.142857142857143c0 -6.864102857142857 -5.564571428571428 -12.428571428571427 -12.428571428571427 -12.428571428571427Z" clip-rule="evenodd" stroke-width="3.4286"></path>
  </g>
</svg>