<svg xmlns="http://www.w3.org/2000/svg" fill="none" viewBox="0 0 48 48" id="Chair--Streamline-Core-Remix" height="48" width="48">
  <desc>
    Chair Streamline Icon: https://streamlinehq.com
  </desc>
  <g id="Free Remix/Money Shopping/chair--chair-business-product-comfort-decoration-sit-furniture">
    <path id="Union" fill="#000000" fill-rule="evenodd" d="M8.571428571428571 0c1.1834742857142857 0 2.142857142857143 0.9593897142857143 2.142857142857143 2.142857142857143V5.142857142857142h26.57142857142857V2.142857142857143c0 -1.1834674285714284 0.9593142857142857 -2.142857142857143 2.142857142857143 -2.142857142857143s2.142857142857143 0.9593897142857143 2.142857142857143 2.142857142857143V24.857142857142854h1.2857142857142856c1.4201142857142857 0 2.571428571428571 1.1512799999999999 2.571428571428571 2.571428571428571s-1.1513142857142855 2.571428571428571 -2.571428571428571 2.571428571428571h-3.0212571428571424l-11.910377142857143 7.759885714285714 9.672891428571429 6.301714285714286c0.9915428571428572 0.6462857142857142 1.2716571428571428 1.9738285714285713 0.6257142857142857 2.9653714285714283 -0.6462857142857142 0.9915428571428572 -1.9738285714285713 1.2716571428571428 -2.9653714285714283 0.6257142857142857L24 40.31725714285714l-11.258811428571429 7.3354285714285705c-0.9916114285714285 0.6459428571428572 -2.3191542857142857 0.3658285714285714 -2.9651657142857144 -0.6257142857142857 -0.6460457142857142 -0.9915428571428572 -0.3659314285714286 -2.319085714285714 0.6256457142857142 -2.9653714285714283l9.672822857142856 -6.301714285714286L8.164182857142857 30H5.142857142857142c-1.4201485714285715 0 -2.571428571428571 -1.1512799999999999 -2.571428571428571 -2.571428571428571s1.1512799999999999 -2.571428571428571 2.571428571428571 -2.571428571428571h1.2857142857142856V2.142857142857143C6.428571428571428 0.9593897142857143 7.387954285714285 0 8.571428571428571 0ZM24 35.202171428571425 31.9848 30H16.0152L24 35.202171428571425ZM37.285714285714285 24.857142857142854v-8.571428571428571h-26.57142857142857v8.571428571428571h26.57142857142857Z" clip-rule="evenodd" stroke-width="3.4286"></path>
  </g>
</svg>