<svg xmlns="http://www.w3.org/2000/svg" fill="none" viewBox="0 0 48 48" id="Champagne-Party-Alcohol--Streamline-Core-Remix" height="48" width="48">
  <desc>
    Champagne Party Alcohol Streamline Icon: https://streamlinehq.com
  </desc>
  <g id="Free Remix/Food Drink/champagne-party-alcohol">
    <path id="Union" fill="#000000" fill-rule="evenodd" d="M13.804319999999999 0.617064c-1.0682742857142857 -0.28624799999999995 -2.178925714285714 0.2875405714285714 -2.5636457142857143 1.3244502857142855L4.639405714285714 19.733794285714286c-1.7824731428571428 4.804251428571429 0.38564571428571426 10.038651428571429 4.742331428571428 12.292559999999998l-2.5001485714285714 9.330788571428572 -2.897862857142857 -0.7765714285714286c-1.1431508571428572 -0.3065142857142857 -2.3181599999999998 0.372 -2.6244651428571424 1.5150857142857141 -0.3063017142857143 1.143085714285714 0.37208914285714284 2.3184 1.5152297142857143 2.624571428571428l4.925166857142857 1.3196571428571429c0.014057142857142858 0.0041142857142857136 0.028217142857142854 0.007885714285714286 0.04244571428571429 0.012 0.014194285714285711 0.0037714285714285714 0.028422857142857142 0.007199999999999999 0.04265142857142857 0.010971428571428571l4.924971428571428 1.3193142857142857c1.1431542857142856 0.3065142857142857 2.3181599999999998 -0.372 2.6244685714285714 -1.5150857142857141 0.3062742857142857 -1.143085714285714 -0.3721028571428571 -2.318057142857143 -1.5152571428571429 -2.624571428571428l-2.8976571428571427 -0.7762285714285714 2.5001485714285714 -9.330822857142858c4.899737142857142 0.22607999999999998 9.394285714285715 -3.2228914285714283 10.252697142857143 -8.274514285714286l3.1792799999999994 -18.709234285714285c0.18527999999999997 -1.0903542857142858 -0.4896685714285714 -2.142582857142857 -1.5579771428571427 -2.4288342857142857L13.804319999999999 0.617064Zm-2.0694857142857144 12.313210285714284 2.8451314285714284 -7.66848 7.821359999999999 2.0957142857142856 -1.3702628571428572 8.06369142857143 -9.29622857142857 -2.4909257142857144Zm14.259634285714286 16.128822857142858c0.5436 -1.1170628571428571 0.9401485714285714 -2.33136 1.1597485714285714 -3.6236228571428573l1.7916342857142857 -10.543337142857142 7.320548571428571 -1.9614857142857143 -2.845302857142857 -7.66848 -0.6329485714285714 0.16961142857142855c-1.1431542857142856 0.30630857142857143 -2.3181599999999998 -0.3721028571428571 -2.6244342857142855 -1.515222857142857 -0.30630857142857143 -1.1431577142857143 0.3720685714285714 -2.318166857142857 1.515222857142857 -2.6244685714285714l2.517805714285714 -0.6746434285714286c1.0681714285714285 -0.2862497142857143 2.1790285714285713 0.2875371428571428 2.5637142857142856 1.3244468571428571L43.36182857142857 19.734171428571425c1.7821714285714285 4.804251428571429 -0.3857142857142857 10.038651428571429 -4.7424 12.292559999999998l2.5001142857142855 9.330754285714285 2.897828571428571 -0.7765714285714286c1.143085714285714 -0.3061714285714286 2.318057142857143 0.372 2.624571428571428 1.5150857142857141 0.3061714285714286 1.1434285714285715 -0.37234285714285714 2.3184 -1.5154285714285713 2.624571428571428l-4.925142857142857 1.3196571428571429 -0.04251428571428571 0.012 -0.04251428571428571 0.010971428571428571 -4.925142857142857 1.3196571428571429c-1.1430171428571427 0.3061714285714286 -2.3180228571428567 -0.37234285714285714 -2.6243314285714288 -1.5154285714285713 -0.30630857142857143 -1.143085714285714 0.3721028571428571 -2.318057142857143 1.515222857142857 -2.624228571428571l2.8977942857142853 -0.7765714285714286 -2.5001142857142855 -9.330788571428572c-3.370971428571428 0.1555542857142857 -6.550045714285714 -1.4283085714285715 -8.485302857142857 -4.076742857142857Z" clip-rule="evenodd" stroke-width="3.4286"></path>
  </g>
</svg>