<svg xmlns="http://www.w3.org/2000/svg" fill="none" viewBox="0 0 48 48" id="Chat-Bubble-Square-Question--Streamline-Core-Remix" height="48" width="48">
  <desc>
    Chat Bubble Square Question Streamline Icon: https://streamlinehq.com
  </desc>
  <g id="Free Remix/Mail/Mail/Chat Bubble/chat-bubble-square-question--bubble-square-messages-notification-chat-message-question-help">
    <path id="Union" fill="#000000" fill-rule="evenodd" d="M8.090914285714284 4.662274285714286c0.24109714285714282 -0.24109714285714282 0.5681485714285713 -0.37655999999999995 0.9091199999999999 -0.37655999999999995H42.42857142857142c0.34114285714285714 0 0.6682285714285714 0.13546285714285713 0.9092571428571428 0.37655999999999995 0.24102857142857143 0.24113142857142858 0.3764571428571428 0.5681485714285713 0.3764571428571428 0.9091542857142857v33.42857142857142c0 0.34114285714285714 -0.13542857142857143 0.6678857142857143 -0.3764571428571428 0.9092571428571428 -0.24102857142857143 0.24102857142857143 -0.5681142857142857 0.3764571428571428 -0.9092571428571428 0.3764571428571428H15.857177142857141c-0.1752 0 -0.3497485714285714 0.021599999999999998 -0.5197028571428571 0.06411428571428572l-9.927257142857142 2.4816 2.1941485714285713 -6.582514285714285c0.07282285714285713 -0.2184 0.10995428571428571 -0.4470857142857142 0.10995428571428571 -0.6774857142857142v-30c0 -0.3410057142857143 0.13546285714285713 -0.6680228571428571 0.37659428571428566 -0.9091542857142857ZM9.000034285714285 0c-1.4776114285714286 0 -2.894742857142857 0.5869885714285714 -3.9395999999999995 1.631832 -1.044822857142857 1.044846857142857 -1.6318285714285712 2.461950857142857 -1.6318285714285712 3.939596571428571v29.652342857142855l-3.318596914285714 9.955885714285714c-0.24732274285714284 0.7419428571428571 -0.07076879999999999 1.5596571428571429 0.46063234285714283 2.1336 0.5313977142857143 0.5736 1.3332274285714285 0.8125714285714285 2.091980571428571 0.6226285714285714L16.12100571428571 44.57142857142857H42.42857142857142c1.4777142857142855 0 2.894742857142857 -0.5869714285714285 3.9397714285714285 -1.632 1.0446857142857142 -1.0446857142857142 1.6316571428571427 -2.4617142857142853 1.6316571428571427 -3.9394285714285715v-33.42857142857142c0 -1.477645714285714 -0.5869714285714285 -2.894749714285714 -1.6316571428571427 -3.939596571428571C45.32331428571428 0.5869885714285714 43.90628571428571 0 42.42857142857142 0H9.000034285714285Zm15.566228571428569 14.371234285714284c0.5481942857142857 -0.2270742857142857 1.151382857142857 -0.28649142857142856 1.7333485714285715 -0.1707428571428571 0.5819314285714285 0.11578285714285715 1.11648 0.4014857142857142 1.5360342857142857 0.8210399999999999 0.4195542857142857 0.4195542857142857 0.7052914285714286 0.9541028571428571 0.8210399999999999 1.5360685714285713 0.11574857142857142 0.5819314285714285 0.05633142857142857 1.18512 -0.17070857142857143 1.7333142857142858 -0.2270742857142857 0.54816 -0.6115885714285715 1.0167085714285715 -1.1049257142857143 1.3463657142857142 -0.49337142857142857 0.32962285714285716 -1.0733828571428572 0.5055771428571428 -1.6667314285714285 0.5055771428571428 -1.1834742857142857 0 -2.142857142857143 0.9593828571428571 -2.142857142857143 2.142857142857143v3.4285714285714284c0 1.1834742857142857 0.9593828571428571 2.142857142857143 2.142857142857143 2.142857142857143s2.142857142857143 -0.9593828571428571 2.142857142857143 -2.142857142857143v-1.6079657142857142c0.6719314285714285 -0.20677714285714285 1.3139999999999998 -0.5107885714285714 1.90488 -0.9056228571428571 1.1981142857142857 -0.8005371428571428 2.131954285714286 -1.9384114285714287 2.683405714285714 -3.2697257142857143 0.5514171428571428 -1.33128 0.6957257142857142 -2.796205714285714 0.41458285714285714 -4.209497142857143 -0.2811085714285714 -1.4132914285714286 -0.9750171428571429 -2.7114514285714284 -1.9939542857142858 -3.7303885714285716 -1.018902857142857 -1.0189371428571428 -2.3170971428571425 -1.7128114285714284 -3.7303885714285716 -1.9939542857142858 -1.4132914285714286 -0.2811085714285714 -2.878217142857143 -0.1368342857142857 -4.209497142857143 0.4146171428571428 -1.33128 0.5514171428571428 -2.4691542857142856 1.4852571428571426 -3.2697257142857143 2.6833714285714283 -0.8005714285714286 1.1981485714285713 -1.2278742857142857 2.6067771428571427 -1.2278742857142857 4.047737142857143 0 1.1834742857142857 0.9593828571428571 2.142857142857143 2.142857142857143 2.142857142857143s2.142857142857143 -0.9593828571428571 2.142857142857143 -2.142857142857143c0 -0.5933485714285713 0.1759542857142857 -1.17336 0.5056114285714285 -1.6666971428571427 0.32962285714285716 -0.49337142857142857 0.7981714285714285 -0.8778857142857143 1.3463314285714285 -1.1049257142857143Zm1.1480571428571427 22.057337142857143c-1.6568571428571428 0 -3 -1.3433142857142857 -3 -3 0 -1.6568571428571428 1.343142857142857 -3 3 -3s3 1.343142857142857 3 3c0 1.6566857142857143 -1.343142857142857 3 -3 3Z" clip-rule="evenodd" stroke-width="3.4286"></path>
  </g>
</svg>