<svg xmlns="http://www.w3.org/2000/svg" fill="none" viewBox="0 0 48 48" id="Chat-Bubble-Square-Write--Streamline-Core-Remix" height="48" width="48">
  <desc>
    Chat Bubble Square Write Streamline Icon: https://streamlinehq.com
  </desc>
  <g id="Free Remix/Mail/Mail/Chat Bubble/chat-bubble-square-write--messages-message-bubble-chat-square-write-review-pen-pencil-compose">
    <path id="Union" fill="#000000" fill-rule="evenodd" d="M8.090914285714284 4.662274285714286c0.24109714285714282 -0.24109714285714282 0.5681485714285713 -0.37655999999999995 0.9091199999999999 -0.37655999999999995h15c1.1834742857142857 0 2.142857142857143 -0.9593897142857143 2.142857142857143 -2.142857142857143S25.18350857142857 0 24.000034285714282 0h-15c-1.4776114285714286 0 -2.894742857142857 0.5869885714285714 -3.9395999999999995 1.631832 -1.044822857142857 1.044846857142857 -1.6318285714285712 2.461950857142857 -1.6318285714285712 3.939596571428571v29.652342857142855l-3.318596914285714 9.955885714285714c-0.24732274285714284 0.7419428571428571 -0.07076879999999999 1.5596571428571429 0.46063234285714283 2.1336 0.5313977142857143 0.5736 1.3332274285714285 0.8125714285714285 2.091980571428571 0.6226285714285714L16.12100571428571 44.57142857142857H42.42857142857142c1.4777142857142855 0 2.894742857142857 -0.5869714285714285 3.9397714285714285 -1.632 1.0446857142857142 -1.0446857142857142 1.6316571428571427 -2.4617142857142853 1.6316571428571427 -3.9394285714285715V24c0 -1.1834742857142857 -0.9593142857142857 -2.142857142857143 -2.142857142857143 -2.142857142857143s-2.142857142857143 0.9593828571428571 -2.142857142857143 2.142857142857143v15c0 0.34114285714285714 -0.13542857142857143 0.6678857142857143 -0.3764571428571428 0.9092571428571428 -0.24102857142857143 0.24102857142857143 -0.5681142857142857 0.3764571428571428 -0.9092571428571428 0.3764571428571428H15.857177142857141c-0.1752 0 -0.3497485714285714 0.021599999999999998 -0.5197028571428571 0.06411428571428572l-9.927257142857142 2.4816 2.1941485714285713 -6.582514285714285c0.07282285714285713 -0.2184 0.10995428571428571 -0.4470857142857142 0.10995428571428571 -0.6774857142857142v-30c0 -0.3410057142857143 0.13546285714285713 -0.6680228571428571 0.37659428571428566 -0.9091542857142857ZM36.775885714285714 0.8446011428571428c0.626742857142857 -0.261096 1.2990857142857142 -0.3955234285714286 1.977942857142857 -0.3955234285714286 0.6788571428571428 0 1.3508571428571428 0.13442742857142856 1.9775999999999998 0.3955234285714286 0.6257142857142857 0.2606057142857143 1.1934857142857143 0.6422571428571427 1.6710857142857143 1.123008l0.002742857142857143 0.0027188571428571427 3.6243428571428566 3.6243462857142856 0.0030857142857142854 0.003154285714285714c0.4806857142857142 0.4774628571428571 0.8619428571428571 1.0451314285714284 1.1225142857142858 1.6704685714285712 0.26125714285714285 0.6266742857142856 0.3956571428571428 1.29888 0.3956571428571428 1.9778057142857144 0 0.6789257142857142 -0.1344 1.3511314285714284 -0.3956571428571428 1.9778057142857144 -0.2602285714285714 0.6248914285714285 -0.6414857142857142 1.1922171428571426 -1.1214857142857142 1.66944l-0.0041142857142857136 0.004182857142857143 -16.14113142857143 16.2096c-0.2476114285714286 0.2487085714285714 -0.5656457142857142 0.41540571428571427 -0.91104 0.47756571428571426l-10.285714285714285 1.8514285714285714c-0.5480914285714286 0.09867428571428571 -1.1099657142857142 -0.07508571428571428 -1.50672 -0.4658742857142857 -0.39671999999999996 -0.3908228571428571 -0.5789142857142857 -0.9499885714285714 -0.48853714285714284 -1.49952l1.7142857142857142 -10.422857142857142c0.05838857142857143 -0.35499428571428565 0.22700571428571428 -0.6826628571428571 0.48195428571428567 -0.9365142857142856L35.10651428571428 1.9661245714285713c0.4772571428571428 -0.4800548571428571 1.0446857142857142 -0.8611885714285714 1.6693714285714285 -1.1215234285714284Z" clip-rule="evenodd" stroke-width="3.4286"></path>
  </g>
</svg>