<svg xmlns="http://www.w3.org/2000/svg" fill="none" viewBox="0 0 48 48" id="Chat-Two-Bubbles-Oval--Streamline-Core-Remix" height="48" width="48">
  <desc>
    Chat Two Bubbles Oval Streamline Icon: https://streamlinehq.com
  </desc>
  <g id="Free Remix/Mail/Mail/Chat Bubble/chat-two-bubbles-oval--messages-message-bubble-chat-oval-conversation">
    <path id="Union" fill="#000000" fill-rule="evenodd" d="M39.18308571428571 16.55485714285714C37.64537142857143 7.1871085714285705 29.32518857142857 -0.0054286971428571425 19.71377142857143 0.0000030744h-0.00047999999999999996C16.147405714285714 0.0012031714285714284 12.648651428571428 0.9695417142857142 9.589542857142856 2.8019005714285714 6.530331428571428 4.6343314285714285 4.0254514285714285 7.262262857142857 2.3416525714285714 10.405748571428571c-1.6837885714285714 3.143485714285714 -2.483404457142857 6.684822857142857 -2.3136851314285716 10.246799999999999C0.183504 23.91689142857143 1.1478034285714285 27.086571428571425 2.8280057142857142 29.87876571428571L0.10962925714285715 37.1112c-0.21707794285714288 0.5773714285714285 -0.107047992 1.2270857142857141 0.2881056 1.7009142857142856 0.3951497142857142 0.4738285714285714 1.0144594285714283 0.6987428571428571 1.6216079999999997 0.5890285714285715l9.568645714285713 -1.730057142857143c1.5803314285714285 0.7158857142857142 3.2448685714285714 1.2188571428571426 4.949828571428571 1.4982857142857142 0.4846285714285714 0.9058285714285713 1.0532228571428572 1.7681142857142857 1.700022857142857 2.5745142857142858 1.5736114285714284 1.9618285714285715 3.569622857142857 3.5430857142857146 5.839302857142857 4.626171428571428 2.2697142857142856 1.0834285714285714 4.754605714285714 1.6405714285714283 7.269531428571429 1.629942857142857 2.2740342857142855 -0.0096 4.519611428571428 -0.48308571428571423 6.6000685714285705 -1.3889142857142858l7.530857142857142 1.3549714285714285c0.7580571428571428 0.13645714285714286 1.5312 -0.14434285714285713 2.0245714285714285 -0.7357714285714285 0.49371428571428566 -0.5910857142857142 0.6318857142857143 -1.401942857142857 0.3624 -2.1233142857142853l-2.0664 -5.529257142857142c1.4478857142857142 -2.5176 2.2107428571428573 -5.3784 2.2018285714285715 -8.295737142857142V31.285714285714285h-2.142857142857143L48 31.278925714285712l0 0.0030514285714285713c-0.0010285714285714284 -4.431565714285714 -1.761942857142857 -8.681382857142857 -4.895314285714285 -11.81502857142857 -1.1681142857142857 -1.1681485714285713 -2.491542857142857 -2.1455314285714286 -3.9215999999999998 -2.9120914285714283ZM25.883177142857143 20.088137142857143c1.6848342857142857 -0.8114399999999999 3.531085714285714 -1.2322285714285715 5.401165714285714 -1.2309942857142857h0.0014399999999999999c3.29616 0 6.457645714285714 1.30944 8.78838857142857 3.6402514285714282 2.330742857142857 2.3308114285714283 3.6401142857142856 5.492057142857143 3.6401142857142856 8.78832l0 0.0067885714285714285c0.007885714285714286 2.441417142857143 -0.7138285714285714 4.829554285714285 -2.071885714285714 6.8582399999999994 -0.384 0.5732571428571428 -0.4683428571428571 1.296 -0.22662857142857143 1.9422857142857142l1.1166857142857143 2.9886857142857144 -4.490057142857143 -0.8077714285714286c-0.44777142857142854 -0.08057142857142857 -0.9095999999999999 -0.016457142857142854 -1.3186285714285713 0.18274285714285712 -1.6810285714285713 0.8197714285714286 -3.52512 1.2497142857142856 -5.3952 1.2576 -1.870045714285714 0.007885714285714286 -3.717805714285714 -0.40628571428571425 -5.40552 -1.212 -1.6877485714285712 -0.8053714285714285 -3.171942857142857 -1.9813714285714283 -4.342045714285714 -3.4398857142857144 -1.170102857142857 -1.4588571428571426 -1.9959428571428568 -3.162857142857143 -2.415942857142857 -4.9852799999999995 -0.42 -1.82232 -0.4233942857142857 -3.7159199999999997 -0.00984 -5.53968 0.41351999999999994 -1.8237942857142855 1.2332571428571428 -3.530742857142857 2.398182857142857 -4.99368 1.1648914285714285 -1.4629371428571427 2.644902857142857 -2.644148571428571 4.329771428571428 -3.4556228571428567Z" clip-rule="evenodd" stroke-width="3.4286"></path>
  </g>
</svg>