<svg xmlns="http://www.w3.org/2000/svg" fill="none" viewBox="0 0 48 48" id="Chat-Bubble-Square-Block--Streamline-Core-Remix" height="48" width="48">
  <desc>
    Chat Bubble Square Block Streamline Icon: https://streamlinehq.com
  </desc>
  <g id="Free Remix/Mail/Mail/Chat Bubble/chat-bubble-square-block--messages-message-bubble-chat-square-block">
    <path id="Union" fill="#000000" fill-rule="evenodd" d="M8.090914285714284 4.662274285714286c0.24109714285714282 -0.24109714285714282 0.5681485714285713 -0.37655999999999995 0.9091199999999999 -0.37655999999999995H42.42857142857142c0.34114285714285714 0 0.6682285714285714 0.13546285714285713 0.9092571428571428 0.37655999999999995 0.24102857142857143 0.24113142857142858 0.3764571428571428 0.5681485714285713 0.3764571428571428 0.9091542857142857v33.42857142857142c0 0.34114285714285714 -0.13542857142857143 0.6678857142857143 -0.3764571428571428 0.9092571428571428 -0.24102857142857143 0.24102857142857143 -0.5681142857142857 0.3764571428571428 -0.9092571428571428 0.3764571428571428H15.857177142857141c-0.1752 0 -0.3497485714285714 0.021599999999999998 -0.5197028571428571 0.06411428571428572l-9.927257142857142 2.4816 2.1941485714285713 -6.582514285714285c0.07282285714285713 -0.2184 0.10995428571428571 -0.4470857142857142 0.10995428571428571 -0.6774857142857142v-30c0 -0.3410057142857143 0.13546285714285713 -0.6680228571428571 0.37659428571428566 -0.9091542857142857ZM9.000034285714285 0c-1.4776114285714286 0 -2.894742857142857 0.5869885714285714 -3.9395999999999995 1.631832 -1.044822857142857 1.044846857142857 -1.6318285714285712 2.461950857142857 -1.6318285714285712 3.939596571428571v29.652342857142855l-3.318596914285714 9.955885714285714c-0.24732274285714284 0.7419428571428571 -0.07076879999999999 1.5596571428571429 0.46063234285714283 2.1336 0.5313977142857143 0.5736 1.3332274285714285 0.8125714285714285 2.091980571428571 0.6226285714285714L16.12100571428571 44.57142857142857H42.42857142857142c1.4777142857142855 0 2.894742857142857 -0.5869714285714285 3.9397714285714285 -1.632 1.0446857142857142 -1.0446857142857142 1.6316571428571427 -2.4617142857142853 1.6316571428571427 -3.9394285714285715v-33.42857142857142c0 -1.477645714285714 -0.5869714285714285 -2.894749714285714 -1.6316571428571427 -3.939596571428571C45.32331428571428 0.5869885714285714 43.90628571428571 0 42.42857142857142 0H9.000034285714285Zm16.982262857142853 13.289074285714285c-1.7085257142857142 0 -3.305828571428571 0.47605714285714285 -4.666525714285714 1.3027542857142855l12.363737142857142 12.363771428571429c0.826662857142857 -1.3606971428571428 1.3028914285714286 -2.9580342857142856 1.3028914285714286 -4.666525714285714 0 -4.970571428571429 -4.0295314285714285 -9 -9.000102857142858 -9Zm-9.400902857142857 -0.40110857142857137c0.05242285714285714 -0.05242285714285714 0.10686857142857142 -0.10155428571428571 0.16309714285714286 -0.1473942857142857 2.3908457142857142 -2.313531428571429 5.648057142857143 -3.7372114285714284 9.237805714285715 -3.7372114285714284 7.337485714285713 0 13.285817142857143 5.948194285714285 13.285817142857143 13.285714285714285 0 3.5903314285714285 -1.4242285714285714 6.848057142857142 -3.7385142857142855 9.239005714285714 -0.045599999999999995 0.05578285714285714 -0.09428571428571428 0.10978285714285714 -0.1464 0.16176 -0.05177142857142857 0.051977142857142854 -0.10594285714285714 0.10073142857142857 -0.1614857142857143 0.1462628571428571 -2.39112 2.3143885714285712 -5.648948571428571 3.7387542857142857 -9.239417142857143 3.7387542857142857 -7.337485714285713 0 -13.285714285714285 -5.948297142857142 -13.285714285714285 -13.285782857142857 0 -3.5898857142857143 1.423782857142857 -6.8472 3.7374857142857145 -9.23808 0.04584 -0.05622857142857143 0.09493714285714284 -0.11063999999999999 0.14732571428571428 -0.16302857142857144Zm9.400902857142857 18.401108571428573c1.7086285714285714 0 3.3060342857142855 -0.47612571428571426 4.6668 -1.30296L18.28525714285714 17.62224c-0.8268342857142857 1.3607657142857144 -1.30296 2.958205714285714 -1.30296 4.666834285714285 0 4.970537142857142 4.0294285714285705 9 9 9Z" clip-rule="evenodd" stroke-width="3.4286"></path>
  </g>
</svg>