<svg xmlns="http://www.w3.org/2000/svg" fill="none" viewBox="0 0 48 48" id="Chat-Bubble-Oval--Streamline-Core-Remix" height="48" width="48">
  <desc>
    Chat Bubble Oval Streamline Icon: https://streamlinehq.com
  </desc>
  <g id="Free Remix/Mail/Mail/Chat Bubble/chat-bubble-oval--messages-message-bubble-chat-oval">
    <path id="Ellipse 1145 (Stroke)" fill="#000000" fill-rule="evenodd" d="M23.999931428571426 4.282045714285714c-10.889691428571428 0 -19.717542857142856 8.827919999999999 -19.717542857142856 19.717714285714287 0 3.979165714285714 1.176445714285714 7.677257142857142 3.200125714285714 10.773154285714286 0.4527771428571429 0.5701714285714286 0.6034971428571428 1.3566857142857143 0.32873142857142856 2.0879999999999996l-2.3373942857142858 6.218742857142857 8.541942857142857 -1.5445714285714285 0.017759999999999998 -0.0030857142857142854c0.5392457142857142 -0.09771428571428571 1.0678628571428572 0.01577142857142857 1.5009942857142857 0.2814857142857143 2.5625142857142853 1.2202285714285714 5.4312 1.9038857142857142 8.465382857142856 1.9038857142857142 10.889554285714285 0 19.71744 -8.827885714285715 19.71744 -19.717611428571427 0 -10.889794285714286 -8.827885714285715 -19.717714285714287 -19.71744 -19.717714285714287ZM14.10432 45.87428571428571c3.0196114285714284 1.368 6.371417142857142 2.1288 9.895611428571428 2.1288 13.256639999999999 0 24.003154285714285 -10.746514285714285 24.003154285714285 -24.00332571428571 0 -13.256708571428572 -10.746514285714285 -24.003422125714284 -24.003154285714285 -24.003422125714284S-0.0033183051428571425 10.743051428571428 -0.0033183051428571425 23.99976c0 4.518102857142857 1.2502314479999999 8.749714285714285 3.4239183051428568 12.361611428571427L0.1336865142857143 45.10628571428571c-0.2713453714285714 0.7220571428571428 -0.1338064217142857 1.533942857142857 0.3601340571428571 2.1264 0.4939405714285714 0.5921142857142857 1.2680777142857143 0.8736 2.027012571428571 0.7361142857142857L14.10432 45.87428571428571Z" clip-rule="evenodd" stroke-width="3.4286"></path>
  </g>
</svg>