<svg xmlns="http://www.w3.org/2000/svg" fill="none" viewBox="0 0 48 48" id="Chat-Bubble-Typing-Oval--Streamline-Core-Remix" height="48" width="48">
  <desc>
    Chat Bubble Typing Oval Streamline Icon: https://streamlinehq.com
  </desc>
  <g id="Free Remix/Mail/Mail/Chat Bubble/chat-bubble-typing-oval--messages-message-bubble-typing-chat">
    <path id="Union" fill="#000000" fill-rule="evenodd" d="M4.282388571428571 23.999657142857142c0 -10.889794285714286 8.827851428571428 -19.717714285714287 19.717542857142856 -19.717714285714287 10.889554285714285 0 19.71744 8.827919999999999 19.71744 19.717714285714287 0 10.889828571428572 -8.827885714285715 19.717714285714287 -19.71744 19.717714285714287 -3.034182857142857 0 -5.902868571428571 -0.684 -8.465382857142856 -1.9042285714285714 -0.43313142857142856 -0.26537142857142854 -0.9617485714285713 -0.37885714285714284 -1.5009942857142857 -0.2814857142857143l-0.01758857142857143 0.0034285714285714284 -0.00017142857142857143 0 -8.541942857142857 1.5445714285714285 2.333862857142857 -6.209485714285714 0.00003428571428571428 0 0.003497142857142857 -0.009257142857142858c0.2747657142857143 -0.7313142857142856 0.12404571428571427 -1.5181714285714285 -0.32873142857142856 -2.088342857142857 -2.0236457142857143 -3.0956914285714285 -3.200125714285714 -6.793748571428571 -3.200125714285714 -10.772914285714286Zm19.717542857142856 24.00342857142857c-3.5241942857142856 0 -6.8759999999999994 -0.7607999999999999 -9.895611428571428 -2.1288l-11.583486857142857 2.0945142857142858c-0.7589348571428571 0.13714285714285715 -1.5330719999999998 -0.144 -2.027012571428571 -0.7361142857142857 -0.4939404562285714 -0.5924571428571429 -0.6314794285714286 -1.4046857142857143 -0.3601340571428571 -2.1264l3.2869134857142854 -8.745257142857142C1.2469131428571427 32.74937142857143 -0.0033183051428571425 28.517759999999996 -0.0033183051428571425 23.999657142857142c0 -13.256708571428572 10.746609733714285 -24.003423874285712 24.003249733714284 -24.003423874285712S48.00308571428571 10.742948571428572 48.00308571428571 23.999657142857142c0 13.256571428571426 -10.746514285714285 24.00342857142857 -24.003154285714285 24.00342857142857ZM14.578045714285713 27.428571428571427c-1.8935314285714284 0 -3.4285714285714284 -1.53504 -3.4285714285714284 -3.4285714285714284s1.53504 -3.4285714285714284 3.4285714285714284 -3.4285714285714284c1.893565714285714 0 3.4285714285714284 1.53504 3.4285714285714284 3.4285714285714284s-1.535005714285714 3.4285714285714284 -3.4285714285714284 3.4285714285714284Zm12.857142857142856 -3.4285714285714284c0 -1.8935314285714284 -1.535005714285714 -3.4285714285714284 -3.4285714285714284 -3.4285714285714284 -1.8935314285714284 0 -3.4285714285714284 1.53504 -3.4285714285714284 3.4285714285714284s1.53504 3.4285714285714284 3.4285714285714284 3.4285714285714284c1.893565714285714 0 3.4285714285714284 -1.53504 3.4285714285714284 -3.4285714285714284Zm6 3.4285714285714284c-1.8935314285714284 0 -3.4285714285714284 -1.53504 -3.4285714285714284 -3.4285714285714284s1.53504 -3.4285714285714284 3.4285714285714284 -3.4285714285714284c1.893497142857143 0 3.428468571428571 1.53504 3.428468571428571 3.4285714285714284s-1.5349714285714284 3.4285714285714284 -3.428468571428571 3.4285714285714284Z" clip-rule="evenodd" stroke-width="3.4286"></path>
  </g>
</svg>