<svg xmlns="http://www.w3.org/2000/svg" fill="none" viewBox="0 0 48 48" id="Chat-Bubble-Oval-Notification--Streamline-Core-Remix" height="48" width="48">
  <desc>
    Chat Bubble Oval Notification Streamline Icon: https://streamlinehq.com
  </desc>
  <g id="Free Remix/Mail/Mail/Chat Bubble/chat-bubble-oval-notification--messages-message-bubble-chat-oval-notify-ping">
    <path id="Union" fill="#000000" fill-rule="evenodd" d="M26.571462857142855 10.714285714285714C26.571462857142855 4.796948571428572 31.368411428571427 0 37.285714285714285 0 43.20308571428571 0 48 4.796948571428572 48 10.714285714285714S43.20308571428571 21.428571428571427 37.285714285714285 21.428571428571427c-5.917302857142857 0 -10.714251428571428 -4.796948571428572 -10.714251428571428 -10.714285714285714ZM22.451451428571428 4.3416685714285705c1.1799428571428572 -0.09154285714285715 2.0622514285714284 -1.1222434285714284 1.970742857142857 -2.3021691428571427 -0.09154285714285715 -1.1799222857142857 -1.12224 -2.0622443657142857 -2.302182857142857 -1.9707216C9.740948571428572 1.028982857142857 -0.003318308571428571 11.37528 -0.003318308571428571 23.999554285714282c0 4.518102857142857 1.2502314514285713 8.749714285714285 3.4239183085714284 12.361474285714285L0.1336865142857143 45.10628571428571c-0.2713453714285714 0.7217142857142856 -0.1338064032 1.533942857142857 0.3601340571428571 2.126057142857143 0.4939405714285714 0.5924571428571429 1.2680777142857143 0.8736 2.027012571428571 0.7364571428571428L14.10432 45.87428571428571c3.0196114285714284 1.368 6.371417142857142 2.1288 9.895611428571428 2.1288 12.624068571428571 0 22.970125714285714 -9.744342857142856 23.93046857142857 -22.12313142857143 0.09154285714285715 -1.1799428571428572 -0.7906285714285713 -2.2106399999999997 -1.9704 -2.302182857142857 -1.1801142857142857 -0.09157714285714286 -2.2107428571428573 0.7907314285714285 -2.302285714285714 1.9706742857142854 -0.7885714285714286 10.164582857142856 -9.289714285714284 18.168925714285713 -19.65778285714286 18.168925714285713 -3.034182857142857 0 -5.902868571428571 -0.684 -8.465417142857142 -1.9042285714285714 -0.4330971428571428 -0.2657142857142857 -0.9617485714285713 -0.37885714285714284 -1.5010285714285714 -0.2814857142857143l-0.017519999999999997 0.0030857142857142854 -0.00020571428571428572 0.00034285714285714285 -8.541908571428571 1.5445714285714285 2.333862857142857 -6.209485714285714 0.00006857142857142857 -0.00034285714285714285 0.003462857142857143 -0.009257142857142858c0.2747657142857143 -0.7309714285714285 0.12401142857142856 -1.5178285714285713 -0.32873142857142856 -2.0879999999999996 -2.0236799999999997 -3.09576 -3.200125714285714 -6.793851428571428 -3.200125714285714 -10.773017142857142 0 -10.368445714285714 8.00424 -18.869451428571427 18.16906285714286 -19.657885714285715Z" clip-rule="evenodd" stroke-width="3.4286"></path>
  </g>
</svg>