<svg xmlns="http://www.w3.org/2000/svg" fill="none" viewBox="0 0 48 48" id="Chat-Bubble-Oval-Smiley-1--Streamline-Core-Remix" height="48" width="48">
  <desc>
    Chat Bubble Oval Smiley 1 Streamline Icon: https://streamlinehq.com
  </desc>
  <g id="Free Remix/Mail/Mail/Chat Bubble/chat-bubble-oval-smiley-1--messages-message-bubble-chat-oval-smiley-smile">
    <path id="Union" fill="#000000" fill-rule="evenodd" d="M4.282388571428571 23.999657142857142c0 -10.889794285714286 8.827851428571428 -19.717714285714287 19.717542857142856 -19.717714285714287 10.889554285714285 0 19.71744 8.827919999999999 19.71744 19.717714285714287 0 10.889828571428572 -8.827885714285715 19.717714285714287 -19.71744 19.717714285714287 -3.034182857142857 0 -5.902868571428571 -0.684 -8.465382857142856 -1.9042285714285714 -0.43313142857142856 -0.26537142857142854 -0.9617485714285713 -0.37885714285714284 -1.5009942857142857 -0.2814857142857143l-0.01758857142857143 0.0034285714285714284 -0.00017142857142857143 0 -8.541942857142857 1.5445714285714285 2.333862857142857 -6.209485714285714 0.00003428571428571428 0 0.003497142857142857 -0.009257142857142858c0.2747657142857143 -0.7313142857142856 0.12404571428571427 -1.5181714285714285 -0.32873142857142856 -2.088342857142857 -2.0236457142857143 -3.0956914285714285 -3.200125714285714 -6.793748571428571 -3.200125714285714 -10.772914285714286Zm19.717542857142856 24.00342857142857c-3.5241942857142856 0 -6.8759999999999994 -0.7607999999999999 -9.895611428571428 -2.1288l-11.583486857142857 2.0945142857142858c-0.7589348571428571 0.13714285714285715 -1.5330719999999998 -0.144 -2.027012571428571 -0.7361142857142857 -0.4939404562285714 -0.5924571428571429 -0.6314794285714286 -1.4046857142857143 -0.3601340571428571 -2.1264l3.2869134857142854 -8.745257142857142C1.2469131428571427 32.74937142857143 -0.0033183051428571425 28.517759999999996 -0.0033183051428571425 23.999657142857142c0 -13.256708571428572 10.746609733714285 -24.003423874285712 24.003249733714284 -24.003423874285712S48.00308571428571 10.742948571428572 48.00308571428571 23.999657142857142c0 13.256571428571426 -10.746514285714285 24.00342857142857 -24.003154285714285 24.00342857142857ZM16.28574857142857 21.428571428571427c-1.893565714285714 0 -3.4285714285714284 -1.53504 -3.4285714285714284 -3.4285714285714284s1.535005714285714 -3.4285714285714284 3.4285714285714284 -3.4285714285714284c1.8935314285714284 0 3.4285714285714284 1.53504 3.4285714285714284 3.4285714285714284s-1.53504 3.4285714285714284 -3.4285714285714284 3.4285714285714284ZM15.1632 26.740354285714282c-0.3800914285714285 -1.368342857142857 -1.797497142857143 -2.169497142857143 -3.1658399999999998 -1.789405714285714 -1.368377142857143 0.3800914285714285 -2.169497142857143 1.797497142857143 -1.789405714285714 3.1658399999999998 2.1039085714285712 7.573954285714286 10.403417142857142 12.102754285714285 17.908697142857143 10.01784 0.06428571428571428 -0.017828571428571426 0.12785142857142856 -0.03805714285714286 0.19055999999999998 -0.061028571428571425 4.460091428571428 -1.6217142857142854 8.213931428571428 -5.29728 9.487645714285714 -9.968434285714284 0.37371428571428567 -1.3701257142857142 -0.4340571428571428 -2.78376 -1.8041142857142856 -3.157405714285714 -1.3700571428571429 -0.37368 -2.78376 0.4340914285714286 -3.157405714285714 1.8042171428571427 -0.7751314285714286 2.8421485714285715 -3.1513371428571424 5.3161371428571425 -6.188742857142857 6.453531428571428 -4.813062857142857 1.2780342857142857 -10.16544 -1.7276914285714284 -11.481394285714284 -6.465154285714285ZM31.714319999999997 21.428571428571427c-1.893565714285714 0 -3.4285714285714284 -1.53504 -3.4285714285714284 -3.4285714285714284s1.535005714285714 -3.4285714285714284 3.4285714285714284 -3.4285714285714284c1.8935314285714284 0 3.428537142857143 1.53504 3.428537142857143 3.4285714285714284s-1.535005714285714 3.4285714285714284 -3.428537142857143 3.4285714285714284Z" clip-rule="evenodd" stroke-width="3.4286"></path>
  </g>
</svg>