<svg xmlns="http://www.w3.org/2000/svg" fill="none" viewBox="0 0 48 48" id="Check-Square--Streamline-Core-Remix" height="48" width="48">
  <desc>
    Check Square Streamline Icon: https://streamlinehq.com
  </desc>
  <g id="Free Remix/Interface Essential/check-square--check-form-validation-checkmark-success-add-addition-box-square-tick">
    <path id="Union" fill="#000000" fill-rule="evenodd" d="m6.857142857142857 5.571428571428571 34.285714285714285 0c0.7100571428571428 0 1.2857142857142856 0.5756228571428571 1.2857142857142856 1.2857142857142856l0 34.285714285714285c0 0.7100571428571428 -0.5756571428571428 1.2857142857142856 -1.2857142857142856 1.2857142857142856l-34.285714285714285 0c-0.7100914285714285 0 -1.2857142857142856 -0.5756571428571428 -1.2857142857142856 -1.2857142857142856l0 -34.285714285714285c0 -0.7100914285714285 0.5756228571428571 -1.2857142857142856 1.2857142857142856 -1.2857142857142856Zm34.285714285714285 -4.285714285714286H6.857142857142857C3.780137142857143 1.2857142857142856 1.2857142857142856 3.780137142857143 1.2857142857142856 6.857142857142857v34.285714285714285c0 3.077142857142857 2.494422857142857 5.571428571428571 5.571428571428571 5.571428571428571l34.285714285714285 0c3.077142857142857 0 5.571428571428571 -2.494285714285714 5.571428571428571 -5.571428571428571l0 -34.285714285714285c0 -3.0770057142857143 -2.494285714285714 -5.571428571428571 -5.571428571428571 -5.571428571428571Zm-5.133942857142857 16.606354285714286c0.8873142857142856 -1.1089714285714285 0.7076571428571429 -2.7271199999999998 -0.4014857142857142 -3.6142971428571427 -1.1088 -0.8871771428571428 -2.7270857142857143 -0.7073828571428571 -3.6142628571428568 0.4015885714285714L19.83582857142857 29.876022857142853 14.972537142857144 26.228571428571428c-1.1361257142857142 -0.852102857142857 -2.7478971428571426 -0.62184 -3.6 0.5142857142857142 -0.852102857142857 1.1361257142857142 -0.62184 2.7478971428571426 0.5142857142857142 3.6l6.857142857142857 5.142857142857142c1.1111314285714284 0.8334857142857143 2.6831657142857144 0.6335999999999999 3.5507999999999997 -0.45085714285714285l13.714148571428572 -17.14278857142857Z" clip-rule="evenodd" stroke-width="3.4286"></path>
  </g>
</svg>