<svg xmlns="http://www.w3.org/2000/svg" fill="none" viewBox="0 0 48 48" id="Checkup-Medical-Report-Clipboard--Streamline-Core-Remix" height="48" width="48">
  <desc>
    Checkup Medical Report Clipboard Streamline Icon: https://streamlinehq.com
  </desc>
  <g id="Free Remix/Health/checkup-medical-report-clipboard">
    <path id="Union" fill="#000000" fill-rule="evenodd" d="M8.571428571428571 7.7142857142857135h3.985748571428571c0.5956114285714286 2.9343085714285713 3.1898742857142857 5.142857142857142 6.299965714285714 5.142857142857142h10.285714285714285c3.1100914285714283 0 5.704457142857143 -2.208548571428571 6.299999999999999 -5.142857142857142H39.42857142857142c0.7100571428571428 0 1.2857142857142856 0.5756228571428571 1.2857142857142856 1.2857142857142856v33.42857142857142c0 0.7100571428571428 -0.5756571428571428 1.2857142857142856 -1.2857142857142856 1.2857142857142856h-30.857142857142854c-0.7100914285714285 0 -1.2857142857142856 -0.5756571428571428 -1.2857142857142856 -1.2857142857142856v-33.42857142857142c0 -0.7100914285714285 0.5756228571428571 -1.2857142857142856 1.2857142857142856 -1.2857142857142856Zm30.857142857142854 -4.285714285714286h-4.598742857142857C33.75212571428571 1.3895142857142857 31.609748571428568 0 29.142857142857142 0h-10.285714285714285c-2.4668914285714285 0 -4.609234285714286 1.3895142857142857 -5.687108571428571 3.4285714285714284H8.571428571428571C5.494422857142857 3.4285714285714284 3 5.922994285714285 3 9v33.42857142857142C3 45.505714285714284 5.494422857142857 48 8.571428571428571 48h30.857142857142854c3.077142857142857 0 5.571428571428571 -2.494285714285714 5.571428571428571 -5.571428571428571v-33.42857142857142C45 5.922994285714285 42.505714285714284 3.4285714285714284 39.42857142857142 3.4285714285714284ZM19.994777142857142 19.67622857142857c0 -0.6890742857142856 0.5585828571428572 -1.2476571428571428 1.2476228571428571 -1.2476571428571428h5.5152c0.68904 0 1.2476228571428571 0.5585828571428572 1.2476228571428571 1.2476571428571428v4.604297142857142H32.60948571428572c0.6890742857142856 0 1.2476571428571428 0.5586171428571428 1.2476571428571428 1.2476571428571428v5.5152c0 0.68904 -0.5585828571428572 1.2476228571428571 -1.2476571428571428 1.2476228571428571H28.005222857142854v4.604194285714285c0 0.6891428571428572 -0.5585828571428572 1.2476571428571428 -1.2476228571428571 1.2476571428571428H21.2424c-0.68904 0 -1.2476228571428571 -0.5585142857142856 -1.2476228571428571 -1.2476571428571428V32.29100571428571H15.390514285714286c-0.6890742857142856 0 -1.2476571428571428 -0.5585828571428572 -1.2476571428571428 -1.2476228571428571v-5.5152c0 -0.68904 0.5585828571428572 -1.2476571428571428 1.2476571428571428 -1.2476571428571428h4.604262857142857V19.67622857142857Z" clip-rule="evenodd" stroke-width="3.4286"></path>
  </g>
</svg>