<svg xmlns="http://www.w3.org/2000/svg" fill="none" viewBox="0 0 48 48" id="Cheese--Streamline-Core-Remix" height="48" width="48">
  <desc>
    Cheese Streamline Icon: https://streamlinehq.com
  </desc>
  <g id="Free Remix/Food Drink/cheese--cook-cheese-animal-products-cooking-nutrition-dairy-food">
    <path id="Union" fill="#000000" fill-rule="evenodd" d="M27.95420571428571 1.6456079999999997C28.30621714285714 1.4109394285714285 28.719805714285712 1.2857142857142856 29.142857142857142 1.2857142857142856c5.030365714285714 0 9.443314285714285 2.5145142857142857 12.547885714285714 6.096582857142857C44.78982857142857 10.958297142857143 46.71428571428571 15.734399999999999 46.71428571428571 20.57142857142857v20.57142857142857c0 3.077142857142857 -2.494285714285714 5.571428571428571 -5.571428571428571 5.571428571428571H6.857142857142857c-3.0770057142857143 0 -5.571428571428571 -2.494285714285714 -5.571428571428571 -5.571428571428571V20.57142857142857c0 -0.5388000000000001 0.1988502857142857 -1.0311428571428571 0.5271668571428572 -1.4076685714285713 0.061340571428571425 -0.07042285714285713 0.12750171428571427 -0.13704 0.19819885714285712 -0.1994057142857143 0.08036914285714285 -0.07093714285714285 0.16610057142857143 -0.13594285714285712 0.2565051428571429 -0.19433142857142857L27.95420571428571 1.6456079999999997ZM5.571428571428571 22.71428571428571v9.60528c0.9221828571428571 -0.3896571428571428 1.9360114285714285 -0.6052799999999999 3 -0.6052799999999999 4.260479999999999 0 7.7142857142857135 3.453942857142857 7.7142857142857135 7.7142857142857135 0 1.0638857142857143 -0.21562285714285714 2.0777142857142854 -0.6052799999999999 3H41.14285714285714c0.7100571428571428 0 1.2857142857142856 -0.5756571428571428 1.2857142857142856 -1.2857142857142856V22.71428571428571H5.571428571428571ZM24.857142857142854 32.57142857142857c0 -3.3137142857142856 2.686285714285714 -6 6 -6s6 2.686285714285714 6 6 -2.686285714285714 6 -6 6 -6 -2.686285714285714 -6 -6Z" clip-rule="evenodd" stroke-width="3.4286"></path>
  </g>
</svg>