<svg xmlns="http://www.w3.org/2000/svg" fill="none" viewBox="0 0 48 48" id="Cherries--Streamline-Core-Remix" height="48" width="48">
  <desc>
    Cherries Streamline Icon: https://streamlinehq.com
  </desc>
  <g id="Free Remix/Food Drink/cherries--cook-plant-cherry-plants-cooking-nutrition-vegetarian-fruit-food-cherries">
    <path id="Union" fill="#000000" fill-rule="evenodd" d="M9 3.8571428571428568c0 -1.656853714285714 1.343142857142857 -3 3 -3h17.142857142857142c1.6568571428571428 0 3 1.3431462857142857 3 3 0 1.6568571428571428 -1.343142857142857 3 -3 3H23.9712c0.1596342857142857 0.7916914285714285 0.38286857142857145 1.7227542857142855 0.6951085714285714 2.77344 1.0269257142857142 3.4556571428571425 3.022217142857143 8.226102857142857 6.909119999999999 13.608514285714286C32.924194285714286 22.626754285714284 34.422171428571424 22.285714285714285 36 22.285714285714285c5.917371428571428 0 10.714285714285714 4.796948571428572 10.714285714285714 10.714285714285714 0 5.917371428571428 -4.796914285714285 10.714285714285714 -10.714285714285714 10.714285714285714 -5.917337142857142 0 -10.714285714285714 -4.796914285714285 -10.714285714285714 -10.714285714285714 0 -2.1520799999999998 0.6344914285714286 -4.155942857142857 1.7266285714285714 -5.834742857142857C22.895725714285714 21.56190857142857 20.569817142857143 16.447885714285714 19.258285714285712 12.439474285714285c-1.374342857142857 3.3281142857142854 -2.8035771428571428 7.9412571428571415 -3.607131428571428 13.913005714285712C19.770857142857142 27.845622857142853 22.71428571428571 31.793348571428567 22.71428571428571 36.42857142857142c0 5.917371428571428 -4.796948571428572 10.714285714285714 -10.714285714285714 10.714285714285714S1.2857142857142856 42.34594285714285 1.2857142857142856 36.42857142857142c0 -5.109805714285714 3.577028571428571 -9.384171428571427 8.363657142857143 -10.455634285714286 0.995622857142857 -7.733039999999999 2.9750742857142853 -13.530822857142855 4.791805714285714 -17.498914285714285 0.26461714285714283 -0.5779885714285714 0.5256342857142857 -1.116822857142857 0.7794857142857142 -1.6168799999999999H12c-1.6568571428571428 0 -3 -1.343142857142857 -3 -3ZM12 30c-3.5503885714285714 0 -6.428571428571428 2.878182857142857 -6.428571428571428 6.428571428571428 0 3.5502857142857143 2.878182857142857 6.428571428571428 6.428571428571428 6.428571428571428s6.428571428571428 -2.878285714285714 6.428571428571428 -6.428571428571428c0 -3.5503885714285714 -2.878182857142857 -6.428571428571428 -6.428571428571428 -6.428571428571428Zm17.57142857142857 3c0 -3.5503885714285714 2.878182857142857 -6.428571428571428 6.428571428571428 -6.428571428571428 3.5502857142857143 0 6.428571428571428 2.878182857142857 6.428571428571428 6.428571428571428 0 3.5502857142857143 -2.878285714285714 6.428571428571428 -6.428571428571428 6.428571428571428 -3.5503885714285714 0 -6.428571428571428 -2.878285714285714 -6.428571428571428 -6.428571428571428Z" clip-rule="evenodd" stroke-width="3.4286"></path>
  </g>
</svg>