<svg xmlns="http://www.w3.org/2000/svg" fill="none" viewBox="0 0 48 48" id="Chess-King--Streamline-Core-Remix" height="48" width="48">
  <desc>
    Chess King Streamline Icon: https://streamlinehq.com
  </desc>
  <g id="Free Remix/Entertainment/chess-king">
    <path id="Union" fill="#000000" fill-rule="evenodd" d="M26.142857142857142 2.142857142857143C26.142857142857142 0.9593897142857143 25.183474285714283 0 24 0c-1.1834399999999998 0 -2.142857142857143 0.9593897142857143 -2.142857142857143 2.142857142857143v1.2371657142857142h-1.2371657142857142c-1.1834399999999998 0 -2.142857142857143 0.9593828571428571 -2.142857142857143 2.142857142857143s0.9594171428571429 2.142857142857143 2.142857142857143 2.142857142857143H21.857142857142858v2.743782857142857c-3.1167771428571425 0.7850742857142856 -5.5683428571428575 3.2436 -6.343508571428571 6.364319999999999 -2.5555542857142854 0.2890971428571429 -4.611634285714286 2.7972685714285714 -3.6268457142857145 5.555931428571428 0.0156 0.04364571428571428 0.03260571428571428 0.08681142857142857 0.05101714285714286 0.1293942857142857l3.112868571428571 7.205279999999999 -2.2801371428571424 6.071897142857142c-0.041519999999999994 0.11074285714285714 -0.07333714285714285 0.2225142857142857 -0.09582857142857142 0.33497142857142853h-2.901085714285714c-2.002662857142857 0 -3.9137142857142853 1.1941714285714284 -4.619691428571429 3.1608l-2.118308571428571 5.900914285714285c-0.23564914285714283 0.6565714285714286 -0.13707085714285713 1.3865142857142856 0.26424 1.9570285714285713 0.4013142857142857 0.5705142857142856 1.0551428571428572 0.9099428571428572 1.7526171428571427 0.9099428571428572H42.94662857142857c0.6977142857142856 0 1.3515428571428572 -0.3394285714285714 1.7526857142857142 -0.9099428571428572 0.4014857142857142 -0.5705142857142856 0.4998857142857143 -1.300457142857143 0.26434285714285716 -1.9570285714285713l-2.1181714285714284 -5.900914285714285c-0.7062857142857142 -1.9666285714285714 -2.617028571428571 -3.1608 -4.619999999999999 -3.1608h-2.8988571428571426c-0.022285714285714284 -0.11245714285714287 -0.05417142857142857 -0.22422857142857142 -0.09565714285714286 -0.33462857142857144l-2.279417142857143 -6.072102857142857 3.112902857142857 -7.205417142857142c0.018514285714285716 -0.042582857142857145 0.035314285714285715 -0.08574857142857142 0.05108571428571428 -0.1293942857142857 0.9850285714285714 -2.759725714285714 -1.0728 -5.268788571428571 -3.629897142857143 -5.556274285714285 -0.7751999999999999 -3.120342857142857 -3.226422857142857 -5.57856 -6.342788571428571 -6.36384v-2.7439199999999997h1.2369942857142857c1.1834399999999998 0 2.142857142857143 -0.9593828571428571 2.142857142857143 -2.142857142857143s-0.9594171428571429 -2.142857142857143 -2.142857142857143 -2.142857142857143H26.142857142857142V2.142857142857143Zm4.635942857142857 33.92845714285714H17.222777142857144l2.1440228571428572 -5.709668571428571c0.19501714285714283 -0.5192914285714286 0.18102857142857143 -1.0939542857142857 -0.03894857142857143 -1.6031657142857143l-3.3379885714285713 -7.726319999999999 0.014948571428571429 -0.00034285714285714285H31.99748571428571l0.014914285714285713 0.00034285714285714285 -3.337954285714286 7.726319999999999c-0.21997714285714282 0.5091428571428571 -0.23396571428571425 1.083702857142857 -0.03905142857142857 1.60296l2.143405714285714 5.709874285714286ZM23.963519999999995 14.43096 24 14.431268571428571l0.03627428571428572 -0.00030857142857142856c1.6700571428571427 0.013405714285714286 3.1213028571428567 0.9451885714285713 3.8735657142857143 2.315142857142857H20.089542857142856c0.7523314285714284 -1.3700571428571429 2.203748571428571 -2.3018742857142853 3.8739771428571426 -2.315142857142857Z" clip-rule="evenodd" stroke-width="3.4286"></path>
  </g>
</svg>