<svg xmlns="http://www.w3.org/2000/svg" fill="none" viewBox="0 0 48 48" id="Chess-Knight--Streamline-Core-Remix" height="48" width="48">
  <desc>
    Chess Knight Streamline Icon: https://streamlinehq.com
  </desc>
  <g id="Free Remix/Entertainment/chess-knight">
    <path id="Union" fill="#000000" fill-rule="evenodd" d="M22.559657142857144 4.46064c-1.548377142857143 -0.17893714285714285 -2.9992114285714284 -0.21023999999999998 -4.179531428571429 -0.14026285714285713l0.8001257142857142 1.8218057142857145c0.2754514285714285 0.6271885714285714 0.23444571428571426 1.34832 -0.11036571428571429 1.940262857142857L14.120262857142857 16.579645714285714c-0.48116571428571425 0.8260457142857143 -0.32002285714285716 1.8759085714285713 0.3867428571428571 2.519622857142857 0.6529371428571428 0.5946857142857143 1.6157142857142857 0.6983314285714285 2.3802857142857143 0.25621714285714287l5.918159999999999 -3.4221942857142857c0.08787428571428571 -0.10902857142857143 0.18781714285714285 -0.2109942857142857 0.29962285714285714 -0.30397714285714283 0.54192 -0.4508228571428571 1.154022857142857 -1.2044914285714285 1.4058171428571429 -2.2954971428571427 0.26609142857142853 -1.1531657142857141 1.4166514285714285 -1.8722742857142856 2.569817142857143 -1.6061485714285713 1.1531657142857141 0.26612571428571424 1.8722400000000001 1.4166514285714285 1.6061485714285713 2.569817142857143 -0.33109714285714287 1.4346857142857141 -0.9753942857142858 2.582262857142857 -1.6896685714285713 3.4604914285714283 0.3646628571428571 1.1998971428571428 0.36983999999999995 2.6647885714285713 -0.05506285714285714 4.1847771428571425 -0.6864342857142857 2.4556114285714283 -2.5011428571428573 5.213417142857143 -6.0194399999999995 7.999611428571428 -1.355382857142857 1.0733828571428572 -2.903005714285714 2.3477485714285713 -4.166434285714285 3.6677142857142853 -0.9159085714285713 0.9567771428571428 -1.53432 1.7888914285714286 -1.87824 2.4612342857142857h18.754148571428573c2.225897142857143 -11.444331428571427 1.9231542857142856 -18.12144 0.72624 -22.238674285714286C33.204994285714285 9.863760000000001 31.17507428571428 8.09142857142857 29.186262857142857 6.526114285714286c-1.2214971428571426 -0.9614057142857142 -3.7342971428571428 -1.7312571428571428 -6.626605714285714 -2.0654742857142856ZM13.660217142857142 30.646628571428568c-1.4061942857142857 1.469142857142857 -2.89392 3.365211428571428 -3.2909142857142855 5.424685714285714h-0.59568c-2.002662857142857 0 -3.9137142857142853 1.1941714285714284 -4.619691428571429 3.1608l-2.118308571428571 5.900914285714285c-0.23564914285714283 0.6565714285714286 -0.13707085714285713 1.3865142857142856 0.26424 1.9570285714285713 0.4013142857142857 0.5705142857142856 1.0551428571428572 0.9099428571428572 1.7526171428571427 0.9099428571428572H42.94662857142857c0.6977142857142856 0 1.3515428571428572 -0.3394285714285714 1.7526857142857142 -0.9099428571428572 0.4014857142857142 -0.5705142857142856 0.4998857142857143 -1.300457142857143 0.26434285714285716 -1.9570285714285713l-2.1181714285714284 -5.900914285714285c-0.7062857142857142 -1.9666285714285714 -2.617028571428571 -3.1608 -4.619999999999999 -3.1608h-0.23005714285714288c2.1150857142857142 -11.255177142857143 1.9169142857142858 -18.485382857142856 0.4786285714285714 -23.434799999999996C36.956914285714284 7.417371428571429 34.120799999999996 4.955965714285714 31.836891428571427 3.158376 29.640171428571424 1.4294434285714284 26.119542857142854 0.5577565714285714 23.051622857142856 0.20325119999999997 19.973382857142855 -0.15244354285714284 16.630457142857143 -0.06665554285714285 14.595839999999997 0.6630788571428571 14.03657142857143 0.8636708571428572 13.585679999999998 1.287462857142857 13.350857142857143 1.8332502857142856c-0.2347885714285714 0.5457908571428571 -0.23245714285714283 1.1645725714285713 0.0064457142857142855 1.708566857142857l1.4606057142857143 3.3255428571428567L10.41702857142857 14.422491428571426c-1.498182857142857 2.571977142857143 -0.9964457142857143 5.841017142857142 1.2041485714285713 7.845257142857141 2.0330742857142856 1.851702857142857 5.03088 2.1744 7.411474285714285 0.7978285714285713l3.750651428571428 -2.1688457142857143c-0.4087885714285714 1.353737142857143 -1.578582857142857 3.3554742857142856 -4.521291428571429 5.685874285714285 -1.3745142857142856 1.088502857142857 -3.120548571428571 2.5165028571428567 -4.601794285714285 4.064022857142857Z" clip-rule="evenodd" stroke-width="3.4286"></path>
  </g>
</svg>