<svg xmlns="http://www.w3.org/2000/svg" fill="none" viewBox="0 0 48 48" id="Chess-Pawn--Streamline-Core-Remix" height="48" width="48">
  <desc>
    Chess Pawn Streamline Icon: https://streamlinehq.com
  </desc>
  <g id="Free Remix/Entertainment/chess-pawn">
    <path id="Union" fill="#000000" fill-rule="evenodd" d="M23.999691428571428 4.285714285714286c-3.127748571428571 0 -5.66328 2.5355314285714283 -5.66328 5.663245714285714 0 3.1071085714285713 2.502205714285714 5.629782857142857 5.601462857142857 5.662937142857143h0.12359999999999999c3.0992571428571427 -0.03315428571428571 5.601462857142857 -2.555828571428571 5.601462857142857 -5.662937142857143 0 -3.1277142857142857 -2.5355314285714283 -5.663245714285714 -5.663245714285714 -5.663245714285714ZM14.05069714285714 9.94896c0 2.1041142857142856 0.6531771428571429 4.055657142857143 1.7678399999999999 5.662937142857143h-1.1852228571428571c-1.1834742857142857 0 -2.142857142857143 0.9593828571428571 -2.142857142857143 2.142857142857143 0 1.1834399999999998 0.9593828571428571 2.142857142857143 2.142857142857143 2.142857142857143h2.1719314285714284c-0.38245714285714283 2.131268571428571 -0.94392 4.714182857142857 -1.6632685714285713 7.197942857142857 -0.5126399999999999 1.7699657142857144 -1.093645714285714 3.448148571428572 -1.72872 4.858902857142858 -0.6505714285714286 1.445142857142857 -1.2898971428571429 2.454342857142857 -1.8555771428571426 3.0200571428571426l-0.00006857142857142857 -0.00034285714285714285 -0.010148571428571429 0.010628571428571428c-0.44855999999999996 0.4546285714285714 -0.83976 0.7950857142857142 -1.214057142857143 1.0865142857142858h-0.5597828571428571c-2.002662857142857 0 -3.9137142857142853 1.1941714285714284 -4.619691428571429 3.1608l-2.118308571428571 5.900914285714285c-0.23564914285714283 0.6565714285714286 -0.13707085714285713 1.3865142857142856 0.26424 1.9570285714285713 0.4013142857142857 0.5705142857142856 1.0551428571428572 0.9099428571428572 1.7526171428571427 0.9099428571428572H42.94662857142857c0.6977142857142856 0 1.3515428571428572 -0.3394285714285714 1.7526857142857142 -0.9099428571428572 0.4014857142857142 -0.5705142857142856 0.4998857142857143 -1.300457142857143 0.26434285714285716 -1.9570285714285713l-2.1181714285714284 -5.900914285714285c-0.7062857142857142 -1.9666285714285714 -2.617028571428571 -3.1608 -4.619999999999999 -3.1608h-0.5485714285714286c-0.3744 -0.2914285714285714 -0.7656 -0.6318857142857143 -1.214057142857143 -1.0865142857142858l-0.010285714285714285 -0.010628571428571428 0 0.00034285714285714285c-0.5657142857142857 -0.5657142857142857 -1.205142857142857 -1.5749142857142855 -1.8555428571428572 -3.0200571428571426 -0.6351428571428571 -1.4107542857142856 -1.2161485714285714 -3.0889371428571426 -1.7287885714285711 -4.858902857142858 -0.7193485714285713 -2.4837599999999997 -1.2807771428571428 -5.066674285714286 -1.6632685714285713 -7.197942857142857h2.162982857142857c1.1834742857142857 0 2.142788571428571 -0.9594171428571429 2.142788571428571 -2.142857142857143 0 -1.1834742857142857 -0.9593142857142857 -2.142857142857143 -2.142788571428571 -2.142857142857143h-1.187142857142857c1.1146628571428572 -1.6072799999999998 1.7678399999999999 -3.558822857142857 1.7678399999999999 -5.662937142857143C33.94865142857143 4.4542971428571425 29.494354285714284 0 23.999691428571428 0S14.05069714285714 4.4542971428571425 14.05069714285714 9.94896Zm12.804102857142857 9.948651428571427H24.081599999999998l-0.08190857142857143 0.00030857142857142856 -0.08194285714285714 -0.00030857142857142856h-2.762297142857143c-0.4045028571428571 2.395577142857143 -1.0445142857142855 5.447074285714286 -1.8969257142857143 8.390194285714285 -0.54648 1.8868114285714286 -1.1920457142857142 3.770502857142857 -1.9373142857142858 5.425954285714286 -0.36816 0.8177828571428571 -0.7783199999999999 1.6204114285714284 -1.2367199999999998 2.3575542857142855h15.841268571428571c-0.4584342857142857 -0.7371428571428571 -0.86856 -1.5397714285714286 -1.2367199999999998 -2.3575542857142855 -0.7452685714285714 -1.6554514285714284 -1.3908685714285713 -3.5391428571428567 -1.9373142857142858 -5.425954285714286 -0.8524114285714286 -2.94312 -1.492422857142857 -5.994617142857142 -1.8969257142857143 -8.390194285714285Z" clip-rule="evenodd" stroke-width="3.4286"></path>
  </g>
</svg>