<svg xmlns="http://www.w3.org/2000/svg" fill="none" viewBox="0 0 48 48" id="Chess-Bishop--Streamline-Core-Remix" height="48" width="48">
  <desc>
    Chess Bishop Streamline Icon: https://streamlinehq.com
  </desc>
  <g id="Free Remix/Entertainment/chess-bishop">
    <path id="Union" fill="#000000" fill-rule="evenodd" d="M23.99976 4.285714285714286c-0.9309257142857141 0 -1.6855885714285714 0.7546628571428571 -1.6855885714285714 1.6855885714285714 0 0.9308914285714285 0.7546628571428571 1.6855542857142856 1.6855885714285714 1.6855542857142856 0.9307542857142856 0 1.6853485714285714 -0.7544914285714286 1.6853485714285714 -1.6855542857142856 0 -0.9310971428571427 -0.7545942857142857 -1.6855885714285714 -1.6853485714285714 -1.6855885714285714Zm-5.971302857142857 1.6855885714285714C18.028457142857143 2.6734354285714286 20.701919999999998 0 23.99976 0c3.2980114285714284 0 5.971062857142857 2.6736034285714285 5.971062857142857 5.971302857142857 0 1.5448457142857142 -0.5866285714285714 2.9527542857142857 -1.5493714285714286 4.012971428571428 0.35519999999999996 0.26231999999999994 0.7205485714285714 0.5487771428571429 1.08696 0.8590971428571429 2.2356 1.8932914285714284 4.883245714285714 4.999199999999999 4.883245714285714 9.204514285714286 0 2.276537142857143 -0.6927085714285713 4.175177142857143 -1.974102857142857 5.6089714285714285 0.6511885714285713 1.8427542857142856 1.3681371428571427 3.8972571428571428 1.9703314285714284 5.685051428571428 0.37611428571428573 1.1168571428571428 0.7121142857142857 2.14344 0.9603428571428572 2.9547771428571425 0.12342857142857142 0.4038857142857143 0.23039999999999997 0.7710857142857142 0.3106285714285714 1.0769142857142857 0.04902857142857143 0.18754285714285712 0.11348571428571427 0.44297142857142857 0.15325714285714284 0.6977142857142856h2.4133714285714283c2.0029714285714286 0 3.9137142857142853 1.1941714285714284 4.619999999999999 3.1608l2.1181714285714284 5.900914285714285c0.2355428571428571 0.6565714285714286 0.13714285714285715 1.3865142857142856 -0.26434285714285716 1.9570285714285713 -0.40114285714285713 0.5705142857142856 -1.0549714285714284 0.9099428571428572 -1.7526857142857142 0.9099428571428572H5.05248c-0.6974742857142857 0 -1.351302857142857 -0.3394285714285714 -1.7526171428571427 -0.9099428571428572 -0.40131085714285714 -0.5705142857142856 -0.4998891428571428 -1.300457142857143 -0.26424 -1.9570285714285713l2.118308571428571 -5.900914285714285c0.7059771428571429 -1.9666285714285714 2.617028571428571 -3.1608 4.619691428571429 -3.1608h2.41056c0.039908571428571425 -0.25474285714285716 0.10419428571428571 -0.5101714285714285 0.15329142857142855 -0.6977142857142856 0.08016 -0.3058285714285714 0.18702857142857143 -0.6730285714285714 0.31066285714285713 -1.0772571428571427 0.24816 -0.8110971428571428 0.5841942857142858 -1.8377142857142856 0.9603771428571429 -2.954605714285714 0.60216 -1.7879314285714287 1.3191771428571428 -3.842537142857143 1.9703657142857143 -5.68536 -1.2811199999999998 -1.433725714285714 -1.9735199999999997 -3.3322285714285713 -1.9735199999999997 -5.608491428571428 0 -4.205314285714286 2.6475085714285713 -7.311222857142856 4.883108571428571 -9.204514285714286 0.3669257142857143 -0.31076571428571426 0.7327542857142857 -0.5975657142857143 1.0884342857142857 -0.8601942857142857 -0.9621257142857141 -1.06008 -1.5484457142857142 -2.4675085714285716 -1.5484457142857142 -4.011874285714285Zm13.221428571428572 29.57886857142857c0.059039999999999995 0.19302857142857144 0.11087999999999999 0.3668571428571428 0.15534857142857142 0.5211428571428571H16.59102857142857c0.04446857142857143 -0.15428571428571428 0.09630857142857142 -0.3281142857142857 0.15538285714285713 -0.5211428571428571 0.23081142857142858 -0.7546285714285713 0.5520685714285714 -1.737325714285714 0.9236228571428572 -2.840502857142857 0.7419428571428571 -2.2028914285714287 1.6657714285714285 -4.831062857142856 2.42256 -6.959245714285714 0.3192342857142857 -0.8977714285714287 0.007337142857142856 -1.8985028571428573 -0.765462857142857 -2.45592 -0.838662857142857 -0.6049028571428571 -1.4360571428571427 -1.5494742857142856 -1.4360571428571427 -3.2466171428571426 0 -2.3159314285714285 1.4776114285714286 -4.333851428571428 3.367097142857143 -5.934068571428571 0.9111771428571428 -0.7716685714285714 1.8328799999999998 -1.371257142857143 2.531005714285714 -1.7785714285714287 0.07251428571428571 -0.042308571428571425 0.1423542857142857 -0.08238857142857142 0.20924571428571428 -0.12020571428571428 0.06689142857142856 0.037817142857142855 0.13673142857142856 0.07789714285714286 0.20927999999999997 0.12020571428571428 0.6981257142857142 0.4073142857142857 1.6197942857142857 1.006902857142857 2.530971428571428 1.7785714285714287l0.1169142857142857 0.10001142857142857 -3.078411428571428 3.140605714285714c-0.8284114285714286 0.8451771428571428 -0.8148342857142857 2.201862857142857 0.030308571428571428 3.030308571428571 0.8451771428571428 0.8284114285714286 2.2018971428571428 0.8148342857142857 3.030308571428571 -0.030308571428571428l2.708502857142857 -2.763257142857143c0.35465142857142856 0.7734857142857142 0.5595085714285714 1.5944228571428571 0.5595085714285714 2.456708571428571 0 1.69728 -0.5975314285714285 2.64192 -1.436365714285714 3.2468571428571424 -0.7729371428571428 0.5573485714285714 -1.084902857142857 1.558182857142857 -0.7656342857142857 2.456022857142857 0.7567885714285714 2.1281828571428574 1.680582857142857 4.756285714285714 2.4224571428571426 6.959074285714284 0.37155428571428567 1.103142857142857 0.6928114285714285 2.085702857142857 0.9236228571428572 2.8403314285714285Z" clip-rule="evenodd" stroke-width="3.4286"></path>
  </g>
</svg>