<svg xmlns="http://www.w3.org/2000/svg" fill="none" viewBox="0 0 48 48" id="Chicken-Grilled-Stream--Streamline-Core-Remix" height="48" width="48">
  <desc>
    Chicken Grilled Stream Streamline Icon: https://streamlinehq.com
  </desc>
  <g id="Free Remix/Food Drink/chicken-grilled-stream">
    <path id="Union" fill="#000000" fill-rule="evenodd" d="M7.608719999999999 15.293759999999999c-1.1089371428571428 -0.8871771428571428 -1.2887314285714284 -2.50536 -0.4015885714285714 -3.6142971428571427 0.34645714285714285 -0.43306285714285714 0.4620342857142857 -0.6870857142857142 0.49776 -0.7996114285714285 -0.036239999999999994 -0.06654857142857143 -0.15377142857142856 -0.25834285714285715 -0.5212114285714285 -0.7317257142857142l-0.07477714285714285 -0.09569142857142857c-0.4164 -0.5310514285714285 -1.256502857142857 -1.6025142857142856 -1.4787428571428571 -3.0171085714285715 -0.26866285714285715 -1.710205714285714 0.39109714285714287 -3.3020914285714285 1.5769714285714285 -4.784448 0.8871771428571428 -1.1089577142857143 2.50536 -1.2887554285714287 3.614331428571428 -0.4015885714285714 1.1089371428571428 0.8871668571428571 1.2887314285714284 2.5053394285714288 0.4015885714285714 3.614310857142857 -0.34645714285714285 0.4330285714285714 -0.4620342857142857 0.6870857142857142 -0.49779428571428574 0.7995771428571428 0.03627428571428572 0.06658285714285714 0.15380571428571427 0.25834285714285715 0.5212114285714285 0.7317257142857142l0.07481142857142857 0.09572571428571428c0.4163657142857143 0.5310171428571427 1.256502857142857 1.60248 1.4787085714285713 3.0170742857142856 0.2686971428571428 1.7102399999999998 -0.3910628571428571 3.302125714285714 -1.5769371428571428 4.7844685714285715 -0.8871771428571428 1.1089714285714285 -2.50536 1.2887657142857143 -3.614331428571428 0.4015885714285714Zm3.1026171428571425 -8.960982857142858c-0.0014742857142857142 0.00037714285714285714 -0.0014742857142857142 -0.011314285714285714 0.004491428571428571 -0.03613714285714286 0 0.023348571428571427 -0.0029828571428571426 0.03579428571428571 -0.004491428571428571 0.03613714285714286Zm-2.9925257142857142 4.477474285714286c0.0015085714285714286 -0.00037714285714285714 0.0015085714285714286 0.011314285714285714 -0.004457142857142857 0.03617142857142857 0 -0.02338285714285714 0.0029828571428571426 -0.03579428571428571 0.004457142857142857 -0.03617142857142857ZM42.53245714285714 9.753257142857143c-1.0042285714285712 -1.0042285714285712 -2.6321142857142856 -1.0042285714285712 -3.636342857142857 0 -1.0042285714285712 1.0041942857142856 -1.0042285714285712 2.63232 0 3.636548571428571l0.32434285714285715 0.3245828571428571 -3.809828571428571 3.809965714285714c-2.5136914285714287 -1.2844457142857142 -5.577497142857143 -1.2372685714285714 -8.09945142857143 0.27589714285714284l-2.4198514285714285 1.4519314285714287c-1.6170171428571427 -0.5425028571428572 -3.319714285714286 -0.8235085714285714 -5.043668571428571 -0.8235085714285714H15.55038857142857C7.672217142857143 18.428674285714283 1.2857142857142856 24.81517714285714 1.2857142857142856 32.69334857142857v1.3844914285714285c0 2.896902857142857 1.150734857142857 5.6747314285714285 3.1990628571428568 7.723302857142857 2.0483314285714287 2.0482285714285715 4.826434285714286 3.198857142857143 7.7232 3.198857142857143h26.510537142857142c2.1205714285714286 0 4.1544 -0.8423999999999999 5.653714285714286 -2.3417142857142856l0.12788571428571427 -0.12788571428571427 -1.5154285714285713 -1.5150857142857141 1.5154285714285713 1.5150857142857141c1.4177142857142855 -1.4177142857142855 2.2141714285714285 -3.340457142857143 2.2141714285714285 -5.345485714285714 0 -2.527542857142857 -1.2634285714285713 -4.888114285714285 -3.3665142857142856 -6.290194285714286l-4.039199999999999 -2.692765714285714c0.9641142857142857 -2.2883657142857143 0.8482285714285714 -4.869942857142857 -0.26125714285714285 -7.041119999999999L42.857142857142854 17.35093714285714l0.3246857142857143 0.3245828571428571c1.0042285714285712 1.0041942857142856 2.6321142857142856 1.0041942857142856 3.636342857142857 0 1.0042285714285712 -1.0042285714285712 1.0042285714285712 -2.6323542857142854 0 -3.636548571428571l-4.285714285714286 -4.285714285714286Zm-7.221257142857142 20.934548571428568c-0.1985142857142857 -0.13056 -0.36857142857142855 -0.28913142857142854 -0.5081142857142856 -0.46728 -0.39908571428571427 -0.5088342857142857 -0.54624 -1.1744571428571429 -0.4025142857142857 -1.8018514285714284 0.05039999999999999 -0.21853714285714287 0.13577142857142857 -0.43241142857142856 0.25817142857142855 -0.6333942857142857l0.43782857142857146 -0.7298057142857142c0.9600000000000001 -1.6003542857142856 0.708 -3.6488914285714285 -0.6116571428571428 -4.968582857142857 -1.3198285714285714 -1.3197257142857142 -3.368365714285714 -1.5718971428571427 -4.968754285714286 -0.6116914285714286l-3.282788571428571 1.9697142857142858 -0.041519999999999994 0.02489142857142857 -1.3452685714285713 0.8071542857142856c-3.0284571428571425 1.8170742857142856 -3.5429485714285716 5.996434285714286 -1.045645714285714 8.493737142857142 1.0393714285714284 1.0393714285714284 2.3579999999999997 1.55376 3.6841371428571428 1.5887314285714285 1.183062857142857 0.0312 2.1167999999999996 1.015542857142857 2.0856 2.198742857142857 -0.0312 1.1828571428571426 -1.015542857142857 2.1167999999999996 -2.1986057142857143 2.0856 -2.372948571428571 -0.06274285714285714 -4.75128 -0.9922285714285713 -6.601577142857142 -2.842628571428571 -3.6670285714285713 -3.6669942857142854 -3.7050514285714287 -9.360719999999999 -0.6063428571428572 -13.082434285714285 -0.10536 -0.0028799999999999997 -0.21089142857142856 -0.00432 -0.3164914285714286 -0.00432H15.55038857142857c-5.511222857142857 0 -9.978959999999999 4.467737142857143 -9.978959999999999 9.978959999999999v1.3844914285714285c0 1.7599885714285712 0.6992228571428571 3.4482171428571426 1.9437942857142856 4.692788571428571 1.2446057142857143 1.2445714285714284 2.9326285714285714 1.9436571428571425 4.692754285714285 1.9436571428571425h26.510537142857142c0.9839999999999999 0 1.9275428571428572 -0.39085714285714285 2.623542857142857 -1.0865142857142858L42.857142857142854 41.14285714285714l-1.5150857142857141 -1.5150857142857141 0.12754285714285712 -0.12788571428571427c0.6140571428571429 -0.6137142857142857 0.9589714285714286 -1.4465142857142856 0.9589714285714286 -2.3149714285714285 0 -1.094742857142857 -0.5471999999999999 -2.117142857142857 -1.4578285714285715 -2.7243428571428567l-5.659542857142857 -3.772765714285714Zm-17.802822857142857 -19.008342857142857c-0.887142857142857 1.1089371428571428 -0.7073485714285713 2.7271199999999998 0.4015885714285714 3.6142971428571427 1.1089714285714285 0.8871771428571428 2.7271542857142856 0.7073828571428571 3.614331428571428 -0.4015885714285714 1.1858742857142857 -1.4823428571428572 1.8456342857142856 -3.074228571428571 1.5769714285714285 -4.7844685714285715 -0.22224 -1.4145942857142857 -1.062342857142857 -2.4860571428571427 -1.4787428571428571 -3.0170742857142856l-0.07477714285714285 -0.09572571428571428c-0.36744 -0.4733828571428571 -0.4849714285714285 -0.6651428571428571 -0.5212114285714285 -0.7317257142857142 0.035725714285714284 -0.11249142857142856 0.15130285714285716 -0.36654857142857145 0.49776 -0.7995771428571428 0.887142857142857 -1.1089714285714285 0.7073485714285713 -2.727144 -0.4015885714285714 -3.614310857142857 -1.1089714285714285 -0.8871668571428571 -2.7271542857142856 -0.7073691428571428 -3.614331428571428 0.4015885714285714 -1.1858742857142857 1.4823565714285714 -1.8456342857142856 3.0742422857142855 -1.5769371428571428 4.784448 0.22220571428571428 1.4145942857142857 1.062342857142857 2.4860571428571427 1.4787085714285713 3.0171085714285715l0.07481142857142857 0.09569142857142857c0.3674057142857143 0.4733828571428571 0.48493714285714284 0.6651771428571428 0.5212114285714285 0.7317257142857142 -0.03576 0.11252571428571428 -0.15133714285714284 0.36654857142857145 -0.49779428571428574 0.7996114285714285Zm3.504205714285714 -5.346685714285714c-0.0014742857142857142 0.00037714285714285714 -0.0014742857142857142 -0.011314285714285714 0.004491428571428571 -0.03613714285714286 0 0.023348571428571427 -0.0029828571428571426 0.03579428571428571 -0.004491428571428571 0.03613714285714286Zm-2.9924914285714284 4.477474285714286c0.0014742857142857142 -0.00037714285714285714 0.0014742857142857142 0.011314285714285714 -0.004491428571428571 0.03617142857142857 0 -0.02338285714285714 0.0029828571428571426 -0.03579428571428571 0.004491428571428571 -0.03617142857142857Z" clip-rule="evenodd" stroke-width="3.4286"></path>
  </g>
</svg>