<svg xmlns="http://www.w3.org/2000/svg" fill="none" viewBox="0 0 48 48" id="Christian-Cross-1--Streamline-Core-Remix" height="48" width="48">
  <desc>
    Christian Cross 1 Streamline Icon: https://streamlinehq.com
  </desc>
  <g id="Free Remix/Culture/christian-cross-1--religion-christian-cross-culture-bold">
    <path id="Union" fill="#000000" fill-rule="evenodd" d="M17.142857142857142 0c-0.9467657142857142 0 -1.7142857142857142 0.7675131428571428 -1.7142857142857142 1.7142857142857142v9.428571428571429h-10.285714285714285c-0.9467657142857142 0 -1.7142857142857142 0.76752 -1.7142857142857142 1.7142857142857142v13.714285714285714c0 0.9467657142857142 0.76752 1.7142857142857142 1.7142857142857142 1.7142857142857142h10.285714285714285v18c0 0.9466285714285714 0.76752 1.7142857142857142 1.7142857142857142 1.7142857142857142h13.714285714285714c0.9467657142857142 0 1.7142857142857142 -0.7676571428571428 1.7142857142857142 -1.7142857142857142V28.285714285714285h10.285714285714285c0.9466285714285714 0 1.7142857142857142 -0.76752 1.7142857142857142 -1.7142857142857142v-13.714285714285714c0 -0.9467657142857142 -0.7676571428571428 -1.7142857142857142 -1.7142857142857142 -1.7142857142857142h-10.285714285714285V1.7142857142857142C32.57142857142857 0.7675131428571428 31.80390857142857 0 30.857142857142854 0H17.142857142857142Z" clip-rule="evenodd" stroke-width="3.4286"></path>
  </g>
</svg>