<svg xmlns="http://www.w3.org/2000/svg" fill="none" viewBox="0 0 48 48" id="Christianity--Streamline-Core-Remix" height="48" width="48">
  <desc>
    Christianity Streamline Icon: https://streamlinehq.com
  </desc>
  <g id="Free Remix/Culture/christianity--religion-jesus-christianity-christ-fish-culture">
    <path id="Vector (Stroke)" fill="#000000" fill-rule="evenodd" d="M19.03038857142857 13.385211428571427c-2.7393942857142854 -0.026159999999999996 -5.50608 0.94896 -7.99968 2.9437371428571426 -2.2864114285714283 1.82904 -4.256297142857142 4.451074285714285 -5.674354285714285 7.67112 1.418057142857143 3.22008 3.387942857142857 5.842114285714286 5.674354285714285 7.671154285714286 2.4936 1.994777142857143 5.260319999999999 2.9700342857142856 7.99968 2.9436342857142854l0.024548571428571427 0c2.768194285714286 0 5.650114285714285 -1.28568 8.552777142857142 -3.57 2.427085714285714 -1.910057142857143 4.716582857142857 -4.400537142857143 6.769542857142857 -7.044788571428572 -2.0529599999999997 -2.644217142857143 -4.342457142857143 -5.134697142857142 -6.769542857142857 -7.044754285714285 -2.902662857142857 -2.2843199999999997 -5.784582857142857 -3.57 -8.552777142857142 -3.57l-0.024548571428571427 -0.00010285714285714286Zm18.45349714285714 14.96952c-1.9940571428571428 2.4415885714285714 -4.243885714285714 4.802091428571428 -6.695657142857143 6.731554285714285 -3.377485714285714 2.6581714285714284 -7.356651428571428 4.667657142857142 -11.720982857142857 4.671428571428572 -4.037897142857143 0.03565714285714285 -7.930731428571429 -1.416 -11.249142857142857 -4.0704C4.507954285714286 33.039188571428575 1.8911691428571429 29.297725714285715 0.17830559999999998 24.94093714285714c-0.23774091428571428 -0.6046971428571428 -0.23774091428571428 -1.2770057142857143 0 -1.8817028571428571C1.8911691428571429 18.702445714285712 4.507954285714286 14.960948571428572 7.818102857142856 12.312994285714284c3.3184457142857138 -2.65464 7.2112799999999995 -4.106057142857143 11.249211428571428 -4.0705028571428565 4.364297142857143 0.0037714285714285714 8.343428571428571 2.01336 11.720914285714285 4.671359999999999 2.4517714285714285 1.9294971428571428 4.7016 4.29 6.695657142857143 6.731588571428571 1.4396571428571427 -2.1851999999999996 2.6502857142857144 -4.259931428571428 3.577028571428571 -5.948331428571429 0.66 -1.2018857142857142 1.1722285714285714 -2.2009371428571427 1.517485714285714 -2.895257142857143 0.17279999999999998 -0.34700571428571425 0.3034285714285714 -0.6174514285714285 0.3898285714285714 -0.7985142857142856l0.09565714285714286 -0.20279999999999998 0.02262857142857143 -0.04803428571428571 0.004457142857142857 -0.010148571428571429c0.5924571428571429 -1.2903085714285714 2.1191999999999998 -1.8577371428571428 3.4097142857142857 -1.2656571428571428 1.2908571428571427 0.5921828571428571 1.8572571428571427 2.1186514285714284 1.2651428571428571 3.4094399999999996l-2.2158857142857142 -1.0164685714285715c2.2158857142857142 1.0165028571428572 2.216228571428571 1.015782857142857 2.2158857142857142 1.0164685714285715l-0.0017142857142857142 0.003257142857142857 -0.010971428571428571 0.024137142857142857 -0.03017142857142857 0.06504c-0.026057142857142855 0.055645714285714284 -0.06377142857142856 0.1356 -0.11279999999999998 0.23821714285714285 -0.09771428571428571 0.2052685714285714 -0.24102857142857143 0.5014285714285713 -0.42719999999999997 0.8755542857142856 -0.372 0.7479085714285714 -0.9164571428571427 1.8091885714285714 -1.6138285714285714 3.0797142857142856 -1.1852571428571428 2.158902857142857 -2.8234285714285714 4.942457142857143 -4.820571428571428 7.828011428571429 1.997142857142857 2.8855542857142855 3.6353142857142857 5.669142857142857 4.820571428571428 7.8280457142857145 0.6973714285714285 1.2705257142857143 1.2418285714285715 2.3318057142857143 1.6138285714285714 3.079542857142857 0.18617142857142857 0.3744 0.32948571428571427 0.6702857142857143 0.42719999999999997 0.8756571428571429 0.04902857142857143 0.10285714285714284 0.08674285714285714 0.18274285714285712 0.11279999999999998 0.2382857142857143l0.03017142857142857 0.06514285714285714 0.010971428571428571 0.024c0.00034285714285714285 0.0006857142857142857 0.0017142857142857142 0.0034285714285714284 -2.335542857142857 1.075542857142857l2.3372571428571427 -1.0721142857142856c0.5921142857142857 1.2905142857142857 0.02571428571428571 2.8172571428571427 -1.2651428571428571 3.4093714285714283 -1.2905142857142857 0.5921142857142857 -2.8165714285714283 0.026057142857142855 -3.4090285714285713 -1.264457142857143 0 0 0 0.00034285714285714285 0 0l-0.005142857142857143 -0.011314285714285714 -0.02262857142857143 -0.048 -0.09565714285714286 -0.20297142857142858c-0.08639999999999999 -0.18102857142857143 -0.2170285714285714 -0.45154285714285713 -0.3898285714285714 -0.7985142857142856 -0.3452571428571428 -0.6942857142857143 -0.8574857142857142 -1.6933714285714285 -1.517485714285714 -2.895085714285714 -0.9267428571428571 -1.6885371428571427 -2.1373714285714285 -3.763268571428571 -3.577028571428571 -5.94846857142857Z" clip-rule="evenodd" stroke-width="3.4286"></path>
  </g>
</svg>