<svg xmlns="http://www.w3.org/2000/svg" fill="none" viewBox="0 0 48 48" id="Chrome--Streamline-Core-Remix" height="48" width="48">
  <desc>
    Chrome Streamline Icon: https://streamlinehq.com
  </desc>
  <g id="Free Remix/Computer Devices/chrome">
    <path id="Union" fill="#000000" fill-rule="evenodd" d="M8.692868571428571 11.573519999999998C12.308194285714285 7.1267314285714285 17.822365714285713 4.285714285714286 24.00006857142857 4.285714285714286c6.672102857142857 0 12.570102857142857 3.3139199999999995 16.13821714285714 8.3856H23.997839999999997c-4.784948571428571 0 -8.87688 2.96712 -10.536308571428572 7.161805714285713L8.692868571428571 11.573519999999998Zm-2.5750628571428567 4.111337142857143c-1.1777485714285714 2.527508571428571 -1.8354514285714285 5.34624 -1.8354514285714285 8.318571428571428 0 9.830742857142857 7.194411428571429 17.981142857142856 16.605394285714283 19.4736l4.777165714285714 -8.274514285714286c-0.5440457142857142 0.08022857142857143 -1.1007085714285714 0.12171428571428569 -1.6670742857142855 0.12171428571428569 -4.227771428571429 0 -7.91454857142857 -2.316205714285714 -9.860434285714286 -5.749028571428571L6.117805714285714 15.684857142857142Zm19.621302857142854 27.960514285714286c10.075405714285713 -0.8804571428571427 17.978605714285713 -9.338057142857142 17.978605714285713 -19.64194285714286 0 -2.4826971428571425 -0.4587428571428571 -4.858217142857142 -1.296342857142857 -7.0464H32.87067428571428c1.5360685714285713 1.9331657142857142 2.4535542857142856 4.379828571428571 2.4535542857142856 7.040811428571429 0 2.063691428571428 -0.5516571428571427 3.9984685714285715 -1.5160457142857142 5.664822857142856l0.0029485714285714284 0.0016799999999999999 -8.072022857142857 13.98102857142857ZM24.00006857142857 0C10.74336 0 -0.0033482125714285713 10.746685714285714 -0.0033482125714285713 24.00342857142857c0 13.256571428571426 10.746708212571429 24.00342857142857 24.003416784 24.00342857142857 13.256845714285713 0 24.00336 -10.746857142857143 24.00336 -24.00342857142857C48.003428571428564 10.746685714285714 37.25691428571428 0 24.00006857142857 0Zm-0.0022285714285714283 17.814171428571427c-3.4151314285714283 0 -6.183668571428571 2.768537142857143 -6.183668571428571 6.183668571428571 0 3.415165714285714 2.768537142857143 6.183668571428571 6.183668571428571 6.183668571428571 3.415165714285714 0 6.183668571428571 -2.768502857142857 6.183668571428571 -6.183668571428571 0 -3.4151314285714283 -2.768502857142857 -6.183668571428571 -6.183668571428571 -6.183668571428571Z" clip-rule="evenodd" stroke-width="3.4286"></path>
  </g>
</svg>