<svg xmlns="http://www.w3.org/2000/svg" fill="none" viewBox="0 0 48 48" id="Circle-Flask--Streamline-Core-Remix" height="48" width="48">
  <desc>
    Circle Flask Streamline Icon: https://streamlinehq.com
  </desc>
  <g id="Free Remix/Nature Ecology/circle-flask--science-experiment-lab-flask-chemistry-solution">
    <path id="Union" fill="#000000" fill-rule="evenodd" d="M15 5.142857142857142H12c-1.4201485714285715 0 -2.571428571428571 -1.1512799999999999 -2.571428571428571 -2.571428571428571 0 -1.4201622857142857 1.1512799999999999 -2.571428571428571 2.571428571428571 -2.571428571428571h24c1.4201142857142857 0 2.571428571428571 1.1512662857142855 2.571428571428571 2.571428571428571 0 1.4201485714285715 -1.1513142857142855 2.571428571428571 -2.571428571428571 2.571428571428571h-3v6.510651428571428c6.113828571428571 3.231702857142857 10.285714285714285 9.65694857142857 10.285714285714285 17.060777142857145C43.285714285714285 39.36548571428571 34.651199999999996 48 24 48s-19.285714285714285 -8.634514285714285 -19.285714285714285 -19.285714285714285c0 -7.403828571428571 4.171782857142857 -13.829074285714285 10.285714285714285 -17.060777142857145V5.142857142857142Zm4.285714285714286 0v7.854994285714286c0 0.85176 -0.5044457142857143 1.6226057142857142 -1.2849257142857142 1.9636114285714286C12.698605714285714 17.278114285714285 9 22.56665142857143 9 28.71428571428571c0 8.284114285714285 6.715714285714285 15 15 15s15 -6.715885714285714 15 -15c0 -6.147634285714286 -3.698742857142857 -11.436171428571427 -9.000788571428572 -13.752822857142856 -0.78048 -0.3410057142857143 -1.2849257142857142 -1.1118514285714285 -1.2849257142857142 -1.9636114285714286V5.142857142857142h-9.428571428571429Z" clip-rule="evenodd" stroke-width="3.4286"></path>
  </g>
</svg>