<svg xmlns="http://www.w3.org/2000/svg" fill="none" viewBox="0 0 48 48" id="Circle-Clock--Streamline-Core-Remix" height="48" width="48">
  <desc>
    Circle Clock Streamline Icon: https://streamlinehq.com
  </desc>
  <g id="Free Remix/Interface Essential/circle-clock--clock-loading-measure-time-circle">
    <path id="Union" fill="#000000" fill-rule="evenodd" d="M24.00061714285714 0.0016741062857142856C10.746377142857142 0.0016741062857142856 0.0016741062857142856 10.746377142857142 0.0016741062857142856 24.00061714285714c0 13.25424 10.744703036571428 23.999039999999997 23.99894303657143 23.999039999999997 13.25424 0 23.999039999999997 -10.7448 23.999039999999997 -23.999039999999997S37.25485714285714 0.0016741062857142856 24.00061714285714 0.0016741062857142856ZM4.287394285714286 24.00061714285714c0 -10.887325714285714 8.825897142857142 -19.713222857142856 19.713222857142856 -19.713222857142856 10.887154285714285 0 19.713325714285713 8.825897142857142 19.713325714285713 19.713222857142856 0 10.887497142857143 -8.826171428571428 19.713325714285713 -19.713325714285713 19.713325714285713 -10.887325714285714 0 -19.713222857142856 -8.82582857142857 -19.713222857142856 -19.713325714285713ZM27 12c0 -1.6568571428571428 -1.343142857142857 -3 -3 -3s-3 1.343142857142857 -3 3V24c0 1.6568571428571428 1.343142857142857 3 3 3h8.571428571428571c1.6568571428571428 0 3 -1.343142857142857 3 -3s-1.343142857142857 -3 -3 -3H27V12Z" clip-rule="evenodd" stroke-width="3.4286"></path>
  </g>
</svg>