<svg xmlns="http://www.w3.org/2000/svg" fill="none" viewBox="0 0 48 48" id="City-Hall--Streamline-Core-Remix" height="48" width="48">
  <desc>
    City Hall Streamline Icon: https://streamlinehq.com
  </desc>
  <g id="Free Remix/Map Travel/city-hall--city-hall-travel-places">
    <path id="Union" fill="#000000" fill-rule="evenodd" d="M21.857142857142858 3.4285714285714284c0 -1.1834674285714284 0.9593828571428571 -2.142857142857143 2.142857142857143 -2.142857142857143h3.4285714285714284c1.1834742857142857 0 2.142857142857143 0.9593897142857143 2.142857142857143 2.142857142857143 0 1.1834742857142857 -0.9593828571428571 2.142857142857143 -2.142857142857143 2.142857142857143h-1.2857142857142856v5.104217142857143l12.529714285714284 6.264857142857142c0.7258285714285714 0.36298285714285716 1.1845714285714284 1.1049942857142858 1.1845714285714284 1.9166399999999997v3H44.57142857142857c1.183542857142857 0 2.142857142857143 0.9593828571428571 2.142857142857143 2.142857142857143s-0.9593142857142857 2.142857142857143 -2.142857142857143 2.142857142857143h-0.42857142857142855v16.285714285714285H44.57142857142857c1.183542857142857 0 2.142857142857143 0.9593142857142857 2.142857142857143 2.142857142857143s-0.9593142857142857 2.142857142857143 -2.142857142857143 2.142857142857143H3.4285714285714284c-1.1834674285714284 0 -2.142857142857143 -0.9593142857142857 -2.142857142857143 -2.142857142857143s0.9593897142857143 -2.142857142857143 2.142857142857143 -2.142857142857143h0.42857142857142855v-16.285714285714285H3.4285714285714284C2.245104 26.142857142857142 1.2857142857142856 25.183474285714283 1.2857142857142856 24s0.9593897142857143 -2.142857142857143 2.142857142857143 -2.142857142857143h4.714285714285714V18.857142857142858c0 -0.8116457142857142 0.4585714285714286 -1.5536571428571428 1.184537142857143 -1.9166399999999997L21.857142857142858 10.675645714285713V3.4285714285714284Zm-13.714285714285714 22.71428571428571v16.285714285714285h5.142857142857142v-16.285714285714285h-5.142857142857142Zm9.428571428571429 0v16.285714285714285h3.4285714285714284V37.714285714285715c0 -1.6566857142857143 1.343142857142857 -3 3 -3s3 1.3433142857142857 3 3v4.714285714285714h3.4285714285714284v-16.285714285714285h-12.857142857142856Zm17.142857142857142 0v16.285714285714285h5.142857142857142v-16.285714285714285h-5.142857142857142Z" clip-rule="evenodd" stroke-width="3.4286"></path>
  </g>
</svg>