<svg xmlns="http://www.w3.org/2000/svg" fill="none" viewBox="0 0 48 48" id="Class-Lesson--Streamline-Core-Remix" height="48" width="48">
  <desc>
    Class Lesson Streamline Icon: https://streamlinehq.com
  </desc>
  <g id="Free Remix/Work Education/class-lesson--class-lesson-education-teacher">
    <path id="Union" fill="#000000" fill-rule="evenodd" d="M23.57142857142857 3.4285714285714284c0 -1.1834674285714284 0.9593828571428571 -2.142857142857143 2.142857142857143 -2.142857142857143H41.14285714285714c3.077142857142857 0 5.571428571428571 2.494422857142857 5.571428571428571 5.571428571428571v20.57142857142857c0 3.0770057142857143 -2.494285714285714 5.571428571428571 -5.571428571428571 5.571428571428571H27.428571428571427c-1.1834742857142857 0 -2.142857142857143 -0.9593828571428571 -2.142857142857143 -2.142857142857143s0.9593828571428571 -2.142857142857143 2.142857142857143 -2.142857142857143h13.714285714285714c0.7100571428571428 0 1.2857142857142856 -0.5756228571428571 1.2857142857142856 -1.2857142857142856V6.857142857142857c0 -0.7100914285714285 -0.5756571428571428 -1.2857142857142856 -1.2857142857142856 -1.2857142857142856H25.71428571428571c-1.1834742857142857 0 -2.142857142857143 -0.9593828571428571 -2.142857142857143 -2.142857142857143ZM13.714285714285714 1.7142857142857142c-3.7870971428571427 0 -6.857142857142857 3.070045714285714 -6.857142857142857 6.857142857142857 0 2.8283314285714285 1.7123657142857143 5.25672 4.156902857142857 6.305005714285714C5.686971428571429 16.10142857142857 1.7142857142857142 20.87249142857143 1.7142857142857142 26.57142857142857v5.142857142857142c0 0.9467657142857142 0.7675131428571428 1.7142857142857142 1.7142857142857142 1.7142857142857142h3.6419657142857145l1.515942857142857 11.369485714285714c0.11355428571428569 0.8516571428571429 0.8400342857142857 1.4876571428571428 1.6992342857142857 1.4876571428571428h8.571428571428571c0.8957828571428571 0 1.640537142857143 -0.6898285714285713 1.709245714285714 -1.5829714285714285L22.158925714285715 24H29.57142857142857C32.17505142857143 24 34.285714285714285 21.88933714285714 34.285714285714285 19.285714285714285S32.17505142857143 14.571428571428571 29.57142857142857 14.571428571428571H17.036571428571428C19.144662857142855 13.401668571428571 20.57142857142857 11.153177142857142 20.57142857142857 8.571428571428571c0 -3.7870971428571427 -3.070045714285714 -6.857142857142857 -6.857142857142857 -6.857142857142857Z" clip-rule="evenodd" stroke-width="3.4286"></path>
  </g>
</svg>