<svg xmlns="http://www.w3.org/2000/svg" fill="none" viewBox="0 0 48 48" id="Clean-Water-And-Sanitation--Streamline-Core-Remix" height="48" width="48">
  <desc>
    Clean Water And Sanitation Streamline Icon: https://streamlinehq.com
  </desc>
  <g id="Free Remix/Nature Ecology/clean-water-and-sanitation">
    <path id="Union" fill="#000000" fill-rule="evenodd" d="M9.857142857142856 5.343942857142857c0 -0.5844342857142857 0.4737942857142857 -1.0582285714285713 1.0582285714285713 -1.0582285714285713h26.16942857142857c0.5842285714285714 0 1.0580571428571428 0.4737942857142857 1.0580571428571428 1.0582285714285713 0 0.050057142857142856 -0.0034285714285714284 0.10008 -0.010628571428571428 0.14965714285714285l-1.0014857142857143 7.010605714285714c-7.254239999999999 0.2925942857142857 -10.192525714285713 1.3944342857142857 -13.130777142857143 2.4962742857142852 -2.8406742857142855 1.0652571428571427 -5.681348571428571 2.1305142857142854 -12.421988571428571 2.464525714285714L9.867771428571428 5.4936c-0.007062857142857143 -0.049577142857142854 -0.010628571428571428 -0.0996 -0.010628571428571428 -0.14965714285714285ZM21.857142857142858 31.71428571428571H14.116457142857143c-2.7726514285714283 0 -5.123348571428571 -2.0387314285714284 -5.51544 -4.7835085714285706l-2.975862857142857 -20.83110857142857c-0.03579428571428571 -0.25032 -0.05372571428571428 -0.5028685714285713 -0.05372571428571428 -0.7557257142857142C5.571428571428571 2.3925599999999996 7.963988571428572 0 10.915371428571428 0h26.16942857142857c2.9513142857142856 0 5.343771428571428 2.3925599999999996 5.343771428571428 5.343942857142857 0 0.25285714285714284 -0.017828571428571426 0.5054057142857143 -0.05382857142857142 0.7557257142857142l-2.9756571428571426 20.83110857142857c-0.3922285714285714 2.744742857142857 -2.742857142857143 4.7835085714285706 -5.515542857142857 4.7835085714285706H26.142857142857142v5.571428571428571H30.857142857142854c0.69336 0 1.3184571428571428 0.41759999999999997 1.5837942857142857 1.0583999999999998 0.2653371428571428 0.6404571428571428 0.11866285714285714 1.377942857142857 -0.37162285714285714 1.8682285714285716l-6.857142857142857 6.857142857142857c-0.669462857142857 0.6692571428571429 -1.7548799999999998 0.6692571428571429 -2.424342857142857 0l-6.857142857142857 -6.857142857142857c-0.4902857142857142 -0.4902857142857142 -0.63696 -1.2277714285714285 -0.37162285714285714 -1.8682285714285716 0.2653371428571428 -0.6408 0.8904342857142856 -1.0583999999999998 1.5837942857142857 -1.0583999999999998h4.714285714285714V31.71428571428571Z" clip-rule="evenodd" stroke-width="3.4286"></path>
  </g>
</svg>