<svg xmlns="http://www.w3.org/2000/svg" fill="none" viewBox="0 0 48 48" id="Clipboard-Remove--Streamline-Core-Remix" height="48" width="48">
  <desc>
    Clipboard Remove Streamline Icon: https://streamlinehq.com
  </desc>
  <g id="Free Remix/Interface Essential/clipboard-remove--edit-task-edition-remove-delete-clipboard-form">
    <path id="Union" fill="#000000" fill-rule="evenodd" d="M12.557177142857142 7.7142857142857135H8.571428571428571c-0.7100914285714285 0 -1.2857142857142856 0.5756228571428571 -1.2857142857142856 1.2857142857142856v33.42857142857142c0 0.7100571428571428 0.5756228571428571 1.2857142857142856 1.2857142857142856 1.2857142857142856h30.857142857142854c0.7100571428571428 0 1.2857142857142856 -0.5756571428571428 1.2857142857142856 -1.2857142857142856v-33.42857142857142c0 -0.7100914285714285 -0.5756571428571428 -1.2857142857142856 -1.2857142857142856 -1.2857142857142856h-3.9857142857142858c-0.595542857142857 2.9343085714285713 -3.1899085714285715 5.142857142857142 -6.299999999999999 5.142857142857142h-10.285714285714285c-3.1100914285714283 0 -5.7043542857142855 -2.208548571428571 -6.299965714285714 -5.142857142857142ZM13.170034285714285 3.4285714285714284C14.247908571428571 1.3895142857142857 16.39025142857143 0 18.857142857142858 0h10.285714285714285c2.4668914285714285 0 4.609268571428571 1.3895142857142857 5.686971428571429 3.4285714285714284H39.42857142857142c3.077142857142857 0 5.571428571428571 2.494422857142857 5.571428571428571 5.571428571428571v33.42857142857142c0 3.077142857142857 -2.494285714285714 5.571428571428571 -5.571428571428571 5.571428571428571h-30.857142857142854c-3.0770057142857143 0 -5.571428571428571 -2.494285714285714 -5.571428571428571 -5.571428571428571v-33.42857142857142C3 5.922994285714285 5.494422857142857 3.4285714285714284 8.571428571428571 3.4285714285714284h4.598605714285713ZM15.428571428571427 25.71428571428571c-1.4201485714285715 0 -2.571428571428571 1.1512799999999999 -2.571428571428571 2.571428571428571s1.1512799999999999 2.571428571428571 2.571428571428571 2.571428571428571h17.142857142857142c1.4201485714285715 0 2.571428571428571 -1.1512799999999999 2.571428571428571 -2.571428571428571s-1.1512799999999999 -2.571428571428571 -2.571428571428571 -2.571428571428571h-17.142857142857142Z" clip-rule="evenodd" stroke-width="3.4286"></path>
  </g>
</svg>