<svg xmlns="http://www.w3.org/2000/svg" fill="none" viewBox="0 0 48 48" id="Clipboard-Check--Streamline-Core-Remix" height="48" width="48">
  <desc>
    Clipboard Check Streamline Icon: https://streamlinehq.com
  </desc>
  <g id="Free Remix/Interface Essential/clipboard-check--checkmark-edit-task-edition-checklist-check-success-clipboard-form">
    <path id="Union" fill="#000000" fill-rule="evenodd" d="M12.557177142857142 7.7142857142857135H8.571428571428571c-0.7100914285714285 0 -1.2857142857142856 0.5756228571428571 -1.2857142857142856 1.2857142857142856v33.42857142857142c0 0.7100571428571428 0.5756228571428571 1.2857142857142856 1.2857142857142856 1.2857142857142856h30.857142857142854c0.7100571428571428 0 1.2857142857142856 -0.5756571428571428 1.2857142857142856 -1.2857142857142856v-33.42857142857142c0 -0.7100914285714285 -0.5756571428571428 -1.2857142857142856 -1.2857142857142856 -1.2857142857142856h-3.9857142857142858c-0.595542857142857 2.9343085714285713 -3.1899085714285715 5.142857142857142 -6.299999999999999 5.142857142857142h-10.285714285714285c-3.1100914285714283 0 -5.7043542857142855 -2.208548571428571 -6.299965714285714 -5.142857142857142ZM13.170034285714285 3.4285714285714284C14.247908571428571 1.3895142857142857 16.39025142857143 0 18.857142857142858 0h10.285714285714285c2.4668914285714285 0 4.609268571428571 1.3895142857142857 5.686971428571429 3.4285714285714284H39.42857142857142c3.077142857142857 0 5.571428571428571 2.494422857142857 5.571428571428571 5.571428571428571v33.42857142857142c0 3.077142857142857 -2.494285714285714 5.571428571428571 -5.571428571428571 5.571428571428571h-30.857142857142854c-3.0770057142857143 0 -5.571428571428571 -2.494285714285714 -5.571428571428571 -5.571428571428571v-33.42857142857142C3 5.922994285714285 5.494422857142857 3.4285714285714284 8.571428571428571 3.4285714285714284h4.598605714285713ZM34.628571428571426 21.257142857142856c0.852 -1.1361257142857142 0.6219428571428571 -2.7478971428571426 -0.5142857142857142 -3.6 -1.1361257142857142 -0.852102857142857 -2.7478971428571426 -0.62184 -3.6 0.5142857142857142L21.68808 29.939691428571425l-3.1188342857142857 -2.0792571428571427c-1.1816571428571427 -0.7877485714285714 -2.7781714285714285 -0.46844571428571424 -3.5659542857142856 0.7131771428571428 -0.7877485714285714 1.1816571428571427 -0.46844571428571424 2.7781714285714285 0.7131771428571428 3.5659542857142856l5.142857142857142 3.4284342857142853c1.135542857142857 0.7570285714285714 2.664685714285714 0.49508571428571424 3.4835314285714283 -0.5965714285714285l10.285714285714285 -13.714285714285714Z" clip-rule="evenodd" stroke-width="3.4286"></path>
  </g>
</svg>