<svg xmlns="http://www.w3.org/2000/svg" fill="none" viewBox="0 0 48 48" id="Closet--Streamline-Core-Remix" height="48" width="48">
  <desc>
    Closet Streamline Icon: https://streamlinehq.com
  </desc>
  <g id="Free Remix/Money Shopping/closet--closet-dressing-dresser-product-decoration-cloth-clothing-cabinet-furniture">
    <path id="Union" fill="#000000" fill-rule="evenodd" d="M7.285714285714286 5.571428571428571c0 -0.7100914285714285 0.5756228571428571 -1.2857142857142856 1.2857142857142856 -1.2857142857142856h13.285714285714285v39.42857142857142H8.571428571428571c-0.7100914285714285 0 -1.2857142857142856 -0.5756571428571428 -1.2857142857142856 -1.2857142857142856V5.571428571428571Zm18.857142857142858 38.14285714285714V4.285714285714286H39.42857142857142c0.7100571428571428 0 1.2857142857142856 0.5756228571428571 1.2857142857142856 1.2857142857142856v36.857142857142854c0 0.7100571428571428 -0.5756571428571428 1.2857142857142856 -1.2857142857142856 1.2857142857142856H26.142857142857142ZM24 48H8.571428571428571c-3.0770057142857143 0 -5.571428571428571 -2.494285714285714 -5.571428571428571 -5.571428571428571V5.571428571428571C3 2.494412571428571 5.494422857142857 0 8.571428571428571 0h30.857142857142854c3.077142857142857 0 5.571428571428571 2.494412571428571 5.571428571428571 5.571428571428571v36.857142857142854c0 3.077142857142857 -2.494285714285714 5.571428571428571 -5.571428571428571 5.571428571428571H24Zm8.571428571428571 -28.285714285714285c1.4201485714285715 0 2.571428571428571 1.1512799999999999 2.571428571428571 2.571428571428571v3.4285714285714284c0 1.4201485714285715 -1.1512799999999999 2.571428571428571 -2.571428571428571 2.571428571428571s-2.571428571428571 -1.1512799999999999 -2.571428571428571 -2.571428571428571v-3.4285714285714284c0 -1.4201485714285715 1.1512799999999999 -2.571428571428571 2.571428571428571 -2.571428571428571Zm-14.571428571428571 2.571428571428571c0 -1.4201485714285715 -1.1512799999999999 -2.571428571428571 -2.571428571428571 -2.571428571428571s-2.571428571428571 1.1512799999999999 -2.571428571428571 2.571428571428571v3.4285714285714284c0 1.4201485714285715 1.1512799999999999 2.571428571428571 2.571428571428571 2.571428571428571s2.571428571428571 -1.1512799999999999 2.571428571428571 -2.571428571428571v-3.4285714285714284Z" clip-rule="evenodd" stroke-width="3.4286"></path>
  </g>
</svg>