<svg xmlns="http://www.w3.org/2000/svg" fill="none" viewBox="0 0 48 48" id="Cloud--Streamline-Core-Remix" height="48" width="48">
  <desc>
    Cloud Streamline Icon: https://streamlinehq.com
  </desc>
  <g id="Free Remix/Interface Essential/cloud--cloud-meteorology-cloudy-overcast-cover-weather">
    <path id="Vector" stroke="#000000" stroke-linecap="round" stroke-linejoin="round" stroke-width="4.2857" d="M37.452685714285714 22.319142857142857c-1.8188571428571427 0.0024 -3.588205714285714 0.5922171428571428 -5.044697142857143 1.6815771428571429 0 -2.993245714285714 -0.8876228571428572 -5.919325714285714 -2.550582857142857 -8.408125714285715 -1.6629942857142856 -2.4888 -4.026617142857143 -4.428582857142858 -6.792034285714285 -5.574068571428571 -2.765417142857143 -1.1454857142857142 -5.808411428571429 -1.4451771428571427 -8.744159999999999 -0.8612228571428572 -2.9357485714285714 0.5839542857142856 -5.632422857142857 2.0253599999999996 -7.748982857142857 4.14192C4.45566857142857 15.415782857142856 3.0142731428571428 18.112422857142857 2.4303154285714283 21.04817142857143c-0.5839577142857143 2.935782857142857 -0.2842491428571428 5.978742857142857 0.8612262857142856 8.744159999999999 1.1454754285714284 2.765417142857143 3.0852582857142856 5.12904 5.574092571428571 6.791897142857142 2.4888 1.6631999999999998 5.414845714285714 2.5508571428571427 8.408125714285715 2.5508571428571427h20.17892571428571c2.229942857142857 0 4.368685714285714 -0.8859428571428571 5.945485714285714 -2.462742857142857 1.5764571428571428 -1.5767999999999998 2.4623999999999997 -3.7153714285714283 2.4623999999999997 -5.9452799999999995 0 -2.229942857142857 -0.8859428571428571 -4.368514285714285 -2.4623999999999997 -5.945314285714286 -1.5767999999999998 -1.5767657142857143 -3.7155428571428573 -2.462605714285714 -5.945485714285714 -2.462605714285714v0Z"></path>
  </g>
</svg>