<svg xmlns="http://www.w3.org/2000/svg" fill="none" viewBox="0 0 48 48" id="Cloud-Block--Streamline-Core-Remix" height="48" width="48">
  <desc>
    Cloud Block Streamline Icon: https://streamlinehq.com
  </desc>
  <g id="Free Remix/Programming/Programming/Clouds/cloud-block--cloud-network-internet-block-server-deny">
    <path id="Union" fill="#000000" fill-rule="evenodd" d="M17.15633142857143 2.3100377142857145C20.099657142857144 0.46895657142857144 23.58517714285714 -0.3074441142857143 27.031679999999998 0.11031154285714286 30.47814857142857 0.5280685714285713 33.67724571428571 2.1147291428571426 36.09565714285714 4.605702857142856c2.1949714285714284 2.2612114285714284 3.6264000000000003 5.143577142857143 4.107771428571428 8.242285714285714 2.309142857142857 0.7594285714285713 4.322742857142857 2.2443771428571426 5.731885714285713 4.246354285714285 1.5980571428571428 2.2700228571428567 2.308114285714286 5.047165714285714 1.9957714285714283 7.80558857142857 -0.312 2.758422857142857 -1.6247999999999998 5.306605714285714 -3.6898285714285715 7.16208 -0.7251428571428571 0.6517714285714286 -1.5257142857142856 1.2022285714285714 -2.379428571428571 1.6428342857142855 -1.051542857142857 0.5427428571428571 -2.3441142857142854 0.13018285714285713 -2.8868571428571426 -0.9214628571428571 -0.5427428571428571 -1.05168 -0.13028571428571428 -2.3442171428571426 0.9212571428571428 -2.8869942857142856 0.5310857142857143 -0.27408 1.0292571428571429 -0.6165257142857142 1.480457142857143 -1.0221257142857143 1.2850285714285714 -1.154502857142857 2.1017142857142854 -2.7400114285714285 2.2961142857142853 -4.45632 0.19405714285714284 -1.7162742857142856 -0.24754285714285712 -3.4442399999999997 -1.2418285714285715 -4.856674285714286 -0.9942857142857142 -1.4123999999999999 -2.472 -2.4112114285714283 -4.153371428571428 -2.8073142857142854 -0.04045714285714285 -0.0096 -0.08125714285714285 -0.0204 -0.12137142857142857 -0.0324 -0.5430857142857143 -0.16203428571428571 -1.0282285714285713 -0.47605714285714285 -1.3988571428571428 -0.9050057142857142 -0.3702857142857143 -0.4289485714285714 -0.6102857142857142 -0.9548914285714285 -0.6915428571428571 -1.5157714285714285 -0.005485714285714286 -0.037405714285714285 -0.009942857142857142 -0.07498285714285714 -0.01337142857142857 -0.11262857142857141 -0.22628571428571428 -2.4810857142857143 -1.2966857142857142 -4.809634285714285 -3.0319885714285713 -6.597222857142857 -1.7354057142857144 -1.787588571428571 -4.031177142857143 -2.9262514285714283 -6.504514285714285 -3.226045714285714 -2.473302857142857 -0.29979428571428574 -4.974651428571428 0.25738285714285714 -7.086891428571428 1.5786171428571427 -2.11224 1.3212 -3.707691428571428 3.326605714285714 -4.520297142857142 5.681794285714285 -0.02869714285714286 0.08314285714285714 -0.06246857142857143 0.16443428571428573 -0.10114285714285713 0.24342857142857138 -0.24418285714285715 0.49872 -0.6259885714285713 0.9171428571428571 -1.1003314285714285 1.2058628571428571 -0.43707428571428575 0.2660571428571428 -0.9358971428571428 0.41173714285714286 -1.4459314285714284 0.4234628571428571 -1.1080457142857143 0.08214857142857142 -2.1899314285714286 0.3778628571428571 -3.186 0.8710285714285714 -1.014 0.5020457142857143 -1.919177142857143 1.198902857142857 -2.663862857142857 2.0507999999999997 -1.503942857142857 1.7204228571428568 -2.262822857142857 3.967851428571428 -2.1097371428571425 6.2478171428571425 0.1530857142857143 2.28 1.2055885714285715 4.4057828571428574 2.9260457142857144 5.909725714285714 0.3546171428571428 0.31001142857142855 0.73152 0.58824 1.1263885714285713 0.8333828571428571 1.0054628571428572 0.6241714285714285 1.314582857142857 1.9452685714285716 0.6904114285714286 2.9507657142857138 -0.6241714285714285 1.0054628571428572 -1.945302857142857 1.314582857142857 -2.9507657142857138 0.6904114285714286 -0.5914971428571428 -0.36719999999999997 -1.1558742857142856 -0.7839085714285714 -1.6866514285714285 -1.2478971428571428C1.8309668571428568 29.552057142857144 0.2548906285714285 26.36886857142857 0.025659874285714285 22.9548 -0.20357074285714283 19.540731428571426 0.9328217142857143 16.175451428571428 3.184844571428571 13.599222857142856c1.1150982857142857 -1.2755999999999998 2.4705154285714284 -2.319085714285714 3.988858285714285 -3.070868571428571 1.2711771428571428 -0.6293828571428571 2.6357142857142857 -1.0439999999999998 4.038308571428571 -1.2289371428571427 1.209702857142857 -2.879725714285714 3.2825142857142855 -5.3244 5.944319999999999 -6.989379428571428ZM15.83952 28.224651428571423C17.931805714285712 26.143371428571427 20.81568 24.857142857142854 24 24.857142857142854c6.39072 0 11.571428571428571 5.180708571428571 11.571428571428571 11.571428571428571C35.57142857142857 42.819428571428574 30.39072 48 24 48s-11.571428571428571 -5.180571428571428 -11.571428571428571 -11.571428571428571c0 -3.18432 1.2862285714285713 -6.068194285714285 3.367508571428571 -8.16048 0.007131428571428571 -0.007337142857142856 0.014297142857142857 -0.01464 0.021565714285714282 -0.021874285714285714 0.007234285714285714 -0.007268571428571428 0.014537142857142856 -0.014434285714285714 0.021874285714285714 -0.021565714285714282Zm1.7202514285714283 4.7941714285714285c-0.5397257142857143 1.0173257142857142 -0.8454857142857143 2.1778628571428573 -0.8454857142857143 3.409748571428571 0 4.023771428571428 3.261942857142857 7.285714285714286 7.285714285714286 7.285714285714286 1.23192 0 2.392422857142857 -0.3058285714285714 3.409748571428571 -0.8454857142857143L17.559771428571427 33.01882285714286Zm12.880457142857143 6.819462857142857L20.590251428571428 29.988342857142857C21.607577142857142 29.448617142857145 22.76808 29.142857142857142 24 29.142857142857142c4.023805714285714 0 7.285714285714286 3.261942857142857 7.285714285714286 7.285714285714286 0 1.2318857142857143 -0.30576 2.392457142857143 -0.8454857142857143 3.4097142857142857Z" clip-rule="evenodd" stroke-width="3.4286"></path>
  </g>
</svg>