<svg xmlns="http://www.w3.org/2000/svg" fill="none" viewBox="0 0 48 48" id="Cloud-Check--Streamline-Core-Remix" height="48" width="48">
  <desc>
    Cloud Check Streamline Icon: https://streamlinehq.com
  </desc>
  <g id="Free Remix/Programming/Programming/Clouds/cloud-check--cloud-network-internet-check-server-approve">
    <path id="Union" fill="#000000" fill-rule="evenodd" d="M27.031679999999998 0.11031154285714286C23.58517714285714 -0.3074441142857143 20.099657142857144 0.46895657142857144 17.15633142857143 2.3100377142857145 14.494525714285714 3.975017142857143 12.421714285714286 6.4196914285714275 11.212011428571428 9.299417142857143c-1.4025942857142857 0.18493714285714286 -2.7671314285714286 0.5995542857142857 -4.038308571428571 1.2289371428571427 -1.5183428571428572 0.7517828571428571 -2.87376 1.7952685714285712 -3.988858285714285 3.070868571428571 -2.252022857142857 2.576228571428571 -3.388415314285714 5.941508571428571 -3.159184697142857 9.355577142857141C0.2548906285714285 26.36886857142857 1.8309668571428568 29.552057142857144 4.407188571428572 31.80408c0.84576 0.7393371428571428 1.7767199999999996 1.3585371428571427 2.766582857142857 1.8486171428571427 1.0605942857142856 0.5250857142857143 2.3460685714285714 0.09096 2.8711542857142858 -0.9696342857142857s0.09096 -2.3460685714285714 -0.9696342857142857 -2.8711542857142858c-0.6609257142857142 -0.3272228571428571 -1.2825257142857143 -0.7406057142857143 -1.8474857142857144 -1.2344914285714286 -1.720457142857143 -1.503942857142857 -2.77296 -3.629725714285714 -2.9260457142857144 -5.909725714285714 -0.1530857142857143 -2.279965714285714 0.6057942857142857 -4.527394285714285 2.1097371428571425 -6.2478171428571425 0.7446857142857143 -0.8518971428571428 1.649862857142857 -1.5487542857142857 2.663862857142857 -2.0507999999999997 0.9960685714285714 -0.49316571428571426 2.0779542857142856 -0.7888799999999999 3.186 -0.8710285714285714 0.5100342857142857 -0.011725714285714284 1.008857142857143 -0.1574057142857143 1.4459314285714284 -0.4234628571428571 0.4743428571428571 -0.28872 0.8561485714285714 -0.7071428571428571 1.1003314285714285 -1.2058628571428571 0.03867428571428571 -0.07899428571428571 0.07244571428571428 -0.16028571428571428 0.10114285714285713 -0.24342857142857138 0.8126057142857143 -2.3551885714285716 2.408057142857143 -4.360594285714286 4.520297142857142 -5.681794285714285 2.11224 -1.3212342857142856 4.613588571428571 -1.8784114285714284 7.086891428571428 -1.5786171428571427 2.4733371428571425 0.29979428571428574 4.769108571428571 1.4384571428571427 6.504514285714285 3.226045714285714 1.735302857142857 1.787588571428571 2.805702857142857 4.116137142857142 3.0319885714285713 6.597222857142857 0.0034285714285714284 0.03764571428571428 0.007885714285714286 0.07522285714285715 0.01337142857142857 0.11262857142857141 0.08125714285714285 0.56088 0.32125714285714285 1.086822857142857 0.6915428571428571 1.5157714285714285 0.3706285714285714 0.4289485714285714 0.8557714285714285 0.7429714285714285 1.3988571428571428 0.9050057142857142 0.04011428571428571 0.012 0.0809142857142857 0.022799999999999997 0.12137142857142857 0.0324 1.6813714285714285 0.3961028571428571 3.1590857142857143 1.3949142857142856 4.153371428571428 2.8073142857142854 0.9942857142857142 1.4124342857142855 1.4358857142857142 3.1404 1.2418285714285715 4.856674285714286 -0.1944 1.7163085714285713 -1.0110857142857141 3.301817142857143 -2.2961142857142853 4.45632 -0.49405714285714286 0.44396571428571424 -1.0439999999999998 0.8122628571428572 -1.632 1.098102857142857 -1.0642285714285713 0.5173371428571428 -1.5078857142857143 1.7995885714285713 -0.9905142857142857 2.863988571428571 0.5173714285714286 1.0644 1.7996571428571428 1.5079885714285712 2.8638857142857144 0.9905485714285713 0.9452571428571428 -0.4593942857142857 1.8294857142857142 -1.05144 2.6231999999999998 -1.7648914285714286 2.065028571428571 -1.8554742857142856 3.377828571428571 -4.403657142857143 3.6898285714285715 -7.16208 0.31234285714285714 -2.758422857142857 -0.3977142857142857 -5.535565714285714 -1.9957714285714283 -7.80558857142857 -1.409142857142857 -2.0019771428571427 -3.4227428571428566 -3.4869257142857144 -5.731885714285713 -4.246354285714285 -0.48137142857142856 -3.0987085714285714 -1.9127999999999998 -5.981074285714286 -4.107771428571428 -8.242285714285714C33.67724571428571 2.1147291428571426 30.47814857142857 0.5280685714285713 27.031679999999998 0.11031154285714286ZM35.516914285714286 29.89206857142857c0.8869714285714285 -1.1089371428571428 0.7073142857142857 -2.7271199999999998 -0.4014857142857142 -3.6142971428571427 -1.1091085714285713 -0.8871771428571428 -2.7272914285714283 -0.7073828571428571 -3.6144342857142857 0.4015885714285714L19.34365714285714 41.875885714285715 14.480365714285714 38.22857142857143c-1.1361257142857142 -0.852 -2.7478971428571426 -0.6219428571428571 -3.6 0.5142857142857142 -0.852102857142857 1.1362285714285714 -0.62184 2.7479999999999998 0.5142857142857142 3.6l6.857142857142857 5.142857142857142c1.1110971428571428 0.8334857142857143 2.6831657142857144 0.6335999999999999 3.5507999999999997 -0.45085714285714285l13.714319999999997 -17.14278857142857Z" clip-rule="evenodd" stroke-width="3.4286"></path>
  </g>
</svg>