<svg xmlns="http://www.w3.org/2000/svg" fill="none" viewBox="0 0 48 48" id="Cloud-Warning--Streamline-Core-Remix" height="48" width="48">
  <desc>
    Cloud Warning Streamline Icon: https://streamlinehq.com
  </desc>
  <g id="Free Remix/Programming/Programming/Clouds/cloud-warning--cloud-network-internet-server-warning-alert">
    <path id="Union" fill="#000000" fill-rule="evenodd" d="M27.031679999999998 0.11031154285714286C23.58517714285714 -0.3074441142857143 20.099657142857144 0.46895657142857144 17.15633142857143 2.3100377142857145 14.494525714285714 3.975017142857143 12.421714285714286 6.4196914285714275 11.212011428571428 9.299417142857143c-1.4025942857142857 0.18493714285714286 -2.7671314285714286 0.5995542857142857 -4.038308571428571 1.2289371428571427 -1.5183428571428572 0.7517828571428571 -2.87376 1.7952685714285712 -3.988858285714285 3.070868571428571 -2.252022857142857 2.576228571428571 -3.388415314285714 5.941508571428571 -3.159184697142857 9.355577142857141C0.2548906285714285 26.36886857142857 1.8309668571428568 29.552057142857144 4.407188571428572 31.80408c2.643497142857143 2.310857142857143 5.966502857142856 3.16392 9.212022857142857 3.16392H15c1.1834742857142857 0 2.142857142857143 -0.9593142857142857 2.142857142857143 -2.142788571428571 0 -1.1834399999999998 -0.9593828571428571 -2.142857142857143 -2.142857142857143 -2.142857142857143h-1.3807885714285713c-2.5248 0 -4.7382857142857135 -0.6598285714285714 -6.391405714285714 -2.104937142857143 -1.720457142857143 -1.503942857142857 -2.77296 -3.629725714285714 -2.9260457142857144 -5.909725714285714 -0.1530857142857143 -2.279965714285714 0.6057942857142857 -4.527394285714285 2.1097371428571425 -6.2478171428571425 0.7446857142857143 -0.8518971428571428 1.649862857142857 -1.5487542857142857 2.663862857142857 -2.0507999999999997 0.9960685714285714 -0.49316571428571426 2.0779542857142856 -0.7888799999999999 3.186 -0.8710285714285714 0.5100342857142857 -0.011725714285714284 1.008857142857143 -0.1574057142857143 1.4459314285714284 -0.4234628571428571 0.4743428571428571 -0.28872 0.8561485714285714 -0.7071428571428571 1.1003314285714285 -1.2058628571428571 0.03867428571428571 -0.07899428571428571 0.07244571428571428 -0.16028571428571428 0.10114285714285713 -0.24342857142857138 0.8126057142857143 -2.3551885714285716 2.408057142857143 -4.360594285714286 4.520297142857142 -5.681794285714285 2.11224 -1.3212342857142856 4.613588571428571 -1.8784114285714284 7.086891428571428 -1.5786171428571427 2.4733371428571425 0.29979428571428574 4.769108571428571 1.4384571428571427 6.504514285714285 3.226045714285714 1.735302857142857 1.787588571428571 2.805702857142857 4.116137142857142 3.0319885714285713 6.597222857142857 0.0034285714285714284 0.03764571428571428 0.007885714285714286 0.07522285714285715 0.01337142857142857 0.11262857142857141 0.08125714285714285 0.56088 0.32125714285714285 1.086822857142857 0.6915428571428571 1.5157714285714285 0.3706285714285714 0.4289485714285714 0.8557714285714285 0.7429714285714285 1.3988571428571428 0.9050057142857142 0.04011428571428571 0.012 0.0809142857142857 0.022799999999999997 0.12137142857142857 0.0324 1.6813714285714285 0.3961028571428571 3.1590857142857143 1.3949142857142856 4.153371428571428 2.8073142857142854 0.9942857142857142 1.4124342857142855 1.4358857142857142 3.1404 1.2418285714285715 4.856674285714286 -0.1944 1.7163085714285713 -1.0110857142857141 3.301817142857143 -2.2961142857142853 4.45632 -1.2829714285714284 1.1531314285714285 -2.9441142857142855 1.796297142857143 -4.669028571428571 1.8080914285714287H33c-1.1834742857142857 0 -2.142857142857143 0.9594171428571429 -2.142857142857143 2.142857142857143 0 1.1834742857142857 0.9593828571428571 2.142788571428571 2.142857142857143 2.142788571428571h3.714171428571428l0.013028571428571428 0c2.7757714285714283 -0.016457142857142854 5.449371428571428 -1.0505142857142857 7.514057142857143 -2.9059885714285714 2.065028571428571 -1.8554742857142856 3.377828571428571 -4.403657142857143 3.6898285714285715 -7.16208 0.31234285714285714 -2.758422857142857 -0.3977142857142857 -5.535565714285714 -1.9957714285714283 -7.80558857142857 -1.409142857142857 -2.0019771428571427 -3.4227428571428566 -3.4869257142857144 -5.731885714285713 -4.246354285714285 -0.48137142857142856 -3.0987085714285714 -1.9127999999999998 -5.981074285714286 -4.107771428571428 -8.242285714285714C33.67724571428571 2.1147291428571426 30.47814857142857 0.5280685714285713 27.031679999999998 0.11031154285714286ZM26.57142857142857 25.71428571428571c0 -1.4201485714285715 -1.1512799999999999 -2.571428571428571 -2.571428571428571 -2.571428571428571s-2.571428571428571 1.1512799999999999 -2.571428571428571 2.571428571428571v10.285714285714285c0 1.4201142857142857 1.1512799999999999 2.571428571428571 2.571428571428571 2.571428571428571s2.571428571428571 -1.1513142857142855 2.571428571428571 -2.571428571428571v-10.285714285714285ZM20.57142857142857 44.57142857142857c0 1.8936 1.53504 3.4285714285714284 3.4285714285714284 3.4285714285714284 1.893565714285714 0 3.4285714285714284 -1.5349714285714284 3.4285714285714284 -3.4285714285714284s-1.535005714285714 -3.4285714285714284 -3.4285714285714284 -3.4285714285714284c-1.8935314285714284 0 -3.4285714285714284 1.5349714285714284 -3.4285714285714284 3.4285714285714284Z" clip-rule="evenodd" stroke-width="3.4286"></path>
  </g>
</svg>