<svg xmlns="http://www.w3.org/2000/svg" fill="none" viewBox="0 0 48 48" id="Cloud-Data-Transfer--Streamline-Core-Remix" height="48" width="48">
  <desc>
    Cloud Data Transfer Streamline Icon: https://streamlinehq.com
  </desc>
  <g id="Free Remix/Programming/Programming/Clouds/cloud-data-transfer--cloud-data-transfer-internet-server-network">
    <path id="Union" fill="#000000" fill-rule="evenodd" d="M17.15633142857143 2.3100377142857145C20.099657142857144 0.46895657142857144 23.58517714285714 -0.3074441142857143 27.031679999999998 0.11031154285714286 30.47814857142857 0.5280685714285713 33.67724571428571 2.1147291428571426 36.09565714285714 4.605702857142856c2.1949714285714284 2.2612114285714284 3.6264000000000003 5.143577142857143 4.107771428571428 8.242285714285714 2.309142857142857 0.7594285714285713 4.322742857142857 2.2443771428571426 5.731885714285713 4.246354285714285 1.5980571428571428 2.2700228571428567 2.308114285714286 5.047165714285714 1.9957714285714283 7.80558857142857 -0.312 2.758422857142857 -1.6247999999999998 5.306605714285714 -3.6898285714285715 7.16208 -2.064685714285714 1.8554742857142856 -4.7382857142857135 2.8895314285714284 -7.514057142857143 2.9059885714285714 -1.183542857142857 0.007199999999999999 -2.148685714285714 -0.9464914285714287 -2.155885714285714 -2.129931428571428 -0.006857142857142857 -1.1834742857142857 0.9466285714285714 -2.148582857142857 2.1301714285714284 -2.1556457142857144 1.7269714285714286 -0.010354285714285713 3.3905142857142856 -0.6536914285714285 4.675199999999999 -1.8081599999999998 1.2850285714285714 -1.154502857142857 2.1017142857142854 -2.7400114285714285 2.2961142857142853 -4.45632 0.19405714285714284 -1.7162742857142856 -0.24754285714285712 -3.4442399999999997 -1.2418285714285715 -4.856674285714286 -0.9942857142857142 -1.4123999999999999 -2.472 -2.4112114285714283 -4.153371428571428 -2.8073142857142854 -0.04045714285714285 -0.0096 -0.08125714285714285 -0.0204 -0.12137142857142857 -0.0324 -0.5430857142857143 -0.16203428571428571 -1.0282285714285713 -0.47605714285714285 -1.3988571428571428 -0.9050057142857142 -0.3702857142857143 -0.4289485714285714 -0.6102857142857142 -0.9548914285714285 -0.6915428571428571 -1.5157714285714285 -0.005485714285714286 -0.037405714285714285 -0.009942857142857142 -0.07498285714285714 -0.01337142857142857 -0.11262857142857141 -0.22628571428571428 -2.4810857142857143 -1.2966857142857142 -4.809634285714285 -3.0319885714285713 -6.597222857142857 -1.7354057142857144 -1.787588571428571 -4.031177142857143 -2.9262514285714283 -6.504514285714285 -3.226045714285714 -2.473302857142857 -0.29979428571428574 -4.974651428571428 0.25738285714285714 -7.086891428571428 1.5786171428571427 -2.11224 1.3212 -3.707691428571428 3.326605714285714 -4.520297142857142 5.681794285714285 -0.02869714285714286 0.08314285714285714 -0.06246857142857143 0.16443428571428573 -0.10114285714285713 0.24342857142857138 -0.24418285714285715 0.49872 -0.6259885714285713 0.9171428571428571 -1.1003314285714285 1.2058628571428571 -0.43707428571428575 0.2660571428571428 -0.9358971428571428 0.41173714285714286 -1.4459314285714284 0.4234628571428571 -1.1080457142857143 0.08214857142857142 -2.1899314285714286 0.3778628571428571 -3.186 0.8710285714285714 -1.014 0.5020457142857143 -1.919177142857143 1.198902857142857 -2.663862857142857 2.0507999999999997 -1.503942857142857 1.7204228571428568 -2.262822857142857 3.967851428571428 -2.1097371428571425 6.2478171428571425 0.1530857142857143 2.28 1.2055885714285715 4.4057828571428574 2.9260457142857144 5.909725714285714 0.8910171428571428 0.7789028571428571 0.9819085714285714 2.13264 0.20300571428571426 3.0236571428571426s-2.132605714285714 0.9819085714285714 -3.0236228571428567 0.20300571428571426C1.8309668571428568 29.552057142857144 0.2548906285714285 26.36886857142857 0.025659874285714285 22.9548 -0.20357074285714283 19.540731428571426 0.9328217142857143 16.175451428571428 3.184844571428571 13.599222857142856c1.1150982857142857 -1.2755999999999998 2.4705154285714284 -2.319085714285714 3.988858285714285 -3.070868571428571 1.2711771428571428 -0.6293828571428571 2.6357142857142857 -1.0439999999999998 4.038308571428571 -1.2289371428571427 1.209702857142857 -2.879725714285714 3.2825142857142855 -5.3244 5.944319999999999 -6.989379428571428Zm3.2503542857142853 23.583288c0.78072 0.3409028571428571 1.2853714285714286 1.1119199999999998 1.2853714285714286 1.9638171428571427v18c0 1.183542857142857 -0.9593828571428571 2.142857142857143 -2.142857142857143 2.142857142857143s-2.142857142857143 -0.9593142857142857 -2.142857142857143 -2.142857142857143v-10.000114285714286H13.229211428571428c-0.88152 0 -1.673142857142857 -0.5396571428571428 -1.9949485714285715 -1.3604571428571428 -0.32183999999999996 -0.8206971428571428 -0.10820571428571427 -1.7547428571428572 0.5383542857142857 -2.3539542857142854l6.319988571428571 -5.857165714285713c0.6248228571428571 -0.5790514285714286 1.53336 -0.7330285714285714 2.3140799999999997 -0.39212571428571424Zm10.187211428571429 1.9638171428571427c0 -1.1834742857142857 -0.9593828571428571 -2.142857142857143 -2.142857142857143 -2.142857142857143s-2.142857142857143 0.9593828571428571 -2.142857142857143 2.142857142857143v18c0 0.852 0.5046514285714285 1.622742857142857 1.2853714285714286 1.963885714285714 0.78072 0.3408 1.6892228571428571 0.18685714285714283 2.3140799999999997 -0.3922285714285714l6.320022857142857 -5.857028571428571c0.6466285714285713 -0.5993142857142857 0.8602285714285715 -1.5332571428571427 0.5382857142857143 -2.3540571428571426 -0.32194285714285714 -0.8208 -1.1132571428571427 -1.3604571428571428 -1.9950857142857141 -1.3604571428571428H30.593897142857145V27.857142857142854Z" clip-rule="evenodd" stroke-width="3.4286"></path>
  </g>
</svg>