<svg xmlns="http://www.w3.org/2000/svg" fill="none" viewBox="0 0 48 48" id="Cloud-Wifi--Streamline-Core-Remix" height="48" width="48">
  <desc>
    Cloud Wifi Streamline Icon: https://streamlinehq.com
  </desc>
  <g id="Free Remix/Programming/Programming/Clouds/cloud-wifi--cloud-wifi-internet-server-network">
    <path id="Union" fill="#000000" fill-rule="evenodd" d="M8.443645714285713 3.148782857142857C13.366731428571427 1.0706674285714286 18.65629714285714 0 24.000034285714282 0 29.34377142857143 0 34.63337142857143 1.0706674285714286 39.55645714285714 3.148782857142857c1.308342857142857 0.5522914285714285 1.9213714285714285 2.060657142857143 1.3690285714285713 3.3690342857142856 -0.5523428571428571 1.308342857142857 -2.0605714285714285 1.921302857142857 -3.3689142857142858 1.3689942857142856C33.266262857142856 6.075874285714285 28.656754285714282 5.142857142857142 24.000034285714282 5.142857142857142c-4.656719999999999 0 -9.266228571428572 0.9330171428571428 -13.556399999999998 2.7439542857142856 -1.308377142857143 0.5523085714285715 -2.8167085714285713 -0.06065142857142857 -3.3690171428571425 -1.3689942857142856 -0.5522742857142857 -1.308377142857143 0.06065142857142857 -2.816742857142857 1.3690285714285713 -3.3690342857142856ZM14.10624 10.958057142857141c6.41568 -2.1785485714285713 13.371017142857141 -2.1785485714285713 19.78669714285714 0 1.3448914285714284 0.45661714285714283 2.0648914285714284 1.9169485714285712 1.608205714285714 3.2616685714285714 -0.4566857142857143 1.3447542857142858 -1.9170514285714284 2.06472 -3.261805714285714 1.608102857142857 -5.343325714285714 -1.8144342857142854 -11.136137142857143 -1.8144342857142854 -16.47949714285714 0 -1.3447542857142858 0.45661714285714283 -2.8050514285714283 -0.26334857142857143 -3.2616685714285714 -1.608102857142857 -0.45665142857142854 -1.34472 0.26331428571428567 -2.8050514285714283 1.6080685714285714 -3.2616685714285714Zm12.430354285714284 7.636114285714285c-2.9183314285714284 -0.35372571428571425 -5.869714285714285 0.3036685714285714 -8.361977142857143 1.86264 -2.19192 1.3710514285714286 -3.912171428571428 3.3665142857142856 -4.947222857142856 5.718 -1.117782857142857 0.17005714285714285 -2.2044342857142856 0.5120228571428571 -3.2209714285714286 1.015337142857143 -1.2924342857142856 0.6399085714285714 -2.446148571428571 1.5281142857142855 -3.3953142857142855 2.6139085714285715 -1.9169142857142858 2.1928799999999997 -2.8842171428571426 5.057314285714285 -2.689097142857143 7.963371428571428 0.19512 2.9060571428571427 1.5366857142857142 5.615657142857143 3.7295314285714283 7.532571428571428 2.1738514285714285 1.9001142857142856 5.007771428571428 2.8673142857142855 7.887839999999999 2.693828571428571h18.90610285714286l0.012685714285714286 0c2.374285714285714 -0.014057142857142858 4.660799999999999 -0.8986285714285713 6.426857142857143 -2.4853714285714283 1.7660571428571428 -1.5870857142857142 2.8885714285714283 -3.766285714285714 3.1556571428571427 -6.1254857142857135 0.26708571428571426 -2.3592 -0.3401142857142857 -4.734514285714286 -1.7067428571428571 -6.675908571428572 -1.1602285714285714 -1.6481485714285715 -2.7994285714285714 -2.8865485714285715 -4.6820571428571425 -3.556251428571428 -0.44091428571428565 -2.536662857142857 -1.6357714285714287 -4.891268571428571 -3.4404685714285717 -6.750171428571429 -2.0476457142857143 -2.109222857142857 -4.756491428571429 -3.452742857142857 -7.674822857142857 -3.8064685714285713ZM20.447382857142856 24.090239999999998c1.6611771428571427 -1.0390971428571427 3.628354285714286 -1.4772685714285712 5.573519999999999 -1.241485714285714 1.9451314285714285 0.23578285714285713 3.750685714285714 1.131257142857143 5.1154971428571425 2.5371085714285715 1.3648114285714283 1.4058857142857144 2.206422857142857 3.2371542857142854 2.3844685714285716 5.188457142857143 0.0034285714285714284 0.03764571428571428 0.007885714285714286 0.07518857142857142 0.013302857142857142 0.11259428571428572 0.07724571428571429 0.5330057142857142 0.3053142857142857 1.0327885714285714 0.6573257142857143 1.4403771428571428 0.35204571428571424 0.4076228571428571 0.8131885714285714 0.7060114285714285 1.3295314285714286 0.8600228571428571 0.04011428571428571 0.011965714285714284 0.08057142857142857 0.022765714285714285 0.12102857142857142 0.03236571428571428 1.2901714285714285 0.30397714285714283 2.424342857142857 1.0704685714285713 3.1872 2.1543771428571428 0.7628571428571428 1.0837714285714284 1.1019428571428571 2.4099428571428567 0.9531428571428572 3.7268571428571424 -0.14914285714285713 1.3172571428571427 -0.7758857142857143 2.5337142857142854 -1.761942857142857 3.4196571428571425 -0.9843428571428572 0.8849142857142857 -2.2587428571428574 1.3782857142857143 -3.5821714285714283 1.3875428571428572h-18.96685714285714c-0.04789714285714285 0 -0.09576 0.0017142857142857142 -0.1435542857142857 0.0048 -1.7719542857142854 0.11897142857142858 -3.518605714285714 -0.47074285714285713 -4.855714285714286 -1.6395428571428572 -1.3370742857142857 -1.1687999999999998 -2.1550971428571426 -2.821028571428571 -2.2740685714285713 -4.5929142857142855 -0.11897142857142858 -1.7718857142857143 0.4708457142857143 -3.518674285714286 1.6396799999999998 -4.855748571428571 0.5787428571428571 -0.6620571428571428 1.2822171428571427 -1.2036685714285713 2.0702742857142855 -1.59384 0.77136 -0.38190857142857143 1.6089599999999997 -0.6114857142857143 2.4668914285714285 -0.6762857142857143 0.48246857142857147 -0.012857142857142855 0.9541028571428571 -0.1515085714285714 1.3676914285714286 -0.4032685714285714 0.45202285714285717 -0.27514285714285713 0.8158628571428571 -0.6738857142857143 1.0485942857142856 -1.1491542857142858 0.03867428571428571 -0.07899428571428571 0.07244571428571428 -0.16028571428571428 0.10114285714285713 -0.24342857142857138 0.6390857142857143 -1.8522514285714287 1.89384 -3.4293942857142854 3.555017142857143 -4.468491428571428Z" clip-rule="evenodd" stroke-width="3.4286"></path>
  </g>
</svg>