<svg xmlns="http://www.w3.org/2000/svg" fill="none" viewBox="0 0 48 48" id="Cloud-Share--Streamline-Core-Remix" height="48" width="48">
  <desc>
    Cloud Share Streamline Icon: https://streamlinehq.com
  </desc>
  <g id="Free Remix/Programming/Programming/Clouds/cloud-share--cloud-network-internet-server-share">
    <path id="Union" fill="#000000" fill-rule="evenodd" d="M17.15633142857143 2.3100377142857145C20.099657142857144 0.46895657142857144 23.58517714285714 -0.3074441142857143 27.031679999999998 0.11031154285714286 30.47814857142857 0.5280685714285713 33.67724571428571 2.1147291428571426 36.09565714285714 4.605702857142856c2.1949714285714284 2.2612114285714284 3.6264000000000003 5.143577142857143 4.107771428571428 8.242285714285714 2.309142857142857 0.7594285714285713 4.322742857142857 2.2443771428571426 5.731885714285713 4.246354285714285 1.5980571428571428 2.2700228571428567 2.308114285714286 5.047165714285714 1.9957714285714283 7.80558857142857 -0.312 2.758422857142857 -1.6247999999999998 5.306605714285714 -3.6898285714285715 7.16208 -0.8801142857142856 0.79104 -2.2350857142857143 0.718662857142857 -3.026057142857143 -0.16158857142857141 -0.7909714285714284 -0.8802857142857141 -0.7186285714285714 -2.2351542857142856 0.1614857142857143 -3.02616 1.2850285714285714 -1.154502857142857 2.1017142857142854 -2.7400114285714285 2.2961142857142853 -4.45632 0.19405714285714284 -1.7162742857142856 -0.24754285714285712 -3.4442399999999997 -1.2418285714285715 -4.856674285714286 -0.9942857142857142 -1.4123999999999999 -2.472 -2.4112114285714283 -4.153371428571428 -2.8073142857142854 -0.04045714285714285 -0.0096 -0.08125714285714285 -0.0204 -0.12137142857142857 -0.0324 -0.5430857142857143 -0.16203428571428571 -1.0282285714285713 -0.47605714285714285 -1.3988571428571428 -0.9050057142857142 -0.3702857142857143 -0.4289485714285714 -0.6102857142857142 -0.9548914285714285 -0.6915428571428571 -1.5157714285714285 -0.005485714285714286 -0.037405714285714285 -0.009942857142857142 -0.07498285714285714 -0.01337142857142857 -0.11262857142857141 -0.22628571428571428 -2.4810857142857143 -1.2966857142857142 -4.809634285714285 -3.0319885714285713 -6.597222857142857 -1.7354057142857144 -1.787588571428571 -4.031177142857143 -2.9262514285714283 -6.504514285714285 -3.226045714285714 -2.473302857142857 -0.29979428571428574 -4.974651428571428 0.25738285714285714 -7.086891428571428 1.5786171428571427 -2.11224 1.3212 -3.707691428571428 3.326605714285714 -4.520297142857142 5.681794285714285 -0.02869714285714286 0.08314285714285714 -0.06246857142857143 0.16443428571428573 -0.10114285714285713 0.24342857142857138 -0.24418285714285715 0.49872 -0.6259885714285713 0.9171428571428571 -1.1003314285714285 1.2058628571428571 -0.43707428571428575 0.2660571428571428 -0.9358971428571428 0.41173714285714286 -1.4459314285714284 0.4234628571428571 -1.1080457142857143 0.08214857142857142 -2.1899314285714286 0.3778628571428571 -3.186 0.8710285714285714 -1.014 0.5020457142857143 -1.919177142857143 1.198902857142857 -2.663862857142857 2.0507999999999997 -1.503942857142857 1.7204228571428568 -2.262822857142857 3.967851428571428 -2.1097371428571425 6.2478171428571425 0.1530857142857143 2.28 1.2055885714285715 4.4057828571428574 2.9260457142857144 5.909725714285714 0.8910171428571428 0.7789028571428571 0.9819085714285714 2.13264 0.20300571428571426 3.0236571428571426s-2.132605714285714 0.9819085714285714 -3.0236228571428567 0.20300571428571426C1.8309668571428568 29.552057142857144 0.2548906285714285 26.36886857142857 0.025659874285714285 22.9548 -0.20357074285714283 19.540731428571426 0.9328217142857143 16.175451428571428 3.184844571428571 13.599222857142856c1.1150982857142857 -1.2755999999999998 2.4705154285714284 -2.319085714285714 3.988858285714285 -3.070868571428571 1.2711771428571428 -0.6293828571428571 2.6357142857142857 -1.0439999999999998 4.038308571428571 -1.2289371428571427 1.209702857142857 -2.879725714285714 3.2825142857142855 -5.3244 5.944319999999999 -6.989379428571428ZM16.571725714285716 29.57142857142857c-3.1559314285714284 0 -5.714297142857143 2.5583657142857144 -5.714297142857143 5.7143999999999995 0 3.1556571428571427 2.5583657142857144 5.7140571428571425 5.714297142857143 5.7140571428571425 1.392377142857143 0 2.6684571428571426 -0.4978285714285714 3.6597942857142853 -1.3254857142857142l5.509028571428571 2.0513142857142856c-0.01793142857142857 0.1841142857142857 -0.027085714285714286 0.37097142857142856 -0.027085714285714286 0.5598857142857142 0 3.1559999999999997 2.5583657142857144 5.7143999999999995 5.714262857142857 5.7143999999999995 3.1559314285714284 0 5.714331428571428 -2.5584 5.714331428571428 -5.7143999999999995 0 -3.1556571428571427 -2.5584 -5.7140571428571425 -5.714331428571428 -5.7140571428571425 -1.3963542857142857 0 -2.675725714285714 0.5005714285714286 -3.6682628571428566 1.3326857142857143l-5.501554285714286 -2.0485714285714285c0.018582857142857144 -0.18754285714285712 0.028079999999999997 -0.37748571428571426 0.028079999999999997 -0.5698285714285714 0 -0.19268571428571427 -0.009531428571428571 -0.3829714285714285 -0.028114285714285717 -0.5705142857142856l5.50104 -2.0483314285714287c0.99264 0.8321142857142857 2.272217142857143 1.3331657142857143 3.668811428571429 1.3331657142857143 3.1559314285714284 0 5.714331428571428 -2.5583657142857144 5.714331428571428 -5.714297142857143 0 -3.1558971428571425 -2.5584 -5.714297142857143 -5.714331428571428 -5.714297142857143 -3.1558971428571425 0 -5.714262857142857 2.5584 -5.714262857142857 5.714297142857143 0 0.18877714285714284 0.009154285714285714 0.3754285714285714 0.027017142857142854 0.5595085714285714l-5.509371428571428 2.0513142857142856c-0.991302857142857 -0.8273828571428571 -2.2672114285714287 -1.3252457142857141 -3.659382857142857 -1.3252457142857141Z" clip-rule="evenodd" stroke-width="3.4286"></path>
  </g>
</svg>