<svg xmlns="http://www.w3.org/2000/svg" fill="none" viewBox="0 0 48 48" id="Cloud-Gaming-1--Streamline-Core-Remix" height="48" width="48">
  <desc>
    Cloud Gaming 1 Streamline Icon: https://streamlinehq.com
  </desc>
  <g id="Free Remix/Entertainment/cloud-gaming-1--entertainment-cloud-gaming">
    <path id="Union" fill="#000000" fill-rule="evenodd" d="M4.285714285714286 24.000102857142856c0 -7.4553257142857134 6.0335657142857135 -13.493417142857142 13.469382857142858 -13.493417142857142 4.531337142857143 0 8.541634285714284 2.239645714285714 10.986857142857142 5.685462857142857 0.50496 0.7115657142857142 1.3909371428571429 1.04592 2.240125714285714 0.8453485714285713 0.7636799999999999 -0.18037714285714285 1.5618857142857143 -0.2763085714285714 2.3852571428571427 -0.2763085714285714 5.711519999999999 0 10.346948571428571 4.637999999999999 10.346948571428571 10.366182857142856 0 5.728148571428571 -4.635428571428571 10.366114285714286 -10.346948571428571 10.366114285714286H17.755097142857142C10.319280000000001 37.49348571428572 4.285714285714286 31.45542857142857 4.285714285714286 24.000102857142856Zm13.469382857142858 -17.77913142857143C7.946125714285714 6.220971428571428 0 14.18406857142857 0 24.000102857142856s7.946125714285714 17.779097142857143 17.755097142857142 17.779097142857143h15.612239999999998C41.451771428571426 41.7792 48 35.216228571428566 48 27.127371428571426c0 -8.088925714285713 -6.548228571428571 -14.651897142857141 -14.632662857142856 -14.651897142857141 -0.6706285714285714 0 -1.3315885714285713 0.04532571428571429 -1.9798285714285715 0.1332342857142857 -3.2538171428571427 -3.9002399999999997 -8.152525714285714 -6.387737142857143 -13.632411428571427 -6.387737142857143Zm0.6746742857142857 14.839302857142856c0 -1.420182857142857 -1.1512799999999999 -2.571428571428571 -2.571428571428571 -2.571428571428571 -1.420182857142857 0 -2.571428571428571 1.1512457142857142 -2.571428571428571 2.571428571428571v2.11224h-2.11224c-1.420182857142857 0 -2.571428571428571 1.1512799999999999 -2.571428571428571 2.571428571428571s1.1512457142857142 2.571428571428571 2.571428571428571 2.571428571428571h2.11224v2.11224c0 1.4201485714285715 1.1512457142857142 2.571428571428571 2.571428571428571 2.571428571428571 1.4201485714285715 0 2.571428571428571 -1.1512799999999999 2.571428571428571 -2.571428571428571v-2.11224h2.11224c1.4201485714285715 0 2.571428571428571 -1.1512799999999999 2.571428571428571 -2.571428571428571s-1.1512799999999999 -2.571428571428571 -2.571428571428571 -2.571428571428571h-2.11224v-2.11224Zm11.816434285714285 7.947737142857143c-1.3792114285714285 -0.041588571428571426 -2.4844799999999996 -1.172742857142857 -2.4844799999999996 -2.562 0 -1.415622857142857 1.1475771428571429 -2.5632 2.5631657142857143 -2.5632 0.026365714285714284 0 0.05259428571428571 0.00047999999999999996 0.07872 0.0014057142857142855 1.3790742857142855 0.04176 2.4842400000000002 1.1728114285714284 2.4842400000000002 2.562 0 1.415622857142857 -1.1475771428571429 2.5632 -2.5632 2.5632 -0.026262857142857143 0 -0.05242285714285714 -0.00047999999999999996 -0.07844571428571429 -0.0014057142857142855Zm8.872079999999999 0.00003428571428571428c-1.3796571428571427 -0.04110857142857143 -2.4853714285714283 -1.1724342857142855 -2.4853714285714283 -2.5620342857142857 0 -1.415622857142857 1.147542857142857 -2.5632 2.5632 -2.5632 0.026057142857142855 0 0.05177142857142857 0.00047999999999999996 0.07782857142857143 0.0014057142857142855 1.3793142857142857 0.041211428571428566 2.4850285714285714 1.172502857142857 2.4850285714285714 2.562 0 1.415622857142857 -1.147542857142857 2.5632 -2.5632 2.5632 -0.02571428571428571 0 -0.05177142857142857 -0.00047999999999999996 -0.07748571428571428 -0.0013714285714285714Zm-4.367999999999999 -4.359874285714286c-1.3724914285714285 -0.04896 -2.470148571428571 -1.1770628571428572 -2.470148571428571 -2.5615542857142857 0 -1.4155885714285714 1.1475771428571429 -2.5631657142857143 2.563062857142857 -2.5631657142857143 0.0312 0 0.0624 0.0006514285714285715 0.09325714285714284 0.001954285714285714 1.3724571428571428 0.04902857142857143 2.469942857142857 1.1770971428571428 2.469942857142857 2.5615542857142857 0 1.4155885714285714 -1.147542857142857 2.5631657142857143 -2.5632 2.5631657142857143 -0.0312 0 -0.06205714285714286 -0.0006514285714285715 -0.0929142857142857 -0.001954285714285714Zm0.1906285714285714 8.870537142857142c-0.032228571428571426 0.0014742857142857142 -0.0648 0.002194285714285714 -0.09771428571428571 0.002194285714285714 -1.4154857142857142 0 -2.563062857142857 -1.1475771428571429 -2.563062857142857 -2.5632 0 -1.3828457142857142 1.09512 -2.5099542857142856 2.4653485714285712 -2.5613485714285713 0.03257142857142857 -0.0014399999999999999 0.06514285714285714 -0.002194285714285714 0.09771428571428571 -0.002194285714285714 1.4156571428571427 0 2.5632 1.1475771428571429 2.5632 2.5632 0 1.3828799999999999 -1.0950857142857142 2.5099542857142856 -2.465485714285714 2.5613485714285713Z" clip-rule="evenodd" stroke-width="3.4286"></path>
  </g>
</svg>