<svg xmlns="http://www.w3.org/2000/svg" fill="none" viewBox="0 0 48 48" id="Cloud-Refresh--Streamline-Core-Remix" height="48" width="48">
  <desc>
    Cloud Refresh Streamline Icon: https://streamlinehq.com
  </desc>
  <g id="Free Remix/Programming/Programming/Clouds/cloud-refresh--cloud-network-internet-server-refresh">
    <path id="Union" fill="#000000" fill-rule="evenodd" d="M17.15633142857143 2.3100377142857145C20.099657142857144 0.46895657142857144 23.58517714285714 -0.3074441142857143 27.031679999999998 0.11031154285714286 30.47814857142857 0.5280685714285713 33.67724571428571 2.1147291428571426 36.09565714285714 4.605702857142856c2.1949714285714284 2.2612114285714284 3.6264000000000003 5.143577142857143 4.107771428571428 8.242285714285714 2.309142857142857 0.7594285714285713 4.322742857142857 2.2443771428571426 5.731885714285713 4.246354285714285 1.5980571428571428 2.2700228571428567 2.308114285714286 5.047165714285714 1.9957714285714283 7.80558857142857 -0.312 2.758422857142857 -1.6247999999999998 5.306605714285714 -3.6898285714285715 7.16208 -0.6322285714285715 0.5683199999999999 -1.3220571428571428 1.0596342857142858 -2.054057142857143 1.4682514285714285 -1.0337142857142856 0.5766857142857142 -2.3389714285714285 0.20639999999999997 -2.915657142857143 -0.8270742857142857 -0.5766857142857142 -1.03344 -0.20639999999999997 -2.3387314285714287 0.8269714285714285 -2.9154171428571427 0.4556571428571428 -0.25416 0.8845714285714286 -0.5598171428571429 1.2781714285714285 -0.9135085714285714 1.2850285714285714 -1.154502857142857 2.1017142857142854 -2.7400114285714285 2.2961142857142853 -4.45632 0.19405714285714284 -1.7162742857142856 -0.24754285714285712 -3.4442399999999997 -1.2418285714285715 -4.856674285714286 -0.9942857142857142 -1.4123999999999999 -2.472 -2.4112114285714283 -4.153371428571428 -2.8073142857142854 -0.04045714285714285 -0.0096 -0.08125714285714285 -0.0204 -0.12137142857142857 -0.0324 -0.5430857142857143 -0.16203428571428571 -1.0282285714285713 -0.47605714285714285 -1.3988571428571428 -0.9050057142857142 -0.3702857142857143 -0.4289485714285714 -0.6102857142857142 -0.9548914285714285 -0.6915428571428571 -1.5157714285714285 -0.005485714285714286 -0.037405714285714285 -0.009942857142857142 -0.07498285714285714 -0.01337142857142857 -0.11262857142857141 -0.22628571428571428 -2.4810857142857143 -1.2966857142857142 -4.809634285714285 -3.0319885714285713 -6.597222857142857 -1.7354057142857144 -1.787588571428571 -4.031177142857143 -2.9262514285714283 -6.504514285714285 -3.226045714285714 -2.473302857142857 -0.29979428571428574 -4.974651428571428 0.25738285714285714 -7.086891428571428 1.5786171428571427 -2.11224 1.3212 -3.707691428571428 3.326605714285714 -4.520297142857142 5.681794285714285 -0.02869714285714286 0.08314285714285714 -0.06246857142857143 0.16443428571428573 -0.10114285714285713 0.24342857142857138 -0.24418285714285715 0.49872 -0.6259885714285713 0.9171428571428571 -1.1003314285714285 1.2058628571428571 -0.43707428571428575 0.2660571428571428 -0.9358971428571428 0.41173714285714286 -1.4459314285714284 0.4234628571428571 -1.1080457142857143 0.08214857142857142 -2.1899314285714286 0.3778628571428571 -3.186 0.8710285714285714 -1.014 0.5020457142857143 -1.919177142857143 1.198902857142857 -2.663862857142857 2.0507999999999997 -1.503942857142857 1.7204228571428568 -2.262822857142857 3.967851428571428 -2.1097371428571425 6.2478171428571425 0.1530857142857143 2.28 1.2055885714285715 4.4057828571428574 2.9260457142857144 5.909725714285714 0.4482514285714285 0.3918514285714286 0.9326742857142857 0.7225028571428571 1.4488114285714284 0.9976457142857142 1.0443771428571427 0.5566971428571428 1.4396571428571427 1.8546171428571427 0.8829599999999999 2.8989599999999998 -0.5567314285714285 1.0443771428571427 -1.8546514285714284 1.4396571428571427 -2.898994285714285 0.8829599999999999 -0.7940571428571428 -0.42332571428571425 -1.5501599999999998 -0.9381599999999999 -2.2533942857142857 -1.5529028571428571C1.8309668571428568 29.552057142857144 0.2548906285714285 26.36886857142857 0.025659874285714285 22.9548 -0.20357074285714283 19.540731428571426 0.9328217142857143 16.175451428571428 3.184844571428571 13.599222857142856c1.1150982857142857 -1.2755999999999998 2.4705154285714284 -2.319085714285714 3.988858285714285 -3.070868571428571 1.2711771428571428 -0.6293828571428571 2.6357142857142857 -1.0439999999999998 4.038308571428571 -1.2289371428571427 1.209702857142857 -2.879725714285714 3.2825142857142855 -5.3244 5.944319999999999 -6.989379428571428ZM23.142034285714285 30.857142857142854c-3.5504228571428564 0 -6.428571428571428 2.878182857142857 -6.428571428571428 6.428571428571428 0 3.5502857142857143 2.878148571428571 6.428571428571428 6.428571428571428 6.428571428571428 1.587942857142857 0 3.036582857142857 -0.5729142857142857 4.158651428571428 -1.5260571428571428 0.902022857142857 -0.7662857142857142 2.25432 -0.6562285714285714 3.0204685714285713 0.24582857142857142s0.6560571428571428 2.254285714285714 -0.24596571428571426 3.0205714285714285C28.20757714285714 47.04102857142857 25.78405714285714 48 23.142034285714285 48c-5.917337142857142 0 -10.714285714285714 -4.796914285714285 -10.714285714285714 -10.714285714285714 0 -5.917337142857142 4.796948571428572 -10.714285714285714 10.714285714285714 -10.714285714285714 3.0822514285714284 0 5.858228571428571 1.3010742857142856 7.811725714285714 3.381805714285714l1.5654171428571426 -0.9783771428571428c0.6210857142857142 -0.3881828571428571 1.4202171428571428 -0.33887999999999996 1.9890514285714285 0.12270857142857143 0.5684571428571429 0.4615885714285714 0.7810285714285714 1.2334971428571426 0.5290285714285714 1.921165714285714l-1.885782857142857 5.142754285714285c-0.2850171428571428 0.7776 -1.0848685714285713 1.2401142857142857 -1.9007657142857144 1.0992l-4.971394285714285 -0.8571428571428571c-0.70056 -0.12068571428571429 -1.253862857142857 -0.6613714285714285 -1.3908685714285713 -1.358742857142857 -0.1370057142857143 -0.6977142857142856 0.1707428571428571 -1.4074628571428571 0.7735885714285714 -1.7842285714285713l1.5380571428571428 -0.9612685714285714C26.09262857142857 31.39724571428571 24.679542857142856 30.857142857142854 23.142034285714285 30.857142857142854Z" clip-rule="evenodd" stroke-width="3.4286"></path>
  </g>
</svg>