<svg xmlns="http://www.w3.org/2000/svg" fill="none" viewBox="0 0 48 48" id="Clubs-Symbol--Streamline-Core-Remix" height="48" width="48">
  <desc>
    Clubs Symbol Streamline Icon: https://streamlinehq.com
  </desc>
  <g id="Free Remix/Entertainment/clubs-symbol--entertainment-gaming-card-clubs-symbol">
    <path id="Ellipse 311 (Stroke)" fill="#000000" fill-rule="evenodd" d="M24 4.285714285714286c-3.989965714285714 0 -7.224479999999999 3.2345142857142855 -7.224479999999999 7.224479999999999 0 1.8798171428571426 0.7121142857142857 4.2809485714285715 1.9692 6.354068571428571 0.48294857142857145 0.7964571428571429 0.3960685714285714 1.8136799999999997 -0.21493714285714283 2.5167085714285715 -0.6109714285714285 0.7030285714285714 -1.6061485714285713 0.9308571428571428 -2.46216 0.5636571428571427 -1.6031314285714284 -0.6876685714285714 -3.2238171428571425 -1.0466742857142857 -4.557428571428571 -1.0466742857142857 -3.989965714285714 0 -7.224479999999999 3.2345142857142855 -7.224479999999999 7.224479999999999 0 3.99 3.2345142857142855 7.224651428571429 7.224479999999999 7.224651428571429 1.97664 0 4.5203999999999995 -0.7870628571428571 6.648617142857142 -2.1531085714285716 0.7245599999999999 -0.46505142857142856 1.6570628571428572 -0.4513371428571429 2.3676 0.03483428571428571 0.7105371428571429 0.4861714285714286 1.0611085714285713 1.3503771428571427 0.8900571428571428 2.194045714285714l-1.8832799999999996 9.29142857142857h8.933622857142858l-1.8832799999999996 -9.29142857142857c-0.17105142857142855 -0.8436685714285714 0.17951999999999999 -1.7078742857142857 0.8900571428571428 -2.194045714285714 0.7105371428571429 -0.4861714285714286 1.6430399999999998 -0.4998857142857143 2.3676 -0.03483428571428571 2.128217142857143 1.3660457142857143 4.6718399999999995 2.1531085714285716 6.648754285714285 2.1531085714285716 3.9898285714285713 0 7.224342857142856 -3.234651428571428 7.224342857142856 -7.224651428571429 0 -3.989965714285714 -3.2345142857142855 -7.224479999999999 -7.224342857142856 -7.224479999999999 -1.3337142857142856 0 -2.9544342857142856 0.35900571428571426 -4.557565714285714 1.0466742857142857 -0.8560114285714285 0.36719999999999997 -1.8511885714285714 0.13937142857142856 -2.46216 -0.5636571428571427 -0.6110057142857143 -0.7030285714285714 -0.6978514285714286 -1.7202514285714283 -0.21493714285714283 -2.5167085714285715 1.2570857142857141 -2.07312 1.9692 -4.474251428571429 1.9692 -6.354068571428571C31.224479999999996 7.5202285714285715 27.989965714285717 4.285714285714286 24 4.285714285714286ZM12.489805714285714 11.510194285714284C12.489805714285714 5.15328 17.643085714285714 0 24 0c6.356914285714286 0 11.510057142857143 5.15328 11.510057142857143 11.510194285714284 0 1.353702857142857 -0.2345142857142857 2.7905485714285714 -0.6555428571428571 4.208708571428572 0.5523428571428571 -0.06994285714285714 1.099542857142857 -0.10666285714285713 1.6354285714285712 -0.10666285714285713C42.84685714285714 15.612239999999998 48 20.765554285714284 48 27.122434285714284c0 6.356914285714286 -5.153142857142856 11.510365714285713 -11.510057142857143 11.510365714285713 -1.557942857142857 0 -3.2279657142857143 -0.31097142857142857 -4.854685714285714 -0.8605714285714285l1.5524914285714284 7.659085714285714c0.12774857142857143 0.6301714285714285 -0.03425142857142857 1.284342857142857 -0.44122285714285714 1.7821714285714285 -0.40697142857142854 0.4978285714285714 -1.0159542857142856 0.7865142857142856 -1.6589142857142856 0.7865142857142856H16.912388571428572c-0.64296 0 -1.251942857142857 -0.28868571428571427 -1.6589142857142856 -0.7865142857142856 -0.40697142857142854 -0.4978285714285714 -0.5689714285714285 -1.152 -0.44122285714285714 -1.7821714285714285l1.5524914285714284 -7.659085714285714c-1.62672 0.5496 -3.2968114285714285 0.8605714285714285 -4.854548571428571 0.8605714285714285C5.15328 38.632799999999996 0 33.479348571428574 0 27.122434285714284c0 -6.356879999999999 5.15328 -11.510194285714284 11.510194285714284 -11.510194285714284 0.5356114285714285 0 1.0827771428571427 0.03672 1.6351885714285714 0.10666285714285713 -0.42096 -1.4181599999999999 -0.6555771428571427 -2.855005714285714 -0.6555771428571427 -4.208708571428572Z" clip-rule="evenodd" stroke-width="3.4286"></path>
  </g>
</svg>