<svg xmlns="http://www.w3.org/2000/svg" fill="none" viewBox="0 0 48 48" id="Cocktail--Streamline-Core-Remix" height="48" width="48">
  <desc>
    Cocktail Streamline Icon: https://streamlinehq.com
  </desc>
  <g id="Free Remix/Food Drink/cocktail--cook-alcohol-food-cocktail-drink-cooking-nutrition-alcoholic-beverage-glass">
    <path id="Union" fill="#000000" fill-rule="evenodd" d="M7.690354285714285 0C5.099931428571428 0 3 2.099941714285714 3 4.690354285714285c0 1.0509257142857142 0.3529508571428571 2.07144 1.00224 2.8977942857142853L21.857142857142858 30.312582857142857V43.714285714285715H13.714285714285714c-1.1834742857142857 0 -2.142857142857143 0.9593142857142857 -2.142857142857143 2.142857142857143S12.530811428571427 48 13.714285714285714 48h20.57142857142857c1.183542857142857 0 2.142857142857143 -0.9593142857142857 2.142857142857143 -2.142857142857143s-0.9593142857142857 -2.142857142857143 -2.142857142857143 -2.142857142857143H26.142857142857142V30.31254857142857l17.854971428571428 -22.7244c0.6493714285714286 -0.8263885714285714 1.0021714285714285 -1.8468685714285713 1.0021714285714285 -2.8977942857142853C45 2.0999382857142854 42.9 0 40.309714285714286 0H7.690354285714285ZM7.285714285714286 4.690354285714285c0 -0.2234742857142857 0.18116571428571426 -0.40464 0.40464 -0.40464H40.309714285714286c0.2235428571428571 0 0.4045714285714285 0.18116571428571426 0.4045714285714285 0.40464 0 0.09065142857142858 -0.030514285714285713 0.17869714285714283 -0.08639999999999999 0.24997714285714284L34.74411428571428 12.428571428571427H13.255782857142856L7.372182857142857 4.940331428571429c-0.05602285714285714 -0.07128 -0.08646857142857142 -0.15932571428571426 -0.08646857142857142 -0.24997714285714284Z" clip-rule="evenodd" stroke-width="3.4286"></path>
  </g>
</svg>