<svg xmlns="http://www.w3.org/2000/svg" fill="none" viewBox="0 0 48 48" id="Code-Monitor-1--Streamline-Core-Remix" height="48" width="48">
  <desc>
    Code Monitor 1 Streamline Icon: https://streamlinehq.com
  </desc>
  <g id="Free Remix/Programming/Programming/Browser/code-monitor-1--code-tags-angle-bracket-monitor">
    <path id="Union" fill="#000000" fill-rule="evenodd" d="M4.285714285714286 33.42857142857142v-27.428571428571427h39.42857142857142v27.428571428571427H4.285714285714286ZM3.8571428571428568 1.7142857142857142C1.726902857142857 1.7142857142857142 0 3.441188571428571 0 5.571428571428571v28.285714285714285C0 35.987314285714284 1.726902857142857 37.714285714285715 3.8571428571428568 37.714285714285715h14.18221714285714l-1.8857142857142857 4.714285714285714H13.714285714285714c-1.1834742857142857 0 -2.142857142857143 0.9593142857142857 -2.142857142857143 2.142857142857143s0.9593828571428571 2.142857142857143 2.142857142857143 2.142857142857143h20.57142857142857c1.183542857142857 0 2.142857142857143 -0.9593142857142857 2.142857142857143 -2.142857142857143s-0.9593142857142857 -2.142857142857143 -2.142857142857143 -2.142857142857143h-2.4393599999999998l-1.8857142857142857 -4.714285714285714H44.14285714285714C46.27302857142857 37.714285714285715 48 35.987314285714284 48 33.857142857142854v-28.285714285714285C48 3.441188571428571 46.27302857142857 1.7142857142857142 44.14285714285714 1.7142857142857142H3.8571428571428568Zm12.965965714285714 14.91270857142857c0.8985599999999999 -0.7701942857142857 1.0026171428571429 -2.123005714285714 0.23245714285714283 -3.021531428571428 -0.7701942857142857 -0.8985599999999999 -2.123005714285714 -1.0026171428571429 -3.021531428571428 -0.23245714285714283l-6 5.142857142857142c-0.47890285714285713 0.4105028571428571 -0.75264 1.01112 -0.7482514285714285 1.6418742857142856 0.004354285714285714 0.6307200000000001 0.28642285714285715 1.2274971428571428 0.7709485714285714 1.6313142857142857l5.142857142857142 4.285714285714286c0.9091885714285715 0.7576457142857143 2.2603885714285714 0.6348 3.0180342857142857 -0.27435428571428566 0.7576457142857143 -0.9091885714285715 0.6348 -2.2603885714285714 -0.27435428571428566 -3.0180342857142857l-3.1951199999999997 -2.66256 4.07496 -3.492822857142857Zm14.959268571428572 -2.9988342857142856c0.7576457142857143 -0.9091542857142857 2.108845714285714 -1.0319999999999998 3.0179657142857144 -0.27435428571428566l5.142857142857142 4.285714285714286c0.48445714285714286 0.4038171428571428 0.7666285714285713 1.0005942857142855 0.7710857142857142 1.6313142857142857 0.004457142857142857 0.6307542857142857 -0.2694857142857143 1.2313714285714286 -0.7484571428571428 1.6418742857142856l-5.9998628571428565 5.142857142857142c-0.8985257142857144 0.77016 -2.251337142857143 0.6661028571428571 -3.0214971428571427 -0.23245714285714283 -0.7701942857142857 -0.8985257142857144 -0.6661371428571428 -2.251337142857143 0.23242285714285715 -3.021531428571428l4.074994285714285 -3.492822857142857 -3.1951542857142856 -2.66256c-0.9091542857142857 -0.7576457142857143 -1.0319999999999998 -2.108845714285714 -0.27435428571428566 -3.0180342857142857Zm-3.178045714285714 -0.9505371428571427c0.3742285714285714 -1.12272 -0.23252571428571428 -2.3362628571428568 -1.3552799999999998 -2.710525714285714 -1.12272 -0.3742285714285714 -2.3362628571428568 0.23252571428571428 -2.710525714285714 1.3552799999999998l-5.142857142857142 15.428571428571427c-0.3742285714285714 1.12272 0.23252571428571428 2.3362628571428568 1.3552799999999998 2.710525714285714 1.12272 0.3742285714285714 2.3362628571428568 -0.23252571428571428 2.710525714285714 -1.3552799999999998l5.142857142857142 -15.428571428571427Z" clip-rule="evenodd" stroke-width="3.4286"></path>
  </g>
</svg>