<svg xmlns="http://www.w3.org/2000/svg" fill="none" viewBox="0 0 48 48" id="Code-Monitor-2--Streamline-Core-Remix" height="48" width="48">
  <desc>
    Code Monitor 2 Streamline Icon: https://streamlinehq.com
  </desc>
  <g id="Free Remix/Programming/Programming/Browser/code-monitor-2--code-tags-angle-image-ui-ux-design">
    <path id="Union" fill="#000000" fill-rule="evenodd" d="M4.285714285714286 6v27.428571428571427h19.285714285714285v-27.428571428571427H4.285714285714286Zm27.56064 36.42857142857142H34.285714285714285c1.183542857142857 0 2.142857142857143 0.9593142857142857 2.142857142857143 2.142857142857143s-0.9593142857142857 2.142857142857143 -2.142857142857143 2.142857142857143H13.714285714285714c-1.1834742857142857 0 -2.142857142857143 -0.9593142857142857 -2.142857142857143 -2.142857142857143s0.9593828571428571 -2.142857142857143 2.142857142857143 -2.142857142857143h2.4393599999999998l1.8857142857142857 -4.714285714285714H3.8571428571428568C1.726902857142857 37.714285714285715 0 35.987314285714284 0 33.857142857142854v-28.285714285714285C0 3.441188571428571 1.726902857142857 1.7142857142857142 3.8571428571428568 1.7142857142857142h40.285714285714285C46.27302857142857 1.7142857142857142 48 3.441188571428571 48 5.571428571428571v28.285714285714285c0 2.1301714285714284 -1.7269714285714286 3.8571428571428568 -3.8571428571428568 3.8571428571428568H29.960639999999998l1.8857142857142857 4.714285714285714ZM43.714285714285715 33.42857142857142V25.132662857142854L38.605714285714285 20.57142857142857c-1.229485714285714 -1.0173942857142857 -2.7754285714285714 -1.5740571428571428 -4.371428571428571 -1.5740571428571428 -1.5959314285714286 0 -3.1418399999999997 0.5566628571428571 -4.371428571428571 1.5740571428571428l-2.0057142857142853 1.6576114285714285V33.42857142857142h15.857142857142856ZM10.285714285714285 11.571428571428571c-1.1834742857142857 0 -2.142857142857143 0.9593828571428571 -2.142857142857143 2.142857142857143s0.9593828571428571 2.142857142857143 2.142857142857143 2.142857142857143h6.857142857142857c1.1834742857142857 0 2.142857142857143 -0.9593828571428571 2.142857142857143 -2.142857142857143S18.32633142857143 11.571428571428571 17.142857142857142 11.571428571428571H10.285714285714285ZM8.142857142857142 22.285714285714285c0 -1.1834742857142857 0.9593828571428571 -2.142857142857143 2.142857142857143 -2.142857142857143h3.4285714285714284c1.1834742857142857 0 2.142857142857143 0.9593828571428571 2.142857142857143 2.142857142857143s-0.9593828571428571 2.142857142857143 -2.142857142857143 2.142857142857143H10.285714285714285c-1.1834742857142857 0 -2.142857142857143 -0.9593828571428571 -2.142857142857143 -2.142857142857143Z" clip-rule="evenodd" stroke-width="3.4286"></path>
  </g>
</svg>