<svg xmlns="http://www.w3.org/2000/svg" fill="none" viewBox="0 0 48 48" id="Code-Analysis--Streamline-Core-Remix" height="48" width="48">
  <desc>
    Code Analysis Streamline Icon: https://streamlinehq.com
  </desc>
  <g id="Free Remix/Programming/Programming/Script/code-analysis">
    <path id="Union" fill="#000000" fill-rule="evenodd" d="M22.285714285714285 4.285714285714286c-9.941142857142857 0 -18 8.058857142857141 -18 18s8.058857142857141 18 18 18 18 -8.058857142857141 18 -18S32.22685714285714 4.285714285714286 22.285714285714285 4.285714285714286ZM0 22.285714285714285C0 9.977657142857142 9.977657142857142 0 22.285714285714285 0 34.593942857142856 0 44.57142857142857 9.977657142857142 44.57142857142857 22.285714285714285c0 4.917154285714285 -1.5925714285714285 9.462342857142858 -4.289828571428571 13.147885714285714l6.714171428571428 6.714171428571428c1.3388571428571427 1.3392 1.3388571428571427 3.5098285714285713 0 4.848685714285714 -1.3388571428571427 1.3392 -3.5098285714285713 1.3392 -4.848685714285714 0l-6.714514285714285 -6.714171428571428C31.74726857142857 42.9792 27.202422857142857 44.57142857142857 22.285714285714285 44.57142857142857 9.977657142857142 44.57142857142857 0 34.593942857142856 0 22.285714285714285Zm19.818274285714285 -5.038868571428571c1.0041942857142856 -1.0041942857142856 1.0041942857142856 -2.6323542857142854 0 -3.636548571428571s-2.6323542857142854 -1.0041942857142856 -3.636548571428571 0l-6.857142857142857 6.857142857142857c-1.0041942857142856 1.0041942857142856 -1.0041942857142856 2.6323542857142854 0 3.636548571428571l6.857142857142857 6.857142857142857c1.0041942857142856 1.0041942857142856 2.6323542857142854 1.0041942857142856 3.636548571428571 0s1.0041942857142856 -2.6323542857142854 0 -3.636548571428571L14.779405714285716 22.285714285714285l5.038868571428571 -5.038868571428571Zm8.571428571428571 -3.636548571428571c-1.0041942857142856 -1.0041942857142856 -2.6323542857142854 -1.0041942857142856 -3.636548571428571 0s-1.0041942857142856 2.6323542857142854 0 3.636548571428571L29.792022857142854 22.285714285714285 24.753154285714285 27.324582857142854c-1.0041942857142856 1.0041942857142856 -1.0041942857142856 2.6323542857142854 0 3.636548571428571s2.6323542857142854 1.0041942857142856 3.636548571428571 0l6.85704 -6.857142857142857c1.0042285714285712 -1.0041942857142856 1.0042285714285712 -2.6323542857142854 0 -3.636548571428571l-6.85704 -6.857142857142857Z" clip-rule="evenodd" stroke-width="3.4286"></path>
  </g>
</svg>