<svg xmlns="http://www.w3.org/2000/svg" fill="none" viewBox="0 0 48 48" id="Coffee-Bean--Streamline-Core-Remix" height="48" width="48">
  <desc>
    Coffee Bean Streamline Icon: https://streamlinehq.com
  </desc>
  <g id="Free Remix/Food Drink/coffee-bean--cook-cooking-nutrition-coffee-bean">
    <path id="Union" fill="#000000" fill-rule="evenodd" d="M36.96754285714285 7.936491428571428c-6.1968 -4.243371428571428 -16.455874285714284 -2.8351542857142857 -24.160834285714284 4.8698057142857145C5.9885142857142855 19.624491428571428 4.1010857142857144 28.44277714285714 6.6973714285714285 34.67622857142857c2.029885714285714 -4.6859657142857145 4.3316228571428566 -7.783714285714285 6.950845714285714 -9.839931428571427 3.329965714285714 -2.614217142857143 6.840788571428571 -3.2495999999999996 9.648994285714286 -3.7578171428571427l0.16806857142857143 -0.030445714285714288c2.922617142857143 -0.5297828571428571 5.095748571428571 -0.9658628571428571 7.182239999999999 -2.603931428571429 1.9822971428571425 -1.5562285714285715 4.1946514285714285 -4.471851428571428 6.320022857142857 -10.507611428571428ZM11.033074285714285 40.063542857142856c6.196868571428571 4.2432 16.456045714285715 2.835085714285714 24.161211428571427 -4.869942857142857 6.818057142857143 -6.818194285714285 8.705485714285713 -15.63661714285714 6.1090285714285715 -21.870171428571428 -2.0297142857142854 4.686034285714285 -4.331657142857143 7.783817142857143 -6.950742857142856 9.84006857142857 -3.3300342857142855 2.6143199999999998 -6.8409257142857145 3.249702857142857 -9.649131428571428 3.75792l-0.16796571428571427 0.03041142857142857c-2.922685714285714 0.5297828571428571 -5.095748571428571 0.9658628571428571 -7.182274285714286 2.6038971428571425 -1.9822971428571425 1.5561942857142856 -4.1946514285714285 4.471817142857143 -6.320125714285714 10.507817142857142Zm30.65766857142857 -33.753771428571426C33.5148 -1.8660857142857141 19.18553142857143 0.3665588571428571 9.776262857142857 9.775851428571428 0.36697714285714284 19.185119999999998 -1.8656674285714285 33.51438857142857 6.310182857142857 41.690400000000004c8.175839999999999 8.175771428571428 22.505108571428572 5.943085714285714 31.914274285714285 -3.4662857142857137 9.40937142857143 -9.409234285714286 11.642057142857142 -23.738502857142855 3.4662857142857137 -31.91434285714286Z" clip-rule="evenodd" stroke-width="3.4286"></path>
  </g>
</svg>