<svg xmlns="http://www.w3.org/2000/svg" fill="none" viewBox="0 0 48 48" id="Coffee-Takeaway-Cup--Streamline-Core-Remix" height="48" width="48">
  <desc>
    Coffee Takeaway Cup Streamline Icon: https://streamlinehq.com
  </desc>
  <g id="Free Remix/Food Drink/coffee-takeaway-cup--cup-coffee-hot-takeaway-drink-caffeine">
    <path id="Union" fill="#000000" fill-rule="evenodd" d="M9.97608 1.4388857142857143C10.275737142857142 0.577392 11.087897142857141 0 12 0h24c0.912 0 1.7242285714285714 0.577392 2.0238857142857145 1.4388857142857143l3.1772571428571426 9.13476c2.2079999999999997 0.7404685714285714 3.798857142857143 2.826205714285714 3.798857142857143 5.283497142857143v4.285714285714286c0 2.388925714285714 -1.5034285714285713 4.426662857142857 -3.615771428571428 5.2185942857142855l-3.267428571428571 20.82792c-0.1632 1.0422857142857143 -1.0614857142857141 1.8106285714285715 -2.1167999999999996 1.8106285714285715h-24c-1.0552457142857141 0 -1.9534285714285713 -0.7683428571428571 -2.1169714285714285 -1.8106285714285715l-3.267085714285714 -20.82792C4.503531428571429 24.569519999999997 3 22.531782857142854 3 20.142857142857142v-4.285714285714286c0 -2.4572914285714282 1.590822857142857 -4.543028571428572 3.7987542857142853 -5.283497142857143L9.97608 1.4388857142857143ZM11.009382857142857 25.71428571428571l2.8235314285714286 18h20.334171428571427l2.8234285714285714 -18H11.009382857142857Zm23.467302857142858 -21.428571428571427L36.563657142857146 10.285714285714285H11.43648l2.0869714285714287 -6h20.953234285714284Z" clip-rule="evenodd" stroke-width="3.4286"></path>
  </g>
</svg>