<svg xmlns="http://www.w3.org/2000/svg" fill="none" viewBox="0 0 48 48" id="Coffee-Mug--Streamline-Core-Remix" height="48" width="48">
  <desc>
    Coffee Mug Streamline Icon: https://streamlinehq.com
  </desc>
  <g id="Free Remix/Food Drink/coffee-mug--coffee-cook-cup-drink-mug-cooking-nutrition-cafe-caffeine-food">
    <path id="Union" fill="#000000" fill-rule="evenodd" d="M11.671851428571427 14.008045714285714c-1.1089371428571428 -0.8871771428571428 -1.2887314285714284 -2.50536 -0.4015885714285714 -3.6142971428571427 0.34645714285714285 -0.43306285714285714 0.4620342857142857 -0.6870857142857142 0.49779428571428574 -0.7996114285714285 -0.03627428571428572 -0.06654857142857143 -0.15380571428571427 -0.25834285714285715 -0.5212114285714285 -0.7317257142857142l-0.07481142857142857 -0.09569142857142857c-0.4163657142857143 -0.5310514285714285 -1.256502857142857 -1.6025142857142856 -1.4787085714285713 -3.0171085714285715 -0.2686971428571428 -1.710205714285714 0.3910628571428571 -3.302101714285714 1.5769371428571428 -4.784448 0.8871771428571428 -1.1089577142857143 2.50536 -1.2887561142857142 3.614331428571428 -0.4015885714285714 1.1089371428571428 0.8871668571428571 1.2887314285714284 2.5053462857142854 0.4015885714285714 3.614310857142857 -0.34645714285714285 0.4330285714285714 -0.4620342857142857 0.6870857142857142 -0.49779428571428574 0.7995771428571428 0.03627428571428572 0.06658285714285714 0.15380571428571427 0.25834285714285715 0.5212457142857142 0.7317257142857142l0.07477714285714285 0.09572571428571428c0.4164 0.5310171428571427 1.256502857142857 1.60248 1.4787428571428571 3.0170742857142856 0.26866285714285715 1.7102399999999998 -0.39109714285714287 3.302125714285714 -1.5769714285714285 4.7844685714285715 -0.8871771428571428 1.1089714285714285 -2.50536 1.2887657142857143 -3.614331428571428 0.4015885714285714Zm3.1026171428571425 -8.960982857142858c-0.0014742857142857142 0.00037714285714285714 -0.0014742857142857142 -0.011314285714285714 0.004491428571428571 -0.03613714285714286 0 0.023348571428571427 -0.0029828571428571426 0.03579428571428571 -0.004491428571428571 0.03613714285714286Zm-2.9924914285714284 4.477474285714286c0.0014742857142857142 -0.00037714285714285714 0.0014742857142857142 0.011314285714285714 -0.004491428571428571 0.03617142857142857 0 -0.02338285714285714 0.0029828571428571426 -0.03579428571428571 0.004491428571428571 -0.03617142857142857ZM8.571428571428571 17.14296c-3.0770057142857143 0 -5.571428571428571 2.4943885714285714 -5.571428571428571 5.571428571428571V39C3 43.97074285714285 7.029428571428571 48 12 48h13.714285714285714c4.232125714285714 0 7.782 -2.921142857142857 8.7432 -6.857142857142857h0.6853714285714285c5.6808 0 10.285714285714285 -4.604914285714285 10.285714285714285 -10.285611428571427 0 -5.680662857142857 -4.604914285714285 -10.285714285714285 -10.285714285714285 -10.285714285714285h-0.8554285714285714c-0.83976 -2.0133942857142855 -2.8268914285714284 -3.4285714285714284 -5.144571428571428 -3.4285714285714284h-20.57142857142857Zm26.142857142857142 8.571428571428571V36h0.42857142857142855c2.8402285714285713 0 5.142857142857142 -2.3024571428571425 5.142857142857142 -5.142754285714285 0 -2.8403314285714285 -2.302628571428571 -5.142857142857142 -5.142857142857142 -5.142857142857142h-0.42857142857142855Zm-27.428571428571427 -3c0 -0.7100914285714285 0.5756228571428571 -1.2857142857142856 1.2857142857142856 -1.2857142857142856h20.57142857142857c0.7100914285714285 0 1.2857142857142856 0.5756228571428571 1.2857142857142856 1.2857142857142856V39c0 2.6036571428571427 -2.110662857142857 4.714285714285714 -4.714285714285714 4.714285714285714h-13.714285714285714c-2.6036228571428572 0 -4.714285714285714 -2.1106285714285713 -4.714285714285714 -4.714285714285714V22.714388571428568Zm15.127405714285715 -12.32064c-0.887142857142857 1.1089371428571428 -0.7073485714285713 2.7271199999999998 0.4015885714285714 3.6142971428571427 1.1089714285714285 0.8871771428571428 2.7271542857142856 0.7073828571428571 3.614331428571428 -0.4015885714285714 1.1858742857142857 -1.4823428571428572 1.8456342857142856 -3.074228571428571 1.5769714285714285 -4.7844685714285715 -0.22224 -1.4145942857142857 -1.062342857142857 -2.4860571428571427 -1.4787428571428571 -3.0170742857142856l-0.07477714285714285 -0.09572571428571428c-0.36744 -0.4733828571428571 -0.4849714285714285 -0.6651428571428571 -0.5212457142857142 -0.7317257142857142 0.03576 -0.11249142857142856 0.15133714285714284 -0.36654857142857145 0.49779428571428574 -0.7995771428571428 0.887142857142857 -1.1089645714285714 0.7073485714285713 -2.727144 -0.4015885714285714 -3.614310857142857 -1.1089714285714285 -0.8871675428571428 -2.7271542857142856 -0.7073691428571428 -3.614331428571428 0.4015885714285714 -1.1858742857142857 1.4823462857142855 -1.8456342857142856 3.0742422857142855 -1.5769371428571428 4.784448 0.22220571428571428 1.4145942857142857 1.062342857142857 2.4860571428571427 1.4787085714285713 3.0171085714285715l0.07481142857142857 0.09569142857142857c0.3674057142857143 0.4733828571428571 0.48493714285714284 0.6651771428571428 0.5212114285714285 0.7317257142857142 -0.03576 0.11252571428571428 -0.15133714285714284 0.36654857142857145 -0.49779428571428574 0.7996114285714285Zm3.504205714285714 -5.346685714285714c-0.0014742857142857142 0.00037714285714285714 -0.0014742857142857142 -0.011314285714285714 0.004491428571428571 -0.03613714285714286 0 0.023348571428571427 -0.0029828571428571426 0.03579428571428571 -0.004491428571428571 0.03613714285714286Zm-2.9924914285714284 4.477474285714286c0.0014742857142857142 -0.00037714285714285714 0.0014742857142857142 0.011314285714285714 -0.004491428571428571 0.03617142857142857 0 -0.02338285714285714 0.0029828571428571426 -0.03579428571428571 0.004491428571428571 -0.03617142857142857Z" clip-rule="evenodd" stroke-width="3.4286"></path>
  </g>
</svg>