<svg xmlns="http://www.w3.org/2000/svg" fill="none" viewBox="0 0 48 48" id="Cog-1--Streamline-Core-Remix" height="48" width="48">
  <desc>
    Cog 1 Streamline Icon: https://streamlinehq.com
  </desc>
  <g id="Free Remix/Interface Essential/cog-1--work-loading-cog-gear-settings-machine">
    <path id="Union" fill="#000000" fill-rule="evenodd" d="m22.62137142857143 -0.0033482125714285713 -0.006308571428571428 0.00001879885714285714C21.50592 -0.00005313325714285715 20.423622857142856 0.3381198857142857 19.50990857142857 0.9668982857142856c-0.9133028571428571 0.6285188571428572 -1.6156114285714285 1.5181131428571426 -2.0149714285714286 2.552358857142857l-0.00047999999999999996 0.0012685714285714286 -1.1691771428571427 3.0180342857142857 -3.666754285714285 2.081142857142857 -3.2339314285714282 -0.49330285714285715 0.00006857142857142857 -0.00030857142857142856 -0.03497142857142857 -0.004731428571428571c-1.0818514285714285 -0.14684571428571427 -2.1829371428571425 0.031234285714285714 -3.163302857142857 0.5116457142857143 -0.9803999999999999 0.4803771428571429 -1.7958514285714284 1.2413828571428571 -2.342708571428571 2.1862971428571427l-0.00003428571428571428 0 -0.005862857142857142 0.010217142857142857 -1.3395188571428571 2.344182857142857c-0.5591657142857143 0.9570171428571428 -0.8165314285714286 2.06064 -0.73824 3.1664914285714287 0.07863771428571428 1.1107885714285712 0.49224 2.171622857142857 1.1862171428571429 3.0425142857142853l-0.00003085714285714286 0.00003428571428571428 0.00785142857142857 0.009702857142857143 2.047549714285714 2.53896V26.084571428571426l-1.9936457142857142 2.539851428571428c-0.6906377142857143 0.8695542857142857 -1.1022480000000001 1.9277142857142857 -1.18068 3.03552 -0.07829142857142857 1.1058857142857141 0.17908457142857143 2.209542857142857 0.7382674285714285 3.1664571428571424l1.3394982857142856 2.3441142857142854 -0.00003428571428571428 0 0.005897142857142857 0.010285714285714285c0.5468914285714286 0.9449142857142857 1.362342857142857 1.7060571428571427 2.342742857142857 2.1864 0.9803657142857143 0.4803428571428571 2.0814514285714285 0.6582857142857143 3.163302857142857 0.5115428571428571l0.00003428571428571428 0.00034285714285714285 0.03486857142857143 -0.005485714285714286 3.2269714285714284 -0.49199999999999994 3.6039085714285712 2.073257142857143 1.1717142857142857 3.024685714285714 0.00020571428571428572 0.0006857142857142857c0.3993257142857143 1.0344 1.1017371428571427 1.9244571428571429 2.015245714285714 2.552914285714286 0.9137142857142857 0.6288 1.9960114285714283 0.9672000000000001 3.1051542857142853 0.9702857142857142l0.006308571428571428 0h2.825074285714286l0.006308571428571428 0c1.1091428571428572 -0.0030857142857142854 2.19144 -0.3414857142857142 3.10512 -0.9702857142857142 0.9134399999999999 -0.6284571428571428 1.6157828571428572 -1.5181714285714285 2.015142857142857 -2.5525714285714285l0.00034285714285714285 -0.0010285714285714284 1.1717142857142857 -3.024685714285714 3.60384 -2.073257142857143 3.2269714285714284 0.49199999999999994 0 0.00034285714285714285 0.03497142857142857 0.0048c1.0817142857142856 0.14674285714285712 2.182971428571429 -0.0312 3.1632 -0.5115428571428571 0.9805714285714284 -0.4803428571428571 1.7958857142857143 -1.241485714285714 2.342742857142857 -2.1864l0.005828571428571428 -0.010285714285714285 1.3395428571428571 -2.3437714285714284c0.5591999999999999 -0.957222857142857 0.8166857142857142 -2.06088 0.7385142857142857 -3.1668 -0.07885714285714285 -1.1107885714285712 -0.49234285714285714 -2.171622857142857 -1.1862857142857142 -3.04248l0 -0.00003428571428571428 -0.007885714285714286 -0.009737142857142857 -2.0475428571428567 -2.53896V21.9156l1.9937142857142858 -2.539851428571428c0.6905142857142856 -0.8695542857142857 1.1022857142857143 -1.9277142857142857 1.1804571428571429 -3.0355542857142854 0.07851428571428572 -1.1058514285714285 -0.17897142857142856 -2.2094742857142853 -0.7381714285714285 -3.1664914285714287l-1.3395428571428571 -2.344182857142857 -0.005828571428571428 -0.010217142857142857c-0.5468571428571428 -0.9449142857142857 -1.3621714285714284 -1.7059199999999999 -2.342742857142857 -2.1862971428571427 -0.9802285714285713 -0.48041142857142854 -2.081485714285714 -0.6584914285714286 -3.1632 -0.5116457142857143l0 -0.00030857142857142856 -0.03497142857142857 0.005348571428571428 -3.2269714285714284 0.49224L31.67780571428571 6.5451428571428565l-1.1717142857142857 -3.0246171428571427 -0.00030857142857142856 -0.0008571428571428571C30.10642285714286 2.485254857142857 29.40408 1.5955028571428571 28.49064 0.9668982857142856c-0.9137142857142857 -0.6287784 -1.9960114285714283 -0.9669514189714284 -3.1051542857142853 -0.9702371005714286h-0.006308571428571428L22.62137142857143 -0.0033482125714285713ZM22.625314285714285 4.282388571428571h2.74992c0.24497142857142856 0.0012 0.4839428571428571 0.07611428571428572 0.6857828571428571 0.21500571428571427 0.20252571428571425 0.13937142857142856 0.35821714285714285 0.33661714285714284 0.44670857142857134 0.5659542857142856l0.0010285714285714284 0.002674285714285714 1.4461714285714284 3.7330971428571424c0.17691428571428572 0.45671999999999996 0.50496 0.8390399999999999 0.92952 1.0833257142857142l4.910194285714286 2.82504c0.42096 0.2421942857142857 0.9117599999999999 0.3342171428571428 1.3917599999999999 0.2609828571428571l3.9469714285714286 -0.6020571428571428c0.23519999999999996 -0.029348571428571425 0.47451428571428567 0.010594285714285714 0.6877714285714286 0.11509714285714286 0.216 0.10584 0.3956571428571428 0.27312 0.5170285714285714 0.4807885714285714l0.0020571428571428568 0.0037714285714285714 1.3395428571428571 2.3439771428571428 -0.00034285714285714285 0.00010285714285714286 0.01337142857142857 0.022765714285714285c0.12514285714285714 0.21274285714285712 0.18274285714285712 0.4584342857142857 0.1656 0.7046057142857143 -0.017485714285714285 0.24620571428571428 -0.10937142857142856 0.48130285714285714 -0.2629714285714286 0.6743314285714285l-0.009942857142857142 0.012308571428571427 -2.4548571428571426 3.127748571428571c-0.29622857142857145 0.37741714285714284 -0.45737142857142854 0.8433257142857142 -0.45737142857142854 1.3231199999999999V26.825142857142854c0 0.4894628571428571 0.16765714285714284 0.9641828571428572 0.47485714285714287 1.3451657142857143l2.5145142857142857 3.117977142857143 0.0030857142857142854 0.0037028571428571427c0.15188571428571426 0.19234285714285712 0.24239999999999998 0.426 0.2598857142857143 0.6706285714285714 0.017485714285714285 0.24617142857142857 -0.04045714285714285 0.49186285714285716 -0.16525714285714285 0.70464l-0.00034285714285714285 -0.00010285714285714286 -0.013028571428571428 0.022937142857142854 -1.3392 2.34408 -0.0024 0.0037714285714285714c-0.12102857142857142 0.20777142857142855 -0.3010285714285714 0.3747428571428571 -0.5170285714285714 0.4806857142857142 -0.21325714285714284 0.10457142857142857 -0.45222857142857137 0.14434285714285713 -0.6877714285714286 0.11519999999999998l-3.9469714285714286 -0.6020571428571428c-0.48000000000000004 -0.07337142857142856 -0.9707314285714285 0.018857142857142854 -1.3916914285714286 0.2609142857142857l-4.910194285714286 2.8251428571428567c-0.42455999999999994 0.2441142857142857 -0.7526057142857143 0.6264 -0.9295542857142858 1.0830857142857142l-1.4461371428571428 3.733371428571428 -0.0010285714285714284 0.0024c-0.08849142857142857 0.22937142857142856 -0.24418285714285715 0.4268571428571428 -0.44670857142857134 0.5660571428571428 -0.20180571428571428 0.13885714285714285 -0.4407428571428571 0.21394285714285713 -0.6857142857142857 0.2149714285714286h-2.817325714285714c-0.24497142857142856 -0.0010285714285714284 -0.48390857142857135 -0.07611428571428572 -0.6857142857142857 -0.2149714285714286 -0.20252571428571425 -0.1392 -0.35821714285714285 -0.33668571428571425 -0.44670857142857134 -0.5660571428571428l-0.0010285714285714284 -0.0024 -1.4461371428571428 -3.733371428571428c-0.17694857142857143 -0.4566857142857143 -0.5049942857142857 -0.8389714285714285 -0.9295542857142858 -1.0830857142857142l-4.910228571428571 -2.8251428571428567c-0.4209257142857143 -0.24205714285714283 -0.9116571428571429 -0.3342857142857143 -1.3917599999999999 -0.2609142857142857l-3.9467999999999996 0.6020571428571428c-0.23550857142857143 0.029142857142857144 -0.4745828571428571 -0.010628571428571428 -0.6879085714285714 -0.11519999999999998 -0.21593142857142855 -0.10594285714285714 -0.3957942857142857 -0.2729142857142857 -0.51696 -0.4806857142857142l-0.0022285714285714283 -0.0037714285714285714 -1.3394057142857143 -2.34408 0.00013714285714285713 -0.00006857142857142857 -0.01337142857142857 -0.022765714285714285c-0.1250742857142857 -0.21277714285714283 -0.18270857142857141 -0.45846857142857145 -0.16529142857142856 -0.70464 0.01745142857142857 -0.24620571428571428 0.10909714285714285 -0.48130285714285714 0.2629028571428571 -0.6743314285714285l0.00006857142857142857 0.00003428571428571428 0.009702857142857143 -0.012342857142857142 2.455097142857143 -3.127748571428571c0.29622857142857145 -0.37741714285714284 0.45726857142857136 -0.8433257142857142 0.45726857142857136 -1.3230857142857142V21.17502857142857c0 -0.4894628571428571 -0.16758857142857142 -0.9641828571428572 -0.4748228571428571 -1.3452l-2.5174628571428572 -3.121645714285714c-0.15205714285714286 -0.1923085714285714 -0.24267428571428568 -0.4260342857142857 -0.2599885714285714 -0.6706628571428571 -0.01745142857142857 -0.24617142857142857 0.04018285714285714 -0.49186285714285716 0.16525714285714285 -0.7046057142857143l0.00013714285714285713 0.00006857142857142857 0.013097142857142856 -0.022937142857142854 1.3416342857142856 -2.347817142857143c0.12119999999999999 -0.20763428571428572 0.3010285714285714 -0.37488 0.5169942857142857 -0.48072 0.21329142857142858 -0.10450285714285713 0.45236571428571426 -0.1444457142857143 0.6879085714285714 -0.11509714285714286l3.946765714285714 0.6020571428571428c0.47585142857142854 0.07258285714285714 0.9622628571428572 -0.017142857142857144 1.3808914285714284 -0.25474285714285716l4.977462857142856 -2.825074285714286c0.4297371428571429 -0.2438742857142857 0.7619657142857142 -0.6288 0.9404571428571428 -1.0895314285714286l1.4461371428571428 -3.7330971428571424 0.0010285714285714284 -0.002674285714285714c0.08849142857142857 -0.22933714285714285 0.24418285714285715 -0.42658285714285715 0.44670857142857134 -0.5659542857142856 0.20184 -0.13889142857142855 0.4408114285714285 -0.21380571428571427 0.6857828571428571 -0.21500571428571427ZM16.285988571428568 24c0 1.5257485714285715 0.4524342857142857 3.0172114285714287 1.3001142857142856 4.285817142857143 0.8476457142857142 1.26864 2.052445714285714 2.2573714285714286 3.4620685714285715 2.8412571428571427 1.4095885714285714 0.5838857142857142 2.9606742857142856 0.7366628571428571 4.457108571428571 0.43899428571428567 1.4964 -0.2976685714285714 2.870982857142857 -1.0323771428571427 3.949817142857143 -2.111245714285714 1.0788685714285713 -1.0788685714285713 1.8135771428571428 -2.4534171428571425 2.111245714285714 -3.949817142857143 0.2976685714285714 -1.4964342857142856 0.14489142857142856 -3.0475199999999996 -0.43899428571428567 -4.457142857142857 -0.5838514285714286 -1.4095885714285714 -1.5726171428571427 -2.6143885714285715 -2.8412228571428573 -3.4620342857142856 -1.2686057142857143 -0.8476799999999999 -2.760102857142857 -1.3001142857142856 -4.285851428571428 -1.3001142857142856 -2.0459314285714285 0 -4.008102857142857 0.8127771428571428 -5.454822857142856 2.2594628571428568 -1.4466857142857141 1.44672 -2.2594628571428568 3.4088914285714287 -2.2594628571428568 5.454822857142856Z" clip-rule="evenodd" stroke-width="3.4286"></path>
  </g>
</svg>