<svg xmlns="http://www.w3.org/2000/svg" fill="none" viewBox="0 0 48 48" id="Coins-Stack--Streamline-Core-Remix" height="48" width="48">
  <desc>
    Coins Stack Streamline Icon: https://streamlinehq.com
  </desc>
  <g id="Free Remix/Money Shopping/coins-stack--accounting-billing-payment-stack-cash-coins-currency-money-finance">
    <path id="Union" fill="#000000" fill-rule="evenodd" d="M17.57142857142857 0.03431931428571428c-4.488548571428572 0 -8.655188571428571 0.8043161142857143 -11.779954285714286 2.193100114285714 -1.5596571428571429 0.6931919999999999 -2.9545097142857144 1.574112 -3.9884399999999998 2.660523428571428C0.7585988571428571 5.985428571428571 0 7.390285714285714 0 9.03432v20.57142857142857c0 1.6798971428571428 0.7917737142857142 3.1099542857142857 1.8730902857142855 4.220022857142856 1.0718331428571428 1.1004 2.518258285714286 1.9901142857142857 4.1389439999999995 2.6857714285714285 1.087542857142857 0.4666285714285714 2.347542857142857 -0.03668571428571428 2.8142742857142853 -1.1242285714285714 0.4667314285714286 -1.087542857142857 -0.036514285714285714 -2.3473714285714284 -1.1240571428571426 -2.814102857142857 -1.2911657142857142 -0.5541257142857143 -2.201862857142857 -1.1657485714285714 -2.759211428571428 -1.7379085714285711 -0.5478857142857142 -0.5624228571428571 -0.6573257142857143 -0.9758399999999999 -0.6573257142857143 -1.2295542857142856V25.367897142857142c0.5444228571428571 0.31344 1.123302857142857 0.5991428571428571 1.7263199999999999 0.8579314285714286 1.087542857142857 0.4667314285714286 2.347542857142857 -0.036514285714285714 2.8142742857142853 -1.1240571428571426 0.4667314285714286 -1.087542857142857 -0.036514285714285714 -2.347542857142857 -1.1240571428571426 -2.8142742857142853 -1.2911657142857142 -0.5541257142857143 -2.201862857142857 -1.1657142857142857 -2.759211428571428 -1.7379085714285711 -0.5478857142857142 -0.5624228571428571 -0.6573257142857143 -0.9758399999999999 -0.6573257142857143 -1.2295542857142856V15.080022857142858c0.47845714285714286 0.27527999999999997 0.9828685714285713 0.5287885714285714 1.50576 0.7612114285714285 0.8894399999999999 0.39527999999999996 1.8632571428571427 0.7432457142857143 2.9048914285714282 1.0387542857142857 0.37878857142857136 -2.320045714285714 1.5676799999999997 -4.195097142857143 2.8592571428571425 -5.552297142857143 1.5403542857142856 -1.61856 3.4654285714285713 -2.7836914285714287 5.352411428571428 -3.622354285714285C20.69838857142857 6.020742857142857 25.484057142857143 5.142857142857142 30.428571428571427 5.142857142857142c1.0952914285714286 0 2.182765714285714 0.04306285714285714 3.253371428571428 0.12846857142857143 -0.10995428571428571 -0.13165714285714283 -0.2241942857142857 -0.2594742857142857 -0.34213714285714286 -0.38338285714285714 -1.03392 -1.0864114285714284 -2.428765714285714 -1.9673314285714285 -3.9884228571428566 -2.660523428571428C26.22661714285714 0.8386354285714286 22.059977142857143 0.03431931428571428 17.57142857142857 0.03431931428571428ZM48 18.428571428571427c0 -1.6440342857142856 -0.758742857142857 -3.0488914285714284 -1.8030857142857144 -4.146377142857142 -1.0337142857142856 -1.0864114285714284 -2.4288 -1.9673485714285714 -3.9884571428571425 -2.6605371428571427C39.08365714285714 10.23288 34.917257142857146 9.428571428571429 30.428571428571427 9.428571428571429c-4.488548571428572 0 -8.655188571428571 0.8043085714285714 -11.779954285714286 2.1930857142857145 -1.5596571428571429 0.6931885714285714 -2.954502857142857 1.5741257142857141 -3.9884228571428566 2.6605371428571427 -1.0444457142857142 1.0974857142857142 -1.8030514285714283 2.502342857142857 -1.8030514285714283 4.146377142857142v20.57142857142857c0 1.6374857142857142 0.7529828571428572 3.039428571428571 1.7928685714285715 4.136571428571428 1.0294971428571427 1.0861714285714286 2.419542857142857 1.9683428571428572 3.9769028571428566 2.6633142857142857 3.1199314285714284 1.3920000000000001 7.28784 2.2001142857142857 11.801657142857142 2.2001142857142857 4.513714285714285 0 8.681828571428571 -0.8081142857142857 11.80182857142857 -2.2001142857142857 1.5572571428571427 -0.6949714285714285 2.9472 -1.5771428571428572 3.9767999999999994 -2.6633142857142857 1.0398857142857143 -1.0971428571428572 1.7928 -2.499085714285714 1.7928 -4.136571428571428v-20.57142857142857ZM17.142857142857142 24.474274285714284c0.47845714285714286 0.27527999999999997 0.9828685714285713 0.5287885714285714 1.50576 0.7612114285714285C21.773382857142856 26.624262857142856 25.940022857142853 27.428571428571427 30.428571428571427 27.428571428571427c4.4886857142857135 0 8.655085714285713 -0.8043085714285714 11.779885714285713 -2.1930857142857145 0.5228571428571428 -0.23242285714285715 1.0272 -0.4859314285714285 1.5058285714285713 -0.7612114285714285V28.71428571428571c0 0.2483657142857143 -0.10422857142857142 0.6464571428571428 -0.6178285714285714 1.18848 -0.5242285714285714 0.5529942857142857 -1.3841142857142856 1.1493942857142856 -2.6125714285714285 1.6974514285714284 -2.451428571428571 1.0937485714285715 -5.9976 1.8283542857142856 -10.055314285714285 1.8283542857142856 -4.057611428571429 0 -7.603988571428571 -0.7346057142857143 -10.055485714285714 -1.8283542857142856 -1.2283542857142855 -0.5480571428571428 -2.088308571428571 -1.1444571428571428 -2.6124 -1.6974514285714284C17.247017142857143 29.360742857142853 17.142857142857142 28.962651428571426 17.142857142857142 28.71428571428571V24.474274285714284Zm1.4840571428571427 11.039897142857143c-0.5153485714285714 -0.23005714285714288 -1.0123542857142855 -0.4803428571428571 -1.4840571428571427 -0.7518857142857143v4.2377142857142855c0 0.24822857142857144 0.10416 0.6462857142857142 0.6178285714285714 1.1883428571428571 0.5240914285714285 0.5530285714285714 1.384045714285714 1.1496 2.6124 1.697485714285714 2.451497142857143 1.0937142857142856 5.9978742857142855 1.8284571428571428 10.055485714285714 1.8284571428571428 4.057714285714286 0 7.603885714285714 -0.734742857142857 10.055314285714285 -1.8284571428571428 1.228457142857143 -0.5478857142857142 2.088342857142857 -1.1444571428571428 2.6125714285714285 -1.697485714285714 0.5136 -0.5420571428571428 0.6178285714285714 -0.9401142857142857 0.6178285714285714 -1.1883428571428571v-4.2377142857142855c-0.47177142857142856 0.27154285714285714 -0.9685714285714284 0.5218285714285714 -1.4838857142857143 0.7518857142857143 -3.12 1.3920000000000001 -7.288114285714286 2.2001142857142857 -11.80182857142857 2.2001142857142857 -4.5138171428571425 0 -8.681725714285713 -0.8081142857142857 -11.801657142857142 -2.2001142857142857Z" clip-rule="evenodd" stroke-width="3.4286"></path>
  </g>
</svg>