<svg xmlns="http://www.w3.org/2000/svg" fill="none" viewBox="0 0 48 48" id="Coin-Share--Streamline-Core-Remix" height="48" width="48">
  <desc>
    Coin Share Streamline Icon: https://streamlinehq.com
  </desc>
  <g id="Free Remix/Money Shopping/coin-share--payment-cash-money-finance-receive-give-coin-hand">
    <path id="Union" fill="#000000" fill-rule="evenodd" d="M18.85721142857143 14.571428571428571c0 -8.047577142857142 6.523851428571428 -14.571428571428571 14.571428571428571 -14.571428571428571C41.47611428571429 0 48 6.523851428571428 48 14.571428571428571S41.47611428571429 29.142857142857142 33.428639999999994 29.142857142857142c-8.047577142857142 0 -14.571428571428571 -6.523851428571428 -14.571428571428571 -14.571428571428571Zm17.57136 -3.4285714285714284c0 -1.6568571428571428 -1.3429714285714285 -3 -2.9999314285714282 -3 -1.6568571428571428 0 -3 1.343142857142857 -3 3v6.857142857142857c0 1.6568571428571428 1.343142857142857 3 3 3 1.6569599999999998 0 2.9999314285714282 -1.343142857142857 2.9999314285714282 -3v-6.857142857142857ZM0.49672114285714286 35.912228571428564c0.7576388571428572 -0.9092571428571428 2.1088491428571428 -1.0319999999999998 3.0180102857142854 -0.2742857142857143l8.378502857142857 6.981942857142856c0.8472342857142856 0.7059428571428571 1.9151657142857144 1.0926857142857143 3.0180342857142857 1.0926857142857143l22.088845714285714 0c0.3942857142857143 0 0.7141714285714286 -0.3198857142857143 0.7141714285714286 -0.7141714285714286 0 -1.972457142857143 -1.5990857142857142 -3.571542857142857 -3.571371428571428 -3.571542857142857h-15.0312c-1.9393371428571429 0.5341714285714285 -4.102834285714286 0.039428571428571424 -5.626902857142857 -1.4845714285714284l-2.571428571428571 -2.571428571428571c-0.8368114285714285 -0.8369142857142857 -0.8368114285714285 -2.1937714285714285 0 -3.0306171428571425 0.8368457142857142 -0.8368457142857142 2.1936342857142854 -0.8368457142857142 3.03048 0l2.571428571428571 2.5715314285714284c0.4176342857142857 0.41759999999999997 1.021062857142857 0.5362285714285714 1.5442285714285715 0.3558857142857143 0.007611428571428572 -0.002742857142857143 0.015257142857142856 -0.005485714285714286 0.022937142857142854 -0.008228571428571427 0.19895999999999997 -0.07234285714285714 0.38564571428571426 -0.1882285714285714 0.5452114285714286 -0.34765714285714283 0.5833371428571429 -0.583542857142857 0.5833371428571429 -1.5291771428571428 0 -2.1125142857142856L14.636091428571428 28.80768c-0.8840914285714284 -0.8840914285714284 -2.0832 -1.3807885714285713 -3.3334971428571425 -1.3807885714285713H2.142912c-1.1834674285714284 0 -2.1428582609142857 -0.9593828571428571 -2.1428582609142857 -2.142857142857143S0.9594445714285713 23.141177142857142 2.142912 23.141177142857142H11.302594285714285c2.3869371428571426 0 4.676125714285714 0.9482057142857141 6.363942857142857 2.6360571428571427l3.9916114285714284 3.9915771428571425c1.4576914285714284 1.4576914285714284 1.9739314285714284 3.500365714285714 1.5486857142857142 5.372331428571428h10.93608c4.339371428571428 0 7.857085714285715 3.517714285714286 7.857085714285715 7.857257142857143 0 2.7613714285714286 -2.238514285714286 4.999885714285714 -4.999885714285714 4.999885714285714l-22.088845714285714 0c-2.1054514285714285 0 -4.144251428571428 -0.7381714285714285 -5.76168 -2.0859428571428573L0.7710857142857142 38.93005714285714c-0.9091635428571427 -0.7573714285714286 -1.0320006857142856 -2.1085714285714285 -0.2743645714285714 -3.0178285714285713Z" clip-rule="evenodd" stroke-width="3.4286"></path>
  </g>
</svg>