<svg xmlns="http://www.w3.org/2000/svg" fill="none" viewBox="0 0 48 48" id="Collaborations-Idea--Streamline-Core-Remix" height="48" width="48">
  <desc>
    Collaborations Idea Streamline Icon: https://streamlinehq.com
  </desc>
  <g id="Free Remix/Work Education/collaborations-idea--collaborations-idea-work">
    <path id="Union" fill="#000000" fill-rule="evenodd" d="M33.34104 2.142857142857143c0 -1.1834674285714284 -0.9593828571428571 -2.142857142857143 -2.142857142857143 -2.142857142857143s-2.142857142857143 0.9593897142857143 -2.142857142857143 2.142857142857143v2.7434742857142855c0 1.1834742857142857 0.9593828571428571 2.142857142857143 2.142857142857143 2.142857142857143s2.142857142857143 -0.9593828571428571 2.142857142857143 -2.142857142857143V2.142857142857143Zm10.823417142857142 5.867622857142857c0.8369142857142857 -0.8368457142857142 0.8369142857142857 -2.1936342857142854 0 -3.030445714285714 -0.8369142857142857 -0.8368457142857142 -2.1936 -0.8368457142857142 -3.0305142857142857 0l-1.939885714285714 1.93992c-0.8369142857142857 0.8368457142857142 -0.8369142857142857 2.1936342857142854 0 3.030445714285714 0.8369142857142857 0.8368457142857142 2.1936 0.8368457142857142 3.0305142857142857 0l1.939885714285714 -1.93992Zm-25.78621714285714 -3.030445714285714c0.8368457142857142 -0.8368457142857142 2.1936342857142854 -0.8368457142857142 3.030445714285714 0l1.9399542857142855 1.93992c0.8368457142857142 0.8368457142857142 0.8368457142857142 2.1936342857142854 0 3.030445714285714 -0.8368457142857142 0.8368457142857142 -2.1936342857142854 0.8368457142857142 -3.030445714285714 0l-1.9399542857142855 -1.93992c-0.8368457142857142 -0.8368457142857142 -0.8368457142857142 -2.1936342857142854 0 -3.030445714285714Zm10.455942857142857 16.28297142857143c-1.5185142857142857 -0.7558971428571428 -2.559017142857143 -2.410217142857143 -2.583668571428571 -4.10616 -0.004251428571428571 -2.561657142857143 2.1961028571428574 -4.721794285714285 4.758342857142857 -4.668582857142857 0.029657142857142854 0.0006171428571428571 0.05931428571428571 0.0006171428571428571 0.08897142857142858 0 2.562205714285714 -0.05321142857142857 4.762628571428571 2.1068914285714286 4.758171428571428 4.668582857142857 -0.024685714285714283 1.695942857142857 -1.0649142857142857 3.350262857142857 -2.5835314285714284 4.10616 -0.7278514285714286 0.3623314285714285 -1.1879314285714286 1.1053028571428571 -1.1879314285714286 1.9183199999999998v1.9980342857142854h-2.062422857142857v-1.9980342857142854c0 -0.8130171428571429 -0.46011428571428575 -1.5559885714285713 -1.1879314285714286 -1.9183199999999998ZM21.96486857142857 17.18214857142857C21.94628571428571 12.223131428571428 26.100171428571425 8.12472 31.05336 8.202651428571428c4.953154285714285 -0.07793142857142857 9.10686857142857 4.0205142857142855 9.088354285714285 8.979497142857142l0 0.01848c-0.035314285714285715 2.840605714285714 -1.4862857142857142 5.543588571428572 -3.7714285714285714 7.18296v2.199874285714286l-0.0006857142857142857 0.054959999999999995c-0.04011428571428571 1.5571199999999998 -1.3429714285714285 2.826788571428571 -2.9004 2.826651428571428H28.637451428571424c-1.5575314285714286 0.00013714285714285713 -2.860422857142857 -1.2695314285714285 -2.900365714285714 -2.826651428571428l-0.0006857142857142857 -0.054959999999999995v-2.199874285714286c-2.2853485714285715 -1.6393714285714285 -3.736285714285714 -4.342354285714285 -3.7713942857142855 -7.18296l-0.00020571428571428572 -0.01848h0.00006857142857142857Zm19.005874285714285 -0.008022857142857142c0 -1.1834742857142857 0.9593142857142857 -2.142857142857143 2.142857142857143 -2.142857142857143h2.7435428571428573c1.183542857142857 0 2.142857142857143 0.9593828571428571 2.142857142857143 2.142857142857143 0 1.1834399999999998 -0.9593142857142857 2.142857142857143 -2.142857142857143 2.142857142857143h-2.7435428571428573c-1.183542857142857 0 -2.142857142857143 -0.9594171428571429 -2.142857142857143 -2.142857142857143Zm-24.431622857142855 -2.142857142857143c-1.1834399999999998 0 -2.142857142857143 0.9593828571428571 -2.142857142857143 2.142857142857143 0 1.1834399999999998 0.9594171428571429 2.142857142857143 2.142857142857143 2.142857142857143h2.743508571428571c1.1834742857142857 0 2.142857142857143 -0.9594171428571429 2.142857142857143 -2.142857142857143 0 -1.1834742857142857 -0.9593828571428571 -2.142857142857143 -2.142857142857143 -2.142857142857143h-2.743508571428571Zm-2.2317942857142854 17.055497142857142 -0.0074057142857142854 0c-5.109222857142856 0.011074285714285714 -9.926982857142857 2.827062857142857 -12.443159999999999 7.275291428571428 -1.1925908571428572 2.108228571428571 -1.831369817142857 4.484571428571429 -1.8566663808000001 6.906514285714286 -0.004780682057142857 0.45771428571428574 0.1737054665142857 0.8986285714285713 0.49569495222857146 1.224 0.32199085714285713 0.32537142857142853 0.7607382857142857 0.5084571428571428 1.218497142857143 0.5084571428571428h25.178674285714283c0.4577485714285714 0 0.896502857142857 -0.1830857142857143 1.2185142857142857 -0.5084571428571428 0.3219771428571428 -0.32537142857142853 0.5004685714285714 -0.7662857142857142 0.4956685714285714 -1.224 -0.025268571428571425 -2.421942857142857 -0.6640457142857142 -4.798285714285714 -1.8566399999999998 -6.906514285714286 -2.5161942857142856 -4.448228571428571 -7.3339542857142845 -7.264217142857142 -12.443177142857142 -7.275291428571428ZM19.03344 23.1288c1.2311657142857142 0 2.375725714285714 -0.37079999999999996 3.3281142857142854 -1.0068342857142856 -0.3417942857142857 4.152959999999999 -3.820594285714286 7.416822857142857 -8.061737142857142 7.416822857142857 -4.4676 0 -8.089302857142856 -3.621702857142857 -8.089302857142856 -8.089302857142856 0 -3.3250285714285712 2.006125714285714 -6.181474285714285 4.873988571428572 -7.425085714285713 -0.5486742857142857 0.9057257142857142 -0.8645142857142856 1.9681714285714282 -0.8645142857142856 3.1043999999999996 0 3.3137142857142856 2.68632 6 6 6h2.8134514285714287Z" clip-rule="evenodd" stroke-width="3.4286"></path>
  </g>
</svg>