<svg xmlns="http://www.w3.org/2000/svg" fill="none" viewBox="0 0 48 48" id="Color-Picker--Streamline-Core-Remix" height="48" width="48">
  <desc>
    Color Picker Streamline Icon: https://streamlinehq.com
  </desc>
  <g id="Free Remix/Interface Essential/color-picker--color-colors-design-dropper-eye-eyedrop-eyedropper-painting-picker">
    <path id="Union" fill="#000000" fill-rule="evenodd" d="M28.57196571428571 1.0757794285714286C30.27576 0.3656297142857143 32.10332571428571 0 33.9492 0c1.8457714285714284 0 3.673542857142857 0.3656297142857143 5.377199999999999 1.0757794285714286 1.7009142857142856 0.7089291428571428 3.2447999999999997 1.7471759999999998 4.542857142857143 3.0549634285714284 1.3076571428571429 1.2980571428571428 2.3461714285714286 2.841942857142857 3.0548571428571427 4.542822857142856 0.7103999999999999 1.7037942857142856 1.0758857142857143 3.5313599999999994 1.0758857142857143 5.377234285714286 0 1.8458742857142856 -0.36548571428571425 3.67344 -1.0758857142857143 5.377234285714286 -0.7093714285714285 1.7022857142857142 -1.7489142857142856 3.247302857142857 -3.0582857142857143 4.546011428571428l-0.0034285714285714284 0.003462857142857143 -2.774742857142857 2.774982857142857 3.541028571428571 3.541337142857143c1.171542857142857 1.1715771428571429 1.171542857142857 3.0710742857142854 0 4.242514285714286 -1.171542857142857 1.171542857142857 -3.0709714285714287 1.171542857142857 -4.242514285714286 0l-3.541371428571428 -3.5412 -8.405554285714286 8.405657142857143c-1.8507428571428568 1.8538285714285712 -4.247794285714285 3.0641142857142856 -6.838217142857142 3.452914285714286 -2.053131428571428 0.30857142857142855 -4.141679999999999 0.08777142857142857 -6.071657142857142 -0.6288l-4.169828571428571 4.169828571428571 -0.004525714285714286 0.004457142857142857c-1.031382857142857 1.0254857142857141 -2.4265714285714286 1.6007999999999998 -3.8808685714285716 1.6007999999999998 -1.454262857142857 0 -2.849485714285714 -0.5753142857142857 -3.8808685714285716 -1.6007999999999998l-0.004491428571428571 -0.004457142857142857 -1.9835417142857141 -1.9834285714285713 -0.004501714285714285 -0.004457142857142857C0.5754788571428571 43.3752 0 41.98011428571428 0 40.52571428571429c0 -1.4540571428571427 0.5754788571428571 -2.849485714285714 1.6007451428571429 -3.8807999999999994l0.004501714285714285 -0.004457142857142857L5.775085714285714 32.47062857142857c-0.7164685714285713 -1.9299771428571428 -0.9371999999999999 -4.01856 -0.6289371428571428 -6.071657142857142 0.3889028571428571 -2.590285714285714 1.5992571428571427 -4.987268571428571 3.452845714285714 -6.8379771428571425l0.00023999999999999998 -0.00023999999999999998 8.405622857142856 -8.405622857142856 -3.54192 -3.5418857142857143c-1.1715771428571429 -1.1715771428571429 -1.1715771428571429 -3.0710742857142854 0 -4.242658285714286 1.1715771428571429 -1.171573714285714 3.0710742857142854 -1.171573714285714 4.2426514285714285 0L21.247508571428572 6.912514285714286l2.774982857142857 -2.7750171428571426 0.003497142857142857 -0.003497142857142857C25.324697142857143 2.8246765714285713 26.869714285714284 1.785294857142857 28.57196571428571 1.0757794285714286ZM20.035302857142856 14.185611428571429 11.62848 22.592434285714283l-0.0012342857142857142 0.0012c-1.2040457142857142 1.2021257142857142 -1.9902514285714283 2.7591085714285715 -2.242902857142857 4.4416457142857135 -0.2526171428571428 1.6825714285714286 0.04172571428571428 3.4017942857142858 0.8396571428571429 4.904468571428571 0.44166857142857135 0.8317371428571428 0.28854857142857143 1.8543428571428573 -0.3773485714285714 2.5201371428571426l-5.2064571428571425 5.206628571428571 -0.0014399999999999999 0.0013714285714285714c-0.22614857142857142 0.22834285714285715 -0.35304 0.5365714285714286 -0.35304 0.8578285714285713 0 0.32125714285714285 0.1267542857142857 0.6294857142857143 0.3526971428571429 0.8578285714285713l0.0017828571428571427 0.0017142857142857142 1.9745142857142854 1.9745142857142854 0.001577142857142857 0.0017142857142857142c0.2282742857142857 0.22594285714285714 0.5365371428571428 0.3528 0.857862857142857 0.3528s0.6296571428571428 -0.12685714285714284 0.8578971428571428 -0.3528l0.0015428571428571427 -0.0017142857142857142 5.2064571428571425 -5.2062857142857135c0.6658628571428571 -0.6661714285714285 1.6884685714285714 -0.8190857142857142 2.5202057142857144 -0.37748571428571426 1.5026742857142856 0.7978285714285713 3.221897142857143 1.092342857142857 4.904468571428571 0.8396571428571429 1.6825371428571427 -0.2526857142857143 3.2395199999999997 -1.0388571428571427 4.4416457142857135 -2.2429714285714284l0.0012 -0.0010285714285714284 8.406822857142856 -8.40696 -13.779085714285715 -13.779085714285715Z" clip-rule="evenodd" stroke-width="3.4286"></path>
  </g>
</svg>