<svg xmlns="http://www.w3.org/2000/svg" fill="none" viewBox="0 0 48 48" id="Color-Palette--Streamline-Core-Remix" height="48" width="48">
  <desc>
    Color Palette Streamline Icon: https://streamlinehq.com
  </desc>
  <g id="Free Remix/Interface Essential/color-palette--color-palette-company-office-supplies-work">
    <path id="Subtract" fill="#000000" fill-rule="evenodd" d="M24.000719999999998 5.9639999999999995c-5.597657142857142 0 -10.245462857142856 4.0668 -11.14998857142857 9.406971428571428 0.8903657142857142 -0.15798857142857142 1.8068914285714284 -0.24037714285714287 2.7426514285714285 -0.24037714285714287 3.096 0 5.981314285714285 0.9021942857142856 8.407337142857143 2.4580114285714285 2.4260571428571427 -1.5558514285714287 5.311337142857142 -2.4580114285714285 8.407371428571428 -2.4580114285714285 0.9357599999999999 0 1.8522514285714287 0.08242285714285713 2.7426514285714285 0.24037714285714287 -0.9045257142857143 -5.340171428571428 -5.552331428571428 -9.406971428571428 -11.150022857142856 -9.406971428571428Zm0 -4.2857074285714285c-8.481257142857142 0 -15.381222857142856 6.770324571428571 -15.59016 15.201284571428571C3.412296 19.477782857142856 -0.0016741062857142856 24.702994285714286 -0.0016741062857142856 30.725622857142852c0 8.612777142857142 6.982142677714284 15.595062857142857 15.59505696342857 15.595062857142857 3.096 0 5.981314285714285 -0.9020571428571428 8.407337142857143 -2.4579428571428568 2.4260571428571427 1.555885714285714 5.311337142857142 2.4579428571428568 8.407371428571428 2.4579428571428568 8.613051428571428 0 15.594994285714286 -6.982285714285714 15.594994285714286 -15.595062857142857 0 -6.022628571428571 -3.413828571428571 -11.247874285714285 -8.412342857142855 -13.846045714285713C39.38194285714285 8.448617142857142 32.48197714285714 1.6782925714285712 24.000719999999998 1.6782925714285712ZM4.284034285714285 30.725622857142852c0 -3.783942857142857 1.8583542857142854 -7.133828571428571 4.71216 -9.186822857142856 1.181725714285714 4.164994285714285 4.050857142857143 7.620411428571428 7.821737142857143 9.580594285714286 0.09233142857142856 3.72552 1.4911542857142854 7.126662857142856 3.7555885714285715 9.762891428571429 -1.502605714285714 0.7381714285714285 -3.19296 1.1526857142857143 -4.980137142857142 1.1526857142857143 -6.2459999999999996 0 -11.309348571428572 -5.063314285714285 -11.309348571428572 -11.309348571428572ZM27.427954285714282 40.88228571428571c2.2644342857142856 -2.6362285714285716 3.6632228571428573 -6.0373714285714275 3.755554285714285 -9.762891428571429 3.7707771428571424 -1.960182857142857 6.640148571428571 -5.4155999999999995 7.8216342857142855 -9.58056 2.853942857142857 2.0529599999999997 4.712228571428572 5.402845714285714 4.712228571428572 9.18678857142857 0 6.246034285714286 -5.063314285714285 11.309348571428572 -11.30928 11.309348571428572 -1.7871771428571426 0 -3.4774971428571426 -0.41451428571428567 -4.980137142857142 -1.1526857142857143Zm-3.4273371428571426 -19.608582857142856c-2.267862857142857 2.0298171428571425 -3.809554285714286 4.850708571428571 -4.192594285714285 8.027382857142857 1.3131771428571428 0.45270857142857135 2.7233485714285712 0.6988114285714285 4.192594285714285 0.6988114285714285 1.46928 0 2.8794514285714286 -0.24610285714285712 4.192594285714285 -0.6988114285714285 -0.3830057142857143 -3.1766742857142853 -1.9247314285714285 -5.997565714285714 -4.192594285714285 -8.027382857142857Z" clip-rule="evenodd" stroke-width="3.4286"></path>
  </g>
</svg>