<svg xmlns="http://www.w3.org/2000/svg" fill="none" viewBox="0 0 48 48" id="Color-Swatches--Streamline-Core-Remix" height="48" width="48">
  <desc>
    Color Swatches Streamline Icon: https://streamlinehq.com
  </desc>
  <g id="Free Remix/Interface Essential/color-swatches--color-colors-design-painting-palette-sample-swatch">
    <path id="Union" fill="#000000" fill-rule="evenodd" d="M1.2857142857142856 6.857142857142857C1.2857142857142856 3.780137142857143 3.780137142857143 1.2857142857142856 6.857142857142857 1.2857142857142856h10.285714285714285c3.0770057142857143 0 5.571428571428571 2.494422857142857 5.571428571428571 5.571428571428571v3.39696l5.916925714285714 -5.916925714285714c2.1757714285714287 -2.1757611428571426 5.703531428571428 -2.175768 7.879302857142857 0l7.151314285714285 7.151279999999999c2.1757714285714287 2.1757714285714287 2.1757714285714287 5.703428571428571 -0.00034285714285714285 7.879199999999999L37.743428571428566 25.285714285714285H41.14285714285714c3.077142857142857 0 5.571428571428571 2.494422857142857 5.571428571428571 5.571428571428571v10.285714285714285c0 3.077142857142857 -2.494285714285714 5.571428571428571 -5.571428571428571 5.571428571428571H12c-5.917337142857142 0 -10.714285714285714 -4.796914285714285 -10.714285714285714 -10.714285714285714V6.857142857142857Zm16.938 30.75908571428571c-0.21233142857142856 0.8208 -0.5828228571428571 1.5771428571428572 -1.0773599999999999 2.2361142857142857 -0.007337142857142856 0.009942857142857142 -0.014571428571428572 0.019542857142857143 -0.021702857142857142 0.029485714285714285 -1.173942857142857 1.5473142857142856 -3.0326057142857143 2.546742857142857 -5.124651428571428 2.546742857142857 -3.5503885714285714 0 -6.428571428571428 -2.878285714285714 -6.428571428571428 -6.428571428571428v-6.857142857142857h12.856731428571429v6.8568c0 0.5591999999999999 -0.07097142857142856 1.1005714285714285 -0.2044457142857143 1.6165714285714283ZM18.428571428571427 15.385131428571428c-0.00027428571428571427 0.014228571428571427 -0.00041142857142857143 0.028457142857142854 -0.00041142857142857143 0.04272V17.142857142857142H5.571428571428571V6.857142857142857c0 -0.7100914285714285 0.5756228571428571 -1.2857142857142856 1.2857142857142856 -1.2857142857142856h10.285714285714285c0.7100914285714285 0 1.2857142857142856 0.5756228571428571 1.2857142857142856 1.2857142857142856v8.52798857142857Zm4.285714285714286 18.868971428571427 17.91702857142857 -17.916925714285714c0.5019428571428571 -0.50208 0.5019428571428571 -1.31616 0 -1.8182742857142855L33.479931428571426 7.367657142857142c-0.5021142857142856 -0.5021142857142856 -1.31616 -0.5021142857142856 -1.8182742857142855 0L22.71428571428571 16.31502857142857v17.939074285714288Z" clip-rule="evenodd" stroke-width="3.4286"></path>
  </g>
</svg>