<svg xmlns="http://www.w3.org/2000/svg" fill="none" viewBox="0 0 48 48" id="Comet--Streamline-Core-Remix" height="48" width="48">
  <desc>
    Comet Streamline Icon: https://streamlinehq.com
  </desc>
  <g id="Free Remix/Nature Ecology/comet--nature-meteor-fall-space-object-danger">
    <path id="Union" fill="#000000" fill-rule="evenodd" d="M30.223851428571425 0.6219977142857143c0.8399657142857143 0.8337188571428571 0.8450057142857142 2.1904902857142856 0.011279999999999998 3.0304251428571427L7.178434285714286 26.881439999999998l-0.005622857142857142 0.005622857142857142c-3.8494594285714285 3.849462857142857 -3.8494594285714285 10.090765714285714 0 13.940022857142855 3.849462857142857 3.8495999999999997 10.09062857142857 3.8495999999999997 13.940091428571428 0l0.005657142857142857 -0.005485714285714286 23.228982857142856 -23.056731428571425c0.84 -0.8337257142857142 2.196685714285714 -0.8286857142857142 3.0305142857142857 0.011279999999999998 0.8338285714285714 0.8399314285714286 0.8286857142857142 2.19672 -0.011314285714285714 3.0304114285714285L24.143382857142857 43.8576l-0.0024342857142857144 0.0024c-5.523325714285714 5.520685714285714 -14.476285714285712 5.5200000000000005 -19.998617142857142 -0.0024 -5.522129142857143 -5.522057142857142 -5.5231131428571425 -14.474674285714284 -0.0029485714285714284 -19.998034285714287l0.0029485714285714284 -0.0029485714285714284L27.19344 0.6332777142857143c0.8336914285714285 -0.8399458285714285 2.1904799999999995 -0.8449957714285714 3.0304114285714285 -0.011279999999999998ZM14.571428571428571 26.57142857142857c-3.7870971428571427 0 -6.857142857142857 3.070045714285714 -6.857142857142857 6.857142857142857 0 3.7872 3.070045714285714 6.857142857142857 6.857142857142857 6.857142857142857s6.857142857142857 -3.069942857142857 6.857142857142857 -6.857142857142857c0 -3.7870971428571427 -3.070045714285714 -6.857142857142857 -6.857142857142857 -6.857142857142857ZM42.229371428571426 0.6276274285714285c0.8369142857142857 0.8368388571428571 0.8369142857142857 2.1936205714285713 0 3.030452571428571l-20.142719999999997 20.142857142857142c-0.8368457142857142 0.8368457142857142 -2.1936 0.8368457142857142 -3.030445714285714 0 -0.8368457142857142 -0.8368457142857142 -0.8368457142857142 -2.1936 0 -3.030445714285714L39.1992 0.6276274285714285c0.8365714285714285 -0.8368367999999999 2.1936 -0.8368367999999999 3.0301714285714283 0Zm-3.4285714285714284 16.744738285714284c0.8369142857142857 -0.8368457142857142 0.8369142857142857 -2.1936 0 -3.030445714285714 -0.8365714285714285 -0.8368457142857142 -2.1936 -0.8368457142857142 -3.0301714285714283 0l-11.571565714285713 11.571428571428571c-0.8368457142857142 0.8368457142857142 -0.8368457142857142 2.1936 0 3.030445714285714 0.8368457142857142 0.8368457142857142 2.1936 0.8368457142857142 3.030445714285714 0l11.571291428571428 -11.571428571428571Z" clip-rule="evenodd" stroke-width="3.4286"></path>
  </g>
</svg>