<svg xmlns="http://www.w3.org/2000/svg" fill="none" viewBox="0 0 48 48" id="Command--Streamline-Core-Remix" height="48" width="48">
  <desc>
    Command Streamline Icon: https://streamlinehq.com
  </desc>
  <g id="Free Remix/Computer Devices/command--mac-command-apple-keyboard">
    <path id="Vector" stroke="#000000" stroke-linecap="round" stroke-linejoin="round" stroke-width="4.2857" d="M39.032914285714284 33.494502857142855c1.0954285714285714 0 2.1661714285714284 0.32482285714285714 3.077142857142857 0.9334971428571428 0.9106285714285713 0.6085714285714285 1.6206857142857143 1.4736 2.0396571428571426 2.4853714285714283 0.4193142857142857 1.0121142857142857 0.5290285714285714 2.1257142857142854 0.3154285714285714 3.200228571428571 -0.21394285714285713 1.0741714285714286 -0.7412571428571428 2.0609142857142855 -1.5157714285714285 2.8357714285714284 -0.7748571428571428 0.7745142857142856 -1.7616 1.3018285714285713 -2.8357714285714284 1.5157714285714285 -1.0745142857142858 0.21359999999999998 -2.1881142857142857 0.10388571428571428 -3.200228571428571 -0.3154285714285714 -1.0117714285714283 -0.41897142857142855 -1.8767999999999998 -1.1290285714285713 -2.4853714285714283 -2.0396571428571426 -0.6086742857142856 -0.9109714285714285 -0.9334971428571428 -1.9817142857142855 -0.9334971428571428 -3.077142857142857V8.967051428571429c0 -1.0954285714285714 0.32482285714285714 -2.16624 0.9334971428571428 -3.0770057142857143 0.6085714285714285 -0.9107999999999999 1.4736 -1.6206857142857143 2.4853714285714283 -2.039897142857143 1.0121142857142857 -0.4191771428571428 2.1257142857142854 -0.5288571428571428 3.200228571428571 -0.3151542857142857 1.0741714285714286 0.21370285714285714 2.0609142857142855 0.7411885714285714 2.8357714285714284 1.5157714285714285 0.7745142857142856 0.7745485714285714 1.3018285714285713 1.7614285714285716 1.5157714285714285 2.8357714285714284 0.21359999999999998 1.074342857142857 0.10388571428571428 2.187942857142857 -0.3154285714285714 3.1999885714285714 -0.41897142857142855 1.0120114285714286 -1.1290285714285713 1.877005714285714 -2.0396571428571426 2.4855771428571427 -0.9109714285714285 0.6085714285714285 -1.9817142857142855 0.9333942857142856 -3.077142857142857 0.9333942857142856H8.967051428571429c-1.0954285714285714 0 -2.16624 -0.32482285714285714 -3.0770057142857143 -0.9333942857142856 -0.9107999999999999 -0.6085714285714285 -1.6206857142857143 -1.4735657142857141 -2.039897142857143 -2.4855771428571427 -0.4191771428571428 -1.0120457142857142 -0.5288571428571428 -2.125645714285714 -0.3151542857142857 -3.1999885714285714 0.21370285714285714 -1.074342857142857 0.7411885714285714 -2.061222857142857 1.5157714285714285 -2.8357714285714284 0.7745485714285714 -0.7745828571428571 1.7614285714285716 -1.3020685714285714 2.8357714285714284 -1.5157714285714285 1.074342857142857 -0.21370285714285714 2.187942857142857 -0.10402285714285714 3.1999885714285714 0.3151542857142857 1.0120114285714286 0.41921142857142857 1.877005714285714 1.1290971428571428 2.4855771428571427 2.039897142857143 0.6085714285714285 0.9107657142857142 0.9333942857142856 1.981577142857143 0.9333942857142856 3.0770057142857143v30.065862857142854c0 1.0954285714285714 -0.32482285714285714 2.1661714285714284 -0.9333942857142856 3.077142857142857 -0.6085714285714285 0.9106285714285713 -1.4735657142857141 1.6206857142857143 -2.4855771428571427 2.0396571428571426 -1.0120457142857142 0.4193142857142857 -2.125645714285714 0.5290285714285714 -3.1999885714285714 0.3154285714285714 -1.074342857142857 -0.21394285714285713 -2.061222857142857 -0.7412571428571428 -2.8357714285714284 -1.5157714285714285 -0.7745828571428571 -0.7748571428571428 -1.3020685714285714 -1.7616 -1.5157714285714285 -2.8357714285714284 -0.21370285714285714 -1.0745142857142858 -0.10402285714285714 -2.1881142857142857 0.3151542857142857 -3.200228571428571 0.41921142857142857 -1.0117714285714283 1.1290971428571428 -1.8767999999999998 2.039897142857143 -2.4853714285714283 0.9107657142857142 -0.6086742857142856 1.981577142857143 -0.9334971428571428 3.0770057142857143 -0.9334971428571428h30.065862857142854Z"></path>
  </g>
</svg>