<svg xmlns="http://www.w3.org/2000/svg" fill="none" viewBox="0 0 48 48" id="Computer-Chip-1--Streamline-Core-Remix" height="48" width="48">
  <desc>
    Computer Chip 1 Streamline Icon: https://streamlinehq.com
  </desc>
  <g id="Free Remix/Computer Devices/Computer Devices/Chips/computer-chip-1--computer-device-chip-electronics-cpu-microprocessor">
    <path id="Union" fill="#000000" fill-rule="evenodd" d="M20.142857142857142 3C20.142857142857142 1.3431462857142857 18.799714285714284 0 17.142857142857142 0s-3 1.3431462857142857 -3 3V6.857142857142857h-1.7142857142857142C9.351565714285714 6.857142857142857 6.857142857142857 9.351565714285714 6.857142857142857 12.428571428571427v1.7142857142857142H3C1.3431462857142857 14.142857142857142 0 15.485999999999999 0 17.142857142857142s1.3431462857142857 3 3 3H6.857142857142857v7.7142857142857135H3C1.3431462857142857 27.857142857142854 0 29.200285714285712 0 30.857142857142854s1.3431462857142857 3 3 3H6.857142857142857v1.7142857142857142C6.857142857142857 38.64857142857143 9.351565714285714 41.14285714285714 12.428571428571427 41.14285714285714h1.7142857142857142v3.8571428571428568c0 1.6566857142857143 1.343142857142857 3 3 3s3 -1.3433142857142857 3 -3V41.14285714285714h7.7142857142857135v3.8571428571428568c0 1.6566857142857143 1.343142857142857 3 3 3s3 -1.3433142857142857 3 -3V41.14285714285714h1.7142857142857142c3.077142857142857 0 5.571428571428571 -2.494285714285714 5.571428571428571 -5.571428571428571v-1.7142857142857142h3.8571428571428568c1.6566857142857143 0 3 -1.343142857142857 3 -3s-1.3433142857142857 -3 -3 -3H41.14285714285714v-7.7142857142857135h3.8571428571428568c1.6566857142857143 0 3 -1.343142857142857 3 -3s-1.3433142857142857 -3 -3 -3H41.14285714285714v-1.7142857142857142C41.14285714285714 9.351565714285714 38.64857142857143 6.857142857142857 35.57142857142857 6.857142857142857h-1.7142857142857142V3C33.857142857142854 1.3431462857142857 32.513999999999996 0 30.857142857142854 0s-3 1.3431462857142857 -3 3V6.857142857142857h-7.7142857142857135V3ZM11.142857142857142 12.428571428571427c0 -0.7100914285714285 0.5756228571428571 -1.2857142857142856 1.2857142857142856 -1.2857142857142856h23.142857142857142c0.7100571428571428 0 1.2857142857142856 0.5756228571428571 1.2857142857142856 1.2857142857142856v23.142857142857142c0 0.7100571428571428 -0.5756571428571428 1.2857142857142856 -1.2857142857142856 1.2857142857142856h-23.142857142857142c-0.7100914285714285 0 -1.2857142857142856 -0.5756571428571428 -1.2857142857142856 -1.2857142857142856v-23.142857142857142ZM23.142857142857142 25.71428571428571c-1.4201485714285715 0 -2.571428571428571 1.1512799999999999 -2.571428571428571 2.571428571428571s1.1512799999999999 2.571428571428571 2.571428571428571 2.571428571428571h6.857142857142857c1.4201485714285715 0 2.571428571428571 -1.1512799999999999 2.571428571428571 -2.571428571428571s-1.1512799999999999 -2.571428571428571 -2.571428571428571 -2.571428571428571h-6.857142857142857Z" clip-rule="evenodd" stroke-width="3.4286"></path>
  </g>
</svg>