<svg xmlns="http://www.w3.org/2000/svg" fill="none" viewBox="0 0 48 48" id="Computer-Pc-Desktop--Streamline-Core-Remix" height="48" width="48">
  <desc>
    Computer Pc Desktop Streamline Icon: https://streamlinehq.com
  </desc>
  <g id="Free Remix/Computer Devices/computer-pc-desktop--screen-desktop-monitor-device-electronics-display-pc-computer">
    <path id="Union" fill="#000000" fill-rule="evenodd" d="M27.428571428571427 6.857142857142857c-1.893565714285714 0 -3.4285714285714284 1.53504 -3.4285714285714284 3.4285714285714284v1.7142857142857142h2.142857142857143c5.443954285714286 0 9.857142857142856 4.413188571428571 9.857142857142856 9.857142857142856H48V10.285714285714285c0 -1.8935314285714284 -1.5349714285714284 -3.4285714285714284 -3.4285714285714284 -3.4285714285714284H27.428571428571427Zm-0.8571428571428571 39c0 -0.1470857142857143 -0.005691428571428571 -0.2928 -0.016902857142857143 -0.4371428571428571C31.80757714285714 45.204342857142855 36 40.87748571428571 36 35.57142857142857v-9.428571428571429H48V44.57142857142857c0 1.8936 -1.5349714285714284 3.4285714285714284 -3.4285714285714284 3.4285714285714284H27.428571428571427c-0.4219885714285714 0 -0.8261485714285715 -0.07611428571428572 -1.1994857142857143 -0.21565714285714283 0.22141714285714284 -0.6006857142857143 0.3423428571428571 -1.2497142857142856 0.3423428571428571 -1.9272Zm14.220685714285715 -29.571634285714282c-0.02571428571428571 0.0009257142857142857 -0.05177142857142857 0.0013714285714285714 -0.07782857142857143 0.0013714285714285714 -1.4204571428571429 0 -2.5717714285714286 -1.151417142857143 -2.5717714285714286 -2.5718057142857145 0 -1.3939885714285714 1.1091428571428572 -2.5289485714285713 2.4929142857142854 -2.570605714285714 0.026057142857142855 -0.0009257142857142857 0.05177142857142857 -0.0014057142857142855 0.07817142857142857 -0.0014057142857142855 1.4201142857142857 0 2.5717714285714286 1.1514514285714286 2.5717714285714286 2.5718057142857145 0 1.3939885714285714 -1.1091428571428572 2.528982857142857 -2.4932571428571424 2.57064ZM4.285714285714286 21.857142857142858c0 -0.7100914285714285 0.5756228571428571 -1.2857142857142856 1.2857142857142856 -1.2857142857142856h20.57142857142857c0.7100914285714285 0 1.2857142857142856 0.5756228571428571 1.2857142857142856 1.2857142857142856v13.714285714285714c0 0.7100571428571428 -0.5756228571428571 1.2857142857142856 -1.2857142857142856 1.2857142857142856h-20.57142857142857c-0.7100914285714285 0 -1.2857142857142856 -0.5756571428571428 -1.2857142857142856 -1.2857142857142856v-13.714285714285714Zm13.714285714285714 19.285714285714285h8.142857142857142c3.0770057142857143 0 5.571428571428571 -2.494285714285714 5.571428571428571 -5.571428571428571v-13.714285714285714c0 -3.0770057142857143 -2.494422857142857 -5.571428571428571 -5.571428571428571 -5.571428571428571h-20.57142857142857C2.494412571428571 16.285714285714285 0 18.780137142857143 0 21.857142857142858v13.714285714285714C0 38.64857142857143 2.494412571428571 41.14285714285714 5.571428571428571 41.14285714285714H13.714285714285714v2.571428571428571h-3c-1.1834742857142857 0 -2.142857142857143 0.9593142857142857 -2.142857142857143 2.142857142857143s0.9593828571428571 2.142857142857143 2.142857142857143 2.142857142857143h10.285714285714285c1.1834742857142857 0 2.142857142857143 -0.9593142857142857 2.142857142857143 -2.142857142857143s-0.9593828571428571 -2.142857142857143 -2.142857142857143 -2.142857142857143H18V41.14285714285714Z" clip-rule="evenodd" stroke-width="3.4286"></path>
  </g>
</svg>