<svg xmlns="http://www.w3.org/2000/svg" fill="none" viewBox="0 0 48 48" id="Computer-Chip-2--Streamline-Core-Remix" height="48" width="48">
  <desc>
    Computer Chip 2 Streamline Icon: https://streamlinehq.com
  </desc>
  <g id="Free Remix/Computer Devices/Computer Devices/Chips/computer-chip-2--core-microprocessor-device-electronics-chip-computer">
    <path id="Union" fill="#000000" fill-rule="evenodd" d="M13.483474285714285 6.593417142857142c0 -0.5644457142857142 0.45754285714285714 -1.0219885714285715 1.0219885714285715 -1.0219885714285715h18.989005714285714c0.5644114285714285 0 1.0219885714285715 0.45754285714285714 1.0219885714285715 1.0219885714285715V41.40651428571429c0 0.5643428571428571 -0.4575771428571428 1.0220571428571428 -1.0219885714285715 1.0220571428571428H14.505462857142856c-0.5644457142857142 0 -1.0219885714285715 -0.45771428571428574 -1.0219885714285715 -1.0220571428571428V6.593417142857142ZM14.505462857142856 1.2857142857142856c-2.9313599999999997 0 -5.307702857142856 2.3763428571428573 -5.307702857142856 5.307702857142856v3.3296571428571426H3.4285714285714284c-1.656853714285714 0 -3 1.343142857142857 -3 3s1.3431462857142857 3 3 3h5.769188571428571V21H3.4285714285714284c-1.656853714285714 0 -3 1.343142857142857 -3 3s1.3431462857142857 3 3 3h5.769188571428571v5.076925714285713H3.4285714285714284c-1.656853714285714 0 -3 1.343142857142857 -3 3.0001028571428567 0 1.6566857142857143 1.3431462857142857 3 3 3h5.769188571428571v3.329485714285714c0 2.931428571428571 2.3763428571428573 5.307771428571429 5.307702857142856 5.307771428571429h18.989005714285714c2.9313599999999997 0 5.307702857142856 -2.3763428571428573 5.307702857142856 -5.307771428571429v-3.329485714285714H44.57142857142857c1.6570285714285713 0 3 -1.3433142857142857 3 -3 0 -1.6569599999999998 -1.3429714285714285 -3.0001028571428567 -3 -3.0001028571428567h-5.769257142857143V27H44.57142857142857c1.6570285714285713 0 3 -1.343142857142857 3 -3s-1.3429714285714285 -3 -3 -3h-5.769257142857143V15.923074285714286H44.57142857142857c1.6570285714285713 0 3 -1.343142857142857 3 -3s-1.3429714285714285 -3 -3 -3h-5.769257142857143v-3.3296571428571426c0 -2.9313599999999997 -2.3763428571428573 -5.307702857142856 -5.307702857142856 -5.307702857142856H14.505462857142856Zm7.91208 31.219782857142853c-1.4201485714285715 0 -2.571428571428571 1.1512799999999999 -2.571428571428571 2.5715314285714284 0 1.4201142857142857 1.1512799999999999 2.571428571428571 2.571428571428571 2.571428571428571h6.3296914285714285c1.4201485714285715 0 2.571428571428571 -1.1513142857142855 2.571428571428571 -2.571428571428571 0 -1.4202514285714285 -1.1512799999999999 -2.5715314285714284 -2.571428571428571 -2.5715314285714284H22.417542857142855Z" clip-rule="evenodd" stroke-width="3.4286"></path>
  </g>
</svg>