<svg xmlns="http://www.w3.org/2000/svg" fill="none" viewBox="0 0 48 48" id="Compass-Navigator--Streamline-Core-Remix" height="48" width="48">
  <desc>
    Compass Navigator Streamline Icon: https://streamlinehq.com
  </desc>
  <g id="Free Remix/Map Travel/compass-navigator">
    <path id="Union" fill="#000000" fill-rule="evenodd" d="M46.5888 7.653257142857143c0.8190857142857142 -3.685062857142857 -2.5577142857142854 -7.061643428571427 -6.242742857142857 -6.242732571428571L11.94990857142857 7.7208c-2.111691428571428 0.46926857142857137 -3.760902857142857 2.118445714285714 -4.2301714285714285 4.230137142857142L1.4094788571428571 40.34708571428571c-0.8189108571428572 3.685028571428571 2.5576525714285716 7.0618285714285705 6.242749714285714 6.242742857142857l28.396114285714283 -6.310285714285714c2.1116571428571427 -0.4690285714285714 3.7611428571428567 -2.118514285714286 4.2301714285714285 -4.2301714285714285l6.310285714285714 -28.396114285714283Zm-5.312914285714286 -2.059062857142857c0.2801142857142857 -0.062262857142857134 0.5941714285714286 0.023005714285714282 0.8502857142857142 0.27915428571428574 0.2561142857142857 0.2561485714285714 0.34114285714285714 0.5701371428571428 0.27908571428571427 0.8502171428571428l-6.310285714285714 28.396320000000003c-0.10834285714285714 0.48719999999999997 -0.4889142857142857 0.8677714285714285 -0.9761142857142857 0.9761142857142857l-28.396354285714285 6.310285714285714c-0.28008 0.06205714285714286 -0.5940342857142856 -0.02297142857142857 -0.8501828571428571 -0.27908571428571427s-0.34141714285714286 -0.5701714285714286 -0.2791885714285714 -0.8502857142857142l6.310285714285714 -28.39628571428571c0.1082742857142857 -0.48730285714285715 0.48888 -0.8678742857142857 0.976182857142857 -0.976182857142857l28.39628571428571 -6.310251428571428ZM16.284891428571427 24c0 -4.260479999999999 3.453805714285714 -7.7142857142857135 7.7142857142857135 -7.7142857142857135s7.7142857142857135 3.453805714285714 7.7142857142857135 7.7142857142857135 -3.453805714285714 7.7142857142857135 -7.7142857142857135 7.7142857142857135 -7.7142857142857135 -3.453805714285714 -7.7142857142857135 -7.7142857142857135Z" clip-rule="evenodd" stroke-width="3.4286"></path>
  </g>
</svg>