<svg xmlns="http://www.w3.org/2000/svg" fill="none" viewBox="0 0 48 48" id="Cone-Shape--Streamline-Core-Remix" height="48" width="48">
  <desc>
    Cone Shape Streamline Icon: https://streamlinehq.com
  </desc>
  <g id="Free Remix/Interface Essential/cone-shape">
    <path id="Union" fill="#000000" fill-rule="evenodd" d="M2.7559782857142854 36.41622857142857c0.03406971428571428 -0.22422857142857142 0.10455771428571428 -0.4467428571428571 0.21407657142857142 -0.6593142857142856L20.34329142857143 2.023662857142857l1.9050514285714286 0.9811302857142856 -1.9050514285714286 -0.9811337142857142c0.5967771428571428 -1.158750857142857 1.7368457142857143 -2.0255848422857143 3.1508914285714282 -2.02533348 1.4140114285714285 0.0002513588571428571 2.5537714285714284 0.8674226228571428 3.1502057142857143 2.026242051428571L44.013257142857135 35.7696c0.10594285714285714 0.20571428571428568 0.1752 0.42034285714285713 0.2105142857142857 0.6366857142857143 0.1793142857142857 0.5403428571428571 0.27977142857142856 1.1153142857142855 0.27977142857142856 1.7221714285714285 0 1.8270857142857144 -0.9130285714285713 3.3644571428571424 -2.1349714285714287 4.548 -1.2154285714285713 1.1770285714285713 -2.862171428571428 2.1387428571428573 -4.7221714285714285 2.9005714285714284 -3.7304228571428566 1.5281142857142855 -8.736068571428572 2.424 -14.154925714285714 2.424 -5.418857142857143 0 -10.424468571428571 -0.8958857142857142 -14.154891428571428 -2.424 -1.8599999999999999 -0.7618285714285714 -3.5068114285714285 -1.7235428571428573 -4.722342857142857 -2.9005714285714284 -1.2219394285714287 -1.183542857142857 -2.1348857142857143 -2.7209142857142856 -2.1348857142857143 -4.548 0 -0.6030857142857142 0.09944571428571428 -1.1746285714285714 0.276624 -1.7122285714285714ZM36.316114285714285 30.179862857142854 23.493394285714285 5.267382857142857 10.662239999999999 30.181474285714284c3.5525828571428573 -1.222902857142857 8.02878857142857 -1.9258971428571428 12.829234285714286 -1.9258971428571428 4.798388571428571 0 9.272777142857143 0.7023771428571428 12.824639999999999 1.9242857142857144Z" clip-rule="evenodd" stroke-width="3.4286"></path>
  </g>
</svg>