<svg xmlns="http://www.w3.org/2000/svg" fill="none" viewBox="0 0 48 48" id="Controller-1--Streamline-Core-Remix" height="48" width="48">
  <desc>
    Controller 1 Streamline Icon: https://streamlinehq.com
  </desc>
  <g id="Free Remix/Computer Devices/controller-1--remote-quadcopter-drones-flying-drone-control-controller-technology-fly">
    <path id="Union" fill="#000000" fill-rule="evenodd" d="M5.862514285714285 17.298274285714285c0.43858285714285716 -4.129302857142857 3.961302857142857 -7.292982857142857 8.195897142857143 -7.292982857142857h19.883931428571426c4.234457142857143 0 7.757314285714285 3.16368 8.19582857142857 7.292982857142857l1.5449142857142857 14.544754285714284c0.34697142857142854 3.266228571428571 -2.2409142857142856 6.151371428571428 -5.613257142857143 6.151371428571428 -2.2429714285714284 0 -4.2614399999999995 -1.3086857142857142 -5.16168 -3.317142857142857l-1.373622857142857 -3.0648685714285713c-0.34536 -0.7705371428571428 -1.1110628571428571 -1.2664114285714285 -1.9554514285714284 -1.2664114285714285H18.42168c-0.8443885714285714 0 -1.6100914285714285 0.4958742857142857 -1.9554171428571427 1.2664114285714285l-1.373657142857143 3.0648685714285713c-0.90024 2.0084571428571425 -2.9188457142857143 3.317142857142857 -5.161611428571429 3.317142857142857 -3.37224 0 -5.960228571428571 -2.8851428571428572 -5.613325714285714 -6.151371428571428l1.5448457142857142 -14.544754285714284Zm8.195897142857143 -11.578697142857143c-6.393805714285714 0 -11.784157714285714 4.785119999999999 -12.457638857142857 11.126022857142855L0.05594022857142857 31.390388571428574C-0.5645691428571429 37.232571428571426 4.057371428571428 42.28011428571428 9.930994285714284 42.28011428571428c3.9140914285714286 0 7.474422857142857 -2.2844571428571427 9.072479999999999 -5.850171428571428l0.806022857142857 -1.798285714285714h8.38176l0.806022857142857 1.798285714285714c1.5980914285714285 3.565714285714286 5.158388571428571 5.850171428571428 9.072548571428571 5.850171428571428 5.873485714285714 0 10.495542857142857 -5.047542857142857 9.874971428571428 -10.889725714285714l-1.5449142857142857 -14.544754285714284c-0.6733714285714285 -6.340937142857142 -6.063771428571428 -11.126057142857142 -12.457542857142856 -11.126057142857142H14.058411428571427Zm1.0290171428571429 8.917988571428571c1.1834742857142857 0 2.142857142857143 0.9593828571428571 2.142857142857143 2.142857142857143v1.8188914285714286h1.8180685714285714c1.1834742857142857 0 2.142857142857143 0.9594171428571429 2.142857142857143 2.142857142857143 0 1.1834742857142857 -0.9593828571428571 2.142857142857143 -2.142857142857143 2.142857142857143H17.230285714285714v1.818445714285714c0 1.1834742857142857 -0.9593828571428571 2.142857142857143 -2.142857142857143 2.142857142857143s-2.142857142857143 -0.9593828571428571 -2.142857142857143 -2.142857142857143V22.88502857142857h-1.8192685714285712c-1.1834742857142857 0 -2.142857142857143 -0.9593828571428571 -2.142857142857143 -2.142857142857143 0 -1.1834399999999998 0.9593828571428571 -2.142857142857143 2.142857142857143 -2.142857142857143h1.8192685714285712v-1.8188914285714286c0 -1.1834742857142857 0.9593828571428571 -2.142857142857143 2.142857142857143 -2.142857142857143Zm17.805805714285714 2.9917371428571427c0 1.652297142857143 1.3394742857142858 2.9917714285714285 2.991908571428571 2.9917714285714285 1.6522285714285714 0 2.9917714285714285 -1.3394742857142858 2.9917714285714285 -2.9917714285714285s-1.3395428571428571 -2.9917371428571427 -2.9917714285714285 -2.9917371428571427c-1.6524342857142855 0 -2.991908571428571 1.33944 -2.991908571428571 2.9917371428571427ZM27.80149714285714 23.65062857142857c-0.0007542857142857143 -0.023485714285714283 -0.0011657142857142858 -0.04704 -0.0011657142857142858 -0.07069714285714285 0 -1.652297142857143 1.3394742857142858 -2.9917714285714285 2.9917714285714285 -2.9917714285714285 1.6287771428571427 0 2.9535428571428572 1.3015885714285715 2.9909485714285715 2.921382857142857 0.0007542857142857143 0.023348571428571427 0.0011314285714285714 0.0468 0.0011314285714285714 0.07032 0 1.652297142857143 -1.33944 2.9917714285714285 -2.9917714285714285 2.9917714285714285 -1.6286399999999999 0 -2.9533371428571424 -1.3014171428571426 -2.990914285714285 -2.921005714285714Z" clip-rule="evenodd" stroke-width="3.4286"></path>
  </g>
</svg>