<svg xmlns="http://www.w3.org/2000/svg" fill="none" viewBox="0 0 48 48" id="Container--Streamline-Core-Remix" height="48" width="48">
  <desc>
    Container Streamline Icon: https://streamlinehq.com
  </desc>
  <g id="Free Remix/Shipping/container--box-package-label-delivery-shipment-shipping-container">
    <path id="Union" fill="#000000" fill-rule="evenodd" d="M2.142857142857143 5.142857142857142C0.9593897142857143 5.142857142857142 0 6.102239999999999 0 7.285714285714286s0.9593897142857143 2.142857142857143 2.142857142857143 2.142857142857143H2.571428571428571v29.142857142857142H2.142857142857143c-1.1834674285714284 0 -2.142857142857143 0.9593142857142857 -2.142857142857143 2.142857142857143s0.9593897142857143 2.142857142857143 2.142857142857143 2.142857142857143h43.714285714285715c1.183542857142857 0 2.142857142857143 -0.9593142857142857 2.142857142857143 -2.142857142857143s-0.9593142857142857 -2.142857142857143 -2.142857142857143 -2.142857142857143h-0.42857142857142855v-29.142857142857142h0.42857142857142855c1.183542857142857 0 2.142857142857143 -0.9593828571428571 2.142857142857143 -2.142857142857143s-0.9593142857142857 -2.142857142857143 -2.142857142857143 -2.142857142857143H2.142857142857143ZM41.14285714285714 9.428571428571429v29.142857142857142H6.857142857142857v-29.142857142857142h34.285714285714285ZM16.285714285714285 17.142857142857142c0 -1.4201485714285715 -1.1512799999999999 -2.571428571428571 -2.571428571428571 -2.571428571428571s-2.571428571428571 1.1512799999999999 -2.571428571428571 2.571428571428571v13.714285714285714c0 1.4201485714285715 1.1512799999999999 2.571428571428571 2.571428571428571 2.571428571428571s2.571428571428571 -1.1512799999999999 2.571428571428571 -2.571428571428571V17.142857142857142ZM24 14.571428571428571c1.4201485714285715 0 2.571428571428571 1.1512799999999999 2.571428571428571 2.571428571428571v13.714285714285714c0 1.4201485714285715 -1.1512799999999999 2.571428571428571 -2.571428571428571 2.571428571428571s-2.571428571428571 -1.1512799999999999 -2.571428571428571 -2.571428571428571V17.142857142857142c0 -1.4201485714285715 1.1512799999999999 -2.571428571428571 2.571428571428571 -2.571428571428571Zm12.857142857142856 2.571428571428571c0 -1.4201485714285715 -1.1513142857142855 -2.571428571428571 -2.571428571428571 -2.571428571428571 -1.4201485714285715 0 -2.571428571428571 1.1512799999999999 -2.571428571428571 2.571428571428571v13.714285714285714c0 1.4201485714285715 1.1512799999999999 2.571428571428571 2.571428571428571 2.571428571428571 1.4201142857142857 0 2.571428571428571 -1.1512799999999999 2.571428571428571 -2.571428571428571V17.142857142857142Z" clip-rule="evenodd" stroke-width="3.4286"></path>
  </g>
</svg>