<svg xmlns="http://www.w3.org/2000/svg" fill="none" viewBox="0 0 48 48" id="Controller-Wireless--Streamline-Core-Remix" height="48" width="48">
  <desc>
    Controller Wireless Streamline Icon: https://streamlinehq.com
  </desc>
  <g id="Free Remix/Computer Devices/controller-wireless--remote-gaming-drones-drone-control-controller-technology-console">
    <path id="Union" fill="#000000" fill-rule="evenodd" d="M23.99958857142857 5.142857142857142c-5.005234285714285 0 -8.644388571428571 1.6871657142857144 -9.601097142857142 2.324982857142857 -1.1816571428571427 0.7877828571428571 -2.7781714285714285 0.46848 -3.5659199999999998 -0.7131771428571428 -0.7877828571428571 -1.181622857142857 -0.46848 -2.7781714285714285 0.7131771428571428 -3.565923428571428C13.345885714285714 1.9886468571428573 17.97733714285714 0 23.99958857142857 0c6.022251428571429 0 10.653668571428572 1.9886468571428573 12.454011428571429 3.1887394285714286 1.1814857142857143 0.7877519999999999 1.5006857142857142 2.384300571428571 0.7131428571428571 3.565923428571428 -0.7878857142857143 1.1816571428571427 -2.3845714285714283 1.5009599999999998 -3.566057142857143 0.7131771428571428C32.64397714285714 6.830022857142857 29.004822857142855 5.142857142857142 23.99958857142857 5.142857142857142Zm-0.0008914285714285713 7.514228571428571c-1.6459199999999998 0 -3.6235885714285714 0.7368685714285714 -4.363782857142857 1.1069485714285714 -1.2702171428571427 0.6351428571428571 -2.8147885714285716 0.12027428571428571 -3.4499314285714284 -1.1499771428571428 -0.6351085714285714 -1.2702171428571427 -0.12023999999999999 -2.814822857142857 1.1499771428571428 -3.4499314285714284 1.09776 -0.5488457142857143 3.898628571428571 -1.6498971428571427 6.663737142857142 -1.6498971428571427 2.7650742857142854 0 5.565977142857142 1.1010514285714283 6.663702857142857 1.6498971428571427 1.2702171428571427 0.6351085714285714 1.785085714285714 2.1797142857142857 1.1499771428571428 3.4499314285714284 -0.6351085714285714 1.2702514285714284 -2.1797142857142857 1.78512 -3.4499314285714284 1.1499771428571428 -0.7401599999999999 -0.37007999999999996 -2.717862857142857 -1.1069485714285714 -4.36374857142857 -1.1069485714285714ZM17.657931428571427 25.285714285714285c0 -1.1834742857142857 -0.9593828571428571 -2.142857142857143 -2.142857142857143 -2.142857142857143 -1.1834399999999998 0 -2.142857142857143 0.9593828571428571 -2.142857142857143 2.142857142857143v1.8189257142857143h-1.8192685714285712c-1.1834742857142857 0 -2.142857142857143 0.9593828571428571 -2.142857142857143 2.142857142857143s0.9593828571428571 2.142857142857143 2.142857142857143 2.142857142857143h1.8192685714285712v1.818445714285714c0 1.183542857142857 0.9594171428571429 2.142857142857143 2.142857142857143 2.142857142857143 1.1834742857142857 0 2.142857142857143 -0.9593142857142857 2.142857142857143 -2.142857142857143v-1.818445714285714h1.818102857142857c1.1834399999999998 0 2.142857142857143 -0.9593828571428571 2.142857142857143 -2.142857142857143s-0.9594171428571429 -2.142857142857143 -2.142857142857143 -2.142857142857143h-1.818102857142857V25.285714285714285Zm-10.821051428571428 2.5857942857142855c0.48864 -4.040297142857143 4.101497142857142 -7.217622857142857 8.549999999999999 -7.217622857142857h17.227165714285714c4.448468571428571 0 8.061497142857142 3.177325714285714 8.550068571428572 7.217622857142857l1.228457142857143 10.15854857142857c0.35382857142857144 2.926285714285714 -2.0485714285714285 5.684228571428571 -5.3993142857142855 5.684228571428571 -2.1236571428571427 0 -4.006799999999999 -1.1564571428571429 -4.896514285714286 -2.8937142857142852l-1.22808 -2.397942857142857c-0.3665828571428571 -0.7158857142857142 -1.1031085714285715 -1.166057142857143 -1.9073142857142857 -1.166057142857143H19.03954285714286c-0.8042057142857142 0 -1.5406971428571428 0.45017142857142856 -1.9072799999999996 1.166057142857143l-1.22808 2.397942857142857c-0.8897142857142857 1.7372571428571428 -2.77272 2.8937142857142852 -4.896548571428571 2.8937142857142852 -3.3508799999999996 0 -5.753279999999999 -2.757942857142857 -5.399348571428571 -5.684228571428571l1.2285942857142855 -10.15854857142857Zm8.549999999999999 -11.503337142857141c-6.467965714285714 0 -12.038341714285714 4.652022857142857 -12.804716571428571 10.988777142857142L1.353558857142857 37.515771428571426C0.6659245714285714 43.20137142857143 5.29896 48 11.007634285714285 48c3.6595885714285714 0 7.0556914285714285 -1.9933714285714286 8.711108571428571 -5.225828571428571l0.6309257142857142 -1.2318857142857143h7.301588571428572l0.6309257142857142 1.2318857142857143C29.937565714285714 46.006628571428564 33.33370285714285 48 36.99325714285714 48c5.708571428571428 0 10.3416 -4.798628571428571 9.654171428571427 -10.484228571428572l-1.2288 -10.158822857142857c-0.7662857142857142 -6.336754285714285 -6.336685714285714 -10.988777142857142 -12.804582857142856 -10.988777142857142H15.38688ZM31.178022857142857 26.13462857142857c0 1.652297142857143 1.3394742857142858 2.9917371428571427 2.9917714285714285 2.9917371428571427 1.652262857142857 0 2.991805714285714 -1.33944 2.991805714285714 -2.9917371428571427 0 -1.6523314285714286 -1.3395428571428571 -2.9917714285714285 -2.991805714285714 -2.9917714285714285 -1.652297142857143 0 -2.9917714285714285 1.33944 -2.9917714285714285 2.9917714285714285ZM26.086285714285715 32.15571428571428c-0.0007542857142857143 -0.02338285714285714 -0.0011314285714285714 -0.046902857142857135 -0.0011314285714285714 -0.07049142857142857 0 -1.652297142857143 1.33944 -2.9917371428571427 2.9917371428571427 -2.9917371428571427 1.6287771428571427 0 2.9535428571428572 1.3015542857142857 2.9909485714285715 2.921348571428571 0.0007542857142857143 0.023348571428571427 0.0011314285714285714 0.0468 0.0011314285714285714 0.07032 0 1.652297142857143 -1.33944 2.9918742857142857 -2.9917371428571427 2.9918742857142857 -1.628742857142857 0 -2.9534742857142855 -1.3015885714285715 -2.9909485714285715 -2.9213142857142853Z" clip-rule="evenodd" stroke-width="3.4286"></path>
  </g>
</svg>