<svg xmlns="http://www.w3.org/2000/svg" fill="none" viewBox="0 0 48 48" id="Contact-Phonebook-2--Streamline-Core-Remix" height="48" width="48">
  <desc>
    Contact Phonebook 2 Streamline Icon: https://streamlinehq.com
  </desc>
  <g id="Free Remix/Phone/contact-phonebook-2">
    <path id="Union" fill="#000000" fill-rule="evenodd" d="M10.549165714285714 2.2354285714286e-7h28.581805714285714c1.4598857142857142 0 2.860457142857143 0.5800420621714286 3.8928 1.6125220621714285 1.0326857142857142 1.03248 1.6124571428571428 2.4328148571428567 1.6124571428571428 3.892974857142857v26.901085714285713c0 1.46016 -0.5797714285714285 2.8603885714285715 -1.6124571428571428 3.8930742857142855 -0.506742857142857 0.506742857142857 -1.1022857142857143 0.9044571428571427 -1.749942857142857 1.178057142857143v6.236571428571428h1.219542857142857c1.183542857142857 0 2.142857142857143 0.9593142857142857 2.142857142857143 2.142857142857143 0 1.1832 -0.9593142857142857 2.142857142857143 -2.142857142857143 2.142857142857143H10.548411428571429c-1.9060457142857143 0 -3.7340571428571425 -0.7573714285714286 -5.081828571428571 -2.105142857142857 -1.3461257142857144 -1.3460571428571428 -2.103096 -3.1710857142857143 -2.1049645714285714 -5.074628571428571a2.520009 2.520009 0 0 1 -0.00001028571428571428 -0.007199999999999999V7.052297142857142l0.0007611428571428572 -0.057120000000000004c0.04995428571428571 -1.8726514285714284 0.8291279999999999 -3.6517954285714285 2.171550857142857 -4.958410285714285C6.876137142857142 0.7303268571428572 8.676137142857142 -0.00046665599999999997 10.549165714285714 2.2354285714286e-7ZM7.647325714285714 40.81302857142857c0 0.7693714285714285 0.3056571428571428 1.5071999999999999 0.8497028571428571 2.0513142857142856 0.54408 0.5441142857142857 1.281977142857143 0.8499428571428571 2.051382857142857 0.8499428571428571h26.439702857142855v-5.802171428571428H10.548411428571429c-1.5800914285714285 0 -2.901017142857143 1.3210285714285712 -2.901085714285714 2.9009142857142853Zm0 -6.575108571428571c0.9054171428571427 -0.3994628571428571 1.8923314285714286 -0.6115542857142857 2.901085714285714 -0.6115542857142857h28.582559999999997c0.6469714285714285 0 1.219542857142857 -0.5727771428571428 1.219542857142857 -1.219782857142857V5.505497142857142c0 -0.6470057142857142 -0.5725714285714286 -1.219782857142857 -1.219542857142857 -1.219782857142857H10.548411428571429c-0.7562057142857143 -0.00027428571428571427 -1.4833714285714283 0.2947542857142857 -2.025257142857143 0.8221714285714286 -0.5360228571428571 0.5217257142857142 -0.8495657142857143 1.2300342857142856 -0.8758285714285714 1.9769142857142856v27.15312ZM15.649371428571428 8.287337142857142c1.1820342857142856 -1.3787657142857142 3.3232799999999996 -1.6329257142857143 4.793108571428571 -0.5497714285714285 0.06915428571428571 0.050982857142857135 0.1344342857142857 0.10710857142857143 0.19518857142857143 0.16786285714285712l2.7274971428571426 2.7274971428571426c0.06078857142857142 0.06078857142857142 0.11688 0.1260342857142857 0.16786285714285712 0.19522285714285711 1.10496 1.499382857142857 0.8182628571428572 3.6974399999999994 -0.63432 4.863257142857143 -0.38711999999999996 0.31066285714285713 -0.6906857142857142 0.6598971428571428 -0.8211771428571428 0.930342857142857 -0.020948571428571428 0.04344 -0.033325714285714285 0.07642285714285714 -0.040594285714285715 0.0996 1.340777142857143 1.6737257142857143 2.170388571428571 2.5089599999999996 3.9685714285714284 3.96768 0.023142857142857142 -0.007302857142857142 0.055885714285714275 -0.019645714285714284 0.0989142857142857 -0.040388571428571426 0.27048 -0.13049142857142856 0.61968 -0.4340571428571428 0.9303771428571428 -0.8211428571428571 1.165782857142857 -1.452582857142857 3.3638399999999997 -1.7393142857142856 4.863257142857143 -0.6343542857142856 0.06915428571428571 0.050982857142857135 0.1344 0.1070742857142857 0.19518857142857143 0.16786285714285712l2.727668571428571 2.7274971428571426c0.06068571428571429 0.06078857142857142 0.11657142857142858 0.1260342857142857 0.16765714285714284 0.19518857142857143 1.0830857142857142 1.4698285714285715 0.8290285714285713 3.611074285714286 -0.5496 4.793108571428571l-0.7470857142857142 0.7469485714285714c-2.1032571428571427 2.4099085714285713 -5.684674285714285 3.2399999999999998 -8.633691428571428 1.9926171428571429 -0.0737142857142857 -0.0312 -0.14513142857142855 -0.06750857142857142 -0.21377142857142856 -0.10865142857142858 -4.853657142857143 -2.910582857142857 -8.915382857142857 -6.972274285714286 -11.825965714285713 -11.825931428571428 -0.04213714285714286 -0.07032 -0.07919999999999999 -0.1435542857142857 -0.11087999999999999 -0.21918857142857143 -1.2353142857142856 -2.948331428571428 -0.40700571428571425 -6.519462857142857 1.992925714285714 -8.626388571428572l0.7488685714285714 -0.7488685714285714Z" clip-rule="evenodd" stroke-width="3.4286"></path>
  </g>
</svg>