<svg xmlns="http://www.w3.org/2000/svg" fill="none" viewBox="0 0 48 48" id="Controller--Streamline-Core-Remix" height="48" width="48">
  <desc>
    Controller Streamline Icon: https://streamlinehq.com
  </desc>
  <g id="Free Remix/Computer Devices/controller--remote-quadcopter-drones-flying-drone-control-controller-technology-fly">
    <path id="Union" fill="#000000" fill-rule="evenodd" d="M38.02697142857143 2.571428571428571c0 -1.1834674285714284 -0.9593142857142857 -2.142857142857143 -2.142857142857143 -2.142857142857143s-2.1428914285714282 0.9593897142857143 -2.1428914285714282 2.142857142857143v3.4697828571428566c0 0.7100914285714285 -0.5756228571428571 1.2857142857142856 -1.2857142857142856 1.2857142857142856H27.428022857142857c-3.0770057142857143 0 -5.571428571428571 2.494422857142857 -5.571428571428571 5.571428571428571v2.184102857142857h-6.469714285714286c-6.467965714285714 0 -12.038341714285714 4.652022857142857 -12.804716571428571 10.988777142857142L1.353558857142857 36.23005714285714C0.6659245714285714 41.91565714285714 5.29896 46.71428571428571 11.007634285714285 46.71428571428571c3.6595885714285714 0 7.0556914285714285 -1.9933714285714286 8.711108571428571 -5.225828571428571l0.6309257142857142 -1.2318857142857143h7.301588571428572l0.6309257142857142 1.2318857142857143c1.655382857142857 3.2324571428571427 5.05152 5.225828571428571 8.711074285714284 5.225828571428571 5.708571428571428 0 10.3416 -4.798628571428571 9.654171428571427 -10.484228571428572l-1.2288 -10.158822857142857c-0.7662857142857142 -6.336754285714285 -6.336685714285714 -10.988777142857142 -12.804582857142856 -10.988777142857142H26.14230857142857v-2.184102857142857c0 -0.7100914285714285 0.5756571428571428 -1.2857142857142856 1.2857142857142856 -1.2857142857142856h5.027485714285715c3.077177142857143 0 5.5714628571428575 -2.494422857142857 5.5714628571428575 -5.571428571428571V2.571428571428571ZM15.38688 19.368171428571426c-4.448502857142857 0 -8.06136 3.177325714285714 -8.549999999999999 7.217622857142857l-1.2285942857142855 10.15854857142857c-0.35393142857142856 2.926285714285714 2.0484685714285713 5.684228571428571 5.399348571428571 5.684228571428571 2.123828571428571 0 4.006834285714286 -1.1564571428571429 4.896548571428571 -2.8937142857142852l1.22808 -2.397942857142857c0.3665828571428571 -0.7158857142857142 1.1030742857142857 -1.166057142857143 1.9072799999999996 -1.166057142857143h9.921805714285714c0.8042057142857142 0 1.5407314285714284 0.45017142857142856 1.9073142857142857 1.166057142857143l1.22808 2.397942857142857c0.8897142857142857 1.7372571428571428 2.7728571428571427 2.8937142857142852 4.896514285714286 2.8937142857142852 3.3507428571428566 0 5.753142857142857 -2.757942857142857 5.3993142857142855 -5.684228571428571l-1.228457142857143 -10.15854857142857c-0.4885714285714285 -4.040297142857143 -4.1015999999999995 -7.217622857142857 -8.550068571428572 -7.217622857142857H15.38688ZM17.657931428571427 24c0 -1.1834742857142857 -0.9593828571428571 -2.142857142857143 -2.142857142857143 -2.142857142857143 -1.1834399999999998 0 -2.142857142857143 0.9593828571428571 -2.142857142857143 2.142857142857143v1.8189257142857143h-1.8192685714285712c-1.1834742857142857 0 -2.142857142857143 0.9593828571428571 -2.142857142857143 2.142857142857143s0.9593828571428571 2.142857142857143 2.142857142857143 2.142857142857143h1.8192685714285712v1.818445714285714c0 1.1834742857142857 0.9594171428571429 2.142857142857143 2.142857142857143 2.142857142857143 1.1834742857142857 0 2.142857142857143 -0.9593828571428571 2.142857142857143 -2.142857142857143v-1.818445714285714h1.818102857142857c1.1834399999999998 0 2.142857142857143 -0.9593828571428571 2.142857142857143 -2.142857142857143s-0.9594171428571429 -2.142857142857143 -2.142857142857143 -2.142857142857143h-1.818102857142857V24Zm13.520091428571428 0.8489142857142856c0 1.652297142857143 1.3394742857142858 2.9917371428571427 2.9917714285714285 2.9917371428571427 1.652262857142857 0 2.991805714285714 -1.33944 2.991805714285714 -2.9917371428571427 0 -1.6523314285714286 -1.3395428571428571 -2.9917714285714285 -2.991805714285714 -2.9917714285714285 -1.652297142857143 0 -2.9917714285714285 1.33944 -2.9917714285714285 2.9917714285714285ZM26.086285714285715 30.869999999999997c-0.0007542857142857143 -0.02338285714285714 -0.0011314285714285714 -0.046902857142857135 -0.0011314285714285714 -0.07049142857142857 0 -1.652297142857143 1.33944 -2.9917371428571427 2.9917371428571427 -2.9917371428571427 1.6287771428571427 0 2.9535428571428572 1.3015542857142857 2.9909485714285715 2.921348571428571 0.0007542857142857143 0.023348571428571427 0.0011314285714285714 0.0468 0.0011314285714285714 0.07032 0 1.652297142857143 -1.33944 2.9917714285714285 -2.9917371428571427 2.9917714285714285 -1.628742857142857 0 -2.9534742857142855 -1.3014857142857141 -2.9909485714285715 -2.9212114285714286Z" clip-rule="evenodd" stroke-width="3.4286"></path>
  </g>
</svg>