<svg xmlns="http://www.w3.org/2000/svg" fill="none" viewBox="0 0 48 48" id="Copy-Paste--Streamline-Core-Remix" height="48" width="48">
  <desc>
    Copy Paste Streamline Icon: https://streamlinehq.com
  </desc>
  <g id="Free Remix/Interface Essential/copy-paste--clipboard-copy-cut-paste">
    <path id="Union" fill="#000000" fill-rule="evenodd" d="M5.571428571428571 7.285714285714286h1.7520342857142854C8.136034285714285 9.056159999999998 9.924445714285714 10.285714285714285 12 10.285714285714285h6.857142857142857c2.0755542857142855 0 3.863965714285714 -1.2295542857142856 4.676537142857143 -3H25.285714285714285c0.7100914285714285 0 1.2857142857142856 0.5756228571428571 1.2857142857142856 1.2857142857142856v3c0 1.1834742857142857 0.9593828571428571 2.142857142857143 2.142857142857143 2.142857142857143S30.857142857142854 12.754902857142856 30.857142857142854 11.571428571428571V8.571428571428571C30.857142857142854 5.494422857142857 28.36272 3 25.285714285714285 3h-1.7520342857142854C22.72110857142857 1.2295474285714285 20.93269714285714 0 18.857142857142858 0h-6.857142857142857c-2.0755542857142855 0 -3.863965714285714 1.2295474285714285 -4.676537142857143 3H5.571428571428571C2.494412571428571 3 0 5.494422857142857 0 8.571428571428571v23.57142857142857C0 35.22 2.494412571428571 37.714285714285715 5.571428571428571 37.714285714285715h9.428571428571429c1.1834742857142857 0 2.142857142857143 -0.9593142857142857 2.142857142857143 -2.142857142857143s-0.9593828571428571 -2.142857142857143 -2.142857142857143 -2.142857142857143h-9.428571428571429c-0.7100914285714285 0 -1.2857142857142856 -0.5756228571428571 -1.2857142857142856 -1.2857142857142856V8.571428571428571c0 -0.7100914285714285 0.5756228571428571 -1.2857142857142856 1.2857142857142856 -1.2857142857142856ZM20.57142857142857 22.285714285714285C20.57142857142857 19.445382857142857 22.873954285714284 17.142857142857142 25.71428571428571 17.142857142857142h17.142857142857142c2.8402285714285713 0 5.142857142857142 2.3025257142857143 5.142857142857142 5.142857142857142v20.57142857142857c0 2.8402285714285713 -2.302628571428571 5.142857142857142 -5.142857142857142 5.142857142857142h-17.142857142857142c-2.8403314285714285 0 -5.142857142857142 -2.302628571428571 -5.142857142857142 -5.142857142857142v-20.57142857142857Zm8.571428571428571 3c-1.1834742857142857 0 -2.142857142857143 0.9593828571428571 -2.142857142857143 2.142857142857143s0.9593828571428571 2.142857142857143 2.142857142857143 2.142857142857143h10.285714285714285c1.183542857142857 0 2.142857142857143 -0.9593828571428571 2.142857142857143 -2.142857142857143s-0.9593142857142857 -2.142857142857143 -2.142857142857143 -2.142857142857143h-10.285714285714285ZM27 37.714285714285715c0 -1.183542857142857 0.9593828571428571 -2.142857142857143 2.142857142857143 -2.142857142857143h10.285714285714285c1.183542857142857 0 2.142857142857143 0.9593142857142857 2.142857142857143 2.142857142857143s-0.9593142857142857 2.142857142857143 -2.142857142857143 2.142857142857143h-10.285714285714285c-1.1834742857142857 0 -2.142857142857143 -0.9593142857142857 -2.142857142857143 -2.142857142857143Z" clip-rule="evenodd" stroke-width="3.4286"></path>
  </g>
</svg>