<svg xmlns="http://www.w3.org/2000/svg" fill="none" viewBox="0 0 48 48" id="Creative-Commons--Streamline-Core-Remix" height="48" width="48">
  <desc>
    Creative Commons Streamline Icon: https://streamlinehq.com
  </desc>
  <g id="Free Remix/Interface Essential/creative-commons">
    <path id="Union" fill="#000000" fill-rule="evenodd" d="M24 4.285714285714286C13.112091428571429 4.285714285714286 4.285714285714286 13.112091428571429 4.285714285714286 24c0 10.887771428571428 8.826377142857142 19.71428571428571 19.71428571428571 19.71428571428571 10.887771428571428 0 19.71428571428571 -8.826514285714284 19.71428571428571 -19.71428571428571 0 -10.887908571428571 -8.826514285714284 -19.71428571428571 -19.71428571428571 -19.71428571428571ZM0 24c0 -13.254822857142857 10.745177142857143 -24 24 -24 13.254857142857142 0 24 10.745177142857143 24 24 0 13.254857142857142 -10.745142857142856 24 -24 24 -13.254822857142857 0 -24 -10.745142857142856 -24 -24Zm14.50638857142857 -5.057485714285714c-0.8047542857142858 0 -1.457142857142857 0.6523885714285714 -1.457142857142857 1.457142857142857v7.2c0 0.8047542857142858 0.6523885714285714 1.457142857142857 1.457142857142857 1.457142857142857h2.4c0.6310971428571429 0 1.1737371428571428 -0.4023771428571429 1.3747885714285715 -0.9712114285714286 0.39438857142857137 -1.1158285714285714 1.618662857142857 -1.7006742857142858 2.7344571428571425 -1.3062857142857143 1.1158285714285714 0.39438857142857137 1.7006742857142858 1.618662857142857 1.3062857142857143 2.734491428571429 -0.7873714285714285 2.227611428571428 -2.9117142857142855 3.82872 -5.415531428571429 3.82872h-2.4c-3.171702857142857 0 -5.742857142857143 -2.5711542857142855 -5.742857142857143 -5.742857142857143v-7.2c0 -3.171668571428571 2.5711542857142855 -5.742857142857143 5.742857142857143 -5.742857142857143h2.4c2.5038171428571427 0 4.628194285714286 1.6011428571428572 5.415531428571429 3.8287885714285714 0.39438857142857137 1.1158285714285714 -0.19045714285714285 2.340102857142857 -1.3062857142857143 2.7344571428571425 -1.1158285714285714 0.39438857142857137 -2.340068571428571 -0.19045714285714285 -2.7344571428571425 -1.3062857142857143 -0.20105142857142855 -0.5688342857142857 -0.7436914285714284 -0.9712457142857142 -1.3747885714285715 -0.9712457142857142h-2.4Zm15.335005714285714 1.457142857142857c0 -0.8047542857142858 0.6523542857142857 -1.457142857142857 1.457142857142857 -1.457142857142857h2.4c0.6310628571428571 0 1.1738057142857141 0.40241142857142853 1.37472 0.9712457142857142 0.3942857142857143 1.1158285714285714 1.6186285714285713 1.7006742857142858 2.7346285714285714 1.3062857142857143 1.115657142857143 -0.39435428571428566 1.7005714285714284 -1.6186285714285713 1.3062857142857143 -2.7344571428571425 -0.7875428571428571 -2.2276457142857145 -2.9118857142857144 -3.8287885714285714 -5.415634285714286 -3.8287885714285714h-2.4c-3.171702857142857 0 -5.742857142857143 2.5711885714285714 -5.742857142857143 5.742857142857143v7.2c0 3.171702857142857 2.5711542857142855 5.742857142857143 5.742857142857143 5.742857142857143h2.4c2.5037485714285714 0 4.6280914285714285 -1.6011085714285713 5.415634285714286 -3.82872 0.3942857142857143 -1.1158285714285714 -0.1906285714285714 -2.340102857142857 -1.3062857142857143 -2.734491428571429 -1.1159999999999999 -0.39438857142857137 -2.340342857142857 0.19045714285714285 -2.7346285714285714 1.3062857142857143 -0.2009142857142857 0.5688342857142857 -0.7436571428571428 0.9712114285714286 -1.37472 0.9712114285714286h-2.4c-0.8047885714285714 0 -1.457142857142857 -0.6523885714285714 -1.457142857142857 -1.457142857142857v-7.2Z" clip-rule="evenodd" stroke-width="3.4286"></path>
  </g>
</svg>