<svg xmlns="http://www.w3.org/2000/svg" fill="none" viewBox="0 0 48 48" id="Credit-Card-2--Streamline-Core-Remix" height="48" width="48">
  <desc>
    Credit Card 2 Streamline Icon: https://streamlinehq.com
  </desc>
  <g id="Free Remix/Money Shopping/credit-card-2--deposit-payment-finance-atm-withdraw-atm">
    <path id="Union" fill="#000000" fill-rule="evenodd" d="M3.4285714285714284 0C2.5192594285714285 0 1.6471885714285714 0.361224 1.0042045714285714 1.0042045714285714 0.361224 1.6471885714285714 0 2.5192594285714285 0 3.4285714285714284v10.285714285714285c0 0.9093257142857143 0.361224 1.781382857142857 1.0042045714285714 2.424377142857143C1.6471851428571427 16.781622857142857 2.519256 17.142857142857142 3.4285714285714284 17.142857142857142h6.428571428571428v27c0 2.2769142857142857 1.9382742857142856 3.8571428571428568 3.989005714285714 3.8571428571428568h20.307702857142854c2.0508342857142856 0 3.989005714285714 -1.5802285714285713 3.989005714285714 -3.8571428571428568V17.142857142857142H44.57142857142857c0.9092571428571428 0 1.7814857142857141 -0.3612342857142857 2.424342857142857 -1.0041942857142856C47.63862857142857 15.49566857142857 48 14.62361142857143 48 13.714285714285714V3.4285714285714284c0 -0.9093085714285714 -0.3613714285714285 -1.781382857142857 -1.0042285714285712 -2.424366857142857C46.352914285714284 0.36122057142857145 45.48068571428571 0 44.57142857142857 0H3.4285714285714284Zm10.714285714285714 43.714285714285715V12.428571428571427h19.71428571428571v31.285714285714285h-19.71428571428571Zm9.857554285714285 -21.642857142857142c-3.3137142857142856 0 -6 2.686285714285714 -6 6s2.686285714285714 6 6 6 6 -2.686285714285714 6 -6 -2.686285714285714 -6 -6 -6Zm0 -2.065645714285714c-1.4201485714285715 0 -2.571428571428571 -1.1512457142857142 -2.571428571428571 -2.571428571428571 0 -1.4201485714285715 1.1512799999999999 -2.571428571428571 2.571428571428571 -2.571428571428571h0.00010285714285714286c1.420182857142857 0 2.571428571428571 1.1512799999999999 2.571428571428571 2.571428571428571 0 1.420182857142857 -1.1512457142857142 2.571428571428571 -2.571428571428571 2.571428571428571h-0.00010285714285714286Zm0.00020571428571428572 21.462788571428568c-1.4201485714285715 0 -2.571428571428571 -1.1513142857142855 -2.571428571428571 -2.571428571428571s1.1512799999999999 -2.571428571428571 2.571428571428571 -2.571428571428571l0.00010285714285714286 0c1.420182857142857 0 2.571428571428571 1.1513142857142855 2.571428571428571 2.571428571428571s-1.1512457142857142 2.571428571428571 -2.571428571428571 2.571428571428571l-0.00010285714285714286 0Z" clip-rule="evenodd" stroke-width="3.4286"></path>
  </g>
</svg>