<svg xmlns="http://www.w3.org/2000/svg" fill="none" viewBox="0 0 48 48" id="Credit-Card-1--Streamline-Core-Remix" height="48" width="48">
  <desc>
    Credit Card 1 Streamline Icon: https://streamlinehq.com
  </desc>
  <g id="Free Remix/Money Shopping/credit-card-1--credit-pay-payment-debit-card-finance-plastic-money-atm">
    <path id="Union" fill="#000000" fill-rule="evenodd" d="M5.571428571428571 9c-0.6078514285714286 0 -1.2857142857142856 0.55152 -1.2857142857142856 1.46616V14.571428571428571h39.42857142857142V10.46616c0 -0.91464 -0.6778285714285713 -1.46616 -1.2857142857142856 -1.46616H5.571428571428571Zm-1.2857142857142856 28.533942857142854V23.142857142857142h39.42857142857142v14.391085714285714c0 0.9143999999999999 -0.6778285714285713 1.4660571428571427 -1.2857142857142856 1.4660571428571427H5.571428571428571c-0.6078514285714286 0 -1.2857142857142856 -0.5516571428571427 -1.2857142857142856 -1.4660571428571427ZM0 10.46616C0 7.394399999999999 2.3921691428571425 4.714285714285714 5.571428571428571 4.714285714285714h36.857142857142854c3.1793142857142858 0 5.571428571428571 2.6801142857142852 5.571428571428571 5.751874285714285v27.067782857142856c0 3.0716571428571426 -2.3921142857142854 5.751771428571428 -5.571428571428571 5.751771428571428H5.571428571428571C2.3921691428571425 43.285714285714285 0 40.605599999999995 0 37.533942857142854V10.46616ZM32.57142857142857 28.285714285714285c-1.4201485714285715 0 -2.571428571428571 1.1512799999999999 -2.571428571428571 2.571428571428571s1.1512799999999999 2.571428571428571 2.571428571428571 2.571428571428571H37.714285714285715c1.4201142857142857 0 2.571428571428571 -1.1512799999999999 2.571428571428571 -2.571428571428571s-1.1513142857142855 -2.571428571428571 -2.571428571428571 -2.571428571428571H32.57142857142857Z" clip-rule="evenodd" stroke-width="3.4286"></path>
  </g>
</svg>