<svg xmlns="http://www.w3.org/2000/svg" fill="none" viewBox="0 0 48 48" id="Crop-Selection--Streamline-Core-Remix" height="48" width="48">
  <desc>
    Crop Selection Streamline Icon: https://streamlinehq.com
  </desc>
  <g id="Free Remix/Interface Essential/crop-selection--artboard-crop-design-image-picture">
    <path id="Union" fill="#000000" fill-rule="evenodd" d="M14.571428571428571 2.142857142857143C14.571428571428571 0.9593897142857143 13.612045714285713 0 12.428571428571427 0S10.285714285714285 0.9593897142857143 10.285714285714285 2.142857142857143V10.285714285714285H2.142857142857143C0.9593897142857143 10.285714285714285 0 11.245097142857142 0 12.428571428571427s0.9593897142857143 2.142857142857143 2.142857142857143 2.142857142857143H10.285714285714285v17.57142857142857c0 1.477645714285714 0.5870057142857142 2.894742857142857 1.6318285714285712 3.9394285714285715 1.044857142857143 1.0450285714285714 2.4619542857142855 1.632 3.9395999999999995 1.632H33.42857142857142v8.142857142857142c0 1.183542857142857 0.9593142857142857 2.142857142857143 2.142857142857143 2.142857142857143s2.142857142857143 -0.9593142857142857 2.142857142857143 -2.142857142857143V37.714285714285715h8.142857142857142c1.183542857142857 0 2.142857142857143 -0.9593142857142857 2.142857142857143 -2.142857142857143s-0.9593142857142857 -2.142857142857143 -2.142857142857143 -2.142857142857143h-30c-0.3410057142857143 0 -0.6680228571428571 -0.13546285714285713 -0.9091199999999999 -0.37659428571428566C14.706891428571428 32.81088 14.571428571428571 32.48386285714286 14.571428571428571 32.14285714285714V2.142857142857143ZM21.857142857142858 10.285714285714285c-1.1834742857142857 0 -2.142857142857143 0.9593828571428571 -2.142857142857143 2.142857142857143s0.9593828571428571 2.142857142857143 2.142857142857143 2.142857142857143h10.285714285714285c0.3410057142857143 0 0.6680228571428571 0.13546285714285713 0.9091542857142857 0.37659428571428566 0.24109714285714282 0.24109714285714282 0.37655999999999995 0.5681142857142857 0.37655999999999995 0.9091199999999999v10.285714285714285c0 1.1834742857142857 0.9593142857142857 2.142857142857143 2.142857142857143 2.142857142857143S37.714285714285715 27.32633142857143 37.714285714285715 26.142857142857142v-10.285714285714285c0 -1.477645714285714 -0.5869714285714285 -2.894742857142857 -1.632 -3.9395999999999995C35.0376 10.87272 33.62050285714285 10.285714285714285 32.14285714285714 10.285714285714285h-10.285714285714285Z" clip-rule="evenodd" stroke-width="3.4286"></path>
  </g>
</svg>