<svg xmlns="http://www.w3.org/2000/svg" fill="none" viewBox="0 0 48 48" id="Crutch--Streamline-Core-Remix" height="48" width="48">
  <desc>
    Crutch Streamline Icon: https://streamlinehq.com
  </desc>
  <g id="Free Remix/Map Travel/crutch--disability-crutch">
    <path id="Union" fill="#000000" fill-rule="evenodd" d="M9 9c0 -2.6036228571428572 2.110662857142857 -4.714285714285714 4.714285714285714 -4.714285714285714s4.714285714285714 2.110662857142857 4.714285714285714 4.714285714285714S16.31790857142857 13.714285714285714 13.714285714285714 13.714285714285714s-4.714285714285714 -2.110662857142857 -4.714285714285714 -4.714285714285714Zm13.714285714285714 0c0 2.4564 -0.9841028571428572 4.682982857142856 -2.57952 6.306925714285714C24.47358857142857 17.609862857142858 27.428571428571427 22.174114285714285 27.428571428571427 27.428571428571427v4.714285714285714c0 1.1834742857142857 -0.9593828571428571 2.142857142857143 -2.142857142857143 2.142857142857143H21.605965714285713l-1.4796685714285713 11.837142857142856C19.992274285714284 47.19531428571428 19.080685714285714 48 18 48h-8.571428571428571c-1.0806857142857142 0 -1.9922742857142857 -0.8046857142857142 -2.1262971428571427 -1.877142857142857L5.822605714285714 34.285714285714285H2.142857142857143C0.9593897142857143 34.285714285714285 0 33.32633142857142 0 32.14285714285714V27.428571428571427c0 -5.2544571428571425 2.9549965714285715 -9.818708571428571 7.293805714285714 -12.121645714285714C5.698388571428571 13.682982857142857 4.714285714285714 11.456399999999999 4.714285714285714 9 4.714285714285714 4.0294285714285705 8.743714285714285 0 13.714285714285714 0s9 4.0294285714285705 9 9ZM27.428571428571427 18.428571428571427c0 -1.1834742857142857 0.9593828571428571 -2.142857142857143 2.142857142857143 -2.142857142857143h16.285714285714285c1.183542857142857 0 2.142857142857143 0.9593828571428571 2.142857142857143 2.142857142857143S47.040685714285715 20.57142857142857 45.857142857142854 20.57142857142857H44.57142857142857v10.285714285714285c0 3.0387428571428567 -1.9765714285714284 5.616 -4.714285714285714 6.515657142857143V43.714285714285715h0.8571428571428571c1.183542857142857 0 2.142857142857143 0.9593142857142857 2.142857142857143 2.142857142857143s-0.9593142857142857 2.142857142857143 -2.142857142857143 2.142857142857143h-6c-1.1834742857142857 0 -2.142857142857143 -0.9593142857142857 -2.142857142857143 -2.142857142857143s0.9593828571428571 -2.142857142857143 2.142857142857143 -2.142857142857143h0.8571428571428571v-6.341485714285714C32.83378285714286 36.473142857142854 30.857142857142854 33.89588571428571 30.857142857142854 30.857142857142854V20.57142857142857h-1.2857142857142856C28.387954285714287 20.57142857142857 27.428571428571427 19.612045714285713 27.428571428571427 18.428571428571427Zm10.285714285714285 15c1.4201142857142857 0 2.571428571428571 -1.1512799999999999 2.571428571428571 -2.571428571428571V20.57142857142857h-5.142857142857142v10.285714285714285c0 1.4201485714285715 1.1513142857142855 2.571428571428571 2.571428571428571 2.571428571428571Z" clip-rule="evenodd" stroke-width="3.4286"></path>
  </g>
</svg>