<svg xmlns="http://www.w3.org/2000/svg" fill="none" viewBox="0 0 48 48" id="Css-Three--Streamline-Core-Remix" height="48" width="48">
  <desc>
    Css Three Streamline Icon: https://streamlinehq.com
  </desc>
  <g id="Free Remix/Programming/Programming/Script/css-three--language-three-code-programming-html-css">
    <path id="Union" fill="#000000" fill-rule="evenodd" d="M3.4285714285714284 1.2857142857142856C2.7951222857142857 1.2857142857142856 2.1941177142857144 1.5659931428571428 1.786968 2.0512834285714283 1.3798182857142856 2.5365737142857143 1.2082525714285715 3.177140571428571 1.3183371428571429 3.8009828571428566l5.142874285714286 29.142857142857142c0.09226285714285713 0.52296 0.3754628571428571 0.9930171428571428 0.79464 1.3190742857142856l15.428571428571427 11.999828571428571c0.7738285714285714 0.6020571428571428 1.8573600000000001 0.6020571428571428 2.631188571428571 0l15.428502857142856 -11.999828571428571c0.4193142857142857 -0.3260571428571429 0.7025142857142856 -0.7961142857142857 0.7947428571428571 -1.3190742857142856l5.142857142857142 -29.142857142857142c0.11005714285714284 -0.6238422857142857 -0.06137142857142856 -1.264409142857143 -0.4686857142857142 -1.7496994285714287C45.806057142857135 1.5659931428571428 45.205028571428564 1.2857142857142856 44.57142857142857 1.2857142857142856H3.4285714285714284Zm7.109725714285713 30.1008L5.98272 5.571428571428571H42.01748571428571l-4.555885714285714 25.81508571428571L24 41.85668571428571 10.538297142857141 31.386514285714288ZM15.428571428571427 8.571428571428571c-1.4201485714285715 0 -2.571428571428571 1.1512799999999999 -2.571428571428571 2.571428571428571s1.1512799999999999 2.571428571428571 2.571428571428571 2.571428571428571h8.176834285714285l-6.111085714285714 3.8194285714285714c-0.9727885714285713 0.6079885714285713 -1.4251885714285712 1.7868 -1.1089371428571428 2.8894628571428567 0.31625142857142857 1.1026971428571428 1.3246285714285715 1.8625371428571427 2.4717599999999997 1.8625371428571427h9.428571428571429v4.714285714285714L24 30.21428571428571 18.685714285714287 26.228571428571428c-1.1361257142857142 -0.852102857142857 -2.7478971428571426 -0.62184 -3.6 0.5142857142857142 -0.8520685714285714 1.1361257142857142 -0.62184 2.7478971428571426 0.5142857142857142 3.6l6.857142857142857 5.142857142857142c0.9142971428571429 0.6857142857142857 2.1714514285714284 0.6857142857142857 3.0857142857142854 0l6.857142857142857 -5.142857142857142c0.64752 -0.4856228571428571 1.0285714285714285 -1.2477599999999998 1.0285714285714285 -2.057142857142857v-8.571428571428571C33.42857142857142 18.294137142857142 32.277325714285716 17.142857142857142 30.857142857142854 17.142857142857142h-3.033942857142857l6.111085714285714 -3.8194285714285714c0.9726857142857143 -0.6079885714285713 1.4252571428571428 -1.7868 1.1088 -2.8894628571428567C34.726971428571424 9.331268571428572 33.71859428571428 8.571428571428571 32.57142857142857 8.571428571428571h-17.142857142857142Z" clip-rule="evenodd" stroke-width="3.4286"></path>
  </g>
</svg>