<svg xmlns="http://www.w3.org/2000/svg" fill="none" viewBox="0 0 48 48" id="Curly-Brackets--Streamline-Core-Remix" height="48" width="48">
  <desc>
    Curly Brackets Streamline Icon: https://streamlinehq.com
  </desc>
  <g id="Free Remix/Programming/Programming/Script/curly-brackets">
    <path id="Union" fill="#000000" fill-rule="evenodd" d="M17.48334857142857 0c-3.0770399999999998 0 -5.571428571428571 2.494412571428571 -5.571428571428571 5.571428571428571v10.01105142857143c0 1.9163314285714286 -1.160022857142857 3.6419657142857145 -2.934582857142857 4.365428571428571l-5.072022857142858 2.0678057142857145C3.098712 22.344548571428568 2.571428571428571 23.12893714285714 2.571428571428571 24s0.5272834285714286 1.6554514285714284 1.3338857142857143 1.9842857142857142l5.072022857142858 2.0678057142857145c1.7745600000000001 0.7234628571428571 2.934582857142857 2.4490971428571426 2.934582857142857 4.365428571428571V42.42857142857142c0 3.077142857142857 2.4943885714285714 5.571428571428571 5.571428571428571 5.571428571428571h1.323017142857143c1.1834399999999998 0 2.142857142857143 -0.9593142857142857 2.142857142857143 -2.142857142857143s-0.9594171428571429 -2.142857142857143 -2.142857142857143 -2.142857142857143h-1.323017142857143c-0.7100914285714285 0 -1.2857142857142856 -0.5756571428571428 -1.2857142857142856 -1.2857142857142856V32.417519999999996c0 -3.658457142857143 -2.2146171428571426 -6.952868571428571 -5.602354285714285 -8.334L10.390457142857143 24l0.20482285714285714 -0.08352c3.3877371428571426 -1.3811314285714287 5.602354285714285 -4.675542857142856 5.602354285714285 -8.334V5.571428571428571c0 -0.7100914285714285 0.5756228571428571 -1.2857142857142856 1.2857142857142856 -1.2857142857142856h1.323017142857143c1.1834399999999998 0 2.142857142857143 -0.9593897142857143 2.142857142857143 -2.142857142857143S19.989805714285712 0 18.806365714285715 0h-1.323017142857143Zm13.033302857142857 0c3.0770399999999998 0 5.5714628571428575 2.494412571428571 5.5714628571428575 5.571428571428571v10.01105142857143c0 1.9163314285714286 1.1598857142857142 3.6419657142857145 2.9345142857142856 4.365428571428571l5.071885714285714 2.0678057142857145c0.8067428571428571 0.3288342857142857 1.3340571428571428 1.113222857142857 1.3340571428571428 1.9842857142857142s-0.5273142857142856 1.6554514285714284 -1.3340571428571428 1.9842857142857142l-5.071885714285714 2.0678057142857145c-1.7746285714285712 0.7234628571428571 -2.9345142857142856 2.4490971428571426 -2.9345142857142856 4.365428571428571V42.42857142857142c0 3.077142857142857 -2.494422857142857 5.571428571428571 -5.5714628571428575 5.571428571428571h-1.323017142857143c-1.1834399999999998 0 -2.142857142857143 -0.9593142857142857 -2.142857142857143 -2.142857142857143s0.9594171428571429 -2.142857142857143 2.142857142857143 -2.142857142857143h1.323017142857143c0.7100914285714285 0 1.2857142857142856 -0.5756571428571428 1.2857142857142856 -1.2857142857142856V32.417519999999996c0 -3.658457142857143 2.2146171428571426 -6.952868571428571 5.60232 -8.334L37.60971428571428 24l-0.20502857142857142 -0.08352c-3.3877028571428567 -1.3811314285714287 -5.60232 -4.675542857142856 -5.60232 -8.334V5.571428571428571c0 -0.7100914285714285 -0.5756228571428571 -1.2857142857142856 -1.2857142857142856 -1.2857142857142856h-1.323017142857143c-1.1834399999999998 0 -2.142857142857143 -0.9593897142857143 -2.142857142857143 -2.142857142857143S28.01019428571428 0 29.193634285714285 0h1.323017142857143Z" clip-rule="evenodd" stroke-width="3.4286"></path>
  </g>
</svg>