<svg xmlns="http://www.w3.org/2000/svg" fill="none" viewBox="0 0 48 48" id="Customer-Support-1--Streamline-Core-Remix" height="48" width="48">
  <desc>
    Customer Support 1 Streamline Icon: https://streamlinehq.com
  </desc>
  <g id="Free Remix/Interface Essential/customer-support-1--customer-headset-help-microphone-phone-support">
    <path id="Union" fill="#000000" fill-rule="evenodd" d="M14.142857142857142 15.857142857142856C14.142857142857142 10.413188571428572 18.556045714285712 6 24 6s9.857142857142856 4.413188571428571 9.857142857142856 9.857142857142856v20.57142857142857c0 1.5740571428571428 -0.7723199999999999 2.9701714285714282 -1.9598742857142855 3.8269714285714285 -0.8647885714285715 -1.0296 -2.1617485714285714 -1.6841142857142857 -3.611554285714285 -1.6841142857142857h-8.571428571428571c-2.6036228571428572 0 -4.714285714285714 2.1106285714285713 -4.714285714285714 4.714285714285714S17.110662857142856 48 19.71428571428571 48h8.571428571428571c2.1275657142857143 0 3.9259542857142855 -1.4094857142857142 4.51248 -3.3452571428571427 3.1483199999999996 -1.4012571428571428 5.344662857142857 -4.5552 5.344662857142857 -8.226171428571428v-3.4285714285714284h3.8571428571428568c3.077142857142857 0 5.571428571428571 -2.494422857142857 5.571428571428571 -5.571428571428571V20.57142857142857c0 -3.0770057142857143 -2.494285714285714 -5.571428571428571 -5.571428571428571 -5.571428571428571h-2.1654857142857145C39.38914285714286 6.640902857142857 32.470079999999996 0 24 0 15.529919999999999 0 8.610891428571428 6.640902857142857 8.165622857142857 15H6C2.9229839999999996 15 0.42857142857142855 17.494422857142858 0.42857142857142855 20.57142857142857v6.857142857142857c0 3.0770057142857143 2.494412571428571 5.571428571428571 5.571428571428571 5.571428571428571H12c1.1834742857142857 0 2.142857142857143 -0.9593828571428571 2.142857142857143 -2.142857142857143V15.857142857142856ZM4.714285714285714 20.57142857142857c0 -0.7100914285714285 0.5756228571428571 -1.2857142857142856 1.2857142857142856 -1.2857142857142856h3.8571428571428568v9.428571428571429H6c-0.7100914285714285 0 -1.2857142857142856 -0.5756228571428571 -1.2857142857142856 -1.2857142857142856V20.57142857142857Zm33.42857142857142 8.142857142857142v-9.428571428571429h3.8571428571428568c0.7100571428571428 0 1.2857142857142856 0.5756228571428571 1.2857142857142856 1.2857142857142856v6.857142857142857c0 0.7100914285714285 -0.5756571428571428 1.2857142857142856 -1.2857142857142856 1.2857142857142856h-3.8571428571428568Z" clip-rule="evenodd" stroke-width="3.4286"></path>
  </g>
</svg>