<svg xmlns="http://www.w3.org/2000/svg" fill="none" viewBox="0 0 48 48" id="Cut--Streamline-Core-Remix" height="48" width="48">
  <desc>
    Cut Streamline Icon: https://streamlinehq.com
  </desc>
  <g id="Free Remix/Interface Essential/cut--coupon-cut-discount-price-prices-scissors">
    <path id="Union" fill="#000000" fill-rule="evenodd" d="M5.571428571428571 11.142857142857142c0 -3.0770057142857143 2.494422857142857 -5.571428571428571 5.571428571428571 -5.571428571428571s5.571428571428571 2.494422857142857 5.571428571428571 5.571428571428571 -2.494422857142857 5.571428571428571 -5.571428571428571 5.571428571428571 -5.571428571428571 -2.494422857142857 -5.571428571428571 -5.571428571428571ZM11.142857142857142 1.2857142857142856C5.698902857142857 1.2857142857142856 1.2857142857142856 5.698902857142857 1.2857142857142856 11.142857142857142c0 4.488274285714286 2.9997599999999998 8.275954285714285 7.103759999999999 9.467451428571428l5.827302857142857 3.3456685714285714 -5.837039999999999 3.4365599999999996C4.280742857142857 28.58718857142857 1.2857142857142856 32.3724 1.2857142857142856 36.857142857142854c0 5.443885714285714 4.413188571428571 9.857142857142856 9.857142857142856 9.857142857142856s9.857142857142856 -4.413257142857142 9.857142857142856 -9.857142857142856c0 -3.8209714285714282 -2.174057142857143 -7.134171428571428 -5.352685714285713 -8.770045714285713l2.84616 -1.6756799999999998 9.547954285714285 5.481805714285714c1.026342857142857 0.5892685714285714 2.336022857142857 0.23495999999999997 2.9252914285714287 -0.791382857142857 0.5892685714285714 -1.026342857142857 0.23492571428571427 -2.336022857142857 -0.7914171428571428 -2.9252914285714287L22.743119999999998 23.909451428571426l22.91550857142857 -13.491428571428571c1.0196571428571428 -0.6004457142857142 1.3597714285714286 -1.9139314285714284 0.7594285714285713 -2.93376 -0.6003428571428572 -1.0198628571428572 -1.9138285714285714 -1.35984 -2.9338285714285712 -0.7594285714285713L18.466422857142856 21.454011428571427l-2.7483085714285713 -1.5778971428571429C18.858171428571428 18.22769142857143 21 14.935405714285714 21 11.142857142857142 21 5.698902857142857 16.586811428571426 1.2857142857142856 11.142857142857142 1.2857142857142856Zm15.395074285714287 34.285714285714285c-1.1834399999999998 0 -2.142857142857143 0.9593142857142857 -2.142857142857143 2.142857142857143s0.9594171428571429 2.142857142857143 2.142857142857143 2.142857142857143h5.142857142857142c1.1834742857142857 0 2.142857142857143 -0.9593142857142857 2.142857142857143 -2.142857142857143s-0.9593828571428571 -2.142857142857143 -2.142857142857143 -2.142857142857143h-5.142857142857142Zm13.714182857142855 0c-1.1832 0 -2.142857142857143 0.9593142857142857 -2.142857142857143 2.142857142857143s0.9596571428571428 2.142857142857143 2.142857142857143 2.142857142857143h5.142857142857142c1.183542857142857 0 2.142857142857143 -0.9593142857142857 2.142857142857143 -2.142857142857143s-0.9593142857142857 -2.142857142857143 -2.142857142857143 -2.142857142857143h-5.142857142857142ZM5.571428571428571 36.857142857142854c0 -3.0770057142857143 2.494422857142857 -5.571428571428571 5.571428571428571 -5.571428571428571s5.571428571428571 2.494422857142857 5.571428571428571 5.571428571428571c0 3.077142857142857 -2.494422857142857 5.571428571428571 -5.571428571428571 5.571428571428571s-5.571428571428571 -2.494285714285714 -5.571428571428571 -5.571428571428571Z" clip-rule="evenodd" stroke-width="3.4286"></path>
  </g>
</svg>