<svg xmlns="http://www.w3.org/2000/svg" fill="none" viewBox="0 0 48 48" id="Cyborg--Streamline-Core-Remix" height="48" width="48">
  <desc>
    Cyborg Streamline Icon: https://streamlinehq.com
  </desc>
  <g id="Free Remix/Computer Devices/cyborg--artificial-robotics-intelligence-machine-technology-android">
    <path id="Union" fill="#000000" fill-rule="evenodd" d="M24.000377142857143 0c-2.973668571428571 0 -5.384297142857142 2.410638857142857 -5.384297142857142 5.384297142857142 0 2.2119771428571426 1.3338171428571428 4.112399999999999 3.241062857142857 4.94088v3.0680914285714285c-10.59144 1.0734514285714285 -18.857142857142858 10.017462857142856 -18.857142857142858 20.892034285714285v8.142925714285715c0 3.077142857142857 2.494422857142857 5.571428571428571 5.571428571428571 5.571428571428571h30.857142857142854c3.077142857142857 0 5.571428571428571 -2.494285714285714 5.571428571428571 -5.571428571428571V34.28530285714285c0 -10.874571428571427 -8.2656 -19.818582857142857 -18.857142857142858 -20.892034285714285V10.325485714285714c1.9076571428571427 -0.8282742857142856 3.2418171428571427 -2.7289028571428573 3.2418171428571427 -4.941188571428571C29.384674285714283 2.410638857142857 26.97404571428571 0 24.000377142857143 0ZM7.291097142857143 33.85673142857142c0.2273485714285714 -9.032982857142857 7.621131428571428 -16.285714285714285 16.708902857142856 -16.285714285714285s16.481485714285714 7.252731428571428 16.7088 16.285714285714285l-1.1112 0c-1.1478857142857142 0 -2.2196571428571428 0.5746971428571428 -2.8553142857142855 1.530582857142857l-1.0296 1.5490285714285712c-0.6353142857142856 0.9562285714285713 -1.7072571428571428 1.5308571428571427 -2.8553142857142855 1.5308571428571427H15.141257142857143c-1.1480571428571427 0 -2.2198971428571426 -0.5746285714285714 -2.8553828571428572 -1.5308571428571427l-1.0295657142857142 -1.5490285714285712c-0.6354857142857142 -0.9558857142857142 -1.7073599999999998 -1.530582857142857 -2.8554171428571427 -1.530582857142857h-1.1097942857142855ZM13.714285714285714 27.61398857142857c0 1.8935314285714284 1.53504 3.4285714285714284 3.4285714285714284 3.4285714285714284s3.4285714285714284 -1.53504 3.4285714285714284 -3.4285714285714284c0 -1.893565714285714 -1.53504 -3.4285714285714284 -3.4285714285714284 -3.4285714285714284s-3.4285714285714284 1.535005714285714 -3.4285714285714284 3.4285714285714284Zm13.714285714285714 0c0 1.8935314285714284 1.53504 3.4285714285714284 3.4285714285714284 3.4285714285714284 1.893565714285714 0 3.4285714285714284 -1.53504 3.4285714285714284 -3.4285714285714284 0 -1.893565714285714 -1.535005714285714 -3.4285714285714284 -3.4285714285714284 -3.4285714285714284 -1.8935314285714284 0 -3.4285714285714284 1.535005714285714 -3.4285714285714284 3.4285714285714284Z" clip-rule="evenodd" stroke-width="3.4286"></path>
  </g>
</svg>