<svg xmlns="http://www.w3.org/2000/svg" fill="none" viewBox="0 0 48 48" id="Cyborg-2--Streamline-Core-Remix" height="48" width="48">
  <desc>
    Cyborg 2 Streamline Icon: https://streamlinehq.com
  </desc>
  <g id="Free Remix/Computer Devices/cyborg-2--artificial-robotics-intelligence-machine-technology-android">
    <path id="Union" fill="#000000" fill-rule="evenodd" d="M18.284605714285714 5.714297142857143C18.284605714285714 2.558372571428571 20.842971428571428 0 23.99886857142857 0c3.1559314285714284 0 5.714297142857143 2.558372571428571 5.714297142857143 5.714297142857143 0 2.397702857142857 -1.4767199999999998 4.4504914285714285 -3.570308571428571 5.298445714285714v3.8441142857142854H36c4.9704 0 9 4.0294285714285705 9 9V39c0 4.9704 -4.029599999999999 9 -9 9h-24C7.029428571428571 48 3 43.9704 3 39V23.85685714285714c0 -4.970571428571429 4.0294285714285705 -9 9 -9h9.857142857142856V11.013668571428571c-2.0947542857142856 -0.84744 -3.5725371428571426 -2.9008457142857145 -3.5725371428571426 -5.299371428571428ZM24 19.142571428571426H12c-2.6036228571428572 0 -4.714285714285714 2.110662857142857 -4.714285714285714 4.714285714285714V39c0 2.6036571428571427 2.110662857142857 4.714285714285714 4.714285714285714 4.714285714285714h24c2.6036571428571427 0 4.714285714285714 -2.1106285714285713 4.714285714285714 -4.714285714285714V23.85685714285714c0 -2.6036228571428572 -2.1106285714285713 -4.714285714285714 -4.714285714285714 -4.714285714285714H24ZM19.829622857142855 34.12155428571429c-0.9783771428571428 -0.9915771428571429 -2.5748228571428573 -1.024662857142857 -3.5936571428571424 -0.06407999999999998 -1.033302857142857 0.9742971428571428 -1.0811657142857143 2.60184 -0.10690285714285713 3.6348685714285716l1.8709371428571429 -1.7639999999999998c-1.8709371428571429 1.7639999999999998 -1.8700114285714284 1.7650285714285714 -1.8690514285714284 1.7660571428571428l0.001954285714285714 0.0020571428571428568 0.004045714285714285 0.004457142857142857 0.008674285714285714 0.008914285714285713 0.019714285714285712 0.02057142857142857 0.04892571428571428 0.04902857142857143c0.03685714285714285 0.03634285714285714 0.08221714285714286 0.07988571428571428 0.13625142857142855 0.1296 0.108 0.09908571428571428 0.25093714285714286 0.2225142857142857 0.4297028571428571 0.36171428571428565 0.3574285714285714 0.27805714285714284 0.8598514285714286 0.6192 1.51368 0.9510857142857142 1.3186971428571428 0.6689142857142857 3.2149714285714284 1.2781714285714285 5.706102857142857 1.2781714285714285s4.387405714285714 -0.6092571428571428 5.706102857142857 -1.2781714285714285c0.6538285714285714 -0.3318857142857143 1.1562514285714285 -0.6730285714285714 1.51368 -0.9510857142857142 0.17876571428571428 -0.1392 0.3217028571428571 -0.26262857142857143 0.4297028571428571 -0.36171428571428565 0.05403428571428571 -0.04971428571428571 0.0993942857142857 -0.09325714285714284 0.13625142857142855 -0.1296l0.04892571428571428 -0.04902857142857143 0.019714285714285712 -0.02057142857142857 0.008674285714285714 -0.008914285714285713 0.004045714285714285 -0.004457142857142857 0.001954285714285714 -0.0020571428571428568c0.0009599999999999999 -0.0010285714285714284 0.0018857142857142857 -0.0020571428571428568 -1.8690514285714284 -1.7660571428571428l1.8709371428571429 1.7639999999999998c0.9742628571428572 -1.0330285714285714 0.9263999999999999 -2.6605714285714286 -0.10690285714285713 -3.6348685714285716 -1.0188342857142856 -0.960582857142857 -2.61528 -0.9274971428571428 -3.5936571428571424 0.06407999999999998 -0.0132 0.012 -0.04906285714285714 0.043782857142857144 -0.108 0.08962285714285714 -0.12473142857142858 0.09682285714285714 -0.35087999999999997 0.25556571428571423 -0.6827657142857143 0.4239085714285714 -0.6527314285714285 0.3312 -1.7564571428571427 0.7220571428571428 -3.3796114285714287 0.7220571428571428 -1.6231542857142855 0 -2.72688 -0.39085714285714285 -3.3796114285714287 -0.7220571428571428 -0.3318857142857143 -0.16834285714285713 -0.5580342857142856 -0.32708571428571426 -0.6827657142857143 -0.4239085714285714 -0.058937142857142855 -0.04587428571428571 -0.0948 -0.07762285714285715 -0.108 -0.08962285714285714ZM20.71542857142857 26.642571428571426c0 -1.8935314285714284 -1.535005714285714 -3.4285714285714284 -3.4285714285714284 -3.4285714285714284h-0.00003428571428571428c-1.8935314285714284 0 -3.4285714285714284 1.53504 -3.4285714285714284 3.4285714285714284 0 1.893565714285714 1.53504 3.4285714285714284 3.4285714285714284 3.4285714285714284H17.28685714285714c1.893565714285714 0 3.4285714285714284 -1.535005714285714 3.4285714285714284 -3.4285714285714284Zm9.997748571428572 -3.4285714285714284h0.00003428571428571428c1.8935314285714284 0 3.4285714285714284 1.53504 3.4285714285714284 3.4285714285714284 0 1.893565714285714 -1.53504 3.4285714285714284 -3.4285714285714284 3.4285714285714284h-0.00003428571428571428c-1.893565714285714 0 -3.4285714285714284 -1.535005714285714 -3.4285714285714284 -3.4285714285714284 0 -1.8935314285714284 1.535005714285714 -3.4285714285714284 3.4285714285714284 -3.4285714285714284Z" clip-rule="evenodd" stroke-width="3.4286"></path>
  </g>
</svg>