<svg xmlns="http://www.w3.org/2000/svg" fill="none" viewBox="0 0 48 48" id="Dangerous-Zone-Sign--Streamline-Core-Remix" height="48" width="48">
  <desc>
    Dangerous Zone Sign Streamline Icon: https://streamlinehq.com
  </desc>
  <g id="Free Remix/Map Travel/dangerous-zone-sign">
    <path id="Union" fill="#000000" fill-rule="evenodd" d="M22.890034285714286 7.870868571428571c0.49614857142857144 -0.8505257142857143 1.7250171428571426 -0.8505257142857143 2.221165714285714 0l18.030857142857144 30.909702857142857c0.4998857142857143 0.8571428571428571 -0.11828571428571429 1.9337142857142855 -1.1108571428571428 1.9337142857142855H5.969897142857143c-0.9922971428571429 0 -1.6105714285714285 -1.0765714285714285 -1.110582857142857 -1.9337142857142855l18.03072 -30.909702857142857Zm5.923062857142857 -2.1594514285714284c-2.149885714285714 -3.6855257142857143 -7.475074285714285 -3.685542857142857 -9.62496 0L1.1574034285714285 36.62125714285714c-2.1666342857142857 3.714171428571428 0.5125062857142857 8.378742857142857 4.812493714285714 8.378742857142857H42.0312c4.300114285714286 0 6.9792 -4.664571428571429 4.812685714285714 -8.378742857142857L28.81309714285714 5.711417142857142ZM27.062742857142855 20.180091428571426c0.7306628571428571 -1.2177942857142856 0.3357942857142857 -2.7973028571428573 -0.8819999999999999 -3.5279999999999996 -1.21776 -0.7306628571428571 -2.7973028571428573 -0.33576 -3.527965714285714 0.8819999999999999l-5.142857142857142 8.571428571428571c-0.47664 0.7943999999999999 -0.48912 1.7837828571428571 -0.03267428571428571 2.589942857142857 0.45644571428571423 0.80616 1.311257142857143 1.3044685714285713 2.2376571428571426 1.3044685714285713h4.029805714285714l-2.8062171428571427 4.676982857142857c-0.7306628571428571 1.2178285714285715 -0.3357942857142857 2.797371428571428 0.8819999999999999 3.5279999999999996 1.21776 0.7306285714285714 2.7973028571428573 0.3356571428571428 3.527965714285714 -0.8818285714285713l5.142857142857142 -8.571565714285713c0.47664 -0.7943999999999999 0.48912 -1.7837828571428571 0.03267428571428571 -2.589942857142857 -0.45644571428571423 -0.80616 -1.311257142857143 -1.304502857142857 -2.2376571428571426 -1.304502857142857H24.25652571428571l2.8062171428571427 -4.676982857142857Z" clip-rule="evenodd" stroke-width="3.4286"></path>
  </g>
</svg>