<svg xmlns="http://www.w3.org/2000/svg" fill="none" viewBox="0 0 48 48" id="Dark-Dislay-Mode--Streamline-Core-Remix" height="48" width="48">
  <desc>
    Dark Dislay Mode Streamline Icon: https://streamlinehq.com
  </desc>
  <g id="Free Remix/Interface Essential/dark-dislay-mode">
    <path id="Union" fill="#000000" fill-rule="evenodd" d="M24.00061714285714 0.0016741062857142856C10.746377142857142 0.0016741062857142856 0.0016741062857142856 10.746377142857142 0.0016741062857142856 24.00061714285714c0 13.25424 10.744703036571428 23.999039999999997 23.99894303657143 23.999039999999997 13.25424 0 23.999039999999997 -10.7448 23.999039999999997 -23.999039999999997S37.25485714285714 0.0016741062857142856 24.00061714285714 0.0016741062857142856ZM4.287394285714286 24.00061714285714c0 -10.887325714285714 8.825897142857142 -19.713222857142856 19.713222857142856 -19.713222857142856 10.887154285714285 0 19.713325714285713 8.825897142857142 19.713325714285713 19.713222857142856 0 10.887497142857143 -8.826171428571428 19.713325714285713 -19.713325714285713 19.713325714285713 -10.887325714285714 0 -19.713222857142856 -8.82582857142857 -19.713222857142856 -19.713325714285713Zm19.71521142857143 -0.06411428571428572c0 -4.656548571428571 3.7748571428571425 -8.431405714285713 8.431405714285713 -8.431405714285713 0.8581371428571428 0 1.5135085714285714 -1.0316571428571428 0.8843657142857142 -1.6152685714285713 -2.4446057142857143 -2.2678285714285713 -5.718274285714285 -3.654342857142857 -9.315771428571427 -3.654342857142857 -7.566857142857142 0 -13.700982857142856 6.13416 -13.700982857142856 13.701017142857141 0 7.566822857142856 6.134125714285714 13.700982857142856 13.700982857142856 13.700982857142856 3.5974971428571423 0 6.8711657142857145 -1.3865142857142856 9.315771428571427 -3.654342857142857 0.6291428571428571 -0.5836114285714286 -0.026228571428571427 -1.6152685714285713 -0.8843657142857142 -1.6152685714285713 -4.656548571428571 0 -8.431405714285713 -3.7748571428571425 -8.431405714285713 -8.43137142857143Z" clip-rule="evenodd" stroke-width="3.4286"></path>
  </g>
</svg>