<svg xmlns="http://www.w3.org/2000/svg" fill="none" viewBox="0 0 48 48" id="Dashboard-3--Streamline-Core-Remix" height="48" width="48">
  <desc>
    Dashboard 3 Streamline Icon: https://streamlinehq.com
  </desc>
  <g id="Free Remix/Interface Essential/dashboard-3--app-application-dashboard-home-layout-vertical">
    <path id="Union" fill="#000000" fill-rule="evenodd" d="M4.714285714285714 4.714285714285714v19.71428571428571h12.857142857142856v-19.71428571428571h-12.857142857142856ZM0.42857142857142855 4.285714285714286C0.42857142857142855 2.1554742857142855 2.1554742857142855 0.42857142857142855 4.285714285714286 0.42857142857142855h13.714285714285714c2.1302399999999997 0 3.8571428571428568 1.726902857142857 3.8571428571428568 3.8571428571428568v20.57142857142857c0 2.1302399999999997 -1.726902857142857 3.8571428571428568 -3.8571428571428568 3.8571428571428568h-13.714285714285714C2.1554742857142855 28.71428571428571 0.42857142857142855 26.987382857142855 0.42857142857142855 24.857142857142854v-20.57142857142857ZM30 0.42857142857142855c-2.1302399999999997 0 -3.8571428571428568 1.726902857142857 -3.8571428571428568 3.8571428571428568v6.891428571428571c0 2.1302399999999997 1.726902857142857 3.8571428571428568 3.8571428571428568 3.8571428571428568h13.714285714285714c2.1301714285714284 0 3.8571428571428568 -1.726902857142857 3.8571428571428568 -3.8571428571428568V4.285714285714286c0 -2.1302399999999997 -1.7269714285714286 -3.8571428571428568 -3.8571428571428568 -3.8571428571428568h-13.714285714285714Zm0.42857142857142855 23.142857142857142v19.71428571428571h12.857142857142856v-19.71428571428571h-12.857142857142856Zm-4.285714285714286 -0.42857142857142855c0 -2.1302399999999997 1.726902857142857 -3.8571428571428568 3.8571428571428568 -3.8571428571428568h13.714285714285714c2.1301714285714284 0 3.8571428571428568 1.726902857142857 3.8571428571428568 3.8571428571428568v20.57142857142857c0 2.1301714285714284 -1.7269714285714286 3.8571428571428568 -3.8571428571428568 3.8571428571428568h-13.714285714285714c-2.1302399999999997 0 -3.8571428571428568 -1.7269714285714286 -3.8571428571428568 -3.8571428571428568v-20.57142857142857ZM4.285714285714286 32.96568c-2.1302399999999997 0 -3.8571428571428568 1.7270057142857143 -3.8571428571428568 3.857177142857143v6.891428571428571c0 2.1301714285714284 1.726902857142857 3.8571428571428568 3.8571428571428568 3.8571428571428568h13.714285714285714c2.1302399999999997 0 3.8571428571428568 -1.7269714285714286 3.8571428571428568 -3.8571428571428568v-6.891428571428571c0 -2.1301714285714284 -1.726902857142857 -3.857177142857143 -3.8571428571428568 -3.857177142857143h-13.714285714285714Z" clip-rule="evenodd" stroke-width="3.4286"></path>
  </g>
</svg>