<svg xmlns="http://www.w3.org/2000/svg" fill="none" viewBox="0 0 48 48" id="Dashboard-Circle--Streamline-Core-Remix" height="48" width="48">
  <desc>
    Dashboard Circle Streamline Icon: https://streamlinehq.com
  </desc>
  <g id="Free Remix/Interface Essential/dashboard-circle--app-application-dashboard-home-layout-circle">
    <path id="Union" fill="#000000" fill-rule="evenodd" d="M0.42857142857142855 11.142857142857142C0.42857142857142855 5.22552 5.22552 0.42857142857142855 11.142857142857142 0.42857142857142855S21.857142857142858 5.22552 21.857142857142858 11.142857142857142 17.060194285714285 21.857142857142858 11.142857142857142 21.857142857142858 0.42857142857142855 17.060194285714285 0.42857142857142855 11.142857142857142ZM36.857142857142854 0.42857142857142855c-5.917337142857142 0 -10.714285714285714 4.796948571428572 -10.714285714285714 10.714285714285714s4.796948571428572 10.714285714285714 10.714285714285714 10.714285714285714c5.917371428571428 0 10.714285714285714 -4.796948571428572 10.714285714285714 -10.714285714285714S42.77451428571428 0.42857142857142855 36.857142857142854 0.42857142857142855ZM30.428571428571427 11.142857142857142c0 -3.5503885714285714 2.878182857142857 -6.428571428571428 6.428571428571428 -6.428571428571428 3.5502857142857143 0 6.428571428571428 2.878182857142857 6.428571428571428 6.428571428571428s-2.878285714285714 6.428571428571428 -6.428571428571428 6.428571428571428c-3.5503885714285714 0 -6.428571428571428 -2.878182857142857 -6.428571428571428 -6.428571428571428Zm-30 25.71428571428571c0 -5.917337142857142 4.796948571428572 -10.714285714285714 10.714285714285714 -10.714285714285714s10.714285714285714 4.796948571428572 10.714285714285714 10.714285714285714c0 5.917371428571428 -4.796948571428572 10.714285714285714 -10.714285714285714 10.714285714285714S0.42857142857142855 42.77451428571428 0.42857142857142855 36.857142857142854ZM11.142857142857142 30.428571428571427c-3.5503885714285714 0 -6.428571428571428 2.878182857142857 -6.428571428571428 6.428571428571428 0 3.5502857142857143 2.878182857142857 6.428571428571428 6.428571428571428 6.428571428571428s6.428571428571428 -2.878285714285714 6.428571428571428 -6.428571428571428c0 -3.5503885714285714 -2.878182857142857 -6.428571428571428 -6.428571428571428 -6.428571428571428Zm25.71428571428571 -4.285714285714286c-5.917337142857142 0 -10.714285714285714 4.796948571428572 -10.714285714285714 10.714285714285714 0 5.917371428571428 4.796948571428572 10.714285714285714 10.714285714285714 10.714285714285714 5.917371428571428 0 10.714285714285714 -4.796914285714285 10.714285714285714 -10.714285714285714 0 -5.917337142857142 -4.796914285714285 -10.714285714285714 -10.714285714285714 -10.714285714285714Z" clip-rule="evenodd" stroke-width="3.4286"></path>
  </g>
</svg>