<svg xmlns="http://www.w3.org/2000/svg" fill="none" viewBox="0 0 48 48" id="Database-Lock--Streamline-Core-Remix" height="48" width="48">
  <desc>
    Database Lock Streamline Icon: https://streamlinehq.com
  </desc>
  <g id="Free Remix/Computer Devices/database-lock--raid-storage-code-disk-programming-database-array-hard-disc-password-security-protection-lock-secure">
    <path id="Union" fill="#000000" fill-rule="evenodd" d="M39.81874285714285 4.998342857142857c1.219542857142857 1.1115771428571428 2.1812571428571426 2.599885714285714 2.1812571428571426 4.413085714285714v7.3028571428571425c0 1.1834399999999998 -0.9593142857142857 2.142857142857143 -2.142857142857143 2.142857142857143S37.714285714285715 17.897725714285716 37.714285714285715 16.71428571428571v-1.386685714285714c-0.7988571428571428 0.4571314285714286 -1.6782857142857142 0.8639314285714285 -2.609485714285714 1.2229371428571427C31.389394285714282 17.98261714285714 26.401954285714282 18.822857142857142 21 18.822857142857142s-10.389394285714285 -0.84024 -14.104731428571428 -2.27232c-0.9313714285714285 -0.35900571428571426 -1.81056 -0.7658057142857142 -2.6095542857142857 -1.2229371428571427V21c0 0.19395428571428572 0.09370285714285714 0.6177942857142856 0.7823999999999999 1.2454285714285713 0.6895885714285714 0.6284228571428572 1.8066857142857142 1.2927085714285713 3.3685714285714283 1.8947657142857142 3.109645714285714 1.1986285714285714 7.550777142857143 1.98552 12.563314285714284 1.98552 0.9595885714285715 0 1.900662857142857 -0.028868571428571427 2.817428571428571 -0.08430857142857143 1.1813142857142858 -0.07148571428571428 2.1968914285714285 0.82824 2.2683428571428568 2.0095542857142856 0.07145142857142857 1.1813142857142858 -0.82824 2.196857142857143 -2.0095542857142856 2.2683428571428568 -1.003542857142857 0.06068571428571429 -2.03088 0.09212571428571428 -3.0762171428571428 0.09212571428571428 -5.401954285714285 0 -10.389394285714285 -0.84024 -14.104731428571428 -2.27232 -0.9313714285714285 -0.35900571428571426 -1.81056 -0.7658057142857142 -2.6095542857142857 -1.2229371428571427v5.672365714285713c0 0.19395428571428572 0.09370285714285714 0.6177942857142856 0.7823999999999999 1.2454285714285713 0.6895885714285714 0.62832 1.8066857142857142 1.2927771428571428 3.3685714285714283 1.8948342857142857 3.109645714285714 1.1986285714285714 7.550777142857143 1.985485714285714 12.563314285714284 1.985485714285714 1.1834742857142857 0 2.142857142857143 0.9593142857142857 2.142857142857143 2.142857142857143s-0.9593828571428571 2.142857142857143 -2.142857142857143 2.142857142857143c-5.401954285714285 0 -10.389394285714285 -0.8403428571428572 -14.104731428571428 -2.2724571428571427 -1.8505714285714283 -0.7131428571428571 -3.4950171428571424 -1.6152 -4.713894857142857 -2.726057142857143C0.9616354285714285 35.889942857142856 0 34.401599999999995 0 32.58853714285714V9.407931428571429c0.0012316902857142855 -1.8116228571428572 0.9624171428571427 -3.2987314285714286 2.181373714285714 -4.409588571428571C3.400251428571428 3.8875542857142853 5.044697142857143 2.985620571428571 6.895268571428571 2.2723097142857145 10.610605714285713 0.8402262857142857 15.598045714285714 0 21 0s10.389394285714285 0.8402262857142857 14.1048 2.2723097142857145c1.8503999999999998 0.7133108571428571 3.4950857142857146 1.6152445714285713 4.7139428571428565 2.7260331428571427ZM30 32.679428571428566V30C30 25.73952 33.453805714285714 22.285714285714285 37.714285714285715 22.285714285714285c4.260342857142857 0 7.7142857142857135 3.453805714285714 7.7142857142857135 7.7142857142857135v2.6794285714285713c1.4787428571428571 0.38064 2.571428571428571 1.7228571428571426 2.571428571428571 3.3205714285714283V44.57142857142857c0 1.8936 -1.5349714285714284 3.4285714285714284 -3.4285714285714284 3.4285714285714284H30.857142857142854c-1.8935314285714284 0 -3.4285714285714284 -1.5349714285714284 -3.4285714285714284 -3.4285714285714284v-8.571428571428571c0 -1.5977142857142856 1.0926514285714284 -2.9399314285714286 2.571428571428571 -3.3205714285714283ZM41.14285714285714 32.57142857142857h-6.857142857142857v-2.571428571428571c0 -1.8935314285714284 1.5349714285714284 -3.4285714285714284 3.4285714285714284 -3.4285714285714284s3.4285714285714284 1.53504 3.4285714285714284 3.4285714285714284v2.571428571428571Z" clip-rule="evenodd" stroke-width="3.4286"></path>
  </g>
</svg>