<svg xmlns="http://www.w3.org/2000/svg" fill="none" viewBox="0 0 48 48" id="Database-Subtract-1--Streamline-Core-Remix" height="48" width="48">
  <desc>
    Database Subtract 1 Streamline Icon: https://streamlinehq.com
  </desc>
  <g id="Free Remix/Computer Devices/database-subtract-1--raid-storage-code-disk-programming-database-array-hard-disc-minus">
    <path id="Union" fill="#000000" fill-rule="evenodd" d="M21 0C15.598045714285714 0 10.610605714285713 0.8402262857142857 6.895268571428571 2.2723097142857145 5.044697142857143 2.985620571428571 3.400251428571428 3.8875542857142853 2.181373714285714 4.998342857142857 0.9624171428571427 6.1091999999999995 0.0012316902857142855 7.596308571428572 0 9.407931428571429v23.18060571428571c0 1.68 0.8252262857142856 3.08712 1.9171131428571428 4.166434285714285 1.0833428571428572 1.0707428571428572 2.5457554285714283 1.9457142857142857 4.189584 2.649942857142857 3.2972571428571427 1.4129142857142858 7.745417142857143 2.317028571428571 12.652834285714285 2.5409142857142855 1.18224 0.05382857142857142 2.184342857142857 -0.8609142857142856 2.23824 -2.043085714285714 0.05389714285714286 -1.1821714285714284 -0.8607771428571428 -2.184342857142857 -2.0430171428571424 -2.2381714285714285 -4.5576 -0.20777142857142855 -8.466582857142857 -1.0446857142857142 -11.160205714285713 -2.199085714285714 -1.3516457142857143 -0.5790857142857142 -2.2930971428571425 -1.193725714285714 -2.8647771428571427 -1.7587542857142857 -0.5631085714285714 -0.5565942857142857 -0.6440571428571428 -0.9310971428571427 -0.6440571428571428 -1.1181942857142857V26.91613714285714c0.7989942857142857 0.45716571428571423 1.6781828571428572 0.8639657142857142 2.6095542857142857 1.2229714285714286C10.610605714285713 29.57118857142857 15.598045714285714 30.411428571428566 21 30.411428571428566s10.389394285714285 -0.84024 14.1048 -2.27232c0.9312 -0.35900571428571426 1.8106285714285715 -0.7658057142857142 2.609485714285714 -1.2229714285714286v5.6724c0 0.23773714285714284 -0.1512 0.8240228571428571 -1.2682285714285715 1.64424 -0.9538285714285714 0.7005942857142856 -1.159542857142857 2.041508571428571 -0.4590857142857142 2.9953371428571427 0.7004571428571429 0.9541714285714284 2.041714285714286 1.159542857142857 2.995542857142857 0.4590857142857142 1.6234285714285712 -1.1917714285714285 3.017485714285714 -2.8981714285714286 3.017485714285714 -5.098662857142856V9.411428571428571c0 -1.8132000000000001 -0.9617142857142857 -3.3015085714285712 -2.1812571428571426 -4.413085714285714 -1.2188571428571426 -1.1107885714285712 -2.863542857142857 -2.0127222857142857 -4.7139428571428565 -2.7260331428571427C31.389394285714282 0.8402262857142857 26.401954285714282 0 21 0ZM5.068114285714286 22.245394285714287C4.379417142857143 21.617794285714282 4.285714285714286 21.193954285714284 4.285714285714286 21V15.3276c0.7989942857142857 0.4571314285714286 1.6781828571428572 0.8639314285714285 2.6095542857142857 1.2229371428571427C10.610605714285713 17.98261714285714 15.598045714285714 18.822857142857142 21 18.822857142857142s10.389394285714285 -0.84024 14.1048 -2.27232c0.9312 -0.35900571428571426 1.8106285714285715 -0.7658057142857142 2.609485714285714 -1.2229371428571427V21c0 0.19395428571428572 -0.0936 0.6177942857142856 -0.7823999999999999 1.2453942857142857 -0.6894857142857143 0.6284228571428572 -1.8065142857142857 1.292742857142857 -3.3685714285714283 1.8947657142857142 -3.109645714285714 1.1986285714285714 -7.550777142857143 1.9855542857142856 -12.563314285714284 1.9855542857142856 -5.012537142857142 0 -9.45366857142857 -0.7869257142857142 -12.563314285714284 -1.9855542857142856 -1.5618857142857143 -0.6020228571428571 -2.678982857142857 -1.2663428571428572 -3.3685714285714283 -1.8947657142857142ZM28.285714285714285 42.857142857142854c-1.4201485714285715 0 -2.571428571428571 1.1513142857142855 -2.571428571428571 2.571428571428571s1.1512799999999999 2.571428571428571 2.571428571428571 2.571428571428571h17.142857142857142c1.4201142857142857 0 2.571428571428571 -1.1513142857142855 2.571428571428571 -2.571428571428571s-1.1513142857142855 -2.571428571428571 -2.571428571428571 -2.571428571428571h-17.142857142857142Z" clip-rule="evenodd" stroke-width="3.4286"></path>
  </g>
</svg>