<svg xmlns="http://www.w3.org/2000/svg" fill="none" viewBox="0 0 48 48" id="Database-Check--Streamline-Core-Remix" height="48" width="48">
  <desc>
    Database Check Streamline Icon: https://streamlinehq.com
  </desc>
  <g id="Free Remix/Computer Devices/database-check--raid-storage-code-disk-programming-database-array-hard-disc-check-approve">
    <path id="Union" fill="#000000" fill-rule="evenodd" d="M21 0C15.598045714285714 0 10.610605714285713 0.8402262857142857 6.895268571428571 2.2723097142857145 5.044697142857143 2.985620571428571 3.400251428571428 3.8875542857142853 2.181373714285714 4.998342857142857c-1.2189565714285713 1.1108571428571428 -2.180141910857143 2.597965714285714 -2.181372420685714 4.409588571428571 -0.00000182914285714286 0.0011657142857142858 -0.00000118285714285714 0.0023314285714285715 -0.00000118285714285714 0.003497142857142857v23.17710857142857C1.1074285714286e-7 35.517599999999995 2.4188434285714284 37.56377142857142 4.906731428571429 38.842285714285715c2.6540914285714283 1.3638857142857141 6.2446971428571425 2.3300571428571426 10.267782857142857 2.810742857142857 1.1751085714285714 0.14022857142857142 2.2414971428571424 -0.6987428571428571 2.3817942857142858 -1.8737142857142857 0.14033142857142858 -1.1753142857142855 -0.6985371428571429 -2.2416 -1.87368 -2.381828571428571 -3.7089942857142857 -0.44297142857142857 -6.761245714285714 -1.310742857142857 -8.817017142857141 -2.367085714285714 -2.22192 -1.14192 -2.5798971428571424 -2.102674285714286 -2.5798971428571424 -2.441862857142857V26.916171428571428c0.7989942857142857 0.4571314285714286 1.6781828571428572 0.8639314285714285 2.6095542857142857 1.2229371428571427C10.610605714285713 29.57118857142857 15.598045714285714 30.411428571428566 21 30.411428571428566c3.038057142857143 0 5.9304685714285705 -0.26554285714285714 8.53230857142857 -0.7464342857142856 1.16376 -0.2150742857142857 1.932788571428571 -1.3328571428571427 1.7177142857142855 -2.496617142857143 -0.2150742857142857 -1.16376 -1.3328571428571427 -1.932788571428571 -2.496617142857143 -1.7177142857142855 -2.328068571428571 0.43028571428571427 -4.9589485714285715 0.6750514285714285 -7.753405714285714 0.6750514285714285 -5.012537142857142 0 -9.45366857142857 -0.7868914285714285 -12.563314285714284 -1.98552 -1.5618857142857143 -0.6020571428571428 -2.678982857142857 -1.2663428571428572 -3.3685714285714283 -1.8947657142857142 -0.6886971428571428 -0.6276342857142857 -0.7823999999999999 -1.0514742857142856 -0.7823999999999999 -1.2454285714285713V15.3276c0.7989942857142857 0.4571314285714286 1.6781828571428572 0.8639314285714285 2.6095542857142857 1.2229371428571427C10.610605714285713 17.98261714285714 15.598045714285714 18.822857142857142 21 18.822857142857142s10.389394285714285 -0.84024 14.1048 -2.27232c0.9312 -0.35900571428571426 1.8106285714285715 -0.7658057142857142 2.609485714285714 -1.2229371428571427V20.57142857142857c0 1.1834399999999998 0.9593142857142857 2.142857142857143 2.142857142857143 2.142857142857143s2.142857142857143 -0.9594171428571429 2.142857142857143 -2.142857142857143V9.411428571428571c0 -1.8132000000000001 -0.9617142857142857 -3.3015085714285712 -2.1812571428571426 -4.413085714285714 -1.2188571428571426 -1.1107885714285712 -2.863542857142857 -2.0127222857142857 -4.7139428571428565 -2.7260331428571427C31.389394285714282 0.8402262857142857 26.401954285714282 0 21 0Zm26.034857142857142 26.277771428571427c1.1091428571428572 0.8871771428571428 1.2888 2.505325714285714 0.4018285714285714 3.6142971428571427L33.722228571428566 47.03485714285714c-0.8676342857142857 1.0844571428571428 -2.439702857142857 1.284342857142857 -3.5507999999999997 0.45085714285714285l-6.857142857142857 -5.142857142857142c-1.1361257142857142 -0.852 -1.3663885714285713 -2.4637714285714285 -0.5142857142857142 -3.6 0.852102857142857 -1.1362285714285714 2.4638742857142857 -1.3662857142857143 3.6 -0.5142857142857142l4.863291428571428 3.6473142857142857 12.157165714285714 -15.196525714285713c0.8873142857142856 -1.1089714285714285 2.5056 -1.2887657142857143 3.6144 -0.4015885714285714Z" clip-rule="evenodd" stroke-width="3.4286"></path>
  </g>
</svg>