<svg xmlns="http://www.w3.org/2000/svg" fill="none" viewBox="0 0 48 48" id="Database-Server-2--Streamline-Core-Remix" height="48" width="48">
  <desc>
    Database Server 2 Streamline Icon: https://streamlinehq.com
  </desc>
  <g id="Free Remix/Computer Devices/database-server-2--server-network-internet">
    <path id="Union" fill="#000000" fill-rule="evenodd" d="M5.571428571428571 6.857142857142857c0 -0.7100914285714285 0.5756228571428571 -1.2857142857142856 1.2857142857142856 -1.2857142857142856h34.285714285714285c0.7100571428571428 0 1.2857142857142856 0.5756228571428571 1.2857142857142856 1.2857142857142856v9.428571428571429c0 0.7100914285714285 -0.5756571428571428 1.2857142857142856 -1.2857142857142856 1.2857142857142856H6.857142857142857c-0.7100914285714285 0 -1.2857142857142856 -0.5756228571428571 -1.2857142857142856 -1.2857142857142856V6.857142857142857ZM2.465424 19.714457142857142C1.7262479999999998 18.76902857142857 1.2857142857142856 17.578834285714283 1.2857142857142856 16.285714285714285V6.857142857142857C1.2857142857142856 3.780137142857143 3.780137142857143 1.2857142857142856 6.857142857142857 1.2857142857142856h34.285714285714285c3.077142857142857 0 5.571428571428571 2.494422857142857 5.571428571428571 5.571428571428571v9.428571428571429c0 1.2931199999999998 -0.44057142857142856 2.4833142857142856 -1.1797714285714285 3.4287428571428573 0.7604571428571428 0.9741599999999999 1.1797714285714285 2.1796457142857144 1.1797714285714285 3.4284V32.57142857142857c0 1.477645714285714 -0.5869714285714285 2.894742857142857 -1.632 3.9394285714285715 -1.0446857142857142 1.0450285714285714 -2.4617142857142853 1.632 -3.9394285714285715 1.632H26.57142857142857v3.8571428571428568H41.14285714285714c1.4201142857142857 0 2.571428571428571 1.1513142857142855 2.571428571428571 2.571428571428571s-1.1513142857142855 2.571428571428571 -2.571428571428571 2.571428571428571H6.857142857142857c-1.4201485714285715 0 -2.571428571428571 -1.1513142857142855 -2.571428571428571 -2.571428571428571s1.1512799999999999 -2.571428571428571 2.571428571428571 -2.571428571428571h14.571428571428571v-3.8571428571428568H6.857142857142857c-1.477645714285714 0 -2.894742857142857 -0.5869714285714285 -3.939596571428571 -1.632C1.8727028571428572 35.46617142857143 1.2857142857142856 34.04907428571428 1.2857142857142856 32.57142857142857V23.142857142857142c0 -1.2487199999999998 0.4192148571428571 -2.45424 1.1797097142857143 -3.4284ZM41.14285714285714 21.857142857142858H6.857142857142857c-0.3410057142857143 0 -0.6680228571428571 0.13546285714285713 -0.9091542857142857 0.37659428571428566 -0.24109714285714282 0.24109714285714282 -0.37655999999999995 0.5681142857142857 -0.37655999999999995 0.9091199999999999V32.57142857142857c0 0.3410057142857143 0.13546285714285713 0.6680228571428571 0.37655999999999995 0.9091542857142857 0.24113142857142858 0.24109714285714282 0.5681485714285713 0.37655999999999995 0.9091542857142857 0.37655999999999995h34.285714285714285c0.34114285714285714 0 0.6678857142857143 -0.13546285714285713 0.9092571428571428 -0.37655999999999995 0.24102857142857143 -0.24113142857142858 0.3764571428571428 -0.5681485714285713 0.3764571428571428 -0.9091542857142857V23.142857142857142c0 -0.3410057142857143 -0.13542857142857143 -0.6680228571428571 -0.3764571428571428 -0.9091199999999999 -0.24137142857142857 -0.24113142857142858 -0.5681142857142857 -0.37659428571428566 -0.9092571428571428 -0.37659428571428566Zm-32.14285714285714 6c0 1.6568571428571428 1.343142857142857 3 3 3s3 -1.343142857142857 3 -3 -1.343142857142857 -3 -3 -3 -3 1.343142857142857 -3 3Zm0 -16.285714285714285c0 1.6568571428571428 1.343142857142857 3 3 3s3 -1.343142857142857 3 -3S13.656857142857142 8.571428571428571 12 8.571428571428571s-3 1.343142857142857 -3 3Zm14.571428571428571 0c0 -1.1834742857142857 0.9593828571428571 -2.142857142857143 2.142857142857143 -2.142857142857143h11.142857142857142c1.183542857142857 0 2.142857142857143 0.9593828571428571 2.142857142857143 2.142857142857143S38.040685714285715 13.714285714285714 36.857142857142854 13.714285714285714H25.71428571428571c-1.1834742857142857 0 -2.142857142857143 -0.9593828571428571 -2.142857142857143 -2.142857142857143ZM25.71428571428571 25.71428571428571c-1.1834742857142857 0 -2.142857142857143 0.9593828571428571 -2.142857142857143 2.142857142857143s0.9593828571428571 2.142857142857143 2.142857142857143 2.142857142857143h11.142857142857142c1.183542857142857 0 2.142857142857143 -0.9593828571428571 2.142857142857143 -2.142857142857143s-0.9593142857142857 -2.142857142857143 -2.142857142857143 -2.142857142857143H25.71428571428571Z" clip-rule="evenodd" stroke-width="3.4286"></path>
  </g>
</svg>