<svg xmlns="http://www.w3.org/2000/svg" fill="none" viewBox="0 0 48 48" id="Database--Streamline-Core-Remix" height="48" width="48">
  <desc>
    Database Streamline Icon: https://streamlinehq.com
  </desc>
  <g id="Free Remix/Computer Devices/database--raid-storage-code-disk-programming-database-array-hard-disc">
    <path id="Union" fill="#000000" fill-rule="evenodd" d="M24 1.2857142857142856c-5.874891428571429 0 -11.290354285714285 0.9121234285714285 -15.31542857142857 2.46024 -2.0054057142857142 0.7712914285714285 -3.7753028571428566 1.7422285714285712 -5.08104 2.9295771428571427C2.297170285714286 7.863428571428571 1.2857142857142856 9.436765714285714 1.2857142857142856 11.340651428571428v25.319005714285712c0 1.9035428571428572 1.0116891428571428 3.4765714285714284 2.317817142857143 4.664228571428572 1.3056 1.1869714285714286 3.07536 2.157942857142857 5.080697142857143 2.9293714285714287 4.024971428571429 1.548342857142857 9.440502857142857 2.4610285714285713 15.315771428571429 2.4610285714285713 5.87526857142857 0 11.29062857142857 -0.9126857142857142 15.315771428571429 -2.4610285714285713 2.0053714285714284 -0.7714285714285714 3.7752 -1.7424 5.0808 -2.9293714285714287 1.305942857142857 -1.1876571428571427 2.3177142857142856 -2.760685714285714 2.3177142857142856 -4.664228571428572V11.340651428571428c0 -1.9038857142857142 -1.0114285714285713 -3.4772228571428565 -2.3177142857142856 -4.66512 -1.305942857142857 -1.1873485714285714 -3.0757714285714286 -2.158285714285714 -5.081142857142857 -2.9295771428571427C35.29028571428571 2.1978377142857144 29.874891428571424 1.2857142857142856 24 1.2857142857142856ZM5.571428571428571 36.659657142857135V30.103782857142853c0.9365142857142856 0.561462857142857 1.9875771428571425 1.0571657142857143 3.1128 1.4900228571428569 4.024971428571429 1.5484114285714285 9.440502857142857 2.4611314285714285 15.315771428571429 2.4611314285714285 5.87526857142857 0 11.29062857142857 -0.91272 15.315771428571429 -2.4611314285714285 1.1252571428571427 -0.43285714285714283 2.1764571428571426 -0.92856 3.1128 -1.4900228571428569v6.555874285714285c0 0.2801142857142857 -0.13954285714285714 0.7878857142857143 -0.9154285714285715 1.493142857142857 -0.7762285714285714 0.7059428571428571 -2.018742857142857 1.44 -3.7361142857142853 2.100685714285714 -3.420342857142857 1.3155428571428571 -8.29056 2.175085714285714 -13.77702857142857 2.175085714285714 -5.4864685714285715 0 -10.356685714285714 -0.859542857142857 -13.776994285714286 -2.175085714285714 -1.717302857142857 -0.6606857142857143 -2.9600571428571425 -1.394742857142857 -3.73632 -2.100685714285714 -0.7757485714285713 -0.7052571428571428 -0.9152571428571429 -1.2130285714285713 -0.9152571428571429 -1.493142857142857Zm35.94171428571428 -11.166308571428571c0.7758857142857143 -0.70536 0.9154285714285715 -1.2131999999999998 0.9154285714285715 -1.4933485714285712V17.44536c-0.9366857142857142 0.5615314285714286 -1.987885714285714 1.0572 -3.113142857142857 1.4900228571428569 -4.025142857142857 1.548102857142857 -9.440537142857144 2.460205714285714 -15.31542857142857 2.460205714285714 -5.874891428571429 0 -11.290354285714285 -0.9121028571428571 -15.31542857142857 -2.460205714285714 -1.1253257142857143 -0.43282285714285706 -2.1765257142857144 -0.9284914285714285 -3.113142857142857 -1.4900228571428569V24c0 0.2801485714285714 0.1395085714285714 0.7879885714285714 0.9152571428571429 1.4933485714285712 0.7762628571428571 0.7058057142857143 2.0190171428571424 1.4398971428571428 3.73632 2.1005142857142856 3.420308571428571 1.3157828571428571 8.290525714285714 2.17536 13.776994285714286 2.17536 5.4864685714285715 0 10.356685714285714 -0.8595771428571428 13.77702857142857 -2.17536 1.7173714285714285 -0.6606171428571428 2.959885714285714 -1.3947085714285714 3.7361142857142853 -2.1005142857142856Z" clip-rule="evenodd" stroke-width="3.4286"></path>
  </g>
</svg>