<svg xmlns="http://www.w3.org/2000/svg" fill="none" viewBox="0 0 48 48" id="Database-Remove--Streamline-Core-Remix" height="48" width="48">
  <desc>
    Database Remove Streamline Icon: https://streamlinehq.com
  </desc>
  <g id="Free Remix/Computer Devices/database-remove--raid-storage-code-disk-programming-database-array-hard-disc-remove-delete-cross">
    <path id="Union" fill="#000000" fill-rule="evenodd" d="M6.895268571428571 2.2723097142857145C10.610605714285713 0.8402262857142857 15.598045714285714 0 21 0s10.389394285714285 0.8402262857142857 14.1048 2.2723097142857145c1.8503999999999998 0.7133108571428571 3.4950857142857146 1.6152445714285713 4.7139428571428565 2.7260331428571427 1.219542857142857 1.1115771428571428 2.1812571428571426 2.599885714285714 2.1812571428571426 4.413085714285714v12.445714285714285c0 1.1834399999999998 -0.9593142857142857 2.142857142857143 -2.142857142857143 2.142857142857143S37.714285714285715 23.04058285714286 37.714285714285715 21.857142857142858V15.3276c-0.7988571428571428 0.4571314285714286 -1.6782857142857142 0.8639314285714285 -2.609485714285714 1.2229371428571427C31.389394285714282 17.98261714285714 26.401954285714282 18.822857142857142 21 18.822857142857142s-10.389394285714285 -0.84024 -14.104731428571428 -2.27232c-0.9313714285714285 -0.35900571428571426 -1.81056 -0.7658057142857142 -2.6095542857142857 -1.2229371428571427V21c0 0.19395428571428572 0.09370285714285714 0.6177942857142856 0.7823999999999999 1.2454285714285713 0.6895885714285714 0.6284228571428572 1.8066857142857142 1.2927085714285713 3.3685714285714283 1.8947657142857142 3.109645714285714 1.1986285714285714 7.550777142857143 1.98552 12.563314285714284 1.98552 1.1834742857142857 0 2.142857142857143 0.9593828571428571 2.142857142857143 2.142857142857143s-0.9593828571428571 2.142857142857143 -2.142857142857143 2.142857142857143c-5.401954285714285 0 -10.389394285714285 -0.84024 -14.104731428571428 -2.27232 -0.9313714285714285 -0.35900571428571426 -1.81056 -0.7658057142857142 -2.6095542857142857 -1.2229371428571427v5.672365714285713c0 0.19395428571428572 0.09370285714285714 0.6177942857142856 0.7823999999999999 1.2454285714285713 0.6895885714285714 0.62832 1.8066857142857142 1.2927771428571428 3.3685714285714283 1.8948342857142857 3.109645714285714 1.1986285714285714 7.550777142857143 1.985485714285714 12.563314285714284 1.985485714285714 1.1834742857142857 0 2.142857142857143 0.9593142857142857 2.142857142857143 2.142857142857143s-0.9593828571428571 2.142857142857143 -2.142857142857143 2.142857142857143c-5.401988571428571 0 -10.38942857142857 -0.8403428571428572 -14.104731428571428 -2.2724571428571427 -1.8505714285714283 -0.7131428571428571 -3.495024 -1.6152 -4.7138982857142855 -2.726057142857143C0.9616354285714285 35.889942857142856 0 34.401599999999995 0 32.58853714285714V9.407931428571429c0.0012316902857142855 -1.8116228571428572 0.9624171428571427 -3.2987314285714286 2.181373714285714 -4.409588571428571C3.400251428571428 3.8875542857142853 5.044697142857143 2.985620571428571 6.895268571428571 2.2723097142857145ZM47.246742857142856 32.675417142857135c1.0042285714285712 -1.0041942857142856 1.0042285714285712 -2.6323542857142854 0 -3.636548571428571s-2.6321142857142856 -1.0041942857142856 -3.636342857142857 0L38.1408 34.50857142857142 32.67325714285714 29.053885714285713c-1.0053599999999998 -1.0030285714285714 -2.63352 -1.0011085714285715 -3.636548571428571 0.004285714285714286 -1.0029942857142857 1.0053942857142857 -1.0010742857142858 2.63352 0.00432 3.636548571428571l5.463085714285714 5.450194285714285 -5.4652457142857145 5.465485714285714c-1.0041942857142856 1.0042285714285712 -1.0041942857142856 2.6321142857142856 0 3.636342857142857 1.0041942857142856 1.0042285714285712 2.6323542857142854 1.0042285714285712 3.636548571428571 0l5.469497142857143 -5.4696 5.467542857142857 5.454857142857143c1.0052571428571428 1.0028571428571427 2.633485714285714 1.0008 3.636685714285714 -0.004457142857142857 1.0028571428571427 -1.0052571428571428 1.0011428571428571 -2.633485714285714 -0.004457142857142857 -3.636685714285714l-5.463085714285714 -5.450057142857142 5.465142857142857 -5.465382857142857Z" clip-rule="evenodd" stroke-width="3.4286"></path>
  </g>
</svg>