<svg xmlns="http://www.w3.org/2000/svg" fill="none" viewBox="0 0 48 48" id="Database-Refresh--Streamline-Core-Remix" height="48" width="48">
  <desc>
    Database Refresh Streamline Icon: https://streamlinehq.com
  </desc>
  <g id="Free Remix/Computer Devices/database-refresh--raid-storage-code-disk-programming-database-array-hard-disc-refresh">
    <path id="Union" fill="#000000" fill-rule="evenodd" d="M6.895268571428571 2.2723097142857145C10.610605714285713 0.8402262857142857 15.598045714285714 0 21 0s10.389394285714285 0.8402262857142857 14.1048 2.2723097142857145c1.8503999999999998 0.7133108571428571 3.4950857142857146 1.6152445714285713 4.7139428571428565 2.7260331428571427 1.219542857142857 1.1115771428571428 2.1812571428571426 2.599885714285714 2.1812571428571426 4.413085714285714v12.445714285714285c0 1.1834399999999998 -0.9593142857142857 2.142857142857143 -2.142857142857143 2.142857142857143S37.714285714285715 23.04058285714286 37.714285714285715 21.857142857142858V15.3276c-0.7988571428571428 0.4571314285714286 -1.6782857142857142 0.8639314285714285 -2.609485714285714 1.2229371428571427C31.389394285714282 17.98261714285714 26.401954285714282 18.822857142857142 21 18.822857142857142s-10.389394285714285 -0.84024 -14.104731428571428 -2.27232c-0.9313714285714285 -0.35900571428571426 -1.81056 -0.7658057142857142 -2.6095542857142857 -1.2229371428571427V21c0 0.17348571428571427 0.07045714285714284 0.5120228571428571 0.5518628571428571 1.0200342857142857 0.4918285714285714 0.5189485714285714 1.3098171428571428 1.0958742857142858 2.5026171428571424 1.654662857142857 2.379565714285714 1.1147657142857141 5.860422857142857 1.9761257142857143 9.973782857142856 2.30568 1.1797028571428572 0.09452571428571428 2.059405714285714 1.1274514285714285 1.96488 2.3071542857142853 -0.09449142857142857 1.1796685714285713 -1.1274514285714285 2.0593714285714286 -2.30712 1.96488 -4.451211428571429 -0.35664 -8.470354285714285 -1.3010399999999998 -11.449645714285714 -2.696742857142857 -0.4267885714285714 -0.1999542857142857 -0.8403771428571428 -0.4129028571428571 -1.2363771428571428 -0.6394971428571428v5.672365714285713c0 0.33521142857142855 0.3621257142857143 1.3007314285714284 2.594605714285714 2.449062857142857 2.061428571428571 1.0604571428571428 5.113988571428571 1.930285714285714 8.801554285714285 2.3691428571428568 1.175142857142857 0.13988571428571428 2.014422857142857 1.2061714285714285 1.8745371428571427 2.3811428571428572 -0.13988571428571428 1.1753142857142855 -1.2059657142857143 2.014628571428571 -2.3811428571428572 1.8747428571428568 -4.007211428571429 -0.4772571428571428 -7.597508571428571 -1.4468571428571426 -10.255268571428571 -2.813828571428571C2.4333359999999997 37.5696 0 35.519999999999996 0 32.58853714285714V9.407931428571429c0.0012316902857142855 -1.8116228571428572 0.9624171428571427 -3.2987314285714286 2.181373714285714 -4.409588571428571C3.400251428571428 3.8875542857142853 5.044697142857143 2.985620571428571 6.895268571428571 2.2723097142857145ZM32.14285714285714 28.71428571428571c0 -1.1834742857142857 0.9593828571428571 -2.142857142857143 2.142857142857143 -2.142857142857143 5.917371428571428 0 10.714285714285714 4.796948571428572 10.714285714285714 10.714285714285714h1.2857142857142856c0.6932571428571428 0 1.3182857142857143 0.41759999999999997 1.5836571428571427 1.0583999999999998 0.26537142857142854 0.6404571428571428 0.11897142857142858 1.377942857142857 -0.37131428571428565 1.8682285714285716l-3.4285714285714284 3.4285714285714284c-0.6696 0.6692571428571429 -1.7550857142857144 0.6692571428571429 -2.4246857142857143 0l-3.4285714285714284 -3.4285714285714284c-0.4902857142857142 -0.4902857142857142 -0.6366857142857143 -1.2277714285714285 -0.37131428571428565 -1.8682285714285716 0.26537142857142854 -0.6408 0.8903999999999999 -1.0583999999999998 1.5836571428571427 -1.0583999999999998h1.2857142857142856C40.714285714285715 33.735325714285715 37.836 30.857142857142854 34.285714285714285 30.857142857142854c-1.1834742857142857 0 -2.142857142857143 -0.9593828571428571 -2.142857142857143 -2.142857142857143Zm-3 8.571428571428571h-1.2857142857142856c0 3.5502857142857143 2.878182857142857 6.428571428571428 6.428571428571428 6.428571428571428 1.183542857142857 0 2.142857142857143 0.9593142857142857 2.142857142857143 2.142857142857143S35.46925714285714 48 34.285714285714285 48c-5.917337142857142 0 -10.714285714285714 -4.796914285714285 -10.714285714285714 -10.714285714285714H22.285714285714285c-0.69336 0 -1.3184571428571428 -0.41759999999999997 -1.5837942857142857 -1.0583999999999998 -0.2653371428571428 -0.6404571428571428 -0.11866285714285714 -1.377942857142857 0.37162285714285714 -1.8682285714285716l3.4285714285714284 -3.4284c0.669462857142857 -0.6694971428571428 1.7548799999999998 -0.6694971428571428 2.424342857142857 0l3.4285714285714284 3.4284c0.4902857142857142 0.4902857142857142 0.63696 1.2277714285714285 0.37162285714285714 1.8682285714285716 -0.2653371428571428 0.6408 -0.8904342857142856 1.0583999999999998 -1.5837942857142857 1.0583999999999998Z" clip-rule="evenodd" stroke-width="3.4286"></path>
  </g>
</svg>