<svg xmlns="http://www.w3.org/2000/svg" fill="none" viewBox="0 0 48 48" id="Database-Setting--Streamline-Core-Remix" height="48" width="48">
  <desc>
    Database Setting Streamline Icon: https://streamlinehq.com
  </desc>
  <g id="Free Remix/Computer Devices/database-setting--raid-storage-code-disk-gear-database-array-hard-disc-setting">
    <path id="Union" fill="#000000" fill-rule="evenodd" d="M21 0C15.598045714285714 0 10.610605714285713 0.8402262857142857 6.895268571428571 2.2723097142857145 5.044697142857143 2.985620571428571 3.400251428571428 3.8875542857142853 2.181373714285714 4.998342857142857 0.9624171428571427 6.1091999999999995 0.0012316902857142855 7.596308571428572 0 9.407931428571429v23.18060571428571c0 1.5788914285714284 0.7339885714285713 2.9204914285714283 1.7268411428571429 3.96792 0.9824777142857142 1.0368 2.308621714285714 1.8911999999999998 3.795250285714286 2.587885714285714 2.979291428571428 1.3954285714285712 6.998434285714286 2.34 11.449645714285714 2.696571428571428 1.1796685714285713 0.09462857142857142 2.212628571428571 -0.7851428571428571 2.30712 -1.9649142857142858 0.09452571428571428 -1.1794285714285713 -0.7851771428571428 -2.2124571428571427 -1.96488 -2.3070857142857144 -4.113359999999999 -0.32948571428571427 -7.594217142857143 -1.190742857142857 -9.973782857142856 -2.3057142857142856 -1.1927999999999999 -0.5588571428571428 -2.0107885714285714 -1.1356457142857144 -2.5026171428571424 -1.6546285714285713 -0.48140571428571427 -0.5080114285714286 -0.5518628571428571 -0.8465485714285713 -0.5518628571428571 -1.0200342857142857V26.916171428571428c0.396 0.2265942857142857 0.8095885714285714 0.4395428571428571 1.2363771428571428 0.6394971428571428 2.979291428571428 1.3957028571428571 6.998434285714286 2.340102857142857 11.449645714285714 2.696742857142857 1.1796685714285713 0.09449142857142857 2.212628571428571 -0.7852114285714286 2.30712 -1.96488 0.09452571428571428 -1.1797028571428572 -0.7851771428571428 -2.212628571428571 -1.96488 -2.3071542857142853 -4.113359999999999 -0.3295542857142857 -7.594217142857143 -1.1909142857142856 -9.973782857142856 -2.30568 -1.1927999999999999 -0.5587885714285714 -2.0107885714285714 -1.1357142857142857 -2.5026171428571424 -1.654662857142857C4.356171428571429 21.512022857142856 4.285714285714286 21.173485714285714 4.285714285714286 21V15.3276c0.7989942857142857 0.4571314285714286 1.6781828571428572 0.8639314285714285 2.6095542857142857 1.2229371428571427C10.610605714285713 17.98261714285714 15.598045714285714 18.822857142857142 21 18.822857142857142s10.389394285714285 -0.84024 14.1048 -2.27232c0.9312 -0.35900571428571426 1.8106285714285715 -0.7658057142857142 2.609485714285714 -1.2229371428571427V17.142857142857142c0 1.1834399999999998 0.9593142857142857 2.142857142857143 2.142857142857143 2.142857142857143s2.142857142857143 -0.9594171428571429 2.142857142857143 -2.142857142857143V9.411428571428571c0 -1.8132000000000001 -0.9617142857142857 -3.3015085714285712 -2.1812571428571426 -4.413085714285714 -1.2188571428571426 -1.1107885714285712 -2.863542857142857 -2.0127222857142857 -4.7139428571428565 -2.7260331428571427C31.389394285714282 0.8402262857142857 26.401954285714282 0 21 0Zm14.293371428571428 22.166022857142856 -0.005142857142857143 0c-0.6925714285714286 0.0020571428571428568 -1.3681714285714286 0.21318857142857142 -1.9386514285714287 0.6057942857142857 -0.5702057142857143 0.39239999999999997 -1.0086857142857142 0.9477599999999999 -1.2580457142857142 1.593462857142857l-0.00037714285714285714 0.0009257142857142857 -0.5194971428571428 1.3410171428571427 -1.5021942857142856 0.8526171428571429 -1.4460342857142856 -0.2205942857142857 0.00003428571428571428 -0.00023999999999999998 -0.027977142857142857 -0.0037714285714285714c-0.675462857142857 -0.09168 -1.362925714285714 0.019508571428571427 -1.975062857142857 0.31944 -0.6121371428571428 0.29993142857142857 -1.1212457142857142 0.7750971428571428 -1.4626971428571427 1.3650514285714286l-0.00003428571428571428 0 -0.004697142857142856 0.008194285714285715 -0.6850628571428571 1.1988685714285714c-0.3480342857142857 0.59688 -0.5081485714285714 1.2849257142857142 -0.45935999999999994 1.974342857142857 0.04909714285714285 0.6935657142857142 0.3073371428571428 1.3558971428571427 0.74064 1.8996685714285713l0.006274285714285714 0.007782857142857142 0.9127542857142857 1.13184v1.6851771428571427l-0.9127542857142857 1.1317714285714284 -0.006274285714285714 0.007885714285714286c-0.4333028571428571 0.5437714285714285 -0.6915428571428571 1.2061714285714285 -0.74064 1.8997714285714287 -0.048788571428571424 0.6894857142857143 0.11132571428571428 1.3772571428571427 0.45935999999999994 1.9741714285714285l0.6850628571428571 1.1989714285714286 0.004731428571428571 0.008228571428571427c0.3414514285714286 0.5900571428571428 0.85056 1.0649142857142857 1.4626971428571427 1.3649142857142857 0.6121371428571428 0.3 1.2995999999999999 0.4110857142857143 1.975062857142857 0.31954285714285713l0.027977142857142857 -0.0037714285714285714 -0.00003428571428571428 -0.00034285714285714285 1.4460342857142856 -0.22045714285714282 1.5021942857142856 0.8526857142857143 0.5194971428571428 1.3409142857142857 0.00037714285714285714 0.0010285714285714284c0.24936 0.6456 0.6878399999999999 1.2010285714285713 1.2580457142857142 1.5932571428571427 0.57048 0.39257142857142857 1.2460799999999999 0.6037714285714285 1.9386514285714287 0.6058285714285714l0.005142857142857143 0 0.7066285714285714 0 0.7066285714285714 0 0.005142857142857143 0c0.6925714285714286 -0.0020571428571428568 1.368342857142857 -0.21325714285714284 1.9385142857142856 -0.6058285714285714 0.5705142857142856 -0.3922285714285714 1.0086857142857142 -0.9476571428571428 1.2582857142857142 -1.5932571428571427l0.00034285714285714285 -0.0010285714285714284 0.5194285714285714 -1.3409142857142857 1.5020571428571428 -0.8526857142857143 1.4461714285714284 0.22045714285714282 0 0.00034285714285714285 0.02777142857142857 0.0037714285714285714c0.6757714285714286 0.09154285714285715 1.3632 -0.019542857142857143 1.9751999999999996 -0.31954285714285713 0.612 -0.3 1.1211428571428572 -0.7748571428571428 1.4626285714285712 -1.3649142857142857l0.0048 -0.008228571428571427 0.6850285714285714 -1.1989714285714286c0.34800000000000003 -0.5969142857142857 0.5081142857142856 -1.2846857142857142 0.4594285714285714 -1.9741714285714285 -0.04902857142857143 -0.6936 -0.3072 -1.356 -0.7405714285714285 -1.8997714285714287l-0.006171428571428571 -0.007885714285714286 -0.9130285714285713 -1.1317714285714284v-1.6851771428571427l0.9130285714285713 -1.13184 0.006171428571428571 -0.007782857142857142c0.4333714285714286 -0.5437714285714285 0.6915428571428571 -1.206102857142857 0.7405714285714285 -1.8996685714285713 0.048685714285714284 -0.6894171428571428 -0.11142857142857143 -1.377462857142857 -0.4594285714285714 -1.974342857142857l-0.6850285714285714 -1.1988685714285714 -0.0048 -0.008194285714285715c-0.3414857142857142 -0.5899542857142857 -0.8506285714285713 -1.0651199999999998 -1.4626285714285712 -1.3650514285714286s-1.2994285714285714 -0.41112 -1.9751999999999996 -0.31944l-0.02777142857142857 0.0037714285714285714 0 0.00023999999999999998 -1.4461714285714284 0.2205942857142857 -1.5020571428571428 -0.8526171428571429 -0.5194285714285714 -1.3410171428571427 -0.00034285714285714285 -0.0009257142857142857c-0.2496 -0.6457028571428571 -0.6877714285714286 -1.2010628571428572 -1.2582857142857142 -1.593462857142857 -0.5701714285714286 -0.3926057142857143 -1.245942857142857 -0.6037371428571429 -1.9385142857142856 -0.6057942857142857l-0.005142857142857143 0 -0.7066285714285714 0 -0.7066285714285714 0ZM36 30.857142857142854c-2.3669485714285714 0 -4.285714285714286 1.9187999999999998 -4.285714285714286 4.285714285714286 0 2.367085714285714 1.9187657142857142 4.285714285714286 4.285714285714286 4.285714285714286 2.367085714285714 0 4.285714285714286 -1.9186285714285713 4.285714285714286 -4.285714285714286 0 -2.3669142857142855 -1.9186285714285713 -4.285714285714286 -4.285714285714286 -4.285714285714286Z" clip-rule="evenodd" stroke-width="3.4286"></path>
  </g>
</svg>