<svg xmlns="http://www.w3.org/2000/svg" fill="none" viewBox="0 0 48 48" id="Database-Server-1--Streamline-Core-Remix" height="48" width="48">
  <desc>
    Database Server 1 Streamline Icon: https://streamlinehq.com
  </desc>
  <g id="Free Remix/Computer Devices/database-server-1--server-network-internet">
    <path id="Union" fill="#000000" fill-rule="evenodd" d="M5.571428571428571 6.857142857142857c0 -0.7100914285714285 0.5756228571428571 -1.2857142857142856 1.2857142857142856 -1.2857142857142856h34.285714285714285c0.7100571428571428 0 1.2857142857142856 0.5756228571428571 1.2857142857142856 1.2857142857142856v13.714285714285714c0 0.7100914285714285 -0.5756571428571428 1.2857142857142856 -1.2857142857142856 1.2857142857142856H6.857142857142857c-0.7100914285714285 0 -1.2857142857142856 -0.5756228571428571 -1.2857142857142856 -1.2857142857142856V6.857142857142857Zm41.14285714285714 13.714285714285714c0 1.2930171428571429 -0.44057142857142856 2.483177142857143 -1.1794285714285713 3.4285714285714284 0.7388571428571428 0.9453942857142856 1.1794285714285713 2.1355542857142855 1.1794285714285713 3.4285714285714284v13.714285714285714c0 3.077142857142857 -2.494285714285714 5.571428571428571 -5.571428571428571 5.571428571428571H6.857142857142857c-3.0770057142857143 0 -5.571428571428571 -2.494285714285714 -5.571428571428571 -5.571428571428571V27.428571428571427c0 -1.2930171428571429 0.4404754285714286 -2.483177142857143 1.1795622857142856 -3.4285714285714284C1.7261897142857143 23.054605714285714 1.2857142857142856 21.864445714285715 1.2857142857142856 20.57142857142857V6.857142857142857C1.2857142857142856 3.780137142857143 3.780137142857143 1.2857142857142856 6.857142857142857 1.2857142857142856h34.285714285714285c3.077142857142857 0 5.571428571428571 2.494422857142857 5.571428571428571 5.571428571428571v13.714285714285714ZM6.857142857142857 26.142857142857142h34.285714285714285c0.7100571428571428 0 1.2857142857142856 0.5756228571428571 1.2857142857142856 1.2857142857142856v13.714285714285714c0 0.7100571428571428 -0.5756571428571428 1.2857142857142856 -1.2857142857142856 1.2857142857142856H6.857142857142857c-0.7100914285714285 0 -1.2857142857142856 -0.5756571428571428 -1.2857142857142856 -1.2857142857142856V27.428571428571427c0 -0.7100914285714285 0.5756228571428571 -1.2857142857142856 1.2857142857142856 -1.2857142857142856Zm6 -16.285714285714285c-2.1302399999999997 0 -3.8571428571428568 1.726902857142857 -3.8571428571428568 3.8571428571428568s1.726902857142857 3.8571428571428568 3.8571428571428568 3.8571428571428568S16.71428571428571 15.844525714285712 16.71428571428571 13.714285714285714 14.987382857142856 9.857142857142856 12.857142857142856 9.857142857142856ZM23.142857142857142 13.714285714285714c0 -1.4201485714285715 1.1512799999999999 -2.571428571428571 2.571428571428571 -2.571428571428571h10.285714285714285c1.4201142857142857 0 2.571428571428571 1.1512799999999999 2.571428571428571 2.571428571428571s-1.1513142857142855 2.571428571428571 -2.571428571428571 2.571428571428571h-10.285714285714285c-1.4201485714285715 0 -2.571428571428571 -1.1512799999999999 -2.571428571428571 -2.571428571428571Zm-10.285714285714285 16.71428571428571c-2.1302399999999997 0 -3.8571428571428568 1.726902857142857 -3.8571428571428568 3.8571428571428568 0 2.1301714285714284 1.726902857142857 3.8571428571428568 3.8571428571428568 3.8571428571428568S16.71428571428571 36.415885714285714 16.71428571428571 34.285714285714285c0 -2.1302399999999997 -1.726902857142857 -3.8571428571428568 -3.8571428571428568 -3.8571428571428568Zm12.857142857142856 1.2857142857142856c-1.4201485714285715 0 -2.571428571428571 1.1512799999999999 -2.571428571428571 2.571428571428571 0 1.4201142857142857 1.1512799999999999 2.571428571428571 2.571428571428571 2.571428571428571h10.285714285714285c1.4201142857142857 0 2.571428571428571 -1.1513142857142855 2.571428571428571 -2.571428571428571 0 -1.4201485714285715 -1.1513142857142855 -2.571428571428571 -2.571428571428571 -2.571428571428571h-10.285714285714285Z" clip-rule="evenodd" stroke-width="3.4286"></path>
  </g>
</svg>