<svg xmlns="http://www.w3.org/2000/svg" fill="none" viewBox="0 0 48 48" id="Decent-Work-And-Economic-Growth--Streamline-Core-Remix" height="48" width="48">
  <desc>
    Decent Work And Economic Growth Streamline Icon: https://streamlinehq.com
  </desc>
  <g id="Free Remix/Nature Ecology/decent-work-and-economic-growth">
    <path id="Union" fill="#000000" fill-rule="evenodd" d="M36.000342857142854 1.7142857142857142c-0.6932571428571428 0 -1.3182857142857143 0.417672 -1.5836571428571427 1.0582559999999999 -0.26544 0.6405839999999999 -0.11862857142857142 1.3779154285714286 0.3716571428571428 1.868201142857143l2.6286857142857145 2.62872 -8.35981714285714 7.130297142857143L16.71466285714286 5.142857142857142c-0.6837599999999999 -0.5128114285714286 -1.6068342857142857 -0.5702742857142857 -2.34888 -0.14622857142857143l-12 6.857142857142857c-1.027536 0.5871428571428572 -1.3845291428571427 1.8961371428571427 -0.7973657142857142 2.92368 0.5871634285714286 1.027542857142857 1.8961542857142857 1.3845257142857144 2.923662857142857 0.7973485714285713L15.269622857142856 9.41622857142857 27.857519999999997 18.857142857142858c0.8019085714285713 0.60144 1.9136228571428568 0.5665714285714286 2.6763085714285713 -0.08393142857142856l9.922971428571428 -8.463771428571429 2.9029714285714285 2.9027314285714283c0.4902857142857142 0.4902857142857142 1.2274285714285713 0.63696 1.867885714285714 0.37162285714285714 0.6408 -0.2653371428571428 1.0583999999999998 -0.8904342857142856 1.0583999999999998 -1.5837942857142857V3.4285714285714284c0 -0.9467725714285714 -0.7676571428571428 -1.7142857142857142 -1.7142857142857142 -1.7142857142857142h-8.571428571428571Zm10.714285714285714 17.142857142857142c0 -0.8184342857142857 -0.4662857142857143 -1.565382857142857 -1.2013714285714285 -1.9249714285714286 -0.7350857142857142 -0.3595542857142857 -1.6110857142857142 -0.2689714285714286 -2.257028571428571 0.23348571428571424L29.11957714285714 28.160845714285713 16.71466285714286 18.857142857142858c-0.6837599999999999 -0.5128114285714286 -1.6068342857142857 -0.5702742857142857 -2.34888 -0.14622857142857143l-12 6.857142857142857C1.6981234285714284 25.949554285714285 1.2860811428571428 26.65957714285714 1.2860811428571428 27.428571428571427v17.142857142857142c0 1.183542857142857 0.9593897142857143 2.142857142857143 2.1428674285714284 2.142857142857143H44.571771428571424c1.183542857142857 0 2.142857142857143 -0.9593142857142857 2.142857142857143 -2.142857142857143V18.857142857142858ZM30.458811428571426 32.548628571428566 42.428914285714285 23.238514285714285v19.190057142857142H29.143234285714282v-9.428571428571429c0.46460571428571423 0 0.9289714285714286 -0.15068571428571428 1.3155771428571428 -0.45137142857142853Zm-15.029862857142856 -9.298628571428571 -0.15932571428571426 -0.11948571428571428 -9.697817142857144 5.5416v13.75645714285714h9.857142857142856V23.25Z" clip-rule="evenodd" stroke-width="3.4286"></path>
  </g>
</svg>