<svg xmlns="http://www.w3.org/2000/svg" fill="none" viewBox="0 0 48 48" id="Definition-Search-Book--Streamline-Core-Remix" height="48" width="48">
  <desc>
    Definition Search Book Streamline Icon: https://streamlinehq.com
  </desc>
  <g id="Free Remix/Work Education/definition-search-book">
    <path id="Union" fill="#000000" fill-rule="evenodd" d="M26.142857142857142 11.571428571428571v9.429394285714285c0 1.1834742857142857 -0.9593828571428571 2.142857142857143 -2.142857142857143 2.142857142857143s-2.142857142857143 -0.9593828571428571 -2.142857142857143 -2.142857142857143v-9.428571428571429c0 -4.023771428571428 -3.261942857142857 -7.285714285714286 -7.285714285714286 -7.285714285714286h-10.285714285714285v29.142857142857142h13.285714285714285c1.1834742857142857 0 2.142857142857143 0.9595199999999999 2.142857142857143 2.1427199999999997 0 1.183542857142857 -0.9593828571428571 2.142857142857143 -2.142857142857143 2.142857142857143h-15.428571428571427c-1.1834674285714284 0 -2.142857142857143 -0.9593142857142857 -2.142857142857143 -2.142857142857143V2.1436937142857144C0 0.9602262857142856 0.9593897142857143 0.0008370548571428572 2.142857142857143 0.0008370548571428572H14.571428571428571c3.8892342857142856 0 7.330285714285713 1.918730945142857 9.428262857142856 4.8612200880000005C26.097634285714285 1.919094857142857 29.53899428571428 0 33.42857142857142 0h12.428571428571427c1.183542857142857 0 2.142857142857143 0.9593897142857143 2.142857142857143 2.142857142857143v20.14368c0 1.1834742857142857 -0.9593142857142857 2.142857142857143 -2.142857142857143 2.142857142857143s-2.142857142857143 -0.9593828571428571 -2.142857142857143 -2.142857142857143V4.285714285714286h-10.285714285714285c-4.023771428571428 0 -7.285714285714286 3.261942857142857 -7.285714285714286 7.285714285714286Zm7.7142857142857135 15.857965714285713c-3.5503885714285714 0 -6.428571428571428 2.878182857142857 -6.428571428571428 6.428571428571428 0 3.5504914285714286 2.878182857142857 6.428434285714285 6.428571428571428 6.428434285714285 3.5502857142857143 0 6.428571428571428 -2.877942857142857 6.428571428571428 -6.428434285714285 0 -3.5503885714285714 -2.878285714285714 -6.428571428571428 -6.428571428571428 -6.428571428571428Zm-10.714285714285714 6.428571428571428c0 -5.917337142857142 4.796948571428572 -10.714285714285714 10.714285714285714 -10.714285714285714 5.917371428571428 0 10.714285714285714 4.796948571428572 10.714285714285714 10.714285714285714 0 2.183862857142857 -0.6531428571428571 4.214948571428571 -1.7749714285714286 5.908662857142857l4.5744 4.5744c0.8369142857142857 0.8369142857142857 0.8369142857142857 2.1936 0 3.0305142857142857 -0.8369142857142857 0.8369142857142857 -2.1936 0.8369142857142857 -3.0305142857142857 0l-4.5744 -4.5744c-1.6940571428571427 1.1218285714285714 -3.725142857142857 1.7749714285714286 -5.908799999999999 1.7749714285714286 -5.917337142857142 0 -10.714285714285714 -4.796914285714285 -10.714285714285714 -10.714148571428572Z" clip-rule="evenodd" stroke-width="3.4286"></path>
  </g>
</svg>