<svg xmlns="http://www.w3.org/2000/svg" fill="none" viewBox="0 0 48 48" id="Delete-Keyboard--Streamline-Core-Remix" height="48" width="48">
  <desc>
    Delete Keyboard Streamline Icon: https://streamlinehq.com
  </desc>
  <g id="Free Remix/Computer Devices/Computer Devices/Keyboard/delete-keyboard">
    <path id="Union" fill="#000000" fill-rule="evenodd" d="M17.04864 6.428571428571428c-1.53504 0 -3.006925714285714 0.6261257142857143 -4.067657142857143 1.7384228571428573l-11.443789714285714 12c-2.0495897142857142 2.1492 -2.049593142857143 5.516811428571429 0 7.666011428571428L12.980982857142855 39.83314285714285l1.3351885714285714 -1.2733714285714286 -1.3351885714285714 1.2733714285714286c1.0607314285714284 1.1122285714285713 2.5326171428571427 1.7382857142857142 4.067657142857143 1.7382857142857142h25.346674285714286c3.0757714285714286 0 5.604685714285714 -2.474742857142857 5.604685714285714 -5.571428571428571v-24c0 -3.096548571428571 -2.528914285714286 -5.571428571428571 -5.604685714285714 -5.571428571428571H17.04864Zm-0.9661714285714285 4.696148571428571c0.24726857142857142 -0.2593028571428571 0.5962285714285714 -0.4104342857142857 0.9661714285714285 -0.4104342857142857h25.346674285714286c0.7481142857142857 0 1.3189714285714285 0.5952 1.3189714285714285 1.2857142857142856v24c0 0.6905142857142856 -0.5708571428571428 1.2857142857142856 -1.3189714285714285 1.2857142857142856H17.04864c-0.36994285714285713 0 -0.7189028571428571 -0.1512 -0.9661714285714285 -0.4104L4.638685714285715 24.875279999999997c-0.47064 -0.49350857142857146 -0.47064 -1.2570514285714285 0 -1.7505600000000001l11.443782857142857 -12Zm21.735702857142854 5.057005714285714c1.0042285714285712 1.0041942857142856 1.0042285714285712 2.6323542857142854 0 3.636548571428571L33.636959999999995 23.99958857142857l4.182239999999999 4.182137142857142c1.0042285714285712 1.0041942857142856 1.0042285714285712 2.6323542857142854 0 3.636548571428571s-2.632457142857143 1.0041942857142856 -3.636651428571428 0L30.00041142857143 27.63613714285714 25.818274285714285 31.81827428571428c-1.0041942857142856 1.0041942857142856 -2.6323542857142854 1.0041942857142856 -3.636548571428571 0s-1.0041942857142856 -2.6323542857142854 0 -3.636548571428571l4.182137142857142 -4.182137142857142 -4.1813142857142855 -4.1813142857142855c-1.0041942857142856 -1.0041942857142856 -1.0041942857142856 -2.6323542857142854 0 -3.636548571428571 1.0042285714285712 -1.0041942857142856 2.6323542857142854 -1.0041942857142856 3.636548571428571 0l4.1813142857142855 4.1813142857142855 4.1813142857142855 -4.1813142857142855c1.0043314285714287 -1.0041942857142856 2.632217142857143 -1.0041942857142856 3.636445714285714 0Z" clip-rule="evenodd" stroke-width="3.4286"></path>
  </g>
</svg>