<svg xmlns="http://www.w3.org/2000/svg" fill="none" viewBox="0 0 48 48" id="Delete-1--Streamline-Core-Remix" height="48" width="48">
  <desc>
    Delete 1 Streamline Icon: https://streamlinehq.com
  </desc>
  <g id="Free Remix/Interface Essential/delete-1--remove-add-button-buttons-delete-cross-x-mathematics-multiply-math">
    <path id="Union" fill="#000000" fill-rule="evenodd" d="M46.817142857142855 4.5771428571428565c0.9370285714285713 -0.9373714285714284 0.9370285714285713 -2.456914285714286 0 -3.394285714285714 -0.9370285714285713 -0.9370285714285713 -2.456914285714286 -0.9370285714285713 -3.393942857142857 0L24 20.606057142857143 4.5771428571428565 1.1828571428571426C3.6397714285714287 0.24582857142857142 2.120228571428571 0.24582857142857142 1.1828571428571426 1.1828571428571426c-0.9370285714285713 0.9373714285714284 -0.9370285714285713 2.456914285714286 0 3.394285714285714L20.606057142857143 24 1.1828571428571426 43.4232c-0.9370285714285713 0.9370285714285713 -0.9370285714285713 2.456914285714286 0 3.393942857142857 0.9373714285714284 0.9370285714285713 2.456914285714286 0.9370285714285713 3.394285714285714 0L24 27.394285714285715l19.423199999999998 19.422514285714286c0.9370285714285713 0.9373714285714284 2.456914285714286 0.9373714285714284 3.393942857142857 0 0.9370285714285713 -0.9366857142857142 0.9370285714285713 -2.4565714285714284 0 -3.3935999999999997L27.394285714285715 24l19.422514285714286 -19.422857142857143Z" clip-rule="evenodd" stroke-width="3.4286"></path>
  </g>
</svg>