<svg xmlns="http://www.w3.org/2000/svg" fill="none" viewBox="0 0 48 48" id="Descending-Number-Order--Streamline-Core-Remix" height="48" width="48">
  <desc>
    Descending Number Order Streamline Icon: https://streamlinehq.com
  </desc>
  <g id="Free Remix/Interface Essential/descending-number-order">
    <path id="Union" fill="#000000" fill-rule="evenodd" d="M15.459771428571429 2.5799999999999996c0 -1.1598857142857142 -0.9401142857142857 -2.1 -2.1 -2.1s-2.1 0.9401142857142857 -2.1 2.1v32.339999999999996H4.959771428571429c-0.8492571428571428 0 -1.6152 0.5118857142857142 -1.9402285714285712 1.296342857142857 -0.3250285714285714 0.7847999999999999 -0.14537142857142857 1.6882285714285714 0.45531428571428567 2.2885714285714283l8.4 8.4c0.8201142857142857 0.8201142857142857 2.1497142857142855 0.8201142857142857 2.9698285714285713 0l8.4 -8.4c0.6006857142857143 -0.6003428571428572 0.7803428571428571 -1.5037714285714285 0.45531428571428567 -2.2885714285714283 -0.3250285714285714 -0.7844571428571429 -1.0909714285714285 -1.296342857142857 -1.9402285714285712 -1.296342857142857H15.459771428571429V2.5799999999999996Zm21.683314285714285 7.456799999999999 -2.2049142857142856 0c-1.4787428571428571 0 -2.6773714285714285 -1.1989714285714286 -2.6773714285714285 -2.6777142857142855s1.1986285714285714 -2.6773714285714285 2.6773714285714285 -2.6773714285714285h2.2049142857142856c1.4636571428571428 0 2.6530285714285715 1.1746285714285714 2.6770285714285715 2.6328v0.08948571428571428c-0.024 1.4581714285714285 -1.2133714285714285 2.6328 -2.6770285714285715 2.6328Zm0 -9.555085714285715c3.523885714285714 0 6.428914285714285 2.649942857142857 6.830399999999999 6.066171428571429 0.030514285714285713 0.14297142857142855 0.04662857142857142 0.2914285714285714 0.04662857142857142 0.4436571428571428v0.29588571428571425l0.0006857142857142857 0.07165714285714285 -0.0006857142857142857 0.07165714285714285v8.380799999999999c0 3.5955428571428567 -2.914628571428571 6.510171428571429 -6.509828571428571 6.510171428571429h-2.94c-2.837828571428571 0 -5.2463999999999995 -1.814742857142857 -6.1392 -4.340228571428571 -0.38639999999999997 -1.0933714285714287 0.18685714285714283 -2.2933714285714286 1.2802285714285715 -2.6797714285714282 1.0937142857142856 -0.38639999999999997 2.2933714285714286 0.1865142857142857 2.6797714285714282 1.2802285714285715 0.31817142857142855 0.9 1.1766857142857143 1.5397714285714286 2.1792000000000002 1.5397714285714286h2.94c1.2754285714285714 0 2.309828571428571 -1.0344 2.309828571428571 -2.310171428571428v-2.115428571428571c-0.8225142857142856 0.34800000000000003 -1.7273142857142858 0.5406857142857143 -2.6770285714285715 0.5406857142857143l-2.2049142857142856 0c-3.798514285714286 0 -6.877714285714284 -3.0791999999999997 -6.877714285714284 -6.877714285714284 0 -3.798171428571428 3.0791999999999997 -6.877371428571428 6.877714285714284 -6.877371428571428l2.2049142857142856 0Zm2.3972571428571428 28.13657142857143c0 -1.1598857142857142 -0.9404571428571428 -2.1 -2.1 -2.1 -1.1598857142857142 0 -2.1 0.9401142857142857 -2.1 2.1s-0.9404571428571428 2.1 -2.100342857142857 2.1h-1.3998857142857142c-1.1598857142857142 0 -2.1 0.9404571428571428 -2.1 2.1s0.9401142857142857 2.1 2.1 2.1h1.3998857142857142c0.7364571428571428 0 1.443085714285714 -0.12617142857142857 2.100342857142857 -0.35828571428571426v8.758285714285714H31.84045714285714c-1.1598857142857142 0 -2.1 0.9401142857142857 -2.1 2.1s0.9401142857142857 2.1 2.1 2.1h11.199771428571427c1.1598857142857142 0 2.1 -0.9401142857142857 2.1 -2.1s-0.9401142857142857 -2.1 -2.1 -2.1h-3.499885714285714V28.61828571428571Z" clip-rule="evenodd" stroke-width="3.4286"></path>
  </g>
</svg>