<svg xmlns="http://www.w3.org/2000/svg" fill="none" viewBox="0 0 48 48" id="Desktop-Favorite-Star--Streamline-Core-Remix" height="48" width="48">
  <desc>
    Desktop Favorite Star Streamline Icon: https://streamlinehq.com
  </desc>
  <g id="Free Remix/Computer Devices/desktop-favorite-star--desktop-device-display-like-favorite-star">
    <path id="Union" fill="#000000" fill-rule="evenodd" d="M34.309714285714286 0.004262434285714285c0.5002285714285714 -0.00961710857142857 0.9929142857142857 0.12086945142857143 1.4228571428571428 0.3767135657142857 0.4296 0.25584 0.7793142857142856 0.6268285714285714 1.0093714285714286 1.0710137142857143l0.013028571428571428 0.02496342857142857 -0.00034285714285714285 0.00010285714285714286 2.696228571428571 5.423595428571429 5.976685714285714 0.9075085714285713c0.4964571428571429 0.06888 0.9637714285714286 0.2755542857142857 1.3488 0.5967428571428571 0.39085714285714285 0.3260571428571429 0.6809142857142857 0.7566857142857143 0.8358857142857142 1.241485714285714 0.1553142857142857 0.48479999999999995 0.16902857142857142 1.0037485714285714 0.04011428571428571 1.4961942857142856 -0.12788571428571427 0.48853714285714284 -0.39119999999999994 0.9309599999999999 -0.7594285714285713 1.2762857142857142l-4.1616 3.9549257142857144 0.8780571428571428 6.178388571428571c0.08879999999999999 0.48630857142857137 0.04114285714285714 0.9882171428571428 -0.1378285714285714 1.4500114285714285 -0.1872 0.4836685714285714 -0.5108571428571428 0.9025714285714285 -0.9318857142857142 1.2058971428571428 -0.4206857142857143 0.30336 -0.9202285714285715 0.47811428571428566 -1.4386285714285711 0.5030742857142857 -0.5033142857142857 0.024274285714285714 -1.0028571428571427 -0.09383999999999999 -1.4417142857142855 -0.34032l-5.306057142857143 -2.809165714285714 -5.306331428571428 2.809165714285714c-0.43885714285714283 0.24647999999999998 -0.9385714285714285 0.3645942857142857 -1.4418857142857142 0.34032 -0.5181257142857143 -0.02496 -1.01784 -0.1997142857142857 -1.4386285714285711 -0.5030742857142857 -0.4207542857142857 -0.30332571428571425 -0.7444799999999999 -0.7222285714285714 -0.9318857142857142 -1.2058971428571428 -0.18229714285714285 -0.4703657142857143 -0.2280342857142857 -0.9823199999999999 -0.13248 -1.4770628571428572l1.0138971428571428 -6.0200571428571426 -4.31232 -4.128822857142857 -0.03490285714285714 -0.033428571428571426 0.00047999999999999996 -0.00047999999999999996c-0.34573714285714285 -0.35022857142857144 -0.5883771428571428 -0.7888457142857143 -0.7013485714285713 -1.2678171428571428 -0.11300571428571429 -0.4789714285714285 -0.09195428571428571 -0.9797828571428572 0.06078857142857142 -1.4475771428571427 0.15274285714285712 -0.4677942857142857 0.43131428571428565 -0.8845371428571428 0.8051999999999999 -1.2045257142857142 0.37385142857142856 -0.3199885714285714 0.8286171428571428 -0.53088 1.3143771428571427 -0.6095657142857143l0.025474285714285713 -0.004148571428571428 0.00003428571428571428 0.00020571428571428572 5.982788571428571 -0.877062857142857 2.688754285714286 -5.408770285714286c0.2131542857142857 -0.4434342857142857 0.5442857142857143 -0.819798857142857 0.9573257142857143 -1.087686857142857 0.41965714285714284 -0.27217611428571425 0.9070971428571429 -0.4215146057142857 1.40712 -0.4311318514285714ZM44.14285714285714 39.42857142857142H30.13206857142857l1.7142857142857142 4.285714285714286H34.285714285714285c1.183542857142857 0 2.142857142857143 0.9593142857142857 2.142857142857143 2.142857142857143S35.46925714285714 48 34.285714285714285 48H13.714285714285714c-1.1834742857142857 0 -2.142857142857143 -0.9593142857142857 -2.142857142857143 -2.142857142857143s0.9593828571428571 -2.142857142857143 2.142857142857143 -2.142857142857143h2.4393599999999998l1.7142857142857142 -4.285714285714286H3.8571428571428568C1.726902857142857 39.42857142857142 0 37.7016 0 35.57142857142857v-25.71428571428571C0 7.726902857142857 1.726902857142857 6 3.8571428571428568 6h11.142857142857142c1.1834742857142857 0 2.142857142857143 0.9593828571428571 2.142857142857143 2.142857142857143S16.183474285714286 10.285714285714285 15 10.285714285714285H4.285714285714286v24.857142857142854h39.42857142857142V30.428571428571427c0 -1.1834742857142857 0.9593142857142857 -2.142857142857143 2.142857142857143 -2.142857142857143s2.142857142857143 0.9593828571428571 2.142857142857143 2.142857142857143v5.142857142857142c0 2.1301714285714284 -1.7269714285714286 3.8571428571428568 -3.8571428571428568 3.8571428571428568Z" clip-rule="evenodd" stroke-width="3.4286"></path>
  </g>
</svg>