<svg xmlns="http://www.w3.org/2000/svg" fill="none" viewBox="0 0 48 48" id="Desktop-Emoji--Streamline-Core-Remix" height="48" width="48">
  <desc>
    Desktop Emoji Streamline Icon: https://streamlinehq.com
  </desc>
  <g id="Free Remix/Computer Devices/desktop-emoji--device-display-desktop-padlock-smiley">
    <path id="Union" fill="#000000" fill-rule="evenodd" d="M4.285714285714286 33.857142857142854v-28.285714285714285h39.42857142857142v28.285714285714285H4.285714285714286Zm-0.42857142857142855 -32.57142857142857C1.726902857142857 1.2857142857142856 0 3.0126171428571427 0 5.142857142857142V34.285714285714285c0 2.1301714285714284 1.726902857142857 3.8571428571428568 3.8571428571428568 3.8571428571428568h14.01078857142857l-1.7142857142857142 4.285714285714286H13.714285714285714c-1.1834742857142857 0 -2.142857142857143 0.9593142857142857 -2.142857142857143 2.142857142857143s0.9593828571428571 2.142857142857143 2.142857142857143 2.142857142857143h20.57142857142857c1.183542857142857 0 2.142857142857143 -0.9593142857142857 2.142857142857143 -2.142857142857143s-0.9593142857142857 -2.142857142857143 -2.142857142857143 -2.142857142857143h-2.4393599999999998l-1.7142857142857142 -4.285714285714286H44.14285714285714c2.1301714285714284 0 3.8571428571428568 -1.7269714285714286 3.8571428571428568 -3.8571428571428568V5.142857142857142c0 -2.1302399999999997 -1.7269714285714286 -3.8571428571428568 -3.8571428571428568 -3.8571428571428568H3.8571428571428568Zm13.599839999999999 20.299234285714284c-0.9956914285714286 -1.012697142857143 -2.6237485714285715 -1.0264457142857142 -3.636411428571428 -0.03078857142857143 -1.012697142857143 0.9956571428571428 -1.0264457142857142 2.6237485714285715 -0.03078857142857143 3.636411428571428C15.909154285714287 27.346148571428568 19.455497142857144 29.142857142857142 24 29.142857142857142s8.090845714285715 -1.796708571428571 10.210217142857143 -3.952285714285714c0.9957257142857143 -1.012662857142857 0.9820114285714285 -2.640754285714286 -0.03078857142857143 -3.636411428571428 -1.012662857142857 -0.9956571428571428 -2.6407199999999995 -0.9819085714285714 -3.636411428571428 0.03078857142857143C29.396057142857142 22.75148571428571 27.17341714285714 24 24 24s-5.396057142857143 -1.2485142857142855 -6.543017142857142 -2.415051428571428Zm0.6243085714285714 -4.4418171428571425c-0.02674285714285714 0.0008228571428571429 -0.05358857142857143 0.0012342857142857142 -0.08053714285714285 0.0012342857142857142 -1.8939771428571426 0 -3.4293257142857145 -1.535382857142857 -3.4293257142857145 -3.4293257142857145 0 -1.8666514285714286 1.4913942857142857 -3.38496 3.347588571428571 -3.4283657142857145 0.02674285714285714 -0.0008228571428571429 0.05358857142857143 -0.0012342857142857142 0.08057142857142857 -0.0012342857142857142 1.8939428571428572 0 3.4292914285714287 1.5353485714285713 3.4292914285714287 3.4293257142857145 0 1.8666171428571428 -1.4913599999999998 3.38496 -3.347588571428571 3.4283657142857145Zm11.999314285714284 -0.0015085714285714286C30.05382857142857 17.142445714285714 30.026948571428573 17.142857142857142 30 17.142857142857142c-1.8935314285714284 0 -3.4285714285714284 -1.535005714285714 -3.4285714285714284 -3.4285714285714284 0 -1.8662742857142856 1.4910857142857141 -3.3842399999999997 3.346902857142857 -3.4276114285714288 0.02674285714285714 -0.0008228571428571429 0.053554285714285714 -0.0012342857142857142 0.08050285714285714 -0.0012342857142857142 1.8935314285714284 0 3.4285714285714284 1.535005714285714 3.4285714285714284 3.4285714285714284 0 1.866205714285714 -1.4910514285714285 3.3841714285714284 -3.3467999999999996 3.4276114285714288Z" clip-rule="evenodd" stroke-width="3.4286"></path>
  </g>
</svg>