<svg xmlns="http://www.w3.org/2000/svg" fill="none" viewBox="0 0 48 48" id="Desktop-Help--Streamline-Core-Remix" height="48" width="48">
  <desc>
    Desktop Help Streamline Icon: https://streamlinehq.com
  </desc>
  <g id="Free Remix/Computer Devices/desktop-help--device-help-information-display-desktop-question-info">
    <path id="Union" fill="#000000" fill-rule="evenodd" d="M37.17874285714286 4.648354285714285c0.8616 -0.35684571428571427 1.8092571428571427 -0.45017142857142856 2.7236571428571428 -0.2682857142857143 0.9147428571428571 0.18188571428571426 1.7547428571428572 0.6308914285714285 2.4140571428571427 1.2902057142857142 0.6593142857142856 0.6593142857142856 1.1081142857142856 1.4993142857142856 1.2901714285714285 2.413782857142857 0.1817142857142857 0.9144685714285714 0.08845714285714286 1.862365714285714 -0.26845714285714284 2.723794285714286 -0.35657142857142854 0.8614285714285713 -0.9610285714285713 1.59768 -1.7362285714285712 2.115702857142857 -0.7751999999999999 0.5180228571428571 -1.6868571428571428 0.7945028571428571 -2.6190857142857142 0.7945028571428571 -1.183542857142857 0 -2.142857142857143 0.9593828571428571 -2.142857142857143 2.142857142857143v3.714274285714285c0 1.1834742857142857 0.9593142857142857 2.142857142857143 2.142857142857143 2.142857142857143s2.142857142857143 -0.9593828571428571 2.142857142857143 -2.142857142857143v-1.8302399999999999c1.0131428571428571 -0.2483657142857143 1.9806857142857142 -0.6723085714285714 2.8573714285714287 -1.257942857142857 1.4797714285714285 -0.9889371428571427 2.633485714285714 -2.394548571428571 3.314742857142857 -4.039097142857142 0.6812571428571428 -1.6445142857142856 0.8592 -3.4541142857142852 0.5122285714285714 -5.199942857142857 -0.3473142857142857 -1.7458285714285713 -1.204457142857143 -3.3494742857142854 -2.463085714285714 -4.608157714285714 -1.2589714285714286 -1.258673142857143 -2.8625142857142856 -2.1158365714285714 -4.6083428571428575 -2.4631045714285715 -1.7458285714285713 -0.3472673142857143 -3.555428571428571 -0.16903693714285714 -5.199771428571428 0.5121514285714285 -1.6446857142857143 0.6811885714285714 -3.0502971428571426 1.834741714285714 -4.0392342857142856 3.3147908571428566 -0.9889371428571427 1.4800457142857142 -1.5167657142857143 3.22008 -1.5167657142857143 5.000125714285714 0 1.1834742857142857 0.9593828571428571 2.142857142857143 2.142857142857143 2.142857142857143s2.142857142857143 -0.9593828571428571 2.142857142857143 -2.142857142857143c0 -0.9324 0.27634285714285717 -1.8438514285714285 0.7943999999999999 -2.6191199999999997 0.5180571428571429 -0.7752685714285713 1.2545142857142857 -1.3794857142857142 2.115771428571428 -1.7362971428571428Zm1.8041142857142856 24.784114285714285c1.6566857142857143 0 3 -1.343142857142857 3 -3s-1.3433142857142857 -3 -3 -3 -3 1.343142857142857 -3 3 1.3433142857142857 3 3 3ZM44.14285714285714 39.42857142857142H30.13206857142857l1.7142857142857142 4.285714285714286H34.285714285714285c1.183542857142857 0 2.142857142857143 0.9593142857142857 2.142857142857143 2.142857142857143S35.46925714285714 48 34.285714285714285 48H13.714285714285714c-1.1834742857142857 0 -2.142857142857143 -0.9593142857142857 -2.142857142857143 -2.142857142857143s0.9593828571428571 -2.142857142857143 2.142857142857143 -2.142857142857143h2.4393599999999998l1.7142857142857142 -4.285714285714286H3.8571428571428568C1.726902857142857 39.42857142857142 0 37.7016 0 35.57142857142857v-25.71428571428571C0 7.726902857142857 1.726902857142857 6 3.8571428571428568 6H24c1.1834742857142857 0 2.142857142857143 0.9593828571428571 2.142857142857143 2.142857142857143S25.183474285714283 10.285714285714285 24 10.285714285714285H4.285714285714286v24.857142857142854h39.42857142857142v-3c0 -1.1834742857142857 0.9593142857142857 -2.142857142857143 2.142857142857143 -2.142857142857143s2.142857142857143 0.9593828571428571 2.142857142857143 2.142857142857143v3.4285714285714284c0 2.1301714285714284 -1.7269714285714286 3.8571428571428568 -3.8571428571428568 3.8571428571428568Z" clip-rule="evenodd" stroke-width="3.4286"></path>
  </g>
</svg>