<svg xmlns="http://www.w3.org/2000/svg" fill="none" viewBox="0 0 48 48" id="Desktop-Check--Streamline-Core-Remix" height="48" width="48">
  <desc>
    Desktop Check Streamline Icon: https://streamlinehq.com
  </desc>
  <g id="Free Remix/Computer Devices/desktop-check--success-approve-device-display-desktop-computer">
    <path id="Union" fill="#000000" fill-rule="evenodd" d="M47.43668571428571 4.177885714285714c0.8869714285714285 -1.1089645714285714 0.7073142857142857 -2.727144 -0.4018285714285714 -3.614310857142857 -1.1088 -0.8871672 -2.7270857142857143 -0.7073694857142857 -3.6144 0.4015885714285714L31.263291428571428 16.161839999999998 26.4 12.51438857142857c-1.1361257142857142 -0.852102857142857 -2.7478971428571426 -0.62184 -3.6 0.5142857142857142 -0.852102857142857 1.1361257142857142 -0.62184 2.7478971428571426 0.5142857142857142 3.6l6.857142857142857 5.142857142857142c1.1110971428571428 0.8333142857142857 2.6831657142857144 0.6337371428571429 3.5507999999999997 -0.4507885714285714l13.714457142857142 -17.142857142857142ZM44.14285714285714 39.42857142857142H30.13206857142857l1.7142857142857142 4.285714285714286H34.285714285714285c1.183542857142857 0 2.142857142857143 0.9593142857142857 2.142857142857143 2.142857142857143S35.46925714285714 48 34.285714285714285 48H13.714285714285714c-1.1834742857142857 0 -2.142857142857143 -0.9593142857142857 -2.142857142857143 -2.142857142857143s0.9593828571428571 -2.142857142857143 2.142857142857143 -2.142857142857143h2.4393599999999998l1.7142857142857142 -4.285714285714286H3.8571428571428568C1.726902857142857 39.42857142857142 0 37.7016 0 35.57142857142857V9.857245714285714c0 -2.1302399999999997 1.726902857142857 -3.8571428571428568 3.8571428571428568 -3.8571428571428568h12.857142857142856c1.1834742857142857 0 2.142857142857143 0.9593828571428571 2.142857142857143 2.142857142857143s-0.9593828571428571 2.142857142857143 -2.142857142857143 2.142857142857143H4.285714285714286V35.14285714285714h39.42857142857142V22.714388571428568c0 -1.1834742857142857 0.9593142857142857 -2.142857142857143 2.142857142857143 -2.142857142857143s2.142857142857143 0.9593828571428571 2.142857142857143 2.142857142857143V35.57142857142857c0 2.1301714285714284 -1.7269714285714286 3.8571428571428568 -3.8571428571428568 3.8571428571428568Z" clip-rule="evenodd" stroke-width="3.4286"></path>
  </g>
</svg>