<svg xmlns="http://www.w3.org/2000/svg" fill="none" viewBox="0 0 48 48" id="Desktop-Game--Streamline-Core-Remix" height="48" width="48">
  <desc>
    Desktop Game Streamline Icon: https://streamlinehq.com
  </desc>
  <g id="Free Remix/Computer Devices/desktop-game--controller-display-device-computer-games-leisure">
    <path id="Union" fill="#000000" fill-rule="evenodd" d="M17.513828571428572 8.849177142857142C18.073405714285716 3.8117142857142854 22.330388571428568 0 27.398434285714284 0h9.987051428571428c5.067771428571429 0 9.325028571428572 3.8117142857142854 9.884571428571428 8.849177142857142l0.6915428571428571 6.226834285714285c0.40765714285714283 3.6684342857142855 -2.4634285714285715 6.87768 -6.154628571428571 6.87768 -2.6657142857142855 0 -5.032114285714285 -1.706262857142857 -5.8748571428571426 -4.235245714285714l-0.3510857142857143 -1.0537714285714286c-0.17657142857142855 -0.5293714285714286 -0.6716571428571428 -0.8860114285714284 -1.2288 -0.8860114285714284H30.431451428571428c-0.5571771428571428 0 -1.0522285714285713 0.35664 -1.228662857142857 0.8860114285714284l-0.3511542857142857 1.0537714285714286c-0.8427771428571428 2.5290171428571426 -3.20904 4.235245714285714 -5.874788571428571 4.235245714285714 -3.691337142857143 0 -6.562182857142856 -3.2092457142857143 -6.154697142857143 -6.87768l0.69168 -6.226834285714285ZM44.14285714285714 39.42857142857142H30.13206857142857l1.7142857142857142 4.285714285714286H34.285714285714285c1.183542857142857 0 2.142857142857143 0.9593142857142857 2.142857142857143 2.142857142857143S35.46925714285714 48 34.285714285714285 48H13.714285714285714c-1.1834742857142857 0 -2.142857142857143 -0.9593142857142857 -2.142857142857143 -2.142857142857143s0.9593828571428571 -2.142857142857143 2.142857142857143 -2.142857142857143h2.4393599999999998l1.7142857142857142 -4.285714285714286H3.8571428571428568C1.726902857142857 39.42857142857142 0 37.7016 0 35.57142857142857v-25.71428571428571C0 7.726902857142857 1.726902857142857 6 3.8571428571428568 6h7.7142857142857135c1.1834742857142857 0 2.142857142857143 0.9593828571428571 2.142857142857143 2.142857142857143S12.754902857142856 10.285714285714285 11.571428571428571 10.285714285714285H4.285714285714286v24.857142857142854h39.42857142857142V27c0 -1.1834742857142857 0.9593142857142857 -2.142857142857143 2.142857142857143 -2.142857142857143s2.142857142857143 0.9593828571428571 2.142857142857143 2.142857142857143v8.571428571428571c0 2.1301714285714284 -1.7269714285714286 3.8571428571428568 -3.8571428571428568 3.8571428571428568Z" clip-rule="evenodd" stroke-width="3.4286"></path>
  </g>
</svg>