<svg xmlns="http://www.w3.org/2000/svg" fill="none" viewBox="0 0 48 48" id="Desktop-Dollar--Streamline-Core-Remix" height="48" width="48">
  <desc>
    Desktop Dollar Streamline Icon: https://streamlinehq.com
  </desc>
  <g id="Free Remix/Computer Devices/desktop-dollar--cash-desktop-display-device-notification-computer-money-currency">
    <path id="Union" fill="#000000" fill-rule="evenodd" d="M42.66685714285714 2.142857142857143c0 -1.1834674285714284 -0.9596571428571428 -2.142857142857143 -2.142857142857143 -2.142857142857143 -1.183542857142857 0 -2.142857142857143 0.9593897142857143 -2.142857142857143 2.142857142857143v1.870148571428571c-2.9783999999999997 0.19546285714285713 -5.333862857142857 2.6731885714285712 -5.333862857142857 5.7010628571428565 0 2.684948571428571 1.8696342857142856 5.007702857142857 4.492491428571428 5.581474285714286l4.7139428571428565 1.0311771428571428c0.852 0.18634285714285714 1.4605714285714284 0.9419657142857142 1.4605714285714284 1.8154971428571427 0 1.0267542857142857 -0.8328 1.8586971428571428 -1.8572571428571427 1.8586971428571428h-1.267542857142857l-0.06548571428571427 -0.0009942857142857143 -0.06582857142857142 0.0009942857142857143h-1.2678857142857143c-0.8053714285714285 0 -1.4962285714285715 -0.5137371428571428 -1.752 -1.2379542857142856 -0.3946285714285714 -1.1158285714285714 -1.6189714285714285 -1.7006742857142858 -2.7346285714285714 -1.3062857142857143 -1.1158285714285714 0.39438857142857137 -1.70064 1.618662857142857 -1.3062514285714284 2.734491428571429 0.7559657142857142 2.138845714285714 2.6643085714285712 3.7375542857142854 4.983737142857143 4.042662857142857v1.9090285714285713c0 1.1834742857142857 0.9593142857142857 2.142857142857143 2.142857142857143 2.142857142857143 1.1832 0 2.142857142857143 -0.9593828571428571 2.142857142857143 -2.142857142857143v-1.9091314285714287C45.67748571428571 23.83710857142857 48 21.25950857142857 48 18.14221714285714c0 -2.8860342857142856 -2.009485714285714 -5.385154285714285 -4.830171428571428 -6.002194285714285l-4.714285714285714 -1.0312114285714284c-0.6551999999999999 -0.14338285714285715 -1.1225142857142858 -0.7238057142857142 -1.1225142857142858 -1.394742857142857 0 -0.7885371428571428 0.6390857142857143 -1.42776 1.4276571428571427 -1.42776h3.096342857142857c0.5496 0 1.0416 0.23622857142857143 1.3847999999999998 0.6196114285714285 0.16114285714285714 0.18010285714285712 0.2866285714285714 0.38993142857142854 0.36719999999999997 0.6183428571428572 0.3942857142857143 1.1158285714285714 1.6186285714285713 1.7006742857142858 2.7346285714285714 1.3062857142857143 1.115657142857143 -0.39438857142857137 1.7005714285714284 -1.618662857142857 1.3062857142857143 -2.734491428571429 -0.2705142857142857 -0.7652571428571429 -0.6870857142857142 -1.45896 -1.2147428571428571 -2.0483314285714287 -0.9524571428571428 -1.0642971428571426 -2.2765714285714287 -1.7972228571428572 -3.7683428571428568 -1.9940914285714284V2.142857142857143ZM44.14285714285714 39.42857142857142H30.13206857142857l1.7142857142857142 4.285714285714286H34.285714285714285c1.183542857142857 0 2.142857142857143 0.9593142857142857 2.142857142857143 2.142857142857143S35.46925714285714 48 34.285714285714285 48H13.714285714285714c-1.1834742857142857 0 -2.142857142857143 -0.9593142857142857 -2.142857142857143 -2.142857142857143s0.9593828571428571 -2.142857142857143 2.142857142857143 -2.142857142857143h2.4393599999999998l1.7142857142857142 -4.285714285714286H3.8571428571428568C1.726902857142857 39.42857142857142 0 37.7016 0 35.57142857142857v-25.71428571428571C0 7.726902857142857 1.726902857142857 6 3.8571428571428568 6h23.142857142857142c1.1834742857142857 0 2.142857142857143 0.9593828571428571 2.142857142857143 2.142857142857143S28.183474285714283 10.285714285714285 27 10.285714285714285H4.285714285714286v24.857142857142854h39.42857142857142v-2.142857142857143c0 -1.1834742857142857 0.9593142857142857 -2.142857142857143 2.142857142857143 -2.142857142857143s2.142857142857143 0.9593828571428571 2.142857142857143 2.142857142857143v2.571428571428571c0 2.1301714285714284 -1.7269714285714286 3.8571428571428568 -3.8571428571428568 3.8571428571428568Z" clip-rule="evenodd" stroke-width="3.4286"></path>
  </g>
</svg>