<svg xmlns="http://www.w3.org/2000/svg" fill="none" viewBox="0 0 48 48" id="Desktop-Code--Streamline-Core-Remix" height="48" width="48">
  <desc>
    Desktop Code Streamline Icon: https://streamlinehq.com
  </desc>
  <g id="Free Remix/Computer Devices/desktop-code--desktop-device-display-computer-code-terminal-html-css-programming-system">
    <path id="Union" fill="#000000" fill-rule="evenodd" d="M30.97950857142857 0.6276274285714285c0.8368457142857142 0.8368388571428571 0.8368457142857142 2.1936205714285713 0 3.030452571428571L24.780445714285715 9.857142857142856l6.199062857142857 6.199062857142857c0.8368457142857142 0.8368457142857142 0.8368457142857142 2.1936 0 3.030445714285714 -0.8368457142857142 0.8368457142857142 -2.1936 0.8368457142857142 -3.030445714285714 0l-7.7142857142857135 -7.7142857142857135c-0.8368457142857142 -0.8368457142857142 -0.8368457142857142 -2.1936 0 -3.030445714285714l7.7142857142857135 -7.714292571428571c0.8368457142857142 -0.8368367999999999 2.1936 -0.8368367999999999 3.030445714285714 0Zm5.648262857142857 0c0.8365714285714285 -0.8368367999999999 2.1936 -0.8368367999999999 3.0301714285714283 0l7.7142857142857135 7.714292571428571c0.8369142857142857 0.8368457142857142 0.8369142857142857 2.1936 0 3.030445714285714l-7.7142857142857135 7.7142857142857135c-0.8365714285714285 0.8368457142857142 -2.1936 0.8368457142857142 -3.0301714285714283 0 -0.8369142857142857 -0.8368457142857142 -0.8369142857142857 -2.1936 0 -3.030445714285714l6.198857142857142 -6.199062857142857 -6.198857142857142 -6.199062857142857c-0.8369142857142857 -0.8368319999999999 -0.8369142857142857 -2.193613714285714 0 -3.030452571428571ZM44.14285714285714 39.42857142857142H30.13206857142857l1.7142857142857142 4.285714285714286H34.285714285714285c1.183542857142857 0 2.142857142857143 0.9593142857142857 2.142857142857143 2.142857142857143S35.46925714285714 48 34.285714285714285 48H13.714285714285714c-1.1834742857142857 0 -2.142857142857143 -0.9593142857142857 -2.142857142857143 -2.142857142857143s0.9593828571428571 -2.142857142857143 2.142857142857143 -2.142857142857143h2.4393599999999998l1.7142857142857142 -4.285714285714286H3.8571428571428568C1.726902857142857 39.42857142857142 0 37.7016 0 35.57142857142857v-25.71428571428571C0 7.726902857142857 1.726902857142857 6 3.8571428571428568 6H13.714285714285714c1.1834742857142857 0 2.142857142857143 0.9593828571428571 2.142857142857143 2.142857142857143S14.89776 10.285714285714285 13.714285714285714 10.285714285714285H4.285714285714286v24.857142857142854h39.42857142857142V24c0 -1.1834742857142857 0.9593142857142857 -2.142857142857143 2.142857142857143 -2.142857142857143S48 22.816525714285714 48 24v11.571428571428571c0 2.1301714285714284 -1.7269714285714286 3.8571428571428568 -3.8571428571428568 3.8571428571428568Z" clip-rule="evenodd" stroke-width="3.4286"></path>
  </g>
</svg>