<svg xmlns="http://www.w3.org/2000/svg" fill="none" viewBox="0 0 48 48" id="Desktop-Chat--Streamline-Core-Remix" height="48" width="48">
  <desc>
    Desktop Chat Streamline Icon: https://streamlinehq.com
  </desc>
  <g id="Free Remix/Computer Devices/desktop-chat--bubble-chat-customer-service-conversation-display-device">
    <path id="Union" fill="#000000" fill-rule="evenodd" d="M18.857142857142858 6.857142857142857c0 -3.7870937142857137 3.070045714285714 -6.857142857142857 6.857142857142857 -6.857142857142857H41.14285714285714c3.7872 0 6.857142857142857 3.070045714285714 6.857142857142857 6.857142857142857v5.142857142857142c0 3.7870971428571427 -3.069942857142857 6.857142857142857 -6.857142857142857 6.857142857142857h-1.1952L30.09377142857143 25.42638857142857c-0.5260457142857143 0.35067428571428566 -1.2024 0.38338285714285714 -1.7598171428571425 0.08506285714285713C27.77653714285714 25.21313142857143 27.428571428571427 24.63222857142857 27.428571428571427 24V18.857142857142858h-1.7142857142857142c-3.7870971428571427 0 -6.857142857142857 -3.070045714285714 -6.857142857142857 -6.857142857142857V6.857142857142857ZM4.285714285714286 10.285714285714285h7.285714285714286C12.754902857142856 10.285714285714285 13.714285714285714 9.326331428571429 13.714285714285714 8.142857142857142s-0.9593828571428571 -2.142857142857143 -2.142857142857143 -2.142857142857143h-7.7142857142857135C1.726902857142857 6 0 7.726902857142857 0 9.857142857142856v25.71428571428571c0 2.1301714285714284 1.726902857142857 3.8571428571428568 3.8571428571428568 3.8571428571428568h14.01078857142857l-1.7142857142857142 4.285714285714286H13.714285714285714c-1.1834742857142857 0 -2.142857142857143 0.9593142857142857 -2.142857142857143 2.142857142857143S12.530811428571427 48 13.714285714285714 48h20.57142857142857c1.183542857142857 0 2.142857142857143 -0.9593142857142857 2.142857142857143 -2.142857142857143s-0.9593142857142857 -2.142857142857143 -2.142857142857143 -2.142857142857143h-2.4393599999999998l-1.7142857142857142 -4.285714285714286H44.14285714285714c2.1301714285714284 0 3.8571428571428568 -1.7269714285714286 3.8571428571428568 -3.8571428571428568v-9.428571428571429c0 -1.1834742857142857 -0.9593142857142857 -2.142857142857143 -2.142857142857143 -2.142857142857143s-2.142857142857143 0.9593828571428571 -2.142857142857143 2.142857142857143v9H4.285714285714286V10.285714285714285Z" clip-rule="evenodd" stroke-width="3.4286"></path>
  </g>
</svg>