<svg xmlns="http://www.w3.org/2000/svg" fill="none" viewBox="0 0 48 48" id="Desktop-Delete--Streamline-Core-Remix" height="48" width="48">
  <desc>
    Desktop Delete Streamline Icon: https://streamlinehq.com
  </desc>
  <g id="Free Remix/Computer Devices/desktop-delete--device-remove-display-computer-deny-desktop-fail-failure-cross">
    <path id="Union" fill="#000000" fill-rule="evenodd" d="M47.246742857142856 0.7531542857142857c1.0042285714285712 1.0042045714285714 1.0042285714285712 2.632344 0 3.636548571428571l-5.465142857142857 5.465314285714285 5.463085714285714 5.450297142857142c1.0056 1.0030285714285714 1.0073142857142856 2.6311542857142856 0.004457142857142857 3.636548571428571 -1.0032 1.0053942857142857 -2.6314285714285712 1.0073142857142856 -3.636685714285714 0.004285714285714286l-5.467542857142857 -5.4545828571428565 -5.469497142857143 5.4696c-1.0041942857142856 1.0041942857142856 -2.6323542857142854 1.0041942857142856 -3.636548571428571 0s-1.0041942857142856 -2.6323542857142854 0 -3.636548571428571l5.4652457142857145 -5.465314285714285 -5.463085714285714 -5.450297142857142C28.035634285714288 3.4059839999999997 28.033714285714286 1.7778479999999999 29.03670857142857 0.7724571428571428c1.0030285714285714 -1.0053870857142857 2.631188571428571 -1.0073067428571427 3.636548571428571 -0.004285714285714286l5.467542857142857 5.4545828571428565 5.4696 -5.4696c1.0042285714285712 -1.0042056 2.6321142857142856 -1.0042056 3.636342857142857 0ZM44.14285714285714 39.42857142857142H30.13206857142857l1.7142857142857142 4.285714285714286H34.285714285714285c1.183542857142857 0 2.142857142857143 0.9593142857142857 2.142857142857143 2.142857142857143S35.46925714285714 48 34.285714285714285 48H13.714285714285714c-1.1834742857142857 0 -2.142857142857143 -0.9593142857142857 -2.142857142857143 -2.142857142857143s0.9593828571428571 -2.142857142857143 2.142857142857143 -2.142857142857143h2.4393599999999998l1.7142857142857142 -4.285714285714286H3.8571428571428568C1.726902857142857 39.42857142857142 0 37.7016 0 35.57142857142857v-25.71428571428571C0 7.726902857142857 1.726902857142857 6 3.8571428571428568 6h18.857142857142858c1.1834742857142857 0 2.142857142857143 0.9593828571428571 2.142857142857143 2.142857142857143S23.897759999999998 10.285714285714285 22.71428571428571 10.285714285714285H4.285714285714286v24.857142857142854h39.42857142857142V25.285714285714285c0 -1.1834742857142857 0.9593142857142857 -2.142857142857143 2.142857142857143 -2.142857142857143s2.142857142857143 0.9593828571428571 2.142857142857143 2.142857142857143v10.285714285714285c0 2.1301714285714284 -1.7269714285714286 3.8571428571428568 -3.8571428571428568 3.8571428571428568Z" clip-rule="evenodd" stroke-width="3.4286"></path>
  </g>
</svg>