<svg xmlns="http://www.w3.org/2000/svg" fill="none" viewBox="0 0 48 48" id="Device-Database-Encryption-1--Streamline-Core-Remix" height="48" width="48">
  <desc>
    Device Database Encryption 1 Streamline Icon: https://streamlinehq.com
  </desc>
  <g id="Free Remix/Computer Devices/device-database-encryption-1">
    <path id="Union" fill="#000000" fill-rule="evenodd" d="M4.285714285714286 2.142857142857143C4.285714285714286 0.9593897142857143 3.326324571428571 0 2.142857142857143 0S0 0.9593897142857143 0 2.142857142857143v9.940114285714285c0 1.1834399999999998 0.9593897142857143 2.142857142857143 2.142857142857143 2.142857142857143s2.142857142857143 -0.9594171428571429 2.142857142857143 -2.142857142857143V2.142857142857143Zm0 16.887154285714285c0 -1.1834742857142857 -0.9593897142857143 -2.142857142857143 -2.142857142857143 -2.142857142857143S0 17.84653714285714 0 19.030011428571427v9.94008c0 1.1834742857142857 0.9593897142857143 2.142857142857143 2.142857142857143 2.142857142857143s2.142857142857143 -0.9593828571428571 2.142857142857143 -2.142857142857143V19.030011428571427ZM2.142857142857143 33.77386285714285c1.1834674285714284 0 2.142857142857143 0.9592799999999999 2.142857142857143 2.1428228571428574v9.940114285714285c0 1.183542857142857 -0.9593897142857143 2.142857142857143 -2.142857142857143 2.142857142857143S0 47.04034285714285 0 45.8568v-9.940114285714285c0 -1.183542857142857 0.9593897142857143 -2.1428228571428574 2.142857142857143 -2.1428228571428574ZM27.87555428571428 2.142857142857143c0 -1.1834674285714284 -0.9593828571428571 -2.142857142857143 -2.142857142857143 -2.142857142857143s-2.142857142857143 0.9593897142857143 -2.142857142857143 2.142857142857143v9.940114285714285c0 1.1834399999999998 0.9593828571428571 2.142857142857143 2.142857142857143 2.142857142857143s2.142857142857143 -0.9594171428571429 2.142857142857143 -2.142857142857143V2.142857142857143ZM33.455348571428566 0c1.1835085714285714 0 2.1428228571428574 0.9593897142857143 2.1428228571428574 2.142857142857143v9.940114285714285c0 1.1834399999999998 -0.9593142857142857 2.142857142857143 -2.1428228571428574 2.142857142857143 -1.1834742857142857 0 -2.142857142857143 -0.9594171428571429 -2.142857142857143 -2.142857142857143V2.142857142857143c0 -1.1834674285714284 0.9593828571428571 -2.142857142857143 2.142857142857143 -2.142857142857143ZM12.337337142857143 19.030011428571427c0 -1.1834742857142857 -0.9593828571428571 -2.142857142857143 -2.142857142857143 -2.142857142857143s-2.142857142857143 0.9593828571428571 -2.142857142857143 2.142857142857143v9.94008c0 1.1834742857142857 0.9593828571428571 2.142857142857143 2.142857142857143 2.142857142857143s2.142857142857143 -0.9593828571428571 2.142857142857143 -2.142857142857143V19.030011428571427ZM8.110217142857142 6.1694057142857135C8.110217142857142 2.7621394285714285 10.872342857142856 0 14.279622857142856 0 17.68686857142857 0 20.44902857142857 2.762136 20.44902857142857 6.1694057142857135v1.82568c0 3.407245714285714 -2.7621599999999997 6.1694057142857135 -6.1694057142857135 6.1694057142857135 -3.4072799999999996 0 -6.1694057142857135 -2.7621599999999997 -6.1694057142857135 -6.1694057142857135v-1.82568ZM14.279622857142856 4.285714285714286c-1.0403314285714285 0 -1.8836914285714284 0.84336 -1.8836914285714284 1.8836914285714284v1.82568c0 1.0403314285714285 0.84336 1.8836914285714284 1.8836914285714284 1.8836914285714284s1.8836914285714284 -0.84336 1.8836914285714284 -1.8836914285714284v-1.82568c0 -1.0403314285714285 -0.84336 -1.8836914285714284 -1.8836914285714284 -1.8836914285714284Zm7.3819542857142855 12.601439999999998c-3.407245714285714 0 -6.1694057142857135 2.7621257142857143 -6.1694057142857135 6.169371428571429v1.82568c0 3.4072799999999996 2.7621599999999997 6.1694057142857135 6.1694057142857135 6.1694057142857135 3.4072799999999996 0 6.1694057142857135 -2.7621257142857143 6.1694057142857135 -6.1694057142857135v-1.82568c0 -3.407245714285714 -2.7621257142857143 -6.169371428571429 -6.1694057142857135 -6.169371428571429Zm-1.8836914285714284 6.169371428571429c0 -1.0403314285714285 0.84336 -1.8836571428571427 1.8836914285714284 -1.8836571428571427s1.8836914285714284 0.8433257142857142 1.8836914285714284 1.8836571428571427v1.82568c0 1.0403314285714285 -0.84336 1.8836914285714284 -1.8836914285714284 1.8836914285714284s-1.8836914285714284 -0.84336 -1.8836914285714284 -1.8836914285714284v-1.82568ZM8.110217142857142 40.004914285714285c0 -3.4073142857142855 2.7621257142857143 -6.169542857142857 6.1694057142857135 -6.169542857142857 3.407245714285714 0 6.1694057142857135 2.762228571428571 6.1694057142857135 6.169542857142857v1.8253714285714284c0 3.4073142857142855 -2.7621599999999997 6.169714285714286 -6.1694057142857135 6.169714285714286 -3.4072799999999996 0 -6.1694057142857135 -2.7624 -6.1694057142857135 -6.169714285714286v-1.8253714285714284Zm6.1694057142857135 -1.8836571428571427c-1.0403314285714285 0 -1.8836914285714284 0.8430857142857142 -1.8836914285714284 1.8836571428571427v1.8253714285714284c0 1.0405714285714285 0.84336 1.884 1.8836914285714284 1.884s1.8836914285714284 -0.8434285714285714 1.8836914285714284 -1.884v-1.8253714285714284c0 -1.0405714285714285 -0.84336 -1.8836571428571427 -1.8836914285714284 -1.8836571428571427ZM30 32.679428571428566V30C30 25.73952 33.453805714285714 22.285714285714285 37.714285714285715 22.285714285714285c4.260342857142857 0 7.7142857142857135 3.453805714285714 7.7142857142857135 7.7142857142857135v2.6794285714285713c1.4787428571428571 0.38064 2.571428571428571 1.7228571428571426 2.571428571428571 3.3205714285714283V44.57142857142857c0 1.8936 -1.5349714285714284 3.4285714285714284 -3.4285714285714284 3.4285714285714284H30.857142857142854c-1.8935314285714284 0 -3.4285714285714284 -1.5349714285714284 -3.4285714285714284 -3.4285714285714284v-8.571428571428571c0 -1.5977142857142856 1.0926514285714284 -2.9399314285714286 2.571428571428571 -3.3205714285714283ZM41.14285714285714 32.57142857142857h-6.857142857142857v-2.571428571428571c0 -1.8935314285714284 1.5349714285714284 -3.4285714285714284 3.4285714285714284 -3.4285714285714284s3.4285714285714284 1.53504 3.4285714285714284 3.4285714285714284v2.571428571428571Z" clip-rule="evenodd" stroke-width="3.4286"></path>
  </g>
</svg>