<svg xmlns="http://www.w3.org/2000/svg" fill="none" viewBox="0 0 48 48" id="Dhammajak--Streamline-Core-Remix" height="48" width="48">
  <desc>
    Dhammajak Streamline Icon: https://streamlinehq.com
  </desc>
  <g id="Free Remix/Culture/dhammajak--religion-dhammajak-culture-bhuddhism-buddish">
    <path id="Union" fill="#000000" fill-rule="evenodd" d="M24.126617142857143 0.0003270504C24.084754285714286 -0.0021117874285714283 24.04254857142857 -0.0033482125714285713 24.00006857142857 -0.0033482125714285713c-0.04248 0 -0.08465142857142857 0.0012361337142857143 -0.12654857142857143 0.003674392457142857C17.34216 0.034024491428571425 11.428011428571429 2.676678857142857 7.119977142857143 6.939359999999999c-0.03168 0.02814857142857143 -0.06270857142857143 0.057428571428571426 -0.09305142857142856 0.08777142857142857 -0.030377142857142856 0.030342857142857144 -0.05962285714285714 0.06140571428571428 -0.08777142857142857 0.09308571428571429C2.676582857142857 11.428217142857141 0.03402387428571428 17.342262857142856 0.0003261798857142857 23.87352c-0.0024382587428571426 0.041897142857142855 -0.003674392457142857 0.08406857142857142 -0.003674392457142857 0.12654857142857143 0 0.04248 0.0012364251428571428 0.08468571428571428 0.0036752629714285716 0.12654857142857143C0.034065257142857144 30.657017142857143 2.675976 36.57051428571428 6.937577142857142 40.87817142857143c0.028628571428571427 0.032228571428571426 0.05842285714285714 0.06411428571428572 0.08934857142857142 0.09497142857142857 0.030925714285714286 0.030857142857142854 0.06253714285714285 0.06068571428571429 0.0948342857142857 0.08914285714285713 4.307554285714286 4.261371428571428 10.2204 6.903428571428571 16.75032 6.937371428571429 0.04234285714285714 0.0024 0.08502857142857143 0.0037714285714285714 0.12798857142857142 0.0037714285714285714 0.042994285714285714 0 0.08567999999999999 -0.0013714285714285714 0.12802285714285713 -0.0037714285714285714 6.52992 -0.03428571428571429 12.442765714285713 -2.6759999999999997 16.750422857142855 -6.937371428571429 0.032228571428571426 -0.028799999999999996 0.06377142857142856 -0.05828571428571429 0.09462857142857142 -0.08914285714285713 0.030857142857142854 -0.030857142857142854 0.06034285714285714 -0.0624 0.08914285714285713 -0.09462857142857142 4.2620571428571425 -4.308342857142857 6.904457142857142 -10.2228 6.937371428571429 -16.754228571428573 0.0024 -0.04110857142857143 0.0034285714285714284 -0.08252571428571429 0.0034285714285714284 -0.12421714285714285 0 -0.04165714285714285 -0.0010285714285714284 -0.08307428571428571 -0.0034285714285714284 -0.12418285714285715 -0.03291428571428571 -6.532285714285714 -2.6756571428571427 -12.44736 -6.939085714285714 -16.755874285714285 -0.028114285714285717 -0.031611428571428575 -0.057257142857142854 -0.06260571428571428 -0.08742857142857142 -0.09287999999999999 -0.030514285714285713 -0.030274285714285712 -0.06137142857142856 -0.05948571428571429 -0.0929142857142857 -0.08756571428571429C36.57222857142857 2.6767954285714284 30.65804571428571 0.03407046857142857 24.126617142857143 0.0003270504ZM21.85721142857143 5.263268571428571c-3.6017828571428567 0.4073828571428571 -6.896125714285714 1.8294171428571429 -9.590262857142855 3.9734399999999996l7.873817142857143 7.873817142857143c0.5365371428571428 -0.30116571428571426 1.1117828571428572 -0.5414742857142857 1.7164457142857144 -0.7115657142857142V5.263268571428571ZM9.236502857142856 12.26718857142857c-2.143885714285714 2.694102857142857 -3.5658514285714284 5.9883428571428565 -3.9732342857142857 9.590022857142856h11.13552c0.17009142857142856 -0.6045942857142856 0.4104 -1.1797714285714285 0.7115314285714285 -1.7162399999999998L9.236502857142856 12.26718857142857ZM5.263268571428571 26.142925714285713c0.40741714285714287 3.6016799999999995 1.8294171428571429 6.895919999999999 3.9733371428571425 9.58998857142857l7.873714285714286 -7.873714285714286c-0.30113142857142855 -0.5364685714285714 -0.5414057142857143 -1.1116799999999998 -0.7115314285714285 -1.7162742857142856H5.263268571428571ZM12.267051428571428 38.76342857142857c2.6941371428571426 2.143885714285714 5.988411428571428 3.566057142857143 9.59016 3.9733714285714283V31.601211428571425c-0.6046628571428571 -0.17009142857142856 -1.1799085714285713 -0.4104342857142857 -1.7164114285714283 -0.7115657142857142L12.267051428571428 38.76342857142857Zm13.875874285714286 3.9733714285714283c3.6017142857142854 -0.4073142857142857 6.895919999999999 -1.8294857142857142 9.58998857142857 -3.9733714285714283L27.85909714285714 30.889542857142853c-0.5364342857142856 0.30113142857142855 -1.1116114285714285 0.54144 -1.7161714285714287 0.7115314285714285v11.135725714285714Zm12.620502857142856 -7.0038857142857145c2.143885714285714 -2.6940685714285713 3.566057142857143 -5.988274285714286 3.9733714285714283 -9.58998857142857l-11.135862857142856 0c-0.17009142857142856 0.6045599999999999 -0.4103657142857143 1.1797028571428572 -0.7114628571428571 1.7161028571428572L38.76342857142857 35.73291428571429Zm3.9733714285714283 -13.875702857142857c-0.4073142857142857 -3.6016799999999995 -1.8294857142857142 -6.895919999999999 -3.9733714285714283 -9.590022857142856L30.889508571428568 20.141142857142857c0.30109714285714284 0.5364 0.5413371428571429 1.111542857142857 0.7114285714285714 1.7160685714285713l11.135862857142856 0Zm-7.0038857142857145 -12.620502857142856L27.859131428571423 17.11062857142857c-0.5364342857142856 -0.30116571428571426 -1.1116114285714285 -0.54144 -1.7162057142857141 -0.7115657142857142V5.263268571428571c3.6017485714285713 0.40741714285714287 6.8960228571428575 1.8294514285714285 9.58998857142857 3.9734399999999996ZM23.999862857142855 21.247611428571428c-1.52016 0 -2.7524571428571427 1.2323314285714286 -2.7524571428571427 2.7524571428571427 0 1.52016 1.2322971428571428 2.7524914285714286 2.7524571428571427 2.7524914285714286 1.52016 0 2.7524571428571427 -1.2323314285714286 2.7524571428571427 -2.7524914285714286 0 -1.520125714285714 -1.2322971428571428 -2.7524571428571427 -2.7524571428571427 -2.7524571428571427Z" clip-rule="evenodd" stroke-width="3.4286"></path>
  </g>
</svg>