<svg xmlns="http://www.w3.org/2000/svg" fill="none" viewBox="0 0 48 48" id="Diamond-2--Streamline-Core-Remix" height="48" width="48">
  <desc>
    Diamond 2 Streamline Icon: https://streamlinehq.com
  </desc>
  <g id="Free Remix/Money Shopping/diamond-2--diamond-money-payment-finance-wealth-jewelry">
    <path id="Union" fill="#000000" fill-rule="evenodd" d="m28.012525714285715 7.7142857142857135 5.200628571428571 8.777142857142858H14.786845714285713l5.200628571428571 -8.777142857142858h8.025051428571429ZM5.189348571428571 19.919999999999998l17.562205714285714 19.804114285714284c0.06010285714285714 0.06788571428571429 0.12517714285714285 0.13028571428571428 0.1944 0.1865142857142857L14.577531428571428 19.919999999999998H5.189348571428571Zm28.296925714285713 0 -8.421325714285715 19.981714285714286c0.06517714285714285 -0.05417142857142857 0.12654857142857143 -0.11314285714285714 0.18349714285714283 -0.17759999999999998L42.810514285714284 19.919999999999998H33.48627428571429Zm7.877725714285714 -14.052857142857142C40.32651428571429 4.3416685714285705 38.601257142857136 3.4285714285714284 36.756685714285716 3.4285714285714284H11.243314285714286c-1.8447428571428572 0 -3.569862857142857 0.9130971428571428 -4.607177142857143 2.4385714285714286l-5.401916571428571 7.944C0.4300217142857143 14.993794285714285 0 16.39090285714286 0 17.821062857142856c0 1.7436685714285711 0.638832 3.4268914285714285 1.7957177142857141 4.731462857142857L19.545051428571426 42.567771428571426C20.67510857142857 43.842171428571426 22.29678857142857 44.57142857142857 24 44.57142857142857c1.7032114285714284 0 3.324891428571428 -0.7292571428571428 4.454948571428571 -2.003657142857143l17.749165714285713 -20.015245714285715c1.1571428571428573 -1.3045714285714285 1.7958857142857143 -2.9877942857142856 1.7958857142857143 -4.731462857142857 0 -1.4301599999999999 -0.4299428571428572 -2.8272685714285712 -1.2342857142857142 -4.009919999999999l-5.401714285714285 -7.944Z" clip-rule="evenodd" stroke-width="3.4286"></path>
  </g>
</svg>