<svg xmlns="http://www.w3.org/2000/svg" fill="none" viewBox="0 0 48 48" id="Diamonds-Symbol--Streamline-Core-Remix" height="48" width="48">
  <desc>
    Diamonds Symbol Streamline Icon: https://streamlinehq.com
  </desc>
  <g id="Free Remix/Entertainment/diamonds-symbol--entertainment-gaming-card-diamonds-symbol">
    <path id="Vector 965 (Stroke)" fill="#000000" fill-rule="evenodd" d="M25.47713142857143 4.9344c-0.6880114285714285 -0.8649257142857142 -2.266388571428571 -0.8649257142857142 -2.9543999999999997 0L7.905154285714286 23.31085714285714c-0.3415542857142857 0.42936 -0.3415542857142857 0.9489257142857143 0 1.3782857142857143l14.617577142857144 18.37645714285714c0.6880114285714285 0.8650285714285715 2.266388571428571 0.8650285714285715 2.9543999999999997 0L40.094742857142855 24.689142857142855c0.3414857142857142 -0.42936 0.3414857142857142 -0.9489257142857143 0 -1.3782857142857143L25.47713142857143 4.9344ZM19.16873142857143 2.2664605714285715c2.4038057142857143 -3.0219497142857144 7.2585942857142856 -3.0219462857142854 9.662434285714285 0.00000342857142857143L43.44857142857143 20.642914285714287c1.584 1.9910742857142856 1.584 4.723097142857142 0 6.714171428571428L28.831165714285717 45.73337142857143c-2.4038399999999998 3.022285714285714 -7.258628571428572 3.021942857142857 -9.662434285714285 0L4.5511542857142855 27.357085714285713c-1.5838285714285714 -1.9910742857142856 -1.5838251428571428 -4.723097142857142 0 -6.714171428571428L19.16873142857143 2.2664605714285715Z" clip-rule="evenodd" stroke-width="3.4286"></path>
  </g>
</svg>