<svg xmlns="http://www.w3.org/2000/svg" fill="none" viewBox="0 0 48 48" id="Dice-2--Streamline-Core-Remix" height="48" width="48">
  <desc>
    Dice 2 Streamline Icon: https://streamlinehq.com
  </desc>
  <g id="Free Remix/Entertainment/dice-2">
    <path id="Union" fill="#000000" fill-rule="evenodd" d="M10.285714285714285 1.2857142857142856C5.315142857142857 1.2857142857142856 1.2857142857142856 5.315142857142857 1.2857142857142856 10.285714285714285v27.428571428571427c0 4.9704 4.0294285714285705 9 9 9h27.428571428571427c4.9704 0 9 -4.029599999999999 9 -9V10.285714285714285c0 -4.970571428571429 -4.029599999999999 -9 -9 -9H10.285714285714285ZM5.571428571428571 10.285714285714285c0 -2.6036228571428572 2.110662857142857 -4.714285714285714 4.714285714285714 -4.714285714285714h27.428571428571427c2.6036571428571427 0 4.714285714285714 2.110662857142857 4.714285714285714 4.714285714285714v27.428571428571427c0 2.6036571428571427 -2.1106285714285713 4.714285714285714 -4.714285714285714 4.714285714285714H10.285714285714285c-2.6036228571428572 0 -4.714285714285714 -2.1106285714285713 -4.714285714285714 -4.714285714285714V10.285714285714285Zm31.285714285714285 5.142857142857142c0 -2.3669485714285714 -1.9186285714285713 -4.285714285714286 -4.285714285714286 -4.285714285714286 -2.3669485714285714 0 -4.285714285714286 1.9187657142857142 -4.285714285714286 4.285714285714286s1.9187657142857142 4.285714285714286 4.285714285714286 4.285714285714286c2.367085714285714 0 4.285714285714286 -1.9187657142857142 4.285714285714286 -4.285714285714286Zm-25.71428571428571 17.142857142857142c0 2.367085714285714 1.9187657142857142 4.285714285714286 4.285714285714286 4.285714285714286s4.285714285714286 -1.9186285714285713 4.285714285714286 -4.285714285714286c0 -2.3669485714285714 -1.9187657142857142 -4.285714285714286 -4.285714285714286 -4.285714285714286s-4.285714285714286 1.9187657142857142 -4.285714285714286 4.285714285714286Z" clip-rule="evenodd" stroke-width="3.4286"></path>
  </g>
</svg>