<svg xmlns="http://www.w3.org/2000/svg" fill="none" viewBox="0 0 48 48" id="Dices-Entertainment-Gaming-Dices--Streamline-Core-Remix" height="48" width="48">
  <desc>
    Dices Entertainment Gaming Dices Streamline Icon: https://streamlinehq.com
  </desc>
  <g id="Free Remix/Entertainment/dices-entertainment-gaming-dices">
    <path id="Subtract" fill="#000000" fill-rule="evenodd" d="M5.076925714285713 0C2.2730159999999997 0 0 2.2730159999999997 0 5.076925714285713V23.57142857142857c0 2.80392 2.2730159999999997 5.076925714285713 5.076925714285713 5.076925714285713h12.988354285714284v13.417817142857142c0 3.040457142857143 2.464902857142857 5.505599999999999 5.505497142857142 5.505599999999999H42.06514285714285c3.0408 0 5.505599999999999 -2.465142857142857 5.505599999999999 -5.505599999999999V23.571634285714286c0 -3.0406285714285715 -2.4648 -5.505497142857142 -5.505599999999999 -5.505497142857142H28.648354285714284V5.076925714285713C28.648354285714284 2.2730159999999997 26.375348571428567 0 23.57142857142857 0H5.076925714285713Zm17.274068571428568 23.571634285714286c0 -0.67368 0.5461371428571428 -1.219782857142857 1.219782857142857 -1.219782857142857H42.06514285714285c0.6737142857142857 0 1.2198857142857142 0.5461028571428571 1.2198857142857142 1.219782857142857v18.49453714285714c0 0.6737142857142857 -0.5461714285714285 1.2198857142857142 -1.2198857142857142 1.2198857142857142H23.570777142857143c-0.6736457142857142 0 -1.219782857142857 -0.5461714285714285 -1.219782857142857 -1.2198857142857142V23.571634285714286Zm14.670377142857141 2.901017142857143c-1.6477714285714287 0 -2.98344 1.3357714285714286 -2.98344 2.983508571428571 0 1.6477714285714287 1.3356685714285714 2.983542857142857 2.98344 2.983542857142857 1.6477714285714287 0 2.983542857142857 -1.3357714285714286 2.983542857142857 -2.983542857142857 0 -1.6477371428571428 -1.3357714285714286 -2.983508571428571 -2.983542857142857 -2.983508571428571ZM25.63224 36.18102857142857c0 -1.6477714285714287 1.3357714285714286 -2.9834742857142853 2.983542857142857 -2.9834742857142853 1.6477371428571428 0 2.983508571428571 1.335702857142857 2.983508571428571 2.9834742857142853 0 1.6477714285714287 -1.3357714285714286 2.983542857142857 -2.983508571428571 2.983542857142857 -1.6477714285714287 0 -2.983542857142857 -1.3357714285714286 -2.983542857142857 -2.983542857142857ZM8.594125714285713 12.085714285714285c-1.631862857142857 -0.01848 -2.9490514285714284 -1.3470857142857142 -2.9490514285714284 -2.9833371428571427 0 -1.6477371428571428 1.3357714285714286 -2.983508571428571 2.983542857142857 -2.983508571428571l0.03370285714285714 0.00023999999999999998c1.631862857142857 0.01848 2.9490171428571426 1.3470857142857142 2.9490171428571426 2.9833371428571427 0 1.6477371428571428 -1.3357371428571427 2.983508571428571 -2.983508571428571 2.983508571428571L8.594125714285713 12.085714285714285Zm0.00020571428571428572 10.44390857142857c-1.6319657142857142 -0.018377142857142856 -2.9492571428571424 -1.347017142857143 -2.9492571428571424 -2.9833371428571427 0 -1.6477371428571428 1.3357714285714286 -2.983508571428571 2.983542857142857 -2.983508571428571l0.03349714285714285 0.00027428571428571427c1.6319657142857142 0.01834285714285714 2.949222857142857 1.346982857142857 2.949222857142857 2.983302857142857 0 1.6477714285714287 -1.3357371428571427 2.983508571428571 -2.983508571428571 2.983508571428571l-0.03349714285714285 -0.00023999999999999998Zm11.458594285714284 -16.410514285714285c1.631862857142857 0.01848 2.9490514285714284 1.3470857142857142 2.9490514285714284 2.9833371428571427 0 1.6477371428571428 -1.3357714285714286 2.983508571428571 -2.983508571428571 2.983508571428571 -0.011279999999999998 0 -0.02249142857142857 -0.00006857142857142857 -0.03370285714285714 -0.00023999999999999998 -1.631862857142857 -0.01848 -2.9490514285714284 -1.3470857142857142 -2.9490514285714284 -2.9833371428571427 0 -1.6477371428571428 1.3357714285714286 -2.983508571428571 2.983508571428571 -2.983508571428571 0.011279999999999998 0 0.02249142857142857 0.00006857142857142857 0.03370285714285714 0.00023999999999999998Z" clip-rule="evenodd" stroke-width="3.4286"></path>
  </g>
</svg>