<svg xmlns="http://www.w3.org/2000/svg" fill="none" viewBox="0 0 48 48" id="Dictionary-Language-Book--Streamline-Core-Remix" height="48" width="48">
  <desc>
    Dictionary Language Book Streamline Icon: https://streamlinehq.com
  </desc>
  <g id="Free Remix/Work Education/dictionary-language-book">
    <path id="Union" fill="#000000" fill-rule="evenodd" d="M10.285714285714285 2.2937142857143e-7h29.142857142857142c1.4777142857142855 0 2.894742857142857 0.5869883420571429 3.9394285714285715 1.6318351992 1.0450285714285714 1.0448434285714285 1.632 2.4619474285714285 1.632 3.939593142857143v26.57142857142857c0 1.477645714285714 -0.5869714285714285 2.894742857142857 -1.632 3.9394285714285715 -0.5194285714285714 0.5197714285714286 -1.1310857142857142 0.9260571428571428 -1.7965714285714285 1.2034285714285713v6.428571428571428h1.2857142857142856c1.183542857142857 0 2.142857142857143 0.9593142857142857 2.142857142857143 2.142857142857143S44.040685714285715 48 42.857142857142854 48H10.285714285714285c-1.9322742857142856 0 -3.7854514285714282 -0.7676571428571428 -5.151771428571428 -2.133942857142857 -1.3663542857142856 -1.3662857142857143 -2.133942857142857 -3.219428571428571 -2.133942857142857 -5.151771428571428l0.0005382857142857142 -0.08845714285714286L3 40.57714285714286v-33.42857142857142l0.0007611428571428572 -0.05715428571428571c0.05064342857142857 -1.8983999999999999 0.8405417142857142 -3.7020274285714283 2.201444571428571 -5.026621714285714C6.5629028571428565 0.7403759999999999 8.386902857142857 -0.0004759268571428572 10.285714285714285 2.2937142857143e-7ZM39.42857142857142 33.42857142857142c0.34114285714285714 0 0.6678857142857143 -0.13546285714285713 0.9092571428571428 -0.37659428571428566 0.24102857142857143 -0.24109714285714282 0.3764571428571428 -0.5681142857142857 0.3764571428571428 -0.9091199999999999v-26.57142857142857c0 -0.3410057142857143 -0.13542857142857143 -0.6680228571428571 -0.3764571428571428 -0.9091199999999999 -0.24137142857142857 -0.24113142857142858 -0.5681142857142857 -0.37659428571428566 -0.9092571428571428 -0.37659428571428566H10.285714285714285l-0.0007542857142857143 0c-0.7819885714285714 -0.00027428571428571427 -1.5331885714285713 0.3048 -2.0935542857142857 0.8502171428571428 -0.5544342857142857 0.5396571428571428 -0.8787085714285714 1.2724114285714285 -0.9056914285714286 2.0450399999999997v26.893919999999998C8.219657142857143 33.652902857142855 9.241131428571427 33.42857142857142 10.285714285714285 33.42857142857142h29.142857142857142ZM19.928982857142856 21.19944 19.094502857142857 18.696H14.907565714285713l-0.8344799999999999 2.50344c-0.3742628571428571 1.1227542857142856 -1.5878057142857143 1.7295085714285714 -2.710525714285714 1.3552799999999998 -1.1227542857142856 -0.3742628571428571 -1.7295085714285714 -1.5878057142857143 -1.3552799999999998 -2.710525714285714l1.3082742857142855 -3.9248228571428574c0.009188571428571428 -0.029725714285714286 0.018994285714285714 -0.05917714285714286 0.029451428571428573 -0.08832l2.3171999999999997 -6.9516342857142845c0.47904 -1.4371199999999997 1.823965714285714 -2.4064799999999997 3.3388114285714283 -2.4064799999999997 1.51488 0 2.8597714285714284 0.9693599999999999 3.3388114285714283 2.4064799999999997l2.315382857142857 6.946114285714285c0.011828571428571428 0.03277714285714286 0.022868571428571426 0.06593142857142857 0.03315428571428571 0.09946285714285714l1.3063885714285712 3.9192c0.3742628571428571 1.12272 -0.23252571428571428 2.3362628571428568 -1.3552457142857144 2.710525714285714 -1.1227542857142856 0.3742285714285714 -2.3362971428571426 -0.23252571428571428 -2.710525714285714 -1.3552799999999998Zm-2.927965714285714 -8.78382857142857 0.6649028571428571 1.9946742857142854H16.336114285714284l0.6649028571428571 -1.9946742857142854Zm18.54264 2.5910742857142854c0.8012571428571428 0 1.5353142857142856 0.44691428571428565 1.9035428571428572 1.1585828571428571 0.36788571428571426 0.7116342857142857 0.3082285714285714 1.5691199999999998 -0.15497142857142857 2.22288L31.25406857142857 26.91270857142857h4.785702857142857c1.183542857142857 0 2.142857142857143 0.9594171428571429 2.142857142857143 2.142857142857143 0 1.1834742857142857 -0.9593142857142857 2.142857142857143 -2.142857142857143 2.142857142857143H27.110228571428568c-0.8011542857142856 0 -1.535382857142857 -0.44691428571428565 -1.9034057142857141 -1.1585485714285713 -0.3679885714285714 -0.7116342857142857 -0.3082971428571428 -1.5691542857142857 0.1548 -2.2229142857142854l6.038228571428571 -8.52456H27.606342857142856c-1.1834742857142857 0 -2.142857142857143 -0.9593828571428571 -2.142857142857143 -2.142857142857143 0 -1.1834399999999998 0.9593828571428571 -2.142857142857143 2.142857142857143 -2.142857142857143h7.937314285714285Z" clip-rule="evenodd" stroke-width="3.4286"></path>
  </g>
</svg>