<svg xmlns="http://www.w3.org/2000/svg" fill="none" viewBox="0 0 48 48" id="Disable-Heart--Streamline-Core-Remix" height="48" width="48">
  <desc>
    Disable Heart Streamline Icon: https://streamlinehq.com
  </desc>
  <g id="Free Remix/Interface Essential/disable-heart">
    <path id="Union" fill="#000000" fill-rule="evenodd" d="M0.6277611428571429 0.6276274285714285c-0.8368337142857143 0.8368388571428571 -0.8368337142857143 2.1936205714285713 0 3.030452571428571L44.342057142857136 47.37222857142857c0.8369142857142857 0.8369142857142857 2.1936 0.8369142857142857 3.0305142857142857 0 0.8369142857142857 -0.8365714285714285 0.8369142857142857 -2.1936 0 -3.0301714285714283l-10.692 -10.69224 7.242857142857142 -6.7061142857142855c0.005485714285714286 -0.005074285714285714 0.010971428571428571 -0.010148571428571429 0.016114285714285713 -0.015257142857142856 0.011314285714285714 -0.010628571428571428 0.02262857142857143 -0.02142857142857143 0.0336 -0.03229714285714285 6.1248 -6.047485714285713 4.623771428571429 -14.849485714285715 -0.20022857142857142 -19.69834285714286C41.31085714285714 4.723268571428571 37.884342857142855 3.142525714285714 33.99744 3.4216182857142856c-3.331645714285714 0.23923885714285714 -6.759257142857142 1.8253302857142855 -10.023085714285713 4.9587702857142855C20.71429714285714 5.237691428571428 17.294605714285716 3.6415200000000003 13.969714285714284 3.395904c-2.294605714285714 -0.16951542857142857 -4.426971428571428 0.31391314285714284 -6.293862857142857 1.2493645714285713L3.6582171428571426 0.6276274285714285c-0.8368319999999999 -0.8368367999999999 -2.1936171428571427 -0.8368367999999999 -3.0304559999999996 0ZM3.0783942857142854 12.25758857142857c1.1452285714285715 0.29845714285714287 1.831662857142857 1.4687657142857142 1.5332057142857143 2.614011428571428 -0.7888799999999999 3.0271542857142855 -0.20989714285714284 6.359211428571428 2.3539199999999996 8.95824l17.00622857142857 15.745817142857142 2.00112 -1.853142857142857c0.8684228571428572 -0.8039999999999999 2.224182857142857 -0.7515428571428571 3.0282171428571427 0.11657142857142858 0.8040342857142857 0.8684571428571429 0.7518514285714286 2.2244571428571427 -0.11653714285714285 3.0284571428571425l-3.456994285714285 3.200571428571428c-0.8215199999999999 0.7607999999999999 -2.090125714285714 0.7607999999999999 -2.911645714285714 0L4.019931428571428 26.94318857142857c-0.021599999999999998 -0.02002285714285714 -0.042788571428571426 -0.04045714285714285 -0.06356571428571428 -0.061337142857142854C0.17013291428571428 23.07462857142857 -0.6618617142857143 18.11256 0.46440685714285707 13.790811428571427c0.2984468571428571 -1.1452114285714285 1.4687691428571428 -1.83168 2.6139874285714284 -1.533222857142857Z" clip-rule="evenodd" stroke-width="3.4286"></path>
  </g>
</svg>