<svg xmlns="http://www.w3.org/2000/svg" fill="none" viewBox="0 0 48 48" id="Disable-Bell-Notification--Streamline-Core-Remix" height="48" width="48">
  <desc>
    Disable Bell Notification Streamline Icon: https://streamlinehq.com
  </desc>
  <g id="Free Remix/Interface Essential/disable-bell-notification--disable-silent-notification-off-silence-alarm-bell-alert">
    <path id="Union" fill="#000000" fill-rule="evenodd" d="M0.6276274285714285 0.6242811428571428c-0.8368361142857142 0.8368354285714285 -0.8368361142857142 2.1936171428571427 0 3.0304731428571428L44.342057142857136 47.369142857142855c0.8365714285714285 0.8365714285714285 2.1936 0.8365714285714285 3.0301714285714283 0 0.8369142857142857 -0.8369142857142857 0.8369142857142857 -2.1936 0 -3.0305142857142857l-5.266971428571428 -5.267314285714286H44.57142857142857c1.183542857142857 0 2.142857142857143 -0.9593142857142857 2.142857142857143 -2.142857142857143s-0.9593142857142857 -2.142857142857143 -2.142857142857143 -2.142857142857143c-0.7899428571428571 0 -1.3556571428571427 -0.24994285714285716 -2.1514285714285712 -1.0454057142857143 -0.6692571428571429 -0.66936 -1.0453714285714286 -1.5771771428571426 -1.0453714285714286 -2.5237714285714286V17.371542857142856c0 -4.608102857142857 -1.8305142857142858 -9.027462857142856 -5.088685714285714 -12.285908571428571C33.027359999999994 1.827216 28.60796571428571 -0.0033482125714285713 23.999862857142855 -0.0033482125714285713S14.9724 1.827216 11.713954285714285 5.085634285714285c-0.6051428571428571 0.6051771428571429 -1.1610514285714284 1.2503657142857143 -1.66512 1.9293942857142856L3.65808 0.6242811428571428c-0.8368319999999999 -0.8368388571428571 -2.1936171428571427 -0.8368388571428571 -3.030452571428571 0ZM20.57142857142857 42.860571428571426c-1.4201485714285715 0 -2.571428571428571 1.1513142857142855 -2.571428571428571 2.571428571428571s1.1512799999999999 2.571428571428571 2.571428571428571 2.571428571428571h6.857142857142857c1.4201485714285715 0 2.571428571428571 -1.1513142857142855 2.571428571428571 -2.571428571428571s-1.1512799999999999 -2.571428571428571 -2.571428571428571 -2.571428571428571H20.57142857142857ZM10.910742857142857 20.142857142857142c0 -1.1834742857142857 -0.9593828571428571 -2.142857142857143 -2.142857142857143 -2.142857142857143 -1.1834399999999998 0 -2.142857142857143 0.9593828571428571 -2.142857142857143 2.142857142857143v11.073737142857143c0 0.9465942857142857 -0.37601142857142855 1.8544114285714284 -1.0453714285714286 2.5237714285714286 -0.7956 0.7956342857142856 -1.3611085714285713 1.0452342857142858 -2.151085714285714 1.0452342857142858 -1.1834674285714284 0 -2.142857142857143 0.9596571428571428 -2.142857142857143 2.142857142857143 0 1.183542857142857 0.9593897142857143 2.142857142857143 2.142857142857143 2.142857142857143h21.857142857142858c1.1834742857142857 0 2.142857142857143 -0.9593142857142857 2.142857142857143 -2.142857142857143 0 -1.1832 -0.9593828571428571 -2.142857142857143 -2.142857142857143 -2.142857142857143H10.053051428571427c0.5586171428571428 -1.0950857142857142 0.8576914285714285 -2.3166171428571425 0.8576914285714285 -3.5690057142857143V20.142857142857142Z" clip-rule="evenodd" stroke-width="3.4286"></path>
  </g>
</svg>