<svg xmlns="http://www.w3.org/2000/svg" fill="none" viewBox="0 0 48 48" id="Discount-Percent-Circle--Streamline-Core-Remix" height="48" width="48">
  <desc>
    Discount Percent Circle Streamline Icon: https://streamlinehq.com
  </desc>
  <g id="Free Remix/Money Shopping/discount-percent-circle--store-shop-shops-stores-discount-coupon">
    <path id="Union" fill="#000000" fill-rule="evenodd" d="M4.282354285714286 24.00342857142857c0 -10.889794285714286 8.827919999999999 -19.717714285714287 19.717714285714287 -19.717714285714287 10.889759999999999 0 19.717645714285712 8.827919999999999 19.717645714285712 19.717714285714287 0 10.889828571428572 -8.827885714285715 19.717714285714287 -19.717645714285712 19.717714285714287 -10.889794285714286 0 -19.717714285714287 -8.827885714285715 -19.717714285714287 -19.717714285714287ZM24.00006857142857 0C10.74336 0 -0.0033482125714285713 10.746685714285714 -0.0033482125714285713 24.00342857142857c0 13.256571428571426 10.746708212571429 24.00342857142857 24.003416784 24.00342857142857 13.256845714285713 0 24.00336 -10.746857142857143 24.00336 -24.00342857142857C48.003428571428564 10.746685714285714 37.25691428571428 0 24.00006857142857 0Zm10.086582857142856 13.913348571428571c-0.8368457142857142 -0.8368457142857142 -2.1936 -0.8368457142857142 -3.030445714285714 0l-17.142857142857142 17.142857142857142c-0.8368457142857142 0.8368457142857142 -0.8368457142857142 2.1936 0 3.030445714285714 0.8368457142857142 0.8367771428571428 2.1936 0.8367771428571428 3.030445714285714 0l17.142857142857142 -17.142857142857142c0.8367771428571428 -0.8368457142857142 0.8367771428571428 -2.1936 0 -3.030445714285714ZM17.142857142857142 13.285714285714285c-2.1302399999999997 0 -3.8571428571428568 1.726902857142857 -3.8571428571428568 3.8571428571428568S15.012617142857142 21 17.142857142857142 21 21 19.273097142857143 21 17.142857142857142 19.273097142857143 13.285714285714285 17.142857142857142 13.285714285714285Zm13.714285714285714 13.714285714285714c-2.1302399999999997 0 -3.8571428571428568 1.726902857142857 -3.8571428571428568 3.8571428571428568S28.726902857142854 34.714285714285715 30.857142857142854 34.714285714285715 34.714285714285715 32.987382857142855 34.714285714285715 30.857142857142854 32.987382857142855 27 30.857142857142854 27Z" clip-rule="evenodd" stroke-width="3.4286"></path>
  </g>
</svg>