<svg xmlns="http://www.w3.org/2000/svg" fill="none" viewBox="0 0 48 48" id="Discount-Percent-Fire--Streamline-Core-Remix" height="48" width="48">
  <desc>
    Discount Percent Fire Streamline Icon: https://streamlinehq.com
  </desc>
  <g id="Free Remix/Money Shopping/discount-percent-fire--shop-shops-stores-discount-coupon-hot-trending">
    <path id="Union" fill="#000000" fill-rule="evenodd" d="M20.08488 0.0650376c-0.7852457142857143 -0.19797085714285714 -1.6149942857142856 0.0636270857142857 -2.144708571428571 0.6761578285714285 -0.5297142857142857 0.6125314285714286 -0.66888 1.471350857142857 -0.35969142857142855 2.2198114285714285 1.2991542857142855 3.1449702857142854 1.8434742857142858 5.714341714285713 1.726457142857143 8.118798857142858 -0.10878857142857143 2.2355314285714285 -0.79728 4.491188571428571 -2.2332685714285714 7.079554285714285L12.942137142857142 13.623462857142856c-0.39791999999999994 -0.43686857142857144 -0.9585257142857142 -0.6900000000000001 -1.5493714285714286 -0.6996342857142857 -0.5908114285714285 -0.0096 -1.1593714285714285 0.22518857142857143 -1.5712799999999998 0.6488571428571428C3.3560331428571426 20.223085714285713 1.8834719999999998 29.035508571428572 4.779565714285714 36.14777142857143c2.9246057142857143 7.182514285714285 10.17078857142857 12.3144 20.364274285714284 11.819314285714285l0.023828571428571425 -0.0013714285714285714c7.7453828571428565 -0.46285714285714286 12.705017142857143 -3.6599999999999993 15.67896 -7.645028571428571 2.9088 -3.897942857142857 3.790285714285714 -8.371954285714285 3.790285714285714 -11.33136 0 -9.277954285714285 -4.258285714285714 -16.0716 -9.420342857142856 -20.728422857142856C30.09970285714286 3.6448457142857142 24.036102857142858 1.061208 20.08488 0.0650376ZM23.587577142857143 11.288091428571429c0.09226285714285713 -1.895622857142857 -0.12829714285714286 -3.7847657142857143 -0.6177257142857142 -5.7290399999999995 2.945245714285714 1.234662857142857 6.359177142857142 3.16248 9.376011428571427 5.884011428571428 4.4687657142857145 4.031314285714285 8.005337142857142 9.735257142857142 8.005337142857142 17.546262857142857 0 2.2443085714285713 -0.6960000000000001 5.761988571428571 -2.9393142857142855 8.76816 -2.1768 2.9170285714285713 -5.941165714285714 5.535085714285715 -12.487851428571428 5.929371428571429 -8.489417142857143 0.4083428571428571 -13.981577142857143 -3.768 -16.175211428571426 -9.155314285714285 -1.9961142857142857 -4.902102857142857 -1.3685485714285714 -11.063451428571428 2.6438742857142854 -16.244742857142857l2.89344 3.1766742857142853c1.6623771428571428 1.8250628571428569 4.8115885714285715 1.7394514285714284 6.176091428571429 -0.5948571428571428 1.8986742857142858 -3.2480571428571428 2.9671885714285713 -6.329794285714286 3.1253485714285714 -9.580525714285713ZM31.103657142857138 27.71125714285714c0.8368457142857142 -0.8368457142857142 0.8368457142857142 -2.1936342857142854 0 -3.030445714285714 -0.8368457142857142 -0.8368457142857142 -2.1936342857142854 -0.8368457142857142 -3.03048 0L16.816045714285714 35.93794285714285c-0.8368457142857142 0.8369142857142857 -0.8368457142857142 2.1936 0 3.0305142857142857 0.8368457142857142 0.8369142857142857 2.1936342857142854 0.8369142857142857 3.030445714285714 0L31.103657142857138 27.71125714285714Zm-11.408811428571429 2.2632342857142853h0.00013714285714285713c1.6568571428571428 0 3 -1.343142857142857 3 -3s-1.343142857142857 -3 -3 -3h-0.00013714285714285713c-1.6568571428571428 0 -3 1.343142857142857 -3 3s1.343142857142857 3 3 3Zm9.116331428571428 9.69990857142857c-1.6568571428571428 0 -3 -1.3433142857142857 -3 -3 0 -1.6570285714285713 1.343142857142857 -3.0001371428571426 3 -3.0001371428571426l0.00017142857142857143 0c1.6568571428571428 0 3 1.3431085714285713 3 3.0001371428571426 0 1.6566857142857143 -1.343142857142857 3 -3 3l-0.00017142857142857143 0Z" clip-rule="evenodd" stroke-width="3.4286"></path>
  </g>
</svg>