<svg xmlns="http://www.w3.org/2000/svg" fill="none" viewBox="0 0 48 48" id="Discount-Percent-Cutout--Streamline-Core-Remix" height="48" width="48">
  <desc>
    Discount Percent Cutout Streamline Icon: https://streamlinehq.com
  </desc>
  <g id="Free Remix/Money Shopping/discount-percent-cutout--store-shop-shops-stores-discount-coupon">
    <path id="Union" fill="#000000" fill-rule="evenodd" d="M6.857142857142857 5.571428571428571c-0.3410057142857143 0 -0.6680228571428571 0.13546285714285713 -0.9091199999999999 0.37655999999999995C5.706891428571428 6.18912 5.571428571428571 6.516137142857142 5.571428571428571 6.857142857142857v3c0 1.1834742857142857 -0.9593828571428571 2.142857142857143 -2.142857142857143 2.142857142857143 -1.1834674285714284 0 -2.142857142857143 -0.9593828571428571 -2.142857142857143 -2.142857142857143V6.857142857142857c0 -1.477645714285714 0.5869885714285714 -2.894742857142857 1.6318354285714285 -3.939596571428571C3.9623999999999997 1.8727028571428572 5.379497142857143 1.2857142857142856 6.857142857142857 1.2857142857142856h3c1.1834742857142857 0 2.142857142857143 0.9593897142857143 2.142857142857143 2.142857142857143 0 1.1834742857142857 -0.9593828571428571 2.142857142857143 -2.142857142857143 2.142857142857143H6.857142857142857ZM36 3.4285714285714284c0 -1.1834674285714284 0.9593142857142857 -2.142857142857143 2.142857142857143 -2.142857142857143H41.14285714285714c1.4777142857142855 0 2.894742857142857 0.5869885714285714 3.9394285714285715 1.631832 1.0450285714285714 1.0448537142857142 1.632 2.461950857142857 1.632 3.939596571428571v3c0 1.1834742857142857 -0.9593142857142857 2.142857142857143 -2.142857142857143 2.142857142857143s-2.142857142857143 -0.9593828571428571 -2.142857142857143 -2.142857142857143V6.857142857142857c0 -0.3410057142857143 -0.13542857142857143 -0.6680228571428571 -0.3764571428571428 -0.9091542857142857 -0.24137142857142857 -0.24109714285714282 -0.5681142857142857 -0.37655999999999995 -0.9092571428571428 -0.37655999999999995h-3c-1.183542857142857 0 -2.142857142857143 -0.9593828571428571 -2.142857142857143 -2.142857142857143ZM19.285714285714285 1.2857142857142856C18.10224 1.2857142857142856 17.142857142857142 2.245104 17.142857142857142 3.4285714285714284c0 1.1834742857142857 0.9593828571428571 2.142857142857143 2.142857142857143 2.142857142857143h9.428571428571429C29.897759999999995 5.571428571428571 30.857142857142854 4.612045714285714 30.857142857142854 3.4285714285714284c0 -1.1834674285714284 -0.9593828571428571 -2.142857142857143 -2.142857142857143 -2.142857142857143h-9.428571428571429Zm11.770491428571427 12.627634285714285c0.8368457142857142 -0.8368457142857142 2.1936 -0.8368457142857142 3.030445714285714 0 0.8367771428571428 0.8368457142857142 0.8367771428571428 2.1936 0 3.030445714285714l-17.142857142857142 17.142857142857142c-0.8368457142857142 0.8367771428571428 -2.1936 0.8367771428571428 -3.030445714285714 0 -0.8368457142857142 -0.8368457142857142 -0.8368457142857142 -2.1936 0 -3.030445714285714l17.142857142857142 -17.142857142857142ZM13.285714285714285 17.142857142857142c0 -2.1302399999999997 1.726902857142857 -3.8571428571428568 3.8571428571428568 -3.8571428571428568S21 15.012617142857142 21 17.142857142857142 19.273097142857143 21 17.142857142857142 21 13.285714285714285 19.273097142857143 13.285714285714285 17.142857142857142Zm13.714285714285714 13.714285714285714c0 -2.1302399999999997 1.726902857142857 -3.8571428571428568 3.8571428571428568 -3.8571428571428568s3.8571428571428568 1.726902857142857 3.8571428571428568 3.8571428571428568S32.987382857142855 34.714285714285715 30.857142857142854 34.714285714285715 27 32.987382857142855 27 30.857142857142854Zm19.71428571428571 7.285714285714286c0 -1.183542857142857 -0.9593142857142857 -2.142857142857143 -2.142857142857143 -2.142857142857143s-2.142857142857143 0.9593142857142857 -2.142857142857143 2.142857142857143V41.14285714285714c0 0.34114285714285714 -0.13542857142857143 0.6678857142857143 -0.3764571428571428 0.9092571428571428 -0.24137142857142857 0.24102857142857143 -0.5681142857142857 0.3764571428571428 -0.9092571428571428 0.3764571428571428h-3c-1.183542857142857 0 -2.142857142857143 0.9593142857142857 -2.142857142857143 2.142857142857143s0.9593142857142857 2.142857142857143 2.142857142857143 2.142857142857143H41.14285714285714c1.4777142857142855 0 2.894742857142857 -0.5869714285714285 3.9394285714285715 -1.632 1.0450285714285714 -1.0446857142857142 1.632 -2.4617142857142853 1.632 -3.9394285714285715v-3ZM44.57142857142857 17.142857142857142c1.183542857142857 0 2.142857142857143 0.9593828571428571 2.142857142857143 2.142857142857143v9.428571428571429c0 1.1834742857142857 -0.9593142857142857 2.142857142857143 -2.142857142857143 2.142857142857143s-2.142857142857143 -0.9593828571428571 -2.142857142857143 -2.142857142857143v-9.428571428571429c0 -1.1834742857142857 0.9593142857142857 -2.142857142857143 2.142857142857143 -2.142857142857143ZM9.857142857142856 46.71428571428571c1.1834742857142857 0 2.142857142857143 -0.9593142857142857 2.142857142857143 -2.142857142857143s-0.9593828571428571 -2.142857142857143 -2.142857142857143 -2.142857142857143H6.857142857142857c-0.3410057142857143 0 -0.6680228571428571 -0.13542857142857143 -0.9091199999999999 -0.3764571428571428 -0.24113142857142858 -0.24137142857142857 -0.37659428571428566 -0.5681142857142857 -0.37659428571428566 -0.9092571428571428v-3c0 -1.183542857142857 -0.9593828571428571 -2.142857142857143 -2.142857142857143 -2.142857142857143 -1.1834674285714284 0 -2.142857142857143 0.9593142857142857 -2.142857142857143 2.142857142857143V41.14285714285714c0 1.4777142857142855 0.586992 2.894742857142857 1.6318354285714285 3.9394285714285715 1.0448502857142856 1.0450285714285714 2.4619474285714285 1.632 3.939593142857143 1.632h3ZM30.857142857142854 44.57142857142857c0 1.183542857142857 -0.9593828571428571 2.142857142857143 -2.142857142857143 2.142857142857143h-9.428571428571429C18.10224 46.71428571428571 17.142857142857142 45.75497142857142 17.142857142857142 44.57142857142857s0.9593828571428571 -2.142857142857143 2.142857142857143 -2.142857142857143h9.428571428571429c1.1834742857142857 0 2.142857142857143 0.9593142857142857 2.142857142857143 2.142857142857143ZM1.2857142857142856 28.71428571428571C1.2857142857142856 29.897759999999995 2.245104 30.857142857142854 3.4285714285714284 30.857142857142854c1.1834742857142857 0 2.142857142857143 -0.9593828571428571 2.142857142857143 -2.142857142857143l0 -9.428571428571429C5.571428571428571 18.10224 4.612045714285714 17.142857142857142 3.4285714285714284 17.142857142857142c-1.1834674285714284 0 -2.142857142857143 0.9593828571428571 -2.142857142857143 2.142857142857143v9.428571428571429Z" clip-rule="evenodd" stroke-width="3.4286"></path>
  </g>
</svg>