<svg xmlns="http://www.w3.org/2000/svg" fill="none" viewBox="0 0 48 48" id="Discount-Percent-Coupon--Streamline-Core-Remix" height="48" width="48">
  <desc>
    Discount Percent Coupon Streamline Icon: https://streamlinehq.com
  </desc>
  <g id="Free Remix/Money Shopping/discount-percent-coupon--shop-shops-stores-discount-coupon-voucher">
    <path id="Union" fill="#000000" fill-rule="evenodd" d="M4.285714285714286 8.571428571428571c0 -0.7134514285714285 0.5764457142857142 -1.2857142857142856 1.2799885714285713 -1.2857142857142856H42.4344c0.7035428571428571 0 1.2798857142857143 0.5722628571428571 1.2798857142857143 1.2857142857142856v7.2127542857142855C40.669714285714285 17.26206857142857 38.571085714285715 20.384811428571428 38.571085714285715 24s2.0986285714285713 6.737931428571429 5.143199999999999 8.215817142857142V39.42857142857142c0 0.7134857142857143 -0.5763428571428572 1.2857142857142856 -1.2798857142857143 1.2857142857142856H5.565702857142857c-0.7035428571428571 0 -1.2799885714285713 -0.5722285714285714 -1.2799885714285713 -1.2857142857142856V32.24297142857142C7.360834285714286 30.776365714285713 9.485348571428572 27.637371428571427 9.485348571428572 24S7.360834285714286 17.223634285714283 4.285714285714286 15.75702857142857V8.571428571428571ZM5.565702857142857 3C2.4884914285714284 3 0 5.497782857142857 0 8.571428571428571v8.673017142857143c0 0.9739885714285714 0.6568457142857143 1.82544 1.5989211428571428 2.0726742857142857C3.670182857142857 19.860719999999997 5.199634285714285 21.752365714285713 5.199634285714285 24c0 2.2476342857142857 -1.5294171428571426 4.139279999999999 -3.600713142857143 4.68288C0.6568457142857143 28.930114285714286 0 29.781565714285712 0 30.755554285714286V39.42857142857142c0 3.0737142857142854 2.4884845714285713 5.571428571428571 5.565702857142857 5.571428571428571H42.4344c3.077142857142857 0 5.5656 -2.4977142857142858 5.5656 -5.571428571428571V30.740468571428572c0 -0.9672342857142857 -0.648 -1.8145714285714285 -1.5816 -2.067977142857143 -2.051657142857143 -0.5570057142857142 -3.5615999999999994 -2.439085714285714 -3.5615999999999994 -4.672491428571429s1.509942857142857 -4.115485714285714 3.5615999999999994 -4.672491428571429c0.9335999999999999 -0.2534057142857143 1.5816 -1.100742857142857 1.5816 -2.067977142857143V8.571428571428571c0 -3.073645714285714 -2.488457142857143 -5.571428571428571 -5.5656 -5.571428571428571H5.565702857142857Zm28.52094857142857 10.91334857142857c-0.8368457142857142 -0.8368457142857142 -2.1936 -0.8368457142857142 -3.030445714285714 0l-17.142857142857142 17.142857142857142c-0.8368457142857142 0.8368457142857142 -0.8368457142857142 2.1936 0 3.030445714285714 0.8368457142857142 0.8367771428571428 2.1936 0.8367771428571428 3.030445714285714 0l17.142857142857142 -17.142857142857142c0.8367771428571428 -0.8368457142857142 0.8367771428571428 -2.1936 0 -3.030445714285714ZM13.285714285714285 17.142857142857142c0 -2.1302399999999997 1.726902857142857 -3.8571428571428568 3.8571428571428568 -3.8571428571428568S21 15.012617142857142 21 17.142857142857142 19.273097142857143 21 17.142857142857142 21 13.285714285714285 19.273097142857143 13.285714285714285 17.142857142857142ZM30.857142857142854 27c-2.1302399999999997 0 -3.8571428571428568 1.726902857142857 -3.8571428571428568 3.8571428571428568S28.726902857142854 34.714285714285715 30.857142857142854 34.714285714285715 34.714285714285715 32.987382857142855 34.714285714285715 30.857142857142854 32.987382857142855 27 30.857142857142854 27Z" clip-rule="evenodd" stroke-width="3.4286"></path>
  </g>
</svg>