<svg xmlns="http://www.w3.org/2000/svg" fill="none" viewBox="0 0 48 48" id="Discussion-Converstion-Reply--Streamline-Core-Remix" height="48" width="48">
  <desc>
    Discussion Converstion Reply Streamline Icon: https://streamlinehq.com
  </desc>
  <g id="Free Remix/Mail/Mail/Chat Bubble/discussion-converstion-reply">
    <path id="Union" fill="#000000" fill-rule="evenodd" d="M10.285782857142857 0c-3.0770399999999998 0 -5.571428571428571 2.494412571428571 -5.571428571428571 5.571428571428571V12H1.7143371428571428c-0.6933634285714285 0 -1.3184537142857142 0.4176685714285714 -1.5837922285714285 1.058262857142857 -0.26533885714285715 0.6405942857142857 -0.11867180571428572 1.3779085714285715 0.37161051428571423 1.8681942857142855l5.142850285714285 5.142857142857142c0.669462857142857 0.6694971428571428 1.7549142857142856 0.6694971428571428 2.424377142857143 0l5.142857142857142 -5.142857142857142c0.4902857142857142 -0.4902857142857142 0.63696 -1.2275999999999998 0.37162285714285714 -1.8681942857142855C13.318491428571427 12.417668571428571 12.69342857142857 12 12.00006857142857 12h-3V5.571428571428571c0 -0.7100914285714285 0.5756228571428571 -1.2857142857142856 1.2857142857142856 -1.2857142857142856H37.714285714285715c0.7100571428571428 0 1.2857142857142856 0.5756228571428571 1.2857142857142856 1.2857142857142856V13.714285714285714c0 1.1834742857142857 0.9593142857142857 2.142857142857143 2.142857142857143 2.142857142857143s2.142857142857143 -0.9593828571428571 2.142857142857143 -2.142857142857143V5.571428571428571C43.285714285714285 2.494412571428571 40.791428571428575 0 37.714285714285715 0H10.285782857142857ZM39 29.142857142857142H36c-0.6932571428571428 0 -1.3182857142857143 -0.4176685714285714 -1.5836571428571427 -1.058262857142857 -0.26544 -0.6405942857142857 -0.11862857142857142 -1.3779085714285715 0.3716571428571428 -1.8681942857142855l5.142857142857142 -5.142857142857142c0.6692571428571429 -0.6694971428571428 1.7547428571428572 -0.6694971428571428 2.424342857142857 0l5.142857142857142 5.142857142857142c0.4902857142857142 0.4902857142857142 0.6366857142857143 1.2275999999999998 0.3716571428571428 1.8681942857142855 -0.26537142857142854 0.6405942857142857 -0.8907428571428571 1.058262857142857 -1.584 1.058262857142857h-3v8.142857142857142c0 3.077142857142857 -2.494285714285714 5.571428571428571 -5.571428571428571 5.571428571428571H17.500045714285715L2.8378902857142854 47.88411428571428c-0.7901485714285714 0.27085714285714285 -1.665702857142857 0.057942857142857136 -2.243201142857143 -0.5454857142857142 -0.5774999314285714 -0.6034285714285713 -0.7516762285714285 -1.4876571428571428 -0.44624674285714283 -2.2649142857142857L4.714354285714285 33.45133714285714V27.428571428571427c0 -1.1834742857142857 0.9593828571428571 -2.142857142857143 2.142857142857143 -2.142857142857143 1.1834399999999998 0 2.142857142857143 0.9593828571428571 2.142857142857143 2.142857142857143v6.428571428571428c0 0.2681485714285714 -0.050365714285714284 0.5338285714285714 -0.14838857142857143 0.7834285714285714l-3.0196457142857143 7.686514285714285 10.615885714285714 -3.6397714285714287c0.22368000000000002 -0.0768 0.4585371428571428 -0.11588571428571427 0.6950057142857142 -0.11588571428571427H37.714285714285715c0.7100571428571428 0 1.2857142857142856 -0.5756571428571428 1.2857142857142856 -1.2857142857142856V29.142857142857142Z" clip-rule="evenodd" stroke-width="3.4286"></path>
  </g>
</svg>