<svg xmlns="http://www.w3.org/2000/svg" fill="none" viewBox="0 0 48 48" id="Discord--Streamline-Core-Remix" height="48" width="48">
  <desc>
    Discord Streamline Icon: https://streamlinehq.com
  </desc>
  <g id="Free Remix/Computer Devices/discord">
    <path id="Union" fill="#000000" fill-rule="evenodd" d="M31.53685714285714 5.691531428571428c-1.0833257142857142 -0.07292571428571429 -2.0499771428571427 0.6759428571428571 -2.2500685714285713 1.74312l-0.3400114285714285 1.8133714285714286H19.05150857142857l-0.3400114285714285 -1.8133714285714286c-0.20009142857142856 -1.0671771428571428 -1.166742857142857 -1.8160457142857143 -2.2500685714285713 -1.74312 -3.2854971428571424 0.22117714285714285 -5.4521485714285705 0.5684228571428571 -6.835851428571428 0.8782971428571429 -0.6929828571428571 0.15517714285714285 -1.1947885714285713 0.3021257142857143 -1.54608 0.4215428571428571 -0.17585142857142858 0.05976 -0.31477714285714287 0.11286857142857142 -0.4217142857142857 0.15702857142857143 -0.05348571428571428 0.02208 -0.09905142857142857 0.04196571428571428 -0.13731428571428572 0.05938285714285713l-0.052045714285714285 0.02417142857142857 -0.022045714285714283 0.010662857142857142 -0.010079999999999999 0.004937142857142857 -0.0048 0.0024 -0.0023657142857142857 0.0011657142857142858c-0.0011314285714285714 0.0005828571428571429 -0.002297142857142857 0.0011314285714285714 0.9560228571428571 1.9177714285714285l-0.9583199999999998 -1.9166399999999997c-0.3335314285714286 0.1667657142857143 -0.6177942857142856 0.4177028571428571 -0.82464 0.7279885714285713 -1.7614971428571427 2.642228571428571 -3.39504 6.9781371428571415 -4.5866297142857135 11.625325714285713 -1.202928 4.6914171428571425 -2.018912784 9.949577142857143 -2.018912784 14.545885714285712 0 0.4229485714285714 0.12522432685714285 0.8367771428571428 0.35989221257142856 1.1885485714285715 1.3625794285714286 2.0441142857142856 5.501067428571429 5.800114285714285 12.292587428571428 7.1585142857142845 0.7855542857142856 0.15702857142857143 1.5931199999999999 -0.13714285714285715 2.0935542857142857 -0.7628571428571428l4.674274285714286 -5.842628571428571c1.43112 0.2533714285714285 2.9777828571428566 0.40114285714285713 4.582285714285714 0.40114285714285713 1.6045371428571429 0 3.1512 -0.14777142857142855 4.58232 -0.40114285714285713l4.674274285714286 5.842628571428571c0.5004342857142857 0.6257142857142857 1.3079314285714285 0.9198857142857142 2.0934171428571426 0.7628571428571428 6.791657142857143 -1.3583999999999998 10.930285714285715 -5.1144 12.2928 -7.1585142857142845 0.2345142857142857 -0.35177142857142857 0.3596571428571428 -0.7656 0.3596571428571428 -1.1885485714285715 0 -4.596308571428571 -0.8156571428571429 -9.854468571428571 -2.018742857142857 -14.545885714285712 -1.1917714285714285 -4.647188571428571 -2.8251428571428567 -8.983097142857142 -4.586742857142857 -11.625325714285713 -0.20674285714285712 -0.3102857142857143 -0.4909714285714285 -0.5612228571428571 -0.8245714285714285 -0.7279885714285713l-0.9582857142857143 1.9166399999999997c0.9582857142857143 -1.9166399999999997 0.9572571428571428 -1.9171885714285715 0.9558857142857142 -1.9177714285714285l-0.0020571428571428568 -0.0011657142857142858 -0.0048 -0.0024 -0.010285714285714285 -0.004937142857142857 -0.021942857142857142 -0.010662857142857142 -0.05211428571428571 -0.02417142857142857c-0.0384 -0.017417142857142857 -0.084 -0.037302857142857145 -0.13748571428571427 -0.05938285714285713 -0.10662857142857142 -0.04416 -0.24582857142857142 -0.09726857142857143 -0.4217142857142857 -0.15706285714285712 -0.3510857142857143 -0.11938285714285712 -0.8530285714285714 -0.26633142857142855 -1.545942857142857 -0.4215428571428571 -1.3837714285714287 -0.30984 -3.5506285714285717 -0.6570857142857142 -6.836057142857142 -0.8782628571428571ZM6.166971428571428 20.670034285714284c1.0482171428571427 -4.088057142857143 2.377645714285714 -7.592091428571429 3.63528 -9.7272 0.19210285714285713 -0.05478857142857143 0.44262857142857137 -0.11982857142857142 0.7598742857142856 -0.19086857142857142 0.8774057142857143 -0.19649142857142857 2.2519199999999997 -0.43577142857142853 4.29264 -0.6311314285714286l0.3121714285714286 1.6649485714285712c0.19004571428571426 1.01352 1.0749942857142856 1.7479542857142858 2.1061714285714284 1.7479542857142858h13.45206857142857c1.0311771428571428 0 1.9161257142857142 -0.7344342857142857 2.1061714285714284 -1.7479542857142858l0.3121714285714286 -1.664982857142857c2.040822857142857 0.1953942857142857 3.4153371428571426 0.43463999999999997 4.292708571428571 0.6311314285714286 0.31748571428571426 0.07103999999999999 0.5677714285714285 0.13611428571428572 0.7601142857142857 0.19090285714285712 1.2576 2.1351085714285714 2.5868571428571427 5.639142857142857 3.6353142857142857 9.7272 1.0741714285714286 4.189782857142857 1.798285714285714 8.778137142857142 1.877142857142857 12.765668571428572 -1.0505142857142857 1.2151542857142856 -3.6792 3.4313828571428573 -7.949485714285714 4.568982857142856l-2.701645714285714 -3.377142857142857c1.3895314285714284 -0.5708914285714285 2.5778742857142856 -1.2749485714285715 3.3870171428571427 -2.0841257142857144 0.8369142857142857 -0.8368457142857142 0.8369142857142857 -2.1936342857142854 0 -3.03048 -0.8369142857142857 -0.8368457142857142 -2.193565714285714 -0.8368457142857142 -3.0304114285714285 0 -0.5316342857142857 0.5316342857142857 -2.062045714285714 1.3654971428571427 -4.46832 1.9309371428571427 -1.4748685714285714 0.34656 -3.1659771428571424 0.5642742857142857 -4.946331428571428 0.5642742857142857s-3.471428571428571 -0.2177142857142857 -4.9462971428571425 -0.5642742857142857c-2.4063085714285712 -0.56544 -3.9367199999999998 -1.399302857142857 -4.468354285714285 -1.9309371428571427 -0.8368114285714285 -0.8368457142857142 -2.1936 -0.8368457142857142 -3.030445714285714 0 -0.8368457142857142 0.8368457142857142 -0.8368457142857142 2.1936342857142854 0 3.03048 0.8090742857142856 0.8090742857142856 1.9972114285714286 1.5130285714285714 3.386502857142857 2.083782857142857l-2.701988571428571 3.377485714285714c-4.27008 -1.1376 -6.898697142857142 -3.354171428571428 -7.949485714285714 -4.568982857142856 0.07899428571428571 -3.9875314285714283 0.8031428571428572 -8.575885714285715 1.8774171428571427 -12.765668571428572Zm9.799679999999999 -2.43288c-2.1121371428571427 0 -3.824365714285714 1.7122285714285714 -3.824365714285714 3.824365714285714 0 2.1121371428571427 1.7122285714285714 3.824365714285714 3.824365714285714 3.824365714285714 2.1121371428571427 0 3.824365714285714 -1.7122285714285714 3.824365714285714 -3.824365714285714 0 -2.1121371428571427 -1.7122285714285714 -3.824365714285714 -3.824365714285714 -3.824365714285714Zm15.132274285714283 0c-2.1121371428571427 0 -3.824365714285714 1.7122285714285714 -3.824365714285714 3.824365714285714 0 2.1121371428571427 1.7122285714285714 3.824365714285714 3.824365714285714 3.824365714285714 2.1121371428571427 0 3.824502857142857 -1.7122285714285714 3.824502857142857 -3.824365714285714 0 -2.1121371428571427 -1.7123657142857143 -3.824365714285714 -3.824502857142857 -3.824365714285714Z" clip-rule="evenodd" stroke-width="3.4286"></path>
  </g>
</svg>