<svg xmlns="http://www.w3.org/2000/svg" fill="none" viewBox="0 0 48 48" id="Dna--Streamline-Core-Remix" height="48" width="48">
  <desc>
    Dna Streamline Icon: https://streamlinehq.com
  </desc>
  <g id="Free Remix/Nature Ecology/dna--science-biology-experiment-lab-science">
    <path id="Union" fill="#000000" fill-rule="evenodd" d="M35.867999999999995 2.8857942857142858c0.41005714285714284 -1.1101782857142857 -0.1577142857142857 -2.3425234285714285 -1.2678857142857143 -2.7525150857142857 -1.1102057142857142 -0.409992 -2.3425371428571427 0.15762274285714287 -2.752525714285714 1.2678030857142857 -1.5821828571428571 4.284243428571428 -1.4849142857142856 9.008472 0.2722628571428571 13.223969142857142l0.002262857142857143 0.005382857142857142c1.0780457142857143 2.5665942857142854 1.3707771428571427 5.395268571428571 0.8411314285714285 8.128217142857142 -0.3242742857142857 1.6732799999999999 -0.9478971428571428 3.264685714285714 -1.8323314285714283 4.701188571428571L20.316994285714284 16.64592c1.7008457142857143 -1.2526285714285714 3.6652457142857138 -2.118582857142857 5.755577142857142 -2.5251428571428574 1.1617028571428571 -0.22597714285714282 1.9202742857142856 -1.3508914285714286 1.6943314285714286 -2.5125599999999997 -0.22597714285714282 -1.1617028571428571 -1.3508571428571428 -1.9202742857142856 -2.5125599999999997 -1.6943314285714286 -3.6051771428571424 0.7012114285714286 -6.922045714285714 2.4540342857142856 -9.532525714285715 5.037497142857143l-0.00006857142857142857 -0.00010285714285714286 -0.017314285714285713 0.017519999999999997c-2.550205714285714 2.582537142857143 -4.27944 5.86176 -4.969988571428572 9.424937142857143 -0.4286057142857143 2.2116685714285715 -0.4451657142857143 4.471371428571428 -0.06106285714285714 6.668091428571429 -3.077108571428571 -0.5541257142857143 -6.271097142857142 -0.29746285714285714 -9.257485714285714 0.7805142857142856 -1.1131690285714286 0.4017942857142857 -1.6898365714285712 1.629942857142857 -1.2880247999999999 2.7430285714285714 0.4018110857142857 1.1132571428571427 1.6299459428571428 1.689942857142857 2.7431139428571427 1.2881142857142855 3.013916571428571 -1.0878857142857143 6.305790857142856 -1.0762285714285713 9.299310857142856 0.016114285714285713 1.0373142857142856 2.9876571428571426 1.0278171428571428 6.250285714285714 -0.04433142857142857 9.245485714285714 -0.39884571428571425 1.1142857142857143 0.18106285714285714 2.3410285714285712 1.2953142857142856 2.7397714285714287 1.1142171428571428 0.3987428571428571 2.340822857142857 -0.18102857142857143 2.739668571428571 -1.2953142857142856 1.5417257142857141 -4.306971428571428 1.403862857142857 -9.036685714285714 -0.38591999999999993 -13.24638857142857 -1.0724914285714284 -2.5666285714285713 -1.3623771428571427 -5.3930742857142855 -0.8331428571428571 -8.124034285714286 0.33044571428571423 -1.7050971428571426 0.9710057142857142 -3.32544 1.8811200000000001 -4.784091428571428L27.664114285714284 31.26613714285714c-1.72824 1.2993599999999998 -3.7351199999999998 2.196685714285714 -5.874 2.6141142857142854 -1.161565714285714 0.22673142857142853 -1.919382857142857 1.3520914285714285 -1.6926857142857143 2.5136914285714287 0.22669714285714285 1.1616 1.3521257142857142 1.9193142857142855 2.513657142857143 1.6926857142857143 3.621805714285714 -0.7069714285714285 6.952182857142857 -2.4733714285714288 9.568971428571428 -5.07504l0.011725714285714284 -0.01176c2.555417142857143 -2.580377142857143 4.2878742857142855 -5.860594285714286 4.979074285714285 -9.425759999999999 0.4265142857142857 -2.2021714285714284 0.444 -4.451965714285714 0.06377142857142856 -6.639394285714285 3.1066285714285713 0.5640342857142856 6.331885714285714 0.3089485714285714 9.348 -0.7749942857142856 1.1136 -0.4002857142857143 1.692 -1.6276457142857141 1.291542857142857 -2.7413485714285715 -0.4001142857142857 -1.1137371428571428 -1.6275428571428572 -1.6920685714285715 -2.741142857142857 -1.2917828571428571 -3.0418285714285713 1.0932342857142856 -6.362742857142856 1.0815428571428571 -9.385371428571428 -0.018102857142857143 -1.0158857142857143 -2.988 -0.9795428571428572 -6.244628571428571 0.12034285714285714 -9.222651428571428Z" clip-rule="evenodd" stroke-width="3.4286"></path>
  </g>
</svg>