<svg xmlns="http://www.w3.org/2000/svg" fill="none" viewBox="0 0 48 48" id="Dollar-Coin-1--Streamline-Core-Remix" height="48" width="48">
  <desc>
    Dollar Coin 1 Streamline Icon: https://streamlinehq.com
  </desc>
  <g id="Free Remix/Money Shopping/dollar-coin-1--accounting-billing-payment-cash-coin-currency-money-finance">
    <path id="Union" fill="#000000" fill-rule="evenodd" d="M14.571428571428571 18.857142857142858c0 -8.047577142857142 6.523851428571428 -14.571428571428571 14.571428571428571 -14.571428571428571 8.047542857142856 0 14.571428571428571 6.523851428571428 14.571428571428571 14.571428571428571S37.190400000000004 33.42857142857142 29.142857142857142 33.42857142857142c-8.047577142857142 0 -14.571428571428571 -6.523851428571428 -14.571428571428571 -14.571428571428571Zm15.414274285714285 18.838628571428572C27.872914285714284 43.69782857142857 22.153165714285713 48 15.428571428571427 48 6.907611428571428 48 0 41.09245714285714 0 32.57136c0 -6.724628571428571 4.302137142857143 -12.444411428571428 10.30422857142857 -14.557165714285714C10.745142857142856 7.990834285714286 19.010811428571426 0 29.142857142857142 0 39.55748571428571 0 48 8.442617142857141 48 18.857142857142858c0 10.13208 -7.990971428571429 18.397714285714283 -18.014297142857142 18.838628571428572Zm1.316742857142857 -28.89414857142857c0 -1.1834742857142857 -0.9593828571428571 -2.142857142857143 -2.142857142857143 -2.142857142857143 -1.1834399999999998 0 -2.142857142857143 0.9593828571428571 -2.142857142857143 2.142857142857143v0.9576342857142857c-2.6223771428571427 0.2991085714285714 -4.659462857142857 2.52576 -4.659462857142857 5.228194285714285 0 2.4729942857142855 1.7219657142857143 4.6123199999999995 4.137805714285714 5.1408l4.118468571428571 0.9009257142857142c0.6198857142857143 0.13556571428571426 1.0629942857142856 0.6855771428571428 1.0629942857142856 1.321645714285714 0 0.7476342857142857 -0.6062742857142857 1.3531542857142858 -1.3518857142857141 1.3531542857142858h-1.1300914285714285l-0.03497142857142857 -0.00030857142857142856 -0.03497142857142857 0.00030857142857142856h-1.1297485714285715c-0.5852571428571428 0 -1.0889142857142857 -0.37313142857142856 -1.2754971428571429 -0.901062857142857 -0.39438857142857137 -1.1158285714285714 -1.618662857142857 -1.7006742857142858 -2.734491428571429 -1.3062857142857143 -1.1157942857142857 0.39438857142857137 -1.70064 1.618662857142857 -1.3062514285714284 2.734491428571429 0.6679542857142856 1.889862857142857 2.31624 3.3204342857142857 4.338102857142856 3.674057142857143v1.00752c0 1.1834399999999998 0.9594171428571429 2.142857142857143 2.142857142857143 2.142857142857143 1.1834742857142857 0 2.142857142857143 -0.9594171428571429 2.142857142857143 -2.142857142857143v-1.00752C33.95064 27.441942857142855 35.96228571428571 25.13005714285714 35.96228571428571 22.350822857142855c0 -2.6485371428571427 -1.844022857142857 -4.942045714285714 -4.432902857142857 -5.508377142857143l-4.118434285714286 -0.9009257142857142c-0.4483885714285714 -0.09805714285714286 -0.7679657142857143 -0.49512 -0.7679657142857143 -0.9540685714285715 0 -0.539382857142857 0.43727999999999995 -0.9766285714285714 0.976662857142857 -0.9766285714285714h2.705005714285714c0.4001828571428571 0 0.7575428571428571 0.1711542857142857 1.0081371428571428 0.45113142857142857 0.11770285714285714 0.1314857142857143 0.2088342857142857 0.2842628571428571 0.26736 0.44989714285714283 0.39438857142857137 1.1158285714285714 1.618662857142857 1.7006742857142858 2.7345942857142855 1.3062857142857143 1.115657142857143 -0.39438857142857137 1.7005714285714284 -1.618662857142857 1.3062857142857143 -2.7344571428571425 -0.24857142857142855 -0.7025142857142856 -0.6308571428571428 -1.3391657142857143 -1.1146285714285713 -1.8799199999999998 -0.8238857142857143 -0.9203314285714286 -1.9507542857142854 -1.5708685714285715 -3.2239542857142856 -1.7939657142857144v-1.0081714285714285Z" clip-rule="evenodd" stroke-width="3.4286"></path>
  </g>
</svg>