<svg xmlns="http://www.w3.org/2000/svg" fill="none" viewBox="0 0 48 48" id="Dollar-Coin--Streamline-Core-Remix" height="48" width="48">
  <desc>
    Dollar Coin Streamline Icon: https://streamlinehq.com
  </desc>
  <g id="Free Remix/Money Shopping/dollar-coin--accounting-billing-payment-cash-coin-currency-money-finance">
    <path id="Union" fill="#000000" fill-rule="evenodd" d="M4.282354285714286 24.00342857142857c0 -10.889794285714286 8.827919999999999 -19.717714285714287 19.717714285714287 -19.717714285714287 10.889759999999999 0 19.717645714285712 8.827919999999999 19.717645714285712 19.717714285714287 0 10.889828571428572 -8.827885714285715 19.717714285714287 -19.717645714285712 19.717714285714287 -10.889794285714286 0 -19.717714285714287 -8.827885714285715 -19.717714285714287 -19.717714285714287ZM24.00006857142857 0C10.74336 0 -0.0033482125714285713 10.746685714285714 -0.0033482125714285713 24.00342857142857c0 13.256571428571426 10.746708212571429 24.00342857142857 24.003416784 24.00342857142857 13.256845714285713 0 24.00336 -10.746857142857143 24.00336 -24.00342857142857C48.003428571428564 10.746685714285714 37.25691428571428 0 24.00006857142857 0ZM26.142857142857142 10.285714285714285c0 -1.1834742857142857 -0.9593828571428571 -2.142857142857143 -2.142857142857143 -2.142857142857143s-2.142857142857143 0.9593828571428571 -2.142857142857143 2.142857142857143v2.4299999999999997c-3.3779314285714284 0.06829714285714285 -6.095211428571428 2.827885714285714 -6.095211428571428 6.2221714285714285 0 2.9246399999999997 2.036434285714286 5.454719999999999 4.893531428571428 6.079714285714285l5.387348571428571 1.1784685714285714c1.114182857142857 0.24373714285714285 1.9095771428571429 1.231782857142857 1.9095771428571429 2.37384 0 1.3422857142857143 -1.0883314285714285 2.43024 -2.42856 2.43024h-1.4887542857142857L24 30.999874285714284l-0.03507428571428571 0.00027428571428571427h-1.4887199999999998c-1.0540457142857143 0 -1.9565142857142857 -0.67272 -2.2909371428571426 -1.6188685714285713 -0.39438857142857137 -1.1158285714285714 -1.6186285714285713 -1.7006742857142858 -2.7344571428571425 -1.3062857142857143 -1.1158285714285714 0.39438857142857137 -1.7006742857142858 1.618662857142857 -1.3062857142857143 2.734491428571429 0.8550514285714286 2.4191314285714283 3.058491428571428 4.205828571428571 5.712617142857143 4.448228571428571V37.714285714285715c0 1.1832 0.9593828571428571 2.142857142857143 2.142857142857143 2.142857142857143s2.142857142857143 -0.9596571428571428 2.142857142857143 -2.142857142857143v-2.4565714285714284c3.4188685714285714 -0.3126857142857143 6.0952457142857135 -3.1892571428571426 6.0952457142857135 -6.687805714285714 0 -3.15456 -2.196274285714286 -5.886102857142856 -5.279451428571429 -6.560537142857142l-5.387348571428571 -1.178502857142857c-0.8895771428571428 -0.19460571428571427 -1.5236571428571428 -0.9823542857142856 -1.5236571428571428 -1.8929828571428573 0 -1.0701942857142857 0.8675657142857142 -1.93776 1.93776 -1.93776h3.5384228571428573c0.7190742857142857 0 1.362925714285714 0.30980571428571424 1.8106971428571428 0.8100685714285714 0.21037714285714285 0.23506285714285713 0.3744342857142857 0.5094171428571428 0.48024 0.8088 0.39438857142857137 1.1158285714285714 1.618662857142857 1.7006742857142858 2.7344571428571425 1.3062857142857143 1.1158285714285714 -0.39438857142857137 1.7006742857142858 -1.618662857142857 1.3062857142857143 -2.734491428571429 -0.2955771428571428 -0.8362285714285714 -0.7508571428571428 -1.5944571428571428 -1.3275428571428571 -2.238788571428571 -1.0976914285714285 -1.2264342857142856 -2.6461371428571425 -2.0500114285714286 -4.385108571428572 -2.2093371428571427V10.285714285714285Z" clip-rule="evenodd" stroke-width="3.4286"></path>
  </g>
</svg>