<svg xmlns="http://www.w3.org/2000/svg" fill="none" viewBox="0 0 48 48" id="Donut--Streamline-Core-Remix" height="48" width="48">
  <desc>
    Donut Streamline Icon: https://streamlinehq.com
  </desc>
  <g id="Free Remix/Food Drink/donut--dessert-donut">
    <path id="Union" fill="#000000" fill-rule="evenodd" d="M24 4.285714285714286C13.112091428571429 4.285714285714286 4.285714285714286 13.112091428571429 4.285714285714286 24c0 10.887771428571428 8.826377142857142 19.71428571428571 19.71428571428571 19.71428571428571 10.887771428571428 0 19.71428571428571 -8.826514285714284 19.71428571428571 -19.71428571428571 0 -10.887908571428571 -8.826514285714284 -19.71428571428571 -19.71428571428571 -19.71428571428571ZM0 24c0 -13.254822857142857 10.745177142857143 -24 24 -24 13.254857142857142 0 24 10.745177142857143 24 24 0 13.254857142857142 -10.745142857142856 24 -24 24 -13.254822857142857 0 -24 -10.745142857142856 -24 -24Zm24 -4.714285714285714c-2.6036228571428572 0 -4.714285714285714 2.110662857142857 -4.714285714285714 4.714285714285714S21.396377142857144 28.71428571428571 24 28.71428571428571 28.71428571428571 26.603622857142856 28.71428571428571 24 26.603622857142856 19.285714285714285 24 19.285714285714285ZM15 24c0 -4.970571428571429 4.0294285714285705 -9 9 -9S33 19.02942857142857 33 24 28.970571428571425 33 24 33 15 28.970571428571425 15 24Zm25.646742857142854 -0.7559657142857142c0.5290285714285714 -1.0585371428571428 0.10011428571428571 -2.3456914285714285 -0.9586285714285714 -2.8749599999999997 -1.0583999999999998 -0.5292685714285714 -2.345485714285714 -0.10018285714285713 -2.8748571428571426 0.9583199999999998l-1.7142857142857142 3.4285714285714284c-0.5293714285714286 1.0585371428571428 -0.10011428571428571 2.3456914285714285 0.9582857142857143 2.8749599999999997 1.0587428571428572 0.5292685714285714 2.3458285714285716 0.10021714285714285 2.8752 -0.9583199999999998l1.7142857142857142 -3.4285714285714284ZM9.199062857142856 28.913348571428568c0.8368457142857142 -0.8368457142857142 2.1936 -0.8368457142857142 3.030445714285714 0l3.4285714285714284 3.4285714285714284c0.8368457142857142 0.8368457142857142 0.8368457142857142 2.1937371428571426 0 3.030308571428571 -0.8368457142857142 0.8369142857142857 -2.1936 0.8369142857142857 -3.030445714285714 0l-3.4285714285714284 -3.4284342857142853c-0.8368457142857142 -0.8368457142857142 -0.8368457142857142 -2.1936 0 -3.030445714285714Zm19.74473142857143 -21.22182857142857c-0.8368457142857142 -0.8368457142857142 -2.1936 -0.8368457142857142 -3.030445714285714 0 -0.8368457142857142 0.8368457142857142 -0.8368457142857142 2.1936342857142854 0 3.030445714285714l3.4285714285714284 3.4285714285714284c0.8368457142857142 0.8368457142857142 2.1936 0.8368457142857142 3.030445714285714 0 0.8368457142857142 -0.8368114285714285 0.8368457142857142 -2.1936 0 -3.030445714285714l-3.4285714285714284 -3.4285714285714284ZM9.889199999999999 15.364971428571426c0 1.6568228571428572 1.343142857142857 3 3 3s3 -1.3431771428571428 3 -3c0 -1.6568571428571428 -1.343142857142857 -3 -3 -3s-3 1.343142857142857 -3 3ZM25.285714285714285 37.39714285714286c0 1.6566857142857143 1.343142857142857 3 3 3s3 -1.3433142857142857 3 -3c0 -1.6570285714285713 -1.343142857142857 -3 -3 -3s-3 1.3429714285714285 -3 3Z" clip-rule="evenodd" stroke-width="3.4286"></path>
  </g>
</svg>