<svg xmlns="http://www.w3.org/2000/svg" fill="none" viewBox="0 0 48 48" id="Download-File--Streamline-Core-Remix" height="48" width="48">
  <desc>
    Download File Streamline Icon: https://streamlinehq.com
  </desc>
  <g id="Free Remix/Interface Essential/download-file">
    <path id="Union" fill="#000000" fill-rule="evenodd" d="M8.090845714285715 4.662274285714286c0.24113142857142858 -0.24109714285714282 0.5681485714285713 -0.37655999999999995 0.9091542857142857 -0.37655999999999995h20.969554285714285L40.285714285714285 14.601874285714286V42.42857142857142c0 0.34114285714285714 -0.13542857142857143 0.6678857142857143 -0.3764571428571428 0.9092571428571428 -0.24137142857142857 0.24102857142857143 -0.5681142857142857 0.3764571428571428 -0.9092571428571428 0.3764571428571428h-30c-0.3410057142857143 0 -0.6680228571428571 -0.13542857142857143 -0.9091542857142857 -0.3764571428571428 -0.24109714285714282 -0.24137142857142857 -0.37655999999999995 -0.5681142857142857 -0.37655999999999995 -0.9092571428571428V5.571428571428571c0 -0.3410057142857143 0.13546285714285713 -0.6680228571428571 0.37655999999999995 -0.9091542857142857ZM9 0c-1.477645714285714 0 -2.894742857142857 0.5869885714285714 -3.9395999999999995 1.631832C4.015542857142857 2.676678857142857 3.4285714285714284 4.093782857142857 3.4285714285714284 5.571428571428571v36.857142857142854c0 1.4777142857142855 0.5869714285714285 2.894742857142857 1.6318285714285712 3.9394285714285715 1.044857142857143 1.0450285714285714 2.4619542857142855 1.632 3.9395999999999995 1.632h30c1.4777142857142855 0 2.894742857142857 -0.5869714285714285 3.9394285714285715 -1.632 1.0450285714285714 -1.0446857142857142 1.632 -2.4617142857142853 1.632 -3.9394285714285715V13.714285714285714c0 -0.5683199999999999 -0.22559999999999997 -1.11336 -0.6277714285714285 -1.515222857142857L32.37236571428571 0.6276274285714285C31.970502857142858 0.2257649142857143 31.425462857142858 0 30.857142857142854 0H9Zm12.857142857142856 15.428571428571427 0 9.857142857142856H17.142857142857142c-0.8667085714285714 0 -1.64808 0.5221028571428571 -1.9797257142857143 1.3228114285714285 -0.33168000000000003 0.8007428571428571 -0.14835428571428572 1.7224114285714285 0.4645028571428571 2.3352685714285712l6.857142857142857 6.857005714285714c0.4018628571428571 0.40217142857142857 0.946902857142857 0.6277714285714285 1.515222857142857 0.6277714285714285 0.5683199999999999 0 1.11336 -0.22559999999999997 1.515222857142857 -0.6277714285714285l6.857142857142857 -6.857005714285714c0.6128571428571428 -0.6128571428571428 0.7961828571428571 -1.5345257142857143 0.4645371428571428 -2.3352685714285712C32.505222857142854 25.807817142857143 31.723851428571425 25.285714285714285 30.857142857142854 25.285714285714285H26.142857142857142l0 -9.857142857142856c0 -1.1834742857142857 -0.9593828571428571 -2.142857142857143 -2.142857142857143 -2.142857142857143s-2.142857142857143 0.9593828571428571 -2.142857142857143 2.142857142857143Z" clip-rule="evenodd" stroke-width="3.4286"></path>
  </g>
</svg>