<svg xmlns="http://www.w3.org/2000/svg" fill="none" viewBox="0 0 48 48" id="Download-Circle--Streamline-Core-Remix" height="48" width="48">
  <desc>
    Download Circle Streamline Icon: https://streamlinehq.com
  </desc>
  <g id="Free Remix/Interface Essential/download-circle--arrow-circle-down-download-internet-network-server-upload">
    <path id="Union" fill="#000000" fill-rule="evenodd" d="M24.00061714285714 0.0016741062857142856C10.746377142857142 0.0016741062857142856 0.0016741062857142856 10.746377142857142 0.0016741062857142856 24.00061714285714c0 13.25424 10.744703036571428 23.999039999999997 23.99894303657143 23.999039999999997 13.25424 0 23.999039999999997 -10.7448 23.999039999999997 -23.999039999999997S37.25485714285714 0.0016741062857142856 24.00061714285714 0.0016741062857142856ZM4.287394285714286 24.00061714285714c0 -10.887325714285714 8.825897142857142 -19.713222857142856 19.713222857142856 -19.713222857142856 10.887154285714285 0 19.713325714285713 8.825897142857142 19.713325714285713 19.713222857142856 0 10.887497142857143 -8.826171428571428 19.713325714285713 -19.713325714285713 19.713325714285713 -10.887325714285714 0 -19.713222857142856 -8.82582857142857 -19.713222857142856 -19.713325714285713ZM24.00006857142857 9.857142857142856c1.1834742857142857 0 2.142857142857143 0.9593828571428571 2.142857142857143 2.142857142857143v14.142857142857142h5.571428571428571c0.8667085714285714 0 1.64808 0.5221028571428571 1.9797257142857143 1.3228114285714285 0.33168000000000003 0.8007428571428571 0.14835428571428572 1.7224114285714285 -0.4645028571428571 2.3352685714285712l-7.7142857142857135 7.714148571428572c-0.4133828571428571 0.41348571428571423 -0.9536571428571429 0.6226285714285714 -1.4954399999999999 0.6277714285714285l-0.01978285714285714 0 -0.01978285714285714 0c-0.28333714285714284 -0.002742857142857143 -0.5535428571428571 -0.06034285714285714 -0.8004685714285714 -0.1625142857142857 -0.25275428571428565 -0.10457142857142857 -0.4895314285714285 -0.25954285714285713 -0.6949714285714285 -0.4652571428571428l-7.7142857142857135 -7.714148571428572c-0.6128571428571428 -0.6128571428571428 -0.7961828571428571 -1.5345257142857143 -0.4645371428571428 -2.3352685714285712 0.33168000000000003 -0.8007085714285713 1.1130514285714284 -1.3228114285714285 1.97976 -1.3228114285714285h5.571428571428571V12c0 -1.1834742857142857 0.9593828571428571 -2.142857142857143 2.142857142857143 -2.142857142857143Z" clip-rule="evenodd" stroke-width="3.4286"></path>
  </g>
</svg>