<svg xmlns="http://www.w3.org/2000/svg" fill="none" viewBox="0 0 48 48" id="Download-Box-1--Streamline-Core-Remix" height="48" width="48">
  <desc>
    Download Box 1 Streamline Icon: https://streamlinehq.com
  </desc>
  <g id="Free Remix/Interface Essential/download-box-1--arrow-box-down-download-internet-network-server-upload">
    <path id="Union" fill="#000000" fill-rule="evenodd" d="M35.871428571428574 0.7014171428571429C35.46514285714285 0.2546845714285714 34.88948571428571 0 34.285714285714285 0H26.57142857142857v13.714285714285714h14.142857142857142v17.57142857142857c0 0.7100914285714285 -0.5756571428571428 1.2857142857142856 -1.2857142857142856 1.2857142857142856H37.714285714285715c-1.183542857142857 0 -2.142857142857143 0.9593828571428571 -2.142857142857143 2.142857142857143 0 1.183542857142857 0.9593142857142857 2.142857142857143 2.142857142857143 2.142857142857143h1.7142857142857142c3.077142857142857 0 5.571428571428571 -2.494285714285714 5.571428571428571 -5.571428571428571v-19.71428571428571c0 -0.5330742857142857 -0.19885714285714284 -1.0470171428571426 -0.5571428571428572 -1.44144l-8.571428571428571 -9.428571428571429ZM21.857074285714283 25.285714285714285c0 -1.1834742857142857 0.9593828571428571 -2.142857142857143 2.142857142857143 -2.142857142857143s2.142857142857143 0.9593828571428571 2.142857142857143 2.142857142857143V37.714285714285715h3.8571428571428568c0.8667085714285714 0 1.64808 0.5221714285714285 1.97976 1.322742857142857 0.33164571428571427 0.8009142857142857 0.14831999999999998 1.7225142857142854 -0.4645371428571428 2.3352l-6 6c-0.20543999999999998 0.20571428571428568 -0.44221714285714286 0.3606857142857143 -0.6949714285714285 0.4652571428571428 -0.2526514285714286 0.10457142857142857 -0.5296799999999999 0.1625142857142857 -0.8202514285714285 0.1625142857142857 -0.2905371428571428 0 -0.5676 -0.057942857142857136 -0.8202514285714285 -0.1625142857142857 -0.25272 -0.10457142857142857 -0.4895314285714285 -0.25954285714285713 -0.6949714285714285 -0.4652571428571428l-6 -6c-0.6128571428571428 -0.6126857142857143 -0.7961828571428571 -1.5342857142857143 -0.4645028571428571 -2.3352 0.33164571428571427 -0.8005714285714286 1.1130171428571427 -1.322742857142857 1.9797257142857143 -1.322742857142857h3.8571428571428568V25.285714285714285ZM13.714285714285714 0c-0.6037371428571429 0 -1.179462857142857 0.2546845714285714 -1.5855771428571428 0.7014171428571429l-8.571428571428571 9.428571428571429C3.1986891428571425 10.524411428571428 3 11.038354285714286 3 11.571428571428571v19.71428571428571c0 3.077142857142857 2.494422857142857 5.571428571428571 5.571428571428571 5.571428571428571H10.285714285714285c1.1834742857142857 0 2.142857142857143 -0.9593142857142857 2.142857142857143 -2.142857142857143 0 -1.1834742857142857 -0.9593828571428571 -2.142857142857143 -2.142857142857143 -2.142857142857143h-1.7142857142857142c-0.7100914285714285 0 -1.2857142857142856 -0.5756228571428571 -1.2857142857142856 -1.2857142857142856V13.714285714285714H21.428571428571427V0H13.714285714285714Z" clip-rule="evenodd" stroke-width="3.4286"></path>
  </g>
</svg>