<svg xmlns="http://www.w3.org/2000/svg" fill="none" viewBox="0 0 48 48" id="Download-Computer--Streamline-Core-Remix" height="48" width="48">
  <desc>
    Download Computer Streamline Icon: https://streamlinehq.com
  </desc>
  <g id="Free Remix/Interface Essential/download-computer--action-actions-computer-desktop-device-display-download-monitor-screen">
    <path id="Union" fill="#000000" fill-rule="evenodd" d="M24.00006857142857 0c1.1834742857142857 0 2.142857142857143 0.9593897142857143 2.142857142857143 2.142857142857143V17.142857142857142h3.8571428571428568c0.8667085714285714 0 1.64808 0.5221028571428571 1.9797257142857143 1.3228114285714285 0.33168000000000003 0.8007428571428571 0.14835428571428572 1.7224114285714285 -0.4645028571428571 2.3352685714285712l-6 6c-0.4133828571428571 0.4133828571428571 -0.9536571428571429 0.6225599999999999 -1.4954399999999999 0.6275314285714285L24.00006857142857 27.428571428571427l-0.01978285714285714 -0.00010285714285714286c-0.28333714285714284 -0.002537142857142857 -0.5535428571428571 -0.06010285714285714 -0.8004685714285714 -0.16247999999999999 -0.25275428571428565 -0.10457142857142857 -0.4895314285714285 -0.25961142857142855 -0.6949714285714285 -0.46505142857142856l-6 -6c-0.6128571428571428 -0.6128571428571428 -0.7961828571428571 -1.5345257142857143 -0.4645371428571428 -2.3352685714285712C16.35198857142857 17.66496 17.13336 17.142857142857142 18.00006857142857 17.142857142857142h3.8571428571428568V2.142857142857143c0 -1.1834674285714284 0.9593828571428571 -2.142857142857143 2.142857142857143 -2.142857142857143Zm6.132 39.42857142857142H41.14285714285714c3.077142857142857 0 5.571428571428571 -2.494285714285714 5.571428571428571 -5.571428571428571v-20.57142857142857c0 -3.0770057142857143 -2.494285714285714 -5.571428571428571 -5.571428571428571 -5.571428571428571H32.57142857142857c-1.1834742857142857 0 -2.142857142857143 0.9593828571428571 -2.142857142857143 2.142857142857143s0.9593828571428571 2.142857142857143 2.142857142857143 2.142857142857143H41.14285714285714c0.7100571428571428 0 1.2857142857142856 0.5756228571428571 1.2857142857142856 1.2857142857142856v20.57142857142857c0 0.7100571428571428 -0.5756571428571428 1.2857142857142856 -1.2857142857142856 1.2857142857142856H6.857142857142857c-0.7100914285714285 0 -1.2857142857142856 -0.5756571428571428 -1.2857142857142856 -1.2857142857142856v-20.57142857142857c0 -0.7100914285714285 0.5756228571428571 -1.2857142857142856 1.2857142857142856 -1.2857142857142856h8.571428571428571c1.1834742857142857 0 2.142857142857143 -0.9593828571428571 2.142857142857143 -2.142857142857143S16.612045714285713 7.7142857142857135 15.428571428571427 7.7142857142857135H6.857142857142857c-3.0770057142857143 0 -5.571428571428571 2.494422857142857 -5.571428571428571 5.571428571428571v20.57142857142857c0 3.077142857142857 2.494422857142857 5.571428571428571 5.571428571428571 5.571428571428571h11.01078857142857l-1.7142857142857142 4.285714285714286H13.714285714285714c-1.1834742857142857 0 -2.142857142857143 0.9593142857142857 -2.142857142857143 2.142857142857143S12.530811428571427 48 13.714285714285714 48h20.57142857142857c1.183542857142857 0 2.142857142857143 -0.9593142857142857 2.142857142857143 -2.142857142857143s-0.9593142857142857 -2.142857142857143 -2.142857142857143 -2.142857142857143h-2.4393599999999998l-1.7142857142857142 -4.285714285714286Z" clip-rule="evenodd" stroke-width="3.4286"></path>
  </g>
</svg>