<svg xmlns="http://www.w3.org/2000/svg" fill="none" viewBox="0 0 48 48" id="Dressing-Table--Streamline-Core-Remix" height="48" width="48">
  <desc>
    Dressing Table Streamline Icon: https://streamlinehq.com
  </desc>
  <g id="Free Remix/Money Shopping/dressing-table--makeup-dressing-table-mirror-cabinet-product-decoration-furniture">
    <path id="Union" fill="#000000" fill-rule="evenodd" d="M23.99958857142857 0C18.998365714285715 0 14.201965714285715 1.9867302857142854 10.665565714285714 5.52312 7.1291657142857146 9.05952 5.1424457142857145 13.85592 5.1424457142857145 18.857142857142858v4.714285714285714H2.142857142857143C0.9593897142857143 23.57142857142857 0 24.530811428571425 0 25.71428571428571s0.9593897142857143 2.142857142857143 2.142857142857143 2.142857142857143h2.571017142857143v14.571428571428571c0 1.4777142857142855 0.5869714285714285 2.894742857142857 1.6318285714285712 3.9394285714285715 1.044822857142857 1.0450285714285714 2.4619542857142855 1.632 3.9395999999999995 1.632h27.428639999999994c1.4777142857142855 0 2.894742857142857 -0.5869714285714285 3.9394285714285715 -1.632 1.0450285714285714 -1.0446857142857142 1.632 -2.4617142857142853 1.632 -3.9394285714285715v-14.571428571428571h2.5717714285714286c1.183542857142857 0 2.142857142857143 -0.9593828571428571 2.142857142857143 -2.142857142857143s-0.9593142857142857 -2.142857142857143 -2.142857142857143 -2.142857142857143h-3.000342857142857V18.857142857142858c0 -5.001222857142857 -1.9868571428571429 -9.797622857142857 -5.523085714285714 -13.334022857142855C33.79717714285714 1.9867302857142854 29.000811428571428 0 23.99958857142857 0Zm13.714354285714286 43.714285714285715H26.142445714285714V27.857142857142854h12.857211428571429v14.571428571428571c0 0.34114285714285714 -0.13542857142857143 0.6678857142857143 -0.37679999999999997 0.9092571428571428 -0.24102857142857143 0.24102857142857143 -0.5681142857142857 0.3764571428571428 -0.9089142857142857 0.3764571428571428Zm-15.857211428571429 0V27.857142857142854h-12.857142857142856v14.571428571428571c0 0.34114285714285714 0.13542857142857143 0.6678857142857143 0.37655999999999995 0.9092571428571428 0.24113142857142858 0.24102857142857143 0.5681485714285713 0.3764571428571428 0.9091542857142857 0.3764571428571428h11.571428571428571Zm12.428571428571427 -9c0 -1.4201485714285715 -1.1512799999999999 -2.571428571428571 -2.571428571428571 -2.571428571428571 -1.420182857142857 0 -2.571428571428571 1.1512799999999999 -2.571428571428571 2.571428571428571v1.7142857142857142c0 1.4201142857142857 1.1512457142857142 2.571428571428571 2.571428571428571 2.571428571428571 1.4201485714285715 0 2.571428571428571 -1.1513142857142855 2.571428571428571 -2.571428571428571v-1.7142857142857142Zm-18 -2.571428571428571c1.4201485714285715 0 2.571428571428571 1.1512799999999999 2.571428571428571 2.571428571428571v1.7142857142857142c0 1.4201142857142857 -1.1512799999999999 2.571428571428571 -2.571428571428571 2.571428571428571 -1.420182857142857 0 -2.571428571428571 -1.1513142857142855 -2.571428571428571 -2.571428571428571v-1.7142857142857142c0 -1.4201485714285715 1.1512457142857142 -2.571428571428571 2.571428571428571 -2.571428571428571Z" clip-rule="evenodd" stroke-width="3.4286"></path>
  </g>
</svg>