<svg xmlns="http://www.w3.org/2000/svg" fill="none" viewBox="0 0 48 48" id="Drone--Streamline-Core-Remix" height="48" width="48">
  <desc>
    Drone Streamline Icon: https://streamlinehq.com
  </desc>
  <g id="Free Remix/Computer Devices/drone--artificial-robotics-intelligence-machine-technology-android-flying">
    <path id="Union" fill="#000000" fill-rule="evenodd" d="M1.2857142857142856 3.4285714285714284C1.2857142857142856 2.245104 2.245104 1.2857142857142856 3.4285714285714284 1.2857142857142856h13.714285714285714c1.1834742857142857 0 2.142857142857143 0.9593897142857143 2.142857142857143 2.142857142857143 0 1.1834742857142857 -0.9593828571428571 2.142857142857143 -2.142857142857143 2.142857142857143H12.428571428571427v6h23.142857142857142v-6H30.857142857142854c-1.1834742857142857 0 -2.142857142857143 -0.9593828571428571 -2.142857142857143 -2.142857142857143 0 -1.1834674285714284 0.9593828571428571 -2.142857142857143 2.142857142857143 -2.142857142857143h13.714285714285714c1.183542857142857 0 2.142857142857143 0.9593897142857143 2.142857142857143 2.142857142857143 0 1.1834742857142857 -0.9593142857142857 2.142857142857143 -2.142857142857143 2.142857142857143h-4.714285714285714v6H44.57142857142857c1.183542857142857 0 2.142857142857143 0.9593828571428571 2.142857142857143 2.142857142857143v3.4285714285714284c0 2.3869371428571426 -0.9483428571428572 4.676125714285714 -2.635885714285714 6.363977142857142 -1.6306285714285713 1.6304228571428572 -3.8221714285714286 2.5707085714285713 -6.121028571428571 2.6327314285714283 -0.19097142857142857 1.0923771428571427 -0.5266285714285713 2.151325714285714 -0.9959999999999999 3.1493142857142855 1.269942857142857 1.3829485714285714 2.311542857142857 2.9641371428571426 3.081942857142857 4.684628571428571 1.0090285714285714 2.2538057142857144 1.5298285714285713 4.695634285714286 1.5281142857142855 7.164891428571428l0 0.004457142857142857v3.4285714285714284c0 1.183542857142857 -0.9593142857142857 2.142857142857143 -2.142857142857143 2.142857142857143h-4.285714285714286c-1.1834742857142857 0 -2.142857142857143 -0.9593142857142857 -2.142857142857143 -2.142857142857143s0.9593828571428571 -2.142857142857143 2.142857142857143 -2.142857142857143h2.142857142857143v-1.2792l0 -0.008914285714285713c0.0020571428571428568 -1.8661714285714286 -0.39119999999999994 -3.7121142857142857 -1.154057142857143 -5.415428571428571 -0.4556571428571428 -1.017942857142857 -1.0371428571428571 -1.9710171428571426 -1.7286857142857142 -2.8382742857142853C32.08224 35.15588571428571 28.963851428571424 36.42857142857142 25.71428571428571 36.42857142857142h-3.4285714285714284c-3.249565714285714 0 -6.367954285714285 -1.2726857142857142 -8.68878857142857 -3.541817142857142 -0.6914742857142857 0.8672571428571428 -1.272857142857143 1.8203314285714285 -1.728582857142857 2.8382742857142853 -0.7627542857142857 1.7033142857142858 -1.15608 3.5492571428571424 -1.154057142857143 5.415428571428571l0 0.008914285714285713v1.2792h2.142857142857143c1.1834742857142857 0 2.142857142857143 0.9593142857142857 2.142857142857143 2.142857142857143s-0.9593828571428571 2.142857142857143 -2.142857142857143 2.142857142857143H8.571428571428571c-1.1834742857142857 0 -2.142857142857143 -0.9593142857142857 -2.142857142857143 -2.142857142857143v-3.4285714285714284l0 -0.004457142857142857c-0.0017142857142857142 -2.4692571428571424 0.5190857142857143 -4.911085714285714 1.528285714285714 -7.164891428571428 0.7703657142857142 -1.7204914285714283 1.8119657142857142 -3.3016799999999997 3.0817371428571425 -4.684628571428571 -0.46926857142857137 -0.9979885714285714 -0.8050628571428571 -2.056937142857143 -0.9959657142857143 -3.1493142857142855 -2.298822857142857 -0.062022857142857137 -4.490434285714286 -1.0023085714285713 -6.120891428571428 -2.6327314285714283C2.233926857142857 21.818982857142856 1.2857142857142856 19.529794285714285 1.2857142857142856 17.142857142857142V13.714285714285714c0 -1.1834742857142857 0.9593897142857143 -2.142857142857143 2.142857142857143 -2.142857142857143h4.714285714285714v-6H3.4285714285714284C2.245104 5.571428571428571 1.2857142857142856 4.612045714285714 1.2857142857142856 3.4285714285714284ZM10.285714285714285 15.857142857142856h32.14285714285714V17.142857142857142c0 1.2502971428571428 -0.49679999999999996 2.449405714285714 -1.3806857142857143 3.3334971428571425 -0.8842285714285715 0.8840914285714284 -2.0832 1.3807885714285713 -3.3336 1.3807885714285713H10.285714285714285c-1.2502971428571428 0 -2.449405714285714 -0.49669714285714284 -3.3334971428571425 -1.3807885714285713S5.571428571428571 18.393154285714285 5.571428571428571 17.142857142857142v-1.2857142857142856H10.285714285714285Z" clip-rule="evenodd" stroke-width="3.4286"></path>
  </g>
</svg>