<svg xmlns="http://www.w3.org/2000/svg" fill="none" viewBox="0 0 48 48" id="Dropbox--Streamline-Core-Remix" height="48" width="48">
  <desc>
    Dropbox Streamline Icon: https://streamlinehq.com
  </desc>
  <g id="Free Remix/Computer Devices/dropbox">
    <path id="Union" fill="#000000" fill-rule="evenodd" d="M33.73385142857143 3.7266514285714285c0.7236342857142857 -0.4877005714285714 1.6709485714285714 -0.4877005714285714 2.39472 0l10.928228571428571 7.363337142857143c0.5907428571428571 0.39826285714285714 0.9452571428571428 1.0643657142857141 0.9452571428571428 1.7770971428571427s-0.3545142857142857 1.3788 -0.9452571428571428 1.7770628571428573L38.75657142857143 20.236765714285713l8.30022857142857 5.592582857142857c0.5907428571428571 0.39826285714285714 0.9452571428571428 1.0643657142857141 0.9452571428571428 1.7770971428571427s-0.3545142857142857 1.3788 -0.9452571428571428 1.7770628571428573l-10.928228571428571 7.3632342857142845c-0.054514285714285717 0.03702857142857143 -0.11074285714285714 0.07097142857142856 -0.16765714285714284 0.10251428571428571l-10.757451428571427 7.248342857142857c-0.7237714285714285 0.4875428571428571 -1.6710171428571428 0.4875428571428571 -2.394822857142857 0l-10.709177142857142 -7.216114285714284c-0.07851428571428572 -0.03977142857142857 -0.15514285714285714 -0.08468571428571428 -0.22943999999999998 -0.13474285714285714L0.9420925714285714 29.38350857142857c-0.5910719999999999 -0.39826285714285714 -0.945440784 -1.0643314285714285 -0.945440784 -1.7770628571428573 0 -0.7127314285714286 0.354368784 -1.3788342857142857 0.945440784 -1.7770971428571427L9.242057142857144 20.236765714285713 0.9420925714285714 14.64414857142857c-0.5910719999999999 -0.39826285714285714 -0.945440784 -1.0643314285714285 -0.945440784 -1.7770628571428573 0 -0.7127314285714286 0.354368784 -1.3788342857142857 0.945440784 -1.7770971428571427L11.870022857142857 3.7266514285714285c0.7238057142857142 -0.4877005714285714 1.6710514285714284 -0.4877005714285714 2.394822857142857 0l9.734502857142857 6.5592 9.734502857142857 -6.5592ZM16.916948571428573 34.95977142857143l7.0824 -4.772091428571429 7.089119999999999 4.776548571428571 -7.0824 4.772228571428571 -7.089119999999999 -4.776685714285714Zm3.2395885714285715 -7.356068571428571 -7.089085714285714 -4.776685714285714 -7.093165714285713 4.7794285714285705 7.089119999999999 4.776685714285714 7.093131428571429 -4.7794285714285705ZM27.83814857142857 12.867085714285713l7.093165714285713 4.7794285714285705 7.093028571428571 -4.7794285714285705 -7.093028571428571 -4.7794285714285705 -7.093165714285713 4.7794285714285705Zm7.103794285714286 19.511554285714286 7.0824 -4.772194285714286 -7.093028571428571 -4.7794285714285705 -7.082434285714286 4.772194285714286 7.093062857142857 4.7794285714285705ZM5.974285714285713 12.867085714285713l7.093165714285713 4.7794285714285705 7.093131428571429 -4.7794285714285705 -7.093131428571429 -4.7794285714285705 -7.093165714285713 4.7794285714285705Z" clip-rule="evenodd" stroke-width="3.4286"></path>
  </g>
</svg>