<svg xmlns="http://www.w3.org/2000/svg" fill="none" viewBox="0 0 48 48" id="Ear-Hearing--Streamline-Core-Remix" height="48" width="48">
  <desc>
    Ear Hearing Streamline Icon: https://streamlinehq.com
  </desc>
  <g id="Free Remix/Health/ear-hearing--health-medical-hearing-ear">
    <path id="Union" fill="#000000" fill-rule="evenodd" d="M5.880205714285714 13.552662857142856C6.743005714285713 11.088342857142857 10.248719999999999 6 17.150674285714285 6c8.741005714285713 0 13.59006857142857 7.318662857142856 12.099257142857143 14.087142857142855 -1.1441142857142856 5.19456 -3.9213942857142854 7.382022857142857 -6.054137142857142 9.061851428571428l-0.00006857142857142857 0.00006857142857142857c-0.38976 0.30699428571428566 -0.7579542857142856 0.5969828571428571 -1.0907314285714287 0.8853257142857143 -1.7705142857142855 1.5339085714285714 -2.9002628571428573 3.4067314285714283 -3.5955771428571426 5.380354285714286 -1.372045714285714 3.894171428571428 -3.944571428571429 6.5852571428571425 -6.948239999999999 6.5852571428571425 -3.0710399999999995 0 -5.560594285714285 -2.489485714285714 -5.560594285714285 -5.5604571428571425v-0.13748571428571427c0 -1.183542857142857 -0.9593828571428571 -2.1427542857142856 -2.142857142857143 -2.1427542857142856 -1.1834674285714284 0 -2.142857142857143 0.9592114285714286 -2.142857142857143 2.1427542857142856v0.13748571428571427c0 5.437714285714286 4.40832 9.846171428571427 9.84630857142857 9.846171428571427 5.818354285714285 0 9.430937142857143 -5.0207999999999995 10.990422857142857 -9.447085714285713 0.48935999999999996 -1.3889142857142858 1.2389828571428572 -2.59416 2.359714285714286 -3.5651314285714286 0.2274857142857143 -0.1970742857142857 0.5158628571428572 -0.4205142857142857 0.8489142857142856 -0.6785485714285714l0 -0.00003428571428571428c2.1543771428571428 -1.6692 6.177428571428571 -4.786285714285714 7.675097142857143 -11.585931428571428C35.49942857142857 11.63694857142857 28.70221714285714 1.7142857142857142 17.150674285714285 1.7142857142857142 7.81854857142857 1.7142857142857142 3.070206857142857 8.609177142857144 1.8352457142857141 12.136457142857143c-0.39107314285714284 1.1169942857142858 0.19738971428571428 2.33952 1.3143771428571427 2.730582857142857 1.1169942857142858 0.3910628571428571 2.33952 -0.19738285714285714 2.730582857142857 -1.3143771428571427Zm10.439348571428571 1.643382857142857c-2.4822171428571425 -0.18610285714285713 -4.002994285714285 1.7330742857142858 -4.438731428571428 2.8079314285714285 -0.44465142857142853 1.0967657142857143 -1.6941942857142858 1.6254171428571427 -2.79096 1.1807999999999998 -1.0967657142857143 -0.44465142857142853 -1.6254171428571427 -1.6941942857142858 -1.1807999999999998 -2.79096 0.7796228571428572 -1.9229828571428569 3.5942399999999997 -5.856617142857143 8.730925714285714 -5.471485714285714 2.556788571428571 0.19169142857142857 4.865348571428571 1.5611314285714286 6.331097142857143 3.4448914285714287 1.4781942857142858 1.8997371428571426 2.238377142857143 4.530788571428571 1.2454285714285713 7.163828571428571 -0.40542857142857136 1.0750971428571428 -0.8877257142857142 1.9148571428571428 -1.4757257142857143 2.586925714285714 -0.5962285714285714 0.681462857142857 -1.2160457142857142 1.0916914285714285 -1.732662857142857 1.3896 -0.18637714285714285 0.10745142857142856 -0.3485142857142857 0.19724571428571427 -0.4920342857142857 0.27672l-0.00017142857142857143 0.00010285714285714286 -0.00010285714285714286 0.00006857142857142857 -0.00003428571428571428 0c-0.6269828571428572 0.34721142857142856 -0.8983885714285713 0.49751999999999996 -1.279302857142857 1.062822857142857 -0.2064342857142857 0.30634285714285714 -0.3992228571428571 0.7847999999999999 -0.6145714285714285 1.5437828571428571 -0.060617142857142856 0.21366857142857143 -0.13494857142857142 0.49950857142857136 -0.21689142857142854 0.8145942857142856l-0.00003428571428571428 0.00013714285714285713 -0.00006857142857142857 0.00020571428571428572 -0.00003428571428571428 0.00017142857142857143c-0.1435542857142857 0.5521028571428571 -0.3104914285714286 1.194 -0.468 1.6950171428571428 -0.5548114285714285 1.7647542857142855 -1.6580914285714283 4.199828571428571 -4.681302857142857 4.803599999999999 -1.61616 0.3229714285714286 -2.9334171428571425 0.027428571428571427 -3.874868571428571 -0.40697142857142854 -0.4596342857142857 -0.2122285714285714 -0.8169942857142857 -0.45119999999999993 -1.0716685714285714 -0.6500571428571428 -0.12781714285714285 -0.09977142857142857 -0.23153142857142858 -0.1906285714285714 -0.3111771428571428 -0.26537142857142854 -0.039908571428571425 -0.03737142857142857 -0.07398857142857142 -0.07062857142857143 -0.1022742857142857 -0.09942857142857142l-0.03815999999999999 -0.039428571428571424 -0.01584 -0.016868571428571427 -0.007165714285714285 -0.007679999999999999 -0.0033599999999999997 -0.003634285714285714 -0.0016457142857142857 -0.0017828571428571427c-0.0007885714285714285 -0.0008914285714285713 -0.001577142857142857 -0.0017485714285714285 1.578342857142857 -1.4493942857142856l-1.57992 1.4476457142857142c-0.7995428571428571 -0.8725714285714286 -0.7402971428571428 -2.2280571428571427 0.1322742857142857 -3.027565714285714 0.8529599999999999 -0.7815771428571427 2.167405714285714 -0.7425257142857142 2.97288 0.07470857142857143l0.012617142857142856 0.010114285714285713c0.03685714285714285 0.028799999999999996 0.11509714285714286 0.08382857142857142 0.23149714285714285 0.13758857142857142 0.21068571428571425 0.09726857142857143 0.6074742857142857 0.22158857142857144 1.2389142857142856 0.09545142857142856 0.5847428571428571 -0.11681142857142858 0.9827314285714285 -0.45582857142857147 1.432422857142857 -1.886262857142857 0.14324571428571428 -0.45562285714285716 0.23989714285714286 -0.8346514285714285 0.3483085714285714 -1.2597257142857143l0 -0.00006857142857142857 0.00003428571428571428 -0.00003428571428571428 0 -0.00003428571428571428c0.08441142857142857 -0.3309942857142857 0.1759542857142857 -0.6899657142857143 0.30216 -1.1347542857142856 0.23982857142857142 -0.8452457142857143 0.5792914285714286 -1.8723771428571427 1.1834399999999998 -2.7689485714285715 0.9993942857142858 -1.483062857142857 2.1835885714285714 -2.11752 2.8935085714285713 -2.4978857142857143 0.10916571428571428 -0.05845714285714285 0.2070857142857143 -0.11094857142857142 0.2914285714285714 -0.15956571428571428 0.3001714285714286 -0.17310857142857142 0.4800685714285714 -0.30695999999999996 0.648 -0.4988571428571428 0.17612571428571427 -0.20132571428571427 0.4222971428571428 -0.5642057142857143 0.6911657142857143 -1.2771428571428571 0.3556114285714286 -0.9429942857142857 0.15466285714285713 -2.027005714285714 -0.6177942857142856 -3.019748571428571 -0.7849028571428571 -1.00872 -2.0165142857142855 -1.709142857142857 -3.269142857142857 -1.8030514285714283Zm23.13781714285714 15.071794285714287c0 -1.4201485714285715 -1.1513142857142855 -2.571428571428571 -2.571428571428571 -2.571428571428571 -1.4204571428571429 0 -2.571428571428571 1.1512799999999999 -2.571428571428571 2.571428571428571 0 2.0900914285714283 -1.69728 3.7895314285714283 -3.7970399999999995 3.7895314285714283 -1.420182857142857 0 -2.571428571428571 1.1513142857142855 -2.571428571428571 2.571428571428571s1.1512457142857142 2.571428571428571 2.571428571428571 2.571428571428571c4.934297142857143 0 8.939897142857143 -3.996342857142857 8.939897142857143 -8.932388571428572Zm7.686171428571428 0.26537142857142854c0 -1.420182857142857 -1.1513142857142855 -2.571428571428571 -2.571428571428571 -2.571428571428571s-2.571428571428571 1.1512457142857142 -2.571428571428571 2.571428571428571c0 6.330102857142856 -5.1384 11.46678857142857 -11.483211428571428 11.46678857142857 -1.420182857142857 0 -2.571428571428571 1.1513142857142855 -2.571428571428571 2.571428571428571 0 1.4204571428571429 1.1512457142857142 2.571428571428571 2.571428571428571 2.571428571428571 9.179554285714284 0 16.62606857142857 -7.433485714285713 16.62606857142857 -16.609645714285712Z" clip-rule="evenodd" stroke-width="3.4286"></path>
  </g>
</svg>