<svg xmlns="http://www.w3.org/2000/svg" fill="none" viewBox="0 0 48 48" id="Earpods--Streamline-Core-Remix" height="48" width="48">
  <desc>
    Earpods Streamline Icon: https://streamlinehq.com
  </desc>
  <g id="Free Remix/Entertainment/earpods--airpods-audio-earpods-music-earbuds-true-wireless-entertainment">
    <path id="Union" fill="#000000" fill-rule="evenodd" d="M9.75984 1.2857245714285712C6.899862857142857 1.2819017142857143 4.138628571428572 2.3313737142857143 2.003142857142857 4.23384c-0.45639428571428575 0.4066285714285714 -0.7174285714285713 0.9887657142857141 -0.7174285714285713 1.6000114285714284v14.178445714285711c0 0.6112457142857143 0.26103428571428566 1.193382857142857 0.7174285714285713 1.6000114285714284 1.9952228571428572 1.7775085714285714 4.536754285714285 2.8104 7.1946514285714285 2.9353028571428568v16.06793142857143c0 1.6172571428571427 0.6425485714285714 3.168685714285714 1.78632 4.312457142857142s2.6950628571428568 1.7862857142857143 4.3125599999999995 1.7862857142857143c1.6175314285714284 0 3.1688228571428567 -0.6425142857142857 4.312594285714286 -1.7862857142857143 1.1437714285714284 -1.1437714285714284 1.78632 -2.6952 1.78632 -4.312457142857142V12.923074285714284c0 -3.0864 -1.2260914285714284 -6.046422857142857 -3.4085142857142854 -8.228845714285713C15.80502857142857 2.5121794285714283 12.845691428571428 1.2861531428571429 9.75984 1.2857245714285712Zm0 0 -0.0016114285714285714 0V3.4285714285714284l0.003154285714285714 -2.1428434285714286 -0.0015428571428571427 -0.00000342857142857143ZM5.571428571428571 18.97566857142857V6.870480000000001c1.2242057142857141 -0.8440457142857143 2.6824114285714287 -1.3012457142857141 4.1836457142857135 -1.2990514285714285l0.003154285714285714 0c1.9497942857142858 0 3.8197028571428566 0.7745485714285714 5.1983999999999995 2.153245714285714 1.3786971428571426 1.3786971428571426 2.153245714285714 3.24864 2.153245714285714 5.1983999999999995v27.692468571428567c0 0.4806857142857142 -0.19104 0.9418285714285713 -0.5310857142857143 1.281942857142857 -0.3400114285714285 0.3401142857142857 -0.8012228571428571 0.5310857142857143 -1.2821142857142858 0.5310857142857143 -0.48085714285714287 0 -0.9420685714285715 -0.19097142857142857 -1.2821142857142858 -0.5310857142857143 -0.3400114285714285 -0.3401142857142857 -0.5310514285714285 -0.8012571428571428 -0.5310514285714285 -1.281942857142857V22.41757714285714c0 -0.6023314285714285 -0.2535085714285714 -1.1768571428571428 -0.6983999999999999 -1.5828342857142856 -0.44492571428571426 -0.40604571428571423 -1.04016 -0.6060342857142856 -1.6399885714285714 -0.5510742857142857 -0.3962742857142857 0.036308571428571426 -0.7950857142857142 0.036308571428571426 -1.19136 0 -0.06606857142857142 -0.006068571428571428 -0.13234285714285715 -0.009051428571428571 -0.19868571428571427 -0.008948571428571427 -1.5012342857142857 0.002194285714285714 -2.95944 -0.45500571428571424 -4.1836457142857135 -1.2990514285714285ZM38.24502857142857 5.571428571428571c1.5010285714285714 -0.002194285714285714 2.959542857142857 0.45500571428571424 4.183542857142856 1.2990514285714285v12.10518857142857c-1.224 0.8440457142857143 -2.6825142857142854 1.3012457142857141 -4.183542857142856 1.2990514285714285 -0.0665142857142857 -0.00010285714285714286 -0.13268571428571427 0.0028799999999999997 -0.19885714285714284 0.008948571428571427 -0.396 0.036308571428571426 -0.7950857142857142 0.036308571428571426 -1.191085714285714 0 -0.6 -0.054959999999999995 -1.1952 0.14502857142857142 -1.6402285714285714 0.5510742857142857 -0.4446857142857143 0.4059771428571428 -0.6983999999999999 0.9805028571428571 -0.6983999999999999 1.5828342857142856v18.19796571428571c0 0.4806857142857142 -0.19097142857142857 0.9418285714285713 -0.5309485714285714 1.281942857142857 -0.3400457142857143 0.3401142857142857 -0.8012228571428571 0.5310857142857143 -1.2821142857142858 0.5310857142857143s-0.9420685714285715 -0.19097142857142857 -1.2821142857142858 -0.5310857142857143c-0.3400457142857143 -0.3401142857142857 -0.5310857142857143 -0.8012571428571428 -0.5310857142857143 -1.281942857142857V12.923074285714284c0 -1.9497599999999997 0.7745485714285714 -3.8197028571428566 2.153245714285714 -5.1983999999999995 1.3787314285714285 -1.3786971428571426 3.2486742857142854 -2.153245714285714 5.198502857142857 -2.153245714285714l0.0030857142857142854 0Zm7.752 -1.3375885714285713c-2.1356571428571427 -1.9024662857142856 -4.896685714285714 -2.9519382857142857 -7.756799999999999 -2.9481154285714286l0.0017142857142857142 0V3.4285714285714284L38.23885714285714 1.285728l0.0013714285714285714 -0.00000342857142857143c-3.0857142857142854 0.00042857142857142855 -6.045188571428571 1.226454857142857 -8.227234285714285 3.4085039999999998 -2.182422857142857 2.182422857142857 -3.4085142857142854 5.1424457142857145 -3.4085142857142854 8.228845714285713v27.692468571428567c0 1.6172571428571427 0.6425828571428571 3.168685714285714 1.78632 4.312457142857142 1.1437714285714284 1.1437714285714284 2.6950628571428568 1.7862857142857143 4.312594285714286 1.7862857142857143 1.6176342857142856 0 3.1687199999999995 -0.6425142857142857 4.312491428571429 -1.7862857142857143 1.1437714285714284 -1.1437714285714284 1.7862857142857143 -2.6952 1.7862857142857143 -4.312457142857142V24.54761142857143c2.6581714285714284 -0.12490285714285712 5.199428571428571 -1.1577942857142856 7.194857142857143 -2.9353028571428568 0.4563428571428571 -0.4066285714285714 0.7172571428571428 -0.9887657142857141 0.7172571428571428 -1.6000114285714284V5.833851428571428c0 -0.6112457142857143 -0.2609142857142857 -1.193382857142857 -0.7172571428571428 -1.6000114285714284Z" clip-rule="evenodd" stroke-width="3.4286"></path>
  </g>
</svg>