<svg xmlns="http://www.w3.org/2000/svg" fill="none" viewBox="0 0 48 48" id="Earth-1--Streamline-Core-Remix" height="48" width="48">
  <desc>
    Earth 1 Streamline Icon: https://streamlinehq.com
  </desc>
  <g id="Free Remix/Map Travel/earth-1--planet-earth-globe-world">
    <path id="Union" fill="#000000" fill-rule="evenodd" d="M29.142857142857142 4.963234285714286v4.465577142857143c0 2.0459657142857144 -0.8127428571428571 4.008102857142857 -2.2594628571428568 5.454822857142856 -1.44672 1.44672 -3.4088571428571424 2.2594628571428568 -5.454822857142856 2.2594628571428568 -1.1366399999999999 0 -2.22672 0.4515085714285714 -3.030445714285714 1.2552342857142855C17.5944 19.202091428571425 17.142857142857142 20.292171428571425 17.142857142857142 21.42881142857143v5.142857142857142c0 2.0459657142857144 -0.8127428571428571 4.008102857142857 -2.2594628571428568 5.454822857142856 -1.44672 1.44672 -3.4088571428571424 2.259565714285714 -5.454822857142856 2.259565714285714h-2.2500685714285713C10.643965714285715 39.94114285714286 16.881359999999997 43.714285714285715 24 43.714285714285715c4.515394285714286 0 8.67624 -1.5181714285714285 12 -4.071771428571428V38.57142857142857c0 -0.6819428571428571 -0.27085714285714285 -1.3361142857142856 -0.7532571428571428 -1.8181714285714285 -0.48205714285714285 -0.48239999999999994 -1.1361942857142857 -0.7532571428571428 -1.8181714285714285 -0.7532571428571428 -2.0459657142857144 0 -4.008102857142857 -0.8129142857142857 -5.454822857142856 -2.2594628571428568C26.52702857142857 32.29381714285714 25.71428571428571 30.33168 25.71428571428571 28.285714285714285c0 -2.0459657142857144 0.8127428571428571 -4.008102857142857 2.2594628571428568 -5.454822857142856C29.42046857142857 21.384171428571427 31.38260571428571 20.57142857142857 33.42857142857142 20.57142857142857h7.312457142857142v0.00003428571428571428c0.9181714285714284 0.005039999999999999 1.8305142857142858 0.10093714285714285 2.7239999999999998 0.2844685714285714C42.23211428571428 13.164685714285714 36.55062857142857 6.959622857142857 29.142857142857142 4.963234285714286Zm18.855771428571426 18.773142857142858c0.0030857142857142854 -0.06918857142857142 0.0020571428571428568 -0.13830857142857142 -0.0030857142857142854 -0.20687999999999998 -0.22491428571428573 -11.692902857142856 -8.812114285714285 -21.338057142857142 -20.029611428571428 -23.2033536C27.796902857142857 0.2703984 27.61625142857143 0.2402345142857143 27.428571428571427 0.2402345142857143c-0.006342857142857143 0 -0.012685714285714286 0.00003428571428571428 -0.018994285714285714 0.00010285714285714286C26.29584 0.08194045714285714 25.157485714285713 0 24 0 10.745177142857143 0 0 10.745177142857143 0 24c0 13.254857142857142 10.745177142857143 24 24 24 13.254857142857142 0 24 -10.745142857142856 24 -24 0 -0.08797714285714285 -0.00034285714285714285 -0.17585142857142858 -0.0013714285714285714 -0.2636228571428571Z" clip-rule="evenodd" stroke-width="3.4286"></path>
  </g>
</svg>