<svg xmlns="http://www.w3.org/2000/svg" fill="none" viewBox="0 0 48 48" id="Earth-Airplane--Streamline-Core-Remix" height="48" width="48">
  <desc>
    Earth Airplane Streamline Icon: https://streamlinehq.com
  </desc>
  <g id="Free Remix/Map Travel/earth-airplane--travel-plane-trip-airplane-international-adventure-globe-world-airport">
    <path id="Union" fill="#000000" fill-rule="evenodd" d="M22.38462857142857 4.931211428571428v3.73944c0 1.8011314285714284 0.7154742857142857 3.5285142857142855 1.9890857142857143 4.802125714285714 1.2736114285714286 1.2735771428571427 3.0009599999999996 1.9890857142857143 4.802125714285714 1.9890857142857143 0.8918057142857143 0 1.7471314285714286 0.3542742857142857 2.3777142857142857 0.9848914285714285 0.6306514285714285 0.6306171428571429 0.9849257142857143 1.4859085714285714 0.9849257142857143 2.377748571428571v4.351645714285715c0 1.8011314285714284 0.7154742857142857 3.5285142857142855 1.9889485714285713 4.802125714285714 1.2737142857142856 1.2735771428571427 3.001028571428571 1.9890857142857143 4.8024 1.9890857142857143h1.7784c-0.9051428571428571 1.4203885714285713 -2.018742857142857 2.6952685714285716 -3.2989714285714284 3.7818857142857145 -0.9023999999999999 0.76584 -1.0131428571428571 2.1180685714285716 -0.24719999999999998 3.0204685714285713 0.765942857142857 0.9020571428571428 2.1181714285714284 1.0128 3.0202285714285715 0.24685714285714283C45.11691428571429 33.167965714285714 48 27.41958857142857 48 21 48 9.402034285714285 38.59782857142857 0 27 0 16.553279999999997 0 7.891817142857143 7.6259999999999994 6.271748571428572 17.614902857142855c-0.18946285714285713 1.1681828571428572 0.6039428571428571 2.2687885714285714 1.77216 2.4582514285714283 1.1681828571428572 0.18949714285714284 2.2687885714285714 -0.6039428571428571 2.4582514285714283 -1.77216 1.0406742857142857 -6.416434285714285 5.7375428571428575 -11.607874285714285 11.882468571428571 -13.369782857142855ZM5.090742857142857 24.33013714285714c-0.4883657142857143 -0.11598857142857141 -1.0024114285714285 -0.04625142857142857 -1.4422285714285714 0.19566857142857141 -0.4398411428571429 0.2418857142857143 -0.7740171428571428 0.6386742857142856 -0.9375942857142857 1.113222857142857 -0.006312 0.01834285714285714 -0.012003428571428571 0.03685714285714285 -0.01706057142857143 0.05554285714285714L0.08814342857142857 35.329028571428566l-0.0006030857142857142 -0.00034285714285714285 -0.007332685714285713 0.03188571428571428c-0.18503039999999998 0.8046857142857142 -0.04706568 1.6501714285714284 0.3842574857142857 2.3543999999999996 0.42985028571428574 0.7018285714285714 1.116888 1.207542857142857 1.9143942857142857 1.4098285714285714l8.083769142857141 2.184685714285714 -1.8615085714285713 1.9738285714285713c-0.26273142857142856 0.2592 -0.45229714285714284 0.583542857142857 -0.5492571428571429 0.9397714285714286 -0.09894857142857143 0.3637714285714285 -0.09774857142857142 0.7474285714285713 0.0034285714285714284 1.1105142857142858 0.10117714285714285 0.36308571428571423 0.2986285714285714 0.6918857142857143 0.5714057142857143 0.9521142857142857 0.2676342857142857 0.25508571428571425 0.5980457142857143 0.4347428571428571 0.9574628571428572 0.5204571428571428l4.098411428571429 1.1273142857142855 -0.00013714285714285713 0.00034285714285714285 0.029314285714285713 0.007199999999999999c0.33191999999999994 0.07851428571428572 0.6776228571428572 0.07919999999999999 1.00968 0.0010285714285714284 0.33209142857142854 -0.07817142857142857 0.6413485714285714 -0.2328 0.9032914285714286 -0.45119999999999993l0.00006857142857142857 0 0.011382857142857142 -0.009942857142857142 4.285988571428572 -3.705942857142857 0.3528 0.030857142857142854 9.001371428571428 2.411657142857143c0.3994285714285714 0.11828571428571429 0.8185714285714285 0.1553142857142857 1.23264 0.10902857142857143 0.41876571428571424 -0.04697142857142857 0.82368 -0.17828571428571427 1.1903314285714284 -0.3857142857142857 0.3666514285714285 -0.20777142857142855 0.687462857142857 -0.4875428571428571 0.9430628571428572 -0.8225142857142856 0.2556 -0.33497142857142853 0.4406742857142857 -0.7182857142857142 0.5441142857142857 -1.1266285714285713l0.0005142857142857142 0 0.0064457142857142855 -0.029828571428571427c0.28666285714285716 -1.3296 0.28008 -2.7058285714285715 -0.019337142857142855 -4.032685714285714 -0.2993828571428571 -1.3268571428571427 -0.8843657142857142 -2.5724571428571426 -1.7142514285714285 -3.6504 -0.8298514285714286 -1.0776000000000001 -1.8846514285714284 -1.9614857142857143 -3.090925714285714 -2.5901142857142854 -1.1970171428571428 -0.6237257142857142 -2.5146514285714283 -0.98112 -3.8624914285714285 -1.0478399999999999l-14.29944 -1.689942857142857V27.25549714285714h0.00006857142857142857l-0.00017142857142857143 -0.012514285714285714c-0.00624 -0.4275428571428571 -0.1478057142857143 -0.8420914285714285 -0.4043657142857143 -1.1841257142857142 -0.25652571428571425 -0.3420685714285714 -0.6148457142857142 -0.5940342857142856 -1.0235314285714285 -0.71976l0.00013714285714285713 -0.00037714285714285714 -0.025954285714285714 -0.007097142857142856 -3.6342857142857143 -0.9943199999999999 0.00013714285714285713 -0.00044571428571428567 -0.028285714285714286 -0.006719999999999999Z" clip-rule="evenodd" stroke-width="3.4286"></path>
  </g>
</svg>