<svg xmlns="http://www.w3.org/2000/svg" fill="none" viewBox="0 0 48 48" id="Edit-Image-Photo--Streamline-Core-Remix" height="48" width="48">
  <desc>
    Edit Image Photo Streamline Icon: https://streamlinehq.com
  </desc>
  <g id="Free Remix/Images Photography/edit-image-photo">
    <path id="Union" fill="#000000" fill-rule="evenodd" d="M4.662274285714286 4.662274285714286c0.24113142857142858 -0.24109714285714282 0.5681485714285713 -0.37655999999999995 0.9091542857142857 -0.37655999999999995h26.57142857142857c0.3410057142857143 0 0.6680228571428571 0.13546285714285713 0.9091199999999999 0.37655999999999995 0.24113142857142858 0.24113142857142858 0.37659428571428566 0.5681485714285713 0.37659428571428566 0.9091542857142857V16.285714285714285c0 1.1834742857142857 0.9593142857142857 2.142857142857143 2.142857142857143 2.142857142857143S37.714285714285715 17.46918857142857 37.714285714285715 16.285714285714285V5.571428571428571c0 -1.477645714285714 -0.5869714285714285 -2.894749714285714 -1.632 -3.939596571428571C35.0376 0.5869885714285714 33.62050285714285 0 32.14285714285714 0h-26.57142857142857C4.093782857142857 0 2.676678857142857 0.5869885714285714 1.631832 1.631832 0.5869885714285714 2.676678857142857 0 4.093782857142857 0 5.571428571428571v18.680022857142855l0 0.0005828571428571429V32.14285714285714c0 1.477645714285714 0.5869885714285714 2.894742857142857 1.631832 3.9394285714285715 1.044846857142857 1.0450285714285714 2.461950857142857 1.632 3.939596571428571 1.632h11.176868571428571c0.6906514285714286 0 1.313862857142857 -0.41451428571428567 1.5809485714285714 -1.051542857142857 0.2986285714285714 -0.7121142857142857 0.7338171428571428 -1.3645714285714285 1.2861257142857143 -1.9179428571428572l5.2220571428571425 -5.233131428571428c0.6682628571428572 -0.6696685714285714 0.6676799999999999 -1.7540914285714284 -0.0012685714285714286 -2.4230742857142853L11.85678857142857 14.10925714285714c-0.669462857142857 -0.6694971428571428 -1.7549142857142856 -0.6694971428571428 -2.424377142857143 0L4.285714285714286 19.255954285714285V5.571428571428571c0 -0.3410057142857143 0.13546285714285713 -0.6680228571428571 0.37655999999999995 -0.9091542857142857ZM29.57142857142857 12.428571428571427c0 -2.8403314285714285 -2.3025257142857143 -5.142857142857142 -5.142857142857142 -5.142857142857142s-5.142857142857142 2.3025257142857143 -5.142857142857142 5.142857142857142 2.3025257142857143 5.142857142857142 5.142857142857142 5.142857142857142 5.142857142857142 -2.3025257142857143 5.142857142857142 -5.142857142857142Zm10.404342857142858 8.691531428571428c0.4549714285714286 -0.00023999999999999998 0.8914285714285715 0.18041142857142856 1.2133714285714285 0.5021142857142856l6.308571428571429 6.308571428571429c0.6692571428571429 0.669462857142857 0.6692571428571429 1.7549142857142856 0 2.424377142857143L31.349040000000002 46.503771428571426c-0.2650285714285714 0.2650285714285714 -0.6095657142857143 0.43577142857142853 -0.9809485714285713 0.4865142857142857l-7.302822857142856 0.9942857142857142c-0.5321142857142857 0.07234285714285714 -1.0674171428571428 -0.10868571428571427 -1.4462399999999997 -0.48925714285714283 -0.37885714285714284 -0.38057142857142856 -0.5574857142857143 -0.9168000000000001 -0.4825714285714285 -1.4485714285714284l1.0285714285714285 -7.3028571428571425c0.05180571428571428 -0.36788571428571426 0.22169142857142854 -0.7090285714285715 0.48404571428571425 -0.9716571428571428L38.76342857142857 21.62352c0.32125714285714285 -0.32208 0.7573714285714286 -0.5031771428571429 1.2123428571428572 -0.5034171428571428Z" clip-rule="evenodd" stroke-width="3.4286"></path>
  </g>
</svg>