<svg xmlns="http://www.w3.org/2000/svg" fill="none" viewBox="0 0 48 48" id="Eject--Streamline-Core-Remix" height="48" width="48">
  <desc>
    Eject Streamline Icon: https://streamlinehq.com
  </desc>
  <g id="Free Remix/Computer Devices/eject--eject-unmount-dismount-remove-keyboard">
    <path id="Union" fill="#000000" fill-rule="evenodd" d="M27.622662857142853 4.624079999999999c-2.066742857142857 -1.8656297142857143 -5.179885714285714 -1.8656331428571429 -7.2466285714285705 0L1.8284845714285713 21.36678857142857C-1.832478857142857 24.671485714285712 0.31069645714285715 31.061005714285713 5.451771428571429 31.061005714285713h37.09508571428571c5.1411428571428575 0 7.284342857142857 -6.389485714285714 3.6233142857142853 -9.694217142857143L27.622662857142853 4.624079999999999Zm-4.374891428571429 3.1812685714285713c0.4353942857142857 -0.39305142857142855 1.0677257142857142 -0.39305142857142855 1.5031542857142854 0l18.547474285714284 16.74270857142857c0.42308571428571423 0.38194285714285714 0.5245714285714286 0.9186171428571428 0.3377142857142857 1.4286514285714285 -0.1858285714285714 0.5059199999999999 -0.5797714285714285 0.798582857142857 -1.0892571428571427 0.798582857142857H5.451771428571429c-0.5093142857142856 0 -0.9033942857142857 -0.29266285714285717 -1.0890514285714283 -0.798582857142857 -0.18716571428571427 -0.5100342857142857 -0.08561142857142856 -1.0467085714285713 0.3374742857142857 -1.4286514285714285L23.247771428571426 7.805348571428571ZM2.9994274285714284 39.42857142857142c-1.6568571428571428 0 -3.0000013645714283 1.3433142857142857 -3.0000013645714283 3 0 1.6570285714285713 1.3431442217142857 3 3.0000013645714283 3H44.999314285714284c1.6570285714285713 0 3 -1.3429714285714285 3 -3 0 -1.6566857142857143 -1.3429714285714285 -3 -3 -3H2.9994274285714284Z" clip-rule="evenodd" stroke-width="3.4286"></path>
  </g>
</svg>