<svg xmlns="http://www.w3.org/2000/svg" fill="none" viewBox="0 0 48 48" id="Electric-Cord-3--Streamline-Core-Remix" height="48" width="48">
  <desc>
    Electric Cord 3 Streamline Icon: https://streamlinehq.com
  </desc>
  <g id="Free Remix/Computer Devices/electric-cord-3--electricity-electronic-appliances-device-cord-cable-plug-connection">
    <path id="Union" fill="#000000" fill-rule="evenodd" d="M24.00006857142857 4.285714285714286c-10.889794285714286 0 -19.717714285714287 8.827919999999999 -19.717714285714287 19.717714285714287 0 7.179771428571429 3.83616 13.465714285714286 9.580902857142858 16.916228571428572 1.0145142857142857 0.6096 1.3429714285714285 1.9258285714285712 0.7335771428571428 2.940342857142857 -0.6093942857142857 1.0145142857142857 -1.9258285714285712 1.3429714285714285 -2.940342857142857 0.7337142857142857C4.675542857142856 40.400571428571425 -0.0033482125714285713 32.74944 -0.0033482125714285713 24.00342857142857 -0.0033482125714285713 10.746685714285714 10.74336 0 24.00006857142857 0 37.25691428571428 0 48.003428571428564 10.746685714285714 48.003428571428564 24.00342857142857c0 13.256571428571426 -10.746514285714285 24.00342857142857 -24.00336 24.00342857142857 -0.07395428571428571 0 -0.14705142857142856 -0.0037714285714285714 -0.21908571428571427 -0.010971428571428571 -0.18689142857142857 -0.0192 -0.3666857142857143 -0.06205714285714286 -0.5362285714285714 -0.12582857142857143 -0.8107885714285714 -0.30548571428571425 -1.3876114285714285 -1.0885714285714285 -1.3876114285714285 -2.0060571428571428v-9.197485714285714c-5.6096571428571425 -1.0107428571428572 -9.86550857142857 -5.917542857142857 -9.86550857142857 -11.818285714285715V19.535725714285714c0 -1.1834742857142857 0.9593828571428571 -2.142857142857143 2.142857142857143 -2.142857142857143h1.9369371428571427V12.357154285714284c0 -1.4201485714285715 1.1512799999999999 -2.571428571428571 2.571428571428571 -2.571428571428571s2.571428571428571 1.1512799999999999 2.571428571428571 2.571428571428571v5.035714285714286h5.571428571428571V12.357154285714284c0 -1.4201485714285715 1.1512799999999999 -2.571428571428571 2.571428571428571 -2.571428571428571s2.571428571428571 1.1512799999999999 2.571428571428571 2.571428571428571v5.035714285714286h1.9380685714285715c1.183302857142857 0 2.14296 0.9593828571428571 2.14296 2.142857142857143V24.84822857142857c0 5.901154285714286 -4.256537142857143 10.808228571428572 -9.866742857142857 11.818285714285715v6.9394285714285715c9.88182857142857 -1.0679999999999998 17.574857142857145 -9.436765714285714 17.574857142857145 -19.602514285714282 0 -10.889794285714286 -8.827885714285715 -19.717714285714287 -19.717645714285712 -19.717714285714287Zm0.008262857142857141 28.285714285714285c4.261851428571428 -0.004182857142857143 7.715451428571428 -3.4603542857142853 7.715451428571428 -7.7232v-3.169645714285714H16.277348571428572v3.169645714285714c0 4.265417142857143 3.457782857142857 7.723234285714285 7.7232 7.723234285714285 0.002605714285714286 0 0.005177142857142857 -0.00003428571428571428 0.007782857142857142 -0.00003428571428571428Z" clip-rule="evenodd" stroke-width="3.4286"></path>
  </g>
</svg>