<svg xmlns="http://www.w3.org/2000/svg" fill="none" viewBox="0 0 48 48" id="Electric-Cord-1--Streamline-Core-Remix" height="48" width="48">
  <desc>
    Electric Cord 1 Streamline Icon: https://streamlinehq.com
  </desc>
  <g id="Free Remix/Computer Devices/electric-cord-1--electricity-electronic-appliances-device-cord-cable-plug-connection">
    <path id="Union" fill="#000000" fill-rule="evenodd" d="M18.552445714285714 3c0 -1.656853714285714 -1.343142857142857 -3 -3 -3s-3 1.3431462857142857 -3 3v8.719782857142857h-2.0189485714285715c-3.0770399999999998 0 -5.571428571428571 2.494422857142857 -5.571428571428571 5.571428571428571v9.939565714285713c0 6.864102857142857 5.5644342857142854 12.428537142857142 12.428571428571427 12.428537142857142H21v5.340342857142857c0 1.6570285714285713 1.343142857142857 3 3 3s3 -1.3429714285714285 3 -3v-5.340342857142857h3.610422857142857c6.864205714285714 0 12.428434285714285 -5.564399999999999 12.428434285714285 -12.428537142857142V17.291211428571426c0 -3.0770057142857143 -2.494285714285714 -5.571428571428571 -5.571428571428571 -5.571428571428571h-2.019771428571428V3c0 -1.656853714285714 -1.3432457142857144 -3 -3.0001028571428567 -3 -1.6568571428571428 0 -3 1.3431462857142857 -3 3v8.719782857142857H18.552445714285714V3ZM9.247782857142857 17.291211428571426c0 -0.7100571428571428 0.5756228571428571 -1.2857142857142856 1.2857142857142856 -1.2857142857142856H37.46742857142857c0.7100571428571428 0 1.2857142857142856 0.5756571428571428 1.2857142857142856 1.2857142857142856v9.939565714285713c0 4.497188571428571 -3.6455999999999995 8.142822857142857 -8.14272 8.142822857142857H17.390639999999998c-4.497188571428571 0 -8.142857142857142 -3.6456342857142854 -8.142857142857142 -8.142822857142857V17.291211428571426Z" clip-rule="evenodd" stroke-width="3.4286"></path>
  </g>
</svg>