<svg xmlns="http://www.w3.org/2000/svg" fill="none" viewBox="0 0 48 48" id="Emergency-Exit--Streamline-Core-Remix" height="48" width="48">
  <desc>
    Emergency Exit Streamline Icon: https://streamlinehq.com
  </desc>
  <g id="Free Remix/Map Travel/emergency-exit">
    <path id="Union" fill="#000000" fill-rule="evenodd" d="M19.285714285714285 5.571428571428571c0 -0.7100914285714285 0.5756228571428571 -1.2857142857142856 1.2857142857142856 -1.2857142857142856h21.857142857142858c0.7100571428571428 0 1.2857142857142856 0.5756228571428571 1.2857142857142856 1.2857142857142856v36.857142857142854c0 0.7100571428571428 -0.5756571428571428 1.2857142857142856 -1.2857142857142856 1.2857142857142856H29.142857142857142c-1.1834742857142857 0 -2.142857142857143 0.9593142857142857 -2.142857142857143 2.142857142857143S27.95938285714286 48 29.142857142857142 48h13.285714285714285c3.077142857142857 0 5.571428571428571 -2.494285714285714 5.571428571428571 -5.571428571428571V5.571428571428571C48 2.494412571428571 45.505714285714284 0 42.42857142857142 0H20.57142857142857c-3.0770057142857143 0 -5.571428571428571 2.494412571428571 -5.571428571428571 5.571428571428571V8.571428571428571c0 1.1834742857142857 0.9593828571428571 2.142857142857143 2.142857142857143 2.142857142857143s2.142857142857143 -0.9593828571428571 2.142857142857143 -2.142857142857143v-3Zm6.857142857142857 11.571428571428571c0 -1.6568571428571428 1.343142857142857 -3 3 -3s3 1.343142857142857 3 3 -1.343142857142857 3 -3 3 -3 -1.343142857142857 -3 -3ZM29.142857142857142 9.857142857142856c-4.023771428571428 0 -7.285714285714286 3.261942857142857 -7.285714285714286 7.285714285714286S25.11908571428571 24.428571428571427 29.142857142857142 24.428571428571427 36.42857142857142 21.16662857142857 36.42857142857142 17.142857142857142 33.16662857142857 9.857142857142856 29.142857142857142 9.857142857142856ZM13.058057142857143 30.19721142857143 17.540982857142854 25.71428571428571l-2.62344 -2.623405714285714c-0.24109714285714282 -0.24113142857142858 -0.5681485714285713 -0.37659428571428566 -0.9091199999999999 -0.37659428571428566H9C7.816525714285714 22.71428571428571 6.857142857142857 21.754902857142856 6.857142857142857 20.57142857142857s0.9593828571428571 -2.142857142857143 2.142857142857143 -2.142857142857143h5.008422857142857c1.4776114285714286 0 2.894742857142857 0.5870057142857142 3.939565714285714 1.6318285714285712l4.137085714285714 4.137051428571428 0 0.00003428571428571428 0.001577142857142857 0.001577142857142857 0.0016114285714285714 0.001577142857142857 2.432365714285714 2.4324 1.7046857142857141 1.7046857142857141c0.24109714285714282 0.24109714285714282 0.5681485714285713 0.37655999999999995 0.9091199999999999 0.37655999999999995H32.14285714285714c1.1834742857142857 0 2.142857142857143 0.9593828571428571 2.142857142857143 2.142857142857143s-0.9593828571428571 2.142857142857143 -2.142857142857143 2.142857142857143H27.134434285714285c-1.4776114285714286 0 -2.894742857142857 -0.5870057142857142 -3.9395999999999995 -1.6318285714285712l-0.18942857142857142 -0.18946285714285713 -2.9695542857142856 2.9695542857142856 1.0466057142857141 1.0467085714285713c1.044857142857143 1.0446857142857142 1.6318285714285712 2.4617142857142853 1.6318285714285712 3.9394285714285715v6.722742857142857c0 1.183542857142857 -0.9593828571428571 2.142857142857143 -2.142857142857143 2.142857142857143s-2.142857142857143 -0.9593142857142857 -2.142857142857143 -2.142857142857143v-6.722742857142857c0 -0.3408 -0.13546285714285713 -0.6678857142857143 -0.37655999999999995 -0.9092571428571428l-2.5618285714285713 -2.5618285714285713 -0.9187542857142856 -0.9185142857142857 -0.05201142857142857 0.05177142857142857c-1.044822857142857 1.0450285714285714 -2.4619542857142855 1.632 -3.939565714285714 1.632H2.142857142857143C0.9593897142857143 36.42857142857142 0 35.46925714285714 0 34.285714285714285c0 -1.1834742857142857 0.9593897142857143 -2.142857142857143 2.142857142857143 -2.142857142857143h8.436994285714285c0.34097142857142854 0 0.6680228571428571 -0.13546285714285713 0.9091199999999999 -0.37655999999999995l1.5653142857142857 -1.5653142857142857 0.0019199999999999998 -0.0019199999999999998 0.0018514285714285714 -0.0018514285714285714Z" clip-rule="evenodd" stroke-width="3.4286"></path>
  </g>
</svg>