<svg xmlns="http://www.w3.org/2000/svg" fill="none" viewBox="0 0 48 48" id="Epic-Games-1--Streamline-Core-Remix" height="48" width="48">
  <desc>
    Epic Games 1 Streamline Icon: https://streamlinehq.com
  </desc>
  <g id="Free Remix/Entertainment/epic-games-1--epic-games-entertainment-gaming">
    <path id="Union" fill="#000000" fill-rule="evenodd" d="M8.148205714285714 0C5.183931428571428 0 3.3632811428571427 2.706884571428571 3.3632811428571427 5.265291428571428v27.733508571428565c0 1.8159428571428569 0.8651074285714286 3.6636 2.5132217142857143 4.637657142857142l17.033862857142857 10.0656c0.6724457142857142 0.39737142857142854 1.5078171428571427 0.39737142857142854 2.180262857142857 0l17.03382857142857 -10.0656c1.6481142857142856 -0.9740571428571428 2.513142857142857 -2.8217142857142856 2.513142857142857 -4.637657142857142V5.265291428571428C44.6376 2.706884571428571 42.81702857142857 0 39.85268571428571 0H8.148205714285714Zm-0.4992 5.265291428571428c0 -0.3782742857142857 0.13052571428571427 -0.6627085714285713 0.26681142857142853 -0.8237485714285714 0.13186285714285714 -0.15586285714285714 0.22169142857142854 -0.1558285714285714 0.23225142857142855 -0.1558285714285714h31.70496c0.010285714285714285 0 0.10011428571428571 -0.00003428571428571428 0.2321142857142857 0.1558285714285714 0.13645714285714286 0.16104 0.2667428571428571 0.44547428571428566 0.2667428571428571 0.8237485714285714v27.733508571428565c0 0.5494628571428571 -0.2657142857142857 0.864 -0.40765714285714283 0.9479657142857143L24.00051428571428 43.367999999999995 8.056765714285714 33.94676571428571c-0.14204571428571428 -0.08396571428571428 -0.40775999999999996 -0.3985028571428571 -0.40775999999999996 -0.9479657142857143V5.265291428571428Zm11.306914285714285 2.3167542857142855c-1.1834742857142857 0 -2.142857142857143 0.9593828571428571 -2.142857142857143 2.142857142857143v15.131862857142856c0 1.1834742857142857 0.9593828571428571 2.142857142857143 2.142857142857143 2.142857142857143h10.087919999999999c1.1834399999999998 0 2.142857142857143 -0.9593828571428571 2.142857142857143 -2.142857142857143s-0.9594171428571429 -2.142857142857143 -2.142857142857143 -2.142857142857143H21.09877714285714v-3.280045714285714h7.945062857142856c1.1834399999999998 0 2.142857142857143 -0.9593828571428571 2.142857142857143 -2.142857142857143s-0.9594171428571429 -2.142857142857143 -2.142857142857143 -2.142857142857143H21.09877714285714v-3.280388571428571h7.945062857142856c1.1834399999999998 0 2.142857142857143 -0.9594171428571429 2.142857142857143 -2.142857142857143 0 -1.1834742857142857 -0.9594171428571429 -2.142857142857143 -2.142857142857143 -2.142857142857143H18.95592ZM17.275097142857142 30.26365714285714c-0.9938057142857143 0 -1.8571885714285714 0.6833142857142857 -2.0855314285714286 1.6505485714285713 -0.22830857142857142 0.9672342857142857 0.23835428571428569 1.964502857142857 1.1272457142857142 2.40888l6.725245714285714 3.362742857142857c0.6032914285714286 0.30171428571428566 1.3133828571428572 0.30171428571428566 1.9166399999999997 0l6.72528 -3.362742857142857c0.8888914285714284 -0.44437714285714286 1.3555542857142857 -1.4416457142857142 1.1272114285714285 -2.40888 -0.22830857142857142 -0.9672342857142857 -1.0917257142857142 -1.6505485714285713 -2.0855314285714286 -1.6505485714285713H17.275097142857142Z" clip-rule="evenodd" stroke-width="3.4286"></path>
  </g>
</svg>