<svg xmlns="http://www.w3.org/2000/svg" fill="none" viewBox="0 0 48 48" id="Erlenmeyer-Flask--Streamline-Core-Remix" height="48" width="48">
  <desc>
    Erlenmeyer Flask Streamline Icon: https://streamlinehq.com
  </desc>
  <g id="Free Remix/Nature Ecology/erlenmeyer-flask--science-experiment-lab-flask-chemistry-solution">
    <path id="Union" fill="#000000" fill-rule="evenodd" d="M15 5.142857142857142H12c-1.4201485714285715 0 -2.571428571428571 -1.1512799999999999 -2.571428571428571 -2.571428571428571 0 -1.4201622857142857 1.1512799999999999 -2.571428571428571 2.571428571428571 -2.571428571428571h24c1.4201142857142857 0 2.571428571428571 1.1512662857142855 2.571428571428571 2.571428571428571 0 1.4201485714285715 -1.1513142857142855 2.571428571428571 -2.571428571428571 2.571428571428571h-3v12.661714285714286l10.6272 16.699885714285713c0.8965714285714286 1.4087999999999998 1.3727999999999998 3.0442285714285715 1.3727999999999998 4.714285714285714 0 4.849714285714286 -3.931542857142857 8.781257142857141 -8.781257142857141 8.781257142857141H11.78118857142857C6.931474285714285 48 3 44.06845714285714 3 39.21874285714286c0 -1.6700571428571427 0.4762285714285714 -3.305485714285714 1.3728342857142857 -4.714285714285714L15 17.804571428571425V5.142857142857142Zm4.285714285714286 0v13.285714285714285c0 0.4075542857142857 -0.11622857142857142 0.80664 -0.3350057142857143 1.1504571428571428l-10.962171428571427 17.226342857142857c-0.45901714285714285 0.7213714285714286 -0.7028228571428571 1.5586285714285713 -0.7028228571428571 2.4133714285714283 0 2.482971428571428 2.0127085714285715 4.495542857142857 4.495474285714286 4.495542857142857h24.437554285714285c2.482971428571428 0 4.495542857142857 -2.0125714285714285 4.495542857142857 -4.495542857142857 0 -0.854742857142857 -0.24377142857142856 -1.692 -0.7028571428571427 -2.4133714285714283L29.049291428571426 19.57902857142857C28.83051428571428 19.23521142857143 28.71428571428571 18.836125714285714 28.71428571428571 18.428571428571427V5.142857142857142h-9.428571428571429Z" clip-rule="evenodd" stroke-width="3.4286"></path>
  </g>
</svg>