<svg xmlns="http://www.w3.org/2000/svg" fill="none" viewBox="0 0 48 48" id="Esports--Streamline-Core-Remix" height="48" width="48">
  <desc>
    Esports Streamline Icon: https://streamlinehq.com
  </desc>
  <g id="Free Remix/Entertainment/esports--entertainment-gaming-esports">
    <path id="Union" fill="#000000" fill-rule="evenodd" d="M25.51309714285714 1.9133417142857143c-0.8368114285714285 -0.8368354285714285 -2.1936 -0.8368354285714285 -3.030445714285714 0L17.207485714285713 7.188514285714285l-4.985794285714285 -2.4929142857142854c-0.6642514285714285 -0.33212571428571425 -1.4531314285714285 -0.29663999999999996 -2.08488 0.09380571428571427 -0.6317485714285714 0.39044571428571423 -1.0162971428571428 1.0801371428571427 -1.0162971428571428 1.8227999999999998v7.836685714285713c0 2.9417485714285716 2.3847771428571427 5.326491428571429 5.326525714285713 5.326491428571429H33.54891428571428c2.9417142857142853 0 5.3266285714285715 -2.384742857142857 5.3266285714285715 -5.326491428571429v-7.836685714285713c0 -0.7426628571428571 -0.38468571428571424 -1.4323542857142855 -1.0162285714285713 -1.8227999999999998 -0.6318857142857143 -0.39044571428571423 -1.4207999999999998 -0.4259314285714285 -2.0849142857142855 -0.09380571428571427l-4.986102857142857 2.4929485714285713L25.51309714285714 1.9133417142857143ZM7.979897142857142 20.425954285714283c1.0946057142857142 0.44989714285714283 1.6172571428571427 1.701942857142857 1.16736 2.796582857142857 -0.9741599999999999 2.3701371428571427 -1.8910971428571428 5.0992114285714285 -2.5546285714285712 7.647085714285714 -0.6747085714285713 2.590765714285714 -1.0433142857142856 4.8293485714285715 -1.0202057142857142 6.279634285714286 0.05478857142857143 3.4392 1.803565714285714 4.936114285714285 3.2215199999999995 5.225485714285714 0.2698285714285714 -0.20537142857142857 0.6179314285714286 -0.5197714285714286 1.055005714285714 -0.9747428571428571 0.46152 -0.4803428571428571 0.9134399999999999 -0.9973714285714285 1.4066400000000001 -1.5613714285714286l0.0006514285714285715 -0.0010285714285714284 0.00047999999999999996 -0.00034285714285714285c0.2397942857142857 -0.2742857142857143 0.48935999999999996 -0.5598857142857142 0.7545257142857142 -0.8578285714285713 0.7588114285714285 -0.8523428571428571 1.6268571428571428 -1.7825142857142857 2.54424 -2.503885714285714 0.8813828571428571 -0.6925714285714286 2.1067885714285715 -1.4352 3.5649599999999997 -1.4352h11.758902857142855c1.4581714285714285 0 2.6836114285714285 0.7426285714285713 3.5649599999999997 1.4352 0.91752 0.7213714285714286 1.7852914285714285 1.6515428571428572 2.544377142857143 2.503885714285714 0.26537142857142854 0.29828571428571427 0.5153142857142856 0.5842285714285714 0.7556571428571428 0.8588571428571428l0 0.00034285714285714285c0.4930285714285714 0.564 0.9449142857142857 1.0810285714285714 1.4063999999999999 1.5613714285714286 0.4371428571428571 0.4549714285714286 0.7851428571428571 0.7693714285714285 1.0549714285714284 0.9747428571428571 1.418057142857143 -0.28937142857142856 3.1669714285714283 -1.7862857142857143 3.221828571428571 -5.225485714285714 0.02297142857142857 -1.4502857142857142 -0.34559999999999996 -3.6888685714285714 -1.020342857142857 -6.279634285714286 -0.6634285714285714 -2.5478742857142853 -1.5805714285714285 -5.276948571428571 -2.5546285714285712 -7.647085714285714 -0.44982857142857147 -1.0946399999999998 0.07268571428571428 -2.346685714285714 1.1674285714285715 -2.796582857142857 1.0943999999999998 -0.44989714285714283 2.3465142857142856 0.0727542857142857 2.796685714285714 1.16736 1.0464 2.5461942857142854 2.0249142857142854 5.458594285714286 2.7377142857142855 8.19624 0.7018285714285714 2.69472 1.190742857142857 5.385531428571428 1.1581714285714284 7.427931428571428 -0.08845714285714286 5.553942857142856 -3.6068571428571428 9.496457142857142 -8.017371428571428 9.496457142857142 -0.31679999999999997 0 -0.6298285714285714 -0.07028571428571428 -0.9164571428571427 -0.20571428571428568 -1.0457142857142856 -0.49474285714285715 -1.9751999999999996 -1.3652571428571427 -2.718514285714286 -2.1390857142857143 -0.5324571428571429 -0.5544 -1.0966285714285715 -1.1993142857142856 -1.62528 -1.8037714285714286 -0.22388571428571427 -0.2561142857142857 -0.4414285714285714 -0.5046857142857143 -0.6474857142857142 -0.7364571428571428 -0.7450285714285714 -0.8369142857142857 -1.3975542857142855 -1.5168 -1.9916914285714287 -1.9837714285714285 -0.29002285714285714 -0.228 -0.5192571428571429 -0.36719999999999997 -0.6910285714285714 -0.44537142857142853 -0.15133714285714284 -0.06857142857142857 -0.2208 -0.07337142857142856 -0.22597714285714282 -0.0737142857142857H18.121062857142856c-0.005211428571428572 0.00034285714285714285 -0.0746742857142857 0.005142857142857143 -0.22601142857142859 0.0737142857142857 -0.17177142857142855 0.07817142857142857 -0.40100571428571424 0.21737142857142855 -0.6910285714285714 0.44537142857142853 -0.594102857142857 0.4669714285714285 -1.246662857142857 1.1468571428571428 -1.9916571428571426 1.9837714285714285 -0.20588571428571428 0.23142857142857143 -0.4232228571428571 0.48000000000000004 -0.6468685714285715 0.7357714285714285l-0.0005485714285714285 0.0006857142857142857 -0.00013714285714285713 0c-0.5286514285714285 0.6044571428571429 -1.0927542857142856 1.2493714285714286 -1.62528 1.8037714285714286 -0.7434171428571428 0.7738285714285714 -1.672902857142857 1.644342857142857 -2.7186171428571426 2.1390857142857143 -0.28642285714285715 0.13542857142857143 -0.5993485714285713 0.20571428571428568 -0.9162171428571428 0.20571428571428568 -4.4105485714285715 0 -7.928941714285714 -3.942514285714285 -8.017450285714286 -9.496457142857142 -0.032544 -2.0423999999999998 0.45622628571428564 -4.733211428571428 1.1580034285714287 -7.427931428571428 0.7129439999999999 -2.7376457142857142 1.6915611428571427 -5.650045714285714 2.738029714285714 -8.19624 0.44989714285714283 -1.0946057142857142 1.7019771428571429 -1.6172571428571427 2.7966171428571425 -1.16736ZM10.285714285714285 28.285714285714285c0 -2.8403314285714285 2.3025257142857143 -5.142857142857142 5.142857142857142 -5.142857142857142 2.840297142857143 0 5.142857142857142 2.3025257142857143 5.142857142857142 5.142857142857142s-2.3025599999999997 5.142857142857142 -5.142857142857142 5.142857142857142c-2.8403314285714285 0 -5.142857142857142 -2.3025257142857143 -5.142857142857142 -5.142857142857142Zm22.285714285714285 -5.142857142857142c-2.8403314285714285 0 -5.142857142857142 2.3025257142857143 -5.142857142857142 5.142857142857142s2.3025257142857143 5.142857142857142 5.142857142857142 5.142857142857142c2.8402285714285713 0 5.142857142857142 -2.3025257142857143 5.142857142857142 -5.142857142857142s-2.302628571428571 -5.142857142857142 -5.142857142857142 -5.142857142857142Z" clip-rule="evenodd" stroke-width="3.4286"></path>
  </g>
</svg>