<svg xmlns="http://www.w3.org/2000/svg" fill="none" viewBox="0 0 48 48" id="Ethereum--Streamline-Core-Remix" height="48" width="48">
  <desc>
    Ethereum Streamline Icon: https://streamlinehq.com
  </desc>
  <g id="Free Remix/Money Shopping/ethereum--crypto-circle-payment-blokchain-finance-ethereum-eth-currency">
    <path id="Union" fill="#000000" fill-rule="evenodd" d="M24 0c0.6582171428571428 0 1.27992 0.30249874285714284 1.6861028571428571 0.8204159999999999L42.82114285714285 22.667554285714285c0.016457142857142854 0.020948571428571428 0.03291428571428571 0.042308571428571425 0.048685714285714284 0.06397714285714286 0.15634285714285714 0.2124685714285714 0.26845714285714284 0.4466742857142857 0.33668571428571425 0.6903428571428571 0.06857142857142857 0.2455885714285714 0.09257142857142857 0.5008114285714286 0.072 0.7531199999999999 -0.03325714285714285 0.40765714285714283 -0.1830857142857143 0.8077371428571428 -0.44948571428571427 1.14744L25.686102857142856 47.179542857142856C25.279919999999997 47.697599999999994 24.65821714285714 48 24 48c-0.6582171428571428 0 -1.27992 -0.3024 -1.6861028571428571 -0.8204571428571429l-17.142857142857142 -21.857108571428572c-0.29653714285714283 -0.3780685714285714 -0.44866285714285714 -0.8309142857142857 -0.45644571428571423 -1.2857485714285715 -0.007817142857142856 -0.4582285714285714 0.13093714285714286 -0.91848 0.4162285714285714 -1.3062171428571427 0.01563428571428571 -0.021291428571428572 0.031645714285714284 -0.042205714285714284 0.047965714285714285 -0.06277714285714285L22.31389714285714 0.8204159999999999C22.72008 0.30249874285714284 23.341782857142856 0 24 0Zm0 5.615108571428571 13.51782857142857 17.23518857142857L24 26.90561142857143l-13.517794285714285 -4.055314285714286L24 5.615108571428571Z" clip-rule="evenodd" stroke-width="3.4286"></path>
  </g>
</svg>