<svg xmlns="http://www.w3.org/2000/svg" fill="none" viewBox="0 0 48 48" id="Ethereum-Circle--Streamline-Core-Remix" height="48" width="48">
  <desc>
    Ethereum Circle Streamline Icon: https://streamlinehq.com
  </desc>
  <g id="Free Remix/Money Shopping/ethereum-circle--crypto-circle-payment-blockchain-finance-eth-currency">
    <path id="Union" fill="#000000" fill-rule="evenodd" d="M43.71771428571428 24.00342857142857c0 -10.889794285714286 -8.827885714285715 -19.717714285714287 -19.717645714285712 -19.717714285714287 -10.889794285714286 0 -19.717714285714287 8.827919999999999 -19.717714285714287 19.717714285714287 0 10.889828571428572 8.827919999999999 19.717714285714287 19.717714285714287 19.717714285714287 10.889759999999999 0 19.717645714285712 -8.827885714285715 19.717645714285712 -19.717714285714287ZM24.00006857142857 0C37.25691428571428 0 48.003428571428564 10.746685714285714 48.003428571428564 24.00342857142857c0 13.256571428571426 -10.746514285714285 24.00342857142857 -24.00336 24.00342857142857 -13.256708571428572 0 -24.003416784 -10.746857142857143 -24.003416784 -24.00342857142857C-0.0033482125714285713 10.746685714285714 10.74336 0 24.00006857142857 0Zm1.3170171428571429 9.188262857142856C24.991405714285712 8.797405714285714 24.508902857142857 8.571428571428571 24.00013714285714 8.571428571428571s-0.9912342857142856 0.22597714285714282 -1.3169485714285714 0.6168342857142857l-8.571428571428571 10.285714285714285c-0.2948571428571428 0.35382857142857144 -0.4349485714285714 0.8114399999999999 -0.38866285714285714 1.269702857142857 0.046285714285714284 0.45829714285714285 0.27504 0.87864 0.6346971428571428 1.1663657142857142l8.571428571428571 6.857142857142857c0.6260914285714285 0.50088 1.5157371428571427 0.50088 2.1418285714285714 0l8.571428571428571 -6.857142857142857c0.3596571428571428 -0.28772571428571425 0.5884114285714285 -0.7080685714285714 0.6346971428571428 -1.1663657142857142 0.04625142857142857 -0.45826285714285714 -0.09380571428571427 -0.9158742857142856 -0.38866285714285714 -1.269702857142857l-8.571428571428571 -10.285714285714285ZM14.175394285714287 29.52932571428571c0.7333371428571428 -0.9288685714285714 2.0808 -1.0874057142857143 3.009702857142857 -0.3540685714285714l6.81504 5.380285714285714 6.81504 -5.380285714285714c0.9289028571428571 -0.7333371428571428 2.276365714285714 -0.5748 3.009702857142857 0.3540685714285714 0.7334057142857142 0.9289028571428571 0.5746628571428571 2.276365714285714 -0.3540685714285714 3.009702857142857l-8.142857142857142 6.428742857142857c-0.7785257142857143 0.6144 -1.8771085714285713 0.6144 -2.6556342857142856 0l-8.142857142857142 -6.428742857142857c-0.9288685714285714 -0.7333371428571428 -1.0874057142857143 -2.0808 -0.3540685714285714 -3.009702857142857Z" clip-rule="evenodd" stroke-width="3.4286"></path>
  </g>
</svg>