<svg xmlns="http://www.w3.org/2000/svg" fill="none" viewBox="0 0 48 48" id="Euro--Streamline-Core-Remix" height="48" width="48">
  <desc>
    Euro Streamline Icon: https://streamlinehq.com
  </desc>
  <g id="Free Remix/Money Shopping/euro--exchange-payment-euro-forex-finance-foreign-currency">
    <path id="Union" fill="#000000" fill-rule="evenodd" d="M25.395359999999997 9.385337142857143c-2.6390742857142855 1.9373142857142858 -4.748708571428572 4.468388571428571 -6.052388571428571 7.328914285714285H29.142857142857142c1.1834742857142857 0 2.142857142857143 0.9594171428571429 2.142857142857143 2.142857142857143 0 1.1834742857142857 -0.9593828571428571 2.142857142857143 -2.142857142857143 2.142857142857143H18.058182857142857c-0.14729142857142855 0.9706971428571427 -0.20352 1.9611771428571427 -0.16025142857142854 2.9634171428571427 0.002674285714285714 0.06157714285714286 0.002674285714285714 0.12322285714285713 0 0.18476571428571428 -0.041382857142857145 0.9588 0.011657142857142856 1.91232 0.1512 2.8518171428571426H29.142857142857142c1.1834742857142857 0 2.142857142857143 0.9594171428571429 2.142857142857143 2.142857142857143 0 1.1834742857142857 -0.9593828571428571 2.142857142857143 -2.142857142857143 2.142857142857143H19.31485714285714c1.3137257142857142 2.931085714285714 3.4615542857142856 5.54952 6.145919999999999 7.52472 4.7200114285714285 3.4727999999999994 10.853965714285714 4.7787428571428565 16.583451428571426 2.4298285714285712 1.0950857142857142 -0.4491428571428571 2.3465142857142856 0.07474285714285714 2.795314285714286 1.1698285714285714 0.4491428571428571 1.0950857142857142 -0.07474285714285714 2.3465142857142856 -1.1698285714285714 2.795657142857143 -7.3511999999999995 3.0137142857142853 -15.048514285714285 1.2507428571428572 -20.74878857142857 -2.9434285714285715 -3.7187999999999994 -2.736 -6.6927771428571425 -6.5832 -8.213965714285713 -10.976605714285713H5.142857142857142c-1.1834742857142857 0 -2.142857142857143 -0.9593828571428571 -2.142857142857143 -2.142857142857143 0 -1.1834399999999998 0.9593828571428571 -2.142857142857143 2.142857142857143 -2.142857142857143h8.582434285714285c-0.11125714285714285 -0.9672685714285714 -0.15092571428571427 -1.9503085714285713 -0.11286857142857142 -2.9441142857142855 -0.03984 -1.0355314285714285 0.0024685714285714285 -2.055702857142857 0.12023999999999999 -3.055885714285714H5.142857142857142c-1.1834742857142857 0 -2.142857142857143 -0.9593828571428571 -2.142857142857143 -2.142857142857143 0 -1.1834399999999998 0.9593828571428571 -2.142857142857143 2.142857142857143 -2.142857142857143h9.583645714285714c1.5169371428571428 -4.332068571428571 4.453097142857143 -8.082514285714286 8.132708571428571 -10.783679999999999C28.528114285714285 1.7690708571428568 36.1584 -0.05243965714285714 43.52708571428571 2.3732194285714288c1.1238857142857142 0.37004228571428566 1.7351999999999999 1.581294857142857 1.3652571428571427 2.7054205714285713 -0.36994285714285713 1.1241257142857142 -1.5812571428571427 1.7354399999999999 -2.705485714285714 1.3653942857142856 -5.8751999999999995 -1.934057142857143 -12.079405714285713 -0.5178171428571429 -16.791497142857143 2.941302857142857Z" clip-rule="evenodd" stroke-width="3.4286"></path>
  </g>
</svg>