<svg xmlns="http://www.w3.org/2000/svg" fill="none" viewBox="0 0 48 48" id="Expand--Streamline-Core-Remix" height="48" width="48">
  <desc>
    Expand Streamline Icon: https://streamlinehq.com
  </desc>
  <g id="Free Remix/Interface Essential/expand--big-bigger-design-expand-larger-resize-size-square">
    <path id="Union" fill="#000000" fill-rule="evenodd" d="M5.947988571428572 5.947988571428572C6.18912 5.706891428571428 6.516137142857142 5.571428571428571 6.857142857142857 5.571428571428571h3.4285714285714284c1.1834742857142857 0 2.142857142857143 -0.9593828571428571 2.142857142857143 -2.142857142857143 0 -1.1834674285714284 -0.9593828571428571 -2.142857142857143 -2.142857142857143 -2.142857142857143H6.857142857142857c-1.477645714285714 0 -2.894742857142857 0.5869885714285714 -3.939596571428571 1.631832C1.8727028571428572 3.9623999999999997 1.2857142857142856 5.379497142857143 1.2857142857142856 6.857142857142857v3.4285714285714284c0 1.1834742857142857 0.9593897142857143 2.142857142857143 2.142857142857143 2.142857142857143 1.1834742857142857 0 2.142857142857143 -0.9593828571428571 2.142857142857143 -2.142857142857143V6.857142857142857c0 -0.3410057142857143 0.13546285714285713 -0.6680228571428571 0.37655999999999995 -0.9091542857142857ZM37.714285714285715 1.2857142857142856c-1.183542857142857 0 -2.142857142857143 0.9593897142857143 -2.142857142857143 2.142857142857143 0 1.1834742857142857 0.9593142857142857 2.142857142857143 2.142857142857143 2.142857142857143h3.4285714285714284c0.34114285714285714 0 0.6678857142857143 0.13546285714285713 0.9092571428571428 0.37655999999999995 0.24102857142857143 0.24113142857142858 0.3764571428571428 0.5681485714285713 0.3764571428571428 0.9091542857142857v3.4285714285714284c0 1.1834742857142857 0.9593142857142857 2.142857142857143 2.142857142857143 2.142857142857143s2.142857142857143 -0.9593828571428571 2.142857142857143 -2.142857142857143V6.857142857142857c0 -1.477645714285714 -0.5869714285714285 -2.894742857142857 -1.632 -3.939596571428571C44.0376 1.8727028571428572 42.620571428571424 1.2857142857142856 41.14285714285714 1.2857142857142856h-3.4285714285714284ZM16.71428571428571 3.4285714285714284c0 -1.1834674285714284 0.9593828571428571 -2.142857142857143 2.142857142857143 -2.142857142857143h10.285714285714285c1.1834742857142857 0 2.142857142857143 0.9593897142857143 2.142857142857143 2.142857142857143 0 1.1834742857142857 -0.9593828571428571 2.142857142857143 -2.142857142857143 2.142857142857143h-10.285714285714285c-1.1834742857142857 0 -2.142857142857143 -0.9593828571428571 -2.142857142857143 -2.142857142857143Zm30 15.428571428571427c0 -1.1834742857142857 -0.9593142857142857 -2.142857142857143 -2.142857142857143 -2.142857142857143s-2.142857142857143 0.9593828571428571 -2.142857142857143 2.142857142857143v10.285714285714285c0 1.1834742857142857 0.9593142857142857 2.142857142857143 2.142857142857143 2.142857142857143s2.142857142857143 -0.9593828571428571 2.142857142857143 -2.142857142857143v-10.285714285714285ZM3.4285714285714284 16.71428571428571c1.1834742857142857 0 2.142857142857143 0.9593828571428571 2.142857142857143 2.142857142857143v10.285714285714285c0 1.1834742857142857 -0.9593828571428571 2.142857142857143 -2.142857142857143 2.142857142857143 -1.1834674285714284 0 -2.142857142857143 -0.9593828571428571 -2.142857142857143 -2.142857142857143v-10.285714285714285c0 -1.1834742857142857 0.9593897142857143 -2.142857142857143 2.142857142857143 -2.142857142857143ZM46.71428571428571 37.714285714285715c0 -1.183542857142857 -0.9593142857142857 -2.142857142857143 -2.142857142857143 -2.142857142857143s-2.142857142857143 0.9593142857142857 -2.142857142857143 2.142857142857143v3.4285714285714284c0 0.34114285714285714 -0.13542857142857143 0.6678857142857143 -0.3764571428571428 0.9092571428571428 -0.24137142857142857 0.24102857142857143 -0.5681142857142857 0.3764571428571428 -0.9092571428571428 0.3764571428571428h-3.4285714285714284c-1.183542857142857 0 -2.142857142857143 0.9593142857142857 -2.142857142857143 2.142857142857143s0.9593142857142857 2.142857142857143 2.142857142857143 2.142857142857143h3.4285714285714284c1.4777142857142855 0 2.894742857142857 -0.5869714285714285 3.9394285714285715 -1.632 1.0450285714285714 -1.0446857142857142 1.632 -2.4617142857142853 1.632 -3.9394285714285715v-3.4285714285714284ZM3.4285714285714284 35.57142857142857c1.1834742857142857 0 2.142857142857143 0.9593142857142857 2.142857142857143 2.142857142857143v3.4285714285714284c0 0.34114285714285714 0.13546285714285713 0.6678857142857143 0.37655999999999995 0.9092571428571428 0.24113142857142858 0.24102857142857143 0.5681485714285713 0.3764571428571428 0.9091542857142857 0.3764571428571428h3.4285714285714284c1.1834742857142857 0 2.142857142857143 0.9593142857142857 2.142857142857143 2.142857142857143s-0.9593828571428571 2.142857142857143 -2.142857142857143 2.142857142857143H6.857142857142857c-1.477645714285714 0 -2.894742857142857 -0.5869714285714285 -3.939596571428571 -1.632C1.8727028571428572 44.0376 1.2857142857142856 42.620571428571424 1.2857142857142856 41.14285714285714v-3.4285714285714284c0 -1.183542857142857 0.9593897142857143 -2.142857142857143 2.142857142857143 -2.142857142857143Zm15.428571428571427 6.857142857142857c-1.1834742857142857 0 -2.142857142857143 0.9593142857142857 -2.142857142857143 2.142857142857143s0.9593828571428571 2.142857142857143 2.142857142857143 2.142857142857143h10.285714285714285c1.1834742857142857 0 2.142857142857143 -0.9593142857142857 2.142857142857143 -2.142857142857143s-0.9593828571428571 -2.142857142857143 -2.142857142857143 -2.142857142857143h-10.285714285714285ZM17.142857142857142 12c-2.8403314285714285 0 -5.142857142857142 2.3025257142857143 -5.142857142857142 5.142857142857142v13.714285714285714c0 2.8403314285714285 2.3025257142857143 5.142857142857142 5.142857142857142 5.142857142857142h13.714285714285714c2.8403314285714285 0 5.142857142857142 -2.3025257142857143 5.142857142857142 -5.142857142857142V17.142857142857142c0 -2.8403314285714285 -2.3025257142857143 -5.142857142857142 -5.142857142857142 -5.142857142857142H17.142857142857142Z" clip-rule="evenodd" stroke-width="3.4286"></path>
  </g>
</svg>