<svg xmlns="http://www.w3.org/2000/svg" fill="none" viewBox="0 0 48 48" id="Eye-Optic--Streamline-Core-Remix" height="48" width="48">
  <desc>
    Eye Optic Streamline Icon: https://streamlinehq.com
  </desc>
  <g id="Free Remix/Health/eye-optic--health-medical-eye-optic">
    <path id="Union" fill="#000000" fill-rule="evenodd" d="M14.799942857142856 3.4333028571428565c1.1283771428571427 -0.3568662857142857 2.332422857142857 0.26855999999999997 2.6893028571428568 1.3969371428571429l1.6621371428571428 5.2552457142857145c1.5090857142857141 -0.35437714285714284 3.12648 -0.5539542857142856 4.854994285714286 -0.5539542857142856 1.7273142857142858 0 3.3436114285714282 0.19930285714285714 4.851805714285715 0.5531999999999999l1.650925714285714 -5.2509942857142855c0.35496 -1.1289942857142858 1.5579085714285714 -1.756470857142857 2.686902857142857 -1.4015314285714284 1.1291314285714285 0.35496 1.7565599999999997 1.557942857142857 1.40136 2.686902857142857l-1.6894285714285715 5.373977142857142c2.807142857142857 1.3133485714285713 5.1251999999999995 3.144822857142857 6.982457142857143 5.047542857142857l4.449942857142857 -4.459611428571429c0.8358857142857142 -0.8377371428571428 2.192571428571428 -0.8392457142857143 3.0305142857142857 -0.0033257142857142856 0.8375999999999999 0.83592 0.8393142857142857 2.1927085714285712 0.0034285714285714284 3.030445714285714L42.66171428571428 19.830959999999997c0.9980571428571429 1.3693371428571428 1.7766857142857142 2.66568 2.350628571428571 3.7312457142857136 0.4210285714285714 0.7819885714285714 0.7368 1.44888 0.9517714285714286 1.9416685714285715 0.10731428571428571 0.2453142857142857 0.19268571428571427 0.4554514285714286 0.2554285714285714 0.6212228571428571 0.030514285714285713 0.08074285714285714 0.061028571428571425 0.16553142857142858 0.08708571428571428 0.24637714285714282 0.012685714285714286 0.03833142857142857 0.030857142857142854 0.09647999999999998 0.04834285714285714 0.16361142857142855 0.008571428571428572 0.03294857142857143 0.021942857142857142 0.08753142857142857 0.034628571428571425 0.1545942857142857l0.00034285714285714285 0.001337142857142857c0.008228571428571427 0.04248 0.03874285714285714 0.20273142857142856 0.03874285714285714 0.40796571428571426s-0.030514285714285713 0.36548571428571425 -0.03874285714285714 0.40796571428571426l-0.00034285714285714285 0.001337142857142857c-0.012685714285714286 0.06706285714285715 -0.026057142857142855 0.12168 -0.034628571428571425 0.15462857142857142 -0.017485714285714285 0.06709714285714286 -0.03565714285714285 0.12528 -0.04834285714285714 0.16361142857142855 -0.026057142857142855 0.08081142857142858 -0.05657142857142857 0.1656342857142857 -0.08708571428571428 0.2463428571428571 -0.06274285714285714 0.16577142857142854 -0.14811428571428573 0.3759085714285714 -0.2554285714285714 0.6212228571428571 -0.2149714285714286 0.4927885714285714 -0.5307428571428571 1.1596799999999998 -0.9517714285714286 1.9416685714285715 -0.8403428571428572 1.560377142857143 -2.119885714285714 3.6156685714285715 -3.8849142857142853 5.670411428571428 -3.523542857142857 4.1015999999999995 -9.136525714285714 8.360228571428571 -17.121051428571427 8.360228571428571s-13.597542857142855 -4.258628571428571 -17.121188571428572 -8.360228571428571C5.120159999999999 34.25142857142857 3.8407199999999997 32.19613714285714 3.000438857142857 30.635759999999998c-0.4211142857142857 -0.7819885714285714 -0.7368754285714285 -1.44888 -0.9519120000000001 -1.9416685714285715 -0.10704 -0.2453142857142857 -0.1926 -0.4554514285714286 -0.25523999999999997 -0.6212228571428571 -0.030504 -0.08070857142857142 -0.06111085714285714 -0.16553142857142858 -0.08728799999999999 -0.2463428571428571 -0.012414857142857142 -0.03833142857142857 -0.030596571428571424 -0.09651428571428572 -0.04810285714285714 -0.16361142857142855 -0.008595428571428572 -0.03294857142857143 -0.022169142857142856 -0.08756571428571429 -0.03492342857142857 -0.15462857142857142l-0.0002605714285714286 -0.0013714285714285714c-0.008088 -0.04248 -0.03858514285714285 -0.20273142857142856 -0.03858514285714285 -0.40793142857142856s0.030497142857142855 -0.36541714285714283 0.03858514285714285 -0.40793142857142856l0.0002605714285714286 -0.0013714285714285714c0.012754285714285715 -0.06706285714285715 0.026327999999999997 -0.12164571428571427 0.03492342857142857 -0.1545942857142857 0.017506285714285714 -0.06713142857142856 0.035688 -0.12528 0.04810285714285714 -0.16361142857142855 0.026177142857142857 -0.08084571428571428 0.056784 -0.1656342857142857 0.08728799999999999 -0.24637714285714282 0.06264 -0.16577142857142854 0.1482 -0.3759085714285714 0.25523999999999997 -0.6212228571428571 0.2150365714285714 -0.4927885714285714 0.5307977142857143 -1.1596799999999998 0.9519120000000001 -1.9416685714285715 0.5854354285714285 -1.0871314285714284 1.3840525714285714 -2.4145028571428573 2.411561142857143 -3.8145257142857143L0.6514285714285714 15.133234285714284c-0.8497779428571428 -0.82368 -0.8709233142857142 -2.180297142857143 -0.047228571428571425 -3.030068571428571 0.8236937142857143 -0.8497714285714285 2.180310857142857 -0.8709257142857143 3.030085714285714 -0.04724571428571429l4.555542857142857 4.415691428571429c1.8454628571428568 -1.8773142857142855 4.140342857142857 -3.6798514285714288 6.912205714285713 -4.977257142857143l-1.6989942857142855 -5.371748571428571c-0.35688 -1.1283771428571427 0.26855999999999997 -2.3323885714285715 1.3969028571428572 -2.6893028571428568ZM6.773794285714285 28.60374857142857c-0.32845714285714284 -0.6099428571428571 -0.5756571428571428 -1.125805714285714 -0.7447542857142857 -1.5047657142857143 0.16909714285714286 -0.37895999999999996 0.4162971428571428 -0.8948228571428571 0.7447542857142857 -1.5047314285714284 0.7304228571428572 -1.356342857142857 1.8427885714285712 -3.1408114285714284 3.362262857142857 -4.909577142857143 3.0453599999999996 -3.544971428571428 7.572068571428571 -6.867428571428571 13.87032 -6.867428571428571 6.298251428571428 0 10.824822857142856 3.3224571428571426 13.870422857142856 6.867428571428571 1.5191999999999999 1.768765714285714 2.631771428571428 3.5532342857142853 3.3620571428571426 4.909577142857143 0.32845714285714284 0.6099085714285714 0.5756571428571428 1.1257714285714284 0.7446857142857143 1.5047314285714284 -0.16902857142857142 0.37895999999999996 -0.4162285714285714 0.8948228571428571 -0.7446857142857143 1.5047657142857143 -0.7302857142857142 1.3563085714285714 -1.8428571428571427 3.1408114285714284 -3.3620571428571426 4.909577142857143 -3.0456 3.545074285714285 -7.572171428571427 6.86736 -13.870422857142856 6.86736 -6.298251428571428 0 -10.824959999999999 -3.322285714285714 -13.87032 -6.86736 -1.5194742857142858 -1.768765714285714 -2.63184 -3.553268571428571 -3.362262857142857 -4.909577142857143Zm9.46608 -1.6124571428571428c0.029177142857142856 -4.261851428571428 3.5500799999999995 -7.675439999999999 7.813199999999999 -7.675439999999999s7.737291428571428 3.4135885714285714 7.708114285714286 7.675439999999999c-0.029177142857142856 4.261817142857143 -3.5500799999999995 7.675337142857143 -7.813199999999999 7.675337142857143 -4.263154285714285 0 -7.737325714285714 -3.4135199999999997 -7.708114285714286 -7.675337142857143Z" clip-rule="evenodd" stroke-width="3.4286"></path>
  </g>
</svg>