<svg xmlns="http://www.w3.org/2000/svg" fill="none" viewBox="0 0 48 48" id="Face-Scan-1--Streamline-Core-Remix" height="48" width="48">
  <desc>
    Face Scan 1 Streamline Icon: https://streamlinehq.com
  </desc>
  <g id="Free Remix/Interface Essential/face-scan-1--identification-angle-secure-human-id-person-face-security-brackets">
    <path id="Union" fill="#000000" fill-rule="evenodd" d="M6.857142857142857 5.571428571428571c-0.3410057142857143 0 -0.6680228571428571 0.13546285714285713 -0.9091542857142857 0.37655999999999995C5.706891428571428 6.18912 5.571428571428571 6.516137142857142 5.571428571428571 6.857142857142857v6.857142857142857c0 1.1834742857142857 -0.9593828571428571 2.142857142857143 -2.142857142857143 2.142857142857143 -1.1834674285714284 0 -2.142857142857143 -0.9593828571428571 -2.142857142857143 -2.142857142857143V6.857142857142857c0 -1.477645714285714 0.5869885714285714 -2.894742857142857 1.631832 -3.939596571428571C3.9623999999999997 1.8727028571428572 5.379497142857143 1.2857142857142856 6.857142857142857 1.2857142857142856h6.857142857142857c1.1834742857142857 0 2.142857142857143 0.9593897142857143 2.142857142857143 2.142857142857143 0 1.1834742857142857 -0.9593828571428571 2.142857142857143 -2.142857142857143 2.142857142857143H6.857142857142857Zm27.428571428571427 -4.285714285714286c-1.1834742857142857 0 -2.142857142857143 0.9593897142857143 -2.142857142857143 2.142857142857143 0 1.1834742857142857 0.9593828571428571 2.142857142857143 2.142857142857143 2.142857142857143h6.857142857142857c0.34114285714285714 0 0.6678857142857143 0.13546285714285713 0.9092571428571428 0.37655999999999995 0.24102857142857143 0.24113142857142858 0.3764571428571428 0.5681485714285713 0.3764571428571428 0.9091542857142857v6.857142857142857c0 1.1834742857142857 0.9593142857142857 2.142857142857143 2.142857142857143 2.142857142857143s2.142857142857143 -0.9593828571428571 2.142857142857143 -2.142857142857143V6.857142857142857c0 -1.477645714285714 -0.5869714285714285 -2.894742857142857 -1.632 -3.939596571428571C44.0376 1.8727028571428572 42.620571428571424 1.2857142857142856 41.14285714285714 1.2857142857142856h-6.857142857142857ZM46.71428571428571 34.285714285714285c0 -1.1834742857142857 -0.9593142857142857 -2.142857142857143 -2.142857142857143 -2.142857142857143s-2.142857142857143 0.9593828571428571 -2.142857142857143 2.142857142857143v6.857142857142857c0 0.34114285714285714 -0.13542857142857143 0.6678857142857143 -0.3764571428571428 0.9092571428571428 -0.24137142857142857 0.24102857142857143 -0.5681142857142857 0.3764571428571428 -0.9092571428571428 0.3764571428571428h-6.857142857142857c-1.1834742857142857 0 -2.142857142857143 0.9593142857142857 -2.142857142857143 2.142857142857143s0.9593828571428571 2.142857142857143 2.142857142857143 2.142857142857143h6.857142857142857c1.4777142857142855 0 2.894742857142857 -0.5869714285714285 3.9394285714285715 -1.632 1.0450285714285714 -1.0446857142857142 1.632 -2.4617142857142853 1.632 -3.9394285714285715v-6.857142857142857Zm-41.14285714285714 0c0 -1.1834742857142857 -0.9593828571428571 -2.142857142857143 -2.142857142857143 -2.142857142857143 -1.1834674285714284 0 -2.142857142857143 0.9593828571428571 -2.142857142857143 2.142857142857143v6.857142857142857c0 1.4777142857142855 0.5869885714285714 2.894742857142857 1.631832 3.9394285714285715 1.0448537142857142 1.0450285714285714 2.461950857142857 1.632 3.939596571428571 1.632h6.857142857142857c1.1834742857142857 0 2.142857142857143 -0.9593142857142857 2.142857142857143 -2.142857142857143s-0.9593828571428571 -2.142857142857143 -2.142857142857143 -2.142857142857143H6.857142857142857c-0.3410057142857143 0 -0.6680228571428571 -0.13542857142857143 -0.9091542857142857 -0.3764571428571428 -0.24109714285714282 -0.24137142857142857 -0.37655999999999995 -0.5681142857142857 -0.37655999999999995 -0.9092571428571428v-6.857142857142857ZM24 12c1.4201485714285715 0 2.571428571428571 1.1512799999999999 2.571428571428571 2.571428571428571v12c0 1.4201485714285715 -1.1512799999999999 2.571428571428571 -2.571428571428571 2.571428571428571H18.857142857142858c-1.4201485714285715 0 -2.571428571428571 -1.1512799999999999 -2.571428571428571 -2.571428571428571S17.436994285714285 24 18.857142857142858 24h2.571428571428571V14.571428571428571c0 -1.4201485714285715 1.1512799999999999 -2.571428571428571 2.571428571428571 -2.571428571428571ZM17.19953142857143 31.564182857142857c-1.0296685714285714 -0.9780685714285715 -2.6572799999999996 -0.9362399999999999 -3.6353485714285716 0.09342857142857142 -0.9780685714285715 1.0296685714285714 -0.9362399999999999 2.657245714285714 0.09342857142857142 3.6354171428571425 2.7908571428571425 2.6509714285714283 6.493131428571428 4.129028571428571 10.34238857142857 4.129028571428571s7.551531428571428 -1.4780571428571427 10.342285714285714 -4.129028571428571c1.029942857142857 -0.9781714285714285 1.0717714285714284 -2.6057485714285713 0.0936 -3.6354171428571425 -0.9781371428571428 -1.0296685714285714 -2.6057485714285713 -1.071497142857143 -3.6354171428571425 -0.09342857142857142C28.965394285714286 33.30730285714285 26.531005714285712 34.2792 24 34.2792s-4.965394285714285 -0.9718971428571428 -6.8004685714285715 -2.715017142857143ZM13.714285714285714 11.142857142857142c1.8935314285714284 0 3.4285714285714284 1.53504 3.4285714285714284 3.4285714285714284s-1.53504 3.4285714285714284 -3.4285714285714284 3.4285714285714284 -3.4285714285714284 -1.53504 -3.4285714285714284 -3.4285714285714284 1.53504 -3.4285714285714284 3.4285714285714284 -3.4285714285714284Zm17.142857142857142 3.4285714285714284c0 1.8935314285714284 1.535005714285714 3.4285714285714284 3.4285714285714284 3.4285714285714284 1.8936 0 3.4285714285714284 -1.53504 3.4285714285714284 -3.4285714285714284s-1.5349714285714284 -3.4285714285714284 -3.4285714285714284 -3.4285714285714284c-1.893565714285714 0 -3.4285714285714284 1.53504 -3.4285714285714284 3.4285714285714284Z" clip-rule="evenodd" stroke-width="3.4286"></path>
  </g>
</svg>