<svg xmlns="http://www.w3.org/2000/svg" fill="none" viewBox="0 0 48 48" id="Facebook-1--Streamline-Core-Remix" height="48" width="48">
  <desc>
    Facebook 1 Streamline Icon: https://streamlinehq.com
  </desc>
  <g id="Free Remix/Computer Devices/facebook-1--media-facebook-social">
    <path id="Union" fill="#000000" fill-rule="evenodd" d="M5.947988571428572 5.947988571428572C6.18912 5.706891428571428 6.516137142857142 5.571428571428571 6.857142857142857 5.571428571428571h34.285714285714285c0.34114285714285714 0 0.6678857142857143 0.13546285714285713 0.9092571428571428 0.37655999999999995 0.24102857142857143 0.24113142857142858 0.3764571428571428 0.5681485714285713 0.3764571428571428 0.9091542857142857v34.285714285714285c0 0.34114285714285714 -0.13542857142857143 0.6678857142857143 -0.3764571428571428 0.9092571428571428 -0.24137142857142857 0.24102857142857143 -0.5681142857142857 0.3764571428571428 -0.9092571428571428 0.3764571428571428H30.857142857142854V30.89142857142857h3.291428571428571c0.5547428571428571 0 1.0865142857142858 -0.22035428571428567 1.4787428571428571 -0.6125485714285714 0.3922285714285714 -0.3922285714285714 0.6126857142857143 -0.9242057142857143 0.6126857142857143 -1.47888v-2.64c0 -0.27466285714285715 -0.05417142857142857 -0.5466171428571428 -0.15908571428571427 -0.8003657142857142 -0.10525714285714285 -0.25374857142857143 -0.2592 -0.4842857142857142 -0.4536 -0.67848 -0.19405714285714284 -0.19422857142857142 -0.42479999999999996 -0.3482742857142857 -0.6785142857142856 -0.4533942857142857 -0.25371428571428567 -0.10508571428571428 -0.5256 -0.15918857142857143 -0.8002285714285714 -0.15918857142857143h-3.1542857142857144v-2.365714285714285c0 -2.88 1.3028571428571427 -2.88 2.6057142857142854 -2.88h2.537142857142857c0.27599999999999997 0.011382857142857142 0.5509714285714286 -0.038022857142857136 0.8057142857142856 -0.14465142857142857 0.25474285714285716 -0.10662857142857142 0.48308571428571423 -0.2679428571428571 0.6685714285714286 -0.4724914285714285 0.1992 -0.1896685714285714 0.3569142857142857 -0.4186628571428571 0.46319999999999995 -0.6724114285714285 0.10628571428571428 -0.25374857142857143 0.15874285714285713 -0.5268 0.15394285714285713 -0.8018742857142857v-2.537142857142857c0.009257142857142858 -0.2791885714285714 -0.03668571428571428 -0.5574514285714286 -0.13542857142857143 -0.8188457142857142 -0.09839999999999999 -0.2614285714285714 -0.24719999999999998 -0.50088 -0.43851428571428575 -0.7046742857142857 -0.19097142857142857 -0.20375999999999997 -0.42034285714285713 -0.36791999999999997 -0.6747428571428571 -0.48301714285714287S36.450514285714284 12.008845714285714 36.17142857142857 12c-0.3730285714285714 0 -0.756 -0.004045714285714285 -1.1454857142857142 -0.008125714285714286 -3.4269942857142857 -0.03610285714285714 -7.372148571428571 -0.07765714285714286 -9.809382857142856 2.573725714285714 -2.1591085714285714 2.3488457142857144 -2.1079199999999996 5.213965714285714 -2.0556 8.143062857142857 0.00809142857142857 0.4523314285714285 0.01618285714285714 0.9062057142857142 0.01618285714285714 1.3599085714285712h-3.051428571428571c-0.2775085714285714 -0.00456 -0.5531657142857143 0.04618285714285714 -0.8108914285714285 0.1492457142857143 -0.2577257142857143 0.10306285714285714 -0.49234285714285714 0.2563885714285714 -0.6901714285714285 0.45106285714285715 -0.19786285714285712 0.1946742857142857 -0.35499428571428565 0.4267542857142857 -0.46224 0.6827657142857143 -0.10724571428571429 0.25601142857142856 -0.16244571428571428 0.5308114285714286 -0.16241142857142857 0.8083542857142857v2.64c-0.00003428571428571428 0.27757714285714286 0.05516571428571428 0.5523428571428571 0.16241142857142857 0.8083542857142857 0.10724571428571429 0.25601142857142856 0.2643771428571428 0.4880914285714285 0.46224 0.6827657142857143 0.1978285714285714 0.1946742857142857 0.4324457142857142 0.34800000000000003 0.6901714285714285 0.45106285714285715 0.2577257142857143 0.10306285714285714 0.5333828571428572 0.15380571428571427 0.8108914285714285 0.1492457142857143h3.051428571428571v11.537142857142857H6.857142857142857c-0.3410057142857143 0 -0.6680228571428571 -0.13542857142857143 -0.9091542857142857 -0.3764571428571428 -0.24109714285714282 -0.24137142857142857 -0.37655999999999995 -0.5681142857142857 -0.37655999999999995 -0.9092571428571428V6.857142857142857c0 -0.3410057142857143 0.13546285714285713 -0.6680228571428571 0.37655999999999995 -0.9091542857142857ZM6.857142857142857 1.2857142857142856c-1.477645714285714 0 -2.894742857142857 0.5869885714285714 -3.939596571428571 1.631832C1.8727028571428572 3.9623999999999997 1.2857142857142856 5.379497142857143 1.2857142857142856 6.857142857142857v34.285714285714285c0 1.4777142857142855 0.5869885714285714 2.894742857142857 1.631832 3.9394285714285715 1.0448537142857142 1.0450285714285714 2.461950857142857 1.632 3.939596571428571 1.632h34.285714285714285c1.4777142857142855 0 2.894742857142857 -0.5869714285714285 3.9394285714285715 -1.632 1.0450285714285714 -1.0446857142857142 1.632 -2.4617142857142853 1.632 -3.9394285714285715V6.857142857142857c0 -1.477645714285714 -0.5869714285714285 -2.894742857142857 -1.632 -3.939596571428571C44.0376 1.8727028571428572 42.620571428571424 1.2857142857142856 41.14285714285714 1.2857142857142856H6.857142857142857Z" clip-rule="evenodd" stroke-width="3.4286"></path>
  </g>
</svg>