<svg xmlns="http://www.w3.org/2000/svg" fill="none" viewBox="0 0 48 48" id="Factorial--Streamline-Core-Remix" height="48" width="48">
  <desc>
    Factorial Streamline Icon: https://streamlinehq.com
  </desc>
  <g id="Free Remix/Interface Essential/factorial--interface-math-number-factorial-sign-mathematics">
    <path id="Union" fill="#000000" fill-rule="evenodd" d="M3.4285714285714284 1.2857142857142856c1.1834742857142857 0 2.142857142857143 0.9593897142857143 2.142857142857143 2.142857142857143v2.8721142857142854C8.464628571428571 3.2141417142857143 12.578537142857142 1.2857142857142856 17.142857142857142 1.2857142857142856 25.900525714285713 1.2857142857142856 33 8.38518857142857 33 17.142857142857142v27.428571428571427c0 1.183542857142857 -0.9593828571428571 2.142857142857143 -2.142857142857143 2.142857142857143s-2.142857142857143 -0.9593142857142857 -2.142857142857143 -2.142857142857143V17.142857142857142c0 -6.39072 -5.180708571428571 -11.571428571428571 -11.571428571428571 -11.571428571428571S5.571428571428571 10.752137142857142 5.571428571428571 17.142857142857142v27.428571428571427c0 1.183542857142857 -0.9593828571428571 2.142857142857143 -2.142857142857143 2.142857142857143 -1.1834674285714284 0 -2.142857142857143 -0.9593142857142857 -2.142857142857143 -2.142857142857143V3.4285714285714284C1.2857142857142856 2.245104 2.245104 1.2857142857142856 3.4285714285714284 1.2857142857142856ZM45.857142857142854 3.4285714285714284c0 -1.1834674285714284 -0.9593142857142857 -2.142857142857143 -2.142857142857143 -2.142857142857143s-2.142857142857143 0.9593897142857143 -2.142857142857143 2.142857142857143v30.857142857142854c0 1.183542857142857 0.9593142857142857 2.142857142857143 2.142857142857143 2.142857142857143s2.142857142857143 -0.9593142857142857 2.142857142857143 -2.142857142857143V3.4285714285714284Zm-5.142857142857142 40.285714285714285c0 1.6566857142857143 1.3433142857142857 3 3 3s3 -1.3433142857142857 3 -3 -1.3433142857142857 -3 -3 -3 -3 1.3433142857142857 -3 3Z" clip-rule="evenodd" stroke-width="3.4286"></path>
  </g>
</svg>