<svg xmlns="http://www.w3.org/2000/svg" fill="none" viewBox="0 0 48 48" id="Fahrenheit--Streamline-Core-Remix" height="48" width="48">
  <desc>
    Fahrenheit Streamline Icon: https://streamlinehq.com
  </desc>
  <g id="Free Remix/Interface Essential/fahrenheit--degrees-temperature-fahrenheit-degree-weather">
    <path id="Union" fill="#000000" fill-rule="evenodd" d="M9.856799999999998 4.200068571428571c-1.7041714285714284 0 -3.0857142857142854 1.381542857142857 -3.0857142857142854 3.0857142857142854 0 1.704205714285714 1.381542857142857 3.0857142857142854 3.0857142857142854 3.0857142857142854 1.704205714285714 0 3.0857142857142854 -1.3815085714285715 3.0857142857142854 -3.0857142857142854 0 -1.7041714285714284 -1.3815085714285715 -3.0857142857142854 -3.0857142857142854 -3.0857142857142854Zm-7.199993142857142 3.0857142857142854C2.656806857142857 3.3093462857142857 5.880342857142857 0.08579794285714284 9.856799999999998 0.08579794285714284c3.9764571428571425 0 7.2 3.2235483428571428 7.2 7.199984914285714 0 3.9764571428571425 -3.2235428571428573 7.2 -7.2 7.2 -3.9764571428571425 0 -7.199993142857142 -3.2235428571428573 -7.199993142857142 -7.2Zm17.914278857142858 -1.7142857142857142c0 -1.1834399999999998 0.9593828571428571 -2.142857142857143 2.142857142857143 -2.142857142857143h20.57142857142857c1.183542857142857 0 2.142857142857143 0.9594171428571429 2.142857142857143 2.142857142857143 0 1.1834742857142857 -0.9593142857142857 2.142857142857143 -2.142857142857143 2.142857142857143h-18.428571428571427v14.142857142857142h11.571428571428571c1.183542857142857 0 2.142857142857143 0.9594171428571429 2.142857142857143 2.142857142857143 0 1.1834742857142857 -0.9593142857142857 2.142857142857143 -2.142857142857143 2.142857142857143h-11.571428571428571V45.857142857142854c0 1.183542857142857 -0.9593828571428571 2.142857142857143 -2.142857142857143 2.142857142857143s-2.142857142857143 -0.9593142857142857 -2.142857142857143 -2.142857142857143V5.571497142857142Z" clip-rule="evenodd" stroke-width="3.4286"></path>
  </g>
</svg>