<svg xmlns="http://www.w3.org/2000/svg" fill="none" viewBox="0 0 48 48" id="Figma--Streamline-Core-Remix" height="48" width="48">
  <desc>
    Figma Streamline Icon: https://streamlinehq.com
  </desc>
  <g id="Free Remix/Computer Devices/figma">
    <path id="Union" fill="#000000" fill-rule="evenodd" d="M6.2410628571428575 9.165874285714285c0 -5.063657142857143 4.104925714285714 -9.168594709714286 9.168617142857142 -9.168594709714286h17.17902857142857C37.652228571428566 -0.0024359314285714285 41.75691428571428 4.1023885714285715 41.75691428571428 9.165874285714285c0 2.937702857142857 -1.3817142857142857 5.552674285714285 -3.530742857142857 7.230651428571428 2.157942857142857 1.8250628571428569 3.5276571428571426 4.552388571428571 3.5276571428571426 7.5996685714285706 0 5.494834285714285 -4.4544 9.949234285714285 -9.949131428571429 9.949234285714285 -2.10504 0 -4.057405714285714 -0.6537257142857142 -5.665131428571429 -1.7693142857142856v5.8755428571428565c0 5.494971428571429 -4.454434285714285 9.949371428571428 -9.949268571428572 9.949371428571428h-0.7806171428571428c-5.0636914285714285 0 -9.168617142857142 -4.105028571428571 -9.168617142857142 -9.168685714285713 0 -2.938285714285714 1.3821942857142857 -5.553771428571428 3.5318057142857144 -7.231714285714284 -2.1600342857142856 -1.8250285714285712 -3.5318057142857144 -4.553897142857142 -3.5318057142857144 -7.603165714285714 0 -3.0483085714285716 1.3709142857142855 -5.776422857142856 3.529782857142857 -7.601451428571427 -2.1484799999999997 -1.6780114285714285 -3.529782857142857 -4.292777142857142 -3.529782857142857 -7.230137142857142Zm9.169097142857142 4.912491428571428c-0.00017142857142857143 0 -0.00030857142857142856 0 -0.00047999999999999996 0.00003428571428571428v-0.029622857142857142c-2.696742857142857 0 -4.882902857142857 -2.18616 -4.882902857142857 -4.882902857142857s2.18616 -4.882868571428571 4.882902857142857 -4.882868571428571h6.449142857142856V14.048228571428572H16.190297142857144c-0.03606857142857143 0 -0.07210285714285714 0.00017142857142857143 -0.10810285714285714 0.0005485714285714285h-0.6720342857142857v0.02958857142857143ZM31.660114285714283 18.334491428571425c-3.061062857142857 0.07669714285714285 -5.518937142857143 2.5821599999999996 -5.518937142857143 5.661702857142857 0 3.127885714285714 2.535668571428571 5.66352 5.66352 5.66352 3.1279885714285713 0 5.663417142857142 -2.5356342857142855 5.663417142857142 -5.66352 0 -3.079542857142857 -2.4576 -5.585005714285714 -5.5188 -5.661702857142857H31.660114285714283ZM15.409679999999998 33.94944c-2.696742857142857 0 -4.882902857142857 2.1859885714285716 -4.882902857142857 4.882902857142857 0 2.696571428571428 2.18616 4.882971428571428 4.882902857142857 4.882971428571428h0.7806171428571428c3.127885714285714 0 5.6635542857142855 -2.5357714285714286 5.6635542857142855 -5.663657142857143V33.94944H15.409679999999998Z" clip-rule="evenodd" stroke-width="3.4286"></path>
  </g>
</svg>