<svg xmlns="http://www.w3.org/2000/svg" fill="none" viewBox="0 0 48 48" id="File-Delete-Alternate--Streamline-Core-Remix" height="48" width="48">
  <desc>
    File Delete Alternate Streamline Icon: https://streamlinehq.com
  </desc>
  <g id="Free Remix/Interface Essential/file-delete-alternate--file-common-delete-cross">
    <path id="Union" fill="#000000" fill-rule="evenodd" d="M11.571428571428571 4.285714285714286c-0.3410057142857143 0 -0.6680228571428571 0.13546285714285713 -0.9091542857142857 0.37655999999999995C10.421177142857141 4.903405714285714 10.285714285714285 5.230422857142856 10.285714285714285 5.571428571428571v16.285714285714285C10.285714285714285 23.04061714285714 9.326331428571429 24 8.142857142857142 24s-2.142857142857143 -0.9593828571428571 -2.142857142857143 -2.142857142857143v-16.285714285714285c0 -1.477645714285714 0.5869714285714285 -2.894749714285714 1.6318285714285712 -3.939596571428571C8.676685714285714 0.5869885714285714 10.093782857142857 0 11.571428571428571 0h22.285714285714285c0.5684571428571429 0 1.1132571428571427 0.2257649142857143 1.5150857142857141 0.6276274285714285l12 12.000006857142855c0.40217142857142857 0.4018628571428571 0.6277714285714285 0.946902857142857 0.6277714285714285 1.515222857142857v28.285714285714285c0 1.4777142857142855 -0.5869714285714285 2.894742857142857 -1.632 3.9394285714285715 -1.0446857142857142 1.0450285714285714 -2.4617142857142853 1.632 -3.9394285714285715 1.632h-16.285714285714285C24.959382857142856 48 24 47.040685714285715 24 45.857142857142854s0.9593828571428571 -2.142857142857143 2.142857142857143 -2.142857142857143h16.285714285714285c0.34114285714285714 0 0.6678857142857143 -0.13542857142857143 0.9092571428571428 -0.3764571428571428 0.24102857142857143 -0.24137142857142857 0.3764571428571428 -0.5681142857142857 0.3764571428571428 -0.9092571428571428V15.030445714285715L32.96955428571429 4.285714285714286H11.571428571428571Zm7.389702857142858 24.753154285714285c1.0041942857142856 1.0041942857142856 1.0041942857142856 2.6323542857142854 0 3.636548571428571L13.493691428571427 38.14285714285714l5.46744 5.467542857142857c1.0041942857142856 1.0042285714285712 1.0041942857142856 2.6321142857142856 0 3.636342857142857 -1.0041942857142856 1.0042285714285712 -2.6323542857142854 1.0042285714285712 -3.636548571428571 0L9.857142857142856 41.77954285714286l-5.46744 5.4672c-1.0042011428571427 1.0042285714285712 -2.6323405714285713 1.0042285714285712 -3.636545142857143 0 -1.004208 -1.0042285714285712 -1.0042100571428572 -2.6321142857142856 -0.00000685714285714286 -3.636342857142857L6.220594285714285 38.14285714285714 0.7531508571428571 32.675417142857135c-1.0042031999999999 -1.0041942857142856 -1.0042011428571427 -2.6323542857142854 0.00000685714285714286 -3.636548571428571 1.0042045714285714 -1.0041942857142856 2.632344 -1.0041942857142856 3.636545142857143 0L9.857142857142856 34.50617142857143l5.46744 -5.467302857142857c1.0041942857142856 -1.0041942857142856 2.6323542857142854 -1.0041942857142856 3.636548571428571 0Z" clip-rule="evenodd" stroke-width="3.4286"></path>
  </g>
</svg>