<svg xmlns="http://www.w3.org/2000/svg" fill="none" viewBox="0 0 48 48" id="File-Add-Alternate--Streamline-Core-Remix" height="48" width="48">
  <desc>
    File Add Alternate Streamline Icon: https://streamlinehq.com
  </desc>
  <g id="Free Remix/Interface Essential/file-add-alternate--file-common-add">
    <path id="Union" fill="#000000" fill-rule="evenodd" d="M11.571428571428571 4.285714285714286c-0.3410057142857143 0 -0.6680228571428571 0.13546285714285713 -0.9091542857142857 0.37655999999999995C10.421177142857141 4.903405714285714 10.285714285714285 5.230422857142856 10.285714285714285 5.571428571428571v12.857142857142856C10.285714285714285 19.612045714285713 9.326331428571429 20.57142857142857 8.142857142857142 20.57142857142857s-2.142857142857143 -0.9593828571428571 -2.142857142857143 -2.142857142857143v-12.857142857142856c0 -1.477645714285714 0.5869714285714285 -2.894749714285714 1.6318285714285712 -3.939596571428571C8.676685714285714 0.5869885714285714 10.093782857142857 0 11.571428571428571 0h22.285714285714285c0.5684571428571429 0 1.1132571428571427 0.2257649142857143 1.5150857142857141 0.6276274285714285l12 12.000006857142855c0.40217142857142857 0.4018628571428571 0.6277714285714285 0.946902857142857 0.6277714285714285 1.515222857142857v28.285714285714285c0 1.4777142857142855 -0.5869714285714285 2.894742857142857 -1.632 3.9394285714285715 -1.0446857142857142 1.0450285714285714 -2.4617142857142853 1.632 -3.9394285714285715 1.632h-16.285714285714285C24.959382857142856 48 24 47.040685714285715 24 45.857142857142854s0.9593828571428571 -2.142857142857143 2.142857142857143 -2.142857142857143h16.285714285714285c0.34114285714285714 0 0.6678857142857143 -0.13542857142857143 0.9092571428571428 -0.3764571428571428 0.24102857142857143 -0.24137142857142857 0.3764571428571428 -0.5681142857142857 0.3764571428571428 -0.9092571428571428V15.030445714285715L32.96955428571429 4.285714285714286H11.571428571428571ZM12 24c1.4201485714285715 0 2.571428571428571 1.1512799999999999 2.571428571428571 2.571428571428571v6.857142857142857h6.857142857142857c1.4201485714285715 0 2.571428571428571 1.1513142857142855 2.571428571428571 2.571428571428571s-1.1512799999999999 2.571428571428571 -2.571428571428571 2.571428571428571h-6.857142857142857v6.857142857142857c0 1.4201142857142857 -1.1512799999999999 2.571428571428571 -2.571428571428571 2.571428571428571s-2.571428571428571 -1.1513142857142855 -2.571428571428571 -2.571428571428571v-6.857142857142857h-6.857142857142857c-1.4201622857142857 0 -2.571428571428571 -1.1513142857142855 -2.571428571428571 -2.571428571428571s1.1512662857142855 -2.571428571428571 2.571428571428571 -2.571428571428571h6.857142857142857v-6.857142857142857c0 -1.4201485714285715 1.1512799999999999 -2.571428571428571 2.571428571428571 -2.571428571428571Z" clip-rule="evenodd" stroke-width="3.4286"></path>
  </g>
</svg>