<svg xmlns="http://www.w3.org/2000/svg" fill="none" viewBox="0 0 48 48" id="File-Remove-Alternate--Streamline-Core-Remix" height="48" width="48">
  <desc>
    File Remove Alternate Streamline Icon: https://streamlinehq.com
  </desc>
  <g id="Free Remix/Interface Essential/file-remove-alternate--file-common-remove-minus-subtract">
    <path id="Union" fill="#000000" fill-rule="evenodd" d="M10.662274285714286 4.662274285714286c0.24113142857142858 -0.24109714285714282 0.5681485714285713 -0.37655999999999995 0.9091542857142857 -0.37655999999999995h21.39812571428571L43.714285714285715 15.030445714285715V42.42857142857142c0 0.34114285714285714 -0.13542857142857143 0.6678857142857143 -0.3764571428571428 0.9092571428571428 -0.24137142857142857 0.24102857142857143 -0.5681142857142857 0.3764571428571428 -0.9092571428571428 0.3764571428571428h-26.57142857142857c-1.1834742857142857 0 -2.142857142857143 0.9593142857142857 -2.142857142857143 2.142857142857143s0.9593828571428571 2.142857142857143 2.142857142857143 2.142857142857143h26.57142857142857c1.4777142857142855 0 2.894742857142857 -0.5869714285714285 3.9394285714285715 -1.632 1.0450285714285714 -1.0446857142857142 1.632 -2.4617142857142853 1.632 -3.9394285714285715v-28.285714285714285c0 -0.5683199999999999 -0.22559999999999997 -1.11336 -0.6277714285714285 -1.515222857142857l-12 -12.000006857142855C34.9704 0.2257649142857143 34.4256 0 33.857142857142854 0h-22.285714285714285c-1.477645714285714 0 -2.894742857142857 0.5869885714285714 -3.9395999999999995 1.631832C6.586971428571428 2.676678857142857 6 4.093782857142857 6 5.571428571428571v21.428571428571427c0 1.1834742857142857 0.9593828571428571 2.142857142857143 2.142857142857143 2.142857142857143S10.285714285714285 28.183474285714283 10.285714285714285 27v-21.428571428571427c0 -0.3410057142857143 0.13546285714285713 -0.6680228571428571 0.37655999999999995 -0.9091542857142857ZM2.571428571428571 33.42857142857142c-1.4201622857142857 0 -2.571428571428571 1.1513142857142855 -2.571428571428571 2.571428571428571s1.1512662857142855 2.571428571428571 2.571428571428571 2.571428571428571h17.142857142857142c1.4201485714285715 0 2.571428571428571 -1.1513142857142855 2.571428571428571 -2.571428571428571s-1.1512799999999999 -2.571428571428571 -2.571428571428571 -2.571428571428571h-17.142857142857142Z" clip-rule="evenodd" stroke-width="3.4286"></path>
  </g>
</svg>