<svg xmlns="http://www.w3.org/2000/svg" fill="none" viewBox="0 0 48 48" id="File-Code-1--Streamline-Core-Remix" height="48" width="48">
  <desc>
    File Code 1 Streamline Icon: https://streamlinehq.com
  </desc>
  <g id="Free Remix/Programming/Programming/Script/file-code-1--code-files-angle-programming-file-bracket">
    <path id="Union" fill="#000000" fill-rule="evenodd" d="M8.571428571428571 4.285714285714286c-0.3410057142857143 0 -0.6680228571428571 0.13546285714285713 -0.9091542857142857 0.37655999999999995 -0.24109714285714282 0.24113142857142858 -0.37655999999999995 0.5681485714285713 -0.37655999999999995 0.9091542857142857v36.857142857142854c0 0.34114285714285714 0.13546285714285713 0.6678857142857143 0.37655999999999995 0.9092571428571428 0.24113142857142858 0.24102857142857143 0.5681485714285713 0.3764571428571428 0.9091542857142857 0.3764571428571428h30.857142857142854c0.34114285714285714 0 0.6678857142857143 -0.13542857142857143 0.9092571428571428 -0.3764571428571428 0.24102857142857143 -0.24137142857142857 0.3764571428571428 -0.5681142857142857 0.3764571428571428 -0.9092571428571428V15.030445714285715L29.969554285714285 4.285714285714286H8.571428571428571ZM4.631828571428572 1.631832C5.676685714285714 0.5869885714285714 7.093782857142857 0 8.571428571428571 0H30.857142857142854c0.5683199999999999 0 1.11336 0.2257649142857143 1.515222857142857 0.6276274285714285L44.37222857142857 12.627634285714285c0.40217142857142857 0.4018628571428571 0.6277714285714285 0.946902857142857 0.6277714285714285 1.515222857142857v28.285714285714285c0 1.4777142857142855 -0.5869714285714285 2.894742857142857 -1.632 3.9394285714285715 -1.0446857142857142 1.0450285714285714 -2.4617142857142853 1.632 -3.9394285714285715 1.632h-30.857142857142854c-1.477645714285714 0 -2.894742857142857 -0.5869714285714285 -3.9395999999999995 -1.632C3.5869714285714283 45.32331428571428 3 43.90628571428571 3 42.42857142857142V5.571428571428571c0 -1.477645714285714 0.5869714285714285 -2.894749714285714 1.6318285714285712 -3.939596571428571ZM20.372365714285714 20.77049142857143c0.8368457142857142 0.8368457142857142 0.8368457142857142 2.1936 0 3.030445714285714L15.030445714285715 29.142857142857142l5.34192 5.342057142857143c0.8368457142857142 0.8365714285714285 0.8368457142857142 2.1936 0 3.0301714285714283 -0.8368457142857142 0.8369142857142857 -2.1936 0.8369142857142857 -3.030445714285714 0l-6.857142857142857 -6.857005714285714c-0.8368457142857142 -0.8368457142857142 -0.8368457142857142 -2.1936 0 -3.030445714285714l6.857142857142857 -6.857142857142857c0.8368457142857142 -0.8368457142857142 2.1936 -0.8368457142857142 3.030445714285714 0Zm10.285714285714285 0c-0.8368457142857142 -0.8368457142857142 -2.1936 -0.8368457142857142 -3.030445714285714 0 -0.8368457142857142 0.8368457142857142 -0.8368457142857142 2.1936 0 3.030445714285714L32.96955428571429 29.142857142857142l-5.34192 5.342057142857143c-0.8368457142857142 0.8365714285714285 -0.8368457142857142 2.1936 0 3.0301714285714283 0.8368457142857142 0.8369142857142857 2.1936 0.8369142857142857 3.030445714285714 0l6.857005714285714 -6.857005714285714c0.8369142857142857 -0.8368457142857142 0.8369142857142857 -2.1936 0 -3.030445714285714l-6.857005714285714 -6.857142857142857Z" clip-rule="evenodd" stroke-width="3.4286"></path>
  </g>
</svg>