<svg xmlns="http://www.w3.org/2000/svg" fill="none" viewBox="0 0 48 48" id="Film-Roll-1--Streamline-Core-Remix" height="48" width="48">
  <desc>
    Film Roll 1 Streamline Icon: https://streamlinehq.com
  </desc>
  <g id="Free Remix/Images Photography/film-roll-1--photos-camera-shutter-picture-photography-pictures-photo-film-roll">
    <path id="Union" fill="#000000" fill-rule="evenodd" d="M4.285714285714286 18.857142857142858c0 -8.047577142857142 6.523851428571428 -14.571428571428571 14.571428571428571 -14.571428571428571S33.42857142857142 10.809565714285714 33.42857142857142 18.857142857142858 26.904719999999998 33.42857142857142 18.857142857142858 33.42857142857142 4.285714285714286 26.904719999999998 4.285714285714286 18.857142857142858Zm29.142857142857142 11.970205714285713V40.714285714285715c0 4.023771428571428 3.261942857142857 7.285714285714286 7.285714285714286 7.285714285714286S48 44.738057142857144 48 40.714285714285715v-1.0851428571428572c0 -1.183542857142857 -0.9593142857142857 -2.142857142857143 -2.142857142857143 -2.142857142857143s-2.142857142857143 0.9593142857142857 -2.142857142857143 2.142857142857143v1.0851428571428572c0 1.6566857142857143 -1.3433142857142857 3 -3 3S37.714285714285715 42.37097142857143 37.714285714285715 40.714285714285715V18.857142857142858C37.714285714285715 8.442617142857141 29.27166857142857 0 18.857142857142858 0S0 8.442617142857141 0 18.857142857142858 8.442617142857141 37.714285714285715 18.857142857142858 37.714285714285715c5.869645714285714 0 11.11296 -2.6818285714285715 14.571428571428571 -6.886937142857143Zm-17.999691428571428 -19.443428571428573c0 1.893565714285714 1.53504 3.4285714285714284 3.4285714285714284 3.4285714285714284 1.893565714285714 0 3.4285714285714284 -1.535005714285714 3.4285714285714284 -3.4285714285714284 0 -1.8935314285714284 -1.535005714285714 -3.4285714285714284 -3.4285714285714284 -3.4285714285714284 -1.8935314285714284 0 -3.4285714285714284 1.53504 -3.4285714285714284 3.4285714285714284Zm0 14.946445714285712c0 1.8935314285714284 1.53504 3.4285714285714284 3.4285714285714284 3.4285714285714284 1.893565714285714 0 3.4285714285714284 -1.53504 3.4285714285714284 -3.4285714285714284 0 -1.893565714285714 -1.535005714285714 -3.4285714285714284 -3.4285714285714284 -3.4285714285714284 -1.8935314285714284 0 -3.4285714285714284 1.535005714285714 -3.4285714285714284 3.4285714285714284ZM7.955348571428571 18.857142857142858c0 1.8935314285714284 1.53504 3.4285714285714284 3.4285714285714284 3.4285714285714284 1.893565714285714 0 3.4285714285714284 -1.53504 3.4285714285714284 -3.4285714285714284s-1.535005714285714 -3.4285714285714284 -3.4285714285714284 -3.4285714285714284c-1.8935314285714284 0 -3.4285714285714284 1.53504 -3.4285714285714284 3.4285714285714284Zm14.946445714285712 0c0 1.8935314285714284 1.535005714285714 3.4285714285714284 3.4285714285714284 3.4285714285714284 1.8935314285714284 0 3.4285714285714284 -1.53504 3.4285714285714284 -3.4285714285714284s-1.53504 -3.4285714285714284 -3.4285714285714284 -3.4285714285714284c-1.893565714285714 0 -3.4285714285714284 1.53504 -3.4285714285714284 3.4285714285714284Z" clip-rule="evenodd" stroke-width="3.4286"></path>
  </g>
</svg>