<svg xmlns="http://www.w3.org/2000/svg" fill="none" viewBox="0 0 48 48" id="Film-Slate--Streamline-Core-Remix" height="48" width="48">
  <desc>
    Film Slate Streamline Icon: https://streamlinehq.com
  </desc>
  <g id="Free Remix/Images Photography/film-slate--pictures-photo-film-slate">
    <path id="Union" fill="#000000" fill-rule="evenodd" d="m30.376217142857143 16.750834285714284 12.741497142857142 -3.4140685714285715c0.9143999999999999 -0.24504 1.457142857142857 -1.1850514285714284 1.212 -2.0995542857142855l-1.6446857142857143 -6.138857142857143C41.94994285714286 2.354818285714286 39.12994285714286 0.7266822857142856 36.3864 1.4618125714285715l-3.028628571428571 0.8114777142857142 -2.981554285714285 14.477543999999998Zm-1.649657142857143 -13.236617142857142 -9.567942857142857 2.5637142857142856 -2.981554285714285 14.477554285714286 9.567942857142857 -2.5637142857142856 2.981554285714285 -14.477554285714286ZM5.0987657142857135 9.845279999999999l9.42864 -2.5264114285714285 -2.9815885714285715 14.477554285714286 -0.15946285714285716 0.04272h33.18541714285714c1.183542857142857 0 2.142857142857143 0.9593828571428571 2.142857142857143 2.142857142857143V41.14285714285714c0 3.077142857142857 -2.494285714285714 5.571428571428571 -5.571428571428571 5.571428571428571H8.57184c-3.0770057142857143 0 -5.571421714285714 -2.494285714285714 -5.571421714285714 -5.571428571428571V23.982c0 -0.4327542857142857 0.12827999999999998 -0.8355428571428571 0.34888457142857143 -1.1723999999999999 -0.10730742857142857 -0.1563085714285714 -0.19030971428571428 -0.3332228571428571 -0.24217371428571427 -0.5268l-1.6448982857142858 -6.138857142857143c-0.7351302857142856 -2.743508571428571 0.8930022857142856 -5.563542857142857 3.6365348571428573 -6.2986628571428565Zm2.18736 16.279577142857143V41.14285714285714c0 0.7100571428571428 0.5756571428571428 1.2857142857142856 1.2857142857142856 1.2857142857142856h32.57136c0.7100571428571428 0 1.2857142857142856 -0.5756571428571428 1.2857142857142856 -1.2857142857142856V26.12485714285714H7.286125714285713Zm7.0341257142857145 7.534525714285714c-1.4201485714285715 0 -2.571428571428571 1.1512457142857142 -2.571428571428571 2.57136 0 1.4201142857142857 1.1512799999999999 2.571428571428571 2.571428571428571 2.571428571428571h4.385931428571428c1.4201485714285715 0 2.571428571428571 -1.1513142857142855 2.571428571428571 -2.571428571428571s-1.1512799999999999 -2.57136 -2.571428571428571 -2.57136H14.320251428571426Z" clip-rule="evenodd" stroke-width="3.4286"></path>
  </g>
</svg>