<svg xmlns="http://www.w3.org/2000/svg" fill="none" viewBox="0 0 48 48" id="Fingerprint-1--Streamline-Core-Remix" height="48" width="48">
  <desc>
    Fingerprint 1 Streamline Icon: https://streamlinehq.com
  </desc>
  <g id="Free Remix/Interface Essential/fingerprint-1--identification-password-touch-id-secure-fingerprint-finger-security">
    <path id="Union" fill="#000000" fill-rule="evenodd" d="M7.285714285714286 21C7.285714285714286 11.76894857142857 14.768948571428572 4.285714285714286 24 4.285714285714286s16.71428571428571 7.4832342857142855 16.71428571428571 16.71428571428571v6.857142857142857c0 1.1834742857142857 0.9593142857142857 2.142857142857143 2.142857142857143 2.142857142857143s2.142857142857143 -0.9593828571428571 2.142857142857143 -2.142857142857143v-6.857142857142857C45 9.402034285714285 35.59782857142857 0 24 0 12.402034285714285 0 3 9.402034285714285 3 21v24.857142857142854c0 1.183542857142857 0.9593828571428571 2.142857142857143 2.142857142857143 2.142857142857143s2.142857142857143 -0.9593142857142857 2.142857142857143 -2.142857142857143v-24.857142857142854Zm8.571428571428571 0C15.857142857142856 16.502811428571427 19.502811428571427 12.857142857142856 24 12.857142857142856s8.142857142857142 3.6456685714285713 8.142857142857142 8.142857142857142v24.857142857142854c0 1.183542857142857 0.9593828571428571 2.142857142857143 2.142857142857143 2.142857142857143 1.183542857142857 0 2.142857142857143 -0.9593142857142857 2.142857142857143 -2.142857142857143v-24.857142857142854C36.42857142857142 14.135897142857141 30.864102857142854 8.571428571428571 24 8.571428571428571S11.571428571428571 14.135897142857141 11.571428571428571 21v8.571428571428571c0 1.1834742857142857 0.9593828571428571 2.142857142857143 2.142857142857143 2.142857142857143s2.142857142857143 -0.9593828571428571 2.142857142857143 -2.142857142857143v-8.571428571428571ZM13.714285714285714 36c1.1834742857142857 0 2.142857142857143 0.9593142857142857 2.142857142857143 2.142857142857143v7.7142857142857135c0 1.183542857142857 -0.9593828571428571 2.142857142857143 -2.142857142857143 2.142857142857143s-2.142857142857143 -0.9593142857142857 -2.142857142857143 -2.142857142857143v-7.7142857142857135c0 -1.183542857142857 0.9593828571428571 -2.142857142857143 2.142857142857143 -2.142857142857143Zm12.428571428571427 -1.2857142857142856c0 -1.1834742857142857 -0.9593828571428571 -2.142857142857143 -2.142857142857143 -2.142857142857143s-2.142857142857143 0.9593828571428571 -2.142857142857143 2.142857142857143v11.142857142857142c0 1.183542857142857 0.9593828571428571 2.142857142857143 2.142857142857143 2.142857142857143s2.142857142857143 -0.9593142857142857 2.142857142857143 -2.142857142857143v-11.142857142857142ZM24 20.57142857142857c1.1834742857142857 0 2.142857142857143 0.9593828571428571 2.142857142857143 2.142857142857143v5.142857142857142c0 1.1834742857142857 -0.9593828571428571 2.142857142857143 -2.142857142857143 2.142857142857143s-2.142857142857143 -0.9593828571428571 -2.142857142857143 -2.142857142857143v-5.142857142857142C21.857142857142858 21.53081142857143 22.816525714285714 20.57142857142857 24 20.57142857142857Zm21 15.857142857142856c0 -1.183542857142857 -0.9593142857142857 -2.142857142857143 -2.142857142857143 -2.142857142857143s-2.142857142857143 0.9593142857142857 -2.142857142857143 2.142857142857143v9.428571428571429c0 1.183542857142857 0.9593142857142857 2.142857142857143 2.142857142857143 2.142857142857143s2.142857142857143 -0.9593142857142857 2.142857142857143 -2.142857142857143v-9.428571428571429Z" clip-rule="evenodd" stroke-width="3.4286"></path>
  </g>
</svg>