<svg xmlns="http://www.w3.org/2000/svg" fill="none" viewBox="0 0 48 48" id="Fingerprint-2--Streamline-Core-Remix" height="48" width="48">
  <desc>
    Fingerprint 2 Streamline Icon: https://streamlinehq.com
  </desc>
  <g id="Free Remix/Interface Essential/fingerprint-2--identification-password-touch-id-secure-fingerprint-finger-security">
    <path id="Union" fill="#000000" fill-rule="evenodd" d="M4.3363885714285715 14.346959999999997C6.99606857142857 6.025988571428571 14.791165714285714 -0.0033482125714285713 24.000102857142856 -0.0033482125714285713c3.069462857142857 0 5.987965714285714 0.671408784 8.61168 1.877415641142857 1.0753028571428571 0.4942697142857143 1.5463542857142856 1.7666639999999998 1.0520914285714287 2.841966857142857 -0.4942971428571428 1.0753028571428571 -1.7666742857142854 1.5463542857142856 -2.841977142857143 1.0520914285714287 -2.073702857142857 -0.9531771428571427 -4.382605714285714 -1.4857714285714285 -6.821794285714285 -1.4857714285714285 -7.290959999999999 0 -13.472845714285715 4.7725028571428565 -15.581451428571429 11.369417142857142 -0.36034285714285713 1.1273142857142855 -1.5662742857142857 1.7490514285714287 -2.6935542857142853 1.3887085714285714 -1.12728 -0.3603085714285714 -1.7490171428571426 -1.5662399999999999 -1.3887085714285714 -2.69352ZM40.974171428571424 8.889977142857141c-0.6744 -0.9726514285714285 -2.009485714285714 -1.2145371428571428 -2.9821714285714283 -0.5403085714285715 -0.9726857142857143 0.6742285714285714 -1.2144 2.00928 -0.5403428571428571 2.981897142857143 1.830857142857143 2.6407199999999995 2.9029714285714285 5.844342857142856 2.9029714285714285 9.304868571428571V27.362742857142855c0 9.03222857142857 -7.322057142857143 16.35462857142857 -16.354422857142854 16.35462857142857 -1.1834742857142857 0 -2.142857142857143 0.9593142857142857 -2.142857142857143 2.142857142857143s0.9593828571428571 2.142857142857143 2.142857142857143 2.142857142857143c11.399451428571428 0 20.640137142857142 -9.24102857142857 20.640137142857142 -20.64034285714286V20.636434285714284c0 -4.360868571428571 -1.3546285714285713 -8.411725714285714 -3.666171428571428 -11.746457142857142ZM7.645645714285713 23.175497142857143c0 -1.1834742857142857 -0.9593828571428571 -2.142857142857143 -2.142857142857143 -2.142857142857143s-2.142857142857143 0.9593828571428571 -2.142857142857143 2.142857142857143v4.187622857142856c0 8.050594285714284 4.609439999999999 15.02053714285714 11.323234285714285 18.422022857142856 1.0556914285714285 0.5348571428571428 2.3451085714285713 0.11279999999999998 2.879965714285714 -0.9428571428571428 0.5348914285714286 -1.0556571428571428 0.11266285714285713 -2.345142857142857 -0.9430285714285714 -2.88 -5.329199999999999 -2.6999999999999997 -8.974457142857142 -8.225794285714285 -8.974457142857142 -14.599165714285714V23.175497142857143Zm8.859634285714286 -5.187119999999999c0.39438857142857137 -1.1158285714285714 -0.19045714285714285 -2.340102857142857 -1.3062857142857143 -2.7344571428571425 -1.1158285714285714 -0.39438857142857137 -2.340068571428571 0.19042285714285712 -2.7344571428571425 1.3062514285714284 -0.4517485714285714 1.278102857142857 -0.6966171428571428 2.651382857142857 -0.6966171428571428 4.0772571428571425V27.363771428571425c0 6.755725714285714 5.476628571428571 12.232457142857143 12.232354285714285 12.232457142857143 3.1315542857142855 0 5.992731428571428 -1.1797714285714285 8.15544 -3.1151999999999997 0.8818285714285713 -0.7892571428571428 0.95688 -2.144228571428571 0.16758857142857142 -3.0259885714285715 -0.7892571428571428 -0.8818285714285713 -2.1439542857142855 -0.95688 -3.025817142857143 -0.16758857142857142 -1.4073257142857143 1.25952 -3.2605714285714282 2.023062857142857 -5.297211428571429 2.023062857142857 -4.388811428571429 0 -7.9466399999999995 -3.5579314285714285 -7.9466399999999995 -7.946742857142857V20.637428571428572c0 -0.9326057142857141 0.15977142857142856 -1.8232799999999998 0.4516457142857143 -2.6490514285714286Zm4.998411428571428 -9.328971428571428c0.8077714285714286 -0.16765714285714284 1.6430399999999998 -0.2553942857142857 2.4965142857142855 -0.2553942857142857 6.7557599999999995 0 12.232251428571429 5.476628571428571 12.232251428571429 12.232354285714285v5.044731428571428c0 1.1834742857142857 -0.9593142857142857 2.142857142857143 -2.1427542857142856 2.142857142857143 -1.1834742857142857 0 -2.142857142857143 -0.9593828571428571 -2.142857142857143 -2.142857142857143V20.636365714285713c0 -4.388811428571429 -3.5578285714285713 -7.9466399999999995 -7.9466399999999995 -7.9466399999999995 -0.5591314285714285 0 -1.1025942857142856 0.057428571428571426 -1.6255199999999999 0.16597714285714285 -1.1587885714285713 0.2405142857142857 -2.2931314285714284 -0.5038628571428572 -2.533645714285714 -1.6626514285714284 -0.2405142857142857 -1.1587542857142856 0.5038628571428572 -2.2930971428571425 1.6626514285714284 -2.533645714285714Zm4.639371428571429 11.977302857142856c0 -1.1834742857142857 -0.9593828571428571 -2.142857142857143 -2.142857142857143 -2.142857142857143s-2.142857142857143 0.9593828571428571 -2.142857142857143 2.142857142857143v6.726342857142857c0 1.1834742857142857 0.9593828571428571 2.142857142857143 2.142857142857143 2.142857142857143s2.142857142857143 -0.9593828571428571 2.142857142857143 -2.142857142857143V20.63670857142857Z" clip-rule="evenodd" stroke-width="3.4286"></path>
  </g>
</svg>