<svg xmlns="http://www.w3.org/2000/svg" fill="none" viewBox="0 0 48 48" id="Fire-Extinguisher-Sign--Streamline-Core-Remix" height="48" width="48">
  <desc>
    Fire Extinguisher Sign Streamline Icon: https://streamlinehq.com
  </desc>
  <g id="Free Remix/Map Travel/fire-extinguisher-sign">
    <path id="Union" fill="#000000" fill-rule="evenodd" d="M40.84182857142857 0.11859291428571428C41.14388571428571 0.039853714285714284 41.45451428571428 0 41.76651428571429 0c2.0225142857142857 0 3.662057142857143 1.6396319999999998 3.662057142857143 3.662228571428571v7.246971428571428c0 2.022582857142857 -1.6395428571428572 3.662228571428571 -3.662057142857143 3.662228571428571 -0.312 0 -0.6226285714285714 -0.03984 -0.9246857142857142 -0.11859428571428572l-8.38686857142857 -2.1879085714285713c-1.2512914285714285 -0.3264 -2.2239428571428568 -1.2449142857142856 -2.64936 -2.407782857142857H24.428571428571427v4.055177142857143c5.3669142857142855 1.0049142857142856 9.428571428571429 5.714845714285714 9.428571428571429 11.373394285714285v17.142857142857142c0 3.077142857142857 -2.494422857142857 5.571428571428571 -5.571428571428571 5.571428571428571h-12c-3.0770057142857143 0 -5.571428571428571 -2.494285714285714 -5.571428571428571 -5.571428571428571v-17.142857142857142c0 -5.658548571428571 4.061657142857142 -10.36848 9.428571428571429 -11.373394285714285V9.857142857142856h-3.4285714285714284c-5.2072457142857145 0 -9.428571428571429 4.221325714285714 -9.428571428571429 9.428571428571429v6c0 1.4201485714285715 -1.1512799999999999 2.571428571428571 -2.571428571428571 2.571428571428571 -1.4201622857142857 0 -2.571428571428571 -1.1512799999999999 -2.571428571428571 -2.571428571428571v-6c0 -8.047577142857142 6.523851428571428 -14.571428571428571 14.571428571428571 -14.571428571428571h13.091314285714285c0.4254171428571428 -1.1628685714285714 1.3980685714285714 -2.0813691428571426 2.64936 -2.4077862857142853L40.84182857142857 0.11859291428571428ZM22.285714285714285 18c-4.023771428571428 0 -7.285714285714286 3.261942857142857 -7.285714285714286 7.285714285714286v17.142857142857142c0 0.7100571428571428 0.5756228571428571 1.2857142857142856 1.2857142857142856 1.2857142857142856h12c0.7100914285714285 0 1.2857142857142856 -0.5756571428571428 1.2857142857142856 -1.2857142857142856v-17.142857142857142c0 -4.023771428571428 -3.261942857142857 -7.285714285714286 -7.285714285714286 -7.285714285714286Z" clip-rule="evenodd" stroke-width="3.4286"></path>
  </g>
</svg>