<svg xmlns="http://www.w3.org/2000/svg" fill="none" viewBox="0 0 48 48" id="Fireworks-Rocket--Streamline-Core-Remix" height="48" width="48">
  <desc>
    Fireworks Rocket Streamline Icon: https://streamlinehq.com
  </desc>
  <g id="Free Remix/Entertainment/fireworks-rocket--hobby-entertainment-party-fireworks-rocket">
    <path id="Union" fill="#000000" fill-rule="evenodd" d="M43.26685714285714 0.018220594285714285c0.6630857142857142 -0.06552767999999999 1.3100571428571428 0.049822491428571425 1.8853714285714287 0.27956797714285714 0.5790857142857142 0.2314045714285714 1.1009142857142857 0.5839954285714286 1.5332571428571427 1.016094857142857 0.432 0.4321028571428571 0.7844571428571429 0.9539108571428572 1.0158857142857143 1.5332331428571428 0.22937142857142856 0.5740388571428571 0.3445714285714286 1.219512 0.2801142857142857 1.8813634285714285l-1.3244571428571428 14.681314285714285c-0.002742857142857143 0.030034285714285715 -0.006171428571428571 0.060000000000000005 -0.009942857142857142 0.08989714285714286 -0.09771428571428571 0.7337828571428571 -0.41828571428571426 1.44864 -0.9812571428571428 2.0115085714285716 -0.5478857142857142 0.5480228571428571 -1.2401142857142857 0.8663999999999998 -1.9535999999999998 0.9728228571428571 -0.6846857142857142 0.11814857142857141 -1.3635428571428572 0.034422857142857144 -1.9683428571428572 -0.17646857142857142 -0.5060571428571429 -0.1764342857142857 -0.9719999999999999 -0.44492571428571426 -1.3772571428571427 -0.7783885714285714L31.770377142857143 32.83206857142857c-1.4025257142857142 1.84416 -4.109691428571429 2.0275885714285713 -5.747965714285714 0.3891428571428571L21.915805714285714 29.11460571428571l-1.2396342857142857 1.2396342857142857c-1.2282857142857142 2.4211885714285715 -0.3607885714285714 5.40816 2.0186742857142854 6.781988571428571 1.0249371428571428 0.5917714285714285 1.3760914285714285 1.9021714285714284 0.7843542857142857 2.9269714285714286 -0.5917371428571429 1.0251428571428571 -1.9022742857142858 1.3762285714285714 -2.9272114285714284 0.7844571428571429 -2.3189142857142855 -1.3388571428571427 -3.8542971428571424 -3.5135999999999994 -4.445245714285714 -5.9238857142857135l-12.448662857142857 12.44845714285714c-0.8368319999999999 0.8369142857142857 -2.193613714285714 0.8369142857142857 -3.030452571428571 0 -0.8368371428571428 -0.8365714285714285 -0.836836457142857 -2.1936 0 -3.0301714285714283L17.315074285714285 27.654445714285714c0.08057142857142857 -0.096 0.16848 -0.18359999999999999 0.2623885714285714 -0.2623885714285714l1.3078971428571426 -1.3078971428571426 -4.068548571428571 -4.068548571428571c-1.6383085714285712 -1.6382742857142856 -1.4550171428571428 -4.345474285714285 0.38910857142857136 -5.748l11.303417142857143 -8.596594285714286c-0.3218742857142857 -0.39164571428571426 -0.5828228571428571 -0.8391771428571428 -0.7589485714285714 -1.3244228571428571 -0.22426285714285712 -0.6177942857142856 -0.31625142857142857 -1.3150285714285714 -0.19498285714285712 -2.0190171428571424 0.1063542857142857 -0.7135542857142857 0.42473142857142854 -1.4058617142857142 0.9728914285714285 -1.9539977142857141 0.5628342857142857 -0.5628582857142858 1.2777257142857141 -0.8834537142857143 2.0115085714285716 -0.9810102857142856 0.02777142857142857 -0.0036959999999999996 0.055645714285714284 -0.006843428571428571 0.0835542857142857 -0.009442285714285714L43.26685714285714 0.018220594285714285ZM29.54989714285714 10.742948571428572 18.221005714285713 19.35888l10.458102857142856 10.458102857142856 8.615862857142856 -11.328857142857142 -7.745074285714286 -7.745177142857142Zm0.6745714285714286 25.111337142857142c-0.8368457142857142 -0.8369142857142857 -2.1936 -0.8369142857142857 -3.030445714285714 0l-1.5174514285714285 1.517485714285714c-0.8368457142857142 0.8365714285714285 -0.8368457142857142 2.1936 0 3.0301714285714283 0.8368114285714285 0.8369142857142857 2.1936 0.8369142857142857 3.030445714285714 0l1.5174514285714285 -1.5171428571428571c0.8368457142857142 -0.8369142857142857 0.8368457142857142 -2.1936 0 -3.0305142857142857ZM20.805942857142856 47.37222857142857c-0.8368457142857142 0.8369142857142857 -2.1936342857142854 0.8369142857142857 -3.030445714285714 0 -0.8368457142857142 -0.8365714285714285 -0.8368457142857142 -2.1936 0 -3.0301714285714283l1.5174514285714285 -1.517485714285714c0.8368457142857142 -0.8369142857142857 2.1936342857142854 -0.8369142857142857 3.030445714285714 0 0.8368457142857142 0.8365714285714285 0.8368457142857142 2.1936 0 3.0301714285714283l-1.5174514285714285 1.517485714285714Zm9.418525714285714 0c-0.8368457142857142 0.8369142857142857 -2.1936 0.8369142857142857 -3.030445714285714 0l-1.5174514285714285 -1.517485714285714c-0.8368457142857142 -0.8365714285714285 -0.8368457142857142 -2.1936 0 -3.0301714285714283 0.8368114285714285 -0.8369142857142857 2.1936 -0.8369142857142857 3.030445714285714 0l1.5174514285714285 1.517485714285714c0.8368457142857142 0.8365714285714285 0.8368457142857142 2.1936 0 3.0301714285714283Z" clip-rule="evenodd" stroke-width="3.4286"></path>
  </g>
</svg>