<svg xmlns="http://www.w3.org/2000/svg" fill="none" viewBox="0 0 48 48" id="Fire-Alarm-2--Streamline-Core-Remix" height="48" width="48">
  <desc>
    Fire Alarm 2 Streamline Icon: https://streamlinehq.com
  </desc>
  <g id="Free Remix/Map Travel/fire-alarm-2">
    <path id="Union" fill="#000000" fill-rule="evenodd" d="M16.285714285714285 5.142857142857142C10.131668571428571 5.142857142857142 5.142857142857142 10.131668571428571 5.142857142857142 16.285714285714285c0 1.4201485714285715 -1.1512799999999999 2.571428571428571 -2.571428571428571 2.571428571428571 -1.4201622857142857 0 -2.571428571428571 -1.1512799999999999 -2.571428571428571 -2.571428571428571C0 7.291371428571429 7.291371428571429 0 16.285714285714285 0c1.4201485714285715 0 2.571428571428571 1.1512662857142855 2.571428571428571 2.571428571428571 0 1.4201485714285715 -1.1512799999999999 2.571428571428571 -2.571428571428571 2.571428571428571Zm20.047542857142854 31.61005714285714c0.30685714285714283 -7.0793485714285715 -4.6118057142857145 -15.321051428571426 -13.101977142857143 -19.278925714285716 -0.9664114285714286 -0.5103771428571428 -2.0748342857142856 -0.37676571428571426 -2.847668571428571 0.08108571428571429 -0.44934857142857143 0.2662285714285714 -0.9723085714285714 0.7533257142857143 -1.1954399999999998 1.5209485714285713 -0.2312914285714286 0.7956342857142856 -0.039085714285714286 1.54008 0.2896114285714286 2.0918742857142854 1.0840457142857143 1.8835199999999999 1.7203885714285714 4.080822857142857 1.7351999999999999 6.093668571428571 0.008022857142857142 1.0919314285714286 -0.1639885714285714 2.0800799999999997 -0.5105828571428571 2.9340685714285715 -0.33596571428571426 -0.4818171428571428 -0.6256114285714285 -0.9965142857142857 -0.864 -1.5374742857142856 -0.24298285714285714 -0.5513485714285714 -0.7068342857142857 -0.9749485714285714 -1.2779314285714285 -1.166982857142857 -0.5710971428571429 -0.19203428571428569 -1.1966742857142856 -0.13477714285714285 -1.7234057142857142 0.15778285714285714 -3.2315657142857144 1.7947885714285712 -5.274822857142857 5.37048 -5.1804685714285705 9.06589714285714l2.1261942857142855 -0.054514285714285717 -2.125062857142857 0.08605714285714286c0.2625942857142857 6.484457142857142 5.935645714285714 11.612914285714286 12.405977142857141 11.233371428571429 3.711325714285714 -0.014057142857142858 6.750754285714286 -1.185942857142857 8.904377142857141 -3.2849142857142852 2.1542057142857143 -2.0993142857142852 3.2331771428571425 -4.942285714285714 3.3651771428571426 -7.940914285714285l-1.7725714285714285 -0.07782857142857143 1.7725714285714285 0.0768Zm-4.281565714285715 -0.18548571428571428 -0.00003428571428571428 0c0.18116571428571426 -4.181177142857143 -2.262925714285714 -9.452057142857143 -7.043965714285713 -13.056582857142857 0.30932571428571426 1.2252685714285714 0.4817828571428571 2.4803314285714286 0.4908685714285714 3.7192457142857145 0.020914285714285715 2.847462857142857 -0.8310171428571429 5.7768 -3.084171428571428 7.92270857142857 -0.7905257142857143 0.7529142857142856 -2.020662857142857 0.7909714285714284 -2.8564457142857145 0.08879999999999999 -0.8621828571428571 -0.7244571428571428 -1.6267542857142856 -1.5525257142857143 -2.2777714285714286 -2.46264 -0.8665714285714284 1.0653942857142857 -1.3696114285714285 2.4331542857142856 -1.3397485714285713 3.806297142857143 0.17290285714285714 4.0968 3.8237828571428567 7.378628571428571 7.916742857142857 7.113257142857142 0.04611428571428571 -0.002742857142857143 0.09233142857142856 -0.004457142857142857 0.13854857142857144 -0.004457142857142857 2.8245599999999995 0 4.747405714285714 -0.8660571428571427 5.98128 -2.0684571428571425 1.2461142857142857 -1.2144 1.9819885714285714 -2.9591999999999996 2.0746971428571426 -5.058171428571429ZM31.71428571428571 0c-1.4201485714285715 0 -2.571428571428571 1.1512662857142855 -2.571428571428571 2.571428571428571 0 1.4201485714285715 1.1512799999999999 2.571428571428571 2.571428571428571 2.571428571428571 6.153942857142857 0 11.142857142857142 4.988811428571428 11.142857142857142 11.142857142857142 0 1.4201485714285715 1.1513142857142855 2.571428571428571 2.571428571428571 2.571428571428571s2.571428571428571 -1.1512799999999999 2.571428571428571 -2.571428571428571C48 7.291371428571429 40.7088 0 31.71428571428571 0Zm-15.428571428571427 13.714285714285714c-1.4201485714285715 0 -2.571428571428571 1.1512799999999999 -2.571428571428571 2.571428571428571s-1.1512799999999999 2.571428571428571 -2.571428571428571 2.571428571428571 -2.571428571428571 -1.1512799999999999 -2.571428571428571 -2.571428571428571c0 -4.260479999999999 3.453805714285714 -7.7142857142857135 7.7142857142857135 -7.7142857142857135 1.4201485714285715 0 2.571428571428571 1.1512799999999999 2.571428571428571 2.571428571428571S17.705862857142854 13.714285714285714 16.285714285714285 13.714285714285714Zm15.428571428571427 -5.142857142857142c-1.4201485714285715 0 -2.571428571428571 1.1512799999999999 -2.571428571428571 2.571428571428571s1.1512799999999999 2.571428571428571 2.571428571428571 2.571428571428571 2.571428571428571 1.1512799999999999 2.571428571428571 2.571428571428571 1.1513142857142855 2.571428571428571 2.571428571428571 2.571428571428571 2.571428571428571 -1.1512799999999999 2.571428571428571 -2.571428571428571c0 -4.260479999999999 -3.453942857142857 -7.7142857142857135 -7.7142857142857135 -7.7142857142857135Z" clip-rule="evenodd" stroke-width="3.4286"></path>
  </g>
</svg>