<svg xmlns="http://www.w3.org/2000/svg" fill="none" viewBox="0 0 48 48" id="Fist--Streamline-Core-Remix" height="48" width="48">
  <desc>
    Fist Streamline Icon: https://streamlinehq.com
  </desc>
  <g id="Free Remix/Interface Essential/fist">
    <path id="Union" fill="#000000" fill-rule="evenodd" d="M26.13510857142857 17.940822857142855C25.15885714285714 16.31609142857143 23.429074285714282 15.1956 21.428571428571427 15.06336V7.214708571428572c0 -1.6176342857142856 1.3113599999999999 -2.9289942857142854 2.9289942857142854 -2.9289942857142854s2.92896 1.3113599999999999 2.92896 2.9289942857142854v3.204102857142857c-0.00017142857142857143 0.02081142857142857 -0.00023999999999999998 0.04162285714285714 -0.00023999999999999998 0.06246857142857143v4.351851428571428c0 0.020845714285714287 0.00006857142857142857 0.04165714285714285 0.00023999999999999998 0.06246857142857143v0.7169142857142857c0 0.9488228571428571 -0.45167999999999997 1.7929371428571426 -1.151417142857143 2.3283085714285714Zm3.6864342857142853 2.3832342857142854c-0.7997828571428571 0.9264685714285714 -1.8313371428571426 1.64736 -3.004834285714286 2.072777142857143 -0.4860342857142857 2.018982857142857 -2.0075314285714283 3.6798857142857138 -4.059908571428571 4.302342857142857l-0.46590857142857145 0.14129142857142854c1.5702857142857143 1.4826514285714285 2.777965714285714 3.629931428571428 2.7236228571428573 6.165394285714285 -0.025371428571428573 1.1832 -1.0050857142857144 2.1219085714285715 -2.188285714285714 2.0965371428571427 -1.1832 -0.025371428571428573 -2.121805714285714 -1.0051885714285713 -2.0964342857142855 -2.1883542857142855 0.02328 -1.0860685714285714 -0.5059885714285713 -2.160342857142857 -1.448022857142857 -3.0194742857142858 -0.9636685714285713 -0.87888 -2.1373371428571426 -1.324285714285714 -3.012377142857143 -1.324285714285714 -1.0620685714285714 0 -1.963885714285714 -0.777942857142857 -2.11968 -1.8285257142857143 -0.15579428571428572 -1.0505485714285714 0.48140571428571427 -2.056731428571428 1.4977714285714285 -2.3649599999999995l5.8654971428571425 -1.7788799999999998c0.6316799999999999 -0.1915885714285714 1.0837714285714284 -0.7344685714285714 1.168662857142857 -1.3756457142857141 -0.03325714285714285 -0.1250742857142857 -0.05561142857142856 -0.2549142857142857 -0.06589714285714286 -0.38859428571428567 -0.008914285714285713 -0.11557714285714284 -0.008468571428571428 -0.2297142857142857 0.0006857142857142857 -0.34169142857142853 -0.2155542857142857 -0.6709714285714286 -0.8444228571428571 -1.1560457142857141 -1.5864342857142857 -1.1560457142857141H10.770582857142857c-0.6630857142857142 0 -1.058982857142857 0.15130285714285716 -1.311942857142857 0.31344 -0.26016 0.1667657142857143 -0.5068114285714286 0.4339542857142856 -0.7269942857142857 0.8700342857142856 -0.47701714285714286 0.9448114285714284 -0.6858857142857143 2.3905028571428573 -0.6858857142857143 4.129028571428571 0 5.54856 2.7123085714285713 9.69486857142857 6.032742857142857 10.847211428571429 0.8622171428571428 0.29897142857142855 1.4403085714285715 1.111542857142857 1.4403085714285715 2.0242285714285715l0 8.337257142857142c0 1.183542857142857 -0.9594171428571429 2.142857142857143 -2.142857142857143 2.142857142857143 -1.1834742857142857 0 -2.142857142857143 -0.9593142857142857 -2.142857142857143 -2.142857142857143l0 -6.931199999999999c-4.739005714285714 -2.4473142857142856 -7.473051428571428 -8.191542857142858 -7.473051428571428 -14.277497142857143 0 -1.9071085714285712 0.20098285714285713 -4.189097142857142 1.1458285714285714 -6.060548571428571 0.46817142857142857 -0.9272914285714284 1.1424342857142857 -1.8009257142857142 2.099417142857143 -2.4536571428571428V10.479394285714285c0 -3.9828 3.22872 -7.211537142857143 7.211554285714286 -7.211537142857143 1.3015885714285715 0 2.52264 0.34482857142857143 3.5767885714285717 0.9481199999999999C18.93198857142857 1.7283017142857142 21.442937142857144 0 24.357565714285712 0c2.914765714285714 0 5.425851428571429 1.7285005714285713 6.564102857142857 4.216388571428571 1.0544914285714284 -0.6035314285714285 2.2759542857142856 -0.9485314285714285 3.577988571428571 -0.9485314285714285 3.9839999999999995 0 7.213371428571428 3.2295599999999998 7.213371428571428 7.213422857142858v2.696091428571428c0.7618285714285714 1.6981028571428571 1.2788571428571427 3.6028114285714286 1.6367999999999998 5.399108571428571 1.1526857142857143 5.78448 0.732 12.845245714285713 -4.102628571428571 17.471862857142856 -1.166057142857143 1.116342857142857 -2.3033142857142854 1.9501714285714284 -3.151885714285714 2.5073142857142856 -0.10525714285714285 0.06925714285714285 -0.20639999999999997 0.1344 -0.30274285714285715 0.19542857142857142v7.105714285714285c0 1.183542857142857 -0.9596571428571428 2.142857142857143 -2.1430285714285713 2.142857142857143 -1.1834399999999998 0 -2.142857142857143 -0.9593142857142857 -2.142857142857143 -2.142857142857143v-8.290971428571428c-0.009394285714285713 -0.4487999999999999 0.12322285714285713 -0.8903999999999999 0.37607999999999997 -1.2596571428571428 0.12905142857142857 -0.1882285714285714 0.28944 -0.3576 0.47825142857142855 -0.4992 0.11050285714285714 -0.0833142857142857 0.2292685714285714 -0.156 0.3549257142857143 -0.2170285714285714l0.01813714285714286 -0.0096c0.042582857142857145 -0.02262857142857143 0.11207999999999999 -0.06034285714285714 0.20482285714285714 -0.11279999999999998 0.18569142857142856 -0.1056 0.46316571428571424 -0.27017142857142856 0.8035542857142857 -0.49371428571428566 0.6838285714285713 -0.4491428571428571 1.604742857142857 -1.1249485714285714 2.5417714285714283 -2.0216914285714283 3.0973714285714284 -2.964308571428571 3.8286857142857142 -7.793382857142857 3.0102857142857142 -12.729702857142856 -1.2743999999999998 1.1346857142857143 -2.9540571428571427 1.824102857142857 -4.7948571428571425 1.824102857142857 -1.7850171428571429 0 -3.418628571428571 -0.6483771428571429 -4.678114285714285 -1.72248Zm1.7506971428571427 -5.451154285714286c0.021291428571428572 1.5986057142857142 1.3238057142857143 2.88792 2.9274171428571427 2.88792 1.6169142857142857 0 2.9276571428571425 -1.3107771428571426 2.9276571428571425 -2.9276914285714284V10.48128c0 -1.6169485714285712 -1.310742857142857 -2.9277257142857143 -2.9276571428571425 -2.9277257142857143 -1.6036114285714285 0 -2.9061257142857144 1.2893485714285713 -2.9274171428571427 2.88792v4.4314285714285715Zm-14.429554285714284 0.17732571428571428V10.479394285714285c0 -1.6158857142857141 -1.3099542857142856 -2.9258399999999996 -2.9258399999999996 -2.9258399999999996 -1.6158857142857141 0 -2.9258399999999996 1.3099542857142856 -2.9258399999999996 2.9258399999999996v4.570834285714285h5.851679999999999Z" clip-rule="evenodd" stroke-width="3.4286"></path>
  </g>
</svg>