<svg xmlns="http://www.w3.org/2000/svg" fill="none" viewBox="0 0 48 48" id="Flash-Off--Streamline-Core-Remix" height="48" width="48">
  <desc>
    Flash Off Streamline Icon: https://streamlinehq.com
  </desc>
  <g id="Free Remix/Images Photography/flash-off--flash-power-connect-charge-off-electricity-lightning">
    <path id="Union" fill="#000000" fill-rule="evenodd" d="M29.57153142857143 2.142973714285714c0 -0.9077725714285713 -0.5719885714285714 -1.7170491428571426 -1.4277257142857143 -2.0200011428571427 -0.8557371428571429 -0.30295371428571427 -1.8094971428571427 -0.03384171428571429 -2.3806628571428567 0.6717188571428572L15.948719999999998 12.918377142857143 3.65808 0.6277474285714285c-0.8368319999999999 -0.8368391999999999 -2.193613714285714 -0.8368391999999999 -3.030452571428571 0 -0.8368367999999999 0.8368354285714285 -0.8368367999999999 2.1936171428571427 0 3.030469714285714L44.342057142857136 47.372571428571426c0.8365714285714285 0.8369142857142857 2.1936 0.8369142857142857 3.0301714285714283 0 0.8369142857142857 -0.8369142857142857 0.8369142857142857 -2.1936 0 -3.0305142857142857l-12.609257142857142 -12.609565714285713 9.331199999999999 -11.526959999999999c0.5197714285714286 -0.6419657142857143 0.624 -1.5254742857142856 0.26845714285714284 -2.2709485714285713 -0.3555428571428571 -0.7454742857142858 -1.1081142857142856 -1.2201942857142856 -1.934057142857143 -1.2201942857142856H29.57153142857143V2.142973714285714ZM12.86328 20.13545142857143c0.9198514285714284 0.7446171428571429 1.0618971428571429 2.093965714285714 0.3172457142857143 3.013782857142857l-3.1174285714285714 3.850937142857142h8.793977142857141c0.5683199999999999 0 1.11336 0.22577142857142857 1.515222857142857 0.6276342857142857l1.7143542857142857 1.7143542857142857c0.4018628571428571 0.4018628571428571 0.6276342857142857 0.946902857142857 0.6276342857142857 1.515222857142857v8.947302857142857l2.9021142857142856 -3.584914285714286c0.7446171428571429 -0.9198857142857142 2.093965714285714 -1.0621714285714285 3.0138171428571425 -0.31748571428571426 0.9198171428571429 0.7446857142857143 1.061862857142857 2.0941714285714284 0.3172114285714286 3.0137142857142853l-6.710468571428571 8.2896c-0.5711657142857142 0.7056 -1.5249599999999999 0.9747428571428571 -2.3806628571428567 0.6716571428571428 -0.8557371428571429 -0.30274285714285715 -1.4277257142857143 -1.1122285714285713 -1.4277257142857143 -2.019771428571428V31.745005714285714l-0.45912 -0.45912H5.571428571428571c-0.8259771428571429 0 -1.5784114285714286 -0.47472 -1.934022857142857 -1.22016 -0.35565942857142857 -0.7455085714285714 -0.2511942857142857 -1.6290171428571427 0.26849142857142855 -2.270982857142857l5.943565714285715 -7.342045714285715c0.7446514285714285 -0.9198514285714284 2.093965714285714 -1.0618971428571429 3.0138171428571425 -0.3172457142857143Z" clip-rule="evenodd" stroke-width="3.4286"></path>
  </g>
</svg>