<svg xmlns="http://www.w3.org/2000/svg" fill="none" viewBox="0 0 48 48" id="Flash-1--Streamline-Core-Remix" height="48" width="48">
  <desc>
    Flash 1 Streamline Icon: https://streamlinehq.com
  </desc>
  <g id="Free Remix/Images Photography/flash-1--flash-power-connect-charge-electricity-lightning">
    <path id="Vector" stroke="#000000" stroke-linecap="round" stroke-linejoin="round" stroke-width="4.2857" d="M13.939577142857143 2.1395074285714286 5.641131428571428 19.99789714285714c-0.11478857142857143 0.25477714285714287 -0.15918857142857143 0.5313257142857143 -0.12929142857142856 0.8054057142857143 0.029862857142857142 0.2740457142857143 0.13313142857142857 0.5372228571428571 0.30065142857142857 0.7663885714285714 0.16755428571428568 0.22916571428571425 0.39425142857142853 0.41729142857142854 0.6602057142857143 0.5478514285714285 0.26592 0.13056 0.5629714285714286 0.19957714285714284 0.8649942857142857 0.20094857142857142h9.449314285714285L9.410605714285714 45.860571428571426l32.52253714285714 -27.376079999999998c0.2629714285714286 -0.23125714285714283 0.4450285714285714 -0.5285828571428571 0.5225142857142857 -0.8542628571428571 0.07748571428571428 -0.32564571428571426 0.04697142857142857 -0.6649714285714285 -0.08708571428571428 -0.9749142857142856 -0.1344 -0.3099085714285714 -0.3668571428571428 -0.5764114285714285 -0.6675428571428571 -0.7657028571428571 -0.3010285714285714 -0.18929142857142855 -0.6565714285714286 -0.2928342857142857 -1.0220571428571428 -0.29746285714285714H31.052262857142857L38.428799999999995 2.1395074285714286H13.939577142857143Z"></path>
  </g>
</svg>