<svg xmlns="http://www.w3.org/2000/svg" fill="none" viewBox="0 0 48 48" id="Flip-Vertical-Circle-1--Streamline-Core-Remix" height="48" width="48">
  <desc>
    Flip Vertical Circle 1 Streamline Icon: https://streamlinehq.com
  </desc>
  <g id="Free Remix/Interface Essential/flip-vertical-circle-1--flip-bottom-object-work">
    <path id="Union" fill="#000000" fill-rule="evenodd" d="M29.525142857142853 0.6230125714285715c-3.6356571428571427 -0.8351482285714285 -7.413325714285714 -0.8351482285714285 -11.048982857142857 0 -1.1534057142857141 0.26495657142857143 -1.87368 1.4147828571428571 -1.60872 2.5682091428571425 0.26496 1.1534297142857144 1.4148 1.873669714285714 2.568205714285714 1.608709714285714 3.0042171428571427 -0.690102857142857 6.125794285714285 -0.690102857142857 9.130011428571429 0 1.15344 0.26496 2.303245714285714 -0.45527999999999996 2.568205714285714 -1.608709714285714 0.26496 -1.1534262857142856 -0.45527999999999996 -2.303252571428571 -1.60872 -2.5682091428571425ZM11.696057142857143 5.819965714285714c0.7531199999999999 0.9129257142857142 0.6235885714285714 2.2635085714285714 -0.28933714285714285 3.0165942857142856 -1.1760685714285712 0.9702171428571429 -2.23224 2.0771657142857145 -3.1461599999999996 3.2974628571428566l-0.012 0.01601142857142857 -0.00006857142857142857 -0.00006857142857142857c-0.9215657142857141 1.2067885714285713 -1.6907999999999999 2.522605714285714 -2.2903542857142853 3.9176571428571423 -0.46728 1.0873371428571428 -1.7275199999999997 1.5899657142857142 -2.814822857142857 1.1226857142857143 -1.0873131428571428 -0.46728 -1.5899451428571427 -1.7275199999999997 -1.1226685714285713 -2.814822857142857 0.7373074285714285 -1.7156571428571425 1.6829657142857142 -3.3340114285714284 2.8155942857142855 -4.818617142857143 1.1167885714285715 -1.489782857142857 2.406925714285714 -2.8413942857142858 3.843222857142857 -4.02624 0.9129257142857142 -0.7531199999999999 2.2635085714285714 -0.6235885714285714 3.0165942857142856 0.28933714285714285Zm27.964971428571424 -0.2593371428571428c-0.8965714285714286 -0.7727657142857143 -2.249485714285714 -0.6726171428571428 -3.022285714285714 0.2237142857142857 -0.7727999999999999 0.8963314285714286 -0.6726857142857143 2.249417142857143 0.22388571428571427 3.022217142857143 1.1334857142857142 0.9773142857142858 2.148685714285714 2.0839885714285713 3.025028571428571 3.297428571428571l0.03428571428571429 0.045977142857142855c0.9212571428571428 1.2067885714285713 1.6906285714285714 2.522605714285714 2.2902857142857145 3.9176571428571423 0.4673142857142857 1.0873371428571428 1.7273142857142858 1.5899657142857142 2.8148571428571425 1.1226857142857143 1.0872 -0.46728 1.5898285714285714 -1.7275199999999997 1.1225142857142858 -2.814822857142857 -0.734742857142857 -1.7099314285714284 -1.6765714285714284 -3.323245714285714 -2.8042285714285713 -4.803771428571428 -1.068342857142857 -1.4754857142857143 -2.3046857142857142 -2.821577142857143 -3.684342857142857 -4.011085714285714ZM-0.0016741062857142856 24c0 -1.1834742857142857 0.9593906777142857 -2.142857142857143 2.1428581062857144 -2.142857142857143H45.86228571428571c0.5684571428571429 0 1.1132571428571427 0.22577142857142857 1.5150857142857141 0.6276342857142857 0.40217142857142857 0.4018628571428571 0.6277714285714285 0.946902857142857 0.6277714285714285 1.515222857142857 0 6.366102857142857 -2.528914285714286 12.471428571428572 -7.030285714285714 16.973142857142857 -4.501714285714285 4.501371428571428 -10.607005714285714 7.030285714285714 -16.973108571428572 7.030285714285714s-12.471462857142855 -2.528914285714286 -16.972971428571427 -7.030285714285714C2.5272514285714283 36.47142857142857 -0.0016741062857142856 30.366102857142856 -0.0016741062857142856 24Z" clip-rule="evenodd" stroke-width="3.4286"></path>
  </g>
</svg>