<svg xmlns="http://www.w3.org/2000/svg" fill="none" viewBox="0 0 48 48" id="Flip-Vertical-Square-2--Streamline-Core-Remix" height="48" width="48">
  <desc>
    Flip Vertical Square 2 Streamline Icon: https://streamlinehq.com
  </desc>
  <g id="Free Remix/Interface Essential/flip-vertical-square-2--design-up-flip-reflect-vertical">
    <path id="Union" fill="#000000" fill-rule="evenodd" d="M3.4285714285714284 12.428571428571427c1.1834742857142857 0 2.142857142857143 -0.9593828571428571 2.142857142857143 -2.142857142857143l0 -3.4285714285714284c0 -0.7100914285714285 0.5756228571428571 -1.2857142857142856 1.2857142857142856 -1.2857142857142856l3.4285714285714284 0c1.1834742857142857 0 2.142857142857143 -0.9593828571428571 2.142857142857143 -2.142857142857143 0 -1.183464 -0.9593828571428571 -2.142857142857143 -2.142857142857143 -2.142857142857143l-3.4285714285714284 0C3.780137142857143 1.2857142857142856 1.2857142857142856 3.780137142857143 1.2857142857142856 6.857142857142857l0 3.4285714285714284c0 1.1834742857142857 0.9593897142857143 2.142857142857143 2.142857142857143 2.142857142857143ZM1.2857142857142856 24l0 -5.142857142857142c0 -1.1834742857142857 0.9593897142857143 -2.142857142857143 2.142857142857143 -2.142857142857143 1.1834742857142857 0 2.142857142857143 0.9593828571428571 2.142857142857143 2.142857142857143l0 5.14152L5.571428571428571 24l36.857142857142854 0 0 -5.142857142857142c0 -1.1834742857142857 0.9593142857142857 -2.142857142857143 2.142857142857143 -2.142857142857143s2.142857142857143 0.9593828571428571 2.142857142857143 2.142857142857143l0 5.142857142857142 0 17.142857142857142c0 3.077142857142857 -2.494285714285714 5.571428571428571 -5.571428571428571 5.571428571428571l-34.285714285714285 0c-3.0770057142857143 0 -5.571432 -2.494285714285714 -5.571432 -5.571428571428571L1.2857142857142856 24ZM18.857142857142858 5.571428571428571c-1.1834742857142857 0 -2.142857142857143 -0.9593828571428571 -2.142857142857143 -2.142857142857143 0 -1.183464 0.9593828571428571 -2.142857142857143 2.142857142857143 -2.142857142857143l10.285714285714285 0c1.1834742857142857 0 2.142857142857143 0.9593931428571427 2.142857142857143 2.142857142857143 0 1.1834742857142857 -0.9593828571428571 2.142857142857143 -2.142857142857143 2.142857142857143l-10.285714285714285 0Zm25.71428571428571 6.857142857142857c1.183542857142857 0 2.142857142857143 -0.9593828571428571 2.142857142857143 -2.142857142857143l0 -3.4285714285714284c0 -3.0770057142857143 -2.494285714285714 -5.571425142857143 -5.571428571428571 -5.571425142857143L37.714285714285715 1.2857142857142856c-1.183542857142857 0 -2.142857142857143 0.9593931428571427 -2.142857142857143 2.142857142857143 0 1.1834742857142857 0.9593142857142857 2.142857142857143 2.142857142857143 2.142857142857143l3.4285714285714284 0c0.7100571428571428 0 1.2857142857142856 0.5756228571428571 1.2857142857142856 1.2857142857142856l0 3.4285714285714284c0 1.1834742857142857 0.9593142857142857 2.142857142857143 2.142857142857143 2.142857142857143Z" clip-rule="evenodd" stroke-width="3.4286"></path>
  </g>
</svg>