<svg xmlns="http://www.w3.org/2000/svg" fill="none" viewBox="0 0 48 48" id="Flip-Vertical-Arrow-2--Streamline-Core-Remix" height="48" width="48">
  <desc>
    Flip Vertical Arrow 2 Streamline Icon: https://streamlinehq.com
  </desc>
  <g id="Free Remix/Interface Essential/flip-vertical-arrow-2--arrow-design-flip-reflect-up-down">
    <path id="Union" fill="#000000" fill-rule="evenodd" d="M46.71428571428571 24c0 1.1834742857142857 -0.9593142857142857 2.142857142857143 -2.142857142857143 2.142857142857143l-4.285714285714286 0c-1.183542857142857 0 -2.142857142857143 -0.9593828571428571 -2.142857142857143 -2.142857142857143s0.9593142857142857 -2.142857142857143 2.142857142857143 -2.142857142857143l4.285714285714286 0c1.183542857142857 0 2.142857142857143 0.9593828571428571 2.142857142857143 2.142857142857143Zm-8.734628571428571 21.391542857142856c-0.3315428571428571 0.8005714285714286 -1.1129142857142857 1.322742857142857 -1.9796571428571428 1.322742857142857l-24 0c-0.8667085714285714 0 -1.64808 -0.5221714285714285 -1.9797257142857143 -1.322742857142857 -0.33168000000000003 -0.8009142857142857 -0.14835428571428572 -1.7225142857142854 0.4645028571428571 -2.3352l12 -12.000137142857142c0.8368457142857142 -0.8368457142857142 2.1936 -0.8368457142857142 3.030445714285714 0l11.999862857142856 12.000137142857142c0.6130285714285714 0.6126857142857143 0.7964571428571429 1.5342857142857143 0.4645714285714286 2.3352Zm-0.4645714285714286 -40.44774857142857c0.6130285714285714 -0.6128571428571428 0.7964571428571429 -1.5345291428571428 0.4645714285714286 -2.3352582857142856C37.648114285714286 1.8078034285714284 36.86674285714286 1.2857142857142856 36 1.2857142857142856l-24 0c-0.8667085714285714 0 -1.64808 0.5220891428571428 -1.97976 1.3228182857142856 -0.33164571428571427 0.8007325714285713 -0.14831999999999998 1.7224045714285714 0.4645371428571428 2.335261714285714l12 12c0.8368457142857142 0.8368457142857142 2.1936 0.8368457142857142 3.030445714285714 0l11.999862857142856 -12ZM32.28514285714285 26.142857142857142c1.1834742857142857 0 2.142857142857143 -0.9593828571428571 2.142857142857143 -2.142857142857143s-0.9593828571428571 -2.142857142857143 -2.142857142857143 -2.142857142857143l-4.285714285714286 0c-1.1834399999999998 0 -2.142857142857143 0.9593828571428571 -2.142857142857143 2.142857142857143s0.9594171428571429 2.142857142857143 2.142857142857143 2.142857142857143l4.285714285714286 0ZM22.14342857142857 24c0 1.1834742857142857 -0.9594171428571429 2.142857142857143 -2.142857142857143 2.142857142857143l-4.285714285714286 0c-1.1834742857142857 0 -2.142857142857143 -0.9593828571428571 -2.142857142857143 -2.142857142857143s0.9593828571428571 -2.142857142857143 2.142857142857143 -2.142857142857143l4.285714285714286 0c1.1834399999999998 0 2.142857142857143 0.9593828571428571 2.142857142857143 2.142857142857143ZM7.7142857142857135 26.142857142857142c1.1834742857142857 0 2.142857142857143 -0.9593828571428571 2.142857142857143 -2.142857142857143s-0.9593828571428571 -2.142857142857143 -2.142857142857143 -2.142857142857143l-4.285714285714286 0c-1.1834674285714284 0 -2.142857142857143 0.9593828571428571 -2.142857142857143 2.142857142857143s0.9593897142857143 2.142857142857143 2.142857142857143 2.142857142857143l4.285714285714286 0Z" clip-rule="evenodd" stroke-width="3.4286"></path>
  </g>
</svg>