<svg xmlns="http://www.w3.org/2000/svg" fill="none" viewBox="0 0 48 48" id="Floppy-Disk--Streamline-Core-Remix" height="48" width="48">
  <desc>
    Floppy Disk Streamline Icon: https://streamlinehq.com
  </desc>
  <g id="Free Remix/Computer Devices/floppy-disk--disk-floppy-electronics-device-disc-computer-storage">
    <path id="Union" fill="#000000" fill-rule="evenodd" d="m18.548571428571428 1.2857142857142856 -0.009017142857142857 0.00003771428571428571c-1.4616 0.006154285714285714 -2.8622742857142853 0.5864262857142857 -3.8999999999999995 1.6157142857142857L14.639520000000001 2.9014525714285715l-0.006171428571428571 0.006195428571428571L2.9076274285714283 14.633348571428572l-0.00001028571428571428 0 -0.006168 0.006205714285714285c-1.0292914285714285 1.03776 -1.6095599999999999 2.4384 -1.6157142857142857 3.8999999999999995H1.2857142857142856V41.14285714285714c0 1.4777142857142855 0.5869885714285714 2.894742857142857 1.631832 3.9397714285714285 1.0448537142857142 1.0446857142857142 2.461950857142857 1.6316571428571427 3.939596571428571 1.6316571428571427h34.285714285714285c1.4777142857142855 0 2.894742857142857 -0.5869714285714285 3.9394285714285715 -1.6316571428571427 1.0450285714285714 -1.0450285714285714 1.632 -2.4620571428571427 1.632 -3.9397714285714285V6.857177142857143c0 -1.477645714285714 -0.5869714285714285 -2.8947771428571425 -1.632 -3.939610285714286C44.0376 1.8727234285714285 42.620571428571424 1.285734857142857 41.14285714285714 1.285734857142857L18.548571428571428 1.2857142857142856Zm-0.5485714285714286 4.41552c-0.12456 0.06068571428571429 -0.2396228571428571 0.1416342857142857 -0.3400457142857143 0.24071999999999996l-0.0023657142857142857 0.0023314285714285715 -11.713337142857142 11.713337142857142 -0.002297142857142857 0.0023314285714285715c-0.23530285714285712 0.23842285714285716 -0.3682285714285714 0.5592685714285713 -0.37052571428571424 0.8942399999999999V41.14285714285714c0 0.34114285714285714 0.13546285714285713 0.6678857142857143 0.37655999999999995 0.9092571428571428 0.24113142857142858 0.24102857142857143 0.5681485714285713 0.3764571428571428 0.9091542857142857 0.3764571428571428h4.285714285714286V30.85717714285714c0 -0.6820114285714286 0.27092571428571427 -1.3360457142857143 0.7531542857142857 -1.8182742857142855 0.4822285714285714 -0.48226285714285716 1.1362971428571427 -0.7531542857142857 1.8182742857142855 -0.7531542857142857h20.57142857142857c0.6819428571428571 0 1.3361142857142856 0.27089142857142856 1.8181714285714285 0.7531542857142857 0.48239999999999994 0.4822285714285714 0.7532571428571428 1.136262857142857 0.7532571428571428 1.8182742857142855V42.42857142857142H41.14285714285714c0.34114285714285714 0 0.6678857142857143 -0.13542857142857143 0.9092571428571428 -0.3764571428571428 0.24102857142857143 -0.24137142857142857 0.3764571428571428 -0.5681142857142857 0.3764571428571428 -0.9092571428571428V6.857177142857143c0 -0.3410057142857143 -0.13542857142857143 -0.6680228571428571 -0.3764571428571428 -0.9091542857142857 -0.24137142857142857 -0.24113142857142858 -0.5681142857142857 -0.37655999999999995 -0.9092571428571428 -0.37655999999999995h-4.285714285714286v8.142857142857142c0 0.6819771428571428 -0.27085714285714285 1.3360114285714286 -0.7532571428571428 1.8182742857142855 -0.48205714285714285 0.4822285714285714 -1.1362285714285714 0.7531542857142857 -1.8181714285714285 0.7531542857142857H20.57142857142857c-0.6819771428571428 0 -1.3360457142857143 -0.27092571428571427 -1.8182742857142855 -0.7531542857142857 -0.4822285714285714 -0.48226285714285716 -0.7531542857142857 -1.1362971428571427 -0.7531542857142857 -1.8182742857142855V5.7012342857142855Z" clip-rule="evenodd" stroke-width="3.4286"></path>
  </g>
</svg>