<svg xmlns="http://www.w3.org/2000/svg" fill="none" viewBox="0 0 48 48" id="Flower--Streamline-Core-Remix" height="48" width="48">
  <desc>
    Flower Streamline Icon: https://streamlinehq.com
  </desc>
  <g id="Free Remix/Images Photography/flower--photos-photo-picture-camera-photography-pictures-flower-image">
    <path id="Union" fill="#000000" fill-rule="evenodd" d="M42.42857142857142 41.40651428571429c0 0.5643428571428571 -0.45771428571428574 1.0220571428571428 -1.0220571428571428 1.0220571428571428H29.173302857142854l4.913348571428571 -4.913485714285714c0.8367771428571428 -0.8365714285714285 0.8367771428571428 -2.1936 0 -3.0301714285714283 -0.8368457142857142 -0.8369828571428571 -2.1936 -0.8369828571428571 -3.030445714285714 0L26.142857142857142 39.39805714285714V32.37432C31.696422857142856 31.34269714285714 36 26.390571428571427 36 20.57142857142857V13.062857142857142c0.0010285714285714284 -1.1737028571428572 -0.6161142857142857 -2.2887428571428567 -1.6114285714285712 -2.9108571428571426 -0.9909942857142857 -0.6193714285714286 -2.2568571428571427 -0.6876685714285714 -3.308605714285714 -0.17975999999999998l-0.029485714285714285 0.014399999999999998L24 13.511897142857142l-7.050479999999999 -3.525257142857143 -0.029485714285714285 -0.014399999999999998c-1.0517485714285713 -0.5079085714285714 -2.3176114285714284 -0.43961142857142854 -3.308605714285714 0.17975999999999998 -0.9953828571428571 0.6221142857142857 -1.61256 1.7371542857142854 -1.6114285714285712 2.9108571428571426V20.57142857142857c0 5.819108571428571 4.303577142857143 10.771268571428571 9.857142857142856 11.802891428571428v7.023737142857142l-4.913348571428571 -4.913142857142857c-0.8368457142857142 -0.8369828571428571 -2.1936 -0.8369828571428571 -3.030445714285714 0 -0.8368457142857142 0.8365714285714285 -0.8368457142857142 2.1936 0 3.0301714285714283l4.913348571428571 4.913485714285714H6.593417142857142c-0.5644457142857142 0 -1.0219885714285715 -0.45771428571428574 -1.0219885714285715 -1.0220571428571428V6.593417142857142c0 -0.5644457142857142 0.45754285714285714 -1.0219885714285715 1.0219885714285715 -1.0219885714285715H41.40651428571429c0.5643428571428571 0 1.0220571428571428 0.45754285714285714 1.0220571428571428 1.0219885714285715V41.40651428571429ZM23.997359999999997 46.71428571428571H6.593417142857142C3.662057142857143 46.71428571428571 1.2857142857142856 44.337942857142856 1.2857142857142856 41.40651428571429V6.593417142857142C1.2857142857142856 3.662057142857143 3.662057142857143 1.2857142857142856 6.593417142857142 1.2857142857142856H41.40651428571429c2.931428571428571 0 5.307771428571429 2.3763428571428573 5.307771428571429 5.307702857142856V41.40651428571429c0 2.931428571428571 -2.3763428571428573 5.307771428571429 -5.307771428571429 5.307771428571429H24.00264l-0.005279999999999999 0ZM24 15.428571428571427l0 -0.00003428571428571428L24 15.428571428571427Z" clip-rule="evenodd" stroke-width="3.4286"></path>
  </g>
</svg>