<svg xmlns="http://www.w3.org/2000/svg" fill="none" viewBox="0 0 48 48" id="Flu-Mask--Streamline-Core-Remix" height="48" width="48">
  <desc>
    Flu Mask Streamline Icon: https://streamlinehq.com
  </desc>
  <g id="Free Remix/Health/flu-mask--health-medical-hospital-mask-flu-vaccine-protection">
    <path id="Subtract" fill="#000000" fill-rule="evenodd" d="m37.714285714285715 29.52270857142857 3.8406857142857143 -3.8408228571428564c1.3847999999999998 -1.3846971428571428 2.1627428571428573 -3.262731428571428 2.1627428571428573 -5.22096v-2.099074285714286c0 -0.8612228571428572 -0.38262857142857143 -1.677942857142857 -1.044342857142857 -2.2292914285714285 -1.0758857142857143 -0.8968114285714286 -2.6393142857142857 -0.8968114285714286 -3.7151999999999994 0L37.714285714285715 17.16905142857143v12.353657142857141Zm-0.7923428571428571 6.7817485714285715c0.12925714285714285 -0.08228571428571428 0.25165714285714286 -0.18 0.36445714285714287 -0.2928l7.299085714285713 -7.299325714285713c2.1884571428571427 -2.1883885714285713 3.417942857142857 -5.156537142857142 3.417942857142857 -8.251405714285713v-2.099074285714286c0 -2.133154285714286 -0.9476571428571428 -4.15608 -2.5861714285714283 -5.52168 -2.6657142857142855 -2.2212342857142855 -6.537257142857142 -2.2212342857142855 -9.202971428571429 0l-1.3577142857142857 1.1315314285714284c-0.43097142857142856 -0.14928 -0.8637599999999999 -0.38266285714285714 -1.3131428571428572 -0.6983314285714285 -0.8700342857142856 -0.6111771428571429 -1.6982399999999997 -1.4544685714285712 -2.617577142857143 -2.4295199999999997l-0.25532571428571427 -0.2714742857142857 -0.00003428571428571428 -0.00003428571428571428c-0.8055771428571428 -0.8575542857142857 -1.703965714285714 -1.8138514285714282 -2.6530285714285715 -2.5578514285714284 -1.0694057142857143 -0.83832 -2.402365714285714 -1.5725142857142855 -4.017428571428572 -1.5725142857142855 -1.6176 0 -2.945382857142857 0.7362857142857142 -4.008342857142857 1.5772114285714285 -0.9319885714285714 0.7372799999999999 -1.8141942857142859 1.6840457142857141 -2.605577142857143 2.5333714285714284l-0.27610285714285715 0.29588571428571425c-1.4743885714285714 1.5753257142857142 -2.6700685714285712 2.703394285714286 -3.9569142857142854 3.1313142857142857l-1.3674857142857142 -1.1395885714285714c-2.6654742857142852 -2.2212342857142855 -6.537257142857142 -2.2212342857142855 -9.202755428571429 0 -1.6387165714285714 1.3656 -2.5862042125714284 3.388525714285714 -2.5862042125714284 5.52168v2.099074285714286c0 3.094868571428571 1.2294362125714287 6.063017142857142 3.4178419268571427 8.251405714285713L10.713737142857141 36.01165714285714c0.11279999999999998 0.11279999999999998 0.23502857142857142 0.21017142857142856 0.3641485714285714 0.2928 0.09997714285714285 0.11588571428571427 0.21521142857142858 0.24445714285714285 0.3461485714285714 0.3829714285714285 0.5316685714285715 0.5622857142857143 1.3255542857142857 1.2918857142857143 2.41152 2.0149714285714286 2.1860914285714284 1.4554285714285713 5.512937142857142 2.8556571428571424 10.164411428571428 2.8556571428571424 4.651508571428571 0 7.9783542857142855 -1.4002285714285714 10.164411428571428 -2.8556571428571424 1.086137142857143 -0.7230857142857142 1.8798514285714287 -1.4526857142857144 2.411622857142857 -2.0149714285714286 0.13097142857142854 -0.1385142857142857 0.24617142857142857 -0.26708571428571426 0.34594285714285716 -0.3829714285714285ZM10.285714285714285 17.16901714285714v12.353622857142856L6.44496 25.681885714285713c-1.3846971428571428 -1.3846971428571428 -2.1626057142857142 -3.262731428571428 -2.1626057142857142 -5.22096v-2.099074285714286c0 -0.8612228571428572 0.38255999999999996 -1.677942857142857 1.0441371428571427 -2.2292914285714285 1.07616 -0.8968114285714286 2.6393142857142857 -0.8968114285714286 3.7154742857142855 0L10.285714285714285 17.16901714285714ZM18.428571428571427 22.285714285714285c0 -1.1834742857142857 0.9593828571428571 -2.142857142857143 2.142857142857143 -2.142857142857143h6.857142857142857c1.1834742857142857 0 2.142857142857143 0.9593828571428571 2.142857142857143 2.142857142857143s-0.9593828571428571 2.142857142857143 -2.142857142857143 2.142857142857143H20.57142857142857c-1.1834742857142857 0 -2.142857142857143 -0.9593828571428571 -2.142857142857143 -2.142857142857143ZM20.57142857142857 28.71428571428571c-1.1834742857142857 0 -2.142857142857143 0.9593828571428571 -2.142857142857143 2.142857142857143s0.9593828571428571 2.142857142857143 2.142857142857143 2.142857142857143h6.857142857142857c1.1834742857142857 0 2.142857142857143 -0.9593828571428571 2.142857142857143 -2.142857142857143S28.61204571428571 28.71428571428571 27.428571428571427 28.71428571428571H20.57142857142857Z" clip-rule="evenodd" stroke-width="3.4286"></path>
  </g>
</svg>