<svg xmlns="http://www.w3.org/2000/svg" fill="none" viewBox="0 0 48 48" id="Focus-Points--Streamline-Core-Remix" height="48" width="48">
  <desc>
    Focus Points Streamline Icon: https://streamlinehq.com
  </desc>
  <g id="Free Remix/Images Photography/focus-points--camera-frame-photography-pictures-photo-focus-position">
    <path id="Union" fill="#000000" fill-rule="evenodd" d="M4.662274285714286 8.090845714285715c0.24113142857142858 -0.24109714285714282 0.5681485714285713 -0.37655999999999995 0.9091542857142857 -0.37655999999999995h6.857142857142857c1.1834742857142857 0 2.142857142857143 -0.9593828571428571 2.142857142857143 -2.142857142857143S13.612045714285713 3.4285714285714284 12.428571428571427 3.4285714285714284h-6.857142857142857c-1.477645714285714 0 -2.894749714285714 0.5869714285714285 -3.939596571428571 1.6318285714285712C0.5869885714285714 6.105257142857142 0 7.522354285714286 0 9v6.857142857142857c0 1.1834742857142857 0.9593897142857143 2.142857142857143 2.142857142857143 2.142857142857143s2.142857142857143 -0.9593828571428571 2.142857142857143 -2.142857142857143v-6.857142857142857c0 -0.3410057142857143 0.13546285714285713 -0.6680228571428571 0.37655999999999995 -0.9091542857142857ZM33.42857142857142 5.571428571428571c0 -1.1834742857142857 0.9593142857142857 -2.142857142857143 2.142857142857143 -2.142857142857143h6.857142857142857c1.4777142857142855 0 2.894742857142857 0.5869714285714285 3.9394285714285715 1.6318285714285712 1.0450285714285714 1.044857142857143 1.632 2.4619542857142855 1.632 3.9395999999999995v6.857142857142857c0 1.1834742857142857 -0.9593142857142857 2.142857142857143 -2.142857142857143 2.142857142857143s-2.142857142857143 -0.9593828571428571 -2.142857142857143 -2.142857142857143v-6.857142857142857c0 -0.3410057142857143 -0.13542857142857143 -0.6680228571428571 -0.3764571428571428 -0.9091542857142857 -0.24137142857142857 -0.24109714285714282 -0.5681142857142857 -0.37655999999999995 -0.9092571428571428 -0.37655999999999995h-6.857142857142857c-1.183542857142857 0 -2.142857142857143 -0.9593828571428571 -2.142857142857143 -2.142857142857143ZM19.71428571428571 10.285714285714285c0 -2.3669485714285714 1.9187657142857142 -4.285714285714286 4.285714285714286 -4.285714285714286S28.285714285714285 7.918765714285714 28.285714285714285 10.285714285714285 26.36694857142857 14.571428571428571 24 14.571428571428571 19.71428571428571 12.652662857142857 19.71428571428571 10.285714285714285ZM10.285714285714285 19.71428571428571c-2.3669485714285714 0 -4.285714285714286 1.9187657142857142 -4.285714285714286 4.285714285714286S7.918765714285714 28.285714285714285 10.285714285714285 28.285714285714285 14.571428571428571 26.36694857142857 14.571428571428571 24 12.652662857142857 19.71428571428571 10.285714285714285 19.71428571428571Zm13.714285714285714 0c-2.3669485714285714 0 -4.285714285714286 1.9187657142857142 -4.285714285714286 4.285714285714286S21.633051428571427 28.285714285714285 24 28.285714285714285 28.285714285714285 26.36694857142857 28.285714285714285 24 26.36694857142857 19.71428571428571 24 19.71428571428571ZM33.42857142857142 24c0 -2.3669485714285714 1.9186285714285713 -4.285714285714286 4.285714285714286 -4.285714285714286s4.285714285714286 1.9187657142857142 4.285714285714286 4.285714285714286 -1.9186285714285713 4.285714285714286 -4.285714285714286 4.285714285714286S33.42857142857142 26.36694857142857 33.42857142857142 24ZM24 33.42857142857142c-2.3669485714285714 0 -4.285714285714286 1.9186285714285713 -4.285714285714286 4.285714285714286s1.9187657142857142 4.285714285714286 4.285714285714286 4.285714285714286 4.285714285714286 -1.9186285714285713 4.285714285714286 -4.285714285714286S26.36694857142857 33.42857142857142 24 33.42857142857142Zm21.857142857142858 -3.4285714285714284c1.183542857142857 0 2.142857142857143 0.9593828571428571 2.142857142857143 2.142857142857143v6.857142857142857c0 1.4777142857142855 -0.5869714285714285 2.894742857142857 -1.632 3.9394285714285715 -1.0446857142857142 1.0450285714285714 -2.4617142857142853 1.632 -3.9394285714285715 1.632h-6.857142857142857c-1.183542857142857 0 -2.142857142857143 -0.9593142857142857 -2.142857142857143 -2.142857142857143s0.9593142857142857 -2.142857142857143 2.142857142857143 -2.142857142857143h6.857142857142857c0.34114285714285714 0 0.6678857142857143 -0.13542857142857143 0.9092571428571428 -0.3764571428571428 0.24102857142857143 -0.24137142857142857 0.3764571428571428 -0.5681142857142857 0.3764571428571428 -0.9092571428571428v-6.857142857142857c0 -1.1834742857142857 0.9593142857142857 -2.142857142857143 2.142857142857143 -2.142857142857143ZM4.285714285714286 32.14285714285714c0 -1.1834742857142857 -0.9593897142857143 -2.142857142857143 -2.142857142857143 -2.142857142857143S0 30.95938285714286 0 32.14285714285714v6.857142857142857c0 1.4777142857142855 0.5869885714285714 2.894742857142857 1.631832 3.9394285714285715 1.044846857142857 1.0450285714285714 2.461950857142857 1.632 3.939596571428571 1.632h6.857142857142857c1.1834742857142857 0 2.142857142857143 -0.9593142857142857 2.142857142857143 -2.142857142857143s-0.9593828571428571 -2.142857142857143 -2.142857142857143 -2.142857142857143h-6.857142857142857c-0.3410057142857143 0 -0.6680228571428571 -0.13542857142857143 -0.9091542857142857 -0.3764571428571428 -0.24109714285714282 -0.24137142857142857 -0.37655999999999995 -0.5681142857142857 -0.37655999999999995 -0.9092571428571428v-6.857142857142857Z" clip-rule="evenodd" stroke-width="3.4286"></path>
  </g>
</svg>