<svg xmlns="http://www.w3.org/2000/svg" fill="none" viewBox="0 0 48 48" id="Folder-Check--Streamline-Core-Remix" height="48" width="48">
  <desc>
    Folder Check Streamline Icon: https://streamlinehq.com
  </desc>
  <g id="Free Remix/Interface Essential/folder-check--remove-check-folder">
    <path id="Union" fill="#000000" fill-rule="evenodd" d="M4.285714285714286 6.857142857142857c0 -0.7100914285714285 0.5756228571428571 -1.2857142857142856 1.2857142857142856 -1.2857142857142856h9.323039999999999c0.5899885714285714 0 1.10424 0.40152 1.2473485714285715 0.9738857142857144l1.0650171428571429 4.260102857142857c0.23849142857142855 0.9539314285714284 1.0956 1.6231542857142855 2.07888 1.6231542857142855h23.142857142857142c0.7100571428571428 0 1.2857142857142856 0.5756228571428571 1.2857142857142856 1.2857142857142856v27.428571428571427c0 0.7100571428571428 -0.5756571428571428 1.2857142857142856 -1.2857142857142856 1.2857142857142856H5.571428571428571c-0.7100914285714285 0 -1.2857142857142856 -0.5756571428571428 -1.2857142857142856 -1.2857142857142856V6.857142857142857ZM5.571428571428571 1.2857142857142856C2.494412571428571 1.2857142857142856 0 3.780137142857143 0 6.857142857142857v34.285714285714285c0 3.077142857142857 2.4944159999999997 5.571428571428571 5.571428571428571 5.571428571428571h36.857142857142854c3.077142857142857 0 5.571428571428571 -2.494285714285714 5.571428571428571 -5.571428571428571V13.714285714285714c0 -3.0770057142857143 -2.494285714285714 -5.571428571428571 -5.571428571428571 -5.571428571428571H20.958822857142856l-0.65928 -2.6369828571428573C19.67952 3.0256559999999997 17.451017142857143 1.2857142857142856 14.89446857142857 1.2857142857142856H5.571428571428571ZM32.91428571428571 22.114285714285714c0.852102857142857 -1.1361257142857142 0.62184 -2.7478971428571426 -0.5142857142857142 -3.6 -1.1361257142857142 -0.852102857142857 -2.7478971428571426 -0.62184 -3.6 0.5142857142857142L19.973794285714284 30.796834285714283l-3.1188342857142857 -2.0792571428571427c-1.1816571428571427 -0.7877485714285714 -2.7781714285714285 -0.46844571428571424 -3.5659542857142856 0.7131771428571428 -0.7877485714285714 1.1816571428571427 -0.46844571428571424 2.7781714285714285 0.7131771428571428 3.5659542857142856l5.142857142857142 3.4284342857142853c1.135542857142857 0.7570285714285714 2.664685714285714 0.49508571428571424 3.4835314285714283 -0.5965714285714285l10.285714285714285 -13.714285714285714Z" clip-rule="evenodd" stroke-width="3.4286"></path>
  </g>
</svg>