<svg xmlns="http://www.w3.org/2000/svg" fill="none" viewBox="0 0 48 48" id="Folder-Delete--Streamline-Core-Remix" height="48" width="48">
  <desc>
    Folder Delete Streamline Icon: https://streamlinehq.com
  </desc>
  <g id="Free Remix/Interface Essential/folder-delete--remove-minus-folder-subtract-delete">
    <path id="Union" fill="#000000" fill-rule="evenodd" d="M4.285714285714286 6.857142857142857c0 -0.7100914285714285 0.5756228571428571 -1.2857142857142856 1.2857142857142856 -1.2857142857142856h9.323039999999999c0.5899885714285714 0 1.10424 0.40152 1.2473485714285715 0.9738857142857144l1.0650171428571429 4.260102857142857c0.23849142857142855 0.9539314285714284 1.0956 1.6231542857142855 2.07888 1.6231542857142855h23.142857142857142c0.7100571428571428 0 1.2857142857142856 0.5756228571428571 1.2857142857142856 1.2857142857142856v27.428571428571427c0 0.7100571428571428 -0.5756571428571428 1.2857142857142856 -1.2857142857142856 1.2857142857142856H5.571428571428571c-0.7100914285714285 0 -1.2857142857142856 -0.5756571428571428 -1.2857142857142856 -1.2857142857142856V6.857142857142857ZM5.571428571428571 1.2857142857142856C2.494412571428571 1.2857142857142856 0 3.780137142857143 0 6.857142857142857v34.285714285714285c0 3.077142857142857 2.4944159999999997 5.571428571428571 5.571428571428571 5.571428571428571h36.857142857142854c3.077142857142857 0 5.571428571428571 -2.494285714285714 5.571428571428571 -5.571428571428571V13.714285714285714c0 -3.0770057142857143 -2.494285714285714 -5.571428571428571 -5.571428571428571 -5.571428571428571H20.958822857142856l-0.65928 -2.6369828571428573C19.67952 3.0256559999999997 17.451017142857143 1.2857142857142856 14.89446857142857 1.2857142857142856H5.571428571428571ZM15.428571428571427 24.857142857142854c-1.4201485714285715 0 -2.571428571428571 1.1512799999999999 -2.571428571428571 2.571428571428571s1.1512799999999999 2.571428571428571 2.571428571428571 2.571428571428571h17.142857142857142c1.4201485714285715 0 2.571428571428571 -1.1512799999999999 2.571428571428571 -2.571428571428571s-1.1512799999999999 -2.571428571428571 -2.571428571428571 -2.571428571428571h-17.142857142857142Z" clip-rule="evenodd" stroke-width="3.4286"></path>
  </g>
</svg>