<svg xmlns="http://www.w3.org/2000/svg" fill="none" viewBox="0 0 48 48" id="Fork-Spoon--Streamline-Core-Remix" height="48" width="48">
  <desc>
    Fork Spoon Streamline Icon: https://streamlinehq.com
  </desc>
  <g id="Free Remix/Food Drink/fork-spoon--fork-spoon-food-dine-cook-utensils-eat-restaurant-dining-kitchenware">
    <path id="Union" fill="#000000" fill-rule="evenodd" d="M5.571428571428571 3.4285714285714284c0 -1.1834674285714284 -0.9593828571428571 -2.142857142857143 -2.142857142857143 -2.142857142857143C2.245104 1.2857142857142856 1.2857142857142856 2.245104 1.2857142857142856 3.4285714285714284v8.571428571428571c0 4.875942857142857 3.2571085714285712 8.991188571428571 7.7142857142857135 10.28862857142857V44.57142857142857c0 1.6566857142857143 1.343142857142857 3 3 3s3 -1.3433142857142857 3 -3V22.28862857142857c4.457177142857143 -1.29744 7.7142857142857135 -5.412685714285714 7.7142857142857135 -10.28862857142857V3.4285714285714284c0 -1.1834674285714284 -0.9593828571428571 -2.142857142857143 -2.142857142857143 -2.142857142857143S18.428571428571427 2.245104 18.428571428571427 3.4285714285714284v8.571428571428571c0 2.799051428571428 -1.788857142857143 5.180262857142857 -4.285714285714286 6.062777142857143V3.4285714285714284c0 -1.1834674285714284 -0.9593828571428571 -2.142857142857143 -2.142857142857143 -2.142857142857143S9.857142857142856 2.245104 9.857142857142856 3.4285714285714284v14.634205714285713c-2.4968571428571424 -0.8825142857142857 -4.285714285714286 -3.263725714285714 -4.285714285714286 -6.062777142857143V3.4285714285714284Zm30.428571428571427 2.142857142857143c-3.2011885714285713 0 -6.428571428571428 3.26328 -6.428571428571428 8.142857142857142s3.227382857142857 8.142857142857142 6.428571428571428 8.142857142857142c3.2012571428571426 0 6.428571428571428 -3.26328 6.428571428571428 -8.142857142857142s-3.227314285714286 -8.142857142857142 -6.428571428571428 -8.142857142857142ZM25.285714285714285 13.714285714285714C25.285714285714285 7.232571428571429 29.73342857142857 1.2857142857142856 36 1.2857142857142856c6.2664 0 10.714285714285714 5.946891428571428 10.714285714285714 12.428571428571427 0 5.3896114285714285 -3.075085714285714 10.409451428571428 -7.7142857142857135 11.948022857142856V44.57142857142857c0 1.6566857142857143 -1.3433142857142857 3 -3 3s-3 -1.3433142857142857 -3 -3V25.66230857142857C28.360937142857143 24.12373714285714 25.285714285714285 19.103897142857143 25.285714285714285 13.714285714285714Z" clip-rule="evenodd" stroke-width="3.4286"></path>
  </g>
</svg>