<svg xmlns="http://www.w3.org/2000/svg" fill="none" viewBox="0 0 48 48" id="Fork-Knife--Streamline-Core-Remix" height="48" width="48">
  <desc>
    Fork Knife Streamline Icon: https://streamlinehq.com
  </desc>
  <g id="Free Remix/Food Drink/fork-knife--fork-spoon-knife-food-dine-cook-utensils-eat-restaurant-dining-kitchenware">
    <path id="Union" fill="#000000" fill-rule="evenodd" d="M28.01629714285714 1.605750857142857c0.6317485714285714 -0.3904422857142857 1.4206285714285714 -0.42593828571428566 2.08488 -0.09380571428571427C37.61142857142857 5.2671085714285715 41.75931428571428 11.811805714285715 44.01805714285714 18.136422857142858c2.253942857142857 6.31152 2.696228571428571 12.577885714285713 2.696228571428571 16.149291428571427 0 0.5684571428571429 -0.22559999999999997 1.1132571428571427 -0.6277714285714285 1.5150857142857141 -0.4018285714285714 0.40217142857142857 -0.9466285714285714 0.6277714285714285 -1.5150857142857141 0.6277714285714285H33V44.57142857142857c0 1.6566857142857143 -1.343142857142857 3 -3 3s-3 -1.3433142857142857 -3 -3V3.4285714285714284c0 -0.7426628571428571 0.3845485714285714 -1.4323782857142857 1.0162971428571428 -1.8228205714285715ZM31.285714285714285 7.237302857142856V32.14285714285714h11.088685714285713c-0.16457142857142856 -3.3403542857142856 -0.7505142857142857 -7.967417142857142 -2.392457142857143 -12.564994285714285 -1.6618285714285714 -4.6534628571428565 -4.3590857142857145 -9.15894857142857 -8.696228571428572 -12.34056Zm-17.142857142857142 10.825474285714286c2.4968571428571424 -0.8825142857142857 4.285714285714286 -3.263725714285714 4.285714285714286 -6.062777142857143V3.4285714285714284c0 -1.183464 0.9593828571428571 -2.142857142857143 2.142857142857143 -2.142857142857143s2.142857142857143 0.9593931428571427 2.142857142857143 2.142857142857143v8.571428571428571c0 4.875942857142857 -3.2571085714285712 8.991188571428571 -7.7142857142857135 10.28862857142857V44.57142857142857c0 1.6566857142857143 -1.343142857142857 3 -3 3s-3 -1.3433142857142857 -3 -3V22.28862857142857C4.542822857142856 20.99118857142857 1.2857142857142856 16.875942857142856 1.2857142857142856 12V3.4285714285714284C1.2857142857142856 2.2451074285714285 2.245104 1.2857142857142856 3.4285714285714284 1.2857142857142856c1.1834742857142857 0 2.142857142857143 0.9593931428571427 2.142857142857143 2.142857142857143v8.571428571428571c0 2.799051428571428 1.788857142857143 5.180262857142857 4.285714285714286 6.062777142857143V3.4285714285714284c0 -1.183464 0.9593828571428571 -2.142857142857143 2.142857142857143 -2.142857142857143s2.142857142857143 0.9593931428571427 2.142857142857143 2.142857142857143v14.634205714285713Z" clip-rule="evenodd" stroke-width="3.4286"></path>
  </g>
</svg>