<svg xmlns="http://www.w3.org/2000/svg" fill="none" viewBox="0 0 48 48" id="Fragile--Streamline-Core-Remix" height="48" width="48">
  <desc>
    Fragile Streamline Icon: https://streamlinehq.com
  </desc>
  <g id="Free Remix/Shipping/fragile--fragile-shipping-glass-delivery-wine-crack-shipment-sign-sticker">
    <path id="Union" fill="#000000" fill-rule="evenodd" d="M8.571428571428571 0C5.494422857142857 0 3 2.494412571428571 3 5.571428571428571v9.888788571428572c0 6.087668571428571 2.349702857142857 10.89864 6.276548571428571 14.148857142857143 3.3783771428571425 2.79624 7.789680000000001 4.3306628571428565 12.580594285714286 4.67904v9.409028571428571h-6.857142857142857c-1.1834742857142857 0 -2.142857142857143 0.9593142857142857 -2.142857142857143 2.142857142857143s0.9593828571428571 2.142857142857143 2.142857142857143 2.142857142857143h18c1.1834742857142857 0 2.142857142857143 -0.9593142857142857 2.142857142857143 -2.142857142857143s-0.9593828571428571 -2.142857142857143 -2.142857142857143 -2.142857142857143h-6.857142857142857v-9.409028571428571c4.790914285714286 -0.3483771428571429 9.202285714285715 -1.8828 12.580457142857142 -4.67904C42.6504 26.35885714285714 45 21.547885714285712 45 15.460217142857141V5.571428571428571C45 2.4944091428571427 42.505714285714284 0 39.42857142857142 0h-30.857142857142854Zm-1.2857142857142856 5.571428571428571c0 -0.7100914285714285 0.5756228571428571 -1.2857142857142856 1.2857142857142856 -1.2857142857142856h10.429474285714285l-3.196697142857143 3.196662857142857c-0.5536457142857143 0.5536457142857143 -0.82488 1.32936 -0.7368342857142857 2.1073714285714287 0.08801142857142856 0.7780114285714286 0.5257371428571428 1.4735314285714285 1.1890971428571429 1.8894857142857142l6.217097142857143 3.898285714285714L18.56228571428571 19.288834285714284c-1.0042285714285712 1.0041942857142856 -1.0042285714285712 2.6323542857142854 0 3.636548571428571 1.0041942857142856 1.0041942857142856 2.63232 1.0041942857142856 3.636548571428571 0l6.193542857142856 -6.193542857142856c0.5536457142857143 -0.5536457142857143 0.82488 -1.3293942857142855 0.7368342857142857 -2.107405714285714 -0.08801142857142856 -0.7780114285714286 -0.5257371428571428 -1.4735314285714285 -1.1890971428571429 -1.8894514285714283l-6.217097142857143 -3.898285714285714L25.55574857142857 5.004c0.21490285714285712 -0.21493714285714283 0.3838285714285714 -0.4584342857142857 0.5067771428571428 -0.7182857142857142H39.42857142857142c0.7100571428571428 0 1.2857142857142856 0.5756228571428571 1.2857142857142856 1.2857142857142856v9.888788571428572c0 4.8913714285714285 -1.8408 8.461337142857143 -4.723542857142856 10.84734857142857 -2.9326971428571427 2.427428571428571 -7.124365714285713 3.7717028571428566 -11.990742857142857 3.7717028571428566 -4.866377142857142 0 -9.058045714285713 -1.3442742857142855 -11.990811428571428 -3.7717028571428566C9.126479999999999 23.921554285714286 7.285714285714286 20.35158857142857 7.285714285714286 15.460217142857141V5.571428571428571Z" clip-rule="evenodd" stroke-width="3.4286"></path>
  </g>
</svg>