<svg xmlns="http://www.w3.org/2000/svg" fill="none" viewBox="0 0 48 48" id="Front-Camera--Streamline-Core-Remix" height="48" width="48">
  <desc>
    Front Camera Streamline Icon: https://streamlinehq.com
  </desc>
  <g id="Free Remix/Interface Essential/front-camera">
    <path id="Union" fill="#000000" fill-rule="evenodd" d="M17.142857142857142 2.571428571428571c-0.6744685714285714 0 -1.3096114285714284 0.3175577142857143 -1.7142857142857142 0.8571428571428571L10.928571428571429 9.428571428571429H5.571428571428571C2.494412571428571 9.428571428571429 0 11.922994285714285 0 15v24.857142857142854c0 3.077142857142857 2.494412571428571 5.571428571428571 5.571428571428571 5.571428571428571h36.857142857142854c3.077142857142857 0 5.571428571428571 -2.494285714285714 5.571428571428571 -5.571428571428571v-24.857142857142854c0 -3.0770057142857143 -2.494285714285714 -5.571428571428571 -5.571428571428571 -5.571428571428571h-5.357142857142857L32.57142857142857 3.4285714285714284C32.16675428571428 2.888986285714285 31.531611428571424 2.571428571428571 30.857142857142854 2.571428571428571H17.142857142857142Zm-3.4285714285714284 10.285714285714285L18.21428571428571 6.857142857142857h11.571428571428571L34.285714285714285 12.857142857142856c0.4045714285714285 0.5395885714285714 1.0398857142857143 0.8571428571428571 1.7142857142857142 0.8571428571428571h6.428571428571428c0.7100571428571428 0 1.2857142857142856 0.5756228571428571 1.2857142857142856 1.2857142857142856v24.857142857142854c0 0.7100571428571428 -0.5756571428571428 1.2857142857142856 -1.2857142857142856 1.2857142857142856H5.571428571428571c-0.7100914285714285 0 -1.2857142857142856 -0.5756571428571428 -1.2857142857142856 -1.2857142857142856v-24.857142857142854c0 -0.7100914285714285 0.5756228571428571 -1.2857142857142856 1.2857142857142856 -1.2857142857142856H12c0.6744685714285714 0 1.3096114285714284 -0.3175542857142857 1.7142857142857142 -0.8571428571428571Zm3.4285714285714284 5.142857142857142c1.8935314285714284 0 3.4285714285714284 1.53504 3.4285714285714284 3.4285714285714284s-1.53504 3.4285714285714284 -3.4285714285714284 3.4285714285714284 -3.4285714285714284 -1.53504 -3.4285714285714284 -3.4285714285714284 1.53504 -3.4285714285714284 3.4285714285714284 -3.4285714285714284Zm10.285714285714285 3.4285714285714284c0 1.8935314285714284 1.535005714285714 3.4285714285714284 3.4285714285714284 3.4285714285714284s3.4285714285714284 -1.53504 3.4285714285714284 -3.4285714285714284 -1.535005714285714 -3.4285714285714284 -3.4285714285714284 -3.4285714285714284 -3.4285714285714284 1.53504 -3.4285714285714284 3.4285714285714284ZM13.814914285714284 28.533874285714287c1.012662857142857 -0.9956914285714286 2.640754285714286 -0.9819085714285714 3.636445714285714 0.03078857142857143 1.14696 1.1665371428571427 3.3695999999999997 2.415051428571428 6.543017142857142 2.415051428571428s5.396057142857143 -1.2485142857142855 6.543017142857142 -2.415051428571428c0.9956571428571428 -1.012697142857143 2.6237485714285715 -1.0264799999999998 3.636411428571428 -0.03078857142857143 1.0125942857142856 0.9956571428571428 1.0263085714285713 2.6237485714285715 0.03078857142857143 3.636411428571428 -2.1193714285714282 2.155542857142857 -5.6657142857142855 3.952114285714286 -10.210217142857143 3.952114285714286 -4.544537142857143 0 -8.090845714285715 -1.7965714285714285 -10.210217142857143 -3.952114285714286 -0.9956914285714286 -1.012662857142857 -0.9819085714285714 -2.640754285714286 0.030754285714285713 -3.636411428571428Z" clip-rule="evenodd" stroke-width="3.4286"></path>
  </g>
</svg>