<svg xmlns="http://www.w3.org/2000/svg" fill="none" viewBox="0 0 48 48" id="Galaxy-1--Streamline-Core-Remix" height="48" width="48">
  <desc>
    Galaxy 1 Streamline Icon: https://streamlinehq.com
  </desc>
  <g id="Free Remix/Nature Ecology/galaxy-1--science-space-universe-astronomy">
    <path id="Union" fill="#000000" fill-rule="evenodd" d="M22.79293714285714 1.0681234285714285c0.5917371428571429 -1.0249121142857143 1.9023085714285712 -1.3760729142857142 2.9272114285714284 -0.7843392C35.39554285714286 5.869851428571428 36.98742857142857 17.44590857142857 32.613119999999995 26.66214857142857c5.044251428571429 -2.466205714285714 8.499565714285714 -7.138902857142857 8.499565714285714 -13.030697142857141 0 -1.1834399999999998 0.9596571428571428 -2.142857142857143 2.142857142857143 -2.142857142857143 1.183542857142857 0 2.142857142857143 0.9594171428571429 2.142857142857143 2.142857142857143 0 11.15544 -9.201600000000001 18.317554285714284 -19.352194285714283 19.15494857142857 4.660525714285714 3.1148571428571428 10.42008 3.7765714285714282 15.489565714285712 0.8495999999999999 1.0251428571428571 -0.5917371428571429 2.335542857142857 -0.24058285714285713 2.9273142857142855 0.7844571428571429 0.5917714285714285 1.0248 0.24068571428571428 2.3352 -0.7844571428571429 2.9269714285714286 -9.644571428571428 5.5683428571428575 -20.453382857142856 1.1362285714285714 -26.264022857142855 -7.1939657142857145 -0.37127999999999994 5.5976228571428575 1.9353257142857143 10.921851428571427 7.008342857142856 13.850537142857142 1.024902857142857 0.5917714285714285 1.3760571428571426 1.9021714285714284 0.7843199999999999 2.9273142857142855 -0.5917371428571429 1.0248 -1.9022742857142858 1.3758857142857142 -2.9271771428571425 0.7841142857142857 -9.644639999999999 -5.5680000000000005 -11.21064 -17.144845714285715 -6.901954285714285 -26.34205714285714 -5.033485714285714 2.4773485714285712 -8.490857142857143 7.136914285714285 -8.490857142857143 12.99462857142857 0 1.183542857142857 -0.9593828571428571 2.142857142857143 -2.142857142857143 2.142857142857143s-2.1428605714285713 -0.9593142857142857 -2.1428605714285713 -2.142857142857143c0 -11.153108571428572 9.270209142857142 -18.302331428571428 19.407192 -19.152102857142857 -4.659565714285714 -3.1408457142857142 -10.43832 -3.7998171428571426 -15.544182857142856 -0.8519314285714286 -1.024902857142857 0.5917028571428572 -2.3354742857142856 0.24054857142857142 -2.9272114285714284 -0.7843542857142857 -0.5917268571428571 -1.024902857142857 -0.2405657142857143 -2.3354742857142856 0.7843542857142857 -2.9272114285714284 9.675222857142858 -5.586 20.496342857142857 -1.1768914285714285 26.29062857142857 7.21944 0.38643428571428573 -5.601668571428571 -1.9325485714285715 -10.930594285714285 -7.035051428571429 -13.876525714285714 -1.024902857142857 -0.5917268571428571 -1.3760914285714285 -1.9022777142857141 -0.7843542857142857 -2.9271908571428567Z" clip-rule="evenodd" stroke-width="3.4286"></path>
  </g>
</svg>