<svg xmlns="http://www.w3.org/2000/svg" fill="none" viewBox="0 0 48 48" id="Galaxy-2--Streamline-Core-Remix" height="48" width="48">
  <desc>
    Galaxy 2 Streamline Icon: https://streamlinehq.com
  </desc>
  <g id="Free Remix/Nature Ecology/galaxy-2--science-space-universe-astronomy">
    <path id="Union" fill="#000000" fill-rule="evenodd" d="M43.526399999999995 7.809085714285714c2.5776 1.7702399999999998 4.476685714285714 4.35672 4.476685714285714 7.783302857142857 0 5.127531428571428 -3.0761142857142856 9.496559999999999 -7.448914285714285 12.488537142857142 -4.386171428571429 3.0012342857142857 -10.283074285714285 4.78848 -16.554274285714285 4.78848l-0.04128 -0.00037714285714285714h-0.0030857142857142854c-4.898297142857143 0 -8.869131428571428 -3.970834285714286 -8.869131428571428 -8.869131428571428 0 -1.18176 0.23112 -2.30952 0.65064 -3.3405942857142854 -2.2031314285714285 0.6929485714285715 -4.192868571428571 1.6484914285714285 -5.871394285714286 2.79696 -3.614605714285714 2.473165714285714 -5.583291428571428 5.671234285714285 -5.583291428571428 8.95152 0 1.6181828571428571 0.8334857142857143 3.0254742857142856 2.6173028571428567 4.250502857142857 1.8264342857142857 1.2541714285714285 4.482171428571428 2.1757714285714287 7.562262857142857 2.672571428571428 3.0542399999999996 0.49234285714285714 6.372754285714285 0.5424 9.40998857142857 0.17211428571428572 3.066582857142857 -0.37405714285714287 5.683405714285714 -1.1564571428571429 7.433382857142857 -2.206285714285714 1.014822857142857 -0.6089142857142857 2.331085714285714 -0.2801142857142857 2.94 0.734742857142857 0.60888 1.0148571428571427 0.27973714285714285 2.331085714285714 -0.7350171428571428 2.94 -2.4539314285714284 1.4725714285714284 -5.722628571428571 2.371542857142857 -9.119554285714285 2.7857142857142856 -3.4263085714285713 0.4179428571428571 -7.149394285714286 0.36308571428571423 -10.611222857142856 -0.19542857142857142 -3.4360114285714283 -0.5540571428571428 -6.770879999999999 -1.6296 -9.306 -3.370628571428571 -2.5777542857142857 -1.7701714285714285 -4.476845355428571 -4.356685714285714 -4.476845355428571 -7.783302857142857 0 -5.127531428571428 3.0760510697142855 -9.496559999999999 7.4489024982857135 -12.488537142857142 4.364674285714286 -2.986388571428571 10.224754285714285 -4.770754285714285 16.46112 -4.788377142857143 0.016285714285714285 -0.00006857142857142857 0.03257142857142857 -0.00013714285714285713 0.048857142857142856 -0.00013714285714285713 0.006068571428571428 0 0.012137142857142857 0.00003428571428571428 0.01817142857142857 0.00003428571428571428 0.008742857142857142 0 0.017485714285714285 -0.00003428571428571428 0.026228571428571427 -0.00003428571428571428 0.01433142857142857 0 0.028628571428571427 0.00013714285714285713 0.04289142857142857 0.00044571428571428567 4.85808 0.04683428571428571 8.78184 3.9995314285714287 8.78184 8.86872 0 1.1940685714285715 -0.23595428571428573 2.33304 -0.6638057142857142 3.372788571428571 2.2438285714285713 -0.6953828571428571 4.269085714285714 -1.6626514285714284 5.973428571428571 -2.8287771428571427 3.6144 -2.4732 5.583085714285715 -5.671234285714285 5.583085714285715 -8.95152 0 -1.6181828571428571 -0.8334857142857143 -3.0254399999999997 -2.6173714285714285 -4.250468571428571 -1.8263999999999998 -1.2542742857142857 -4.481828571428571 -2.175668571428571 -7.562091428571429 -2.6724685714285714 -3.0542742857142855 -0.49261714285714286 -6.372754285714285 -0.5427085714285713 -9.40998857142857 -0.17232 -3.0666171428571425 0.3739885714285714 -5.68344 1.1564914285714285 -7.433382857142857 2.2064914285714283 -1.014822857142857 0.60888 -2.33112 0.27980571428571427 -2.94 -0.7350171428571428 -0.60888 -1.0147885714285714 -0.27980571428571427 -2.331085714285714 0.7350171428571428 -2.939965714285714 2.4539314285714284 -1.472365714285714 5.722628571428571 -2.3714399999999998 9.119554285714285 -2.7857142857142856 3.4263085714285713 -0.41784 7.149394285714286 -0.3628457142857142 10.611222857142856 0.19549714285714284 3.4360114285714283 0.5541942857142858 6.770982857142856 1.6296685714285715 9.30606857142857 3.370662857142857Z" clip-rule="evenodd" stroke-width="3.4286"></path>
  </g>
</svg>