<svg xmlns="http://www.w3.org/2000/svg" fill="none" viewBox="0 0 48 48" id="Gameboy--Streamline-Core-Remix" height="48" width="48">
  <desc>
    Gameboy Streamline Icon: https://streamlinehq.com
  </desc>
  <g id="Free Remix/Entertainment/gameboy--entertainment-gaming-device-gameboy">
    <path id="Union" fill="#000000" fill-rule="evenodd" d="M7.7142857142857135 5.505497142857142c0 -0.67368 0.5461028571428571 -1.219782857142857 1.219782857142857 -1.219782857142857h30.26376c0.6737142857142857 0 1.2198857142857142 0.5461028571428571 1.2198857142857142 1.219782857142857V42.4944c0 0.6737142857142857 -0.5461714285714285 1.2198857142857142 -1.2198857142857142 1.2198857142857142H8.934068571428572c-0.67368 0 -1.219782857142857 -0.5461714285714285 -1.219782857142857 -1.2198857142857142V5.505497142857142ZM8.934068571428572 0C5.893474285714285 0 3.4285714285714284 2.4648925714285714 3.4285714285714284 5.505497142857142V42.4944C3.4285714285714284 45.535199999999996 5.893474285714285 48 8.934068571428572 48h30.26376c3.040457142857143 0 5.505599999999999 -2.4648 5.505599999999999 -5.505599999999999V5.505497142857142C44.703428571428574 2.464896 42.23828571428571 0 39.19782857142857 0H8.934068571428572Zm2.059782857142857 9.004182857142856c0 -1.1834742857142857 0.9594171428571429 -2.142857142857143 2.142857142857143 -2.142857142857143h21.857005714285712c1.183542857142857 0 2.142857142857143 0.9593828571428571 2.142857142857143 2.142857142857143v16.8132c0 1.1834742857142857 -0.9593142857142857 2.142857142857143 -2.142857142857143 2.142857142857143H13.13670857142857c-1.1834399999999998 0 -2.142857142857143 -0.9593828571428571 -2.142857142857143 -2.142857142857143V9.004182857142856Zm21.487645714285712 22.512582857142856c2.34456 0.0047657142857142855 4.243988571428571 1.9069371428571427 4.243988571428571 4.252834285714285 0 2.3485714285714288 -1.9042285714285714 4.2528 -4.252834285714285 4.2528l0.008845714285714285 -8.505634285714285Zm-0.017142857142857144 8.505291428571429c-2.3446971428571426 -0.004457142857142857 -4.24392 -1.9066285714285716 -4.24392 -4.252457142857143 0 -2.3488457142857144 1.9040228571428568 -4.252868571428571 4.252731428571429 -4.252868571428571l-0.00881142857142857 8.505325714285712ZM15.659588571428571 29.835085714285714c1.420182857142857 0 2.571428571428571 1.1512799999999999 2.571428571428571 2.571428571428571v0.79104h0.7905599999999999c1.420182857142857 0 2.571428571428571 1.1512457142857142 2.571428571428571 2.57136 0 1.4201142857142857 -1.1512457142857142 2.571428571428571 -2.571428571428571 2.571428571428571h-0.7905599999999999v0.7913142857142856c0 1.4204571428571429 -1.1512457142857142 2.571428571428571 -2.571428571428571 2.571428571428571 -1.4201485714285715 0 -2.571428571428571 -1.1509714285714285 -2.571428571428571 -2.571428571428571v-0.7913142857142856h-0.7918285714285713c-1.420182857142857 0 -2.571428571428571 -1.1513142857142855 -2.571428571428571 -2.571428571428571s1.1512457142857142 -2.57136 2.571428571428571 -2.57136h0.7918285714285713V32.40651428571429c0 -1.4201485714285715 1.1512799999999999 -2.571428571428571 2.571428571428571 -2.571428571428571Z" clip-rule="evenodd" stroke-width="3.4286"></path>
  </g>
</svg>