<svg xmlns="http://www.w3.org/2000/svg" fill="none" viewBox="0 0 48 48" id="Gas-Station-Fuel-Petroleum--Streamline-Core-Remix" height="48" width="48">
  <desc>
    Gas Station Fuel Petroleum Streamline Icon: https://streamlinehq.com
  </desc>
  <g id="Free Remix/Map Travel/gas-station-fuel-petroleum">
    <path id="Union" fill="#000000" fill-rule="evenodd" d="M46.94365714285714 4.943794285714286c0.8369142857142857 -0.8368457142857142 0.8369142857142857 -2.193613714285714 0 -3.030452571428571 -0.8365714285714285 -0.8368354285714285 -2.1936 -0.8368354285714285 -3.0301714285714283 0l-9.428571428571429 9.428578285714284c-0.40199999999999997 0.4018628571428571 -0.6277714285714285 0.946902857142857 -0.6277714285714285 1.515222857142857v9.857142857142856c0 2.3669485714285714 1.9186285714285713 4.285714285714286 4.285714285714286 4.285714285714286s4.285714285714286 1.9187657142857142 4.285714285714286 4.285714285714286v0.42857142857142855c0 2.6036571428571427 -2.1106285714285713 4.714285714285714 -4.714285714285714 4.714285714285714H31.285714285714285V11.142857142857142C31.285714285714285 6.172285714285714 27.256285714285713 2.142857142857143 22.285714285714285 2.142857142857143H10.285714285714285C5.315142857142857 2.142857142857143 1.2857142857142856 6.172285714285714 1.2857142857142856 11.142857142857142v29.142857142857142c0 3.077142857142857 2.494422857142857 5.571428571428571 5.571428571428571 5.571428571428571h18.857142857142858c2.9328 0 5.336365714285714 -2.265942857142857 5.555177142857143 -5.142857142857142H37.714285714285715c4.9704 0 9 -4.029599999999999 9 -9v-0.42857142857142855c0 -4.733862857142857 -3.8375999999999997 -8.571428571428571 -8.571428571428571 -8.571428571428571V20.57142857142857H42.857142857142854c1.183542857142857 0 2.142857142857143 -0.9593828571428571 2.142857142857143 -2.142857142857143V6.887588571428571l1.9436571428571425 -1.9437942857142856ZM40.714285714285715 16.285714285714285h-2.571428571428571v-2.540982857142857l2.571428571428571 -2.571428571428571V16.285714285714285Zm-13.714285714285714 -5.142857142857142c0 -2.6036228571428572 -2.110662857142857 -4.714285714285714 -4.714285714285714 -4.714285714285714H10.285714285714285c-2.6036228571428572 0 -4.714285714285714 2.110662857142857 -4.714285714285714 4.714285714285714v29.142857142857142c0 0.7100571428571428 0.5756228571428571 1.2857142857142856 1.2857142857142856 1.2857142857142856h18.857142857142858c0.7100914285714285 0 1.2857142857142856 -0.5756571428571428 1.2857142857142856 -1.2857142857142856v-29.142857142857142Zm-18 5.142857142857142c0 -0.9467657142857142 0.76752 -1.7142857142857142 1.7142857142857142 -1.7142857142857142h11.142857142857142c0.9467657142857142 0 1.7142857142857142 0.76752 1.7142857142857142 1.7142857142857142v6.857142857142857c0 0.9467657142857142 -0.76752 1.7142857142857142 -1.7142857142857142 1.7142857142857142h-11.142857142857142c-0.9467657142857142 0 -1.7142857142857142 -0.76752 -1.7142857142857142 -1.7142857142857142v-6.857142857142857ZM12.857142857142856 32.14285714285714c0 -1.1834742857142857 -0.9593828571428571 -2.142857142857143 -2.142857142857143 -2.142857142857143s-2.142857142857143 0.9593828571428571 -2.142857142857143 2.142857142857143v3.4285714285714284c0 1.183542857142857 0.9593828571428571 2.142857142857143 2.142857142857143 2.142857142857143s2.142857142857143 -0.9593142857142857 2.142857142857143 -2.142857142857143v-3.4285714285714284Z" clip-rule="evenodd" stroke-width="3.4286"></path>
  </g>
</svg>