<svg xmlns="http://www.w3.org/2000/svg" fill="none" viewBox="0 0 48 48" id="Gender-Equality--Streamline-Core-Remix" height="48" width="48">
  <desc>
    Gender Equality Streamline Icon: https://streamlinehq.com
  </desc>
  <g id="Free Remix/Nature Ecology/gender-equality">
    <path id="Union" fill="#000000" fill-rule="evenodd" d="M32.57142857142857 0c-0.69336 0 -1.3184571428571428 0.417672 -1.5837942857142857 1.0582559999999999 -0.2653371428571428 0.6405839999999999 -0.11866285714285714 1.3779291428571427 0.37162285714285714 1.8682114285714286l2.770457142857143 2.7704811428571428 -3.4735199999999997 3.4735199999999997C28.312525714285716 7.446857142857143 25.418022857142855 6.428571428571428 22.285714285714285 6.428571428571428 14.474845714285713 6.428571428571428 8.142857142857142 12.76056 8.142857142857142 20.57142857142857c0 7.082434285714286 5.205977142857143 12.948925714285714 12 13.981714285714286v4.018285714285714H17.142857142857142c-1.1834742857142857 0 -2.142857142857143 0.9593142857142857 -2.142857142857143 2.142857142857143s0.9593828571428571 2.142857142857143 2.142857142857143 2.142857142857143h3v3c0 1.183542857142857 0.9593828571428571 2.142857142857143 2.142857142857143 2.142857142857143s2.142857142857143 -0.9593142857142857 2.142857142857143 -2.142857142857143V42.857142857142854H27.428571428571427c1.1834742857142857 0 2.142857142857143 -0.9593142857142857 2.142857142857143 -2.142857142857143S28.61204571428571 38.57142857142857 27.428571428571427 38.57142857142857h-3v-4.018285714285714c6.794022857142856 -1.0327885714285714 12 -6.89928 12 -13.981714285714286 0 -3.1323428571428567 -1.0182857142857142 -6.026845714285714 -2.7419314285714287 -8.370514285714284l3.4735885714285715 -3.4735199999999997 2.7702857142857145 2.7704914285714284c0.4902857142857142 0.4902857142857142 1.2277714285714285 0.63696 1.8682285714285716 0.37162285714285714 0.6408 -0.2653371428571428 1.0583999999999998 -0.8904342857142856 1.0583999999999998 -1.5837942857142857V1.7142857142857142c0 -0.9467725714285714 -0.7676571428571428 -1.7142857142857142 -1.7142857142857142 -1.7142857142857142H32.57142857142857Zm-3.3157371428571425 13.601417142857143 -0.011177142857142856 -0.011279999999999998C27.461622857142853 11.812971428571428 25.00196571428571 10.714285714285714 22.285714285714285 10.714285714285714 16.84176 10.714285714285714 12.428571428571427 15.127474285714285 12.428571428571427 20.57142857142857S16.84176 30.428571428571427 22.285714285714285 30.428571428571427 32.14285714285714 26.015382857142853 32.14285714285714 20.57142857142857c0 -2.71608 -1.0985142857142858 -5.175599999999999 -2.8755085714285715 -6.958457142857142l-0.011657142857142856 -0.011554285714285715ZM16.71428571428571 17.142857142857142c0 -1.1834742857142857 0.9593828571428571 -2.142857142857143 2.142857142857143 -2.142857142857143h6.857142857142857c1.1834742857142857 0 2.142857142857143 0.9593828571428571 2.142857142857143 2.142857142857143s-0.9593828571428571 2.142857142857143 -2.142857142857143 2.142857142857143h-6.857142857142857c-1.1834742857142857 0 -2.142857142857143 -0.9593828571428571 -2.142857142857143 -2.142857142857143ZM18.857142857142858 21.857142857142858c-1.1834742857142857 0 -2.142857142857143 0.9593828571428571 -2.142857142857143 2.142857142857143s0.9593828571428571 2.142857142857143 2.142857142857143 2.142857142857143h6.857142857142857c1.1834742857142857 0 2.142857142857143 -0.9593828571428571 2.142857142857143 -2.142857142857143s-0.9593828571428571 -2.142857142857143 -2.142857142857143 -2.142857142857143h-6.857142857142857Z" clip-rule="evenodd" stroke-width="3.4286"></path>
  </g>
</svg>