<svg xmlns="http://www.w3.org/2000/svg" fill="none" viewBox="0 0 48 48" id="Gif-Format--Streamline-Core-Remix" height="48" width="48">
  <desc>
    Gif Format Streamline Icon: https://streamlinehq.com
  </desc>
  <g id="Free Remix/Interface Essential/gif-format">
    <path id="Union" fill="#000000" fill-rule="evenodd" d="M39 39c2.6036571428571427 0 4.714285714285714 -2.1106285714285713 4.714285714285714 -4.714285714285714V13.714285714285714c0 -2.6036228571428572 -2.1106285714285713 -4.714285714285714 -4.714285714285714 -4.714285714285714h-30c-2.6036228571428572 0 -4.714285714285714 2.110662857142857 -4.714285714285714 4.714285714285714l0 20.57142857142857c0 2.6036571428571427 2.110662857142857 4.714285714285714 4.714285714285714 4.714285714285714l30 0ZM48 13.714285714285714v20.57142857142857c0 4.9704 -4.029599999999999 9 -9 9l-30 0C4.0294285714285705 43.285714285714285 0 39.25611428571428 0 34.285714285714285V13.714285714285714c0 -4.970571428571429 4.0294285714285705 -9 9 -9h30C43.9704 4.714285714285714 48 8.743714285714285 48 13.714285714285714ZM6.428571428571428 20.57142857142857c0 -3.0770057142857143 2.494422857142857 -5.571428571428571 5.571428571428571 -5.571428571428571h3.4285714285714284c2.0649257142857143 0 3.864651428571428 1.1244342857142855 4.8247542857142856 2.7841714285714287 0.5925942857142856 1.0243885714285714 0.24253714285714284 2.3352342857142854 -0.7818857142857143 2.927828571428571s-2.3352685714285712 0.24253714285714284 -2.9278628571428573 -0.7818857142857143C16.318045714285713 19.54021714285714 15.901782857142857 19.285714285714285 15.428571428571427 19.285714285714285h-3.4285714285714284c-0.7100914285714285 0 -1.2857142857142856 0.5756228571428571 -1.2857142857142856 1.2857142857142856v6.857142857142857c0 0.7100914285714285 0.5756228571428571 1.2857142857142856 1.2857142857142856 1.2857142857142856h3.4285714285714284c0.7100914285714285 0 1.2857142857142856 -0.5756228571428571 1.2857142857142856 -1.2857142857142856v-0.42857142857142855H14.571428571428571c-1.1834742857142857 0 -2.142857142857143 -0.9593828571428571 -2.142857142857143 -2.142857142857143s0.9593828571428571 -2.142857142857143 2.142857142857143 -2.142857142857143H18.857142857142858c1.1834742857142857 0 2.142857142857143 0.9593828571428571 2.142857142857143 2.142857142857143V27.428571428571427c0 3.0770057142857143 -2.494422857142857 5.571428571428571 -5.571428571428571 5.571428571428571h-3.4285714285714284c-3.0770057142857143 0 -5.571428571428571 -2.494422857142857 -5.571428571428571 -5.571428571428571V20.57142857142857Zm20.57142857142857 -3.4285714285714284c0 -1.1834742857142857 -0.9593828571428571 -2.142857142857143 -2.142857142857143 -2.142857142857143s-2.142857142857143 0.9593828571428571 -2.142857142857143 2.142857142857143v13.714285714285714c0 1.1834742857142857 0.9593828571428571 2.142857142857143 2.142857142857143 2.142857142857143s2.142857142857143 -0.9593828571428571 2.142857142857143 -2.142857142857143V17.142857142857142Zm1.7142857142857142 0c0 -1.1834742857142857 0.9593828571428571 -2.142857142857143 2.142857142857143 -2.142857142857143h8.571428571428571c1.183542857142857 0 2.142857142857143 0.9593828571428571 2.142857142857143 2.142857142857143s-0.9593142857142857 2.142857142857143 -2.142857142857143 2.142857142857143H33v2.571428571428571H37.714285714285715c1.183542857142857 0 2.142857142857143 0.9593828571428571 2.142857142857143 2.142857142857143s-0.9593142857142857 2.142857142857143 -2.142857142857143 2.142857142857143H33V30.857142857142854c0 1.1834742857142857 -0.9593828571428571 2.142857142857143 -2.142857142857143 2.142857142857143S28.71428571428571 32.04061714285714 28.71428571428571 30.857142857142854V17.142857142857142Z" clip-rule="evenodd" stroke-width="3.4286"></path>
  </g>
</svg>