<svg xmlns="http://www.w3.org/2000/svg" fill="none" viewBox="0 0 48 48" id="Gift-2--Streamline-Core-Remix" height="48" width="48">
  <desc>
    Gift 2 Streamline Icon: https://streamlinehq.com
  </desc>
  <g id="Free Remix/Money Shopping/gift-2--reward-box-social-present-gift-media-rating-bow">
    <path id="Union" fill="#000000" fill-rule="evenodd" d="M7.0193828571428565 10.857017142857142c-0.16364571428571428 -0.4749942857142857 -0.2940685714285714 -0.9623999999999999 -0.38509714285714286 -1.4562857142857142 -0.35927999999999993 -1.9501714285714284 -0.14382857142857142 -4.361622857142857 1.5891428571428572 -6.284273142857143C9.93 1.2230845714285714 12.551348571428571 0.42857142857142855 15.624857142857142 0.42857142857142855c3.8181257142857143 0 6.650022857142856 2.4530057142857142 8.375074285714286 4.77624C25.724982857142855 2.8815771428571426 28.55684571428571 0.42857142857142855 32.37497142857143 0.42857142857142855c3.0733714285714284 0 5.694857142857143 0.7945131428571428 7.401599999999999 2.687886857142857 1.7327999999999997 1.9226502857142855 1.9481142857142857 4.334101714285715 1.5887999999999998 6.284273142857143 -0.09085714285714284 0.4938857142857143 -0.22114285714285714 0.9812914285714286 -0.3850285714285714 1.4562857142857142H41.14285714285714c3.077142857142857 0 5.571428571428571 2.4943885714285714 5.571428571428571 5.571428571428571v3.7741714285714285c0 1.9348799999999997 -0.9863999999999999 3.63936 -2.483657142857143 4.6381371428571425V41.14285714285714c0 3.077142857142857 -2.494285714285714 5.571428571428571 -5.571428571428571 5.571428571428571H9.33984c-3.0770057142857143 0 -5.571428571428571 -2.494285714285714 -5.571428571428571 -5.571428571428571V24.840205714285712C2.271637714285714 23.841325714285713 1.2857142857142856 22.13712 1.2857142857142856 20.202617142857143v-3.7741714285714285c0 -3.0770399999999998 2.494422857142857 -5.571428571428571 5.571428571428571 -5.571428571428571h0.16224Zm6.879908571428571 0c-0.06678857142857143 -0.06678857142857143 -0.1387542857142857 -0.14369142857142858 -0.21548571428571428 -0.23225142857142855 -0.5692799999999999 -0.6570171428571429 -1.0056 -1.533942857142857 -1.1488114285714284 -2.3112 -0.14077714285714285 -0.7641257142857143 0.04333714285714286 -1.0669714285714285 0.1452342857142857 -1.1800114285714285 0.12829714285714286 -0.1423542857142857 0.7771199999999999 -0.7049828571428571 2.9446285714285714 -0.7049828571428571 1.1088 0 2.4176914285714286 0.7693028571428571 3.6380228571428574 2.4628114285714284 0.48171428571428576 0.6684342857142856 0.8520685714285714 1.3486285714285713 1.1245714285714286 1.9656342857142857H13.899291428571427Zm13.713085714285713 0h6.48816c0.06678857142857143 -0.06678857142857143 0.1387542857142857 -0.14369142857142858 0.21534857142857144 -0.23225142857142855 0.5694857142857143 -0.6570171428571429 1.0056 -1.533942857142857 1.1489142857142858 -2.3112 0.1409142857142857 -0.7641257142857143 -0.043199999999999995 -1.0669714285714285 -0.14502857142857142 -1.1800114285714285 -0.12857142857142856 -0.1423542857142857 -0.7772571428571429 -0.7049828571428571 -2.9448 -0.7049828571428571 -1.1088 0 -2.4176914285714286 0.7693028571428571 -3.6380228571428574 2.4628114285714284 -0.48168 0.6684342857142856 -0.8520342857142857 1.3486285714285713 -1.1245714285714286 1.9656342857142857ZM8.054125714285714 41.14285714285714V25.77414857142857H20.142857142857142l0 16.65442285714286H9.33984c-0.7100914285714285 0 -1.2857142857142856 -0.5756571428571428 -1.2857142857142856 -1.2857142857142856Zm19.80301714285714 1.2857142857142856 0 -16.65442285714286h12.087771428571427V41.14285714285714c0 0.7100571428571428 -0.5756571428571428 1.2857142857142856 -1.2857142857142856 1.2857142857142856H27.857142857142854Zm-22.285714285714285 -26.000125714285716c0 -0.7100914285714285 0.5756228571428571 -1.2857142857142856 1.2857142857142856 -1.2857142857142856h34.285714285714285c0.7100571428571428 0 1.2857142857142856 0.5756228571428571 1.2857142857142856 1.2857142857142856v3.7741714285714285c0 0.7100914285714285 -0.5756571428571428 1.2857142857142856 -1.2857142857142856 1.2857142857142856H6.857142857142857c-0.7100914285714285 0 -1.2857142857142856 -0.5756228571428571 -1.2857142857142856 -1.2857142857142856v-3.7741714285714285Z" clip-rule="evenodd" stroke-width="3.4286"></path>
  </g>
</svg>