<svg xmlns="http://www.w3.org/2000/svg" fill="none" viewBox="0 0 48 48" id="Gift--Streamline-Core-Remix" height="48" width="48">
  <desc>
    Gift Streamline Icon: https://streamlinehq.com
  </desc>
  <g id="Free Remix/Money Shopping/gift--reward-box-social-present-gift-media-rating-bow">
    <path id="Union" fill="#000000" fill-rule="evenodd" d="M15.634834285714284 1.5525017142857143c-1.272822857142857 -1.0606937142857142 -3.164502857142857 -0.88872 -4.2252 0.3841097142857143 -1.0606971428571428 1.2728331428571427 -0.88872 3.16452 0.38410285714285713 4.225217142857143l4.948697142857143 4.123919999999999H6.857142857142857c-3.0770057142857143 0 -5.571428571428571 2.4943885714285714 -5.571428571428571 5.571428571428571v6.857142857142857c0 2.3176457142857143 1.415184 4.304811428571429 3.4285714285714284 5.1444342857142855V41.57142857142857c0 1.4777142857142855 0.5869714285714285 2.894742857142857 1.6318285714285712 3.9397714285714285 1.044857142857143 1.0446857142857142 2.4619542857142855 1.6316571428571427 3.9395999999999995 1.6316571428571427h27.428571428571427c1.4777142857142855 0 2.894742857142857 -0.5869714285714285 3.9394285714285715 -1.6316571428571427 1.0450285714285714 -1.0450285714285714 1.632 -2.4620571428571427 1.632 -3.9397714285714285V27.858754285714284c2.013257142857143 -0.8396228571428571 3.4285714285714284 -2.826788571428571 3.4285714285714284 -5.1444342857142855v-6.857142857142857c0 -3.0770399999999998 -2.494285714285714 -5.571428571428571 -5.571428571428571 -5.571428571428571H31.25756571428571L36.206399999999995 6.161828571428571c1.2726857142857142 -1.0606971428571428 1.4447999999999999 -2.952384 0.384 -4.225217142857143 -1.0608 -1.2728297142857143 -2.9524114285714282 -1.4448034285714286 -4.2252342857142855 -0.3841097142857143L24 8.523462857142857 15.634834285714284 1.5525017142857143ZM6.857142857142857 14.571462857142855h13.285714285714285v9.428571428571429H6.857142857142857c-0.7100914285714285 0 -1.2857142857142856 -0.5756571428571428 -1.2857142857142856 -1.2857142857142856v-6.857142857142857c0 -0.7100914285714285 0.5756228571428571 -1.2857142857142856 1.2857142857142856 -1.2857142857142856Zm21 0v9.428571428571429H41.14285714285714c0.7100571428571428 0 1.2857142857142856 -0.5756571428571428 1.2857142857142856 -1.2857142857142856v-6.857142857142857c0 -0.7100914285714285 -0.5756571428571428 -1.2857142857142856 -1.2857142857142856 -1.2857142857142856H27.857142857142854Zm-18.857142857142858 13.714285714285714h11.142857142857142l0 14.571394285714286H10.285714285714285c-0.3410057142857143 0 -0.6680228571428571 -0.13542857142857143 -0.9091542857142857 -0.3764571428571428 -0.24109714285714282 -0.24137142857142857 -0.37655999999999995 -0.5681142857142857 -0.37655999999999995 -0.9092571428571428V28.28574857142857Zm18.857142857142858 0 0 14.571394285714286H37.714285714285715c0.34114285714285714 0 0.6678857142857143 -0.13542857142857143 0.9092571428571428 -0.3764571428571428 0.24102857142857143 -0.24137142857142857 0.3764571428571428 -0.5681142857142857 0.3764571428571428 -0.9092571428571428V28.28574857142857h-11.142857142857142Z" clip-rule="evenodd" stroke-width="3.4286"></path>
  </g>
</svg>