<svg xmlns="http://www.w3.org/2000/svg" fill="none" viewBox="0 0 48 48" id="Glasses--Streamline-Core-Remix" height="48" width="48">
  <desc>
    Glasses Streamline Icon: https://streamlinehq.com
  </desc>
  <g id="Free Remix/Interface Essential/glasses--vision-sunglasses-protection-spectacles-correction-sun-eye-glasses">
    <path id="Union" fill="#000000" fill-rule="evenodd" d="M1.2857142857142856 10.285714285714285C1.2857142857142856 5.315142857142857 5.315142857142857 1.2857142857142856 10.285714285714285 1.2857142857142856h1.7142857142857142c1.1834742857142857 0 2.142857142857143 0.9593897142857143 2.142857142857143 2.142857142857143 0 1.1834742857142857 -0.9593828571428571 2.142857142857143 -2.142857142857143 2.142857142857143H10.285714285714285c-2.6036228571428572 0 -4.714285714285714 2.110662857142857 -4.714285714285714 4.714285714285714v17.57142857142857h36.857142857142854V10.285714285714285c0 -2.6036228571428572 -2.1106285714285713 -4.714285714285714 -4.714285714285714 -4.714285714285714h-1.7142857142857142c-1.183542857142857 0 -2.142857142857143 -0.9593828571428571 -2.142857142857143 -2.142857142857143 0 -1.1834674285714284 0.9593142857142857 -2.142857142857143 2.142857142857143 -2.142857142857143h1.7142857142857142c4.9704 0 9 4.0294285714285705 9 9v30.857142857142854c0 3.077142857142857 -2.494285714285714 5.571428571428571 -5.571428571428571 5.571428571428571H31.71428571428571c-3.0770057142857143 0 -5.571428571428571 -2.494285714285714 -5.571428571428571 -5.571428571428571V33.857142857142854h-4.285714285714286V41.14285714285714c0 3.077142857142857 -2.494422857142857 5.571428571428571 -5.571428571428571 5.571428571428571H6.857142857142857c-3.0770057142857143 0 -5.571428571428571 -2.494285714285714 -5.571428571428571 -5.571428571428571V10.285714285714285Zm4.285714285714286 30.857142857142854V33.857142857142854h12V41.14285714285714c0 0.7100571428571428 -0.5756228571428571 1.2857142857142856 -1.2857142857142856 1.2857142857142856H6.857142857142857c-0.7100914285714285 0 -1.2857142857142856 -0.5756571428571428 -1.2857142857142856 -1.2857142857142856Zm36.857142857142854 -7.285714285714286h-12V41.14285714285714c0 0.7100571428571428 0.5756228571428571 1.2857142857142856 1.2857142857142856 1.2857142857142856H41.14285714285714c0.7100571428571428 0 1.2857142857142856 -0.5756571428571428 1.2857142857142856 -1.2857142857142856V33.857142857142854Z" clip-rule="evenodd" stroke-width="3.4286"></path>
  </g>
</svg>