<svg xmlns="http://www.w3.org/2000/svg" fill="none" viewBox="0 0 48 48" id="Global-Learning--Streamline-Core-Remix" height="48" width="48">
  <desc>
    Global Learning Streamline Icon: https://streamlinehq.com
  </desc>
  <g id="Free Remix/Work Education/global-learning--global-learning-education">
    <path id="Union" fill="#000000" fill-rule="evenodd" d="M4.425394285714286 18.433165714285714c0.8485028571428571 -6.457611428571428 5.479268571428571 -11.724068571428571 11.59488 -13.501885714285713 -2.4647657142857144 4.1472 -4.002137142857142 8.75568 -4.373725714285714 13.501885714285713H4.425394285714286Zm25.262434285714285 0c-0.3829714285714285 -4.771234285714286 -2.1283885714285713 -9.465908571428571 -4.548171428571428 -13.499554285714286 6.111634285714285 1.78008 10.73862857142857 7.044754285714285 11.586857142857143 13.499554285714286H29.68782857142857Zm7.064399999999999 4.285714285714286H29.647439999999996c-0.016285714285714285 0.15726857142857142 -0.03428571428571429 0.3144342857142857 -0.05403428571428571 0.47149714285714284 -0.14753142857142856 1.1742171428571428 -1.219062857142857 2.006502857142857 -2.39328 1.8589714285714285 -1.1532685714285713 -0.1449257142857143 -1.9766742857142856 -1.1810742857142857 -1.865965714285714 -2.3304685714285713h-9.401142857142856c0.14701714285714285 1.7289257142857142 0.4828457142857143 3.456 1.0197257142857143 5.160102857142857 0.3556457142857143 1.1287885714285715 -0.27109714285714287 2.332114285714286 -1.3998857142857142 2.68776 -1.1287542857142856 0.3556114285714286 -2.332114285714286 -0.2711314285714285 -2.687725714285714 -1.3998857142857142 -0.6736457142857142 -2.13816 -1.077462857142857 -4.297199999999999 -1.23288 -6.447977142857143H4.4253599999999995c0.66192 5.039108571428572 3.626605714285714 9.354685714285713 7.810525714285714 11.853805714285713 1.0160228571428571 0.6068571428571428 1.347702857142857 1.9223999999999999 0.7408114285714286 2.938628571428571 -0.6068571428571428 1.0158857142857143 -1.9225028571428568 1.3474285714285714 -2.9384914285714285 0.7405714285714285C4.030765714285714 34.66354285714286 0 28.091657142857144 0 20.57598857142857 0 9.212194285714284 9.212159999999999 0 20.57598857142857 0h0.00037714285714285714c11.363622857142856 0.00020973188571428572 20.575748571428573 9.212297142857143 20.575748571428573 20.57598857142857 0 0.7794857142857142 -0.04354285714285714 1.54968 -0.12822857142857144 2.308114285714286 -0.13165714285714283 1.1761371428571428 -1.1914285714285713 2.023028571428571 -2.3677714285714284 1.8915771428571428 -1.0714285714285714 -0.11972571428571428 -1.8696 -1.0100571428571428 -1.9038857142857142 -2.0568ZM20.576571428571427 5.740011428571428c2.553462857142857 3.790628571428571 4.378971428571428 8.273725714285714 4.80744 12.693154285714286H15.949302857142857c0.4085142857142857 -4.460091428571428 2.0223428571428568 -8.814514285714285 4.627268571428571 -12.693154285714286Zm11.226617142857142 20.31582857142857c0.4348457142857143 -0.18839999999999998 0.9282514285714285 -0.18839999999999998 1.3630628571428571 0l13.80072 5.979565714285714c0.6270857142857142 0.27164571428571427 1.0330285714285714 0.8897142857142857 1.0330285714285714 1.5729942857142856 0 0.6831428571428572 -0.40594285714285716 1.3013142857142856 -1.0330285714285714 1.5728571428571427l-4.805142857142857 2.0821714285714283 0.0013714285714285714 5.577942857142857c0 0.4683428571428571 -0.15325714285714284 0.9236571428571427 -0.4364571428571428 1.2966857142857142l-1.7064 -1.296342857142857c1.7064 1.296342857142857 1.7057142857142855 1.2973714285714286 1.7050285714285713 1.2980571428571428l-0.0017142857142857142 0.0020571428571428568 -0.0030857142857142854 0.0041142857142857136 -0.006857142857142857 0.009257142857142858 -0.0168 0.021257142857142856 -0.04457142857142857 0.05554285714285714c-0.03497142857142857 0.04251428571428571 -0.07988571428571428 0.096 -0.13508571428571428 0.15874285714285713 -0.11074285714285714 0.1248 -0.2629714285714286 0.28697142857142854 -0.4587428571428571 0.4738285714285714 -0.39119999999999994 0.3726857142857143 -0.9596571428571428 0.8458285714285714 -1.7184 1.3114285714285714 -1.5312 0.9394285714285715 -3.7992 1.824 -6.856662857142856 1.824 -3.0574971428571427 0 -5.323268571428571 -0.8845714285714286 -6.85248 -1.8253714285714284 -0.7577142857142857 -0.4659428571428571 -1.3250399999999998 -0.9397714285714286 -1.7153485714285714 -1.3131428571428572 -0.19536 -0.18685714285714283 -0.34728 -0.34937142857142856 -0.45750857142857143 -0.47451428571428567 -0.05513142857142857 -0.06274285714285714 -0.09997714285714285 -0.11622857142857142 -0.13470857142857143 -0.15874285714285713l-0.04460571428571428 -0.055885714285714275 -0.01669714285714286 -0.021599999999999998 -0.006994285714285714 -0.008914285714285713 -0.00312 -0.004457142857142857 -0.0015085714285714286 -0.0017142857142857142c-0.0006857142857142857 -0.0010285714285714284 -0.0014057142857142855 -0.0020571428571428568 1.7082171428571429 -1.293942857142857l-1.709622857142857 1.2918857142857143c-0.2801828571428571 -0.3706285714285714 -0.43223999999999996 -0.8225142857142856 -0.4331999999999999 -1.2874285714285714L22.804114285714284 37.261714285714284l-1.548822857142857 -0.6709714285714286v7.107771428571429c0 1.183542857142857 -0.9593828571428571 2.142857142857143 -2.142857142857143 2.142857142857143s-2.142857142857143 -0.9593142857142857 -2.142857142857143 -2.142857142857143V34.03731428571428c0 -0.07669714285714285 0.004045714285714285 -0.15243428571428572 0.011897142857142856 -0.22704 -0.00785142857142857 -0.06644571428571429 -0.011897142857142856 -0.13385142857142857 -0.011897142857142856 -0.2018742857142857 0 -0.68328 0.40577142857142856 -1.3013485714285713 1.0327542857142855 -1.5729942857142856l13.800857142857142 -5.979565714285714ZM27.09373714285714 39.12034285714285l0.006 2.843657142857143c0.19474285714285713 0.16525714285714285 0.4527428571428571 0.3610285714285714 0.7767771428571428 0.5602285714285714 0.9215999999999999 0.5670857142857142 2.418205714285714 1.190057142857143 4.606937142857142 1.190057142857143 2.1890057142857144 0 3.6893485714285714 -0.6233142857142856 4.615062857142857 -1.191085714285714 0.32434285714285715 -0.1992 0.5831999999999999 -0.3946285714285714 0.7786285714285713 -0.5602285714285714l-0.00034285714285714285 -2.8429714285714285 -4.710548571428571 2.0410285714285714c-0.4348114285714285 0.1882285714285714 -0.9282171428571429 0.1882285714285714 -1.3630628571428571 0l-4.709451428571429 -2.040685714285714Z" clip-rule="evenodd" stroke-width="3.4286"></path>
  </g>
</svg>