<svg xmlns="http://www.w3.org/2000/svg" fill="none" viewBox="0 0 48 48" id="Gmail--Streamline-Core-Remix" height="48" width="48">
  <desc>
    Gmail Streamline Icon: https://streamlinehq.com
  </desc>
  <g id="Free Remix/Computer Devices/gmail">
    <path id="Union" fill="#000000" fill-rule="evenodd" d="m4.284034285714285 21.134091428571427 8.205599999999999 5.255965714285714v12.642514285714284H5.264022857142857c-0.5485714285714286 0 -0.9799885714285713 -0.44091428571428565 -0.9799885714285713 -0.9685714285714284V21.134091428571427Zm8.635988571428571 -15.115542857142856C7.348971428571429 2.450112 -0.0016741062857142856 6.42648 -0.0016741062857142856 13.05768V38.064c0 2.9091428571428573 2.3648546777142854 5.254285714285714 5.265696963428571 5.254285714285714h9.368468571428572c1.1834742857142857 0 2.142857142857143 -0.9593142857142857 2.142857142857143 -2.142857142857143V29.135177142857138l6.069839999999999 3.887931428571428c0.7044685714285714 0.4512342857142857 1.6071085714285713 0.4512342857142857 2.3115771428571428 0l6.068674285714286 -3.887177142857143v12.039497142857142c0 1.183542857142857 0.9593828571428571 2.142857142857143 2.142857142857143 2.142857142857143h9.368502857142856c2.9009142857142853 0 5.2656 -2.345142857142857 5.2656 -5.254285714285714V17.28750857142857c0.0006857142857142857 -0.02352 0.0013714285714285714 -0.04710857142857143 0.0013714285714285714 -0.07073142857142857V13.05768c0 -4.915337142857143 -4.038857142857142 -8.37198857142857 -8.397942857142857 -8.378434285714285 -1.521942857142857 -0.0024685714285714285 -3.0829714285714283 0.4157142857142857 -4.525028571428572 1.339302857142857l-2.8682742857142856 1.8372000000000002c-0.01464 0.009359999999999999 -0.029108571428571425 0.01889142857142857 -0.04344 0.028560000000000002L24.000994285714285 13.11624 15.788297142857141 7.85574857142857l-2.8682742857142856 -1.8372000000000002Zm18.30541714285714 7.5597257142857135L25.15676571428571 17.465451428571427c-0.7044685714285714 0.4512342857142857 -1.6071085714285713 0.4512342857142857 -2.3115771428571428 0L16.77534857142857 13.577519999999998v10.468148571428571l7.225645714285713 4.628228571428571 7.224445714285714 -4.627474285714285V13.578274285714285Zm4.285645714285715 12.812502857142857 8.205599999999999 -5.2559314285714285V38.064c0 0.5276571428571428 -0.43131428571428565 0.9685714285714284 -0.9798857142857142 0.9685714285714284h-7.225714285714285V26.39077714285714Z" clip-rule="evenodd" stroke-width="3.4286"></path>
  </g>
</svg>