<svg xmlns="http://www.w3.org/2000/svg" fill="none" viewBox="0 0 48 48" id="Gold--Streamline-Core-Remix" height="48" width="48">
  <desc>
    Gold Streamline Icon: https://streamlinehq.com
  </desc>
  <g id="Free Remix/Money Shopping/gold--gold-money-payment-bars-finance-wealth-bullion-jewelry">
    <path id="Union" fill="#000000" fill-rule="evenodd" d="M19.97328 2.9994411428571426h7.984868571428572c1.2949714285714284 -0.02048914285714286 2.5568914285714284 0.41082171428571423 3.5685942857142856 1.2201702857142858 1.017977142857143 0.8144228571428571 1.7181599999999997 1.9600114285714285 1.9786285714285712 3.2373942857142852l0.009805714285714286 0.05115428571428571 2.564365714285714 14.349051428571427h3.4501714285714282c1.2949714285714284 -0.020502857142857142 2.5566857142857145 0.41081142857142855 3.5684571428571425 1.2201942857142856 1.017942857142857 0.8143885714285714 1.7180571428571427 1.9599771428571426 1.9786285714285712 3.2373942857142852l0.009942857142857142 0.05112 2.88 16.11442285714286c0.11142857142857143 0.6243428571428572 -0.05931428571428571 1.2658285714285713 -0.4666285714285714 1.752342857142857 -0.40697142857142854 0.4865142857142857 -1.0086857142857142 0.7673142857142856 -1.6429714285714285 0.7673142857142856h-20.57142857142857c-0.4679314285714285 0 -0.9182057142857142 -0.1529142857142857 -1.28568 -0.42857142857142855 -0.3674742857142857 0.2756571428571428 -0.8177142857142856 0.42857142857142855 -1.2857485714285715 0.42857142857142855H2.1428742857142855c-0.6327394285714285 0 -1.2331302857142856 -0.2794285714285714 -1.6402799999999997 -0.7638857142857143 -0.4071541714285714 -0.48445714285714286 -0.5794398857142856 -1.1238857142857142 -0.4706902628571428 -1.7472l2.811427405714286 -16.114285714285714 0.011321142857142856 -0.059828571428571425c0.2604685714285714 -1.2774171428571428 0.9606617142857143 -2.423005714285714 1.9786388571428573 -3.2373942857142852 1.011702857142857 -0.8093828571428571 2.2736228571428567 -1.240697142857143 3.5685599999999997 -1.2201942857142856h3.51096l2.5019657142857143 -14.340342857142856 0.011314285714285714 -0.05986285714285714c0.2604685714285714 -1.2773828571428572 0.9606514285714285 -2.4229714285714286 1.9786285714285712 -3.2373942857142852 1.011702857142857 -0.8093485714285713 2.2736228571428567 -1.2406594285714285 3.5685599999999997 -1.2201702857142858ZM23.99009142857143 37.81577142857143l1.9960799999999999 -11.441142857142857 0.011348571428571428 -0.059828571428571425c0.01176 -0.05777142857142857 0.024445714285714286 -0.11526857142857141 0.038022857142857136 -0.17249142857142857H21.89592c0.013577142857142857 0.05722285714285714 0.026262857142857143 0.11471999999999999 0.038022857142857136 0.17249142857142857l0.009805714285714286 0.05112 2.046342857142857 11.449851428571428Zm7.494377142857142 -15.95917714285714c-0.018651428571428572 -0.00010285714285714286 -0.03726857142857142 -0.00010285714285714286 -0.055885714285714275 0H16.263394285714288l2.366811428571429 -13.565931428571428c0.06363428571428571 -0.28566857142857144 0.22289142857142855 -0.5413371428571429 0.4517828571428571 -0.7244571428571428 0.23492571428571427 -0.1879542857142857 0.5283085714285715 -0.2875542857142857 0.8290971428571429 -0.2814857142857143l0 0.00044571428571428567H27.977142857142855v0.00041142857142857143l0.04323428571428571 -0.0008571428571428571c0.3007885714285714 -0.006068571428571428 0.5941714285714286 0.09353142857142856 0.8290971428571429 0.2814857142857143 0.2297485714285714 0.18380571428571427 0.38938285714285714 0.4407428571428571 0.4525028571428571 0.7277142857142856l2.423965714285714 13.562674285714284h-0.24147428571428572Zm-0.04131428571428571 4.285714285714286c-0.28693714285714284 0.0029828571428571426 -0.5650628571428572 0.10193142857142856 -0.7897371428571428 0.28165714285714283 -0.22889142857142855 0.18311999999999998 -0.3881485714285714 0.4387885714285714 -0.4517828571428571 0.7244571428571428L27.834822857142854 40.714285714285715h15.46254857142857l-2.424 -13.562571428571427c-0.06308571428571429 -0.2870057142857143 -0.22285714285714286 -0.5439428571428572 -0.45257142857142857 -0.7277485714285714 -0.23485714285714288 -0.18791999999999998 -0.5283428571428571 -0.2875542857142857 -0.8290285714285713 -0.2814857142857143l-0.043199999999999995 0.0008914285714285713v-0.00044571428571428567H31.48251428571428l0 -0.00044571428571428567c-0.004148571428571428 -0.00006857142857142857 -0.008331428571428571 -0.00013714285714285713 -0.01248 -0.00017142857142857143h-0.026879999999999998Zm-14.954845714285714 0h-0.026879999999999998l-0.01248 0.00017142857142857143 -0.04323428571428571 0.0008914285714285713v-0.00044571428571428567H8.339657142857142l0 -0.00044571428571428567c-0.3007885714285714 -0.006068571428571428 -0.5941714285714286 0.09356571428571428 -0.8290971428571429 0.2814857142857143 -0.22889142857142855 0.18311999999999998 -0.3881485714285714 0.4387885714285714 -0.4517828571428571 0.7244571428571428L4.691965714285714 40.714285714285715H20.154514285714285l-2.423965714285714 -13.562571428571427c-0.06312 -0.2870057142857143 -0.2227542857142857 -0.5439428571428572 -0.4525028571428571 -0.7277485714285714 -0.22467428571428572 -0.17972571428571427 -0.5028 -0.2786742857142857 -0.7897371428571428 -0.28165714285714283Z" clip-rule="evenodd" stroke-width="3.4286"></path>
  </g>
</svg>