<svg xmlns="http://www.w3.org/2000/svg" fill="none" viewBox="0 0 48 48" id="Good-Health-And-Well-Being--Streamline-Core-Remix" height="48" width="48">
  <desc>
    Good Health And Well Being Streamline Icon: https://streamlinehq.com
  </desc>
  <g id="Free Remix/Nature Ecology/good-health-and-well-being">
    <path id="Union" fill="#000000" fill-rule="evenodd" d="M27.585668571428574 1.8500228571428572C27.150102857142855 0.9788639999999998 26.259702857142855 0.42857142857142855 25.285714285714285 0.42857142857142855s-1.8643885714285715 0.5502925714285715 -2.2999542857142856 1.4214514285714286L13.465234285714285 20.891074285714286l-2.9588571428571426 -6.904011428571428C10.101154285714285 13.041599999999999 9.171497142857142 12.428571428571427 8.142857142857142 12.428571428571427h-5.142857142857142c-1.4201622857142857 0 -2.571428571428571 1.1512799999999999 -2.571428571428571 2.571428571428571s1.1512662857142855 2.571428571428571 2.571428571428571 2.571428571428571h3.4472571428571426l4.474937142857143 10.441508571428571c0.39442285714285713 0.9202971428571428 1.2871542857142855 1.5279771428571427 2.287988571428571 1.5573942857142855 1.0008342857142856 0.029417142857142857 1.9277142857142857 -0.5248114285714286 2.375485714285714 -1.4203542857142857L25.285714285714285 8.749885714285714l4.557188571428571 9.114377142857142c0.6351085714285714 1.2702171428571427 2.1797142857142857 1.785085714285714 3.4499314285714284 1.1499771428571428 1.2702514285714284 -0.6351085714285714 1.785222857142857 -2.1797142857142857 1.1499085714285715 -3.4499314285714284l-6.857074285714286 -13.714285714285714Zm-1.5289371428571428 27.496422857142857c-1.4504914285714285 1.4558399999999998 -1.696662857142857 3.8334857142857146 -0.10933714285714285 5.402468571428571L33.857142857142854 42.078514285714284l7.909714285714285 -7.329599999999999c1.5874285714285714 -1.5689828571428572 1.3412571428571427 -3.946628571428571 -0.10937142857142856 -5.402468571428571 -0.6805714285714286 -0.6833142857142857 -1.5377142857142856 -1.043245714285714 -2.4606857142857144 -0.9787199999999999 -0.9226285714285714 0.06452571428571428 -2.2340571428571425 0.5791542857142856 -3.733371428571428 2.277154285714286 -0.4066285714285714 0.4607657142857143 -0.9915428571428572 0.7246971428571428 -1.6062857142857143 0.7246971428571428 -0.61464 0 -1.1996571428571428 -0.2639314285714286 -1.6064228571428572 -0.7246971428571428 -1.499005714285714 -1.698 -2.810434285714286 -2.212628571428571 -3.7333371428571422 -2.277154285714286 -0.922902857142857 -0.06452571428571428 -1.77984 0.29540571428571427 -2.4606514285714285 0.9787199999999999Zm2.7595885714285715 -5.253977142857143c1.7290971428571427 0.12089142857142857 3.439028571428571 0.8424685714285713 5.040822857142857 2.155954285714286 1.6018285714285714 -1.3134857142857141 3.3116571428571424 -2.035062857142857 5.040685714285714 -2.155954285714286 2.3221714285714286 -0.16237714285714286 4.356342857142857 0.7842857142857143 5.795657142857142 2.2291199999999995 2.785028571428571 2.7950399999999997 3.7001142857142852 7.947497142857143 0.049371428571428566 11.511325714285714l-0.04045714285714285 0.0384 -9.3888 8.700342857142855c-0.8218285714285714 0.7614857142857142 -2.0912571428571427 0.7614857142857142 -2.912948571428571 0l-9.38886857142857 -8.700342857142855L22.97142857142857 37.83291428571428c-3.650845714285714 -3.563828571428571 -2.7355199999999997 -8.716285714285714 0.049268571428571425 -11.511325714285714 1.4394857142857143 -1.4448342857142857 3.4735542857142856 -2.3914971428571428 5.795622857142857 -2.2291199999999995Z" clip-rule="evenodd" stroke-width="3.4286"></path>
  </g>
</svg>