<svg xmlns="http://www.w3.org/2000/svg" fill="none" viewBox="0 0 48 48" id="Google--Streamline-Core-Remix" height="48" width="48">
  <desc>
    Google Streamline Icon: https://streamlinehq.com
  </desc>
  <g id="Free Remix/Computer Devices/google--media-google-social">
    <path id="Vector" stroke="#000000" stroke-linecap="round" stroke-linejoin="round" stroke-width="4.2857" d="M38.67257142857143 20.049394285714286H26.927862857142856c-0.22824 -0.00003428571428571428 -0.45421714285714276 0.04542857142857142 -0.6646628571428571 0.13378285714285712 -0.21044571428571426 0.08835428571428572 -0.40117714285714284 0.2177828571428571 -0.5609828571428571 0.3807428571428571 -0.15980571428571427 0.16296 -0.2855314285714286 0.35612571428571427 -0.36977142857142853 0.5682514285714285 -0.08424 0.21212571428571428 -0.1253142857142857 0.43892571428571425 -0.12085714285714284 0.6671314285714286v4.744937142857142c0 0.4551771428571428 0.18082285714285715 0.891702857142857 0.5026971428571428 1.2135771428571427 0.32183999999999996 0.32183999999999996 0.7584 0.5026628571428571 1.2135771428571427 0.5026628571428571h7.706194285714286c0.024342857142857142 1.3007314285714284 -0.22559999999999997 2.591965714285714 -0.7341257142857143 3.7894628571428566 -0.5083542857142858 1.1974971428571428 -1.2634971428571429 2.2741714285714285 -2.21616 3.1604571428571426 -0.9526285714285714 0.8859428571428571 -2.081382857142857 1.5610285714285712 -3.312548571428571 1.9813714285714283 -1.2311657142857142 0.42 -2.537142857142857 0.576 -3.832662857142857 0.45771428571428574 -7.538057142857142 0 -11.17248 -6.393977142857143 -11.17248 -13.662788571428571 0 -7.268845714285715 3.9036342857142854 -13.66272 11.17248 -13.66272 3.20904 -0.10649142857142857 6.35352 0.9178285714285713 8.88414857142857 2.8940571428571427 0.20225142857142855 0.13237714285714283 0.4311428571428571 0.2186742857142857 0.6704571428571429 0.25275428571428565 0.23917714285714287 0.03407999999999999 0.48329142857142854 0.015154285714285714 0.7143771428571428 -0.05550857142857142 0.23108571428571428 -0.07062857142857143 0.444 -0.19121142857142856 0.6233142857142856 -0.3532457142857143 0.1793142857142857 -0.16203428571428571 0.3209142857142857 -0.3615085714285714 0.4148571428571428 -0.5843314285714285l2.119885714285714 -4.845908571428571c0.1745142857142857 -0.3571542857142857 0.21942857142857142 -0.7637828571428571 0.12754285714285712 -1.1504228571428572 -0.09222857142857142 -0.3866742857142857 -0.3154285714285714 -0.7293942857142857 -0.6322285714285715 -0.9696342857142857C33.601954285714285 3.204192 29.16809142857143 2.0373874285714284 24.673165714285712 2.146518857142857 12.423839999999998 2.1128674285714286 4.078114285714285 11.636399999999998 4.078114285714285 23.986697142857142c0 12.350331428571428 8.379359999999998 21.873874285714283 20.46044571428571 21.873874285714283 12.080982857142857 0 19.38349714285714 -8.614971428571428 19.38349714285714 -20.191302857142855 0 -3.7016914285714284 -1.480457142857143 -5.619874285714285 -5.249485714285714 -5.619874285714285Z"></path>
  </g>
</svg>