<svg xmlns="http://www.w3.org/2000/svg" fill="none" viewBox="0 0 48 48" id="Google-Drive--Streamline-Core-Remix" height="48" width="48">
  <desc>
    Google Drive Streamline Icon: https://streamlinehq.com
  </desc>
  <g id="Free Remix/Computer Devices/google-drive">
    <path id="Union" fill="#000000" fill-rule="evenodd" d="M16.213268571428568 3.1269942857142854c-0.3992228571428571 -0.006528 -0.8049257142857142 0.09833142857142857 -1.1687314285714285 0.3257142857142857 -0.3651085714285714 0.22820571428571426 -0.6377828571428571 0.5483657142857142 -0.8067428571428571 0.9116914285714285L0.2735218285714286 29.189794285714285c-0.3842725714285714 0.6831428571428572 -0.3648966857142857 1.5215999999999998 0.05052274285714285 2.186262857142857L8.127325714285714 43.861371428571424c0.39157714285714285 0.6264 1.07832 1.0069714285714286 1.8171428571428572 1.0069714285714286h28.091759999999997c0.7388571428571428 0 1.4256 -0.38057142857142856 1.8171428571428572 -1.0069714285714286l7.7016 -12.322285714285712c0.2705142857142857 -0.35873142857142853 0.43097142857142856 -0.8052685714285713 0.43097142857142856 -1.289245714285714 0 -0.3000342857142857 -0.06171428571428571 -0.5856685714285714 -0.17314285714285715 -0.8449028571428572 -0.030857142857142854 -0.07313142857142856 -0.06617142857142858 -0.14495999999999998 -0.1056 -0.21514285714285714L33.66130285714286 4.219302857142856c-0.3795085714285714 -0.6747428571428571 -1.0934742857142856 -1.0923085714285714 -1.8676457142857144 -1.0923085714285714H16.213268571428568Zm14.327142857142857 4.285714285714286 11.640617142857142 20.694274285714283H32.980422857142855L25.892777142857142 16.766742857142855c-0.05307428571428571 -0.10261714285714285 -0.11461714285714286 -0.20125714285714286 -0.18428571428571427 -0.2948228571428571L20.04648 7.412708571428571h10.493931428571427ZM20.624605714285714 28.106982857142857h7.3018971428571415l-3.843085714285714 -6.148937142857142 -3.4588114285714284 6.148937142857142Zm-5.486708571428571 1.0124914285714286c-0.033222857142857144 0.053348571428571426 -0.06411428571428572 0.1082742857142857 -0.09260571428571428 0.16463999999999998l-5.198605714285714 9.242057142857144 -5.214514285714285 -8.343394285714284 11.64870857142857 -20.708777142857144 5.214514285714285 8.343222857142857 -6.3574971428571425 11.302251428571427Zm-1.5308914285714286 11.463154285714285 4.606902857142857 -8.189931428571427h23.753519999999998l-5.118857142857143 8.189931428571427H13.607005714285714Z" clip-rule="evenodd" stroke-width="3.4286"></path>
  </g>
</svg>