<svg xmlns="http://www.w3.org/2000/svg" fill="none" viewBox="0 0 48 48" id="Graduation-Cap--Streamline-Core-Remix" height="48" width="48">
  <desc>
    Graduation Cap Streamline Icon: https://streamlinehq.com
  </desc>
  <g id="Free Remix/Work Education/graduation-cap--graduation-cap-education">
    <path id="Union" fill="#000000" fill-rule="evenodd" d="M24.851931428571426 3.5846742857142857c-0.5435314285714286 -0.2354845714285714 -1.1602971428571427 -0.2354845714285714 -1.7038628571428571 0L1.2875897142857142 13.056274285714284c-0.7837165714285714 0.3395657142857143 -1.2909379268571428 1.1121257142857142 -1.2909379268571428 1.9662514285714288 0 0.8540914285714285 0.5072213554285714 1.6266514285714284 1.2909379268571428 1.9662171428571427l2.419724571428571 1.048422857142857v15.33318857142857C1.5564822857142855 34.22345142857143 0.03557485714285714 36.32262857142857 0.03557485714285714 38.77748571428571c0 3.2112 2.60328 5.814514285714285 5.814596571428571 5.814514285714285 3.211302857142857 0 5.814582857142857 -2.6033142857142857 5.814582857142857 -5.814514285714285 0 -2.4548571428571426 -1.5209142857142857 -4.554034285714286 -3.6717257142857145 -5.407131428571429V19.894045714285713l2.7657942857142856 1.1983542857142857 0.018719999999999997 9.37272c0.0007542857142857143 0.3759085714285714 0.10038857142857142 0.7450285714285714 0.2889257142857143 1.070262857142857l1.8539314285714286 -1.0745485714285714c-1.8539314285714286 1.0745485714285714 -1.853245714285714 1.0757485714285713 -1.8525257142857143 1.076982857142857l0.0014399999999999999 0.0025028571428571426 0.003154285714285714 0.005417142857142857 0.007165714285714285 0.012102857142857143 0.017725714285714286 0.029485714285714285c0.013337142857142856 0.021942857142857142 0.029759999999999998 0.048445714285714286 0.04933714285714286 0.07916571428571428 0.03918857142857143 0.06147428571428572 0.09113142857142856 0.13995428571428573 0.15661714285714284 0.23297142857142855 0.13086857142857142 0.18593142857142855 0.31632 0.4306628571428571 0.5624914285714285 0.71376 0.4923771428571428 0.5662285714285714 1.229862857142857 1.288422857142857 2.260697142857143 1.9995771428571427 2.0839885714285713 1.4376 5.276982857142857 2.7672 9.872262857142857 2.7672 4.595177142857143 0 7.791977142857143 -1.3296 9.879565714285715 -2.765485714285714 1.0327542857142855 -0.71064 1.772297142857143 -1.43208 2.2663542857142858 -1.9975885714285713 0.24719999999999998 -0.2827542857142857 0.4333714285714286 -0.5271428571428571 0.5646857142857143 -0.7127657142857142 0.06582857142857142 -0.09284571428571428 0.11794285714285714 -0.17118857142857144 0.15702857142857143 -0.23249142857142854 0.019885714285714284 -0.03065142857142857 0.03634285714285714 -0.05708571428571429 0.04971428571428571 -0.07895999999999999l0.017828571428571426 -0.02938285714285714 0.007199999999999999 -0.012068571428571429 0.0030857142857142854 -0.005382857142857142 0.0013714285714285714 -0.0025028571428571426c0.0006857142857142857 -0.0012342857142857142 0.0013714285714285714 -0.0024 -1.8493714285714284 -1.0825371428571429l1.8507428571428568 1.0801371428571427c0.19131428571428571 -0.32794285714285715 0.29245714285714286 -0.7008342857142857 0.2921142857142857 -1.0805485714285714l-0.0017142857142857142 -9.366411428571427 9.4752 -4.105268571428572c0.7834285714285714 -0.3395657142857143 1.2908571428571427 -1.1121257142857142 1.2908571428571427 -1.9662171428571427 0 -0.8541257142857143 -0.5074285714285713 -1.626685714285714 -1.2908571428571427 -1.9662514285714288L24.851931428571426 3.5846742857142857Zm8.100137142857143 19.36608 0.0012685714285714286 6.80472 -0.03617142857142857 0.04182857142857143c-0.2883428571428571 0.33003428571428567 -0.7650171428571428 0.8026628571428571 -1.4679085714285713 1.2862285714285713 -1.3837028571428571 0.9519428571428571 -3.735702857142857 2.010685714285714 -7.4504914285714285 2.010685714285714 -3.7147200000000002 0 -6.060891428571428 -1.0586742857142857 -7.438594285714285 -2.0091085714285715 -0.7000114285714285 -0.4829142857142857 -1.1739771428571428 -0.9547885714285714 -1.460365714285714 -1.284102857142857l-0.03795428571428571 -0.044091428571428566 -0.013577142857142857 -6.806022857142857L23.14806857142857 26.460342857142855c0.5435657142857142 0.23550857142857143 1.1603314285714286 0.23550857142857143 1.7038628571428571 0l8.100137142857143 -3.5095885714285715ZM14.760377142857141 29.362422857142857l-0.0005142857142857142 -0.0006857142857142857 -0.0016457142857142857 -0.0027085714285714287 0.00216 0.0033942857142857143Z" clip-rule="evenodd" stroke-width="3.4286"></path>
  </g>
</svg>