<svg xmlns="http://www.w3.org/2000/svg" fill="none" viewBox="0 0 48 48" id="Gramophone--Streamline-Core-Remix" height="48" width="48">
  <desc>
    Gramophone Streamline Icon: https://streamlinehq.com
  </desc>
  <g id="Free Remix/Entertainment/gramophone--music-audio-note-gramophone-player-vintage-entertainment">
    <path id="Union" fill="#000000" fill-rule="evenodd" d="m32.45345142857143 1.5120377142857142 -0.9583199999999998 1.9166365714285716c0.9583199999999998 -1.9166365714285716 0.959862857142857 -1.9158617142857142 0.9614742857142857 -1.915062857142857l0.0034285714285714284 0.001728 0.007748571428571428 0.003918857142857142 0.01896 0.009706285714285714 0.05153142857142857 0.02703085714285714c0.040319999999999995 0.021456 0.0924 0.04985828571428571 0.15548571428571428 0.08560457142857143 0.12617142857142857 0.07148914285714286 0.2963314285714286 0.1724022857142857 0.5041028571428571 0.30596914285714283 0.4155428571428571 0.2671268571428571 0.9817371428571428 0.66504 1.6470514285714284 1.219525714285714 1.332 1.110048 3.0569142857142855 2.8438765714285714 4.762971428571428 5.402585142857143 3.4248 5.137268571428571 6.6894857142857145 13.473017142857142 6.6894857142857145 26.50734857142857 0 0.07577142857142857 -0.0041142857142857136 0.15085714285714283 -0.011657142857142856 0.22457142857142856v6.104914285714285c0 1.293942857142857 -0.5139428571428571 2.535085714285714 -1.4290285714285713 3.4501714285714282 -0.9150857142857143 0.9147428571428571 -2.156228571428571 1.4290285714285713 -3.4501714285714282 1.4290285714285713H6.593417142857142c-1.2940457142857142 0 -2.5350514285714283 -0.5142857142857142 -3.450068571428571 -1.4290285714285713C2.228334857142857 43.9416 1.7142857142857142 42.70045714285714 1.7142857142857142 41.40651428571429v-3.1649142857142856c0 -1.293942857142857 0.5140491428571429 -2.535085714285714 1.4290628571428572 -3.4498285714285712 0.9150171428571429 -0.9151885714285714 2.156022857142857 -1.4292342857142857 3.450068571428571 -1.4292342857142857h29.736068571428568c-0.8379428571428571 -3.9359999999999995 -3.1932 -7.122342857142857 -6.220594285714285 -9.4416 -3.5315314285714283 -2.705485714285714 -7.827634285714285 -4.1076685714285714 -11.27310857142857 -4.1076685714285714 -0.8438399999999999 0 -1.6090971428571428 -0.4952228571428572 -1.9548 -1.2650057142857143 -0.34566857142857144 -0.7697828571428571 -0.2073942857142857 -1.6707771428571427 0.35321142857142857 -2.301462857142857L29.893542857142855 2.0050285714285714c0.6437142857142857 -0.7241759999999999 1.6932685714285713 -0.926304 2.559908571428571 -0.4929908571428571ZM36.04182857142857 10.946982857142856c2.7672 4.150765714285714 5.679771428571429 11.142891428571428 5.9496 22.415554285714283h-1.3018285714285713c-0.9027428571428571 -5.5249371428571425 -4.081028571428571 -9.861188571428572 -7.974377142857143 -12.843737142857142 -2.904445714285714 -2.22504 -6.276274285714286 -3.75384 -9.553817142857142 -4.489268571428571l8.68878857142857 -9.774857142857142c0.08084571428571428 0.06449142857142857 0.16463999999999998 0.13272 0.2511428571428571 0.2047885714285714 1.0415657142857142 0.8679771428571428 2.4816342857142852 2.2989942857142855 3.9404914285714288 4.487519999999999ZM3.4285714285714284 25.022125714285714c-1.1834674285714284 0 -2.142857142857143 0.9594171428571429 -2.142857142857143 2.142857142857143 0 1.1834742857142857 0.9593897142857143 2.142857142857143 2.142857142857143 2.142857142857143h18.989005714285714c1.1834742857142857 0 2.142857142857143 -0.9593828571428571 2.142857142857143 -2.142857142857143 0 -1.1834399999999998 -0.9593828571428571 -2.142857142857143 -2.142857142857143 -2.142857142857143H3.4285714285714284Z" clip-rule="evenodd" stroke-width="3.4286"></path>
  </g>
</svg>