<svg xmlns="http://www.w3.org/2000/svg" fill="none" viewBox="0 0 48 48" id="Graph--Streamline-Core-Remix" height="48" width="48">
  <desc>
    Graph Streamline Icon: https://streamlinehq.com
  </desc>
  <g id="Free Remix/Money Shopping/graph--analytics-business-product-graph-data-chart-analysis">
    <path id="Union" fill="#000000" fill-rule="evenodd" d="M5.571428571428571 3.4285714285714284c0 -1.1834674285714284 -0.9593828571428571 -2.142857142857143 -2.142857142857143 -2.142857142857143C2.245104 1.2857142857142856 1.2857142857142856 2.245104 1.2857142857142856 3.4285714285714284v41.14285714285714c0 1.183542857142857 0.9593897142857143 2.142857142857143 2.142857142857143 2.142857142857143h41.14285714285714c1.183542857142857 0 2.142857142857143 -0.9593142857142857 2.142857142857143 -2.142857142857143s-0.9593142857142857 -2.142857142857143 -2.142857142857143 -2.142857142857143H5.571428571428571V3.4285714285714284Zm28.743771428571424 4.415931428571428c-0.6611657142857142 -0.4722171428571428 -1.4854971428571426 -0.6560914285714285 -2.2846285714285712 -0.509622857142857 -0.7990971428571428 0.14646857142857142 -1.5046285714285714 0.6107657142857142 -1.9552799999999997 1.2867428571428572L18.39085714285714 26.148239999999998 13.264182857142856 21.02153142857143c-1.1715771428571429 -1.1715771428571429 -3.0710742857142854 -1.1715771428571429 -4.2426514285714285 0 -1.1715771428571429 1.1715771428571429 -1.1715771428571429 3.0710742857142854 0 4.2426514285714285l7.7142857142857135 7.7142857142857135c0.6355542857142857 0.63552 1.5225257142857143 0.9526285714285714 2.416937142857143 0.8640685714285714 0.8944114285714285 -0.08855999999999999 1.7019771428571429 -0.573462857142857 2.200525714285714 -1.3213028571428571l11.995645714285715 -17.99345142857143 9.478731428571427 6.7705714285714285c1.3484571428571428 0.9630171428571429 3.221828571428571 0.6507428571428571 4.184914285714285 -0.6975085714285715 0.9630857142857142 -1.3482171428571428 0.6507428571428571 -3.221862857142857 -0.6973714285714285 -4.184914285714285l-12 -8.571428571428571Z" clip-rule="evenodd" stroke-width="3.4286"></path>
  </g>
</svg>