<svg xmlns="http://www.w3.org/2000/svg" fill="none" viewBox="0 0 48 48" id="Graph-Bar-Increase--Streamline-Core-Remix" height="48" width="48">
  <desc>
    Graph Bar Increase Streamline Icon: https://streamlinehq.com
  </desc>
  <g id="Free Remix/Money Shopping/graph-bar-increase--up-product-performance-increase-arrow-graph-business-chart">
    <path id="Union" fill="#000000" fill-rule="evenodd" d="M2.832737142857143 23.233611428571425c-1.120566857142857 0.3806742857142857 -2.337576 -0.21911999999999998 -2.7182643428571427 -1.3396799999999998 -0.3806876571428571 -1.12056 0.2191032 -2.3375657142857142 1.339670057142857 -2.7182399999999998L37.44994285714286 6.946868571428571 35.84159999999999 2.2720834285714284c-0.22594285714285714 -0.656088 -0.03394285714285714 -1.3835622857142855 0.4861714285714286 -1.8428057142857142 0.5201142857142856 -0.45924332571428567 1.2658285714285713 -0.5596895999999999 1.8887999999999998 -0.2544432L47.04034285714285 4.497462857142857c0.8468571428571428 0.4148914285714286 1.1996571428571428 1.4358857142857142 0.7896 2.28504l-4.284342857142857 8.870331428571427c-0.30205714285714286 0.6255085714285714 -0.9517714285714286 1.0068685714285712 -1.6450285714285713 0.9657257142857142 -0.6936 -0.04114285714285714 -1.2936 -0.4966628571428571 -1.519542857142857 -1.1535085714285713l-1.5366857142857142 -4.465611428571428L2.832737142857143 23.233611428571425ZM48 20.571462857142855c0 -1.1834742857142857 -0.9593142857142857 -2.142857142857143 -2.142857142857143 -2.142857142857143h-14.571428571428571c-1.1834742857142857 0 -2.142857142857143 0.9593828571428571 -2.142857142857143 2.142857142857143v5.571428571428571l-12.428571428571427 0.00006857142857142857c-1.1834742857142857 0 -2.142857142857143 0.9593828571428571 -2.142857142857143 2.142857142857143v2.9999314285714282l-12.428574857142857 0.00003428571428571428C0.9593862857142856 31.285782857142852 2.05714285714e-9 32.24516571428571 2.05714285714e-9 33.428639999999994V45.857142857142854C2.05714285714e-9 47.040685714285715 0.9593862857142856 48 2.142857142857143 48l14.571428571428571 0h29.142857142857142c1.183542857142857 0 2.142857142857143 -0.9593142857142857 2.142857142857143 -2.142857142857143V20.571462857142855Zm-4.285714285714286 2.142857142857143V43.714285714285715h-10.285714285714285V22.714319999999997h10.285714285714285ZM14.571428571428571 35.57142857142857v8.142857142857142h-10.285714285714285v-8.142857142857142l10.285714285714285 0Z" clip-rule="evenodd" stroke-width="3.4286"></path>
  </g>
</svg>