<svg xmlns="http://www.w3.org/2000/svg" fill="none" viewBox="0 0 48 48" id="Graph-Bar-Decrease--Streamline-Core-Remix" height="48" width="48">
  <desc>
    Graph Bar Decrease Streamline Icon: https://streamlinehq.com
  </desc>
  <g id="Free Remix/Money Shopping/graph-bar-decrease--arrow-product-performance-down-decrease-graph-business-chart">
    <path id="Union" fill="#000000" fill-rule="evenodd" d="M0.11447279999999999 1.454142857142857C0.4951611428571428 0.333576 1.7121702857142858 -0.26621485714285714 2.832737142857143 0.11447279999999999L38.844342857142856 12.348651428571428l1.5366857142857142 -4.465611428571428c0.22594285714285714 -0.6568457142857143 0.8259428571428571 -1.1123657142857142 1.519542857142857 -1.1535085714285713 0.6932571428571428 -0.04114285714285714 1.3429714285714285 0.34021714285714283 1.6450285714285713 0.9657257142857142l4.284342857142857 8.870297142857142c0.41005714285714284 0.8491885714285714 0.057257142857142854 1.8701828571428571 -0.7896 2.28504l-8.823771428571428 4.32264c-0.6229714285714285 0.3052457142857143 -1.3686857142857143 0.20482285714285714 -1.8887999999999998 -0.25443428571428567 -0.5201142857142856 -0.45925714285714286 -0.7121142857142857 -1.1866971428571427 -0.4861714285714286 -1.8427885714285712l1.608342857142857 -4.6747885714285715L1.454142857142857 4.1724C0.333576 3.791725714285714 -0.26621485714285714 2.574709714285714 0.11447279999999999 1.454142857142857ZM2.05714285714e-9 20.57142857142857C2.05714285714e-9 19.387954285714283 0.9593897142857143 18.428571428571427 2.142857142857143 18.428571428571427h14.571428571428571c1.1834742857142857 0 2.142857142857143 0.9593828571428571 2.142857142857143 2.142857142857143v5.571428571428571l12.428571428571427 0.00003428571428571428c1.1834742857142857 0 2.142857142857143 0.9594171428571429 2.142857142857143 2.142857142857143V31.285714285714285l12.428571428571427 0.00003428571428571428c1.183542857142857 0 2.142857142857143 0.9593828571428571 2.142857142857143 2.142857142857143V45.857142857142854c0 1.183542857142857 -0.9593142857142857 2.142857142857143 -2.142857142857143 2.142857142857143l-14.571428571428571 0h-29.142857142857142C0.9593897142857143 48 2.05714285714e-9 47.040685714285715 2.05714285714e-9 45.857142857142854V20.57142857142857ZM4.285714285714286 22.71428571428571v21h10.285714285714285V22.71428571428571h-10.285714285714285Zm29.142857142857142 21v-8.142857142857142l10.285714285714285 0v8.142857142857142h-10.285714285714285Z" clip-rule="evenodd" stroke-width="3.4286"></path>
  </g>
</svg>