<svg xmlns="http://www.w3.org/2000/svg" fill="none" viewBox="0 0 48 48" id="Graph-Arrow-Decrease--Streamline-Core-Remix" height="48" width="48">
  <desc>
    Graph Arrow Decrease Streamline Icon: https://streamlinehq.com
  </desc>
  <g id="Free Remix/Money Shopping/graph-arrow-decrease--down-stats-graph-descend-right-arrow">
    <path id="Union" fill="#000000" fill-rule="evenodd" d="M3.89832 4.525645714285714C3.2194559999999997 3.556251428571428 1.8832731428571428 3.3206982857142853 0.9138651428571428 3.9995657142857137c-0.9694062857142856 0.6788571428571428 -1.2049470857142857 2.015005714285714 -0.5260937142857143 2.9844342857142854l13.810628571428571 19.72169142857143c0.32612571428571424 0.4656685714285714 0.82392 0.7826742857142857 1.3838057142857143 0.8812457142857142 0.55992 0.09853714285714285 1.1360228571428572 -0.029451428571428573 1.6015542857142855 -0.35581714285714283l8.909279999999999 -6.245794285714285 9.757131428571428 13.933302857142857 -5.663485714285714 4.177371428571428c-0.5495314285714286 0.4052571428571428 -0.8060914285714286 1.0981714285714284 -0.6531085714285714 1.7636571428571426 0.1529485714285714 0.6654857142857142 0.6862971428571428 1.1766857142857143 1.3576457142857141 1.3014857142857141l12.821005714285713 2.381485714285714c0.45222857142857137 0.084 0.9192 -0.017142857142857144 1.296 -0.28114285714285714 0.37679999999999997 -0.2636571428571428 0.6318857142857143 -0.6678857142857143 0.7076571428571429 -1.1214857142857142l2.2607999999999997 -13.505725714285713c0.11519999999999998 -0.6887657142857143 -0.19885714285714284 -1.3786285714285713 -0.7940571428571428 -1.7439771428571427 -0.5952 -0.3653485714285714 -1.3522285714285713 -0.33315428571428574 -1.9145142857142856 0.08136l-5.967771428571428 4.4021485714285715 -10.926582857142858 -15.603017142857142c-0.32612571428571424 -0.4656685714285714 -0.82392 -0.7827085714285713 -1.3838057142857143 -0.8812457142857142 -0.55992 -0.09853714285714285 -1.1360228571428572 0.029451428571428573 -1.6015542857142855 0.3557828571428571l-8.909245714285714 6.2458285714285715 -12.580834285714285 -17.96550857142857Z" clip-rule="evenodd" stroke-width="3.4286"></path>
  </g>
</svg>