<svg xmlns="http://www.w3.org/2000/svg" fill="none" viewBox="0 0 48 48" id="Graph-Arrow-Increase--Streamline-Core-Remix" height="48" width="48">
  <desc>
    Graph Arrow Increase Streamline Icon: https://streamlinehq.com
  </desc>
  <g id="Free Remix/Money Shopping/graph-arrow-increase--ascend-growth-up-arrow-stats-graph-right-grow">
    <path id="Union" fill="#000000" fill-rule="evenodd" d="M47.182628571428566 20.109702857142857c0.5952 -0.3653485714285714 0.9092571428571428 -1.0552114285714285 0.7940571428571428 -1.7439771428571427l-2.2607999999999997 -13.505862857142857c-0.07577142857142857 -0.4536342857142857 -0.33085714285714285 -0.8577257142857142 -0.7076571428571429 -1.1214857142857142 -0.37679999999999997 -0.2637257142857143 -0.8437714285714286 -0.36496799999999996 -1.296 -0.28097142857142854L30.891222857142857 5.838857142857143c-0.6713485714285714 0.12469714285714285 -1.204697142857143 0.6359314285714286 -1.3576457142857141 1.3014171428571426 -0.15298285714285714 0.6654857142857142 0.10357714285714285 1.3582971428571429 0.6531085714285714 1.7636228571428572l5.663485714285714 4.17744 -9.757131428571428 13.933234285714285 -8.909279999999999 -6.2458285714285715c-0.4655314285714286 -0.32633142857142855 -1.0416342857142857 -0.45431999999999995 -1.6015542857142855 -0.3557828571428571 -0.5598857142857142 0.09857142857142857 -1.05768 0.4155771428571428 -1.3838057142857143 0.8812457142857142L0.38777142857142854 41.016c-0.6788533714285714 0.9692571428571428 -0.44331257142857144 2.3053714285714286 0.5260937142857143 2.984228571428571 0.9694079999999999 0.6788571428571428 2.3055908571428567 0.44331428571428566 2.9844548571428566 -0.5259428571428572l12.580834285714285 -17.965542857142857 8.909245714285714 6.2458285714285715c0.4655314285714286 0.32633142857142855 1.0416342857142857 0.45431999999999995 1.6015542857142855 0.3557828571428571 0.5598857142857142 -0.09857142857142857 1.05768 -0.4155771428571428 1.3838057142857143 -0.8812457142857142l10.92624 -15.602982857142855 5.968114285714285 4.402182857142857c0.5622857142857143 0.41454857142857143 1.3193142857142857 0.4467428571428571 1.9145142857142856 0.08139428571428571Z" clip-rule="evenodd" stroke-width="3.4286"></path>
  </g>
</svg>