<svg xmlns="http://www.w3.org/2000/svg" fill="none" viewBox="0 0 48 48" id="Graph-Dot--Streamline-Core-Remix" height="48" width="48">
  <desc>
    Graph Dot Streamline Icon: https://streamlinehq.com
  </desc>
  <g id="Free Remix/Money Shopping/graph-dot--product-data-bars-analysis-analytics-graph-business-chart-dot">
    <path id="Union" fill="#000000" fill-rule="evenodd" d="M5.571428571428571 3.4285714285714284c0 -1.1834674285714284 -0.9593828571428571 -2.142857142857143 -2.142857142857143 -2.142857142857143C2.245104 1.2857142857142856 1.2857142857142856 2.245104 1.2857142857142856 3.4285714285714284v41.14285714285714c0 1.183542857142857 0.9593897142857143 2.142857142857143 2.142857142857143 2.142857142857143h41.14285714285714c1.183542857142857 0 2.142857142857143 -0.9593142857142857 2.142857142857143 -2.142857142857143s-0.9593142857142857 -2.142857142857143 -2.142857142857143 -2.142857142857143H5.571428571428571V34.07965714285714l6.540137142857143 -6.9842057142857135c1.1864914285714285 0.7139314285714286 2.5761942857142857 1.124537142857143 4.061828571428571 1.124537142857143 1.8268457142857142 0 3.5086971428571423 -0.6209142857142858 4.8459771428571425 -1.6631999999999998l2.4936342857142857 2.325805714285714c-0.3653828571428571 0.9088799999999999 -0.5664342857142857 1.9014857142857142 -0.5664342857142857 2.9410971428571426 0 4.357337142857143 3.5322514285714286 7.8894514285714274 7.889485714285714 7.8894514285714274 4.3572 0 7.889657142857142 -3.5321142857142855 7.889657142857142 -7.8894514285714274 0 -2.2403999999999997 -0.933942857142857 -4.262708571428571 -2.4335999999999998 -5.698834285714286l2.735657142857143 -7.514262857142858c4.263428571428571 -0.10762285714285715 7.686514285714285 -3.597531428571428 7.686514285714285 -7.8869485714285705 0 -4.357234285714286 -3.5321142857142855 -7.889485714285714 -7.889485714285714 -7.889485714285714 -4.357028571428571 -0.00000342857142857143 -7.8893828571428575 3.5322514285714286 -7.8893828571428575 7.889485714285714 0 2.594125714285714 1.2520114285714286 4.895828571428571 3.1847314285714283 6.333805714285713l-2.5170514285714285 6.913542857142856c-0.25241142857142856 -0.024342857142857142 -0.5082514285714286 -0.036822857142857136 -0.7670399999999999 -0.036822857142857136 -1.4401028571428571 0 -2.7900685714285713 0.38585142857142857 -3.9521828571428568 1.0598057142857142l-3.034971428571428 -2.830697142857143c0.13992 -0.5881371428571428 0.21397714285714284 -1.201817142857143 0.21397714285714284 -1.8327771428571429 0 -4.357234285714286 -3.5322514285714286 -7.889485714285714 -7.889485714285714 -7.889485714285714 -4.357234285714286 0 -7.889485714285714 3.5322514285714286 -7.889485714285714 7.889485714285714 0 0.9813257142857141 0.17914285714285713 1.9207885714285713 0.5065371428571429 2.7874628571428572L5.571428571428571 26.55558857142857V3.4285714285714284Zm29.6496 7.295074285714286c0 1.9903199999999999 1.6134857142857142 3.603771428571428 3.603771428571428 3.603771428571428 1.9902857142857142 0 3.603771428571428 -1.6134514285714285 3.603771428571428 -3.603771428571428 0 -1.9903199999999999 -1.6134857142857142 -3.603771428571428 -3.603771428571428 -3.603771428571428 -1.9902857142857142 0 -3.603771428571428 1.6134514285714285 -3.603771428571428 3.603771428571428Zm-22.651405714285712 9.606857142857143c0 1.9903199999999999 1.6134514285714285 3.603771428571428 3.603771428571428 3.603771428571428 1.9903199999999999 0.00003428571428571428 3.603771428571428 -1.6134514285714285 3.603771428571428 -3.603771428571428 0 -1.9902857142857142 -1.6134514285714285 -3.603771428571428 -3.603771428571428 -3.603771428571428 -1.9903199999999999 0 -3.603771428571428 1.6134857142857142 -3.603771428571428 3.603771428571428ZM30.836057142857143 35.42742857142857c-1.9903199999999999 0 -3.603771428571428 -1.6134514285714285 -3.603771428571428 -3.6037371428571428 0 -1.9903199999999999 1.6134514285714285 -3.603805714285714 3.603771428571428 -3.603805714285714 1.9903199999999999 0 3.603942857142857 1.6134857142857142 3.603942857142857 3.603805714285714 0 1.9902857142857142 -1.613622857142857 3.6037371428571428 -3.603942857142857 3.6037371428571428Z" clip-rule="evenodd" stroke-width="3.4286"></path>
  </g>
</svg>