<svg xmlns="http://www.w3.org/2000/svg" fill="none" viewBox="0 0 48 48" id="Group-Meeting-Call--Streamline-Core-Remix" height="48" width="48">
  <desc>
    Group Meeting Call Streamline Icon: https://streamlinehq.com
  </desc>
  <g id="Free Remix/Work Education/group-meeting-call--group-meeting-call-work">
    <path id="Union" fill="#000000" fill-rule="evenodd" d="M7.7142857142857135 4.605359999999999c0 -0.17653714285714286 0.14310857142857142 -0.31964571428571426 0.31964571428571426 -0.31964571428571426h31.93224c0.17657142857142855 0 0.31954285714285713 0.14310857142857142 0.31954285714285713 0.31964571428571426v16.24062857142857c0 0.17653714285714286 -0.14297142857142855 0.31964571428571426 -0.31954285714285713 0.31964571428571426H32.71536c-1.6710171428571428 -2.659748571428571 -4.527497142857142 -4.5028114285714285 -7.831611428571428 -4.783988571428571 2.65704 -0.4234628571428571 4.687679999999999 -2.72544 4.687679999999999 -5.5017257142857146 0 -3.0770057142857143 -2.494422857142857 -5.571428571428571 -5.571428571428571 -5.571428571428571s-5.571428571428571 2.494422857142857 -5.571428571428571 5.571428571428571c0 2.7762514285714284 2.0306399999999996 5.078228571428571 4.687645714285714 5.5017257142857146 -3.304148571428571 0.28114285714285714 -6.1606628571428566 2.124205714285714 -7.831645714285714 4.783988571428571H8.033931428571428c-0.17653714285714286 0 -0.31964571428571426 -0.14310857142857142 -0.31964571428571426 -0.31964571428571426V4.605359999999999ZM8.033931428571428 0C5.49048 0 3.4285714285714284 2.061894857142857 3.4285714285714284 4.605359999999999v16.24062857142857c0 2.543485714285714 2.0619085714285714 4.605359999999999 4.605359999999999 4.605359999999999h31.93224c2.5433142857142856 0 4.605257142857142 -2.0618742857142855 4.605257142857142 -4.605359999999999V4.605359999999999C44.57142857142857 2.061894857142857 42.50948571428571 0 39.96617142857143 0H8.033931428571428Zm4.9671771428571425 27.429291428571425c-3.3136799999999997 0 -6 2.68632 -6 6s2.68632 5.999965714285714 6 5.999965714285714c3.3137142857142856 0 6 -2.686285714285714 6 -5.999965714285714s-2.686285714285714 -6 -6 -6Zm-0.00003428571428571428 11.999965714285713c-4.220468571428571 0 -7.843474285714285 2.5416 -9.429085714285714 6.170742857142857 -0.23158285714285712 0.5300571428571428 -0.1802845714285714 1.1410285714285713 0.13642285714285712 1.625142857142857 0.31669714285714284 0.4837714285714286 0.85608 0.7755428571428571 1.434445714285714 0.7755428571428571h15.716434285714286c0.5783657142857143 0 1.1177485714285715 -0.2917714285714285 1.434445714285714 -0.7755428571428571 0.31669714285714284 -0.48411428571428566 0.36802285714285715 -1.0950857142857142 0.13642285714285712 -1.625142857142857 -1.5856114285714284 -3.629142857142857 -5.208617142857142 -6.170742857142857 -9.429085714285714 -6.170742857142857ZM25.569737142857143 45.6c1.585645714285714 -3.629142857142857 5.208651428571429 -6.170742857142857 9.42912 -6.170742857142857 4.220571428571429 0 7.843542857142857 2.5416 9.429257142857143 6.170742857142857 0.23142857142857143 0.5300571428571428 0.18 1.1410285714285713 -0.13645714285714286 1.625142857142857 -0.31679999999999997 0.4837714285714286 -0.8561142857142857 0.7755428571428571 -1.4345142857142856 0.7755428571428571H27.140639999999998c-0.5783999999999999 0 -1.117782857142857 -0.2917714285714285 -1.4344799999999998 -0.7755428571428571 -0.31669714285714284 -0.48411428571428566 -0.3679885714285714 -1.0950857142857142 -0.13642285714285712 -1.625142857142857Zm3.4291542857142856 -12.17070857142857c0 -3.3136799999999997 2.686285714285714 -6 5.999965714285714 -6 3.3137142857142856 0 6 2.68632 6 6s-2.686285714285714 5.999965714285714 -6 5.999965714285714c-3.3136799999999997 0 -5.999965714285714 -2.686285714285714 -5.999965714285714 -5.999965714285714Z" clip-rule="evenodd" stroke-width="3.4286"></path>
  </g>
</svg>