<svg xmlns="http://www.w3.org/2000/svg" fill="none" viewBox="0 0 48 48" id="Half-Star-1--Streamline-Core-Remix" height="48" width="48">
  <desc>
    Half Star 1 Streamline Icon: https://streamlinehq.com
  </desc>
  <g id="Free Remix/Interface Essential/half-star-1--reward-rating-rate-social-star-media-favorite-like-stars-half">
    <path id="Union" fill="#000000" fill-rule="evenodd" d="M33.41382857142857 1.0525714285714285c-0.5777142857142857 0.36925714285714284 -1.039542857142857 0.8941714285714284 -1.332 1.5140571428571428l-5.557714285714286 11.219999999999999c-0.010971428571428571 0.021942857142857142 -0.021257142857142856 0.04422857142857143 -0.0312 0.06685714285714285 -0.002742857142857143 0.005485714285714286 -0.006514285714285714 0.010285714285714285 -0.011314285714285714 0.014057142857142858 -0.005142857142857143 0.0034285714285714284 -0.010971428571428571 0.005828571428571428 -0.0168 0.006514285714285714 -0.021599999999999998 0.0024 -0.04285714285714286 0.005142857142857143 -0.06411428571428572 0.008228571428571427l-12.236914285714285 1.812685714285714c-0.6761142857142857 0.06582857142857142 -1.3210285714285712 0.31954285714285713 -1.8613714285714287 0.7333714285714286 -0.5588571428571428 0.4282285714285714 -0.9815999999999999 1.0093714285714286 -1.217142857142857 1.6727999999999998 -0.2355428571428571 0.6637714285714286 -0.27359999999999995 1.3813714285714285 -0.10937142857142856 2.066057142857143 0.1632 0.6819428571428571 0.5204571428571428 1.3021714285714285 1.0278857142857143 1.7862857142857143l8.957485714285713 8.6424 -0.00034285714285714285 0.00034285714285714285 0.02057142857142857 0.0192c0.013028571428571428 0.012 0.022285714285714284 0.02674285714285714 0.028114285714285717 0.04354285714285714 0.005485714285714286 0.016457142857142854 0.006857142857142857 0.03428571428571429 0.0037714285714285714 0.05142857142857142l-0.0020571428571428568 0.011657142857142856 -2.1346285714285713 12.491657142857143 -0.00034285714285714285 0.0030857142857142854c-0.11725714285714285 0.6771428571428572 -0.04251428571428571 1.3734857142857142 0.21565714285714283 2.0098285714285713 0.25885714285714284 0.6377142857142857 0.6915428571428571 1.190057142857143 1.2486857142857144 1.5939428571428569 0.5568 0.4035428571428571 1.2161142857142857 0.6428571428571428 1.9025142857142854 0.6905142857142856 0.6853714285714285 0.04765714285714285 1.3700571428571429 -0.09771428571428571 1.9769142857142856 -0.4193142857142857l0.0030857142857142854 -0.0017142857142857142 11.025257142857143 -5.8265142857142855c0.03977142857142857 -0.017142857142857144 0.08228571428571428 -0.0264 0.12548571428571428 -0.0264 0.9668571428571427 0 1.7506285714285714 -0.7834285714285714 1.7506285714285714 -1.750285714285714V2.230285714285714c0 -0.4642285714285714 -0.18445714285714285 -0.9092571428571428 -0.5129142857142858 -1.2377142857142855 -0.3281142857142857 -0.3281142857142857 -0.7734857142857142 -0.5125714285714286 -1.2377142857142855 -0.5125714285714286 -0.6946285714285714 0 -1.3745142857142856 0.19885714285714284 -1.9601142857142855 0.5725714285714286Z" clip-rule="evenodd" stroke-width="3.4286"></path>
  </g>
</svg>