<svg xmlns="http://www.w3.org/2000/svg" fill="none" viewBox="0 0 48 48" id="Hand-Grab--Streamline-Core-Remix" height="48" width="48">
  <desc>
    Hand Grab Streamline Icon: https://streamlinehq.com
  </desc>
  <g id="Free Remix/Interface Essential/hand-grab--hand-select-cursor-finger-grab">
    <path id="Union" fill="#000000" fill-rule="evenodd" d="M13.684902857142855 10.269359999999999c0 -2.9824114285714285 2.744297142857143 -5.209131428571428 5.662731428571428 -4.5947314285714285l18.805165714285714 3.9590057142857136c2.1730285714285715 0.45744 3.728228571428571 2.3743199999999995 3.728228571428571 4.5947314285714285v10.31393142857143c0 4.975405714285714 -1.1585142857142856 9.882617142857141 -3.3833142857142855 14.332559999999997l-1.5191999999999999 3.038057142857143c-0.1488 0.2976 -0.22628571428571428 0.6257142857142857 -0.22628571428571428 0.9582857142857143V44.57142857142857c0 1.183542857142857 0.9596571428571428 2.142857142857143 2.142857142857143 2.142857142857143 1.183542857142857 0 2.142857142857143 -0.9593142857142857 2.142857142857143 -2.142857142857143v-1.1941714285714284l1.2929142857142857 -2.5858285714285714c2.522742857142857 -5.045142857142857 3.8358857142857143 -10.60841142857143 3.8358857142857143 -16.249131428571427V14.228365714285713c0 -4.247074285714286 -2.9749714285714286 -7.9135542857142855 -7.130742857142857 -8.788491428571428L20.230525714285715 1.480854857142857C14.648331428571428 0.305652 9.39918857142857 4.5647657142857145 9.39918857142857 10.269359999999999v3.512708571428571c-0.00006857142857142857 0.007234285714285714 -0.00010285714285714286 0.014502857142857144 -0.00010285714285714286 0.021737142857142858v0.2635542857142857l-1.919382857142857 0.7677599999999999C3.459942857142857 16.443017142857144 1.1594194285714285 20.689885714285715 2.008491428571429 24.935245714285713l1.8150857142857142 9.07536c0.41441142857142854 2.072022857142857 1.546182857142857 3.93168 3.1962514285714283 5.25168l5.798502857142857 4.638857142857143V44.57142857142857c0 1.183542857142857 0.9593828571428571 2.142857142857143 2.142857142857143 2.142857142857143s2.142857142857143 -0.9593142857142857 2.142857142857143 -2.142857142857143v-1.7002285714285714c0 -0.6510857142857143 -0.29591999999999996 -1.2665142857142857 -0.80424 -1.673142857142857l-6.602708571428571 -5.2824c-0.8626628571428571 -0.6901714285714285 -1.4543657142857143 -1.6622399999999997 -1.6710514285714284 -2.745565714285714l-1.8150514285714285 -9.07536c-0.4439314285714286 -2.21952 0.7588114285714285 -4.439794285714285 2.8603885714285715 -5.280445714285714l0.32770285714285713 -0.1310742857142857v3.6684685714285714c0 1.1834399999999998 0.9593828571428571 2.142857142857143 2.142857142857143 2.142857142857143s2.142857142857143 -0.9594171428571429 2.142857142857143 -2.142857142857143V15.539691428571427c0.00006857142857142857 -0.007199999999999999 0.00010285714285714286 -0.014399999999999998 0.00010285714285714286 -0.021599999999999998V10.269359999999999Z" clip-rule="evenodd" stroke-width="3.4286"></path>
  </g>
</svg>