<svg xmlns="http://www.w3.org/2000/svg" fill="none" viewBox="0 0 48 48" id="Hand-Held--Streamline-Core-Remix" height="48" width="48">
  <desc>
    Hand Held Streamline Icon: https://streamlinehq.com
  </desc>
  <g id="Free Remix/Computer Devices/hand-held--tablet-kindle-device-electronics-ipad-computer">
    <path id="Union" fill="#000000" fill-rule="evenodd" d="M7.285714285714286 5.571428571428571c0 -0.7100914285714285 0.5756228571428571 -1.2857142857142856 1.2857142857142856 -1.2857142857142856h30.857142857142854c0.7100571428571428 0 1.2857142857142856 0.5756228571428571 1.2857142857142856 1.2857142857142856V36h-33.42857142857142V5.571428571428571ZM8.571428571428571 0C5.494422857142857 0 3 2.494412571428571 3 5.571428571428571v36.857142857142854C3 45.505714285714284 5.494422857142857 48 8.571428571428571 48h30.857142857142854c3.077142857142857 0 5.571428571428571 -2.494285714285714 5.571428571428571 -5.571428571428571V5.571428571428571C45 2.494412571428571 42.505714285714284 0 39.42857142857142 0h-30.857142857142854Zm6.857142857142857 9.428571428571429c-1.4201485714285715 0 -2.571428571428571 1.1512799999999999 -2.571428571428571 2.571428571428571s1.1512799999999999 2.571428571428571 2.571428571428571 2.571428571428571h17.142857142857142c1.4201485714285715 0 2.571428571428571 -1.1512799999999999 2.571428571428571 -2.571428571428571s-1.1512799999999999 -2.571428571428571 -2.571428571428571 -2.571428571428571h-17.142857142857142Zm-2.571428571428571 12c0 -1.4201485714285715 1.1512799999999999 -2.571428571428571 2.571428571428571 -2.571428571428571h10.285714285714285c1.4201485714285715 0 2.571428571428571 1.1512799999999999 2.571428571428571 2.571428571428571S27.134434285714285 24 25.71428571428571 24h-10.285714285714285c-1.4201485714285715 0 -2.571428571428571 -1.1512799999999999 -2.571428571428571 -2.571428571428571Z" clip-rule="evenodd" stroke-width="3.4286"></path>
  </g>
</svg>