<svg xmlns="http://www.w3.org/2000/svg" fill="none" viewBox="0 0 48 48" id="Hand-Held-Tablet-Drawing--Streamline-Core-Remix" height="48" width="48">
  <desc>
    Hand Held Tablet Drawing Streamline Icon: https://streamlinehq.com
  </desc>
  <g id="Free Remix/Computer Devices/hand-held-tablet-drawing--tablet-kindle-device-electronics-ipad-digital-drawing-canvas">
    <path id="Union" fill="#000000" fill-rule="evenodd" d="M7.285714285714286 5.571428571428571c0 -0.7100914285714285 0.5756228571428571 -1.2857142857142856 1.2857142857142856 -1.2857142857142856h30.857142857142854c0.7100571428571428 0 1.2857142857142856 0.5756228571428571 1.2857142857142856 1.2857142857142856V36h-33.42857142857142V5.571428571428571ZM8.571428571428571 0C5.494422857142857 0 3 2.494412571428571 3 5.571428571428571v36.857142857142854C3 45.505714285714284 5.494422857142857 48 8.571428571428571 48h30.857142857142854c3.077142857142857 0 5.571428571428571 -2.494285714285714 5.571428571428571 -5.571428571428571V5.571428571428571C45 2.494412571428571 42.505714285714284 0 39.42857142857142 0h-30.857142857142854Zm9.960685714285713 13.03824c-1.0802742857142857 0.5852228571428572 -2.271874285714286 1.7808685714285712 -3.1471199999999997 3.018205714285714 -0.8201485714285714 1.1594057142857144 -2.4248914285714283 1.4344114285714284 -3.584297142857143 0.6142628571428571s-1.4344114285714284 -2.4248914285714283 -0.6142628571428571 -3.584297142857143c1.130742857142857 -1.5984685714285713 2.869645714285714 -3.4723542857142853 4.895931428571428 -4.570114285714285 1.0297714285714286 -0.5578285714285715 2.287645714285714 -0.9981942857142857 3.6643199999999996 -0.9498514285714286 1.4505942857142857 0.05091428571428571 2.809885714285714 0.6392914285714285 3.9287314285714285 1.7581371428571426 1.9627199999999998 1.9626857142857141 1.4991771428571428 4.531508571428572 0.9429257142857141 6.147428571428571 -0.5577942857142857 1.62048 -1.5662399999999999 3.355885714285714 -2.4023314285714283 4.79472l-0.11266285714285713 0.19395428571428572c-0.9209485714285714 1.5863657142857142 -1.6052914285714286 2.8035771428571428 -1.9111542857142858 3.7455428571428566 0.14211428571428572 -0.07148571428571428 0.31512 -0.17132571428571428 0.5210742857142857 -0.3096685714285714 1.05648 -0.7098171428571428 2.2487314285714284 -1.914102857142857 3.6861257142857142 -3.3969942857142854l0.17232 -0.17790857142857142 0.00003428571428571428 0c1.2786514285714285 -1.3202057142857142 2.778445714285714 -2.8687199999999997 4.259794285714285 -3.8917714285714284 1.4713714285714283 -1.01616 3.982662857142857 -2.21568 6.451885714285714 -0.5694514285714285 0.8948571428571428 0.5965714285714285 1.6134857142857142 1.4020457142857143 1.9940571428571428 2.4408342857142857 0.3716571428571428 1.01352 0.3288 1.9961828571428568 0.16388571428571427 2.8007314285714284 -0.2646857142857143 1.2891085714285713 -0.9788571428571428 2.6212114285714283 -1.4790857142857141 3.5541599999999995l-0.0010285714285714284 0.0020228571428571426c-0.060000000000000005 0.11190857142857143 -0.11725714285714285 0.21809142857142855 -0.1697142857142857 0.3177257142857143 -0.6260571428571429 1.1843657142857142 -0.9068571428571428 1.857462857142857 -0.9455999999999999 2.3168571428571427 -0.006857142857142857 0.08180571428571427 -0.0020571428571428568 0.12716571428571427 0.0010285714285714284 0.14605714285714286 0.002742857142857143 0.015977142857142856 0.005828571428571428 0.023554285714285715 0.010285714285714285 0.032502857142857146l0 0.00023999999999999998c0.0048 0.009462857142857143 0.07714285714285714 0.15613714285714284 0.42617142857142853 0.38886857142857145 1.1818285714285715 0.7877485714285714 1.5010285714285714 2.3842971428571427 0.7131428571428571 3.5659199999999998 -0.7875428571428571 1.1816571428571427 -2.38416 1.5009599999999998 -3.5658171428571426 0.7131771428571428 -0.9335999999999999 -0.6223885714285714 -1.69464 -1.40472 -2.17896 -2.379085714285714 -0.48881142857142856 -0.9833485714285715 -0.6079199999999999 -1.9858628571428572 -0.5304342857142856 -2.9012571428571423 0.14132571428571428 -1.670502857142857 0.9770057142857143 -3.2531999999999996 1.5235885714285713 -4.287017142857143l0.08074285714285714 -0.15270857142857144 0.00003428571428571428 -0.00003428571428571428 0.00003428571428571428 -0.00006857142857142857c0.5359542857142856 -1.0132457142857143 0.8642742857142858 -1.6339885714285713 1.0148914285714286 -2.112685714285714 -0.14026285714285713 0.0686742857142857 -0.33209142857142854 0.17921142857142855 -0.5865942857142856 0.35499428571428565 -1.0365942857142856 0.7158857142857142 -2.213965714285714 1.9235314285714287 -3.661885714285714 3.417325714285714l-0.05012571428571428 0.05170285714285714c-1.3154742857142858 1.3572342857142856 -2.8835999999999995 2.975108571428571 -4.4607085714285715 4.034708571428571 -1.550022857142857 1.0413942857142857 -4.040468571428571 2.141588571428571 -6.520662857142857 0.58344 -1.1037257142857142 -0.6933942857142857 -1.81056 -1.7247428571428571 -2.0524799999999996 -2.9445942857142855 -0.2182285714285714 -1.1003657142857142 -0.021188571428571428 -2.1614057142857144 0.23543999999999998 -3.0047999999999995 0.4903885714285714 -1.6115314285714284 1.5161142857142855 -3.3779314285714284 2.3577942857142857 -4.827462857142857l0.05420571428571429 -0.09332571428571429c0.9457371428571427 -1.62912 1.7161714285714287 -2.965782857142857 2.0998971428571425 -4.080582857142857 0.17670857142857144 -0.5133257142857143 0.20780571428571426 -0.7858285714285713 0.20568 -0.9099428571428572 -0.1901142857142857 -0.1667657142857143 -0.3089142857142857 -0.17897142857142856 -0.39497142857142853 -0.18202285714285713 -0.1711542857142857 -0.006 -0.5105828571428571 0.048479999999999995 -1.0341257142857143 0.33212571428571425Zm1.4146285714285713 -0.23633142857142858c0.0025714285714285713 -0.0021257142857142855 0.009394285714285713 0.012617142857142856 0.01272 0.05064 -0.013645714285714285 -0.029519999999999998 -0.015291428571428572 -0.04851428571428571 -0.01272 -0.05064ZM32.664342857142856 20.203885714285715c-0.0024 0.005005714285714285 -0.02890285714285714 0.011417142857142857 -0.07237714285714285 0.004251428571428571 0.05304 -0.012857142857142855 0.07477714285714285 -0.009257142857142858 0.07237714285714285 -0.004251428571428571Z" clip-rule="evenodd" stroke-width="3.4286"></path>
  </g>
</svg>