<svg xmlns="http://www.w3.org/2000/svg" fill="none" viewBox="0 0 48 48" id="Hand-Held-Tablet-Writing--Streamline-Core-Remix" height="48" width="48">
  <desc>
    Hand Held Tablet Writing Streamline Icon: https://streamlinehq.com
  </desc>
  <g id="Free Remix/Computer Devices/hand-held-tablet-writing--tablet-kindle-device-electronics-ipad-writing-digital-paper-notepad">
    <path id="Union" fill="#000000" fill-rule="evenodd" d="M41.18845714285714 0.502104c-0.32159999999999994 -0.3217134857142857 -0.7580571428571428 -0.5023436783999999 -1.2130285714285713 -0.5021037613714285C39.52045714285714 0.00024383451428571429 39.08434285714285 0.1813374857142857 38.762742857142854 0.5033931428571429L22.64856 16.651954285714286c-0.2623885714285714 0.2629371428571428 -0.43227428571428567 0.6039771428571429 -0.48408 0.9718285714285713l-1.0285714285714285 7.3028571428571425c-0.07487999999999999 0.5317371428571428 0.1037142857142857 1.0678628571428572 0.4825714285714285 1.4484685714285714 0.37885714285714284 0.38060571428571427 0.9141257142857143 0.5616685714285714 1.4462399999999997 0.4892228571428572l7.3028571428571425 -0.9942857142857142c0.3713485714285714 -0.050571428571428566 0.7159199999999999 -0.22141714285714284 0.9809142857142857 -0.48644571428571426l16.148537142857144 -16.148571428571426c0.6696 -0.669462857142857 0.6696 -1.7548799999999998 0 -2.424342857142857l-6.308571428571429 -6.308581714285714ZM4.376125714285714 5.571428571428571c0 -0.7100914285714285 0.5756228571428571 -1.2857142857142856 1.2857142857142856 -1.2857142857142856h23.57142857142857c1.1834399999999998 0 2.142857142857143 -0.9593897142857143 2.142857142857143 -2.142857142857143S30.41670857142857 2.3862857142857e-7 29.23326857142857 2.3862857142857e-7h-23.57142857142857C2.584813714285714 2.3862857142857e-7 0.09040182857142856 2.494412571428571 0.09040182857142856 5.571428571428571v36.857142857142854c0 3.077142857142857 2.4944118857142854 5.571428571428571 5.5714381714285715 5.571428571428571h30.857245714285714c3.0767999999999995 0 5.571428571428571 -2.494285714285714 5.571428571428571 -5.571428571428571v-16.285714285714285c0 -1.1834742857142857 -0.9596571428571428 -2.142857142857143 -2.142857142857143 -2.142857142857143 -1.183542857142857 0 -2.142857142857143 0.9593828571428571 -2.142857142857143 2.142857142857143v9.883885714285714H4.376125714285714V5.571428571428571ZM10.376125714285713 10.285714285714285c0 -1.1834742857142857 0.9593828571428571 -2.142857142857143 2.142857142857143 -2.142857142857143h6.857142857142857c1.1834742857142857 0 2.142857142857143 0.9593828571428571 2.142857142857143 2.142857142857143s-0.9593828571428571 2.142857142857143 -2.142857142857143 2.142857142857143h-6.857142857142857c-1.1834742857142857 0 -2.142857142857143 -0.9593828571428571 -2.142857142857143 -2.142857142857143Zm2.142857142857143 6.428571428571428c-1.1834742857142857 0 -2.142857142857143 0.9593828571428571 -2.142857142857143 2.142857142857143s0.9593828571428571 2.142857142857143 2.142857142857143 2.142857142857143h3.4285714285714284c1.1834742857142857 0 2.142857142857143 -0.9593828571428571 2.142857142857143 -2.142857142857143s-0.9593828571428571 -2.142857142857143 -2.142857142857143 -2.142857142857143h-3.4285714285714284Z" clip-rule="evenodd" stroke-width="3.4286"></path>
  </g>
</svg>