<svg xmlns="http://www.w3.org/2000/svg" fill="none" viewBox="0 0 48 48" id="Hang-Up-1--Streamline-Core-Remix" height="48" width="48">
  <desc>
    Hang Up 1 Streamline Icon: https://streamlinehq.com
  </desc>
  <g id="Free Remix/Phone/hang-up-1--android-phone-mobile-device-smartphone-iphone-telephone-hang-up">
    <path id="Vector (Stroke)" fill="#000000" fill-rule="evenodd" d="M9.474822857142856 20.20038857142857c-1.4665714285714286 0.32286857142857145 -2.7798514285714284 1.1382514285714285 -3.720548571428571 2.3110971428571427 -0.9455314285714286 1.17888 -1.4564914285714285 2.646308571428571 -1.4475771428571427 4.155154285714286l0.00023999999999999998 0.03836571428571429 -0.020605714285714283 1.6867542857142857c0.006342857142857143 0.20448 0.09020571428571428 0.39815999999999996 0.23413714285714285 0.5420914285714286 0.14585142857142858 0.14585142857142858 0.34285714285714286 0.23005714285714288 0.5503542857142857 0.23437714285714287l7.309028571428572 -0.005622857142857142c0.20204571428571427 -0.0035314285714285716 0.39589714285714284 -0.08554285714285714 0.5399657142857143 -0.22961142857142858 0.14324571428571428 -0.14321142857142857 0.22512 -0.3356571428571428 0.2295428571428571 -0.5364342857142856 -0.001097142857142857 -0.6594171428571428 0.1272342857142857 -1.312662857142857 0.3777257142857143 -1.9226742857142853 0.2535428571428571 -0.6175885714285715 0.6272228571428571 -1.1786742857142856 1.0992342857142856 -1.650685714285714 0.47204571428571424 -0.47204571428571424 1.0331314285714284 -0.8456914285714285 1.650685714285714 -1.0992685714285715 0.6148114285714286 -0.25241142857142856 1.273542857142857 -0.3808114285714286 1.938205714285714 -0.3776571428571428 0.0029828571428571426 0.00003428571428571428 0.005965714285714285 0.00003428571428571428 0.008914285714285713 0.00006857142857142857l-0.014022857142857142 2.1426857142857143 -0.0016457142857142857 -2.1427542857142856 0.0067542857142857135 0 11.602525714285713 -0.008914285714285713c1.3305257142857143 0.014022857142857142 2.602834285714285 0.5485028571428572 3.543977142857143 1.489645714285714 0.9411428571428572 0.9411771428571427 1.4756571428571428 2.2134514285714286 1.4893714285714286 3.544011428571429l0.00034285714285714285 0.005588571428571428c0.0013714285714285714 0.20413714285714285 0.08297142857142857 0.3984342857142857 0.22628571428571428 0.5417142857142857 0.1426285714285714 0.14266285714285715 0.336 0.22422857142857142 0.5393142857142856 0.22649142857142854l-0.0048 -0.00003428571428571428 -0.0096 2.142857142857143 0.014399999999999998 -2.1428228571428574 7.309028571428572 0.032845714285714284c-0.0041142857142857136 0.00010285714285714286 -0.008228571428571427 0.00020571428571428572 -0.012342857142857142 0.00023999999999999998l0.026057142857142855 2.1426171428571426 0.0096 -2.1427542857142856 -0.02331428571428571 -0.00010285714285714286c0.20639999999999997 -0.005588571428571428 0.4038857142857143 -0.09020571428571428 0.5509714285714286 -0.23742857142857143 0.1464 -0.1461942857142857 0.23074285714285714 -0.34193142857142855 0.23759999999999998 -0.5466857142857143l0 0.03168 2.142857142857143 -0.02242285714285714 -2.142514285714286 -0.02585142857142857c-0.00034285714285714285 0.00552 -0.00034285714285714285 0.011074285714285714 -0.00034285714285714285 0.01659428571428571l-0.01817142857142857 -1.72512c0.011314285714285714 -1.5088114285714285 -0.4971428571428571 -2.9739771428571427 -1.4393142857142855 -4.149497142857142 -0.9377142857142857 -1.170102857142857 -2.2488 -1.9828799999999998 -3.7148571428571424 -2.3028685714285713 0.007542857142857143 0.0015085714285714286 0.015428571428571427 0.0029828571428571426 0.02297142857142857 0.004491428571428571l0.40697142857142854 -2.103874285714286 -0.45017142857142856 2.094994285714286c0.006514285714285714 0.0014742857142857142 0.01337142857142857 0.002914285714285714 0.020228571428571426 0.004388571428571428 -9.596982857142857 -1.8534514285714285 -19.462422857142858 -1.8588342857142854 -29.067462857142853 -0.015668571428571428Zm-0.8350971428571429 -4.2036685714285715c10.156765714285713 -1.95264 20.590388571428573 -1.9472228571428571 30.739474285714287 0.016114285714285713l0.04354285714285714 0.0084c2.4377142857142853 0.5240228571428571 4.619314285714285 1.8722057142857143 6.178628571428571 3.817302857142857 1.5548571428571427 1.9398514285714286 2.3948571428571426 4.355245714285714 2.3811428571428572 6.841577142857142l0.01817142857142857 1.748537142857143c-0.016114285714285713 1.3303542857142856 -0.5526857142857143 2.6014971428571427 -1.493142857142857 3.5420228571428574 -0.9404571428571428 0.9405257142857143 -2.2117714285714283 1.476582857142857 -3.5420571428571423 1.4926285714285714l-0.035314285714285715 0.00044571428571428567 -7.337142857142857 -0.03329142857142857 -0.007542857142857143 -0.00003428571428571428c-1.3279542857142856 -0.010525714285714284 -2.5987885714285714 -0.5423314285714285 -3.5381142857142853 -1.4816571428571428 -0.93936 -0.93936 -1.4711314285714285 -2.2101942857142856 -1.4816571428571428 -3.5382171428571425l2.142788571428571 -0.01697142857142857 -2.1427542857142856 0.022559999999999997c-0.002194285714285714 -0.21054857142857142 -0.08667428571428572 -0.41084571428571426 -0.23448000000000002 -0.5586514285714286 -0.14585142857142858 -0.14585142857142858 -0.34285714285714286 -0.23005714285714288 -0.55032 -0.23437714285714287l-11.5692 0.008879999999999999 -0.01570285714285714 -0.00003428571428571428c-0.0996 -0.0006514285714285715 -0.19865142857142856 0.018514285714285716 -0.29129142857142853 0.056537142857142855 -0.09267428571428571 0.03805714285714286 -0.17698285714285714 0.09418285714285714 -0.24795428571428568 0.1651542857142857 -0.07100571428571428 0.07100571428571428 -0.12713142857142856 0.1553142857142857 -0.1651542857142857 0.24795428571428568 -0.03805714285714286 0.09267428571428571 -0.05718857142857143 0.19169142857142857 -0.056537142857142855 0.2913257142857143l0.00020571428571428572 0.034319999999999996c-0.012548571428571428 1.3278171428571428 -0.5463428571428571 2.59752 -1.4850171428571428 3.5362285714285715 -0.9387085714285713 0.9386742857142858 -2.2084114285714285 1.4721942857142856 -3.5362285714285715 1.484742857142857l-0.018617142857142856 0.00017142857142857143 -7.361417142857142 0.005588571428571428c-1.33056 -0.014022857142857142 -2.602861714285714 -0.5485028571428572 -3.544014857142857 -1.489645714285714 -0.9411565714285715 -0.9411771428571427 -1.475501794285714 -2.2134514285714286 -1.4895109851428572 -3.544011428571429L0 28.372011428571426l0.02095536 -1.700297142857143C0.010915817142857142 24.18545142857143 0.854784 21.770331428571428 2.4110777142857143 19.830000000000002 3.9715885714285712 17.88438857142857 6.153702857142856 16.53421714285714 8.590971428571429 16.006697142857142l0.04875428571428571 -0.009977142857142856Z" clip-rule="evenodd" stroke-width="3.4286"></path>
  </g>
</svg>