<svg xmlns="http://www.w3.org/2000/svg" fill="none" viewBox="0 0 48 48" id="Hang-Up-2--Streamline-Core-Remix" height="48" width="48">
  <desc>
    Hang Up 2 Streamline Icon: https://streamlinehq.com
  </desc>
  <g id="Free Remix/Phone/hang-up-2--android-phone-mobile-device-smartphone-iphone-telephone-hang-up">
    <path id="Union" fill="#000000" fill-rule="evenodd" d="M5.754274285714286 11.337668571428571c0.9406971428571428 -1.1728457142857143 2.253977142857143 -1.988262857142857 3.720548571428571 -2.3110971428571427 9.60504 -1.8431657142857143 19.47048 -1.8377828571428572 29.067462857142853 0.015668571428571428 1.4660571428571427 0.3199885714285714 2.777142857142857 1.1327314285714285 3.7148571428571424 2.3028685714285713 0.9421714285714284 1.17552 1.4509714285714286 2.6406514285714286 1.4396571428571427 4.149462857142857l-0.00034285714285714285 0 0.00034285714285714285 0.03836571428571429 0.017828571428571426 1.6867542857142857c-0.006857142857142857 0.2047885714285714 -0.09119999999999999 0.40052571428571426 -0.23759999999999998 0.54672 -0.1470857142857143 0.14722285714285713 -0.3445714285714286 0.23180571428571428 -0.5509714285714286 0.23742857142857143l-7.306628571428571 -0.032845714285714284 -0.0168 2.142788571428571 0.0096 -2.1428228571428574 0.0048 0.00003428571428571428c-0.2033142857142857 -0.002297142857142857 -0.39668571428571425 -0.08386285714285714 -0.5393142857142856 -0.22652571428571427 -0.1433142857142857 -0.14324571428571428 -0.22491428571428573 -0.33757714285714285 -0.22628571428571428 -0.5416799999999999l-0.00034285714285714285 -0.005588571428571428c-0.013714285714285714 -1.33056 -0.5482285714285714 -2.6028685714285715 -1.4893714285714286 -3.544011428571429 -0.9411428571428572 -0.9411428571428572 -2.2134514285714286 -1.4754857142857143 -3.543977142857143 -1.4895085714285714l0 -0.00013714285714285713 -0.024205714285714285 0.00003428571428571428 -11.578319999999998 0.008879999999999999 -0.0067542857142857135 0 0.0016457142857142857 2.1427542857142856 0.014022857142857142 -2.1427199999999997 -0.008914285714285713 -0.00003428571428571428c-0.6646628571428571 -0.0031885714285714286 -1.3233942857142857 0.12521142857142856 -1.938205714285714 0.3776571428571428 -0.6175542857142857 0.2535428571428571 -1.17864 0.6272228571428571 -1.650685714285714 1.0992685714285715 -0.4720114285714285 0.4720114285714285 -0.8456914285714285 1.0330971428571427 -1.0992342857142856 1.6506514285714284 -0.25049142857142853 0.6100457142857143 -0.37882285714285713 1.2632914285714285 -0.3777257142857143 1.9226742857142853 -0.0044228571428571424 0.20077714285714285 -0.08629714285714286 0.3932228571428571 -0.2295428571428571 0.5364685714285714 -0.14406857142857143 0.14406857142857143 -0.33791999999999994 0.2260457142857143 -0.5399657142857143 0.22961142857142858l-7.309028571428572 0.005588571428571428c-0.20749714285714282 -0.00432 -0.4045028571428571 -0.08849142857142857 -0.5503542857142857 -0.2343428571428571 -0.14393142857142857 -0.14393142857142857 -0.2277942857142857 -0.33761142857142856 -0.23413714285714285 -0.5420914285714286l0.02026285714285714 -1.6867542857142857 0.00034285714285714285 0 -0.00023999999999999998 -0.03836571428571429c-0.008914285714285713 -1.5088799999999998 0.5020457142857143 -2.9763085714285715 1.4475771428571427 -4.155154285714286Zm37.17178285714286 6.6661714285714275 0.02331428571428571 0.00010285714285714286 -0.0096 2.1427199999999997 -0.026057142857142855 -2.142582857142857 0.012342857142857142 -0.00023999999999999998Zm0.7885714285714286 -0.7841485714285714 0.00034285714285714285 -0.01659428571428571 2.142514285714286 0.02585142857142857 -2.142857142857143 0.022457142857142856 0 -0.03171428571428571Zm-5.172342857142857 -8.177451428571429 -0.020228571428571426 -0.004388571428571428 0.45017142857142856 -2.094994285714286 -0.40697142857142854 2.10384 -0.02297142857142857 -0.004457142857142857Zm0.8369142857142857 -4.203222857142857C29.230114285714283 2.8756559999999998 18.79649142857143 2.8702525714285714 8.639725714285714 4.822902857142856l-0.04875428571428571 0.009977142857142856c-2.437268571428571 0.5274857142857142 -4.619382857142857 1.8776914285714286 -6.179893714285714 3.823268571428571 -1.5562937142857143 1.9403314285714286 -2.400161897142857 4.355485714285714 -2.3901223542857144 6.841714285714286l-0.020411355428571427 1.7003314285714284L0 17.198194285714283l0.0005084434285714285 0.04830857142857142C0.014517634285714284 18.57702857142857 0.5488628571428571 19.84933714285714 1.4900194285714286 20.79048c0.9411531428571428 0.9411771428571427 2.213454857142857 1.47552 3.544014857142857 1.4895085714285714l0 0.00013714285714285713 0.024205714285714285 0 7.337211428571427 -0.005657142857142857v0.00010285714285714286l0.018617142857142856 -0.00017142857142857143c1.3278171428571428 -0.012582857142857142 2.59752 -0.5460685714285713 3.5362285714285715 -1.4847771428571428 0.9386742857142858 -0.9386742857142858 1.4721942857142856 -2.2083771428571426 1.484742857142857 -3.5362285714285715l0.00027428571428571427 0 -0.00020571428571428572 -0.03428571428571429c-0.0006514285714285715 -0.0996342857142857 0.01848 -0.19868571428571427 0.056537142857142855 -0.2913257142857143 0.038022857142857136 -0.09267428571428571 0.09414857142857141 -0.17698285714285714 0.1651542857142857 -0.24795428571428568 0.07097142857142856 -0.07097142857142856 0.15527999999999997 -0.12709714285714285 0.24795428571428568 -0.1651542857142857 0.09263999999999999 -0.038022857142857136 0.19169142857142857 -0.05718857142857143 0.29129142857142853 -0.056537142857142855l0.01570285714285714 0.00003428571428571428 11.5692 -0.008879999999999999c0.20746285714285714 0.00432 0.4044685714285714 0.08849142857142857 0.55032 0.2343428571428571 0.1478057142857143 0.1478057142857143 0.2322857142857143 0.34813714285714287 0.23448000000000002 0.5586857142857143l2.1427542857142856 -0.022559999999999997 -2.142788571428571 0.01697142857142857c0.010525714285714284 1.3280228571428572 0.5422971428571428 2.5988571428571428 1.4816571428571428 3.5382171428571425 0.9393257142857142 0.9393257142857142 2.21016 1.4711314285714285 3.5381142857142853 1.4816228571428571l0.007542857142857143 0.00006857142857142857 7.337142857142857 0.03298285714285714v0.00027428571428571427l0.035314285714285715 -0.00041142857142857143c1.3302857142857143 -0.016045714285714285 2.6016 -0.5521028571428571 3.5420571428571423 -1.4926285714285714 0.9404571428571428 -0.9405257142857143 1.4766857142857144 -2.2116685714285715 1.4928 -3.5420571428571423l0.00034285714285714285 0.00003428571428571428 -0.00034285714285714285 -0.04830857142857142 -0.017828571428571426 -1.700262857142857c0.013714285714285714 -2.4863314285714284 -0.8262857142857142 -4.901691428571428 -2.3811428571428572 -6.841542857142857 -1.5593142857142857 -1.9451314285714285 -3.7412571428571426 -3.2928685714285715 -6.178628571428571 -3.8168571428571427l0 -0.00044571428571428567 -0.04354285714285714 -0.0084ZM26.571805714285713 24.420205714285714c0 -1.4201485714285715 -1.1512457142857142 -2.571428571428571 -2.571428571428571 -2.571428571428571 -1.4201485714285715 0 -2.571428571428571 1.1512457142857142 -2.571428571428571 2.571428571428571l0 7.104068571428572H15.173657142857142c-0.8667085714285714 0 -1.64808 0.5221028571428571 -1.9797257142857143 1.3228114285714285 -0.33168000000000003 0.8007428571428571 -0.14835428571428572 1.7225142857142854 0.4645028571428571 2.3352l8.827062857142856 8.8272c0.8368457142857142 0.8369142857142857 2.1936342857142854 0.8369142857142857 3.030445714285714 0l8.82702857142857 -8.8272c0.6130285714285714 -0.6126857142857143 0.7961142857142857 -1.5344571428571427 0.4645714285714286 -2.3352 -0.3315428571428571 -0.8007085714285713 -1.1130514285714284 -1.3228114285714285 -1.97976 -1.3228114285714285H26.571805714285713l0 -7.104068571428572Z" clip-rule="evenodd" stroke-width="3.4286"></path>
  </g>
</svg>