<svg xmlns="http://www.w3.org/2000/svg" fill="none" viewBox="0 0 48 48" id="Happy-Face--Streamline-Core-Remix" height="48" width="48">
  <desc>
    Happy Face Streamline Icon: https://streamlinehq.com
  </desc>
  <g id="Free Remix/Mail/Mail/Smiley/happy-face--smiley-chat-message-smile-emoji-face-satisfied">
    <path id="Union" fill="#000000" fill-rule="evenodd" d="M4.285714285714286 24c0 -10.887908571428571 8.826377142857142 -19.71428571428571 19.71428571428571 -19.71428571428571 10.887771428571428 0 19.71428571428571 8.826377142857142 19.71428571428571 19.71428571428571 0 10.887771428571428 -8.826514285714284 19.71428571428571 -19.71428571428571 19.71428571428571 -10.887908571428571 0 -19.71428571428571 -8.826514285714284 -19.71428571428571 -19.71428571428571ZM24 0C10.745177142857143 0 0 10.745177142857143 0 24c0 13.254857142857142 10.745177142857143 24 24 24 13.254857142857142 0 24 -10.745142857142856 24 -24 0 -13.254822857142857 -10.745142857142856 -24 -24 -24ZM16.285714285714285 14.571428571428571c1.8935314285714284 0 3.4285714285714284 1.53504 3.4285714285714284 3.4285714285714284s-1.53504 3.4285714285714284 -3.4285714285714284 3.4285714285714284 -3.4285714285714284 -1.53504 -3.4285714285714284 -3.4285714285714284 1.53504 -3.4285714285714284 3.4285714285714284 -3.4285714285714284Zm12 3.4285714285714284c0 1.8935314285714284 1.535005714285714 3.4285714285714284 3.4285714285714284 3.4285714285714284s3.4285714285714284 -1.53504 3.4285714285714284 -3.4285714285714284 -1.535005714285714 -3.4285714285714284 -3.4285714285714284 -3.4285714285714284 -3.4285714285714284 1.53504 -3.4285714285714284 3.4285714285714284ZM11.763462857142857 24.96397714285714c1.3611428571428572 -0.40508571428571427 2.792982857142857 0.36994285714285713 3.1980685714285713 1.7310857142857143C16.12117714285714 30.59156571428571 19.73262857142857 33.42857142857142 24 33.42857142857142c4.267371428571429 0 7.878822857142857 -2.837005714285714 9.03846857142857 -6.733508571428571 0.40512 -1.3611428571428572 1.83696 -2.1361714285714286 3.198102857142857 -1.7310857142857143 1.3611428571428572 0.40508571428571427 2.136342857142857 1.836925714285714 1.7310857142857143 3.198102857142857C36.17691428571428 34.17925714285714 30.604731428571426 38.57142857142857 24 38.57142857142857c-6.604697142857142 0 -12.176845714285713 -4.392171428571428 -13.967657142857142 -10.409348571428572 -0.40508571428571427 -1.3611771428571426 0.36994285714285713 -2.7930171428571424 1.7311199999999998 -3.198102857142857Z" clip-rule="evenodd" stroke-width="3.4286"></path>
  </g>
</svg>