<svg xmlns="http://www.w3.org/2000/svg" fill="none" viewBox="0 0 48 48" id="Hard-Drive-1--Streamline-Core-Remix" height="48" width="48">
  <desc>
    Hard Drive 1 Streamline Icon: https://streamlinehq.com
  </desc>
  <g id="Free Remix/Computer Devices/hard-drive-1--disk-device-electronics-disc-drive-raid-storage">
    <path id="Union" fill="#000000" fill-rule="evenodd" d="M1.6721862857142857 27.09990857142857 5.886342857142857 5.6892000000000005l0.012171428571428571 -0.05756571428571428c0.2770285714285714 -1.2285257142857142 0.9621599999999999 -2.326961142857143 1.9435885714285714 -3.1161634285714284 0.9814285714285714 -0.7892022857142856 2.2013142857142856 -1.2226045714285714 3.460697142857143 -1.2295371428571429l0.011794285714285714 -0.00006514285714285715v0.00003428571428571428h25.348491428571425c1.2774857142857141 -0.024500571428571427 2.5251428571428574 0.3909977142857143 3.533142857142857 1.17732 1.0158857142857143 0.7923359999999999 1.725942857142857 1.9122171428571426 2.0088 3.169028571428571l0.012 0.056948571428571425 4.251428571428571 21.599999999999998c0.02297142857142857 0.11629714285714285 0.036 0.23221714285714284 0.03977142857142857 0.34693714285714283 0.1344 0.4792457142857142 0.20605714285714286 0.984582857142857 0.20605714285714286 1.50672V41.14285714285714c0 3.077142857142857 -2.494285714285714 5.571428571428571 -5.571428571428571 5.571428571428571H6.857142857142857c-3.0770057142857143 0 -5.571428571428571 -2.494285714285714 -5.571428571428571 -5.571428571428571V29.142857142857142c0 -0.7212 0.13702971428571428 -1.4103771428571428 0.386472 -2.042948571428571ZM5.571428571428571 29.142857142857142c0 -0.7100914285714285 0.5756228571428571 -1.2857142857142856 1.2857142857142856 -1.2857142857142856h34.285714285714285c0.7100571428571428 0 1.2857142857142856 0.5756228571428571 1.2857142857142856 1.2857142857142856V41.14285714285714c0 0.7100571428571428 -0.5756571428571428 1.2857142857142856 -1.2857142857142856 1.2857142857142856H6.857142857142857c-0.7100914285714285 0 -1.2857142857142856 -0.5756571428571428 -1.2857142857142856 -1.2857142857142856V29.142857142857142Zm6.428571428571428 3.4285714285714284c-1.4201485714285715 0 -2.571428571428571 1.1512799999999999 -2.571428571428571 2.571428571428571 0 1.4201142857142857 1.1512799999999999 2.571428571428571 2.571428571428571 2.571428571428571h10.285714285714285c1.4201485714285715 0 2.571428571428571 -1.1513142857142855 2.571428571428571 -2.571428571428571 0 -1.4201485714285715 -1.1512799999999999 -2.571428571428571 -2.571428571428571 -2.571428571428571h-10.285714285714285Zm19.285714285714285 2.571428571428571c0 -2.1302399999999997 1.726902857142857 -3.8571428571428568 3.8571428571428568 -3.8571428571428568 2.1301714285714284 0 3.8571428571428568 1.726902857142857 3.8571428571428568 3.8571428571428568 0 2.1301714285714284 -1.7269714285714286 3.8571428571428568 -3.8571428571428568 3.8571428571428568 -2.1302399999999997 0 -3.8571428571428568 -1.7269714285714286 -3.8571428571428568 -3.8571428571428568Z" clip-rule="evenodd" stroke-width="3.4286"></path>
  </g>
</svg>