<svg xmlns="http://www.w3.org/2000/svg" fill="none" viewBox="0 0 48 48" id="Hard-Disk--Streamline-Core-Remix" height="48" width="48">
  <desc>
    Hard Disk Streamline Icon: https://streamlinehq.com
  </desc>
  <g id="Free Remix/Computer Devices/hard-disk--device-disc-drive-disk-electronics-platter-turntable-raid-storage">
    <path id="Union" fill="#000000" fill-rule="evenodd" d="M7.285714285714286 5.571428571428571c0 -0.7100914285714285 0.5756228571428571 -1.2857142857142856 1.2857142857142856 -1.2857142857142856h30.857142857142854c0.7100571428571428 0 1.2857142857142856 0.5756228571428571 1.2857142857142856 1.2857142857142856v36.857142857142854c0 0.7100571428571428 -0.5756571428571428 1.2857142857142856 -1.2857142857142856 1.2857142857142856h-30.857142857142854c-0.7100914285714285 0 -1.2857142857142856 -0.5756571428571428 -1.2857142857142856 -1.2857142857142856V5.571428571428571ZM8.571428571428571 0C5.494422857142857 0 3 2.494412571428571 3 5.571428571428571v36.857142857142854C3 45.505714285714284 5.494422857142857 48 8.571428571428571 48h30.857142857142854c3.077142857142857 0 5.571428571428571 -2.494285714285714 5.571428571428571 -5.571428571428571V5.571428571428571C45 2.494412571428571 42.505714285714284 0 39.42857142857142 0h-30.857142857142854Zm8.873451428571427 28.840148571428568c-2.491405714285714 -1.870148571428571 -4.1030742857142855 -4.848754285714286 -4.1030742857142855 -8.203748571428571 0 -5.661737142857143 4.589725714285714 -10.251428571428571 10.251428571428571 -10.251428571428571 5.661702857142857 0 10.251428571428571 4.589691428571428 10.251428571428571 10.251428571428571 0 5.661702857142857 -4.589725714285714 10.251428571428571 -10.251428571428571 10.251428571428571 -0.7617257142857142 0 -1.5040114285714286 -0.08307428571428571 -2.2183542857142857 -0.24068571428571428L17.236422857142855 37.15028571428571c-0.6353828571428571 0.9987428571428572 -1.95984 1.2929142857142857 -2.9583085714285713 0.6576 -0.9984342857142857 -0.6353142857142856 -1.2927771428571428 -1.9597714285714285 -0.6573942857142857 -2.9581714285714282l3.82416 -6.009565714285714ZM23.142857142857142 37.714285714285715c0 -1.4201142857142857 1.1512799999999999 -2.571428571428571 2.571428571428571 -2.571428571428571H34.285714285714285c1.4201142857142857 0 2.571428571428571 1.1513142857142855 2.571428571428571 2.571428571428571s-1.1513142857142855 2.571428571428571 -2.571428571428571 2.571428571428571H25.71428571428571c-1.4201485714285715 0 -2.571428571428571 -1.1513142857142855 -2.571428571428571 -2.571428571428571Zm3.878914285714286 -17.077885714285713c0 1.8935314285714284 -1.53504 3.4285714285714284 -3.4285714285714284 3.4285714285714284 -1.893565714285714 0 -3.4285714285714284 -1.53504 -3.4285714285714284 -3.4285714285714284 0 -1.893565714285714 1.535005714285714 -3.4285714285714284 3.4285714285714284 -3.4285714285714284 1.8935314285714284 0 3.4285714285714284 1.535005714285714 3.4285714285714284 3.4285714285714284Z" clip-rule="evenodd" stroke-width="3.4286"></path>
  </g>
</svg>