<svg xmlns="http://www.w3.org/2000/svg" fill="none" viewBox="0 0 48 48" id="Heading-2-Paragraph-Styles-Heading--Streamline-Core-Remix" height="48" width="48">
  <desc>
    Heading 2 Paragraph Styles Heading Streamline Icon: https://streamlinehq.com
  </desc>
  <g id="Free Remix/Interface Essential/heading-2-paragraph-styles-heading">
    <path id="Union" fill="#000000" fill-rule="evenodd" d="M4.285714285714286 2.142857142857143C4.285714285714286 0.9593897142857143 3.326324571428571 0 2.142857142857143 0S0 0.9593897142857143 0 2.142857142857143v36.857142857142854c0 1.183542857142857 0.9593897142857143 2.142857142857143 2.142857142857143 2.142857142857143s2.142857142857143 -0.9593142857142857 2.142857142857143 -2.142857142857143v-16.285714285714285h15.428571428571427v16.285714285714285c0 1.183542857142857 0.9593828571428571 2.142857142857143 2.142857142857143 2.142857142857143S24 40.183542857142854 24 39V2.142857142857143C24 0.9593897142857143 23.04061714285714 0 21.857142857142858 0S19.71428571428571 0.9593897142857143 19.71428571428571 2.142857142857143v16.285714285714285h-15.428571428571427V2.142857142857143Zm32.57142857142857 20.142857142857142c-3.36288 0 -6.2168914285714285 2.150331428571428 -7.274674285714286 5.143062857142857 -0.4732457142857143 1.3389942857142856 0.2285485714285714 2.808102857142857 1.5675428571428571 3.281382857142857 1.3389942857142856 0.47328 2.808102857142857 -0.2285485714285714 3.281417142857143 -1.5675085714285713C34.785599999999995 28.14044571428571 35.74148571428571 27.428571428571427 36.857142857142854 27.428571428571427h3.561942857142857c1.3463999999999998 0 2.4380571428571427 1.0915542857142857 2.4380571428571427 2.438022857142857 0 0.9686057142857142 -0.5732571428571428 1.84536 -1.4609142857142856 2.2336114285714284l-7.631108571428571 3.3385371428571426C30.957222857142856 36.667199999999994 29.142857142857142 39.4416 29.142857142857142 42.5064v2.922171428571428c0 1.4201142857142857 1.1512799999999999 2.571428571428571 2.571428571428571 2.571428571428571h13.714285714285714c1.4201142857142857 0 2.571428571428571 -1.1513142857142855 2.571428571428571 -2.571428571428571s-1.1513142857142855 -2.571428571428571 -2.571428571428571 -2.571428571428571H34.285714285714285v-0.35074285714285713c0 -1.0217142857142856 0.6048 -1.9464 1.5408 -2.3557714285714284l7.631314285714286 -3.338742857142857C46.21714285714285 35.604685714285715 48 32.87845714285714 48 29.866594285714285 48 25.679794285714284 44.60605714285714 22.285714285714285 40.419085714285714 22.285714285714285H36.857142857142854Z" clip-rule="evenodd" stroke-width="3.4286"></path>
  </g>
</svg>