<svg xmlns="http://www.w3.org/2000/svg" fill="none" viewBox="0 0 48 48" id="Heading-1-Paragraph-Styles-Heading--Streamline-Core-Remix" height="48" width="48">
  <desc>
    Heading 1 Paragraph Styles Heading Streamline Icon: https://streamlinehq.com
  </desc>
  <g id="Free Remix/Interface Essential/heading-1-paragraph-styles-heading">
    <path id="Union" fill="#000000" fill-rule="evenodd" d="M4.285714285714286 2.142857142857143C4.285714285714286 0.9593897142857143 3.326324571428571 0 2.142857142857143 0S0 0.9593897142857143 0 2.142857142857143v36.857142857142854c0 1.183542857142857 0.9593897142857143 2.142857142857143 2.142857142857143 2.142857142857143s2.142857142857143 -0.9593142857142857 2.142857142857143 -2.142857142857143v-16.285714285714285h15.428571428571427v16.285714285714285c0 1.183542857142857 0.9593828571428571 2.142857142857143 2.142857142857143 2.142857142857143S24 40.183542857142854 24 39V2.142857142857143C24 0.9593897142857143 23.04061714285714 0 21.857142857142858 0S19.71428571428571 0.9593897142857143 19.71428571428571 2.142857142857143v16.285714285714285h-15.428571428571427V2.142857142857143ZM41.14285714285714 24.857142857142854c0 -1.4201485714285715 -1.1513142857142855 -2.571428571428571 -2.571428571428571 -2.571428571428571s-2.571428571428571 1.1512799999999999 -2.571428571428571 2.571428571428571 -1.1513142857142855 2.571428571428571 -2.571428571428571 2.571428571428571h-1.7142857142857142c-1.4201485714285715 0 -2.571428571428571 1.1512799999999999 -2.571428571428571 2.571428571428571s1.1512799999999999 2.571428571428571 2.571428571428571 2.571428571428571h1.7142857142857142c0.9017142857142857 0 1.7670857142857141 -0.15469714285714284 2.571428571428571 -0.43896V42.857142857142854H31.71428571428571c-1.4201485714285715 0 -2.571428571428571 1.1513142857142855 -2.571428571428571 2.571428571428571s1.1512799999999999 2.571428571428571 2.571428571428571 2.571428571428571h13.714285714285714c1.4201142857142857 0 2.571428571428571 -1.1513142857142855 2.571428571428571 -2.571428571428571s-1.1513142857142855 -2.571428571428571 -2.571428571428571 -2.571428571428571H41.14285714285714V24.857142857142854Z" clip-rule="evenodd" stroke-width="3.4286"></path>
  </g>
</svg>