<svg xmlns="http://www.w3.org/2000/svg" fill="none" viewBox="0 0 48 48" id="Heading-3-Paragraph-Styles-Heading--Streamline-Core-Remix" height="48" width="48">
  <desc>
    Heading 3 Paragraph Styles Heading Streamline Icon: https://streamlinehq.com
  </desc>
  <g id="Free Remix/Interface Essential/heading-3-paragraph-styles-heading">
    <path id="Union" fill="#000000" fill-rule="evenodd" d="M4.285714285714286 2.142857142857143C4.285714285714286 0.9593897142857143 3.326324571428571 0 2.142857142857143 0S0 0.9593897142857143 0 2.142857142857143v36.857142857142854c0 1.183542857142857 0.9593897142857143 2.142857142857143 2.142857142857143 2.142857142857143s2.142857142857143 -0.9593142857142857 2.142857142857143 -2.142857142857143v-16.285714285714285h15.428571428571427v16.285714285714285c0 1.183542857142857 0.9593828571428571 2.142857142857143 2.142857142857143 2.142857142857143S24 40.183542857142854 24 39V2.142857142857143C24 0.9593897142857143 23.04061714285714 0 21.857142857142858 0S19.71428571428571 0.9593897142857143 19.71428571428571 2.142857142857143v16.285714285714285h-15.428571428571427V2.142857142857143ZM39.857142857142854 22.285714285714285l-2.571428571428571 0.00003428571428571428c-3.338742857142857 0.00003428571428571428 -6.146708571428571 2.2434857142857143 -7.011222857142856 5.3001257142857146 -0.38653714285714286 1.3665257142857141 0.40793142857142856 2.787668571428571 1.7744914285714286 3.1742057142857143 1.3665257142857141 0.3865028571428571 2.787702857142857 -0.40796571428571426 3.174102857142857 -1.774525714285714 0.25474285714285716 -0.9007542857142857 1.0854857142857142 -1.5569485714285713 2.0626285714285713 -1.5569485714285713L39.857142857142854 27.428571428571427c1.183542857142857 0 2.142857142857143 0.9593828571428571 2.142857142857143 2.142857142857143s-0.9593142857142857 2.142857142857143 -2.142857142857143 2.142857142857143h-1.2857142857142856c-1.4201142857142857 0 -2.571428571428571 1.1512799999999999 -2.571428571428571 2.571428571428571 0 1.4201142857142857 1.1513142857142855 2.571428571428571 2.571428571428571 2.571428571428571h1.2857142857142856l0.42857142857142855 0c1.4201142857142857 0 2.571428571428571 1.1513142857142855 2.571428571428571 2.571428571428571l0 0.8571428571428571c0 1.4201142857142857 -1.1513142857142855 2.571428571428571 -2.571428571428571 2.571428571428571l-3.4285714285714284 0c-1.115657142857143 0 -2.0715428571428567 -0.7117714285714286 -2.4257142857142857 -1.713942857142857 -0.4733828571428571 -1.3392 -1.9424914285714283 -2.0410285714285714 -3.281485714285714 -1.5675428571428571 -1.3389942857142856 0.47314285714285714 -2.040822857142857 1.9422857142857142 -1.5675771428571428 3.2811428571428567C30.64014857142857 45.849599999999995 33.494194285714286 48 36.857142857142854 48l3.4285714285714284 0c4.260342857142857 0 7.7142857142857135 -3.453942857142857 7.7142857142857135 -7.7142857142857135l0 -0.8571428571428571c0 -2.1528 -0.8818285714285713 -4.099542857142857 -2.304 -5.498845714285714 0.9085714285714286 -1.2154285714285713 1.4468571428571426 -2.7240342857142856 1.4468571428571426 -4.358297142857142 0 -4.023805714285714 -3.261942857142857 -7.285748571428571 -7.285714285714286 -7.285714285714286Z" clip-rule="evenodd" stroke-width="3.4286"></path>
  </g>
</svg>