<svg xmlns="http://www.w3.org/2000/svg" fill="none" viewBox="0 0 48 48" id="Health-Care-2--Streamline-Core-Remix" height="48" width="48">
  <desc>
    Health Care 2 Streamline Icon: https://streamlinehq.com
  </desc>
  <g id="Free Remix/Health/health-care-2--health-medical-hospital-heart-care-symbol">
    <path id="Union" fill="#000000" fill-rule="evenodd" d="M15.428571428571427 8.571428571428571C15.428571428571427 3.837565714285714 19.266137142857144 0 24 0s8.571428571428571 3.837565714285714 8.571428571428571 8.571428571428571S28.733862857142856 17.142857142857142 24 17.142857142857142 15.428571428571427 13.305291428571428 15.428571428571427 8.571428571428571Zm3.615634285714285 10.868605714285714c-3.614537142857143 -3.41856 -9.282960000000001 -3.36816 -12.836194285714285 0.11406857142857142C2.385010285714286 23.300742857142858 2.5242102857142856 29.500834285714284 6.511714285714286 33.07189714285714l16.058777142857142 14.381588571428571c0.8137371428571428 0.7285714285714285 2.0454171428571426 0.7285714285714285 2.8591542857142853 0l16.05846857142857 -14.381588571428571c3.9877714285714285 -3.571062857142857 4.126971428571428 -9.771154285714285 0.3037714285714285 -13.517794285714285 -3.5530285714285714 -3.4822285714285712 -9.221554285714285 -3.5326285714285715 -12.836091428571429 -0.11406857142857142L24.000034285714282 24.1272 19.044205714285713 19.440034285714287Zm-9.83646857142857 3.17496c1.9079657142857143 -1.86984 4.950788571428571 -1.8968571428571428 6.8916 -0.06126857142857143l6.428297142857142 6.079782857142856c0.8261485714285715 0.7813714285714285 2.1187542857142856 0.7813714285714285 2.944868571428571 0l6.4281942857142855 -6.079782857142856c1.9408114285714284 -1.8355885714285711 4.983531428571428 -1.8085714285714283 6.891531428571428 0.06126857142857143 2.0544 2.0131885714285715 1.9793142857142858 5.345622857142857 -0.1632 7.264285714285713l1.4297142857142855 1.5963085714285714 -1.4297142857142855 -1.5963085714285714L24.00006857142857 42.98057142857142 9.37086857142857 29.87928c-2.1424114285714286 -1.9186628571428572 -2.2173599999999998 -5.251097142857143 -0.16313142857142857 -7.264285714285713Z" clip-rule="evenodd" stroke-width="3.4286"></path>
  </g>
</svg>