<svg xmlns="http://www.w3.org/2000/svg" fill="none" viewBox="0 0 48 48" id="Heart-Rate-Pulse-Graph--Streamline-Core-Remix" height="48" width="48">
  <desc>
    Heart Rate Pulse Graph Streamline Icon: https://streamlinehq.com
  </desc>
  <g id="Free Remix/Health/heart-rate-pulse-graph">
    <path id="Subtract" fill="#000000" fill-rule="evenodd" d="M24.01422857142857 8.725748571428571c-3.3490285714285712 -3.3554742857142856 -6.850765714285714 -5.01744 -10.216834285714285 -5.264708571428571 -3.8034857142857144 -0.27943885714285716 -7.1646857142857145 1.2694971428571427 -9.593005714285713 3.71424 -4.775502857142857 4.807885714285715 -6.256755428571428 13.50030857142857 -0.3255085714285714 19.51416 0.019851428571428572 0.020125714285714285 0.04018285714285714 0.03973714285714285 0.06096 0.058834285714285714l18.91481142857143 17.371611428571427c0.6557485714285715 0.6020571428571428 1.6634057142857142 0.6020571428571428 2.3191542857142857 0l18.91488 -17.371611428571427 0.025371428571428573 -0.02393142857142857 0.03565714285714285 -0.03490285714285714c5.900228571428571 -5.982548571428571 4.4112 -14.673942857142855 -0.3490285714285714 -19.485634285714283 -2.422285714285714 -2.448617142857143 -5.776457142857143 -4.006453714285715 -9.576617142857142 -3.7332 -3.3630171428571427 0.24181714285714284 -6.861668571428572 1.900594285714286 -10.209839999999998 5.255142857142857Zm-0.8152114285714286 6.6605485714285715c-0.3924685714285714 -0.9105257142857142 -1.2734742857142856 -1.5142971428571428 -2.2642971428571426 -1.5517371428571427 -0.9908228571428572 -0.037439999999999994 -1.9148914285714282 0.49810285714285707 -2.3749714285714285 1.3764342857142855L15.74598857142857 20.582742857142858H12.051908571428571c-1.420182857142857 0 -2.571428571428571 1.1512457142857142 -2.571428571428571 2.571428571428571 0 1.4201485714285715 1.1512457142857142 2.571428571428571 2.571428571428571 2.571428571428571h5.25c0.9565371428571429 0 1.8340114285714284 -0.5309485714285714 2.27784 -1.3782857142857143l1.0321714285714285 -1.9704685714285715 3.2214171428571428 7.473737142857143c0.35612571428571427 0.8262171428571428 1.1181942857142857 1.4062285714285714 2.009417142857143 1.5293828571428572 0.8912228571428571 0.12315428571428572 1.7820342857142857 -0.22844571428571425 2.34888 -0.9271199999999999L32.026937142857136 25.7256h3.9178628571428566c1.4201142857142857 0 2.571428571428571 -1.1512799999999999 2.571428571428571 -2.571428571428571 0 -1.420182857142857 -1.1513142857142855 -2.571428571428571 -2.571428571428571 -2.571428571428571H30.801908571428573c-0.7749942857142856 0 -1.50864 0.34950857142857145 -1.9968685714285714 0.9513257142857142l-1.930525714285714 2.379428571428571 -3.6754971428571426 -8.527199999999999Z" clip-rule="evenodd" stroke-width="3.4286"></path>
  </g>
</svg>