<svg xmlns="http://www.w3.org/2000/svg" fill="none" viewBox="0 0 48 48" id="Hearts-Symbol--Streamline-Core-Remix" height="48" width="48">
  <desc>
    Hearts Symbol Streamline Icon: https://streamlinehq.com
  </desc>
  <g id="Free Remix/Entertainment/hearts-symbol--entertainment-gaming-card-hearts-symbol">
    <path id="Vector (Stroke)" fill="#000000" fill-rule="evenodd" d="M6.998057142857143 24.869588571428572c0.001097142857142857 0.0011314285714285714 0.002194285714285714 0.0022285714285714283 0.0033257142857142856 0.0033599999999999997l14.274857142857142 14.307737142857142c1.557462857142857 1.5610285714285712 3.9067885714285713 1.5610285714285712 5.464251428571428 0l14.274822857142858 -14.307771428571428c0.0010285714285714284 -0.0011314285714285714 0.0024 -0.002262857142857143 0.0034285714285714284 -0.0033599999999999997 3.816685714285714 -3.865062857142857 3.3531428571428568 -10.331451428571429 0.036 -14.245439999999999 -1.5908571428571427 -1.8771771428571429 -3.728228571428571 -3.0076799999999997 -6.195085714285714 -2.9585142857142857 -2.4891771428571428 0.04961142857142857 -5.690331428571429 1.3103657142857141 -9.327291428571428 4.989737142857143 -0.40258285714285713 0.40724571428571427 -0.95136 0.6364457142857142 -1.524 0.6364457142857142s-1.1214514285714285 -0.22920000000000001 -1.524 -0.6364457142857142C18.839897142857144 8.968354285714286 15.632674285714284 7.7022514285714285 13.139245714285714 7.649897142857142c-2.4701142857142857 -0.05184 -4.608102857142857 1.0773942857142857 -6.197965714285713 2.953302857142857 -3.3140914285714285 3.9103542857142854 -3.7764754285714286 10.38438857142857 0.056777142857142845 14.266388571428571Zm17.010479999999998 -16.66854857142857c-3.658285714285714 -3.2233371428571425 -7.322262857142857 -4.763314285714285 -10.779325714285713 -4.835907428571429 -3.960685714285714 -0.08315314285714286 -7.271314285714285 1.7698045714285713 -9.557382857142857 4.467130285714285 -4.4367531428571425 5.235017142857143 -5.436006857142857 14.269165714285712 0.2815542857142857 20.05350857142857l14.288914285714286 14.322c3.2319085714285714 3.2393142857142854 8.300194285714285 3.2393142857142854 11.532137142857142 0l14.282022857142856 -14.314937142857142 0.006857142857142857 -0.007062857142857143c5.706857142857143 -5.773165714285714 4.694742857142857 -14.801074285714286 0.2609142857142857 -20.03256 -2.2847999999999997 -2.696091428571428 -5.592685714285714 -4.551329142857143 -9.549942857142858 -4.472465142857143 -3.453805714285714 0.0688422857142857 -7.113325714285715 1.6037451428571428 -10.765748571428572 4.820293714285714Z" clip-rule="evenodd" stroke-width="3.4286"></path>
  </g>
</svg>