<svg xmlns="http://www.w3.org/2000/svg" fill="none" viewBox="0 0 48 48" id="Heart-Rate-Search--Streamline-Core-Remix" height="48" width="48">
  <desc>
    Heart Rate Search Streamline Icon: https://streamlinehq.com
  </desc>
  <g id="Free Remix/Health/heart-rate-search--health-medical-monitor-heart-rate-search">
    <path id="Union" fill="#000000" fill-rule="evenodd" d="M22.285714285714285 4.285714285714286c-9.941108571428572 0 -18 8.058891428571428 -18 18 0 9.941142857142857 8.058891428571428 18 18 18 9.941142857142857 0 18 -8.058857142857141 18 -18 0 -9.941108571428572 -8.058857142857141 -18 -18 -18ZM0 22.285714285714285C0 9.977657142857142 9.977657142857142 0 22.285714285714285 0 34.593942857142856 0 44.57142857142857 9.977657142857142 44.57142857142857 22.285714285714285c0 5.072605714285714 -1.694742857142857 9.749348571428571 -4.549028571428571 13.494857142857143l7.098857142857143 7.098857142857143c1.171542857142857 1.171542857142857 1.171542857142857 3.0709714285714287 0 4.242857142857143 -1.171542857142857 1.171542857142857 -3.0709714285714287 1.171542857142857 -4.242514285714286 0l-7.098857142857143 -7.099200000000001C32.03427428571428 42.877028571428575 27.357874285714285 44.57142857142857 22.285714285714285 44.57142857142857 9.977657142857142 44.57142857142857 0 34.593942857142856 0 22.285714285714285Zm19.222114285714284 -8.783862857142857c0.9907885714285715 0.037439999999999994 1.8718285714285714 0.6411771428571429 2.2642971428571426 1.5517371428571427l3.6754971428571426 8.527165714285713 1.9304914285714285 -2.379428571428571c0.48826285714285717 -0.6018171428571428 1.2219085714285713 -0.9513257142857142 1.996902857142857 -0.9513257142857142h5.142857142857142c1.420182857142857 0 2.571497142857143 1.1512799999999999 2.571497142857143 2.571428571428571s-1.1513142857142855 2.571428571428571 -2.571497142857143 2.571428571428571h-3.917828571428571L26.479028571428568 30.120102857142857c-0.5668457142857143 0.6986742857142857 -1.4576571428571428 1.0502742857142857 -2.34888 0.9271199999999999 -0.8912228571428571 -0.12315428571428572 -1.6532914285714286 -0.7031657142857143 -2.009417142857143 -1.5293828571428572l-3.2214514285714286 -7.473737142857143 -1.0321371428571426 1.970502857142857c-0.44382857142857146 0.847302857142857 -1.3213371428571428 1.3782514285714285 -2.27784 1.3782514285714285H10.33926857142857c-1.4201485714285715 0 -2.571428571428571 -1.1512799999999999 -2.571428571428571 -2.571428571428571s1.1512799999999999 -2.571428571428571 2.571428571428571 -2.571428571428571h3.6941142857142855l2.81376 -5.371748571428571c0.46008 -0.8782971428571429 1.3841485714285715 -1.4138742857142856 2.3749714285714285 -1.3763999999999998Z" clip-rule="evenodd" stroke-width="3.4286"></path>
  </g>
</svg>