<svg xmlns="http://www.w3.org/2000/svg" fill="none" viewBox="0 0 48 48" id="Hearing-Deaf-2--Streamline-Core-Remix" height="48" width="48">
  <desc>
    Hearing Deaf 2 Streamline Icon: https://streamlinehq.com
  </desc>
  <g id="Free Remix/Map Travel/hearing-deaf-2--disability-hearing-deaf">
    <path id="Union" fill="#000000" fill-rule="evenodd" d="M36.75325714285714 0.7531542857142857c1.0042285714285712 -1.0042056 2.6321142857142856 -1.0042056 3.636342857142857 0l6.857142857142857 6.857142857142857c1.0042285714285712 1.0041942857142856 1.0042285714285712 2.6323542857142854 0 3.636548571428571s-2.6321142857142856 1.0041942857142856 -3.636342857142857 0l-6.857142857142857 -6.857142857142857c-1.0042285714285712 -1.0042045714285714 -1.0042285714285712 -2.632344 0 -3.636548571428571ZM12.518399999999998 16.97945142857143C13.229931428571428 11.273588571428572 18.10093714285714 6.857142857142857 24.000205714285713 6.857142857142857c6.39072 0 11.571565714285713 5.180708571428571 11.571565714285713 11.571428571428571v0.4337142857142857c0 3.43416 -1.5255085714285714 6.690925714285713 -4.1637257142857145 8.88942857142857l-3.6018514285714285 3.001542857142857c-1.59696 1.330765714285714 -2.5202742857142852 3.302125714285714 -2.5202742857142852 5.3808v1.1516571428571427c0 3.5502857142857143 -2.878182857142857 6.428571428571428 -6.428571428571428 6.428571428571428 -1.1890285714285713 0 -2.2965942857142854 -0.3209142857142857 -3.2479885714285714 -0.8790857142857142 -1.020617142857143 -0.5993142857142857 -2.3336571428571427 -0.25748571428571426 -2.932765714285714 0.7631999999999999 -0.5990742857142857 1.0206857142857142 -0.2573485714285714 2.333485714285714 0.7632685714285714 2.9328 1.5912685714285713 0.933942857142857 3.445165714285714 1.4687999999999999 5.417485714285714 1.4687999999999999 5.917337142857142 0 10.714285714285714 -4.796914285714285 10.714285714285714 -10.714285714285714v-1.1516571428571427c0 -0.8067428571428571 0.3583885714285714 -1.572 0.9782057142857142 -2.0884114285714284l3.6018514285714285 -3.0015771428571427C37.76708571428571 28.031314285714288 39.85748571428571 23.56837714285714 39.85748571428571 18.862285714285715V18.428571428571427c0 -8.757668571428571 -7.0996114285714285 -15.857142857142856 -15.85728 -15.857142857142856 -8.088 0 -14.758902857142857 6.053348571428571 -15.734571428571428 13.877691428571426 -0.1464342857142857 1.1743885714285713 0.6868457142857143 2.2450971428571425 1.8612342857142856 2.3915657142857145 1.1743542857142857 0.1464342857142857 2.2450971428571425 -0.6868799999999999 2.391531428571428 -1.8612342857142856ZM4.389702857142857 33.75315428571429c-1.0042045714285714 -1.0041942857142856 -2.632344 -1.0041942857142856 -3.636548571428571 0 -1.0042056 1.0043314285714287 -1.0042056 2.632217142857143 0 3.636445714285714l5.142857142857142 5.142857142857142c1.0041942857142856 1.0042285714285712 2.6323542857142854 1.0042285714285712 3.636548571428571 0s1.0041942857142856 -2.6321142857142856 0 -3.636342857142857l-5.142857142857142 -5.1429599999999995Zm3.649165714285714 -3.8571428571428568c1.0041942857142856 -1.0041942857142856 2.6323542857142854 -1.0041942857142856 3.636548571428571 0l1.7142857142857142 1.7142857142857142c1.0041942857142856 1.0041942857142856 1.0041942857142856 2.6323542857142854 0 3.636445714285714 -1.0041942857142856 1.0042285714285712 -2.6323542857142854 1.0042285714285712 -3.636548571428571 0l-1.7142857142857142 -1.7141828571428572c-1.0041942857142856 -1.0041942857142856 -1.0041942857142856 -2.6323542857142854 0 -3.636548571428571Zm7.493691428571428 -7.285714285714286c-1.0041942857142856 -1.0041942857142856 -2.6323542857142854 -1.0041942857142856 -3.636548571428571 0s-1.0041942857142856 2.6323542857142854 0 3.636548571428571l5.142857142857142 5.142857142857142c1.0041942857142856 1.0041942857142856 2.6323542857142854 1.0041942857142856 3.636548571428571 0s1.0041942857142856 -2.6323542857142854 0 -3.636548571428571l-5.142857142857142 -5.142857142857142Zm4.921302857142857 -7.289417142857142c0.8323542857142857 -0.73464 1.9206171428571428 -1.178022857142857 3.1177028571428567 -1.178022857142857 2.6036228571428572 0 4.714285714285714 2.110662857142857 4.714285714285714 4.714285714285714 0 1.1970514285714284 -0.4433828571428571 2.2853485714285715 -1.178022857142857 3.1177028571428567 -0.7831542857142857 0.8872800000000001 -0.6987085714285713 2.2414285714285715 0.18857142857142856 3.024582857142857 0.8873142857142856 0.7831542857142857 2.241462857142857 0.6987085714285713 3.024582857142857 -0.18857142857142856 1.3992 -1.5852685714285712 2.250582857142857 -3.6726857142857137 2.250582857142857 -5.953714285714285 0 -4.970571428571429 -4.029462857142857 -9 -9 -9 -2.281062857142857 0 -4.368445714285714 0.8513828571428571 -5.953714285714285 2.2505485714285713 -0.8872800000000001 0.7831542857142857 -0.9717257142857143 2.137302857142857 -0.18857142857142856 3.024582857142857 0.7831199999999999 0.8873142857142856 2.1372685714285713 0.9717257142857143 3.024582857142857 0.1886057142857143Z" clip-rule="evenodd" stroke-width="3.4286"></path>
  </g>
</svg>