<svg xmlns="http://www.w3.org/2000/svg" fill="none" viewBox="0 0 48 48" id="Hearing-Deaf-1--Streamline-Core-Remix" height="48" width="48">
  <desc>
    Hearing Deaf 1 Streamline Icon: https://streamlinehq.com
  </desc>
  <g id="Free Remix/Map Travel/hearing-deaf-1--disability-hearing-deaf">
    <path id="Union" fill="#000000" fill-rule="evenodd" d="M13.056171428571428 10.025725714285715C15.413931428571427 7.047497142857143 19.056754285714288 5.142857142857142 23.14261714285714 5.142857142857142c7.0971085714285715 0 12.857039999999998 5.769702857142857 12.857039999999998 12.874217142857143 0 2.597622857142857 -1.0319999999999998 5.092937142857143 -2.867177142857143 6.927977142857142 -0.6881828571428571 0.6881485714285714 -1.6910742857142855 1.691965714285714 -2.5775314285714286 2.579417142857143l-17.498777142857143 -17.498742857142854ZM9.402411428571428 6.371965714285714C12.701691428571428 2.4774994285714285 17.632011428571428 0 23.14261714285714 0c9.944845714285714 0 17.999897142857144 8.079668571428572 17.999897142857144 18.017074285714283 0 3.9590742857142858 -1.572342857142857 7.763245714285714 -4.373485714285715 10.564525714285713 -0.6877714285714286 0.6878399999999999 -1.6909714285714286 1.6918971428571428 -2.5775314285714286 2.579417142857143l13.17216 13.172125714285714c0.8369142857142857 0.8369142857142857 0.8369142857142857 2.1936 0 3.0305142857142857 -0.8369142857142857 0.8369142857142857 -2.1936 0.8369142857142857 -3.0305142857142857 0L0.6359965714285714 3.666445714285714c-0.8368347428571429 -0.8368285714285714 -0.8368347428571429 -2.1936102857142856 0 -3.030445714285714 0.8368388571428571 -0.8368388571428571 2.193624 -0.8368388571428571 3.030449142857143 0l5.7359657142857134 5.7359657142857134Zm13.3116 1.7708914285714286c-1.4201485714285715 0 -2.571428571428571 1.1512799999999999 -2.571428571428571 2.571428571428571s1.1512799999999999 2.571428571428571 2.571428571428571 2.571428571428571c2.8403314285714285 0 5.142857142857142 2.3025257142857143 5.142857142857142 5.142857142857142 0 1.4201485714285715 1.1512799999999999 2.571428571428571 2.571428571428571 2.571428571428571s2.571428571428571 -1.1512799999999999 2.571428571428571 -2.571428571428571c0 -5.680628571428571 -4.605085714285714 -10.285714285714285 -10.285714285714285 -10.285714285714285Zm-14.142857142857142 25.285714285714285c1.1834742857142857 0 2.142857142857143 0.9593142857142857 2.142857142857143 2.142857142857143 0 4.497257142857143 3.6456685714285713 8.142857142857142 8.142857142857142 8.142857142857142 3.3067542857142858 0 6.157748571428572 -1.971428571428571 7.433177142857144 -4.811999999999999 0.4847314285714286 -1.0793142857142857 1.7529257142857142 -1.5617142857142856 2.832548571428571 -1.0769142857142857 1.0796571428571429 0.48479999999999995 1.5618857142857143 1.7530285714285712 1.0771199999999999 2.8326857142857143C28.25832 44.98182857142857 23.912399999999998 48 18.85686857142857 48c-6.864102857142857 0 -12.428571428571427 -5.564571428571428 -12.428571428571427 -12.428571428571427 0 -1.183542857142857 0.9593828571428571 -2.142857142857143 2.142857142857143 -2.142857142857143Z" clip-rule="evenodd" stroke-width="3.4286"></path>
  </g>
</svg>