<svg xmlns="http://www.w3.org/2000/svg" fill="none" viewBox="0 0 48 48" id="Help-Question-1--Streamline-Core-Remix" height="48" width="48">
  <desc>
    Help Question 1 Streamline Icon: https://streamlinehq.com
  </desc>
  <g id="Free Remix/Interface Essential/help-question-1--circle-faq-frame-help-info-mark-more-query-question">
    <path id="Union" fill="#000000" fill-rule="evenodd" d="M24.00061714285714 0.0016741062857142856C10.746377142857142 0.0016741062857142856 0.0016741062857142856 10.746377142857142 0.0016741062857142856 24.00061714285714c0 13.25424 10.744703036571428 23.999039999999997 23.99894303657143 23.999039999999997 13.25424 0 23.999039999999997 -10.7448 23.999039999999997 -23.999039999999997S37.25485714285714 0.0016741062857142856 24.00061714285714 0.0016741062857142856ZM4.287394285714286 24.00061714285714c0 -10.887325714285714 8.825897142857142 -19.713222857142856 19.713222857142856 -19.713222857142856 10.887154285714285 0 19.713325714285713 8.825897142857142 19.713325714285713 19.713222857142856 0 10.887497142857143 -8.826171428571428 19.713325714285713 -19.713325714285713 19.713325714285713 -10.887325714285714 0 -19.713222857142856 -8.82582857142857 -19.713222857142856 -19.713325714285713ZM24 14.142857142857142c-2.1302399999999997 0 -3.8571428571428568 1.726902857142857 -3.8571428571428568 3.8571428571428568 0 1.1834742857142857 -0.9593828571428571 2.142857142857143 -2.142857142857143 2.142857142857143s-2.142857142857143 -0.9593828571428571 -2.142857142857143 -2.142857142857143c0 -4.497188571428571 3.6456685714285713 -8.142857142857142 8.142857142857142 -8.142857142857142S32.14285714285714 13.502811428571428 32.14285714285714 18c0 3.755554285714285 -2.542422857142857 6.917314285714285 -6 7.857942857142857V27.428571428571427c0 1.1834742857142857 -0.9593828571428571 2.142857142857143 -2.142857142857143 2.142857142857143S21.857142857142858 28.61204571428571 21.857142857142858 27.428571428571427V24c0 -1.1834742857142857 0.9593828571428571 -2.142857142857143 2.142857142857143 -2.142857142857143 2.1302399999999997 0 3.8571428571428568 -1.726902857142857 3.8571428571428568 -3.8571428571428568S26.130239999999997 14.142857142857142 24 14.142857142857142Zm0 17.142857142857142c1.6568571428571428 0 3 1.343142857142857 3 3 0 1.6566857142857143 -1.343142857142857 3 -3 3s-3 -1.3433142857142857 -3 -3c0 -1.6568571428571428 1.343142857142857 -3 3 -3Z" clip-rule="evenodd" stroke-width="3.4286"></path>
  </g>
</svg>