<svg xmlns="http://www.w3.org/2000/svg" fill="none" viewBox="0 0 48 48" id="Help-Chat-2--Streamline-Core-Remix" height="48" width="48">
  <desc>
    Help Chat 2 Streamline Icon: https://streamlinehq.com
  </desc>
  <g id="Free Remix/Interface Essential/help-chat-2--bubble-help-mark-message-query-question-speech-circle">
    <path id="Union" fill="#000000" fill-rule="evenodd" d="M4.284068571428571 24.00051428571428c0 -10.889142857142858 8.827234285714285 -19.716479999999997 19.716102857142857 -19.716479999999997 10.888971428571427 0 19.716171428571425 8.827337142857143 19.716171428571425 19.716479999999997 0 10.888971428571427 -8.8272 19.716514285714286 -19.716171428571425 19.716514285714286 -3.2314971428571426 0 -6.275554285714286 -0.7758857142857143 -8.961977142857142 -2.1493714285714285 -0.4301828571428571 -0.22011428571428568 -0.9220457142857142 -0.288 -1.3958057142857143 -0.19337142857142856l-8.042468571428572 1.608342857142857 2.3407542857142856 -5.851885714285714c0.26554285714285714 -0.6637714285714286 0.18246857142857142 -1.4163428571428571 -0.22148571428571429 -2.0064 -2.167405714285714 -3.165497142857143 -3.43512 -6.9933942857142855 -3.43512 -11.123828571428572ZM24.000171428571427 -0.0016741062857142856C10.744285714285715 -0.0016741062857142856 -0.0016449771428571427 10.744491428571427 -0.0016449771428571427 24.00051428571428c0 4.6053942857142856 1.2990266914285713 8.912811428571429 3.5507649771428573 12.569657142857142l-3.397505142857143 8.493942857142857c-0.2920549714285714 0.7299428571428571 -0.16071075428571427 1.5613714285714286 0.34218857142857145 2.1661714285714284 0.502896 0.6044571428571429 1.2965417142857143 0.8849142857142857 2.0676651428571424 0.7306285714285714l11.209045714285715 -2.2416c3.105462857142857 1.4650285714285713 6.574697142857143 2.2834285714285714 10.229657142857143 2.2834285714285714 13.255714285714285 0 24.001885714285713 -10.746171428571428 24.001885714285713 -24.00222857142857 0 -13.256022857142856 -10.746171428571428 -24.002188391999997 -24.001885714285713 -24.002188391999997ZM23.999177142857143 37.285714285714285c-1.6568228571428572 0 -3 -1.3433142857142857 -3 -3 0 -1.6568571428571428 1.3431771428571428 -3 3 -3 1.6568571428571428 0 3 1.343142857142857 3 3 0 1.6566857142857143 -1.343142857142857 3 -3 3Zm-3.8571428571428568 -19.285714285714285c0 -2.1302399999999997 1.726902857142857 -3.8571428571428568 3.8571428571428568 -3.8571428571428568s3.8571428571428568 1.726902857142857 3.8571428571428568 3.8571428571428568 -1.726902857142857 3.8571428571428568 -3.8571428571428568 3.8571428571428568c-1.1834399999999998 0 -2.142857142857143 0.9593828571428571 -2.142857142857143 2.142857142857143v3.4285714285714284c0 1.1834742857142857 0.9594171428571429 2.142857142857143 2.142857142857143 2.142857142857143 1.1834742857142857 0 2.142857142857143 -0.9593828571428571 2.142857142857143 -2.142857142857143v-1.5706285714285713c3.4575771428571422 -0.9406285714285714 6 -4.1023885714285715 6 -7.857942857142857 0 -4.497188571428571 -3.6456685714285713 -8.142857142857142 -8.142857142857142 -8.142857142857142 -4.497154285714285 0 -8.142857142857142 3.6456685714285713 -8.142857142857142 8.142857142857142 0 1.1834742857142857 0.9594171428571429 2.142857142857143 2.142857142857143 2.142857142857143 1.1834742857142857 0 2.142857142857143 -0.9593828571428571 2.142857142857143 -2.142857142857143Z" clip-rule="evenodd" stroke-width="3.4286"></path>
  </g>
</svg>