<svg xmlns="http://www.w3.org/2000/svg" fill="none" viewBox="0 0 48 48" id="Hexagram--Streamline-Core-Remix" height="48" width="48">
  <desc>
    Hexagram Streamline Icon: https://streamlinehq.com
  </desc>
  <g id="Free Remix/Culture/hexagram--star-jew-jewish-judaism-hexagram-culture-religion-david">
    <path id="Union" fill="#000000" fill-rule="evenodd" d="M25.830274285714285 1.0218445714285715C25.439554285714287 0.3857314285714285 24.746537142857143 -0.0018833691428571428 24 -0.0018833691428571428c-0.7465371428571428 0 -1.43952 0.3876147977142857 -1.8302742857142857 1.0237279405714286L16.08672 10.9248H3.863965714285714c-0.7778742857142856 0 -1.4949599999999998 0.42054857142857144 -1.8746845714285714 1.09944 -0.37972114285714287 0.6788914285714285 -0.36273942857142855 1.5100114285714283 0.044399999999999995 2.1728228571428567L8.055188571428571 23.999862857142855 2.033681142857143 33.802662857142856c-0.40713942857142854 0.6627085714285713 -0.42412114285714286 1.4937942857142856 -0.044399999999999995 2.1729942857142857 0.3797245714285714 0.6788571428571428 1.0968102857142856 1.0992 1.8746845714285714 1.0992l12.222754285714286 0 6.083005714285714 9.903085714285714c0.3907542857142857 0.636 1.0837371428571427 1.0237714285714283 1.8302742857142857 1.0237714285714283 0.7465371428571428 0 1.4395542857142858 -0.38777142857142854 1.8302742857142857 -1.0237714285714283l6.08304 -9.903085714285714 12.222685714285713 0c0.777942857142857 0 1.4948571428571427 -0.42034285714285713 1.8747428571428568 -1.0992 0.3795428571428571 -0.6791999999999999 0.36274285714285714 -1.5102857142857142 -0.04457142857142857 -2.1729942857142857l-6.021257142857142 -9.8028 6.021257142857142 -9.8028c0.4073142857142857 -0.6628114285714285 0.4241142857142857 -1.4939314285714285 0.04457142857142857 -2.1728228571428567 -0.37988571428571427 -0.6788914285714285 -1.0968 -1.09944 -1.8747428571428568 -1.09944H31.913314285714282L25.830274285714285 1.0218445714285715ZM26.871565714285712 10.9248 24 6.250011428571429 21.12846857142857 10.9248h5.743097142857143ZM18.4896 15.220799999999999h11.020834285714285l5.392765714285714 8.779062857142858 -5.392765714285714 8.779062857142858H18.4896L13.096937142857142 23.999862857142855 18.4896 15.220799999999999Zm-5.041782857142857 0h-5.743542857142857l2.8717714285714284 4.675165714285714 2.8717714285714284 -4.675165714285714Zm-2.8717714285714284 12.882959999999999 -2.8717714285714284 4.675165714285714h5.743542857142857l-2.8717714285714284 -4.675165714285714Zm10.552422857142856 8.971097142857142L24 41.74971428571428l2.871531428571428 -4.674857142857142H21.12846857142857Zm13.423645714285714 -4.295897142857142h5.743542857142857l-2.8717714285714284 -4.675165714285714 -2.8717714285714284 4.675165714285714Zm2.8717714285714284 -12.882994285714286 -2.8717714285714284 -4.675165714285714h5.743542857142857l-2.8717714285714284 4.675165714285714Z" clip-rule="evenodd" stroke-width="3.4286"></path>
  </g>
</svg>