<svg xmlns="http://www.w3.org/2000/svg" fill="none" viewBox="0 0 48 48" id="Hierarchy-13--Streamline-Core-Remix" height="48" width="48">
  <desc>
    Hierarchy 13 Streamline Icon: https://streamlinehq.com
  </desc>
  <g id="Free Remix/Interface Essential/hierarchy-13--node-organization-links-structure-link-nodes-network-hierarchy">
    <path id="Union" fill="#000000" fill-rule="evenodd" d="M35.57142857142857 1.2857142857142856C33.44118857142857 1.2857142857142856 31.71428571428571 3.0126171428571427 31.71428571428571 5.142857142857142V13.714285714285714c0 2.1191657142857143 1.7090057142857142 3.839177142857143 3.823885714285714 3.857005714285714L33.69202285714286 23.57142857142857H29.142857142857142c-0.6351771428571429 0 -1.2344914285714286 0.15353142857142857 -1.7628685714285715 0.42551999999999995L22.71428571428571 20.179542857142856V12c0 -2.1302399999999997 -1.726902857142857 -3.8571428571428568 -3.8571428571428568 -3.8571428571428568H10.285714285714285c-2.1302399999999997 0 -3.8571428571428568 1.726902857142857 -3.8571428571428568 3.8571428571428568V20.57142857142857c0 1.9767428571428571 1.487005714285714 3.606205714285714 3.40344 3.830742857142857L7.9777371428571415 30.428571428571427H3.8571428571428568C1.726902857142857 30.428571428571427 0 32.155474285714284 0 34.285714285714285v8.571428571428571c0 2.1301714285714284 1.726902857142857 3.8571428571428568 3.8571428571428568 3.8571428571428568h8.571428571428571c2.1302399999999997 0 3.8571428571428568 -1.7269714285714286 3.8571428571428568 -3.8571428571428568V34.285714285714285c0 -2.1191999999999998 -1.70904 -3.8392114285714283 -3.824022857142857 -3.857005714285714L14.307908571428571 24.428571428571427H18.857142857142858c0.6350742857142857 0 1.2342857142857142 -0.15346285714285715 1.7625942857142858 -0.4253485714285714L25.285714285714285 27.820834285714284V36c0 2.1301714285714284 1.726902857142857 3.8571428571428568 3.8571428571428568 3.8571428571428568H37.714285714285715c2.1301714285714284 0 3.8571428571428568 -1.7269714285714286 3.8571428571428568 -3.8571428571428568V27.428571428571427c0 -1.9767771428571426 -1.4869714285714284 -3.6062399999999997 -3.403542857142857 -3.830742857142857l1.8541714285714284 -6.0264h4.1208C46.27302857142857 17.57142857142857 48 15.844525714285712 48 13.714285714285714V5.142857142857142c0 -2.1302399999999997 -1.7269714285714286 -3.8571428571428568 -3.8571428571428568 -3.8571428571428568h-8.571428571428571Zm-0.3452571428571428 26.57142857142857c0.03291428571428571 0.0007542857142857143 0.06582857142857142 0.0007542857142857143 0.09839999999999999 0h1.9611428571428569v7.7142857142857135h-7.7142857142857135v-7.7142857142857135h5.654742857142857Zm-25.615885714285714 6.857142857142857c-0.03267428571428571 0.0006857142857142857 -0.06548571428571427 0.0006857142857142857 -0.09833142857142857 0H4.285714285714286v7.7142857142857135H12v-7.7142857142857135h-2.3897142857142852Z" clip-rule="evenodd" stroke-width="3.4286"></path>
  </g>
</svg>