<svg xmlns="http://www.w3.org/2000/svg" fill="none" viewBox="0 0 48 48" id="Hierarchy-4--Streamline-Core-Remix" height="48" width="48">
  <desc>
    Hierarchy 4 Streamline Icon: https://streamlinehq.com
  </desc>
  <g id="Free Remix/Interface Essential/hierarchy-4--node-organization-links-structure-link-nodes-network-hierarchy">
    <path id="Union" fill="#000000" fill-rule="evenodd" d="M6.857142857142857 0C4.726902857142856 0 3 1.726902857142857 3 3.8571428571428568v10.285714285714285c0 2.1302399999999997 1.726902857142857 3.8571428571428568 3.8571428571428568 3.8571428571428568h3v12H6.857142857142857c-2.1302399999999997 0 -3.8571428571428568 1.726902857142857 -3.8571428571428568 3.8571428571428568v10.285714285714285C3 46.27302857142857 4.726902857142856 48 6.857142857142857 48h10.285714285714285c2.1302399999999997 0 3.8571428571428568 -1.7269714285714286 3.8571428571428568 -3.8571428571428568v-10.285714285714285c0 -2.1302399999999997 -1.726902857142857 -3.8571428571428568 -3.8571428571428568 -3.8571428571428568h-3V24.818125714285713c2.2524342857142856 1.9535314285714283 5.141691428571428 3.0390171428571424 8.142857142857142 3.0390171428571424h4.714285714285714V30.857142857142854c0 2.1302399999999997 1.726902857142857 3.8571428571428568 3.8571428571428568 3.8571428571428568h10.285714285714285c2.1301714285714284 0 3.8571428571428568 -1.726902857142857 3.8571428571428568 -3.8571428571428568V20.57142857142857c0 -2.1302399999999997 -1.7269714285714286 -3.8571428571428568 -3.8571428571428568 -3.8571428571428568H30.857142857142854c-2.1302399999999997 0 -3.8571428571428568 1.726902857142857 -3.8571428571428568 3.8571428571428568v3H22.285714285714285c-2.159622857142857 0 -4.230788571428572 -0.8578971428571428 -5.757874285714285 -2.384982857142857 -0.9032228571428571 -0.9032228571428571 -1.572342857142857 -1.9968 -1.9683085714285713 -3.186445714285714H17.142857142857142c2.1302399999999997 0 3.8571428571428568 -1.726902857142857 3.8571428571428568 -3.8571428571428568v-10.285714285714285C21 1.726902857142857 19.273097142857143 0 17.142857142857142 0H6.857142857142857Zm0.42857142857142855 34.285714285714285h9.428571428571429v9.428571428571429h-9.428571428571429V34.285714285714285Zm24 -3.8571428571428568v-9.428571428571429h9.428571428571429v9.428571428571429h-9.428571428571429Z" clip-rule="evenodd" stroke-width="3.4286"></path>
  </g>
</svg>