<svg xmlns="http://www.w3.org/2000/svg" fill="none" viewBox="0 0 48 48" id="Hierarchy-2--Streamline-Core-Remix" height="48" width="48">
  <desc>
    Hierarchy 2 Streamline Icon: https://streamlinehq.com
  </desc>
  <g id="Free Remix/Interface Essential/hierarchy-2--node-organization-links-structure-link-nodes-network-hierarchy">
    <path id="Union" fill="#000000" fill-rule="evenodd" d="M20.57142857142857 1.2857142857142856c-2.1302399999999997 0 -3.8571428571428568 1.726902857142857 -3.8571428571428568 3.8571428571428568v6.857142857142857c0 2.1302399999999997 1.726902857142857 3.8571428571428568 3.8571428571428568 3.8571428571428568h1.2857142857142856v6h-11.142857142857142c-1.477645714285714 0 -2.894742857142857 0.5870057142857142 -3.9395999999999995 1.6318285714285712C5.7298285714285715 24.53382857142857 5.142857142857142 25.950925714285713 5.142857142857142 27.428571428571427v4.714285714285714h-1.2857142857142856C1.726902857142857 32.14285714285714 0 33.86975999999999 0 36v6.857142857142857c0 2.1301714285714284 1.726902857142857 3.8571428571428568 3.8571428571428568 3.8571428571428568h6.857142857142857c2.1302399999999997 0 3.8571428571428568 -1.7269714285714286 3.8571428571428568 -3.8571428571428568v-6.857142857142857c0 -2.1302399999999997 -1.726902857142857 -3.8571428571428568 -3.8571428571428568 -3.8571428571428568H9.428571428571429V27.428571428571427c0 -0.3410057142857143 0.13546285714285713 -0.6680228571428571 0.37655999999999995 -0.9091199999999999 0.24113142857142858 -0.24113142857142858 0.5681485714285713 -0.37659428571428566 0.9091542857142857 -0.37659428571428566h11.142857142857142v6H20.57142857142857c-2.1302399999999997 0 -3.8571428571428568 1.726902857142857 -3.8571428571428568 3.8571428571428568v6.857142857142857c0 2.1301714285714284 1.726902857142857 3.8571428571428568 3.8571428571428568 3.8571428571428568h6.857142857142857c2.1302399999999997 0 3.8571428571428568 -1.7269714285714286 3.8571428571428568 -3.8571428571428568v-6.857142857142857c0 -2.1302399999999997 -1.726902857142857 -3.8571428571428568 -3.8571428571428568 -3.8571428571428568h-1.2857142857142856v-6h11.142857142857142c0.34114285714285714 0 0.6678857142857143 0.13546285714285713 0.9092571428571428 0.37659428571428566 0.24102857142857143 0.24109714285714282 0.3764571428571428 0.5681142857142857 0.3764571428571428 0.9091199999999999v4.714285714285714h-1.2857142857142856c-2.1301714285714284 0 -3.8571428571428568 1.726902857142857 -3.8571428571428568 3.8571428571428568v6.857142857142857c0 2.1301714285714284 1.7269714285714286 3.8571428571428568 3.8571428571428568 3.8571428571428568h6.857142857142857c2.1301714285714284 0 3.8571428571428568 -1.7269714285714286 3.8571428571428568 -3.8571428571428568v-6.857142857142857c0 -2.1302399999999997 -1.7269714285714286 -3.8571428571428568 -3.8571428571428568 -3.8571428571428568H42.857142857142854V27.428571428571427c0 -1.477645714285714 -0.5869714285714285 -2.894742857142857 -1.632 -3.9395999999999995 -1.0446857142857142 -1.044822857142857 -2.4617142857142853 -1.6318285714285712 -3.9394285714285715 -1.6318285714285712h-11.142857142857142v-6H27.428571428571427c2.1302399999999997 0 3.8571428571428568 -1.726902857142857 3.8571428571428568 -3.8571428571428568v-6.857142857142857C31.285714285714285 3.0126171428571427 29.55881142857143 1.2857142857142856 27.428571428571427 1.2857142857142856H20.57142857142857Zm3.4285714285714284 35.14285714285714h-3v6h6v-6H24Zm13.714285714285714 0h6v6H37.714285714285715v-6Zm-33.42857142857142 0H10.285714285714285v6H4.285714285714286v-6Z" clip-rule="evenodd" stroke-width="3.4286"></path>
  </g>
</svg>