<svg xmlns="http://www.w3.org/2000/svg" fill="none" viewBox="0 0 48 48" id="Hierarchy-14--Streamline-Core-Remix" height="48" width="48">
  <desc>
    Hierarchy 14 Streamline Icon: https://streamlinehq.com
  </desc>
  <g id="Free Remix/Interface Essential/hierarchy-14--node-organization-links-structure-link-nodes-network-hierarchy">
    <path id="Union" fill="#000000" fill-rule="evenodd" d="M12.428571428571427 5.142857142857142c0 -2.1302399999999997 1.726902857142857 -3.8571428571428568 3.8571428571428568 -3.8571428571428568h15.428571428571427c2.1302399999999997 0 3.8571428571428568 1.726902857142857 3.8571428571428568 3.8571428571428568v13.714285714285714c0 2.1302399999999997 -1.726902857142857 3.8571428571428568 -3.8571428571428568 3.8571428571428568H26.142857142857142v2.571428571428571h11.142857142857142c3.077142857142857 0 5.571428571428571 2.494422857142857 5.571428571428571 5.571428571428571v1.2857142857142856h1.2857142857142856c2.1301714285714284 0 3.8571428571428568 1.726902857142857 3.8571428571428568 3.8571428571428568v6.857142857142857c0 2.1301714285714284 -1.7269714285714286 3.8571428571428568 -3.8571428571428568 3.8571428571428568h-6.857142857142857c-2.1301714285714284 0 -3.8571428571428568 -1.7269714285714286 -3.8571428571428568 -3.8571428571428568v-6.857142857142857c0 -2.1302399999999997 1.7269714285714286 -3.8571428571428568 3.8571428571428568 -3.8571428571428568h1.2857142857142856V30.857142857142854c0 -0.7100914285714285 -0.5756571428571428 -1.2857142857142856 -1.2857142857142856 -1.2857142857142856h-11.142857142857142v2.571428571428571H27.428571428571427c2.1302399999999997 0 3.8571428571428568 1.726902857142857 3.8571428571428568 3.8571428571428568v6.857142857142857c0 2.1301714285714284 -1.726902857142857 3.8571428571428568 -3.8571428571428568 3.8571428571428568H20.57142857142857c-2.1302399999999997 0 -3.8571428571428568 -1.7269714285714286 -3.8571428571428568 -3.8571428571428568v-6.857142857142857c0 -2.1302399999999997 1.726902857142857 -3.8571428571428568 3.8571428571428568 -3.8571428571428568h1.2857142857142856v-2.571428571428571h-11.142857142857142c-0.7100914285714285 0 -1.2857142857142856 0.5756228571428571 -1.2857142857142856 1.2857142857142856v1.2857142857142856h1.2857142857142856c2.1302399999999997 0 3.8571428571428568 1.726902857142857 3.8571428571428568 3.8571428571428568v6.857142857142857c0 2.1301714285714284 -1.726902857142857 3.8571428571428568 -3.8571428571428568 3.8571428571428568h-6.857142857142857C1.726902857142857 46.71428571428571 0 44.987314285714284 0 42.857142857142854v-6.857142857142857c0 -2.1302399999999997 1.726902857142857 -3.8571428571428568 3.8571428571428568 -3.8571428571428568H5.142857142857142V30.857142857142854c0 -3.0770057142857143 2.494422857142857 -5.571428571428571 5.571428571428571 -5.571428571428571h11.142857142857142v-2.571428571428571H16.285714285714285c-2.1302399999999997 0 -3.8571428571428568 -1.726902857142857 -3.8571428571428568 -3.8571428571428568v-13.714285714285714Zm28.285714285714285 31.285714285714285H37.714285714285715v6h6v-6h-3Zm-19.71428571428571 0h6v6h-6v-6Zm-13.714285714285714 0H4.285714285714286v6H10.285714285714285v-6h-3Z" clip-rule="evenodd" stroke-width="3.4286"></path>
  </g>
</svg>