<svg xmlns="http://www.w3.org/2000/svg" fill="none" viewBox="0 0 48 48" id="Hierarchy-10--Streamline-Core-Remix" height="48" width="48">
  <desc>
    Hierarchy 10 Streamline Icon: https://streamlinehq.com
  </desc>
  <g id="Free Remix/Interface Essential/hierarchy-10--node-organization-links-structure-link-nodes-network-hierarchy">
    <path id="Union" fill="#000000" fill-rule="evenodd" d="M7.285714285714286 43.714285714285715V34.285714285714285h9.428571428571429v9.428571428571429h-9.428571428571429ZM17.142857142857142 30h-2.583325714285714c0.39596571428571425 -1.1896457142857142 1.0650857142857142 -2.283222857142857 1.9683085714285713 -3.186445714285714C18.054925714285712 25.286468571428568 20.126091428571428 24.428571428571427 22.285714285714285 24.428571428571427h4.714285714285714V27.428571428571427c0 2.1302399999999997 1.726902857142857 3.8571428571428568 3.8571428571428568 3.8571428571428568h10.285714285714285c2.1301714285714284 0 3.8571428571428568 -1.726902857142857 3.8571428571428568 -3.8571428571428568V17.142857142857142c0 -2.1302399999999997 -1.7269714285714286 -3.8571428571428568 -3.8571428571428568 -3.8571428571428568H30.857142857142854c-2.1302399999999997 0 -3.8571428571428568 1.726902857142857 -3.8571428571428568 3.8571428571428568v3H22.285714285714285c-3.001165714285714 0 -5.890422857142857 1.0854857142857142 -8.142857142857142 3.0390171428571424V18H17.142857142857142c2.1302399999999997 0 3.8571428571428568 -1.726902857142857 3.8571428571428568 -3.8571428571428568v-10.285714285714285C21 1.7268994285714285 19.273097142857143 0 17.142857142857142 0H6.857142857142857C4.726902857142856 0 3 1.7268994285714285 3 3.8571428571428568v10.285714285714285c0 2.1302399999999997 1.726902857142857 3.8571428571428568 3.8571428571428568 3.8571428571428568h3v12H6.857142857142857c-2.1302399999999997 0 -3.8571428571428568 1.726902857142857 -3.8571428571428568 3.8571428571428568v10.285714285714285C3 46.27302857142857 4.726902857142856 48 6.857142857142857 48h10.285714285714285c2.1302399999999997 0 3.8571428571428568 -1.7269714285714286 3.8571428571428568 -3.8571428571428568v-10.285714285714285c0 -2.1302399999999997 -1.726902857142857 -3.8571428571428568 -3.8571428571428568 -3.8571428571428568ZM12 13.714285714285714H7.285714285714286V4.285714285714286h9.428571428571429V13.714285714285714H12Z" clip-rule="evenodd" stroke-width="3.4286"></path>
  </g>
</svg>