<svg xmlns="http://www.w3.org/2000/svg" fill="none" viewBox="0 0 48 48" id="Hierarchy-7--Streamline-Core-Remix" height="48" width="48">
  <desc>
    Hierarchy 7 Streamline Icon: https://streamlinehq.com
  </desc>
  <g id="Free Remix/Interface Essential/hierarchy-7--node-organization-links-structure-link-nodes-network-hierarchy">
    <path id="Union" fill="#000000" fill-rule="evenodd" d="M30.656022857142858 0.7734c0.6405942857142857 0.2653371428571428 1.058262857142857 0.8904274285714285 1.058262857142857 1.5837942857142857V7.071462857142857h3.4285714285714284c3.077142857142857 0 5.571428571428571 2.494422857142857 5.571428571428571 5.571428571428571v16.71428571428571h3c2.1301714285714284 0 3.8571428571428568 1.726902857142857 3.8571428571428568 3.8571428571428568v10.28568c0 2.1301714285714284 -1.7269714285714286 3.8571428571428568 -3.8571428571428568 3.8571428571428568h-10.285714285714285c-2.1302399999999997 0 -3.8571428571428568 -1.7269714285714286 -3.8571428571428568 -3.8571428571428568V33.214319999999994c0 -2.1302399999999997 1.726902857142857 -3.8571428571428568 3.8571428571428568 -3.8571428571428568h3v-16.71428571428571c0 -0.7100571428571428 -0.5756571428571428 -1.2857142857142856 -1.2857142857142856 -1.2857142857142856h-3.4285714285714284v4.714285714285714c0 0.6933942857142857 -0.4176685714285714 1.3184571428571428 -1.058262857142857 1.5837942857142857 -0.6405942857142857 0.26537142857142854 -1.3779085714285715 0.11869714285714285 -1.8681942857142855 -0.37158857142857143l-6.857142857142857 -6.857142857142857c-0.6694971428571428 -0.669462857142857 -0.6694971428571428 -1.7549142857142856 0 -2.424377142857143l6.857142857142857 -6.857139428571428c0.4902857142857142 -0.49028228571428567 1.2275999999999998 -0.6369497142857142 1.8681942857142855 -0.3716091428571428ZM9.428571428571429 15.642891428571426l4.714285714285714 0v-9.428571428571429h-9.428571428571429v9.428571428571429l4.714285714285714 0Zm0 18.000034285714282 0.0037714285714285714 -0.00003428571428571428H14.142857142857142v9.428537142857142h-9.428571428571429V33.642891428571424h4.710514285714285l0.0037714285714285714 0.00003428571428571428Zm2.142857142857143 -4.285748571428571v-9.428571428571429h3c2.1302399999999997 0 3.8571428571428568 -1.7268685714285712 3.8571428571428568 -3.8571428571428568v-10.285714285714285c0 -2.1302399999999997 -1.726902857142857 -3.857125714285714 -3.8571428571428568 -3.857125714285714h-10.285714285714285c-2.1302399999999997 0 -3.8571428571428568 1.7268857142857141 -3.8571428571428568 3.857125714285714v10.285714285714285c0 2.1302742857142856 1.726902857142857 3.8571428571428568 3.8571428571428568 3.8571428571428568h3v9.428571428571429H4.285714285714286c-2.1302399999999997 0 -3.8571428571428568 1.726902857142857 -3.8571428571428568 3.8571428571428568v10.28568c0 2.1301714285714284 1.726902857142857 3.8571428571428568 3.8571428571428568 3.8571428571428568h10.285714285714285c2.1302399999999997 0 3.8571428571428568 -1.7269714285714286 3.8571428571428568 -3.8571428571428568V33.214319999999994c0 -2.1302399999999997 -1.726902857142857 -3.8571428571428568 -3.8571428571428568 -3.8571428571428568h-3Z" clip-rule="evenodd" stroke-width="3.4286"></path>
  </g>
</svg>