<svg xmlns="http://www.w3.org/2000/svg" fill="none" viewBox="0 0 48 48" id="High-Speed-Train-Front--Streamline-Core-Remix" height="48" width="48">
  <desc>
    High Speed Train Front Streamline Icon: https://streamlinehq.com
  </desc>
  <g id="Free Remix/Map Travel/high-speed-train-front">
    <path id="Union" fill="#000000" fill-rule="evenodd" d="M10.19304 3.5580685714285716C14.310925714285712 0.8935508571428571 19.486457142857144 0 24 0c4.513542857142856 0 9.689074285714286 0.8935508571428571 13.806857142857142 3.5580685714285716 4.247657142857142 2.7484114285714285 7.193142857142856 7.279885714285713 7.193142857142856 14.013359999999999 0 6.3673714285714285 -1.8102857142857143 13.114422857142856 -5.288571428571428 18.331542857142857C36.2136 41.15005714285714 30.899725714285715 45 24 45c-6.899725714285714 0 -12.213531428571427 -3.849942857142857 -15.711531428571428 -9.097028571428572C4.810422857142857 30.685851428571425 3 23.938799999999997 3 17.57142857142857c0 -6.733474285714285 2.945485714285714 -11.26494857142857 7.19304 -14.013359999999999Zm2.328205714285714 3.5981485714285713C9.483085714285712 9.122091428571428 7.285714285714286 12.304902857142856 7.285714285714286 17.57142857142857c0 5.632628571428571 1.6181485714285713 11.528434285714285 4.568674285714286 15.954205714285715 0.31477714285714287 0.4721828571428571 0.6431999999999999 0.92568 0.9850628571428571 1.3593942857142858C15.327188571428572 31.408594285714287 19.398994285714284 29.142857142857142 24 29.142857142857142s8.672811428571428 2.2657371428571427 11.160685714285714 5.742171428571428c0.3418285714285714 -0.4337142857142857 0.6702857142857143 -0.8872457142857143 0.9850285714285714 -1.3593942857142858 2.950285714285714 -4.425771428571428 4.5685714285714285 -10.321577142857143 4.5685714285714285 -15.954205714285715 0 -5.266525714285714 -2.1973714285714285 -8.449337142857141 -5.235428571428571 -10.415211428571428C32.310925714285716 5.106445714285714 28.057885714285714 4.285714285714286 24 4.285714285714286c-4.057885714285715 0 -8.310925714285714 0.8207314285714286 -11.478754285714285 2.8705028571428572ZM12 17.142857142857142c0 2.8403314285714285 2.3025257142857143 5.142857142857142 5.142857142857142 5.142857142857142h13.714285714285714c2.8403314285714285 0 5.142857142857142 -2.3025257142857143 5.142857142857142 -5.142857142857142S33.697474285714286 12 30.857142857142854 12H17.142857142857142c-2.8403314285714285 0 -5.142857142857142 2.3025257142857143 -5.142857142857142 5.142857142857142Zm-4.056205714285714 22.913485714285713c0.8368457142857142 0.8365714285714285 0.8368457142857142 2.1936 0 3.0301714285714283l-4.285714285714286 4.285714285714286c-0.8368319999999999 0.8369142857142857 -2.193613714285714 0.8369142857142857 -3.030452571428571 0 -0.8368367999999999 -0.8365714285714285 -0.8368367999999999 -2.1936 0 -3.0301714285714283l4.285721142857143 -4.285714285714286c0.8368457142857142 -0.8369142857142857 2.1936 -0.8369142857142857 3.030445714285714 0Zm35.14272 0c-0.8365714285714285 -0.8369142857142857 -2.1936 -0.8369142857142857 -3.0301714285714283 0 -0.8369142857142857 0.8365714285714285 -0.8369142857142857 2.1936 0 3.0301714285714283l4.285714285714286 4.285714285714286c0.8365714285714285 0.8369142857142857 2.1936 0.8369142857142857 3.0301714285714283 0 0.8369142857142857 -0.8365714285714285 0.8369142857142857 -2.1936 0 -3.0301714285714283l-4.285714285714286 -4.285714285714286Z" clip-rule="evenodd" stroke-width="3.4286"></path>
  </g>
</svg>