<svg xmlns="http://www.w3.org/2000/svg" fill="none" viewBox="0 0 48 48" id="Hinduism--Streamline-Core-Remix" height="48" width="48">
  <desc>
    Hinduism Streamline Icon: https://streamlinehq.com
  </desc>
  <g id="Free Remix/Culture/hinduism--religion-hinduism-culture-hindu">
    <path id="Union" fill="#000000" fill-rule="evenodd" d="M9.96750857142857 7.172537142857142c1.314582857142857 -1.0050514285714285 2.954228571428571 -1.6011085714285713 4.739177142857143 -1.6011085714285713 4.314411428571428 0 7.8119314285714285 3.49752 7.8119314285714285 7.8119314285714285 0 1.3502399999999999 -0.34117714285714285 2.6178514285714285 -0.9427885714285714 3.724422857142857 -1.5823542857142856 -0.5566971428571428 -3.2843657142857143 -0.859542857142857 -5.0571085714285715 -0.859542857142857 -1.1834742857142857 0 -2.142857142857143 0.9594171428571429 -2.142857142857143 2.142857142857143 0 1.1834742857142857 0.9593828571428571 2.142857142857143 2.142857142857143 2.142857142857143 6.046011428571428 0 10.947291428571427 4.90128 10.947291428571427 10.947291428571427 0 6.046182857142857 -4.90128 10.947325714285713 -10.947291428571427 10.947325714285713 -6.046011428571428 0 -10.947291428571427 -4.901142857142857 -10.947291428571427 -10.947325714285713 0 -1.1834399999999998 -0.9593828571428571 -2.142857142857143 -2.142857142857143 -2.142857142857143 -1.1834674285714284 0 -2.142857142857143 0.9594171428571429 -2.142857142857143 2.142857142857143 0 8.412925714285715 6.820045714285714 15.233039999999999 15.233005714285714 15.233039999999999s15.233005714285714 -6.820114285714285 15.233005714285714 -15.233039999999999c0 -2.788045714285714 -0.7490057142857142 -5.401165714285714 -2.0568 -7.649074285714286 0.06853714285714285 -0.017005714285714284 0.13878857142857143 -0.03353142857142857 0.21082285714285715 -0.049474285714285714 0.9613371428571427 -0.21311999999999998 2.001325714285714 -0.27713142857142853 2.842628571428571 -0.20746285714285714 4.94568 0.4095771428571428 8.622822857142857 4.750765714285714 8.213108571428572 9.696377142857143 -0.15565714285714286 1.8818742857142858 -0.8780571428571428 3.574217142857143 -1.9851428571428569 4.931588571428571 -0.7481142857142857 0.9171428571428571 -0.6113142857142856 2.2669714285714284 0.30548571428571425 3.015085714285714 0.9171428571428571 0.7481142857142857 2.2669714285714284 0.6113142857142856 3.015085714285714 -0.3058285714285714 1.6374857142857142 -2.007085714285714 2.7061714285714285 -4.515085714285714 2.935885714285714 -7.287154285714285 0.6048 -7.304434285714285 -4.8264 -13.716239999999999 -12.130731428571428 -14.321142857142855 -1.281977142857143 -0.10618285714285713 -2.7538285714285715 -0.009325714285714286 -4.123885714285715 0.29437714285714284 -0.69216 0.15346285714285715 -1.4271085714285714 0.3748114285714286 -2.126982857142857 0.6895885714285714 -0.46535999999999994 -0.42980571428571424 -0.9575999999999999 -0.8309485714285714 -1.4739085714285713 -1.2006514285714285 0.9102857142857143 -1.6998857142857142 1.4270399999999999 -3.6430971428571426 1.4270399999999999 -5.704114285714286C26.804331428571427 6.702 21.388011428571428 1.2857142857142856 14.706685714285715 1.2857142857142856c-2.7581828571428573 0 -5.306297142857143 0.9256422857142858 -7.342148571428571 2.4821142857142857 -0.9401828571428572 0.7188 -1.1196685714285715 2.0636571428571426 -0.4008685714285714 3.00384 0.7188 0.9401828571428572 2.0636571428571426 1.1196342857142858 3.00384 0.4008685714285714Zm36.11934857142857 2.854148571428571c0.8369142857142857 0.8368457142857142 0.8369142857142857 2.1936342857142854 0 3.030445714285714 -4.112914285714285 4.1127771428571425 -10.7808 4.1127771428571425 -14.893577142857142 0 -0.8368457142857142 -0.8368114285714285 -0.8368457142857142 -2.1936 0 -3.030445714285714 0.8368457142857142 -0.8368457142857142 2.1936 -0.8368457142857142 3.030445714285714 0 2.4390171428571428 2.439085714285714 6.393531428571428 2.439085714285714 8.832617142857142 0 0.8369142857142857 -0.8368457142857142 2.1936 -0.8368457142857142 3.0305142857142857 0ZM35.63999999999999 4.285714285714286c0 1.6568571428571428 1.3433142857142857 3 3 3 1.6570285714285713 0 3 -1.343142857142857 3 -3 0 -1.656853714285714 -1.3429714285714285 -3 -3 -3 -1.6566857142857143 0 -3 1.3431462857142857 -3 3Z" clip-rule="evenodd" stroke-width="3.4286"></path>
  </g>
</svg>