<svg xmlns="http://www.w3.org/2000/svg" fill="none" viewBox="0 0 48 48" id="Home-3--Streamline-Core-Remix" height="48" width="48">
  <desc>
    Home 3 Streamline Icon: https://streamlinehq.com
  </desc>
  <g id="Free Remix/Interface Essential/home-3--home-house-roof-shelter">
    <path id="Union" fill="#000000" fill-rule="evenodd" d="M25.447988571428567 1.8489565714285712c-0.8192571428571428 -0.7509908571428572 -2.07672 -0.7509908571428572 -2.8959771428571424 0L3.0923897142857144 19.68696C1.9411714285714283 20.74224 1.2857142857142856 22.23222857142857 1.2857142857142856 23.793942857142856V41.14285714285714c0 3.077142857142857 2.494422857142857 5.571428571428571 5.571428571428571 5.571428571428571h34.285714285714285c3.077142857142857 0 5.571428571428571 -2.494285714285714 5.571428571428571 -5.571428571428571V23.793942857142856c0 -1.5617142857142856 -0.6555428571428571 -3.051702857142857 -1.8065142857142857 -4.106982857142857L25.447988571428567 1.8489565714285712ZM5.9883428571428565 22.846182857142857 24 6.33552l18.011657142857143 16.510662857142858c0.2657142857142857 0.24353142857142854 0.4169142857142857 0.5873828571428571 0.4169142857142857 0.9477599999999999V41.14285714285714c0 0.7100571428571428 -0.5756571428571428 1.2857142857142856 -1.2857142857142856 1.2857142857142856H27.428571428571427V30.857142857142854c0 -1.893565714285714 -1.53504 -3.4285714285714284 -3.4285714285714284 -3.4285714285714284s-3.4285714285714284 1.535005714285714 -3.4285714285714284 3.4285714285714284v11.571428571428571H6.857142857142857c-0.7100914285714285 0 -1.2857142857142856 -0.5756571428571428 -1.2857142857142856 -1.2857142857142856V23.793942857142856c0 -0.36037714285714284 0.15126857142857142 -0.7042285714285714 0.4169142857142857 -0.9477599999999999Z" clip-rule="evenodd" stroke-width="3.4286"></path>
  </g>
</svg>