<svg xmlns="http://www.w3.org/2000/svg" fill="none" viewBox="0 0 48 48" id="Home-4--Streamline-Core-Remix" height="48" width="48">
  <desc>
    Home 4 Streamline Icon: https://streamlinehq.com
  </desc>
  <g id="Free Remix/Interface Essential/home-4--home-house-roof-shelter">
    <path id="Union" fill="#000000" fill-rule="evenodd" d="M26.12132571428571 3.0215382857142856c-1.1715771428571429 -1.171573714285714 -3.0710742857142854 -1.171573714285714 -4.2426514285714285 0L0.9824742857142856 23.917748571428568c-1.1715726857142856 1.1715771428571429 -1.1715726857142856 3.0710742857142854 0 4.2426514285714285 1.171573714285714 1.171542857142857 3.0710571428571427 1.171542857142857 4.242634285714286 0l1.4997942857142856 -1.4997942857142856v17.186022857142856c0 1.183542857142857 0.9593828571428571 2.142857142857143 2.142857142857143 2.142857142857143h30.26355428571428c1.183542857142857 0 2.142857142857143 -0.9593142857142857 2.142857142857143 -2.142857142857143V26.659851428571425l1.5006857142857142 1.5005485714285713c1.171542857142857 1.171542857142857 3.0709714285714287 1.171542857142857 4.242514285714286 0 1.1718857142857142 -1.1715771428571429 1.1718857142857142 -3.0710742857142854 0 -4.2426514285714285L26.12132571428571 3.0215382857142856ZM36.988457142857136 22.37413714285714 24 9.38550857142857 11.010617142857143 22.374891428571427v19.32888h25.97784V22.37413714285714Z" clip-rule="evenodd" stroke-width="3.4286"></path>
  </g>
</svg>