<svg xmlns="http://www.w3.org/2000/svg" fill="none" viewBox="0 0 48 48" id="Horizontal-Menu-Circle--Streamline-Core-Remix" height="48" width="48">
  <desc>
    Horizontal Menu Circle Streamline Icon: https://streamlinehq.com
  </desc>
  <g id="Free Remix/Interface Essential/horizontal-menu-circle--navigation-dots-three-circle-button-horizontal-menu">
    <path id="Union" fill="#000000" fill-rule="evenodd" d="M24.00061714285714 0.0016741062857142856C10.746377142857142 0.0016741062857142856 0.0016741062857142856 10.746377142857142 0.0016741062857142856 24.00061714285714c0 13.25424 10.744703036571428 23.999039999999997 23.99894303657143 23.999039999999997 13.25424 0 23.999039999999997 -10.7448 23.999039999999997 -23.999039999999997S37.25485714285714 0.0016741062857142856 24.00061714285714 0.0016741062857142856ZM4.287394285714286 24.00061714285714c0 -10.887325714285714 8.825897142857142 -19.713222857142856 19.713222857142856 -19.713222857142856 10.887154285714285 0 19.713325714285713 8.825897142857142 19.713325714285713 19.713222857142856 0 10.887497142857143 -8.826171428571428 19.713325714285713 -19.713325714285713 19.713325714285713 -10.887325714285714 0 -19.713222857142856 -8.82582857142857 -19.713222857142856 -19.713325714285713ZM16.71428571428571 24c0 -2.1302399999999997 -1.726902857142857 -3.8571428571428568 -3.8571428571428568 -3.8571428571428568S9 21.86976 9 24s1.726902857142857 3.8571428571428568 3.8571428571428568 3.8571428571428568S16.71428571428571 26.130239999999997 16.71428571428571 24ZM24 27.857142857142854c-2.1302399999999997 0 -3.8571428571428568 -1.726902857142857 -3.8571428571428568 -3.8571428571428568S21.86976 20.142857142857142 24 20.142857142857142 27.857142857142854 21.86976 27.857142857142854 24 26.130239999999997 27.857142857142854 24 27.857142857142854Zm11.142857142857142 0c-2.1302399999999997 0 -3.8571428571428568 -1.726902857142857 -3.8571428571428568 -3.8571428571428568s1.726902857142857 -3.8571428571428568 3.8571428571428568 -3.8571428571428568c2.1301714285714284 0 3.8571428571428568 1.726902857142857 3.8571428571428568 3.8571428571428568s-1.7269714285714286 3.8571428571428568 -3.8571428571428568 3.8571428571428568Z" clip-rule="evenodd" stroke-width="3.4286"></path>
  </g>
</svg>