<svg xmlns="http://www.w3.org/2000/svg" fill="none" viewBox="0 0 48 48" id="Hospital-Sign-Square--Streamline-Core-Remix" height="48" width="48">
  <desc>
    Hospital Sign Square Streamline Icon: https://streamlinehq.com
  </desc>
  <g id="Free Remix/Health/hospital-sign-square--health-sign-medical-symbol-hospital-square-emergency">
    <path id="Union" fill="#000000" fill-rule="evenodd" d="M7.285714285714286 1.7142857142857142C4.208708571428572 1.7142857142857142 1.7142857142857142 4.208708571428572 1.7142857142857142 7.285714285714286v33.42857142857142c0 3.077142857142857 2.494422857142857 5.571428571428571 5.571428571428571 5.571428571428571h33.42857142857142c3.077142857142857 0 5.571428571428571 -2.494285714285714 5.571428571428571 -5.571428571428571v-33.42857142857142C46.285714285714285 4.208708571428572 43.791428571428575 1.7142857142857142 40.714285714285715 1.7142857142857142h-33.42857142857142ZM6 7.285714285714286c0 -0.7100914285714285 0.5756228571428571 -1.2857142857142856 1.2857142857142856 -1.2857142857142856h33.42857142857142c0.7100571428571428 0 1.2857142857142856 0.5756228571428571 1.2857142857142856 1.2857142857142856v33.42857142857142c0 0.7100571428571428 -0.5756571428571428 1.2857142857142856 -1.2857142857142856 1.2857142857142856h-33.42857142857142c-0.7100914285714285 0 -1.2857142857142856 -0.5756571428571428 -1.2857142857142856 -1.2857142857142856v-33.42857142857142ZM20.142857142857142 15.428571428571427c0 -1.6568571428571428 -1.343142857142857 -3 -3 -3s-3 1.343142857142857 -3 3v17.142857142857142c0 1.6568571428571428 1.343142857142857 3 3 3s3 -1.343142857142857 3 -3V27h7.7142857142857135V32.57142857142857c0 1.6568571428571428 1.343142857142857 3 3 3s3 -1.343142857142857 3 -3v-17.142857142857142c0 -1.6568571428571428 -1.343142857142857 -3 -3 -3s-3 1.343142857142857 -3 3v5.571428571428571h-7.7142857142857135V15.428571428571427Z" clip-rule="evenodd" stroke-width="3.4286"></path>
  </g>
</svg>