<svg xmlns="http://www.w3.org/2000/svg" fill="none" viewBox="0 0 48 48" id="Hospital-Sign-Circle--Streamline-Core-Remix" height="48" width="48">
  <desc>
    Hospital Sign Circle Streamline Icon: https://streamlinehq.com
  </desc>
  <g id="Free Remix/Health/hospital-sign-circle--health-sign-medical-symbol-hospital-circle-emergency">
    <path id="Union" fill="#000000" fill-rule="evenodd" d="M4.285714285714286 24c0 -10.887908571428571 8.826377142857142 -19.71428571428571 19.71428571428571 -19.71428571428571 10.887771428571428 0 19.71428571428571 8.826377142857142 19.71428571428571 19.71428571428571 0 10.887771428571428 -8.826514285714284 19.71428571428571 -19.71428571428571 19.71428571428571 -10.887908571428571 0 -19.71428571428571 -8.826514285714284 -19.71428571428571 -19.71428571428571ZM24 0C10.745177142857143 0 0 10.745177142857143 0 24c0 13.254857142857142 10.745177142857143 24 24 24 13.254857142857142 0 24 -10.745142857142856 24 -24 0 -13.254822857142857 -10.745142857142856 -24 -24 -24ZM20.142857142857142 15.428571428571427c0 -1.6568571428571428 -1.343142857142857 -3 -3 -3s-3 1.343142857142857 -3 3v17.142857142857142c0 1.6568571428571428 1.343142857142857 3 3 3s3 -1.343142857142857 3 -3V27h7.7142857142857135V32.57142857142857c0 1.6568571428571428 1.343142857142857 3 3 3s3 -1.343142857142857 3 -3v-17.142857142857142c0 -1.6568571428571428 -1.343142857142857 -3 -3 -3s-3 1.343142857142857 -3 3v5.571428571428571h-7.7142857142857135V15.428571428571427Z" clip-rule="evenodd" stroke-width="3.4286"></path>
  </g>
</svg>