<svg xmlns="http://www.w3.org/2000/svg" fill="none" viewBox="0 0 48 48" id="Hot-Spring--Streamline-Core-Remix" height="48" width="48">
  <desc>
    Hot Spring Streamline Icon: https://streamlinehq.com
  </desc>
  <g id="Free Remix/Map Travel/hot-spring--relax-location-outdoor-recreation-spa-travel-places">
    <path id="Union" fill="#000000" fill-rule="evenodd" d="M24.53557714285714 6.481577142857143c0.739302857142857 -0.9241371428571428 0.5894742857142857 -2.2726285714285717 -0.33462857142857144 -3.0119314285714287 -0.9241371428571428 -0.7393062857142856 -2.2726285714285717 -0.5894742857142857 -3.0119314285714287 0.33466285714285715 -4.187108571428571 5.233851428571429 -2.075005714285714 11.027382857142857 -0.4637828571428571 15.446914285714286l0.12322285714285713 0.3382971428571428c1.8069942857142856 4.9692 2.9028685714285714 8.440422857142858 0.34056 11.64336 -0.739302857142857 0.9241371428571428 -0.5894742857142857 2.2726285714285717 0.33466285714285715 3.0119314285714287s2.2725942857142853 0.5894742857142857 3.0118971428571424 -0.33466285714285715c4.187108571428571 -5.233885714285714 2.075005714285714 -11.027417142857143 0.4638171428571429 -15.446914285714286l-0.12325714285714286 -0.33833142857142856c-1.80696 -4.9692 -2.9028685714285714 -8.440422857142858 -0.34056 -11.643325714285714Zm-9.428571428571429 3.4285714285714284c0.739302857142857 -0.9241371428571428 0.5894742857142857 -2.2726285714285717 -0.33466285714285715 -3.0119314285714287 -0.9241028571428571 -0.739302857142857 -2.2725942857142853 -0.5894742857142857 -3.0118971428571424 0.33466285714285715 -2.0103085714285713 2.5128685714285712 -2.6819657142857145 4.901828571428571 -2.380525714285714 7.237851428571428 0.26927999999999996 2.0867999999999998 1.3107771428571426 3.9071657142857146 2.114948571428571 5.3126742857142855l0.07834285714285713 0.13697142857142855c0.90096 1.576662857142857 1.5133714285714286 2.7055885714285712 1.6638514285714285 3.8717828571428567 0.12716571428571427 0.9854057142857142 -0.05835428571428571 2.239302857142857 -1.4766171428571429 4.012148571428571 -0.739302857142857 0.9241371428571428 -0.5894742857142857 2.2725942857142853 0.33466285714285715 3.0119314285714287 0.9241371428571428 0.739302857142857 2.2726285714285717 0.5894742857142857 3.0119314285714287 -0.33466285714285715 2.0103085714285713 -2.512902857142857 2.681931428571428 -4.901828571428571 2.380525714285714 -7.237851428571428 -0.26927999999999996 -2.0867999999999998 -1.3108114285714285 -3.9071657142857146 -2.114982857142857 -5.3126742857142855l0 -0.00003428571428571428 -0.07834285714285713 -0.13693714285714287c-0.9009257142857142 -1.576662857142857 -1.5133714285714286 -2.7056228571428567 -1.6638514285714285 -3.8717828571428567 -0.12713142857142856 -0.9854057142857142 0.05835428571428571 -2.239337142857143 1.4766171428571429 -4.012148571428571Zm18.522514285714283 -3.0119314285714287c0.9239657142857143 0.739302857142857 1.0737942857142857 2.0877942857142857 0.33466285714285715 3.0119314285714287 -1.4182971428571427 1.7728457142857141 -1.6037828571428572 3.026742857142857 -1.4766514285714285 4.012148571428571 0.15047999999999997 1.1661942857142857 0.7628914285714286 2.29512 1.6638514285714285 3.8717828571428567l0.07830857142857142 0.13697142857142855c0.8041371428571428 1.4055085714285716 1.845737142857143 3.2258742857142857 2.11488 5.3126742857142855 0.30137142857142857 2.336022857142857 -0.3702857142857143 4.724982857142857 -2.380457142857143 7.237851428571428 -0.739302857142857 0.9241371428571428 -2.0877942857142857 1.0739657142857142 -3.0119314285714287 0.33466285714285715 -0.9241371428571428 -0.7393371428571428 -1.0739657142857142 -2.0877942857142857 -0.33466285714285715 -3.0119314285714287 1.4182971428571427 -1.7728457142857141 1.6037828571428572 -3.026742857142857 1.4766514285714285 -4.012148571428571 -0.15047999999999997 -1.1661942857142857 -0.7628914285714286 -2.2951542857142857 -1.6638514285714285 -3.8717828571428567l-0.07830857142857142 -0.13697142857142855c-0.8041714285714285 -1.4055085714285716 -1.8457028571428569 -3.2258742857142857 -2.114948571428571 -5.3126742857142855 -0.3014057142857143 -2.336022857142857 0.37021714285714286 -4.724982857142857 2.380525714285714 -7.237851428571428 0.739302857142857 -0.9241371428571428 2.0877942857142857 -1.0739657142857142 3.0119314285714287 -0.33466285714285715Zm-25.03782857142857 19.956239999999998c1.3115314285714283 -1.0124571428571427 1.5539999999999998 -2.896422857142857 0.5415428571428571 -4.207954285714285 -1.0124571428571427 -1.3115314285714283 -2.896422857142857 -1.5539657142857142 -4.207954285714285 -0.5415085714285713 -2.809134857142857 2.1685371428571427 -4.931976411428571 5.182662857142857 -4.931976411428571 8.838171428571428 0 4.755805714285715 3.534113554285714 8.38014857142857 7.73030784 10.639577142857142 4.318354285714285 2.3252571428571427 10.07814857142857 3.6716571428571427 16.27597714285714 3.6716571428571427s11.957554285714286 -1.3463999999999998 16.27584 -3.6716571428571427c4.196228571428571 -2.2594285714285713 7.7304 -5.883771428571428 7.7304 -10.639577142857142 0 -3.6555085714285713 -2.1226285714285713 -6.669634285714285 -4.9319999999999995 -8.838171428571428 -1.3114285714285714 -1.0124571428571427 -3.1954285714285713 -0.7700228571428571 -4.207885714285714 0.5415085714285713 -1.0124571428571427 1.3115314285714283 -0.7700571428571428 3.1954971428571426 0.5413714285714286 4.207954285714285 1.9378285714285715 1.49568 2.5985142857142858 2.93784 2.5985142857142858 4.088708571428571 0 1.4910171428571428 -1.1681142857142857 3.522548571428571 -4.574742857142857 5.356834285714286 -3.284502857142857 1.768457142857143 -8.027862857142857 2.9543999999999997 -13.431497142857143 2.9543999999999997s-10.14696 -1.185942857142857 -13.431394285714285 -2.9543999999999997c-3.4065942857142852 -1.8342857142857143 -4.57488 -3.8658171428571424 -4.57488 -5.356834285714286 0 -1.1508685714285714 0.6608571428571428 -2.593028571428571 2.5983771428571427 -4.088708571428571Z" clip-rule="evenodd" stroke-width="3.4286"></path>
  </g>
</svg>