<svg xmlns="http://www.w3.org/2000/svg" fill="none" viewBox="0 0 48 48" id="Hotel-Shower-Head--Streamline-Core-Remix" height="48" width="48">
  <desc>
    Hotel Shower Head Streamline Icon: https://streamlinehq.com
  </desc>
  <g id="Free Remix/Map Travel/hotel-shower-head--bathe-bath-bathroom-shower-water-head-hotel">
    <path id="Union" fill="#000000" fill-rule="evenodd" d="M24 0c1.1834742857142857 0 2.142857142857143 0.9593897142857143 2.142857142857143 2.142857142857143v2.7007885714285713c8.69382857142857 1.0569942857142858 15.428571428571427 8.463017142857142 15.428571428571427 17.44206857142857 0 1.1834742857142857 -0.9593142857142857 2.142857142857143 -2.142857142857143 2.142857142857143h-30.857142857142854c-1.1834742857142857 0 -2.142857142857143 -0.9593828571428571 -2.142857142857143 -2.142857142857143 0 -8.979051428571427 6.734845714285713 -16.385074285714285 15.428571428571427 -17.44206857142857V2.142857142857143C21.857142857142858 0.9593897142857143 22.816525714285714 0 24 0ZM10.886194285714284 20.142857142857142C11.91078857142857 13.82424 17.392011428571426 9 24 9c6.607988571428571 0 12.089142857142855 4.82424 13.113942857142856 11.142857142857142H10.886194285714284ZM12.428571428571427 41.14285714285714c0 -1.183542857142857 -0.9593828571428571 -2.142857142857143 -2.142857142857143 -2.142857142857143s-2.142857142857143 0.9593142857142857 -2.142857142857143 2.142857142857143v4.714285714285714c0 1.183542857142857 0.9593828571428571 2.142857142857143 2.142857142857143 2.142857142857143s2.142857142857143 -0.9593142857142857 2.142857142857143 -2.142857142857143V41.14285714285714ZM24 39c1.1834742857142857 0 2.142857142857143 0.9593142857142857 2.142857142857143 2.142857142857143v4.714285714285714c0 1.183542857142857 -0.9593828571428571 2.142857142857143 -2.142857142857143 2.142857142857143s-2.142857142857143 -0.9593142857142857 -2.142857142857143 -2.142857142857143V41.14285714285714c0 -1.183542857142857 0.9593828571428571 -2.142857142857143 2.142857142857143 -2.142857142857143Zm15.857142857142856 2.142857142857143c0 -1.183542857142857 -0.9593142857142857 -2.142857142857143 -2.142857142857143 -2.142857142857143s-2.142857142857143 0.9593142857142857 -2.142857142857143 2.142857142857143v4.714285714285714c0 1.183542857142857 0.9593142857142857 2.142857142857143 2.142857142857143 2.142857142857143s2.142857142857143 -0.9593142857142857 2.142857142857143 -2.142857142857143V41.14285714285714ZM17.142857142857142 27.428571428571427c1.1834742857142857 0 2.142857142857143 0.9593828571428571 2.142857142857143 2.142857142857143V34.285714285714285c0 1.183542857142857 -0.9593828571428571 2.142857142857143 -2.142857142857143 2.142857142857143s-2.142857142857143 -0.9593142857142857 -2.142857142857143 -2.142857142857143V29.57142857142857C15 28.387954285714287 15.959382857142856 27.428571428571427 17.142857142857142 27.428571428571427Zm15.857142857142856 2.142857142857143C33 28.387954285714287 32.04061714285714 27.428571428571427 30.857142857142854 27.428571428571427s-2.142857142857143 0.9593828571428571 -2.142857142857143 2.142857142857143V34.285714285714285c0 1.183542857142857 0.9593828571428571 2.142857142857143 2.142857142857143 2.142857142857143s2.142857142857143 -0.9593142857142857 2.142857142857143 -2.142857142857143V29.57142857142857Z" clip-rule="evenodd" stroke-width="3.4286"></path>
  </g>
</svg>