<svg xmlns="http://www.w3.org/2000/svg" fill="none" viewBox="0 0 48 48" id="Hotel-Laundry--Streamline-Core-Remix" height="48" width="48">
  <desc>
    Hotel Laundry Streamline Icon: https://streamlinehq.com
  </desc>
  <g id="Free Remix/Map Travel/hotel-laundry--laundry-machine-hotel">
    <path id="Union" fill="#000000" fill-rule="evenodd" d="M8.571428571428571 0C5.494422857142857 0 3 2.494412571428571 3 5.571428571428571v36.857142857142854C3 45.505714285714284 5.494422857142857 48 8.571428571428571 48h30.857142857142854c3.077142857142857 0 5.571428571428571 -2.494285714285714 5.571428571428571 -5.571428571428571V5.571428571428571C45 2.4944159999999997 42.505714285714284 0 39.42857142857142 0h-30.857142857142854Zm-1.2857142857142856 12v30.428571428571427c0 0.7100571428571428 0.5756228571428571 1.2857142857142856 1.2857142857142856 1.2857142857142856h30.857142857142854c0.7100571428571428 0 1.2857142857142856 -0.5756571428571428 1.2857142857142856 -1.2857142857142856V12h-33.42857142857142Zm9.452537142857143 14.142857142857142h-0.7003542857142857C16.825165714285713 22.46886857142857 20.09088 19.71428571428571 24 19.71428571428571c4.497188571428571 0 8.142857142857142 3.6456685714285713 8.142857142857142 8.142857142857142 0 0.5880685714285714 -0.06233142857142857 1.161565714285714 -0.1807542857142857 1.7142857142857142h-0.7001828571428571c-2.5208571428571425 0 -5.00712 -0.5869371428571428 -7.261851428571429 -1.7142857142857142 -2.2546971428571427 -1.1273485714285714 -4.740959999999999 -1.7142857142857142 -7.261817142857143 -1.7142857142857142ZM24 15.428571428571427c-6.864102857142857 0 -12.428571428571427 5.564468571428571 -12.428571428571427 12.428571428571427 0 6.863999999999999 5.564468571428571 12.428571428571427 12.428571428571427 12.428571428571427s12.428571428571427 -5.564571428571428 12.428571428571427 -12.428571428571427C36.42857142857142 20.993039999999997 30.864102857142854 15.428571428571427 24 15.428571428571427Z" clip-rule="evenodd" stroke-width="3.4286"></path>
  </g>
</svg>