<svg xmlns="http://www.w3.org/2000/svg" fill="none" viewBox="0 0 48 48" id="Hotel-Bed-2--Streamline-Core-Remix" height="48" width="48">
  <desc>
    Hotel Bed 2 Streamline Icon: https://streamlinehq.com
  </desc>
  <g id="Free Remix/Map Travel/hotel-bed-2--bed-double-bedroom-bedrooms-queen-king-full-hotel-hotel">
    <path id="Union" fill="#000000" fill-rule="evenodd" d="M1.2857142857142856 6.857142857142857C1.2857142857142856 3.780137142857143 3.780137142857143 1.2857142857142856 6.857142857142857 1.2857142857142856h34.285714285714285c3.077142857142857 0 5.571428571428571 2.494422857142857 5.571428571428571 5.571428571428571v34.285714285714285c0 3.077142857142857 -2.494285714285714 5.571428571428571 -5.571428571428571 5.571428571428571H6.857142857142857c-3.0770057142857143 0 -5.571428571428571 -2.494285714285714 -5.571428571428571 -5.571428571428571V6.857142857142857ZM6.857142857142857 5.571428571428571c-0.7100914285714285 0 -1.2857142857142856 0.5756228571428571 -1.2857142857142856 1.2857142857142856v12h36.857142857142854V6.857142857142857c0 -0.7100914285714285 -0.5756571428571428 -1.2857142857142856 -1.2857142857142856 -1.2857142857142856h-2.571428571428571v6c0 0.9467657142857142 -0.7676571428571428 1.7142857142857142 -1.7142857142857142 1.7142857142857142H27.857142857142854c-0.9467657142857142 0 -1.7142857142857142 -0.76752 -1.7142857142857142 -1.7142857142857142v-6h-4.285714285714286v6c0 0.9467657142857142 -0.76752 1.7142857142857142 -1.7142857142857142 1.7142857142857142H11.142857142857142c-0.9467657142857142 0 -1.7142857142857142 -0.76752 -1.7142857142857142 -1.7142857142857142v-6H6.857142857142857Z" clip-rule="evenodd" stroke-width="3.4286"></path>
  </g>
</svg>