<svg xmlns="http://www.w3.org/2000/svg" fill="none" viewBox="0 0 48 48" id="Hotel-Two-Star--Streamline-Core-Remix" height="48" width="48">
  <desc>
    Hotel Two Star Streamline Icon: https://streamlinehq.com
  </desc>
  <g id="Free Remix/Map Travel/hotel-two-star--two-stars-reviews-review-rating-hotel-star">
    <path id="Union" fill="#000000" fill-rule="evenodd" d="M22.927234285714285 5.60424c0.50352 -0.7781142857142858 1.6419771428571428 -0.7781142857142858 2.1454971428571428 0l6.5347542857142855 10.0992c0.3273257142857143 0.5058514285714285 0.8524799999999999 0.8505257142857143 1.4467885714285713 0.9495771428571428l9.59166857142857 1.59864c0.9668571428571427 0.1611085714285714 1.3995428571428572 1.3054971428571427 0.7817142857142857 2.066057142857143l-7.408457142857142 9.118079999999999c-0.4474285714285714 0.5507314285714285 -0.5931428571428571 1.2872914285714285 -0.38948571428571427 1.9670057142857145l3.173142857142857 10.576971428571428c0.30205714285714286 1.0066285714285714 -0.6726857142857143 1.9272 -1.6604571428571429 1.567885714285714l-12.410125714285712 -4.512685714285714c-0.4950171428571429 -0.18 -1.0390285714285714 -0.17142857142857143 -1.5281142857142855 0.024342857142857142l-11.23998857142857 4.495885714285714c-0.9421028571428571 0.37679999999999997 -1.9264457142857143 -0.4419428571428571 -1.7274514285714284 -1.4369142857142856l2.182217142857143 -10.910982857142857c0.12524571428571427 -0.6262971428571428 -0.03538285714285714 -1.2758057142857142 -0.43817142857142855 -1.7715085714285712L4.572342857142856 20.317714285714285c-0.6179314285714286 -0.7605599999999999 -0.18500571428571427 -1.9049485714285714 0.7816114285714285 -2.066057142857143l9.591737142857143 -1.59864c0.5943085714285714 -0.09905142857142857 1.119462857142857 -0.4437257142857143 1.4467885714285713 -0.9495771428571428l6.5347542857142855 -10.0992ZM28.670879999999997 3.2760239999999996c-2.192331428571429 -3.388120114285714 -7.149462857142856 -3.388122514285714 -9.341794285714284 0L13.308137142857143 12.58110857142857l-8.658754285714284 1.44312C0.44058514285714284 14.725714285714284 -1.4445085714285713 19.708662857142855 1.246134857142857 23.020251428571427L8.018674285714285 31.355657142857144l-1.984422857142857 9.921942857142856c-0.8664685714285714 4.332342857142857 3.41952 7.897714285714286 7.521599999999999 6.256799999999999l10.480525714285713 -4.192114285714285 11.641337142857141 4.233257142857142c4.3008 1.5637714285714286 8.545028571428572 -2.4442285714285714 7.2301714285714285 -6.8273142857142854l-2.8470857142857144 -9.490354285714284 6.692914285714285 -8.237622857142856c2.6907428571428573 -3.3115542857142857 0.8057142857142856 -8.294537142857141 -3.4032 -8.996022857142856l-8.658857142857142 -1.44312L28.670879999999997 3.2760239999999996ZM22.765988571428572 17.162948571428572c-2.548628571428571 0 -4.711062857142857 1.6297714285714284 -5.51256 3.897325714285714 -0.39435428571428566 1.1158285714285714 0.19045714285714285 2.340102857142857 1.3062857142857143 2.7344571428571425 1.1158285714285714 0.39438857142857137 2.340102857142857 -0.19042285714285712 2.7344571428571425 -1.3062514285714284 0.21517714285714284 -0.6088114285714286 0.7959085714285714 -1.0398171428571428 1.4718171428571427 -1.0398171428571428h2.564605714285714c0.8085257142857143 0 1.463965714285714 0.65544 1.463965714285714 1.4639314285714287 0 0.5816228571428571 -0.34433142857142857 1.10808 -0.8771657142857143 1.341222857142857l-5.494491428571428 2.4038057142857143c-2.1277714285714286 0.9309257142857141 -3.5026285714285716 3.03312 -3.5026285714285716 5.3556v2.1040114285714284c0 1.1833371428571429 0.9593828571428571 2.142994285714286 2.142857142857143 2.142994285714286h9.874251428571428c1.1834742857142857 0 2.142857142857143 -0.9596571428571428 2.142857142857143 -2.142994285714286 0 -1.1834742857142857 -0.9593828571428571 -2.142857142857143 -2.142857142857143 -2.142857142857143H21.20646857142857c0.014948571428571429 -0.6042857142857142 0.3783085714285714 -1.1471314285714285 0.9342171428571429 -1.3903542857142857l5.494491428571428 -2.4038399999999998c2.0928 -0.9156 3.4450628571428568 -2.9832685714285714 3.4450628571428568 -5.267588571428571 0 -3.17544 -2.574205714285714 -5.749645714285713 -5.749645714285713 -5.749645714285713h-2.564605714285714Z" clip-rule="evenodd" stroke-width="3.4286"></path>
  </g>
</svg>