<svg xmlns="http://www.w3.org/2000/svg" fill="none" viewBox="0 0 48 48" id="Hotel-Air-Conditioner--Streamline-Core-Remix" height="48" width="48">
  <desc>
    Hotel Air Conditioner Streamline Icon: https://streamlinehq.com
  </desc>
  <g id="Free Remix/Map Travel/hotel-air-conditioner--heating-ac-air-hvac-cool-cooling-cold-hot-conditioning-hotel">
    <path id="Union" fill="#000000" fill-rule="evenodd" d="M5.571428571428571 6.857142857142857c0 -0.7100914285714285 0.5756228571428571 -1.2857142857142856 1.2857142857142856 -1.2857142857142856h34.285714285714285c0.7100571428571428 0 1.2857142857142856 0.5756228571428571 1.2857142857142856 1.2857142857142856v15.428571428571427c0 0.7100914285714285 -0.5756571428571428 1.2857142857142856 -1.2857142857142856 1.2857142857142856h-3.4285714285714284V20.57142857142857c0 -1.3639885714285713 -0.5417142857142857 -2.6720914285714286 -1.5061714285714285 -3.636548571428571C35.243657142857145 15.970422857142855 33.93541714285714 15.428571428571427 32.57142857142857 15.428571428571427h-17.142857142857142c-1.3639885714285713 0 -2.6720914285714286 0.5418514285714285 -3.636548571428571 1.5063085714285713C10.827565714285715 17.899337142857142 10.285714285714285 19.207474285714284 10.285714285714285 20.57142857142857v3H6.857142857142857c-0.7100914285714285 0 -1.2857142857142856 -0.5756228571428571 -1.2857142857142856 -1.2857142857142856V6.857142857142857ZM6.857142857142857 1.2857142857142856C3.780137142857143 1.2857142857142856 1.2857142857142856 3.780137142857143 1.2857142857142856 6.857142857142857v15.428571428571427c0 3.0770057142857143 2.494422857142857 5.571428571428571 5.571428571428571 5.571428571428571h34.285714285714285c3.077142857142857 0 5.571428571428571 -2.494422857142857 5.571428571428571 -5.571428571428571V6.857142857142857c0 -3.0770057142857143 -2.494285714285714 -5.571428571428571 -5.571428571428571 -5.571428571428571H6.857142857142857ZM16.285714285714285 32.57142857142857c0 -1.4201485714285715 -1.1512799999999999 -2.571428571428571 -2.571428571428571 -2.571428571428571s-2.571428571428571 1.1512799999999999 -2.571428571428571 2.571428571428571v3.7714285714285714c0 1.2308571428571426 -0.9977485714285713 2.2285714285714286 -2.2285714285714286 2.2285714285714286h-0.34285714285714286c-1.4201485714285715 0 -2.571428571428571 1.1513142857142855 -2.571428571428571 2.571428571428571s1.1512799999999999 2.571428571428571 2.571428571428571 2.571428571428571h0.34285714285714286c4.07112 0 7.371428571428571 -3.300342857142857 7.371428571428571 -7.371428571428571V32.57142857142857ZM34.285714285714285 30c-1.4201485714285715 0 -2.571428571428571 1.1512799999999999 -2.571428571428571 2.571428571428571v3.7714285714285714c0 4.071085714285714 3.300342857142857 7.371428571428571 7.371428571428571 7.371428571428571h0.34285714285714286c1.4201142857142857 0 2.571428571428571 -1.1513142857142855 2.571428571428571 -2.571428571428571s-1.1513142857142855 -2.571428571428571 -2.571428571428571 -2.571428571428571h-0.34285714285714286c-1.2308571428571426 0 -2.2285714285714286 -0.9977142857142856 -2.2285714285714286 -2.2285714285714286V32.57142857142857c0 -1.4201485714285715 -1.1513142857142855 -2.571428571428571 -2.571428571428571 -2.571428571428571Zm-7.7142857142857135 2.571428571428571c0 -1.4201485714285715 -1.1512799999999999 -2.571428571428571 -2.571428571428571 -2.571428571428571s-2.571428571428571 1.1512799999999999 -2.571428571428571 2.571428571428571V44.57142857142857c0 1.4201142857142857 1.1512799999999999 2.571428571428571 2.571428571428571 2.571428571428571s2.571428571428571 -1.1513142857142855 2.571428571428571 -2.571428571428571V32.57142857142857Z" clip-rule="evenodd" stroke-width="3.4286"></path>
  </g>
</svg>