<svg xmlns="http://www.w3.org/2000/svg" fill="none" viewBox="0 0 48 48" id="Humidity-None--Streamline-Core-Remix" height="48" width="48">
  <desc>
    Humidity None Streamline Icon: https://streamlinehq.com
  </desc>
  <g id="Free Remix/Interface Essential/humidity-none--humidity-drop-weather">
    <path id="Union" fill="#000000" fill-rule="evenodd" d="m24 2.1395074285714286 1.515222857142857 -1.5152262857142855c-0.8368457142857142 -0.8368388571428571 -2.1936 -0.8368388571428571 -3.030445714285714 0L24 2.1395074285714286ZM40.823657142857144 37.793142857142854c1.3638857142857141 -2.6187428571428573 2.1349714285714287 -5.595805714285714 2.1349714285714287 -8.748342857142857 0 -3.0463885714285714 -1.2445714285714284 -6.362742857142856 -2.8741714285714286 -9.45846857142857 -1.6546285714285713 -3.144342857142857 -3.8362285714285713 -6.299657142857142 -5.978057142857143 -9.08424 -2.147828571428571 -2.7921942857142854 -4.290342857142857 -5.255622857142857 -5.893337142857143 -7.018902857142857 -0.8025942857142856 -0.8828399999999998 -1.4725714285714284 -1.5930788571428571 -1.9438285714285712 -2.084533714285714 -0.23567999999999997 -0.24579085714285714 -0.42185142857142854 -0.43704 -0.5502171428571428 -0.5679874285714286L25.570765714285713 0.6801394285714285 25.53102857142857 0.6401108571428571 25.520091428571426 0.6291359999999999 25.516902857142856 0.6259405714285714l-0.0010285714285714284 -0.001025142857142857C25.51553142857143 0.6245657142857143 25.515222857142856 0.6242811428571428 24 2.1395074285714286c-1.515222857142857 -1.5152262857142855 -1.5153599999999998 -1.5150822857142856 -1.5155314285714283 -1.5149142857142857L22.484022857142854 0.6250285714285714l-0.0012342857142857142 0.0012377142857142856 -0.003942857142857143 0.003942857142857143 -0.013645714285714285 0.013710857142857143 -0.04995428571428571 0.05038628571428572 -0.18672 0.18994971428571428C22.066971428571428 1.049478857142857 21.833142857142857 1.2906171428571427 21.53890285714286 1.5993771428571426c-0.5883428571428572 0.6173211428571428 -1.4192914285714284 1.5060994285714284 -2.3976685714285715 2.5998685714285714 -1.5488571428571427 1.7315314285714285 -3.478697142857143 3.989657142857143 -5.404354285714286 6.50718857142857L3.65808 0.6276274285714285c-0.8368319999999999 -0.8368367999999999 -2.193613714285714 -0.8368367999999999 -3.030452571428571 0 -0.8368367999999999 0.8368388571428571 -0.8368367999999999 2.1936205714285713 0 3.030452571428571L12.431519999999999 15.462c0.018377142857142856 0.01902857142857143 0.037131428571428565 0.037817142857142855 0.05629714285714286 0.05626285714285714l24.107039999999998 24.107108571428572c0.020914285714285715 0.021942857142857142 0.04251428571428571 0.04354285714285714 0.06445714285714285 0.06445714285714285l7.682742857142857 7.6823999999999995c0.8365714285714285 0.8369142857142857 2.1936 0.8369142857142857 3.0301714285714283 0 0.8369142857142857 -0.8365714285714285 0.8369142857142857 -2.1936 0 -3.0301714285714283l-6.548571428571428 -6.548914285714285ZM10.221257142857143 19.69796571428571c1.0644342857142857 0.5173028571428571 1.5079542857142856 1.7995542857142854 0.9906514285714284 2.8639542857142852 -1.2221485714285714 2.5147542857142855 -1.8848228571428571 4.728068571428571 -1.8848228571428571 6.4831199999999995 0 8.103531428571427 6.569314285714285 14.673017142857143 14.67294857142857 14.673017142857143 2.4153942857142856 0 4.688605714285714 -0.5821714285714286 6.692982857142857 -1.6114285714285712 1.052742857142857 -0.5406857142857143 2.344457142857143 -0.12582857142857143 2.8851428571428572 0.9270857142857142 0.54072 1.0525714285714285 0.12562285714285712 2.344457142857143 -0.9271199999999999 2.8851428571428572 -2.596045714285714 1.3333714285714287 -5.538891428571429 2.0849142857142855 -8.651005714285715 2.0849142857142855 -10.470582857142857 0 -18.958662857142855 -8.488114285714284 -18.958662857142855 -18.95873142857143 0 -2.7039428571428568 0.9794742857142856 -5.606468571428571 2.3159314285714285 -8.356422857142856 0.5173028571428571 -1.0644 1.7995542857142854 -1.5079542857142856 2.8639542857142852 -0.9906514285714284Z" clip-rule="evenodd" stroke-width="3.4286"></path>
  </g>
</svg>