<svg xmlns="http://www.w3.org/2000/svg" fill="none" viewBox="0 0 48 48" id="Ice-Cream-2--Streamline-Core-Remix" height="48" width="48">
  <desc>
    Ice Cream 2 Streamline Icon: https://streamlinehq.com
  </desc>
  <g id="Free Remix/Food Drink/ice-cream-2--cook-frozen-popsicle-freezer-nutrition-cream-stick-cold-ice-cooking">
    <path id="Union" fill="#000000" fill-rule="evenodd" d="M12.428571428571427 5.571428571428571c0 -0.7100914285714285 0.5756228571428571 -1.2857142857142856 1.2857142857142856 -1.2857142857142856h20.57142857142857c0.7100571428571428 0 1.2857142857142856 0.5756228571428571 1.2857142857142856 1.2857142857142856v23.142857142857142c0 0.7100914285714285 -0.5756571428571428 1.2857142857142856 -1.2857142857142856 1.2857142857142856H13.714285714285714c-0.7100914285714285 0 -1.2857142857142856 -0.5756228571428571 -1.2857142857142856 -1.2857142857142856v-23.142857142857142ZM13.714285714285714 0c-3.0770057142857143 0 -5.571428571428571 2.494412571428571 -5.571428571428571 5.571428571428571v23.142857142857142C8.142857142857142 31.79129142857143 10.637279999999999 34.285714285714285 13.714285714285714 34.285714285714285h3.4285714285714284v6.857142857142857c0 1.8185142857142855 0.7224342857142857 3.562628571428571 2.008422857142857 4.848685714285714C20.437234285714286 47.2776 22.181382857142857 48 24 48s3.562765714285714 -0.7223999999999999 4.848719999999999 -2.0084571428571425C30.13470857142857 44.70548571428571 30.857142857142854 42.961371428571425 30.857142857142854 41.14285714285714v-6.857142857142857h3.4285714285714284c3.077142857142857 0 5.571428571428571 -2.494422857142857 5.571428571428571 -5.571428571428571v-23.142857142857142C39.857142857142854 2.494412571428571 37.362857142857145 0 34.285714285714285 0H13.714285714285714Zm5.142857142857142 8.142857142857142c1.1834742857142857 0 2.142857142857143 0.9593828571428571 2.142857142857143 2.142857142857143v12c0 1.1834742857142857 -0.9593828571428571 2.142857142857143 -2.142857142857143 2.142857142857143s-2.142857142857143 -0.9593828571428571 -2.142857142857143 -2.142857142857143V10.285714285714285c0 -1.1834742857142857 0.9593828571428571 -2.142857142857143 2.142857142857143 -2.142857142857143ZM31.285714285714285 10.285714285714285c0 -1.1834742857142857 -0.9593828571428571 -2.142857142857143 -2.142857142857143 -2.142857142857143s-2.142857142857143 0.9593828571428571 -2.142857142857143 2.142857142857143v12c0 1.1834742857142857 0.9593828571428571 2.142857142857143 2.142857142857143 2.142857142857143s2.142857142857143 -0.9593828571428571 2.142857142857143 -2.142857142857143V10.285714285714285Z" clip-rule="evenodd" stroke-width="3.4286"></path>
  </g>
</svg>