<svg xmlns="http://www.w3.org/2000/svg" fill="none" viewBox="0 0 48 48" id="Ice-Cream-3--Streamline-Core-Remix" height="48" width="48">
  <desc>
    Ice Cream 3 Streamline Icon: https://streamlinehq.com
  </desc>
  <g id="Free Remix/Food Drink/ice-cream-3--cook-frozen-cone-cream-ice-cooking-nutrition-freezer-cold-food">
    <path id="Union" fill="#000000" fill-rule="evenodd" d="M27.428571428571427 15.428571428571427H12.436354285714286C12.661817142857142 9.2364 17.75276571428571 4.285714285714286 24 4.285714285714286c6.39072 0 11.571428571428571 5.180708571428571 11.571428571428571 11.571428571428571v10.285714285714285c0 1.6568571428571428 -1.343142857142857 3 -3 3s-3 -1.343142857142857 -3 -3v-8.571428571428571c0 -1.1834742857142857 -0.9593828571428571 -2.142857142857143 -2.142857142857143 -2.142857142857143ZM24 0C15.242331428571429 0 8.142857142857142 7.099474285714285 8.142857142857142 15.857142857142856v1.9519885714285714c0 1.2773828571428572 0.27192 2.5401257142857143 0.7976571428571428 3.704262857142857l10.683017142857143 23.655291428571427c0.7783885714285714 1.7235428571428573 2.494217142857143 2.8313142857142855 4.385382857142857 2.8313142857142855 1.8747085714285714 0 3.5787085714285714 -1.0889142857142857 4.366457142857143 -2.789828571428571l5.510297142857143 -11.899817142857142C37.28228571428571 32.6916 39.857142857142854 29.71793142857143 39.857142857142854 26.142857142857142v-10.285714285714285C39.857142857142854 7.099474285714285 32.757668571428574 0 24 0Z" clip-rule="evenodd" stroke-width="3.4286"></path>
  </g>
</svg>