<svg xmlns="http://www.w3.org/2000/svg" fill="none" viewBox="0 0 48 48" id="Image-Saturation-Vertical--Streamline-Core-Remix" height="48" width="48">
  <desc>
    Image Saturation Vertical Streamline Icon: https://streamlinehq.com
  </desc>
  <g id="Free Remix/Interface Essential/image-saturation-vertical">
    <path id="Union" fill="#000000" fill-rule="evenodd" d="M24.000582857142856 2.1392982857142857 22.48536 0.624072c0.4018628571428571 -0.4018645714285714 0.946902857142857 -0.6276294857142857 1.515222857142857 -0.6276294857142857 0.5683199999999999 0 1.11336 0.2257649142857143 1.515222857142857 0.6276294857142857l-1.515222857142857 1.5152262857142855Zm0 41.578416c-8.103634285714286 0 -14.67294857142857 -6.5694857142857135 -14.67294857142857 -14.673119999999999 0 -1.998342857142857 0.8572457142857142 -4.567508571428571 2.3808685714285716 -7.462422857142857 1.4980457142857142 -2.8462971428571424 3.5206971428571423 -5.786708571428571 5.582674285714285 -8.467268571428571 2.0561142857142856 -2.6729485714285715 4.1175428571428565 -5.044045714285714 5.667531428571428 -6.749039999999999 0.3815314285714286 -0.41969142857142855 0.7314514285714285 -0.7983085714285714 1.0418742857142855 -1.1303657142857142l0 38.48221714285714Zm0 -41.578416C22.48536 0.624072 22.485085714285713 0.6243565714285714 22.48470857142857 0.6247062857142857l-0.0009942857142857143 0.001025142857142857 -0.0031885714285714286 0.0031954285714285713 -0.010937142857142857 0.010974857142857142 -0.03973714285714285 0.04002857142857143 -0.14825142857142856 0.150528c-0.1284 0.13094742857142855 -0.31453714285714285 0.32219657142857144 -0.5502514285714285 0.5679874285714286 -0.4712571428571428 0.4914548571428571 -1.1412342857142856 1.2016937142857143 -1.9438285714285712 2.0845371428571426 -1.60296 1.76328 -3.7454742857142858 4.2267085714285715 -5.8933028571428565 7.018902857142857 -2.142 2.784582857142857 -4.323325714285714 5.939897142857142 -5.978228571428571 9.08424 -1.629325714285714 3.095725714285714 -2.874068571428571 6.41208 -2.874068571428571 9.45846857142857 0 10.47072 8.48808 18.958834285714286 18.958662857142855 18.958834285714286 10.470617142857142 0 18.95873142857143 -8.488114285714284 18.95873142857143 -18.958834285714286 0 -3.0463885714285714 -1.2449142857142856 -6.362742857142856 -2.8741714285714286 -9.45846857142857 -1.6549714285714285 -3.144342857142857 -3.8362285714285713 -6.299657142857142 -5.97816 -9.08424 -2.147828571428571 -2.7921942857142854 -4.290342857142857 -5.255622857142857 -5.893337142857143 -7.018902857142857 -0.8025942857142856 -0.8828434285714285 -1.4725714285714284 -1.5930822857142855 -1.9438285714285712 -2.0845371428571426 -0.23567999999999997 -0.24579085714285714 -0.42185142857142854 -0.43704 -0.5502171428571428 -0.5679874285714286L25.57134857142857 0.6799302857142856 25.531611428571427 0.6399017142857143 25.520674285714286 0.6289268571428571 25.517485714285712 0.6257314285714285 25.516457142857142 0.6247062857142857c-0.00034285714285714285 -0.00034971428571428567 -0.0006514285714285715 -0.0006342857142857143 -1.5158742857142857 1.514592Z" clip-rule="evenodd" stroke-width="3.4286"></path>
  </g>
</svg>