<svg xmlns="http://www.w3.org/2000/svg" fill="none" viewBox="0 0 48 48" id="Image-Blur--Streamline-Core-Remix" height="48" width="48">
  <desc>
    Image Blur Streamline Icon: https://streamlinehq.com
  </desc>
  <g id="Free Remix/Interface Essential/image-blur">
    <path id="Union" fill="#000000" fill-rule="evenodd" d="M23.99893714285714 0.0016741062857142856c13.254205714285714 0 23.999005714285715 10.744703036571428 23.999005714285715 23.99894303657143 0 13.25424 -10.7448 23.999039999999997 -23.999005714285715 23.999039999999997C10.744697142857142 47.99965714285714 0 37.25485714285714 0 24.00061714285714S10.744697142857142 0.0016741062857142856 23.99893714285714 0.0016741062857142856ZM43.71222857142857 24.00061714285714c0 -10.887325714285714 -8.82582857142857 -19.713222857142856 -19.713291428571427 -19.713222857142856 -10.887291428571428 0 -19.713222857142856 8.825897142857142 -19.713222857142856 19.713222857142856 0 10.887497142857143 8.825931428571428 19.713325714285713 19.713222857142856 19.713325714285713 10.887462857142857 0 19.713291428571427 -8.82582857142857 19.713291428571427 -19.713325714285713ZM19.427588571428572 7.784605714285713c1.4201485714285715 0 2.571428571428571 1.1512457142857142 2.571428571428571 2.571428571428571 0 1.4201485714285715 -1.1512799999999999 2.571428571428571 -2.571428571428571 2.571428571428571s-2.571428571428571 -1.1512799999999999 -2.571428571428571 -2.571428571428571c0 -1.420182857142857 1.1512799999999999 -2.571428571428571 2.571428571428571 -2.571428571428571Zm9.143965714285715 0c1.4201485714285715 0 2.571428571428571 1.1512457142857142 2.571428571428571 2.571428571428571 0 1.4201485714285715 -1.1512799999999999 2.571428571428571 -2.571428571428571 2.571428571428571s-2.571428571428571 -1.1512799999999999 -2.571428571428571 -2.571428571428571c0 -1.420182857142857 1.1512799999999999 -2.571428571428571 2.571428571428571 -2.571428571428571ZM21.99901714285714 37.64228571428571c0 -1.4201142857142857 -1.1512799999999999 -2.571428571428571 -2.571428571428571 -2.571428571428571s-2.571428571428571 1.1513142857142855 -2.571428571428571 2.571428571428571 1.1512799999999999 2.571428571428571 2.571428571428571 2.571428571428571 2.571428571428571 -1.1513142857142855 2.571428571428571 -2.571428571428571ZM10.357268571428571 16.858251428571428c1.4201485714285715 0 2.571428571428571 1.1512799999999999 2.571428571428571 2.571428571428571 0 1.420182857142857 -1.1512799999999999 2.571428571428571 -2.571428571428571 2.571428571428571s-2.571428571428571 -1.1512457142857142 -2.571428571428571 -2.571428571428571c0 -1.4201485714285715 1.1512799999999999 -2.571428571428571 2.571428571428571 -2.571428571428571Zm2.571428571428571 11.71206857142857c0 -1.420182857142857 -1.1512799999999999 -2.571428571428571 -2.571428571428571 -2.571428571428571s-2.571428571428571 1.1512457142857142 -2.571428571428571 2.571428571428571c0 1.4201485714285715 1.1512799999999999 2.571428571428571 2.571428571428571 2.571428571428571s2.571428571428571 -1.1512799999999999 2.571428571428571 -2.571428571428571Zm24.713245714285712 -11.71206857142857c1.4201142857142857 0 2.571428571428571 1.1512799999999999 2.571428571428571 2.571428571428571 0 1.420182857142857 -1.1513142857142855 2.571428571428571 -2.571428571428571 2.571428571428571s-2.571428571428571 -1.1512457142857142 -2.571428571428571 -2.571428571428571c0 -1.4201485714285715 1.1513142857142855 -2.571428571428571 2.571428571428571 -2.571428571428571Zm2.571428571428571 11.71206857142857c0 -1.420182857142857 -1.1513142857142855 -2.571428571428571 -2.571428571428571 -2.571428571428571s-2.571428571428571 1.1512457142857142 -2.571428571428571 2.571428571428571c0 1.4201485714285715 1.1513142857142855 2.571428571428571 2.571428571428571 2.571428571428571s2.571428571428571 -1.1512799999999999 2.571428571428571 -2.571428571428571ZM28.571554285714285 35.070857142857136c1.4201485714285715 0 2.571428571428571 1.1513142857142855 2.571428571428571 2.571428571428571s-1.1512799999999999 2.571428571428571 -2.571428571428571 2.571428571428571 -2.571428571428571 -1.1513142857142855 -2.571428571428571 -2.571428571428571 1.1512799999999999 -2.571428571428571 2.571428571428571 -2.571428571428571ZM19.285302857142856 15.857142857142856c1.8935314285714284 0 3.4285714285714284 1.53504 3.4285714285714284 3.4285714285714284s-1.53504 3.4285714285714284 -3.4285714285714284 3.4285714285714284c-1.893565714285714 0 -3.4285714285714284 -1.53504 -3.4285714285714284 -3.4285714285714284s1.535005714285714 -3.4285714285714284 3.4285714285714284 -3.4285714285714284Zm12.857142857142856 3.4285714285714284c0 -1.8935314285714284 -1.53504 -3.4285714285714284 -3.4285714285714284 -3.4285714285714284 -1.893565714285714 0 -3.4285714285714284 1.53504 -3.4285714285714284 3.4285714285714284s1.535005714285714 3.4285714285714284 3.4285714285714284 3.4285714285714284c1.8935314285714284 0 3.4285714285714284 -1.53504 3.4285714285714284 -3.4285714285714284Zm-12.857142857142856 6c1.8935314285714284 0 3.4285714285714284 1.53504 3.4285714285714284 3.4285714285714284s-1.53504 3.4285714285714284 -3.4285714285714284 3.4285714285714284c-1.893565714285714 0 -3.4285714285714284 -1.53504 -3.4285714285714284 -3.4285714285714284s1.535005714285714 -3.4285714285714284 3.4285714285714284 -3.4285714285714284Zm12.857142857142856 3.4285714285714284c0 -1.8935314285714284 -1.53504 -3.4285714285714284 -3.4285714285714284 -3.4285714285714284 -1.893565714285714 0 -3.4285714285714284 1.53504 -3.4285714285714284 3.4285714285714284s1.535005714285714 3.4285714285714284 3.4285714285714284 3.4285714285714284c1.8935314285714284 0 3.4285714285714284 -1.53504 3.4285714285714284 -3.4285714285714284Z" clip-rule="evenodd" stroke-width="3.4286"></path>
  </g>
</svg>