<svg xmlns="http://www.w3.org/2000/svg" fill="none" viewBox="0 0 48 48" id="Inbox-Lock--Streamline-Core-Remix" height="48" width="48">
  <desc>
    Inbox Lock Streamline Icon: https://streamlinehq.com
  </desc>
  <g id="Free Remix/Mail/Mail/Inbox/inbox-lock--mail-envelope-email-message-secure-password-lock-encryption">
    <path id="Union" fill="#000000" fill-rule="evenodd" d="M4.285714285714286 10.63176V29.142857142857142c0 0.7100914285714285 0.5756228571428571 1.2857142857142856 1.2857142857142856 1.2857142857142856h16.285714285714285c1.1834742857142857 0 2.142857142857143 0.9593828571428571 2.142857142857143 2.142857142857143s-0.9593828571428571 2.142857142857143 -2.142857142857143 2.142857142857143h-16.285714285714285C2.4944159999999997 34.714285714285715 0 32.21986285714286 0 29.142857142857142V5.571428571428571C0 2.4944159999999997 2.494412571428571 0 5.571428571428571 0h33.42857142857142C42.07714285714286 0 44.57142857142857 2.494412571428571 44.57142857142857 5.571428571428571V16.285714285714285c0 1.1834742857142857 -0.9593142857142857 2.142857142857143 -2.142857142857143 2.142857142857143s-2.142857142857143 -0.9593828571428571 -2.142857142857143 -2.142857142857143V10.63176l-17.049085714285713 11.366057142857143c-0.5758285714285714 0.3838628571428571 -1.3259999999999998 0.3838628571428571 -1.9018285714285712 0L4.285714285714286 10.63176ZM34.285714285714285 29.57142857142857c0 -1.8935314285714284 1.5349714285714284 -3.4285714285714284 3.4285714285714284 -3.4285714285714284s3.4285714285714284 1.53504 3.4285714285714284 3.4285714285714284V32.57142857142857h-6.857142857142857v-3Zm11.142857142857142 0v3.1079999999999997c1.4787428571428571 0.38064 2.571428571428571 1.7228571428571426 2.571428571428571 3.3205714285714283V44.57142857142857c0 1.8936 -1.5349714285714284 3.4285714285714284 -3.4285714285714284 3.4285714285714284H30.857142857142854c-1.8935314285714284 0 -3.4285714285714284 -1.5349714285714284 -3.4285714285714284 -3.4285714285714284v-8.571428571428571c0 -1.5977142857142856 1.0926514285714284 -2.9399314285714286 2.571428571428571 -3.3205714285714283V29.57142857142857c0 -4.260479999999999 3.453805714285714 -7.7142857142857135 7.7142857142857135 -7.7142857142857135 4.260342857142857 0 7.7142857142857135 3.453805714285714 7.7142857142857135 7.7142857142857135Z" clip-rule="evenodd" stroke-width="3.4286"></path>
  </g>
</svg>