<svg xmlns="http://www.w3.org/2000/svg" fill="none" viewBox="0 0 48 48" id="Inbox-Block--Streamline-Core-Remix" height="48" width="48">
  <desc>
    Inbox Block Streamline Icon: https://streamlinehq.com
  </desc>
  <g id="Free Remix/Mail/Mail/Inbox/inbox-block--mail-envelope-email-message-block-spam-remove">
    <path id="Union" fill="#000000" fill-rule="evenodd" d="M4.285714285714286 10.63176V29.142857142857142c0 0.7100914285714285 0.5756228571428571 1.2857142857142856 1.2857142857142856 1.2857142857142856h12.857142857142856c1.1834742857142857 0 2.142857142857143 0.9593828571428571 2.142857142857143 2.142857142857143s-0.9593828571428571 2.142857142857143 -2.142857142857143 2.142857142857143h-12.857142857142856C2.494412571428571 34.714285714285715 0 32.21986285714286 0 29.142857142857142V5.571428571428571C0 2.4944159999999997 2.494412571428571 0 5.571428571428571 0h33.42857142857142C42.07714285714286 0 44.57142857142857 2.494412571428571 44.57142857142857 5.571428571428571v12.857142857142856c0 1.1834742857142857 -0.9593142857142857 2.142857142857143 -2.142857142857143 2.142857142857143s-2.142857142857143 -0.9593828571428571 -2.142857142857143 -2.142857142857143V10.63176l-17.049085714285713 11.366057142857143c-0.5758285714285714 0.3838628571428571 -1.3259999999999998 0.3838628571428571 -1.9018285714285712 0L4.285714285714286 10.63176Zm23.982582857142855 17.59268571428571C30.36054857142857 26.143302857142857 33.24435428571429 24.857142857142854 36.42857142857142 24.857142857142854 42.819428571428574 24.857142857142854 48 30.037851428571425 48 36.42857142857142 48 42.819428571428574 42.819428571428574 48 36.42857142857142 48c-6.39072 0 -11.571428571428571 -5.180571428571428 -11.571428571428571 -11.571428571428571 0 -3.184217142857143 1.28616 -6.068022857142857 3.3673028571428567 -8.160274285714285 0.007199999999999999 -0.0074057142857142854 0.014434285714285714 -0.014777142857142855 0.02177142857142857 -0.02208 0.007302857142857142 -0.007337142857142856 0.014674285714285713 -0.014605714285714284 0.02208 -0.02177142857142857Zm1.7200457142857142 4.794377142857143c-0.5397257142857143 1.0173257142857142 -0.8454857142857143 2.1778628571428573 -0.8454857142857143 3.409748571428571 0 4.023771428571428 3.261942857142857 7.285714285714286 7.285714285714286 7.285714285714286 1.2318857142857143 0 2.392457142857143 -0.3058285714285714 3.4097142857142857 -0.8454857142857143L29.988342857142857 33.01882285714286Zm12.880457142857143 6.819462857142857L33.01882285714286 29.988342857142857c1.0173257142857142 -0.5397257142857143 2.1778628571428573 -0.8454857142857143 3.409748571428571 -0.8454857142857143 4.023771428571428 0 7.285714285714286 3.261942857142857 7.285714285714286 7.285714285714286 0 1.2318857142857143 -0.3058285714285714 2.392457142857143 -0.8454857142857143 3.4097142857142857Z" clip-rule="evenodd" stroke-width="3.4286"></path>
  </g>
</svg>