<svg xmlns="http://www.w3.org/2000/svg" fill="none" viewBox="0 0 48 48" id="Inbox-Tray-1--Streamline-Core-Remix" height="48" width="48">
  <desc>
    Inbox Tray 1 Streamline Icon: https://streamlinehq.com
  </desc>
  <g id="Free Remix/Mail/Mail/Inbox/inbox-tray-1--mail-email-outbox-drawer-empty-open-inbox-arrow-down">
    <path id="Union" fill="#000000" fill-rule="evenodd" d="M24 0c1.1834742857142857 0 2.142857142857143 0.9593897142857143 2.142857142857143 2.142857142857143V12H32.57142857142857c0.69336 0 1.3184571428571428 0.4176685714285714 1.5837942857142857 1.058262857142857 0.2652342857142857 0.6405942857142857 0.11866285714285714 1.3779085714285715 -0.37162285714285714 1.8681942857142855l-8.571428571428571 8.571428571428571c-0.669462857142857 0.6694971428571428 -1.7548799999999998 0.6694971428571428 -2.424342857142857 0l-8.571428571428571 -8.571428571428571c-0.4902857142857142 -0.4902857142857142 -0.63696 -1.2275999999999998 -0.37162285714285714 -1.8681942857142855S14.735211428571427 12 15.428571428571427 12h6.428571428571428V2.142857142857143C21.857142857142858 0.9593897142857143 22.816525714285714 0 24 0ZM3.4285714285714284 25.285714285714285c-1.1834674285714284 0 -2.142857142857143 0.9593828571428571 -2.142857142857143 2.142857142857143v13.714285714285714c0 3.077142857142857 2.494422857142857 5.571428571428571 5.571428571428571 5.571428571428571h34.285714285714285c3.077142857142857 0 5.571428571428571 -2.494285714285714 5.571428571428571 -5.571428571428571V27.428571428571427c0 -1.1834742857142857 -0.9593142857142857 -2.142857142857143 -2.142857142857143 -2.142857142857143H30.857142857142854c-1.1834742857142857 0 -2.142857142857143 0.9593828571428571 -2.142857142857143 2.142857142857143v1.7142857142857142c0 2.6036228571428572 -2.110662857142857 4.714285714285714 -4.714285714285714 4.714285714285714S19.285714285714285 31.74648 19.285714285714285 29.142857142857142V27.428571428571427c0 -1.1834742857142857 -0.9593828571428571 -2.142857142857143 -2.142857142857143 -2.142857142857143H3.4285714285714284ZM5.571428571428571 41.14285714285714V29.57142857142857h9.438582857142856c0.2237142857142857 4.771542857142856 4.163108571428571 8.571428571428571 8.98998857142857 8.571428571428571s8.766274285714285 -3.7998857142857143 8.98998857142857 -8.571428571428571H42.42857142857142V41.14285714285714c0 0.7100571428571428 -0.5756571428571428 1.2857142857142856 -1.2857142857142856 1.2857142857142856H6.857142857142857c-0.7100914285714285 0 -1.2857142857142856 -0.5756571428571428 -1.2857142857142856 -1.2857142857142856Z" clip-rule="evenodd" stroke-width="3.4286"></path>
  </g>
</svg>