<svg xmlns="http://www.w3.org/2000/svg" fill="none" viewBox="0 0 48 48" id="Inbox-Favorite--Streamline-Core-Remix" height="48" width="48">
  <desc>
    Inbox Favorite Streamline Icon: https://streamlinehq.com
  </desc>
  <g id="Free Remix/Mail/Mail/Inbox/inbox-favorite--mail-envelope-email-message-star-favorite-important-bookmark">
    <path id="Union" fill="#000000" fill-rule="evenodd" d="M4.285714285714286 10.63176V29.142857142857142c0 0.7100914285714285 0.5756228571428571 1.2857142857142856 1.2857142857142856 1.2857142857142856h9.428571428571429c1.1834742857142857 0 2.142857142857143 0.9593828571428571 2.142857142857143 2.142857142857143s-0.9593828571428571 2.142857142857143 -2.142857142857143 2.142857142857143h-9.428571428571429C2.494412571428571 34.714285714285715 0 32.21986285714286 0 29.142857142857142V5.571428571428571C0 2.4944159999999997 2.494412571428571 0 5.571428571428571 0h33.42857142857142C42.07714285714286 0 44.57142857142857 2.494412571428571 44.57142857142857 5.571428571428571v12.857142857142856c0 1.1834742857142857 -0.9593142857142857 2.142857142857143 -2.142857142857143 2.142857142857143s-2.142857142857143 -0.9593828571428571 -2.142857142857143 -2.142857142857143V10.63176l-17.049085714285713 11.366057142857143c-0.5758285714285714 0.3838628571428571 -1.3259999999999998 0.3838628571428571 -1.9018285714285712 0L4.285714285714286 10.63176Zm29.947474285714286 11.015794285714286c0.50544 -0.009737142857142857 1.0032685714285714 0.12212571428571428 1.4376685714285715 0.38060571428571427 0.4340571428571428 0.2585142857142857 0.7875428571428571 0.63336 1.0196571428571428 1.08216l0.013028571428571428 0.02496 -0.00034285714285714285 0.00010285714285714286 2.7853714285714286 5.6029028571428565 6.174857142857142 0.9375428571428572c0.5016 0.06956571428571427 0.9737142857142855 0.2784 1.3628571428571428 0.6030171428571428 0.39497142857142853 0.32945142857142856 0.6881142857142857 0.7645371428571428 0.8448 1.2543771428571429 0.15668571428571426 0.48983999999999994 0.1707428571428571 1.0141714285714285 0.04045714285714285 1.5117257142857141 -0.12925714285714285 0.49371428571428566 -0.3953142857142857 0.9407314285714286 -0.7676571428571428 1.2897942857142857l-4.300114285714286 4.086514285714285 0.9072 6.382628571428571c0.08982857142857142 0.49165714285714285 0.04217142857142857 0.9990857142857142 -0.13885714285714285 1.4660571428571427 -0.18925714285714285 0.4885714285714285 -0.5163428571428571 0.912 -0.9414857142857143 1.2185142857142857 -0.4251428571428571 0.3061714285714286 -0.9301714285714284 0.48274285714285714 -1.4537142857142855 0.5081142857142856 -0.5088 0.024685714285714283 -1.0138285714285715 -0.09497142857142857 -1.457142857142857 -0.34422857142857144l-5.482971428571428 -2.902628571428571 -5.4828 2.902628571428571c-0.44355428571428573 0.24925714285714284 -0.9486171428571427 0.3689142857142857 -1.4573485714285712 0.34422857142857144 -0.5235085714285713 -0.025371428571428573 -1.0284342857142856 -0.20194285714285715 -1.4535771428571427 -0.5081142857142856 -0.4251085714285714 -0.3065142857142857 -0.7521942857142857 -0.7299428571428571 -0.9415885714285713 -1.2185142857142857 -0.18425142857142857 -0.4755428571428571 -0.23043428571428573 -0.9929142857142857 -0.1337142857142857 -1.493142857142857l1.0475657142857142 -6.219771428571429 -4.455497142857142 -4.266171428571428 -0.034937142857142854 -0.03329142857142857 0.0005142857142857142 -0.00047999999999999996c-0.34933714285714285 -0.35382857142857144 -0.5944799999999999 -0.7970057142857142 -0.7086514285714286 -1.2809485714285713 -0.11417142857142858 -0.4839428571428571 -0.0929142857142857 -0.9899657142857142 0.061439999999999995 -1.4626285714285712 0.15431999999999998 -0.47266285714285716 0.43580571428571424 -0.8937257142857142 0.8135314285714285 -1.21704 0.37776 -0.32331428571428567 0.837222857142857 -0.5364 1.3280571428571428 -0.6159085714285714l0.025474285714285713 -0.004148571428571428 0.00003428571428571428 0.00020571428571428572L29.066057142857144 28.770514285714288l2.777897142857143 -5.5880914285714285c0.21538285714285713 -0.4481485714285714 0.5500457142857142 -0.8285485714285714 0.9674399999999999 -1.0992685714285715 0.42401142857142854 -0.2750057142857143 0.9165257142857143 -0.4258971428571428 1.4217942857142856 -0.4356Z" clip-rule="evenodd" stroke-width="3.4286"></path>
  </g>
</svg>