<svg xmlns="http://www.w3.org/2000/svg" fill="none" viewBox="0 0 48 48" id="Inbox-Favorite-Heart--Streamline-Core-Remix" height="48" width="48">
  <desc>
    Inbox Favorite Heart Streamline Icon: https://streamlinehq.com
  </desc>
  <g id="Free Remix/Mail/Mail/Inbox/inbox-favorite-heart--mail-envelope-email-message-heart-favorite-like-love-important-bookmark">
    <path id="Union" fill="#000000" fill-rule="evenodd" d="M4.285714285714286 10.63176V29.142857142857142c0 0.7100914285714285 0.5756228571428571 1.2857142857142856 1.2857142857142856 1.2857142857142856h9.428571428571429c1.1834742857142857 0 2.142857142857143 0.9593828571428571 2.142857142857143 2.142857142857143s-0.9593828571428571 2.142857142857143 -2.142857142857143 2.142857142857143h-9.428571428571429C2.494412571428571 34.714285714285715 0 32.21986285714286 0 29.142857142857142V5.571428571428571C0 2.4944159999999997 2.494412571428571 0 5.571428571428571 0h33.42857142857142C42.07714285714286 0 44.57142857142857 2.494412571428571 44.57142857142857 5.571428571428571v12.857142857142856c0 1.1834742857142857 -0.9593142857142857 2.142857142857143 -2.142857142857143 2.142857142857143s-2.142857142857143 -0.9593828571428571 -2.142857142857143 -2.142857142857143V10.63176l-17.049085714285713 11.366057142857143c-0.5758285714285714 0.3838628571428571 -1.3259999999999998 0.3838628571428571 -1.9018285714285712 0L4.285714285714286 10.63176Zm30.857142857142854 17.463325714285713c-1.6251085714285713 -1.4148 -3.3503314285714287 -2.1690857142857145 -5.07072 -2.2893942857142857 -2.1821485714285713 -0.15257142857142855 -4.0984799999999995 0.7354285714285713 -5.4621257142857145 2.1041142857142856 -2.6518971428571425 2.6616342857142854 -3.499954285714286 7.537851428571428 -0.05352 10.902308571428572l-0.00037714285714285714 0.00034285714285714285 0.03267428571428571 0.03017142857142857 9.38886857142857 8.700342857142855c0.6574285714285714 0.6092571428571428 1.6729714285714286 0.6092571428571428 2.3305714285714285 0l9.3888 -8.700342857142855 0.00034285714285714285 0.0006857142857142857 0.03188571428571428 -0.0312c3.4464 -3.3644571428571424 2.5981714285714284 -8.240674285714285 -0.05348571428571428 -10.902308571428572 -1.3635428571428572 -1.3686857142857143 -3.2801142857142853 -2.256685714285714 -5.462057142857143 -2.1041142857142856 -1.720457142857143 0.12030857142857143 -3.4457142857142853 0.8745942857142857 -5.070857142857143 2.2893942857142857Z" clip-rule="evenodd" stroke-width="3.4286"></path>
  </g>
</svg>