<svg xmlns="http://www.w3.org/2000/svg" fill="none" viewBox="0 0 48 48" id="Incoming-Call--Streamline-Core-Remix" height="48" width="48">
  <desc>
    Incoming Call Streamline Icon: https://streamlinehq.com
  </desc>
  <g id="Free Remix/Phone/incoming-call--android-phone-mobile-device-smartphone-iphone-ringing-incoming-call">
    <path id="Union" fill="#000000" fill-rule="evenodd" d="M5.672502857142857 17.44073142857143 9.738754285714284 13.374514285714286 1.1825177142857142 4.818274285714286c-1.0042056 -1.0041942857142856 -1.0042056 -2.632344 0 -3.636548571428571 1.004208 -1.0042056 2.6323508571428573 -1.0042052571428572 3.636545142857143 0l8.556239999999999 8.556239999999999 4.066388571428571 -4.066388571428571c0.6128571428571428 -0.6128571428571428 1.5345257142857143 -0.7962171428571427 2.3352685714285712 -0.4645371428571428 0.8007085714285713 0.33168000000000003 1.3228114285714285 1.1130514285714284 1.3228114285714285 1.97976l0 11.76918857142857c0 1.1834399999999998 -0.9593828571428571 2.142857142857143 -2.142857142857143 2.142857142857143l-11.76918857142857 -0.00003428571428571428c-0.8667085714285714 0 -1.6480457142857141 -0.5220685714285713 -1.9797257142857143 -1.3228114285714285 -0.33168000000000003 -0.8007085714285713 -0.14835428571428572 -1.7224114285714285 0.4645028571428571 -2.3352685714285712Zm30.33675428571428 -9.221245714285713c2.0108571428571427 -1.98936 5.307428571428571 -1.98936 7.3182857142857145 0l0 -0.00003428571428571428 0.008228571428571427 0.00816 1.2665142857142857 1.2666857142857142c3.7512 3.648102857142857 4.466399999999999 9.55656 1.6916571428571427 13.994434285714286 -0.013028571428571428 0.02057142857142857 -0.026057142857142855 0.04093714285714285 -0.03977142857142857 0.06106285714285714 -6.017485714285714 8.934034285714285 -13.704822857142856 16.62140571428571 -22.63889142857143 22.63889142857143l0.00027428571428571427 0.00034285714285714285 -0.03726857142857142 0.024c-4.396114285714286 2.8306285714285715 -10.307691428571427 2.1994285714285713 -14.00664 -1.4962285714285715l-0.0007542857142857143 -0.0006857142857142857 -1.2777942857142857 -1.2778285714285713 -0.008125714285714286 -0.008228571428571427c-1.98936 -2.0108571428571427 -1.98936 -5.307428571428571 0 -7.3182857142857145l-0.00003428571428571428 0 0.012925714285714285 -0.012685714285714286 5.3787771428571425 -5.345211428571429 1.0804457142857142 -0.8211428571428571c-0.0005828571428571429 0.00034285714285714285 -0.0011314285714285714 0.0006514285714285715 -0.0017142857142857142 0.0009599999999999999l-1.0773257142857142 0.8187428571428571c0.3281828571428571 -0.3264685714285714 0.6910971428571429 -0.5993828571428571 1.0773257142857142 -0.8187428571428571l14.773302857142857 -11.227337142857143c-0.5009828571428571 -1.745142857142857 -0.0756 -3.7119771428571426 1.2762171428571427 -5.080628571428571L35.97257142857143 8.256822857142858l0.03668571428571428 -0.03733714285714285Zm2.213142857142857 3.879737142857143L29.52867428571428 18.706354285714283c0 0.00003428571428571428 0 0.00006857142857142857 0.00003428571428571428 0.00013714285714285713L38.22239999999999 12.09942857142857l0 -0.00020571428571428572Zm1.4290285714285713 -1.085897142857143 3.6761142857142857 -2.79384 -3.6761142857142857 2.79384c0.2417142857142857 -0.0041142857142857136 0.48479999999999995 0.0792342857142857 0.6593142857142856 0.25008l1.272342857142857 1.2724457142857142 0.023657142857142856 0.02352 0 -0.00017142857142857143c2.3029714285714284 2.232582857142857 2.7565714285714287 5.90208 1.0714285714285714 8.628445714285714 -5.701714285714286 8.455954285714286 -12.980502857142856 15.733268571428571 -21.43762285714286 21.43326857142857 -2.698765714285714 1.725942857142857 -6.371657142857143 1.3296 -8.639177142857143 -0.9353142857142857l-0.0007199999999999999 -0.0006857142857142857 -1.2689828571428572 -1.2689142857142857 -0.0028457142857142856 -0.002742857142857143c-0.33301714285714284 -0.3401142857142857 -0.3335314285714286 -0.9418285714285713 -0.0015428571428571427 -1.2826285714285712l5.371714285714286 -5.338251428571429 0.0014399999999999999 -0.0014057142857142855c0.32845714285714284 -0.32705142857142855 0.91824 -0.32705142857142855 1.2467314285714286 0l0.004834285714285714 0.0048c2.0108914285714286 1.9892571428571428 5.3073942857142855 1.9892571428571428 7.3182857142857145 0l0.008194285714285715 -0.008125714285714286 -0.00003428571428571428 0 8.574685714285714 -8.574685714285714 0.00816 -0.00816 -0.00003428571428571428 0c1.9892571428571428 -2.0108914285714286 1.9892571428571428 -5.307428571428571 0 -7.3182857142857145l-0.0048 -0.004868571428571429c-0.32705142857142855 -0.32845714285714284 -0.32705142857142855 -0.91824 0 -1.2466971428571427l0.025577142857142854 -0.025679999999999998 -0.00023999999999999998 -0.00023999999999999998L38.22239999999999 12.09942857142857l1.4290285714285713 -1.086102857142857Zm0 0 -1.4290285714285713 1.085897142857143 0.8139428571428571 -0.8455542857142857c0.16525714285714285 -0.15641142857142856 0.38948571428571427 -0.23650285714285713 0.6150857142857142 -0.2403428571428571ZM29.528708571428567 18.70649142857143 14.757085714285713 29.93273142857143c1.9674171428571425 -1.1163085714285714 4.539805714285714 -0.8433942857142857 6.211474285714285 0.8187428571428571 0.34049142857142856 0.33401142857142857 0.944022857142857 0.3341485714285714 1.2847542857142857 0.00037714285714285714l8.564022857142858 -8.564022857142858c0.3345942857142857 -0.3415542857142857 0.33363428571428566 -0.9471428571428571 -0.002777142857142857 -1.2871885714285713l1.5233485714285713 -1.507062857142857 -1.5185485714285714 1.5118971428571426c-0.6285942857142857 -0.6313714285714286 -1.0588114285714285 -1.3914514285714283 -1.2906514285714286 -2.198982857142857Z" clip-rule="evenodd" stroke-width="3.4286"></path>
  </g>
</svg>