<svg xmlns="http://www.w3.org/2000/svg" fill="none" viewBox="0 0 48 48" id="Incognito-Mode--Streamline-Core-Remix" height="48" width="48">
  <desc>
    Incognito Mode Streamline Icon: https://streamlinehq.com
  </desc>
  <g id="Free Remix/Programming/Programming/Web/incognito-mode--internet-safe-mode-browser">
    <path id="Union" fill="#000000" fill-rule="evenodd" d="M14.90478857142857 1.7142857142857142c-2.5085485714285713 0 -4.650205714285714 1.8096342857142855 -5.070137142857143 4.281154285714285L7.223657142857142 20.142857142857142H3.4285714285714284c-1.1834674285714284 0 -2.142857142857143 0.9593828571428571 -2.142857142857143 2.142857142857143s0.9593897142857143 2.142857142857143 2.142857142857143 2.142857142857143h41.14285714285714c1.183542857142857 0 2.142857142857143 -0.9593828571428571 2.142857142857143 -2.142857142857143s-0.9593142857142857 -2.142857142857143 -2.142857142857143 -2.142857142857143h-3.7954285714285714l-2.6101714285714284 -14.147211428571428C37.74582857142857 3.524022857142857 35.60399999999999 1.7142857142857142 33.09552 1.7142857142857142H14.90478857142857ZM29.57142857142857 36.85542857142857c0 -3.078102857142857 2.4951771428571425 -5.57328 5.573142857142857 -5.57328 3.0778285714285714 0 5.573142857142857 2.4951771428571425 5.573142857142857 5.57328 0 3.0778285714285714 -2.4953142857142856 5.5728 -5.573142857142857 5.5728 -3.077965714285714 0 -5.573142857142857 -2.4949714285714286 -5.573142857142857 -5.5728ZM24.001062857142855 31.28173714285714c0.9909942857142857 0.0008571428571428571 1.874777142857143 0.2049942857142857 2.636297142857143 0.5879657142857143 1.7125028571428569 -2.9157942857142856 4.881222857142856 -4.8732685714285715 8.507211428571427 -4.8732685714285715 5.444914285714286 0 9.858857142857143 4.413942857142858 9.858857142857143 9.858994285714285 0 5.444571428571429 -4.413942857142858 9.858514285714286 -9.858857142857143 9.858514285714286 -5.4444 0 -9.857999999999999 -4.412914285714285 -9.858857142857143 -9.857142857142856l-0.003257142857142857 0.00034285714285714285 0 0.0020571428571428568 0.00003428571428571428 0.0037714285714285714 0.00003428571428571428 0.006857142857142857 0.00010285714285714286 0.009942857142857142 0.00017142857142857143 0.008228571428571427c0.00003428571428571428 0 -0.00030857142857142856 -0.0096 -0.0016114285714285714 -0.02777142857142857 -0.002605714285714286 -0.03668571428571428 -0.008914285714285713 -0.10319999999999999 -0.023177142857142858 -0.1889142857142857 -0.030205714285714284 -0.18137142857142857 -0.08664 -0.39017142857142856 -0.1781485714285714 -0.5732571428571428 -0.08729142857142856 -0.1745142857142857 -0.1845942857142857 -0.28388571428571424 -0.2904 -0.3545142857142857 -0.0924 -0.06171428571428571 -0.3118971428571428 -0.17622857142857143 -0.7944685714285714 -0.17622857142857143 -0.48253714285714283 0 -0.702 0.11451428571428571 -0.7943999999999999 0.17622857142857143 -0.10580571428571428 0.07062857142857143 -0.20310857142857142 0.18 -0.2904 0.3545142857142857 -0.09150857142857141 0.1830857142857143 -0.14794285714285713 0.3918857142857143 -0.1781485714285714 0.5732571428571428 -0.01073142857142857 0.06445714285714285 -0.016937142857142855 0.11794285714285714 -0.020502857142857142 0.15634285714285714l0.00003428571428571428 0.02777142857142857c0 5.444914285714286 -4.413874285714285 9.858857142857143 -9.85872 9.858857142857143 -5.444811428571429 0 -9.858716571428571 -4.413942857142858 -9.858716571428571 -9.858857142857143 0 -5.444674285714286 4.413905142857142 -9.858582857142856 9.858716571428571 -9.858582857142856 3.6246171428571428 0 6.792377142857142 1.9560685714285715 8.505257142857143 4.8701485714285715 0.7618628571428571 -0.38201142857142856 1.6458514285714285 -0.5852571428571428 2.636948571428571 -0.5852571428571428l0.006 0Zm-5.5752 5.573691428571428v-0.0020571428571428568l-0.003977142857142857 -0.00034285714285714285 0 -0.0024 0 -0.004457142857142857 0.00006857142857142857 -0.010628571428571428 0.00030857142857142856 -0.024685714285714283 0.0016457142857142857 -0.06548571428571427 0.0005485714285714285 -0.016114285714285713c-0.0672 -3.0195771428571425 -2.535942857142857 -5.4466971428571425 -5.5716 -5.4466971428571425 -3.0778971428571427 0 -5.5730057142857135 2.495142857142857 -5.5730057142857135 5.572868571428572 0 3.0781714285714283 2.4951085714285717 5.573142857142857 5.5730057142857135 5.573142857142857 3.0778971428571427 0 5.5730057142857135 -2.4949714285714286 5.5730057142857135 -5.573142857142857Z" clip-rule="evenodd" stroke-width="3.4286"></path>
  </g>
</svg>