<svg xmlns="http://www.w3.org/2000/svg" fill="none" viewBox="0 0 48 48" id="Industry-Innovation-And-Infrastructure--Streamline-Core-Remix" height="48" width="48">
  <desc>
    Industry Innovation And Infrastructure Streamline Icon: https://streamlinehq.com
  </desc>
  <g id="Free Remix/Nature Ecology/industry-innovation-and-infrastructure">
    <path id="Union" fill="#000000" fill-rule="evenodd" d="M23.04216 3.2262274285714283c0.6032571428571428 -0.30163542857142855 1.3133485714285713 -0.30163542857142855 1.9166399999999997 0L35.22514285714285 8.359405714285714c0.3994285714285714 0.1944 0.7419428571428571 0.5140114285714286 0.9620571428571428 0.9370971428571429 0.015428571428571427 0.029897142857142858 0.03017142857142857 0.06017142857142857 0.04457142857142857 0.09078857142857143 0.14057142857142857 0.3043542857142857 0.204 0.6258171428571428 0.19714285714285715 0.9414857142857143v10.632582857142857l9.081942857142856 4.540971428571428c0.3994285714285714 0.19436571428571425 0.7419428571428571 0.5139771428571428 0.9620571428571428 0.9370285714285713 0.01577142857142857 0.030274285714285712 0.030514285714285713 0.06096 0.04491428571428571 0.09198857142857142 0.14057142857142857 0.30397714285714283 0.20365714285714284 0.6250285714285714 0.19679999999999997 0.9402857142857142V39.42857142857142c0 0.8115428571428571 -0.45840000000000003 1.5534857142857141 -1.1845714285714284 1.9165714285714286l-10.285714285714285 5.142857142857142c-0.6030857142857142 0.30171428571428566 -1.3132114285714287 0.30171428571428566 -1.9164685714285712 0l-9.327394285714284 -4.663542857142857 -9.327394285714284 4.663542857142857c-0.6032914285714286 0.30171428571428566 -1.3133828571428572 0.30171428571428566 -1.9166399999999997 0l-10.285721142857142 -5.142857142857142c-0.7259657142857143 -0.36308571428571423 -1.1845405714285713 -1.1050285714285712 -1.1845405714285713 -1.9165714285714286V27.47166857142857c-0.006558857142857142 -0.3127885714285714 0.05549485714285714 -0.6312685714285714 0.19358399999999998 -0.9331885714285713 0.015288 -0.03346285714285714 0.03142971428571428 -0.0665142857142857 0.04839771428571428 -0.09912 0.21999771428571427 -0.42308571428571423 0.5623645714285714 -0.7426971428571428 0.961854857142857 -0.9370628571428571L11.57190857142857 20.96136V10.328811428571429c-0.006582857142857143 -0.3127885714285714 0.05547428571428571 -0.6312685714285714 0.19357714285714286 -0.9331885714285713 0.015291428571428572 -0.03346285714285714 0.031439999999999996 -0.0665142857142857 0.048377142857142855 -0.09912 0.22001142857142858 -0.42308571428571423 0.5624228571428571 -0.7427314285714285 0.9619199999999999 -0.9370971428571429L23.04216 3.2262274285714283ZM5.571908571428572 30.895782857142855 12.756445714285713 34.48799999999999c0.6032571428571428 0.30171428571428566 1.3133485714285713 0.30171428571428566 1.9166399999999997 0l7.184537142857142 -3.5922171428571428v7.208331428571428l-8.142857142857142 4.071428571428571 -8.142857142857142 -4.071428571428571V30.895782857142855Zm20.57142857142857 7.208331428571428V30.895782857142855L33.32787428571428 34.48799999999999c0.6032571428571428 0.30171428571428566 1.3133828571428572 0.30171428571428566 1.9164685714285712 0l7.184571428571428 -3.5922171428571428v7.208331428571428l-8.142857142857142 4.071428571428571 -8.14272 -4.071428571428571Zm-10.285714285714285 -24.35118857142857v7.2084342857142865l8.142857142857142 4.071428571428571 8.142857142857142 -4.071428571428571V13.752925714285713L24.9588 17.345211428571428c-0.6032914285714286 0.3016114285714286 -1.3133828571428572 0.3016114285714286 -1.9166399999999997 0L15.857622857142857 13.752925714285713Z" clip-rule="evenodd" stroke-width="3.4286"></path>
  </g>
</svg>