<svg xmlns="http://www.w3.org/2000/svg" fill="none" viewBox="0 0 48 48" id="Information-Desk-Customer--Streamline-Core-Remix" height="48" width="48">
  <desc>
    Information Desk Customer Streamline Icon: https://streamlinehq.com
  </desc>
  <g id="Free Remix/Map Travel/information-desk-customer">
    <path id="Union" fill="#000000" fill-rule="evenodd" d="M9 9c0 -2.6036228571428572 2.110662857142857 -4.714285714285714 4.714285714285714 -4.714285714285714s4.714285714285714 2.110662857142857 4.714285714285714 4.714285714285714S16.31790857142857 13.714285714285714 13.714285714285714 13.714285714285714s-4.714285714285714 -2.110662857142857 -4.714285714285714 -4.714285714285714Zm13.714285714285714 0c0 2.4564 -0.9841028571428572 4.682982857142856 -2.57952 6.306925714285714C24.47358857142857 17.609862857142858 27.428571428571427 22.174114285714285 27.428571428571427 27.428571428571427v4.714285714285714c0 1.1834742857142857 -0.9593828571428571 2.142857142857143 -2.142857142857143 2.142857142857143H21.605965714285713l-1.4796685714285713 11.837142857142856C19.992274285714284 47.19531428571428 19.080685714285714 48 18 48h-8.571428571428571c-1.0806857142857142 0 -1.9922742857142857 -0.8046857142857142 -2.1262971428571427 -1.877142857142857L5.822605714285714 34.285714285714285H2.142857142857143C0.9593897142857143 34.285714285714285 0 33.32633142857142 0 32.14285714285714V27.428571428571427c0 -5.2544571428571425 2.9549965714285715 -9.818708571428571 7.293805714285714 -12.121645714285714C5.698388571428571 13.682982857142857 4.714285714285714 11.456399999999999 4.714285714285714 9 4.714285714285714 4.0294285714285705 8.743714285714285 0 13.714285714285714 0s9 4.0294285714285705 9 9ZM36 4.285714285714286c-1.893565714285714 0 -3.4285714285714284 1.53504 -3.4285714285714284 3.4285714285714284s1.535005714285714 3.4285714285714284 3.4285714285714284 3.4285714285714284c1.8936 0 3.4285714285714284 -1.53504 3.4285714285714284 -3.4285714285714284s-1.5349714285714284 -3.4285714285714284 -3.4285714285714284 -3.4285714285714284Zm-7.7142857142857135 3.4285714285714284C28.285714285714285 3.453805714285714 31.73952 0 36 0c4.260342857142857 0 7.7142857142857135 3.453805714285714 7.7142857142857135 7.7142857142857135 0 1.8983999999999999 -0.6857142857142857 3.636651428571428 -1.8229714285714282 4.980548571428572 3.6421714285714284 2.058205714285714 6.101142857142857 5.965954285714285 6.101142857142857 10.448022857142858 0 1.1834742857142857 -0.9593142857142857 2.142857142857143 -2.142857142857143 2.142857142857143H32.57132571428571c-1.1834742857142857 0 -2.142857142857143 -0.9593828571428571 -2.142857142857143 -2.142857142857143 0 -1.1834399999999998 0.9593828571428571 -2.142857142857143 2.142857142857143 -2.142857142857143h10.83336c-0.9281142857142857 -3.2137371428571426 -3.8921142857142854 -5.563885714285714 -7.404685714285714 -5.563885714285714 -1.9183542857142857 0 -3.6681257142857144 0.6980571428571428 -5.017508571428571 1.856742857142857 -0.8978742857142856 0.7710171428571428 -2.2507542857142857 0.66816 -3.021737142857143 -0.2297142857142857 -0.7709828571428571 -0.8978742857142856 -0.6681257142857142 -2.2507542857142857 0.2297485714285714 -3.021737142857143 0.5918399999999999 -0.5082171428571428 1.234217142857143 -0.9598285714285713 1.9184571428571426 -1.3463314285714285C28.971531428571428 11.351142857142857 28.285714285714285 9.612822857142856 28.285714285714285 7.7142857142857135Z" clip-rule="evenodd" stroke-width="3.4286"></path>
  </g>
</svg>