<svg xmlns="http://www.w3.org/2000/svg" fill="none" viewBox="0 0 48 48" id="Information-Circle--Streamline-Core-Remix" height="48" width="48">
  <desc>
    Information Circle Streamline Icon: https://streamlinehq.com
  </desc>
  <g id="Free Remix/Interface Essential/information-circle--information-frame-info-more-help-point-circle">
    <path id="Union" fill="#000000" fill-rule="evenodd" d="M4.285714285714286 24c0 -10.887908571428571 8.826377142857142 -19.71428571428571 19.71428571428571 -19.71428571428571 10.887771428571428 0 19.71428571428571 8.826377142857142 19.71428571428571 19.71428571428571 0 10.887771428571428 -8.826514285714284 19.71428571428571 -19.71428571428571 19.71428571428571 -10.887908571428571 0 -19.71428571428571 -8.826514285714284 -19.71428571428571 -19.71428571428571ZM24 0C10.745177142857143 0 0 10.745177142857143 0 24c0 13.254857142857142 10.745177142857143 24 24 24 13.254857142857142 0 24 -10.745142857142856 24 -24 0 -13.254822857142857 -10.745142857142856 -24 -24 -24Zm0 17.142857142857142c-1.8935314285714284 0 -3.4285714285714284 -1.53504 -3.4285714285714284 -3.4285714285714284s1.53504 -3.4285714285714284 3.4285714285714284 -3.4285714285714284 3.4285714285714284 1.53504 3.4285714285714284 3.4285714285714284 -1.53504 3.4285714285714284 -3.4285714285714284 3.4285714285714284ZM18 22.285714285714285c0 -1.4201485714285715 1.1512799999999999 -2.571428571428571 2.571428571428571 -2.571428571428571h3.4285714285714284c1.4201485714285715 0 2.571428571428571 1.1512799999999999 2.571428571428571 2.571428571428571v9.428571428571429h2.571428571428571c1.4201485714285715 0 2.571428571428571 1.1512799999999999 2.571428571428571 2.571428571428571 0 1.4201142857142857 -1.1512799999999999 2.571428571428571 -2.571428571428571 2.571428571428571h-10.285714285714285c-1.4201485714285715 0 -2.571428571428571 -1.1513142857142855 -2.571428571428571 -2.571428571428571 0 -1.4201485714285715 1.1512799999999999 -2.571428571428571 2.571428571428571 -2.571428571428571h2.571428571428571v-6.857142857142857H20.57142857142857c-1.4201485714285715 0 -2.571428571428571 -1.1512799999999999 -2.571428571428571 -2.571428571428571Z" clip-rule="evenodd" stroke-width="3.4286"></path>
  </g>
</svg>