<svg xmlns="http://www.w3.org/2000/svg" fill="none" viewBox="0 0 48 48" id="Information-Desk--Streamline-Core-Remix" height="48" width="48">
  <desc>
    Information Desk Streamline Icon: https://streamlinehq.com
  </desc>
  <g id="Free Remix/Map Travel/information-desk">
    <path id="Union" fill="#000000" fill-rule="evenodd" d="M36.42857142857142 4.285714285714286c0 1.6568571428571428 1.3433142857142857 3 3 3s3 -1.343142857142857 3 -3c0 -1.656853714285714 -1.3433142857142857 -3 -3 -3s-3 1.3431462857142857 -3 3Zm-2.571428571428571 7.7142857142857135c0 -1.1834742857142857 0.9593142857142857 -2.142857142857143 2.142857142857143 -2.142857142857143h3.4285714285714284c1.183542857142857 0 2.142857142857143 0.9593828571428571 2.142857142857143 2.142857142857143v8.142857142857142H44.57142857142857c1.183542857142857 0 2.142857142857143 0.9593828571428571 2.142857142857143 2.142857142857143s-0.9593142857142857 2.142857142857143 -2.142857142857143 2.142857142857143h-10.285714285714285c-1.1834742857142857 0 -2.142857142857143 -0.9593828571428571 -2.142857142857143 -2.142857142857143s0.9593828571428571 -2.142857142857143 2.142857142857143 -2.142857142857143h3v-6H36c-1.183542857142857 0 -2.142857142857143 -0.9593828571428571 -2.142857142857143 -2.142857142857143ZM13.284891428571429 21.857108571428572C13.284891428571429 19.253485714285713 15.39552 17.142857142857142 17.999142857142854 17.142857142857142c2.6035885714285714 0 4.714251428571428 2.1106285714285713 4.714251428571428 4.714251428571428 0 2.6036228571428572 -2.110662857142857 4.714251428571428 -4.714251428571428 4.714251428571428 -2.6036228571428572 0 -4.714251428571428 -2.1106285714285713 -4.714251428571428 -4.714251428571428ZM17.999142857142854 12.857142857142856C13.028571428571427 12.857142857142856 8.999177142857143 16.88657142857143 8.999177142857143 21.857108571428572S13.028571428571427 30.857074285714287 17.999142857142854 30.857074285714287c4.970537142857142 0 8.999965714285713 -4.0294285714285705 8.999965714285713 -8.999965714285713S22.969679999999997 12.857142857142856 17.999142857142854 12.857142857142856Zm-14.39153142857143 29.57142857142857C5.841805714285714 36.66171428571428 11.440937142857141 32.57142857142857 17.999005714285715 32.57142857142857c6.558102857142856 0 12.1572 4.090285714285714 14.39142857142857 9.857142857142856H45.857142857142854c1.183542857142857 0 2.142857142857143 0.9593142857142857 2.142857142857143 2.142857142857143s-0.9593142857142857 2.142857142857143 -2.142857142857143 2.142857142857143H2.142857142857143C0.9593897142857143 46.71428571428571 0 45.75497142857142 0 44.57142857142857s0.9593897142857143 -2.142857142857143 2.142857142857143 -2.142857142857143h1.4647542857142857Z" clip-rule="evenodd" stroke-width="3.4286"></path>
  </g>
</svg>