<svg xmlns="http://www.w3.org/2000/svg" fill="none" viewBox="0 0 48 48" id="Input-Box--Streamline-Core-Remix" height="48" width="48">
  <desc>
    Input Box Streamline Icon: https://streamlinehq.com
  </desc>
  <g id="Free Remix/Interface Essential/input-box--cursor-text-formatting-type-format">
    <path id="Union" fill="#000000" fill-rule="evenodd" d="M9 3.4285714285714284c0 -1.656853714285714 1.343142857142857 -3 3 -3h10.285714285714285c1.6568571428571428 0 3 1.3431462857142857 3 3 0 1.6568571428571428 -1.343142857142857 3 -3 3h-2.142857142857143v35.14285714285714H22.285714285714285c1.6568571428571428 0 3 1.3433142857142857 3 3s-1.343142857142857 3 -3 3h-10.285714285714285c-1.6568571428571428 0 -3 -1.3433142857142857 -3 -3s1.343142857142857 -3 3 -3h2.142857142857143V6.428571428571428H12c-1.6568571428571428 0 -3 -1.343142857142857 -3 -3ZM0 17.142857142857142c0 -3.0770057142857143 2.494412571428571 -5.571428571428571 5.571428571428571 -5.571428571428571h2.571428571428571c1.1834742857142857 0 2.142857142857143 0.9593828571428571 2.142857142857143 2.142857142857143s-0.9593828571428571 2.142857142857143 -2.142857142857143 2.142857142857143h-2.571428571428571c-0.7100914285714285 0 -1.2857142857142856 0.5756228571428571 -1.2857142857142856 1.2857142857142856v13.714285714285714c0 0.7100914285714285 0.5756228571428571 1.2857142857142856 1.2857142857142856 1.2857142857142856h2.571428571428571c1.1834742857142857 0 2.142857142857143 0.9593828571428571 2.142857142857143 2.142857142857143 0 1.183542857142857 -0.9593828571428571 2.142857142857143 -2.142857142857143 2.142857142857143h-2.571428571428571C2.494412571428571 36.42857142857142 0 33.93414857142857 0 30.857142857142854V17.142857142857142Zm26.142857142857142 -5.571428571428571C24.959382857142856 11.571428571428571 24 12.530811428571427 24 13.714285714285714s0.9593828571428571 2.142857142857143 2.142857142857143 2.142857142857143h16.285714285714285c0.7100571428571428 0 1.2857142857142856 0.5756228571428571 1.2857142857142856 1.2857142857142856v13.714285714285714c0 0.7100914285714285 -0.5756571428571428 1.2857142857142856 -1.2857142857142856 1.2857142857142856h-16.285714285714285C24.959382857142856 32.14285714285714 24 33.10224 24 34.285714285714285c0 1.183542857142857 0.9593828571428571 2.142857142857143 2.142857142857143 2.142857142857143h16.285714285714285C45.505714285714284 36.42857142857142 48 33.93414857142857 48 30.857142857142854V17.142857142857142c0 -3.0770057142857143 -2.494285714285714 -5.571428571428571 -5.571428571428571 -5.571428571428571h-16.285714285714285Z" clip-rule="evenodd" stroke-width="3.4286"></path>
  </g>
</svg>