<svg xmlns="http://www.w3.org/2000/svg" fill="none" viewBox="0 0 48 48" id="Insert-Cloud-Video--Streamline-Core-Remix" height="48" width="48">
  <desc>
    Insert Cloud Video Streamline Icon: https://streamlinehq.com
  </desc>
  <g id="Free Remix/Programming/Programming/Clouds/insert-cloud-video">
    <path id="Union" fill="#000000" fill-rule="evenodd" d="M17.15633142857143 2.3100377142857145C20.099657142857144 0.46895657142857144 23.58517714285714 -0.3074441142857143 27.031679999999998 0.11031154285714286 30.47814857142857 0.5280685714285713 33.67724571428571 2.1147291428571426 36.09565714285714 4.605702857142856c2.1949714285714284 2.2612114285714284 3.6264000000000003 5.143577142857143 4.107771428571428 8.242285714285714 2.309142857142857 0.7594285714285713 4.322742857142857 2.2443771428571426 5.731885714285713 4.246354285714285 1.5980571428571428 2.2700228571428567 2.308114285714286 5.047165714285714 1.9957714285714283 7.80558857142857 -0.312 2.758422857142857 -1.6247999999999998 5.306605714285714 -3.6898285714285715 7.16208 -0.8293714285714285 0.7455085714285714 -1.757485714285714 1.3585028571428572 -2.7510857142857144 1.8260571428571426 -1.0707428571428572 0.5039314285714286 -2.3472 0.04453714285714285 -2.8512 -1.0262399999999998 -0.5039999999999999 -1.0707771428571426 -0.04457142857142857 -2.3474057142857143 1.0261714285714285 -2.851405714285714 0.6181714285714285 -0.2909142857142857 1.195542857142857 -0.67224 1.711542857142857 -1.13616 1.2850285714285714 -1.154502857142857 2.1017142857142854 -2.7400114285714285 2.2961142857142853 -4.45632 0.19405714285714284 -1.7162742857142856 -0.24754285714285712 -3.4442399999999997 -1.2418285714285715 -4.856674285714286 -0.9942857142857142 -1.4123999999999999 -2.472 -2.4112114285714283 -4.153371428571428 -2.8073142857142854 -0.04045714285714285 -0.0096 -0.08125714285714285 -0.0204 -0.12137142857142857 -0.0324 -0.5430857142857143 -0.16203428571428571 -1.0282285714285713 -0.47605714285714285 -1.3988571428571428 -0.9050057142857142 -0.3702857142857143 -0.4289485714285714 -0.6102857142857142 -0.9548914285714285 -0.6915428571428571 -1.5157714285714285 -0.005485714285714286 -0.037405714285714285 -0.009942857142857142 -0.07498285714285714 -0.01337142857142857 -0.11262857142857141 -0.22628571428571428 -2.4810857142857143 -1.2966857142857142 -4.809634285714285 -3.0319885714285713 -6.597222857142857 -1.7354057142857144 -1.787588571428571 -4.031177142857143 -2.9262514285714283 -6.504514285714285 -3.226045714285714 -2.473302857142857 -0.29979428571428574 -4.974651428571428 0.25738285714285714 -7.086891428571428 1.5786171428571427 -2.11224 1.3212 -3.707691428571428 3.326605714285714 -4.520297142857142 5.681794285714285 -0.02869714285714286 0.08314285714285714 -0.06246857142857143 0.16443428571428573 -0.10114285714285713 0.24342857142857138 -0.24418285714285715 0.49872 -0.6259885714285713 0.9171428571428571 -1.1003314285714285 1.2058628571428571 -0.43707428571428575 0.2660571428571428 -0.9358971428571428 0.41173714285714286 -1.4459314285714284 0.4234628571428571 -1.1080457142857143 0.08214857142857142 -2.1899314285714286 0.3778628571428571 -3.186 0.8710285714285714 -1.014 0.5020457142857143 -1.919177142857143 1.198902857142857 -2.663862857142857 2.0507999999999997 -1.503942857142857 1.7204228571428568 -2.262822857142857 3.967851428571428 -2.1097371428571425 6.2478171428571425 0.1530857142857143 2.28 1.2055885714285715 4.4057828571428574 2.9260457142857144 5.909725714285714 1.1099999999999999 0.9703199999999998 2.462228571428571 1.5813942857142855 3.992777142857143 1.8825942857142854 1.1611885714285712 0.2285142857142857 1.9172914285714284 1.3551085714285713 1.688742857142857 2.516297142857143 -0.2285142857142857 1.1611885714285712 -1.3550742857142857 1.9172914285714284 -2.516297142857143 1.6886057142857143 -2.1493371428571426 -0.42284571428571427 -4.22352 -1.3202742857142855 -5.98584 -2.8608342857142857C1.8309668571428568 29.552057142857144 0.2548906285714285 26.36886857142857 0.025659874285714285 22.9548 -0.20357074285714283 19.540731428571426 0.9328217142857143 16.175451428571428 3.184844571428571 13.599222857142856c1.1150982857142857 -1.2755999999999998 2.4705154285714284 -2.319085714285714 3.988858285714285 -3.070868571428571 1.2711771428571428 -0.6293828571428571 2.6357142857142857 -1.0439999999999998 4.038308571428571 -1.2289371428571427 1.209702857142857 -2.879725714285714 3.2825142857142855 -5.3244 5.944319999999999 -6.989379428571428ZM19.937314285714287 25.97485714285714c-0.52848 -0.3302742857142857 -1.1945485714285713 -0.34776 -1.7395885714285715 -0.045668571428571426 -0.5450742857142857 0.3020914285714285 -0.8832685714285714 0.8762057142857143 -0.8832685714285714 1.499382857142857v18.857142857142858c0 0.6233142857142856 0.3381942857142857 1.1972571428571428 0.8832685714285714 1.4993142857142856 0.54504 0.30205714285714286 1.2111085714285714 0.2845714285714286 1.7395885714285715 -0.045599999999999995l15.085542857142855 -9.428571428571429c0.5012571428571428 -0.3133714285714285 0.8060571428571428 -0.8626285714285713 0.8060571428571428 -1.4537142857142855s-0.3048 -1.140342857142857 -0.8060571428571428 -1.4537142857142855l-15.085542857142855 -9.428571428571429Z" clip-rule="evenodd" stroke-width="3.4286"></path>
  </g>
</svg>