<svg xmlns="http://www.w3.org/2000/svg" fill="none" viewBox="0 0 48 48" id="Insert-Top-Left--Streamline-Core-Remix" height="48" width="48">
  <desc>
    Insert Top Left Streamline Icon: https://streamlinehq.com
  </desc>
  <g id="Free Remix/Interface Essential/insert-top-left--alignment-wrap-formatting-paragraph-image-left-text">
    <path id="Union" fill="#000000" fill-rule="evenodd" d="M1.2857142857142856 6.857142857142857C1.2857142857142856 3.780137142857143 3.780137142857143 1.2857142857142856 6.857142857142857 1.2857142857142856h13.714285714285714c3.0770057142857143 0 5.571428571428571 2.494422857142857 5.571428571428571 5.571428571428571v13.714285714285714c0 3.0770057142857143 -2.494422857142857 5.571428571428571 -5.571428571428571 5.571428571428571H6.857142857142857C3.780137142857143 26.142857142857142 1.2857142857142856 23.648434285714284 1.2857142857142856 20.57142857142857V6.857142857142857ZM32.57142857142857 1.2857142857142856c-1.1834742857142857 0 -2.142857142857143 0.9593897142857143 -2.142857142857143 2.142857142857143 0 1.1834742857142857 0.9593828571428571 2.142857142857143 2.142857142857143 2.142857142857143H44.57142857142857c1.183542857142857 0 2.142857142857143 -0.9593828571428571 2.142857142857143 -2.142857142857143 0 -1.1834674285714284 -0.9593142857142857 -2.142857142857143 -2.142857142857143 -2.142857142857143H32.57142857142857ZM30.428571428571427 13.714285714285714c0 -1.1834742857142857 0.9593828571428571 -2.142857142857143 2.142857142857143 -2.142857142857143H44.57142857142857c1.183542857142857 0 2.142857142857143 0.9593828571428571 2.142857142857143 2.142857142857143s-0.9593142857142857 2.142857142857143 -2.142857142857143 2.142857142857143H32.57142857142857c-1.1834742857142857 0 -2.142857142857143 -0.9593828571428571 -2.142857142857143 -2.142857142857143ZM32.57142857142857 21.857142857142858c-1.1834742857142857 0 -2.142857142857143 0.9593828571428571 -2.142857142857143 2.142857142857143s0.9593828571428571 2.142857142857143 2.142857142857143 2.142857142857143H44.57142857142857c1.183542857142857 0 2.142857142857143 -0.9593828571428571 2.142857142857143 -2.142857142857143s-0.9593142857142857 -2.142857142857143 -2.142857142857143 -2.142857142857143H32.57142857142857ZM1.2857142857142856 44.57142857142857c0 -1.183542857142857 0.9593897142857143 -2.142857142857143 2.142857142857143 -2.142857142857143h41.14285714285714c1.183542857142857 0 2.142857142857143 0.9593142857142857 2.142857142857143 2.142857142857143s-0.9593142857142857 2.142857142857143 -2.142857142857143 2.142857142857143H3.4285714285714284c-1.1834674285714284 0 -2.142857142857143 -0.9593142857142857 -2.142857142857143 -2.142857142857143ZM3.4285714285714284 32.14285714285714c-1.1834674285714284 0 -2.142857142857143 0.9593828571428571 -2.142857142857143 2.142857142857143 0 1.183542857142857 0.9593897142857143 2.142857142857143 2.142857142857143 2.142857142857143h41.14285714285714c1.183542857142857 0 2.142857142857143 -0.9593142857142857 2.142857142857143 -2.142857142857143 0 -1.1834742857142857 -0.9593142857142857 -2.142857142857143 -2.142857142857143 -2.142857142857143H3.4285714285714284Z" clip-rule="evenodd" stroke-width="3.4286"></path>
  </g>
</svg>