<svg xmlns="http://www.w3.org/2000/svg" fill="none" viewBox="0 0 48 48" id="Insert-Side--Streamline-Core-Remix" height="48" width="48">
  <desc>
    Insert Side Streamline Icon: https://streamlinehq.com
  </desc>
  <g id="Free Remix/Interface Essential/insert-side--points-bullet-align-paragraph-formatting-bullets-text">
    <path id="Union" fill="#000000" fill-rule="evenodd" d="M6.428571428571428 1.2857142857142856c-2.8403314285714285 0 -5.142857142857142 2.3025257142857143 -5.142857142857142 5.142857142857142v10.285714285714285c0 2.8403314285714285 2.3025257142857143 5.142857142857142 5.142857142857142 5.142857142857142h10.285714285714285c2.8403314285714285 0 5.142857142857142 -2.3025257142857143 5.142857142857142 -5.142857142857142v-10.285714285714285c0 -2.8403314285714285 -2.3025257142857143 -5.142857142857142 -5.142857142857142 -5.142857142857142h-10.285714285714285Zm-5.142857142857142 30c0 -2.8403314285714285 2.3025257142857143 -5.142857142857142 5.142857142857142 -5.142857142857142h10.285714285714285c2.8403314285714285 0 5.142857142857142 2.3025257142857143 5.142857142857142 5.142857142857142v10.285714285714285c0 2.8402285714285713 -2.3025257142857143 5.142857142857142 -5.142857142857142 5.142857142857142h-10.285714285714285c-2.8403314285714285 0 -5.142857142857142 -2.302628571428571 -5.142857142857142 -5.142857142857142v-10.285714285714285ZM29.142857142857142 1.2857142857142856c-1.1834742857142857 0 -2.142857142857143 0.9593897142857143 -2.142857142857143 2.142857142857143 0 1.1834742857142857 0.9593828571428571 2.142857142857143 2.142857142857143 2.142857142857143H44.57142857142857c1.183542857142857 0 2.142857142857143 -0.9593828571428571 2.142857142857143 -2.142857142857143 0 -1.1834674285714284 -0.9593142857142857 -2.142857142857143 -2.142857142857143 -2.142857142857143H29.142857142857142ZM27 13.714285714285714c0 -1.1834742857142857 0.9593828571428571 -2.142857142857143 2.142857142857143 -2.142857142857143H44.57142857142857c1.183542857142857 0 2.142857142857143 0.9593828571428571 2.142857142857143 2.142857142857143s-0.9593142857142857 2.142857142857143 -2.142857142857143 2.142857142857143H29.142857142857142c-1.1834742857142857 0 -2.142857142857143 -0.9593828571428571 -2.142857142857143 -2.142857142857143ZM29.142857142857142 21.857142857142858c-1.1834742857142857 0 -2.142857142857143 0.9593828571428571 -2.142857142857143 2.142857142857143s0.9593828571428571 2.142857142857143 2.142857142857143 2.142857142857143H44.57142857142857c1.183542857142857 0 2.142857142857143 -0.9593828571428571 2.142857142857143 -2.142857142857143s-0.9593142857142857 -2.142857142857143 -2.142857142857143 -2.142857142857143H29.142857142857142ZM27 34.285714285714285c0 -1.1834742857142857 0.9593828571428571 -2.142857142857143 2.142857142857143 -2.142857142857143H44.57142857142857c1.183542857142857 0 2.142857142857143 0.9593828571428571 2.142857142857143 2.142857142857143 0 1.183542857142857 -0.9593142857142857 2.142857142857143 -2.142857142857143 2.142857142857143H29.142857142857142c-1.1834742857142857 0 -2.142857142857143 -0.9593142857142857 -2.142857142857143 -2.142857142857143Zm2.142857142857143 8.142857142857142c-1.1834742857142857 0 -2.142857142857143 0.9593142857142857 -2.142857142857143 2.142857142857143s0.9593828571428571 2.142857142857143 2.142857142857143 2.142857142857143H44.57142857142857c1.183542857142857 0 2.142857142857143 -0.9593142857142857 2.142857142857143 -2.142857142857143s-0.9593142857142857 -2.142857142857143 -2.142857142857143 -2.142857142857143H29.142857142857142Z" clip-rule="evenodd" stroke-width="3.4286"></path>
  </g>
</svg>