<svg xmlns="http://www.w3.org/2000/svg" fill="none" viewBox="0 0 48 48" id="Insert-Top-Right--Streamline-Core-Remix" height="48" width="48">
  <desc>
    Insert Top Right Streamline Icon: https://streamlinehq.com
  </desc>
  <g id="Free Remix/Interface Essential/insert-top-right--paragraph-image-text-alignment-wrap-right-formatting">
    <path id="Union" fill="#000000" fill-rule="evenodd" d="M46.71428571428571 6.857142857142857c0 -3.0770057142857143 -2.494285714285714 -5.571428571428571 -5.571428571428571 -5.571428571428571H27.428571428571427c-3.0770057142857143 0 -5.571428571428571 2.494422857142857 -5.571428571428571 5.571428571428571v13.714285714285714c0 3.0770057142857143 2.494422857142857 5.571428571428571 5.571428571428571 5.571428571428571h13.714285714285714c3.077142857142857 0 5.571428571428571 -2.494422857142857 5.571428571428571 -5.571428571428571V6.857142857142857ZM15.428571428571427 1.2857142857142856c1.1834742857142857 0 2.142857142857143 0.9593897142857143 2.142857142857143 2.142857142857143 0 1.1834742857142857 -0.9593828571428571 2.142857142857143 -2.142857142857143 2.142857142857143H3.4285714285714284C2.245104 5.571428571428571 1.2857142857142856 4.612045714285714 1.2857142857142856 3.4285714285714284 1.2857142857142856 2.245104 2.245104 1.2857142857142856 3.4285714285714284 1.2857142857142856h12ZM17.57142857142857 13.714285714285714c0 -1.1834742857142857 -0.9593828571428571 -2.142857142857143 -2.142857142857143 -2.142857142857143H3.4285714285714284c-1.1834674285714284 0 -2.142857142857143 0.9593828571428571 -2.142857142857143 2.142857142857143s0.9593897142857143 2.142857142857143 2.142857142857143 2.142857142857143h12c1.1834742857142857 0 2.142857142857143 -0.9593828571428571 2.142857142857143 -2.142857142857143ZM15.428571428571427 21.857142857142858c1.1834742857142857 0 2.142857142857143 0.9593828571428571 2.142857142857143 2.142857142857143s-0.9593828571428571 2.142857142857143 -2.142857142857143 2.142857142857143H3.4285714285714284C2.245104 26.142857142857142 1.2857142857142856 25.183474285714283 1.2857142857142856 24s0.9593897142857143 -2.142857142857143 2.142857142857143 -2.142857142857143h12ZM46.71428571428571 44.57142857142857c0 -1.183542857142857 -0.9593142857142857 -2.142857142857143 -2.142857142857143 -2.142857142857143H3.4285714285714284c-1.1834674285714284 0 -2.142857142857143 0.9593142857142857 -2.142857142857143 2.142857142857143s0.9593897142857143 2.142857142857143 2.142857142857143 2.142857142857143h41.14285714285714c1.183542857142857 0 2.142857142857143 -0.9593142857142857 2.142857142857143 -2.142857142857143ZM44.57142857142857 32.14285714285714c1.183542857142857 0 2.142857142857143 0.9593828571428571 2.142857142857143 2.142857142857143 0 1.183542857142857 -0.9593142857142857 2.142857142857143 -2.142857142857143 2.142857142857143H3.4285714285714284c-1.1834674285714284 0 -2.142857142857143 -0.9593142857142857 -2.142857142857143 -2.142857142857143 0 -1.1834742857142857 0.9593897142857143 -2.142857142857143 2.142857142857143 -2.142857142857143h41.14285714285714Z" clip-rule="evenodd" stroke-width="3.4286"></path>
  </g>
</svg>