<svg xmlns="http://www.w3.org/2000/svg" fill="none" viewBox="0 0 48 48" id="Instagram--Streamline-Core-Remix" height="48" width="48">
  <desc>
    Instagram Streamline Icon: https://streamlinehq.com
  </desc>
  <g id="Free Remix/Computer Devices/instagram">
    <path id="Union" fill="#000000" fill-rule="evenodd" d="M1.2857142857142856 12.244902857142856C1.2857142857142856 6.192308571428571 6.192342857142857 1.2857142857142856 12.244937142857141 1.2857142857142856h23.510262857142855c6.0527999999999995 0 10.959428571428571 4.906594285714285 10.959428571428571 10.959188571428571v23.51029714285714c0 6.0524571428571425 -4.906628571428572 10.959085714285715 -10.959428571428571 10.959085714285715H12.244937142857141C6.192342857142857 46.71428571428571 1.2857142857142856 41.80765714285714 1.2857142857142856 35.755199999999995V12.244902857142856ZM12.244937142857141 5.571428571428571c-3.6856799999999996 0 -6.673508571428571 2.987828571428571 -6.673508571428571 6.673474285714286v23.51029714285714c0 3.6857142857142855 2.987828571428571 6.673371428571428 6.673508571428571 6.673371428571428h23.510262857142855c3.6857142857142855 0 6.673714285714285 -2.9876571428571426 6.673714285714285 -6.673371428571428V12.244902857142856c0 -3.685645714285714 -2.988 -6.673474285714286 -6.673714285714285 -6.673474285714286H12.244937142857141ZM35.862857142857145 14.67816c-1.6569942857142856 0 -3.0001371428571426 -1.343142857142857 -3.0001371428571426 -3s1.343142857142857 -3 3.0001371428571426 -3c1.6566857142857143 0 3 1.343142857142857 3 3s-1.3433142857142857 3 -3 3Zm-11.863645714285713 -1.1337942857142855c-5.774502857142856 0 -10.455668571428571 4.681165714285714 -10.455668571428571 10.455668571428571 0 5.774537142857143 4.681165714285714 10.455737142857142 10.455668571428571 10.455737142857142 5.774502857142856 0 10.455531428571428 -4.6812 10.455531428571428 -10.455737142857142 0 -5.774502857142856 -4.681028571428571 -10.455668571428571 -10.455531428571428 -10.455668571428571Z" clip-rule="evenodd" stroke-width="3.4286"></path>
  </g>
</svg>