<svg xmlns="http://www.w3.org/2000/svg" fill="none" viewBox="0 0 48 48" id="Insurance-Hand-1--Streamline-Core-Remix" height="48" width="48">
  <desc>
    Insurance Hand 1 Streamline Icon: https://streamlinehq.com
  </desc>
  <g id="Free Remix/Health/insurance-hand-1--health-medical-insurance-hand-cross">
    <path id="Union" fill="#000000" fill-rule="evenodd" d="M29.918674285714282 1.6273714285714285C29.918674285714282 0.7285988571428571 30.647279999999995 0 31.54604571428571 0h7.193725714285714c0.8986285714285713 0 1.6272 0.7285988571428571 1.6272 1.627368V7.632994285714286l6.005828571428571 0c0.8986285714285713 0 1.6272 0.7286057142857143 1.6272 1.6273714285714285v7.193725714285714c0 0.8987657142857142 -0.7285714285714285 1.6273714285714285 -1.6272 1.6273714285714285h-6.005828571428571v6.005451428571428c0 0.8987657142857142 -0.7285714285714285 1.6273714285714285 -1.6272 1.6273714285714285H31.54604571428571c-0.8987657142857142 0 -1.6273714285714285 -0.7286057142857143 -1.6273714285714285 -1.6273714285714285V18.081462857142856H23.913154285714285c-0.8987999999999999 0 -1.6273714285714285 -0.7286057142857143 -1.6273714285714285 -1.6273714285714285V9.260365714285713c0 -0.8987657142857142 0.7285714285714285 -1.6273714285714285 1.6273714285714285 -1.6273714285714285h6.005519999999999V1.6273714285714285ZM0.00005373908571428571 25.285714285714285c0 -1.1834742857142857 0.9593908323428572 -2.142857142857143 2.1428582609142857 -2.142857142857143H11.302594285714285c2.3869371428571426 0 4.676125714285714 0.9482057142857141 6.363942857142857 2.636022857142857l3.9916114285714284 3.9916114285714284c1.4576914285714284 1.4576914285714284 1.9739314285714284 3.500365714285714 1.5486857142857142 5.372365714285714h10.93608c4.339371428571428 0 7.857085714285715 3.517714285714286 7.857085714285715 7.857257142857143 0 2.7613714285714286 -2.238514285714286 4.999885714285714 -4.999885714285714 4.999885714285714l-22.088845714285714 0c-2.1054514285714285 0 -4.144251428571428 -0.7381714285714285 -5.76168 -2.0859428571428573L0.7710857142857142 38.93177142857143c-0.9091635428571427 -0.7573714285714286 -1.0320006857142856 -2.1085714285714285 -0.2743645714285714 -3.0178285714285713 0.7576388571428572 -0.9092571428571428 2.1088491428571428 -1.0319999999999998 3.0180102857142854 -0.2742857142857143l8.378502857142857 6.981942857142856c0.8472342857142856 0.7059428571428571 1.9151657142857144 1.0926857142857143 3.0180342857142857 1.0926857142857143l22.088845714285714 0c0.3942857142857143 0 0.7141714285714286 -0.3198857142857143 0.7141714285714286 -0.7141714285714286 0 -1.972457142857143 -1.5990857142857142 -3.571542857142857 -3.571371428571428 -3.571542857142857h-15.0312c-1.9393371428571429 0.5341714285714285 -4.102834285714286 0.039428571428571424 -5.626902857142857 -1.4849142857142856l-2.571428571428571 -2.571428571428571c-0.8368114285714285 -0.8365714285714285 -0.8368114285714285 -2.193462857142857 0 -3.030308571428571 0.8368457142857142 -0.8368457142857142 2.1936342857142854 -0.8368457142857142 3.03048 0l2.571428571428571 2.5715657142857142c0.4176342857142857 0.41759999999999997 1.021062857142857 0.5362285714285714 1.5442285714285715 0.3558857142857143l0.022937142857142854 -0.008228571428571427c0.19895999999999997 -0.07234285714285714 0.38564571428571426 -0.1882285714285714 0.5452114285714286 -0.34765714285714283 0.5833371428571429 -0.583542857142857 0.5833371428571429 -1.5292114285714287 0 -2.1125485714285714L14.636091428571428 28.809359999999998C13.751999999999999 27.925268571428568 12.552891428571428 27.428571428571427 11.302594285714285 27.428571428571427H2.142912c-1.1834674285714284 0 -2.1428582609142857 -0.9593828571428571 -2.1428582609142857 -2.142857142857143Z" clip-rule="evenodd" stroke-width="3.4286"></path>
  </g>
</svg>