<svg xmlns="http://www.w3.org/2000/svg" fill="none" viewBox="0 0 48 48" id="Investment-Selection--Streamline-Core-Remix" height="48" width="48">
  <desc>
    Investment Selection Streamline Icon: https://streamlinehq.com
  </desc>
  <g id="Free Remix/Money Shopping/investment-selection">
    <path id="Union" fill="#000000" fill-rule="evenodd" d="M9.523782857142857 0.8571428571428571c1.4201485714285715 0 2.571428571428571 1.1512662857142855 2.571428571428571 2.571428571428571v2.0766171428571427c1.6914171428571427 0.24912 3.1909714285714283 1.0916914285714285 4.275874285714286 2.3038285714285713 0.6133028571428571 0.6852685714285713 1.09776 1.4919085714285714 1.412297142857143 2.381828571428571 0.4732457142857143 1.3389942857142856 -0.2285485714285714 2.808102857142857 -1.5675428571428571 3.2813485714285715 -1.3389942857142856 0.47328 -2.808102857142857 -0.2285485714285714 -3.2813485714285715 -1.5675085714285713 -0.08684571428571428 -0.24569142857142856 -0.2217942857142857 -0.4716685714285714 -0.39552 -0.6658285714285714 -0.3699085714285714 -0.41324571428571427 -0.8992800000000001 -0.6673028571428571 -1.4913599999999998 -0.6673028571428571H7.50918857142857c-0.8335199999999999 0 -1.5091885714285713 0.6757028571428572 -1.5091885714285713 1.5091885714285713 0 0.7092342857142856 0.4938171428571428 1.3227771428571427 1.186662857142857 1.4743199999999999l5.387348571428571 1.1784685714285714c3.28008 0.7175314285714285 5.616479999999999 3.6234171428571424 5.616479999999999 6.979234285714286 0 3.5879657142857138 -2.6461371428571425 6.561119999999999 -6.09528 7.068205714285714v2.0760342857142855c0 1.4201485714285715 -1.1512799999999999 2.571428571428571 -2.571428571428571 2.571428571428571s-2.571428571428571 -1.1512799999999999 -2.571428571428571 -2.571428571428571v-2.075965714285714C4.303577142857143 28.391828571428572 2.131638857142857 26.54921142857143 1.2642514285714286 24.095142857142857c-0.47326628571428564 -1.33896 0.22854171428571426 -2.808102857142857 1.5675257142857142 -3.2813485714285715 1.3389771428571429 -0.47328 2.8080857142857143 0.2285485714285714 3.281365714285714 1.5675085714285713 0.2757942857142857 0.7802742857142857 1.0200685714285713 1.3331314285714286 1.8868457142857142 1.3331314285714286h1.4854971428571426c0.012754285714285715 -0.00020571428571428572 0.02550857142857143 -0.00027428571428571427 0.038297142857142856 -0.00027428571428571427 0.012788571428571427 0 0.025577142857142854 0.00006857142857142857 0.038297142857142856 0.00027428571428571427h1.4855314285714285c1.1033485714285713 0 2.000022857142857 -0.8958857142857142 2.000022857142857 -2.001668571428571 0 -0.9407999999999999 -0.6553371428571428 -1.7545028571428571 -1.5726171428571427 -1.9551771428571427l-5.387348571428571 -1.1784685714285714C3.0338194285714284 17.91109714285714 0.8571428571428571 15.206811428571427 0.8571428571428571 12.080742857142857c0 -3.4863085714285713 2.681931428571428 -6.346182857142857 6.095211428571428 -6.629074285714285V3.4285714285714284c0 -1.4201622857142857 1.1512799999999999 -2.571428571428571 2.571428571428571 -2.571428571428571Zm16.619005714285713 18.857142857142858c0 -1.1834742857142857 0.9594171428571429 -2.142857142857143 2.1428914285714282 -2.142857142857143 1.1834399999999998 0 2.1428228571428574 0.9593828571428571 2.1428228571428574 2.142857142857143V29.142857142857142c0 1.1834742857142857 0.9594171428571429 2.142857142857143 2.142857142857143 2.142857142857143h3.1783542857142852c3.688457142857143 0 6.678857142857142 2.9902285714285712 6.678857142857142 6.678857142857142V44.57142857142857c0 1.183542857142857 0.9593142857142857 2.142857142857143 2.142857142857143 2.142857142857143s2.142857142857143 -0.9593142857142857 2.142857142857143 -2.142857142857143v-6.606857142857143c0 -6.055542857142857 -4.909028571428571 -10.964571428571428 -10.964571428571428 -10.964571428571428h-1.0354285714285714V19.71428571428571c0 -3.5503885714285714 -2.878217142857143 -6.428571428571428 -6.428605714285714 -6.428571428571428 -3.5504228571428564 0 -6.428605714285714 2.878182857142857 -6.428605714285714 6.428571428571428v11.214034285714286c-4.937725714285714 1.9140342857142856 -6.819497142857142 8.29248 -3.222445714285714 12.609051428571426l2.004857142857143 2.405828571428571c0.7576114285714285 0.9092571428571428 2.108845714285714 1.0319999999999998 3.018 0.2742857142857143 0.9091542857142857 -0.7573714285714286 1.0319999999999998 -2.1085714285714285 0.27435428571428566 -3.0178285714285713l-2.004822857142857 -2.405828571428571c-1.8486857142857143 -2.2182857142857144 -0.5911542857142856 -5.606057142857143 2.2572685714285714 -6.080571428571428l0.16796571428571427 -0.028114285714285717c1.0332342857142858 -0.17211428571428572 1.7905371428571428 -1.0662171428571428 1.7905371428571428 -2.113714285714286V19.71428571428571Z" clip-rule="evenodd" stroke-width="3.4286"></path>
  </g>
</svg>