<svg xmlns="http://www.w3.org/2000/svg" fill="none" viewBox="0 0 48 48" id="Invisible-2--Streamline-Core-Remix" height="48" width="48">
  <desc>
    Invisible 2 Streamline Icon: https://streamlinehq.com
  </desc>
  <g id="Free Remix/Interface Essential/invisible-2">
    <path id="Union" fill="#000000" fill-rule="evenodd" d="M4.335737142857143 11.779714285714284c1.459062857142857 -0.7850742857142856 3.278262857142857 -0.23873142857142854 4.063371428571428 1.2202971428571427C11.192674285714286 18.191657142857142 17.07109714285714 21.882857142857144 24.000994285714285 21.882857142857144c6.9298971428571425 0 12.808491428571427 -3.6912 15.60174857142857 -8.882845714285713 0.7851428571428571 -1.4590285714285713 2.604342857142857 -2.0053714285714284 4.063542857142857 -1.2202971428571427 1.4588571428571426 0.7851085714285714 2.0053714285714284 2.604342857142857 1.2202285714285714 4.063371428571428 -0.7265142857142857 1.3499314285714286 -1.5956571428571427 2.6163771428571425 -2.587885714285714 3.7833257142857137l4.981028571428571 4.420114285714285c0.8852571428571427 0.7854857142857142 0.9658285714285714 2.1398742857142854 0.18034285714285714 3.0250628571428573 -0.7854857142857142 0.8851885714285714 -2.139771428571428 0.966 -3.025028571428571 0.18047999999999997l-5.220342857142857 -4.632377142857143c-1.963542857142857 1.5756342857142858 -4.205828571428571 2.8473599999999997 -6.64272 3.7458171428571427l2.5500342857142857 6.422091428571428c0.4368 1.0999542857142857 -0.10079999999999999 2.3456571428571427 -1.2007542857142857 2.7824571428571425 -1.0999199999999998 0.4368 -2.3456571428571427 -0.10079999999999999 -2.782422857142857 -1.2006857142857144l-2.7299314285714282 -6.875348571428572c-1.4298514285714286 0.25549714285714287 -2.9036914285714284 0.3888342857142857 -4.407839999999999 0.3888342857142857 -1.5092571428571426 0 -2.987965714285714 -0.13426285714285713 -4.422377142857143 -0.39140571428571425L16.84765714285714 34.36937142857143c-0.43676571428571426 1.0998857142857141 -1.682502857142857 1.6374857142857142 -2.782422857142857 1.2006857142857144 -1.0999199999999998 -0.4368 -1.6375199999999999 -1.682502857142857 -1.2007885714285713 -2.7824571428571425l2.5520571428571426 -6.427097142857143c-2.4318857142857144 -0.89832 -4.669954285714285 -2.1685371428571427 -6.630205714285714 -3.7415999999999996L3.5651657142857145 27.25206857142857c-0.8851851428571428 0.78552 -2.23956 0.7047085714285714 -3.025069714285714 -0.18047999999999997 -0.7855110857142856 -0.8851885714285714 -0.7047017142857143 -2.2395771428571427 0.18049371428571429 -3.0250628571428573L5.70264 19.625485714285713c-0.9920914285714285 -1.1666742857142858 -1.8609942857142856 -2.4328114285714286 -2.587189714285714 -3.7823999999999995 -0.7850879999999999 -1.4590285714285713 -0.23874514285714285 -3.278262857142857 1.2202868571428571 -4.063371428571428Z" clip-rule="evenodd" stroke-width="3.4286"></path>
  </g>
</svg>