<svg xmlns="http://www.w3.org/2000/svg" fill="none" viewBox="0 0 48 48" id="Invisible-1--Streamline-Core-Remix" height="48" width="48">
  <desc>
    Invisible 1 Streamline Icon: https://streamlinehq.com
  </desc>
  <g id="Free Remix/Interface Essential/invisible-1--disable-eye-eyeball-hide-off-view">
    <path id="Union" fill="#000000" fill-rule="evenodd" d="M0.6276274285714285 0.6276274285714285c0.8368388571428571 -0.8368367999999999 2.1936205714285713 -0.8368367999999999 3.030452571428571 0L12.147634285714286 9.117154285714285c3.404845714285714 -2.309142857142857 7.439348571428571 -4.075577142857142 11.85264 -4.075577142857142 5.397702857142857 0 10.228765714285714 2.6422971428571427 14.03424 5.688205714285714 3.831085714285714 3.066342857142857 6.854057142857143 6.726239999999999 8.677371428571428 9.17424l0.017828571428571426 0.023897142857142853 -0.00034285714285714285 0.00010285714285714286c0.8475428571428572 1.1716114285714285 1.2750857142857142 2.6245028571428572 1.2750857142857142 4.072697142857143 0 1.4481942857142855 -0.4275428571428571 2.901085714285714 -1.2750857142857142 4.072697142857143l-0.017142857142857144 0.024137142857142857 -0.00034285714285714285 -0.00013714285714285713c-1.6223999999999998 2.17848 -4.1952 5.316651428571428 -7.441714285714285 8.14224l8.102057142857143 8.1024c0.8369142857142857 0.8365714285714285 0.8369142857142857 2.1936 0 3.0301714285714283 -0.8365714285714285 0.8369142857142857 -2.1936 0.8369142857142857 -3.0301714285714283 0L0.6276274285714285 3.65808c-0.8368367999999999 -0.8368319999999999 -0.8368367999999999 -2.193613714285714 0 -3.030452571428571ZM19.645645714285713 16.615165714285713 15.24222857142857 12.211782857142857c2.7618514285714286 -1.7500799999999999 5.729245714285714 -2.8844914285714283 8.758045714285714 -2.8844914285714283 4.003714285714286 0 7.90008 1.98216 11.356182857142857 4.748434285714286 3.4234285714285715 2.740148571428571 6.192 6.071965714285714 7.9076571428571425 8.37408 0.2664 0.3732685714285714 0.4546285714285714 0.9234514285714286 0.4546285714285714 1.5509142857142855 0 0.6274971428571428 -0.1882285714285714 1.17768 -0.4546285714285714 1.5509142857142855 -1.5668571428571427 2.102605714285714 -4.0121142857142855 5.064205714285714 -7.032685714285714 7.649451428571428L31.38442285714286 28.353942857142854c0.7539428571428571 -1.2760114285714286 1.1865942857142857 -2.7644571428571427 1.1865942857142857 -4.353942857142857 0 -4.733862857142857 -3.837565714285714 -8.571428571428571 -8.571428571428571 -8.571428571428571 -1.5894857142857142 0 -3.0779314285714285 0.4326514285714285 -4.353942857142857 1.1865942857142857Zm-12.129291428571428 2.4071999999999996c0.7833257142857143 -0.887142857142857 0.69912 -2.241325714285714 -0.18802285714285713 -3.0246171428571427 -0.887142857142857 -0.7832914285714285 -2.241325714285714 -0.69912 -3.0246171428571427 0.18802285714285713 -1.204230857142857 1.36392 -2.219808 2.6514514285714283 -3.0146297142857144 3.7186628571428573l-0.000168 -0.00013714285714285713 -0.01745142857142857 0.024137142857142857c-0.8475394285714285 1.1716114285714285 -1.2748133554285714 2.6245028571428572 -1.2748133554285714 4.072697142857143 0 1.4481942857142855 0.4272739268571428 2.901085714285714 1.2748133554285714 4.072697142857143l-0.000168 0.00010285714285714286 0.01778742857142857 0.023897142857142853c1.823232 2.448 4.8462754285714285 6.1078971428571425 8.677361142857142 9.174171428571428 3.805508571428571 3.045942857142857 8.636571428571429 5.688342857142857 14.03424 5.688342857142857 1.75368 0 3.4480114285714287 -0.27977142857142856 5.062182857142857 -0.7594285714285713 1.13448 -0.33668571428571425 1.7810742857142858 -1.5294857142857141 1.444182857142857 -2.664 -0.33689142857142856 -1.1345142857142858 -1.5296914285714285 -1.781142857142857 -2.664205714285714 -1.4441142857142857 -1.2651428571428571 0.3754285714285714 -2.5478742857142853 0.5818285714285714 -3.84216 0.5818285714285714 -4.00368 0 -7.900045714285715 -1.9824000000000002 -11.356182857142857 -4.748502857142857 -3.423565714285714 -2.740182857142857 -6.192034285714285 -6.072068571428571 -7.907760000000001 -8.374148571428572 -0.26636571428571426 -0.3732685714285714 -0.4543885714285714 -0.9234171428571428 -0.4543885714285714 -1.5508457142857142s0.18802285714285713 -1.1775771428571427 0.4543542857142857 -1.5508457142857142c0.73632 -0.9879428571428571 1.673485714285714 -2.1750514285714284 2.779645714285714 -3.42792Z" clip-rule="evenodd" stroke-width="3.4286"></path>
  </g>
</svg>