<svg xmlns="http://www.w3.org/2000/svg" fill="none" viewBox="0 0 48 48" id="Iron--Streamline-Core-Remix" height="48" width="48">
  <desc>
    Iron Streamline Icon: https://streamlinehq.com
  </desc>
  <g id="Free Remix/Map Travel/iron--laundry-iron-heat-hotel">
    <path id="Union" fill="#000000" fill-rule="evenodd" d="M16.71428571428571 2.571428571428571C15.05742857142857 2.571428571428571 13.714285714285714 3.9145714285714286 13.714285714285714 5.571428571428571s1.343142857142857 3 3 3h18c4.023771428571428 0 7.285714285714286 3.261942857142857 7.285714285714286 7.285714285714286V17.142857142857142H29.380354285714283C18.17952 17.142857142857142 7.940022857142857 23.471211428571426 2.9308731428571426 33.489531428571425L0.5190617142857142 38.31325714285714C0.1777121142857143 38.99588571428571 0 39.7488 0 40.512c0 2.7154285714285713 2.201249142857143 4.916571428571428 4.91664 4.916571428571428H45.857142857142854c1.183542857142857 0 2.142857142857143 -0.9593142857142857 2.142857142857143 -2.142857142857143v-27.428571428571427C48 8.519657142857143 42.05177142857143 2.571428571428571 34.714285714285715 2.571428571428571h-18Zm-9.95016 32.83474285714286C11.047337142857142 26.839782857142854 19.802845714285713 21.428571428571427 29.380354285714283 21.428571428571427H43.714285714285715V41.14285714285714H4.91664c-0.34844571428571425 0 -0.6309257142857142 -0.2825142857142857 -0.6309257142857142 -0.6308571428571428 0 -0.09805714285714286 0.022799999999999997 -0.19474285714285713 0.06661714285714285 -0.2821714285714286l2.4117942857142856 -4.823657142857143Z" clip-rule="evenodd" stroke-width="3.4286"></path>
  </g>
</svg>