<svg xmlns="http://www.w3.org/2000/svg" fill="none" viewBox="0 0 48 48" id="Islam--Streamline-Core-Remix" height="48" width="48">
  <desc>
    Islam Streamline Icon: https://streamlinehq.com
  </desc>
  <g id="Free Remix/Culture/islam--religion-islam-moon-crescent-muslim-culture-star">
    <path id="Union" fill="#000000" fill-rule="evenodd" d="M1.7142857142857142 24C1.7142857142857142 11.691942857142855 11.691942857142855 1.7142857142857142 24 1.7142857142857142c3.9921599999999997 0 7.743977142857142 1.051224 10.98822857142857 2.8931657142857143 0.7059428571428571 0.40069714285714286 1.0337142857142856 1.2413142857142856 0.7861714285714285 2.0141142857142857 -0.2478857142857143 0.7727999999999999 -1.003542857142857 1.266 -1.8105942857142854 1.1816914285714286 -0.5626971428571428 -0.05876571428571428 -1.1344457142857143 -0.08897142857142858 -1.7138057142857144 -0.08897142857142858 -8.994342857142856 0 -16.285714285714285 7.291371428571429 -16.285714285714285 16.285714285714285s7.291371428571429 16.285714285714285 16.285714285714285 16.285714285714285c0.57936 0 1.1511085714285714 -0.03017142857142857 1.7138057142857144 -0.08879999999999999 0.8070514285714285 -0.08434285714285714 1.5627085714285713 0.40868571428571426 1.8105942857142854 1.1814857142857143 0.24754285714285712 0.7727999999999999 -0.08022857142857143 1.6134857142857142 -0.7861714285714285 2.0142857142857142C31.743977142857144 45.23451428571428 27.99216 46.285714285714285 24 46.285714285714285 11.691942857142855 46.285714285714285 1.7142857142857142 36.30822857142857 1.7142857142857142 24Zm35.44662857142857 -9.465325714285713c-0.36479999999999996 -0.7251771428571429 -1.1077714285714284 -1.182102857142857 -1.9193142857142855 -1.18032 -0.8115428571428571 0.0017828571428571427 -1.552662857142857 0.462 -1.9140342857142856 1.1887885714285713l-2.352514285714286 4.731222857142857H26.382685714285714c-0.8610857142857142 0 -1.63848 0.5153828571428571 -1.9737599999999997 1.3084799999999999 -0.33527999999999997 0.7930971428571428 -0.16326857142857143 1.709862857142857 0.43673142857142855 2.327485714285714l3.681257142857143 3.7895314285714283 -0.9824914285714285 5.458182857142857c-0.1481485714285714 0.8230971428571429 0.19607999999999998 1.6571657142857141 0.881622857142857 2.13624 0.6855771428571428 0.4789714285714285 1.5871542857142855 0.5153142857142856 2.3090742857142854 0.09325714285714284l4.535622857142856 -2.6524457142857143 4.784914285714286 2.67336c0.7350857142857142 0.4104 1.6422857142857141 0.3528 2.319085714285714 -0.14763428571428572 0.6768 -0.5003314285714285 0.9980571428571429 -1.3506514285714286 0.8211428571428571 -2.1735771428571424l-1.1653714285714285 -5.4204 3.6490285714285715 -3.7565142857142857c0.6 -0.6176228571428571 0.7721142857142858 -1.5343885714285712 0.4368 -2.327485714285714 -0.3353142857142857 -0.7930971428571428 -1.1125714285714285 -1.3084799999999999 -1.9738285714285713 -1.3084799999999999h-4.598742857142857l-2.3828571428571426 -4.739691428571428Zm-2.939485714285714 7.836617142857143 1.0355999999999999 -2.08248 1.0512 2.090948571428571c0.3637714285714285 0.7236342857142857 1.104342857142857 1.18032 1.9145142857142856 1.18032h0.8509714285714285l-0.9161142857142857 0.9430285714285714c-0.4992 0.51384 -0.7086857142857143 1.2431314285714286 -0.5581714285714285 1.94352l0.41074285714285713 1.9097485714285714 -1.718742857142857 -0.9601714285714286c-0.6627428571428571 -0.3701828571428571 -1.471542857142857 -0.3621942857142857 -2.1268457142857145 0.020948571428571428l-1.578342857142857 0.9230057142857142 0.3535885714285714 -1.9643314285714286c0.12236571428571427 -0.6799542857142856 -0.09054857142857142 -1.3771885714285712 -0.5719542857142856 -1.8727199999999997l-0.9160799999999999 -0.9430285714285714h0.8508685714285714c0.81336 0 1.5566057142857144 -0.4604914285714286 1.9187657142857142 -1.1887885714285713Z" clip-rule="evenodd" stroke-width="3.4286"></path>
  </g>
</svg>