<svg xmlns="http://www.w3.org/2000/svg" fill="none" viewBox="0 0 48 48" id="Jump-Object--Streamline-Core-Remix" height="48" width="48">
  <desc>
    Jump Object Streamline Icon: https://streamlinehq.com
  </desc>
  <g id="Free Remix/Interface Essential/jump-object">
    <path id="Union" fill="#000000" fill-rule="evenodd" d="M1.2857142857142856 3.4285714285714284C1.2857142857142856 2.245104 2.245104 1.2857142857142856 3.4285714285714284 1.2857142857142856h41.14285714285714c1.183542857142857 0 2.142857142857143 0.9593897142857143 2.142857142857143 2.142857142857143 0 1.1834742857142857 -0.9593142857142857 2.142857142857143 -2.142857142857143 2.142857142857143H3.4285714285714284C2.245104 5.571428571428571 1.2857142857142856 4.612045714285714 1.2857142857142856 3.4285714285714284ZM17.142857142857142 11.571428571428571c-3.0770057142857143 0 -5.571428571428571 2.494422857142857 -5.571428571428571 5.571428571428571v13.714285714285714c0 3.0770057142857143 2.494422857142857 5.571428571428571 5.571428571428571 5.571428571428571h13.714285714285714c3.0770057142857143 0 5.571428571428571 -2.494422857142857 5.571428571428571 -5.571428571428571V17.142857142857142c0 -3.0770057142857143 -2.494422857142857 -5.571428571428571 -5.571428571428571 -5.571428571428571H17.142857142857142Zm-13.714285714285714 30.857142857142854c-1.1834674285714284 0 -2.142857142857143 0.9593142857142857 -2.142857142857143 2.142857142857143s0.9593897142857143 2.142857142857143 2.142857142857143 2.142857142857143h41.14285714285714c1.183542857142857 0 2.142857142857143 -0.9593142857142857 2.142857142857143 -2.142857142857143s-0.9593142857142857 -2.142857142857143 -2.142857142857143 -2.142857142857143H3.4285714285714284Z" clip-rule="evenodd" stroke-width="3.4286"></path>
  </g>
</svg>