<svg xmlns="http://www.w3.org/2000/svg" fill="none" viewBox="0 0 48 48" id="Justice-Scale-1--Streamline-Core-Remix" height="48" width="48">
  <desc>
    Justice Scale 1 Streamline Icon: https://streamlinehq.com
  </desc>
  <g id="Free Remix/Money Shopping/justice-scale-1--office-work-scale-justice-company-arbitration-balance-court">
    <path id="Union" fill="#000000" fill-rule="evenodd" d="M21.857142857142858 5.142857142857142c0 -1.1834742857142857 0.9593828571428571 -2.142857142857143 2.142857142857143 -2.142857142857143s2.142857142857143 0.9593828571428571 2.142857142857143 2.142857142857143v4.714285714285714H42.857142857142854c1.183542857142857 0 2.142857142857143 0.9593828571428571 2.142857142857143 2.142857142857143s-0.9593142857142857 2.142857142857143 -2.142857142857143 2.142857142857143h-2.7946285714285715l7.77462857142857 18.792959999999997c0.10765714285714284 0.2597142857142857 0.16285714285714284 0.53808 0.16285714285714284 0.8191542857142856 0 2.974628571428571 -1.1681142857142857 5.832342857142857 -3.2550857142857144 7.942971428571428 -2.0876571428571427 2.1113142857142857 -4.924799999999999 3.3020571428571426 -7.887771428571429 3.3020571428571426 -2.9631428571428566 0 -5.799942857142857 -1.190742857142857 -7.887737142857143 -3.3020571428571426C26.882434285714282 39.587314285714285 25.71428571428571 36.7296 25.71428571428571 33.75497142857143c0 -0.28107428571428567 0.05530285714285713 -0.55944 0.1627542857142857 -0.8191542857142856L33.65166857142857 14.142857142857142H14.348331428571427l7.77462857142857 18.792959999999997c0.10745142857142856 0.2597142857142857 0.1627542857142857 0.53808 0.1627542857142857 0.8191542857142856 0 2.974628571428571 -1.1681485714285713 5.832342857142857 -3.25512 7.942971428571428 -2.0877942857142857 2.1113142857142857 -4.924594285714285 3.3020571428571426 -7.887737142857143 3.3020571428571426 -2.9631428571428566 0 -5.799942857142857 -1.190742857142857 -7.887726857142857 -3.3020571428571426C1.1681622857142857 39.587314285714285 0 36.7296 0 33.75497142857143c0 -0.28107428571428567 0.05530114285714286 -0.55944 0.16275462857142856 -0.8191542857142856L7.937382857142857 14.142857142857142H5.142857142857142c-1.1834742857142857 0 -2.142857142857143 -0.9593828571428571 -2.142857142857143 -2.142857142857143s0.9593828571428571 -2.142857142857143 2.142857142857143 -2.142857142857143h16.71428571428571V5.142857142857142Zm8.319017142857142 28.61204571428571L36.857142857142854 17.605508571428572l6.680914285714286 16.149394285714283H30.17616Zm-25.71428571428571 0h13.361965714285713L11.142857142857142 17.605508571428572 4.461874285714285 33.75490285714285Z" clip-rule="evenodd" stroke-width="3.4286"></path>
  </g>
</svg>