<svg xmlns="http://www.w3.org/2000/svg" fill="none" viewBox="0 0 48 48" id="Justice-Scale-2--Streamline-Core-Remix" height="48" width="48">
  <desc>
    Justice Scale 2 Streamline Icon: https://streamlinehq.com
  </desc>
  <g id="Free Remix/Money Shopping/justice-scale-2--office-work-scale-justice-unequal-company-arbitration-unbalance-court">
    <path id="Union" fill="#000000" fill-rule="evenodd" d="M26.142857142857142 2.142857142857143C26.142857142857142 0.9593897142857143 25.183474285714283 0 24 0s-2.142857142857143 0.9593897142857143 -2.142857142857143 2.142857142857143v6.359828571428571L4.295965714285714 16.058365714285713c-1.0871279999999999 0.4677257142857143 -1.589238857142857 1.7282057142857141 -1.1215062857142857 2.815302857142857 0.46774628571428567 1.0871314285714284 1.7281919999999997 1.5892457142857142 2.815289142857143 1.1214857142857142l1.2738514285714284 -0.5480571428571428L0.17475702857142855 35.907428571428575C0.05946479999999999 36.17485714285714 0 36.463542857142855 0 36.75497142857143c0 2.974628571428571 1.1681622857142857 5.832 3.2551302857142854 7.942971428571428C5.3429142857142855 46.809257142857135 8.179714285714285 48 11.142857142857142 48c2.9631428571428566 0 5.799942857142857 -1.190742857142857 7.887737142857143 -3.3020571428571426 2.0869714285714287 -2.1109714285714287 3.25512 -4.968342857142857 3.25512 -7.942971428571428 0 -0.2914285714285714 -0.05945142857142857 -0.5801142857142857 -0.17475428571428572 -0.8475428571428572L13.809257142857144 16.630834285714286l19.076262857142854 -8.207554285714286 -6.989999999999999 15.897771428571428C25.775999999999996 24.59286857142857 25.71428571428571 24.886594285714285 25.71428571428571 25.183542857142857c0 2.974628571428571 1.1681485714285713 5.83224 3.25512 7.942902857142856 2.0877942857142857 2.111382857142857 4.924594285714285 3.302125714285714 7.887737142857143 3.302125714285714 2.962971428571428 0 5.800114285714285 -1.190742857142857 7.887771428571429 -3.302125714285714C46.83188571428571 31.015782857142856 48 28.158171428571425 48 25.183542857142857c0 -0.29694857142857145 -0.06171428571428571 -0.5906742857142856 -0.18137142857142857 -0.8624914285714286l-8.2536 -18.77166857142857 2.906742857142857 -1.25064c1.0872 -0.4677257142857143 1.5894857142857142 -1.7281714285714285 1.1214857142857142 -2.815289142857143 -0.4676571428571428 -1.0871142857142857 -1.728 -1.5892265142857143 -2.8152 -1.1214959999999998L26.142857142857142 6.658765714285714V2.142857142857143Zm4.055142857142857 23.04061714285714L36.857142857142854 10.038205714285715l6.658971428571428 15.14526857142857H30.198ZM17.809714285714282 36.75497142857143 11.142857142857142 21.274525714285712 4.476 36.75497142857143h13.333714285714285Z" clip-rule="evenodd" stroke-width="3.4286"></path>
  </g>
</svg>