<svg xmlns="http://www.w3.org/2000/svg" fill="none" viewBox="0 0 48 48" id="Justice-Hammer--Streamline-Core-Remix" height="48" width="48">
  <desc>
    Justice Hammer Streamline Icon: https://streamlinehq.com
  </desc>
  <g id="Free Remix/Money Shopping/justice-hammer--hammer-work-mallet-office-company-gavel-justice-judge-arbitration-court">
    <path id="Union" fill="#000000" fill-rule="evenodd" d="M31.185325714285714 4.804251428571429c-0.6145371428571429 -0.6183771428571428 -1.6140342857142858 -0.6214628571428571 -2.2323771428571426 -0.006891428571428571L15.570377142857142 18.097371428571428c-0.6183428571428572 0.6145714285714285 -0.6214285714285713 1.6140342857142858 -0.006891428571428571 2.2324114285714285l5.87616 5.912605714285714c0.6145371428571429 0.6183428571428572 1.6140342857142858 0.6214628571428571 2.2323771428571426 0.006891428571428571l13.382605714285713 -13.300045714285712c0.6181714285714285 -0.6145371428571429 0.6212571428571428 -1.6139999999999999 0.006857142857142857 -2.2323771428571426L31.185325714285714 4.804251428571429ZM25.931862857142857 1.7575337142857141c2.2972114285714285 -2.2830445714285714 6.010251428571428 -2.2715622857142854 8.293268571428571 0.025645714285714282L40.101257142857136 7.695771428571429c2.2830857142857144 2.2972114285714285 2.2717714285714283 6.010251428571428 -0.02571428571428571 8.293302857142857L35.55222857142857 20.484685714285714l11.56902857142857 11.5692c1.171542857142857 1.1715771428571429 1.171542857142857 3.071142857142857 0 4.242685714285714 -1.171542857142857 1.171542857142857 -3.0709714285714287 1.171542857142857 -4.242514285714286 0L31.29637714285714 24.71420571428571 26.69310857142857 29.28908571428571c-2.2972114285714285 2.2830514285714285 -6.010251428571428 2.2715657142857144 -8.293268571428571 -0.02561142857142857L12.523679999999999 23.35086857142857c-2.2830514285714285 -2.2972114285714285 -2.2715657142857144 -6.010251428571428 0.025645714285714282 -8.293302857142857L25.931862857142857 1.7575337142857141ZM5.571428571428571 35.57142857142857c-0.9467657142857142 0 -1.7142857142857142 0.7676571428571428 -1.7142857142857142 1.7142857142857142v6.428571428571428h-1.7142857142857142c-1.1834674285714284 0 -2.142857142857143 0.9593142857142857 -2.142857142857143 2.142857142857143S0.9593897142857143 48 2.142857142857143 48h25.71428571428571c1.1834742857142857 0 2.142857142857143 -0.9593142857142857 2.142857142857143 -2.142857142857143s-0.9593828571428571 -2.142857142857143 -2.142857142857143 -2.142857142857143h-1.7142857142857142v-6.428571428571428c0 -0.9466285714285714 -0.76752 -1.7142857142857142 -1.7142857142857142 -1.7142857142857142h-18.857142857142858Z" clip-rule="evenodd" stroke-width="3.4286"></path>
  </g>
</svg>