<svg xmlns="http://www.w3.org/2000/svg" fill="none" viewBox="0 0 48 48" id="Key--Streamline-Core-Remix" height="48" width="48">
  <desc>
    Key Streamline Icon: https://streamlinehq.com
  </desc>
  <g id="Free Remix/Interface Essential/key--entry-key-lock-login-pass-unlock-access">
    <path id="Union" fill="#000000" fill-rule="evenodd" d="M39.135771428571424 3.359931428571428c0.5684571428571429 0 1.1136 0.22577142857142857 1.5154285714285713 0.6276342857142857l6.726171428571428 6.726411428571428c0.8369142857142857 0.8368457142857142 0.8369142857142857 2.1936 0 3.030445714285714 -0.8365714285714285 0.8368457142857142 -2.1936 0.8368457142857142 -3.0301714285714283 0l-5.211428571428571 -5.211188571428571 -4.5370285714285705 4.537062857142857 4.370057142857142 4.369851428571429c0.8365714285714285 0.8368114285714285 0.8365714285714285 2.1936 0 3.030445714285714 -0.8369142857142857 0.8368457142857142 -2.193942857142857 0.8368457142857142 -3.0305142857142857 0L31.56833142857143 16.100742857142855l-9.304114285714284 9.304114285714284c1.3872685714285713 1.98408 2.2010742857142858 4.398651428571428 2.2010742857142858 7.003302857142857 0 6.757782857142857 -5.4782399999999996 12.235954285714286 -12.235988571428571 12.235954285714286 -6.7577485714285705 0 -12.235999268571428 -5.478171428571429 -12.235999268571428 -12.235954285714286 0 -6.7577485714285705 5.478250697142856 -12.236022857142856 12.235999268571428 -12.236022857142856 2.6052685714285713 0 5.020354285714285 0.8142171428571428 7.004674285714285 2.2020685714285713l10.77816 -10.77816c0.013268571428571428 -0.013988571428571428 0.02674285714285714 -0.02780571428571428 0.04042285714285714 -0.041519999999999994 0.013714285714285714 -0.013714285714285714 0.027565714285714284 -0.027188571428571427 0.041519999999999994 -0.04042285714285714l7.526605714285715 -7.526537142857142c0.4018285714285714 -0.4018628571428571 0.9469714285714286 -0.6276342857142857 1.5150857142857141 -0.6276342857142857ZM12.229302857142855 26.172137142857142c-3.4440342857142854 0 -6.235988571428571 2.7919542857142856 -6.235988571428571 6.236022857142856 0 3.4440685714285717 2.7919542857142856 6.235954285714286 6.235988571428571 6.235954285714286 3.4440342857142854 0 6.235988571428571 -2.7918857142857143 6.235988571428571 -6.235954285714286s-2.7919542857142856 -6.236022857142856 -6.235988571428571 -6.236022857142856Z" clip-rule="evenodd" stroke-width="3.4286"></path>
  </g>
</svg>