<svg xmlns="http://www.w3.org/2000/svg" fill="none" viewBox="0 0 48 48" id="Keyboard--Streamline-Core-Remix" height="48" width="48">
  <desc>
    Keyboard Streamline Icon: https://streamlinehq.com
  </desc>
  <g id="Free Remix/Computer Devices/Computer Devices/Keyboard/keyboard--keyboard-device-electronics-dvorak-qwerty">
    <path id="Union" fill="#000000" fill-rule="evenodd" d="M39.42857142857142 1.2857142857142856c1.183542857142857 0 2.142857142857143 0.9593897142857143 2.142857142857143 2.142857142857143 0 2.3869371428571426 -0.9483428571428572 4.676125714285714 -2.635885714285714 6.363977142857142 -1.6878857142857142 1.6878171428571427 -3.977142857142857 2.636022857142857 -6.364114285714286 2.636022857142857h-13.714285714285714c-1.2502971428571428 0 -2.449405714285714 0.49669714285714284 -3.3334971428571425 1.3807885714285713S14.142857142857142 15.892559999999998 14.142857142857142 17.142857142857142v1.2857142857142856H41.14285714285714c3.077142857142857 0 5.571428571428571 2.494422857142857 5.571428571428571 5.571428571428571v17.142857142857142c0 3.077142857142857 -2.494285714285714 5.571428571428571 -5.571428571428571 5.571428571428571H6.857142857142857c-3.0770057142857143 0 -5.571428571428571 -2.494285714285714 -5.571428571428571 -5.571428571428571V24c0 -3.0770057142857143 2.494422857142857 -5.571428571428571 5.571428571428571 -5.571428571428571h3V17.142857142857142c0 -2.3869371428571426 0.9482057142857141 -4.676125714285714 2.636022857142857 -6.363977142857142C14.18101714285714 9.091062857142857 16.470205714285715 8.142857142857142 18.857142857142858 8.142857142857142h13.714285714285714c1.2502971428571428 0 2.4493714285714288 -0.49669714285714284 3.3336 -1.3807885714285713 0.8838857142857142 -0.8840914285714284 1.3806857142857143 -2.0832 1.3806857142857143 -3.3334971428571425 0 -1.1834674285714284 0.9593142857142857 -2.142857142857143 2.142857142857143 -2.142857142857143ZM6.857142857142857 22.71428571428571h34.285714285714285c0.7100571428571428 0 1.2857142857142856 0.5756228571428571 1.2857142857142856 1.2857142857142856v17.142857142857142c0 0.7100571428571428 -0.5756571428571428 1.2857142857142856 -1.2857142857142856 1.2857142857142856H6.857142857142857c-0.7100914285714285 0 -1.2857142857142856 -0.5756571428571428 -1.2857142857142856 -1.2857142857142856V24c0 -0.7100914285714285 0.5756228571428571 -1.2857142857142856 1.2857142857142856 -1.2857142857142856Zm12.857142857142856 12c-1.1834742857142857 0 -2.142857142857143 0.9593142857142857 -2.142857142857143 2.142857142857143s0.9593828571428571 2.142857142857143 2.142857142857143 2.142857142857143h8.571428571428571c1.1834742857142857 0 2.142857142857143 -0.9593142857142857 2.142857142857143 -2.142857142857143s-0.9593828571428571 -2.142857142857143 -2.142857142857143 -2.142857142857143h-8.571428571428571Zm-11.571428571428571 2.142857142857143c0 -1.183542857142857 0.9593828571428571 -2.142857142857143 2.142857142857143 -2.142857142857143h2.571428571428571c1.1834742857142857 0 2.142857142857143 0.9593142857142857 2.142857142857143 2.142857142857143s-0.9593828571428571 2.142857142857143 -2.142857142857143 2.142857142857143H10.285714285714285c-1.1834742857142857 0 -2.142857142857143 -0.9593142857142857 -2.142857142857143 -2.142857142857143Zm27 -2.142857142857143c-1.1834742857142857 0 -2.142857142857143 0.9593142857142857 -2.142857142857143 2.142857142857143s0.9593828571428571 2.142857142857143 2.142857142857143 2.142857142857143H37.714285714285715c1.183542857142857 0 2.142857142857143 -0.9593142857142857 2.142857142857143 -2.142857142857143s-0.9593142857142857 -2.142857142857143 -2.142857142857143 -2.142857142857143h-2.571428571428571ZM8.142857142857142 28.285714285714285c0 -1.1834742857142857 0.9593828571428571 -2.142857142857143 2.142857142857143 -2.142857142857143h2.142857142857143c1.1834742857142857 0 2.142857142857143 0.9593828571428571 2.142857142857143 2.142857142857143s-0.9593828571428571 2.142857142857143 -2.142857142857143 2.142857142857143H10.285714285714285c-1.1834742857142857 0 -2.142857142857143 -0.9593828571428571 -2.142857142857143 -2.142857142857143Zm10.571142857142856 -2.142857142857143c-1.1834742857142857 0 -2.142857142857143 0.9593828571428571 -2.142857142857143 2.142857142857143s0.9593828571428571 2.142857142857143 2.142857142857143 2.142857142857143h2.142857142857143c1.1834742857142857 0 2.142857142857143 -0.9593828571428571 2.142857142857143 -2.142857142857143s-0.9593828571428571 -2.142857142857143 -2.142857142857143 -2.142857142857143h-2.142857142857143Zm6.285428571428572 2.142857142857143c0 -1.1834742857142857 0.9594171428571429 -2.142857142857143 2.142857142857143 -2.142857142857143h2.142857142857143c1.1834742857142857 0 2.142857142857143 0.9593828571428571 2.142857142857143 2.142857142857143s-0.9593828571428571 2.142857142857143 -2.142857142857143 2.142857142857143h-2.142857142857143c-1.1834399999999998 0 -2.142857142857143 -0.9593828571428571 -2.142857142857143 -2.142857142857143Zm10.572 -2.142857142857143c-1.183542857142857 0 -2.142857142857143 0.9593828571428571 -2.142857142857143 2.142857142857143s0.9593142857142857 2.142857142857143 2.142857142857143 2.142857142857143H37.714285714285715c1.183542857142857 0 2.142857142857143 -0.9593828571428571 2.142857142857143 -2.142857142857143s-0.9593142857142857 -2.142857142857143 -2.142857142857143 -2.142857142857143h-2.142857142857143Z" clip-rule="evenodd" stroke-width="3.4286"></path>
  </g>
</svg>