<svg xmlns="http://www.w3.org/2000/svg" fill="none" viewBox="0 0 48 48" id="Keyboard-Virtual--Streamline-Core-Remix" height="48" width="48">
  <desc>
    Keyboard Virtual Streamline Icon: https://streamlinehq.com
  </desc>
  <g id="Free Remix/Computer Devices/Computer Devices/Keyboard/keyboard-virtual--remote-device-electronics-qwerty-keyboard-virtual-interface">
    <path id="Union" fill="#000000" fill-rule="evenodd" d="M5.571428571428571 4.285714285714286c-0.7100914285714285 0 -1.2857142857142856 0.5756228571428571 -1.2857142857142856 1.2857142857142856v20.57142857142857c0 0.7100914285714285 0.5756228571428571 1.2857142857142856 1.2857142857142856 1.2857142857142856h36.857142857142854c0.7100571428571428 0 1.2857142857142856 -0.5756228571428571 1.2857142857142856 -1.2857142857142856v-20.57142857142857c0 -0.7100914285714285 -0.5756571428571428 -1.2857142857142856 -1.2857142857142856 -1.2857142857142856H5.571428571428571ZM0 5.571428571428571C0 2.494412571428571 2.494412571428571 0 5.571428571428571 0h36.857142857142854C45.505714285714284 0 48 2.494412571428571 48 5.571428571428571v20.57142857142857c0 3.0770057142857143 -2.494285714285714 5.571428571428571 -5.571428571428571 5.571428571428571H5.571428571428571C2.494412571428571 31.71428571428571 0 29.219862857142857 0 26.142857142857142v-20.57142857142857ZM17.142857142857142 37.714285714285715c-0.69336 0 -1.3184571428571428 0.41759999999999997 -1.5837942857142857 1.0583999999999998 -0.2653371428571428 0.6404571428571428 -0.11866285714285714 1.377942857142857 0.37162285714285714 1.8682285714285716l6.857142857142857 6.857142857142857c0.669462857142857 0.6692571428571429 1.7548799999999998 0.6692571428571429 2.424342857142857 0l6.857142857142857 -6.857142857142857c0.4902857142857142 -0.4902857142857142 0.63696 -1.2277714285714285 0.37162285714285714 -1.8682285714285716C32.1756 38.131885714285715 31.550502857142856 37.714285714285715 30.857142857142854 37.714285714285715H17.142857142857142Zm2.142857142857143 -19.71428571428571c-1.1834742857142857 0 -2.142857142857143 0.9593828571428571 -2.142857142857143 2.142857142857143s0.9593828571428571 2.142857142857143 2.142857142857143 2.142857142857143h9.428571428571429c1.1834742857142857 0 2.142857142857143 -0.9593828571428571 2.142857142857143 -2.142857142857143s-0.9593828571428571 -2.142857142857143 -2.142857142857143 -2.142857142857143h-9.428571428571429ZM6.857142857142857 20.142857142857142c0 -1.1834742857142857 0.9593828571428571 -2.142857142857143 2.142857142857143 -2.142857142857143h2.571428571428571c1.1834742857142857 0 2.142857142857143 0.9593828571428571 2.142857142857143 2.142857142857143s-0.9593828571428571 2.142857142857143 -2.142857142857143 2.142857142857143h-2.571428571428571C7.816525714285714 22.285714285714285 6.857142857142857 21.32633142857143 6.857142857142857 20.142857142857142Zm29.57142857142857 -2.142857142857143c-1.183542857142857 0 -2.142857142857143 0.9593828571428571 -2.142857142857143 2.142857142857143s0.9593142857142857 2.142857142857143 2.142857142857143 2.142857142857143h2.571428571428571c1.183542857142857 0 2.142857142857143 -0.9593828571428571 2.142857142857143 -2.142857142857143s-0.9593142857142857 -2.142857142857143 -2.142857142857143 -2.142857142857143h-2.571428571428571ZM6.857142857142857 11.571428571428571c0 -1.1834742857142857 0.9593828571428571 -2.142857142857143 2.142857142857143 -2.142857142857143h2.571428571428571c1.1834742857142857 0 2.142857142857143 0.9593828571428571 2.142857142857143 2.142857142857143S12.754902857142856 13.714285714285714 11.571428571428571 13.714285714285714h-2.571428571428571C7.816525714285714 13.714285714285714 6.857142857142857 12.754902857142856 6.857142857142857 11.571428571428571Zm11.286 -2.142857142857143c-1.1834742857142857 0 -2.142857142857143 0.9593828571428571 -2.142857142857143 2.142857142857143s0.9593828571428571 2.142857142857143 2.142857142857143 2.142857142857143h2.571428571428571c1.1834742857142857 0 2.142857142857143 -0.9593828571428571 2.142857142857143 -2.142857142857143s-0.9593828571428571 -2.142857142857143 -2.142857142857143 -2.142857142857143h-2.571428571428571Zm6.999428571428571 2.142857142857143c0 -1.1834742857142857 0.9593828571428571 -2.142857142857143 2.142857142857143 -2.142857142857143h2.571428571428571c1.1834742857142857 0 2.142857142857143 0.9593828571428571 2.142857142857143 2.142857142857143S31.040331428571427 13.714285714285714 29.85685714285714 13.714285714285714h-2.571428571428571c-1.1834742857142857 0 -2.142857142857143 -0.9593828571428571 -2.142857142857143 -2.142857142857143ZM36.42857142857142 9.428571428571429c-1.183542857142857 0 -2.142857142857143 0.9593828571428571 -2.142857142857143 2.142857142857143s0.9593142857142857 2.142857142857143 2.142857142857143 2.142857142857143h2.571428571428571c1.183542857142857 0 2.142857142857143 -0.9593828571428571 2.142857142857143 -2.142857142857143s-0.9593142857142857 -2.142857142857143 -2.142857142857143 -2.142857142857143h-2.571428571428571Z" clip-rule="evenodd" stroke-width="3.4286"></path>
  </g>
</svg>