<svg xmlns="http://www.w3.org/2000/svg" fill="none" viewBox="0 0 48 48" id="Keyboard-Wireless-2--Streamline-Core-Remix" height="48" width="48">
  <desc>
    Keyboard Wireless 2 Streamline Icon: https://streamlinehq.com
  </desc>
  <g id="Free Remix/Computer Devices/Computer Devices/Keyboard/keyboard-wireless-2--remote-device-wireless-electronics-qwerty-keyboard-bluetooth">
    <path id="Union" fill="#000000" fill-rule="evenodd" d="M24 0C19.59164571428571 0 15.227999999999998 0.8832514285714285 11.166651428571429 2.597605714285714c-1.0902857142857143 0.46023771428571425 -1.6010742857142857 1.717217142857143 -1.140822857142857 2.807502857142857 0.46021714285714277 1.09032 1.7172 1.6011085714285713 2.80752 1.1408571428571428C16.367211428571427 5.054262857142857 20.164182857142855 4.285714285714286 24 4.285714285714286s7.632788571428572 0.7685485714285714 11.166514285714285 2.260251428571429c1.0906285714285713 0.46025142857142853 2.347542857142857 -0.05053714285714285 2.8076571428571424 -1.1408571428571428 0.46011428571428575 -1.0902857142857143 -0.05039999999999999 -2.3472651428571427 -1.1406857142857143 -2.807502857142857C32.772 0.8832514285714285 28.40835428571428 0 24 0Zm8.232171428571428 8.884182857142855c-5.2937828571428565 -1.7975999999999999 -11.032834285714285 -1.7975999999999999 -16.326582857142856 0 -1.1206285714285713 0.3805028571428571 -1.7205942857142855 1.59744 -1.3400571428571426 2.7180685714285713 0.3805028571428571 1.1206285714285713 1.59744 1.7205942857142855 2.7180685714285713 1.3400571428571426 4.400125714285713 -1.4941371428571428 9.170399999999999 -1.4941371428571428 13.570559999999999 0 1.1206285714285713 0.38053714285714285 2.337531428571429 -0.21942857142857142 2.7180685714285713 -1.3400571428571426 0.38053714285714285 -1.1206285714285713 -0.21942857142857142 -2.3375657142857142 -1.3400571428571426 -2.7180685714285713ZM5.571428571428571 20.57142857142857c-0.7100914285714285 0 -1.2857142857142856 0.5756228571428571 -1.2857142857142856 1.2857142857142856v20.57142857142857c0 0.7100571428571428 0.5756228571428571 1.2857142857142856 1.2857142857142856 1.2857142857142856h36.857142857142854c0.7100571428571428 0 1.2857142857142856 -0.5756571428571428 1.2857142857142856 -1.2857142857142856v-20.57142857142857c0 -0.7100914285714285 -0.5756571428571428 -1.2857142857142856 -1.2857142857142856 -1.2857142857142856H5.571428571428571ZM0 21.857142857142858C0 18.780137142857143 2.494412571428571 16.285714285714285 5.571428571428571 16.285714285714285h36.857142857142854c3.077142857142857 0 5.571428571428571 2.494422857142857 5.571428571428571 5.571428571428571v20.57142857142857c0 3.077142857142857 -2.494285714285714 5.571428571428571 -5.571428571428571 5.571428571428571H5.571428571428571C2.494412571428571 48 0 45.505714285714284 0 42.42857142857142v-20.57142857142857ZM19.285714285714285 34.285714285714285c-1.1834742857142857 0 -2.142857142857143 0.9593142857142857 -2.142857142857143 2.142857142857143s0.9593828571428571 2.142857142857143 2.142857142857143 2.142857142857143h9.428571428571429c1.1834742857142857 0 2.142857142857143 -0.9593142857142857 2.142857142857143 -2.142857142857143S29.897759999999995 34.285714285714285 28.71428571428571 34.285714285714285h-9.428571428571429ZM6.857142857142857 36.42857142857142c0 -1.183542857142857 0.9593828571428571 -2.142857142857143 2.142857142857143 -2.142857142857143h2.571428571428571c1.1834742857142857 0 2.142857142857143 0.9593142857142857 2.142857142857143 2.142857142857143s-0.9593828571428571 2.142857142857143 -2.142857142857143 2.142857142857143h-2.571428571428571c-1.1834742857142857 0 -2.142857142857143 -0.9593142857142857 -2.142857142857143 -2.142857142857143ZM36.42857142857142 34.285714285714285c-1.183542857142857 0 -2.142857142857143 0.9593142857142857 -2.142857142857143 2.142857142857143s0.9593142857142857 2.142857142857143 2.142857142857143 2.142857142857143h2.571428571428571c1.183542857142857 0 2.142857142857143 -0.9593142857142857 2.142857142857143 -2.142857142857143S40.183542857142854 34.285714285714285 39 34.285714285714285h-2.571428571428571ZM6.857142857142857 27.857142857142854c0 -1.1834742857142857 0.9593828571428571 -2.142857142857143 2.142857142857143 -2.142857142857143h2.571428571428571c1.1834742857142857 0 2.142857142857143 0.9593828571428571 2.142857142857143 2.142857142857143s-0.9593828571428571 2.142857142857143 -2.142857142857143 2.142857142857143h-2.571428571428571C7.816525714285714 30 6.857142857142857 29.040617142857137 6.857142857142857 27.857142857142854ZM18.14314285714286 25.71428571428571c-1.1834742857142857 0 -2.142857142857143 0.9593828571428571 -2.142857142857143 2.142857142857143s0.9593828571428571 2.142857142857143 2.142857142857143 2.142857142857143h2.571428571428571c1.1834742857142857 0 2.142857142857143 -0.9593828571428571 2.142857142857143 -2.142857142857143s-0.9593828571428571 -2.142857142857143 -2.142857142857143 -2.142857142857143h-2.571428571428571Zm6.999428571428571 2.142857142857143c0 -1.1834742857142857 0.9593828571428571 -2.142857142857143 2.142857142857143 -2.142857142857143h2.571428571428571c1.1834742857142857 0 2.142857142857143 0.9593828571428571 2.142857142857143 2.142857142857143s-0.9593828571428571 2.142857142857143 -2.142857142857143 2.142857142857143h-2.571428571428571c-1.1834742857142857 0 -2.142857142857143 -0.9593828571428571 -2.142857142857143 -2.142857142857143ZM36.42857142857142 25.71428571428571c-1.183542857142857 0 -2.142857142857143 0.9593828571428571 -2.142857142857143 2.142857142857143s0.9593142857142857 2.142857142857143 2.142857142857143 2.142857142857143h2.571428571428571c1.183542857142857 0 2.142857142857143 -0.9593828571428571 2.142857142857143 -2.142857142857143s-0.9593142857142857 -2.142857142857143 -2.142857142857143 -2.142857142857143h-2.571428571428571Z" clip-rule="evenodd" stroke-width="3.4286"></path>
  </g>
</svg>