<svg xmlns="http://www.w3.org/2000/svg" fill="none" viewBox="0 0 48 48" id="Keyhole-Lock-Circle--Streamline-Core-Remix" height="48" width="48">
  <desc>
    Keyhole Lock Circle Streamline Icon: https://streamlinehq.com
  </desc>
  <g id="Free Remix/Interface Essential/keyhole-lock-circle--circle-frame-key-keyhole-lock-locked-secure-security">
    <path id="Union" fill="#000000" fill-rule="evenodd" d="M24.00061714285714 0.0016741062857142856C10.746377142857142 0.0016741062857142856 0.0016741062857142856 10.746377142857142 0.0016741062857142856 24.00061714285714c0 13.25424 10.744703036571428 23.999039999999997 23.99894303657143 23.999039999999997 13.25424 0 23.999039999999997 -10.7448 23.999039999999997 -23.999039999999997S37.25485714285714 0.0016741062857142856 24.00061714285714 0.0016741062857142856ZM4.287394285714286 24.00061714285714c0 -10.887325714285714 8.825897142857142 -19.713222857142856 19.713222857142856 -19.713222857142856 10.887154285714285 0 19.713325714285713 8.825897142857142 19.713325714285713 19.713222857142856 0 10.887497142857143 -8.826171428571428 19.713325714285713 -19.713325714285713 19.713325714285713 -10.887325714285714 0 -19.713222857142856 -8.82582857142857 -19.713222857142856 -19.713325714285713ZM24 13.714285714285714c-3.7870971428571427 0 -6.857142857142857 3.070045714285714 -6.857142857142857 6.857142857142857 0 2.7112457142857145 1.5735085714285715 5.054982857142857 3.8571428571428568 6.167794285714285V32.57142857142857c0 1.6568571428571428 1.343142857142857 3 3 3s3 -1.343142857142857 3 -3V26.739222857142856C29.283634285714285 25.62641142857143 30.857142857142854 23.282674285714283 30.857142857142854 20.57142857142857c0 -3.7870971428571427 -3.070045714285714 -6.857142857142857 -6.857142857142857 -6.857142857142857Z" clip-rule="evenodd" stroke-width="3.4286"></path>
  </g>
</svg>