<svg xmlns="http://www.w3.org/2000/svg" fill="none" viewBox="0 0 48 48" id="Ladder--Streamline-Core-Remix" height="48" width="48">
  <desc>
    Ladder Streamline Icon: https://streamlinehq.com
  </desc>
  <g id="Free Remix/Map Travel/ladder--business-product-metaphor-ladder">
    <path id="Union" fill="#000000" fill-rule="evenodd" d="M8.571428571428571 0c1.1834742857142857 0 2.142857142857143 0.9593897142857143 2.142857142857143 2.142857142857143v3.4285714285714284h26.57142857142857v-3.4285714285714284c0 -1.1834674285714284 0.9593142857142857 -2.142857142857143 2.142857142857143 -2.142857142857143s2.142857142857143 0.9593897142857143 2.142857142857143 2.142857142857143v43.714285714285715c0 1.183542857142857 -0.9593142857142857 2.142857142857143 -2.142857142857143 2.142857142857143s-2.142857142857143 -0.9593142857142857 -2.142857142857143 -2.142857142857143v-3.4285714285714284h-26.57142857142857v3.4285714285714284c0 1.183542857142857 -0.9593828571428571 2.142857142857143 -2.142857142857143 2.142857142857143s-2.142857142857143 -0.9593142857142857 -2.142857142857143 -2.142857142857143V2.142857142857143C6.428571428571428 0.9593897142857143 7.387954285714285 0 8.571428571428571 0Zm2.142857142857143 36.42857142857142h26.57142857142857v-9.428571428571429h-26.57142857142857v9.428571428571429Zm26.57142857142857 -24.857142857142854v9.428571428571429h-26.57142857142857v-9.428571428571429h26.57142857142857Z" clip-rule="evenodd" stroke-width="3.4286"></path>
  </g>
</svg>