<svg xmlns="http://www.w3.org/2000/svg" fill="none" viewBox="0 0 48 48" id="Landscape-2--Streamline-Core-Remix" height="48" width="48">
  <desc>
    Landscape 2 Streamline Icon: https://streamlinehq.com
  </desc>
  <g id="Free Remix/Images Photography/landscape-2--photos-photo-landscape-picture-photography-camera-pictures-image">
    <path id="Union" fill="#000000" fill-rule="evenodd" d="M41.6832 42.39085714285714c0.4299428571428572 -0.12068571428571429 0.7453714285714286 -0.5156571428571428 0.7453714285714286 -0.9843428571428572V6.593417142857142c0 -0.5644457142857142 -0.45771428571428574 -1.0219885714285715 -1.0220571428571428 -1.0219885714285715H6.593417142857142c-0.5644457142857142 0 -1.0219885714285715 0.45754285714285714 -1.0219885714285715 1.0219885714285715v21.826182857142857l9.858068571428571 -9.858068571428571c0.669462857142857 -0.669462857142857 1.7548799999999998 -0.669462857142857 2.424342857142857 0L41.6832 42.39085714285714Zm5.031085714285714 -0.9843428571428572c0 2.931428571428571 -2.3763428571428573 5.307771428571429 -5.307771428571429 5.307771428571429H6.593417142857142C3.662057142857143 46.71428571428571 1.2857142857142856 44.337942857142856 1.2857142857142856 41.40651428571429V6.593417142857142C1.2857142857142856 3.662057142857143 3.662057142857143 1.2857142857142856 6.593417142857142 1.2857142857142856H41.40651428571429c2.931428571428571 0 5.307771428571429 2.3763428571428573 5.307771428571429 5.307702857142856V41.40651428571429ZM37.714285714285715 16.285714285714285C37.714285714285715 12.972 35.028 10.285714285714285 31.71428571428571 10.285714285714285S25.71428571428571 12.972 25.71428571428571 16.285714285714285 28.40057142857143 22.285714285714285 31.71428571428571 22.285714285714285 37.714285714285715 19.59942857142857 37.714285714285715 16.285714285714285Z" clip-rule="evenodd" stroke-width="3.4286"></path>
  </g>
</svg>