<svg xmlns="http://www.w3.org/2000/svg" fill="none" viewBox="0 0 48 48" id="Landscape-Setting--Streamline-Core-Remix" height="48" width="48">
  <desc>
    Landscape Setting Streamline Icon: https://streamlinehq.com
  </desc>
  <g id="Free Remix/Images Photography/landscape-setting--design-composition-horizontal-lanscape">
    <path id="Union" fill="#000000" fill-rule="evenodd" d="M43.714285714285715 8.571428571428571c0 -0.3410057142857143 -0.13542857142857143 -0.6680228571428571 -0.3764571428571428 -0.9091199999999999 -0.24137142857142857 -0.24113142857142858 -0.5681142857142857 -0.37659428571428566 -0.9092571428571428 -0.37659428571428566l-36.857142857142854 0c-0.3410057142857143 0 -0.6680228571428571 0.13546285714285713 -0.9091199999999999 0.37655999999999995C4.421177142857142 7.9034057142857135 4.285714285714286 8.230422857142857 4.285714285714286 8.571428571428571l0 30.857142857142854c0 0.34114285714285714 0.13546285714285713 0.6678857142857143 0.37655999999999995 0.9092571428571428 0.24113142857142858 0.24102857142857143 0.5681485714285713 0.3764571428571428 0.9091542857142857 0.3764571428571428l36.857142857142854 0c0.34114285714285714 0 0.6678857142857143 -0.13542857142857143 0.9092571428571428 -0.3764571428571428 0.24102857142857143 -0.24137142857142857 0.3764571428571428 -0.5681142857142857 0.3764571428571428 -0.9092571428571428v-30.857142857142854Zm2.6537142857142855 -3.9395999999999995C47.41302857142857 5.676685714285714 48 7.093782857142857 48 8.571428571428571v30.857142857142854c0 1.4777142857142855 -0.5869714285714285 2.894742857142857 -1.632 3.9394285714285715 -1.0446857142857142 1.0450285714285714 -2.4617142857142853 1.632 -3.9394285714285715 1.632l-36.857142857142854 0c-1.477645714285714 0 -2.8947531428571427 -0.5869714285714285 -3.939593142857143 -1.632C0.5869885714285714 42.32331428571428 0 40.90628571428571 0 39.42857142857142v-30.857142857142854c0 -1.477645714285714 0.586992 -2.894742857142857 1.631832 -3.9395999999999995C2.676678857142857 3.5869714285714283 4.093782857142857 3 5.571428571428571 3h36.857142857142854c1.4777142857142855 0 2.894742857142857 0.5870057142857142 3.9394285714285715 1.6318285714285712ZM23.999554285714282 10.09968c-3.8989714285714285 0 -7.059668571428571 3.1607314285714283 -7.059668571428571 7.059668571428571 0 3.898937142857142 3.1606971428571424 7.059668571428571 7.059668571428571 7.059668571428571 3.898937142857142 0 7.059668571428571 -3.1607314285714283 7.059668571428571 -7.059668571428571 0 -3.898937142857142 -3.1607314285714283 -7.059668571428571 -7.059668571428571 -7.059668571428571ZM24 26.728182857142855c-6.108651428571428 0 -11.307051428571429 3.8783314285714288 -13.275531428571428 9.301645714285714 -0.1907657142857143 0.5252571428571429 -0.11327999999999999 1.1108571428571428 0.20756571428571427 1.5685714285714285s0.8448 0.7306285714285714 1.4038285714285712 0.7306285714285714l23.32813714285714 -0.00034285714285714285c0.5591999999999999 0 1.0830857142857142 -0.2725714285714286 1.404 -0.7302857142857142 0.3209142857142857 -0.45771428571428574 0.3984 -1.0433142857142856 0.2074285714285714 -1.5689142857142857C35.30708571428571 30.606514285714283 30.108582857142856 26.728182857142855 24 26.728182857142855Z" clip-rule="evenodd" stroke-width="3.4286"></path>
  </g>
</svg>