<svg xmlns="http://www.w3.org/2000/svg" fill="none" viewBox="0 0 48 48" id="Laptop-Camera--Streamline-Core-Remix" height="48" width="48">
  <desc>
    Laptop Camera Streamline Icon: https://streamlinehq.com
  </desc>
  <g id="Free Remix/Images Photography/laptop-camera--photos-photo-picture-photography-camera-pictures-laptop-computer">
    <path id="Union" fill="#000000" fill-rule="evenodd" d="M29.430754285714286 0.7633714285714285C29.74872 0.28645919999999997 30.283954285714284 0 30.857142857142854 0h6.857142857142857c0.5732571428571428 0 1.1084571428571428 0.28645919999999997 1.4262857142857142 0.7633714285714285L42.06034285714286 5.142857142857142H42.857142857142854c1.3638857142857141 0 2.672228571428571 0.5418514285714285 3.636685714285714 1.5063085714285713S48 8.921725714285714 48 10.285714285714285v8.571428571428571c0 1.3639885714285713 -0.5417142857142857 2.6720914285714286 -1.5061714285714285 3.636548571428571C45.52937142857143 23.45814857142857 44.22102857142857 24 42.857142857142854 24h-17.142857142857142c-1.3639885714285713 0 -2.6720914285714286 -0.5418514285714285 -3.636548571428571 -1.5063085714285713C21.11328 21.529234285714285 20.57142857142857 20.22113142857143 20.57142857142857 18.857142857142858V10.285714285714285c0 -1.3639885714285713 0.5418514285714285 -2.6720914285714286 1.5063085714285713 -3.636548571428571C23.042194285714285 5.684708571428571 24.350331428571426 5.142857142857142 25.71428571428571 5.142857142857142h0.7968342857142857L29.430754285714286 0.7633714285714285ZM30.428571428571427 13.714285714285714c0 2.1302399999999997 1.726902857142857 3.8571428571428568 3.8571428571428568 3.8571428571428568 2.1305142857142854 0 3.8571428571428568 -1.726902857142857 3.8571428571428568 -3.8571428571428568S36.41622857142857 9.857142857142856 34.285714285714285 9.857142857142856c-2.1302399999999997 0 -3.8571428571428568 1.726902857142857 -3.8571428571428568 3.8571428571428568ZM9.428571428571429 30V15c0 -0.7100914285714285 0.5756228571428571 -1.2857142857142856 1.2857142857142856 -1.2857142857142856H14.571428571428571c1.1834742857142857 0 2.142857142857143 -0.9593828571428571 2.142857142857143 -2.142857142857143s-0.9593828571428571 -2.142857142857143 -2.142857142857143 -2.142857142857143H10.714285714285714c-3.0770057142857143 0 -5.571428571428571 2.494422857142857 -5.571428571428571 5.571428571428571v16.637005714285714L0.5190617142857142 40.88468571428571C0.1777121142857143 41.56731428571428 0 42.32022857142857 0 43.08342857142857 0 45.798857142857145 2.201249142857143 48 4.91664 48H43.08342857142857c2.7154285714285713 0 4.916571428571428 -2.201142857142857 4.916571428571428 -4.916571428571428 0 -0.7631999999999999 -0.17759999999999998 -1.5161142857142855 -0.5190857142857143 -2.198742857142857L42.857142857142854 31.637005714285714V29.57142857142857c0 -1.1834742857142857 -0.9593142857142857 -2.142857142857143 -2.142857142857143 -2.142857142857143s-2.142857142857143 0.9593828571428571 -2.142857142857143 2.142857142857143v0.42857142857142855h-29.142857142857142Z" clip-rule="evenodd" stroke-width="3.4286"></path>
  </g>
</svg>