<svg xmlns="http://www.w3.org/2000/svg" fill="none" viewBox="0 0 48 48" id="Laptop-Charging--Streamline-Core-Remix" height="48" width="48">
  <desc>
    Laptop Charging Streamline Icon: https://streamlinehq.com
  </desc>
  <g id="Free Remix/Computer Devices/laptop-charging--device-laptop-electronics-computer-notebook-charging">
    <path id="Union" fill="#000000" fill-rule="evenodd" d="M42.26125714285714 4.217691428571428c0.9089142857142857 -1.091009142857143 0.7614857142857142 -2.7124594285714285 -0.32948571428571427 -3.621624 -1.0909714285714285 -0.9091652571428571 -2.712342857142857 -0.7617606857142857 -3.6216 0.32923542857142857l-8.571325714285713 10.285714285714285c-0.6387428571428571 0.7664914285714286 -0.7764342857142856 1.833325714285714 -0.35321142857142857 2.7368914285714285 0.4231885714285714 0.9035314285714284 1.3309028571428572 1.4807314285714284 2.3286514285714284 1.4807314285714284h8.224114285714284l-5.0568 6.068091428571428c-0.9090514285714285 1.0910057142857141 -0.7616571428571428 2.7124457142857143 0.32948571428571427 3.6216 1.0909714285714285 0.9091885714285715 2.712342857142857 0.7617599999999999 3.6216 -0.32921142857142854l8.571428571428571 -10.285714285714285c0.6387428571428571 -0.7665257142857143 0.7762285714285714 -1.833325714285714 0.3531428571428571 -2.7368914285714285s-1.3309714285714285 -1.4807314285714284 -2.3286857142857142 -1.4807314285714284h-8.224114285714284l5.0568 -6.068091428571428ZM9 15.857211428571429c0 -0.7100914285714285 0.5756228571428571 -1.2857142857142856 1.2857142857142856 -1.2857142857142856h13.714285714285714c1.1834742857142857 0 2.142857142857143 -0.9593828571428571 2.142857142857143 -2.142857142857143s-0.9593828571428571 -2.142857142857143 -2.142857142857143 -2.142857142857143H10.285714285714285c-3.0770057142857143 0 -5.571428571428571 2.494422857142857 -5.571428571428571 5.571428571428571v17.472754285714284L0.5195211428571428 41.33828571428571C0.17826274285714286 41.989714285714285 0 42.714171428571426 0 43.4496 0 45.96274285714285 2.0373119999999996 48 4.5504685714285715 48H43.4496C45.96274285714285 48 48 45.96274285714285 48 43.4496c0 -0.7354285714285713 -0.17828571428571427 -1.4598857142857142 -0.5194285714285714 -2.1113142857142857L43.285714285714285 33.32996571428571V29.57149714285714c0 -1.1834742857142857 -0.9593142857142857 -2.142857142857143 -2.142857142857143 -2.142857142857143s-2.142857142857143 0.9593828571428571 -2.142857142857143 2.142857142857143v2.142857142857143h-30v-15.857142857142856Z" clip-rule="evenodd" stroke-width="3.4286"></path>
  </g>
</svg>