<svg xmlns="http://www.w3.org/2000/svg" fill="none" viewBox="0 0 48 48" id="Lasso-Tool--Streamline-Core-Remix" height="48" width="48">
  <desc>
    Lasso Tool Streamline Icon: https://streamlinehq.com
  </desc>
  <g id="Free Remix/Interface Essential/lasso-tool">
    <path id="Union" fill="#000000" fill-rule="evenodd" d="M5.997017142857143 7.730297142857142C9.556491428571428 4.0225028571428565 15.296845714285713 1.2857142857142856 24 1.2857142857142856s14.443542857142855 2.7367885714285713 18.003085714285714 6.444582857142857c3.507428571428571 3.6535199999999994 4.7112 8.060571428571428 4.7112 11.126845714285714 0 3.0662742857142855 -1.2037714285714285 7.473325714285714 -4.7112 11.126845714285714 -2.9533714285714288 3.0762171428571428 -7.4077714285714285 5.483897142857143 -13.809737142857143 6.215211428571428 1.7420914285714284 1.905942857142857 3.0928114285714283 4.616228571428572 3.0928114285714283 8.37222857142857 0 1.1832 -0.9593828571428571 2.142857142857143 -2.142857142857143 2.142857142857143s-2.142857142857143 -0.9596571428571428 -2.142857142857143 -2.142857142857143c0 -3.6264000000000003 -1.7602971428571428 -5.638971428571429 -3.5653371428571425 -6.834171428571429 -0.28484571428571426 -0.18857142857142856 -0.5710971428571429 -0.35622857142857145 -0.8518971428571428 -0.5050285714285714 -0.23238857142857144 1.1225142857142858 -0.7933714285714285 2.3783999999999996 -1.8373714285714287 3.4659428571428568 -1.5023314285714284 1.5651428571428572 -3.814114285714285 2.587542857142857 -7.031554285714286 2.587542857142857 -3.21744 0 -5.529222857142857 -1.0224 -7.031554285714286 -2.587542857142857 -1.4502514285714283 -1.5106285714285712 -1.9684457142857144 -3.346285714285714 -1.9684457142857144 -4.698171428571428 0 -1.3518857142857141 0.5181942857142857 -3.1876114285714285 1.9684457142857144 -4.698274285714286 0.10882285714285712 -0.11334857142857142 0.22186285714285714 -0.22381714285714285 0.3391542857142857 -0.3312685714285714C2.7190354285714284 27.155485714285714 1.2857142857142856 22.19046857142857 1.2857142857142856 18.857142857142858c0 -3.0662742857142855 1.203918857142857 -7.473325714285714 4.711302857142857 -11.126845714285714Zm12.181062857142857 27.294274285714284 -0.013748571428571426 -0.028114285714285717c-0.11821714285714284 -0.2403428571428571 -0.28357714285714286 -0.4906285714285714 -0.5101714285714285 -0.7267542857142857C17.09934857142857 33.691782857142854 15.98256 33 13.714285714285714 33c-0.8656114285714286 0 -1.5635657142857142 0.10073142857142857 -2.126537142857143 0.25748571428571426 -0.02146285714285714 0.0064457142857142855 -0.042994285714285714 0.012582857142857142 -0.06462857142857142 0.018377142857142856 -0.8741142857142857 0.25464 -1.4138057142857143 0.6449828571428572 -1.7487085714285715 0.9938400000000001 -0.6068914285714285 0.6321257142857143 -0.7744114285714285 1.3678971428571427 -0.7744114285714285 1.7302971428571425 0 0.3624 0.16752 1.0981714285714284 0.7744114285714285 1.7304 0.5548114285714285 0.5777142857142857 1.6715999999999998 1.2696 3.9398742857142857 1.2696 2.2682742857142855 0 3.385062857142857 -0.6918857142857143 3.9398742857142857 -1.2696 0.6068914285714285 -0.6322285714285715 0.7744114285714285 -1.368 0.7744114285714285 -1.7304 0 -0.2218285714285714 -0.06270857142857143 -0.5831999999999999 -0.25049142857142853 -0.9754285714285713ZM24 32.14285714285714c-0.9221485714285713 0 -1.7984914285714286 -0.034148571428571424 -2.6310857142857142 -0.09867428571428571 -0.18521142857142855 -0.2535428571428571 -0.39236571428571426 -0.5021142857142856 -0.6230742857142857 -0.7424571428571428C19.24350857142857 29.73678857142857 16.93172571428571 28.71428571428571 13.714285714285714 28.71428571428571c-0.8470628571428571 0 -1.6313485714285714 0.07086857142857143 -2.35464 0.20386285714285712C6.891154285714286 25.907279999999997 5.571428571428571 21.454011428571427 5.571428571428571 18.857142857142858c0 -2.0765828571428573 0.8532342857142856 -5.383817142857143 3.5172685714285716 -8.15886857142857C11.700651428571428 7.977497142857142 16.246011428571425 5.571428571428571 24 5.571428571428571s12.299314285714285 2.4060685714285714 14.9112 5.1268457142857145c2.664 2.7750514285714285 3.5173714285714284 6.082285714285714 3.5173714285714284 8.15886857142857 0 2.0765828571428573 -0.8533714285714286 5.383817142857143 -3.5173714285714284 8.15886857142857C36.29931428571429 29.73678857142857 31.75398857142857 32.14285714285714 24 32.14285714285714Z" clip-rule="evenodd" stroke-width="3.4286"></path>
  </g>
</svg>