<svg xmlns="http://www.w3.org/2000/svg" fill="none" viewBox="0 0 48 48" id="Layers-2--Streamline-Core-Remix" height="48" width="48">
  <desc>
    Layers 2 Streamline Icon: https://streamlinehq.com
  </desc>
  <g id="Free Remix/Interface Essential/layers-2--design-layer-layers-pile-stack-align">
    <path id="Union" fill="#000000" fill-rule="evenodd" d="M22.318971428571427 3.3607714285714283c-3.0408342857142854 0 -5.505908571428571 2.4650914285714283 -5.505908571428571 5.505891428571428v13.452205714285714c0 3.0408 2.4650742857142856 5.5058742857142855 5.505908571428571 5.5058742857142855h20.178171428571428c3.0408 0 5.505942857142857 -2.4650742857142856 5.505942857142857 -5.5058742857142855V8.866662857142858c0 -3.0408 -2.465142857142857 -5.505891428571428 -5.505942857142857 -5.505891428571428H22.318971428571427ZM10.54854857142857 13.448948571428572c1.1834742857142857 0 2.142857142857143 0.9593828571428571 2.142857142857143 2.142857142857143V30.725485714285714c0 0.32362285714285716 0.12857142857142856 0.6339771428571428 0.35739428571428566 0.8628342857142857 0.2288228571428571 0.2288228571428571 0.5391771428571429 0.35736 0.8627999999999999 0.35736h21.859714285714286c1.183542857142857 0 2.142857142857143 0.9593828571428571 2.142857142857143 2.142857142857143 0 1.1835771428571429 -0.9593142857142857 2.1428914285714282 -2.142857142857143 2.1428914285714282H13.9116c-1.460262857142857 0 -2.8606971428571426 -0.5801142857142857 -3.89328 -1.6127999999999998 -1.0325485714285714 -1.0324114285714285 -1.6126285714285713 -2.43288 -1.6126285714285713 -3.893142857142857V15.591805714285712c0 -1.1834742857142857 0.9593828571428571 -2.142857142857143 2.142857142857143 -2.142857142857143ZM4.284034285714285 24c0 -1.1834742857142857 -0.9593828571428571 -2.142857142857143 -2.1428502857142857 -2.142857142857143 -1.1834674285714284 0 -2.1428581062857144 0.9593828571428571 -2.1428581062857144 2.142857142857143v15.133714285714284c0 1.4602285714285714 0.580084392 2.8608 1.612643249142857 3.893142857142857 1.0325554285714285 1.0326857142857142 2.4329965714285713 1.6127999999999998 3.8932594285714286 1.6127999999999998h21.859782857142857c1.1834742857142857 0 2.142857142857143 -0.9593142857142857 2.142857142857143 -2.142857142857143s-0.9593828571428571 -2.142857142857143 -2.142857142857143 -2.142857142857143H5.504228571428571c-0.32362285714285716 0 -0.6339771428571428 -0.12857142857142856 -0.8627999999999999 -0.3576 -0.2288228571428571 -0.22868571428571427 -0.35739428571428566 -0.5389714285714285 -0.35739428571428566 -0.8626285714285713V24Z" clip-rule="evenodd" stroke-width="3.4286"></path>
  </g>
</svg>