<svg xmlns="http://www.w3.org/2000/svg" fill="none" viewBox="0 0 48 48" id="Layers-1--Streamline-Core-Remix" height="48" width="48">
  <desc>
    Layers 1 Streamline Icon: https://streamlinehq.com
  </desc>
  <g id="Free Remix/Interface Essential/layers-1--design-layer-layers-pile-stack-align">
    <path id="Union" fill="#000000" fill-rule="evenodd" d="M24.000445714285714 1.2940834285714287c-0.8321142857142857 0 -1.6503085714285712 0.1849302857142857 -2.40216 0.5374114285714285l-0.054548571428571425 0.026530285714285715L3.442354285714285 10.978011428571428c-0.020365714285714286 0.010285714285714285 -0.04057371428571429 0.02088 -0.06061028571428571 0.03178285714285714 -0.6584057142857143 0.3585257142857142 -1.188894857142857 0.8945142857142857 -1.5502388571428571 1.5282171428571427 -0.36081942857142857 0.6327771428571428 -0.5453279999999999 1.3481485714285715 -0.5453279999999999 2.067977142857143 0 0.7198285714285714 0.1845085714285714 1.4352 0.5453279999999999 2.0680114285714284 0.361344 0.6337028571428571 0.8918297142857142 1.1696571428571427 1.5502388571428571 1.5282171428571427 0.021932571428571426 0.01193142857142857 0.04407771428571428 0.023485714285714283 0.06640457142857142 0.03466285714285714l18.101382857142855 9.051428571428572 0.04875428571428571 0.023622857142857143c0.7518514285714286 0.35249142857142857 1.5700457142857143 0.5373942857142856 2.40216 0.5373942857142856 0.8321485714285715 0 1.6503428571428571 -0.18490285714285712 2.4021942857142857 -0.5373942857142856l0.054548571428571425 -0.026537142857142856 18.10121142857143 -9.12c0.02057142857142857 -0.010251428571428571 0.0408 -0.020845714285714287 0.06068571428571429 -0.031748571428571425 0.6586285714285713 -0.3585257142857142 1.1890285714285713 -0.8945142857142857 1.5503999999999998 -1.5282171428571427 0.3606857142857143 -0.6328114285714286 0.5451428571428572 -1.3481828571428571 0.5451428571428572 -2.0680114285714284 0 -0.7198285714285714 -0.18445714285714285 -1.4352 -0.5451428571428572 -2.067977142857143 -0.3613714285714285 -0.6337028571428571 -0.8917714285714285 -1.1696914285714286 -1.5503999999999998 -1.5282171428571427 -0.021942857142857142 -0.011965714285714284 -0.043885714285714285 -0.02352 -0.06617142857142858 -0.03466285714285714L26.451394285714287 1.8551142857142855 26.402639999999998 1.8314948571428573C25.65078857142857 1.4790137142857143 24.832594285714286 1.2940834285714287 24.000445714285714 1.2940834285714287ZM46.487314285714284 24.23928c0.5307428571428571 1.0577828571428571 0.10354285714285714 2.3455542857142855 -0.9545142857142856 2.876331428571428L26.33293714285714 36.74982857142857c-0.02369142857142857 0.012 -0.04762285714285714 0.02331428571428571 -0.07176 0.03428571428571429 -0.7258628571428571 0.3312 -1.5143314285714284 0.5026285714285714 -2.312125714285714 0.5026285714285714s-1.5862971428571429 -0.17142857142857143 -2.31216 -0.5026285714285714c-0.02554285714285714 -0.011657142857142856 -0.05084571428571428 -0.023657142857142856 -0.07590857142857142 -0.03634285714285714L2.4638571428571425 27.113519999999998C1.4072365714285713 26.58048 0.9828 25.291782857142856 1.5158537142857142 24.235165714285714c0.5330502857142857 -1.056617142857143 1.821737142857143 -1.4810742857142856 2.878374857142857 -0.9480000000000001l19.050514285714286 9.610731428571428c0.15932571428571426 0.06795428571428572 0.33085714285714285 0.10306285714285714 0.5043085714285714 0.10306285714285714 0.17400000000000002 0 0.3461142857142857 -0.035348571428571424 0.5059199999999999 -0.10374857142857141l19.15577142857143 -9.612137142857142c1.0577142857142856 -0.5307771428571428 2.345485714285714 -0.10354285714285714 2.8765714285714283 0.9542057142857142Zm-0.9545142857142856 12.304834285714284c1.0580571428571428 -0.5307428571428571 1.4852571428571426 -1.8185142857142855 0.9545142857142856 -2.8762628571428572 -0.5310857142857143 -1.0577485714285715 -1.8188571428571427 -1.4849828571428572 -2.8765714285714283 -0.9542057142857142L24.454971428571426 42.325714285714284c-0.15980571428571427 0.06857142857142857 -0.33191999999999994 0.10388571428571428 -0.5059199999999999 0.10388571428571428 -0.17345142857142856 0 -0.34498285714285715 -0.035314285714285715 -0.5043085714285714 -0.10319999999999999l-19.050514285714286 -9.610662857142858c-1.0566377142857142 -0.5330742857142857 -2.3453245714285713 -0.10861714285714286 -2.878374857142857 0.9480000000000001 -0.5330537142857142 1.0567199999999999 -0.10861714285714286 2.3451771428571426 0.9480034285714285 2.8783199999999995l19.097125714285713 9.634285714285713c0.02506285714285714 0.012685714285714286 0.050365714285714284 0.024685714285714283 0.07590857142857142 0.03634285714285714 0.7258628571428571 0.3312 1.5143657142857143 0.5026285714285714 2.31216 0.5026285714285714 0.7977942857142857 0 1.5862628571428572 -0.17142857142857143 2.312125714285714 -0.5026285714285714 0.024137142857142857 -0.010971428571428571 0.048068571428571426 -0.022285714285714284 0.07176 -0.03428571428571429l19.199862857142858 -9.634285714285713Z" clip-rule="evenodd" stroke-width="3.4286"></path>
  </g>
</svg>