<svg xmlns="http://www.w3.org/2000/svg" fill="none" viewBox="0 0 48 48" id="Layout-Window-8--Streamline-Core-Remix" height="48" width="48">
  <desc>
    Layout Window 8 Streamline Icon: https://streamlinehq.com
  </desc>
  <g id="Free Remix/Interface Essential/layout-window-8--grid-header-layout-layouts-masthead">
    <path id="Union" fill="#000000" fill-rule="evenodd" d="M5.571428571428571 31.07142857142857V41.14285714285714c0 0.7100571428571428 0.5756228571428571 1.2857142857142856 1.2857142857142856 1.2857142857142856h15V31.07142857142857h-16.285714285714285Zm-4.285714285714286 -2.142857142857143V41.14285714285714c0 3.077142857142857 2.494422857142857 5.571428571428571 5.571428571428571 5.571428571428571h34.285714285714285c3.077142857142857 0 5.571428571428571 -2.494285714285714 5.571428571428571 -5.571428571428571V6.857142857142857c0 -3.0770057142857143 -2.494285714285714 -5.571428571428571 -5.571428571428571 -5.571428571428571H6.857142857142857C3.780137142857143 1.2857142857142856 1.2857142857142856 3.780137142857143 1.2857142857142856 6.857142857142857v22.07142857142857Zm4.285714285714286 -2.142857142857143h16.285714285714285V15.428571428571427h-16.285714285714285v11.357142857142856Zm20.57142857142857 4.285714285714286v11.357142857142856H41.14285714285714c0.7100571428571428 0 1.2857142857142856 -0.5756571428571428 1.2857142857142856 -1.2857142857142856V31.07142857142857h-16.285714285714285Zm16.285714285714285 -4.285714285714286h-16.285714285714285V15.428571428571427h16.285714285714285v11.357142857142856Z" clip-rule="evenodd" stroke-width="3.4286"></path>
  </g>
</svg>