<svg xmlns="http://www.w3.org/2000/svg" fill="none" viewBox="0 0 48 48" id="Leaf--Streamline-Core-Remix" height="48" width="48">
  <desc>
    Leaf Streamline Icon: https://streamlinehq.com
  </desc>
  <g id="Free Remix/Nature Ecology/leaf--nature-environment-leaf-ecology-plant-plants-eco">
    <path id="Union" fill="#000000" fill-rule="evenodd" d="M39.330171428571425 0.03206756571428571c-0.8609142857142856 -0.0965915657142857 -1.7321142857142855 0.005071405714285714 -2.546742857142857 0.2967125485714286C33.10326857142857 1.3916057142857141 27.43539428571428 3.247937142857143 21.85518857142857 5.985188571428571 16.287805714285714 8.716114285714285 10.554514285714285 12.444377142857142 7.081988571428572 17.34973714285714 3.3049474285714284 22.66865142857143 2.8902754285714285 28.36854857142857 3.7153028571428575 33.193439999999995c0.8183999999999999 4.786217142857143 2.8665599999999998 8.81238857142857 4.1747314285714285 11.036845714285713l-0.00041142857142857143 0.00034285714285714285 0.023485714285714283 0.03805714285714286c0.52896 0.8581714285714286 1.2391542857142857 1.5898285714285714 2.0807314285714282 2.144571428571428 0.8342742857142856 0.5499428571428571 1.7776457142857143 0.9126857142857142 2.7652114285714284 1.063542857142857 2.572765714285714 0.44125714285714285 7.0966628571428565 0.9181714285714284 11.89278857142857 0.010628571428571428 4.836171428571428 -0.9147428571428571 10.073074285714286 -3.2684571428571427 13.743017142857141 -8.5848 3.523542857142857 -4.911188571428571 5.114057142857143 -11.504502857142857 5.792228571428571 -17.611165714285715 0.6822857142857143 -6.1465371428571425 0.4676571428571428 -12.077245714285715 0.17759999999999998 -15.896365714285714 -0.04251428571428571 -0.8826857142857143 -0.29074285714285714 -1.74336 -0.7251428571428571 -2.513310857142857 -0.44125714285714285 -0.7823074285714284 -1.0621714285714285 -1.4484617142857141 -1.8116571428571426 -1.9438114285714285 -0.7491428571428571 -0.49533599999999994 -1.6052571428571427 -0.8057609142857142 -2.4977142857142858 -0.9059072914285714ZM38.2056 4.371874285714286c0.20605714285714286 -0.07765714285714286 0.4275428571428571 -0.1053942857142857 0.6466285714285713 -0.08081142857142858 0.21908571428571427 0.024548571428571427 0.42891428571428564 0.10069714285714285 0.612 0.22193142857142856 0.1834285714285714 0.12123428571428571 0.3353142857142857 0.28409142857142855 0.44297142857142857 0.4748914285714285 0.10765714285714284 0.1908342857142857 0.16834285714285713 0.4042971428571428 0.17691428571428572 0.6228 0.0010285714285714284 0.025577142857142854 0.002742857142857143 0.05112 0.004457142857142857 0.07659428571428571 0.28045714285714285 3.672548571428571 0.48308571428571423 9.329965714285713 -0.16114285714285714 15.131314285714284 -0.6497142857142857 5.852262857142857 -2.1332571428571425 11.577805714285715 -5.024914285714286 15.599691428571427l-0.00034285714285714285 -0.00034285714285714285 -0.024342857142857142 0.03565714285714285c-2.8539085714285712 4.143085714285713 -6.943508571428571 6.051085714285714 -11.022754285714285 6.822857142857142 -3.1897371428571426 0.6037714285714285 -6.296297142857142 0.49337142857142857 -8.606365714285714 0.228 5.308834285714286 -9.255771428571428 11.574822857142856 -17.90465142857143 18.534342857142857 -26.09574857142857 1.0728342857142856 -1.26264 0.9188914285714286 -3.1558971428571425 -0.3437485714285714 -4.2286971428571425 -1.26264 -1.0728 -3.1558971428571425 -0.9188914285714286 -4.2286971428571425 0.3437485714285714 -6.998571428571427 8.23704 -13.3584 16.974994285714285 -18.797897142857142 26.356354285714282 -0.9702857142857142 -1.9793142857142858 -1.985657142857143 -4.558971428571429 -2.4729942857142855 -7.409039999999999 -0.6884228571428571 -4.025862857142857 -0.31272 -8.486708571428572 2.6365714285714286 -12.639977142857141l0.0020228571428571426 -0.0028457142857142856c2.850411428571429 -4.027954285714285 7.81086857142857 -7.369337142857142 13.164274285714285 -9.99534857142857 5.304548571428572 -2.6020114285714286 10.747131428571429 -4.383668571428571 14.30016 -5.406925714285714 0.054857142857142854 -0.01584 0.10937142857142856 -0.03390857142857143 0.16285714285714284 -0.05410285714285713Z" clip-rule="evenodd" stroke-width="3.4286"></path>
  </g>
</svg>