<svg xmlns="http://www.w3.org/2000/svg" fill="none" viewBox="0 0 48 48" id="Lemon-Fruit-Seasoning--Streamline-Core-Remix" height="48" width="48">
  <desc>
    Lemon Fruit Seasoning Streamline Icon: https://streamlinehq.com
  </desc>
  <g id="Free Remix/Food Drink/lemon-fruit-seasoning">
    <path id="Union" fill="#000000" fill-rule="evenodd" d="M35.662971428571424 6.415782857142856c1.1876571428571427 -0.6344914285714286 2.2587428571428574 -0.8851542857142857 3.1559999999999997 -0.8324228571428571 0.854742857142857 0.05022857142857143 1.6765714285714284 0.3795085714285714 2.4500571428571427 1.1527885714285713 0.7727999999999999 0.7729028571428571 1.1019428571428571 1.5944571428571428 1.1526857142857143 2.4485142857142854 0.05314285714285714 0.8964 -0.19679999999999997 1.9665942857142857 -0.8300571428571428 3.1532571428571425 -0.8033142857142856 1.5051771428571428 -1.0943999999999998 3.3432685714285713 -0.5612571428571429 5.111828571428571 1.7410285714285714 5.7786857142857135 1.0392 13.105405714285714 -4.718057142857143 18.86225142857143 -5.759245714285714 5.759657142857142 -13.089702857142855 6.459771428571429 -18.869451428571427 4.715657142857142 -1.768662857142857 -0.5334857142857142 -3.6071999999999997 -0.2430857142857143 -5.112788571428571 0.5598857142857142 -1.18608 0.6322285714285715 -2.255622857142857 0.8818285714285713 -3.151508571428571 0.8283428571428572 -0.8536457142857142 -0.050742857142857145 -1.6748571428571428 -0.37988571428571427 -2.4474514285714286 -1.1526857142857143 -0.7735885714285714 -0.7734857142857142 -1.1028685714285713 -1.5956571428571427 -1.1528571428571428 -2.451085714285714 -0.05252571428571429 -0.8975999999999998 0.19865142857142856 -1.9690285714285714 0.8339657142857143 -3.1573714285714285 0.80424 -1.50408 1.09632 -3.3412114285714285 0.5653371428571429 -5.109394285714285 -1.7345485714285713 -5.776045714285714 -1.0281942857142856 -13.09374857142857 4.723028571428571 -18.845005714285712 5.753622857142856 -5.753588571428571 13.074994285714286 -6.4581599999999995 18.852137142857142 -4.720902857142857 1.76832 0.5317714285714285 3.6058285714285714 0.24013714285714285 5.110217142857143 -0.5636571428571427Zm8.636571428571429 -2.71008c-1.5010285714285714 -1.5009839999999999 -3.3061714285714285 -2.2876834285714285 -5.229257142857143 -2.4006822857142858 -1.8805714285714283 -0.11050628571428572 -3.7378285714285715 0.4283725714285714 -5.426674285714285 1.3306971428571428 -0.6330171428571428 0.338184 -1.3042285714285715 0.405696 -1.8567085714285714 0.2395577142857143C24.781679999999998 0.7687097142857142 15.733645714285714 1.6064125714285713 8.670171428571427 8.669897142857142 1.609632 15.730422857142857 0.7696731428571428 24.773965714285712 2.8729439999999995 31.777954285714287c0.16589485714285712 0.5524457142857142 0.09817028571428571 1.2234171428571428 -0.24008914285714286 1.8560228571428572 -0.903288 1.6892228571428571 -1.4430205714285713 3.547165714285714 -1.3329874285714285 5.428422857142857 0.11251885714285714 1.9237714285714287 0.899214857142857 3.7299428571428574 2.4008297142857145 5.231314285714285 1.4994514285714284 1.4996571428571428 3.3025371428571426 2.286171428571428 5.223634285714286 2.400342857142857 1.878857142857143 0.11177142857142855 3.7344685714285717 -0.4251428571428571 5.422251428571428 -1.3248 0.6339085714285714 -0.33805714285714283 1.3056685714285714 -0.4052571428571428 1.8582857142857143 -0.2382857142857143 7.00824 2.1144 16.06734857142857 1.2822857142857143 23.13798857142857 -5.788457142857142 7.067657142857142 -7.067657142857142 7.902171428571429 -16.12224 5.790857142857143 -23.129245714285712 -0.1666285714285714 -0.5525485714285714 -0.09942857142857142 -1.2240685714285713 0.23897142857142856 -1.8575999999999997 0.9006857142857142 -1.688262857142857 1.4382857142857142 -3.544525714285714 1.3272 -5.424102857142857 -0.11382857142857142 -1.9218514285714285 -0.9003428571428571 -3.72576 -2.400342857142857 -5.225862857142857ZM15.095622857142857 23.078434285714284c0.6532114285714286 -4.566788571428571 4.5851999999999995 -8.078399999999998 9.33294857142857 -8.078399999999998 0.9403542857142857 0 1.8442285714285716 0.13690285714285713 2.6950628571428568 0.39010285714285714 1.3611771428571426 0.40512 2.7930171428571424 -0.36994285714285713 3.198102857142857 -1.7310857142857143 0.40508571428571427 -1.3611771428571426 -0.36994285714285713 -2.792982857142857 -1.7310857142857143 -3.198102857142857 -1.3218857142857143 -0.3933942857142857 -2.71968 -0.6037714285714285 -4.16208 -0.6037714285714285 -7.343039999999999 0 -13.413599999999999 5.429142857142857 -14.424 12.493062857142856 -0.20108571428571428 1.4058171428571429 0.7755771428571427 2.708502857142857 2.181428571428571 2.909622857142857 1.4058514285714285 0.20108571428571428 2.7085371428571428 -0.7755771428571427 2.909622857142857 -2.181428571428571Z" clip-rule="evenodd" stroke-width="3.4286"></path>
  </g>
</svg>