<svg xmlns="http://www.w3.org/2000/svg" fill="none" viewBox="0 0 48 48" id="Lift--Streamline-Core-Remix" height="48" width="48">
  <desc>
    Lift Streamline Icon: https://streamlinehq.com
  </desc>
  <g id="Free Remix/Map Travel/lift--arrow-up-human-down-person-user-lift-elevator">
    <path id="Union" fill="#000000" fill-rule="evenodd" d="M9 9c0 -2.6036228571428572 2.110662857142857 -4.714285714285714 4.714285714285714 -4.714285714285714s4.714285714285714 2.110662857142857 4.714285714285714 4.714285714285714S16.31790857142857 13.714285714285714 13.714285714285714 13.714285714285714s-4.714285714285714 -2.110662857142857 -4.714285714285714 -4.714285714285714Zm13.714285714285714 0c0 2.4564 -0.9841028571428572 4.682982857142856 -2.57952 6.306925714285714C24.47358857142857 17.609862857142858 27.428571428571427 22.174114285714285 27.428571428571427 27.428571428571427v4.714285714285714c0 1.1834742857142857 -0.9593828571428571 2.142857142857143 -2.142857142857143 2.142857142857143H21.605965714285713l-1.4796685714285713 11.837142857142856C19.992274285714284 47.19531428571428 19.080685714285714 48 18 48h-8.571428571428571c-1.0806857142857142 0 -1.9922742857142857 -0.8046857142857142 -2.1262971428571427 -1.877142857142857L5.822605714285714 34.285714285714285H2.142857142857143C0.9593897142857143 34.285714285714285 0 33.32633142857142 0 32.14285714285714V27.428571428571427c0 -5.2544571428571425 2.9549965714285715 -9.818708571428571 7.293805714285714 -12.121645714285714C5.698388571428571 13.682982857142857 4.714285714285714 11.456399999999999 4.714285714285714 9 4.714285714285714 4.0294285714285705 8.743714285714285 0 13.714285714285714 0s9 4.0294285714285705 9 9Zm15.501942857142856 1.7878285714285713c0.6696 -0.6694971428571428 1.7550857142857144 -0.6694971428571428 2.4246857142857143 0l6.857142857142857 6.857142857142857c0.4902857142857142 0.4902857142857142 0.6366857142857143 1.2275999999999998 0.37131428571428565 1.8681942857142855C47.60399999999999 20.153760000000002 46.97897142857143 20.57142857142857 46.285714285714285 20.57142857142857h-13.714285714285714c-0.69336 0 -1.3184571428571428 -0.4176685714285714 -1.5837942857142857 -1.058262857142857 -0.2653371428571428 -0.6405942857142857 -0.11866285714285714 -1.3779085714285715 0.37162285714285714 -1.8681942857142855l6.856971428571428 -6.857142857142857ZM32.57142857142857 27.428571428571427c-0.69336 0 -1.3184571428571428 0.4176685714285714 -1.5837942857142857 1.058262857142857 -0.2653371428571428 0.6405942857142857 -0.11866285714285714 1.3779085714285715 0.37162285714285714 1.8681942857142855l6.856971428571428 6.857314285714285c0.6696 0.6692571428571429 1.7550857142857144 0.6692571428571429 2.4246857142857143 0l6.857142857142857 -6.857314285714285c0.4902857142857142 -0.4902857142857142 0.6366857142857143 -1.2275999999999998 0.37131428571428565 -1.8681942857142855C47.60399999999999 27.846239999999998 46.97897142857143 27.428571428571427 46.285714285714285 27.428571428571427h-13.714285714285714Z" clip-rule="evenodd" stroke-width="3.4286"></path>
  </g>
</svg>