<svg xmlns="http://www.w3.org/2000/svg" fill="none" viewBox="0 0 48 48" id="Lift-Disability--Streamline-Core-Remix" height="48" width="48">
  <desc>
    Lift Disability Streamline Icon: https://streamlinehq.com
  </desc>
  <g id="Free Remix/Map Travel/lift-disability--arrow-up-human-down-person-user-lift-elevator-disability-wheelchair-accessible">
    <path id="Union" fill="#000000" fill-rule="evenodd" d="M40.64091428571428 0.502104c-0.6696 -0.6694714285714286 -1.7550857142857144 -0.6694714285714286 -2.4246857142857143 0L31.35925714285714 7.359257142857143c-0.4902857142857142 0.4902857142857142 -0.63696 1.2275999999999998 -0.37162285714285714 1.8681942857142855S31.87806857142857 10.285714285714285 32.57142857142857 10.285714285714285h13.714285714285714c0.6932571428571428 0 1.3182857142857143 -0.4176685714285714 1.5836571428571427 -1.058262857142857 0.26537142857142854 -0.6405942857142857 0.11897142857142858 -1.3779085714285715 -0.37131428571428565 -1.8681942857142855l-6.857142857142857 -6.857153142857142ZM13.84224 24.51006857142857c0.4527771428571429 -1.811005714285714 2.0799771428571425 -3.0814971428571427 3.9467314285714283 -3.0814971428571427 2.2467771428571424 0 4.0681714285714285 1.8213942857142857 4.0681714285714285 4.0681714285714285V31.71428571428571h4.596342857142857c2.228742857142857 0 4.243028571428571 1.3281942857142857 5.120948571428571 3.3768l4.252422857142856 9.921942857142856c0.4659428571428571 1.0878857142857143 -0.03771428571428571 2.347542857142857 -1.1256 2.813828571428571 -1.0877828571428572 0.4659428571428571 -2.3475085714285715 -0.03771428571428571 -2.8137257142857144 -1.1256l-4.252285714285715 -9.921942857142856c-0.2025942857142857 -0.47279999999999994 -0.66744 -0.7793142857142856 -1.18176 -0.7793142857142856H18.105531428571428c-3.6246171428571428 0 -6.284194285714285 -3.40632 -5.405108571428571 -6.922697142857142l1.1418171428571429 -4.567234285714285Zm-3.284502857142857 0.7191085714285714c0.44403428571428566 1.0970057142857144 -0.08526857142857143 2.3462742857142858 -1.1822742857142858 2.790308571428571C6.387325714285714 29.229051428571427 4.285714285714286 32.157291428571426 4.285714285714286 35.571085714285715c0 4.497257142857143 3.6456685714285713 8.142857142857142 8.142857142857142 8.142857142857142 2.8695085714285713 0 5.394 -1.4825142857142857 6.847302857142857 -3.733371428571428 0.6418971428571428 -0.9942857142857142 1.9682742857142856 -1.2802285714285715 2.962525714285714 -0.6380571428571428 0.9942857142857142 0.6418285714285714 1.27992 1.9683428571428572 0.6380228571428571 2.962285714285714 -2.209234285714286 3.4220571428571427 -6.062468571428571 5.694857142857143 -10.447851428571427 5.694857142857143 -6.864102857142857 0 -12.428571428571427 -5.564228571428571 -12.428571428571427 -12.428571428571427 0 -5.219142857142857 3.216534857142857 -9.682045714285714 7.767394285714285 -11.524182857142856 1.0970057142857144 -0.44403428571428566 2.3462742857142858 0.08526857142857143 2.790342857142857 1.1822742857142858Zm20.42989714285714 -7.0280571428571434C31.252971428571424 17.560525714285713 31.87806857142857 17.142857142857142 32.57142857142857 17.142857142857142h13.714285714285714c0.6932571428571428 0 1.3182857142857143 0.4176685714285714 1.5836571428571427 1.058262857142857 0.26537142857142854 0.6405942857142857 0.11897142857142858 1.3779085714285715 -0.37131428571428565 1.8681942857142855l-6.857142857142857 6.857142857142857c-0.6696 0.6694971428571428 -1.7550857142857144 0.6694971428571428 -2.4246857142857143 0l-6.856971428571428 -6.857142857142857c-0.4902857142857142 -0.4902857142857142 -0.63696 -1.2275999999999998 -0.37162285714285714 -1.8681942857142855ZM15.428571428571427 11.142857142857142c0 -1.6568571428571428 1.343142857142857 -3 3 -3s3 1.343142857142857 3 3 -1.343142857142857 3 -3 3S15.428571428571427 12.799714285714284 15.428571428571427 11.142857142857142Zm3 -7.285714285714286c-4.023771428571428 0 -7.285714285714286 3.261942857142857 -7.285714285714286 7.285714285714286s3.261942857142857 7.285714285714286 7.285714285714286 7.285714285714286S25.71428571428571 15.166628571428571 25.71428571428571 11.142857142857142s-3.261942857142857 -7.285714285714286 -7.285714285714286 -7.285714285714286Z" clip-rule="evenodd" stroke-width="3.4286"></path>
  </g>
</svg>