<svg xmlns="http://www.w3.org/2000/svg" fill="none" viewBox="0 0 48 48" id="Lightbulb--Streamline-Core-Remix" height="48" width="48">
  <desc>
    Lightbulb Streamline Icon: https://streamlinehq.com
  </desc>
  <g id="Free Remix/Interface Essential/lightbulb--lighting-light-incandescent-bulb-lights">
    <path id="Union" fill="#000000" fill-rule="evenodd" d="M10.714285714285714 17.57142857142857C10.714285714285714 10.233942857142857 16.662514285714284 4.285714285714286 24 4.285714285714286s13.285714285714285 5.948228571428571 13.285714285714285 13.285714285714285c0 5.213314285714286 -3.0024342857142856 9.729291428571427 -7.382228571428572 11.905851428571427 -0.7285028571428571 0.36205714285714286 -1.1891999999999998 1.10544 -1.1891999999999998 1.9189714285714283v3.3180342857142855h-9.428571428571429v-3.3180342857142855c0 -0.8135314285714285 -0.4606971428571428 -1.5569142857142857 -1.1891999999999998 -1.9189714285714283C13.716719999999999 27.30072 10.714285714285714 22.784742857142856 10.714285714285714 17.57142857142857ZM24 0C14.295565714285711 0 6.428571428571428 7.866994285714285 6.428571428571428 17.57142857142857c0 6.418114285714285 3.441257142857143 12.029039999999998 8.571428571428571 15.094251428571429V35.14285714285714c0 2.1301714285714284 1.726902857142857 3.8571428571428568 3.8571428571428568 3.8571428571428568h10.285714285714285c2.1302399999999997 0 3.8571428571428568 -1.7269714285714286 3.8571428571428568 -3.8571428571428568v-2.4771771428571427c5.130171428571428 -3.0652114285714287 8.571428571428571 -8.676137142857142 8.571428571428571 -15.094251428571429C41.57142857142857 7.866994285714285 33.704434285714285 0 24 0ZM18 42c-1.6568571428571428 0 -3 1.3433142857142857 -3 3s1.343142857142857 3 3 3h12c1.6568571428571428 0 3 -1.3433142857142857 3 -3s-1.343142857142857 -3 -3 -3h-12Z" clip-rule="evenodd" stroke-width="3.4286"></path>
  </g>
</svg>