<svg xmlns="http://www.w3.org/2000/svg" fill="none" viewBox="0 0 48 48" id="Like-1--Streamline-Core-Remix" height="48" width="48">
  <desc>
    Like 1 Streamline Icon: https://streamlinehq.com
  </desc>
  <g id="Free Remix/Interface Essential/like-1--reward-social-up-rating-media-like-thumb-hand">
    <path id="Union" fill="#000000" fill-rule="evenodd" d="M17.36766857142857 45h21.883645714285713c1.4677714285714285 -0.0017142857142857142 2.8837714285714284 -0.5393142857142856 3.982971428571428 -1.512 1.0896000000000001 -0.9644571428571428 1.7928 -2.2906285714285715 1.980342857142857 -3.733028571428571l2.7167999999999997 -17.522742857142855 0.0013714285714285714 -0.01038857142857143c0.12685714285714284 -0.8450399999999999 0.07337142857142856 -1.7073257142857143 -0.15702857142857143 -2.530182857142857s-0.6322285714285715 -1.5876342857142858 -1.179085714285714 -2.244068571428571c-0.5471999999999999 -0.6564342857142856 -1.2267428571428571 -1.1896457142857142 -1.994742857142857 -1.56456 -0.7676571428571428 -0.3749142857142857 -1.6062857142857143 -0.5830971428571429 -2.460342857142857 -0.6108 -0.02331428571428571 -0.0007199999999999999 -0.046285714285714284 -0.001097142857142857 -0.0696 -0.001097142857142857H29.71104V7.497737142857143H29.710971428571426c-0.006617142857142857 -0.7910057142857142 -0.17173714285714287 -1.5726514285714284 -0.4855885714285714 -2.2987542857142857 -0.31385142857142856 -0.7261371428571428 -0.7700914285714285 -1.3819542857142857 -1.341737142857143 -1.9287325714285715C27.312034285714283 2.7234719999999997 26.63657142857143 2.296827428571428 25.897234285714283 2.0155371428571427 25.173222857142857 1.740078857142857 24.402342857142855 1.609488 23.628342857142858 1.630985142857143c-0.9933942857142857 -0.0015085714285714286 -1.9711542857142856 0.2499702857142857 -2.84088 0.7311017142857142 -0.8819657142857144 0.48788914285714285 -1.6228799999999999 1.1953302857142856 -2.150948571428571 2.0537074285714287l-0.004011428571428571 0.006514285714285714 -8.226685714285713 13.216422857142856H3.415028571428571c-0.9057188571428572 0 -1.7743474285714287 0.35979428571428573 -2.414790857142857 1.0002514285714286C0.3597977142857143 19.279439999999997 0 20.148034285714285 0 21.053759999999997v18.061782857142855c0 0.9058285714285713 0.3597977142857143 1.7746285714285712 1.0002377142857142 2.414742857142857 0.6404434285714286 0.6404571428571428 1.5090685714285714 1.0004571428571427 2.414790857142857 1.0004571428571427h6.871611428571429l0.6083657142857142 0.3041142857142857 2.449062857142857 1.2246857142857144 0.0024 0.0010285714285714284c1.248822857142857 0.6226285714285714 2.625908571428571 0.9442285714285713 4.021199999999999 0.9394285714285715Zm-2.1083314285714283 -4.774628571428571 -0.0010628571428571427 -0.00034285714285714285 -1.2615085714285714 -0.6308571428571428 0.008777142857142857 -19.62846857142857 8.272731428571428 -13.29054857142857 0.0074057142857142854 -0.011862857142857142 -0.00003428571428571428 -0.00003428571428571428c0.14129142857142854 -0.23036571428571428 0.3398742857142857 -0.4202057142857143 0.5763771428571428 -0.55104 0.23646857142857142 -0.1308 0.5028 -0.19813714285714285 0.77304 -0.19546285714285713 0.03291428571428571 0.00034285714285714285 0.06582857142857142 -0.00010285714285714286 0.09870857142857142 -0.0012685714285714286 0.21809142857142855 -0.007885714285714286 0.43553142857142857 0.028045714285714285 0.6394971428571428 0.10566857142857142 0.20396571428571428 0.07758857142857142 0.3903085714285714 0.19529142857142856 0.5480228571428571 0.3461485714285714 0.15768000000000001 0.15082285714285715 0.2835428571428571 0.3317485714285714 0.3701485714285714 0.53208 0.08564571428571428 0.19813714285714285 0.13114285714285714 0.4112571428571428 0.13388571428571427 0.6270514285714285v9.887554285714286c0 1.1834399999999998 0.9593828571428571 2.142857142857143 2.142857142857143 2.142857142857143h14.462331428571428c0.24000000000000002 0.011554285714285715 0.47485714285714287 0.07186285714285713 0.6908571428571428 0.17729142857142857 0.22457142857142856 0.10954285714285714 0.42308571428571423 0.2653371428571428 0.5828571428571429 0.4570971428571428 0.15977142857142856 0.1917942857142857 0.2770285714285714 0.41519999999999996 0.3445714285714286 0.6556114285714285 0.06685714285714285 0.23897142857142856 0.08262857142857143 0.4893257142857143 0.04662857142857142 0.7348114285714286l-0.0006857142857142857 0.004388571428571428 -2.7198857142857142 17.541154285714285 -0.008914285714285713 0.06514285714285714c-0.05177142857142857 0.41965714285714284 -0.2554285714285714 0.8060571428571428 -0.5718857142857142 1.0861714285714286 -0.3164571428571428 0.2801142857142857 -0.7241142857142857 0.4350857142857143 -1.1465142857142856 0.43577142857142853H17.355325714285712c-0.7272342857142856 0.002742857142857143 -1.4450399999999999 -0.16457142857142856 -2.0959885714285713 -0.4889142857142857Z" clip-rule="evenodd" stroke-width="3.4286"></path>
  </g>
</svg>