<svg xmlns="http://www.w3.org/2000/svg" fill="none" viewBox="0 0 48 48" id="Line-Arrow-Split-Vertical-Up-2--Streamline-Core-Remix" height="48" width="48">
  <desc>
    Line Arrow Split Vertical Up 2 Streamline Icon: https://streamlinehq.com
  </desc>
  <g id="Free Remix/Interface Essential/line-arrow-split-vertical-up-2">
    <path id="Union" fill="#000000" fill-rule="evenodd" d="M3.4285714285714284 0.42857142857142855C3.1380239999999997 0.42857142857142855 2.8609782857142854 0.4863977142857142 2.6083234285714285 0.5911679999999999 2.357592 0.6949062857142857 2.1225599999999996 0.8482868571428571 1.9182514285714287 1.0513062857142856L1.9133417142857143 1.056198857142857C1.7078914285714284 1.2616491428571428 1.5528822857142857 1.49844 1.4483108571428571 1.7511805714285713 1.3435405714285713 2.003835428571428 1.2857142857142856 2.2808811428571425 1.2857142857142856 2.571428571428571v12c0 1.1834742857142857 0.9593897142857143 2.142857142857143 2.142857142857143 2.142857142857143 1.1834742857142857 0 2.142857142857143 -0.9593828571428571 2.142857142857143 -2.142857142857143V7.744731428571428l16.285714285714285 16.285714285714285V45.42857142857142c0 1.183542857142857 0.9593828571428571 2.142857142857143 2.142857142857143 2.142857142857143s2.142857142857143 -0.9593142857142857 2.142857142857143 -2.142857142857143V24.030445714285715l16.285714285714285 -16.285714285714285V14.571428571428571c0 1.1834742857142857 0.9593142857142857 2.142857142857143 2.142857142857143 2.142857142857143s2.142857142857143 -0.9593828571428571 2.142857142857143 -2.142857142857143V2.571428571428571c0 -0.29054742857142857 -0.057942857142857136 -0.5675931428571428 -0.1625142857142857 -0.820248 -0.10457142857142857 -0.2527405714285714 -0.25954285714285713 -0.4895314285714285 -0.4652571428571428 -0.6949817142857142 -0.20537142857142857 -0.2054502857142857 -0.4419428571428571 -0.36045942857142854 -0.6949714285714285 -0.46503085714285713C45.13885714285714 0.4863977142857142 44.86182857142857 0.42857142857142855 44.57142857142857 0.42857142857142855H32.57142857142857c-1.1834742857142857 0 -2.142857142857143 0.9593897142857143 -2.142857142857143 2.142857142857143 0 1.1834742857142857 0.9593828571428571 2.142857142857143 2.142857142857143 2.142857142857143h6.8266285714285715L24 20.112411428571427 8.601874285714285 4.714285714285714H15.428571428571427c1.1834742857142857 0 2.142857142857143 -0.9593828571428571 2.142857142857143 -2.142857142857143 0 -1.1834674285714284 -0.9593828571428571 -2.142857142857143 -2.142857142857143 -2.142857142857143H3.4285714285714284Z" clip-rule="evenodd" stroke-width="3.4286"></path>
  </g>
</svg>