<svg xmlns="http://www.w3.org/2000/svg" fill="none" viewBox="0 0 48 48" id="Line-Arrow-Curvy-Up-Down-1--Streamline-Core-Remix" height="48" width="48">
  <desc>
    Line Arrow Curvy Up Down 1 Streamline Icon: https://streamlinehq.com
  </desc>
  <g id="Free Remix/Interface Essential/line-arrow-curvy-up-down-1--both-direction-arrow-curvy-diagram-zigzag-vertical">
    <path id="Union" fill="#000000" fill-rule="evenodd" d="M36.03702857142857 0.16317771428571426c0.8009142857142857 -0.3316734857142857 1.7225142857142854 -0.14833957714285714 2.3352 0.4645148571428571l8.571428571428571 8.571438857142857c0.8369142857142857 0.8368114285714285 0.8369142857142857 2.1936 0 3.030445714285714 -0.8365714285714285 0.8368457142857142 -2.1936 0.8368457142857142 -3.0301714285714283 0L39 7.316228571428572V39.42857142857142c0 4.733828571428571 -3.8375999999999997 8.571428571428571 -8.571428571428571 8.571428571428571 -4.733862857142857 0 -8.571428571428571 -3.8375999999999997 -8.571428571428571 -8.571428571428571l0 -30.857074285714287c0 -2.3669485714285714 -1.9187657142857142 -4.285714285714286 -4.285714285714286 -4.285714285714286s-4.285714285714286 1.9187657142857142 -4.285714285714286 4.285714285714286l0 37.285645714285714c0 0.8667428571428571 -0.5221028571428571 1.6481142857142856 -1.3228114285714285 1.9796571428571428 -0.8007428571428571 0.3318857142857143 -1.7224114285714285 0.14845714285714284 -2.3352685714285712 -0.4642285714285714l-8.571435428571428 -8.571428571428571c-0.8368367999999999 -0.8369142857142857 -0.8368367999999999 -2.1936 0 -3.0305142857142857 0.8368388571428571 -0.8369142857142857 2.1936205714285713 -0.8369142857142857 3.030452571428571 0l4.913348571428571 4.913142857142857 0 -32.112274285714285c0 -4.733862857142857 3.837565714285714 -8.571435590057144 8.571428571428571 -8.571435385714286C22.305291428571426 0.00006196148571428571 26.142857142857142 3.8376342857142856 26.142857142857142 8.571497142857142l0 30.857074285714287c0 2.367085714285714 1.9187657142857142 4.285714285714286 4.285714285714286 4.285714285714286s4.285714285714286 -1.9186285714285713 4.285714285714286 -4.285714285714286V2.142918857142857c0 -0.8667051428571427 0.5221714285714285 -1.6480662857142856 1.322742857142857 -1.9797411428571428Z" clip-rule="evenodd" stroke-width="3.4286"></path>
  </g>
</svg>