<svg xmlns="http://www.w3.org/2000/svg" fill="none" viewBox="0 0 48 48" id="Line-Arrow-Rotate-Left-1--Streamline-Core-Remix" height="48" width="48">
  <desc>
    Line Arrow Rotate Left 1 Streamline Icon: https://streamlinehq.com
  </desc>
  <g id="Free Remix/Interface Essential/line-arrow-rotate-left-1">
    <path id="Union" fill="#000000" fill-rule="evenodd" d="M18.09822857142857 4.086651428571428c0.8368457142857142 -0.8368319999999999 0.8368457142857142 -2.193613714285714 0 -3.030452571428571 -0.8368457142857142 -0.8368367999999999 -2.1936342857142854 -0.8368367999999999 -3.030445714285714 0L6.826011428571428 9.297942857142857c-0.32759999999999995 0.32759999999999995 -0.5269371428571428 0.73488 -0.5980457142857143 1.1594742857142857 -0.11053714285714285 0.66 0.08879999999999999 1.3617599999999999 0.5980457142857143 1.8710057142857144l8.241771428571427 8.241737142857144c0.8368114285714285 0.8368457142857142 2.1936 0.8368457142857142 3.030445714285714 0 0.8368457142857142 -0.8368114285714285 0.8368457142857142 -2.1936 0 -3.030445714285714L13.514434285714286 12.955919999999999h10.486354285714286c8.37528 0 15.164811428571427 6.789531428571428 15.164811428571427 15.164845714285713 0 8.375348571428571 -6.789531428571428 15.164948571428571 -15.164811428571427 15.164948571428571 -8.375314285714285 0 -15.164845714285713 -6.789599999999999 -15.164845714285713 -15.164948571428571 0 -1.1834742857142857 -0.9593828571428571 -2.142857142857143 -2.142857142857143 -2.142857142857143s-2.142857142857143 0.9593828571428571 -2.142857142857143 2.142857142857143c0 10.742091428571428 8.708297142857143 19.450662857142856 19.45056 19.450662857142856 10.742297142857142 0 19.450525714285714 -8.708571428571428 19.450525714285714 -19.450662857142856 0 -10.742262857142856 -8.70822857142857 -19.45056 -19.450525714285714 -19.45056H13.514674285714285l4.5835542857142855 -4.5835542857142855Z" clip-rule="evenodd" stroke-width="3.4286"></path>
  </g>
</svg>