<svg xmlns="http://www.w3.org/2000/svg" fill="none" viewBox="0 0 48 48" id="Line-Arrow-Reload-Vertical-2--Streamline-Core-Remix" height="48" width="48">
  <desc>
    Line Arrow Reload Vertical 2 Streamline Icon: https://streamlinehq.com
  </desc>
  <g id="Free Remix/Interface Essential/line-arrow-reload-vertical-2">
    <path id="Union" fill="#000000" fill-rule="evenodd" d="m35.57142857142857 19.25526857142857 -3.1990628571428568 -3.1990628571428568c-0.8368457142857142 -0.8368457142857142 -2.1936 -0.8368457142857142 -3.030445714285714 0 -0.8368457142857142 0.8368457142857142 -0.8368457142857142 2.1936 0 3.030445714285714l6.857279999999999 6.857142857142857c0.20537142857142857 0.20543999999999998 0.4419428571428571 0.36047999999999997 0.6949714285714285 0.46505142857142856 0.2526857142857143 0.10474285714285714 0.5297142857142857 0.1625828571428571 0.8201142857142857 0.1625828571428571s0.5674285714285714 -0.057839999999999996 0.8201142857142857 -0.1625828571428571c0.24719999999999998 -0.10220571428571427 0.4789714285714285 -0.2525828571428571 0.6809142857142857 -0.45113142857142857m0.01577142857142857 -0.015325714285714285 6.855428571428571 -6.8557371428571425c0.8369142857142857 -0.8368457142857142 0.8369142857142857 -2.1936 0 -3.030445714285714 -0.8365714285714285 -0.8368457142857142 -2.1936 -0.8368457142857142 -3.0301714285714283 0l-3.1992 3.1990628571428568V9C39.857142857142854 4.0294285714285705 35.82754285714285 0 30.857142857142854 0H17.142857142857142C12.172285714285714 0 8.142857142857142 4.0294285714285705 8.142857142857142 9l0 6c0 1.1834742857142857 0.9593828571428571 2.142857142857143 2.142857142857143 2.142857142857143s2.142857142857143 -0.9593828571428571 2.142857142857143 -2.142857142857143l0 -6c0 -2.6036228571428572 2.110662857142857 -4.714285714285714 4.714285714285714 -4.714285714285714l13.714285714285714 0c2.6036228571428572 0 4.714285714285714 2.110662857142857 4.714285714285714 4.714285714285714v10.255268571428571m-26.105965714285713 2.3358857142857143c-0.25275428571428565 0.10457142857142857 -0.4895314285714285 0.25961142857142855 -0.6949714285714285 0.46505142857142856l-6.857149714285713 6.857142857142857c-0.8368354285714285 0.8368457142857142 -0.8368354285714285 2.1936 0 3.030445714285714 0.8368388571428571 0.8368457142857142 2.193606857142857 0.8368457142857142 3.030452571428571 0l3.1990628571428568 -3.1990628571428568V39C8.142857142857142 43.9704 12.172285714285714 48 17.142857142857142 48h13.714285714285714c4.9704 0 9 -4.029599999999999 9 -9v-6c0 -1.1834742857142857 -0.9593142857142857 -2.142857142857143 -2.142857142857143 -2.142857142857143s-2.142857142857143 0.9593828571428571 -2.142857142857143 2.142857142857143v6c0 2.6036571428571427 -2.110662857142857 4.714285714285714 -4.714285714285714 4.714285714285714H17.142857142857142c-2.6036228571428572 0 -4.714285714285714 -2.1106285714285713 -4.714285714285714 -4.714285714285714V28.744731428571427l3.1990628571428568 3.1990628571428568c0.8368457142857142 0.8368457142857142 2.1936 0.8368457142857142 3.030445714285714 0 0.8368457142857142 -0.8368457142857142 0.8368457142857142 -2.1936 0 -3.030445714285714L11.80152 22.056754285714288l-0.0005828571428571429 -0.0005485714285714285C11.382514285714285 21.637782857142856 10.834114285714284 21.428571428571427 10.285714285714285 21.428571428571427c-0.2905371428571428 0 -0.5676 0.057839999999999996 -0.8202514285714285 0.1625828571428571Z" clip-rule="evenodd" stroke-width="3.4286"></path>
  </g>
</svg>