<svg xmlns="http://www.w3.org/2000/svg" fill="none" viewBox="0 0 48 48" id="Line-Arrow-Fit-To-Height-Square--Streamline-Core-Remix" height="48" width="48">
  <desc>
    Line Arrow Fit To Height Square Streamline Icon: https://streamlinehq.com
  </desc>
  <g id="Free Remix/Interface Essential/line-arrow-fit-to-height-square">
    <path id="Union" fill="#000000" fill-rule="evenodd" d="M5.571428571428571 6.857142857142857c0 -0.7100914285714285 0.5756228571428571 -1.2857142857142856 1.2857142857142856 -1.2857142857142856h34.285714285714285c0.7100571428571428 0 1.2857142857142856 0.5756228571428571 1.2857142857142856 1.2857142857142856v34.285714285714285c0 0.7100571428571428 -0.5756571428571428 1.2857142857142856 -1.2857142857142856 1.2857142857142856H6.857142857142857c-0.7100914285714285 0 -1.2857142857142856 -0.5756571428571428 -1.2857142857142856 -1.2857142857142856V6.857142857142857ZM6.857142857142857 1.2857142857142856C3.780137142857143 1.2857142857142856 1.2857142857142856 3.780137142857143 1.2857142857142856 6.857142857142857v34.285714285714285c0 3.077142857142857 2.494422857142857 5.571428571428571 5.571428571428571 5.571428571428571h34.285714285714285c3.077142857142857 0 5.571428571428571 -2.494285714285714 5.571428571428571 -5.571428571428571V6.857142857142857c0 -3.0770057142857143 -2.494285714285714 -5.571428571428571 -5.571428571428571 -5.571428571428571H6.857142857142857Zm11.800937142857142 26.34192c-0.8368457142857142 -0.8368457142857142 -2.1936 -0.8368457142857142 -3.030445714285714 0 -0.8368457142857142 0.8368457142857142 -0.8368457142857142 2.1936 0 3.030445714285714l6.857142857142857 6.857005714285714c0.8368457142857142 0.8369142857142857 2.1936 0.8369142857142857 3.030445714285714 0l6.857142857142857 -6.857005714285714c0.8368457142857142 -0.8368457142857142 0.8368457142857142 -2.1936 0 -3.030445714285714 -0.8368457142857142 -0.8368457142857142 -2.1936 -0.8368457142857142 -3.030445714285714 0l-3.1990628571428568 3.1990628571428568 0 -13.653394285714285 3.1990628571428568 3.1990628571428568c0.8368457142857142 0.8368457142857142 2.1936 0.8368457142857142 3.030445714285714 0 0.8368457142857142 -0.8368457142857142 0.8368457142857142 -2.1936 0 -3.030445714285714l-6.855428571428571 -6.855428571428571 -0.0017142857142857142 -0.0017142857142857142c-0.20543999999999998 -0.20543999999999998 -0.4422514285714285 -0.36047999999999997 -0.6949714285714285 -0.46505142857142856C24.5676 9.914982857142856 24.29053714285714 9.857142857142856 24 9.857142857142856c-0.2905371428571428 0 -0.5676 0.057839999999999996 -0.8202514285714285 0.1625828571428571 -0.25275428571428565 0.10457142857142857 -0.4895314285714285 0.25961142857142855 -0.6949714285714285 0.46505142857142856l-6.857142857142857 6.857142857142857c-0.8368457142857142 0.8368457142857142 -0.8368457142857142 2.1936 0 3.030445714285714 0.8368457142857142 0.8368457142857142 2.1936 0.8368457142857142 3.030445714285714 0l3.1990628571428568 -3.1990628571428568 0 13.653394285714285 -3.1990628571428568 -3.1990628571428568Z" clip-rule="evenodd" stroke-width="3.4286"></path>
  </g>
</svg>