<svg xmlns="http://www.w3.org/2000/svg" fill="none" viewBox="0 0 48 48" id="Line-Arrow-Rotate-Right-1--Streamline-Core-Remix" height="48" width="48">
  <desc>
    Line Arrow Rotate Right 1 Streamline Icon: https://streamlinehq.com
  </desc>
  <g id="Free Remix/Interface Essential/line-arrow-rotate-right-1">
    <path id="Union" fill="#000000" fill-rule="evenodd" d="M29.903314285714284 4.086651428571428c-0.8368457142857142 -0.8368319999999999 -0.8368457142857142 -2.193613714285714 0 -3.030452571428571 0.8368457142857142 -0.8368367999999999 2.1936342857142854 -0.8368367999999999 3.03048 0L41.17542857142857 9.297942857142857c0.2616 0.2615314285714286 0.44125714285714285 0.5738057142857143 0.5393142857142856 0.9051428571428571 0.029485714285714285 0.0996342857142857 0.05177142857142857 0.20101714285714284 0.0665142857142857 0.30325714285714284 0.0929142857142857 0.6455657142857143 -0.10902857142857143 1.3253828571428572 -0.6058285714285714 1.82208L32.93379428571428 20.570159999999998c-0.8368457142857142 0.8368457142857142 -2.1936342857142854 0.8368457142857142 -3.03048 0 -0.8368457142857142 -0.8368114285714285 -0.8368457142857142 -2.1936 0 -3.030445714285714l4.583657142857143 -4.583794285714285H24.000788571428572c-8.375314285714285 0 -15.164845714285713 6.789531428571428 -15.164845714285713 15.164845714285713 0 8.375348571428571 6.789531428571428 15.164948571428571 15.164845714285713 15.164948571428571 8.37528 0 15.164811428571427 -6.789599999999999 15.164811428571427 -15.164948571428571 0 -1.1834742857142857 0.9593142857142857 -2.142857142857143 2.142857142857143 -2.142857142857143s2.142857142857143 0.9593828571428571 2.142857142857143 2.142857142857143c0 10.742091428571428 -8.70822857142857 19.450662857142856 -19.450525714285714 19.450662857142856 -10.742262857142856 0 -19.45056 -8.708571428571428 -19.45056 -19.450662857142856 0 -10.742262857142856 8.708297142857143 -19.45056 19.45056 -19.45056h10.486182857142856L29.903314285714284 4.086651428571428Z" clip-rule="evenodd" stroke-width="3.4286"></path>
  </g>
</svg>