<svg xmlns="http://www.w3.org/2000/svg" fill="none" viewBox="0 0 48 48" id="Line-Arrow-Crossover-Left--Streamline-Core-Remix" height="48" width="48">
  <desc>
    Line Arrow Crossover Left Streamline Icon: https://streamlinehq.com
  </desc>
  <g id="Free Remix/Interface Essential/line-arrow-crossover-left--cross-move-over-arrow-arrows-left">
    <path id="Union" fill="#000000" fill-rule="evenodd" d="M43.05634285714285 1.9133417142857143c0.8365714285714285 -0.8368354285714285 2.1936 -0.8368354285714285 3.0301714285714283 0 0.8369142857142857 0.8368388571428571 0.8369142857142857 2.193606857142857 0 3.030452571428571L8.601874285714285 42.42857142857142H17.142857142857142c1.1834742857142857 0 2.142857142857143 0.9593142857142857 2.142857142857143 2.142857142857143s-0.9593828571428571 2.142857142857143 -2.142857142857143 2.142857142857143H3.4285714285714284c-0.29054742857142857 0 -0.5675931428571428 -0.057942857142857136 -0.820248 -0.1625142857142857 -0.2527405714285714 -0.10457142857142857 -0.4895314285714285 -0.25954285714285713 -0.6949817142857142 -0.4652571428571428 -0.2054502857142857 -0.20537142857142857 -0.36045942857142854 -0.4419428571428571 -0.46503085714285713 -0.6949714285714285C1.3435405714285713 45.13885714285714 1.2857142857142856 44.86182857142857 1.2857142857142856 44.57142857142857V30.857142857142854c0 -1.1834742857142857 0.9593897142857143 -2.142857142857143 2.142857142857143 -2.142857142857143 1.1834742857142857 0 2.142857142857143 0.9593828571428571 2.142857142857143 2.142857142857143v8.540914285714285L43.05634285714285 1.9133417142857143ZM2.6083234285714285 1.4483108571428571c-0.2527405714285714 0.10457142857142857 -0.4895314285714285 0.25958057142857144 -0.6949817142857142 0.46503085714285713C1.4949222857142856 2.3317611428571428 1.2857142857142856 2.880168 1.2857142857142856 3.4285714285714284v13.714285714285714c0 1.1834742857142857 0.9593897142857143 2.142857142857143 2.142857142857143 2.142857142857143 1.1834742857142857 0 2.142857142857143 -0.9593828571428571 2.142857142857143 -2.142857142857143V8.601874285714285l11.770491428571427 11.770491428571427c0.8368457142857142 0.8368457142857142 2.1936 0.8368457142857142 3.030445714285714 0 0.8368457142857142 -0.8368457142857142 0.8368457142857142 -2.1936 0 -3.030445714285714L8.601874285714285 5.571428571428571H17.142857142857142c1.1834742857142857 0 2.142857142857143 -0.9593828571428571 2.142857142857143 -2.142857142857143 0 -1.1834674285714284 -0.9593828571428571 -2.142857142857143 -2.142857142857143 -2.142857142857143H3.4285714285714284C3.1380239999999997 1.2857142857142856 2.8609782857142854 1.3435405714285713 2.6083234285714285 1.4483108571428571ZM27.627634285714283 27.627634285714283c0.8368457142857142 -0.8368457142857142 2.1936 -0.8368457142857142 3.030445714285714 0l15.428434285714284 15.428708571428572c0.8369142857142857 0.8365714285714285 0.8369142857142857 2.1936 0 3.0301714285714283 -0.8365714285714285 0.8369142857142857 -2.1936 0.8369142857142857 -3.0301714285714283 0L27.627634285714283 30.65808c-0.8368457142857142 -0.8368457142857142 -0.8368457142857142 -2.1936 0 -3.030445714285714Z" clip-rule="evenodd" stroke-width="3.4286"></path>
  </g>
</svg>