<svg xmlns="http://www.w3.org/2000/svg" fill="none" viewBox="0 0 48 48" id="Line-Arrow-Reload-Vertical-1--Streamline-Core-Remix" height="48" width="48">
  <desc>
    Line Arrow Reload Vertical 1 Streamline Icon: https://streamlinehq.com
  </desc>
  <g id="Free Remix/Interface Essential/line-arrow-reload-vertical-1--arrows-load-arrow-sync-square-loading-reload-synchronize">
    <path id="Union" fill="#000000" fill-rule="evenodd" d="M25.663439999999998 0.22642285714285715c-1.1834742857142857 0 -2.142857142857143 0.9593897142857143 -2.142857142857143 2.142857142857143 0 1.1834742857142857 0.9593828571428571 2.142857142857143 2.142857142857143 2.142857142857143H33.88217142857143c0.7100571428571428 0 1.2857142857142856 0.5756228571428571 1.2857142857142856 1.2857142857142856V33.8016L30.50646857142857 29.140182857142854c-0.8368457142857142 -0.8368457142857142 -2.1936 -0.8368457142857142 -3.030445714285714 0 -0.8368457142857142 0.8368457142857142 -0.8368457142857142 2.1936342857142854 0 3.030445714285714l8.302148571428571 8.301942857142857c0.10148571428571429 0.10422857142857142 0.21359999999999998 0.1978285714285714 0.33462857142857144 0.2794285714285714 0.05828571428571429 0.039428571428571424 0.11897142857142858 0.07611428571428572 0.18137142857142857 0.10971428571428571 0.3024 0.16354285714285713 0.6486857142857143 0.2561142857142857 1.0165714285714285 0.2561142857142857 0.36994285714285713 0 0.7179428571428571 -0.0936 1.0213714285714286 -0.2585142857142857 0.03805714285714286 -0.02057142857142857 0.07542857142857141 -0.04217142857142857 0.11177142857142855 -0.06514285714285714 0.03668571428571428 -0.02262857142857143 0.07234285714285714 -0.04662857142857142 0.10731428571428571 -0.07165714285714285 0.025028571428571428 -0.017828571428571426 0.050057142857142856 -0.03634285714285714 0.0744 -0.0552 0.0768 -0.05965714285714285 0.14948571428571428 -0.12445714285714285 0.21737142857142855 -0.19405714285714284l8.302628571428572 -8.302628571428572c0.8365714285714285 -0.8368114285714285 0.8365714285714285 -2.1936 0 -3.030445714285714 -0.8369142857142857 -0.8368457142857142 -2.1936 -0.8368457142857142 -3.0305142857142857 0L39.4536 33.8016V5.797851428571429c0 -3.077012571428571 -2.494285714285714 -5.571428571428571 -5.571428571428571 -5.571428571428571H25.663439999999998Zm-16.49725714285714 7.29c0.023348571428571427 -0.023554285714285715 0.04724571428571429 -0.04659428571428571 0.07169142857142857 -0.06908571428571429 0.18456 -0.16995428571428572 0.3917142857142857 -0.3016114285714286 0.6112457142857143 -0.3949371428571428 0.2577257142857143 -0.10981714285714286 0.5413714285714286 -0.17057142857142857 0.8392114285714285 -0.17057142857142857 0.2851542857142857 0 0.5573142857142857 0.055714285714285716 0.8061942857142856 0.15682285714285715 0.25803428571428566 0.10460571428571427 0.4998171428571428 0.2615314285714286 0.7090628571428571 0.47081142857142855l8.319531428571429 8.319497142857143c0.8368114285714285 0.8368457142857142 0.8368114285714285 2.1936342857142854 0 3.03048 -0.8368457142857142 0.8368114285714285 -2.1936342857142854 0.8368114285714285 -3.03048 0L12.831188571428571 14.197988571428569v28.003954285714286c0 0.7100571428571428 0.5756571428571428 1.2857142857142856 1.2857142857142856 1.2857142857142856h8.218731428571429c1.1834742857142857 0 2.142857142857143 0.9593142857142857 2.142857142857143 2.142857142857143s-0.9593828571428571 2.142857142857143 -2.142857142857143 2.142857142857143H14.116902857142856c-3.0770057142857143 0 -5.571428571428571 -2.494285714285714 -5.571428571428571 -5.571428571428571V14.198022857142856L3.8840914285714283 18.85944c-0.8368388571428571 0.8368114285714285 -2.1936205714285713 0.8368114285714285 -3.0304594285714286 0 -0.8368369714285714 -0.8368457142857142 -0.8368369714285714 -2.1936342857142854 0 -3.03048L9.166182857142857 7.516422857142857Z" clip-rule="evenodd" stroke-width="3.4286"></path>
  </g>
</svg>