<svg xmlns="http://www.w3.org/2000/svg" fill="none" viewBox="0 0 48 48" id="Line-Arrow-Crossover-Up--Streamline-Core-Remix" height="48" width="48">
  <desc>
    Line Arrow Crossover Up Streamline Icon: https://streamlinehq.com
  </desc>
  <g id="Free Remix/Interface Essential/line-arrow-crossover-up--cross-move-over-arrow-arrows-right">
    <path id="Union" fill="#000000" fill-rule="evenodd" d="M30.857142857142854 1.2857142857142856c-1.1834742857142857 0 -2.142857142857143 0.9593897142857143 -2.142857142857143 2.142857142857143 0 1.1834742857142857 0.9593828571428571 2.142857142857143 2.142857142857143 2.142857142857143h8.540914285714285L27.627634285714283 17.34192c-0.8368457142857142 0.8368457142857142 -0.8368457142857142 2.1936 0 3.030445714285714 0.8368457142857142 0.8368457142857142 2.1936 0.8368457142857142 3.030445714285714 0L42.42857142857142 8.601874285714285V17.142857142857142c0 1.1834742857142857 0.9593142857142857 2.142857142857143 2.142857142857143 2.142857142857143s2.142857142857143 -0.9593828571428571 2.142857142857143 -2.142857142857143V3.4285714285714284c0 -1.1834674285714284 -0.9593142857142857 -2.142857142857143 -2.142857142857143 -2.142857142857143H30.857142857142854ZM20.372365714285714 27.627634285714283c0.8368457142857142 0.8368457142857142 0.8368457142857142 2.1936 0 3.030445714285714l-15.428571428571427 15.428434285714284c-0.8368457142857142 0.8369142857142857 -2.193613714285714 0.8369142857142857 -3.030452571428571 0 -0.8368354285714285 -0.8365714285714285 -0.8368354285714285 -2.1936 0 -3.0301714285714283L17.34192 27.627634285714283c0.8368457142857142 -0.8368457142857142 2.1936 -0.8368457142857142 3.030445714285714 0ZM8.601874285714285 5.571428571428571H17.142857142857142c1.1834742857142857 0 2.142857142857143 -0.9593828571428571 2.142857142857143 -2.142857142857143 0 -1.1834674285714284 -0.9593828571428571 -2.142857142857143 -2.142857142857143 -2.142857142857143H3.4285714285714284C2.880168 1.2857142857142856 2.3317611428571428 1.4949222857142856 1.9133417142857143 1.9133417142857143 1.9117097142857142 1.9149771428571427 1.9100777142857142 1.916612571428571 1.9084491428571426 1.9182514285714287 1.7054297142857142 2.1225599999999996 1.5520491428571428 2.357592 1.4483108571428571 2.6083234285714285 1.3435405714285713 2.8609782857142854 1.2857142857142856 3.1380239999999997 1.2857142857142856 3.4285714285714284v13.714285714285714c0 1.1834742857142857 0.9593897142857143 2.142857142857143 2.142857142857143 2.142857142857143 1.1834742857142857 0 2.142857142857143 -0.9593828571428571 2.142857142857143 -2.142857142857143V8.601874285714285L43.05634285714285 46.08651428571429c0.8365714285714285 0.8369142857142857 2.1936 0.8369142857142857 3.0301714285714283 0 0.8369142857142857 -0.8365714285714285 0.8369142857142857 -2.1936 0 -3.0301714285714283L8.601874285714285 5.571428571428571Z" clip-rule="evenodd" stroke-width="3.4286"></path>
  </g>
</svg>