<svg xmlns="http://www.w3.org/2000/svg" fill="none" viewBox="0 0 48 48" id="Line-Arrow-Synchronize-Disable--Streamline-Core-Remix" height="48" width="48">
  <desc>
    Line Arrow Synchronize Disable Streamline Icon: https://streamlinehq.com
  </desc>
  <g id="Free Remix/Interface Essential/line-arrow-synchronize-disable--arrows-loading-load-sync-synchronize-arrow-reload">
    <path id="Union" fill="#000000" fill-rule="evenodd" d="M11.962319999999998 8.931531428571429C15.262594285714286 6.290982857142857 19.44582857142857 4.714285714285714 24.00030857142857 4.714285714285714c1.1834742857142857 0 2.142857142857143 -0.9593828571428571 2.142857142857143 -2.142857142857143 0 -1.1834674285714284 -0.9593828571428571 -2.142857142857143 -2.142857142857143 -2.142857142857143 -5.736617142857142 0 -10.997279999999998 2.0514959999999998 -15.083622857142858 5.45736L4.086994285714286 1.056198857142857c-0.8368525714285714 -0.8368367999999999 -2.1936342857142854 -0.8368367999999999 -3.0304731428571428 0 -0.8368367999999999 0.8368388571428571 -0.8368367999999999 2.1936205714285713 0 3.030452571428571L7.332822857142856 10.362925714285714l30.30432 30.304388571428568 6.276685714285714 6.276342857142857c0.8365714285714285 0.8369142857142857 2.1936 0.8369142857142857 3.0301714285714283 0 0.8369142857142857 -0.8365714285714285 0.8369142857142857 -2.1936 0 -3.0301714285714283l-4.829828571428571 -4.830171428571428c3.4059428571428567 -4.086171428571428 5.4576 -9.346902857142856 5.4576 -15.083657142857142 0 -6.171702857142856 -2.3729142857142858 -11.788457142857142 -6.251999999999999 -15.988628571428572h2.4610285714285713c1.183542857142857 0 2.142857142857143 -0.9593828571428571 2.142857142857143 -2.142857142857143s-0.9593142857142857 -2.142857142857143 -2.142857142857143 -2.142857142857143l-8.241942857142858 0c-1.1832 0 -2.1427199999999997 0.9593828571428571 -2.1427199999999997 2.142857142857143v0.02513142857142857c-0.0006171428571428571 0.029622857142857142 -0.0006171428571428571 0.059245714285714283 0 0.08883428571428571l-0.00003428571428571428 8.127771428571428c0 1.1834742857142857 0.9595542857142857 2.142857142857143 2.1427542857142856 2.142857142857143 1.183542857142857 0 2.142857142857143 -0.9593828571428571 2.142857142857143 -2.142857142857143V10.40688c3.4659428571428568 3.4880914285714284 5.604342857142857 8.291142857142857 5.604342857142857 13.592777142857143 0 4.554582857142857 -1.5767999999999998 8.737885714285714 -4.217485714285714 12.038057142857141L11.962319999999998 8.931531428571429ZM33.58008 43.29291428571428c0.41845714285714286 1.1070857142857142 -0.1397142857142857 2.3437714285714284 -1.2467314285714286 2.7624 -2.5937142857142854 0.9802285714285713 -5.4034628571428565 1.5157714285714285 -8.333382857142857 1.5157714285714285 -1.1834742857142857 0 -2.142857142857143 -0.9593142857142857 -2.142857142857143 -2.142857142857143 0 -1.1832 0.9593828571428571 -2.142857142857143 2.142857142857143 -2.142857142857143 2.4042857142857144 0 4.701085714285714 -0.43885714285714283 6.817988571428571 -1.2390857142857141 1.1070171428571427 -0.41828571428571426 2.343668571428571 0.13988571428571428 2.7621257142857143 1.2466285714285712Zm-18.97566857142857 -1.1609142857142858v-0.03634285714285714c0.00034285714285714285 -0.022285714285714284 0.00034285714285714285 -0.04491428571428571 0 -0.0672V33.89019428571428c0 -1.1834399999999998 -0.9594171428571429 -2.142857142857143 -2.142857142857143 -2.142857142857143 -1.1834742857142857 0 -2.142857142857143 0.9594171428571429 -2.142857142857143 2.142857142857143v3.70272C6.852651428571429 34.10496 4.714285714285714 29.301805714285713 4.714285714285714 24.00006857142857c0 -2.4513257142857143 0.45630857142857145 -4.791017142857143 1.2866742857142857 -6.942308571428572 0.4261371428571428 -1.1040685714285712 -0.1233942857142857 -2.34456 -1.2274971428571428 -2.7707314285714286 -1.1040685714285712 -0.42617142857142853 -2.34456 0.1233942857142857 -2.770721142857143 1.227462857142857C0.9853542857142857 18.15030857142857 0.42857142857142855 21.012685714285713 0.42857142857142855 24.00006857142857c0 6.171908571428571 2.372948571428571 11.788731428571428 6.252171428571428 15.989074285714285h-2.4609599999999996c-1.1834708571428572 0 -2.1428605714285713 0.9593142857142857 -2.1428605714285713 2.142857142857143s0.9593897142857143 2.142857142857143 2.1428605714285713 2.142857142857143l8.241771428571427 0c1.1834399999999998 0 2.142857142857143 -0.9593142857142857 2.142857142857143 -2.142857142857143Z" clip-rule="evenodd" stroke-width="3.4286"></path>
  </g>
</svg>