<svg xmlns="http://www.w3.org/2000/svg" fill="none" viewBox="0 0 48 48" id="Line-Arrow-Down-Dashed-Square--Streamline-Core-Remix" height="48" width="48">
  <desc>
    Line Arrow Down Dashed Square Streamline Icon: https://streamlinehq.com
  </desc>
  <g id="Free Remix/Interface Essential/line-arrow-down-dashed-square--arrow-keyboard-button-down-square-dashes">
    <path id="Union" fill="#000000" fill-rule="evenodd" d="M5.571428571428571 6.857142857142857c0 -0.7100914285714285 0.5756228571428571 -1.2857142857142856 1.2857142857142856 -1.2857142857142856h1.7142857142857142c1.1834742857142857 0 2.142857142857143 -0.9593828571428571 2.142857142857143 -2.142857142857143 0 -1.1834674285714284 -0.9593828571428571 -2.142857142857143 -2.142857142857143 -2.142857142857143H6.857142857142857C3.780137142857143 1.2857142857142856 1.2857142857142856 3.780137142857143 1.2857142857142856 6.857142857142857v1.7142857142857142c0 1.1834742857142857 0.9593897142857143 2.142857142857143 2.142857142857143 2.142857142857143 1.1834742857142857 0 2.142857142857143 -0.9593828571428571 2.142857142857143 -2.142857142857143V6.857142857142857Zm20.57142857142857 6.857142857142857c0 -1.1834742857142857 -0.9593828571428571 -2.142857142857143 -2.142857142857143 -2.142857142857143s-2.142857142857143 0.9593828571428571 -2.142857142857143 2.142857142857143v15.398125714285712l-3.1990628571428568 -3.1990628571428568c-0.8368457142857142 -0.8368457142857142 -2.1936 -0.8368457142857142 -3.030445714285714 0 -0.8368457142857142 0.8368457142857142 -0.8368457142857142 2.1936 0 3.030445714285714l6.857142857142857 6.857005714285714c0.20543999999999998 0.20571428571428568 0.44221714285714286 0.3606857142857143 0.6949714285714285 0.4652571428571428 0.24692571428571428 0.10217142857142857 0.5171314285714285 0.15977142857142856 0.8004685714285714 0.1625142857142857l0.01978285714285714 0 0.01978285714285714 0c0.5417828571428571 -0.005142857142857143 1.0820571428571428 -0.21428571428571427 1.4954399999999999 -0.6277714285714285l6.857142857142857 -6.857005714285714c0.8368457142857142 -0.8368457142857142 0.8368457142857142 -2.1936 0 -3.030445714285714 -0.8368457142857142 -0.8368457142857142 -2.1936 -0.8368457142857142 -3.030445714285714 0l-3.1990628571428568 3.1990628571428568V13.714285714285714ZM3.4285714285714284 37.285714285714285c1.1834742857142857 0 2.142857142857143 0.9593142857142857 2.142857142857143 2.142857142857143v1.7142857142857142c0 0.7100571428571428 0.5756228571428571 1.2857142857142856 1.2857142857142856 1.2857142857142856h1.7142857142857142c1.1834742857142857 0 2.142857142857143 0.9593142857142857 2.142857142857143 2.142857142857143s-0.9593828571428571 2.142857142857143 -2.142857142857143 2.142857142857143H6.857142857142857c-3.0770057142857143 0 -5.571428571428571 -2.494285714285714 -5.571428571428571 -5.571428571428571v-1.7142857142857142c0 -1.183542857142857 0.9593897142857143 -2.142857142857143 2.142857142857143 -2.142857142857143Zm17.142857142857142 5.142857142857142c-1.1834742857142857 0 -2.142857142857143 0.9593142857142857 -2.142857142857143 2.142857142857143s0.9593828571428571 2.142857142857143 2.142857142857143 2.142857142857143h6.857142857142857c1.1834742857142857 0 2.142857142857143 -0.9593142857142857 2.142857142857143 -2.142857142857143s-0.9593828571428571 -2.142857142857143 -2.142857142857143 -2.142857142857143H20.57142857142857Zm24 -5.142857142857142c1.183542857142857 0 2.142857142857143 0.9593142857142857 2.142857142857143 2.142857142857143v1.7142857142857142c0 3.077142857142857 -2.494285714285714 5.571428571428571 -5.571428571428571 5.571428571428571h-1.7142857142857142c-1.183542857142857 0 -2.142857142857143 -0.9593142857142857 -2.142857142857143 -2.142857142857143s0.9593142857142857 -2.142857142857143 2.142857142857143 -2.142857142857143h1.7142857142857142c0.7100571428571428 0 1.2857142857142856 -0.5756571428571428 1.2857142857142856 -1.2857142857142856v-1.7142857142857142c0 -1.183542857142857 0.9593142857142857 -2.142857142857143 2.142857142857143 -2.142857142857143ZM46.71428571428571 20.57142857142857c0 -1.1834742857142857 -0.9593142857142857 -2.142857142857143 -2.142857142857143 -2.142857142857143s-2.142857142857143 0.9593828571428571 -2.142857142857143 2.142857142857143v6.857142857142857c0 1.1834742857142857 0.9593142857142857 2.142857142857143 2.142857142857143 2.142857142857143s2.142857142857143 -0.9593828571428571 2.142857142857143 -2.142857142857143V20.57142857142857ZM3.4285714285714284 18.428571428571427c1.1834742857142857 0 2.142857142857143 0.9593828571428571 2.142857142857143 2.142857142857143v6.857142857142857c0 1.1834742857142857 -0.9593828571428571 2.142857142857143 -2.142857142857143 2.142857142857143 -1.1834674285714284 0 -2.142857142857143 -0.9593828571428571 -2.142857142857143 -2.142857142857143V20.57142857142857c0 -1.1834742857142857 0.9593897142857143 -2.142857142857143 2.142857142857143 -2.142857142857143ZM18.428571428571427 3.4285714285714284c0 -1.1834674285714284 0.9593828571428571 -2.142857142857143 2.142857142857143 -2.142857142857143h6.857142857142857c1.1834742857142857 0 2.142857142857143 0.9593897142857143 2.142857142857143 2.142857142857143 0 1.1834742857142857 -0.9593828571428571 2.142857142857143 -2.142857142857143 2.142857142857143H20.57142857142857c-1.1834742857142857 0 -2.142857142857143 -0.9593828571428571 -2.142857142857143 -2.142857142857143ZM39.42857142857142 1.2857142857142856c-1.183542857142857 0 -2.142857142857143 0.9593897142857143 -2.142857142857143 2.142857142857143 0 1.1834742857142857 0.9593142857142857 2.142857142857143 2.142857142857143 2.142857142857143h1.7142857142857142c0.7100571428571428 0 1.2857142857142856 0.5756228571428571 1.2857142857142856 1.2857142857142856v1.7142857142857142c0 1.1834742857142857 0.9593142857142857 2.142857142857143 2.142857142857143 2.142857142857143s2.142857142857143 -0.9593828571428571 2.142857142857143 -2.142857142857143V6.857142857142857c0 -3.0770057142857143 -2.494285714285714 -5.571428571428571 -5.571428571428571 -5.571428571428571h-1.7142857142857142Z" clip-rule="evenodd" stroke-width="3.4286"></path>
  </g>
</svg>