<svg xmlns="http://www.w3.org/2000/svg" fill="none" viewBox="0 0 48 48" id="Line-Arrow-Move-Horizontal--Streamline-Core-Remix" height="48" width="48">
  <desc>
    Line Arrow Move Horizontal Streamline Icon: https://streamlinehq.com
  </desc>
  <g id="Free Remix/Interface Essential/line-arrow-move-horizontal--expand-resize-bigger-horizontal-smaller-size-arrow-arrows-big">
    <path id="Union" fill="#000000" fill-rule="evenodd" d="M24 1.2857142857142856c1.1834742857142857 0 2.142857142857143 0.9593897142857143 2.142857142857143 2.142857142857143v41.14285714285714c0 1.183542857142857 -0.9593828571428571 2.142857142857143 -2.142857142857143 2.142857142857143s-2.142857142857143 -0.9593142857142857 -2.142857142857143 -2.142857142857143V3.4285714285714284c0 -1.1834674285714284 0.9593828571428571 -2.142857142857143 2.142857142857143 -2.142857142857143ZM13.943794285714285 12.199062857142856c0.8368457142857142 0.8368457142857142 0.8368457142857142 2.1936 0 3.030445714285714L5.173302857142857 24l8.770491428571427 8.770491428571427c0.8368457142857142 0.8368457142857142 0.8368457142857142 2.1937371428571426 0 3.030308571428571 -0.8368457142857142 0.8369142857142857 -2.1936 0.8369142857142857 -3.030445714285714 0L0.6276274285714285 25.515222857142856c-0.8368367999999999 -0.8368457142857142 -0.8368367999999999 -2.1936 0 -3.030445714285714l10.285721142857142 -10.285714285714285c0.8368457142857142 -0.8368457142857142 2.1936 -0.8368457142857142 3.030445714285714 0Zm23.142719999999997 0c-0.8365714285714285 -0.8368457142857142 -2.1936 -0.8368457142857142 -3.030308571428571 0 -0.8368457142857142 0.8368457142857142 -0.8368457142857142 2.1936 0 3.030445714285714L42.826628571428564 24 34.05620571428571 32.770491428571425c-0.8368457142857142 0.8368457142857142 -0.8368457142857142 2.1937371428571426 0 3.030308571428571 0.8367085714285714 0.8369142857142857 2.1937371428571426 0.8369142857142857 3.030308571428571 0l10.285714285714285 -10.285577142857143c0.8369142857142857 -0.8368457142857142 0.8369142857142857 -2.1936 0 -3.030445714285714l-10.285714285714285 -10.285714285714285Z" clip-rule="evenodd" stroke-width="3.4286"></path>
  </g>
</svg>