<svg xmlns="http://www.w3.org/2000/svg" fill="none" viewBox="0 0 48 48" id="Line-Arrow-Move-Right-2--Streamline-Core-Remix" height="48" width="48">
  <desc>
    Line Arrow Move Right 2 Streamline Icon: https://streamlinehq.com
  </desc>
  <g id="Free Remix/Interface Essential/line-arrow-move-right-2--move-right-arrows">
    <path id="Union" fill="#000000" fill-rule="evenodd" d="M1.2857142857142856 6.857142857142857C1.2857142857142856 3.780137142857143 3.780137142857143 1.2857142857142856 6.857142857142857 1.2857142857142856h6.857142857142857c3.0770057142857143 0 5.571428571428571 2.494422857142857 5.571428571428571 5.571428571428571v34.285714285714285c0 3.077142857142857 -2.494422857142857 5.571428571428571 -5.571428571428571 5.571428571428571H6.857142857142857c-3.0770057142857143 0 -5.571428571428571 -2.494285714285714 -5.571428571428571 -5.571428571428571V6.857142857142857ZM6.857142857142857 5.571428571428571c-0.7100914285714285 0 -1.2857142857142856 0.5756228571428571 -1.2857142857142856 1.2857142857142856v34.285714285714285c0 0.7100571428571428 0.5756228571428571 1.2857142857142856 1.2857142857142856 1.2857142857142856h6.857142857142857c0.7100914285714285 0 1.2857142857142856 -0.5756571428571428 1.2857142857142856 -1.2857142857142856V6.857142857142857c0 -0.7100914285714285 -0.5756228571428571 -1.2857142857142856 -1.2857142857142856 -1.2857142857142856H6.857142857142857ZM21.857142857142858 24c0 -1.1834742857142857 0.9593828571428571 -2.142857142857143 2.142857142857143 -2.142857142857143h15.398057142857143l-4.913142857142857 -4.913348571428571c-0.8369828571428571 -0.8368457142857142 -0.8369828571428571 -2.1936 0 -3.030445714285714 0.8365714285714285 -0.8368457142857142 2.1936 -0.8368457142857142 3.0301714285714283 0l8.571428571428571 8.571428571428571c0.20571428571428568 0.20543999999999998 0.3606857142857143 0.44221714285714286 0.4652571428571428 0.6949714285714285 0.10217142857142857 0.24692571428571428 0.15977142857142856 0.5171314285714285 0.1625142857142857 0.8004685714285714l0 0.01978285714285714 0 0.01978285714285714c-0.005142857142857143 0.5417828571428571 -0.21428571428571427 1.0820571428571428 -0.6277714285714285 1.4954399999999999l-8.571428571428571 8.571428571428571c-0.8365714285714285 0.8367771428571428 -2.1936 0.8367771428571428 -3.0301714285714283 0 -0.8369828571428571 -0.8368457142857142 -0.8369828571428571 -2.1936 0 -3.030445714285714l4.913142857142857 -4.913348571428571H24c-1.1834742857142857 0 -2.142857142857143 -0.9593828571428571 -2.142857142857143 -2.142857142857143Z" clip-rule="evenodd" stroke-width="3.4286"></path>
  </g>
</svg>