<svg xmlns="http://www.w3.org/2000/svg" fill="none" viewBox="0 0 48 48" id="Line-Arrow-Shrink-Diagonal-2--Streamline-Core-Remix" height="48" width="48">
  <desc>
    Line Arrow Shrink Diagonal 2 Streamline Icon: https://streamlinehq.com
  </desc>
  <g id="Free Remix/Interface Essential/line-arrow-shrink-diagonal-2--expand-retract-shrink-bigger-big-small-smaller">
    <path id="Union" fill="#000000" fill-rule="evenodd" d="M1.9133417142857143 1.9133417142857143c0.8368388571428571 -0.8368354285714285 2.193606857142857 -0.8368354285714285 3.030452571428571 0L16.71428571428571 13.68384V5.142857142857142c0 -1.1834742857142857 0.9593828571428571 -2.142857142857143 2.142857142857143 -2.142857142857143s2.142857142857143 0.9593828571428571 2.142857142857143 2.142857142857143v13.714285714285714c0 0.2905371428571428 -0.057839999999999996 0.5676 -0.1625828571428571 0.8202514285714285 -0.10457142857142857 0.25275428571428565 -0.25961142857142855 0.4895314285714285 -0.46505142857142856 0.6949714285714285 -0.4184228571428571 0.4184228571428571 -0.9668228571428572 0.6276342857142857 -1.515222857142857 0.6276342857142857h-13.714285714285714c-1.1834742857142857 0 -2.142857142857143 -0.9593828571428571 -2.142857142857143 -2.142857142857143s0.9593828571428571 -2.142857142857143 2.142857142857143 -2.142857142857143h8.540982857142856L1.9133417142857143 4.943794285714286c-0.8368354285714285 -0.8368457142857142 -0.8368354285714285 -2.193613714285714 0 -3.030452571428571ZM28.32260571428571 27.162582857142855c-0.25073142857142855 0.10374857142857141 -0.48575999999999997 0.2571428571428571 -0.6900685714285714 0.4601485714285714l-0.004902857142857143 0.004902857142857143 -0.004902857142857143 0.004902857142857143c-0.38489142857142855 0.3873942857142857 -0.6227314285714286 0.9210857142857143 -0.6227314285714286 1.5103199999999999v13.714285714285714c0 1.183542857142857 0.9593828571428571 2.142857142857143 2.142857142857143 2.142857142857143s2.142857142857143 -0.9593142857142857 2.142857142857143 -2.142857142857143v-8.540914285714285l11.77062857142857 11.770285714285713c0.8365714285714285 0.8369142857142857 2.1936 0.8369142857142857 3.0301714285714283 0 0.8369142857142857 -0.8365714285714285 0.8369142857142857 -2.1936 0 -3.0301714285714283l-11.770285714285713 -11.77062857142857H42.857142857142854c1.183542857142857 0 2.142857142857143 -0.9593828571428571 2.142857142857143 -2.142857142857143s-0.9593142857142857 -2.142857142857143 -2.142857142857143 -2.142857142857143h-13.714285714285714c-0.2905371428571428 0 -0.5676 0.057839999999999996 -0.8202514285714285 0.1625828571428571Z" clip-rule="evenodd" stroke-width="3.4286"></path>
  </g>
</svg>