<svg xmlns="http://www.w3.org/2000/svg" fill="none" viewBox="0 0 48 48" id="Line-Arrow-Move--Streamline-Core-Remix" height="48" width="48">
  <desc>
    Line Arrow Move Streamline Icon: https://streamlinehq.com
  </desc>
  <g id="Free Remix/Interface Essential/line-arrow-move--move-button-arrows-direction">
    <path id="Union" fill="#000000" fill-rule="evenodd" d="M25.515222857142856 1.9133417142857143c-0.8368457142857142 -0.8368354285714285 -2.1936 -0.8368354285714285 -3.030445714285714 0l-6.857142857142857 6.857149714285713c-0.8368457142857142 0.8368457142857142 -0.8368457142857142 2.1936 0 3.030445714285714 0.8368457142857142 0.8368457142857142 2.1936 0.8368457142857142 3.030445714285714 0l3.1990628571428568 -3.1990628571428568V21.857142857142858H8.601874285714285l3.1990628571428568 -3.1990628571428568c0.8368457142857142 -0.8368457142857142 0.8368457142857142 -2.1936 0 -3.030445714285714 -0.8368457142857142 -0.8368457142857142 -2.1936 -0.8368457142857142 -3.030445714285714 0l-6.857149714285713 6.857142857142857c-0.8368354285714285 0.8368457142857142 -0.8368354285714285 2.1936 0 3.030445714285714l6.857149714285713 6.857142857142857c0.8368457142857142 0.8368457142857142 2.1936 0.8368457142857142 3.030445714285714 0 0.8368457142857142 -0.8368457142857142 0.8368457142857142 -2.1936 0 -3.030445714285714L8.601874285714285 26.142857142857142H21.857142857142858v13.255199999999999l-3.1990628571428568 -3.198857142857143c-0.8368457142857142 -0.8369142857142857 -2.1936 -0.8369142857142857 -3.030445714285714 0 -0.8368457142857142 0.8365714285714285 -0.8368457142857142 2.1936 0 3.0301714285714283l6.857142857142857 6.857142857142857c0.8368457142857142 0.8369142857142857 2.1936 0.8369142857142857 3.030445714285714 0l6.857142857142857 -6.857142857142857c0.8368457142857142 -0.8365714285714285 0.8368457142857142 -2.1936 0 -3.0301714285714283 -0.8368457142857142 -0.8369142857142857 -2.1936 -0.8369142857142857 -3.030445714285714 0l-3.1990628571428568 3.198857142857143V26.142857142857142h13.255199999999999l-3.198857142857143 3.1990628571428568c-0.8369142857142857 0.8368457142857142 -0.8369142857142857 2.1936 0 3.030445714285714 0.8365714285714285 0.8368457142857142 2.1936 0.8368457142857142 3.0301714285714283 0l6.857142857142857 -6.857142857142857c0.20571428571428568 -0.20543999999999998 0.3606857142857143 -0.44221714285714286 0.4652571428571428 -0.6949714285714285 0.10217142857142857 -0.24692571428571428 0.15977142857142856 -0.5171314285714285 0.1625142857142857 -0.8004685714285714l0 -0.01978285714285714 0 -0.01978285714285714c-0.002742857142857143 -0.28333714285714284 -0.06034285714285714 -0.5535428571428571 -0.1625142857142857 -0.8004685714285714 -0.10457142857142857 -0.25275428571428565 -0.25954285714285713 -0.4895314285714285 -0.4652571428571428 -0.6949714285714285l-6.857142857142857 -6.857142857142857c-0.8365714285714285 -0.8368457142857142 -2.1936 -0.8368457142857142 -3.0301714285714283 0 -0.8369142857142857 0.8368457142857142 -0.8369142857142857 2.1936 0 3.030445714285714l3.198857142857143 3.1990628571428568H26.142857142857142V8.601874285714285l3.1990628571428568 3.1990628571428568c0.8368457142857142 0.8368457142857142 2.1936 0.8368457142857142 3.030445714285714 0 0.8368457142857142 -0.8368457142857142 0.8368457142857142 -2.1936 0 -3.030445714285714l-6.857142857142857 -6.857149714285713Z" clip-rule="evenodd" stroke-width="3.4286"></path>
  </g>
</svg>