<svg xmlns="http://www.w3.org/2000/svg" fill="none" viewBox="0 0 48 48" id="Line-Arrow-Infinite-Loop--Streamline-Core-Remix" height="48" width="48">
  <desc>
    Line Arrow Infinite Loop Streamline Icon: https://streamlinehq.com
  </desc>
  <g id="Free Remix/Interface Essential/line-arrow-infinite-loop--arrow-diagram-loop-infinity-repeat">
    <path id="Union" fill="#000000" fill-rule="evenodd" d="M37.01862857142857 8.509714285714287c0.8204571428571429 0.8201142857142857 0.8204571428571429 2.150057142857143 0 2.970514285714285l-4.652571428571428 4.652571428571428h3.1676571428571427c4.777028571428571 0 7.902514285714285 1.9601142857142855 9.752914285714285 4.6032 1.7653714285714286 2.521714285714286 2.2333714285714286 5.460342857142857 2.2333714285714286 7.383085714285714 0 1.923085714285714 -0.468 4.861714285714285 -2.2333714285714286 7.3834285714285715 -1.8503999999999998 2.6430857142857143 -4.975542857142857 4.602857142857142 -9.752914285714285 4.602857142857142 -3.2492571428571426 0 -5.812114285714285 -1.6463999999999999 -7.869942857142856 -3.704228571428571 -2.0016 -2.0016 -3.7453714285714286 -4.6175999999999995 -5.344457142857142 -7.016571428571428l-0.0672 -0.10045714285714286c-1.677942857142857 -2.5169142857142854 -3.2084571428571427 -4.798628571428571 -4.8864 -6.476228571428571 -1.649142857142857 -1.649142857142857 -3.205371428571428 -2.4740571428571427 -4.8994285714285715 -2.4740571428571427 -3.4608 0 -5.2782857142857145 1.3350857142857142 -6.311314285714285 2.811085714285714 -1.1183999999999998 1.5973714285714284 -1.473942857142857 3.6017142857142854 -1.473942857142857 4.974171428571428 0 1.3724571428571428 0.3555428571428571 3.3768 1.473942857142857 4.974171428571428 1.0330285714285714 1.476 2.8505142857142856 2.811428571428571 6.311314285714285 2.811428571428571 1.7561142857142855 0 3.3661714285714286 -0.8876571428571429 5.081828571428571 -2.6595428571428568 0.8070857142857142 -0.8331428571428571 2.136685714285714 -0.854742857142857 2.9701714285714282 -0.04765714285714285 0.8331428571428571 0.8070857142857142 0.854742857142857 2.136685714285714 0.04765714285714285 2.9701714285714282 -2.0982857142857143 2.166857142857143 -4.728685714285714 3.9377142857142857 -8.099657142857142 3.9377142857142857 -4.777028571428571 0 -7.902857142857143 -1.9597714285714285 -9.752914285714285 -4.602857142857142C0.9480000000000001 32.9808 0.48000000000000004 30.042171428571425 0.48000000000000004 28.11908571428571c0 -1.9227428571428569 0.468 -4.861371428571428 2.2333714285714286 -7.383085714285714 1.8500571428571426 -2.6430857142857143 4.975885714285714 -4.6032 9.752914285714285 -4.6032 3.2489142857142856 0 5.812114285714285 1.6463999999999999 7.869942857142856 3.7045714285714286 2.0016 2.0016 3.7453714285714286 4.6175999999999995 5.344457142857142 7.016228571428572l0.06685714285714285 0.10045714285714286c1.6782857142857142 2.5169142857142854 3.2087999999999997 4.798628571428571 4.8864 6.476571428571428 1.6494857142857142 1.649142857142857 3.2057142857142855 2.4740571428571427 4.8997714285714284 2.4740571428571427 3.4608 0 5.2782857142857145 -1.3354285714285714 6.311314285714285 -2.811428571428571 1.1180571428571429 -1.5973714285714284 1.473942857142857 -3.6017142857142854 1.473942857142857 -4.974171428571428 0 -1.3724571428571428 -0.3558857142857143 -3.3768 -1.473942857142857 -4.974171428571428 -1.0330285714285714 -1.476 -2.8505142857142856 -2.811085714285714 -6.311314285714285 -2.811085714285714H27.295199999999998c-0.8495999999999999 0 -1.6155428571428572 -0.5118857142857142 -1.9405714285714284 -1.2966857142857142 -0.3250285714285714 -0.7851428571428571 -0.14537142857142857 -1.6885714285714284 0.45531428571428567 -2.2892571428571427L34.048114285714284 8.509714285714287c0.8204571428571429 -0.8204571428571429 2.1504 -0.8204571428571429 2.970514285714285 0Z" clip-rule="evenodd" stroke-width="3.4286"></path>
  </g>
</svg>