<svg xmlns="http://www.w3.org/2000/svg" fill="none" viewBox="0 0 48 48" id="Line-Arrow-Expand-Window-1--Streamline-Core-Remix" height="48" width="48">
  <desc>
    Line Arrow Expand Window 1 Streamline Icon: https://streamlinehq.com
  </desc>
  <g id="Free Remix/Interface Essential/line-arrow-expand-window-1--expand-small-bigger-retract-smaller-big">
    <path id="Union" fill="#000000" fill-rule="evenodd" d="M6.857142857142857 5.571428571428571c-0.7100914285714285 0 -1.2857142857142856 0.5756228571428571 -1.2857142857142856 1.2857142857142856v34.285714285714285c0 0.7100571428571428 0.5756228571428571 1.2857142857142856 1.2857142857142856 1.2857142857142856h34.285714285714285c0.7100571428571428 0 1.2857142857142856 -0.5756571428571428 1.2857142857142856 -1.2857142857142856V27.428571428571427c0 -1.1834742857142857 0.9593142857142857 -2.142857142857143 2.142857142857143 -2.142857142857143s2.142857142857143 0.9593828571428571 2.142857142857143 2.142857142857143v13.714285714285714c0 3.077142857142857 -2.494285714285714 5.571428571428571 -5.571428571428571 5.571428571428571H6.857142857142857c-3.0770057142857143 0 -5.571428571428571 -2.494285714285714 -5.571428571428571 -5.571428571428571V6.857142857142857C1.2857142857142856 3.780137142857143 3.780137142857143 1.2857142857142856 6.857142857142857 1.2857142857142856h13.714285714285714c1.1834742857142857 0 2.142857142857143 0.9593897142857143 2.142857142857143 2.142857142857143 0 1.1834742857142857 -0.9593828571428571 2.142857142857143 -2.142857142857143 2.142857142857143H6.857142857142857ZM28.71428571428571 3.4285714285714284c0 -1.1834674285714284 0.9593828571428571 -2.142857142857143 2.142857142857143 -2.142857142857143h13.714285714285714c1.183542857142857 0 2.142857142857143 0.9593897142857143 2.142857142857143 2.142857142857143v13.714285714285714c0 1.1834742857142857 -0.9593142857142857 2.142857142857143 -2.142857142857143 2.142857142857143s-2.142857142857143 -0.9593828571428571 -2.142857142857143 -2.142857142857143V8.601874285714285L25.515222857142856 25.515222857142856c-0.8368457142857142 0.8368457142857142 -2.1936 0.8368457142857142 -3.030445714285714 0 -0.8368457142857142 -0.8368457142857142 -0.8368457142857142 -2.1936 0 -3.030445714285714L39.39805714285714 5.571428571428571H30.857142857142854c-1.1834742857142857 0 -2.142857142857143 -0.9593828571428571 -2.142857142857143 -2.142857142857143Z" clip-rule="evenodd" stroke-width="3.4286"></path>
  </g>
</svg>