<svg xmlns="http://www.w3.org/2000/svg" fill="none" viewBox="0 0 48 48" id="Line-Arrow-Shrink--Streamline-Core-Remix" height="48" width="48">
  <desc>
    Line Arrow Shrink Streamline Icon: https://streamlinehq.com
  </desc>
  <g id="Free Remix/Interface Essential/line-arrow-shrink--expand-retract-shrink-bigger-big-small-smaller">
    <path id="Union" fill="#000000" fill-rule="evenodd" d="M46.08651428571429 1.9133417142857143c0.8369142857142857 0.8368388571428571 0.8369142857142857 2.193606857142857 0 3.030452571428571L34.316228571428574 16.71428571428571H42.857142857142854c1.183542857142857 0 2.142857142857143 0.9593828571428571 2.142857142857143 2.142857142857143s-0.9593142857142857 2.142857142857143 -2.142857142857143 2.142857142857143h-13.714285714285714c-0.2905371428571428 0 -0.5676 -0.057839999999999996 -0.8202514285714285 -0.1625828571428571 -0.25275428571428565 -0.10457142857142857 -0.4895314285714285 -0.25961142857142855 -0.6949714285714285 -0.46505142857142856C27.20921142857143 19.953942857142856 27 19.40554285714286 27 18.857142857142858v-13.714285714285714c0 -1.1834742857142857 0.9593828571428571 -2.142857142857143 2.142857142857143 -2.142857142857143s2.142857142857143 0.9593828571428571 2.142857142857143 2.142857142857143v8.540982857142856L43.05634285714285 1.9133417142857143c0.8365714285714285 -0.8368354285714285 2.1936 -0.8368354285714285 3.0301714285714283 0ZM20.83741714285714 28.32260571428571c-0.10374857142857141 -0.25073142857142855 -0.2571428571428571 -0.48575999999999997 -0.4601485714285714 -0.6900685714285714l-0.004902857142857143 -0.004902857142857143 -0.004902857142857143 -0.004902857142857143C19.98006857142857 27.23784 19.44637714285714 27 18.857142857142858 27h-13.714285714285714c-1.1834742857142857 0 -2.142857142857143 0.9593828571428571 -2.142857142857143 2.142857142857143s0.9593828571428571 2.142857142857143 2.142857142857143 2.142857142857143h8.540982857142856L1.9133417142857143 43.05634285714285c-0.8368354285714285 0.8365714285714285 -0.8368354285714285 2.1936 0 3.0301714285714283 0.8368388571428571 0.8369142857142857 2.193606857142857 0.8369142857142857 3.030452571428571 0l11.770491428571427 -11.770285714285713V42.857142857142854c0 1.183542857142857 0.9593828571428571 2.142857142857143 2.142857142857143 2.142857142857143s2.142857142857143 -0.9593142857142857 2.142857142857143 -2.142857142857143v-13.714285714285714c0 -0.2905371428571428 -0.057839999999999996 -0.5676 -0.1625828571428571 -0.8202514285714285Zm13.478811428571428 2.963108571428571H42.857142857142854c1.183542857142857 0 2.142857142857143 -0.9593828571428571 2.142857142857143 -2.142857142857143s-0.9593142857142857 -2.142857142857143 -2.142857142857143 -2.142857142857143h-13.714285714285714c-1.1834742857142857 0 -2.142857142857143 0.9593828571428571 -2.142857142857143 2.142857142857143v13.714285714285714c0 1.183542857142857 0.9593828571428571 2.142857142857143 2.142857142857143 2.142857142857143s2.142857142857143 -0.9593142857142857 2.142857142857143 -2.142857142857143v-8.540914285714285l11.77062857142857 11.770285714285713c0.8365714285714285 0.8369142857142857 2.1936 0.8369142857142857 3.0301714285714283 0 0.8369142857142857 -0.8365714285714285 0.8369142857142857 -2.1936 0 -3.0301714285714283l-11.770285714285713 -11.77062857142857ZM1.9133417142857143 1.9133417142857143c0.8368388571428571 -0.8368354285714285 2.193606857142857 -0.8368354285714285 3.030452571428571 0L16.71428571428571 13.68384V5.142857142857142c0 -1.1834742857142857 0.9593828571428571 -2.142857142857143 2.142857142857143 -2.142857142857143s2.142857142857143 0.9593828571428571 2.142857142857143 2.142857142857143v13.714285714285714c0 0.2905371428571428 -0.057839999999999996 0.5676 -0.1625828571428571 0.8202514285714285 -0.10457142857142857 0.25275428571428565 -0.25961142857142855 0.4895314285714285 -0.46505142857142856 0.6949714285714285 -0.4184228571428571 0.4184228571428571 -0.9668228571428572 0.6276342857142857 -1.515222857142857 0.6276342857142857h-13.714285714285714c-1.1834742857142857 0 -2.142857142857143 -0.9593828571428571 -2.142857142857143 -2.142857142857143s0.9593828571428571 -2.142857142857143 2.142857142857143 -2.142857142857143h8.540982857142856L1.9133417142857143 4.943794285714286c-0.8368354285714285 -0.8368457142857142 -0.8368354285714285 -2.193613714285714 0 -3.030452571428571Z" clip-rule="evenodd" stroke-width="3.4286"></path>
  </g>
</svg>