<svg xmlns="http://www.w3.org/2000/svg" fill="none" viewBox="0 0 48 48" id="Line-Arrow-Crossover-Right--Streamline-Core-Remix" height="48" width="48">
  <desc>
    Line Arrow Crossover Right Streamline Icon: https://streamlinehq.com
  </desc>
  <g id="Free Remix/Interface Essential/line-arrow-crossover-right--cross-move-over-arrow-arrows-ight">
    <path id="Union" fill="#000000" fill-rule="evenodd" d="M46.08651428571429 1.9133417142857143c0.20571428571428568 0.2054502857142857 0.3606857142857143 0.4422411428571428 0.4652571428571428 0.6949817142857142 0.10457142857142857 0.2526548571428571 0.1625142857142857 0.5297005714285714 0.1625142857142857 0.820248v13.714285714285714c0 1.1834742857142857 -0.9593142857142857 2.142857142857143 -2.142857142857143 2.142857142857143s-2.142857142857143 -0.9593828571428571 -2.142857142857143 -2.142857142857143V8.601874285714285L4.943794285714286 46.08651428571429c-0.8368457142857142 0.8369142857142857 -2.193613714285714 0.8369142857142857 -3.030452571428571 0 -0.8368354285714285 -0.8365714285714285 -0.8368354285714285 -2.1936 0 -3.0301714285714283L39.39805714285714 5.571428571428571H30.857142857142854c-1.1834742857142857 0 -2.142857142857143 -0.9593828571428571 -2.142857142857143 -2.142857142857143 0 -1.1834674285714284 0.9593828571428571 -2.142857142857143 2.142857142857143 -2.142857142857143h13.714285714285714c0.5485714285714286 0 1.0968 0.20920799999999998 1.5150857142857141 0.6276274285714285ZM30.65808 27.627634285714283c-0.8368457142857142 -0.8368457142857142 -2.1936 -0.8368457142857142 -3.030445714285714 0 -0.8368457142857142 0.8368457142857142 -0.8368457142857142 2.1936 0 3.030445714285714L39.39805714285714 42.42857142857142H30.857142857142854c-1.1834742857142857 0 -2.142857142857143 0.9593142857142857 -2.142857142857143 2.142857142857143s0.9593828571428571 2.142857142857143 2.142857142857143 2.142857142857143h13.714285714285714c1.183542857142857 0 2.142857142857143 -0.9593142857142857 2.142857142857143 -2.142857142857143V30.857142857142854c0 -1.1834742857142857 -0.9593142857142857 -2.142857142857143 -2.142857142857143 -2.142857142857143s-2.142857142857143 0.9593828571428571 -2.142857142857143 2.142857142857143v8.540914285714285L30.65808 27.627634285714283ZM1.9133417142857143 1.9133417142857143c0.8368388571428571 -0.8368354285714285 2.193606857142857 -0.8368354285714285 3.030452571428571 0l15.428571428571427 15.428578285714286c0.8368457142857142 0.8368457142857142 0.8368457142857142 2.1936 0 3.030445714285714 -0.8368457142857142 0.8368457142857142 -2.1936 0.8368457142857142 -3.030445714285714 0l-15.428578285714286 -15.428571428571427c-0.8368354285714285 -0.8368457142857142 -0.8368354285714285 -2.193613714285714 0 -3.030452571428571Z" clip-rule="evenodd" stroke-width="3.4286"></path>
  </g>
</svg>