<svg xmlns="http://www.w3.org/2000/svg" fill="none" viewBox="0 0 48 48" id="Line-Arrow-Move-Down-1--Streamline-Core-Remix" height="48" width="48">
  <desc>
    Line Arrow Move Down 1 Streamline Icon: https://streamlinehq.com
  </desc>
  <g id="Free Remix/Interface Essential/line-arrow-move-down-1--down-move-arrow-arrows">
    <path id="Union" fill="#000000" fill-rule="evenodd" d="M24 0c1.1834742857142857 0 2.142857142857143 0.9593897142857143 2.142857142857143 2.142857142857143v25.683839999999996l6.627634285714286 -6.627634285714286c0.8368457142857142 -0.8368457142857142 2.1937371428571426 -0.8368457142857142 3.030308571428571 0 0.8369142857142857 0.8368457142857142 0.8369142857142857 2.1936 0 3.030445714285714L25.515222857142856 34.51508571428571c-0.8368457142857142 0.8369142857142857 -2.1936 0.8369142857142857 -3.030445714285714 0l-10.285714285714285 -10.285577142857143c-0.8368457142857142 -0.8368457142857142 -0.8368457142857142 -2.1936 0 -3.030445714285714 0.8368457142857142 -0.8368457142857142 2.1936 -0.8368457142857142 3.030445714285714 0L21.857142857142858 27.826697142857142V2.142857142857143C21.857142857142858 0.9593897142857143 22.816525714285714 0 24 0ZM12 43.714285714285715c-1.1834742857142857 0 -2.142857142857143 0.9593142857142857 -2.142857142857143 2.142857142857143S10.816525714285714 48 12 48h24c1.183542857142857 0 2.142857142857143 -0.9593142857142857 2.142857142857143 -2.142857142857143s-0.9593142857142857 -2.142857142857143 -2.142857142857143 -2.142857142857143h-24Z" clip-rule="evenodd" stroke-width="3.4286"></path>
  </g>
</svg>