<svg xmlns="http://www.w3.org/2000/svg" fill="none" viewBox="0 0 48 48" id="Line-Arrow-Move-Left-2--Streamline-Core-Remix" height="48" width="48">
  <desc>
    Line Arrow Move Left 2 Streamline Icon: https://streamlinehq.com
  </desc>
  <g id="Free Remix/Interface Essential/line-arrow-move-left-2--move-left-arrows">
    <path id="Union" fill="#000000" fill-rule="evenodd" d="M46.71428571428571 6.857142857142857c0 -3.0770057142857143 -2.494285714285714 -5.571428571428571 -5.571428571428571 -5.571428571428571h-6.857142857142857c-3.0770057142857143 0 -5.571428571428571 2.494422857142857 -5.571428571428571 5.571428571428571v34.285714285714285c0 3.077142857142857 2.494422857142857 5.571428571428571 5.571428571428571 5.571428571428571h6.857142857142857c3.077142857142857 0 5.571428571428571 -2.494285714285714 5.571428571428571 -5.571428571428571V6.857142857142857ZM41.14285714285714 5.571428571428571c0.7100571428571428 0 1.2857142857142856 0.5756228571428571 1.2857142857142856 1.2857142857142856v34.285714285714285c0 0.7100571428571428 -0.5756571428571428 1.2857142857142856 -1.2857142857142856 1.2857142857142856h-6.857142857142857c-0.7100914285714285 0 -1.2857142857142856 -0.5756571428571428 -1.2857142857142856 -1.2857142857142856V6.857142857142857c0 -0.7100914285714285 0.5756228571428571 -1.2857142857142856 1.2857142857142856 -1.2857142857142856h6.857142857142857ZM26.142857142857142 24c0 -1.1834742857142857 -0.9593828571428571 -2.142857142857143 -2.142857142857143 -2.142857142857143H8.601874285714285l4.913348571428571 -4.913348571428571c0.8368457142857142 -0.8368457142857142 0.8368457142857142 -2.1936 0 -3.030445714285714 -0.8368457142857142 -0.8368457142857142 -2.1936 -0.8368457142857142 -3.030445714285714 0l-8.571435428571428 8.571428571428571c-0.8368354285714285 0.8368457142857142 -0.8368354285714285 2.1936 0 3.030445714285714l8.571435428571428 8.571428571428571c0.8368457142857142 0.8367771428571428 2.1936 0.8367771428571428 3.030445714285714 0 0.8368457142857142 -0.8368457142857142 0.8368457142857142 -2.1936 0 -3.030445714285714L8.601874285714285 26.142857142857142H24c1.1834742857142857 0 2.142857142857143 -0.9593828571428571 2.142857142857143 -2.142857142857143Z" clip-rule="evenodd" stroke-width="3.4286"></path>
  </g>
</svg>