<svg xmlns="http://www.w3.org/2000/svg" fill="none" viewBox="0 0 48 48" id="Line-Arrow-Synchronize-Warning--Streamline-Core-Remix" height="48" width="48">
  <desc>
    Line Arrow Synchronize Warning Streamline Icon: https://streamlinehq.com
  </desc>
  <g id="Free Remix/Interface Essential/line-arrow-synchronize-warning--arrow-fail-notification-sync-warning-failure-synchronize-error">
    <path id="Union" fill="#000000" fill-rule="evenodd" d="M23.999794285714284 4.714285714285714c-5.3016685714285705 0 -10.10478857142857 2.1382971428571427 -13.592914285714285 5.604274285714285h3.702685714285714c1.1834742857142857 0 2.142857142857143 0.9593828571428571 2.142857142857143 2.142857142857143 0 1.1834399999999998 -0.9593828571428571 2.142857142857143 -2.142857142857143 2.142857142857143h-8.127085714285714c-0.02979428571428571 0.0006171428571428571 -0.05965714285714285 0.0006171428571428571 -0.08952 0h-0.025199999999999997c-1.1834742857142857 0 -2.142857142857143 -0.9594171428571429 -2.142857142857143 -2.142857142857143V4.219577142857142c0 -1.1834571428571428 0.9593828571428571 -2.142846857142857 2.142857142857143 -2.142846857142857 1.1834399999999998 0 2.142857142857143 0.9593897142857143 2.142857142857143 2.142846857142857v2.461268571428571C12.210857142857142 2.801561142857143 17.82781714285714 0.42857142857142855 23.999794285714284 0.42857142857142855c13.01814857142857 0 23.571634285714286 10.55334857142857 23.571634285714286 23.571565714285715 0 1.1834742857142857 -0.9593142857142857 2.142857142857143 -2.142857142857143 2.142857142857143s-2.142857142857143 -0.9593828571428571 -2.142857142857143 -2.142857142857143c0 -10.65126857142857 -8.634514285714285 -19.28585142857143 -19.28592 -19.28585142857143ZM24 11.142857142857142c1.1834742857142857 0 2.142857142857143 0.9593828571428571 2.142857142857143 2.142857142857143v11.53854857142857c0 1.1834742857142857 -0.9593828571428571 2.142857142857143 -2.142857142857143 2.142857142857143s-2.142857142857143 -0.9593828571428571 -2.142857142857143 -2.142857142857143V13.285714285714285c0 -1.1834742857142857 0.9593828571428571 -2.142857142857143 2.142857142857143 -2.142857142857143Zm0.03336 24.889714285714284 -0.032845714285714284 0.00034285714285714285c-1.6386514285714284 0 -2.967017142857143 -1.3285714285714285 -2.967017142857143 -2.96712 0 -1.6275428571428572 1.3104685714285713 -2.9490514285714284 2.9338285714285712 -2.9668457142857143l0.03281142857142857 -0.00027428571428571427c1.6386514285714284 0 2.9670514285714282 1.3284 2.9670514285714282 2.9670514285714282 0 1.6276457142857141 -1.3104685714285713 2.9490171428571426 -2.9338285714285712 2.9668457142857143ZM4.714285714285714 24c0 -1.1834742857142857 -0.9593828571428571 -2.142857142857143 -2.142857142857143 -2.142857142857143 -1.1834674285714284 0 -2.142857142857143 0.9593828571428571 -2.142857142857143 2.142857142857143 0 13.018285714285714 10.55334857142857 23.57142857142857 23.571565714285715 23.57142857142857 6.172114285714286 0 11.789005714285715 -2.3729142857142858 15.989348571428572 -6.252342857142857v2.4610285714285713c0 1.183542857142857 0.9596571428571428 2.142857142857143 2.142857142857143 2.142857142857143 1.183542857142857 0 2.142857142857143 -0.9593142857142857 2.142857142857143 -2.142857142857143v-8.2416c0 -1.183542857142857 -0.9593142857142857 -2.142994285714286 -2.142857142857143 -2.142994285714286h-0.05039999999999999c-0.013028571428571428 -0.00013714285714285713 -0.0264 -0.00013714285714285713 -0.039428571428571424 0H33.89064c-1.1834742857142857 0 -2.142857142857143 0.9594514285714284 -2.142857142857143 2.142994285714286 0 1.1832 0.9593828571428571 2.142857142857143 2.142857142857143 2.142857142857143h3.70296c-3.4883314285714286 3.4659428571428568 -8.291554285714286 5.604342857142857 -13.593462857142857 5.604342857142857C13.34886857142857 43.285714285714285 4.714285714285714 34.651199999999996 4.714285714285714 24Z" clip-rule="evenodd" stroke-width="3.4286"></path>
  </g>
</svg>