<svg xmlns="http://www.w3.org/2000/svg" fill="none" viewBox="0 0 48 48" id="Line-Arrow-Crossover-Down--Streamline-Core-Remix" height="48" width="48">
  <desc>
    Line Arrow Crossover Down Streamline Icon: https://streamlinehq.com
  </desc>
  <g id="Free Remix/Interface Essential/line-arrow-crossover-down--cross-move-over-arrow-arrows-down">
    <path id="Union" fill="#000000" fill-rule="evenodd" d="M46.08651428571429 1.9133417142857143c0.8369142857142857 0.8368388571428571 0.8369142857142857 2.193606857142857 0 3.030452571428571l-14.571291428571428 14.571428571428571c-0.8368457142857142 0.8368457142857142 -2.1936 0.8368457142857142 -3.030445714285714 0 -0.8368457142857142 -0.8368457142857142 -0.8368457142857142 -2.1936 0 -3.030445714285714L43.05634285714285 1.9133417142857143c0.8365714285714285 -0.8368354285714285 2.1936 -0.8368354285714285 3.0301714285714283 0ZM19.515222857142856 28.48477714285714c0.8368457142857142 0.8368457142857142 0.8368457142857142 2.1936 0 3.030445714285714L8.601874285714285 42.42857142857142H17.142857142857142c1.1834742857142857 0 2.142857142857143 0.9593142857142857 2.142857142857143 2.142857142857143s-0.9593828571428571 2.142857142857143 -2.142857142857143 2.142857142857143H3.4285714285714284c-1.1834674285714284 0 -2.142857142857143 -0.9593142857142857 -2.142857142857143 -2.142857142857143V30.857142857142854c0 -1.1834742857142857 0.9593897142857143 -2.142857142857143 2.142857142857143 -2.142857142857143 1.1834742857142857 0 2.142857142857143 0.9593828571428571 2.142857142857143 2.142857142857143v8.540914285714285l10.91334857142857 -10.91328c0.8368457142857142 -0.8368457142857142 2.1936 -0.8368457142857142 3.030445714285714 0ZM1.9133417142857143 1.9133417142857143c0.8368388571428571 -0.8368354285714285 2.193606857142857 -0.8368354285714285 3.030452571428571 0L42.42857142857142 39.39805714285714V30.857142857142854c0 -1.1834742857142857 0.9593142857142857 -2.142857142857143 2.142857142857143 -2.142857142857143s2.142857142857143 0.9593828571428571 2.142857142857143 2.142857142857143v13.714285714285714c0 0.2904 -0.057942857142857136 0.5674285714285714 -0.1625142857142857 0.8201142857142857 -0.10457142857142857 0.25302857142857144 -0.25954285714285713 0.48960000000000004 -0.4652571428571428 0.6949714285714285 -0.20537142857142857 0.20571428571428568 -0.4419428571428571 0.3606857142857143 -0.6949714285714285 0.4652571428571428 -0.2526857142857143 0.10457142857142857 -0.5297142857142857 0.1625142857142857 -0.8201142857142857 0.1625142857142857H30.857142857142854c-1.1834742857142857 0 -2.142857142857143 -0.9593142857142857 -2.142857142857143 -2.142857142857143s0.9593828571428571 -2.142857142857143 2.142857142857143 -2.142857142857143h8.540914285714285L1.9133417142857143 4.943794285714286c-0.8368354285714285 -0.8368457142857142 -0.8368354285714285 -2.193613714285714 0 -3.030452571428571Z" clip-rule="evenodd" stroke-width="3.4286"></path>
  </g>
</svg>