<svg xmlns="http://www.w3.org/2000/svg" fill="none" viewBox="0 0 48 48" id="Line-Arrow-Curve-Left-Down--Streamline-Core-Remix" height="48" width="48">
  <desc>
    Line Arrow Curve Left Down Streamline Icon: https://streamlinehq.com
  </desc>
  <g id="Free Remix/Interface Essential/line-arrow-curve-left-down--arrow-bend-curve-change-direction-left-to-down">
    <path id="Union" fill="#000000" fill-rule="evenodd" d="M30.857142857142854 4.285714285714286c-6.39072 0 -11.571428571428571 5.180708571428571 -11.571428571428571 11.571428571428571l0 24.82662857142857 4.913348571428571 -4.913142857142857c0.8368457142857142 -0.8369142857142857 2.1936 -0.8369142857142857 3.030445714285714 0 0.8368457142857142 0.8365714285714285 0.8368457142857142 2.1936 0 3.0301714285714283l-8.571428571428571 8.571428571428571c-0.8368457142857142 0.8369142857142857 -2.1936 0.8369142857142857 -3.030445714285714 0l-8.571428571428571 -8.571428571428571c-0.8368457142857142 -0.8365714285714285 -0.8368457142857142 -2.1936 0 -3.0301714285714283 0.8368457142857142 -0.8369142857142857 2.1936 -0.8369142857142857 3.030445714285714 0l4.913348571428571 4.913142857142857 0 -24.82662857142857C15 7.099474285714285 22.099474285714287 0 30.857142857142854 0h8.571428571428571c1.183542857142857 0 2.142857142857143 0.9593897142857143 2.142857142857143 2.142857142857143s-0.9593142857142857 2.142857142857143 -2.142857142857143 2.142857142857143l-8.571428571428571 0Z" clip-rule="evenodd" stroke-width="3.4286"></path>
  </g>
</svg>