<svg xmlns="http://www.w3.org/2000/svg" fill="none" viewBox="0 0 48 48" id="Link-Chain--Streamline-Core-Remix" height="48" width="48">
  <desc>
    Link Chain Streamline Icon: https://streamlinehq.com
  </desc>
  <g id="Free Remix/Interface Essential/link-chain--create-hyperlink-link-make-unlink-connection-chain">
    <path id="Union" fill="#000000" fill-rule="evenodd" d="M24.352114285714283 43.82194285714285c-5.570708571428571 5.570742857142857 -14.602628571428571 5.570742857142857 -20.173337142857143 0 -5.570698285714285 -5.570742857142857 -5.570694857142857 -14.602594285714284 0 -20.173302857142858l5.142857142857142 -5.142857142857142c0.8368457142857142 -0.8368114285714285 2.1936342857142854 -0.8368114285714285 3.03048 0 0.8368457142857142 0.8368457142857142 0.8368457142857142 2.1936342857142854 0 3.03048l-5.142857142857142 5.142857142857142c-3.8970411428571423 3.897017142857143 -3.8970411428571423 10.215394285714286 0 14.11230857142857 3.897017142857143 3.8972571428571428 10.21536 3.8972571428571428 14.112411428571427 0l5.142822857142857 -5.142857142857142c0.8368457142857142 -0.8369142857142857 2.1936342857142854 -0.8369142857142857 3.03048 0 0.8368457142857142 0.8369142857142857 0.8368457142857142 2.1936 0 3.0305142857142857l-5.142857142857142 5.142857142857142ZM14.718857142857143 33.28152c-1.338925714285714 -1.33896 -1.338925714285714 -3.5097942857142854 0 -4.848754285714286l13.714285714285714 -13.714285714285714c1.33896 -1.338925714285714 3.5097942857142854 -1.338925714285714 4.848754285714286 0 1.3387885714285714 1.33896 1.3387885714285714 3.5097942857142854 0 4.848754285714286l-13.714285714285714 13.714285714285714c-1.33896 1.338822857142857 -3.5097942857142854 1.338822857142857 -4.848754285714286 0Zm29.103085714285715 -29.10349714285714c-5.570742857142857 -5.570705142857142 -14.602594285714284 -5.570698285714285 -20.173302857142858 0l-5.142822857142857 5.142857142857142c-0.8368457142857142 0.8368457142857142 -0.8368457142857142 2.1936342857142854 0 3.030445714285714 0.8368114285714285 0.8368457142857142 2.1936 0.8368457142857142 3.030445714285714 0l5.142857142857142 -5.142822857142857c3.897017142857143 -3.897048 10.215394285714286 -3.897048 14.11230857142857 0 3.8972571428571428 3.897017142857143 3.8972571428571428 10.21536 0 14.112377142857142l-5.142857142857142 5.142857142857142c-0.8369142857142857 0.8368457142857142 -0.8369142857142857 2.1936342857142854 0 3.030445714285714 0.8369142857142857 0.8368457142857142 2.1936 0.8368457142857142 3.0305142857142857 0l5.142857142857142 -5.142822857142857c5.570742857142857 -5.570708571428571 5.570742857142857 -14.602628571428571 0 -20.173337142857143Z" clip-rule="evenodd" stroke-width="3.4286"></path>
  </g>
</svg>