<svg xmlns="http://www.w3.org/2000/svg" fill="none" viewBox="0 0 48 48" id="Linkedin--Streamline-Core-Remix" height="48" width="48">
  <desc>
    Linkedin Streamline Icon: https://streamlinehq.com
  </desc>
  <g id="Free Remix/Computer Devices/linkedin--network-linkedin-professional">
    <path id="Union" fill="#000000" fill-rule="evenodd" d="M7.4832342857142855 0.0004095805714285714c-0.02472 -0.0005403243428571429 -0.04944 -0.0005460462857142857 -0.07415999999999999 -0.00001716685714285714C5.820137142857143 0.034396114285714284 4.303577142857143 0.6713142857142856 3.166837714285714 1.7820274285714286 2.0300879999999997 2.892744 1.3582148571428572 4.39416 1.287414857142857 5.981862857142857c-0.0014914285714285713 0.03346285714285714 -0.0020022857142857143 0.06695999999999999 -0.0015325714285714285 0.10042285714285713 0.02277942857142857 1.6230514285714284 0.6682182857142857 3.1753371428571424 1.802934857142857 4.336011428571428 1.134702857142857 1.1607085714285714 2.6719714285714287 1.8411085714285713 4.294097142857143 1.9006285714285713 0.033805714285714286 0.0012685714285714286 0.06764571428571428 0.0015085714285714286 0.10145142857142857 0.0007199999999999999 1.6354285714285712 -0.036822857142857136 3.1906971428571427 -0.7156457142857142 4.329737142857143 -1.8897599999999999 1.13904 -1.17408 1.7704114285714285 -2.7491999999999996 1.7577257142857141 -4.384971428571428l-0.0011657142857142858 -0.05070857142857142c-0.05931428571428571 -1.5868457142857142 -0.7225371428571429 -3.0910731428571427 -1.8540342857142857 -4.205173714285714 -1.1314971428571428 -1.1141005714285714 -2.6458285714285714 -1.7539124571428568 -4.233394285714286 -1.7886224194285714ZM8.88041142857143 18.648685714285712c-0.38489142857142855 -0.02780571428571428 -0.8366742857142857 -0.02890285714285714 -1.4343085714285713 -0.02890285714285714 -0.5972914285714286 0 -1.05192 0.001097142857142857 -1.4406514285714285 0.028971428571428568 -0.16474285714285714 0.011828571428571428 -0.2913257142857143 0.027085714285714286 -0.38715428571428573 0.04251428571428571v24.90781714285714c0.09987428571428571 0.015085714285714286 0.2293028571428571 0.03017142857142857 0.3949028571428571 0.041485714285714285 0.3911657142857142 0.02674285714285714 0.8453142857142857 0.02777142857142857 1.432902857142857 0.02777142857142857 0.5878971428571429 0 1.0392342857142856 -0.0010285714285714284 1.4265942857142857 -0.02777142857142857 0.15229714285714285 -0.010628571428571428 0.27287999999999996 -0.024 0.3672342857142857 -0.03805714285714286V18.687462857142858c-0.09061714285714284 -0.014022857142857142 -0.20842285714285713 -0.027874285714285713 -0.35951999999999995 -0.03877714285714286Zm4.042354285714286 -2.35512c0.45692571428571427 0.7508571428571428 0.60288 1.5892457142857142 0.60288 2.389268571428571v25.024251428571425c0 0.7978285714285713 -0.1572 1.6357714285714287 -0.6390514285714285 2.380457142857143 -0.4962857142857142 0.7669714285714285 -1.192902857142857 1.2137142857142855 -1.8657599999999999 1.4664 -0.6350742857142857 0.2386285714285714 -1.2955885714285713 0.3236571428571428 -1.8526285714285713 0.36205714285714286 -0.5501142857142857 0.03805714285714286 -1.143222857142857 0.03805714285714286 -1.6815771428571429 0.03805714285714286h-0.08029714285714286c-0.5389371428571428 0 -1.1338285714285714 0 -1.6866857142857141 -0.03805714285714286 -0.55968 -0.0384 -1.2212914285714287 -0.12274285714285713 -1.8573600000000001 -0.35897142857142855 -0.6715748571428571 -0.24925714285714284 -1.3733245714285713 -0.6908571428571428 -1.876512 -1.4561142857142857 -0.4907897142857143 -0.7460571428571428 -0.6531839999999999 -1.5887999999999998 -0.6531839999999999 -2.3938285714285716V18.682834285714286c0 -0.8069828571428571 0.15073714285714285 -1.650102857142857 0.6165497142857143 -2.40288 0.48447428571428564 -0.7829142857142857 1.175784 -1.2528 1.8649062857142857 -1.5226285714285712 0.6463885714285714 -0.25309714285714285 1.3192114285714285 -0.34271999999999997 1.88472 -0.38327999999999995 0.5577599999999999 -0.04004571428571428 1.1597828571428572 -0.040011428571428566 1.7054057142857142 -0.03997714285714286h0.08437714285714286c0.54504 -0.00003428571428571428 1.1454514285714286 -0.00006857142857142857 1.7005714285714284 0.04004571428571428 0.5629371428571428 0.040628571428571424 1.2347657142857142 0.13062857142857143 1.8802628571428568 0.3864685714285714 0.6904457142857142 0.2736342857142857 1.3760914285714285 0.7486971428571428 1.853382857142857 1.5329828571428572Zm15.391439999999998 4.416171428571428c1.2373371428571427 -1.6606285714285713 3.155348571428571 -2.531177142857143 5.884457142857142 -2.531177142857143 4.714594285714285 0 8.648537142857142 3.7381371428571426 8.648537142857142 8.47944v16.845085714285712c-0.09154285714285715 0.013028571428571428 -0.2074285714285714 0.02571428571428571 -0.35245714285714286 0.03565714285714285 -0.3891428571428571 0.02674285714285714 -0.8448 0.02777142857142857 -1.4413714285714285 0.02777142857142857s-1.0522285714285713 -0.0010285714285714284 -1.4413714285714285 -0.02777142857142857c-0.14502857142857142 -0.009942857142857142 -0.2609142857142857 -0.02262857142857143 -0.35245714285714286 -0.03565714285714285V30.45894857142857c0 -4.0259657142857135 -3.0147428571428567 -7.64184 -7.336457142857143 -7.438114285714285 -4.280125714285714 -0.05866285714285714 -7.129474285714285 3.4708799999999997 -7.129542857142857 7.539942857142856L24.792411428571427 43.601142857142854c-0.09713142857142856 0.014399999999999998 -0.2218285714285714 0.028457142857142854 -0.38012571428571423 0.039428571428571424 -0.3929485714285714 0.02674285714285714 -0.8513142857142857 0.02777142857142857 -1.4476799999999999 0.02777142857142857 -0.5967085714285714 0 -1.0522971428571428 -0.0010285714285714284 -1.4414057142857142 -0.02777142857142857 -0.14509714285714287 -0.009942857142857142 -0.2609142857142857 -0.02262857142857143 -0.35245714285714286 -0.03565714285714285V18.6828c0 -0.03339428571428572 0.00047999999999999996 -0.06462857142857142 0.0012685714285714286 -0.09377142857142856 0.07505142857142856 -0.0030514285714285713 0.15888 -0.005554285714285714 0.25141714285714284 -0.007337142857142856 0.36473142857142854 -0.007097142857142856 0.8065028571428571 -0.002537142857142857 1.2776228571428572 0.007817142857142856 0.35307428571428573 0.007782857142857142 0.7439657142857142 0.01978285714285714 1.1193257142857143 0.031337142857142855l0.0005485714285714285 0 0.5752457142857142 0.017211428571428572c0.007131428571428571 0.03798857142857143 0.013885714285714284 0.078 0.020125714285714285 0.11996571428571429 0.03078857142857143 0.20770285714285713 0.04265142857142857 0.4224685714285714 0.037508571428571426 0.6134742857142857 -0.025234285714285713 0.933942857142857 0.5574857142857143 1.7765485714285711 1.440205714285714 2.082548571428571 0.8827200000000001 0.306 1.861954285714286 0.004834285714285714 2.4201942857142855 -0.7443085714285714Zm5.884457142857142 -6.816891428571428c-2.3959542857142857 0 -4.648868571428571 0.51816 -6.549257142857142 1.6977942857142856 -0.4993714285714286 -0.6340114285714286 -1.2792 -1.2226971428571427 -2.4449485714285712 -1.2226971428571427 -0.26941714285714286 0 -0.6545142857142856 -0.012171428571428571 -1.1231314285714284 -0.026982857142857142l-0.00013714285714285713 0c-0.3795085714285714 -0.012 -0.8138057142857142 -0.02571428571428571 -1.2857485714285715 -0.03610285714285714 -0.49179428571428574 -0.010834285714285715 -1.0024457142857142 -0.016902857142857143 -1.45536 -0.00809142857142857 -0.4063885714285714 0.00792 -0.9210857142857143 0.028834285714285715 -1.3410171428571427 0.11279999999999998 -0.7849028571428571 0.1569942857142857 -1.6907657142857142 0.5506628571428571 -2.3388 1.4601942857142856 -0.6040800000000001 0.8478171428571428 -0.7752342857142857 1.8576342857142856 -0.7752342857142857 2.81304v25.024285714285714c0 0.7899428571428571 0.15205714285714286 1.6244571428571428 0.6269485714285714 2.3688 0.4913828571428571 0.7704 1.1854971428571428 1.2212571428571428 1.8611314285714287 1.4766857142857144 0.6355885714285714 0.2403428571428571 1.2974742857142856 0.3250285714285714 1.8555428571428572 0.3634285714285714 0.5515542857142858 0.03805714285714286 1.1488114285714284 0.03805714285714286 1.694982857142857 0.03805714285714286h0.08146285714285714c0.5466857142857143 0 1.1455885714285714 0 1.699782857142857 -0.03805714285714286 0.5607428571428571 -0.0384 1.2236571428571428 -0.12274285714285713 1.8602057142857142 -0.36034285714285713 0.6742628571428572 -0.25199999999999995 1.3735885714285714 -0.6977142857142856 1.871965714285714 -1.4660571428571427 0.4838742857142857 -0.7457142857142857 0.6410399999999999 -1.5850285714285712 0.6410399999999999 -2.3825142857142856l0.0011657142857142858 -13.146308571428571c0 -2.1404914285714285 1.3327885714285714 -3.2917371428571425 2.825417142857143 -3.253851428571428 0.06041142857142857 0.0015428571428571427 0.12089142857142857 0.0005142857142857142 0.18123428571428568 -0.0030514285714285713 1.4881714285714285 -0.08821714285714286 2.88792 1.12608 2.88792 3.1550742857142855v13.146308571428571c0 0.7902857142857143 0.15188571428571426 1.6244571428571428 0.626742857142857 2.3688 0.49165714285714285 0.7704 1.1856 1.2212571428571428 1.8613714285714287 1.4766857142857144 0.6356571428571428 0.2403428571428571 1.2973714285714286 0.3250285714285714 1.8555428571428572 0.3634285714285714 0.5513142857142856 0.03805714285714286 1.1485714285714286 0.03805714285714286 1.694742857142857 0.03805714285714286h0.08194285714285714c0.5461714285714285 0 1.1434285714285715 0 1.6950857142857143 -0.03805714285714286 0.5581714285714285 -0.0384 1.2198857142857142 -0.12308571428571428 1.8555428571428572 -0.3634285714285714 0.6757714285714286 -0.2554285714285714 1.3697142857142857 -0.7062857142857142 1.8610285714285713 -1.4766857142857144 0.47519999999999996 -0.7443428571428571 0.6270857142857142 -1.5785142857142855 0.6270857142857142 -2.3688V26.657999999999998c0 -7.235862857142856 -5.982514285714285 -12.765154285714285 -12.934251428571427 -12.765154285714285Z" clip-rule="evenodd" stroke-width="3.4286"></path>
  </g>
</svg>