<svg xmlns="http://www.w3.org/2000/svg" fill="none" viewBox="0 0 48 48" id="Lipstick--Streamline-Core-Remix" height="48" width="48">
  <desc>
    Lipstick Streamline Icon: https://streamlinehq.com
  </desc>
  <g id="Free Remix/Money Shopping/lipstick--fashion-beauty-lip-lipstick-makeup-shopping">
    <path id="Union" fill="#000000" fill-rule="evenodd" d="M40.39919999999999 0.6106937142857143c0.912 -0.252384 1.886742857142857 -0.2521474285714285 2.7935999999999996 0.06171771428571428 0.9143999999999999 0.31091657142857143 1.6885714285714284 0.9171017142857143 2.2004571428571427 1.743264 0.5105142857142857 0.8234674285714285 0.7103999999999999 1.782918857142857 0.6329142857142857 2.7310559999999997l-0.0006857142857142857 0.008365714285714285 -0.5876571428571428 6.794331428571429c-0.05142857142857142 0.62976 -0.22388571428571427 1.2454971428571426 -0.4954285714285714 1.8161142857142853 -0.27188571428571423 0.5722285714285714 -0.6425142857142857 1.096902857142857 -1.0882285714285713 1.548617142857143l-0.016114285714285713 0.016354285714285714 -0.00034285714285714285 -0.00010285714285714286 -5.854285714285714 5.774228571428571c0.3504 0.3940114285714285 0.5441142857142857 0.9048 0.5413714285714286 1.4349257142857141 -0.002742857142857143 0.5702742857142857 -0.2328 1.1158971428571427 -0.6390857142857143 1.5160457142857142L30.511200000000002 31.316914285714283c0.4174628571428571 0.6610628571428572 0.3392571428571428 1.5451885714285714 -0.23465142857142857 2.122662857142857L17.71861714285714 46.075199999999995l-0.0035999999999999995 0.0037714285714285714c-0.9545828571428571 0.9548571428571428 -2.2481142857142853 1.492457142857143 -3.5986628571428567 1.492457142857143 -1.3505142857142856 0 -2.64408 -0.5376 -3.5986628571428567 -1.492457142857143l-0.0035999999999999995 -0.0037714285714285714 -7.074411428571428 -7.1180571428571415 -0.0035657142857142853 -0.0037714285714285714c-0.9485417142857143 -0.9600000000000001 -1.4790822857142856 -2.256685714285714 -1.4790822857142856 -3.6058285714285714 0 -1.3493485714285713 0.5305405714285714 -2.6458971428571427 1.4790822857142856 -3.606l0.0035657142857142853 -0.003634285714285714 12.557931428571427 -12.635657142857141c0.32177142857142854 -0.3237942857142857 0.7594285714285713 -0.5058514285714285 1.2159085714285713 -0.5058514285714285 0.39164571428571426 0 0.76944 0.1339885714285714 1.07208 0.37655999999999995l7.261611428571428 -7.312868571428571c0.40199999999999997 -0.40484571428571425 0.9488228571428571 -0.63264 1.5193371428571427 -0.6329828571428572 0.5240228571428571 -0.00027428571428571427 1.0282971428571428 0.19138285714285713 1.41888 0.5359885714285714L37.97074285714285 2.039424l0.005485714285714286 -0.005506285714285714c0.6730285714285714 -0.6696068571428572 1.5096 -1.1704422857142855 2.4229714285714286 -1.423224ZM27.06949714285714 16.209394285714286 21.616491428571425 21.700902857142857l6.208217142857142 6.246651428571428L33.34354285714285 22.51337142857143 27.06949714285714 16.209394285714286Z" clip-rule="evenodd" stroke-width="3.4286"></path>
  </g>
</svg>