<svg xmlns="http://www.w3.org/2000/svg" fill="none" viewBox="0 0 48 48" id="Live-Video--Streamline-Core-Remix" height="48" width="48">
  <desc>
    Live Video Streamline Icon: https://streamlinehq.com
  </desc>
  <g id="Free Remix/Interface Essential/live-video">
    <path id="Union" fill="#000000" fill-rule="evenodd" d="M21.757474285714284 0.10531988571428572c0.7392685714285714 -0.0686184 1.4876914285714284 -0.10364577942857142 2.243725714285714 -0.10364577942857142C37.25554285714285 0.0016741062857142856 48 10.746377142857142 48 24.00061714285714c0 13.25424 -10.744457142857142 23.999039999999997 -23.9988 23.999039999999997 -8.770731428571427 0 -16.440068571428572 -4.7063999999999995 -20.624232 -11.720914285714285 -0.6062674285714286 -1.0165714285714285 -0.2737988571428571 -2.3318399999999997 0.7425977142857143 -2.93808 1.016365714285714 -0.6062742857142857 2.3318057142857143 -0.27380571428571426 2.938045714285714 0.7425599999999999C10.500685714285714 39.85542857142857 16.80144 43.713942857142854 24.001199999999997 43.713942857142854c10.887257142857143 0 19.713085714285715 -8.82582857142857 19.713085714285715 -19.713325714285713 0 -10.887325714285714 -8.82582857142857 -19.713222857142856 -19.713085714285715 -19.713222857142856 -0.6235885714285714 0 -1.2398399999999998 0.028868571428571427 -1.8475885714285714 0.08530285714285714 -1.1784 0.10937142857142856 -2.2223657142857145 -0.7572342857142856 -2.3317371428571425 -1.9356377142857142 -0.10940571428571429 -1.1784 0.7571999999999999 -2.222356457142857 1.9356 -2.331739542857143ZM20.922479999999997 14.822777142857143c-2.2624114285714283 -1.160022857142857 -5.446662857142857 0.22817142857142855 -5.446662857142857 3.1276114285714285v12.09822857142857c0 2.8994742857142857 3.1842514285714283 4.287497142857143 5.446662857142857 3.1276114285714285l11.797474285714284 -6.049131428571428c2.6046171428571427 -1.3355314285714284 2.6046171428571427 -4.919622857142857 0 -6.255188571428571L20.922479999999997 14.822777142857143ZM14.06365714285714 6.97326857142857c1.0215085714285712 -0.5975657142857143 1.365222857142857 -1.9100914285714286 0.7676571428571428 -2.9315999999999995 -0.5975657142857143 -1.0215394285714285 -1.9100914285714286 -1.365233142857143 -2.9315999999999995 -0.7676777142857142 -2.4141942857142857 1.412214857142857 -4.567611428571428 3.236934857142857 -6.356879999999999 5.386614857142857 -0.7570971428571428 0.9095999999999999 -0.6334971428571428 2.2607314285714284 0.27610285714285715 3.0178285714285713 0.9095999999999999 0.7571314285714286 2.2607657142857143 0.6334971428571428 3.017862857142857 -0.27610285714285715 1.4710285714285714 -1.7673257142857142 3.2420571428571425 -3.268045714285714 5.226857142857143 -4.429062857142856Zm-9.130354285714285 12.012342857142857c0.29948571428571424 -1.1449371428571429 -0.3858857142857143 -2.3158971428571427 -1.5308125714285714 -2.615417142857143 -1.1449405714285714 -0.29948571428571424 -2.315893714285714 0.3858857142857143 -2.615396571428571 1.530822857142857 -0.3480857142857143 1.3306628571428571 -0.585832457142857 2.7083314285714284 -0.7027272 4.123131428571428 -0.11689436571428571 1.4148342857142857 -0.10847639999999999 2.8127999999999997 0.016496571428571426 4.182582857142856 0.1075296 1.1785714285714286 1.1501197714285714 2.0468228571428573 2.3286911999999997 1.9392685714285713 1.1785714285714286 -0.10751999999999999 2.0468228571428573 -1.1501142857142856 1.939302857142857 -2.3286857142857142 -0.10254857142857142 -1.1239542857142857 -0.10971428571428571 -2.2735885714285713 -0.013337142857142856 -3.440262857142857 0.09641142857142856 -1.1666742857142858 0.29214857142857137 -2.299542857142857 0.5777828571428572 -3.39144Z" clip-rule="evenodd" stroke-width="3.4286"></path>
  </g>
</svg>