<svg xmlns="http://www.w3.org/2000/svg" fill="none" viewBox="0 0 48 48" id="Location-Compass-1--Streamline-Core-Remix" height="48" width="48">
  <desc>
    Location Compass 1 Streamline Icon: https://streamlinehq.com
  </desc>
  <g id="Free Remix/Map Travel/location-compass-1--arrow-compass-location-gps-map-maps-point">
    <path id="Union" fill="#000000" fill-rule="evenodd" d="M4.285714285714286 24c0 -10.887908571428571 8.826377142857142 -19.71428571428571 19.71428571428571 -19.71428571428571 10.887771428571428 0 19.71428571428571 8.826377142857142 19.71428571428571 19.71428571428571 0 10.887771428571428 -8.826514285714284 19.71428571428571 -19.71428571428571 19.71428571428571 -10.887908571428571 0 -19.71428571428571 -8.826514285714284 -19.71428571428571 -19.71428571428571ZM24 0C10.745177142857143 0 0 10.745177142857143 0 24c0 13.254857142857142 10.745177142857143 24 24 24 13.254857142857142 0 24 -10.745142857142856 24 -24 0 -13.254822857142857 -10.745142857142856 -24 -24 -24Zm9.783599999999998 14.216399999999998c0.45915428571428574 0.45912 0.6193714285714286 1.1382857142857143 0.4141371428571428 1.7542628571428571l-6.857142857142857 20.571394285714288c-0.2117142857142857 0.6353142857142856 -0.7737599999999999 1.0889142857142857 -1.4392457142857142 1.161942857142857 -0.6654857142857142 0.07302857142857143 -1.3125942857142856 -0.2478857142857143 -1.6570628571428572 -0.8221714285714286L19.321954285714288 28.678045714285716 11.118 23.755714285714284c-0.57408 -0.3444685714285714 -0.8950971428571429 -0.9915771428571429 -0.8220342857142857 -1.6570628571428572 0.07302857142857143 -0.6654857142857142 0.5268 -1.2275314285714285 1.161942857142857 -1.4392457142857142l20.57142857142857 -6.857142857142857c0.6159771428571428 -0.20533714285714283 1.295142857142857 -0.04501714285714285 1.7542628571428571 0.4141371428571428Z" clip-rule="evenodd" stroke-width="3.4286"></path>
  </g>
</svg>