<svg xmlns="http://www.w3.org/2000/svg" fill="none" viewBox="0 0 48 48" id="Local-Storage-Folder--Streamline-Core-Remix" height="48" width="48">
  <desc>
    Local Storage Folder Streamline Icon: https://streamlinehq.com
  </desc>
  <g id="Free Remix/Computer Devices/local-storage-folder">
    <path id="Union" fill="#000000" fill-rule="evenodd" d="M33.065931428571425 0.0006330788571428572C33.78774857142857 -0.013712194285714286 34.49348571428572 0.21609599999999998 35.0688 0.6532834285714285c0.5831999999999999 0.4431771428571429 0.9970285714285714 1.0727142857142857 1.1722285714285714 1.7838102857142857 0.012342857142857142 0.049313142857142854 0.022285714285714284 0.09914057142857143 0.03017142857142857 0.14933485714285713l0.19302857142857144 1.2526114285714285h8.330742857142857c0.8502857142857142 0 1.6652571428571428 0.33764571428571427 2.2662857142857145 0.9386742857142858 0.6010285714285715 0.6010628571428571 0.9387428571428571 1.41624 0.9387428571428571 2.2662171428571427v11.179714285714285c0 1.770034285714286 -1.4348571428571426 3.204925714285714 -3.205028571428571 3.204925714285714H26.72862857142857c-0.8500114285714285 0 -1.6651885714285712 -0.33764571428571427 -2.2662171428571427 -0.9387085714285713 -0.6010285714285715 -0.6010285714285715 -0.9387085714285713 -1.416205714285714 -0.9387085714285713 -2.2662171428571427V3.2055462857142856c0 -0.8499942857142857 0.33768 -1.6651782857142856 0.9387085714285713 -2.2662171428571427 0.6010285714285715 -0.6010364571428571 1.41624 -0.9386960639999999 2.2662171428571427 -0.9386960639999999h6.3373028571428565ZM44.14285714285714 39.42857142857142H30.13206857142857l1.7142857142857142 4.285714285714286H34.285714285714285c1.183542857142857 0 2.142857142857143 0.9593142857142857 2.142857142857143 2.142857142857143S35.46925714285714 48 34.285714285714285 48H13.714285714285714c-1.1834742857142857 0 -2.142857142857143 -0.9593142857142857 -2.142857142857143 -2.142857142857143s0.9593828571428571 -2.142857142857143 2.142857142857143 -2.142857142857143h2.4393599999999998l1.7142857142857142 -4.285714285714286H3.8571428571428568C1.726902857142857 39.42857142857142 0 37.7016 0 35.57142857142857v-25.71428571428571C0 7.726902857142857 1.726902857142857 6 3.8571428571428568 6H17.142857142857142c1.1834742857142857 0 2.142857142857143 0.9593828571428571 2.142857142857143 2.142857142857143S18.32633142857143 10.285714285714285 17.142857142857142 10.285714285714285H4.285714285714286v24.857142857142854h39.42857142857142V27.857142857142854c0 -1.1834742857142857 0.9593142857142857 -2.142857142857143 2.142857142857143 -2.142857142857143s2.142857142857143 0.9593828571428571 2.142857142857143 2.142857142857143v7.7142857142857135c0 2.1301714285714284 -1.7269714285714286 3.8571428571428568 -3.8571428571428568 3.8571428571428568Z" clip-rule="evenodd" stroke-width="3.4286"></path>
  </g>
</svg>