<svg xmlns="http://www.w3.org/2000/svg" fill="none" viewBox="0 0 48 48" id="Location-Target-1--Streamline-Core-Remix" height="48" width="48">
  <desc>
    Location Target 1 Streamline Icon: https://streamlinehq.com
  </desc>
  <g id="Free Remix/Map Travel/location-target-1--navigation-location-map-services-maps-gps-target">
    <path id="Union" fill="#000000" fill-rule="evenodd" d="M24 0c1.1834742857142857 0 2.142857142857143 0.9593897142857143 2.142857142857143 2.142857142857143v4.415074285714286c7.991382857142857 0.971622857142857 14.327657142857142 7.307828571428571 15.299314285714285 15.299211428571429h4.4149714285714285c1.183542857142857 0 2.142857142857143 0.9593828571428571 2.142857142857143 2.142857142857143s-0.9593142857142857 2.142857142857143 -2.142857142857143 2.142857142857143h-4.4149714285714285c-0.9716571428571428 7.991382857142857 -7.307931428571427 14.327657142857142 -15.299314285714285 15.299314285714285v4.4149714285714285c0 1.183542857142857 -0.9593828571428571 2.142857142857143 -2.142857142857143 2.142857142857143s-2.142857142857143 -0.9593142857142857 -2.142857142857143 -2.142857142857143v-4.4149714285714285c-7.991382857142857 -0.9716571428571428 -14.327588571428572 -7.307931428571427 -15.299211428571429 -15.299314285714285H2.142857142857143C0.9593897142857143 26.142857142857142 0 25.183474285714283 0 24s0.9593897142857143 -2.142857142857143 2.142857142857143 -2.142857142857143h4.415074285714286C7.529554285714285 13.865759999999998 13.865759999999998 7.529554285714285 21.857142857142858 6.557931428571428V2.142857142857143C21.857142857142858 0.9593897142857143 22.816525714285714 0 24 0ZM10.714285714285714 24c0 7.337485714285713 5.948228571428571 13.285714285714285 13.285714285714285 13.285714285714285S37.285714285714285 31.337485714285712 37.285714285714285 24 31.337485714285712 10.714285714285714 24 10.714285714285714 10.714285714285714 16.662514285714284 10.714285714285714 24ZM19.71428571428571 24c0 -2.3669485714285714 1.9187657142857142 -4.285714285714286 4.285714285714286 -4.285714285714286S28.285714285714285 21.633051428571427 28.285714285714285 24 26.36694857142857 28.285714285714285 24 28.285714285714285 19.71428571428571 26.36694857142857 19.71428571428571 24Z" clip-rule="evenodd" stroke-width="3.4286"></path>
  </g>
</svg>