<svg xmlns="http://www.w3.org/2000/svg" fill="none" viewBox="0 0 48 48" id="Location-Pin-3--Streamline-Core-Remix" height="48" width="48">
  <desc>
    Location Pin 3 Streamline Icon: https://streamlinehq.com
  </desc>
  <g id="Free Remix/Map Travel/location-pin-3--navigation-map-maps-pin-gps-location">
    <path id="Union" fill="#000000" fill-rule="evenodd" d="M24 4.285714285714286c-7.337485714285713 0 -13.285714285714285 5.948228571428571 -13.285714285714285 13.285714285714285 0 4.4248457142857145 2.332182857142857 8.396125714285713 5.25864 11.613565714285714 2.905817142857143 3.194742857142857 6.183154285714285 5.406548571428571 7.575462857142856 6.2743199999999995 0.10049142857142856 0.0624 0.24504 0.11211428571428571 0.45161142857142855 0.11211428571428571s0.35112 -0.04971428571428571 0.45161142857142855 -0.11211428571428571c1.3923085714285715 -0.8677714285714285 4.669645714285714 -3.0795771428571426 7.575462857142856 -6.2743199999999995C34.9536 25.967554285714286 37.285714285714285 21.996274285714286 37.285714285714285 17.57142857142857 37.285714285714285 10.233942857142857 31.337485714285712 4.285714285714286 24 4.285714285714286ZM6.428571428571428 17.57142857142857C6.428571428571428 7.866994285714285 14.295565714285711 0 24 0s17.57142857142857 7.866994285714285 17.57142857142857 17.57142857142857c0 5.951759999999999 -3.1155428571428567 10.914994285714284 -6.374057142857143 14.49726857142857 -3.2788114285714283 3.604902857142857 -6.923211428571428 6.058045714285713 -8.478925714285714 7.027645714285713 -0.8534742857142857 0.5321142857142857 -1.8009257142857142 0.7607999999999999 -2.718445714285714 0.7607999999999999s-1.8649714285714287 -0.22868571428571427 -2.718445714285714 -0.7607999999999999c-1.5557142857142856 -0.9695999999999999 -5.200114285714285 -3.4227428571428566 -8.479062857142855 -7.027645714285713C9.544182857142857 28.48642285714286 6.428571428571428 23.52318857142857 6.428571428571428 17.57142857142857Zm1.4285485714285713 14.571428571428571c0.6869485714285715 0.9127885714285715 1.3945371428571427 1.754365714285714 2.091977142857143 2.521028571428571 3.614742857142857 3.9743999999999997 7.58952 6.644571428571428 9.292319999999998 7.706057142857142 1.5311314285714284 0.9541714285714284 3.2011885714285713 1.344342857142857 4.758582857142857 1.344342857142857 1.5573942857142855 0 3.2274514285714284 -0.39017142857142856 4.758582857142857 -1.344342857142857 1.7027999999999999 -1.0614857142857141 5.677645714285714 -3.731657142857143 9.292388571428571 -7.706057142857142 0.6973714285714285 -0.7666628571428571 1.4050285714285713 -1.60824 2.091771428571428 -2.521028571428571h1.8572571428571427c0.9222857142857143 0 1.7413714285714286 0.5901942857142857 2.0328 1.4652342857142857l3.8571428571428568 11.571565714285713c0.21805714285714287 0.6534857142857142 0.10834285714285714 1.3717714285714286 -0.29451428571428573 1.930285714285714 -0.4025142857142857 0.5588571428571428 -1.0494857142857141 0.8900571428571428 -1.7382857142857142 0.8900571428571428H2.1428742857142855c-0.6888102857142857 0 -1.335624 -0.3312 -1.7383782857142855 -0.8900571428571428 -0.40275206399999997 -0.5585142857142856 -0.5123358857142857 -1.2768 -0.294516 -1.930285714285714L3.9671314285714288 33.60809142857143c0.29166857142857144 -0.8750399999999999 1.1105485714285712 -1.4652342857142857 2.0328685714285712 -1.4652342857142857h1.85712ZM24 22.285714285714285c3.3137142857142856 0 6 -2.686285714285714 6 -6S27.313714285714283 10.285714285714285 24 10.285714285714285s-6 2.686285714285714 -6 6S20.686285714285713 22.285714285714285 24 22.285714285714285Z" clip-rule="evenodd" stroke-width="3.4286"></path>
  </g>
</svg>