<svg xmlns="http://www.w3.org/2000/svg" fill="none" viewBox="0 0 48 48" id="Location-Pin-Disabled--Streamline-Core-Remix" height="48" width="48">
  <desc>
    Location Pin Disabled Streamline Icon: https://streamlinehq.com
  </desc>
  <g id="Free Remix/Map Travel/location-pin-disabled--navigation-map-maps-pin-gps-location-disabled-off">
    <path id="Union" fill="#000000" fill-rule="evenodd" d="M0.6359965714285714 3.666445714285714 7.809771428571428 10.840217142857142l0.021291428571428572 0.021599999999999998 26.505051428571427 26.505154285714283 0.021257142857142856 0.020914285714285715 9.975771428571429 9.975771428571429c0.8369142857142857 0.8369142857142857 2.1936 0.8369142857142857 3.0305142857142857 0 0.8369142857142857 -0.8369142857142857 0.8369142857142857 -2.1936 0 -3.0305142857142857l-8.643085714285714 -8.643085714285714c3.1957714285714287 -4.197188571428572 5.919085714285714 -9.405188571428571 5.919085714285714 -15.053142857142857 0 -11.399314285714286 -9.24102857142857 -20.64026249828571 -20.640205714285713 -20.64026249828571 -5.785028571428571 0 -11.014525714285714 2.3817722125714287 -14.759897142857142 6.212456784L3.666445714285714 0.636c-0.8368251428571428 -0.8368388571428571 -2.1936102857142856 -0.8368388571428571 -3.030449142857143 0 -0.8368347428571429 0.8368354285714285 -0.8368347428571429 2.1936171428571427 0 3.030445714285714ZM30.856765714285714 18.857142857142858c0 2.434182857142857 -1.2683314285714284 4.572102857142857 -3.180171428571428 5.788971428571428l-9.465942857142856 -9.465942857142856C19.427519999999998 13.268331428571429 21.56544 12 23.999622857142853 12c3.7870971428571427 0 6.857142857142857 3.070045714285714 6.857142857142857 6.857142857142857Zm-22.920411428571427 -1.3119085714285712c0.22224 -1.1624228571428572 -0.5399314285714286 -2.284902857142857 -1.7023542857142857 -2.5071085714285712 -1.1624228571428572 -0.22224 -2.284902857142857 0.5399657142857143 -2.5071085714285712 1.7023542857142857 -0.24154285714285711 1.2634285714285713 -0.3676525714285714 2.566217142857143 -0.3676525714285714 3.8964342857142857 0 6.718354285714285 3.853104 12.820868571428571 7.796064 17.3544 3.992742857142857 4.590514285714286 8.385668571428571 7.9230857142857145 10.071942857142856 9.133371428571428 0.8372914285714286 0.6010285714285715 1.81104 0.878742857142857 2.77224 0.878742857142857 0.9674742857142856 0 1.9457485714285712 -0.2852571428571428 2.778342857142857 -0.8832 0.9667199999999999 -0.6939428571428571 2.7888685714285715 -2.0612571428571425 4.908102857142857 -3.944914285714286 0.8845714285714286 -0.7861714285714285 0.9642857142857142 -2.1407999999999996 0.17808 -3.0253714285714284 -0.7862399999999999 -0.8845714285714286 -2.140662857142857 -0.9641142857142857 -3.0252342857142858 -0.17794285714285715 -1.982365714285714 1.761942857142857 -3.6824914285714283 3.0366857142857144 -4.5605142857142855 3.6668571428571424 -0.058045714285714284 0.04182857142857143 -0.14975999999999998 0.07885714285714285 -0.27877714285714283 0.07885714285714285 -0.13525714285714285 0 -0.21973714285714283 -0.03634285714285714 -0.2732571428571428 -0.07474285714285714 -1.5596914285714285 -1.1194285714285714 -5.654091428571428 -4.2294857142857145 -9.3372 -8.464114285714286 -3.732857142857143 -4.292022857142857 -6.744068571428571 -9.398022857142855 -6.744068571428571 -14.541942857142855 0 -1.0588114285714285 0.10031999999999999 -2.0921485714285715 0.29139428571428566 -3.0916799999999998Z" clip-rule="evenodd" stroke-width="3.4286"></path>
  </g>
</svg>