<svg xmlns="http://www.w3.org/2000/svg" fill="none" viewBox="0 0 48 48" id="Lock-Rotation--Streamline-Core-Remix" height="48" width="48">
  <desc>
    Lock Rotation Streamline Icon: https://streamlinehq.com
  </desc>
  <g id="Free Remix/Interface Essential/lock-rotation">
    <path id="Union" fill="#000000" fill-rule="evenodd" d="M23.998662857142854 4.283211428571429c-10.88904 0 -19.71630857142857 8.8272 -19.71630857142857 19.71606857142857 0 10.888834285714285 8.82726857142857 19.716034285714287 19.71630857142857 19.716034285714287 9.320262857142856 0 17.134937142857144 -6.469028571428571 19.188651428571426 -15.164297142857144 0.27222857142857143 -1.15176 1.4262857142857142 -1.8649028571428572 2.5782857142857143 -1.5928457142857142 1.1516571428571427 0.27209142857142854 1.8648 1.4263199999999998 1.5929142857142857 2.578114285714286 -2.5008 10.585542857142856 -12.007542857142857 18.464742857142856 -23.359851428571428 18.464742857142856 -13.25592 0 -24.002011069714282 -10.74582857142857 -24.002011069714282 -24.00174857142857C-0.0033482125714285713 10.743428571428572 10.742742857142858 -0.002511161142857143 23.998662857142854 -0.002511161142857143c7.360902857142856 0 13.945337142857142 3.313191161142857 18.34693714285714 8.526282589714285l1.997142857142857 -1.997142857142857c0.6126857142857143 -0.6128571428571428 1.5346285714285712 -0.7961828571428571 2.3352 -0.4645028571428571 0.8005714285714286 0.33164571428571427 1.322742857142857 1.1130171428571427 1.322742857142857 1.9797257142857143v7.550125714285714c0 1.1834742857142857 -0.9593142857142857 2.142857142857143 -2.142857142857143 2.142857142857143h-1.6254857142857142c-0.01577142857142857 0.00037714285714285714 -0.03154285714285714 0.0005485714285714285 -0.04731428571428571 0.0005828571428571429 -0.0168 0 -0.03394285714285714 -0.00017142857142857143 -0.050742857142857145 -0.0005828571428571429h-5.8265142857142855c-0.8667428571428571 0 -1.6481142857142856 -0.5220685714285713 -1.98 -1.3228114285714285 -0.3315428571428571 -0.8007428571428571 -0.14811428571428573 -1.7224114285714285 0.4645714285714286 -2.3352685714285712l2.5100571428571428 -2.50992c-3.6164571428571426 -4.445862857142857 -9.13008 -7.2836228571428565 -15.303737142857141 -7.2836228571428565ZM23.999177142857143 16.71428571428571c-1.6568571428571428 0 -3 1.343142857142857 -3 3v1.7142857142857142h6v-1.7142857142857142c0 -1.6568571428571428 -1.343142857142857 -3 -3 -3Zm-7.285714285714286 3v1.9635085714285714c-1.256502857142857 0.5086285714285714 -2.142857142857143 1.7404799999999998 -2.142857142857143 3.179348571428571v6.857142857142857c0 1.8935314285714284 1.535005714285714 3.4285714285714284 3.4285714285714284 3.4285714285714284h12c1.8935314285714284 0 3.4285714285714284 -1.53504 3.4285714285714284 -3.4285714285714284v-6.857142857142857c0 -1.4388685714285714 -0.8863885714285713 -2.6707199999999998 -2.142857142857143 -3.179348571428571V19.71428571428571c0 -4.023771428571428 -3.261942857142857 -7.285714285714286 -7.285714285714286 -7.285714285714286 -4.023805714285714 0 -7.285714285714286 3.261942857142857 -7.285714285714286 7.285714285714286Z" clip-rule="evenodd" stroke-width="3.4286"></path>
  </g>
</svg>