<svg xmlns="http://www.w3.org/2000/svg" fill="none" viewBox="0 0 48 48" id="Log--Streamline-Core-Remix" height="48" width="48">
  <desc>
    Log Streamline Icon: https://streamlinehq.com
  </desc>
  <g id="Free Remix/Nature Ecology/log--nature-tree-plant-circle-round-log">
    <path id="Union" fill="#000000" fill-rule="evenodd" d="M20.54989714285714 3.4501028571428574c-1.1715771428571429 -1.171566857142857 -3.0710742857142854 -1.171566857142857 -4.2426514285714285 0 -1.1715771428571429 1.1715771428571429 -1.1715771428571429 3.0710742857142854 0 4.2426514285714285L18.90020571428571 10.285714285714285H9.857142857142856c-0.35979428571428573 0 -0.69888 0.08866285714285714 -0.9966171428571428 0.24534857142857142 -2.612502857142857 0.7056685714285714 -4.678388571428571 2.8522285714285713 -6.080348571428571 5.37576C1.021014857142857 19.073314285714282 0 23.302594285714285 0 27.857142857142854c0 4.554548571428572 1.021014857142857 8.783657142857143 2.7801771428571427 11.950285714285714 1.40196 2.523428571428571 3.467845714285714 4.670057142857143 6.080348571428571 5.3756571428571425 0.29773714285714287 0.15668571428571426 0.636822857142857 0.24548571428571425 0.9966171428571428 0.24548571428571425h27.428571428571427c3.4985142857142852 0 6.215314285714285 -2.5271999999999997 7.934057142857142 -5.621142857142857 1.7591999999999999 -3.1666285714285713 2.7802285714285713 -7.3957371428571435 2.7802285714285713 -11.950285714285714 0 -4.554548571428572 -1.0210285714285714 -8.78382857142857 -2.7802285714285713 -11.95032C43.50102857142857 12.81294857142857 40.78422857142857 10.285714285714285 37.285714285714285 10.285714285714285H27.38550857142857L20.54989714285714 3.4501028571428574Zm-1.9014857142857142 36.357325714285714c-0.25546285714285716 0.45977142857142855 -0.5329371428571428 0.9072 -0.8317371428571428 1.3354285714285714H37.285714285714285c1.2353142857142856 0 2.8042285714285713 -0.9267428571428571 4.187657142857143 -3.4165714285714284 1.3433142857142857 -2.4178285714285717 2.2409142857142856 -5.902731428571428 2.2409142857142856 -9.869142857142856 0 -0.7318971428571428 -0.030514285714285713 -1.4474057142857142 -0.08879999999999999 -2.142857142857143H28.71428571428571c-1.1834742857142857 0 -2.142857142857143 -0.9593828571428571 -2.142857142857143 -2.142857142857143s0.9593828571428571 -2.142857142857143 2.142857142857143 -2.142857142857143h14.146628571428572c-0.36857142857142855 -1.2971314285714286 -0.8410285714285713 -2.4570857142857143 -1.3875428571428572 -3.4403999999999995 -1.3834285714285715 -2.4901714285714283 -2.952342857142857 -3.4167428571428573 -4.187657142857143 -3.4167428571428573H17.816674285714285c0.2988 0.42833142857142853 0.5762742857142857 0.8756228571428571 0.8317371428571428 1.3353942857142858 1.7591314285714283 3.1664914285714287 2.78016 7.395771428571427 2.78016 11.95032 0 1.3189714285714285 -0.08561142857142856 2.6106514285714284 -0.25001142857142855 3.8571428571428568H26.57142857142857c1.1834399999999998 0 2.142857142857143 0.9593828571428571 2.142857142857143 2.142857142857143 0 1.183542857142857 -0.9594171428571429 2.142857142857143 -2.142857142857143 2.142857142857143H20.250857142857143c-0.42922285714285713 1.3844571428571428 -0.9678171428571427 2.665028571428571 -1.6024457142857143 3.8074285714285714Z" clip-rule="evenodd" stroke-width="3.4286"></path>
  </g>
</svg>