<svg xmlns="http://www.w3.org/2000/svg" fill="none" viewBox="0 0 48 48" id="Login-1--Streamline-Core-Remix" height="48" width="48">
  <desc>
    Login 1 Streamline Icon: https://streamlinehq.com
  </desc>
  <g id="Free Remix/Interface Essential/login-1--arrow-enter-frame-left-login-point-rectangle">
    <path id="Union" fill="#000000" fill-rule="evenodd" d="M8.571428571428571 4.283211428571429c-0.3542057142857143 0 -0.6857828571428571 0.13841142857142857 -0.923862857142857 0.3719314285714285 -0.23667428571428567 0.2321142857142857 -0.36185142857142855 0.5380457142857142 -0.36185142857142855 0.8481257142857143V42.49542857142857c0 0.30994285714285713 0.12517714285714285 0.6157714285714285 0.36185142857142855 0.8478857142857142 0.23807999999999999 0.23348571428571424 0.5696571428571428 0.372 0.923862857142857 0.372h24c0.3542057142857143 0 0.6857828571428571 -0.1385142857142857 0.923862857142857 -0.372 0.23667428571428567 -0.2321142857142857 0.36185142857142855 -0.5379428571428572 0.36185142857142855 -0.8478857142857142v-6.725828571428571c0 -1.183542857142857 0.9593142857142857 -2.142994285714286 2.142857142857143 -2.142994285714286s2.142857142857143 0.9594514285714284 2.142857142857143 2.142994285714286v6.725828571428571c0 1.4736 -0.5972571428571428 2.878285714285714 -1.6463999999999999 3.9075428571428565 -1.0481142857142858 1.0278857142857143 -2.4606171428571426 1.5980571428571428 -3.9250285714285713 1.5980571428571428h-24c-1.4644114285714285 0 -2.876982857142857 -0.5701714285714286 -3.9248914285714283 -1.5980571428571428C3.5972571428571425 45.373714285714286 3 43.96902857142857 3 42.49542857142857V5.503268571428571c0 -1.4737371428571429 0.5972571428571428 -2.8785565714285712 1.6465371428571427 -3.907755428571428C5.694445714285714 0.5676925714285714 7.107017142857143 -0.002511161142857143 8.571428571428571 -0.002511161142857143h24c1.4644114285714285 0 2.8769142857142853 0.5702037325714285 3.9250285714285713 1.598024304 1.0491428571428572 1.029198857142857 1.6463999999999999 2.4340182857142856 1.6463999999999999 3.907755428571428v6.725828571428571c0 1.1834399999999998 -0.9593142857142857 2.142857142857143 -2.142857142857143 2.142857142857143s-2.142857142857143 -0.9594171428571429 -2.142857142857143 -2.142857142857143v-6.725828571428571c0 -0.31008 -0.12517714285714285 -0.6160114285714285 -0.36185142857142855 -0.8481257142857143 -0.23807999999999999 -0.23352 -0.5696571428571428 -0.3719314285714285 -0.923862857142857 -0.3719314285714285h-24ZM27.857142857142854 21.857142857142858V17.142857142857142c0 -0.8667085714285714 -0.5221028571428571 -1.64808 -1.3228114285714285 -1.9797257142857143 -0.8007428571428571 -0.33168000000000003 -1.7224114285714285 -0.14835428571428572 -2.3352685714285712 0.4645028571428571L17.34270857142857 22.483988571428572l-0.0007885714285714285 0.0007885714285714285C16.92349714285714 22.9032 16.71428571428571 23.4516 16.71428571428571 24c0 0.2905371428571428 0.057839999999999996 0.5676 0.1625828571428571 0.8202514285714285 0.10457142857142857 0.25275428571428565 0.25961142857142855 0.4895314285714285 0.46505142857142856 0.6949714285714285l0.0005485714285714285 0.0005828571428571429 6.856594285714285 6.85656c0.6128571428571428 0.6128571428571428 1.5345257142857143 0.7961828571428571 2.3352685714285712 0.4645371428571428C27.33504 32.505222857142854 27.857142857142854 31.723851428571425 27.857142857142854 30.857142857142854V26.142857142857142H42.857142857142854c1.183542857142857 0 2.142857142857143 -0.9593828571428571 2.142857142857143 -2.142857142857143s-0.9593142857142857 -2.142857142857143 -2.142857142857143 -2.142857142857143H27.857142857142854Z" clip-rule="evenodd" stroke-width="3.4286"></path>
  </g>
</svg>