<svg xmlns="http://www.w3.org/2000/svg" fill="none" viewBox="0 0 48 48" id="Logout-1--Streamline-Core-Remix" height="48" width="48">
  <desc>
    Logout 1 Streamline Icon: https://streamlinehq.com
  </desc>
  <g id="Free Remix/Interface Essential/logout-1--arrow-exit-frame-leave-logout-rectangle-right">
    <path id="Union" fill="#000000" fill-rule="evenodd" d="M7.647565714285713 4.655142857142857c0.23807999999999999 -0.23352 0.5696571428571428 -0.3719314285714285 0.923862857142857 -0.3719314285714285h24c0.3542057142857143 0 0.6857828571428571 0.13841142857142857 0.923862857142857 0.3719314285714285 0.23667428571428567 0.2321142857142857 0.36185142857142855 0.5380457142857142 0.36185142857142855 0.8481257142857143v3.2972571428571427c0 1.1834399999999998 0.9593142857142857 2.142857142857143 2.142857142857143 2.142857142857143s2.142857142857143 -0.9594171428571429 2.142857142857143 -2.142857142857143v-3.2972571428571427c0 -1.4737371428571429 -0.5972571428571428 -2.8785565714285712 -1.6463999999999999 -3.907755428571428C35.448342857142855 0.5676925714285714 34.03584 -0.002511161142857143 32.57142857142857 -0.002511161142857143h-24c-1.4644114285714285 0 -2.876982857142857 0.5702037325714285 -3.9248914285714283 1.598024304C3.5972571428571425 2.624712 3 4.0295314285714285 3 5.503268571428571V42.49542857142857c0 1.4736 0.5972571428571428 2.878285714285714 1.6465371428571427 3.9075428571428565 1.0479085714285714 1.0278857142857143 2.4604799999999996 1.5980571428571428 3.9248914285714283 1.5980571428571428h24c1.4644114285714285 0 2.8769142857142853 -0.5701714285714286 3.9250285714285713 -1.5980571428571428 1.0491428571428572 -1.0292571428571429 1.6463999999999999 -2.4339428571428567 1.6463999999999999 -3.9075428571428565v-3.2972571428571427c0 -1.183542857142857 -0.9593142857142857 -2.142857142857143 -2.142857142857143 -2.142857142857143s-2.142857142857143 0.9593142857142857 -2.142857142857143 2.142857142857143v3.2972571428571427c0 0.30994285714285713 -0.12517714285714285 0.6157714285714285 -0.36185142857142855 0.8478857142857142 -0.23807999999999999 0.23348571428571424 -0.5696571428571428 0.372 -0.923862857142857 0.372h-24c-0.3542057142857143 0 -0.6857828571428571 -0.1385142857142857 -0.923862857142857 -0.372 -0.23667428571428567 -0.2321142857142857 -0.36185142857142855 -0.5379428571428572 -0.36185142857142855 -0.8478857142857142V5.503268571428571c0 -0.31008 0.12517714285714285 -0.6160114285714285 0.36185142857142855 -0.8481257142857143Zm27.53232 10.508022857142857c-0.8005714285714286 0.33168000000000003 -1.322742857142857 1.1130514285714284 -1.322742857142857 1.97976v4.714285714285714H18.857142857142858c-1.1834742857142857 0 -2.142857142857143 0.9593828571428571 -2.142857142857143 2.142857142857143s0.9593828571428571 2.142857142857143 2.142857142857143 2.142857142857143h15v4.714285714285714c0 0.8667085714285714 0.5221714285714285 1.64808 1.322742857142857 1.9797257142857143 0.8009142857142857 0.33168000000000003 1.7225142857142854 0.14835428571428572 2.3352 -0.4645028571428571l6.857142857142857 -6.857142857142857c0.8369142857142857 -0.8368457142857142 0.8369142857142857 -2.1936342857142854 0 -3.030445714285714l-6.857142857142857 -6.857142857142857c-0.6126857142857143 -0.6128571428571428 -1.5342857142857143 -0.7961828571428571 -2.3352 -0.4645371428571428Z" clip-rule="evenodd" stroke-width="3.4286"></path>
  </g>
</svg>