<svg xmlns="http://www.w3.org/2000/svg" fill="none" viewBox="0 0 48 48" id="Lost-And-Found--Streamline-Core-Remix" height="48" width="48">
  <desc>
    Lost And Found Streamline Icon: https://streamlinehq.com
  </desc>
  <g id="Free Remix/Map Travel/lost-and-found">
    <path id="Union" fill="#000000" fill-rule="evenodd" d="M19.285714285714285 11.142857142857142c0 -2.6036228571428572 2.110662857142857 -4.714285714285714 4.714285714285714 -4.714285714285714s4.714285714285714 2.110662857142857 4.714285714285714 4.714285714285714v0.42857142857142855h-9.428571428571429V11.142857142857142Zm-6 0.42857142857142855V11.142857142857142C13.285714285714285 5.22552 18.082662857142857 0.42857142857142855 24 0.42857142857142855s10.714285714285714 4.796948571428572 10.714285714285714 10.714285714285714v0.42857142857142855h4.285714285714286C43.9704 11.571428571428571 48 15.600857142857143 48 20.57142857142857v17.142857142857142c0 4.9704 -4.029599999999999 9 -9 9h-30C4.0294285714285705 46.71428571428571 0 42.68468571428571 0 37.714285714285715V20.57142857142857c0 -4.970571428571429 4.0294285714285705 -9 9 -9h4.285714285714286Zm-4.285714285714286 4.285714285714286c-2.6036228571428572 0 -4.714285714285714 2.110662857142857 -4.714285714285714 4.714285714285714v17.142857142857142c0 2.6036571428571427 2.110662857142857 4.714285714285714 4.714285714285714 4.714285714285714h30c2.6036571428571427 0 4.714285714285714 -2.1106285714285713 4.714285714285714 -4.714285714285714V20.57142857142857c0 -2.6036228571428572 -2.1106285714285713 -4.714285714285714 -4.714285714285714 -4.714285714285714h-30Zm15.585257142857142 6.057634285714285c-0.5819314285714285 -0.11574857142857142 -1.18512 -0.05633142857142857 -1.7333142857142858 0.1707428571428571 -0.54816 0.22704 -1.0167085714285715 0.6115542857142857 -1.3463657142857142 1.1049257142857143 -0.32962285714285716 0.4933371428571428 -0.5055771428571428 1.0733485714285713 -0.5055771428571428 1.6666971428571427 0 1.1834742857142857 -0.9593828571428571 2.142857142857143 -2.142857142857143 2.142857142857143s-2.142857142857143 -0.9593828571428571 -2.142857142857143 -2.142857142857143c0 -1.4409599999999998 0.42730285714285715 -2.8495885714285714 1.2278742857142857 -4.047737142857143 0.8005714285714286 -1.1981142857142857 1.9384114285714287 -2.131954285714286 3.2697257142857143 -2.6833714285714283 1.33128 -0.5514514285714286 2.796205714285714 -0.6957257142857142 4.209497142857143 -0.4146171428571428 1.4132914285714286 0.28114285714285714 2.7114857142857143 0.9750171428571429 3.7303885714285716 1.9939542857142858 1.0189371428571428 1.0189371428571428 1.7128457142857143 2.3170971428571425 1.9939542857142858 3.7303885714285716 0.2811085714285714 1.4132914285714286 0.1368342857142857 2.878217142857143 -0.4146171428571428 4.209497142857143 -0.5514171428571428 1.3313142857142857 -1.4852571428571426 2.4691885714285715 -2.6833714285714283 3.2697257142857143 -0.5916685714285714 0.3953485714285714 -1.234662857142857 0.6996685714285714 -1.9075199999999999 0.9064457142857143C26.0844 32.95512 25.147542857142856 33.857142857142854 24 33.857142857142854c-1.1834742857142857 0 -2.142857142857143 -0.9593828571428571 -2.142857142857143 -2.142857142857143v-1.7142857142857142c0 -1.1834742857142857 0.9593828571428571 -2.142857142857143 2.142857142857143 -2.142857142857143 0.5933485714285713 0 1.17336 -0.1759542857142857 1.6666971428571427 -0.5055771428571428 0.49337142857142857 -0.3296571428571428 0.8778857142857143 -0.7982057142857142 1.1049257142857143 -1.3463657142857142 0.2270742857142857 -0.5481942857142857 0.28649142857142856 -1.151382857142857 0.1707428571428571 -1.7333142857142858 -0.11574857142857142 -0.5819657142857143 -0.4014857142857142 -1.1165142857142856 -0.8210399999999999 -1.5360685714285713 -0.4195542857142857 -0.4195542857142857 -0.9541028571428571 -0.7052571428571428 -1.5360685714285713 -0.8210399999999999ZM21.006685714285712 37.714285714285715c0 1.6566857142857143 1.343142857142857 3 3 3s3 -1.3433142857142857 3 -3 -1.343142857142857 -3 -3 -3 -3 1.3433142857142857 -3 3Z" clip-rule="evenodd" stroke-width="3.4286"></path>
  </g>
</svg>