<svg xmlns="http://www.w3.org/2000/svg" fill="none" viewBox="0 0 48 48" id="Magic-Wand-2--Streamline-Core-Remix" height="48" width="48">
  <desc>
    Magic Wand 2 Streamline Icon: https://streamlinehq.com
  </desc>
  <g id="Free Remix/Interface Essential/magic-wand-2--design-magic-star-supplies-tool-wand">
    <path id="Union" fill="#000000" fill-rule="evenodd" d="m24.4452 5.067257142857143 5.831177142857142 4.359497142857142c0.01998857142857143 0.014914285714285713 0.04021714285714286 0.029519999999999998 0.06068571428571429 0.04374857142857143 0.4614514285714285 0.3204685714285714 0.9923657142857142 0.5268 1.5490971428571427 0.6020571428571428 0.5515885714285714 0.07453714285714284 1.1128799999999999 0.01827428571428571 1.6385828571428571 -0.16416l7.0290857142857135 -2.3808342857142857 -2.3461714285714286 6.9272914285714275c-0.1992 0.4507542857142857 -0.3024 0.9387085714285713 -0.3024 1.4327999999999999 0 0.5562857142857143 0.13097142857142854 1.1047542857142856 0.38194285714285714 1.6011771428571426 0.055885714285714275 0.11087999999999999 0.12171428571428569 0.2166857142857143 0.1961142857142857 0.3161828571428571l4.461942857142857 5.968354285714285h-7.477371428571428l-0.06274285714285714 0.0009257142857142857c-0.5403428571428571 0.015874285714285712 -1.0700571428571428 0.15253714285714284 -1.5502971428571428 0.4000114285714285 -0.4803771428571429 0.24747428571428567 -0.8992114285714286 0.5994514285714285 -1.2256799999999999 1.0300114285714286 -0.017828571428571426 0.023485714285714283 -0.03514285714285714 0.04734857142857142 -0.051977142857142854 0.07152l-4.104342857142857 5.903519999999999 -2.1995657142857143 -7.049897142857143c-0.1632342857142857 -0.54936 -0.46100571428571424 -1.0494514285714285 -0.8664342857142856 -1.4549142857142856 -0.40542857142857136 -0.40542857142857136 -0.90552 -0.7031657142857143 -1.454845714285714 -0.8664342857142856l-7.063097142857143 -2.20368 6.066 -4.280194285714286c0.02002285714285714 -0.014125714285714287 0.039805714285714285 -0.028594285714285714 0.05931428571428571 -0.043405714285714284 0.4305942857142857 -0.3265028571428571 0.7825371428571428 -0.7453371428571428 1.0300114285714286 -1.2257142857142855 0.24747428571428567 -0.4803771428571429 0.38417142857142855 -1.0100914285714284 0.4000457142857143 -1.5502285714285713l0.0009257142857142857 -0.06294857142857142V5.067257142857143Zm-8.829257142857143 15.435359999999998 -0.007611428571428572 0.005417142857142857 0 -0.00003428571428571428 0.007611428571428572 -0.005382857142857142Zm9.235062857142857 13.457554285714286c0.011417142857142857 0.036582857142857146 0.023725714285714284 0.07268571428571428 0.03689142857142857 0.10820571428571427 0.4236342857142857 1.21608 1.503942857142857 2.121222857142857 2.781462857142857 2.3193942857142855 1.3155771428571428 0.20365714285714284 2.658685714285714 -0.3706285714285714 3.420342857142857 -1.4622857142857142 0.014914285714285713 -0.021599999999999998 0.02938285714285714 -0.04285714285714286 0.043405714285714284 -0.0648l4.72872 -6.8016h8.568685714285714c1.3237714285714286 0.020502857142857142 2.571085714285714 -0.7250057142857143 3.1786285714285714 -1.9033028571428572 0.6123428571428572 -1.1876571428571427 0.48960000000000004 -2.6495314285714286 -0.3116571428571428 -3.7185942857142855l-0.0013714285714285714 -0.0016457142857142857 -5.001257142857143 -6.689382857142857 2.811085714285714 -8.299474285714284c0.43748571428571426 -1.261782857142857 0.10937142857142856 -2.6911542857142856 -0.8351999999999999 -3.635897142857143 -0.9449142857142857 -0.9447428571428571 -2.374285714285714 -1.2727062857142857 -3.6359999999999997 -0.8354742857142857l-8.141691428571429 2.7576342857142855L25.642559999999996 0.6114c-0.0672 -0.05023885714285714 -0.13727999999999999 -0.09648685714285714 -0.20989714285714284 -0.138504 -1.0582971428571428 -0.6123517714285714 -2.382308571428571 -0.6267212571428571 -3.453634285714285 -0.03748457142857143 -1.0713257142857142 0.5892377142857143 -1.768217142857143 1.7150845714285714 -1.8177942857142857 2.9367702857142857 -0.0011657142857142858 0.028947428571428572 -0.0017485714285714285 0.057932571428571424 -0.0017485714285714285 0.086904v8.59241142857143L13.150422857142857 16.997142857142855c-1.0880228571428572 0.7623771428571429 -1.6597714285714285 2.103017142857143 -1.45632 3.4161942857142855 0.20375999999999997 1.315062857142857 1.1567657142857144 2.4210857142857143 2.4271542857142854 2.8170514285714288l0.00034285714285714285 0.00010285714285714286 0.0011657142857142858 0.00037714285714285714 4.880742857142857 1.5228L0.8786742857142857 42.87874285714285c-1.1715696 1.171542857142857 -1.171565142857143 3.0709714285714287 0.00001028571428571428 4.242514285714286 1.1715771428571429 1.171542857142857 3.071064 1.171542857142857 4.242641142857142 0l18.167622857142856 -18.16776 1.5620571428571428 5.006674285714285Z" clip-rule="evenodd" stroke-width="3.4286"></path>
  </g>
</svg>