<svg xmlns="http://www.w3.org/2000/svg" fill="none" viewBox="0 0 48 48" id="Magnifying-Glass--Streamline-Core-Remix" height="48" width="48">
  <desc>
    Magnifying Glass Streamline Icon: https://streamlinehq.com
  </desc>
  <g id="Free Remix/Interface Essential/magnifying-glass--glass-search-magnifying">
    <path id="Union" fill="#000000" fill-rule="evenodd" d="M4.285714285714286 20.57142857142857c0 -8.994342857142856 7.291371428571429 -16.285714285714285 16.285714285714285 -16.285714285714285S36.857142857142854 11.577085714285714 36.857142857142854 20.57142857142857 29.565771428571427 36.857142857142854 20.57142857142857 36.857142857142854 4.285714285714286 29.565771428571427 4.285714285714286 20.57142857142857ZM20.57142857142857 0C9.210137142857143 0 0 9.210137142857143 0 20.57142857142857s9.210137142857143 20.57142857142857 20.57142857142857 20.57142857142857c4.130091428571428 0 7.975885714285713 -1.217142857142857 11.198297142857141 -3.312342857142857l8.91438857142857 8.91462857142857c1.673485714285714 1.673485714285714 4.3872 1.673485714285714 6.061028571428571 0 1.673485714285714 -1.6738285714285714 1.673485714285714 -4.387542857142857 0 -6.061028571428571l-8.91462857142857 -8.91438857142857C39.925714285714285 28.547314285714283 41.14285714285714 24.70152 41.14285714285714 20.57142857142857c0 -11.361291428571429 -9.210137142857143 -20.57142857142857 -20.57142857142857 -20.57142857142857Z" clip-rule="evenodd" stroke-width="3.4286"></path>
  </g>
</svg>