<svg xmlns="http://www.w3.org/2000/svg" fill="none" viewBox="0 0 48 48" id="Magnifying-Glass-Circle--Streamline-Core-Remix" height="48" width="48">
  <desc>
    Magnifying Glass Circle Streamline Icon: https://streamlinehq.com
  </desc>
  <g id="Free Remix/Interface Essential/magnifying-glass-circle--circle-glass-search-magnifying">
    <path id="Union" fill="#000000" fill-rule="evenodd" d="M4.285714285714286 24c0 -10.887908571428571 8.826377142857142 -19.71428571428571 19.71428571428571 -19.71428571428571 10.887771428571428 0 19.71428571428571 8.826377142857142 19.71428571428571 19.71428571428571 0 10.887771428571428 -8.826514285714284 19.71428571428571 -19.71428571428571 19.71428571428571 -10.887908571428571 0 -19.71428571428571 -8.826514285714284 -19.71428571428571 -19.71428571428571ZM24 0C10.745177142857143 0 0 10.745177142857143 0 24c0 13.254857142857142 10.745177142857143 24 24 24 13.254857142857142 0 24 -10.745142857142856 24 -24 0 -13.254822857142857 -10.745142857142856 -24 -24 -24Zm-1.7142857142857142 15.857142857142856c-3.5503885714285714 0 -6.428571428571428 2.878182857142857 -6.428571428571428 6.428571428571428S18.735325714285715 28.71428571428571 22.285714285714285 28.71428571428571 28.71428571428571 25.836102857142855 28.71428571428571 22.285714285714285 25.836102857142855 15.857142857142856 22.285714285714285 15.857142857142856ZM11.571428571428571 22.285714285714285c0 -5.917337142857142 4.796948571428572 -10.714285714285714 10.714285714285714 -10.714285714285714S33 16.368377142857142 33 22.285714285714285c0 2.18376 -0.6533142857142856 4.214914285714285 -1.7751428571428571 5.908697142857143L35.80114285714286 32.770559999999996c0.8365714285714285 0.8368114285714285 0.8365714285714285 2.1936685714285713 0 3.030582857142857 -0.8369142857142857 0.8365714285714285 -2.1937714285714285 0.8365714285714285 -3.030582857142857 0L28.194411428571424 31.224857142857143C26.50062857142857 32.34668571428571 24.469474285714284 33 22.285714285714285 33c-5.917337142857142 0 -10.714285714285714 -4.796948571428572 -10.714285714285714 -10.714285714285714Z" clip-rule="evenodd" stroke-width="3.4286"></path>
  </g>
</svg>