<svg xmlns="http://www.w3.org/2000/svg" fill="none" viewBox="0 0 48 48" id="Mail-Send-Reply-All--Streamline-Core-Remix" height="48" width="48">
  <desc>
    Mail Send Reply All Streamline Icon: https://streamlinehq.com
  </desc>
  <g id="Free Remix/Mail/Mail/Send/mail-send-reply-all--email-message-reply-all-actions-action-arrow">
    <path id="Union" fill="#000000" fill-rule="evenodd" d="M27.857142857142854 8.571394285714286c0 -0.8667085714285714 -0.5221028571428571 -1.64808 -1.3228114285714285 -1.97976 -0.8007428571428571 -0.33168000000000003 -1.7224114285714285 -0.14831999999999998 -2.3352685714285712 0.4645371428571428l-10.285714285714285 10.285714285714285c-0.8368457142857142 0.8368114285714285 -0.8368457142857142 2.1936 0 3.030445714285714l10.285714285714285 10.285714285714285c0.6128571428571428 0.6128571428571428 1.5345257142857143 0.7961828571428571 2.3352685714285712 0.4645028571428571 0.8007085714285713 -0.33168000000000003 1.3228114285714285 -1.1130171428571427 1.3228114285714285 -1.9797257142857143v-8.142857142857142h4.285714285714286c6.390857142857143 0 11.571428571428571 5.180708571428571 11.571428571428571 11.571428571428571V39.42857142857142c0 1.183542857142857 0.9593142857142857 2.142857142857143 2.142857142857143 2.142857142857143S48 40.612114285714284 48 39.42857142857142V32.571394285714284c0 -8.757668571428571 -7.099542857142857 -15.857142857142856 -15.857142857142856 -15.857142857142856h-4.285714285714286v-8.142857142857142Zm-13.913348571428571 -1.515222857142857c0.8368457142857142 0.8368114285714285 0.8368457142857142 2.1936 0 3.030445714285714L5.173302857142857 18.857108571428572l8.770491428571427 8.770491428571427c0.8368457142857142 0.8368114285714285 0.8368457142857142 2.1936 0 3.030445714285714 -0.8368457142857142 0.8368457142857142 -2.1936 0.8368457142857142 -3.030445714285714 0l-10.285721142857142 -10.285714285714285c-0.8368367999999999 -0.8368457142857142 -0.8368367999999999 -2.1936342857142854 0 -3.030445714285714l10.285721142857142 -10.285714285714285c0.8368457142857142 -0.8368457142857142 2.1936 -0.8368457142857142 3.030445714285714 0Z" clip-rule="evenodd" stroke-width="3.4286"></path>
  </g>
</svg>