<svg xmlns="http://www.w3.org/2000/svg" fill="none" viewBox="0 0 48 48" id="Mail-Send-Email-Message--Streamline-Core-Remix" height="48" width="48">
  <desc>
    Mail Send Email Message Streamline Icon: https://streamlinehq.com
  </desc>
  <g id="Free Remix/Mail/Mail/Send/mail-send-email-message--send-email-paper-airplane-deliver">
    <path id="Union" fill="#000000" fill-rule="evenodd" d="M47.85874285714286 2.908213714285714c0.30171428571428566 -0.7895554285714285 0.11142857142857143 -1.6828045714285713 -0.4865142857142857 -2.2805245714285713 -0.5976 -0.5977167428571428 -1.4907428571428571 -0.7881984 -2.2803428571428572 -0.4863096L1.377565714285714 16.85568c-0.814128 0.31127999999999995 -1.35859056 1.084662857142857 -1.3770803245714285 1.9560685714285715C-0.018004594285714284 19.683154285714284 0.49316571428571426 20.478959999999997 1.2933531428571428 20.824491428571427L19.369817142857144 28.630217142857138l7.805759999999999 18.07652571428571c0.34553142857142854 0.8002285714285714 1.1413371428571428 1.3114285714285714 2.012742857142857 1.2929142857142857 0.8714057142857142 -0.018514285714285716 1.6447885714285713 -0.5629714285714286 1.9560685714285715 -1.3772571428571427L47.85874285714286 2.908213714285714ZM20.090365714285713 24.273154285714284 7.827497142857142 18.97782857142857 42.14297142857143 5.857268571428571 29.022239999999996 40.17257142857143 23.726914285714283 27.909702857142857l8.519931428571429 -8.519931428571429c1.0041942857142856 -1.0042285714285712 1.0041942857142856 -2.6323542857142854 0 -3.636548571428571 -1.0041942857142856 -1.0042285714285712 -2.6323542857142854 -1.0042285714285712 -3.636548571428571 0L20.090365714285713 24.273154285714284Z" clip-rule="evenodd" stroke-width="3.4286"></path>
  </g>
</svg>