<svg xmlns="http://www.w3.org/2000/svg" fill="none" viewBox="0 0 48 48" id="Mail-Incoming--Streamline-Core-Remix" height="48" width="48">
  <desc>
    Mail Incoming Streamline Icon: https://streamlinehq.com
  </desc>
  <g id="Free Remix/Mail/Mail/Inbox/mail-incoming--inbox-envelope-email-message-down-arrow-inbox">
    <path id="Union" fill="#000000" fill-rule="evenodd" d="M26.142891428571424 2.142857142857143c0 -1.1834674285714284 -0.9593828571428571 -2.142857142857143 -2.142857142857143 -2.142857142857143 -1.1834399999999998 0 -2.142857142857143 0.9593897142857143 -2.142857142857143 2.142857142857143V12h-4.714285714285714c-0.69336 0 -1.3184228571428571 0.4176685714285714 -1.5837942857142857 1.058262857142857 -0.2653371428571428 0.6405942857142857 -0.11866285714285714 1.3779085714285715 0.37162285714285714 1.8681942857142855l6.857142857142857 6.857142857142857c0.669462857142857 0.6694971428571428 1.7549142857142856 0.6694971428571428 2.424377142857143 0l6.857142857142857 -6.857142857142857c0.4902857142857142 -0.4902857142857142 0.6369257142857142 -1.2275999999999998 0.37158857142857143 -1.8681942857142855C32.17563428571429 12.417668571428571 31.550571428571423 12 30.85717714285714 12h-4.714285714285714V2.142857142857143ZM13.506342857142856 17.350834285714285c-0.06778285714285713 -0.06778285714285713 -0.13337142857142856 -0.13714285714285715 -0.19676571428571427 -0.20797714285714283H9C5.922994285714285 17.142857142857142 3.4285714285714284 19.63728 3.4285714285714284 22.71428571428571v19.71428571428571C3.4285714285714284 45.505714285714284 5.922994285714285 48 9 48h30c3.077142857142857 0 5.571428571428571 -2.494285714285714 5.571428571428571 -5.571428571428571v-19.71428571428571C44.57142857142857 19.63728 42.07714285714286 17.142857142857142 39 17.142857142857142h-4.309371428571428c-0.06342857142857142 0.07083428571428571 -0.12925714285714285 0.14019428571428572 -0.19679999999999997 0.20797714285714283l-6.857245714285715 6.857142857142857c-2.008388571428571 2.008422857142857 -5.264674285714285 2.008422857142857 -7.273097142857142 0l-6.857142857142857 -6.857142857142857ZM40.285714285714285 27.668331428571424 24.920365714285712 37.446171428571425c-0.5615657142857142 0.3576 -1.2791657142857142 0.3576 -1.8407314285714285 0L7.7142857142857135 27.668331428571424V42.42857142857142c0 0.7100571428571428 0.5756228571428571 1.2857142857142856 1.2857142857142856 1.2857142857142856h30c0.7100571428571428 0 1.2857142857142856 -0.5756571428571428 1.2857142857142856 -1.2857142857142856V27.668331428571424Z" clip-rule="evenodd" stroke-width="3.4286"></path>
  </g>
</svg>