<svg xmlns="http://www.w3.org/2000/svg" fill="none" viewBox="0 0 48 48" id="Mail-Search--Streamline-Core-Remix" height="48" width="48">
  <desc>
    Mail Search Streamline Icon: https://streamlinehq.com
  </desc>
  <g id="Free Remix/Mail/Mail/Inbox/mail-search--inbox-envelope-email-message-search">
    <path id="Union" fill="#000000" fill-rule="evenodd" d="M4.285714285714286 10.63176V29.142857142857142c0 0.7100914285714285 0.5756228571428571 1.2857142857142856 1.2857142857142856 1.2857142857142856H17.142857142857142c1.1834742857142857 0 2.142857142857143 0.9593828571428571 2.142857142857143 2.142857142857143s-0.9593828571428571 2.142857142857143 -2.142857142857143 2.142857142857143H5.571428571428571C2.494412571428571 34.714285714285715 0 32.21986285714286 0 29.142857142857142V5.571428571428571C0 2.4944159999999997 2.494412571428571 0 5.571428571428571 0h33.42857142857142C42.07714285714286 0 44.57142857142857 2.494412571428571 44.57142857142857 5.571428571428571v13.714285714285714c0 1.1834742857142857 -0.9593142857142857 2.142857142857143 -2.142857142857143 2.142857142857143s-2.142857142857143 -0.9593828571428571 -2.142857142857143 -2.142857142857143V10.63176l-17.049085714285713 11.366057142857143c-0.5758285714285714 0.3838628571428571 -1.3259999999999998 0.3838628571428571 -1.9018285714285712 0L4.285714285714286 10.63176ZM33.857142857142854 27.428571428571427C30.306754285714284 27.428571428571427 27.428571428571427 30.306754285714284 27.428571428571427 33.857142857142854c0 3.5502857142857143 2.878182857142857 6.428571428571428 6.428571428571428 6.428571428571428 1.7633142857142856 0 3.3610285714285713 -0.7100571428571428 4.522285714285714 -1.8596571428571427l0.02262857142857143 -0.02297142857142857 0.02331428571428571 -0.02297142857142857c1.1502857142857144 -1.1616 1.8603428571428569 -2.7593142857142854 1.8603428571428569 -4.522971428571428C40.285714285714285 30.306754285714284 37.407428571428575 27.428571428571427 33.857142857142854 27.428571428571427Zm0 17.142857142857142c2.1836571428571427 0 4.2144 -0.6531428571428571 5.908114285714285 -1.7749714285714286l4.576114285714286 4.576114285714286c0.8365714285714285 0.8369142857142857 2.1936 0.8369142857142857 3.0305142857142857 0 0.8365714285714285 -0.8369142857142857 0.8365714285714285 -2.1936 0 -3.0305142857142857l-4.575771428571429 -4.575771428571429c1.1218285714285714 -1.6937142857142855 1.7753142857142858 -3.725142857142857 1.7753142857142858 -5.909142857142857 0 -5.917337142857142 -4.796914285714285 -10.714285714285714 -10.714285714285714 -10.714285714285714 -5.917337142857142 0 -10.714285714285714 4.796948571428572 -10.714285714285714 10.714285714285714C23.142857142857142 39.77451428571428 27.939805714285715 44.57142857142857 33.857142857142854 44.57142857142857Z" clip-rule="evenodd" stroke-width="3.4286"></path>
  </g>
</svg>