<svg xmlns="http://www.w3.org/2000/svg" fill="none" viewBox="0 0 48 48" id="Make-Up-Brush--Streamline-Core-Remix" height="48" width="48">
  <desc>
    Make Up Brush Streamline Icon: https://streamlinehq.com
  </desc>
  <g id="Free Remix/Money Shopping/make-up-brush--fashion-beauty-make-up-brush">
    <path id="Union" fill="#000000" fill-rule="evenodd" d="M25.157965714285712 5.01504c0.3463885714285714 -0.7846628571428571 1.3727657142857144 -0.9765600000000001 1.9792457142857143 -0.37007999999999996l2.7336342857142855 2.7336342857142855 -3.094868571428571 4.891851428571428c-0.632742857142857 1.0001485714285714 -0.3349028571428571 2.323817142857143 0.6652114285714286 2.95656 1.0001485714285714 0.632742857142857 2.323817142857143 0.3349028571428571 2.95656 -0.6652114285714286l2.5793142857142857 -4.076982857142856 3.975737142857142 3.9758057142857144 -4.076262857142857 2.578902857142857c-1.0001142857142857 0.632742857142857 -1.2979542857142856 1.9564457142857141 -0.6652114285714286 2.95656 0.6327085714285714 1.0001142857142857 1.9564114285714285 1.2979542857142856 2.95656 0.6652114285714286l4.8912 -3.0944571428571424 3.2962285714285713 3.2963314285714285c0.6065142857142857 0.6065142857142857 0.41451428571428567 1.6329599999999997 -0.36994285714285713 1.9793142857142858L30.104057142857144 28.52804571428571 19.47164571428571 17.895634285714287l5.686319999999999 -12.880594285714285Zm16.76729142857143 8.357005714285714 4.460571428571428 4.460674285714285c2.736685714285714 2.7365142857142857 1.8706285714285713 7.367828571428571 -1.6700571428571427 8.930537142857142L30.491931428571426 33.04148571428571c-0.19241142857142857 0.08492571428571428 -0.3925371428571428 0.1396457142857143 -0.59424 0.16536L18.662399999999998 44.44217142857143c-4.171234285714285 4.1712 -10.93416 4.1712 -15.105394285714285 0 -4.171244571428571 -4.1712 -4.171244571428571 -10.934228571428571 0 -15.105462857142856L14.792914285714286 18.1008c0.025748571428571426 -0.20135999999999998 0.08046857142857143 -0.40114285714285713 0.16529142857142856 -0.5932457142857143L21.237291428571428 3.2841977142857144C22.800171428571428 -0.25603508571428574 27.43128 -1.121897142857143 30.167691428571423 1.614510857142857L34.08596571428571 5.532788571428571c0.019714285714285712 0.01896 0.03898285714285714 0.03826285714285714 0.057839999999999996 0.057839999999999996l7.683051428571428 7.6831885714285715c0.03394285714285714 0.03150857142857143 0.0665142857142857 0.06425142857142857 0.09839999999999999 0.09822857142857142Z" clip-rule="evenodd" stroke-width="3.4286"></path>
  </g>
</svg>