<svg xmlns="http://www.w3.org/2000/svg" fill="none" viewBox="0 0 48 48" id="Man-Symbol--Streamline-Core-Remix" height="48" width="48">
  <desc>
    Man Symbol Streamline Icon: https://streamlinehq.com
  </desc>
  <g id="Free Remix/Map Travel/man-symbol--geometric-gender-boy-person-male-human-user">
    <path id="Union" fill="#000000" fill-rule="evenodd" d="M30.857142857142854 0c-0.69336 0 -1.3184571428571428 0.417672 -1.5837942857142857 1.0582559999999999 -0.2653371428571428 0.6405839999999999 -0.11866285714285714 1.3779291428571427 0.37162285714285714 1.8682114285714286L35.843999999999994 9.12552 26.920902857142856 18.04865142857143C24.097542857142855 15.868457142857142 20.557371428571425 14.571428571428571 16.71428571428571 14.571428571428571 7.4832342857142855 14.571428571428571 0 22.05466285714286 0 31.285714285714285 0 40.516799999999996 7.4832342857142855 48 16.71428571428571 48S33.42857142857142 40.516799999999996 33.42857142857142 31.285714285714285c0 -3.843085714285714 -1.2970285714285714 -7.383257142857142 -3.4772228571428565 -10.206617142857143L38.874514285714284 12.155999999999999l6.198857142857142 6.1990285714285704c0.4902857142857142 0.4902857142857142 1.2277714285714285 0.63696 1.8682285714285716 0.37162285714285714C47.58239999999999 18.461314285714284 48 17.83621714285714 48 17.142857142857142V1.7142857142857142c0 -0.9467725714285714 -0.7676571428571428 -1.7142857142857142 -1.7142857142857142 -1.7142857142857142H30.857142857142854ZM25.284445714285713 22.28448c0.06037714285714286 0.08043428571428572 0.12716571428571427 0.15757714285714286 0.20033142857142858 0.23074285714285714 0.07316571428571429 0.07316571428571429 0.1503085714285714 0.13995428571428573 0.23074285714285714 0.20033142857142858C27.83921142857143 24.945394285714283 29.142857142857142 27.963291428571427 29.142857142857142 31.285714285714285c0 6.863999999999999 -5.564468571428571 12.428571428571427 -12.428571428571427 12.428571428571427S4.285714285714286 38.14971428571429 4.285714285714286 31.285714285714285C4.285714285714286 24.421611428571424 9.850182857142856 18.857142857142858 16.71428571428571 18.857142857142858c3.322422857142857 0 6.340319999999999 1.3036457142857143 8.57016 3.4273371428571426Z" clip-rule="evenodd" stroke-width="3.4286"></path>
  </g>
</svg>