<svg xmlns="http://www.w3.org/2000/svg" fill="none" viewBox="0 0 48 48" id="Manual-Book--Streamline-Core-Remix" height="48" width="48">
  <desc>
    Manual Book Streamline Icon: https://streamlinehq.com
  </desc>
  <g id="Free Remix/Interface Essential/manual-book">
    <path id="Union" fill="#000000" fill-rule="evenodd" d="M10.285714285714285 2.2937142857143e-7h29.142857142857142c1.4777142857142855 0 2.894742857142857 0.5869883420571429 3.9394285714285715 1.6318351992 1.0450285714285714 1.0448434285714285 1.632 2.4619474285714285 1.632 3.939593142857143v26.57142857142857c0 1.477645714285714 -0.5869714285714285 2.894742857142857 -1.632 3.9394285714285715 -0.5194285714285714 0.5197714285714286 -1.1310857142857142 0.9260571428571428 -1.7965714285714285 1.2034285714285713v6.428571428571428h1.2857142857142856c1.183542857142857 0 2.142857142857143 0.9593142857142857 2.142857142857143 2.142857142857143S44.040685714285715 48 42.857142857142854 48H10.285714285714285c-1.9322742857142856 0 -3.7854514285714282 -0.7676571428571428 -5.151771428571428 -2.133942857142857 -1.3663542857142856 -1.3662857142857143 -2.133942857142857 -3.219428571428571 -2.133942857142857 -5.151771428571428l0.0005382857142857142 -0.08845714285714286L3 40.57714285714286v-33.42857142857142l0.0007611428571428572 -0.05715428571428571c0.05064342857142857 -1.8983999999999999 0.8405417142857142 -3.7020274285714283 2.201444571428571 -5.026621714285714C6.5629028571428565 0.7403759999999999 8.386902857142857 -0.0004759268571428572 10.285714285714285 2.2937142857143e-7ZM39.42857142857142 33.42857142857142c0.34114285714285714 0 0.6678857142857143 -0.13546285714285713 0.9092571428571428 -0.37659428571428566 0.24102857142857143 -0.24109714285714282 0.3764571428571428 -0.5681142857142857 0.3764571428571428 -0.9091199999999999v-26.57142857142857c0 -0.3410057142857143 -0.13542857142857143 -0.6680228571428571 -0.3764571428571428 -0.9091199999999999 -0.24137142857142857 -0.24113142857142858 -0.5681142857142857 -0.37659428571428566 -0.9092571428571428 -0.37659428571428566H10.285714285714285l-0.0007542857142857143 0c-0.7819885714285714 -0.00027428571428571427 -1.5331885714285713 0.3048 -2.0935542857142857 0.8502171428571428 -0.5544342857142857 0.5396571428571428 -0.8787085714285714 1.2724114285714285 -0.9056914285714286 2.0450399999999997v26.893919999999998C8.219657142857143 33.652902857142855 9.241131428571427 33.42857142857142 10.285714285714285 33.42857142857142h29.142857142857142ZM22.851942857142856 11.555382857142856c0.5481942857142857 -0.2270742857142857 1.151382857142857 -0.28649142857142856 1.7333142857142858 -0.1707428571428571 0.5819657142857143 0.11578285714285715 1.1165142857142856 0.4014857142857142 1.5360685714285713 0.8210399999999999 0.4195542857142857 0.4195542857142857 0.7052914285714286 0.9541028571428571 0.8210399999999999 1.5360685714285713 0.11574857142857142 0.5819314285714285 0.05633142857142857 1.18512 -0.1707428571428571 1.7333142857142858 -0.22704 0.54816 -0.6115542857142857 1.0167085714285715 -1.1049257142857143 1.3463657142857142 -0.4933371428571428 0.32962285714285716 -1.0733485714285713 0.5055771428571428 -1.6666971428571427 0.5055771428571428 -1.1834742857142857 0 -2.142857142857143 0.9593828571428571 -2.142857142857143 2.142857142857143v1.7142857142857142c0 1.1834742857142857 0.9593828571428571 2.142857142857143 2.142857142857143 2.142857142857143 1.147542857142857 0 2.0844 -0.902022857142857 2.1402171428571424 -2.0357142857142856 0.6728571428571428 -0.20677714285714285 1.3158514285714287 -0.5110971428571428 1.9075199999999999 -0.9064457142857143 1.1981142857142857 -0.8005371428571428 2.131954285714286 -1.9384114285714287 2.6833714285714283 -3.2697257142857143 0.5514514285714286 -1.33128 0.6957257142857142 -2.796205714285714 0.4146171428571428 -4.209497142857143 -0.2811085714285714 -1.4132571428571428 -0.9750171428571429 -2.7114514285714284 -1.9939542857142858 -3.7303885714285716 -1.018902857142857 -1.0189371428571428 -2.3170971428571425 -1.7128114285714284 -3.7303885714285716 -1.9939542857142858 -1.4132914285714286 -0.2811085714285714 -2.878217142857143 -0.1368342857142857 -4.209497142857143 0.4146171428571428 -1.3313142857142857 0.5514171428571428 -2.4691542857142856 1.4852571428571426 -3.2697257142857143 2.6833714285714283 -0.8005714285714286 1.1981485714285713 -1.2278742857142857 2.6067771428571427 -1.2278742857142857 4.047737142857143 0 1.1834742857142857 0.9593828571428571 2.142857142857143 2.142857142857143 2.142857142857143s2.142857142857143 -0.9593828571428571 2.142857142857143 -2.142857142857143c0 -0.5933485714285713 0.1759542857142857 -1.17336 0.5055771428571428 -1.6666971428571427 0.3296571428571428 -0.49337142857142857 0.7982057142857142 -0.8778857142857143 1.3463657142857142 -1.1049257142857143ZM24 30.827005714285715c-1.6568571428571428 0 -3 -1.343142857142857 -3 -3s1.343142857142857 -3 3 -3 3 1.343142857142857 3 3 -1.343142857142857 3 -3 3Z" clip-rule="evenodd" stroke-width="3.4286"></path>
  </g>
</svg>