<svg xmlns="http://www.w3.org/2000/svg" fill="none" viewBox="0 0 48 48" id="Markdown-Document-Programming--Streamline-Core-Remix" height="48" width="48">
  <desc>
    Markdown Document Programming Streamline Icon: https://streamlinehq.com
  </desc>
  <g id="Free Remix/Programming/Programming/Web/markdown-document-programming">
    <path id="Union" fill="#000000" fill-rule="evenodd" d="M7.662274285714286 4.662274285714286C7.9034057142857135 4.421177142857142 8.230422857142857 4.285714285714286 8.571428571428571 4.285714285714286h21.39812571428571L40.714285714285715 15.030445714285715V42.42857142857142c0 0.34114285714285714 -0.13542857142857143 0.6678857142857143 -0.3764571428571428 0.9092571428571428 -0.24137142857142857 0.24102857142857143 -0.5681142857142857 0.3764571428571428 -0.9092571428571428 0.3764571428571428h-30.857142857142854c-0.3410057142857143 0 -0.6680228571428571 -0.13542857142857143 -0.9091542857142857 -0.3764571428571428 -0.24109714285714282 -0.24137142857142857 -0.37655999999999995 -0.5681142857142857 -0.37655999999999995 -0.9092571428571428V5.571428571428571c0 -0.3410057142857143 0.13546285714285713 -0.6680228571428571 0.37655999999999995 -0.9091542857142857ZM8.571428571428571 0c-1.477645714285714 0 -2.894742857142857 0.5869885714285714 -3.9395999999999995 1.631832C3.5869714285714283 2.676678857142857 3 4.093782857142857 3 5.571428571428571v36.857142857142854c0 1.4777142857142855 0.5869714285714285 2.894742857142857 1.6318285714285712 3.9394285714285715 1.044857142857143 1.0450285714285714 2.4619542857142855 1.632 3.9395999999999995 1.632h30.857142857142854c1.4777142857142855 0 2.894742857142857 -0.5869714285714285 3.9394285714285715 -1.632 1.0450285714285714 -1.0446857142857142 1.632 -2.4617142857142853 1.632 -3.9394285714285715v-28.285714285714285c0 -0.5683199999999999 -0.22559999999999997 -1.11336 -0.6277714285714285 -1.515222857142857L32.37236571428571 0.6276274285714285C31.970502857142858 0.2257649142857143 31.425462857142858 0 30.857142857142854 0H8.571428571428571Zm5.571428571428571 35.99965714285714V29.222605714285713l0.07823999999999999 0.17389714285714286c0.5172342857142856 1.1496342857142856 1.660662857142857 1.8890057142857142 2.9213142857142853 1.8890057142857142 1.26048 0 2.4038057142857143 -0.7392342857142856 2.921142857142857 -1.8886628571428572l0.0792342857142857 -0.17605714285714286v6.778868571428571c0 1.183542857142857 0.9593828571428571 2.142857142857143 2.142857142857143 2.142857142857143 1.1834399999999998 0 2.142857142857143 -0.9593142857142857 2.142857142857143 -2.142857142857143V23.118411428571427c0 -1.6434514285714283 -1.3323085714285714 -2.9757599999999997 -2.9757942857142856 -2.9757599999999997 -1.1709257142857141 0 -2.233028571428571 0.6867085714285713 -2.713577142857143 1.7544685714285713l-1.5965828571428569 3.547474285714286 -1.5959657142857142 -3.5471999999999997c-0.48051428571428567 -1.0679314285714285 -1.5426514285714286 -1.7547428571428572 -2.7137142857142855 -1.7547428571428572 -1.6434514285714283 0 -2.9757257142857143 1.3322742857142855 -2.9757257142857143 2.9757257142857143v12.881279999999999c0 1.183542857142857 0.9593828571428571 2.142857142857143 2.142857142857143 2.142857142857143s2.142857142857143 -0.9593142857142857 2.142857142857143 -2.142857142857143ZM32.57142857142857 20.142857142857142c1.1834742857142857 0 2.142857142857143 0.9593828571428571 2.142857142857143 2.142857142857143v8.142651428571428h1.2857142857142856c0.8667428571428571 0 1.6481142857142856 0.5221028571428571 1.9796571428571428 1.3228114285714285 0.3318857142857143 0.8007428571428571 0.14845714285714284 1.7224114285714285 -0.4645714285714286 2.3352685714285712l-3.4284342857142853 3.4286399999999997c-0.06078857142857142 0.06068571428571429 -0.12486857142857143 0.11759999999999998 -0.1918285714285714 0.17005714285714285 -0.3229714285714286 0.2540571428571428 -0.7207542857142857 0.4169142857142857 -1.1548114285714286 0.45085714285714285 -0.055885714285714275 0.004457142857142857 -0.11211428571428571 0.006514285714285714 -0.16858285714285712 0.006514285714285714s-0.11269714285714286 -0.0020571428571428568 -0.16858285714285712 -0.006514285714285714c-0.4340571428571428 -0.03394285714285714 -0.8318399999999999 -0.19679999999999997 -1.1548114285714286 -0.45085714285714285 -0.06695999999999999 -0.052457142857142855 -0.13104 -0.10937142857142856 -0.1918285714285714 -0.17005714285714285l-3.4285714285714284 -3.4286399999999997c-0.6128571428571428 -0.6128571428571428 -0.7961828571428571 -1.5345257142857143 -0.4645028571428571 -2.3352685714285712 0.33164571428571427 -0.8007085714285713 1.1130171428571427 -1.3228114285714285 1.9797257142857143 -1.3228114285714285h1.2857142857142856V22.285714285714285c0 -1.1834742857142857 0.9593828571428571 -2.142857142857143 2.142857142857143 -2.142857142857143Z" clip-rule="evenodd" stroke-width="3.4286"></path>
  </g>
</svg>