<svg xmlns="http://www.w3.org/2000/svg" fill="none" viewBox="0 0 48 48" id="Markdown-Circle-Programming--Streamline-Core-Remix" height="48" width="48">
  <desc>
    Markdown Circle Programming Streamline Icon: https://streamlinehq.com
  </desc>
  <g id="Free Remix/Programming/Programming/Web/markdown-circle-programming">
    <path id="Union" fill="#000000" fill-rule="evenodd" d="M4.282354285714286 24.00342857142857c0 -10.889794285714286 8.827919999999999 -19.717714285714287 19.717714285714287 -19.717714285714287 10.889759999999999 0 19.717645714285712 8.827919999999999 19.717645714285712 19.717714285714287 0 10.889828571428572 -8.827885714285715 19.717714285714287 -19.717645714285712 19.717714285714287 -10.889794285714286 0 -19.717714285714287 -8.827885714285715 -19.717714285714287 -19.717714285714287ZM24.00006857142857 0C10.74336 0 -0.0033482125714285713 10.746685714285714 -0.0033482125714285713 24.00342857142857c0 13.256571428571426 10.746708212571429 24.00342857142857 24.003416784 24.00342857142857 13.256845714285713 0 24.00336 -10.746857142857143 24.00336 -24.00342857142857C48.003428571428564 10.746685714285714 37.25691428571428 0 24.00006857142857 0Zm-9.856799999999998 30.857142857142854V24.079954285714283l0.07823999999999999 0.17389714285714286c0.5172685714285714 1.1496342857142856 1.660662857142857 1.8890057142857142 2.9213142857142853 1.8890057142857142 1.26048 0 2.4038057142857143 -0.7392342857142856 2.921142857142857 -1.8886628571428572l0.0792342857142857 -0.17602285714285712V30.857142857142854c0 1.1834742857142857 0.9593828571428571 2.142857142857143 2.142857142857143 2.142857142857143s2.142857142857143 -0.9593828571428571 2.142857142857143 -2.142857142857143V17.97576c0 -1.6434514285714283 -1.3323085714285714 -2.9757599999999997 -2.9757599999999997 -2.9757599999999997 -1.17096 0 -2.233062857142857 0.6867085714285713 -2.7136114285714283 1.7544685714285713L17.14296 20.30194285714286l-1.5959657142857142 -3.5471999999999997c-0.4804799999999999 -1.0678971428571429 -1.5426514285714286 -1.7547428571428572 -2.7137142857142855 -1.7547428571428572 -1.6434514285714283 0 -2.9757257142857143 1.3322742857142855 -2.9757257142857143 2.9757257142857143V30.857142857142854c0 1.1834742857142857 0.9593828571428571 2.142857142857143 2.142857142857143 2.142857142857143s2.142857142857143 -0.9593828571428571 2.142857142857143 -2.142857142857143Zm20.57136 -13.71408c0 -1.1834742857142857 -0.9593142857142857 -2.142857142857143 -2.142788571428571 -2.142857142857143s-2.142857142857143 0.9593828571428571 -2.142857142857143 2.142857142857143V25.285714285714285h-1.2857142857142856c-0.8667085714285714 0 -1.6480457142857141 0.5221028571428571 -1.9797257142857143 1.3228114285714285 -0.33168000000000003 0.8007428571428571 -0.14835428571428572 1.7224114285714285 0.4645028571428571 2.3352685714285712l3.4285714285714284 3.4285714285714284c0.4018628571428571 0.4018628571428571 0.946902857142857 0.6276342857142857 1.515222857142857 0.6276342857142857 0.5683199999999999 0 1.11336 -0.22577142857142857 1.515222857142857 -0.6276342857142857l3.4287085714285714 -3.4285714285714284c0.6126857142857143 -0.6128571428571428 0.7961142857142857 -1.5345257142857143 0.4642285714285714 -2.3352685714285712 -0.3315428571428571 -0.8007085714285713 -1.1129142857142857 -1.3228114285714285 -1.9796571428571428 -1.3228114285714285h-1.2857142857142856V17.14306285714286Z" clip-rule="evenodd" stroke-width="3.4286"></path>
  </g>
</svg>