<svg xmlns="http://www.w3.org/2000/svg" fill="none" viewBox="0 0 48 48" id="Medical-Search-Diagnosis--Streamline-Core-Remix" height="48" width="48">
  <desc>
    Medical Search Diagnosis Streamline Icon: https://streamlinehq.com
  </desc>
  <g id="Free Remix/Health/medical-search-diagnosis">
    <path id="Union" fill="#000000" fill-rule="evenodd" d="M22.285714285714285 4.285714285714286c-9.941108571428572 0 -18 8.058891428571428 -18 18 0 9.941142857142857 8.058891428571428 18 18 18 9.941142857142857 0 18 -8.058857142857141 18 -18 0 -9.941108571428572 -8.058857142857141 -18 -18 -18ZM0 22.285714285714285C0 9.977657142857142 9.977657142857142 0 22.285714285714285 0 34.593942857142856 0 44.57142857142857 9.977657142857142 44.57142857142857 22.285714285714285c0 5.072605714285714 -1.694742857142857 9.749348571428571 -4.549028571428571 13.494857142857143l7.098857142857143 7.098857142857143c1.171542857142857 1.171542857142857 1.171542857142857 3.0709714285714287 0 4.242857142857143 -1.171542857142857 1.171542857142857 -3.0709714285714287 1.171542857142857 -4.242514285714286 0l-7.098857142857143 -7.099200000000001C32.03427428571428 42.877028571428575 27.357874285714285 44.57142857142857 22.285714285714285 44.57142857142857 9.977657142857142 44.57142857142857 0 34.593942857142856 0 22.285714285714285Zm17.58390857142857 -10.106811428571428c0 -0.8088685714285714 0.6557485714285715 -1.4646171428571428 1.4646514285714285 -1.4646171428571428h6.474308571428571c0.8089028571428571 0 1.4646514285714285 0.6557485714285715 1.4646514285714285 1.4646171428571428v5.405074285714286h5.404971428571428c0.8089028571428571 0 1.4646514285714285 0.6557485714285715 1.4646514285714285 1.4646514285714285V25.522971428571427c0 0.8088685714285714 -0.6557485714285715 1.4646171428571428 -1.4646514285714285 1.4646171428571428H26.98752v5.404902857142857c0 0.8089028571428571 -0.6557485714285715 1.4646514285714285 -1.4646514285714285 1.4646514285714285H19.04856c-0.8089028571428571 0 -1.4646514285714285 -0.6557485714285715 -1.4646514285714285 -1.4646514285714285V26.98758857142857H12.178902857142855c-0.8088685714285714 0 -1.4646171428571428 -0.6557485714285715 -1.4646171428571428 -1.4646171428571428V19.048628571428573c0 -0.8089028571428571 0.6557485714285715 -1.4646514285714285 1.4646171428571428 -1.4646514285714285h5.405005714285714V12.178902857142855Z" clip-rule="evenodd" stroke-width="3.4286"></path>
  </g>
</svg>