<svg xmlns="http://www.w3.org/2000/svg" fill="none" viewBox="0 0 48 48" id="Medical-Bag--Streamline-Core-Remix" height="48" width="48">
  <desc>
    Medical Bag Streamline Icon: https://streamlinehq.com
  </desc>
  <g id="Free Remix/Health/medical-bag--health-sign-medical-symbol-hospital-bag-medicine-medkit">
    <path id="Union" fill="#000000" fill-rule="evenodd" d="M14.917542857142857 3.346117714285714C15.9624 2.301274285714286 17.379497142857144 1.7142857142857142 18.857142857142858 1.7142857142857142h10.285714285714285c1.477645714285714 0 2.894742857142857 0.5869885714285714 3.9395999999999995 1.631832 1.044822857142857 1.0448537142857142 1.6318285714285712 2.461950857142857 1.6318285714285712 3.939596571428571V10.285714285714285h6c3.077142857142857 0 5.571428571428571 2.494422857142857 5.571428571428571 5.571428571428571v24.857142857142854c0 3.077142857142857 -2.494285714285714 5.571428571428571 -5.571428571428571 5.571428571428571h-33.42857142857142C4.208708571428572 46.285714285714285 1.7142857142857142 43.791428571428575 1.7142857142857142 40.714285714285715v-24.857142857142854C1.7142857142857142 12.780137142857141 4.208708571428572 10.285714285714285 7.285714285714286 10.285714285714285h6v-3c0 -1.477645714285714 0.5870057142857142 -2.894742857142857 1.6318285714285712 -3.939596571428571ZM30.428571428571427 7.285714285714286V10.285714285714285h-12.857142857142856v-3c0 -0.3410057142857143 0.13546285714285713 -0.6680228571428571 0.37659428571428566 -0.9091542857142857 0.24109714285714282 -0.24109714285714282 0.5681142857142857 -0.37655999999999995 0.9091199999999999 -0.37655999999999995h10.285714285714285c0.3410057142857143 0 0.6680228571428571 0.13546285714285713 0.9091542857142857 0.37655999999999995 0.24109714285714282 0.24113142857142858 0.37655999999999995 0.5681485714285713 0.37655999999999995 0.9091542857142857ZM7.285714285714286 14.571428571428571h33.42857142857142c0.7100571428571428 0 1.2857142857142856 0.5756228571428571 1.2857142857142856 1.2857142857142856v24.857142857142854c0 0.7100571428571428 -0.5756571428571428 1.2857142857142856 -1.2857142857142856 1.2857142857142856h-33.42857142857142c-0.7100914285714285 0 -1.2857142857142856 -0.5756571428571428 -1.2857142857142856 -1.2857142857142856v-24.857142857142854c0 -0.7100914285714285 0.5756228571428571 -1.2857142857142856 1.2857142857142856 -1.2857142857142856ZM24 18.857142857142858c1.4201485714285715 0 2.571428571428571 1.1512799999999999 2.571428571428571 2.571428571428571V25.71428571428571H30.857142857142854c1.4201485714285715 0 2.571428571428571 1.1512799999999999 2.571428571428571 2.571428571428571S32.27729142857143 30.857142857142854 30.857142857142854 30.857142857142854H26.57142857142857v4.285714285714286c0 1.4201142857142857 -1.1512799999999999 2.571428571428571 -2.571428571428571 2.571428571428571s-2.571428571428571 -1.1513142857142855 -2.571428571428571 -2.571428571428571V30.857142857142854H17.142857142857142c-1.4201485714285715 0 -2.571428571428571 -1.1512799999999999 -2.571428571428571 -2.571428571428571s1.1512799999999999 -2.571428571428571 2.571428571428571 -2.571428571428571h4.285714285714286V21.428571428571427c0 -1.4201485714285715 1.1512799999999999 -2.571428571428571 2.571428571428571 -2.571428571428571Z" clip-rule="evenodd" stroke-width="3.4286"></path>
  </g>
</svg>