<svg xmlns="http://www.w3.org/2000/svg" fill="none" viewBox="0 0 48 48" id="Medical-Cross-Symbol--Streamline-Core-Remix" height="48" width="48">
  <desc>
    Medical Cross Symbol Streamline Icon: https://streamlinehq.com
  </desc>
  <g id="Free Remix/Health/medical-cross-symbol--health-sign-medical-symbol-hospital-emergency">
    <path id="Vector (Stroke)" fill="#000000" fill-rule="evenodd" d="M15.263725714285714 2.571456c0 -1.1834674285714284 0.9594171428571429 -2.142857142857143 2.142857142857143 -2.142857142857143h13.186834285714284c1.1834742857142857 0 2.142857142857143 0.9593897142857143 2.142857142857143 2.142857142857143V8.879965714285714l5.455268571428571 -3.1528114285714284c1.0244571428571427 -0.5921485714285714 2.3352 -0.24164571428571427 2.9273142857142855 0.7829142857142857l6.593485714285714 11.406582857142856c0.2845714285714286 0.4920685714285714 0.36171428571428565 1.0769485714285714 0.2149714285714286 1.626 -0.14674285714285712 0.5490514285714285 -0.5057142857142857 1.0172914285714285 -0.9980571428571429 1.3016914285714285l-5.46 3.155691428571428 5.46 3.155691428571428c0.49234285714285714 0.2844 0.8513142857142857 0.7526057142857143 0.9980571428571429 1.3016571428571428 0.14674285714285712 0.5490514285714285 0.0696 1.1339657142857142 -0.2149714285714286 1.626L41.118857142857145 41.48982857142857c-0.5921142857142857 1.0248 -1.902857142857143 1.3752 -2.9273142857142855 0.7830857142857142L32.73627428571429 39.12v6.308571428571429c0 1.183542857142857 -0.9593828571428571 2.142857142857143 -2.142857142857143 2.142857142857143H17.40658285714286c-1.1834399999999998 0 -2.142857142857143 -0.9593142857142857 -2.142857142857143 -2.142857142857143v-6.308571428571429l-5.4552 3.1529142857142856c-1.0245942857142856 0.5921142857142857 -2.3352342857142854 0.2417142857142857 -2.927485714285714 -0.7830857142857142L0.2876441142857143 30.083382857142855c-0.28442548799999995 -0.4920342857142857 -0.36172354285714287 -1.0769485714285714 -0.21488880000000002 -1.626 0.14683508571428572 -0.5490514285714285 0.5057749714285714 -1.0172571428571429 0.9978469714285714 -1.3016571428571428l5.460209142857142 -3.155691428571428L1.0706057142857142 20.844342857142856c-0.4920754285714286 -0.2844 -0.8510153142857143 -0.75264 -0.9978500571428571 -1.3016914285714285 -0.14683508571428572 -0.5490514285714285 -0.06953703085714286 -1.1339314285714286 0.21488845714285715 -1.626L6.88104 6.5100685714285715c0.5922514285714285 -1.02456 1.9028914285714285 -1.3750628571428571 2.927485714285714 -0.7829142857142857l5.4552 3.1528114285714284V2.571456Zm4.285714285714286 2.142864v7.879097142857143c0 0.7657714285714285 -0.40858285714285714 1.4732914285714285 -1.07184 1.8560228571428572 -0.6632228571428571 0.3827314285714285 -1.4802857142857142 0.38245714285714283 -2.1432685714285715 -0.0007199999999999999L9.51918857142857 10.50990857142857 5.070548571428571 18.206091428571426l6.814902857142856 3.93864c0.6625371428571428 0.3829028571428571 1.0706057142857142 1.09008 1.0706057142857142 1.8553028571428571s-0.4080685714285714 1.472365714285714 -1.0706057142857142 1.8552685714285715L5.070548571428571 29.793977142857138l4.44864 7.696079999999999 6.815142857142856 -3.938742857142857c0.6629828571428571 -0.3831428571428571 1.4800457142857142 -0.38341714285714285 2.1432685714285715 -0.0007199999999999999 0.6632571428571429 0.3827314285714285 1.07184 1.09032 1.07184 1.8559199999999998v7.879199999999999h8.901119999999999v-7.879199999999999c0 -0.7656 0.4086171428571428 -1.4731885714285713 1.07184 -1.8559199999999998 0.6632228571428571 -0.38269714285714285 1.4802857142857142 -0.3824228571428571 2.1432685714285715 0.0007199999999999999l6.815245714285714 3.938742857142857 4.448571428571428 -7.696079999999999 -6.814971428571428 -3.9386742857142854c-0.6624 -0.3829028571428571 -1.0703999999999998 -1.0900457142857143 -1.0703999999999998 -1.8552685714285715 0 -0.7652228571428571 0.408 -1.4724 1.0703999999999998 -1.8553028571428571l6.814971428571428 -3.93864 -4.448571428571428 -7.6961828571428565 -6.815245714285714 3.9388114285714284c-0.6629828571428571 0.3831771428571428 -1.4800457142857142 0.38345142857142855 -2.1432685714285715 0.0007199999999999999s-1.07184 -1.0902514285714284 -1.07184 -1.8560228571428572V4.71432H19.54944Z" clip-rule="evenodd" stroke-width="3.4286"></path>
  </g>
</svg>