<svg xmlns="http://www.w3.org/2000/svg" fill="none" viewBox="0 0 48 48" id="Medical-Ribbon-1--Streamline-Core-Remix" height="48" width="48">
  <desc>
    Medical Ribbon 1 Streamline Icon: https://streamlinehq.com
  </desc>
  <g id="Free Remix/Health/medical-ribbon-1--ribbon-medical-cancer-health-beauty-symbol">
    <path id="Vector (Stroke)" fill="#000000" fill-rule="evenodd" d="M9.967268571428571 13.91208C9.967268571428571 6.783291428571428 16.16310857142857 -0.00008460377142857142 23.999485714285715 6.8571428571e-10 27.980674285714286 6.8571428571e-10 31.487074285714286 1.8339668571428571 33.96744 4.414662857142857c2.4655885714285715 2.56512 4.064331428571428 6.020125714285714 4.064331428571428 9.497417142857143 0 4.335017142857143 -1.8510857142857144 8.618777142857143 -4.374034285714285 12.480651428571427 -1.8984342857142857 2.9059885714285714 -4.248617142857142 5.68152 -6.687154285714286 8.201211428571428 2.969622857142857 2.7449142857142856 5.908868571428571 5.062628571428571 8.14998857142857 6.721714285714285 1.1828571428571426 0.876 2.166857142857143 1.5651428571428572 2.851885714285714 2.033142857142857 0.34217142857142857 0.2338285714285714 0.6096 0.41245714285714286 0.7896 0.5310857142857143 0.08982857142857142 0.05965714285714285 0.1577142857142857 0.10388571428571428 0.20228571428571426 0.1330285714285714l0.04902857142857143 0.03154285714285714 0.010971428571428571 0.007199999999999999s0 -0.00034285714285714285 0 0c0.9963428571428572 0.6384 1.2888 1.9645714285714284 0.6504 2.961257142857143 -0.6380571428571428 0.9963428571428572 -1.963542857142857 1.2870857142857142 -2.960228571428571 0.6486857142857143l1.0632 -1.6597714285714285c-1.0632 1.6597714285714285 -1.0625142857142857 1.6601142857142857 -1.0632 1.6597714285714285l-0.007542857142857143 -0.0048 -0.017142857142857144 -0.010971428571428571 -0.06137142857142856 -0.03977142857142857c-0.0528 -0.034628571428571425 -0.1296 -0.08468571428571428 -0.22834285714285715 -0.14982857142857142 -0.19748571428571426 -0.13062857142857143 -0.4834285714285714 -0.32159999999999994 -0.8454857142857143 -0.5688 -0.7237714285714285 -0.49474285714285715 -1.7524457142857142 -1.215085714285714 -2.9843999999999995 -2.127085714285714 -2.3646857142857143 -1.7509714285714286 -5.495279999999999 -4.219885714285714 -8.663657142857142 -7.162971428571428 -3.0985714285714288 2.890971428571428 -6.146914285714286 5.3348571428571425 -8.461028571428571 7.083771428571429 -1.2306857142857142 0.9298285714285713 -2.2580914285714284 1.6666285714285713 -2.9808342857142858 2.172685714285714 -0.3615085714285714 0.2533714285714285 -0.6470742857142857 0.4487999999999999 -0.8440799999999999 0.5825142857142857 -0.09853714285714285 0.06685714285714285 -0.1749257142857143 0.11828571428571429 -0.22765714285714284 0.15325714285714284l-0.06109714285714285 0.0408 -0.016868571428571427 0.011314285714285714 -0.004937142857142857 0.0030857142857142854c-0.0005485714285714285 0.00034285714285714285 -0.0025714285714285713 0.0017142857142857142 -1.1027314285714287 -1.668l1.1027314285714287 1.668c-0.9882857142857142 0.6510857142857143 -2.3198399999999997 0.3795428571428571 -2.970925714285714 -0.6089142857142857 -0.6509828571428572 -0.9881142857142857 -0.3777942857142857 -2.3166857142857142 0.6101485714285714 -2.9677714285714285 0.00013714285714285713 -0.00034285714285714285 -0.00013714285714285713 0 0 0l0.013337142857142856 -0.008914285714285713 0.04933714285714286 -0.03291428571428571 0.20317714285714283 -0.13679999999999998c0.18034285714285714 -0.12240000000000001 0.44821714285714287 -0.3058285714285714 0.7911085714285714 -0.5461714285714285 0.6859885714285714 -0.4803428571428571 1.67112 -1.1866285714285714 2.8554514285714285 -2.081485714285714 2.197988571428571 -1.6607999999999998 5.0671542857142855 -3.9610285714285713 7.978628571428572 -6.665142857142857 -2.3722971428571427 -2.454342857142857 -4.651782857142857 -5.159657142857142 -6.502319999999999 -8.009382857142857 -2.5294285714285714 -3.8950971428571424 -4.370742857142857 -8.233714285714285 -4.370742857142857 -12.675222857142856Zm13.93686857142857 17.68765714285714c2.2968342857142856 -2.3745257142857144 4.454845714285715 -4.932137142857142 6.165634285714286 -7.550948571428571 2.3071885714285716 -3.5316685714285714 3.6761485714285715 -6.984582857142858 3.6761485714285715 -10.13670857142857 0 -2.1971314285714283 -1.0413942857142857 -4.626754285714285 -2.8683771428571427 -6.527622857142857 -1.8120342857142857 -1.8853028571428572 -4.250297142857143 -3.0987428571428572 -6.8780914285714285 -3.0987428571428572 -5.381622857142856 -0.00006857142857142857 -9.74646857142857 4.77576 -9.74646857142857 9.626365714285713 0 3.282068571428571 1.3787314285714285 6.7983771428571425 3.6793714285714287 10.34112 1.6623771428571428 2.559942857142857 3.7474285714285713 5.043531428571429 5.971782857142857 7.346537142857142Z" clip-rule="evenodd" stroke-width="3.4286"></path>
  </g>
</svg>