<svg xmlns="http://www.w3.org/2000/svg" fill="none" viewBox="0 0 48 48" id="Medical-Files-Report-History--Streamline-Core-Remix" height="48" width="48">
  <desc>
    Medical Files Report History Streamline Icon: https://streamlinehq.com
  </desc>
  <g id="Free Remix/Health/medical-files-report-history">
    <path id="Union" fill="#000000" fill-rule="evenodd" d="M8.090845714285715 4.662274285714286c0.24113142857142858 -0.24109714285714282 0.5681485714285713 -0.37655999999999995 0.9091542857142857 -0.37655999999999995h20.969554285714285L40.285714285714285 14.601874285714286V42.42857142857142c0 0.34114285714285714 -0.13542857142857143 0.6678857142857143 -0.3764571428571428 0.9092571428571428 -0.24137142857142857 0.24102857142857143 -0.5681142857142857 0.3764571428571428 -0.9092571428571428 0.3764571428571428h-30c-0.3410057142857143 0 -0.6680228571428571 -0.13542857142857143 -0.9091542857142857 -0.3764571428571428 -0.24109714285714282 -0.24137142857142857 -0.37655999999999995 -0.5681142857142857 -0.37655999999999995 -0.9092571428571428V5.571428571428571c0 -0.3410057142857143 0.13546285714285713 -0.6680228571428571 0.37655999999999995 -0.9091542857142857ZM9 0c-1.477645714285714 0 -2.894742857142857 0.5869885714285714 -3.9395999999999995 1.631832C4.015542857142857 2.676678857142857 3.4285714285714284 4.093782857142857 3.4285714285714284 5.571428571428571v36.857142857142854c0 1.4777142857142855 0.5869714285714285 2.894742857142857 1.6318285714285712 3.9394285714285715 1.044857142857143 1.0450285714285714 2.4619542857142855 1.632 3.9395999999999995 1.632h30c1.4777142857142855 0 2.894742857142857 -0.5869714285714285 3.9394285714285715 -1.632 1.0450285714285714 -1.0446857142857142 1.632 -2.4617142857142853 1.632 -3.9394285714285715V13.714285714285714c0 -0.5683199999999999 -0.22559999999999997 -1.11336 -0.6277714285714285 -1.515222857142857L32.37236571428571 0.6276274285714285C31.970502857142858 0.2257649142857143 31.425462857142858 0 30.857142857142854 0H9Zm10.994777142857142 18.497657142857143c0 -0.6890742857142856 0.5585828571428572 -1.2476571428571428 1.2476228571428571 -1.2476571428571428h5.5152c0.68904 0 1.2476228571428571 0.5585828571428572 1.2476228571428571 1.2476571428571428v4.604297142857142H32.60948571428572c0.6890742857142856 0 1.2476571428571428 0.5586171428571428 1.2476571428571428 1.2476571428571428v5.5152c0 0.68904 -0.5585828571428572 1.2476228571428571 -1.2476571428571428 1.2476228571428571H28.005222857142854v4.604365714285714c0 0.6888 -0.5585828571428572 1.2473142857142856 -1.2476228571428571 1.2473142857142856H21.2424c-0.68904 0 -1.2476228571428571 -0.5585142857142856 -1.2476228571428571 -1.2473142857142856V31.112434285714286H15.390514285714286c-0.6890742857142856 0 -1.2476571428571428 -0.5585828571428572 -1.2476571428571428 -1.2476228571428571v-5.5152c0 -0.68904 0.5585828571428572 -1.2476571428571428 1.2476571428571428 -1.2476571428571428h4.604262857142857V18.497657142857143Z" clip-rule="evenodd" stroke-width="3.4286"></path>
  </g>
</svg>