<svg xmlns="http://www.w3.org/2000/svg" fill="none" viewBox="0 0 48 48" id="Medical-Cross-Sign-Healthcare--Streamline-Core-Remix" height="48" width="48">
  <desc>
    Medical Cross Sign Healthcare Streamline Icon: https://streamlinehq.com
  </desc>
  <g id="Free Remix/Health/medical-cross-sign-healthcare">
    <path id="union (Stroke)" fill="#000000" fill-rule="evenodd" d="M15.131862857142856 2.142857142857143c0 -1.1834674285714284 0.9593828571428571 -2.142857142857143 2.142857142857143 -2.142857142857143h13.45056c1.1834742857142857 0 2.142857142857143 0.9593897142857143 2.142857142857143 2.142857142857143v12.989005714285714H45.857142857142854c1.183542857142857 0 2.142857142857143 0.9593828571428571 2.142857142857143 2.142857142857143v13.45056c0 1.1834742857142857 -0.9593142857142857 2.142857142857143 -2.142857142857143 2.142857142857143H32.86813714285714V45.857142857142854c0 1.183542857142857 -0.9593828571428571 2.142857142857143 -2.142857142857143 2.142857142857143H17.27472c-1.1834742857142857 0 -2.142857142857143 -0.9593142857142857 -2.142857142857143 -2.142857142857143V32.86813714285714H2.142857142857143c-1.1834674285714284 0 -2.142857142857143 -0.9593828571428571 -2.142857142857143 -2.142857142857143V17.27472c0 -1.1834742857142857 0.9593897142857143 -2.142857142857143 2.142857142857143 -2.142857142857143h12.989005714285714V2.142857142857143Zm4.285714285714286 2.142857142857143v12.989005714285714c0 1.1834742857142857 -0.9593828571428571 2.142857142857143 -2.142857142857143 2.142857142857143H4.285714285714286v9.164845714285715h12.989005714285714c1.1834742857142857 0 2.142857142857143 0.9593828571428571 2.142857142857143 2.142857142857143V43.714285714285715h9.164845714285715V30.725279999999998c0 -1.1834742857142857 0.9593828571428571 -2.142857142857143 2.142857142857143 -2.142857142857143H43.714285714285715V19.41757714285714H30.725279999999998c-1.1834742857142857 0 -2.142857142857143 -0.9593828571428571 -2.142857142857143 -2.142857142857143V4.285714285714286H19.41757714285714Z" clip-rule="evenodd" stroke-width="3.4286"></path>
  </g>
</svg>