<svg xmlns="http://www.w3.org/2000/svg" fill="none" viewBox="0 0 48 48" id="Megaphone-2--Streamline-Core-Remix" height="48" width="48">
  <desc>
    Megaphone 2 Streamline Icon: https://streamlinehq.com
  </desc>
  <g id="Free Remix/Interface Essential/megaphone-2--bullhorn-loud-megaphone-share-speaker-transmit">
    <path id="Union" fill="#000000" fill-rule="evenodd" d="M42.712114285714286 7.64910857142857c0.07474285714285714 -0.02338285714285714 0.15257142857142855 -0.03528 0.23108571428571428 -0.03528 0.42788571428571426 0 0.7748571428571428 0.3469028571428571 0.7748571428571428 0.774822857142857v27.794091428571427c0 0.42788571428571426 -0.34697142857142854 0.7748571428571428 -0.7748571428571428 0.7748571428571428 -0.07851428571428572 0 -0.15634285714285714 -0.012 -0.23108571428571428 -0.035314285714285715L17.737165714285712 29.117622857142855v-13.663885714285714l24.97494857142857 -7.80462857142857Zm0.23108571428571428 -4.320983999999999c-0.5118857142857142 0 -1.0210285714285714 0.07767085714285714 -1.5096 0.23035542857142854L15.267222857142857 11.735485714285714H10.548514285714285c-1.3854514285714286 0 -2.75736 0.27287999999999996 -4.037382857142857 0.8031085714285714 -1.2799885714285713 0.5301942857142857 -2.4430285714285715 1.3073142857142857 -3.4227222857142854 2.2869942857142855 -1.9785462857142857 1.978525714285714 -3.090083249142857 4.662034285714285 -3.090083249142857 7.460091428571428 0 1.3854857142857142 0.272889192 2.7573942857142852 0.8030855348571427 4.037417142857143 0.5301977142857143 1.2799885714285713 1.3073211428571427 2.4430285714285715 2.286997714285714 3.422708571428571 1.401168 1.4011885714285712 3.1558765714285713 2.367531428571428 5.054448 2.812217142857143V34.285714285714285c0 5.917371428571428 4.796948571428572 10.714285714285714 10.714285714285714 10.714285714285714 1.1834742857142857 0 2.142857142857143 -0.9593142857142857 2.142857142857143 -2.142857142857143s-0.9593828571428571 -2.142857142857143 -2.142857142857143 -2.142857142857143c-3.5503885714285714 0 -6.428571428571428 -2.878285714285714 -6.428571428571428 -6.428571428571428v-1.4498057142857141h2.8387885714285717l26.16624 8.177005714285714c0.4885714285714285 0.15257142857142855 0.9977142857142856 0.23039999999999997 1.5096 0.23039999999999997 2.7946285714285715 0 5.0605714285714285 -2.2656 5.0605714285714285 -5.0605714285714285V8.388651428571427c0 -2.7948342857142854 -2.265942857142857 -5.0605268571428565 -5.0605714285714285 -5.0605268571428565Z" clip-rule="evenodd" stroke-width="3.4286"></path>
  </g>
</svg>