<svg xmlns="http://www.w3.org/2000/svg" fill="none" viewBox="0 0 48 48" id="Microwave--Streamline-Core-Remix" height="48" width="48">
  <desc>
    Microwave Streamline Icon: https://streamlinehq.com
  </desc>
  <g id="Free Remix/Food Drink/microwave--cook-food-appliances-cooking-nutrition-appliance-microwave-kitchenware">
    <path id="Union" fill="#000000" fill-rule="evenodd" d="M4.285714285714286 39v-30h39.42857142857142v30H4.285714285714286Zm-0.42857142857142855 -34.285714285714285C1.726902857142857 4.714285714285714 0 6.441188571428571 0 8.571428571428571v30.857142857142854c0 2.1301714285714284 1.726902857142857 3.8571428571428568 3.8571428571428568 3.8571428571428568h40.285714285714285c2.1301714285714284 0 3.8571428571428568 -1.7269714285714286 3.8571428571428568 -3.8571428571428568v-30.857142857142854c0 -2.1302399999999997 -1.7269714285714286 -3.8571428571428568 -3.8571428571428568 -3.8571428571428568H3.8571428571428568Zm6.857142857142857 9.857142857142856h17.142857142857142c0.9467657142857142 0 1.7142857142857142 0.76752 1.7142857142857142 1.7142857142857142v15.428571428571427c0 0.9467657142857142 -0.76752 1.7142857142857142 -1.7142857142857142 1.7142857142857142h-17.142857142857142c-0.9467657142857142 0 -1.7142857142857142 -0.76752 -1.7142857142857142 -1.7142857142857142v-15.428571428571427c0 -0.9467657142857142 0.76752 -1.7142857142857142 1.7142857142857142 -1.7142857142857142Zm23.142857142857142 2.142857142857143c0 -1.1834742857142857 0.9593142857142857 -2.142857142857143 2.142857142857143 -2.142857142857143h2.142857142857143c1.183542857142857 0 2.142857142857143 0.9593828571428571 2.142857142857143 2.142857142857143s-0.9593142857142857 2.142857142857143 -2.142857142857143 2.142857142857143H36c-1.183542857142857 0 -2.142857142857143 -0.9593828571428571 -2.142857142857143 -2.142857142857143ZM36 21.428571428571427c-1.183542857142857 0 -2.142857142857143 0.9593828571428571 -2.142857142857143 2.142857142857143s0.9593142857142857 2.142857142857143 2.142857142857143 2.142857142857143h2.142857142857143c1.183542857142857 0 2.142857142857143 -0.9593828571428571 2.142857142857143 -2.142857142857143s-0.9593142857142857 -2.142857142857143 -2.142857142857143 -2.142857142857143H36Z" clip-rule="evenodd" stroke-width="3.4286"></path>
  </g>
</svg>