<svg xmlns="http://www.w3.org/2000/svg" fill="none" viewBox="0 0 48 48" id="Microscope-Observation-Sciene--Streamline-Core-Remix" height="48" width="48">
  <desc>
    Microscope Observation Sciene Streamline Icon: https://streamlinehq.com
  </desc>
  <g id="Free Remix/Health/microscope-observation-sciene">
    <path id="Union" fill="#000000" fill-rule="evenodd" d="M9 2.142857142857143c0 -1.1834674285714284 0.9593828571428571 -2.142857142857143 2.142857142857143 -2.142857142857143h6.857142857142857c1.1834742857142857 0 2.142857142857143 0.9593897142857143 2.142857142857143 2.142857142857143V6.857142857142857H22.285714285714285c0.09781714285714285 0 0.19412571428571426 0.006548571428571428 0.28848 0.019268571428571427h5.533542857142857C39.093942857142856 6.876411428571428 48 15.782468571428572 48 26.768674285714283V46.285714285714285c0 0.9466285714285714 -0.7676571428571428 1.7142857142857142 -1.7142857142857142 1.7142857142857142H2.142857142857143C0.9593897142857143 48 0 47.040685714285715 0 45.857142857142854s0.9593897142857143 -2.142857142857143 2.142857142857143 -2.142857142857143H22.285714285714285v-3.4285714285714284H5.571428571428571c-1.1834742857142857 0 -2.142857142857143 -0.9593142857142857 -2.142857142857143 -2.142857142857143s0.9593828571428571 -2.142857142857143 2.142857142857143 -2.142857142857143h32.976685714285715V27.52872c0 -6.098571428571429 -4.9439657142857145 -11.042434285714284 -11.042537142857142 -11.042434285714284H24.428571428571427V24c0 3.0744 -2.4773485714285712 5.574582857142857 -5.551645714285714 5.602765714285714l-8.430274285714285 0.07728C7.28928 29.708982857142857 4.714285714285714 27.15750857142857 4.714285714285714 24V9C4.714285714285714 7.816525714285714 5.673668571428571 6.857142857142857 6.857142857142857 6.857142857142857h2.142857142857143V2.142857142857143Zm6.857142857142857 2.142857142857143V6.857142857142857h-2.571428571428571v-2.571428571428571h2.571428571428571Zm2.142857142857143 6.857142857142857H9V24c0 0.7751999999999999 0.6321942857142857 1.4016342857142856 1.40736 1.394502857142857l8.430274285714285 -0.07728C19.560411428571427 25.31060571428571 20.142857142857142 24.722811428571426 20.142857142857142 24V11.142857142857142H18Z" clip-rule="evenodd" stroke-width="3.4286"></path>
  </g>
</svg>