<svg xmlns="http://www.w3.org/2000/svg" fill="none" viewBox="0 0 48 48" id="Milkshake--Streamline-Core-Remix" height="48" width="48">
  <desc>
    Milkshake Streamline Icon: https://streamlinehq.com
  </desc>
  <g id="Free Remix/Food Drink/milkshake--milkshake-drink-takeaway-cup-cold-beverage">
    <path id="Union" fill="#000000" fill-rule="evenodd" d="M42.65794285714286 3.65808c0.8369142857142857 -0.8368319999999999 0.8369142857142857 -2.193613714285714 0 -3.030452571428571 -0.8365714285714285 -0.8368367999999999 -2.1936 -0.8368371428571428 -3.0301714285714283 0L35.68114285714285 4.574057142857143C32.62368 1.7423451428571426 28.52869714285714 0 24 0 14.588468571428571 0 7.050034285714285 7.525028571428571 6.803862857142857 16.71428571428571H5.142857142857142c-1.1834742857142857 0 -2.142857142857143 0.9593828571428571 -2.142857142857143 2.142857142857143s0.9593828571428571 2.142857142857143 2.142857142857143 2.142857142857143h1.9009714285714285l1.7148342857142858 21.86434285714286C8.98608 45.7632 11.405005714285714 48 14.313051428571429 48h19.373897142857142c2.907908571428571 0 5.327108571428571 -2.2367999999999997 5.554422857142857 -5.135657142857142l1.7146285714285714 -21.86434285714286H42.857142857142854c1.183542857142857 0 2.142857142857143 -0.9593828571428571 2.142857142857143 -2.142857142857143s-0.9593142857142857 -2.142857142857143 -2.142857142857143 -2.142857142857143h-1.661142857142857c-0.08674285714285714 -3.242365714285714 -1.0813714285714287 -6.277542857142857 -2.745942857142857 -8.84808l4.207885714285714 -4.208125714285714ZM36.90788571428571 16.71428571428571C36.66034285714286 9.86976 31.025177142857146 4.285714285714286 24 4.285714285714286S11.339622857142857 9.86976 11.092114285714285 16.71428571428571h25.815771428571427Zm-25.56517714285714 4.285714285714286 0.6050399999999999 7.7142857142857135h24.104365714285713l0.6051428571428571 -7.7142857142857135H11.34270857142857Z" clip-rule="evenodd" stroke-width="3.4286"></path>
  </g>
</svg>