<svg xmlns="http://www.w3.org/2000/svg" fill="none" viewBox="0 0 48 48" id="Missed-Call--Streamline-Core-Remix" height="48" width="48">
  <desc>
    Missed Call Streamline Icon: https://streamlinehq.com
  </desc>
  <g id="Free Remix/Phone/missed-call--android-phone-mobile-device-smartphone-iphone-missed-call">
    <path id="Union" fill="#000000" fill-rule="evenodd" d="M17.27046857142857 0h9.068194285714286c0.45466285714285715 0 0.8907085714285714 0.18061165714285712 1.212205714285714 0.502104 0.32149714285714287 0.32149028571428573 0.5021142857142856 0.7575257142857142 0.5021142857142856 1.2121817142857143v9.06822857142857c0 0.69336 -0.4177028571428571 1.3184228571428571 -1.058262857142857 1.5837942857142857 -0.6405942857142857 0.2653371428571428 -1.377942857142857 0.11866285714285714 -1.8682285714285716 -0.37162285714285714l-2.416045714285714 -2.416045714285714L15.731759999999998 16.548685714285714c-2.509988571428571 2.5068685714285714 -6.576274285714286 2.5067314285714284 -9.086057142857143 -0.00034285714285714285L0.8810502857142857 10.789954285714284C-0.2911573714285714 9.619028571428572 -0.29219039999999996 7.719531428571427 0.878742857142857 6.547302857142856c1.1709325714285714 -1.1721942857142857 3.070422857142857 -1.1732228571428571 4.2426514285714285 -0.002297142857142857l5.76462857142857 5.758388571428571c0.16731428571428572 0.1671085714285714 0.43841142857142856 0.16714285714285715 0.6057257142857142 0l6.97608 -6.967405714285714 -2.4095314285714284 -2.409517714285714c-0.4902857142857142 -0.49028228571428567 -0.63696 -1.2276274285714284 -0.37162285714285714 -1.8682114285714286C15.952011428571426 0.41767542857142853 16.57710857142857 0 17.27046857142857 0Zm18.73878857142857 8.219451428571427c2.0108571428571427 -1.9893942857142854 5.307428571428571 -1.9893942857142854 7.3182857142857145 0l0 -0.00003428571428571428 0.008228571428571427 0.008125714285714286 1.2665142857142857 1.2666857142857142c3.7512 3.648137142857143 4.466399999999999 9.556594285714285 1.6916571428571427 13.994434285714286 -0.013028571428571428 0.02057142857142857 -0.026057142857142855 0.04093714285714285 -0.03977142857142857 0.06109714285714285 -6.017485714285714 8.934034285714285 -13.704822857142856 16.621097142857142 -22.63889142857143 22.638925714285712l0.00027428571428571427 0.00034285714285714285 -0.03726857142857142 0.024c-4.396114285714286 2.8306285714285715 -10.307691428571427 2.199085714285714 -14.00664 -1.4962285714285715l-0.0007542857142857143 -0.0006857142857142857 -1.2777942857142857 -1.2778285714285713 -0.008125714285714286 -0.008228571428571427c-1.98936 -2.0108571428571427 -1.98936 -5.307428571428571 0 -7.3182857142857145l-0.00003428571428571428 0 0.012925714285714285 -0.012685714285714286 5.3787771428571425 -5.34528 1.0804114285714286 -0.8211085714285714c-0.0005485714285714285 0.00030857142857142856 -0.001097142857142857 0.0006171428571428571 -0.0016799999999999999 0.0009599999999999999l-1.0773257142857142 0.8187428571428571c0.3281828571428571 -0.3265028571428571 0.6910971428571429 -0.5994171428571429 1.0773257142857142 -0.8187428571428571L29.52867428571428 18.706285714285716c-0.5009828571428571 -1.745142857142857 -0.0756 -3.7119771428571426 1.2762171428571427 -5.080594285714286L35.97257142857143 8.25678857142857l0.03668571428571428 -0.03733714285714285Zm2.213142857142857 3.879702857142857L29.52867428571428 18.706285714285716c0 0.00003428571428571428 0 0.00010285714285714286 0.00003428571428571428 0.00013714285714285713l8.693691428571428 -6.607062857142857 0 -0.00020571428571428572Zm1.4290285714285713 -1.085897142857143 3.6761142857142857 -2.7938057142857144 -3.6761142857142857 2.7938057142857144c0.2417142857142857 -0.0041142857142857136 0.48479999999999995 0.07926857142857142 0.6593142857142856 0.25008l1.272342857142857 1.27248 0.023657142857142856 0.02352 0 -0.00020571428571428572c2.3029714285714284 2.232617142857143 2.7565714285714287 5.90208 1.0714285714285714 8.62848 -5.701714285714286 8.455954285714286 -12.980502857142856 15.733302857142855 -21.43762285714286 21.433302857142856 -2.698765714285714 1.725942857142857 -6.371657142857143 1.3292571428571427 -8.639177142857143 -0.9353142857142857l-0.0007199999999999999 -0.0006857142857142857 -1.2689828571428572 -1.2689142857142857 -0.0028457142857142856 -0.002742857142857143c-0.33301714285714284 -0.3401142857142857 -0.3335314285714286 -0.9418285714285713 -0.0015428571428571427 -1.2826285714285712l5.371714285714286 -5.338285714285714 0.0014399999999999999 -0.0014399999999999999c0.32845714285714284 -0.32705142857142855 0.91824 -0.32705142857142855 1.2467314285714286 0l0.004834285714285714 0.0048c2.0108914285714286 1.9893257142857141 5.3073942857142855 1.9893257142857141 7.3182857142857145 0l0.008194285714285715 -0.00809142857142857 -0.00003428571428571428 -0.00003428571428571428 8.574685714285714 -8.574685714285714 0.00816 -0.008125714285714286 -0.00003428571428571428 -0.00003428571428571428c1.9892571428571428 -2.0108914285714286 1.9892571428571428 -5.3073942857142855 0 -7.3182857142857145l-0.0048 -0.004834285714285714c-0.32705142857142855 -0.32845714285714284 -0.32705142857142855 -0.9182742857142857 0 -1.2467314285714286l0.025577142857142854 -0.025679999999999998 -0.00023999999999999998 -0.00020571428571428572 4.340605714285714 -4.509634285714285 1.4290285714285713 -1.086102857142857Zm0 0 -1.4290285714285713 1.085897142857143 0.8139428571428571 -0.8455542857142857c0.16525714285714285 -0.15637714285714285 0.38948571428571427 -0.23650285714285713 0.6150857142857142 -0.2403428571428571ZM29.528708571428567 18.706422857142854l-14.77165714285714 11.226274285714284c1.9674514285714286 -1.116342857142857 4.53984 -0.8434285714285714 6.211508571428571 0.8187085714285713 0.34049142857142856 0.3340457142857143 0.944022857142857 0.3341485714285714 1.2847542857142857 0.00037714285714285714l8.564022857142858 -8.564022857142858c0.3345942857142857 -0.34152 0.33363428571428566 -0.9471085714285713 -0.002777142857142857 -1.2871885714285713l1.5233485714285713 -1.507062857142857 -1.5185485714285714 1.5118971428571426c-0.6285942857142857 -0.6313371428571428 -1.0588114285714285 -1.391417142857143 -1.2906514285714286 -2.198982857142857Z" clip-rule="evenodd" stroke-width="3.4286"></path>
  </g>
</svg>