<svg xmlns="http://www.w3.org/2000/svg" fill="none" viewBox="0 0 48 48" id="Mobile-Phone-Camera--Streamline-Core-Remix" height="48" width="48">
  <desc>
    Mobile Phone Camera Streamline Icon: https://streamlinehq.com
  </desc>
  <g id="Free Remix/Images Photography/mobile-phone-camera--photos-photo-picture-photography-camera-pictures-phone">
    <path id="Union" fill="#000000" fill-rule="evenodd" d="M5.571428571428571 4.285714285714286c-0.7100914285714285 0 -1.2857142857142856 0.5756228571428571 -1.2857142857142856 1.2857142857142856v36.857142857142854c0 0.7100571428571428 0.5756228571428571 1.2857142857142856 1.2857142857142856 1.2857142857142856h23.142857142857142c0.7100914285714285 0 1.2857142857142856 -0.5756571428571428 1.2857142857142856 -1.2857142857142856V30.857142857142854c0 -1.1834742857142857 0.9593828571428571 -2.142857142857143 2.142857142857143 -2.142857142857143S34.285714285714285 29.67366857142857 34.285714285714285 30.857142857142854v11.571428571428571C34.285714285714285 45.505714285714284 31.79129142857143 48 28.71428571428571 48h-23.142857142857142C2.494412571428571 48 0 45.505714285714284 0 42.42857142857142V5.571428571428571C0 2.494412571428571 2.494412571428571 0 5.571428571428571 0h9.428571428571429C16.183474285714286 0 17.142857142857142 0.9593897142857143 17.142857142857142 2.142857142857143s-0.9593828571428571 2.142857142857143 -2.142857142857143 2.142857142857143h-9.428571428571429Zm7.285714285714286 32.57142857142857c0 -1.4201142857142857 1.1512799999999999 -2.571428571428571 2.571428571428571 -2.571428571428571h3.4285714285714284c1.4201485714285715 0 2.571428571428571 1.1513142857142855 2.571428571428571 2.571428571428571s-1.1512799999999999 2.571428571428571 -2.571428571428571 2.571428571428571h-3.4285714285714284c-1.4201485714285715 0 -2.571428571428571 -1.1513142857142855 -2.571428571428571 -2.571428571428571ZM29.430754285714286 0.7633714285714285C29.74872 0.28645919999999997 30.283954285714284 0 30.857142857142854 0h6.857142857142857c0.5732571428571428 0 1.1084571428571428 0.28645919999999997 1.4262857142857142 0.7633714285714285L42.06034285714286 5.142857142857142H42.857142857142854c1.3638857142857141 0 2.672228571428571 0.5418514285714285 3.636685714285714 1.5063085714285713S48 8.921725714285714 48 10.285714285714285v8.571428571428571c0 1.3639885714285713 -0.5417142857142857 2.6720914285714286 -1.5061714285714285 3.636548571428571C45.52937142857143 23.45814857142857 44.22102857142857 24 42.857142857142854 24h-17.142857142857142c-1.3639885714285713 0 -2.6720914285714286 -0.5418514285714285 -3.636548571428571 -1.5063085714285713C21.11328 21.529234285714285 20.57142857142857 20.22113142857143 20.57142857142857 18.857142857142858V10.285714285714285c0 -1.3639885714285713 0.5418514285714285 -2.6720914285714286 1.5063085714285713 -3.636548571428571C23.042194285714285 5.684708571428571 24.350331428571426 5.142857142857142 25.71428571428571 5.142857142857142h0.7968342857142857L29.430754285714286 0.7633714285714285ZM30.428571428571427 13.714285714285714c0 2.1302399999999997 1.726902857142857 3.8571428571428568 3.8571428571428568 3.8571428571428568 2.1305142857142854 0 3.8571428571428568 -1.726902857142857 3.8571428571428568 -3.8571428571428568S36.41622857142857 9.857142857142856 34.285714285714285 9.857142857142856c-2.1302399999999997 0 -3.8571428571428568 1.726902857142857 -3.8571428571428568 3.8571428571428568Z" clip-rule="evenodd" stroke-width="3.4286"></path>
  </g>
</svg>