<svg xmlns="http://www.w3.org/2000/svg" fill="none" viewBox="0 0 48 48" id="Module-Three--Streamline-Core-Remix" height="48" width="48">
  <desc>
    Module Three Streamline Icon: https://streamlinehq.com
  </desc>
  <g id="Free Remix/Programming/Programming/Modules/module-three--code-three-module-programming-plugin">
    <path id="Union" fill="#000000" fill-rule="evenodd" d="M16.73142857142857 0c-2.1302399999999997 0 -3.8571428571428568 1.726902857142857 -3.8571428571428568 3.8571428571428568v14.571428571428571c0 2.1302399999999997 1.726902857142857 3.8571428571428568 3.8571428571428568 3.8571428571428568h14.571428571428571c2.1302742857142856 0 3.8571428571428568 -1.726902857142857 3.8571428571428568 -3.8571428571428568v-14.571428571428571C35.160000000000004 1.726902857142857 33.43313142857142 0 31.302857142857142 0H16.73142857142857ZM4.285714285714286 43.714285714285715v-13.714285714285714h13.714285714285714v13.714285714285714h-13.714285714285714ZM3.8571428571428568 25.71428571428571C1.726902857142857 25.71428571428571 0 27.44118857142857 0 29.57142857142857v14.571428571428571C0 46.27302857142857 1.726902857142857 48 3.8571428571428568 48h14.571428571428571c2.1302399999999997 0 3.8571428571428568 -1.7269714285714286 3.8571428571428568 -3.8571428571428568v-14.571428571428571c0 -2.1302399999999997 -1.726902857142857 -3.8571428571428568 -3.8571428571428568 -3.8571428571428568h-14.571428571428571ZM30 30v13.714285714285714h13.714285714285714v-13.714285714285714h-13.714285714285714ZM25.71428571428571 29.57142857142857c0 -2.1302399999999997 1.726902857142857 -3.8571428571428568 3.8571428571428568 -3.8571428571428568h14.571428571428571c2.1301714285714284 0 3.8571428571428568 1.726902857142857 3.8571428571428568 3.8571428571428568v14.571428571428571c0 2.1301714285714284 -1.7269714285714286 3.8571428571428568 -3.8571428571428568 3.8571428571428568h-14.571428571428571c-2.1302399999999997 0 -3.8571428571428568 -1.7269714285714286 -3.8571428571428568 -3.8571428571428568v-14.571428571428571Z" clip-rule="evenodd" stroke-width="3.4286"></path>
  </g>
</svg>