<svg xmlns="http://www.w3.org/2000/svg" fill="none" viewBox="0 0 48 48" id="Module-Puzzle-3--Streamline-Core-Remix" height="48" width="48">
  <desc>
    Module Puzzle 3 Streamline Icon: https://streamlinehq.com
  </desc>
  <g id="Free Remix/Programming/Programming/Modules/module-puzzle-3--code-puzzle-module-programming-plugin-piece">
    <path id="Union" fill="#000000" fill-rule="evenodd" d="M1.2857142857142856 6.857142857142857C1.2857142857142856 3.780137142857143 3.780137142857143 1.2857142857142856 6.857142857142857 1.2857142857142856h34.285714285714285c3.077142857142857 0 5.571428571428571 2.494422857142857 5.571428571428571 5.571428571428571v34.285714285714285c0 3.077142857142857 -2.494285714285714 5.571428571428571 -5.571428571428571 5.571428571428571H6.857142857142857c-3.0770057142857143 0 -5.571428571428571 -2.494285714285714 -5.571428571428571 -5.571428571428571V6.857142857142857Zm4.285714285714286 34.285714285714285V24h4.6044c-0.7517142857142857 0.8398628571428571 -1.2088114285714284 1.9489714285714286 -1.2088114285714284 3.1648457142857143 0 2.6218285714285714 2.1254399999999998 4.747234285714285 4.747268571428571 4.747234285714285 2.6218285714285714 0 4.747268571428571 -2.125405714285714 4.747268571428571 -4.747234285714285 0 -1.2158742857142857 -0.4570971428571428 -2.324982857142857 -1.2088114285714284 -3.1648457142857143H24l0 6.747257142857142c0.8398971428571428 -0.7517142857142857 1.9489714285714286 -1.2087771428571428 3.1648457142857143 -1.2087771428571428 2.6218285714285714 0 4.747234285714285 2.125405714285714 4.747234285714285 4.747234285714285 0 2.6218285714285714 -2.125405714285714 4.7472 -4.747234285714285 4.7472 -1.2158742857142857 0 -2.324948571428571 -0.4570285714285714 -3.1648457142857143 -1.2085714285714284v4.604228571428571H6.857142857142857c-0.7100914285714285 0 -1.2857142857142856 -0.5756571428571428 -1.2857142857142856 -1.2857142857142856Zm36.857142857142854 -17.142857142857142h-4.604571428571428c0.7518857142857143 -0.8398628571428571 1.2089142857142858 -1.9489714285714286 1.2089142857142858 -3.1648457142857143 0 -2.6218285714285714 -2.1253714285714285 -4.747234285714285 -4.7472 -4.747234285714285s-4.747268571428571 2.125405714285714 -4.747268571428571 4.747234285714285c0 1.2158742857142857 0.4570971428571428 2.324982857142857 1.2088114285714284 3.1648457142857143L24 24l0 -6.747257142857142c-0.8398971428571428 0.7517142857142857 -1.9489714285714286 1.2088114285714284 -3.1648457142857143 1.2088114285714284 -2.6218285714285714 0 -4.747234285714285 -2.1254399999999998 -4.747234285714285 -4.747268571428571 0 -2.6218285714285714 2.125405714285714 -4.747268571428571 4.747234285714285 -4.747268571428571 1.2158742857142857 0 2.324948571428571 0.4570971428571428 3.1648457142857143 1.2088114285714284V5.571428571428571h17.142857142857142c0.7100571428571428 0 1.2857142857142856 0.5756228571428571 1.2857142857142856 1.2857142857142856v17.142857142857142Z" clip-rule="evenodd" stroke-width="3.4286"></path>
  </g>
</svg>