<svg xmlns="http://www.w3.org/2000/svg" fill="none" viewBox="0 0 48 48" id="Module-Puzzle-1--Streamline-Core-Remix" height="48" width="48">
  <desc>
    Module Puzzle 1 Streamline Icon: https://streamlinehq.com
  </desc>
  <g id="Free Remix/Programming/Programming/Modules/module-puzzle-1--code-puzzle-module-programming-plugin-piece">
    <path id="Vector (Stroke)" fill="#000000" fill-rule="evenodd" d="M23.933005714285713 4.282354285714286c0.014399999999999998 0 0.028628571428571427 0.0030514285714285713 0.04176 0.008948571428571427 0.013131428571428572 0.005862857142857142 0.02489142857142857 0.014468571428571428 0.03445714285714285 0.025234285714285713 0.028422857142857142 0.031851428571428565 0.05780571428571428 0.06287999999999999 0.08808 0.09298285714285713l6.131931428571429 6.098434285714285c0.5998628571428571 0.5965714285714285 1.494582857142857 0.7843885714285714 2.2836685714285716 0.47934857142857135 0.7891199999999999 -0.30504 1.3249028571428572 -1.0458171428571428 1.3675199999999998 -1.8907542857142856 0.057839999999999996 -1.1466857142857143 0.5462057142857143 -2.2293257142857144 1.3676914285714286 -3.031542857142857l-1.49736 -1.5329828571428572 1.5151885714285713 1.515222857142857c0.8866285714285713 -0.8867314285714286 2.0893714285714284 -1.3848685714285713 3.343542857142857 -1.3848685714285713 1.2538285714285715 0 2.4565714285714284 0.49813714285714283 3.3431999999999995 1.3848685714285713 0.8866285714285713 0.8867314285714286 1.3847999999999998 2.0894057142857143 1.3847999999999998 3.3434057142857143 0 1.2540342857142857 -0.4981714285714286 2.4566742857142856 -1.3847999999999998 3.3434057142857143l-0.017828571428571426 0.017862857142857142 0 0.00010285714285714286c-0.8019428571428571 0.8213485714285713 -1.884685714285714 1.3097485714285715 -3.0311999999999997 1.3675885714285714 -0.8492571428571428 0.04285714285714286 -1.5929142857142857 0.5837828571428572 -1.8953142857142855 1.3785942857142857 -0.30205714285714286 0.7947771428571427 -0.1056 1.6930628571428572 0.5005714285714286 2.289325714285714l6.0984 5.997908571428571c0.024685714285714283 0.02441142857142857 0.050057142857142856 0.04820571428571428 0.07611428571428572 0.07138285714285715 0.010628571428571428 0.009565714285714285 0.019542857142857143 0.021325714285714285 0.025371428571428573 0.03445714285714285 0.005828571428571428 0.013131428571428572 0.008914285714285713 0.027359999999999995 0.008914285714285713 0.04176 0 0.014399999999999998 -0.0030857142857142854 0.02866285714285714 -0.008914285714285713 0.04179428571428571s-0.014742857142857143 0.02489142857142857 -0.025371428571428573 0.03445714285714285c-0.030514285714285713 0.02712 -0.060000000000000005 0.05509714285714286 -0.08879999999999999 0.08393142857142856l-3.3620571428571426 3.3620571428571426c-0.029142857142857144 -0.03078857142857143 -0.058628571428571426 -0.06140571428571428 -0.08811428571428571 -0.09181714285714286l-0.014742857142857143 -0.014845714285714283 0 0.00006857142857142857c-1.6933714285714285 -1.7051657142857142 -3.9949714285714286 -2.6677371428571424 -6.398194285714285 -2.6759657142857143 -2.403222857142857 -0.008228571428571427 -4.711268571428572 0.9385371428571427 -6.416434285714285 2.6320799999999998 -1.7051314285714285 1.6935085714285714 -2.667702857142857 3.9950399999999995 -2.6759314285714284 6.398262857142857 -0.008228571428571427 2.403222857142857 0.9385371428571427 4.7113371428571424 2.6320457142857143 6.416365714285714l0.02496 0.025028571428571428 0.00020571428571428572 0c0.042377142857142856 0.04114285714285714 0.08516571428571429 0.08228571428571428 0.12829714285714286 0.12274285714285713l-3.2272799999999995 3.357942857142857c-0.018411428571428568 0.0192 -0.03644571428571428 0.03874285714285714 -0.05410285714285713 0.058628571428571426 -0.0096 0.010628571428571428 -0.021325714285714285 0.0192 -0.03449142857142857 0.025028571428571428 -0.013131428571428572 0.005828571428571428 -0.027359999999999995 0.008914285714285713 -0.04176 0.008914285714285713 -0.014399999999999998 0 -0.028628571428571427 -0.0030857142857142854 -0.04176 -0.008914285714285713s-0.02489142857142857 -0.014399999999999998 -0.03445714285714285 -0.025028571428571428c-0.028422857142857142 -0.03188571428571428 -0.05780571428571428 -0.06308571428571429 -0.08808 -0.09325714285714284l-6.131931428571429 -6.0984c-0.5970857142857142 -0.5938285714285714 -1.4866971428571427 -0.7827428571428571 -2.2736914285714285 -0.48308571428571423 -0.7869942857142856 0.29965714285714284 -1.3254857142857142 1.0326857142857142 -1.3763314285714285 1.8730285714285713 -0.05492571428571428 0.9089142857142857 -0.3712114285714286 1.7825142857142857 -0.9107999999999999 2.515885714285714 -0.5395885714285714 0.7333714285714286 -1.2795085714285714 1.2953142857142856 -2.1307885714285715 1.617942857142857 -0.8513142857142857 0.3229714285714286 -1.7777485714285715 0.3932571428571428 -2.6679085714285713 0.20194285714285715 -0.8901942857142856 -0.19097142857142857 -1.7062285714285712 -0.6349714285714285 -2.3500114285714284 -1.2788571428571427 -0.6438171428571429 -0.6438857142857143 -1.0879542857142857 -1.4598857142857142 -1.2790285714285714 -2.349942857142857 -0.1910742857142857 -0.8903999999999999 -0.12099428571428572 -1.8168 0.2018742857142857 -2.6681142857142857 0.32286857142857145 -0.8513142857142857 0.884742857142857 -1.5912 1.61808 -2.130857142857143 0.7333371428571428 -0.5394857142857142 1.6069371428571428 -0.8557714285714285 2.5157142857142856 -0.9107314285714284 0.8449028571428572 -0.05108571428571428 1.5805371428571429 -0.59472 1.8774171428571427 -1.3874057142857144 0.29684571428571427 -0.7926514285714286 0.09929142857142856 -1.6857942857142856 -0.5041714285714285 -2.2793142857142854l-6.0984 -5.997908571428571c-0.02482285714285714 -0.02441142857142857 -0.05022857142857143 -0.04820571428571428 -0.07618285714285714 -0.07138285714285715 -0.010765714285714285 -0.009565714285714285 -0.019337142857142855 -0.021325714285714285 -0.025234285714285713 -0.03445714285714285 -0.005897142857142857 -0.013131428571428572 -0.008948571428571427 -0.027359999999999995 -0.008948571428571427 -0.04176 0 -0.014399999999999998 0.0030514285714285713 -0.02866285714285714 0.008948571428571427 -0.04179428571428571s0.014468571428571428 -0.02489142857142857 0.025234285714285713 -0.03445714285714285c0.02694857142857143 -0.02406857142857143 0.05331428571428571 -0.048788571428571424 0.07902857142857143 -0.07419428571428571l3.4276114285714288 -3.3836914285714284c0.03291428571428571 0.03483428571428571 0.06606857142857142 0.06939428571428571 0.09953142857142856 0.1037142857142857 0.03017142857142857 0.03099428571428571 0.06130285714285714 0.06106285714285714 0.09329142857142857 0.09017142857142857 1.7199428571428572 1.5639771428571427 3.9760114285714283 2.405725714285714 6.300102857142857 2.3505942857142856 2.3240571428571424 -0.05516571428571428 4.537645714285714 -1.0029942857142857 6.181474285714285 -2.646822857142857 1.6437942857142855 -1.6438285714285712 2.591622857142857 -3.8574514285714283 2.6467885714285715 -6.181508571428571 0.05516571428571428 -2.3240571428571424 -0.7865828571428571 -4.580125714285714 -2.3505599999999998 -6.300102857142857 -0.029108571428571425 -0.03198857142857143 -0.05917714285714286 -0.06308571428571429 -0.09017142857142857 -0.09329142857142857 -0.042377142857142856 -0.04128 -0.08513142857142857 -0.08218285714285714 -0.12826285714285712 -0.12264l3.227245714285714 -3.3581142857142856c0.018411428571428568 -0.01913142857142857 0.03644571428571428 -0.03860571428571428 0.05410285714285713 -0.05842285714285714 0.0096 -0.010765714285714285 0.02136 -0.01937142857142857 0.03449142857142857 -0.025234285714285713 0.013131428571428572 -0.005897142857142857 0.027359999999999995 -0.008948571428571427 0.04176 -0.008948571428571427ZM32.24444571428571 3.0078754285714284c-0.5967428571428571 0.5845131428571428 -1.1025599999999998 1.245438857142857 -1.5074742857142858 1.9606388571428568L27.15733714285714 1.4084502857142855C26.755165714285713 0.9727337142857143 26.268685714285713 0.622848 25.72710857142857 0.3801942857142857c-0.5643428571428571 -0.2528386285714285 -1.1757257142857143 -0.3835424982857143 -1.794102857142857 -0.3835424982857143 -0.6183771428571428 0 -1.22976 0.13070386971428571 -1.794102857142857 0.3835424982857143 -0.5501828571428571 0.246504 -1.04352 0.603672 -1.449325714285714 1.0490674285714285L15.753462857142857 6.5655085714285715c-0.4752685714285714 0.49453714285714284 -0.6850971428571428 1.1866971428571427 -0.5644114285714285 1.8618857142857144 0.12068571428571429 0.6751885714285714 0.5573142857142857 1.2518057142857142 1.1744571428571429 1.5510857142857142 0.4781485714285714 0.23184 0.9174857142857142 0.5360914285714286 1.302582857142857 0.9018514285714285 0.7953257142857143 0.8987999999999999 1.2223199999999999 2.06568 1.1937942857142856 3.26712 -0.029005714285714287 1.222902857142857 -0.52776 2.3877257142857142 -1.3927542857142858 3.25272 -0.86496 0.86496 -2.029782857142857 1.3637142857142857 -3.252685714285714 1.3927542857142858 -1.2014057142857142 0.02849142857142857 -2.36832 -0.3984685714285714 -3.267085714285714 -1.1938285714285715 -0.36576 -0.38509714285714286 -0.6700114285714286 -0.8244342857142857 -0.9018514285714285 -1.302582857142857 -0.3014742857142857 -0.6217028571428571 -0.884262857142857 -1.0599085714285714 -1.5652457142857141 -1.1769257142857144 -0.6809828571428571 -0.11701714285714285 -1.3765714285714286 0.10152 -1.8682971428571427 0.5869371428571428L1.4169257142857143 20.83494857142857c-0.4396422857142857 0.40368 -0.7924834285714286 0.8929714285714285 -1.0367005714285713 1.4380457142857144 -0.25283588571428567 0.5643085714285714 -0.38354066057142855 1.1757257142857143 -0.38354066057142855 1.794102857142857 0 0.6183771428571428 0.13070477485714285 1.22976 0.38354066057142855 1.7940685714285713 0.2445325714285714 0.5457942857142857 0.5979668571428571 1.0356342857142857 1.0384011428571427 1.4395885714285712L4.942388571428571 30.76645714285714c-0.3032228571428571 0.17273142857142856 -0.5971542857142856 0.36353142857142856 -0.8801485714285714 0.5717142857142857 -1.3983085714285712 1.0289142857142857 -2.4696925714285713 2.4397714285714285 -3.0853234285714284 4.062857142857143 -0.6156308571428571 1.6234285714285712 -0.7493002285714285 3.389828571428571 -0.38494285714285714 5.087314285714285 0.36436114285714283 1.697485714285714 1.2112354285714286 3.253371428571428 2.4388182857142855 4.481142857142856 1.2275622857142856 1.2274285714285713 2.7836194285714284 2.0742857142857143 4.481002285714285 2.438742857142857 1.697382857142857 0.36445714285714287 3.46392 0.23074285714285714 5.087142857142856 -0.3850285714285714 1.6232571428571427 -0.6154285714285713 3.0341142857142858 -1.6868571428571428 4.062994285714286 -3.0853714285714284 0.2163085714285714 -0.2938285714285714 0.4137942857142857 -0.5996571428571428 0.5918057142857143 -0.9154285714285715l3.58896 3.5691428571428565c0.40217142857142857 0.43577142857142853 0.8886514285714284 0.7858285714285713 1.430262857142857 1.0285714285714285 0.5643085714285714 0.2526857142857143 1.1756914285714284 0.38331428571428566 1.7940685714285713 0.38331428571428566 0.6183771428571428 0 1.22976 -0.13062857142857143 1.794102857142857 -0.38331428571428566 0.5501828571428571 -0.2465142857142857 1.04352 -0.6037714285714285 1.44936 -1.0491428571428572l4.93608 -5.136342857142857c0.4752685714285714 -0.49439999999999995 0.6850971428571428 -1.1866285714285714 0.5644114285714285 -1.8620571428571429 -0.12068571428571429 -0.6750857142857142 -0.5573142857142857 -1.2517714285714285 -1.1744571428571429 -1.550742857142857 -0.49241142857142856 -0.23897142857142856 -0.9436457142857142 -0.5544 -1.3369028571428572 -0.9349714285714286 -0.8847771428571428 -0.8972571428571428 -1.3791085714285714 -2.1085714285714285 -1.3747885714285715 -3.3691199999999997 0.00432 -1.2665828571428572 0.5116457142857143 -2.479577142857143 1.4103085714285712 -3.3721371428571425 0.8986971428571429 -0.89256 2.1151199999999997 -1.3915542857142857 3.381702857142857 -1.3872 1.2631542857142857 0.00432 2.4730971428571427 0.5089371428571428 3.364868571428571 1.4030742857142855 0.38262857142857143 0.39449142857142855 0.7001142857142857 0.8475428571428572 0.9397714285714286 1.3421485714285712 0.30274285714285715 0.6238971428571428 0.8883428571428571 1.0628571428571427 1.572 1.1780914285714286 0.684 0.1152342857142857 1.3810285714285713 -0.10751999999999999 1.8713142857142855 -0.5978399999999999l5.124342857142857 -5.124137142857142c0.4368 -0.40261714285714284 0.7875428571428571 -0.8899542857142857 1.0306285714285712 -1.4325942857142855 0.25302857142857144 -0.5643428571428571 0.3836571428571428 -1.1757257142857143 0.3836571428571428 -1.794102857142857 0 -0.6183771428571428 -0.13062857142857143 -1.22976 -0.3836571428571428 -1.7940685714285713 -0.24445714285714285 -0.5457942857142857 -0.5979428571428571 -1.0356342857142857 -1.0385142857142857 -1.4395885714285712l-3.514285714285714 -3.456514285714286c0.7014857142857143 -0.4014857142857142 1.3501714285714284 -0.9004114285714286 1.925142857142857 -1.4872457142857143 1.6847999999999999 -1.6896 2.6310857142857142 -3.97848 2.6310857142857142 -6.364971428571428 0 -2.39064 -0.9493714285714284 -4.683394285714286 -2.64 -6.373851428571428 -1.6902857142857142 -1.6904537142857143 -3.983314285714285 -2.6401405714285713 -6.373714285714286 -2.6401405714285713 -2.3866285714285715 0 -4.675439999999999 0.946344 -6.36504 2.6312159999999998Z" clip-rule="evenodd" stroke-width="3.4286"></path>
  </g>
</svg>