<svg xmlns="http://www.w3.org/2000/svg" fill="none" viewBox="0 0 48 48" id="Moon-Cloud--Streamline-Core-Remix" height="48" width="48">
  <desc>
    Moon Cloud Streamline Icon: https://streamlinehq.com
  </desc>
  <g id="Free Remix/Interface Essential/moon-cloud--cloud-meteorology-cloudy-partly-sunny-weather">
    <path id="Union" fill="#000000" fill-rule="evenodd" d="M34.88845714285714 4.1048228571428576c0.2393142857142857 -0.5572457142857142 0.1662857142857143 -1.1994034285714286 -0.192 -1.6887531428571427 -0.35828571428571426 -0.4893497142857142 -0.9482742857142856 -0.7530479999999999 -1.5517371428571427 -0.6934697142857142C27.075668571428572 2.321736 22.335942857142854 7.438354285714285 22.335942857142854 13.664091428571428c0 0.6385371428571428 0.049851428571428574 1.2654171428571428 0.14592 1.8769714285714285 2.9593371428571427 1.2273257142857144 5.527782857142857 3.2030742857142855 7.470685714285714 5.687794285714285 0.851862857142857 -0.1504457142857143 1.7272114285714286 -0.22885714285714287 2.61888 -0.22885714285714287 3.142285714285714 0 6.058971428571429 0.9662742857142858 8.469257142857144 2.61792 2.8841142857142854 -1.946777142857143 4.876457142857142 -5.1145371428571424 5.2368 -8.762605714285714 0.05965714285714285 -0.6034971428571428 -0.20434285714285713 -1.1935542857142856 -0.6936 -1.5517371428571427 -0.48925714285714283 -0.3581828571428571 -1.1314285714285715 -0.4311428571428571 -1.6885714285714284 -0.19193142857142856 -0.8269714285714285 0.35499428571428565 -1.7393142857142856 0.5524457142857142 -2.7024 0.5524457142857142 -3.786857142857143 0 -6.857142857142857 -3.070045714285714 -6.857142857142857 -6.857142857142857 0 -0.9628799999999998 0.19748571428571426 -1.8751885714285714 0.5526857142857143 -2.7021257142857142ZM5.571428571428571 32.57142857142857c0 -5.443954285714286 4.413188571428571 -9.857142857142856 9.857142857142856 -9.857142857142856 4.558937142857142 0 8.4 3.096822857142857 9.52416 7.3051885714285705 0.1896685714285714 0.7100914285714285 0.7300457142857143 1.27344 1.4316342857142856 1.492457142857143 0.7015885714285715 0.21905142857142856 1.466502857142857 0.06325714285714286 2.0264914285714286 -0.41279999999999994 1.1223771428571427 -0.9540685714285715 2.5717371428571427 -1.527702857142857 4.160571428571428 -1.527702857142857 3.5502857142857143 0 6.428571428571428 2.878182857142857 6.428571428571428 6.428571428571428 0 3.5502857142857143 -2.878285714285714 6.428571428571428 -6.428571428571428 6.428571428571428h-17.142857142857142c-5.443954285714286 0 -9.857142857142856 -4.413257142857142 -9.857142857142856 -9.857142857142856ZM15.428571428571427 18.428571428571427C7.6177028571428576 18.428571428571427 1.2857142857142856 24.760559999999998 1.2857142857142856 32.57142857142857c0 7.8109714285714285 6.331988571428571 14.142857142857142 14.142857142857142 14.142857142857142h17.142857142857142c5.917371428571428 0 10.714285714285714 -4.796914285714285 10.714285714285714 -10.714285714285714 0 -5.917337142857142 -4.796914285714285 -10.714285714285714 -10.714285714285714 -10.714285714285714 -1.5985371428571427 0 -3.117051428571428 0.3510857142857143 -4.480868571428571 0.9797485714285714C25.77284571428571 21.620434285714285 20.97541714285714 18.428571428571427 15.428571428571427 18.428571428571427Z" clip-rule="evenodd" stroke-width="3.4286"></path>
  </g>
</svg>