<svg xmlns="http://www.w3.org/2000/svg" fill="none" viewBox="0 0 48 48" id="Mouse--Streamline-Core-Remix" height="48" width="48">
  <desc>
    Mouse Streamline Icon: https://streamlinehq.com
  </desc>
  <g id="Free Remix/Computer Devices/mouse--device-electronics-mouse">
    <path id="Union" fill="#000000" fill-rule="evenodd" d="M19.395737142857143 8.749885714285714C19.909234285714287 6.203314285714285 22.159234285714287 4.285714285714286 24.857142857142854 4.285714285714286c3.0770057142857143 0 5.571428571428571 2.494422857142857 5.571428571428571 5.571428571428571v2.571428571428571c0 4.023805714285714 3.261942857142857 7.285714285714286 7.285714285714286 7.285714285714286s7.285714285714286 -3.261942857142857 7.285714285714286 -7.285714285714286v-10.285714285714285c0 -1.1834674285714284 -0.9593142857142857 -2.142857142857143 -2.142857142857143 -2.142857142857143s-2.142857142857143 0.9593897142857143 -2.142857142857143 2.142857142857143v10.285714285714285c0 1.6568571428571428 -1.3433142857142857 3 -3 3s-3 -1.343142857142857 -3 -3v-2.571428571428571C34.714285714285715 4.413188571428571 30.301097142857145 0 24.857142857142854 0 19.796742857142856 0 15.62694857142857 3.813257142857143 15.064525714285713 8.723074285714286 8.23896 9.728262857142857 3 15.609462857142857 3 22.71428571428571v11.142857142857142C3 41.66811428571428 9.331988571428571 48 17.142857142857142 48c7.81086857142857 0 14.142857142857142 -6.331885714285714 14.142857142857142 -14.142857142857142v-11.142857142857142c0 -7.044137142857142 -5.149851428571428 -12.885462857142857 -11.889977142857141 -13.964399999999998ZM17.142857142857142 12.857142857142856c-5.443954285714286 0 -9.857142857142856 4.413188571428571 -9.857142857142856 9.857142857142856v11.142857142857142c0 5.443885714285714 4.413188571428571 9.857142857142856 9.857142857142856 9.857142857142856s9.857142857142856 -4.413257142857142 9.857142857142856 -9.857142857142856v-11.142857142857142C27 17.270331428571428 22.586811428571426 12.857142857142856 17.142857142857142 12.857142857142856Zm0 3.4285714285714284c1.4201485714285715 0 2.571428571428571 1.1512799999999999 2.571428571428571 2.571428571428571v5.571428571428571c0 1.4201485714285715 -1.1512799999999999 2.571428571428571 -2.571428571428571 2.571428571428571s-2.571428571428571 -1.1512799999999999 -2.571428571428571 -2.571428571428571V18.857142857142858c0 -1.4201485714285715 1.1512799999999999 -2.571428571428571 2.571428571428571 -2.571428571428571Z" clip-rule="evenodd" stroke-width="3.4286"></path>
  </g>
</svg>