<svg xmlns="http://www.w3.org/2000/svg" fill="none" viewBox="0 0 48 48" id="Moustache--Streamline-Core-Remix" height="48" width="48">
  <desc>
    Moustache Streamline Icon: https://streamlinehq.com
  </desc>
  <g id="Free Remix/Money Shopping/moustache--fashion-beauty-moustache-grooming">
    <path id="Union (Stroke)" fill="#000000" fill-rule="evenodd" d="M17.27472 15.372788571428572c-2.5307999999999997 0 -4.582422857142857 2.0516228571428567 -4.582422857142857 4.582422857142857 0 1.53336 -0.3343885714285714 3.4883314285714286 -1.1201828571428571 5.025702857142857 -0.39226285714285714 0.7674857142857142 -0.9981257142857142 1.6293942857142856 -1.9280228571428568 2.1828 -1.0352914285714285 0.6161485714285714 -2.2527771428571426 0.7157828571428572 -3.4471885714285713 0.25008 -0.3942171428571428 -0.15370285714285714 -0.78192 -0.3255085714285714 -1.1616342857142856 -0.5150057142857143 1.434822857142857 3.367577142857143 4.77504 5.728388571428571 8.66664 5.728388571428571 3.655782857142857 0 6.828754285714285 -2.082822857142857 8.390194285714285 -5.13648 0.36634285714285714 -0.7164685714285713 1.1032114285714285 -1.1672914285714284 1.9078971428571427 -1.1672914285714284 0.8046857142857142 0 1.5415542857142857 0.4508228571428571 1.9078971428571427 1.1672914285714284 1.5614742857142856 3.053657142857143 4.734445714285714 5.13648 8.39016 5.13648 3.8917714285714284 0 7.231885714285714 -2.3607771428571427 8.666742857142857 -5.728388571428571 -0.37988571428571427 0.18949714285714284 -0.7676571428571428 0.36130285714285715 -1.1616 0.5149714285714285 -1.1945142857142856 0.4657371428571428 -2.412 0.3661028571428571 -3.4474285714285715 -0.25004571428571426 -0.9298285714285713 -0.5534057142857143 -1.5356571428571428 -1.4153142857142857 -1.9278857142857142 -2.1828 -0.7858285714285713 -1.5373714285714286 -1.1201142857142856 -3.492342857142857 -1.1201142857142856 -5.025702857142857 0 -2.5307999999999997 -2.0516914285714285 -4.582422857142857 -4.582491428571428 -4.582422857142857 -1.5038742857142857 0 -2.838582857142857 0.7222285714285714 -3.677588571428571 1.847862857142857 -0.06233142857142857 0.08365714285714286 -0.12997714285714285 0.16176 -0.20221714285714285 0.2341028571428571 -0.3563657142857143 0.46055999999999997 -0.6707314285714285 0.9546857142857141 -0.9375771428571428 1.4765142857142854 -0.36634285714285714 0.7164342857142857 -1.1032114285714285 1.1672571428571428 -1.9078971428571427 1.1672571428571428 -0.8046857142857142 0 -1.5415542857142857 -0.4508228571428571 -1.9078971428571427 -1.1672571428571428 -0.26681142857142853 -0.5218285714285714 -0.5811771428571428 -1.01592 -0.9375771428571428 -1.4765142857142854 -0.07223999999999998 -0.07234285714285714 -0.13988571428571428 -0.1504457142857143 -0.20221714285714285 -0.2341028571428571 -0.8390057142857142 -1.1256342857142856 -2.1737142857142855 -1.847862857142857 -3.677588571428571 -1.847862857142857ZM24 14.174571428571427c-1.6236342857142856 -1.8871885714285712 -4.034502857142857 -3.0874971428571425 -6.72528 -3.0874971428571425 -4.897714285714286 0 -8.868137142857142 3.970422857142857 -8.868137142857142 8.868137142857142 0 1.047462857142857 -0.2504228571428571 2.2923085714285714 -0.6505714285714286 3.0751542857142855 -0.07340571428571428 0.14362285714285714 -0.13834285714285713 0.24517714285714287 -0.18949714285714284 0.3152228571428571 -1.42872 -0.5916 -2.7088114285714284 -1.5222514285714284 -3.695005714285714 -2.7342514285714286 -0.5459211428571429 -0.6709371428571428 -1.4416525714285715 -0.947862857142857 -2.270958857142857 -0.702102857142857 -0.8293028571428571 0.24572571428571427 -1.4295579428571428 0.9659657142857142 -1.5218221714285713 1.8259542857142856C0.02664366857142857 22.220674285714285 0 22.713085714285715 0 23.210982857142856c0 7.567371428571428 6.134571428571428 13.702045714285713 13.70190857142857 13.702045714285713 4.106297142857143 0 7.788445714285714 -1.806857142857143 10.298091428571428 -4.663919999999999 2.509645714285714 2.857062857142857 6.1917599999999995 4.663919999999999 10.298057142857143 4.663919999999999C41.8656 36.91302857142857 48 30.778354285714283 48 23.210982857142856c0 -0.4978971428571428 -0.02674285714285714 -0.9903085714285713 -0.07885714285714285 -1.4757599999999997 -0.09222857142857142 -0.8600228571428571 -0.6922285714285714 -1.580262857142857 -1.5215999999999998 -1.8259885714285715 -0.8293714285714285 -0.24575999999999998 -1.7252571428571426 0.031165714285714286 -2.271085714285714 0.702102857142857 -0.9860571428571429 1.212 -2.2662857142857145 2.1426514285714284 -3.694971428571429 2.7342514285714286 -0.05108571428571428 -0.07004571428571428 -0.11622857142857142 -0.1716342857142857 -0.1896 -0.3152228571428571 -0.4001142857142857 -0.7828457142857143 -0.6504 -2.0276914285714285 -0.6504 -3.0751542857142855 0 -4.897714285714286 -3.9706285714285707 -8.868137142857142 -8.868205714285713 -8.868137142857142 -2.6907771428571428 0 -5.101645714285715 1.2003085714285715 -6.72528 3.0874971428571425Z" clip-rule="evenodd" stroke-width="3.4286"></path>
  </g>
</svg>