<svg xmlns="http://www.w3.org/2000/svg" fill="none" viewBox="0 0 48 48" id="Mouse-Wireless--Streamline-Core-Remix" height="48" width="48">
  <desc>
    Mouse Wireless Streamline Icon: https://streamlinehq.com
  </desc>
  <g id="Free Remix/Computer Devices/mouse-wireless--remote-wireless-device-electronics-mouse-computer">
    <path id="Union" fill="#000000" fill-rule="evenodd" d="M10.714285714285714 17.57142857142857C10.714285714285714 10.233942857142857 16.662514285714284 4.285714285714286 24 4.285714285714286s13.285714285714285 5.948228571428571 13.285714285714285 13.285714285714285v12.857142857142856c0 7.337485714285713 -5.948228571428571 13.285714285714285 -13.285714285714285 13.285714285714285s-13.285714285714285 -5.948228571428571 -13.285714285714285 -13.285714285714285v-12.857142857142856ZM24 0C14.295565714285711 0 6.428571428571428 7.866994285714285 6.428571428571428 17.57142857142857v12.857142857142856C6.428571428571428 40.13314285714286 14.295565714285711 48 24 48s17.57142857142857 -7.866857142857143 17.57142857142857 -17.57142857142857v-12.857142857142856C41.57142857142857 7.866994285714285 33.704434285714285 0 24 0Zm2.571428571428571 11.571428571428571c0 -1.4201485714285715 -1.1512799999999999 -2.571428571428571 -2.571428571428571 -2.571428571428571s-2.571428571428571 1.1512799999999999 -2.571428571428571 2.571428571428571v6.857142857142857c0 1.4201485714285715 1.1512799999999999 2.571428571428571 2.571428571428571 2.571428571428571s2.571428571428571 -1.1512799999999999 2.571428571428571 -2.571428571428571v-6.857142857142857Z" clip-rule="evenodd" stroke-width="3.4286"></path>
  </g>
</svg>