<svg xmlns="http://www.w3.org/2000/svg" fill="none" viewBox="0 0 48 48" id="Mouse-Wireless-1--Streamline-Core-Remix" height="48" width="48">
  <desc>
    Mouse Wireless 1 Streamline Icon: https://streamlinehq.com
  </desc>
  <g id="Free Remix/Computer Devices/mouse-wireless-1--remote-wireless-device-electronics-mouse-computer">
    <path id="Union" fill="#000000" fill-rule="evenodd" d="M23.99982857142857 5.142857142857142c-3.9811885714285715 0 -7.696971428571428 1.1025599999999998 -10.867542857142857 3.017588571428571 -1.2155999999999998 0.7342285714285715 -2.7963085714285714 0.3439885714285714 -3.530537142857143 -0.8716457142857142 -0.7342285714285715 -1.2156342857142857 -0.3439885714285714 -2.7963085714285714 0.8716114285714285 -3.530537142857143C14.42358857142857 1.3723165714285712 19.055382857142856 0 23.99982857142857 0c4.944445714285714 0 9.57624 1.372313142857143 13.526571428571428 3.758262857142857 1.2154285714285713 0.7342285714285715 1.6056 2.314902857142857 0.8715428571428571 3.530537142857143 -0.7343999999999999 1.2156342857142857 -2.3149714285714285 1.6058742857142856 -3.5304 0.8716457142857142C31.69683428571429 6.245417142857143 27.98101714285714 5.142857142857142 23.99982857142857 5.142857142857142ZM17.84016 15.085611428571427c1.8696685714285715 -0.8671885714285713 3.9546514285714283 -1.352502857142857 6.160079999999999 -1.352502857142857 2.2053942857142856 0 4.290411428571429 0.4853142857142857 6.160045714285714 1.352502857142857 1.28832 0.5975314285714285 2.8171542857142855 0.03757714285714285 3.414685714285714 -1.2507428571428572 0.5975657142857143 -1.28832 0.03757714285714285 -2.8171542857142855 -1.2507428571428572 -3.4147199999999995 -2.533782857142857 -1.1752114285714286 -5.355977142857142 -1.8298971428571427 -8.323988571428572 -1.8298971428571427 -2.968045714285714 0 -5.7902057142857135 0.6546857142857143 -8.324022857142857 1.8298971428571427 -1.28832 0.5975657142857143 -1.8483085714285712 2.1264 -1.2507428571428572 3.4147199999999995 0.5975657142857143 1.28832 2.1263657142857144 1.8482742857142855 3.414685714285714 1.2507428571428572ZM23.999554285714282 17.142857142857142c-6.39072 0 -11.571428571428571 5.180708571428571 -11.571428571428571 11.571428571428571v7.7142857142857135c0 6.390857142857143 5.180708571428571 11.571428571428571 11.571428571428571 11.571428571428571s11.57153142857143 -5.180571428571428 11.57153142857143 -11.571428571428571v-7.7142857142857135C35.571085714285715 22.323565714285714 30.390274285714284 17.142857142857142 23.999554285714282 17.142857142857142Zm-7.285714285714286 11.571428571428571c0 -4.023771428571428 3.261908571428571 -7.285714285714286 7.285714285714286 -7.285714285714286 4.023771428571428 0 7.285714285714286 3.261942857142857 7.285714285714286 7.285714285714286v7.7142857142857135c0 4.023771428571428 -3.261942857142857 7.285714285714286 -7.285714285714286 7.285714285714286 -4.023805714285714 0 -7.285714285714286 -3.261942857142857 -7.285714285714286 -7.285714285714286v-7.7142857142857135Zm9.857142857142856 -1.5305485714285711c0 -1.4201485714285715 -1.1512799999999999 -2.571428571428571 -2.571428571428571 -2.571428571428571 -1.420182857142857 0 -2.571428571428571 1.1512799999999999 -2.571428571428571 2.571428571428571v2.8775314285714284c0 1.420182857142857 1.1512457142857142 2.571428571428571 2.571428571428571 2.571428571428571 1.4201485714285715 0 2.571428571428571 -1.1512457142857142 2.571428571428571 -2.571428571428571v-2.8775314285714284Z" clip-rule="evenodd" stroke-width="3.4286"></path>
  </g>
</svg>