<svg xmlns="http://www.w3.org/2000/svg" fill="none" viewBox="0 0 48 48" id="Mouth-Lip--Streamline-Core-Remix" height="48" width="48">
  <desc>
    Mouth Lip Streamline Icon: https://streamlinehq.com
  </desc>
  <g id="Free Remix/Money Shopping/mouth-lip--fashion-beauty-mouth-lip">
    <path id="Union" fill="#000000" fill-rule="evenodd" d="M14.069657142857142 13.086239999999998c0.2164457142857143 -0.07230857142857143 0.7826057142857142 -0.10302857142857143 1.8092914285714286 0.19090285714285712 0.9592457142857141 0.2745942857142857 2.0379428571428573 0.74928 3.0898971428571427 1.2965485714285714 1.0403314285714285 0.5412342857142857 1.9921371428571428 1.12056 2.6877942857142854 1.56792 0.3461142857142857 0.22258285714285714 0.6247885714285714 0.40991999999999995 0.8145942857142856 0.5399314285714286 0.0948342857142857 0.06493714285714285 0.16724571428571428 0.11543999999999999 0.21452571428571426 0.14866285714285715l0.051668571428571425 0.036514285714285714 0.01104 0.00785142857142857 0.0007885714285714285 0.0005828571428571429 0.00047999999999999996 0.00034285714285714285 0.00020571428571428572 0.00013714285714285713c0.7470514285714285 0.5365714285714286 1.7532685714285714 0.5365028571428572 2.500285714285714 -0.00013714285714285713l0.00047999999999999996 -0.00034285714285714285 0.0007885714285714285 -0.0005828571428571429 0.01104 -0.00785142857142857 0.051668571428571425 -0.036514285714285714c0.047279999999999996 -0.033222857142857144 0.11969142857142856 -0.08372571428571428 0.21452571428571426 -0.14866285714285715 0.18980571428571427 -0.13001142857142858 0.46848 -0.3173485714285714 0.8145942857142856 -0.5399314285714286 0.6956571428571429 -0.44736000000000004 1.6474628571428571 -1.0266857142857142 2.6877942857142854 -1.56792 1.0519542857142856 -0.5472685714285714 2.1306514285714284 -1.0219542857142856 3.0898971428571427 -1.2965485714285714 1.0266857142857142 -0.29393142857142857 1.5928457142857142 -0.2632114285714286 1.8092914285714286 -0.19090285714285712 0.10271999999999999 0.034319999999999996 0.3800914285714285 0.16878857142857143 0.8477485714285714 0.5175771428571428 0.4419428571428571 0.32989714285714283 0.9562285714285713 0.7767085714285713 1.5246857142857142 1.3226742857142857 1.1362285714285714 1.0914171428571429 2.3832 2.4758057142857144 3.5574857142857144 3.8625599999999993 0.5756571428571428 0.6795085714285715 1.1269714285714285 1.3517828571428572 1.6313142857142857 1.97952H6.508354285714285c0.5044799999999999 -0.6277371428571429 1.0558628571428572 -1.3000114285714286 1.6312457142857142 -1.97952 1.1742857142857144 -1.3867542857142856 2.421325714285714 -2.771142857142857 3.5576571428571424 -3.8625599999999993 0.5684571428571429 -0.5459657142857143 1.0825714285714285 -0.9927771428571428 1.524822857142857 -1.3226742857142857 0.46752 -0.3487885714285714 0.7448571428571428 -0.48325714285714283 0.8475771428571428 -0.5175771428571428ZM1.021230857142857 22.087611428571428c-0.605496 -0.44471999999999995 -0.6054 -0.44485714285714284 -0.6052902857142857 -0.4449942857142857l0.0004594285714285714 -0.0006514285714285715 0.001464 -0.0019885714285714285 0.005067428571428571 -0.006891428571428571 0.01857942857142857 -0.025199999999999997 0.06995657142857142 -0.09449142857142857c0.06083314285714285 -0.08194285714285714 0.14958857142857143 -0.20108571428571428 0.26323199999999997 -0.3523885714285714 0.22722171428571428 -0.30253714285714284 0.5542937142857143 -0.7341599999999999 0.9568868571428572 -1.2549257142857142 0.8039005714285714 -1.0398514285714284 1.915008 -2.44296 3.1373622857142855 -3.886525714285714 1.2168342857142858 -1.4370171428571428 2.57136 -2.94672 3.859577142857143 -4.184022857142857 0.6438514285714286 -0.6183771428571428 1.2978171428571428 -1.1945828571428572 1.9309714285714286 -1.666902857142857 0.6078514285714286 -0.45346285714285706 1.31328 -0.9004114285714286 2.052205714285714 -1.1472685714285713 1.46688 -0.49004571428571425 3.0685028571428568 -0.23036571428571428 4.346708571428571 0.13556571428571426 1.3456457142857141 0.3852 2.7088457142857143 1.0011428571428571 3.8883771428571423 1.6147885714285715 1.1911542857142856 0.6197142857142857 2.2604228571428573 1.2716228571428572 3.0280114285714284 1.7652342857142855L24 12.553165714285713l0.025165714285714284 -0.016217142857142857c0.7675885714285714 -0.4936114285714285 1.836822857142857 -1.14552 3.0280114285714284 -1.7652342857142855 1.1795314285714285 -0.6136457142857142 2.5427314285714284 -1.2295885714285715 3.8883771428571423 -1.6147885714285715 1.2781714285714285 -0.3659314285714286 2.879828571428571 -0.6256114285714285 4.346674285714285 -0.13556571428571426 0.7388571428571428 0.24685714285714283 1.4444571428571429 0.6938057142857142 2.052342857142857 1.1472685714285713 0.6329142857142857 0.47231999999999996 1.2870857142857142 1.048525714285714 1.9309714285714286 1.666902857142857 1.2881142857142855 1.237302857142857 2.6427428571428573 2.7470057142857143 3.8595428571428565 4.184022857142857 1.2222857142857142 1.4435657142857143 2.333485714285714 2.8466742857142857 3.137142857142857 3.886525714285714 0.4028571428571428 0.5207657142857143 0.7299428571428571 0.9523885714285715 0.9569142857142857 1.2549257142857142 0.11382857142857142 0.15130285714285716 0.2026285714285714 0.2704457142857143 0.26331428571428567 0.3523885714285714l0.06994285714285714 0.09449142857142857 0.018514285714285716 0.025199999999999997 0.005142857142857143 0.006891428571428571 0.0013714285714285714 0.0019885714285714285 0.0006857142857142857 0.0006514285714285715c0 0.00013714285714285713 0 0.00027428571428571427 -0.6054857142857143 0.4449942857142857l0 0.00003428571428571428 0.6058285714285714 -0.44465142857142853c0.48445714285714286 0.6597599999999999 0.5506285714285714 1.53792 0.1707428571428571 2.26296l-0.7049142857142857 -0.3694285714285714 0 0.00023999999999999998c0.7045714285714285 0.36977142857142853 0.7042285714285714 0.3704914285714286 0.7038857142857143 0.37127999999999994l-0.0013714285714285714 0.0023657142857142857 -0.0030857142857142854 0.00552 -0.007542857142857143 0.014262857142857141 -0.022285714285714284 0.04114285714285714c-0.017828571428571426 0.03298285714285714 -0.04217142857142857 0.07686857142857142 -0.07302857142857143 0.13097142857142854 -0.06137142857142856 0.10817142857142857 -0.1488 0.2573142857142857 -0.2629714285714286 0.44156571428571423 -0.22834285714285715 0.3682285714285714 -0.5643428571428571 0.878022857142857 -1.0158857142857143 1.4818971428571428 -0.9013714285714286 1.2059657142857143 -2.2714285714285714 2.798982857142857 -4.170857142857142 4.389462857142857 -3.820114285714286 3.198308571428571 -9.757439999999999 6.360994285714286 -18.19717714285714 6.360994285714286 -8.439702857142857 0 -14.377131428571426 -3.162685714285714 -18.197005714285712 -6.360994285714286 -1.8996342857142856 -1.59048 -3.269653714285714 -3.1834971428571426 -4.171086857142857 -4.389462857142857 -0.4513851428571428 -0.6038742857142857 -0.7875017142857142 -1.1136685714285715 -1.0157382857142856 -1.4818971428571428 -0.11418857142857143 -0.18425142857142857 -0.2015897142857143 -0.3333942857142857 -0.26311885714285715 -0.44156571428571423 -0.030772114285714282 -0.05410285714285713 -0.05509405714285714 -0.09798857142857142 -0.07307862857142856 -0.13097142857142854l-0.02224765714285714 -0.04114285714285714 -0.007591885714285714 -0.014262857142857141 -0.0029177142857142856 -0.00552 -0.0012401142857142856 -0.0023657142857142857c-0.0004018285714285714 -0.0007885714285714285 -0.0007916571428571429 -0.0015085714285714286 0.7039045714285714 -0.37127999999999994 -0.00002742857142857142 -0.00006857142857142857 -0.00005142857142857143 -0.00013714285714285713 -0.00007885714285714286 -0.00023999999999999998l-0.7049201142857142 0.3694285714285714c-0.3799549714285714 -0.7250399999999999 -0.3136704 -1.6032 0.17081382857142857 -2.26296l0.6055508571428571 0.44465142857142853c0.00000685714285714286 0 0.00001371428571428571 -0.00003428571428571428 0.00002057142857142857 -0.00003428571428571428ZM41.6136 25.05428571428571c-0.6003428571428572 0.6570171428571429 -1.3206857142857142 1.3656342857142856 -2.167885714285714 2.0749714285714282 -3.1799999999999997 2.662662857142857 -8.171245714285714 5.36112 -15.445748571428572 5.36112 -7.274468571428571 0 -12.265577142857142 -2.698457142857143 -15.445714285714285 -5.36112 -0.8472 -0.7093371428571428 -1.5675428571428571 -1.4179542857142857 -2.1679542857142855 -2.0749714285714282H41.6136Z" clip-rule="evenodd" stroke-width="3.4286"></path>
  </g>
</svg>