<svg xmlns="http://www.w3.org/2000/svg" fill="none" viewBox="0 0 48 48" id="Multiple-File-2--Streamline-Core-Remix" height="48" width="48">
  <desc>
    Multiple File 2 Streamline Icon: https://streamlinehq.com
  </desc>
  <g id="Free Remix/Interface Essential/multiple-file-2--double-common-file">
    <path id="Union" fill="#000000" fill-rule="evenodd" d="M11.142857142857142 5.571428571428571C11.142857142857142 2.494412571428571 13.637279999999999 0 16.71428571428571 0h22.285714285714285C42.07714285714286 0 44.57142857142857 2.494412571428571 44.57142857142857 5.571428571428571v29.142857142857142c0 3.077142857142857 -2.494285714285714 5.571428571428571 -5.571428571428571 5.571428571428571h-2.142857142857143v2.142857142857143c0 3.077142857142857 -2.494285714285714 5.571428571428571 -5.571428571428571 5.571428571428571h-22.285714285714285C5.922994285714285 48 3.4285714285714284 45.505714285714284 3.4285714285714284 42.42857142857142v-29.142857142857142c0 -3.0770057142857143 2.494422857142857 -5.571428571428571 5.571428571428571 -5.571428571428571h2.142857142857143v-2.142857142857143Zm-3.4285714285714284 7.7142857142857135c0 -0.7100914285714285 0.5756228571428571 -1.2857142857142856 1.2857142857142856 -1.2857142857142856h22.285714285714285c0.7100914285714285 0 1.2857142857142856 0.5756228571428571 1.2857142857142856 1.2857142857142856v29.142857142857142c0 0.7100571428571428 -0.5756228571428571 1.2857142857142856 -1.2857142857142856 1.2857142857142856h-22.285714285714285c-0.7100914285714285 0 -1.2857142857142856 -0.5756571428571428 -1.2857142857142856 -1.2857142857142856v-29.142857142857142Zm3.4285714285714284 6c0 -1.1834742857142857 0.9593828571428571 -2.142857142857143 2.142857142857143 -2.142857142857143h13.714285714285714c1.1834742857142857 0 2.142857142857143 0.9593828571428571 2.142857142857143 2.142857142857143s-0.9593828571428571 2.142857142857143 -2.142857142857143 2.142857142857143h-13.714285714285714c-1.1834742857142857 0 -2.142857142857143 -0.9593828571428571 -2.142857142857143 -2.142857142857143Zm2.142857142857143 7.285714285714286c-1.1834742857142857 0 -2.142857142857143 0.9593828571428571 -2.142857142857143 2.142857142857143S12.102239999999998 30.857142857142854 13.285714285714285 30.857142857142854h8.571428571428571C23.04061714285714 30.857142857142854 24 29.897759999999995 24 28.71428571428571s-0.9593828571428571 -2.142857142857143 -2.142857142857143 -2.142857142857143h-8.571428571428571Z" clip-rule="evenodd" stroke-width="3.4286"></path>
  </g>
</svg>