<svg xmlns="http://www.w3.org/2000/svg" fill="none" viewBox="0 0 48 48" id="Music-Note-Off-1--Streamline-Core-Remix" height="48" width="48">
  <desc>
    Music Note Off 1 Streamline Icon: https://streamlinehq.com
  </desc>
  <g id="Free Remix/Entertainment/music-note-off-1--music-audio-note-off-mute-entertainment">
    <path id="Union" fill="#000000" fill-rule="evenodd" d="M3.65808 0.6276274285714285c-0.8368319999999999 -0.8368367999999999 -2.193613714285714 -0.8368367999999999 -3.030452571428571 0 -0.8368367999999999 0.8368388571428571 -0.8368367999999999 2.1936205714285713 0 3.030452571428571L21.62838857142857 24.658834285714285c0.01032 0.010559999999999998 0.020742857142857143 0.02098285714285714 0.03130285714285714 0.03130285714285714l22.682365714285712 22.68209142857143c0.8365714285714285 0.8369142857142857 2.1936 0.8369142857142857 3.0301714285714283 0 0.8369142857142857 -0.8365714285714285 0.8369142857142857 -2.1936 0 -3.0301714285714283L25.302034285714285 22.27158857142857V4.426731428571428c1.4107885714285715 0.18647999999999998 2.7942514285714286 0.5567657142857143 4.114662857142857 1.1036914285714283 1.9838742857142855 0.8217257142857142 3.7864457142857137 2.026182857142857 5.304788571428571 3.544594285714286 1.5185142857142857 1.5183771428571426 2.7229714285714284 3.320948571428571 3.5448 5.304857142857142 0.8214857142857143 1.9838742857142855 1.2445714285714284 4.110171428571428 1.2445714285714284 6.257485714285714 0 1.1834742857142857 0.9593142857142857 2.142857142857143 2.142857142857143 2.142857142857143s2.142857142857143 -0.9593828571428571 2.142857142857143 -2.142857142857143c0 -2.7101485714285714 -0.5338285714285714 -5.393725714285714 -1.5709714285714285 -7.897577142857142 -1.0371428571428571 -2.5038514285714286 -2.5573714285714284 -4.77888 -4.473599999999999 -6.695245714285714S33.560605714285714 2.608049142857143 31.056754285714284 1.5709268571428572C28.552902857142858 0.5338011428571429 25.86932571428571 0 23.159177142857143 0c-1.1834742857142857 0 -2.142857142857143 0.9593897142857143 -2.142857142857143 2.142857142857143v15.843017142857141L3.65808 0.6276274285714285ZM15.237805714285713 27.329794285714286c-5.589634285714285 0 -10.120902857142857 4.531268571428571 -10.120902857142857 10.120834285714285 0 5.5896 4.531268571428571 10.120800000000001 10.120902857142857 10.120800000000001 5.5896 0 10.12086857142857 -4.5312 10.12086857142857 -10.120800000000001 0 -5.5895657142857145 -4.531268571428571 -10.120834285714285 -10.12086857142857 -10.120834285714285Z" clip-rule="evenodd" stroke-width="3.4286"></path>
  </g>
</svg>