<svg xmlns="http://www.w3.org/2000/svg" fill="none" viewBox="0 0 48 48" id="Music-Note-1--Streamline-Core-Remix" height="48" width="48">
  <desc>
    Music Note 1 Streamline Icon: https://streamlinehq.com
  </desc>
  <g id="Free Remix/Entertainment/music-note-1--music-audio-note-entertainment">
    <path id="Union" fill="#000000" fill-rule="evenodd" d="M22.318354285714285 0c-1.1834742857142857 0 -2.142857142857143 0.9593897142857143 -2.142857142857143 2.142857142857143v27.040251428571427c-1.6498285714285714 -1.16736 -3.6644228571428568 -1.8533142857142855 -5.8392 -1.8533142857142855 -5.589634285714285 0 -10.120902857142857 4.531268571428571 -10.120902857142857 10.120834285714285 0 5.5896 4.531268571428571 10.120800000000001 10.120902857142857 10.120800000000001 5.539714285714285 0 10.039885714285715 -4.450628571428571 10.119771428571427 -9.971314285714286 0.0034285714285714284 -0.049371428571428566 0.005142857142857143 -0.09942857142857142 0.005142857142857143 -0.14948571428571428V4.401668571428571c1.6548 0.17975999999999998 3.27624 0.56712 4.817451428571428 1.1523085714285715 2.2017942857142856 0.8360228571428571 4.190948571428571 2.0571085714285715 5.858022857142857 3.585428571428571 1.6669714285714285 1.527942857142857 2.9783999999999997 3.331645714285714 3.8688000000000002 5.3028 0.8903999999999999 1.970502857142857 1.3457142857142856 4.075028571428571 1.3457142857142856 6.195154285714286 0 1.1834742857142857 0.9596571428571428 2.142857142857143 2.142857142857143 2.142857142857143 1.183542857142857 0 2.142857142857143 -0.9593828571428571 2.142857142857143 -2.142857142857143 0 -2.7373371428571427 -0.5883428571428572 -5.4427200000000004 -1.725942857142857 -7.959942857142857 -1.1369142857142858 -2.5165714285714285 -2.798057142857143 -4.790468571428571 -4.878171428571428 -6.697268571428571 -2.0797714285714286 -1.9064571428571429 -4.5389485714285716 -3.4099268571428567 -7.232845714285713 -4.432789714285714C28.106194285714285 0.5245439999999999 25.224651428571427 0 22.318354285714285 0Z" clip-rule="evenodd" stroke-width="3.4286"></path>
  </g>
</svg>