<svg xmlns="http://www.w3.org/2000/svg" fill="none" viewBox="0 0 48 48" id="Music-Note-Off-2--Streamline-Core-Remix" height="48" width="48">
  <desc>
    Music Note Off 2 Streamline Icon: https://streamlinehq.com
  </desc>
  <g id="Free Remix/Entertainment/music-note-off-2--music-audio-note-off-mute-entertainment">
    <path id="Union" fill="#000000" fill-rule="evenodd" d="M3.65808 0.6276274285714285c-0.8368319999999999 -0.8368367999999999 -2.193613714285714 -0.8368367999999999 -3.030452571428571 0 -0.8368367999999999 0.8368388571428571 -0.8368367999999999 2.1936205714285713 0 3.030452571428571L44.342057142857136 47.37222857142857c0.8365714285714285 0.8369142857142857 2.1936 0.8369142857142857 3.0301714285714283 0 0.8369142857142857 -0.8365714285714285 0.8369142857142857 -2.1936 0 -3.0301714285714283l-6.5842285714285715 -6.5845714285714285c3.1477714285714287 -1.0028571428571427 5.441142857142856 -3.9199542857142853 5.5124571428571425 -7.382948571428572 0.012342857142857142 -0.09260571428571428 0.018514285714285716 -0.18702857142857143 0.018514285714285716 -0.28296l0.00034285714285714285 -24.70062857142857 -0.00034285714285714285 -0.011828571428571428c-0.0030857142857142854 -0.5636914285714285 -0.13337142857142856 -1.1203885714285715 -0.38262857142857143 -1.6274742857142857 -0.24925714285714284 -0.5072125714285715 -0.6113142857142856 -0.9525497142857142 -1.0604571428571428 -1.2999942857142857 -0.44948571428571427 -0.3475577142857143 -0.9737142857142855 -0.5875028571428571 -1.5332571428571427 -0.6990651428571428 -0.5595428571428571 -0.11157600000000001 -1.1369142857142858 -0.09128914285714285 -1.6868571428571428 0.05905714285714286l0 -0.00006171428571428571 -0.016114285714285713 0.004501714285714285L16.81433142857143 8.808617142857141c-0.7832571428571428 0.21637714285714285 -1.4694171428571428 0.6849942857142857 -1.957577142857143 1.3277828571428572 -0.2562857142857143 0.33743999999999996 -0.45096 0.7135199999999999 -0.5789828571428571 1.1108914285714286L3.65808 0.6276274285714285ZM18.383382857142855 15.352902857142855l2.1314399999999996 2.1314399999999996 21.518434285714285 -5.977371428571429V6.157679999999999L18.383382857142855 12.819154285714284v2.5337485714285712Zm5.612468571428571 5.612502857142857 6.834582857142856 6.834582857142856C31.849577142857143 24.602022857142856 34.84422857142857 22.285714285714285 38.380114285714285 22.285714285714285c1.3175999999999999 0 2.5601142857142856 0.3216685714285714 3.6531428571428566 0.8908114285714285V15.95496L23.995851428571427 20.965405714285712ZM2.522461714285714 37.96731428571429c0 -4.3751999999999995 3.5468982857142857 -7.922125714285714 7.922235428571429 -7.922125714285714 1.3174971428571427 0 2.559908571428571 0.3216342857142857 3.6529714285714285 0.89064V27.017588571428572c0 -1.1834742857142857 0.9593828571428571 -2.142857142857143 2.142857142857143 -2.142857142857143 1.1834399999999998 0 2.142857142857143 0.9593828571428571 2.142857142857143 2.142857142857143v10.950068571428572c0 0.10594285714285714 -0.007679999999999999 0.20982857142857142 -0.02249142857142857 0.3116571428571428 -0.16378285714285715 4.230857142857142 -3.6453257142857143 7.610399999999999 -7.916194285714285 7.610399999999999 -4.375337142857143 0 -7.922235428571429 -3.5468571428571427 -7.922235428571429 -7.9224000000000006Z" clip-rule="evenodd" stroke-width="3.4286"></path>
  </g>
</svg>