<svg xmlns="http://www.w3.org/2000/svg" fill="none" viewBox="0 0 48 48" id="Music-Folder-Song--Streamline-Core-Remix" height="48" width="48">
  <desc>
    Music Folder Song Streamline Icon: https://streamlinehq.com
  </desc>
  <g id="Free Remix/Interface Essential/music-folder-song">
    <path id="Union" fill="#000000" fill-rule="evenodd" d="M4.285714285714286 9c0 -0.7100914285714285 0.5756228571428571 -1.2857142857142856 1.2857142857142856 -1.2857142857142856h11.037325714285714c0.5899885714285714 0 1.10424 0.40152 1.2473485714285715 0.9738857142857144l1.0650171428571429 4.260102857142857c0.23849142857142855 0.9539314285714284 1.0956 1.6231542857142855 2.07888 1.6231542857142855h21.428571428571427c0.7100571428571428 0 1.2857142857142856 0.5756228571428571 1.2857142857142856 1.2857142857142856v23.142857142857142c0 0.7100571428571428 -0.5756571428571428 1.2857142857142856 -1.2857142857142856 1.2857142857142856H5.571428571428571c-0.7100914285714285 0 -1.2857142857142856 -0.5756571428571428 -1.2857142857142856 -1.2857142857142856v-30ZM5.571428571428571 3.4285714285714284C2.494412571428571 3.4285714285714284 0 5.922994285714285 0 9v30C0 42.07714285714286 2.4944159999999997 44.57142857142857 5.571428571428571 44.57142857142857h36.857142857142854c3.077142857142857 0 5.571428571428571 -2.494285714285714 5.571428571428571 -5.571428571428571v-23.142857142857142C48 12.780137142857141 45.505714285714284 10.285714285714285 42.42857142857142 10.285714285714285H22.67310857142857l-0.65928 -2.6369828571428573C21.393805714285715 5.168502857142856 19.165302857142855 3.4285714285714284 16.608754285714284 3.4285714285714284H5.571428571428571Zm28.290411428571424 15.003531428571428c0.5366742857142857 0.40491428571428567 0.8524457142857143 1.038342857142857 0.8524457142857143 1.7107542857142857V30.857142857142854c0 2.3669485714285714 -1.9187657142857142 4.285714285714286 -4.285714285714286 4.285714285714286S26.142857142857142 33.22409142857143 26.142857142857142 30.857142857142854s1.9187657142857142 -4.285714285714286 4.285714285714286 -4.285714285714286V22.983702857142855l-7.7142857142857135 2.2040914285714286V33.42857142857142c0 2.367085714285714 -1.9187657142857142 4.285714285714286 -4.285714285714286 4.285714285714286s-4.285714285714286 -1.9186285714285713 -4.285714285714286 -4.285714285714286c0 -2.3669485714285714 1.9187657142857142 -4.285714285714286 4.285714285714286 -4.285714285714286V23.57142857142857c0 -0.9567428571428571 0.6342514285714285 -1.7975657142857142 1.5541714285714283 -2.0604l12 -3.4285714285714284c0.6465257142857143 -0.18473142857142855 1.3422857142857143 -0.055268571428571424 1.8790971428571426 0.3496457142857143Z" clip-rule="evenodd" stroke-width="3.4286"></path>
  </g>
</svg>