<svg xmlns="http://www.w3.org/2000/svg" fill="none" viewBox="0 0 48 48" id="Music-Equalizer-1--Streamline-Core-Remix" height="48" width="48">
  <desc>
    Music Equalizer 1 Streamline Icon: https://streamlinehq.com
  </desc>
  <g id="Free Remix/Entertainment/music-equalizer-1--music-audio-note-wave-sound-equalizer-entertainment">
    <path id="Union" fill="#000000" fill-rule="evenodd" d="M26.57142857142857 2.571428571428571C26.57142857142857 1.1512662857142855 25.42014857142857 0 24 0s-2.571428571428571 1.1512662857142855 -2.571428571428571 2.571428571428571v42.857142857142854c0 1.4201142857142857 1.1512799999999999 2.571428571428571 2.571428571428571 2.571428571428571s2.571428571428571 -1.1513142857142855 2.571428571428571 -2.571428571428571V2.571428571428571ZM13.071428571428571 7.977942857142858c1.4201485714285715 0 2.571428571428571 1.1512799999999999 2.571428571428571 2.571428571428571v26.90125714285714c0 1.4201142857142857 -1.1512799999999999 2.571428571428571 -2.571428571428571 2.571428571428571s-2.571428571428571 -1.1513142857142855 -2.571428571428571 -2.571428571428571V10.549371428571428c0 -1.4201485714285715 1.1512799999999999 -2.571428571428571 2.571428571428571 -2.571428571428571ZM3 16.384491428571426c1.4201485714285715 0 2.571428571428571 1.1512457142857142 2.571428571428571 2.571428571428571v10.087919999999999c0 1.4201485714285715 -1.1512799999999999 2.571428571428571 -2.571428571428571 2.571428571428571 -1.4201622857142857 0 -2.571428571428571 -1.1512799999999999 -2.571428571428571 -2.571428571428571V18.95592c0 -1.420182857142857 1.1512662857142855 -2.571428571428571 2.571428571428571 -2.571428571428571Zm31.928571428571427 -8.406548571428571c1.4201142857142857 0 2.571428571428571 1.1512799999999999 2.571428571428571 2.571428571428571v26.90125714285714c0 1.4201142857142857 -1.1513142857142855 2.571428571428571 -2.571428571428571 2.571428571428571 -1.4201485714285715 0 -2.571428571428571 -1.1513142857142855 -2.571428571428571 -2.571428571428571V10.549371428571428c0 -1.4201485714285715 1.1512799999999999 -2.571428571428571 2.571428571428571 -2.571428571428571Zm12.642857142857142 10.977977142857142c0 -1.420182857142857 -1.1513142857142855 -2.571428571428571 -2.571428571428571 -2.571428571428571s-2.571428571428571 1.1512457142857142 -2.571428571428571 2.571428571428571v10.087919999999999c0 1.4201485714285715 1.1513142857142855 2.571428571428571 2.571428571428571 2.571428571428571s2.571428571428571 -1.1512799999999999 2.571428571428571 -2.571428571428571V18.95592Z" clip-rule="evenodd" stroke-width="3.4286"></path>
  </g>
</svg>