<svg xmlns="http://www.w3.org/2000/svg" fill="none" viewBox="0 0 48 48" id="Music-Note-2--Streamline-Core-Remix" height="48" width="48">
  <desc>
    Music Note 2 Streamline Icon: https://streamlinehq.com
  </desc>
  <g id="Free Remix/Entertainment/music-note-2--music-audio-note-entertainment">
    <path id="Union" fill="#000000" fill-rule="evenodd" d="M42.012685714285716 1.4167782857142857c0.5544 -0.15157371428571428 1.1365714285714286 -0.17202514285714285 1.7005714285714284 -0.05954057142857142 0.564 0.11247428571428571 1.0926857142857143 0.3543805714285714 1.5455999999999999 0.7048045714285714 0.45325714285714286 0.3503142857142857 0.8180571428571428 0.7993405714285713 1.0693714285714286 1.3107771428571426 0.2513142857142857 0.5113405714285714 0.3829714285714285 1.0726662857142857 0.3860571428571429 1.6410891428571428l0 0.011828571428571428 0 7.851668571428571c0.0006857142857142857 0.031439999999999996 0.0006857142857142857 0.06281142857142856 0 0.09408l0 16.833291428571425c0.011314285714285714 0.17352 0.0168 0.34854857142857143 0.0168 0.52488 0 4.442571428571428 -3.6013714285714284 8.043942857142858 -8.043771428571427 8.043942857142858 -4.44264 0 -8.044045714285714 -3.6013714285714284 -8.044045714285714 -8.043942857142858C30.64326857142857 25.88712 34.24467428571428 22.285714285714285 38.68731428571428 22.285714285714285c1.3505142857142856 0 2.623542857142857 0.3329485714285714 3.7412571428571426 0.921222857142857V15.742491428571428L18.230811428571425 22.46410285714286v15.137725714285713c0.01659428571428571 0.2112 0.02506285714285714 0.4244571428571428 0.02506285714285714 0.6397714285714285 0 4.4424 -3.6014057142857143 8.043771428571427 -8.043942857142858 8.043771428571427 -4.442571428571428 0 -8.043963428571429 -3.6013714285714284 -8.043963428571429 -8.043771428571427 0 -4.44264 3.6013919999999997 -8.044045714285714 8.043963428571429 -8.044045714285714 1.3474285714285714 0 2.6175085714285715 0.3313028571428571 3.733165714285714 0.9169028571428571v-10.232228571428571c-0.0007199999999999999 -0.032125714285714285 -0.0007199999999999999 -0.06418285714285714 0 -0.09610285714285713V12.145371428571428h0.00003428571428571428c0.004491428571428571 -0.8129485714285714 0.27157714285714285 -1.605462857142857 0.7653942857142857 -2.255725714285714 0.49220571428571425 -0.6481028571428571 1.1840571428571427 -1.1205942857142857 1.9737257142857143 -1.3387542857142856L41.99657142857143 1.4212182857142857l0.016114285714285713 -0.004501714285714285 0 0.00006171428571428571ZM18.230811428571425 18.016114285714284 42.42857142857142 11.294502857142858V5.7520114285714286L18.230811428571425 12.567771428571428v5.4483428571428565Z" clip-rule="evenodd" stroke-width="3.4286"></path>
  </g>
</svg>