<svg xmlns="http://www.w3.org/2000/svg" fill="none" viewBox="0 0 48 48" id="Navigation-Arrow-Off--Streamline-Core-Remix" height="48" width="48">
  <desc>
    Navigation Arrow Off Streamline Icon: https://streamlinehq.com
  </desc>
  <g id="Free Remix/Map Travel/navigation-arrow-off--compass-arrow-map-bearing-navigation-maps-heading-gps-off-disable">
    <path id="Union" fill="#000000" fill-rule="evenodd" d="M0.6362708571428571 0.636c-0.8368333714285714 0.8368354285714285 -0.8368333714285714 2.1936171428571427 0 3.030445714285714L13.585817142857142 16.61598857142857c0.023485714285714283 0.02465142857142857 0.04752 0.048685714285714284 0.07206857142857143 0.07206857142857143l16.855782857142856 16.855817142857145c0.02441142857142857 0.025645714285714282 0.04954285714285714 0.050777142857142854 0.07529142857142856 0.07529142857142856l13.744525714285714 13.744491428571429c0.8369142857142857 0.8369142857142857 2.1936 0.8369142857142857 3.0305142857142857 0 0.8369142857142857 -0.8369142857142857 0.8369142857142857 -2.1936 0 -3.0305142857142857l-12.7968 -12.796594285714285 8.477485714285713 -21.941485714285715 0.006514285714285714 -0.016937142857142855c1.1321142857142856 -2.968902857142857 -1.8558857142857141 -5.58744 -4.544571428571428 -4.670811428571429l-0.030857142857142854 0.010765714285714285 -22.765885714285712 7.761051428571428L3.66672 0.636c-0.8368251428571428 -0.8368388571428571 -2.1936102857142856 -0.8368388571428571 -3.030449142857143 0ZM8.262891428571429 17.199737142857142c-0.3818742857142857 -1.1201485714285713 -1.5994971428571427 -1.7186742857142854 -2.71968 -1.3368l-3.2393965714285713 1.104342857142857C0.9261428571428572 17.43696 0 18.731142857142856 0 20.186674285714286c0 1.33848 0.7849782857142856 2.552502857142857 2.0055497142857144 3.10176L17.063657142857142 30.064594285714286c0.3214628571428571 0.14465142857142857 0.5694514285714285 0.41499428571428565 0.68592 0.7477371428571429l5.225588571428571 14.93029714285714c0.4733142857142857 1.3522285714285713 1.7495657142857142 2.2577142857142856 3.1822971428571427 2.2577142857142856 1.3932 0 2.6429142857142858 -0.8568 3.145028571428571 -2.1565714285714286l1.7032114285714284 -4.408114285714285c0.4265142857142857 -1.1039999999999999 -0.12264 -2.344457142857143 -1.2265714285714286 -2.7709714285714284 -1.1039314285714286 -0.4268571428571428 -2.3446285714285713 0.12240000000000001 -2.771142857142857 1.2264l-0.8081485714285714 2.091771428571428 -4.405165714285714 -12.586319999999999c-0.5046514285714285 -1.4418857142857142 -1.5792342857142856 -2.613291428571429 -2.972331428571428 -3.240205714285714L5.808891428571428 20.30029714285714l1.1171999999999997 -0.38087999999999994c1.1201828571428571 -0.3818742857142857 1.7186742857142854 -1.5994971428571427 1.3368 -2.71968Z" clip-rule="evenodd" stroke-width="3.4286"></path>
  </g>
</svg>