<svg xmlns="http://www.w3.org/2000/svg" fill="none" viewBox="0 0 48 48" id="Navigation-Arrow-On--Streamline-Core-Remix" height="48" width="48">
  <desc>
    Navigation Arrow On Streamline Icon: https://streamlinehq.com
  </desc>
  <g id="Free Remix/Map Travel/navigation-arrow-on--compass-arrow-map-bearing-navigation-maps-heading-gps-off-disable">
    <path id="Vector 3968" stroke="#000000" stroke-linecap="round" stroke-linejoin="round" stroke-width="4.2857" d="M30.308194285714286 43.7376 44.48125714285714 5.3868342857142855c0.05965714285714285 -0.16138285714285713 0.09017142857142857 -0.3320571428571429 0.09017142857142857 -0.5041028571428571C44.57142857142857 4.079622857142857 43.920342857142856 3.4285714285714284 43.11737142857143 3.4285714285714284h-0.025028571428571428c-0.156 0 -0.3106285714285714 0.024582857142857142 -0.4587428571428571 0.07289142857142857L4.326685714285714 15.992845714285714C3.7910399999999997 16.16753142857143 3.4285714285714284 16.66697142857143 3.4285714285714284 17.230354285714284c0 0.47472 0.25841142857142857 0.9117599999999999 0.6743657142857142 1.1405485714285715l15.464434285714285 8.50542857142857c0.6516685714285714 0.3584228571428571 1.1691085714285714 0.9189942857142857 1.4742857142857142 1.5972l6.905382857142856 15.345325714285714c0.20612571428571427 0.45805714285714283 0.6616799999999999 0.7525714285714286 1.1639314285714286 0.7525714285714286 0.5342742857142857 0 1.0120114285714286 -0.3329142857142857 1.1972228571428571 -0.8338285714285714Z"></path>
  </g>
</svg>