<svg xmlns="http://www.w3.org/2000/svg" fill="none" viewBox="0 0 48 48" id="Necklace--Streamline-Core-Remix" height="48" width="48">
  <desc>
    Necklace Streamline Icon: https://streamlinehq.com
  </desc>
  <g id="Free Remix/Money Shopping/necklace--diamond-money-payment-finance-wealth-accessory-necklace-jewelry">
    <path id="Union" fill="#000000" fill-rule="evenodd" d="M7.7142857142857135 17.716422857142856C7.7142857142857135 10.628571428571428 13.440685714285713 5.142857142857142 20.716422857142856 5.142857142857142h6.567154285714285C34.55931428571429 5.142857142857142 40.285714285714285 10.628571428571428 40.285714285714285 17.716422857142856c0 3.9898285714285713 -1.8318857142857141 7.758788571428572 -4.969028571428571 10.223794285714284l-4.286674285714286 3.368022857142857L25.285714285714285 27c-0.7618971428571428 -0.5714400000000001 -1.8095314285714286 -0.5714400000000001 -2.571428571428571 0L16.96998857142857 31.308239999999998l-4.2865714285714285 -3.368022857142857C9.546137142857143 25.475211428571427 7.7142857142857135 21.706251428571427 7.7142857142857135 17.716422857142856Zm7.285714285714286 18.584262857142857L9.506057142857143 31.984148571428566C5.12784 28.544125714285713 2.571428571428571 23.284388571428572 2.571428571428571 17.716422857142856 2.571428571428571 7.602205714285714 10.790057142857142 0 20.716422857142856 0h6.567154285714285C37.209942857142856 0 45.42857142857142 7.602205714285714 45.42857142857142 17.716422857142856c0 5.567965714285714 -2.556342857142857 10.827702857142857 -6.934628571428572 14.267725714285712L33 36.30068571428571v4.4136c0 0.6744 -0.3175542857142857 1.3097142857142856 -0.8571428571428571 1.7142857142857142l-6.857142857142857 5.142857142857142c-0.7618971428571428 0.571542857142857 -1.8095314285714286 0.571542857142857 -2.571428571428571 0l-6.857142857142857 -5.142857142857142c-0.5395885714285714 -0.4045714285714285 -0.8571428571428571 -1.0398857142857143 -0.8571428571428571 -1.7142857142857142v-4.4136Zm4.285714285714286 3.3421714285714286v-4.714285714285714L24 31.392857142857142l4.714285714285714 3.5357142857142856v4.714285714285714L24 43.17874285714286l-4.714285714285714 -3.5358857142857145Z" clip-rule="evenodd" stroke-width="3.4286"></path>
  </g>
</svg>