<svg xmlns="http://www.w3.org/2000/svg" fill="none" viewBox="0 0 48 48" id="Netflix--Streamline-Core-Remix" height="48" width="48">
  <desc>
    Netflix Streamline Icon: https://streamlinehq.com
  </desc>
  <g id="Free Remix/Computer Devices/netflix">
    <path id="Union" fill="#000000" fill-rule="evenodd" d="M6.084034285714285 0.9895542857142856C6.477702857142857 0.3730868571428571 7.158617142857143 0 7.890068571428571 0h10.739245714285714c0.8170285714285714 0 1.5629485714285714 0.46460228571428563 1.9232228571428571 1.197894857142857l10.160571428571428 20.679442285714284 0 -20.16305142857143c0 -0.9467725714285714 0.76752 -1.7142857142857142 1.7142857142857142 -1.7142857142857142h8.111005714285714c0.4546285714285714 0 0.8907428571428571 0.18061062857142857 1.2123428571428572 0.5021005714285713 0.32159999999999994 0.32149028571428573 0.5019428571428571 0.7575291428571428 0.5019428571428571 1.2121851428571426l0 44.14285714285714h-0.0020571428571428568c0 0.4765714285714286 -0.15908571428571427 0.9493714285714284 -0.468 1.3368 -0.5173714285714286 0.6483428571428571 -1.3621714285714284 0.9397714285714286 -2.169257142857143 0.7484571428571428l-13.424125714285713 -3.1837714285714283c-0.6390514285714285 -0.15154285714285715 -1.1732914285714287 -0.5876571428571428 -1.4495657142857141 -1.183542857142857L17.28689142857143 27.50218285714286v15.600102857142854c0 0.7049142857142857 -0.43165714285714285 1.3381714285714283 -1.0879199999999998 1.5956571428571427l-8.111108571428572 3.1837714285714283c-0.5276914285714285 0.2070857142857143 -1.1236457142857144 0.13988571428571428 -1.592022857142857 -0.1793142857142857 -0.4683771428571429 -0.31954285714285713 -0.7486285714285713 -0.8495999999999999 -0.7486285714285713 -1.4166857142857143V2.142857142857143c0.00003428571428571428 -0.4025725714285714 0.11341714285714284 -0.8034205714285714 0.3368228571428571 -1.1533028571428572ZM11.245714285714284 4.285714285714286l16.944514285714284 36.542742857142855 7.990457142857143 1.8949714285714283L17.294639999999998 4.285714285714286H11.245714285714284Z" clip-rule="evenodd" stroke-width="3.4286"></path>
  </g>
</svg>