<svg xmlns="http://www.w3.org/2000/svg" fill="none" viewBox="0 0 48 48" id="Network--Streamline-Core-Remix" height="48" width="48">
  <desc>
    Network Streamline Icon: https://streamlinehq.com
  </desc>
  <g id="Free Remix/Computer Devices/network--network-server-internet-ethernet-connection">
    <path id="Union" fill="#000000" fill-rule="evenodd" d="M43.617599999999996 19.71425142857143c0 -10.834834285714285 -8.783314285714285 -19.618199657142856 -19.618251428571426 -19.618199657142856h-0.0019885714285714285C13.163417142857142 0.09712388571428571 4.381131428571428 8.880068571428572 4.381131428571428 19.71425142857143c0 9.815005714285713 7.207714285714286 17.94654857142857 16.61886857142857 19.39032v2.8954285714285715h-14.571428571428571c-1.6568571428571428 0 -3 1.3429714285714285 -3 3 0 1.6566857142857143 1.343142857142857 3 3 3h35.14285714285714c1.6566857142857143 0 3 -1.3433142857142857 3 -3 0 -1.6570285714285713 -1.3433142857142857 -3 -3 -3h-14.571428571428571v-2.8954285714285715c9.4104 -1.4444571428571429 16.6176 -9.575794285714286 16.6176 -19.39032Zm-14.411382857142856 -14.425714285714283c2.7332571428571426 3.9669942857142857 4.342697142857143 8.064925714285714 4.716205714285714 12.282857142857143h5.261005714285714c-0.7964571428571429 -5.693314285714285 -4.719085714285714 -10.38462857142857 -9.977211428571428 -12.282857142857143Zm-5.218388571428571 0.19268571428571427c3.3731314285714284 4.109245714285715 5.18832 8.136000000000001 5.627314285714285 12.090171428571427H18.436491428571426c0.3854742857142857 -4.016434285714285 2.185234285714286 -8.038971428571427 5.551337142857142 -12.090171428571427Zm5.569988571428571 16.37588571428571H18.55398857142857c0.5595085714285714 3.769028571428571 2.3265942857142856 7.74072 5.47704 11.935028571428571 3.215485714285714 -4.1359885714285705 5.004308571428571 -8.111108571428572 5.526788571428571 -11.935028571428571Zm-20.74241142857143 -4.285714285714286h5.319291428571429c0.32585142857142857 -4.259931428571428 1.90776 -8.349497142857143 4.609302857142857 -12.265302857142856 -5.233782857142857 1.9095085714285713 -9.134845714285714 6.589474285714285 -9.928594285714286 12.265302857142856ZM19.110274285714286 34.25074285714286C16.380171428571426 30.125794285714285 14.725097142857141 25.99285714285714 14.229599999999998 21.857108571428572H8.815405714285713c0.8121257142857142 5.807417142857142 4.8774171428571425 10.572308571428572 10.294868571428571 12.393634285714285Zm14.765897142857144 -12.393634285714285c-0.45744 4.171988571428572 -2.1108 8.291314285714284 -4.850434285714285 12.346731428571427 5.348777142857142 -1.8552 9.352319999999999 -6.58848 10.157691428571429 -12.346731428571427H33.876171428571425Z" clip-rule="evenodd" stroke-width="3.4286"></path>
  </g>
</svg>