<svg xmlns="http://www.w3.org/2000/svg" fill="none" viewBox="0 0 48 48" id="New-File--Streamline-Core-Remix" height="48" width="48">
  <desc>
    New File Streamline Icon: https://streamlinehq.com
  </desc>
  <g id="Free Remix/Interface Essential/new-file--empty-common-file-content">
    <path id="Union" fill="#000000" fill-rule="evenodd" d="M9 4.285714285714286c-0.3410057142857143 0 -0.6680228571428571 0.13546285714285713 -0.9091542857142857 0.37655999999999995 -0.24109714285714282 0.24113142857142858 -0.37655999999999995 0.5681485714285713 -0.37655999999999995 0.9091542857142857v36.857142857142854c0 0.34114285714285714 0.13546285714285713 0.6678857142857143 0.37655999999999995 0.9092571428571428 0.24113142857142858 0.24102857142857143 0.5681485714285713 0.3764571428571428 0.9091542857142857 0.3764571428571428h30c0.34114285714285714 0 0.6678857142857143 -0.13542857142857143 0.9092571428571428 -0.3764571428571428 0.24102857142857143 -0.24137142857142857 0.3764571428571428 -0.5681142857142857 0.3764571428571428 -0.9092571428571428V17.142857142857142H29.142857142857142c-0.9467657142857142 0 -1.7142857142857142 -0.76752 -1.7142857142857142 -1.7142857142857142V4.285714285714286H9ZM44.57142857142857 42.42857142857142V13.714285714285714c0 -0.5683199999999999 -0.22559999999999997 -1.11336 -0.6277714285714285 -1.515222857142857L32.37236571428571 0.6276274285714285C31.970502857142858 0.2257649142857143 31.425462857142858 0 30.857142857142854 0H9c-1.477645714285714 0 -2.894742857142857 0.5869885714285714 -3.9395999999999995 1.631832C4.015542857142857 2.676678857142857 3.4285714285714284 4.093782857142857 3.4285714285714284 5.571428571428571v36.857142857142854c0 1.4777142857142855 0.5869714285714285 2.894742857142857 1.6318285714285712 3.9394285714285715 1.044857142857143 1.0450285714285714 2.4619542857142855 1.632 3.9395999999999995 1.632h30c1.4777142857142855 0 2.894742857142857 -0.5869714285714285 3.9394285714285715 -1.632 1.0450285714285714 -1.0446857142857142 1.632 -2.4617142857142853 1.632 -3.9394285714285715Z" clip-rule="evenodd" stroke-width="3.4286"></path>
  </g>
</svg>