<svg xmlns="http://www.w3.org/2000/svg" fill="none" viewBox="0 0 48 48" id="New-Sticky-Note--Streamline-Core-Remix" height="48" width="48">
  <desc>
    New Sticky Note Streamline Icon: https://streamlinehq.com
  </desc>
  <g id="Free Remix/Interface Essential/new-sticky-note--empty-common-file">
    <path id="Union" fill="#000000" fill-rule="evenodd" d="M6.857142857142857 5.571428571428571c-0.3410057142857143 0 -0.6680228571428571 0.13546285714285713 -0.9091542857142857 0.37655999999999995C5.706891428571428 6.18912 5.571428571428571 6.516137142857142 5.571428571428571 6.857142857142857v34.285714285714285c0 0.34114285714285714 0.13546285714285713 0.6678857142857143 0.37655999999999995 0.9092571428571428 0.24113142857142858 0.24102857142857143 0.5681485714285713 0.3764571428571428 0.9091542857142857 0.3764571428571428h20.142857142857142V30.857142857142854c0 -1.0229828571428572 0.4063885714285714 -2.0040685714285713 1.1297142857142857 -2.7274285714285713 0.72336 -0.7233257142857142 1.7044457142857143 -1.1297142857142857 2.7274285714285713 -1.1297142857142857h11.571428571428571V6.857142857142857c0 -0.3410057142857143 -0.13542857142857143 -0.6680228571428571 -0.3764571428571428 -0.9091542857142857 -0.24137142857142857 -0.24109714285714282 -0.5681142857142857 -0.37655999999999995 -0.9092571428571428 -0.37655999999999995H6.857142857142857Zm39.261599999999994 25.054011428571425c0.3689142857142857 -0.38492571428571426 0.595542857142857 -0.9072685714285714 0.595542857142857 -1.4825828571428572V6.857142857142857c0 -1.477645714285714 -0.5869714285714285 -2.894742857142857 -1.632 -3.939596571428571C44.0376 1.8727028571428572 42.620571428571424 1.2857142857142856 41.14285714285714 1.2857142857142856H6.857142857142857c-1.477645714285714 0 -2.894742857142857 0.5869885714285714 -3.939596571428571 1.631832C1.8727028571428572 3.9623999999999997 1.2857142857142856 5.379497142857143 1.2857142857142856 6.857142857142857v34.285714285714285c0 1.4777142857142855 0.5869885714285714 2.894742857142857 1.631832 3.9394285714285715 1.0448537142857142 1.0450285714285714 2.461950857142857 1.632 3.939596571428571 1.632h22.285714285714285c0.5753142857142857 0 1.0976571428571427 -0.22662857142857143 1.4825828571428572 -0.595542857142857 0.011005714285714285 -0.010628571428571428 0.021874285714285714 -0.021257142857142856 0.03264 -0.032228571428571426l15.428434285714284 -15.428434285714284c0.010971428571428571 -0.010765714285714285 0.021599999999999998 -0.021634285714285714 0.032228571428571426 -0.03264Z" clip-rule="evenodd" stroke-width="3.4286"></path>
  </g>
</svg>