<svg xmlns="http://www.w3.org/2000/svg" fill="none" viewBox="0 0 48 48" id="News-Paper--Streamline-Core-Remix" height="48" width="48">
  <desc>
    News Paper Streamline Icon: https://streamlinehq.com
  </desc>
  <g id="Free Remix/Culture/news-paper--newspaper-periodical-fold-content-entertainment">
    <path id="Union" fill="#000000" fill-rule="evenodd" d="M1.094910857142857 4.189268571428571C1.8097611428571425 3.4403999999999995 2.8011497142857142 3 3.8571428571428568 3h31.71428571428571c1.0559999999999998 0 2.0475428571428567 0.4404 2.7624 1.1892685714285713 0.7114285714285714 0.7455085714285714 1.094742857142857 1.7362285714285712 1.094742857142857 2.749508571428571v4.22448h6.428571428571428c1.183542857142857 0 2.142857142857143 0.9593828571428571 2.142857142857143 2.142857142857143v25.061314285714282c0 1.7276571428571428 -0.6541714285714285 3.403542857142857 -1.848 4.654285714285714 -1.1972571428571428 1.2541714285714285 -2.842628571428571 1.978285714285714 -4.580571428571429 1.978285714285714h-36c-1.510662857142857 0 -2.9380765714285713 -0.6294857142857143 -3.974413714285714 -1.7153142857142856C0.5639108571428572 42.20228571428571 0 40.75474285714285 0 39.26537142857143V6.938777142857143c0 -1.01328 0.38330057142857143 -2.004 1.094910857142857 -2.749508571428571ZM35.55874285714285 40.714285714285715H5.571428571428571c-0.3079885714285714 0 -0.6246857142857143 -0.1272 -0.87432 -0.3888 -0.25285714285714284 -0.2650285714285714 -0.4113942857142857 -0.6445714285714286 -0.4113942857142857 -1.0601142857142856V7.285714285714286h30.857142857142854v31.081714285714284c0 0.8060571428571428 0.1426285714285714 1.6011428571428572 0.4158857142857143 2.3468571428571425ZM10.285714285714285 14.571428571428571c0 -0.9467657142857142 0.76752 -1.7142857142857142 1.7142857142857142 -1.7142857142857142H27.428571428571427c0.9467657142857142 0 1.7142857142857142 0.76752 1.7142857142857142 1.7142857142857142v8.571428571428571c0 0.9467657142857142 -0.76752 1.7142857142857142 -1.7142857142857142 1.7142857142857142H12c-0.9467657142857142 0 -1.7142857142857142 -0.76752 -1.7142857142857142 -1.7142857142857142v-8.571428571428571Zm2.142857142857143 16.71428571428571c-1.1834742857142857 0 -2.142857142857143 0.9593828571428571 -2.142857142857143 2.142857142857143 0 1.183542857142857 0.9593828571428571 2.142857142857143 2.142857142857143 2.142857142857143h14.571428571428571c1.1834742857142857 0 2.142857142857143 -0.9593142857142857 2.142857142857143 -2.142857142857143 0 -1.1834742857142857 -0.9593828571428571 -2.142857142857143 -2.142857142857143 -2.142857142857143h-14.571428571428571Z" clip-rule="evenodd" stroke-width="3.4286"></path>
  </g>
</svg>