<svg xmlns="http://www.w3.org/2000/svg" fill="none" viewBox="0 0 48 48" id="Next--Streamline-Core-Remix" height="48" width="48">
  <desc>
    Next Streamline Icon: https://streamlinehq.com
  </desc>
  <g id="Free Remix/Computer Devices/next--next-arrow-right-keyboard">
    <path id="Union" fill="#000000" fill-rule="evenodd" d="M21.7836 7.359291428571428c-0.4902857142857142 -0.4902857142857142 -1.2275999999999998 -0.63696 -1.8681942857142855 -0.37162285714285714 -0.6405942857142857 0.26537142857142854 -1.058262857142857 0.8904342857142856 -1.058262857142857 1.5837942857142857v13.285714285714285H2.142857142857143c-1.1834674285714284 0 -2.142857142857143 0.9594171428571429 -2.142857142857143 2.142857142857143 0 1.1834742857142857 0.9593897142857143 2.142857142857143 2.142857142857143 2.142857142857143H18.857142857142858V39.42857142857142c0 0.6932571428571428 0.4176685714285714 1.3186285714285713 1.058262857142857 1.584 0.6405942857142857 0.2650285714285714 1.3779085714285715 0.11862857142857142 1.8681942857142855 -0.3716571428571428l15.428742857142856 -15.428674285714283c0.6692571428571429 -0.669462857142857 0.6692571428571429 -1.7549142857142856 0 -2.424377142857143l-15.428742857142856 -15.428571428571427ZM48 9.857177142857143c0 -1.6568228571428572 -1.3433142857142857 -3 -3 -3s-3 1.3431771428571428 -3 3V38.14285714285714c0 1.6570285714285713 1.3433142857142857 3 3 3s3 -1.3429714285714285 3 -3V9.857177142857143Z" clip-rule="evenodd" stroke-width="3.4286"></path>
  </g>
</svg>