<svg xmlns="http://www.w3.org/2000/svg" fill="none" viewBox="0 0 48 48" id="Nintendo-Switch--Streamline-Core-Remix" height="48" width="48">
  <desc>
    Nintendo Switch Streamline Icon: https://streamlinehq.com
  </desc>
  <g id="Free Remix/Entertainment/nintendo-switch--nintendo-switch-entertainment-gaming">
    <path id="Union" fill="#000000" fill-rule="evenodd" d="M0.42857142857142855 13.714285714285714C0.42857142857142855 6.8501828571428565 5.99304 1.2857142857142856 12.857142857142856 1.2857142857142856h6.9920228571428575c1.1834742857142857 0 2.142857142857143 0.9593897142857143 2.142857142857143 2.142857142857143v41.14114285714285c0 1.183542857142857 -0.9593828571428571 2.142857142857143 -2.142857142857143 2.142857142857143H12.857142857142856c-6.864102857142857 0 -12.428571428571427 -5.564228571428571 -12.428571428571427 -12.4284V13.714285714285714Zm5.559702857142857 1.6439314285714286c0 -2.8846971428571426 2.3384914285714284 -5.2231885714285715 5.223154285714285 -5.2231885714285715 2.8846971428571426 0 5.2231885714285715 2.3384914285714284 5.2231885714285715 5.2231885714285715 0 2.8846628571428568 -2.3384914285714284 5.223154285714285 -5.2231885714285715 5.223154285714285 -2.8846628571428568 0 -5.223154285714285 -2.3384914285714284 -5.223154285714285 -5.223154285714285ZM28.150114285714285 1.2873874285714284c-1.1834742857142857 0 -2.142857142857143 0.9593897142857143 -2.142857142857143 2.142864V44.57142857142857c0 1.183542857142857 0.9593828571428571 2.142857142857143 2.142857142857143 2.142857142857143h6.992057142857143c6.863999999999999 0 12.428571428571427 -5.564228571428571 12.428571428571427 -12.428571428571427V13.715965714285714c0 -6.864102857142857 -5.564571428571428 -12.428578285714284 -12.428571428571427 -12.428578285714284H28.150114285714285Zm2.142857142857143 41.141183999999996V5.5731085714285715h4.8492c4.497257142857143 0 8.142857142857142 3.6456685714285713 8.142857142857142 8.142857142857142V34.285714285714285c0 4.497257142857143 -3.6455999999999995 8.142857142857142 -8.142857142857142 8.142857142857142H30.292971428571427Zm1.2723085714285713 -9.78846857142857c0 2.8846971428571426 2.3384914285714284 5.223325714285714 5.223291428571429 5.223325714285714 2.884457142857143 0 5.223085714285714 -2.3386285714285715 5.223085714285714 -5.223325714285714 0 -2.8846628571428568 -2.3386285714285715 -5.223154285714285 -5.223085714285714 -5.223154285714285 -2.8848 0 -5.223291428571429 2.3384914285714284 -5.223291428571429 5.223154285714285Z" clip-rule="evenodd" stroke-width="3.4286"></path>
  </g>
</svg>