<svg xmlns="http://www.w3.org/2000/svg" fill="none" viewBox="0 0 48 48" id="No-Poverty--Streamline-Core-Remix" height="48" width="48">
  <desc>
    No Poverty Streamline Icon: https://streamlinehq.com
  </desc>
  <g id="Free Remix/Nature Ecology/no-poverty">
    <path id="Union" fill="#000000" fill-rule="evenodd" d="M36 4.714285714285714c1.6566857142857143 0 3 1.343142857142857 3 3s-1.3433142857142857 3 -3 3 -3 -1.343142857142857 -3 -3 1.3433142857142857 -3 3 -3Zm7.285714285714286 3c0 -4.023805714285714 -3.261942857142857 -7.285714285714286 -7.285714285714286 -7.285714285714286s-7.285714285714286 3.261908571428571 -7.285714285714286 7.285714285714286 3.261942857142857 7.285714285714286 7.285714285714286 7.285714285714286 7.285714285714286 -3.261908571428571 7.285714285714286 -7.285714285714286ZM12 4.714285714285714c-1.6568571428571428 0 -3 1.343142857142857 -3 3s1.343142857142857 3 3 3 3 -1.343142857142857 3 -3 -1.343142857142857 -3 -3 -3Zm-7.285714285714286 3c0 -4.023805714285714 3.261942857142857 -7.285714285714286 7.285714285714286 -7.285714285714286s7.285714285714286 3.261908571428571 7.285714285714286 7.285714285714286S16.02377142857143 15 12 15 4.714285714285714 11.738091428571428 4.714285714285714 7.7142857142857135Zm30 17.142857142857142c0 -2.701508571428571 -0.99984 -5.169497142857143 -2.6496342857142854 -7.0541142857142844C33.297462857142854 17.375279999999997 34.62171428571428 17.142857142857142 36 17.142857142857142 42.62742857142857 17.142857142857142 48 22.515428571428572 48 29.142857142857142c0 0.9467657142857142 -0.7676571428571428 1.7142857142857142 -1.7142857142857142 1.7142857142857142H32.878011428571426c1.1592 -1.7118857142857142 1.8362742857142855 -3.7768800000000002 1.8362742857142855 -6ZM15.122057142857141 30.857142857142854c-1.1592 -1.7118857142857142 -1.8362742857142855 -3.7768800000000002 -1.8362742857142855 -6 0 -2.701508571428571 0.9998057142857142 -5.169497142857143 2.6496342857142854 -7.0541142857142844C14.702605714285713 17.375279999999997 13.378491428571428 17.142857142857142 12.00006857142857 17.142857142857142 5.37264 17.142857142857142 0.00006212502857142857 22.515428571428572 0.00006212502857142857 29.142857142857142c0 0.9467657142857142 0.7675093035428571 1.7142857142857142 1.7142853035428571 1.7142857142857142H15.122057142857141ZM24 21.857142857142858c1.6568571428571428 0 3 1.343142857142857 3 3s-1.343142857142857 3 -3 3 -3 -1.343142857142857 -3 -3 1.343142857142857 -3 3 -3Zm7.285714285714286 3c0 -4.023771428571428 -3.261942857142857 -7.285714285714286 -7.285714285714286 -7.285714285714286s-7.285714285714286 3.261942857142857 -7.285714285714286 7.285714285714286S19.976228571428567 32.14285714285714 24 32.14285714285714s7.285714285714286 -3.261942857142857 7.285714285714286 -7.285714285714286ZM24 34.285714285714285c6.627428571428571 0 12 5.372571428571428 12 12 0 0.9466285714285714 -0.7676571428571428 1.7142857142857142 -1.7142857142857142 1.7142857142857142H13.714285714285714c-0.9467657142857142 0 -1.7142857142857142 -0.7676571428571428 -1.7142857142857142 -1.7142857142857142C12 39.65828571428571 17.37257142857143 34.285714285714285 24 34.285714285714285Z" clip-rule="evenodd" stroke-width="3.4286"></path>
  </g>
</svg>