<svg xmlns="http://www.w3.org/2000/svg" fill="none" viewBox="0 0 48 48" id="Not-Equal-Sign--Streamline-Core-Remix" height="48" width="48">
  <desc>
    Not Equal Sign Streamline Icon: https://streamlinehq.com
  </desc>
  <g id="Free Remix/Interface Essential/not-equal-sign--interface-math-not-equal-sign-mathematics">
    <path id="Union" fill="#000000" fill-rule="evenodd" d="M37.46537142857143 3.145902857142857c0.5537142857142857 -1.0459337142857141 0.15462857142857142 -2.342718857142857 -0.8914285714285715 -2.8964482285714284 -1.0457142857142856 -0.5537300571428571 -2.342605714285714 -0.15471942857142856 -2.8963542857142857 0.8912139428571427L27.247645714285714 13.286159999999999H2.142857142857143c-1.1834674285714284 0 -2.142857142857143 0.9593828571428571 -2.142857142857143 2.142857142857143 0 1.1834399999999998 0.9593897142857143 2.142857142857143 2.142857142857143 2.142857142857143h22.835862857142853l-6.806708571428571 12.857142857142856H2.142857142857143c-1.1834674285714284 0 -2.142857142857143 0.9593828571428571 -2.142857142857143 2.142857142857143 0 1.1834399999999998 0.9593897142857143 2.1427542857142856 2.142857142857143 2.1427542857142856h13.76022857142857l-5.368354285714286 10.140342857142857c-0.5537142857142857 1.0460571428571428 -0.15469714285714284 2.342742857142857 0.8912228571428571 2.896457142857143 1.04592 0.5537142857142857 2.342708571428571 0.15462857142857142 2.896457142857143 -0.8910857142857143l6.429942857142857 -12.145714285714284H45.857142857142854c1.183542857142857 0 2.142857142857143 -0.9593142857142857 2.142857142857143 -2.1427542857142856 0 -1.1834742857142857 -0.9593142857142857 -2.142857142857143 -2.142857142857143 -2.142857142857143H23.02128l6.806708571428571 -12.857142857142856H45.857142857142854c1.183542857142857 0 2.142857142857143 -0.9594171428571429 2.142857142857143 -2.142857142857143 0 -1.1834742857142857 -0.9593142857142857 -2.142857142857143 -2.142857142857143 -2.142857142857143H32.096914285714284L37.46537142857143 3.145902857142857Z" clip-rule="evenodd" stroke-width="3.4286"></path>
  </g>
</svg>