<svg xmlns="http://www.w3.org/2000/svg" fill="none" viewBox="0 0 48 48" id="Notification-Message-Alert--Streamline-Core-Remix" height="48" width="48">
  <desc>
    Notification Message Alert Streamline Icon: https://streamlinehq.com
  </desc>
  <g id="Free Remix/Phone/notification-message-alert--android-phone-mobile-device-smartphone-iphone-alert-message-text">
    <path id="Subtract" fill="#000000" fill-rule="evenodd" d="M4.285714285714286 5.505497142857142c0 -0.67368 0.5461028571428571 -1.219782857142857 1.219782857142857 -1.219782857142857h14.291211428571426c1.1834742857142857 0 2.142857142857143 -0.9593897142857143 2.142857142857143 -2.142857142857143S20.980182857142857 0 19.79670857142857 0H5.505497142857142C2.4648925714285714 0 0 2.4648925714285714 0 5.505497142857142V42.4944C0 45.535199999999996 2.4648925714285714 48 5.505497142857142 48h23.538445714285714c3.0406285714285715 0 5.505428571428571 -2.4648 5.505428571428571 -5.505599999999999V32.40658285714285c0 -1.1834742857142857 -0.9593142857142857 -2.142857142857143 -2.142788571428571 -2.142857142857143 -1.1834399999999998 0 -2.142857142857143 0.9593828571428571 -2.142857142857143 2.142857142857143v10.087817142857142c0 0.6737142857142857 -0.5461028571428571 1.2198857142857142 -1.219782857142857 1.2198857142857142H5.505497142857142c-0.67368 0 -1.219782857142857 -0.5461714285714285 -1.219782857142857 -1.2198857142857142V5.505497142857142Zm11.307771428571428 28.94513142857143c-1.6568571428571428 0 -3 1.3429714285714285 -3 3 0 1.6566857142857143 1.343142857142857 3 3 3h3.362605714285714c1.6568571428571428 0 3 -1.3433142857142857 3 -3 0 -1.6570285714285713 -1.343142857142857 -3 -3 -3H15.593485714285713ZM33.99003428571428 0.42857142857142855c-3.6024685714285716 0 -7.057405714285713 1.431078857142857 -9.604731428571428 3.978411428571428 -2.5473257142857144 2.5473257142857144 -3.978411428571428 6.002262857142857 -3.978411428571428 9.604731428571428l0.00003428571428571428 0.00912c0.0084 1.58496 0.28419428571428573 3.1553142857142857 0.81408 4.645371428571428l-2.1599657142857143 5.057485714285714c-0.24119999999999997 0.5647885714285713 -0.16186285714285714 1.215462857142857 0.20801142857142857 1.7057485714285714 0.3698742857142857 0.4902857142857142 0.9737828571428571 0.7452342857142856 1.5831085714285713 0.6683657142857142l5.700171428571428 -0.7192114285714286c1.594902857142857 1.0434171428571428 3.3939085714285713 1.7409599999999998 5.280822857142857 2.044182857142857 2.1177942857142855 0.3403885714285714 4.28616 0.17434285714285713 6.327188571428571 -0.48445714285714286 2.0413714285714284 -0.6588342857142857 3.8975999999999997 -1.7917371428571427 5.4168 -3.3059314285714283 1.5191999999999999 -1.5141942857142856 2.6585142857142854 -3.3666514285714286 3.324 -5.4057257142857145 0.6654857142857142 -2.0391085714285713 0.8389714285714285 -4.206822857142857 0.5053714285714286 -6.325748571428571 -0.3332571428571428 -2.118891428571428 -1.1636571428571427 -4.128754285714286 -2.4229714285714286 -5.864982857142857 -1.2596571428571428 -1.736262857142857 -2.9122285714285714 -3.1495508571428568 -4.822971428571429 -4.124184C38.24948571428571 0.9371177142857143 36.135085714285715 0.42885599999999996 33.990274285714285 0.42857142857142855l-0.00023999999999999998 1.7142857142857142v-1.7142857142857142Zm2.2410514285714283 6.8496c0 -1.1834742857142857 -0.9593142857142857 -2.142857142857143 -2.142925714285714 -2.142857142857143 -1.1834399999999998 0 -2.142857142857143 0.9593828571428571 -2.142857142857143 2.142857142857143v5.043977142857143c0 1.1834399999999998 0.9594171428571429 2.142857142857143 2.142857142857143 2.142857142857143 1.1836114285714285 0 2.142925714285714 -0.9594171428571429 2.142925714285714 -2.142857142857143V7.278171428571428Zm-2.1431657142857143 9.642857142857142 -0.00034285714285714285 0c-1.6477371428571428 0 -2.983508571428571 1.3357714285714286 -2.983508571428571 2.983542857142857 0 1.6477371428571428 1.3357714285714286 2.983508571428571 2.983508571428571 2.983508571428571l0.00034285714285714285 0c1.6477371428571428 0 2.983508571428571 -1.3357714285714286 2.983508571428571 -2.983508571428571 0 -1.6477714285714287 -1.3357714285714286 -2.983542857142857 -2.983508571428571 -2.983542857142857Z" clip-rule="evenodd" stroke-width="3.4286"></path>
  </g>
</svg>