<svg xmlns="http://www.w3.org/2000/svg" fill="none" viewBox="0 0 48 48" id="Notification-Application-2--Streamline-Core-Remix" height="48" width="48">
  <desc>
    Notification Application 2 Streamline Icon: https://streamlinehq.com
  </desc>
  <g id="Free Remix/Phone/notification-application-2--android-phone-mobile-device-smartphone-iphone-alert-box">
    <path id="Union" fill="#000000" fill-rule="evenodd" d="M45.50982857142857 2.142857142857143c0 -1.1834674285714284 -0.9593142857142857 -2.142857142857143 -2.142857142857143 -2.142857142857143s-2.142857142857143 0.9593897142857143 -2.142857142857143 2.142857142857143v10.285714285714285c0 1.1834742857142857 0.9593142857142857 2.142857142857143 2.142857142857143 2.142857142857143s2.142857142857143 -0.9593828571428571 2.142857142857143 -2.142857142857143v-10.285714285714285ZM43.366971428571425 24c-1.6570285714285713 0 -3 -1.343142857142857 -3 -3s1.3429714285714285 -3 3 -3c1.6566857142857143 0 3 1.343142857142857 3 3s-1.3433142857142857 3 -3 3ZM10.518788571428571 6.725314285714285c-4.897714285714286 0 -8.86812 3.970388571428571 -8.86812 8.868137142857142v23.53854857142857C1.6506685714285714 44.029714285714284 5.621074285714285 48 10.518788571428571 48h23.538479999999996c4.897817142857143 0 8.868102857142857 -3.9702857142857138 8.868102857142857 -8.868V29.934102857142854c0 -1.1834742857142857 -0.9593142857142857 -2.142857142857143 -2.142857142857143 -2.142857142857143s-2.142857142857143 0.9593828571428571 -2.142857142857143 2.142857142857143v9.197897142857142c0 2.5306285714285712 -2.051657142857143 4.582285714285714 -4.582388571428571 4.582285714285714H10.518788571428571c-2.5307999999999997 0 -4.582388571428571 -2.051657142857143 -4.582388571428571 -4.582285714285714V15.593451428571429c0 -2.5307999999999997 2.0515885714285713 -4.582422857142857 4.582388571428571 -4.582422857142857h23.538479999999996c1.183302857142857 0 2.14296 -0.9593828571428571 2.14296 -2.142857142857143s-0.9596571428571428 -2.142857142857143 -2.14296 -2.142857142857143H10.518788571428571Z" clip-rule="evenodd" stroke-width="3.4286"></path>
  </g>
</svg>