<svg xmlns="http://www.w3.org/2000/svg" fill="none" viewBox="0 0 48 48" id="Notification-Alarm-2--Streamline-Core-Remix" height="48" width="48">
  <desc>
    Notification Alarm 2 Streamline Icon: https://streamlinehq.com
  </desc>
  <g id="Free Remix/Phone/notification-alarm-2--android-phone-mobile-device-smartphone-iphone-alert-bell-alarm">
    <path id="Union" fill="#000000" fill-rule="evenodd" d="M27.329794285714286 10.549439999999999C27.329794285714286 4.95984 31.861062857142855 0.42857142857142855 37.45062857142857 0.42857142857142855c5.5896 0 10.120800000000001 4.531268571428571 10.120800000000001 10.12086857142857 0 5.589634285714285 -4.5312 10.120902857142857 -10.120800000000001 10.120902857142857 -5.5895657142857145 0 -10.120834285714285 -4.531268571428571 -10.120834285714285 -10.120902857142857Zm-17.718651428571427 -0.9381599999999999c2.924331428571428 -2.924331428571428 6.890605714285714 -4.5672 11.026217142857142 -4.5672 0.6159085714285714 0 1.2281142857142857 0.03644571428571428 1.8337714285714286 0.10817142857142857 1.1752457142857142 0.13913142857142854 2.0151771428571426 1.204662857142857 1.876045714285714 2.3799428571428574 -0.13916571428571428 1.1752457142857142 -1.204697142857143 2.0151771428571426 -2.3799428571428574 1.876045714285714 -0.4390971428571428 -0.05201142857142857 -0.8830628571428571 -0.07844571428571429 -1.3298742857142856 -0.07844571428571429 -2.9989714285714286 0 -5.875131428571429 1.19136 -7.995737142857142 3.311965714285714 -2.120605714285714 2.120605714285714 -3.311965714285714 4.996731428571428 -3.311965714285714 7.995737142857142v11.769222857142857c0 1.0087885714285714 -0.21205714285714286 1.9955657142857142 -0.6115542857142857 2.9010514285714284h23.838514285714282c-0.3994628571428571 -0.9054857142857142 -0.6115542857142857 -1.892262857142857 -0.6115542857142857 -2.9010514285714284v-6.426514285714285c0 -1.1834742857142857 0.9593828571428571 -2.142857142857143 2.142857142857143 -2.142857142857143 1.1835085714285714 0 2.1428228571428574 0.9593828571428571 2.1428228571428574 2.142857142857143v6.426514285714285c0 0.7694057142857142 0.3058285714285714 1.5073371428571427 0.8495999999999999 2.0514514285714283 0.5441142857142857 0.5441142857142857 1.281942857142857 0.8495999999999999 2.051657142857143 0.8495999999999999 1.1832 0 2.142857142857143 0.9593142857142857 2.142857142857143 2.142857142857143s-0.9596571428571428 2.142857142857143 -2.142857142857143 2.142857142857143H2.142857142857143c-1.1834674285714284 0 -2.142857142857143 -0.9593142857142857 -2.142857142857143 -2.142857142857143s0.9593897142857143 -2.142857142857143 2.142857142857143 -2.142857142857143c0.7694194285714285 0 1.5073371428571427 -0.30548571428571425 2.051382857142857 -0.8495999999999999 0.54408 -0.5441142857142857 0.8497028571428571 -1.2820457142857142 0.8497028571428571 -2.0514514285714283V20.63749714285714c0 -4.1356457142857135 1.6428685714285713 -8.101885714285713 4.5672 -11.026217142857142ZM15.13224 45.857142857142854c0 -1.183542857142857 0.9594171428571429 -2.142857142857143 2.142857142857143 -2.142857142857143h6.72528c1.1834742857142857 0 2.142857142857143 0.9593142857142857 2.142857142857143 2.142857142857143s-0.9593828571428571 2.142857142857143 -2.142857142857143 2.142857142857143H17.275097142857142c-1.1834399999999998 0 -2.142857142857143 -0.9593142857142857 -2.142857142857143 -2.142857142857143Z" clip-rule="evenodd" stroke-width="3.4286"></path>
  </g>
</svg>