<svg xmlns="http://www.w3.org/2000/svg" fill="none" viewBox="0 0 48 48" id="Notification-Application-1--Streamline-Core-Remix" height="48" width="48">
  <desc>
    Notification Application 1 Streamline Icon: https://streamlinehq.com
  </desc>
  <g id="Free Remix/Phone/notification-application-1--android-phone-mobile-device-smartphone-iphone-alert-box">
    <path id="Union" fill="#000000" fill-rule="evenodd" d="M27.329794285714286 10.549439999999999C27.329794285714286 4.95984 31.861062857142855 0.42857142857142855 37.45062857142857 0.42857142857142855c5.5896 0 10.120800000000001 4.531268571428571 10.120800000000001 10.12086857142857 0 5.589634285714285 -4.5312 10.120902857142857 -10.120800000000001 10.120902857142857 -5.5895657142857145 0 -10.120834285714285 -4.531268571428571 -10.120834285714285 -10.120902857142857ZM8.868137142857142 6.725314285714285c-2.351965714285714 0 -4.607622857142857 0.9343199999999998 -6.270719999999999 2.5974171428571426C0.9343199999999998 10.985828571428572 0 13.241451428571427 0 15.593451428571429v23.53854857142857c0 2.352 0.9343199999999998 4.607657142857143 2.5974171428571426 6.2705142857142855 1.6630971428571428 1.6631999999999998 3.918754285714286 2.5974857142857144 6.270719999999999 2.5974857142857144h23.538445714285714c2.3519314285714286 0 4.607588571428571 -0.9342857142857143 6.270788571428572 -2.5974857142857144 1.6631999999999998 -1.6628571428571428 2.5974857142857144 -3.9185142857142856 2.5974857142857144 -6.2705142857142855V25.68133714285714c0 -1.1834399999999998 -0.9596571428571428 -2.142857142857143 -2.142857142857143 -2.142857142857143 -1.183542857142857 0 -2.142857142857143 0.9594171428571429 -2.142857142857143 2.142857142857143v13.450662857142856c0 1.215085714285714 -0.48308571428571423 2.3808 -1.3422857142857143 3.2399999999999998 -0.859542857142857 0.859542857142857 -2.0249485714285713 1.3422857142857143 -3.2402742857142854 1.3422857142857143H8.868137142857142c-1.2153257142857143 0 -2.380902857142857 -0.48274285714285714 -3.2402742857142854 -1.3422857142857143 -0.8593714285714285 -0.8592 -1.3421485714285712 -2.0249142857142854 -1.3421485714285712 -3.2399999999999998V15.593451428571429c0 -1.21536 0.4827771428571428 -2.380902857142857 1.3421485714285712 -3.2402742857142854 0.8593714285714285 -0.8593714285714285 2.0249485714285713 -1.3421485714285712 3.2402742857142854 -1.3421485714285712h13.45056c1.1834399999999998 0 2.142857142857143 -0.9593828571428571 2.142857142857143 -2.142857142857143s-0.9594171428571429 -2.142857142857143 -2.142857142857143 -2.142857142857143H8.868137142857142Z" clip-rule="evenodd" stroke-width="3.4286"></path>
  </g>
</svg>