<svg xmlns="http://www.w3.org/2000/svg" fill="none" viewBox="0 0 48 48" id="Nurse-Hat--Streamline-Core-Remix" height="48" width="48">
  <desc>
    Nurse Hat Streamline Icon: https://streamlinehq.com
  </desc>
  <g id="Free Remix/Health/nurse-hat--health-medical-hospital-nurse-doctor-cap">
    <path id="Union" fill="#000000" fill-rule="evenodd" d="M31.577074285714282 3.4321714285714284H16.287599999999998c-1.1195314285714284 -0.041842285714285714 -2.2225714285714284 0.28296 -3.141085714285714 0.9257485714285713 -0.9097028571428571 0.6365828571428571 -1.5883542857142856 1.5500571428571428 -1.9354971428571428 2.60328L7.5105257142857145 16.127794285714284c-2.0180571428571428 0.45212571428571424 -4.02192 0.9882857142857142 -6.006356571428571 1.60848 -1.119144 0.3497828571428571 -1.749352114285714 1.5340799999999999 -1.4142613714285714 2.6576914285714284L6.815177142857142 42.945257142857145c0.27082285714285714 0.9078857142857142 1.1058857142857141 1.5305142857142857 2.0535085714285715 1.5305142857142857h30.26365714285714c0.9476571428571428 0 1.782857142857143 -0.6226285714285714 2.0537142857142854 -1.5305142857142857l6.725142857142857 -22.551291428571428c0.33497142857142853 -1.1236114285714285 -0.29519999999999996 -2.307908571428571 -1.4142857142857141 -2.6576914285714284 -1.9861714285714287 -0.6207085714285714 -3.9915428571428566 -1.1572457142857142 -6.011314285714286 -1.6095771428571428l-3.835542857142857 -9.176468571428572c-0.3483428571428571 -1.0485942857142856 -1.0254857142857141 -1.9579542857142855 -1.932 -2.5923085714285716 -0.9184114285714285 -0.6427885714285714 -2.0214514285714285 -0.9675908571428572 -3.1409828571428573 -0.9257485714285713ZM15.857691428571428 29.223222857142858c0 -1.1834742857142857 0.9593828571428571 -2.142857142857143 2.142857142857143 -2.142857142857143h3.8571428571428568v-3.8571428571428568c0 -1.1834742857142857 0.9593828571428571 -2.142857142857143 2.142857142857143 -2.142857142857143 1.1834399999999998 0 2.142857142857143 0.9593828571428571 2.142857142857143 2.142857142857143v3.8571428571428568h3.8571428571428568c1.1834399999999998 0 2.142857142857143 0.9593828571428571 2.142857142857143 2.142857142857143s-0.9594171428571429 2.142857142857143 -2.142857142857143 2.142857142857143h-3.8571428571428568v3.857005714285714c0 1.183542857142857 -0.9594171428571429 2.142857142857143 -2.142857142857143 2.142857142857143 -1.1834742857142857 0 -2.142857142857143 -0.9593142857142857 -2.142857142857143 -2.142857142857143V31.36608h-3.8571428571428568c-1.1834742857142857 0 -2.142857142857143 -0.9593828571428571 -2.142857142857143 -2.142857142857143ZM4.81032 21.226114285714285l5.655428571428571 18.963942857142857h27.069565714285712l5.655428571428571 -18.963942857142857c-12.548605714285713 -3.51576 -25.831782857142855 -3.51576 -38.380422857142854 0Z" clip-rule="evenodd" stroke-width="3.4286"></path>
  </g>
</svg>