<svg xmlns="http://www.w3.org/2000/svg" fill="none" viewBox="0 0 48 48" id="Nurse-Assistant-Emergency--Streamline-Core-Remix" height="48" width="48">
  <desc>
    Nurse Assistant Emergency Streamline Icon: https://streamlinehq.com
  </desc>
  <g id="Free Remix/Health/nurse-assistant-emergency">
    <path id="Union" fill="#000000" fill-rule="evenodd" d="M17.13768 4.279851428571428c-3.3168342857142856 0 -6.006548571428572 2.6896114285714283 -6.006548571428572 6.008502857142857s2.6897142857142855 6.008502857142857 6.006548571428572 6.008502857142857c3.3168342857142856 0 6.006548571428572 -2.6896114285714283 6.006548571428572 -6.008502857142857s-2.6897142857142855 -6.008502857142857 -6.006548571428572 -6.008502857142857ZM6.845417142857142 10.288354285714286c0 -5.684845714285714 4.60752 -10.294213645714285 10.292262857142857 -10.294213645714285S27.42994285714286 4.603508571428571 27.42994285714286 10.288354285714286c0 5.684845714285714 -4.60752 10.294217142857141 -10.292262857142857 10.294217142857141s-10.292262857142857 -4.6093714285714285 -10.292262857142857 -10.294217142857141Zm28.351954285714285 19.70664v3.059588571428571c0 1.1834399999999998 -0.9593828571428571 2.142788571428571 -2.142857142857143 2.142788571428571h-3.05952v3.3096h3.05952c1.1834742857142857 0 2.142857142857143 0.9593142857142857 2.142857142857143 2.142857142857143v3.0593142857142857h3.3096v-3.0593142857142857c0 -1.183542857142857 0.9593142857142857 -2.142857142857143 2.142857142857143 -2.142857142857143h3.0593142857142857v-3.3096h-3.0593142857142857c-1.183542857142857 0 -2.142857142857143 -0.9593485714285714 -2.142857142857143 -2.142788571428571v-3.059588571428571h-3.3096Zm-4.285714285714286 -0.9598971428571428c0 -1.836822857142857 1.4890285714285714 -3.3258171428571424 3.3258171428571424 -3.3258171428571424h5.229154285714285c1.8370285714285715 0 3.3260571428571426 1.4889942857142857 3.3260571428571426 3.3258171428571424v1.8766285714285713h1.8764571428571428c1.836685714285714 0 3.3257142857142856 1.4890285714285714 3.3257142857142856 3.3258171428571424v5.2294285714285715c0 1.836685714285714 -1.4890285714285714 3.3257142857142856 -3.3257142857142856 3.3257142857142856h-1.8764571428571428v1.8764571428571428c0 1.836685714285714 -1.4890285714285714 3.3257142857142856 -3.3260571428571426 3.3257142857142856H34.237474285714285c-1.8367885714285714 0 -3.3258171428571424 -1.4890285714285714 -3.3258171428571424 -3.3257142857142856v-1.8764571428571428h-1.8765599999999998c-1.836822857142857 0 -3.3258171428571424 -1.4890285714285714 -3.3258171428571424 -3.3257142857142856V34.237542857142856c0 -1.8367885714285714 1.4889942857142857 -3.3258171428571424 3.3258171428571424 -3.3258171428571424h1.8765599999999998v-1.8766285714285713ZM17.137371428571427 24.005862857142855c3.997131428571428 0 7.629462857142856 1.4508685714285714 10.510662857142856 3.863828571428571h-0.4691314285714286c-3.1758171428571424 0 -5.750331428571428 2.5745142857142858 -5.750331428571428 5.750365714285714v6.474342857142856c0 1.805142857142857 0.8318399999999999 3.416228571428571 2.13312 4.470514285714286H2.1445302857142856c-1.1834674285714284 0 -2.142856179428571 -0.9596571428571428 -2.142856179428571 -2.142857142857143C0.0016741062857142856 32.419714285714285 7.511657142857143 24.005862857142855 17.137371428571427 24.005862857142855Z" clip-rule="evenodd" stroke-width="3.4286"></path>
  </g>
</svg>