<svg xmlns="http://www.w3.org/2000/svg" fill="none" viewBox="0 0 48 48" id="Octopus--Streamline-Core-Remix" height="48" width="48">
  <desc>
    Octopus Streamline Icon: https://streamlinehq.com
  </desc>
  <g id="Free Remix/Nature Ecology/octopus--nature-sealife-animals">
    <path id="Union" fill="#000000" fill-rule="evenodd" d="M21.55038857142857 4.714285714285714C16.039165714285712 4.714285714285714 11.571428571428571 9.182022857142856 11.571428571428571 14.693245714285712v0.17232c0 2.536251428571428 1.00752 4.9686514285714285 2.800937142857143 6.762068571428571l1.2983314285714285 1.2983314285714285c1.7658514285714286 1.7658171428571428 2.7578742857142857 4.160811428571429 2.7578742857142857 6.65808V30c0 4.9704 -4.0294285714285705 9 -9 9S0.42857142857142855 34.9704 0.42857142857142855 30c0 -1.1834742857142857 0.9593897142857143 -2.142857142857143 2.142857142857143 -2.142857142857143 1.1834742857142857 0 2.142857142857143 0.9593828571428571 2.142857142857143 2.142857142857143 0 2.6036228571428572 2.110662857142857 4.714285714285714 4.714285714285714 4.714285714285714s4.714285714285714 -2.110662857142857 4.714285714285714 -4.714285714285714v-0.41595428571428567c0 -1.3606285714285713 -0.5405142857142857 -2.6655085714285716 -1.502605714285714 -3.6276342857142856l-1.2983314285714285 -1.2983314285714285C8.744777142857142 22.060937142857142 7.285714285714286 18.53845714285714 7.285714285714286 14.865565714285715v-0.17232C7.285714285714286 6.815074285714285 13.672217142857143 0.42857142857142855 21.55038857142857 0.42857142857142855h4.899222857142857c7.8782742857142845 0 14.264674285714284 6.386502857142856 14.264674285714284 14.264674285714284v0.17232c0 3.672891428571429 -1.4591999999999998 7.195371428571429 -4.056342857142857 9.792514285714285l-1.2980571428571428 1.2983314285714285c-0.9623999999999999 0.9621257142857141 -1.5027428571428572 2.267005714285714 -1.5027428571428572 3.6276342857142856V30c0 2.6036228571428572 2.1106285714285713 4.714285714285714 4.714285714285714 4.714285714285714s4.714285714285714 -2.110662857142857 4.714285714285714 -4.714285714285714c0 -1.1834742857142857 0.9593142857142857 -2.142857142857143 2.142857142857143 -2.142857142857143s2.142857142857143 0.9593828571428571 2.142857142857143 2.142857142857143c0 4.9704 -4.029599999999999 9 -9 9 -4.970571428571429 0 -9 -4.029599999999999 -9 -9v-0.41595428571428567c0 -2.497268571428571 0.9920228571428571 -4.892262857142857 2.7578742857142857 -6.65808l1.2983314285714285 -1.2983314285714285c1.7932799999999998 -1.7934171428571428 2.800937142857143 -4.225817142857142 2.800937142857143 -6.762068571428571v-0.17232c0 -5.511222857142857 -4.467737142857143 -9.978959999999999 -9.978959999999999 -9.978959999999999H21.55038857142857ZM21.177942857142856 33.00740571428571c1.1793942857142856 0.09826285714285714 2.055805714285714 1.1340342857142856 1.9575085714285714 2.3133942857142857 -0.5770285714285714 6.924342857142857 -6.36552 12.250628571428571 -13.313965714285713 12.250628571428571h-0.9685371428571429c-2.12064 0 -4.1544 -0.8423999999999999 -5.653892571428571 -2.342057142857143 -0.8368354285714285 -0.8365714285714285 -0.8368354285714285 -2.1936 0 -3.0301714285714283 0.8368525714285714 -0.8369142857142857 2.193606857142857 -0.8369142857142857 3.030452571428571 0 0.6957942857142857 0.6956571428571429 1.6394399999999998 1.0865142857142858 2.62344 1.0865142857142858h0.9685371428571429c4.719497142857143 0 8.651142857142856 -3.617485714285714 9.043062857142857 -8.320799999999998 0.09826285714285714 -1.1793942857142856 1.1340342857142856 -2.055805714285714 2.3133942857142857 -1.9575085714285714Zm7.95750857142857 1.9575085714285714c-0.09826285714285714 -1.1793942857142856 -1.1340342857142856 -2.055805714285714 -2.3133942857142857 -1.9575085714285714 -1.1793942857142856 0.09826285714285714 -2.055805714285714 1.1340342857142856 -1.9575085714285714 2.3133942857142857 0.5770285714285714 6.924342857142857 6.36552 12.250628571428571 13.313965714285713 12.250628571428571h0.9685714285714284c2.1205714285714286 0 4.1544 -0.8423999999999999 5.653714285714286 -2.342057142857143 0.8369142857142857 -0.8365714285714285 0.8369142857142857 -2.1936 0 -3.0301714285714283 -0.8365714285714285 -0.8369142857142857 -2.1936 -0.8369142857142857 -3.0301714285714283 0 -0.6960000000000001 0.6956571428571429 -1.6395428571428572 1.0865142857142858 -2.623542857142857 1.0865142857142858h-0.9685714285714284c-4.719497142857143 0 -8.651142857142856 -3.617485714285714 -9.043062857142857 -8.320799999999998ZM15 16.285714285714285c0 1.6568571428571428 1.343142857142857 3 3 3s3 -1.343142857142857 3 -3 -1.343142857142857 -3 -3 -3 -3 1.343142857142857 -3 3Zm12 0c0 1.6568571428571428 1.343142857142857 3 3 3s3 -1.343142857142857 3 -3 -1.343142857142857 -3 -3 -3 -3 1.343142857142857 -3 3Z" clip-rule="evenodd" stroke-width="3.4286"></path>
  </g>
</svg>