<svg xmlns="http://www.w3.org/2000/svg" fill="none" viewBox="0 0 48 48" id="Office-Building-1--Streamline-Core-Remix" height="48" width="48">
  <desc>
    Office Building 1 Streamline Icon: https://streamlinehq.com
  </desc>
  <g id="Free Remix/Work Education/office-building-1--office-building-work">
    <path id="Union" fill="#000000" fill-rule="evenodd" d="M7.70088 5.667634285714286c0 -0.7879542857142856 0.6241714285714285 -1.3819199999999998 1.3391314285714284 -1.3819199999999998h16.424502857142855c0.7149942857142857 0 1.3391314285714284 0.5939314285714286 1.3391314285714284 1.3819199999999998v12.543942857142858c1.2037714285714285 -1.1923542857142857 2.6618742857142856 -2.128354285714286 4.285714285714286 -2.71944V5.667634285714286C31.089359999999996 2.5622845714285716 28.595725714285713 0 25.464514285714284 0H9.040011428571429C5.908902857142857 0 3.4151794285714283 2.562257142857143 3.4151794285714283 5.667634285714286V43.714971428571424H2.142857142857143c-1.1834674285714284 0 -2.142857142857143 0.9596571428571428 -2.142857142857143 2.142857142857143 0 1.183542857142857 0.9593897142857143 2.142857142857143 2.142857142857143 2.142857142857143h14.892857142857142l0.015119999999999998 0h1.1993142857142856c-0.3410742857142857 -1.1441142857142856 -0.33757714285714285 -2.380114285714286 0.03648 -3.5465142857142853 0.07974857142857142 -0.24857142857142855 0.16484571428571426 -0.49508571428571424 0.2551885714285714 -0.7392H7.70088V22.125839999999997l11.049119999999998 0c1.1834742857142857 0 2.142857142857143 -0.9593828571428571 2.142857142857143 -2.142857142857143s-0.9593828571428571 -2.142857142857143 -2.142857142857143 -2.142857142857143l-11.049119999999998 0v-4.5l6.291874285714285 0c1.1834742857142857 0 2.142857142857143 -0.9593828571428571 2.142857142857143 -2.142857142857143s-0.9593828571428571 -2.142857142857143 -2.142857142857143 -2.142857142857143l-6.291874285714285 0v-3.3867771428571425Zm19.535417142857142 33.35362285714285c2.2960114285714286 -1.6748571428571428 5.064548571428571 -2.577257142857143 7.90656 -2.577257142857143 2.841942857142857 0 5.610514285714285 0.9023999999999999 7.906628571428571 2.577257142857143 2.2957714285714284 1.6748571428571428 4.0008 4.035428571428572 4.868571428571428 6.741942857142856 0.16731428571428572 0.5211428571428571 0.07542857142857141 1.0913142857142857 -0.24754285714285712 1.5335999999999999 -0.32262857142857143 0.4422857142857143 -0.8372571428571428 0.7038857142857143 -1.3847999999999998 0.7038857142857143H24c-0.5475771428571428 0 -1.0622057142857142 -0.2616 -1.3849371428571429 -0.7038857142857143 -0.32273142857142856 -0.4422857142857143 -0.41468571428571427 -1.0124571428571427 -0.24744 -1.5335999999999999 0.86784 -2.7065142857142854 2.572662857142857 -5.067085714285714 4.8686742857142855 -6.741942857142856Zm0.34169142857142853 -12.389794285714284c0 -4.178057142857142 3.386982857142857 -7.56504 7.565211428571428 -7.56504 4.178057142857142 0 7.564799999999999 3.386982857142857 7.564799999999999 7.56504s-3.386742857142857 7.565074285714285 -7.564799999999999 7.565074285714285c-4.178228571428571 0 -7.565211428571428 -3.3870171428571427 -7.565211428571428 -7.565074285714285Z" clip-rule="evenodd" stroke-width="3.4286"></path>
  </g>
</svg>