<svg xmlns="http://www.w3.org/2000/svg" fill="none" viewBox="0 0 48 48" id="Office-Worker--Streamline-Core-Remix" height="48" width="48">
  <desc>
    Office Worker Streamline Icon: https://streamlinehq.com
  </desc>
  <g id="Free Remix/Work Education/office-worker--office-worker-human-resources">
    <path id="Union" fill="#000000" fill-rule="evenodd" d="M13.715965714285714 4.285714285714286c-2.6036228571428572 0 -4.714285714285714 2.110662857142857 -4.714285714285714 4.714285714285714S11.112342857142856 13.714285714285714 13.715965714285714 13.714285714285714s4.714285714285714 -2.110662857142857 4.714285714285714 -4.714285714285714 -2.110662857142857 -4.714285714285714 -4.714285714285714 -4.714285714285714Zm-9 4.714285714285714c0 -4.970571428571429 4.0294285714285705 -9 9 -9s9 4.0294285714285705 9 9c0 2.7509142857142854 -1.234217142857143 5.213588571428571 -3.179108571428571 6.864445714285715 3.0893142857142855 1.4502171428571429 5.549314285714285 4.019074285714286 6.858171428571429 7.184742857142856 -0.44101714285714283 0.75744 -0.7840114285714286 1.5790285714285714 -1.0115314285714285 2.447348571428571 -3.673851428571428 1.1427085714285712 -6.341314285714286 4.569599999999999 -6.341314285714286 8.619462857142857v9.075771428571429c0 1.1921142857142857 0.23115428571428567 2.3303999999999996 0.6510514285714285 3.372 -0.13542857142857143 0.8255999999999999 -0.8498057142857143 1.4362285714285714 -1.6915542857142856 1.4362285714285714h-8.571428571428571c-0.8592 0 -1.5857142857142856 -0.636 -1.6992685714285714 -1.4876571428571428L6.2150742857142856 35.14285714285714H1.7159588571428572c-0.9467725714285714 0 -1.7142847508571428 -0.7676571428571428 -1.7142847508571428 -1.7142857142857142v-5.142857142857142c0 -5.493085714285714 3.2295041794285715 -10.231885714285715 7.893400179428571 -12.42126857142857 -1.9448914285714285 -1.6508571428571428 -3.179108571428571 -4.113531428571428 -3.179108571428571 -6.864445714285715Zm30.034319999999997 17.71632c-0.6775885714285714 0 -1.2269485714285715 0.54936 -1.2269485714285715 1.2270171428571428v0.8932114285714284h3.8443199999999997v-0.8932114285714284c0 -0.6776571428571428 -0.5492571428571429 -1.2270171428571428 -1.2270857142857141 -1.2270171428571428h-1.3902857142857143Zm-5.512662857142857 1.2270171428571428v0.8932114285714284h-1.2219771428571429c-2.8256914285714285 0 -5.116319999999999 2.2906971428571428 -5.116319999999999 5.116319999999999v8.920388571428571c0 2.8258285714285716 2.2906285714285715 5.116457142857143 5.116319999999999 5.116457142857143h14.867211428571427c2.8258285714285716 0 5.116457142857143 -2.2906285714285715 5.116457142857143 -5.116457142857143V33.95286857142857c0 -2.8256228571428568 -2.2906285714285715 -5.116319999999999 -5.116457142857143 -5.116319999999999h-1.229485714285714v-0.8932114285714284c0 -3.044605714285714 -2.4682285714285714 -5.512731428571429 -5.5128 -5.512731428571429h-1.3902857142857143c-3.0445371428571426 0 -5.512662857142857 2.4681257142857143 -5.512662857142857 5.512731428571429Zm-1.2219771428571429 5.178925714285715c-0.4587428571428571 0 -0.8306057142857143 0.3718971428571428 -0.8306057142857143 0.8306057142857143v8.920388571428571c0 0.4587428571428571 0.3718628571428571 0.830742857142857 0.8306057142857143 0.830742857142857h14.867211428571427c0.4587428571428571 0 0.830742857142857 -0.372 0.830742857142857 -0.830742857142857V33.95286857142857c0 -0.45870857142857135 -0.372 -0.8306057142857143 -0.830742857142857 -0.8306057142857143H28.01564571428571Z" clip-rule="evenodd" stroke-width="3.4286"></path>
  </g>
</svg>