<svg xmlns="http://www.w3.org/2000/svg" fill="none" viewBox="0 0 48 48" id="Ok-Hand--Streamline-Core-Remix" height="48" width="48">
  <desc>
    Ok Hand Streamline Icon: https://streamlinehq.com
  </desc>
  <g id="Free Remix/Interface Essential/ok-hand">
    <path id="Union" fill="#000000" fill-rule="evenodd" d="M27.19038857142857 4.533874285714286c-1.1590971428571428 -0.48294857142857145 -2.40984 -0.09678857142857143 -3.0453942857142855 0.8536799999999999l-0.012137142857142857 0.01793142857142857c-0.8878285714285714 1.3283657142857141 -1.9674171428571425 3.0106628571428566 -3.0803314285714283 4.900902857142857 -0.08516571428571429 0.22590857142857143 -0.20746285714285714 0.4336457142857143 -0.3593828571428571 0.6157714285714285 -0.8648571428571428 1.4951657142857142 -1.73952 3.10536 -2.550651428571429 4.763108571428571 -2.0032457142857143 4.093954285714285 -3.5025257142857145 8.247188571428572 -3.6742285714285714 11.594399999999998l-0.0019885714285714285 0.034114285714285715c-0.09709714285714285 1.9002857142857144 -0.15836571428571428 3.7192457142857145 -0.1937142857142857 5.422422857142856 -0.07700571428571429 3.7129371428571427 -0.03065142857142857 6.871337142857143 0.03610285714285714 9.117394285714285 0.03435428571428571 1.1567999999999998 0.07409142857142857 2.0705142857142858 0.10508571428571428 2.6927999999999996 0.015497142857142855 0.31097142857142857 0.028765714285714283 0.5489142857142857 0.03809142857142857 0.7076571428571429l0.010799999999999999 0.17828571428571427 0.002742857142857143 0.04285714285714286 0.0006514285714285715 0.009942857142857142 0.00010285714285714286 0.0017142857142857142 0.00003428571428571428 0c0.07902857142857143 1.1807999999999998 -0.81408 2.2021714285714284 -1.9948457142857141 2.2813714285714286 -1.1808342857142857 0.07919999999999999 -2.2022057142857143 -0.8139428571428571 -2.281302857142857 -1.994742857142857l2.138057142857143 -0.1433142857142857 -2.138057142857143 0.14297142857142855 -0.00003428571428571428 0 -0.00003428571428571428 -0.0006857142857142857 -0.00006857142857142857 -0.0010285714285714284 -0.00027428571428571427 -0.0041142857142857136 -0.0009257142857142857 -0.014057142857142858 -0.0032914285714285715 -0.05177142857142857 -0.011897142857142856 -0.1961142857142857c-0.010045714285714285 -0.17108571428571429 -0.024034285714285713 -0.4217142857142857 -0.04014857142857143 -0.7460571428571428 -0.03229714285714285 -0.6483428571428571 -0.07323428571428571 -1.5908571428571427 -0.1085142857142857 -2.7785142857142855 -0.06846857142857143 -2.3046857142857142 -0.11581714285714284 -5.5364571428571425 -0.03706285714285714 -9.333462857142857 0.008777142857142857 -0.42373714285714287 0.019165714285714286 -0.8545714285714285 0.031234285714285714 -1.2920228571428571 -1.5755314285714284 -3.7186628571428573 -2.2908685714285713 -8.382548571428572 -2.5947771428571427 -12.718457142857142 -0.3172114285714286 -4.525611428571429 -0.19806857142857143 -8.898274285714285 -0.033222857142857144 -11.865599999999999C7.57416 3.47424 10.104102857142855 0.9222857142857143 13.263051428571428 0.48000000000000004c2.8100571428571426 -0.39344194285714285 5.458388571428571 0.9406285714285714 6.88104 3.1857942857142856 0.15068571428571428 -0.22896 0.2970171428571428 -0.4494274285714286 0.43837714285714285 -0.66084l0.014982857142857142 -0.022104C22.436845714285713 0.2554069714285714 25.902411428571426 -0.6456377142857143 28.838742857142858 0.5778411428571428 32.445634285714284 2.0807074285714284 34.121314285714284 6.247508571428571 32.55918857142857 9.82913142857143l-0.020228571428571426 0.04491428571428571 -3.2767542857142855 7.512788571428571c3.537394285714286 0.5785714285714286 6.8893371428571415 2.4033257142857143 9.333222857142855 5.403257142857142 1.1694857142857142 1.4353714285714285 1.6069714285714285 3.3321599999999996 1.5027428571428572 5.0358857142857145 -0.0665142857142857 1.087165714285714 -0.3651428571428571 2.249074285714286 -0.9706285714285714 3.2701714285714285 2.1572571428571425 1.7076685714285713 3.067542857142857 4.67448 2.0454857142857144 7.386822857142857 -0.9178285714285713 2.4370285714285713 -2.475085714285714 4.670742857142857 -4.625142857142857 6.4224 -1.5912 1.296342857142857 -3.3702514285714287 2.2196571428571428 -5.227508571428571 2.777485714285714 -1.1334857142857142 0.3401142857142857 -2.328205714285714 -0.30274285714285715 -2.6685257142857144 -1.4362285714285714 -0.34032 -1.1334857142857142 0.30263999999999996 -2.3283428571428573 1.4361257142857142 -2.6684571428571426 1.3286742857142857 -0.39908571428571427 2.6047885714285712 -1.0601142857142856 3.7528799999999998 -1.995428571428571 1.547142857142857 -1.2606857142857144 2.6631428571428573 -2.8625142857142856 3.321771428571428 -4.610399999999999 0.43097142857142856 -1.1437714285714284 -0.1470857142857143 -2.4205714285714284 -1.2908571428571427 -2.851302857142857 -0.3305142857142857 -0.12452571428571427 -0.6661714285714285 -0.16422857142857142 -0.9887999999999999 -0.1332 -0.06137142857142856 0.005897142857142857 -0.12240000000000001 0.009154285714285714 -0.1830857142857143 0.00984 -0.5905028571428571 0.21380571428571427 -1.08144 0.67272 -1.3181142857142858 1.3011771428571428 -0.3903085714285714 1.0361142857142858 -1.0505828571428573 1.9858285714285715 -1.9753371428571427 2.7390857142857143 -2.7826628571428573 2.2669714285714284 -6.876171428571428 1.8490285714285712 -9.143142857142857 -0.9335999999999999 -2.266937142857143 -2.7826285714285715 -1.8489257142857143 -6.876137142857142 0.9337371428571429 -9.14310857142857 2.7826285714285715 -2.2669714285714284 6.876137142857142 -1.8489257142857143 9.14310857142857 0.9337028571428572 0.48445714285714286 0.5946857142857143 1.2133371428571427 0.8743542857142858 1.9319314285714284 0.8051657142857143 0.06096 -0.005862857142857142 0.12164571428571427 -0.00912 0.18198857142857142 -0.00984 0.22388571428571427 -0.08180571428571427 0.4395428571428571 -0.20225142857142855 0.6384 -0.36425142857142856 0.3414857142857142 -0.27815999999999996 0.6744 -0.8854971428571428 0.7278857142857142 -1.7618742857142857 0.05348571428571428 -0.8720228571428571 -0.19748571428571426 -1.637382857142857 -0.5475428571428571 -2.0671542857142855 -2.2483885714285714 -2.759862857142857 -5.564228571428571 -4.1375657142857145 -8.874239999999999 -4.017874285714286l-0.04992 0.00648c-0.34919999999999995 0.041382857142857145 -0.9991885714285714 0.14784 -1.7051657142857142 0.32485714285714284 -0.7271314285714285 0.18229714285714285 -1.38024 0.4068 -1.8133371428571428 0.641382857142857 -1.0406057142857141 0.5636571428571427 -2.3411314285714284 0.17701714285714285 -2.9047885714285715 -0.8635885714285714s-0.17701714285714285 -2.3411314285714284 0.8635885714285714 -2.904822857142857c1.1558399999999998 -0.6260571428571429 2.6457942857142855 -1.02192 3.775542857142857 -1.245942857142857l4.06584 -9.321874285714285 0.015017142857142857 -0.03363428571428571c0.5797714285714285 -1.37904 -0.06977142857142857 -2.970925714285714 -1.4549485714285715 -3.548091428571428Zm-10.286399999999999 4.379931428571428 0 -1.9508571428571426c-0.23794285714285715 -1.4419199999999999 -1.5858514285714285 -2.443165714285714 -3.0466971428571425 -2.2386514285714285 -1.2435771428571427 0.17413714285714285 -2.123725714285714 1.1430514285714286 -2.1871542857142856 2.2846628571428567 -0.15929142857142856 2.867142857142857 -0.27085714285714285 7.045954285714286 0.029314285714285713 11.32824 0.031062857142857142 0.4431428571428571 0.06641142857142857 0.8852914285714285 0.10632 1.3253485714285713 0.7014171428571429 -2.000057142857143 1.56984 -3.986331428571428 2.4871542857142854 -5.860971428571428 0.8343428571428572 -1.7051314285714285 1.72824 -3.355645714285714 2.611062857142857 -4.887771428571428Zm8.681965714285713 25.48368c-0.7719771428571428 -0.9476228571428572 -0.6296228571428572 -2.3416114285714285 0.3179657142857143 -3.113588571428571 0.9475885714285714 -0.7720114285714286 2.3415771428571426 -0.6296228571428572 3.1135542857142857 0.3179657142857143 0.2940342857142857 0.3608914285714286 0.6188228571428571 0.6819428571428571 0.9674399999999999 0.962502857142857 -0.24239999999999998 0.37776 -0.4491085714285714 0.7865828571428571 -0.6137485714285714 1.2235885714285712 -0.13042285714285712 0.34625142857142854 -0.3490628571428571 0.6647314285714285 -0.6716571428571428 0.92736 -0.9475885714285714 0.7721142857142858 -2.3415771428571426 0.6298285714285714 -3.1135542857142857 -0.3178285714285714Z" clip-rule="evenodd" stroke-width="3.4286"></path>
  </g>
</svg>