<svg xmlns="http://www.w3.org/2000/svg" fill="none" viewBox="0 0 48 48" id="One-Finger-Hold--Streamline-Core-Remix" height="48" width="48">
  <desc>
    One Finger Hold Streamline Icon: https://streamlinehq.com
  </desc>
  <g id="Free Remix/Interface Essential/one-finger-hold">
    <path id="Union" fill="#000000" fill-rule="evenodd" d="M16.284994285714284 5.142857142857142c-5.2072457142857145 0 -9.428571428571429 4.221325714285714 -9.428571428571429 9.428571428571429 0 0.7002857142857142 0.07590857142857142 1.379862857142857 0.2189485714285714 2.0320114285714284 0.30432 1.3872 -0.5735314285714286 2.758388571428571 -1.9606971428571427 3.0627085714285713 -1.3872 0.30428571428571427 -2.7584022857142854 -0.5735314285714286 -3.062701714285714 -1.9607314285714286C1.830024 16.69364571428571 1.7135622857142856 15.644639999999999 1.7135622857142856 14.571428571428571 1.7135622857142856 6.523851428571428 8.237417142857142 0 16.284994285714284 0c2.2301485714285714 0 4.350034285714286 0.5027657142857143 6.246239999999999 1.4035542857142858 1.282765714285714 0.6093805714285714 1.828662857142857 2.1432685714285715 1.2192685714285714 3.4260342857142856 -0.60936 1.2828 -2.1432685714285715 1.8286971428571428 -3.4260342857142856 1.219302857142857C19.103211428571427 5.468742857142857 17.73576 5.142857142857142 16.284994285714284 5.142857142857142Zm9.428571428571429 6c0 -6.154045714285713 4.988811428571428 -11.142857142857142 11.142891428571428 -11.142857142857142 6.153942857142857 0 11.142857142857142 4.988811428571428 11.142857142857142 11.142857142857142s-4.988914285714285 11.142857142857142 -11.142857142857142 11.142857142857142c-6.1540799999999996 0 -11.142891428571428 -4.988811428571428 -11.142891428571428 -11.142857142857142Zm16.08654857142857 -1.9133485714285714c0.8369142857142857 -0.8368457142857142 0.8369142857142857 -2.1936 0 -3.030445714285714 -0.8365714285714285 -0.8368457142857142 -2.1936 -0.8368457142857142 -3.0305142857142857 0l-3.4285714285714284 3.4285714285714284c-0.8365714285714285 0.8368457142857142 -0.8365714285714285 2.1936 0 3.030445714285714 0.8369142857142857 0.8368457142857142 2.193942857142857 0.8368457142857142 3.0305142857142857 0l3.4285714285714284 -3.4285714285714284ZM4.675611428571428 36.486514285714286c-0.5395542857142858 -0.6744 -0.4857257142857142 -1.646742857142857 0.12504 -2.25744 0.6619885714285714 -0.6619885714285714 1.7352685714285714 -0.6619885714285714 2.3972571428571428 0l4.143291428571429 4.143154285714286c0.6128571428571428 0.6130285714285714 1.5345257142857143 0.7964571428571429 2.3352685714285712 0.4645714285714286 0.8007085714285713 -0.3315428571428571 1.3228114285714285 -1.1129142857142857 1.3228114285714285 -1.9796571428571428l0 -20.142857142857142c0 -1.1834742857142857 0.9593828571428571 -2.142857142857143 2.142857142857143 -2.142857142857143s2.142857142857143 0.9593828571428571 2.142857142857143 2.142857142857143l0 11.90406857142857c0 0.5752114285714286 0.23122285714285712 1.1262514285714285 0.6416914285714285 1.5291771428571428 0.4104685714285714 0.40296 0.9656571428571429 0.6239657142857143 1.5407657142857143 0.6133371428571428l8.094959999999999 -0.14962285714285714c3.9936 -0.07378285714285714 7.158617142857143 3.3509142857142855 6.770845714285715 7.32624l-0.7525714285714286 7.711542857142857c-0.11485714285714285 1.178057142857143 0.7470857142857142 2.2258285714285715 1.9247999999999998 2.3406857142857143 1.1777142857142857 0.11519999999999998 2.2258285714285715 -0.746742857142857 2.3406857142857143 -1.9244571428571429l0.7525714285714286 -7.711542857142857c0.6366857142857143 -6.5263542857142856 -4.559314285714286 -12.148594285714285 -11.115497142857143 -12.02742857142857l-5.9125371428571425 0.10926857142857144 0 -9.721268571428572c0 -3.5504228571428564 -2.878182857142857 -6.428571428571428 -6.428571428571428 -6.428571428571428 -3.5504228571428564 0 -6.428571428571428 2.878148571428571 -6.428571428571428 6.428571428571428l0 14.969554285714283 -0.48521142857142857 -0.48521142857142857c-2.335645714285714 -2.3356799999999995 -6.122502857142857 -2.3356799999999995 -8.458155428571429 0 -2.1549222857142856 2.154925714285714 -2.3449302857142857 5.585485714285714 -0.44115771428571426 7.965257142857142l6.425496 8.031771428571428c0.7393371428571428 0.9243428571428571 2.0877942857142857 1.0741714285714286 3.0119314285714287 0.33462857142857144 0.9241371428571428 -0.7392 1.0739657142857142 -2.0876571428571427 0.33466285714285715 -3.0116571428571426l-6.42552 -8.032114285714284Z" clip-rule="evenodd" stroke-width="3.4286"></path>
  </g>
</svg>