<svg xmlns="http://www.w3.org/2000/svg" fill="none" viewBox="0 0 48 48" id="One-Finger-Tap--Streamline-Core-Remix" height="48" width="48">
  <desc>
    One Finger Tap Streamline Icon: https://streamlinehq.com
  </desc>
  <g id="Free Remix/Interface Essential/one-finger-tap">
    <path id="Union" fill="#000000" fill-rule="evenodd" d="M11.142137142857143 14.571428571428571c0 -5.2072457142857145 4.221325714285714 -9.428571428571429 9.428571428571429 -9.428571428571429s9.428571428571429 4.221325714285714 9.428571428571429 9.428571428571429c0 0.9403885714285715 -0.13686857142857142 1.8442285714285716 -0.39010285714285714 2.6950628571428568 -0.40512 1.3611771428571426 0.36994285714285713 2.7930171428571424 1.7310857142857143 3.198102857142857 1.3611771428571426 0.40508571428571427 2.792982857142857 -0.36994285714285713 3.1981371428571426 -1.7310857142857143 0.3932571428571428 -1.3218857142857143 0.6037714285714285 -2.71968 0.6037714285714285 -4.16208C35.14217142857143 6.523851428571428 28.61828571428571 0 20.570708571428572 0c-8.047577142857142 0 -14.571428571428571 6.523851428571428 -14.571428571428571 14.571428571428571 0 1.4424 0.21034285714285714 2.8401942857142854 0.6037714285714285 4.16208 0.40508571428571427 1.3611428571428572 1.836925714285714 2.1361714285714286 3.198102857142857 1.7310857142857143 1.3611428571428572 -0.40508571428571427 2.1361714285714286 -1.836925714285714 1.7310857142857143 -3.198102857142857 -0.2532342857142857 -0.8508342857142857 -0.39010285714285714 -1.7546742857142856 -0.39010285714285714 -2.6950628571428568Zm-3.0379542857142856 21.915085714285713c-0.5395542857142858 -0.6744 -0.4857257142857142 -1.646742857142857 0.12504 -2.25744 0.6619885714285714 -0.6619885714285714 1.7352685714285714 -0.6619885714285714 2.3972571428571428 0l4.143291428571429 4.143154285714286c0.6128571428571428 0.6130285714285714 1.5345257142857143 0.7964571428571429 2.3352685714285712 0.4645714285714286 0.8007085714285713 -0.3315428571428571 1.3228114285714285 -1.1129142857142857 1.3228114285714285 -1.9796571428571428l0 -20.142857142857142c0 -1.1834742857142857 0.9593828571428571 -2.142857142857143 2.142857142857143 -2.142857142857143s2.142857142857143 0.9593828571428571 2.142857142857143 2.142857142857143l0 11.90406857142857c0 0.5752114285714286 0.23122285714285712 1.1262514285714285 0.6416914285714285 1.5291771428571428 0.4104685714285714 0.40296 0.9656571428571429 0.6239657142857143 1.5407657142857143 0.6133371428571428l8.094959999999999 -0.14962285714285714c3.993702857142857 -0.07378285714285714 7.158617142857143 3.3509142857142855 6.770845714285715 7.32624l-0.7525714285714286 7.711542857142857c-0.11485714285714285 1.178057142857143 0.7470857142857142 2.2258285714285715 1.9247999999999998 2.3406857142857143 1.1777142857142857 0.11519999999999998 2.2258285714285715 -0.746742857142857 2.3406857142857143 -1.9244571428571429l0.7525714285714286 -7.711542857142857c0.6366857142857143 -6.5263542857142856 -4.559314285714286 -12.148594285714285 -11.115497142857143 -12.02742857142857l-5.9125371428571425 0.10926857142857144 0 -9.721268571428572c0 -3.5504228571428564 -2.878182857142857 -6.428571428571428 -6.428571428571428 -6.428571428571428 -3.5504228571428564 0 -6.428571428571428 2.878148571428571 -6.428571428571428 6.428571428571428l0 14.969554285714283 -0.48521142857142857 -0.48521142857142857c-2.335645714285714 -2.3356799999999995 -6.122502857142857 -2.3356799999999995 -8.45814857142857 0 -2.1549291428571427 2.154925714285714 -2.344937142857143 5.585485714285714 -0.4411542857142857 7.965257142857142l6.425485714285714 8.031771428571428c0.7393371428571428 0.9243428571428571 2.0877942857142857 1.0741714285714286 3.0119314285714287 0.33462857142857144 0.9241371428571428 -0.7392 1.0739657142857142 -2.0876571428571427 0.33466285714285715 -3.0116571428571426l-6.42552 -8.032114285714284Z" clip-rule="evenodd" stroke-width="3.4286"></path>
  </g>
</svg>