<svg xmlns="http://www.w3.org/2000/svg" fill="none" viewBox="0 0 48 48" id="One-Vesus-One--Streamline-Core-Remix" height="48" width="48">
  <desc>
    One Vesus One Streamline Icon: https://streamlinehq.com
  </desc>
  <g id="Free Remix/Entertainment/one-vesus-one--entertainment-gaming-one-vesus-one">
    <path id="Union" fill="#000000" fill-rule="evenodd" d="M10.582045714285714 10.549508571428571c0 -3.4593942857142856 2.8043657142857144 -6.263794285714285 6.2637599999999996 -6.263794285714285 3.4593942857142856 0 6.263794285714285 2.8044 6.263794285714285 6.263794285714285s-2.8044 6.263794285714285 -6.263794285714285 6.263794285714285 -6.2637599999999996 -2.8044 -6.2637599999999996 -6.263794285714285ZM16.845805714285714 0C11.019497142857142 0 6.2963314285714285 4.723165714285714 6.2963314285714285 10.549508571428571s4.723165714285714 10.549508571428571 10.549474285714284 10.549508571428571c5.826342857142857 0 10.549508571428571 -4.723165714285714 10.549508571428571 -10.549508571428571S22.67214857142857 0 16.845805714285714 0Zm0.00044571428571428567 23.96736C7.542308571428571 23.96736 0 31.50966857142857 0 40.81371428571428v1.6813714285714285c0 0.9466285714285714 0.7675131428571428 1.7142857142857142 1.7142857142857142 1.7142857142857142h14.529428571428571c-0.23249142857142854 -1.0244571428571427 -0.3010285714285714 -2.1065142857142853 -0.1778742857142857 -3.2153142857142853l0.5859085714285713 -5.274857142857143c0.5063657142857142 -4.558354285714286 3.3553371428571426 -8.34096 7.2671657142857145 -10.199725714285714 -2.1505714285714284 -0.9961714285714285 -4.546697142857142 -1.5521142857142856 -7.072662857142857 -1.5521142857142856ZM29.430034285714285 28.45062857142857c-4.426731428571428 0 -8.144914285714284 3.3293142857142852 -8.633657142857142 7.729371428571428l-0.5859085714285713 5.274514285714285c-0.3624342857142857 3.2626285714285714 2.1908914285714283 6.1169142857142855 5.474091428571429 6.1169142857142855 2.3709942857142856 0 4.475588571428571 -1.517485714285714 5.225142857142857 -3.7666285714285714l0.29746285714285714 -0.8928c0.1137942857142857 -0.3414857142857142 0.4329942857142857 -0.5711999999999999 0.7921028571428571 -0.5711999999999999h3.3211885714285714c0.3593142857142857 0 0.6785142857142856 0.2297142857142857 0.7923428571428571 0.5711999999999999l0.29725714285714283 0.8928c0.7494857142857142 2.249142857142857 2.854285714285714 3.7666285714285714 5.225142857142857 3.7666285714285714 3.2832 0 5.836457142857142 -2.854285714285714 5.474057142857142 -6.1169142857142855l-0.5859428571428571 -5.274514285714285c-0.4885714285714285 -4.4000571428571424 -4.206857142857143 -7.729371428571428 -8.633485714285714 -7.729371428571428H29.430034285714285Z" clip-rule="evenodd" stroke-width="3.4286"></path>
  </g>
</svg>