<svg xmlns="http://www.w3.org/2000/svg" fill="none" viewBox="0 0 48 48" id="One-Finger-Drag-Horizontal--Streamline-Core-Remix" height="48" width="48">
  <desc>
    One Finger Drag Horizontal Streamline Icon: https://streamlinehq.com
  </desc>
  <g id="Free Remix/Interface Essential/one-finger-drag-horizontal">
    <path id="Union" fill="#000000" fill-rule="evenodd" d="M7.513165714285713 0.1305421714285714C8.15376 0.39587999999999995 8.571428571428571 1.0209702857142857 8.571428571428571 1.7143371428571428v2.999982857142857H13.714285714285714c1.1834742857142857 0 2.142857142857143 0.9594171428571429 2.142857142857143 2.142857142857143 0 1.1834742857142857 -0.9593828571428571 2.142857142857143 -2.142857142857143 2.142857142857143H8.571428571428571v3c0 0.6933942857142857 -0.4176685714285714 1.3184571428571428 -1.058262857142857 1.5837942857142857 -0.6405942857142857 0.26537142857142854 -1.3779085714285715 0.11869714285714285 -1.8681942857142855 -0.37158857142857143l-5.142867428571428 -5.142857142857142c-0.6694714285714286 -0.669462857142857 -0.6694714285714286 -1.7549142857142856 0 -2.424377142857143L5.644971428571428 0.502152c0.4902857142857142 -0.4902815314285714 1.2275999999999998 -0.6369483428571427 1.8681942857142855 -0.37160982857142855ZM42.355199999999996 0.502152c-0.4902857142857142 -0.4902815314285714 -1.2277714285714285 -0.6369483428571427 -1.8682285714285716 -0.37160982857142855C39.84617142857143 0.39587999999999995 39.42857142857142 1.0209702857142857 39.42857142857142 1.7143371428571428v2.999982857142857H34.285714285714285c-1.1834742857142857 0 -2.142857142857143 0.9594171428571429 -2.142857142857143 2.142857142857143 0 1.1834742857142857 0.9593828571428571 2.142857142857143 2.142857142857143 2.142857142857143h5.142857142857142v3c0 0.6933942857142857 0.41759999999999997 1.3184571428571428 1.0583999999999998 1.5837942857142857 0.6404571428571428 0.26537142857142854 1.377942857142857 0.11869714285714285 1.8682285714285716 -0.37158857142857143l5.142857142857142 -5.142857142857142c0.6692571428571429 -0.669462857142857 0.6692571428571429 -1.7549142857142856 0 -2.424377142857143l-5.142857142857142 -5.142853714285715ZM11.486022857142856 36.103199999999994c-0.5297828571428571 -0.6888 -0.46645714285714285 -1.6635428571428572 0.14790857142857142 -2.27808 0.6755657142857142 -0.6755314285714286 1.7708571428571427 -0.6755314285714286 2.4463885714285714 0l4.118742857142857 4.11888c0.6128571428571428 0.6126857142857143 1.5345257142857143 0.7961142857142857 2.3352685714285712 0.4642285714285714 0.8007085714285713 -0.3315428571428571 1.3228114285714285 -1.1129142857142857 1.3228114285714285 -1.9796571428571428l0 -21.42853714285714c0 -1.1834399999999998 0.9593828571428571 -2.142857142857143 2.142857142857143 -2.142857142857143s2.142857142857143 0.9594171428571429 2.142857142857143 2.142857142857143v13.189817142857143c0 0.5751771428571428 0.23122285714285712 1.1262171428571428 0.6416914285714285 1.5291771428571428 0.4104685714285714 0.4029257142857143 0.9656571428571429 0.6239314285714286 1.5407657142857143 0.6133028571428571l8.118 -0.15c3.9874285714285715 -0.0737142857142857 7.150285714285714 3.3407999999999998 6.772114285714285 7.310811428571428l-0.7772571428571429 8.161028571428572c-0.11211428571428571 1.178057142857143 0.7518857142857143 2.2241142857142857 1.929942857142857 2.3362285714285713 1.1784 0.11211428571428571 2.2244571428571427 -0.7518857142857143 2.3365714285714283 -1.929942857142857l0.7772571428571429 -8.160685714285714c0.6205714285714286 -6.517851428571428 -4.571999999999999 -12.12342857142857 -11.117828571428571 -12.002434285714285l-5.935542857142857 0.10967999999999999V15.000034285714284c0 -3.5503885714285714 -2.878182857142857 -6.428571428571428 -6.428571428571428 -6.428571428571428s-6.428571428571428 2.878182857142857 -6.428571428571428 6.428571428571428l0 16.25526857142857 -0.4606285714285714 -0.4606285714285714c-2.349222857142857 -2.349222857142857 -6.158091428571429 -2.349222857142857 -8.507314285714285 0 -2.1365485714285715 2.1365485714285715 -2.356697142857143 5.526582857142857 -0.5144228571428572 7.9214400000000005l6.498171428571428 8.447657142857143c0.7215771428571428 0.9380571428571428 2.066948571428571 1.1136 3.0050057142857143 0.3918857142857143 0.9380571428571428 -0.7217142857142856 1.1135314285714286 -2.067085714285714 0.3919542857142857 -3.005142857142857l-6.498171428571428 -8.447314285714285Z" clip-rule="evenodd" stroke-width="3.4286"></path>
  </g>
</svg>