<svg xmlns="http://www.w3.org/2000/svg" fill="none" viewBox="0 0 48 48" id="One-Finger-Drag-Vertical--Streamline-Core-Remix" height="48" width="48">
  <desc>
    One Finger Drag Vertical Streamline Icon: https://streamlinehq.com
  </desc>
  <g id="Free Remix/Interface Essential/one-finger-drag-vertical">
    <path id="Union" fill="#000000" fill-rule="evenodd" d="M8.069382857142857 0.502104c-0.669462857142857 -0.6694714285714286 -1.7549142857142856 -0.6694714285714286 -2.424377142857143 0L0.502152 5.644971428571428c-0.4902815314285714 0.4902857142857142 -0.6369483428571427 1.2275999999999998 -0.37160982857142855 1.8681942857142855C0.39587999999999995 8.15376 1.0209702857142857 8.571428571428571 1.7143371428571428 8.571428571428571h2.999982857142857V17.142857142857142H1.7143371428571428c-0.6933668571428571 0 -1.3184571428571428 0.4176685714285714 -1.5837949714285715 1.058262857142857 -0.26533851428571426 0.6405942857142857 -0.11867170285714285 1.3779085714285715 0.37160982857142855 1.8681942857142855l5.142853714285715 5.142857142857142c0.669462857142857 0.6694971428571428 1.7549142857142856 0.6694971428571428 2.424377142857143 0l5.142857142857142 -5.142857142857142c0.4902857142857142 -0.4902857142857142 0.63696 -1.2275999999999998 0.37158857142857143 -1.8681942857142855C13.318491428571427 17.560525714285713 12.69342857142857 17.142857142857142 12.000034285714285 17.142857142857142h-3V8.571428571428571h3c0.6933942857142857 0 1.3184571428571428 -0.4176685714285714 1.5837942857142857 -1.058262857142857 0.26537142857142854 -0.6405942857142857 0.11869714285714285 -1.3779085714285715 -0.37158857142857143 -1.8681942857142855l-5.142857142857142 -5.142867428571428ZM11.91462857142857 36.10285714285714c-0.5297485714285715 -0.6884571428571429 -0.46645714285714285 -1.6635428571428572 0.14794285714285713 -2.2777714285714286 0.6755657142857142 -0.6755657142857142 1.770822857142857 -0.6755657142857142 2.4463885714285714 0l4.118708571428571 4.118571428571428c0.6128571428571428 0.6130285714285714 1.5345257142857143 0.7964571428571429 2.3352685714285712 0.4645714285714286 0.8007428571428571 -0.3315428571428571 1.3228114285714285 -1.1129142857142857 1.3228114285714285 -1.9796571428571428l0 -24.857142857142854c0 -1.1834742857142857 0.9594171428571429 -2.142857142857143 2.142857142857143 -2.142857142857143 1.1834742857142857 0 2.142857142857143 0.9593828571428571 2.142857142857143 2.142857142857143v16.618354285714283c0 0.5752114285714286 0.23125714285714283 1.1262514285714285 0.6417257142857142 1.5291771428571428 0.4104342857142857 0.40296 0.9656571428571429 0.6239657142857143 1.5407314285714284 0.6133371428571428l8.117965714285713 -0.1500342857142857c3.9874285714285715 -0.07368 7.150285714285714 3.3408342857142856 6.772114285714285 7.31088l-0.7772571428571429 8.160685714285714c-0.11211428571428571 1.1784 0.7518857142857143 2.2244571428571427 1.930285714285714 2.3365714285714283 1.178057142857143 0.11211428571428571 2.2241142857142857 -0.7518857142857143 2.3362285714285713 -1.929942857142857l0.7772571428571429 -8.161028571428572c0.6205714285714286 -6.517577142857142 -4.571657142857142 -12.123119999999998 -11.117828571428571 -12.00216l-5.935508571428571 0.10971428571428571V11.571428571428571c0 -3.5504228571428564 -2.878148571428571 -6.428571428571428 -6.428571428571428 -6.428571428571428 -3.5503885714285714 0 -6.428571428571428 2.878148571428571 -6.428571428571428 6.428571428571428v19.683839999999996l-0.4606285714285714 -0.46066285714285715c-2.349222857142857 -2.349222857142857 -6.1580571428571425 -2.349222857142857 -8.50728 0 -2.1365485714285715 2.136582857142857 -2.3567314285714285 5.526308571428571 -0.5144571428571428 7.9215085714285705l6.498171428571428 8.447657142857143c0.7215771428571428 0.9380571428571428 2.066982857142857 1.1132571428571427 3.0050057142857143 0.3918857142857143 0.9380571428571428 -0.7217142857142856 1.1135314285714286 -2.067085714285714 0.3919542857142857 -3.005142857142857L11.91462857142857 36.10285714285714Z" clip-rule="evenodd" stroke-width="3.4286"></path>
  </g>
</svg>