<svg xmlns="http://www.w3.org/2000/svg" fill="none" viewBox="0 0 48 48" id="Online-Medical-Service-Monitor--Streamline-Core-Remix" height="48" width="48">
  <desc>
    Online Medical Service Monitor Streamline Icon: https://streamlinehq.com
  </desc>
  <g id="Free Remix/Health/online-medical-service-monitor">
    <path id="Union" fill="#000000" fill-rule="evenodd" d="M5.571428571428571 33.857142857142854v-28.285714285714285h36.857142857142854v28.285714285714285H5.571428571428571ZM5.142857142857142 1.2857142857142856c-1.0012457142857143 0 -2.0021314285714285 0.34310057142857137 -2.758086857142857 1.099056C1.6288148571428571 3.140725714285714 1.2857142857142856 4.141611428571428 1.2857142857142856 5.142857142857142V34.285714285714285c0 1.0011428571428571 0.34310057142857137 2.0022857142857142 1.099056 2.757942857142857 0.7559554285714285 0.756 1.7568411428571427 1.0992 2.758086857142857 1.0992h12.725074285714285l-1.7142857142857142 4.285714285714286H13.714285714285714c-1.1834742857142857 0 -2.142857142857143 0.9593142857142857 -2.142857142857143 2.142857142857143s0.9593828571428571 2.142857142857143 2.142857142857143 2.142857142857143h20.57142857142857c1.183542857142857 0 2.142857142857143 -0.9593142857142857 2.142857142857143 -2.142857142857143s-0.9593142857142857 -2.142857142857143 -2.142857142857143 -2.142857142857143h-2.4393599999999998l-1.7142857142857142 -4.285714285714286H42.857142857142854c1.0011428571428571 0 2.0022857142857142 -0.34319999999999995 2.757942857142857 -1.0992 0.756 -0.7556571428571428 1.0992 -1.7567999999999997 1.0992 -2.757942857142857V5.142857142857142c0 -1.0012457142857143 -0.34319999999999995 -2.0021314285714285 -1.0992 -2.758086857142857C44.859428571428566 1.6288148571428571 43.858285714285714 1.2857142857142856 42.857142857142854 1.2857142857142856h-37.714285714285715Zm14.85192 9.819085714285714c0 -0.6890742857142856 0.5585828571428572 -1.2476571428571428 1.2476228571428571 -1.2476571428571428h5.5152c0.68904 0 1.2476228571428571 0.5585828571428572 1.2476228571428571 1.2476571428571428v4.604297142857142H32.60948571428572c0.6890742857142856 0 1.2476571428571428 0.5586171428571428 1.2476571428571428 1.2476571428571428v5.5152c0 0.68904 -0.5585828571428572 1.2476228571428571 -1.2476571428571428 1.2476228571428571H28.005222857142854V28.32377142857143c0 0.6890742857142856 -0.5585828571428572 1.2476571428571428 -1.2476228571428571 1.2476571428571428H21.2424c-0.68904 0 -1.2476228571428571 -0.5585828571428572 -1.2476228571428571 -1.2476571428571428V23.71957714285714H15.390514285714286c-0.6890742857142856 0 -1.2476571428571428 -0.5585828571428572 -1.2476571428571428 -1.2476228571428571v-5.5152c0 -0.68904 0.5585828571428572 -1.2476571428571428 1.2476571428571428 -1.2476571428571428h4.604262857142857V11.1048Z" clip-rule="evenodd" stroke-width="3.4286"></path>
  </g>
</svg>