<svg xmlns="http://www.w3.org/2000/svg" fill="none" viewBox="0 0 48 48" id="Online-Medical-Web-Service--Streamline-Core-Remix" height="48" width="48">
  <desc>
    Online Medical Web Service Streamline Icon: https://streamlinehq.com
  </desc>
  <g id="Free Remix/Health/online-medical-web-service">
    <path id="Union" fill="#000000" fill-rule="evenodd" d="M5.571428571428571 41.40651428571429V12.063051428571429h36.857142857142854v29.343462857142857c0 0.5643428571428571 -0.45771428571428574 1.0220571428571428 -1.0220571428571428 1.0220571428571428H6.593417142857142c-0.5644457142857142 0 -1.0219885714285715 -0.45771428571428574 -1.0219885714285715 -1.0220571428571428ZM1.2857142857142856 6.593417142857142C1.2857142857142856 3.662057142857143 3.662057142857143 1.2857142857142856 6.593417142857142 1.2857142857142856H41.40651428571429c2.931428571428571 0 5.307771428571429 2.3763428571428573 5.307771428571429 5.307702857142856V41.40651428571429c0 2.931428571428571 -2.3763428571428573 5.307771428571429 -5.307771428571429 5.307771428571429H6.593417142857142C3.662057142857143 46.71428571428571 1.2857142857142856 44.337942857142856 1.2857142857142856 41.40651428571429V6.593417142857142ZM19.994777142857142 19.247657142857143c0 -0.6890742857142856 0.5585828571428572 -1.2476571428571428 1.2476228571428571 -1.2476571428571428h5.5152c0.68904 0 1.2476228571428571 0.5585828571428572 1.2476228571428571 1.2476571428571428v4.604297142857142H32.60948571428572c0.6890742857142856 0 1.2476571428571428 0.5586171428571428 1.2476571428571428 1.2476571428571428v5.5152c0 0.68904 -0.5585828571428572 1.2476228571428571 -1.2476571428571428 1.2476228571428571H28.005222857142854v4.604194285714285c0 0.6891428571428572 -0.5585828571428572 1.2476571428571428 -1.2476228571428571 1.2476571428571428H21.2424c-0.68904 0 -1.2476228571428571 -0.5585142857142856 -1.2476228571428571 -1.2476571428571428V31.862434285714286H15.390514285714286c-0.6890742857142856 0 -1.2476571428571428 -0.5585828571428572 -1.2476571428571428 -1.2476228571428571v-5.5152c0 -0.68904 0.5585828571428572 -1.2476571428571428 1.2476571428571428 -1.2476571428571428h4.604262857142857V19.247657142857143Z" clip-rule="evenodd" stroke-width="3.4286"></path>
  </g>
</svg>