<svg xmlns="http://www.w3.org/2000/svg" fill="none" viewBox="0 0 48 48" id="Open-Book--Streamline-Core-Remix" height="48" width="48">
  <desc>
    Open Book Streamline Icon: https://streamlinehq.com
  </desc>
  <g id="Free Remix/Interface Essential/open-book--content-books-book-open">
    <path id="Union" fill="#000000" fill-rule="evenodd" d="M6.573702857142857 5.7732c-0.24695999999999999 -0.032228571428571426 -0.46645714285714285 0.04323428571428571 -0.654 0.2233028571428571 -0.19985142857142857 0.19189714285714285 -0.3482742857142857 0.4970057142857143 -0.3482742857142857 0.8605714285714285v24c0 0.6471428571428571 0.5684914285714285 1.3946742857142855 1.5566057142857144 1.5235542857142856 6.207805714285714 0.8097599999999999 10.856777142857142 3.5435999999999996 13.938685714285715 6.056057142857143 0.2756571428571428 0.22491428571428573 0.5391428571428571 0.44811428571428574 0.7904228571428571 0.6682285714285714V14.419611428571429c-0.14211428571428572 -0.18144 -0.32568 -0.4073142857142857 -0.5505599999999999 -0.6676457142857142 -0.6475885714285714 -0.7496571428571428 -1.631142857142857 -1.7771657142857142 -2.9478514285714286 -2.8505485714285714 -2.63448 -2.1476914285714286 -6.560091428571428 -4.446651428571428 -11.78502857142857 -5.128217142857142ZM26.142857142857142 14.419611428571429v24.685302857142858c0.25127999999999995 -0.22011428571428568 0.5147657142857143 -0.44331428571428566 0.7904228571428571 -0.6682285714285714 3.081908571428571 -2.512457142857143 7.730948571428571 -5.246297142857142 13.938719999999998 -6.056057142857143 0.9881142857142857 -0.12888 1.5565714285714285 -0.8764114285714286 1.5565714285714285 -1.5235542857142856v-24c0 -0.36356571428571427 -0.14845714285714284 -0.6686742857142857 -0.3483428571428571 -0.8605714285714285 -0.18754285714285712 -0.1800685714285714 -0.40697142857142854 -0.2555314285714286 -0.6538285714285714 -0.2233028571428571 -5.225142857142857 0.6815657142857142 -9.150651428571429 2.9805257142857142 -11.785131428571429 5.128217142857142 -1.3167085714285713 1.0733828571428572 -2.300262857142857 2.1008914285714284 -2.9478514285714286 2.8505485714285714 -0.22487999999999997 0.26033142857142855 -0.40844571428571425 0.48620571428571424 -0.5505599999999999 0.6676457142857142ZM25.763691428571427 45.78857142857143c0.006514285714285714 -0.0096 0.01296 -0.0192 0.019337142857142855 -0.028799999999999996l0.0005485714285714285 -0.0006857142857142857 0.03312 -0.04731428571428571c0.03291428571428571 -0.04662857142857142 0.0873942857142857 -0.12205714285714285 0.16343999999999997 -0.2232 0.1521942857142857 -0.20228571428571426 0.39003428571428567 -0.5053714285714286 0.71328 -0.8794285714285714 0.6475885714285714 -0.7498285714285714 1.631142857142857 -1.7770285714285712 2.9478514285714286 -2.8505142857142856 2.63448 -2.1476571428571427 6.559988571428571 -4.446857142857143 11.785131428571429 -5.128457142857143 2.7672 -0.3606857142857143 5.287885714285714 -2.633108571428571 5.287885714285714 -5.773097142857143v-24c0 -2.990605714285714 -2.494628571428571 -5.770271999999999 -5.842285714285714 -5.333595428571428C34.66422857142857 2.333245714285714 30.015188571428567 5.067222857142857 26.93328 7.579645714285713c-1.213782857142857 0.9894857142857143 -2.1910628571428568 1.9496914285714286 -2.93328 2.7548914285714283 -0.7422171428571428 -0.8051999999999999 -1.7194971428571426 -1.765405714285714 -2.93328 -2.7548914285714283C17.984811428571426 5.067222857142857 13.33584 2.333245714285714 7.128034285714285 1.523478857142857 3.780411428571428 1.0868022857142856 1.2857142857142856 3.8664685714285714 1.2857142857142856 6.857074285714286v24c0 3.1399885714285714 2.5207885714285716 5.412411428571428 5.2879885714285715 5.773097142857143 5.224937142857143 0.6816 9.15054857142857 2.9807999999999995 11.78502857142857 5.128457142857143 1.3167085714285713 1.0734857142857142 2.300262857142857 2.100685714285714 2.9478514285714286 2.8505142857142856 0.3232457142857143 0.37405714285714287 0.5610857142857142 0.6771428571428572 0.71328 0.8794285714285714 0.07604571428571427 0.10114285714285713 0.13052571428571427 0.17657142857142855 0.16343999999999997 0.2232l0.03312 0.04731428571428571 0.0005485714285714285 0.0006857142857142857c0.006377142857142857 0.0096 0.012822857142857141 0.0192 0.019337142857142855 0.028799999999999996 0.1362857142857143 0.19748571428571426 0.3015428571428571 0.3665142857142857 0.4871314285714286 0.5039999999999999 0.18538285714285713 0.13748571428571427 0.39504 0.2465142857142857 0.62352 0.3198857142857143 0.010662857142857142 0.0030857142857142854 0.02136 0.006514285714285714 0.03205714285714286 0.009942857142857142 0.39527999999999996 0.11965714285714285 0.8262857142857142 0.12582857142857143 1.2419657142857143 0 0.010697142857142856 -0.0034285714285714284 0.021394285714285713 -0.006857142857142857 0.03205714285714286 -0.009942857142857142 0.22848000000000002 -0.07337142857142856 0.4381371428571428 -0.18239999999999998 0.62352 -0.3198857142857143 0.1855885714285714 -0.13748571428571427 0.35084571428571426 -0.3065142857142857 0.4871314285714286 -0.5039999999999999Z" clip-rule="evenodd" stroke-width="3.4286"></path>
  </g>
</svg>