<svg xmlns="http://www.w3.org/2000/svg" fill="none" viewBox="0 0 48 48" id="Open-Umbrella--Streamline-Core-Remix" height="48" width="48">
  <desc>
    Open Umbrella Streamline Icon: https://streamlinehq.com
  </desc>
  <g id="Free Remix/Interface Essential/open-umbrella--storm-rain-umbrella-open-weather">
    <path id="Union" fill="#000000" fill-rule="evenodd" d="M26.142857142857142 2.142857142857143C26.142857142857142 0.9593897142857143 25.183474285714283 0 24 0s-2.142857142857143 0.9593897142857143 -2.142857142857143 2.142857142857143v1.822285714285714C11.265702857142855 5.03856 3 13.982571428571427 3 24.857142857142854v1.7142857142857142c0 1.1834742857142857 0.9593828571428571 2.142857142857143 2.142857142857143 2.142857142857143h16.285714285714285v11.571428571428571C21.428571428571427 44.54605714285714 24.88237714285714 48 29.142857142857142 48s7.7142857142857135 -3.453942857142857 7.7142857142857135 -7.7142857142857135c0 -1.4201142857142857 -1.1513142857142855 -2.571428571428571 -2.571428571428571 -2.571428571428571 -1.4201485714285715 0 -2.571428571428571 1.1513142857142855 -2.571428571428571 2.571428571428571s-1.1512799999999999 2.571428571428571 -2.571428571428571 2.571428571428571 -2.571428571428571 -1.1513142857142855 -2.571428571428571 -2.571428571428571V28.71428571428571h16.285714285714285c1.183542857142857 0 2.142857142857143 -0.9593828571428571 2.142857142857143 -2.142857142857143v-1.7142857142857142c0 -10.874571428571427 -8.2656 -19.818582857142857 -18.857142857142858 -20.892V2.142857142857143ZM24 8.142857142857142c-9.087771428571427 0 -16.481554285714285 7.252731428571428 -16.708902857142856 16.285714285714285h33.41770285714285C40.48148571428571 15.39558857142857 33.08777142857143 8.142857142857142 24 8.142857142857142Z" clip-rule="evenodd" stroke-width="3.4286"></path>
  </g>
</svg>