<svg xmlns="http://www.w3.org/2000/svg" fill="none" viewBox="0 0 48 48" id="Orientation-Portrait--Streamline-Core-Remix" height="48" width="48">
  <desc>
    Orientation Portrait Streamline Icon: https://streamlinehq.com
  </desc>
  <g id="Free Remix/Images Photography/orientation-portrait--photos-photo-orientation-portrait-picture-photography-camera-pictures-image">
    <path id="Union" fill="#000000" fill-rule="evenodd" d="M39.42857142857142 4.285714285714286c0.7100571428571428 0 1.2857142857142856 0.5756228571428571 1.2857142857142856 1.2857142857142856l0 36.857142857142854c0 0.04731428571428571 -0.0024 0.0936 -0.007542857142857143 0.13954285714285714L16.153165714285713 18.014502857142855c-0.669462857142857 -0.669462857142857 -1.7548799999999998 -0.669462857142857 -2.424342857142857 0L7.285714285714286 24.457611428571425l0 -18.886182857142856c0 -0.7100914285714285 0.5756228571428571 -1.2857142857142856 1.2857142857142856 -1.2857142857142856l30.857142857142854 0Zm5.571428571428571 1.2857142857142856C45 2.494412571428571 42.505714285714284 0 39.42857142857142 0h-30.857142857142854C5.494422857142857 0 3 2.494412571428571 3 5.571428571428571v36.857142857142854C3 45.505714285714284 5.494422857142857 48 8.571428571428571 48h30.857142857142854c3.077142857142857 0 5.571428571428571 -2.494285714285714 5.571428571428571 -5.571428571428571l0 -36.857142857142854ZM36 14.571428571428571c0 -3.3137142857142856 -2.686285714285714 -6 -6 -6S24 11.257714285714286 24 14.571428571428571 26.686285714285713 20.57142857142857 30 20.57142857142857s6 -2.686285714285714 6 -6Z" clip-rule="evenodd" stroke-width="3.4286"></path>
  </g>
</svg>