<svg xmlns="http://www.w3.org/2000/svg" fill="none" viewBox="0 0 48 48" id="Orientation-Landscape--Streamline-Core-Remix" height="48" width="48">
  <desc>
    Orientation Landscape Streamline Icon: https://streamlinehq.com
  </desc>
  <g id="Free Remix/Images Photography/orientation-landscape--photos-photo-orientation-landscape-picture-photography-camera-pictures-image">
    <path id="Union" fill="#000000" fill-rule="evenodd" d="M43.714285714285715 39.42857142857142c0 0.7100571428571428 -0.5756571428571428 1.2857142857142856 -1.2857142857142856 1.2857142857142856h-1.9796571428571428L16.58173714285714 16.847245714285712c-0.669462857142857 -0.669462857142857 -1.7548799999999998 -0.669462857142857 -2.424377142857143 0L4.285714285714286 26.718925714285714V8.571428571428571c0 -0.7100914285714285 0.5756228571428571 -1.2857142857142856 1.2857142857142856 -1.2857142857142856h36.857142857142854c0.7100571428571428 0 1.2857142857142856 0.5756228571428571 1.2857142857142856 1.2857142857142856v30.857142857142854Zm-1.2857142857142856 5.571428571428571c3.077142857142857 0 5.571428571428571 -2.494285714285714 5.571428571428571 -5.571428571428571v-30.857142857142854c0 -3.0770057142857143 -2.494285714285714 -5.571428571428571 -5.571428571428571 -5.571428571428571H5.571428571428571C2.494412571428571 3 0 5.494422857142857 0 8.571428571428571v30.857142857142854c0 3.077142857142857 2.494412571428571 5.571428571428571 5.571428571428571 5.571428571428571h36.857142857142854ZM39.42857142857142 17.142857142857142c0 -3.3137142857142856 -2.686285714285714 -6 -6 -6S27.428571428571427 13.829142857142857 27.428571428571427 17.142857142857142s2.686285714285714 6 6 6S39.42857142857142 20.456571428571426 39.42857142857142 17.142857142857142Z" clip-rule="evenodd" stroke-width="3.4286"></path>
  </g>
</svg>