<svg xmlns="http://www.w3.org/2000/svg" fill="none" viewBox="0 0 48 48" id="Pacman--Streamline-Core-Remix" height="48" width="48">
  <desc>
    Pacman Streamline Icon: https://streamlinehq.com
  </desc>
  <g id="Free Remix/Entertainment/pacman--entertainment-gaming-pacman-video">
    <path id="Union" fill="#000000" fill-rule="evenodd" d="M25.618422857142853 4.285714285714286c-10.847657142857143 0 -19.65192 8.820617142857143 -19.65192 19.71428571428571 0 10.8936 8.804262857142856 19.71428571428571 19.65192 19.71428571428571 6.300685714285714 0 11.912434285714285 -2.9736 15.511748571428571 -7.608342857142857L24.491862857142856 25.822799999999997C23.860114285714285 25.432388571428568 23.47556571428571 24.742662857142857 23.47556571428571 24c0 -0.7426628571428571 0.3845485714285714 -1.4323885714285713 1.0162971428571428 -1.8227999999999998l16.63830857142857 -10.283177142857143C37.530857142857144 7.259382857142857 31.91910857142857 4.285714285714286 25.618422857142853 4.285714285714286ZM1.6808022857142857 24c0 -13.249062857142857 10.71146057142857 -24 23.937620571428567 -24 8.619085714285713 0 16.16969142857143 4.5682285714285715 20.38134857142857 11.407405714285714 0.6198857142857143 1.00656 0.3075428571428571 2.324982857142857 -0.6977142857142856 2.9464799999999998L29.694342857142857 24l15.607714285714284 9.646114285714285c1.0052571428571428 0.6214971428571427 1.3175999999999999 1.9400571428571427 0.6977142857142856 2.9463428571428567C41.788114285714286 43.43177142857143 34.23750857142857 48 25.618422857142853 48 12.392262857142857 48 1.6808022857142857 37.24902857142857 1.6808022857142857 24ZM22.326342857142855 9.659622857142857c2.344662857142857 0.0047657142857142855 4.24392 1.9069371428571427 4.24392 4.252731428571429 0 2.3487085714285714 -1.9040228571428568 4.252731428571429 -4.252731428571429 4.252731428571429m-0.008331428571428571 0c-2.344662857142857 -0.0047657142857142855 -4.24392 -1.9069714285714285 -4.24392 -4.252731428571429 0 -2.3487428571428572 1.9040228571428568 -4.252765714285714 4.252765714285714 -4.252765714285714" clip-rule="evenodd" stroke-width="3.4286"></path>
  </g>
</svg>