<svg xmlns="http://www.w3.org/2000/svg" fill="none" viewBox="0 0 48 48" id="Padlock-Square-1--Streamline-Core-Remix" height="48" width="48">
  <desc>
    Padlock Square 1 Streamline Icon: https://streamlinehq.com
  </desc>
  <g id="Free Remix/Interface Essential/padlock-square-1--combination-combo-lock-locked-padlock-secure-security-shield-keyhole">
    <path id="Union" fill="#000000" fill-rule="evenodd" d="M23.999177142857143 0c-3.978274285714286 0 -7.793554285714285 1.580352 -10.60662857142857 4.393405714285714 -2.81304 2.81304 -4.393371428571428 6.628354285714286 -4.393371428571428 10.606594285714285V17.142857142857142h-0.002537142857142857C5.919634285714285 17.142857142857142 3.425221714285714 19.63728 3.425221714285714 22.71428571428571v19.721142857142855c0 3.077142857142857 2.494412571428571 5.571428571428571 5.5714182857142855 5.571428571428571h30.003702857142855c3.0767999999999995 0 5.571428571428571 -2.494285714285714 5.571428571428571 -5.571428571428571V22.71428571428571c0 -3.0770057142857143 -2.494628571428571 -5.571428571428571 -5.571428571428571 -5.571428571428571h-0.0010285714285714284v-2.142857142857143c0 -3.97824 -1.5805714285714285 -7.793554285714285 -4.393714285714286 -10.606594285714285C31.79273142857143 1.580352 27.977417142857142 0 23.999177142857143 0Zm9 17.142857142857142v-2.142857142857143c0 -2.3869371428571426 -0.9482399999999999 -4.676125714285714 -2.6360571428571427 -6.363977142857142C28.675302857142857 6.948205714285714 26.386114285714285 6 23.999177142857143 6c-2.3869714285714285 0 -4.676159999999999 0.9482057142857141 -6.363977142857142 2.636022857142857 -1.6878171428571427 1.6878514285714286 -2.636022857142857 3.9770399999999997 -2.636022857142857 6.363977142857142V17.142857142857142h18Zm-21 4.285714285714286h27.00116571428571c0.7100571428571428 0 1.2857142857142856 0.5756228571428571 1.2857142857142856 1.2857142857142856v19.721142857142855c0 0.7100571428571428 -0.5756571428571428 1.2857142857142856 -1.2857142857142856 1.2857142857142856H8.99664c-0.7100571428571428 0 -1.2857142857142856 -0.5756571428571428 -1.2857142857142856 -1.2857142857142856V22.71428571428571c0 -0.7100914285714285 0.5756571428571428 -1.2857142857142856 1.2857142857142856 -1.2857142857142856h3.0025371428571423Zm12 7.285714285714286c-2.1302399999999997 0 -3.8571428571428568 1.726902857142857 -3.8571428571428568 3.8571428571428568 0 2.1301714285714284 1.726902857142857 3.8571428571428568 3.8571428571428568 3.8571428571428568s3.8571428571428568 -1.7269714285714286 3.8571428571428568 -3.8571428571428568c0 -2.1302399999999997 -1.726902857142857 -3.8571428571428568 -3.8571428571428568 -3.8571428571428568Z" clip-rule="evenodd" stroke-width="3.4286"></path>
  </g>
</svg>