<svg xmlns="http://www.w3.org/2000/svg" fill="none" viewBox="0 0 48 48" id="Page-Setting--Streamline-Core-Remix" height="48" width="48">
  <desc>
    Page Setting Streamline Icon: https://streamlinehq.com
  </desc>
  <g id="Free Remix/Interface Essential/page-setting--page-setting-square-triangle-circle-line-combination-variation">
    <path id="Union" fill="#000000" fill-rule="evenodd" d="M35.57142857142857 0.42857142857142855c0.7813714285714285 0 1.5010285714285714 0.42542742857142857 1.8774857142857142 1.1101748571428571l9.428571428571429 17.142853714285714c0.3651428571428571 0.6638399999999999 0.3528 1.4711657142857142 -0.03291428571428571 2.1233142857142853 -0.3857142857142857 0.6521485714285714 -1.0868571428571427 1.0522285714285713 -1.8445714285714285 1.0522285714285713h-18.857142857142858c-0.7576457142857143 0 -1.45896 -0.40008 -1.8445371428571427 -1.0522285714285713 -0.38561142857142855 -0.6521485714285714 -0.39819428571428567 -1.4594742857142857 -0.03308571428571429 -2.1233142857142853l9.428571428571429 -17.142853714285714C34.070434285714285 0.8539988571428571 34.790057142857144 0.42857142857142855 35.57142857142857 0.42857142857142855Zm5.804571428571428 17.142857142857142 -5.804571428571428 -10.553485714285713L29.766994285714286 17.57142857142857H41.376ZM3 1.2857142857142856C1.8165325714285714 1.2857142857142856 0.8571428571428571 2.245104 0.8571428571428571 3.4285714285714284v15.428571428571427c0 1.1834742857142857 0.9593897142857143 2.142857142857143 2.142857142857143 2.142857142857143h15.428571428571427c1.1834742857142857 0 2.142857142857143 -0.9593828571428571 2.142857142857143 -2.142857142857143V3.4285714285714284c0 -1.1834674285714284 -0.9593828571428571 -2.142857142857143 -2.142857142857143 -2.142857142857143h-15.428571428571427ZM25.71428571428571 44.57142857142857c0 -1.183542857142857 0.9593828571428571 -2.142857142857143 2.142857142857143 -2.142857142857143h15.428571428571427c1.183542857142857 0 2.142857142857143 0.9593142857142857 2.142857142857143 2.142857142857143s-0.9593142857142857 2.142857142857143 -2.142857142857143 2.142857142857143h-15.428571428571427c-1.1834742857142857 0 -2.142857142857143 -0.9593142857142857 -2.142857142857143 -2.142857142857143Zm2.142857142857143 -17.57142857142857c-1.1834742857142857 0 -2.142857142857143 0.9593828571428571 -2.142857142857143 2.142857142857143s0.9593828571428571 2.142857142857143 2.142857142857143 2.142857142857143h15.428571428571427c1.183542857142857 0 2.142857142857143 -0.9593828571428571 2.142857142857143 -2.142857142857143s-0.9593142857142857 -2.142857142857143 -2.142857142857143 -2.142857142857143h-15.428571428571427ZM25.71428571428571 36.857142857142854c0 -1.183542857142857 0.9593828571428571 -2.142857142857143 2.142857142857143 -2.142857142857143h15.428571428571427c1.183542857142857 0 2.142857142857143 0.9593142857142857 2.142857142857143 2.142857142857143s-0.9593142857142857 2.142857142857143 -2.142857142857143 2.142857142857143h-15.428571428571427c-1.1834742857142857 0 -2.142857142857143 -0.9593142857142857 -2.142857142857143 -2.142857142857143Zm-21.428571428571427 0c0 -3.5503885714285714 2.878182857142857 -6.428571428571428 6.428571428571428 -6.428571428571428S17.142857142857142 33.306754285714284 17.142857142857142 36.857142857142854c0 3.5502857142857143 -2.878182857142857 6.428571428571428 -6.428571428571428 6.428571428571428S4.285714285714286 40.407428571428575 4.285714285714286 36.857142857142854Zm6.428571428571428 -10.714285714285714C4.796948571428572 26.142857142857142 0 30.939805714285715 0 36.857142857142854c0 5.917371428571428 4.796948571428572 10.714285714285714 10.714285714285714 10.714285714285714S21.428571428571427 42.77451428571428 21.428571428571427 36.857142857142854c0 -5.917337142857142 -4.796948571428572 -10.714285714285714 -10.714285714285714 -10.714285714285714Z" clip-rule="evenodd" stroke-width="3.4286"></path>
  </g>
</svg>