<svg xmlns="http://www.w3.org/2000/svg" fill="none" viewBox="0 0 48 48" id="Paint-Bucket--Streamline-Core-Remix" height="48" width="48">
  <desc>
    Paint Bucket Streamline Icon: https://streamlinehq.com
  </desc>
  <g id="Free Remix/Interface Essential/paint-bucket--bucket-color-colors-design-paint-painting">
    <path id="Union" fill="#000000" fill-rule="evenodd" d="M20.79126857142857 -0.00046184571428571424C21.410914285714284 -0.04449805714285714 22.019142857142857 0.18252377142857143 22.458411428571427 0.6217748571428572L43.949485714285714 22.112811428571426c0.4395428571428571 0.43940571428571423 0.6665142857142856 1.0479771428571427 0.6222857142857142 1.6678285714285712 -0.04457142857142857 0.6198857142857143 -0.3555428571428571 1.1899885714285714 -0.8530285714285714 1.5625371428571426L19.507782857142857 43.47634285714285l-0.016148571428571425 0.012 -0.00003428571428571428 0c-1.0499314285714285 0.7710857142857142 -2.339382857142857 1.1444571428571428 -3.6388457142857145 1.0536 -1.2994285714285714 -0.09051428571428571 -2.52456 -0.6394285714285713 -3.4572342857142853 -1.5486857142857142l-0.01944 -0.0192 0.00013714285714285713 0L1.5971142857142855 32.19500571428571l-0.010069714285714284 -0.010079999999999999 0.00003428571428571428 -0.00003428571428571428c-0.9236571428571427 -0.936 -1.481440457142857 -2.1719314285714284 -1.5722626628571428 -3.4838057142857144C-0.07600594285714286 27.38921142857143 0.3061412571428571 26.088205714285714 1.0920034285714284 25.03381714285714l0.0038365714285714283 -0.0051085714285714285L19.228902857142856 0.8512902857142857c0.37272 -0.4969577142857142 0.9427542857142857 -0.8077162285714286 1.5623657142857141 -0.8517521314285714ZM21.17502857142857 5.3993142857142855 4.528251428571428 27.594994285714282l-0.001337142857142857 0.001817142857142857c-0.17269714285714285 0.2325942857142857 -0.25662857142857143 0.5192228571428571 -0.23660571428571428 0.8082514285714285 0.01992 0.288 0.14173714285714287 0.5594057142857143 0.34350857142857144 0.7657028571428571l0.0037714285714285714 0.003874285714285714 10.757074285714285 10.756902857142856c0.20509714285714284 0.19679999999999997 0.4727314285714286 0.3154285714285714 0.7563771428571429 0.3353142857142857 0.2844685714285714 0.019542857142857143 0.5668114285714285 -0.061028571428571425 0.7975885714285714 -0.22834285714285715l22.222114285714284 -16.64352L21.17502857142857 5.3993142857142855Zm22.46417142857143 27.627668571428572c-0.49405714285714286 -0.30312 -1.0632 -0.4609371428571428 -1.6422857142857141 -0.45562285714285716 -0.5739428571428571 -0.0023314285714285715 -1.1376 0.15246857142857143 -1.629942857142857 0.44790857142857143 -0.4851428571428571 0.2910171428571428 -0.8825142857142857 0.7073485714285713 -1.1502857142857144 1.2047999999999999 -0.8286857142857142 1.4231314285714285 -1.5726857142857142 2.7527314285714284 -2.172342857142857 4.213645714285714 -0.4282285714285714 1.0426285714285712 -0.8026285714285714 2.294742857142857 -0.8506285714285713 3.5712 -0.048685714285714284 1.293942857142857 0.2386285714285714 2.7239999999999998 1.2661714285714285 3.9133714285714283 0.09497142857142857 0.11005714285714284 0.1944 0.2166857142857143 0.2979428571428571 0.3202285714285714 1.1252571428571427 1.1252571428571427 2.6516571428571427 1.7578285714285715 4.243542857142857 1.7578285714285715 1.5915428571428571 0 3.117942857142857 -0.6325714285714286 4.243542857142857 -1.7578285714285715 0.10697142857142856 -0.10731428571428571 0.20982857142857142 -0.21805714285714287 0.30788571428571426 -0.3325714285714286 1.020342857142857 -1.1869714285714286 1.3066285714285713 -2.6122285714285716 1.2576 -3.9024 -0.04834285714285714 -1.2730285714285714 -0.4217142857142857 -2.521028571428571 -0.8509714285714285 -3.5612571428571425 -0.6044571428571429 -1.4650285714285713 -1.3570285714285713 -2.7949714285714284 -2.1970285714285716 -4.214022857142857 -0.2578285714285714 -0.4956685714285714 -0.6459428571428572 -0.91248 -1.1232 -1.20528Z" clip-rule="evenodd" stroke-width="3.4286"></path>
  </g>
</svg>