<svg xmlns="http://www.w3.org/2000/svg" fill="none" viewBox="0 0 48 48" id="Paintbrush-1--Streamline-Core-Remix" height="48" width="48">
  <desc>
    Paintbrush 1 Streamline Icon: https://streamlinehq.com
  </desc>
  <g id="Free Remix/Interface Essential/paintbrush-1--brush-color-colors-design-paint-painting">
    <path id="Union" fill="#000000" fill-rule="evenodd" d="M17.939074285714288 2.510513142857143C19.54652571428571 0.9030582857142857 21.72672 0 24 0c2.2732799999999997 0 4.453474285714285 0.9030582857142857 6.060925714285714 2.510513142857143C31.668377142857143 4.117954285714286 32.57142857142857 6.2981485714285705 32.57142857142857 8.571428571428571v6.857142857142857c0 0.45466285714285715 0.18061714285714284 0.8906742857142858 0.5021142857142856 1.2121714285714285C33.39504 16.96224 33.83105142857143 17.142857142857142 34.285714285714285 17.142857142857142h5.142857142857142c1.3638857142857141 0 2.672228571428571 0.5418514285714285 3.636685714285714 1.5063085714285713S44.57142857142857 20.921725714285714 44.57142857142857 22.285714285714285v6.857142857142857c0 0.9467657142857142 -0.7676571428571428 1.7142857142857142 -1.7142857142857142 1.7142857142857142h-0.8146285714285714l2.093142857142857 10.465371428571428 0.0013714285714285714 0.006171428571428571c0.15942857142857142 0.809142857142857 0.13714285714285715 1.644 -0.06514285714285714 2.443542857142857 -0.20159999999999997 0.7968 -0.5770285714285714 1.5390857142857142 -1.0992 2.1737142857142855 -0.5173714285714286 0.6356571428571428 -1.1687999999999998 1.1492571428571428 -1.9076571428571427 1.504457142857143 -0.7419428571428571 0.35657142857142854 -1.5534857142857141 0.5441142857142857 -2.3763428571428573 0.5496l-0.014057142857142858 0H9.311725714285714c-0.8229257142857143 -0.005485714285714286 -1.6344342857142857 -0.19302857142857144 -2.3762057142857143 -0.5496 -0.73896 -0.35519999999999996 -1.3904228571428572 -0.8688 -1.9079314285714284 -1.5048 -0.5221371428571429 -0.6342857142857142 -0.8974285714285714 -1.3765714285714286 -1.0990285714285715 -2.1733714285714285 -0.20232 -0.7995428571428571 -0.22457142857142856 -1.6343999999999999 -0.06507428571428571 -2.443542857142857l0.0011657142857142858 -0.006171428571428571L5.9577599999999995 30.857142857142854H5.142857142857142c-0.9467657142857142 0 -1.7142857142857142 -0.76752 -1.7142857142857142 -1.7142857142857142v-6.857142857142857c0 -1.3639542857142857 0.5418514285714285 -2.6720914285714286 1.5063085714285713 -3.636548571428571C5.899337142857142 17.68470857142857 7.20744 17.142857142857142 8.571428571428571 17.142857142857142H13.714285714285714c0.45466285714285715 0 0.8906742857142858 -0.18061714285714284 1.2121714285714285 -0.5021142857142856C15.247954285714286 16.319245714285714 15.428571428571427 15.883234285714284 15.428571428571427 15.428571428571427v-6.857142857142857c0 -2.2732799999999997 0.9030514285714286 -4.453474285714285 2.5105028571428574 -6.060915428571429ZM31.285714285714285 43.714285714285715v-6.428571428571428c0 -1.183542857142857 -0.9593828571428571 -2.142857142857143 -2.142857142857143 -2.142857142857143s-2.142857142857143 0.9593142857142857 -2.142857142857143 2.142857142857143v6.428571428571428H9.334662857142856c-0.18805714285714287 -0.0020571428571428568 -0.3734057142857143 -0.04525714285714286 -0.5429485714285714 -0.12685714285714284 -0.1711542857142857 -0.08228571428571428 -0.3219771428571428 -0.20125714285714286 -0.4416342857142857 -0.34868571428571427l0.00006857142857142857 -0.00034285714285714285 -0.011794285714285714 -0.014057142857142858c-0.12119999999999999 -0.14674285714285712 -0.20828571428571427 -0.31885714285714284 -0.2549828571428571 -0.5033142857142857 -0.04652571428571428 -0.18377142857142856 -0.05180571428571428 -0.3754285714285714 -0.015497142857142855 -0.5616l0.00047999999999999996 -0.0024L10.32833142857143 30.857142857142854h27.343782857142855l2.2597714285714283 11.299885714285713 0.0006857142857142857 0.0024c0.03634285714285714 0.1858285714285714 0.030857142857142854 0.3778285714285714 -0.015428571428571427 0.5616 -0.04697142857142857 0.18445714285714285 -0.13405714285714285 0.35657142857142854 -0.25508571428571425 0.5033142857142857l-0.011657142857142856 0.014399999999999998c-0.11965714285714285 0.1474285714285714 -0.2705142857142857 0.2664 -0.4416 0.34868571428571427 -0.1697142857142857 0.0816 -0.3548571428571428 0.1248 -0.5430857142857143 0.12685714285714284H31.285714285714285Z" clip-rule="evenodd" stroke-width="3.4286"></path>
  </g>
</svg>