<svg xmlns="http://www.w3.org/2000/svg" fill="none" viewBox="0 0 48 48" id="Paint-Palette--Streamline-Core-Remix" height="48" width="48">
  <desc>
    Paint Palette Streamline Icon: https://streamlinehq.com
  </desc>
  <g id="Free Remix/Interface Essential/paint-palette--color-colors-design-paint-painting-palette">
    <path id="Union" fill="#000000" fill-rule="evenodd" d="M27.737451428571426 0.22307862857142857C18.933462857142857 -0.9953897142857143 9.978582857142856 2.885180571428571 4.847485714285714 10.142365714285715 -0.2836152 17.399554285714284 -0.9563691428571428 27.135908571428573 3.127824 35.029714285714284 7.211622857142857 42.92297142857142 15.546514285714284 47.99828571428571 24.433474285714283 48.00308571428571c2.176697142857143 0.005828571428571428 4.343485714285714 -0.2928 6.437382857142857 -0.8876571428571429 2.6566971428571424 -0.7464 3.785142857142857 -3.0922285714285715 3.725142857142857 -5.1894857142857145 -0.057942857142857136 -2.0266285714285712 -1.2208457142857143 -4.267542857142857 -3.560708571428571 -5.137028571428571 -0.02561142857142857 -0.0096 -0.05139428571428571 -0.018514285714285716 -0.07738285714285714 -0.027085714285714286 -2.1019542857142857 -0.6908571428571428 -3.4465028571428573 -2.90088 -3.093668571428571 -5.08512 0.3528685714285714 -2.1842742857142854 2.32488 -3.8586171428571423 4.537474285714286 -3.852514285714286l0.005897142857142857 0h6.288959999999999v-2.142857142857143l-0.005828571428571428 2.142857142857143 0.0030857142857142854 0c2.8536 0.006891428571428571 5.611885714285714 -1.4156914285714286 7.260685714285715 -3.7448571428571427 1.649142857142857 -2.329782857142857 2.073942857142857 -5.405074285714286 1.1180571428571429 -8.094617142857143C44.1048 7.607554285714285 36.54102857142857 1.4414674285714286 27.737451428571426 0.22307862857142857ZM30.87085714285714 47.11542857142857l-0.003874285714285714 0.0010285714285714284 -0.57816 -2.0633142857142857 0.5858742857142857 2.0612571428571425 -0.0038399999999999997 0.0010285714285714284ZM8.346857142857141 12.61656c4.206651428571428 -5.949668571428571 11.585245714285714 -9.147154285714285 18.803074285714285 -8.14824C34.36765714285714 5.467268571428571 40.60045714285714 10.548582857142856 43.03302857142857 17.417142857142856l0.0010285714285714284 0.0024685714285714285c0.4889142857142857 1.3756114285714285 0.2660571428571428 2.9919771428571424 -0.5777142857142857 4.183611428571429 -0.8434285714285714 1.1916342857142856 -2.2937142857142856 1.9393371428571429 -3.7535999999999996 1.9352914285714284l-0.006171428571428571 -0.00003428571428571428H32.40761142857143v2.142857142857143l0.005931428571428571 -2.1428228571428574 -0.0031885714285714286 -0.00003428571428571428c-4.318834285714286 -0.010354285714285713 -8.088205714285714 3.1909028571428566 -8.776971428571429 7.454777142857143 -0.6859542857142856 4.2466285714285705 1.8600342857142858 8.454514285714286 5.933314285714285 9.822514285714286 0.3852342857142857 0.15634285714285714 0.7276457142857142 0.6116571428571428 0.7454057142857142 1.2325714285714284 0.008262857142857141 0.2890285714285714 -0.06466285714285713 0.5070857142857143 -0.15229714285714285 0.6418285714285714 -0.07186285714285713 0.1104 -0.18956571428571428 0.22697142857142855 -0.4491428571428571 0.29965714285714284l-0.007679999999999999 0.0020571428571428568c-1.7108571428571429 0.4861714285714286 -3.4814399999999996 0.7306285714285714 -5.260045714285714 0.7254857142857143l-0.005005714285714285 0c-7.286605714285714 -0.0030857142857142854 -14.155337142857142 -4.185257142857142 -17.50368 -10.656925714285714 -3.348342857142857 -6.471702857142857 -2.7940114285714284 -14.494182857142857 1.4126057142857142 -20.443885714285713ZM15.428571428571427 29.142891428571424c-1.8935314285714284 0 -3.4285714285714284 1.53504 -3.4285714285714284 3.4285714285714284 0 1.893565714285714 1.53504 3.428537142857143 3.4285714285714284 3.428537142857143 1.893565714285714 0 3.4285714285714284 -1.5349714285714284 3.4285714285714284 -3.428537142857143 0 -1.8935314285714284 -1.535005714285714 -3.4285714285714284 -3.4285714285714284 -3.4285714285714284Zm8.571428571428571 -15.428571428571427c0 -2.840297142857143 2.3025257142857143 -5.142857142857142 5.142857142857142 -5.142857142857142s5.142857142857142 2.3025599999999997 5.142857142857142 5.142857142857142c0 2.8403314285714285 -2.3025257142857143 5.142857142857142 -5.142857142857142 5.142857142857142s-5.142857142857142 -2.3025257142857143 -5.142857142857142 -5.142857142857142Zm-8.571428571428571 0c-2.8403314285714285 0 -5.142857142857142 2.3025599999999997 -5.142857142857142 5.142857142857142 0 2.8403314285714285 2.3025257142857143 5.142857142857142 5.142857142857142 5.142857142857142s5.142857142857142 -2.3025257142857143 5.142857142857142 -5.142857142857142c0 -2.840297142857143 -2.3025257142857143 -5.142857142857142 -5.142857142857142 -5.142857142857142Z" clip-rule="evenodd" stroke-width="3.4286"></path>
  </g>
</svg>