<svg xmlns="http://www.w3.org/2000/svg" fill="none" viewBox="0 0 48 48" id="Paintbrush-2--Streamline-Core-Remix" height="48" width="48">
  <desc>
    Paintbrush 2 Streamline Icon: https://streamlinehq.com
  </desc>
  <g id="Free Remix/Interface Essential/paintbrush-2--brush-color-colors-design-paint-painting">
    <path id="Union" fill="#000000" fill-rule="evenodd" d="M45.52628571428571 2.465334857142857c-3.456685714285714 -3.434636571428571 -9.259542857142856 -3.2562822857142852 -12.498994285714286 0.3835405714285714l-0.0015428571428571427 0.001745142857142857L16.21148571428571 21.649302857142857c-0.6102171428571428 -0.07772571428571427 -1.2269485714285715 -0.10892571428571428 -1.8448799999999999 -0.09267428571428571 -1.64256 0.04323428571428571 -3.259062857142857 0.42096 -4.750697142857143 1.1100685714285714 -1.4741485714285714 0.6810514285714285 -2.795725714285714 1.6520571428571427 -3.8859771428571426 2.8549028571428567 -1.5450514285714285 1.5588342857142856 -2.3042982857142857 3.12384 -2.5683394285714285 4.751074285714285 -0.2089542857142857 1.2877714285714286 -0.081144 2.571702857142857 0.017509714285714285 3.562731428571429 0.01584685714285714 0.15918857142857143 0.030939428571428573 0.31083428571428573 0.04376571428571428 0.4537371428571429 0.10100228571428571 1.1252571428571427 0.1229622857142857 2.0568 -0.166488 3.065142857142857 -0.285744 0.9956571428571428 -0.9304388571428571 2.2439999999999998 -2.454582857142857 3.821485714285714 -0.8047289142857142 0.8328 -0.8020590857142856 2.1545142857142854 0.006027428571428571 2.983885714285714 3.1328502857142855 3.216685714285714 7.364564571428571 4.218857142857142 11.411444571428571 3.717257142857143 3.9312685714285713 -0.48719999999999997 7.820125714285714 -2.3952 10.746137142857142 -5.251885714285714 1.2118971428571428 -1.0896000000000001 2.19096 -2.4133714285714283 2.878217142857143 -3.8914285714285715 0.6927428571428571 -1.4900571428571427 1.0744114285714284 -3.1056 1.1216571428571427 -4.747954285714285 0.02352 -0.8175428571428571 -0.03606857142857143 -1.6332 -0.17657142857142855 -2.434628571428571L45.14845714285714 14.973942857142855l0.0010285714285714284 -0.0009257142857142857c3.6418285714285714 -3.2390399999999997 3.821142857142857 -9.042822857142857 0.38434285714285715 -12.500187428571428l0 -0.00002057142857142857 -0.007542857142857143 -0.0074742857142857146ZM17.57886857142857 26.39502857142857c-0.9847542857142856 -0.3934971428571428 -2.039417142857143 -0.5820685714285714 -3.099497142857143 -0.55416 -1.0601142857142856 0.027908571428571425 -2.1033942857142853 0.27168 -3.066068571428571 0.7164342857142857 -0.9627085714285714 0.4447542857142857 -1.824582857142857 1.0811314285714284 -2.5329942857142855 1.8702514285714287 -0.02571428571428571 0.028628571428571427 -0.052182857142857135 0.05657142857142857 -0.07937142857142857 0.08376 -0.9990857142857142 0.9990857142857142 -1.300285714285714 1.77816 -1.4089714285714285 2.4477942857142856 -0.11262857142857141 0.6941485714285714 -0.04978285714285714 1.3586742857142857 0.04631999999999999 2.3747314285714283 0.016937142857142855 0.17907428571428569 0.03490285714285714 0.36908571428571424 0.05314285714285714 0.5720914285714286 0.11327999999999999 1.2619542857142856 0.19844571428571428 2.8394399999999997 -0.3156685714285714 4.630868571428572 -0.36095999999999995 1.2576 -0.9900342857142858 2.5333714285714284 -1.9830514285714282 3.8585142857142856 1.8010285714285712 1.1303999999999998 3.9880457142857146 1.5150857142857141 6.2994514285714285 1.228457142857143 3.0027771428571426 -0.372 6.074297142857143 -1.8747428571428568 8.36550857142857 -4.1499428571428565l0.06788571428571429 -0.06788571428571429 0.004937142857142857 -0.005142857142857143c0.060891428571428576 -0.06068571428571429 0.12452571428571427 -0.11725714285714285 0.19052571428571427 -0.16937142857142856 0.68064 -0.6613714285714285 1.2354857142857143 -1.4424 1.636422857142857 -2.3046857142857142 0.4470857142857142 -0.9617142857142857 0.6934285714285714 -2.004342857142857 0.7239085714285713 -3.06432 0.03048 -1.0600114285714286 -0.15552 -2.1151199999999997 -0.5465828571428571 -3.100834285714286 -0.39109714285714287 -0.9857142857142855 -0.9790971428571428 -1.881325714285714 -1.7280342857142854 -2.6321142857142856 -0.7489371428571427 -0.7507542857142857 -1.6431085714285714 -1.3409485714285714 -2.627862857142857 -1.7344457142857141Z" clip-rule="evenodd" stroke-width="3.4286"></path>
  </g>
</svg>