<svg xmlns="http://www.w3.org/2000/svg" fill="none" viewBox="0 0 48 48" id="Paperclip-1--Streamline-Core-Remix" height="48" width="48">
  <desc>
    Paperclip 1 Streamline Icon: https://streamlinehq.com
  </desc>
  <g id="Free Remix/Interface Essential/paperclip-1--attachment-link-paperclip-unlink">
    <path id="Vector" stroke="#000000" stroke-linecap="round" stroke-linejoin="round" stroke-width="4.2857" d="M44.08971428571429 23.27814857142857 24.16374857142857 43.371428571428574c-0.7731428571428571 0.7878857142857143 -1.6955657142857141 1.4136 -2.7133371428571427 1.8408 -1.0177371428571427 0.42719999999999997 -2.110457142857143 0.6473142857142856 -3.2142514285714285 0.6473142857142856 -1.1037599999999999 0 -2.1964799999999998 -0.22011428571428568 -3.2142514285714285 -0.6473142857142856 -1.0177714285714285 -0.42719999999999997 -1.94016 -1.0529142857142857 -2.713302857142857 -1.8408l-5.9610514285714284 -6.061371428571428c-1.5605142857142855 -1.5850285714285712 -2.435177142857143 -3.7200342857142856 -2.435177142857143 -5.944285714285714 0 -2.224285714285714 0.8746628571428571 -4.359325714285714 2.435177142857143 -5.944319999999999l21.23208 -21.299074285714283c0.6226285714285714 -0.6277714285714285 1.36344 -1.1260457142857143 2.179611428571428 -1.4660845714285713 0.8162057142857142 -0.34003885714285714 1.691622857142857 -0.5151085714285715 2.5758171428571424 -0.5151085714285715 0.8841942857142857 0 1.759645714285714 0.1750697142857143 2.5756799999999997 0.5151085714285715 0.8163428571428571 0.34003885714285714 1.5572571428571427 0.8383131428571429 2.179885714285714 1.4660845714285713l2.3777142857142857 2.377748571428571c0.6277714285714285 0.6226285714285714 1.1259428571428571 1.3634057142857143 1.4660571428571427 2.179611428571428 0.3401142857142857 0.8162057142857142 0.5149714285714285 1.691622857142857 0.5149714285714285 2.5758171428571424 0 0.8841942857142857 -0.17485714285714285 1.759645714285714 -0.5149714285714285 2.5758171428571424 -0.3401142857142857 0.8162057142857142 -0.8382857142857142 1.5569828571428572 -1.4660571428571427 2.1796457142857144L20.64737142857143 34.89874285714286c-0.3113142857142857 0.31405714285714287 -0.6817028571428572 0.5633142857142857 -1.089805714285714 0.7330285714285714 -0.4081028571428571 0.17005714285714285 -0.8458285714285714 0.2578285714285714 -1.2879085714285712 0.2578285714285714 -0.44208 0 -0.8798057142857143 -0.08777142857142857 -1.2879085714285712 -0.2578285714285714 -0.4081028571428571 -0.1697142857142857 -0.7784914285714286 -0.41897142857142855 -1.089805714285714 -0.7330285714285714l-1.1721257142857142 -1.2054857142857143c-0.31388571428571427 -0.3113142857142857 -0.56304 -0.6817371428571428 -0.7330628571428571 -1.089805714285714 -0.17002285714285714 -0.4081028571428571 -0.25755428571428574 -0.8458285714285714 -0.25755428571428574 -1.2879085714285712 0 -0.44211428571428574 0.08753142857142857 -0.87984 0.25755428571428574 -1.287942857142857 0.17002285714285714 -0.4080685714285714 0.4191771428571428 -0.7784914285714286 0.7330628571428571 -1.089805714285714l12.625371428571427 -12.524914285714285"></path>
  </g>
</svg>