<svg xmlns="http://www.w3.org/2000/svg" fill="none" viewBox="0 0 48 48" id="Parachute-Drop--Streamline-Core-Remix" height="48" width="48">
  <desc>
    Parachute Drop Streamline Icon: https://streamlinehq.com
  </desc>
  <g id="Free Remix/Shipping/parachute-drop--package-box-fulfillment-cart-warehouse-shipping-delivery-drop-parachute">
    <path id="Union" fill="#000000" fill-rule="evenodd" d="M46.73177142857143 9.949954285714286C41.06502857142857 3.2742 32.337531428571424 -0.002926501714285714 23.85912 0.00000196114285714286 15.301371428571429 0.002965776 6.90552 3.265244571428571 1.26396 9.95208 0.3948034285714286 10.982297142857142 0 12.266537142857143 0 13.51512c0 3.2243657142857143 2.613857142857143 5.8382057142857136 5.8382057142857136 5.8382057142857136h1.8374399999999997l3.9142285714285716 7.316879999999999c-1.0646742857142855 0.9706971428571427 -1.7327314285714286 2.368937142857143 -1.7327314285714286 3.923211428571428v12.098811428571429c0 2.931428571428571 2.3763428571428573 5.307771428571429 5.307702857142856 5.307771428571429h17.67030857142857c2.9313599999999997 0 5.307702857142856 -2.3763428571428573 5.307702857142856 -5.307771428571429V30.59341714285714c0 -1.5878742857142856 -0.6973714285714285 -3.012925714285714 -1.8023999999999998 -3.9855771428571427l3.8807999999999994 -7.254514285714285h1.939885714285714c3.224571428571428 0 5.838857142857143 -2.6141142857142854 5.838857142857143 -5.838788571428571 0 -1.2468685714285714 -0.3932571428571428 -2.5337485714285712 -1.2682285714285715 -3.5645828571428573ZM26.091394285714284 19.353325714285713h9.269519999999998L32.18736 25.285714285714285H26.091394285714284V19.353325714285713Zm-13.555337142857143 0h9.269622857142856V25.285714285714285H15.709645714285713l-3.173588571428571 -5.932388571428572ZM15.164845714285713 29.57142857142857c-0.5644457142857142 0 -1.0219885714285715 0.45754285714285714 -1.0219885714285715 1.0219885714285715v12.098811428571429c0 0.5643428571428571 0.45754285714285714 1.0220571428571428 1.0219885714285715 1.0220571428571428h17.67030857142857c0.5644457142857142 0 1.0219885714285715 -0.45771428571428574 1.0219885714285715 -1.0220571428571428V30.59341714285714c0 -0.5644457142857142 -0.45754285714285714 -1.0219885714285715 -1.0219885714285715 -1.0219885714285715H15.164845714285713Zm9.752982857142856 8.061942857142856c-1.1834742857142857 0 -2.142857142857143 0.9596571428571428 -2.142857142857143 2.142857142857143 0 1.183542857142857 0.9593828571428571 2.142857142857143 2.142857142857143 2.142857142857143h3.4285714285714284c1.1834742857142857 0 2.142857142857143 -0.9593142857142857 2.142857142857143 -2.142857142857143 0 -1.1832 -0.9593828571428571 -2.142857142857143 -2.142857142857143 -2.142857142857143h-3.4285714285714284Z" clip-rule="evenodd" stroke-width="3.4286"></path>
  </g>
</svg>