<svg xmlns="http://www.w3.org/2000/svg" fill="none" viewBox="0 0 48 48" id="Paragraph--Streamline-Core-Remix" height="48" width="48">
  <desc>
    Paragraph Streamline Icon: https://streamlinehq.com
  </desc>
  <g id="Free Remix/Interface Essential/paragraph--alignment-paragraph-formatting-text">
    <path id="Union" fill="#000000" fill-rule="evenodd" d="M15.857142857142856 0C11.651554285714285 0 7.618251428571428 1.6706571428571428 4.644445714285714 4.644445714285714 1.6706571428571428 7.618251428571428 0 11.651554285714285 0 15.857142857142856s1.6706571428571428 8.238891428571428 4.644445714285714 11.212697142857143C7.618251428571428 30.043611428571428 11.651554285714285 31.71428571428571 15.857142857142856 31.71428571428571h4.285714285714286v14.142857142857142c0 1.183542857142857 0.9593828571428571 2.142857142857143 2.142857142857143 2.142857142857143s2.142857142857143 -0.9593142857142857 2.142857142857143 -2.142857142857143V4.285714285714286h8.571428571428571v41.57142857142857c0 1.183542857142857 0.9593828571428571 2.142857142857143 2.142857142857143 2.142857142857143 1.183542857142857 0 2.142857142857143 -0.9593142857142857 2.142857142857143 -2.142857142857143V4.285714285714286h8.571428571428571c1.183542857142857 0 2.142857142857143 -0.9593897142857143 2.142857142857143 -2.142857142857143S47.040685714285715 0 45.857142857142854 0h-30Z" clip-rule="evenodd" stroke-width="3.4286"></path>
  </g>
</svg>