<svg xmlns="http://www.w3.org/2000/svg" fill="none" viewBox="0 0 48 48" id="Parking-Sign--Streamline-Core-Remix" height="48" width="48">
  <desc>
    Parking Sign Streamline Icon: https://streamlinehq.com
  </desc>
  <g id="Free Remix/Map Travel/parking-sign--discount-coupon-parking-price-prices-hotel">
    <path id="Union" fill="#000000" fill-rule="evenodd" d="M6.857142857142857 1.2857142857142856C3.780137142857143 1.2857142857142856 1.2857142857142856 3.780137142857143 1.2857142857142856 6.857142857142857v34.285714285714285c0 3.077142857142857 2.494422857142857 5.571428571428571 5.571428571428571 5.571428571428571h34.285714285714285c3.077142857142857 0 5.571428571428571 -2.494285714285714 5.571428571428571 -5.571428571428571V6.857142857142857c0 -3.0770057142857143 -2.494285714285714 -5.571428571428571 -5.571428571428571 -5.571428571428571H6.857142857142857ZM5.571428571428571 6.857142857142857c0 -0.7100914285714285 0.5756228571428571 -1.2857142857142856 1.2857142857142856 -1.2857142857142856h34.285714285714285c0.7100571428571428 0 1.2857142857142856 0.5756228571428571 1.2857142857142856 1.2857142857142856v34.285714285714285c0 0.7100571428571428 -0.5756571428571428 1.2857142857142856 -1.2857142857142856 1.2857142857142856H6.857142857142857c-0.7100914285714285 0 -1.2857142857142856 -0.5756571428571428 -1.2857142857142856 -1.2857142857142856V6.857142857142857Zm9.857142857142856 2.571428571428571c-1.4201485714285715 0 -2.571428571428571 1.1512799999999999 -2.571428571428571 2.571428571428571v24c0 1.4201142857142857 1.1512799999999999 2.571428571428571 2.571428571428571 2.571428571428571s2.571428571428571 -1.1513142857142855 2.571428571428571 -2.571428571428571V28.285714285714285H27.428571428571427c4.260479999999999 0 7.7142857142857135 -3.453805714285714 7.7142857142857135 -7.7142857142857135V17.142857142857142c0 -4.260479999999999 -3.453805714285714 -7.7142857142857135 -7.7142857142857135 -7.7142857142857135H15.428571428571427Zm12 13.714285714285714H18v-8.571428571428571H27.428571428571427c1.4201485714285715 0 2.571428571428571 1.1512799999999999 2.571428571428571 2.571428571428571v3.4285714285714284c0 1.4201485714285715 -1.1512799999999999 2.571428571428571 -2.571428571428571 2.571428571428571Z" clip-rule="evenodd" stroke-width="3.4286"></path>
  </g>
</svg>