<svg xmlns="http://www.w3.org/2000/svg" fill="none" viewBox="0 0 48 48" id="Parliament--Streamline-Core-Remix" height="48" width="48">
  <desc>
    Parliament Streamline Icon: https://streamlinehq.com
  </desc>
  <g id="Free Remix/Map Travel/parliament--travel-places-parliament">
    <path id="Union" fill="#000000" fill-rule="evenodd" d="M24 1.2857142857142856c-1.1834742857142857 0 -2.142857142857143 0.9593897142857143 -2.142857142857143 2.142857142857143v7.68384L17.34192 15.627634285714286C16.940057142857142 16.029497142857142 16.71428571428571 16.574537142857142 16.71428571428571 17.142857142857142v8.142857142857142h-2.571428571428571V24c0 -0.4466057142857142 -0.13954285714285714 -0.8820685714285714 -0.3991542857142857 -1.2454971428571426l-4.285714285714286 -6C9.055748571428571 16.19136 8.40630857142857 15.857142857142856 7.7142857142857135 15.857142857142856c-0.692022857142857 0 -1.341462857142857 0.3342171428571428 -1.7437028571428572 0.89736l-4.285724571428571 6C1.425264 23.117931428571428 1.2857142857142856 23.553394285714283 1.2857142857142856 24v20.57142857142857c0 1.183542857142857 0.9593897142857143 2.142857142857143 2.142857142857143 2.142857142857143h41.14285714285714c1.183542857142857 0 2.142857142857143 -0.9593142857142857 2.142857142857143 -2.142857142857143V24c0 -0.4466057142857142 -0.13954285714285714 -0.8820685714285714 -0.39908571428571427 -1.2454971428571426l-4.285714285714286 -6c-0.40217142857142857 -0.5631428571428572 -1.0518857142857143 -0.89736 -1.7437714285714287 -0.89736 -0.6918857142857143 0 -1.3416 0.3342171428571428 -1.7437714285714287 0.89736l-4.285645714285715 6C33.99668571428571 23.117931428571428 33.857142857142854 23.553394285714283 33.857142857142854 24v1.2857142857142856h-2.571428571428571V17.142857142857142c0 -0.5683199999999999 -0.22577142857142857 -1.11336 -0.6276342857142857 -1.515222857142857L26.142857142857142 11.112411428571429V5.571428571428571H27.428571428571427c1.1834742857142857 0 2.142857142857143 -0.9593828571428571 2.142857142857143 -2.142857142857143 0 -1.1834674285714284 -0.9593828571428571 -2.142857142857143 -2.142857142857143 -2.142857142857143H24Zm9.857142857142856 28.285714285714285v12.857142857142856h-6.857142857142857V37.714285714285715c0 -1.6566857142857143 -1.343142857142857 -3 -3 -3s-3 1.3433142857142857 -3 3v4.714285714285714h-6.857142857142857v-12.857142857142856h19.71428571428571Zm8.571428571428571 -4.88472V42.42857142857142h-4.285714285714286V24.686708571428568l2.142857142857143 -3 2.142857142857143 3Zm-32.57142857142857 17.741862857142856V24.686708571428568l-2.142857142857143 -3 -2.142857142857143 3V42.42857142857142h4.285714285714286Z" clip-rule="evenodd" stroke-width="3.4286"></path>
  </g>
</svg>