<svg xmlns="http://www.w3.org/2000/svg" fill="none" viewBox="0 0 48 48" id="Party-Popper--Streamline-Core-Remix" height="48" width="48">
  <desc>
    Party Popper Streamline Icon: https://streamlinehq.com
  </desc>
  <g id="Free Remix/Entertainment/party-popper--hobby-entertainment-party-popper-confetti-event">
    <path id="Union" fill="#000000" fill-rule="evenodd" d="M24.446091428571428 0.15108342857142856c1.3500342857142857 -0.4407126857142857 2.801725714285714 0.296448 3.242434285714286 1.646496 1.3695428571428572 4.195289142857143 1.1893028571428572 8.742569142857143 -0.5079428571428571 12.81626057142857 -0.5461714285714285 1.3109485714285714 -2.051657142857143 1.930902857142857 -3.362605714285714 1.3847314285714285 -1.3109485714285714 -0.5461714285714285 -1.930902857142857 -2.051657142857143 -1.3846971428571428 -3.362605714285714 1.223965714285714 -2.937737142857143 1.3539085714285715 -6.217028571428571 0.36630857142857143 -9.242424 -0.44070857142857134 -1.350048 0.2964342857142857 -2.8017462857142856 1.646502857142857 -3.2424582857142856ZM37.32891428571428 10.832982857142856c-0.19577142857142854 -1.4066400000000001 -1.4945142857142857 -2.3884114285714286 -2.9012571428571423 -2.1928457142857143 -1.4065714285714286 0.1955657142857143 -2.388342857142857 1.4944114285714285 -2.192777142857143 2.901017142857143 0.15082285714285715 1.084902857142857 -0.10011428571428571 2.1875314285714285 -0.7055657142857142 3.100285714285714 -0.78504 1.1834742857142857 -0.4620342857142857 2.7792342857142858 0.7214057142857143 3.5642742857142853 1.1834742857142857 0.78504 2.779337142857143 0.4620342857142857 3.5641371428571422 -0.72144 1.2990857142857142 -1.9582285714285714 1.8373714285714287 -4.323771428571429 1.5140571428571428 -6.651291428571428Zm-24.213565714285714 2.34576c1.0402285714285713 -0.2676342857142857 2.131165714285714 -0.2682857142857143 3.1717371428571424 -0.0019199999999999998 1.0405371428571428 0.26636571428571426 1.997005714285714 0.7911428571428571 2.780674285714286 1.52568 0.016868571428571427 0.015805714285714288 0.03349714285714285 0.03188571428571428 0.049851428571428574 0.04823999999999999l14.089302857142856 14.089302857142856 0.02136 0.02136 -0.00013714285714285713 0.00017142857142857143c0.7421142857142857 0.7633371428571428 1.2804342857142856 1.70112 1.5650057142857141 2.726982857142857 0.2845714285714286 1.0258971428571428 0.3065142857142857 2.1068914285714286 0.06377142857142856 3.1435542857142855 -0.24274285714285715 1.0364571428571427 -0.7422857142857142 1.995428571428571 -1.4527885714285713 2.7884571428571427 -0.7059428571428571 0.7875428571428571 -1.5975085714285715 1.3865142857142856 -2.5936114285714282 1.7417142857142855l-22.44661714285714 8.367085714285713 -0.03267428571428571 0.012342857142857142 -0.00006857142857142857 -0.00034285714285714285c-1.09584 0.3881142857142857 -2.278285714285714 0.46285714285714286 -3.4142742857142854 0.21565714285714283 -1.1359885714285713 -0.24719999999999998 -2.1804 -0.8067428571428571 -3.015665142857143 -1.6155428571428572 -0.8352685714285714 -0.8084571428571429 -1.4282297142857143 -1.8342857142857143 -1.7121349714285714 -2.9616 -0.2839062857142857 -1.1273142857142855 -0.24748937142857141 -2.311542857142857 0.10515702857142857 -3.4196571428571425 0.01024902857142857 -0.03188571428571428 0.021258171428571428 -0.06411428571428572 0.03301817142857143 -0.09565714285714286L8.652685714285713 17.339657142857142c0.33435428571428566 -1.003062857142857 0.9128914285714285 -1.9075199999999999 1.6838057142857141 -2.631874285714286 0.7828114285714285 -0.7354628571428571 1.7386285714285714 -1.2614057142857142 2.778857142857143 -1.5290399999999997Zm2.1089142857142855 4.149908571428571c-0.3415542857142857 -0.08742857142857142 -0.6996342857142857 -0.08718857142857143 -1.0410514285714285 0.0006514285714285715 -0.3414514285714286 0.08784 -0.6551657142857142 0.2604685714285714 -0.9121028571428571 0.5018742857142857 -0.25693714285714286 0.24140571428571428 -0.44876571428571427 0.5437714285714285 -0.5576914285714285 0.8790857142857142 -0.009154285714285714 0.028079999999999997 -0.018857142857142854 0.05598857142857143 -0.029142857142857144 0.08369142857142857l-8.3184 22.406159999999996c-0.09922285714285714 0.336 -0.10652571428571428 0.6929142857142857 -0.020845714285714287 1.0330285714285714 0.08910857142857143 0.35382857142857144 0.27514285714285713 0.6757714285714286 0.5372228571428571 0.9294857142857142 0.26208 0.25371428571428567 0.5897828571428572 0.42925714285714284 0.9461828571428571 0.506742857142857 0.3518057142857143 0.07645714285714285 0.7178057142857142 0.054857142857142854 1.0578514285714284 -0.06308571428571429l22.442914285714284 -8.365714285714285 0.03476571428571428 -0.012685714285714286 0.00010285714285714286 0.00034285714285714285c0.32592 -0.11519999999999998 0.6176571428571428 -0.3106285714285714 0.8483314285714285 -0.5677714285714285 0.23070857142857143 -0.25748571428571426 0.39291428571428566 -0.568902857142857 0.47170285714285715 -0.9054514285714285 0.07878857142857143 -0.3365485714285714 0.07165714285714285 -0.6875314285714286 -0.020742857142857143 -1.020617142857143 -0.09130285714285714 -0.32904 -0.2629371428571428 -0.6301714285714285 -0.4993714285714286 -0.8763428571428571L16.115931428571425 17.809988571428573c-0.2532342857142857 -0.23091428571428568 -0.5593714285714285 -0.3962742857142857 -0.8916685714285715 -0.4813371428571428Zm19.94190857142857 4.347291428571428c2.286514285714286 -0.5191885714285714 4.684114285714286 -0.17430857142857142 6.731657142857142 0.9682971428571429 1.2401142857142857 0.6920571428571428 1.6844571428571429 2.2583999999999995 0.9925714285714284 3.4985142857142852 -0.6922285714285714 1.2401485714285714 -2.2583999999999995 1.6844571428571429 -3.4985142857142852 0.9924 -0.9390857142857142 -0.5239542857142857 -2.0386285714285712 -0.68208 -3.087085714285714 -0.444 -1.3847999999999998 0.3144685714285714 -2.762434285714286 -0.5533028571428571 -3.0769028571428567 -1.938205714285714 -0.3144685714285714 -1.3849028571428572 0.5532685714285714 -2.7625028571428567 1.9382742857142856 -3.0770057142857143Zm5.184685714285714 -10.285782857142857c0 -2.1120342857142855 1.7122285714285714 -3.82416 3.824228571428571 -3.82416 2.1119999999999997 0 3.824228571428571 1.712125714285714 3.824228571428571 3.82416 0 2.1119999999999997 -1.7122285714285714 3.82416 -3.824228571428571 3.82416 -2.1119999999999997 0 -3.824228571428571 -1.71216 -3.824228571428571 -3.82416Z" clip-rule="evenodd" stroke-width="3.4286"></path>
  </g>
</svg>