<svg xmlns="http://www.w3.org/2000/svg" fill="none" viewBox="0 0 48 48" id="Passport--Streamline-Core-Remix" height="48" width="48">
  <desc>
    Passport Streamline Icon: https://streamlinehq.com
  </desc>
  <g id="Free Remix/Map Travel/passport--travel-book-id-adventure-visa-airport">
    <path id="Union" fill="#000000" fill-rule="evenodd" d="M40.714285714285715 5.571428571428571c0 -0.7100914285714285 -0.5756571428571428 -1.2857142857142856 -1.2857142857142856 -1.2857142857142856h-30.857142857142854c-0.7100914285714285 0 -1.2857142857142856 0.5756228571428571 -1.2857142857142856 1.2857142857142856v36.857142857142854c0 0.7100571428571428 0.5756228571428571 1.2857142857142856 1.2857142857142856 1.2857142857142856h30.857142857142854c0.7100571428571428 0 1.2857142857142856 -0.5756571428571428 1.2857142857142856 -1.2857142857142856V5.571428571428571ZM39.42857142857142 0c3.077142857142857 0 5.571428571428571 2.494412571428571 5.571428571428571 5.571428571428571v36.857142857142854c0 3.077142857142857 -2.494285714285714 5.571428571428571 -5.571428571428571 5.571428571428571h-30.857142857142854c-3.0770057142857143 0 -5.571428571428571 -2.494285714285714 -5.571428571428571 -5.571428571428571V5.571428571428571C3 2.494412571428571 5.494422857142857 0 8.571428571428571 0h30.857142857142854ZM30.57144 10.448845714285714c3.0574971428571427 1.9082742857142856 5.225588571428571 5.108605714285714 5.739874285714285 8.836868571428571H30.57144V10.448845714285714Zm0 21.10230857142857c3.0574971428571427 -1.9082742857142856 5.225588571428571 -5.108605714285714 5.739874285714285 -8.836868571428571H30.57144v8.836868571428571Zm-3.4285714285714284 1.4766171428571429V22.71428571428571H20.857131428571428v10.313485714285715c1.0038514285714284 0.26156571428571423 2.0571085714285715 0.4008 3.142868571428571 0.4008 1.08576 0 2.1390171428571425 -0.1392342857142857 3.142868571428571 -0.4008Zm-9.714308571428571 -1.476582857142857V22.71428571428571H11.688685714285713c0.5143542857142857 3.728262857142857 2.682377142857143 6.928594285714286 5.739874285714285 8.836902857142857Zm0 -12.265474285714285H11.688685714285713c0.5143542857142857 -3.728262857142857 2.682377142857143 -6.928594285714286 5.739874285714285 -8.836902857142857V19.285714285714285Zm9.714308571428571 0H20.857131428571428V8.97222857142857C21.860982857142858 8.710662857142857 22.91424 8.571428571428571 24 8.571428571428571c1.08576 0 2.1390171428571425 0.1392342857142857 3.142868571428571 0.4008V19.285714285714285Z" clip-rule="evenodd" stroke-width="3.4286"></path>
  </g>
</svg>