<svg xmlns="http://www.w3.org/2000/svg" fill="none" viewBox="0 0 48 48" id="Pathfinder-Square-Minus-Front-1--Streamline-Core-Remix" height="48" width="48">
  <desc>
    Pathfinder Square Minus Front 1 Streamline Icon: https://streamlinehq.com
  </desc>
  <g id="Free Remix/Interface Essential/pathfinder-square-minus-front-1">
    <path id="Union" fill="#000000" fill-rule="evenodd" d="M1.2857142857142856 6.857142857142857C1.2857142857142856 3.806262857142857 3.806262857142857 1.2857142857142856 6.857142857142857 1.2857142857142856h22.285714285714285c3.05088 0 5.571428571428571 2.5205485714285714 5.571428571428571 5.571428571428571v8.142857142857142c0 1.1834742857142857 -0.9593828571428571 2.142857142857143 -2.142857142857143 2.142857142857143H20.57142857142857c-1.8935314285714284 0 -3.4285714285714284 1.53504 -3.4285714285714284 3.4285714285714284v12c0 1.1834742857142857 -0.9593828571428571 2.142857142857143 -2.142857142857143 2.142857142857143H6.857142857142857c-3.05088 0 -5.571428571428571 -2.5205485714285714 -5.571428571428571 -5.571428571428571V6.857142857142857Zm45.42857142857142 34.285714285714285c0 -1.183542857142857 -0.9593142857142857 -2.142857142857143 -2.142857142857143 -2.142857142857143s-2.142857142857143 0.9593142857142857 -2.142857142857143 2.142857142857143c0 0.7100571428571428 -0.5756571428571428 1.2857142857142856 -1.2857142857142856 1.2857142857142856 -1.183542857142857 0 -2.142857142857143 0.9593142857142857 -2.142857142857143 2.142857142857143s0.9593142857142857 2.142857142857143 2.142857142857143 2.142857142857143c3.077142857142857 0 5.571428571428571 -2.494285714285714 5.571428571428571 -5.571428571428571Zm-7.7142857142857135 -25.71428571428571c0 -1.1834742857142857 0.9593142857142857 -2.142857142857143 2.142857142857143 -2.142857142857143 3.077142857142857 0 5.571428571428571 2.494422857142857 5.571428571428571 5.571428571428571 0 1.1834742857142857 -0.9593142857142857 2.142857142857143 -2.142857142857143 2.142857142857143s-2.142857142857143 -0.9593828571428571 -2.142857142857143 -2.142857142857143c0 -0.7100914285714285 -0.5756571428571428 -1.2857142857142856 -1.2857142857142856 -1.2857142857142856 -1.183542857142857 0 -2.142857142857143 -0.9593828571428571 -2.142857142857143 -2.142857142857143ZM17.57142857142857 41.14285714285714c0 -1.183542857142857 -0.9593828571428571 -2.142857142857143 -2.142857142857143 -2.142857142857143s-2.142857142857143 0.9593142857142857 -2.142857142857143 2.142857142857143c0 3.077142857142857 2.494422857142857 5.571428571428571 5.571428571428571 5.571428571428571 1.1834742857142857 0 2.142857142857143 -0.9593142857142857 2.142857142857143 -2.142857142857143s-0.9593828571428571 -2.142857142857143 -2.142857142857143 -2.142857142857143c-0.7100914285714285 0 -1.2857142857142856 -0.5756571428571428 -1.2857142857142856 -1.2857142857142856ZM44.57142857142857 25.71428571428571c0.9466285714285714 0 1.7142857142857142 0.76752 1.7142857142857142 1.7142857142857142v5.142857142857142c0 0.9467657142857142 -0.7676571428571428 1.7142857142857142 -1.7142857142857142 1.7142857142857142s-1.7142857142857142 -0.76752 -1.7142857142857142 -1.7142857142857142V27.428571428571427c0 -0.9467657142857142 0.7676571428571428 -1.7142857142857142 1.7142857142857142 -1.7142857142857142Zm-17.142857142857142 16.71428571428571c-1.1834742857142857 0 -2.142857142857143 0.9593142857142857 -2.142857142857143 2.142857142857143s0.9593828571428571 2.142857142857143 2.142857142857143 2.142857142857143h5.142857142857142c1.1834742857142857 0 2.142857142857143 -0.9593142857142857 2.142857142857143 -2.142857142857143s-0.9593828571428571 -2.142857142857143 -2.142857142857143 -2.142857142857143H27.428571428571427Z" clip-rule="evenodd" stroke-width="3.4286"></path>
  </g>
</svg>