<svg xmlns="http://www.w3.org/2000/svg" fill="none" viewBox="0 0 48 48" id="Pathfinder-Square-Exclude--Streamline-Core-Remix" height="48" width="48">
  <desc>
    Pathfinder Square Exclude Streamline Icon: https://streamlinehq.com
  </desc>
  <g id="Free Remix/Interface Essential/pathfinder-square-exclude">
    <path id="Union" fill="#000000" fill-rule="evenodd" d="M6.857142857142857 1.2857142857142856c-1.477645714285714 0 -2.894742857142857 0.5869885714285714 -3.939596571428571 1.631832C1.8727028571428572 3.9623999999999997 1.2857142857142856 5.379497142857143 1.2857142857142856 6.857142857142857v21.857142857142858c0 1.477645714285714 0.5869885714285714 2.894742857142857 1.631832 3.9395999999999995C3.9623999999999997 33.69870857142857 5.379497142857143 34.285714285714285 6.857142857142857 34.285714285714285h1.2857142857142856C9.326331428571429 34.285714285714285 10.285714285714285 33.32633142857142 10.285714285714285 32.14285714285714s-0.9593828571428571 -2.142857142857143 -2.142857142857143 -2.142857142857143H6.857142857142857c-0.3410057142857143 0 -0.6680228571428571 -0.13546285714285713 -0.9091542857142857 -0.37655999999999995 -0.24109714285714282 -0.24113142857142858 -0.37655999999999995 -0.5681485714285713 -0.37655999999999995 -0.9091542857142857V6.857142857142857c0 -0.3410057142857143 0.13546285714285713 -0.6680228571428571 0.37655999999999995 -0.9091542857142857C6.18912 5.706891428571428 6.516137142857142 5.571428571428571 6.857142857142857 5.571428571428571h21.857142857142858c0.3410057142857143 0 0.6680228571428571 0.13546285714285713 0.9091542857142857 0.37655999999999995 0.24109714285714282 0.24113142857142858 0.37655999999999995 0.5681485714285713 0.37655999999999995 0.9091542857142857v1.2857142857142856c0 1.1834742857142857 0.9593828571428571 2.142857142857143 2.142857142857143 2.142857142857143S34.285714285714285 9.326331428571429 34.285714285714285 8.142857142857142V6.857142857142857c0 -1.477645714285714 -0.5870057142857142 -2.894742857142857 -1.6318285714285712 -3.939596571428571C31.60902857142857 1.8727028571428572 30.191931428571426 1.2857142857142856 28.71428571428571 1.2857142857142856H6.857142857142857ZM39.857142857142854 13.714285714285714c-1.183542857142857 0 -2.142857142857143 0.9593828571428571 -2.142857142857143 2.142857142857143s0.9593142857142857 2.142857142857143 2.142857142857143 2.142857142857143H41.14285714285714c0.34114285714285714 0 0.6678857142857143 0.13546285714285713 0.9092571428571428 0.37659428571428566 0.24102857142857143 0.24109714285714282 0.3764571428571428 0.5681142857142857 0.3764571428571428 0.9091199999999999V41.14285714285714c0 0.34114285714285714 -0.13542857142857143 0.6678857142857143 -0.3764571428571428 0.9092571428571428 -0.24137142857142857 0.24102857142857143 -0.5681142857142857 0.3764571428571428 -0.9092571428571428 0.3764571428571428H19.285714285714285c-0.3410057142857143 0 -0.6680228571428571 -0.13542857142857143 -0.9091199999999999 -0.3764571428571428C18.135462857142855 41.810742857142856 18 41.484 18 41.14285714285714v-1.2857142857142856c0 -1.183542857142857 -0.9593828571428571 -2.142857142857143 -2.142857142857143 -2.142857142857143S13.714285714285714 38.6736 13.714285714285714 39.857142857142854V41.14285714285714c0 1.4777142857142855 0.5870057142857142 2.894742857142857 1.6318285714285712 3.9394285714285715 1.044857142857143 1.0450285714285714 2.4619542857142855 1.632 3.9395999999999995 1.632H41.14285714285714c1.4777142857142855 0 2.894742857142857 -0.5869714285714285 3.9394285714285715 -1.632 1.0450285714285714 -1.0446857142857142 1.632 -2.4617142857142853 1.632 -3.9394285714285715V19.285714285714285c0 -1.477645714285714 -0.5869714285714285 -2.894742857142857 -1.632 -3.9395999999999995C44.0376 14.301291428571428 42.620571428571424 13.714285714285714 41.14285714285714 13.714285714285714h-1.2857142857142856Zm-13.285714285714285 2.142857142857143c0 -1.1834742857142857 0.9593828571428571 -2.142857142857143 2.142857142857143 -2.142857142857143h1.7142857142857142C32.55881142857143 13.714285714285714 34.285714285714285 15.44118857142857 34.285714285714285 17.57142857142857v1.7142857142857142c0 1.1834742857142857 -0.9593828571428571 2.142857142857143 -2.142857142857143 2.142857142857143s-2.142857142857143 -0.9593828571428571 -2.142857142857143 -2.142857142857143V18h-1.2857142857142856c-1.1834742857142857 0 -2.142857142857143 -0.9593828571428571 -2.142857142857143 -2.142857142857143ZM34.285714285714285 28.71428571428571c0 -1.1834742857142857 -0.9593828571428571 -2.142857142857143 -2.142857142857143 -2.142857142857143s-2.142857142857143 0.9593828571428571 -2.142857142857143 2.142857142857143v1.2857142857142856h-1.2857142857142856c-1.1834742857142857 0 -2.142857142857143 0.9593828571428571 -2.142857142857143 2.142857142857143s0.9593828571428571 2.142857142857143 2.142857142857143 2.142857142857143h1.7142857142857142C32.55881142857143 34.285714285714285 34.285714285714285 32.55881142857143 34.285714285714285 30.428571428571427v-1.7142857142857142ZM15.857142857142856 26.57142857142857c1.1834742857142857 0 2.142857142857143 0.9593828571428571 2.142857142857143 2.142857142857143v1.2857142857142856h1.2857142857142856c1.1834742857142857 0 2.142857142857143 0.9593828571428571 2.142857142857143 2.142857142857143S20.46918857142857 34.285714285714285 19.285714285714285 34.285714285714285h-1.7142857142857142C15.44118857142857 34.285714285714285 13.714285714285714 32.55881142857143 13.714285714285714 30.428571428571427v-1.7142857142857142c0 -1.1834742857142857 0.9593828571428571 -2.142857142857143 2.142857142857143 -2.142857142857143Zm3.4285714285714284 -8.571428571428571H18v1.2857142857142856c0 1.1834742857142857 -0.9593828571428571 2.142857142857143 -2.142857142857143 2.142857142857143S13.714285714285714 20.46918857142857 13.714285714285714 19.285714285714285v-1.7142857142857142C13.714285714285714 15.44118857142857 15.44118857142857 13.714285714285714 17.57142857142857 13.714285714285714h1.7142857142857142c1.1834742857142857 0 2.142857142857143 0.9593828571428571 2.142857142857143 2.142857142857143s-0.9593828571428571 2.142857142857143 -2.142857142857143 2.142857142857143Z" clip-rule="evenodd" stroke-width="3.4286"></path>
  </g>
</svg>