<svg xmlns="http://www.w3.org/2000/svg" fill="none" viewBox="0 0 48 48" id="Pathfinder-Square-Divide--Streamline-Core-Remix" height="48" width="48">
  <desc>
    Pathfinder Square Divide Streamline Icon: https://streamlinehq.com
  </desc>
  <g id="Free Remix/Interface Essential/pathfinder-square-divide">
    <path id="Union" fill="#000000" fill-rule="evenodd" d="M6.857142857142857 1.2857142857142856C3.806262857142857 1.2857142857142856 1.2857142857142856 3.806262857142857 1.2857142857142856 6.857142857142857v22.285714285714285c0 3.05088 2.5205485714285714 5.571428571428571 5.571428571428571 5.571428571428571h6.428571428571428V41.14285714285714c0 3.050742857142857 2.5205485714285714 5.571428571428571 5.571428571428571 5.571428571428571H41.14285714285714c3.077142857142857 0 5.571428571428571 -2.494285714285714 5.571428571428571 -5.571428571428571V18.857142857142858c0 -3.05088 -2.520685714285714 -5.571428571428571 -5.571428571428571 -5.571428571428571h-6.428571428571428V6.857142857142857c0 -3.05088 -2.5205485714285714 -5.571428571428571 -5.571428571428571 -5.571428571428571H6.857142857142857Zm23.57142857142857 12V6.857142857142857c0 -0.6839657142857143 -0.6017485714285714 -1.2857142857142856 -1.2857142857142856 -1.2857142857142856H6.857142857142857c-0.6839657142857143 0 -1.2857142857142856 0.6017485714285714 -1.2857142857142856 1.2857142857142856v22.285714285714285c0 0.6839657142857143 0.6017485714285714 1.2857142857142856 1.2857142857142856 1.2857142857142856h6.428571428571428V18.857142857142858c0 -3.05088 2.5205485714285714 -5.571428571428571 5.571428571428571 -5.571428571428571h11.571428571428571Zm-12.857142857142856 17.142857142857142V18.857142857142858c0 -0.6839657142857143 0.6017485714285714 -1.2857142857142856 1.2857142857142856 -1.2857142857142856h11.571428571428571V29.142857142857142c0 0.7100914285714285 -0.5756228571428571 1.2857142857142856 -1.2857142857142856 1.2857142857142856H17.57142857142857Zm0 4.285714285714286H29.142857142857142c3.0770057142857143 0 5.571428571428571 -2.494422857142857 5.571428571428571 -5.571428571428571V17.57142857142857H41.14285714285714c0.684 0 1.2857142857142856 0.6017485714285714 1.2857142857142856 1.2857142857142856V41.14285714285714c0 0.7100571428571428 -0.5756571428571428 1.2857142857142856 -1.2857142857142856 1.2857142857142856H18.857142857142858c-0.6839657142857143 0 -1.2857142857142856 -0.6017142857142856 -1.2857142857142856 -1.2857142857142856v-6.428571428571428Z" clip-rule="evenodd" stroke-width="3.4286"></path>
  </g>
</svg>