<svg xmlns="http://www.w3.org/2000/svg" fill="none" viewBox="0 0 48 48" id="Pathfinder-Square-Union--Streamline-Core-Remix" height="48" width="48">
  <desc>
    Pathfinder Square Union Streamline Icon: https://streamlinehq.com
  </desc>
  <g id="Free Remix/Interface Essential/pathfinder-square-union">
    <path id="Vector" stroke="#000000" stroke-linecap="round" stroke-linejoin="round" stroke-width="4.2857" d="M32.57142857142857 6.857142857142857v8.571428571428571H41.14285714285714c0.9092571428571428 0 1.7814857142857141 0.3612342857142857 2.424342857142857 1.0041942857142856 0.6428571428571428 0.6429942857142857 1.0042285714285712 1.5150514285714285 1.0042285714285712 2.424377142857143V41.14285714285714c0 0.9092571428571428 -0.3613714285714285 1.7814857142857141 -1.0042285714285712 2.424342857142857S42.05211428571428 44.57142857142857 41.14285714285714 44.57142857142857H18.857142857142858c-0.9093257142857143 0 -1.781382857142857 -0.3613714285714285 -2.424377142857143 -1.0042285714285712C15.789805714285714 42.924342857142854 15.428571428571427 42.05211428571428 15.428571428571427 41.14285714285714V32.57142857142857H6.857142857142857c-0.9093257142857143 0 -1.781382857142857 -0.3612342857142857 -2.424377142857143 -1.0041942857142856C3.7898057142857136 30.924239999999998 3.4285714285714284 30.052182857142853 3.4285714285714284 29.142857142857142V6.857142857142857c0 -0.9093257142857143 0.3612342857142857 -1.781382857142857 1.0041942857142856 -2.424377142857143C5.07576 3.7898057142857136 5.947817142857143 3.4285714285714284 6.857142857142857 3.4285714285714284h22.285714285714285c0.9093257142857143 0 1.781382857142857 0.3612342857142857 2.424377142857143 1.0041942857142856C32.21019428571429 5.07576 32.57142857142857 5.947817142857143 32.57142857142857 6.857142857142857Z"></path>
  </g>
</svg>