<svg xmlns="http://www.w3.org/2000/svg" fill="none" viewBox="0 0 48 48" id="Pathfinder-Square-Trim--Streamline-Core-Remix" height="48" width="48">
  <desc>
    Pathfinder Square Trim Streamline Icon: https://streamlinehq.com
  </desc>
  <g id="Free Remix/Interface Essential/pathfinder-square-trim">
    <path id="Union" fill="#000000" fill-rule="evenodd" d="M1.2857142857142856 6.857142857142857C1.2857142857142856 3.806262857142857 3.806262857142857 1.2857142857142856 6.857142857142857 1.2857142857142856h22.285714285714285c3.05088 0 5.571428571428571 2.5205485714285714 5.571428571428571 5.571428571428571v6.428571428571428H41.14285714285714c3.050742857142857 0 5.571428571428571 2.5205485714285714 5.571428571428571 5.571428571428571V41.14285714285714c0 3.077142857142857 -2.494285714285714 5.571428571428571 -5.571428571428571 5.571428571428571H18.857142857142858c-3.05088 0 -5.571428571428571 -2.520685714285714 -5.571428571428571 -5.571428571428571v-6.428571428571428H6.857142857142857c-3.05088 0 -5.571428571428571 -2.5205485714285714 -5.571428571428571 -5.571428571428571V6.857142857142857Zm29.142857142857142 6.428571428571428H18.857142857142858c-3.05088 0 -5.571428571428571 2.5205485714285714 -5.571428571428571 5.571428571428571v11.571428571428571H6.857142857142857c-0.6839657142857143 0 -1.2857142857142856 -0.6017485714285714 -1.2857142857142856 -1.2857142857142856V6.857142857142857c0 -0.6839657142857143 0.6017485714285714 -1.2857142857142856 1.2857142857142856 -1.2857142857142856h22.285714285714285c0.6839657142857143 0 1.2857142857142856 0.6017485714285714 1.2857142857142856 1.2857142857142856v6.428571428571428Z" clip-rule="evenodd" stroke-width="3.4286"></path>
  </g>
</svg>