<svg xmlns="http://www.w3.org/2000/svg" fill="none" viewBox="0 0 48 48" id="Pathfinder-Square-Merge--Streamline-Core-Remix" height="48" width="48">
  <desc>
    Pathfinder Square Merge Streamline Icon: https://streamlinehq.com
  </desc>
  <g id="Free Remix/Interface Essential/pathfinder-square-merge">
    <path id="Union" fill="#000000" fill-rule="evenodd" d="M6.857142857142857 1.2857142857142856c-1.477645714285714 0 -2.894742857142857 0.5869885714285714 -3.939596571428571 1.631832C1.8727028571428572 3.9623999999999997 1.2857142857142856 5.379497142857143 1.2857142857142856 6.857142857142857v22.285714285714285c0 1.477645714285714 0.5869885714285714 2.894742857142857 1.631832 3.9395999999999995C3.9623999999999997 34.12728 5.379497142857143 34.714285714285715 6.857142857142857 34.714285714285715h6.428571428571428V41.14285714285714c0 1.4777142857142855 0.5870057142857142 2.894742857142857 1.6318285714285712 3.9394285714285715 1.044857142857143 1.0450285714285714 2.4619542857142855 1.632 3.9395999999999995 1.632H41.14285714285714c1.4777142857142855 0 2.894742857142857 -0.5869714285714285 3.9394285714285715 -1.632 1.0450285714285714 -1.0446857142857142 1.632 -2.4617142857142853 1.632 -3.9394285714285715V18.857142857142858c0 -1.477645714285714 -0.5869714285714285 -2.894742857142857 -1.632 -3.9395999999999995 -1.0446857142857142 -1.044822857142857 -2.4617142857142853 -1.6318285714285712 -3.9394285714285715 -1.6318285714285712h-6.428571428571428V6.857142857142857c0 -1.477645714285714 -0.5870057142857142 -2.894742857142857 -1.6318285714285712 -3.939596571428571C32.0376 1.8727028571428572 30.620502857142856 1.2857142857142856 29.142857142857142 1.2857142857142856H6.857142857142857Zm-0.9091542857142857 4.662274285714286C6.18912 5.706891428571428 6.516137142857142 5.571428571428571 6.857142857142857 5.571428571428571h22.285714285714285c0.3410057142857143 0 0.6680228571428571 0.13546285714285713 0.9091542857142857 0.37655999999999995 0.24109714285714282 0.24113142857142858 0.37655999999999995 0.5681485714285713 0.37655999999999995 0.9091542857142857v8.571428571428571c0 1.1834742857142857 0.9593828571428571 2.142857142857143 2.142857142857143 2.142857142857143H41.14285714285714c0.34114285714285714 0 0.6678857142857143 0.13546285714285713 0.9092571428571428 0.37659428571428566 0.24102857142857143 0.24109714285714282 0.3764571428571428 0.5681142857142857 0.3764571428571428 0.9091199999999999V41.14285714285714c0 0.34114285714285714 -0.13542857142857143 0.6678857142857143 -0.3764571428571428 0.9092571428571428 -0.24137142857142857 0.24102857142857143 -0.5681142857142857 0.3764571428571428 -0.9092571428571428 0.3764571428571428H18.857142857142858c-0.3410057142857143 0 -0.6680228571428571 -0.13542857142857143 -0.9091199999999999 -0.3764571428571428 -0.24113142857142858 -0.24137142857142857 -0.37659428571428566 -0.5681142857142857 -0.37659428571428566 -0.9092571428571428V22.285714285714285c0 -1.1834742857142857 -0.9593828571428571 -2.142857142857143 -2.142857142857143 -2.142857142857143s-2.142857142857143 0.9593828571428571 -2.142857142857143 2.142857142857143v8.142857142857142H6.857142857142857c-0.3410057142857143 0 -0.6680228571428571 -0.13546285714285713 -0.9091542857142857 -0.37655999999999995C5.706891428571428 29.810879999999997 5.571428571428571 29.483862857142856 5.571428571428571 29.142857142857142V6.857142857142857c0 -0.3410057142857143 0.13546285714285713 -0.6680228571428571 0.37655999999999995 -0.9091542857142857Z" clip-rule="evenodd" stroke-width="3.4286"></path>
  </g>
</svg>