<svg xmlns="http://www.w3.org/2000/svg" fill="none" viewBox="0 0 48 48" id="Pathfinder-Square-Intersect--Streamline-Core-Remix" height="48" width="48">
  <desc>
    Pathfinder Square Intersect Streamline Icon: https://streamlinehq.com
  </desc>
  <g id="Free Remix/Interface Essential/pathfinder-square-intersect">
    <path id="Union" fill="#000000" fill-rule="evenodd" d="M6.857142857142857 5.571428571428571c-0.7100914285714285 0 -1.2857142857142856 0.5756228571428571 -1.2857142857142856 1.2857142857142856 0 1.1834742857142857 -0.9593828571428571 2.142857142857143 -2.142857142857143 2.142857142857143 -1.1834674285714284 0 -2.142857142857143 -0.9593828571428571 -2.142857142857143 -2.142857142857143C1.2857142857142856 3.780137142857143 3.780137142857143 1.2857142857142856 6.857142857142857 1.2857142857142856c1.1834742857142857 0 2.142857142857143 0.9593897142857143 2.142857142857143 2.142857142857143 0 1.1834742857142857 -0.9593828571428571 2.142857142857143 -2.142857142857143 2.142857142857143ZM39 15.428571428571427c0 -1.1834742857142857 0.9593142857142857 -2.142857142857143 2.142857142857143 -2.142857142857143 3.077142857142857 0 5.571428571428571 2.494422857142857 5.571428571428571 5.571428571428571 0 1.1834742857142857 -0.9593142857142857 2.142857142857143 -2.142857142857143 2.142857142857143s-2.142857142857143 -0.9593828571428571 -2.142857142857143 -2.142857142857143c0 -0.7100914285714285 -0.5756571428571428 -1.2857142857142856 -1.2857142857142856 -1.2857142857142856 -1.183542857142857 0 -2.142857142857143 -0.9593828571428571 -2.142857142857143 -2.142857142857143Zm7.7142857142857135 25.71428571428571c0 -1.183542857142857 -0.9593142857142857 -2.142857142857143 -2.142857142857143 -2.142857142857143s-2.142857142857143 0.9593142857142857 -2.142857142857143 2.142857142857143c0 0.7100571428571428 -0.5756571428571428 1.2857142857142856 -1.2857142857142856 1.2857142857142856 -1.183542857142857 0 -2.142857142857143 0.9593142857142857 -2.142857142857143 2.142857142857143s0.9593142857142857 2.142857142857143 2.142857142857143 2.142857142857143c3.077142857142857 0 5.571428571428571 -2.494285714285714 5.571428571428571 -5.571428571428571Zm-29.142857142857142 0c0 -1.183542857142857 -0.9593828571428571 -2.142857142857143 -2.142857142857143 -2.142857142857143s-2.142857142857143 0.9593142857142857 -2.142857142857143 2.142857142857143c0 3.077142857142857 2.494422857142857 5.571428571428571 5.571428571428571 5.571428571428571 1.1834742857142857 0 2.142857142857143 -0.9593142857142857 2.142857142857143 -2.142857142857143s-0.9593828571428571 -2.142857142857143 -2.142857142857143 -2.142857142857143c-0.7100914285714285 0 -1.2857142857142856 -0.5756571428571428 -1.2857142857142856 -1.2857142857142856ZM44.57142857142857 25.285714285714285c1.183542857142857 0 2.142857142857143 0.9593828571428571 2.142857142857143 2.142857142857143v5.142857142857142c0 1.1834742857142857 -0.9593142857142857 2.142857142857143 -2.142857142857143 2.142857142857143s-2.142857142857143 -0.9593828571428571 -2.142857142857143 -2.142857142857143V27.428571428571427c0 -1.1834742857142857 0.9593142857142857 -2.142857142857143 2.142857142857143 -2.142857142857143Zm-17.142857142857142 17.142857142857142c-1.1834742857142857 0 -2.142857142857143 0.9593142857142857 -2.142857142857143 2.142857142857143s0.9593828571428571 2.142857142857143 2.142857142857143 2.142857142857143h5.142857142857142c1.1834742857142857 0 2.142857142857143 -0.9593142857142857 2.142857142857143 -2.142857142857143s-0.9593828571428571 -2.142857142857143 -2.142857142857143 -2.142857142857143H27.428571428571427Zm1.7142857142857142 -41.14285714285714c-1.1834742857142857 0 -2.142857142857143 0.9593897142857143 -2.142857142857143 2.142857142857143 0 1.1834742857142857 0.9593828571428571 2.142857142857143 2.142857142857143 2.142857142857143 0.7100914285714285 0 1.2857142857142856 0.5756228571428571 1.2857142857142856 1.2857142857142856 0 1.1834742857142857 0.9593828571428571 2.142857142857143 2.142857142857143 2.142857142857143s2.142857142857143 -0.9593828571428571 2.142857142857143 -2.142857142857143c0 -3.0770057142857143 -2.494422857142857 -5.571428571428571 -5.571428571428571 -5.571428571428571ZM3.4285714285714284 27c1.1834742857142857 0 2.142857142857143 0.9593828571428571 2.142857142857143 2.142857142857143 0 0.7100914285714285 0.5756228571428571 1.2857142857142856 1.2857142857142856 1.2857142857142856 1.1834742857142857 0 2.142857142857143 0.9593828571428571 2.142857142857143 2.142857142857143s-0.9593828571428571 2.142857142857143 -2.142857142857143 2.142857142857143c-3.0770057142857143 0 -5.571428571428571 -2.494422857142857 -5.571428571428571 -5.571428571428571 0 -1.1834742857142857 0.9593897142857143 -2.142857142857143 2.142857142857143 -2.142857142857143ZM5.571428571428571 15.428571428571427c0 -1.1834742857142857 -0.9593828571428571 -2.142857142857143 -2.142857142857143 -2.142857142857143 -1.1834674285714284 0 -2.142857142857143 0.9593828571428571 -2.142857142857143 2.142857142857143V20.57142857142857c0 1.1834742857142857 0.9593897142857143 2.142857142857143 2.142857142857143 2.142857142857143 1.1834742857142857 0 2.142857142857143 -0.9593828571428571 2.142857142857143 -2.142857142857143V15.428571428571427ZM13.285714285714285 3.4285714285714284c0 -1.1834674285714284 0.9593828571428571 -2.142857142857143 2.142857142857143 -2.142857142857143H20.57142857142857c1.1834742857142857 0 2.142857142857143 0.9593897142857143 2.142857142857143 2.142857142857143 0 1.1834742857142857 -0.9593828571428571 2.142857142857143 -2.142857142857143 2.142857142857143H15.428571428571427c-1.1834742857142857 0 -2.142857142857143 -0.9593828571428571 -2.142857142857143 -2.142857142857143ZM18.857142857142858 13.285714285714285c-3.0770057142857143 0 -5.571428571428571 2.494422857142857 -5.571428571428571 5.571428571428571v10.285714285714285c0 3.0770057142857143 2.494422857142857 5.571428571428571 5.571428571428571 5.571428571428571h10.285714285714285c3.0770057142857143 0 5.571428571428571 -2.494422857142857 5.571428571428571 -5.571428571428571v-10.285714285714285c0 -3.0770057142857143 -2.494422857142857 -5.571428571428571 -5.571428571428571 -5.571428571428571h-10.285714285714285Z" clip-rule="evenodd" stroke-width="3.4286"></path>
  </g>
</svg>