<svg xmlns="http://www.w3.org/2000/svg" fill="none" viewBox="0 0 48 48" id="Payment-10--Streamline-Core-Remix" height="48" width="48">
  <desc>
    Payment 10 Streamline Icon: https://streamlinehq.com
  </desc>
  <g id="Free Remix/Money Shopping/payment-10--deposit-payment-finance-atm-transfer-dollar">
    <path id="Union" fill="#000000" fill-rule="evenodd" d="M5.571428571428571 25.71428571428571c0 0.7100914285714285 0.5756228571428571 1.2857142857142856 1.2857142857142856 1.2857142857142856h34.285714285714285c0.7100571428571428 0 1.2857142857142856 -0.5756228571428571 1.2857142857142856 -1.2857142857142856V6.857142857142857c0 -0.7100914285714285 -0.5756571428571428 -1.2857142857142856 -1.2857142857142856 -1.2857142857142856H6.857142857142857c-0.7100914285714285 0 -1.2857142857142856 0.5756228571428571 -1.2857142857142856 1.2857142857142856v18.857142857142858ZM6.857142857142857 31.285714285714285C3.780137142857143 31.285714285714285 1.2857142857142856 28.79129142857143 1.2857142857142856 25.71428571428571V6.857142857142857C1.2857142857142856 3.780137142857143 3.780137142857143 1.2857142857142856 6.857142857142857 1.2857142857142856h34.285714285714285c3.077142857142857 0 5.571428571428571 2.494422857142857 5.571428571428571 5.571428571428571v18.857142857142858c0 3.0770057142857143 -2.494285714285714 5.571428571428571 -5.571428571428571 5.571428571428571H6.857142857142857Zm15.822205714285715 -22.965462857142857c-2.5662857142857143 0 -4.646674285714286 2.0803885714285713 -4.646674285714286 4.64664 0 2.1836571428571427 1.520502857142857 4.0726628571428565 3.6536914285714284 4.539325714285714l3.5319085714285716 0.7725942857142857c0.47012571428571426 0.10285714285714284 0.8063999999999999 0.5201142857142856 0.8063999999999999 1.0027542857142857 0 0.56736 -0.46008 1.0266857142857142 -1.0255542857142856 1.0266857142857142h-1.9979999999999998c-0.4434514285714286 0 -0.8260114285714285 -0.2825485714285714 -0.9677142857142856 -0.6835542857142857 -0.3628457142857142 -1.0265485714285714 -1.4891657142857142 -1.5645942857142856 -2.5157142857142856 -1.201782857142857 -1.0265828571428572 0.3628457142857142 -1.5646285714285713 1.4891657142857142 -1.201782857142857 2.5157142857142856 0.68112 1.927062857142857 2.5188342857142856 3.31248 4.685211428571428 3.31248h1.9979999999999998c2.7449142857142856 0 4.968411428571428 -2.22648 4.968411428571428 -4.969542857142857 0 -2.3341371428571427 -1.6250742857142857 -4.355417142857142 -3.9066857142857145 -4.854514285714285l-3.5319085714285716 -0.7726285714285713c-0.3231085714285714 -0.07066285714285714 -0.5534057142857143 -0.35677714285714285 -0.5534057142857143 -0.6875314285714286 0 -0.38869714285714285 0.31512 -0.7037828571428572 0.7038171428571428 -0.7037828571428572h2.3197714285714284c0.30353142857142856 0 0.5742857142857143 0.1293942857142857 0.76488 0.3423428571428571 0.08948571428571428 0.09997714285714285 0.15853714285714285 0.21589714285714284 0.2028342857142857 0.34121142857142855 0.3628457142857142 1.0265485714285714 1.4891657142857142 1.5645942857142856 2.5157142857142856 1.2017485714285714 1.0265485714285714 -0.3628457142857142 1.5645942857142856 -1.4891657142857142 1.201782857142857 -2.5157142857142856 -0.21887999999999996 -0.6192 -0.5558742857142857 -1.1802857142857142 -0.9823542857142856 -1.6567885714285713 -0.9069599999999999 -1.0133142857142856 -2.231211428571428 -1.6556571428571427 -3.702857142857143 -1.6556571428571427h-2.3197714285714284ZM14.142857142857142 16.285714285714285c0 -1.6568571428571428 -1.343142857142857 -3 -3 -3s-3 1.343142857142857 -3 3 1.343142857142857 3 3 3 3 -1.343142857142857 3 -3Zm22.71428571428571 3c-1.6566857142857143 0 -3 -1.343142857142857 -3 -3s1.3433142857142857 -3 3 -3 3 1.343142857142857 3 3 -1.3433142857142857 3 -3 3ZM24 47.57142857142857c1.1834742857142857 0 2.142857142857143 -0.9593142857142857 2.142857142857143 -2.142857142857143v-6.857142857142857c0 -1.183542857142857 -0.9593828571428571 -2.142857142857143 -2.142857142857143 -2.142857142857143s-2.142857142857143 0.9593142857142857 -2.142857142857143 2.142857142857143v6.857142857142857c0 1.183542857142857 0.9593828571428571 2.142857142857143 2.142857142857143 2.142857142857143Zm10.714285714285714 -5.142857142857142c0 1.183542857142857 -0.9593828571428571 2.142857142857143 -2.142857142857143 2.142857142857143s-2.142857142857143 -0.9593142857142857 -2.142857142857143 -2.142857142857143v-6.857142857142857c0 -1.183542857142857 0.9593828571428571 -2.142857142857143 2.142857142857143 -2.142857142857143s2.142857142857143 0.9593142857142857 2.142857142857143 2.142857142857143v6.857142857142857ZM15.428571428571427 44.57142857142857c1.1834742857142857 0 2.142857142857143 -0.9593142857142857 2.142857142857143 -2.142857142857143v-6.857142857142857c0 -1.183542857142857 -0.9593828571428571 -2.142857142857143 -2.142857142857143 -2.142857142857143s-2.142857142857143 0.9593142857142857 -2.142857142857143 2.142857142857143v6.857142857142857c0 1.183542857142857 0.9593828571428571 2.142857142857143 2.142857142857143 2.142857142857143Z" clip-rule="evenodd" stroke-width="3.4286"></path>
  </g>
</svg>