<svg xmlns="http://www.w3.org/2000/svg" fill="none" viewBox="0 0 48 48" id="Payment-Cash-Out-3--Streamline-Core-Remix" height="48" width="48">
  <desc>
    Payment Cash Out 3 Streamline Icon: https://streamlinehq.com
  </desc>
  <g id="Free Remix/Money Shopping/payment-cash-out-3">
    <path id="Union" fill="#000000" fill-rule="evenodd" d="M6.857142857142857 27c-0.7100914285714285 0 -1.2857142857142856 -0.5756228571428571 -1.2857142857142856 -1.2857142857142856V6.857142857142857c0 -0.7100914285714285 0.5756228571428571 -1.2857142857142856 1.2857142857142856 -1.2857142857142856h34.285714285714285c0.7100571428571428 0 1.2857142857142856 0.5756228571428571 1.2857142857142856 1.2857142857142856v18.857142857142858c0 0.7100914285714285 -0.5756571428571428 1.2857142857142856 -1.2857142857142856 1.2857142857142856H6.857142857142857ZM1.2857142857142856 25.71428571428571c0 3.0770057142857143 2.494422857142857 5.571428571428571 5.571428571428571 5.571428571428571h34.285714285714285c3.077142857142857 0 5.571428571428571 -2.494422857142857 5.571428571428571 -5.571428571428571V6.857142857142857c0 -3.0770057142857143 -2.494285714285714 -5.571428571428571 -5.571428571428571 -5.571428571428571H6.857142857142857C3.780137142857143 1.2857142857142856 1.2857142857142856 3.780137142857143 1.2857142857142856 6.857142857142857v18.857142857142858ZM24 23.142857142857142c-3.7870971428571427 0 -6.857142857142857 -3.070045714285714 -6.857142857142857 -6.857142857142857s3.070045714285714 -6.857142857142857 6.857142857142857 -6.857142857142857 6.857142857142857 3.070045714285714 6.857142857142857 6.857142857142857 -3.070045714285714 6.857142857142857 -6.857142857142857 6.857142857142857Zm-15.857142857142856 -6.857142857142857c0 1.6568571428571428 1.343142857142857 3 3 3s3 -1.343142857142857 3 -3 -1.343142857142857 -3 -3 -3 -3 1.343142857142857 -3 3Zm25.71428571428571 0c0 1.6568571428571428 1.3433142857142857 3 3 3s3 -1.343142857142857 3 -3 -1.3433142857142857 -3 -3 -3 -3 1.343142857142857 -3 3Zm-7.7142857142857135 29.142857142857142c0 1.183542857142857 -0.9593828571428571 2.142857142857143 -2.142857142857143 2.142857142857143s-2.142857142857143 -0.9593142857142857 -2.142857142857143 -2.142857142857143v-6.857142857142857c0 -1.183542857142857 0.9593828571428571 -2.142857142857143 2.142857142857143 -2.142857142857143s2.142857142857143 0.9593142857142857 2.142857142857143 2.142857142857143v6.857142857142857ZM32.57142857142857 44.57142857142857c1.1834742857142857 0 2.142857142857143 -0.9593142857142857 2.142857142857143 -2.142857142857143v-6.857142857142857c0 -1.183542857142857 -0.9593828571428571 -2.142857142857143 -2.142857142857143 -2.142857142857143s-2.142857142857143 0.9593142857142857 -2.142857142857143 2.142857142857143v6.857142857142857c0 1.183542857142857 0.9593828571428571 2.142857142857143 2.142857142857143 2.142857142857143Zm-15 -2.142857142857143c0 1.183542857142857 -0.9593828571428571 2.142857142857143 -2.142857142857143 2.142857142857143s-2.142857142857143 -0.9593142857142857 -2.142857142857143 -2.142857142857143v-6.857142857142857c0 -1.183542857142857 0.9593828571428571 -2.142857142857143 2.142857142857143 -2.142857142857143s2.142857142857143 0.9593142857142857 2.142857142857143 2.142857142857143v6.857142857142857Z" clip-rule="evenodd" stroke-width="3.4286"></path>
  </g>
</svg>