<svg xmlns="http://www.w3.org/2000/svg" fill="none" viewBox="0 0 48 48" id="Paypal--Streamline-Core-Remix" height="48" width="48">
  <desc>
    Paypal Streamline Icon: https://streamlinehq.com
  </desc>
  <g id="Free Remix/Computer Devices/paypal--payment-paypal">
    <path id="Union" fill="#000000" fill-rule="evenodd" d="M9.475954285714286 1.8309085714285713c0.15356571428571428 -1.052886857142857 1.0564114285714286 -1.8336289954285714 2.1204342857142855 -1.8336289954285714h15.860399999999998c6.845725714285714 0 12.50424 5.084480424 13.404925714285714 11.683143281142856 2.8446857142857143 2.4803314285714286 4.642285714285714 6.131108571428571 4.642285714285714 10.201782857142856 0 7.472331428571428 -6.057257142857142 13.529794285714285 -13.529691428571427 13.529794285714285H26.787051428571427l-1.568502857142857 10.75542857142857c-0.15353142857142857 1.0529142857142857 -1.0564114285714286 1.8336000000000001 -2.1204342857142855 1.8336000000000001h-8.946857142857143c-0.6222857142857142 0 -1.2138514285714286 -0.2705142857142857 -1.6208914285714284 -0.7412571428571428 -0.40704 -0.47074285714285713 -0.5893371428571428 -1.0950857142857142 -0.4995428571428571 -1.7108571428571429l0.3244457142857143 -2.2248H5.902902857142857c-0.6222857142857142 0 -1.213817142857143 -0.2705142857142857 -1.6208571428571428 -0.7412571428571428 -0.40704 -0.47074285714285713 -0.5893714285714285 -1.0950857142857142 -0.4995428571428571 -1.7108571428571429L9.475954285714286 1.8309085714285713Zm17.980834285714284 2.4520971428571428c3.373405714285714 0 6.324754285714285 1.80696 7.939097142857143 4.5057599999999995 -1.0930285714285712 -0.28477714285714284 -2.2395771428571427 -0.4363542857142857 -3.4215771428571427 -0.4363542857142857H19.308308571428572c-1.0640228571428572 0 -1.9668685714285714 0.7807542857142857 -2.1204342857142855 1.8336342857142856L12.980262857142856 39.0384H8.380937142857142L13.449428571428571 4.283005714285713h14.007359999999998ZM16.97022857142857 41.49017142857143c-0.012925714285714285 0.08879999999999999 -0.0312 0.17588571428571428 -0.05444571428571428 0.2602285714285714l-0.2865257142857143 1.9649142857142858h4.615851428571428l1.5684685714285713 -10.75536c0.15356571428571428 -1.0529142857142857 1.0564114285714286 -1.8336342857142856 2.1204342857142855 -1.8336342857142856h7.040297142857143c5.105348571428571 0 9.243977142857142 -4.138731428571428 9.243977142857142 -9.244114285714286 0 -1.4521371428571428 -0.33462857142857144 -2.8261028571428572 -0.9315428571428571 -4.048834285714285 -1.7986285714285712 5.361051428571428 -6.863177142857142 9.223508571428571 -12.829954285714285 9.223508571428571H19.075097142857143l-2.1048685714285713 14.43329142857143Z" clip-rule="evenodd" stroke-width="3.4286"></path>
  </g>
</svg>