<svg xmlns="http://www.w3.org/2000/svg" fill="none" viewBox="0 0 48 48" id="Peace-Symbol--Streamline-Core-Remix" height="48" width="48">
  <desc>
    Peace Symbol Streamline Icon: https://streamlinehq.com
  </desc>
  <g id="Free Remix/Culture/peace-symbol--religion-peace-war-culture-symbol">
    <path id="Union" fill="#000000" fill-rule="evenodd" d="M21.428674285714283 5.311817142857143C12.227794285714285 6.565885714285714 5.1378514285714285 14.45496 5.1378514285714285 24c0 3.445645714285714 0.9238971428571428 6.675462857142857 2.5374514285714285 9.455314285714286l13.753371428571429 -13.753371428571429V5.311817142857143ZM10.865862857142856 37.53771428571428c2.8159542857142856 2.7325714285714287 6.481748571428571 4.594285714285714 10.562811428571429 5.150399999999999V26.97504L10.865862857142856 37.53771428571428Zm15.705668571428571 5.150399999999999c4.080891428571428 -0.5564571428571429 7.746411428571428 -2.4178285714285717 10.562297142857142 -5.150399999999999L26.571531428571426 26.975314285714283v15.712800000000001Zm13.752925714285713 -9.233005714285714c1.6134857142857142 -2.779782857142857 2.537142857142857 -6.009565714285714 2.537142857142857 -9.455108571428571 0 -9.544834285714286 -7.0896 -17.43377142857143 -16.29006857142857 -18.688114285714285v14.390331428571429l13.752925714285713 13.752891428571427ZM23.999794285714284 -0.004813062857142857C10.742297142857142 -0.004813062857142857 -0.005022308571428572 10.742502857142858 -0.005022308571428572 24c0 13.2576 10.74731945142857 24.0048 24.004816594285714 24.0048 13.257462857142857 0 24.004662857142854 -10.7472 24.004662857142854 -24.0048 0 -13.257497142857142 -10.7472 -24.004813062857142 -24.004662857142854 -24.004813062857142Z" clip-rule="evenodd" stroke-width="3.4286"></path>
  </g>
</svg>