<svg xmlns="http://www.w3.org/2000/svg" fill="none" viewBox="0 0 48 48" id="Peace-Hand--Streamline-Core-Remix" height="48" width="48">
  <desc>
    Peace Hand Streamline Icon: https://streamlinehq.com
  </desc>
  <g id="Free Remix/Interface Essential/peace-hand">
    <path id="Union" fill="#000000" fill-rule="evenodd" d="M43.095771428571425 31.697828571428573c0.3353142857142857 -2.045588571428571 0.04011428571428571 -3.90864 -0.8310857142857142 -5.541257142857143 -0.8540571428571427 -1.6001485714285715 -2.182971428571429 -2.8345371428571426 -3.690857142857143 -3.79944 -2.497371428571429 -1.5981257142857141 -5.766205714285714 -2.6311542857142856 -9.087394285714286 -3.372891428571428l0.8701028571428571 -12.458571428571428 0.00010285714285714286 -0.001577142857142857C30.598319999999998 3.026910857142857 27.826594285714283 0.05697428571428571 24.321051428571426 0.05691977142857143 21.25230857142857 0.05687177142857143 18.66980571428571 2.354249142857143 18.31213714285714 5.401645714285714l-0.00047999999999999996 0.003874285714285714 -0.35146285714285713 2.92488 -0.65616 -2.304617142857143C16.363234285714285 2.6296011428571426 12.85512 0.5549965714285714 9.425074285714285 1.3690765714285713 5.944559999999999 2.195132571428571 3.861154285714285 5.680285714285714 4.782788571428571 9.137074285714284l-0.00003428571428571428 0 0.0033257142857142856 0.012068571428571429 4.34856 15.93545142857143c-2.8754742857142856 0.9181028571428571 -5.2584 3.3272914285714283 -5.476525714285715 6.70608 -0.3277405714285714 5.076068571428571 0.756 12.821211428571429 8.870262857142857 16.056754285714288 1.0992685714285715 0.43851428571428575 2.3457942857142853 -0.09737142857142857 2.784137142857143 -1.1965714285714284 0.43837714285714285 -1.0992 -0.09744 -2.3458285714285716 -1.1967085714285715 -2.7840000000000003 -5.438811428571428 -2.1689142857142856 -6.472045714285714 -7.290857142857143 -6.180891428571428 -11.800045714285712 0.10700571428571429 -1.6572342857142857 1.6780457142857141 -3.106422857142857 3.8109942857142856 -3.106422857142857l10.942902857142856 0c0.7915885714285714 0 1.4333142857142855 0.6417257142857142 1.4333142857142855 1.4333142857142855 0 0.6628457142857143 -0.45452571428571426 1.2392571428571428 -1.0991314285714284 1.3938171428571429l-6.1944 1.4852228571428572c-1.1212799999999998 0.2688342857142857 -1.8287999999999998 1.376742857142857 -1.6010057142857141 2.5071428571428567 0.22776 1.1303999999999998 1.3091657142857143 1.8778285714285712 2.44704 1.6913142857142858 0.24774857142857143 -0.04045714285714285 1.284617142857143 0.09565714285714286 2.3616342857142856 0.8684571428571429 0.9722742857142856 0.6977142857142856 1.67352 1.704 1.7248114285714284 3.0456 0.04525714285714286 1.1828571428571426 1.0406057142857141 2.1048 2.223188571428571 2.059542857142857 1.1826171428571428 -0.04525714285714286 2.1046285714285715 -1.0405714285714285 2.059405714285714 -2.223085714285714 -0.08430857142857143 -2.204228571428571 -1.0012457142857143 -3.9476571428571425 -2.20272 -5.223085714285714l0.18130285714285715 -0.04354285714285714c2.571977142857143 -0.6168 4.385588571428571 -2.9165142857142854 4.385588571428571 -5.561382857142856 0 -3.1585371428571425 -2.5604914285714284 -5.719028571428571 -5.719028571428571 -5.719028571428571l-9.223611428571429 0 -4.541348571428571 -16.641702857142857 -0.0013714285714285714 -0.005245714285714285c-0.2963657142857143 -1.1225485714285712 0.36072 -2.220205714285714 1.4922514285714286 -2.4887657142857145 1.1879314285714286 -0.28193142857142856 2.4358285714285715 0.45671999999999996 2.760068571428571 1.6343999999999999l-0.00006857142857142857 0 0.0051085714285714285 0.017965714285714283 3.575965714285714 12.559268571428571c0.27949714285714283 0.9815657142857142 1.2124457142857141 1.62984 2.22984 1.549405714285714 1.0174285714285713 -0.08046857142857143 1.836925714285714 -0.8672571428571428 1.9586742857142856 -1.8805714285714283l1.6232914285714284 -13.509805714285713 0.00003428571428571428 0 0.0008228571428571429 -0.007165714285714285c0.10381714285714286 -0.8893028571428571 0.8572114285714286 -1.5598285714285713 1.7525142857142857 -1.5598285714285713 1.021782857142857 0.00003428571428571428 1.8297942857142857 0.8652342857142856 1.7602628571428571 1.884445714285714l-0.00003428571428571428 0.00027428571428571427 -0.00006857142857142857 0.001302857142857143 -1.0003542857142855 14.323371428571427c-0.07542857142857141 1.08024 0.6668914285714285 2.0469942857142858 1.7299542857142856 2.253017142857143 3.8538514285714283 0.7468457142857142 7.216697142857143 1.7308799999999998 9.452914285714284 3.161965714285714 1.092342857142857 0.6988457142857143 1.809942857142857 1.4388685714285714 2.2199999999999998 2.20728 0.39257142857142857 0.7359428571428571 0.5787428571428571 1.6355657142857143 0.38262857142857143 2.8302171428571428 -0.07097142857142856 0.4348114285714285 -0.13817142857142858 0.8821371428571428 -0.20674285714285712 1.3396799999999998 -0.5585142857142856 3.732274285714286 -1.2192 8.143817142857143 -5.1495428571428565 11.98038857142857 -0.8468914285714285 0.8269714285714285 -0.8632114285714285 2.1836571428571427 -0.036514285714285714 3.0305142857142857 0.8266285714285714 0.8468571428571428 2.1833142857142858 0.8629714285714285 3.0301714285714283 0.03634285714285714 5.0256 -4.9056 5.870399999999999 -10.750285714285713 6.406628571428572 -14.4624l0 -0.00010285714285714286c0.06411428571428572 -0.4423542857142857 0.12377142857142856 -0.8544685714285714 0.18548571428571428 -1.231097142857143Z" clip-rule="evenodd" stroke-width="3.4286"></path>
  </g>
</svg>