<svg xmlns="http://www.w3.org/2000/svg" fill="none" viewBox="0 0 48 48" id="Pen-Tool--Streamline-Core-Remix" height="48" width="48">
  <desc>
    Pen Tool Streamline Icon: https://streamlinehq.com
  </desc>
  <g id="Free Remix/Interface Essential/pen-tool">
    <path id="Union" fill="#000000" fill-rule="evenodd" d="M29.31277714285714 0.008105211428571428C29.236388571428567 0.0005495519999999999 29.159794285714284 -0.0018304697142857143 29.083542857142852 0.0008586925714285714 28.834491428571425 0.009133782857142857 28.597474285714284 0.07116068571428572 28.38462857142857 0.17629954285714286c-0.21418285714285712 0.10530034285714285 -0.40868571428571426 0.2565233142857143 -0.5674285714285714 0.4504501714285714 -0.04285714285714286 0.05215542857142857 -0.08276571428571429 0.10693371428571428 -0.11934857142857143 0.1640845714285714L21.612617142857143 9.918685714285713l-12.36270857142857 1.373622857142857c-2.5176 0.27973714285714285 -4.529622857142857 2.2225714285714284 -4.8972 4.728857142857143L0.3566502857142857 43.26685714285714c-0.3748907314285714 2.556342857142857 1.8199439999999998 4.750971428571428 4.376046857142857 4.376228571428571l27.245794285714286 -3.9959999999999996c2.5064228571428573 -0.3675428571428571 4.449051428571428 -2.3797714285714284 4.728822857142857 -4.897371428571428l1.3738285714285714 -12.362674285714286 9.155314285714285 -6.103542857142857c0.5454857142857142 -0.36380571428571423 0.8153142857142857 -0.9863657142857143 0.7549714285714285 -1.59648l-0.0048 -0.05856c-0.005828571428571428 -0.06253714285714285 -0.014399999999999998 -0.14886857142857143 -0.027085714285714286 -0.2570057142857143 -0.025371428571428573 -0.21624 -0.06685714285714285 -0.5204228571428572 -0.13337142857142856 -0.8970857142857143 -0.13268571428571427 -0.7522971428571428 -0.3658285714285714 -1.7996914285714285 -0.7714285714285714 -3.0164914285714284 -0.8094857142857143 -2.428457142857143 -2.3207999999999998 -5.5764 -5.128457142857143 -8.384365714285714C39.11828571428571 3.265549714285714 35.970171428571426 1.7545714285714287 33.541782857142856 0.9450857142857143c-1.2167999999999999 -0.40560342857142856 -2.264194285714286 -0.6389437714285714 -3.0164914285714284 -0.7717059428571428 -0.37666285714285713 -0.06646697142857143 -0.6808114285714285 -0.10798422857142856 -0.8970514285714285 -0.13330971428571428C29.52006857142857 0.027401862857142856 29.43373714285714 0.01876748571428571 29.371199999999995 0.013081817142857142L29.31277714285714 0.008105211428571428ZM15.960822857142857 24.324548571428572l3.8571428571428568 3.8571428571428568 3.8571428571428568 3.8571428571428568c1.0041942857142856 1.0042285714285712 1.0041942857142856 2.6322514285714282 0 3.6364799999999997 -1.0041942857142856 1.0042285714285712 -2.6323542857142854 1.0042285714285712 -3.636548571428571 0l-2.0388685714285715 -2.0387999999999997 -9.057531428571428 9.057428571428572 22.414422857142856 -3.2873142857142854c0.5783657142857143 -0.08468571428571428 1.0267199999999999 -0.5492571428571429 1.0912457142857142 -1.1300571428571429l1.308377142857143 -11.775325714285714 -12.25776 -12.257794285714285 -11.775257142857143 1.308377142857143c-0.5810057142857142 0.06455999999999999 -1.045302857142857 0.51288 -1.1301257142857144 1.0912457142857142l-3.2874514285714285 22.414525714285713 9.057531428571428 -9.057634285714284 -2.0388685714285715 -2.0388685714285715c-1.0041942857142856 -1.0041942857142856 -1.0041942857142856 -2.63232 0 -3.636548571428571 1.0041942857142856 -1.0041942857142856 2.6323542857142854 -1.0041942857142856 3.636548571428571 0Z" clip-rule="evenodd" stroke-width="3.4286"></path>
  </g>
</svg>