<svg xmlns="http://www.w3.org/2000/svg" fill="none" viewBox="0 0 48 48" id="Pen-3--Streamline-Core-Remix" height="48" width="48">
  <desc>
    Pen 3 Streamline Icon: https://streamlinehq.com
  </desc>
  <g id="Free Remix/Interface Essential/pen-3--content-creation-edit-pen-pens-write">
    <path id="Union" fill="#000000" fill-rule="evenodd" d="M5.571428571428571 35.24845714285714V17.57142857142857h9.428571428571429v17.677028571428572L10.285714285714285 41.14114285714285l-4.714285714285714 -5.892685714285713ZM10.285714285714285 1.2857142857142856C5.315142857142857 1.2857142857142856 1.2857142857142856 5.315142857142857 1.2857142857142856 10.285714285714285v25.71428571428571c0 0.4865142857142857 0.1656 0.9586285714285714 0.4695668571428571 1.3385142857142858l6.857153142857142 8.571428571428571c0.4066285714285714 0.5084571428571428 1.0223314285714284 0.8043428571428571 1.6732799999999999 0.8043428571428571 0.6509485714285714 0 1.2666514285714285 -0.29588571428571425 1.6732799999999999 -0.8043428571428571l6.857142857142857 -8.571428571428571c0.30397714285714283 -0.37988571428571427 0.4695771428571428 -0.852 0.4695771428571428 -1.3385142857142858V10.285714285714285C19.285714285714285 5.315142857142857 15.256285714285713 1.2857142857142856 10.285714285714285 1.2857142857142856Zm29.57142857142857 12V9.428571428571429c0 -4.497188571428571 -3.6455999999999995 -8.142857142857142 -8.142857142857142 -8.142857142857142 -4.497188571428571 0 -8.142857142857142 3.6456685714285713 -8.142857142857142 8.142857142857142V34.285714285714285c0 3.077142857142857 2.494422857142857 5.571428571428571 5.571428571428571 5.571428571428571h0.42857142857142855V44.57142857142857c0 1.183542857142857 0.9593828571428571 2.142857142857143 2.142857142857143 2.142857142857143s2.142857142857143 -0.9593142857142857 2.142857142857143 -2.142857142857143v-4.714285714285714H34.285714285714285c3.077142857142857 0 5.571428571428571 -2.494285714285714 5.571428571428571 -5.571428571428571V17.57142857142857H41.14285714285714c0.7100571428571428 0 1.2857142857142856 0.5756228571428571 1.2857142857142856 1.2857142857142856v13.714285714285714c0 1.1834742857142857 0.9593142857142857 2.142857142857143 2.142857142857143 2.142857142857143s2.142857142857143 -0.9593828571428571 2.142857142857143 -2.142857142857143v-13.714285714285714c0 -3.0770057142857143 -2.494285714285714 -5.571428571428571 -5.571428571428571 -5.571428571428571h-1.2857142857142856Zm-12 4.285714285714286h7.7142857142857135V34.285714285714285c0 0.7100571428571428 -0.5756571428571428 1.2857142857142856 -1.2857142857142856 1.2857142857142856H29.142857142857142c-0.7100914285714285 0 -1.2857142857142856 -0.5756571428571428 -1.2857142857142856 -1.2857142857142856V17.57142857142857Z" clip-rule="evenodd" stroke-width="3.4286"></path>
  </g>
</svg>