<svg xmlns="http://www.w3.org/2000/svg" fill="none" viewBox="0 0 48 48" id="Pet-Paw--Streamline-Core-Remix" height="48" width="48">
  <desc>
    Pet Paw Streamline Icon: https://streamlinehq.com
  </desc>
  <g id="Free Remix/Map Travel/pet-paw--paw-foot-animals-pets-footprint-track-hotel">
    <path id="Union" fill="#000000" fill-rule="evenodd" d="M12.434982857142856 5.698251428571429C13.25976 4.461085714285714 14.587439999999999 3.4285714285714284 16.285714285714285 3.4285714285714284c1.6982742857142856 0 3.0259542857142856 1.0325142857142855 3.8507314285714282 2.2696799999999997C20.969211428571427 6.947382857142857 21.428571428571427 8.574308571428572 21.428571428571427 10.285714285714285c0 1.7114057142857142 -0.45935999999999994 3.3383314285714283 -1.292125714285714 4.587462857142857C19.311668571428573 16.110342857142857 17.983988571428572 17.142857142857142 16.285714285714285 17.142857142857142c-1.6982742857142856 0 -3.0259542857142856 -1.0325142857142855 -3.8507314285714282 -2.2696799999999997C11.602217142857143 13.624045714285714 11.142857142857142 11.997119999999999 11.142857142857142 10.285714285714285c0 -1.7114057142857142 0.45935999999999994 -3.3383314285714283 1.292125714285714 -4.587462857142857ZM5.142857142857142 16.285714285714285c-1.6982742857142856 0 -3.0259645714285712 1.0325142857142855 -3.850738285714286 2.2696799999999997C0.45935657142857134 19.804525714285713 0 21.431451428571428 0 23.142857142857142c0 1.7114057142857142 0.45935657142857134 3.3383314285714283 1.292118857142857 4.587462857142857C2.116892571428571 28.967485714285715 3.4445828571428567 30 5.142857142857142 30c1.6982742857142856 0 3.0259542857142856 -1.0325142857142855 3.8507314285714282 -2.2696799999999997C9.826354285714284 26.481188571428568 10.285714285714285 24.854262857142857 10.285714285714285 23.142857142857142c0 -1.7114057142857142 -0.45935999999999994 -3.3383314285714283 -1.292125714285714 -4.587462857142857C8.168811428571427 17.31822857142857 6.841131428571428 16.285714285714285 5.142857142857142 16.285714285714285ZM31.71428571428571 3.4285714285714284c-1.6982742857142856 0 -3.0259542857142856 1.0325142857142855 -3.8507314285714282 2.2696799999999997C27.03078857142857 6.947382857142857 26.57142857142857 8.574308571428572 26.57142857142857 10.285714285714285c0 1.7114057142857142 0.45935999999999994 3.3383314285714283 1.292125714285714 4.587462857142857C28.68833142857143 16.110342857142857 30.01601142857143 17.142857142857142 31.71428571428571 17.142857142857142c1.6982742857142856 0 3.026057142857143 -1.0325142857142855 3.850628571428571 -2.2696799999999997 0.8328 -1.2491314285714286 1.2922285714285715 -2.8760571428571424 1.2922285714285715 -4.587462857142857 0 -1.7114057142857142 -0.4594285714285714 -3.3383314285714283 -1.2922285714285715 -4.587462857142857C34.740342857142856 4.461085714285714 33.41255999999999 3.4285714285714284 31.71428571428571 3.4285714285714284Zm7.292228571428571 15.126822857142857c0.8245714285714285 -1.2371657142857142 2.1524571428571426 -2.2696799999999997 3.850628571428571 -2.2696799999999997 1.6981714285714284 0 3.026057142857143 1.0325142857142855 3.850628571428571 2.2696799999999997C47.540571428571425 19.804525714285713 48 21.431451428571428 48 23.142857142857142c0 1.7114057142857142 -0.4594285714285714 3.3383314285714283 -1.2922285714285715 4.587462857142857 -0.8245714285714285 1.2371657142857142 -2.1524571428571426 2.2696799999999997 -3.850628571428571 2.2696799999999997 -1.6981714285714284 0 -3.026057142857143 -1.0325142857142855 -3.850628571428571 -2.2696799999999997C38.17371428571428 26.481188571428568 37.714285714285715 24.854262857142857 37.714285714285715 23.142857142857142c0 -1.7114057142857142 0.4594285714285714 -3.3383314285714283 1.2922285714285715 -4.587462857142857ZM14.142857142857142 36.23382857142857c0 -2.103805714285714 0.8412342857142856 -4.922228571428572 2.5622399999999996 -7.183234285714286C18.38489142857143 26.84376 20.79805714285714 25.285714285714285 24 25.285714285714285c3.201942857142857 0 5.615108571428571 1.5580457142857143 7.294902857142856 3.76488 1.721005714285714 2.2610057142857145 2.5622399999999996 5.079428571428571 2.5622399999999996 7.183234285714286 0 1.5030857142857141 -0.8886514285714284 2.7737142857142856 -2.7910285714285714 3.782742857142857 -1.9237371428571426 1.0199999999999998 -4.557085714285714 1.5548571428571427 -7.066114285714286 1.5548571428571427s-5.142377142857143 -0.5348571428571428 -7.066114285714286 -1.5548571428571427c-1.9023771428571428 -1.0090285714285714 -2.7910285714285714 -2.279657142857143 -2.7910285714285714 -3.782742857142857ZM24 21c-4.79808 0 -8.38488 2.4066514285714287 -10.705097142857143 5.454857142857143 -2.2790057142857143 2.994068571428571 -3.43776 6.721097142857142 -3.43776 9.778971428571428 0 3.658285714285714 2.3513485714285713 6.127885714285714 5.0689714285714285 7.568914285714285 2.696262857142857 1.4297142857142855 6.062914285714285 2.0544 9.073885714285714 2.0544 3.010971428571428 0 6.377622857142857 -0.6246857142857143 9.073885714285714 -2.0544 2.7176571428571425 -1.4410285714285713 5.0689714285714285 -3.9106285714285716 5.0689714285714285 -7.568914285714285 0 -3.0578742857142855 -1.1588571428571428 -6.784902857142857 -3.437828571428571 -9.778971428571428C32.384879999999995 23.406651428571426 28.79808 21 24 21Z" clip-rule="evenodd" stroke-width="3.4286"></path>
  </g>
</svg>