<svg xmlns="http://www.w3.org/2000/svg" fill="none" viewBox="0 0 48 48" id="Petri-Dish-Lab-Equipment--Streamline-Core-Remix" height="48" width="48">
  <desc>
    Petri Dish Lab Equipment Streamline Icon: https://streamlinehq.com
  </desc>
  <g id="Free Remix/Health/petri-dish-lab-equipment">
    <path id="Union" fill="#000000" fill-rule="evenodd" d="M4.285714285714286 24c0 -10.887908571428571 8.826377142857142 -19.71428571428571 19.71428571428571 -19.71428571428571 10.887771428571428 0 19.71428571428571 8.826377142857142 19.71428571428571 19.71428571428571 0 10.887771428571428 -8.826514285714284 19.71428571428571 -19.71428571428571 19.71428571428571 -10.887908571428571 0 -19.71428571428571 -8.826514285714284 -19.71428571428571 -19.71428571428571ZM24 0C10.745177142857143 0 0 10.745177142857143 0 24c0 13.254857142857142 10.745177142857143 24 24 24 13.254857142857142 0 24 -10.745142857142856 24 -24 0 -13.254822857142857 -10.745142857142856 -24 -24 -24ZM11.038182857142855 27.88436571428571c-0.6372685714285714 0.01930285714285714 -1.19496 0.20417142857142856 -1.4357142857142857 0.3207085714285714 -1.0652571428571427 0.515622857142857 -2.3467885714285712 0.07004571428571428 -2.8624114285714284 -0.9951771428571429 -0.5155885714285714 -1.0652571428571427 -0.07004571428571428 -2.3467885714285712 0.9952114285714284 -2.8624114285714284 0.7409485714285714 -0.3586285714285714 1.8877371428571428 -0.7079657142857143 3.1732114285714283 -0.74688 1.3084799999999999 -0.039599999999999996 2.9088342857142857 0.2423314285714286 4.3317942857142855 1.3384114285714286 1.42296 1.09608 2.1040457142857143 2.571462857142857 2.3996914285714284 3.84672 0.2904685714285714 1.2528342857142858 0.24541714285714286 2.4508114285714284 0.08777142857142857 3.2587542857142857 -0.051257142857142855 0.26255999999999996 -0.08766857142857142 0.8489485714285714 0.05633142857142857 1.4700342857142856 0.13878857142857143 0.598662857142857 0.40813714285714287 1.0866171428571427 0.84 1.4195314285714284 0.4318628571428571 0.3325714285714286 0.9725485714285714 0.4683428571428571 1.5868114285714285 0.44982857142857147 0.6372685714285714 -0.0192 1.19496 -0.20434285714285713 1.4357142857142857 -0.3209142857142857 1.0652571428571427 -0.5153142857142856 2.3467885714285712 -0.06994285714285714 2.8624114285714284 0.9953142857142857 0.5155885714285714 1.0652571428571427 0.07004571428571428 2.3468571428571425 -0.9952114285714284 2.8625142857142856 -0.7409485714285714 0.3586285714285714 -1.8877371428571428 0.708 -3.1732114285714283 0.746742857142857 -1.3084799999999999 0.03977142857142857 -2.9088342857142857 -0.24239999999999998 -4.3317942857142855 -1.3385142857142858 -1.42296 -1.0957714285714284 -2.1040457142857143 -2.571428571428571 -2.3996914285714284 -3.846514285714285 -0.2904685714285714 -1.2528685714285714 -0.24541714285714286 -2.450845714285714 -0.08777142857142857 -3.258788571428571 0.051257142857142855 -0.26255999999999996 0.08766857142857142 -0.8489485714285714 -0.05633142857142857 -1.4700342857142856 -0.13878857142857143 -0.598662857142857 -0.40813714285714287 -1.0867542857142856 -0.84 -1.4194285714285713s-0.9725485714285714 -0.46851428571428566 -1.5868114285714285 -0.44989714285714283Zm19.247519999999998 -18.7404c-2.434525714285714 0 -4.593154285714285 1.1710971428571428 -5.946925714285714 2.976685714285714 -0.38708571428571426 -0.07841142857142858 -0.7871314285714286 -0.11952 -1.1959199999999999 -0.11952 -3.3137142857142856 0 -6 2.686285714285714 -6 6 0 3.3136799999999997 2.686285714285714 6 6 6 1.2468342857142856 0 2.4054171428571425 -0.38129142857142856 3.3644914285714282 -1.0317257142857144 1.1070514285714286 0.6549942857142856 2.3996914285714284 1.0317257142857144 3.7783542857142853 1.0317257142857144C34.388571428571424 24.001131428571426 37.714285714285715 20.675245714285715 37.714285714285715 16.57254857142857c0 -4.102697142857143 -3.3257142857142856 -7.428582857142857 -7.428582857142857 -7.428582857142857ZM8.571428571428571 18.000102857142856c0 -1.4202171428571428 1.1513142857142855 -2.5715314285714284 2.5715314285714284 -2.5715314285714284 1.4207999999999998 0 2.5713257142857144 1.1518971428571427 2.5713257142857144 2.5715314285714284 0 1.4196685714285713 -1.1505257142857142 2.5715314285714284 -2.5713257142857144 2.5715314285714284 -1.4202171428571428 0 -2.5715314285714284 -1.1513142857142855 -2.5715314285714284 -2.5715314285714284Zm17.142857142857142 12C25.71428571428571 28.579885714285716 26.865599999999997 27.428571428571427 28.285817142857145 27.428571428571427 29.70661714285714 27.428571428571427 30.857142857142854 28.58046857142857 30.857142857142854 30.000102857142856c0 1.4196685714285713 -1.1505257142857142 2.5715314285714284 -2.5713257142857144 2.5715314285714284 -1.4202171428571428 0 -2.5715314285714284 -1.1513142857142855 -2.5715314285714284 -2.5715314285714284Zm6.857142857142857 3.4285714285714284C32.57142857142857 32.00845714285715 33.722742857142855 30.857142857142854 35.14285714285714 30.857142857142854c1.4207999999999998 0 2.571428571428571 1.1518971428571427 2.571428571428571 2.5715314285714284 0 1.4196685714285713 -1.1506285714285713 2.5716685714285714 -2.571428571428571 2.5716685714285714 -1.4201142857142857 0 -2.571428571428571 -1.1513142857142855 -2.571428571428571 -2.5716685714285714Z" clip-rule="evenodd" stroke-width="3.4286"></path>
  </g>
</svg>