<svg xmlns="http://www.w3.org/2000/svg" fill="none" viewBox="0 0 48 48" id="Pets-Allowed--Streamline-Core-Remix" height="48" width="48">
  <desc>
    Pets Allowed Streamline Icon: https://streamlinehq.com
  </desc>
  <g id="Free Remix/Map Travel/pets-allowed--travel-wayfinder-pets-allowed">
    <path id="Union" fill="#000000" fill-rule="evenodd" d="M33.12222857142857 3c-3.2297142857142855 0 -6.211817142857142 1.7305714285714286 -7.814194285714285 4.534765714285714L21.042171428571425 15H11.285725714285713c-1.0200342857142857 0 -2.0125714285714285 -0.33082285714285714 -2.8285714285714283 -0.9428571428571428L3.4285714285714284 10.285714285714285c-0.6493234285714286 -0.4869942857142857 -1.5180617142857142 -0.5653371428571429 -2.244030857142857 -0.2023542857142857C0.4585748571428572 10.446342857142858 0 11.188354285714285 0 12v26.57142857142857c0 3.5502857142857143 2.8781691428571428 6.428571428571428 6.428571428571428 6.428571428571428 3.5503885714285714 0 6.428571428571428 -2.878285714285714 6.428571428571428 -6.428571428571428v-3.8571428571428568h9v3.8571428571428568c0 3.5502857142857143 2.878182857142857 6.428571428571428 6.428571428571428 6.428571428571428s6.428571428571428 -2.878285714285714 6.428571428571428 -6.428571428571428V27.857142857142854h4.285714285714286C43.9704 27.857142857142854 48 23.827714285714283 48 18.857142857142858V17.142857142857142c0 -0.9121028571428571 -0.5773714285714285 -1.7242628571428569 -1.4389714285714286 -2.02392l-8.418171428571428 -2.9281028571428567V5.142857142857142c0 -1.1834742857142857 -0.9593142857142857 -2.142857142857143 -2.142857142857143 -2.142857142857143h-2.8777714285714286ZM29.029062857142858 9.661062857142857c0.8393485714285713 -1.4688685714285714 2.401405714285714 -2.3753485714285714 4.093165714285714 -2.3753485714285714H33.857142857142854V13.714285714285714c0 0.9121028571428571 0.5773714285714285 1.7242628571428569 1.4389714285714286 2.02392l8.418171428571428 2.9281028571428567V18.857142857142858c0 2.6036228571428572 -2.1106285714285713 4.714285714285714 -4.714285714285714 4.714285714285714H30.857142857142854c-3.37152 0 -6.136868571428571 -2.595462857142857 -6.406937142857142 -5.897348571428571l4.578857142857142 -8.013017142857143ZM20.35717714285714 19.285714285714285H11.285725714285713c-1.94736 0 -3.84216 -0.6316114285714285 -5.3999999999999995 -1.8L4.285714285714286 16.285714285714285v22.285714285714285c0 1.183542857142857 0.9593828571428571 2.142857142857143 2.142857142857143 2.142857142857143s2.142857142857143 -0.9593142857142857 2.142857142857143 -2.142857142857143V32.57142857142857c0 -1.1834742857142857 0.9593828571428571 -2.142857142857143 2.142857142857143 -2.142857142857143H24c1.1834742857142857 0 2.142857142857143 0.9593828571428571 2.142857142857143 2.142857142857143v6c0 1.183542857142857 0.9593828571428571 2.142857142857143 2.142857142857143 2.142857142857143s2.142857142857143 -0.9593142857142857 2.142857142857143 -2.142857142857143V27.848742857142856C25.436777142857142 27.652354285714285 21.322422857142854 24.040799999999997 20.35717714285714 19.285714285714285Z" clip-rule="evenodd" stroke-width="3.4286"></path>
  </g>
</svg>