<svg xmlns="http://www.w3.org/2000/svg" fill="none" viewBox="0 0 48 48" id="Pharmacy--Streamline-Core-Remix" height="48" width="48">
  <desc>
    Pharmacy Streamline Icon: https://streamlinehq.com
  </desc>
  <g id="Free Remix/Health/pharmacy--health-medical-pharmacy-sign-medicine-mortar-pestle">
    <path id="Union" fill="#000000" fill-rule="evenodd" d="M41.584799999999994 0.960318857142857c-2.9187428571428566 -1.8194537142857141 -6.748799999999999 -0.9777649371428572 -8.639691428571428 1.8795154285714286L21.96126857142857 16.283622857142856H8.379051428571428c-3.199268571428571 0 -5.688966857142857 2.7751542857142857 -5.347717714285714 5.952068571428571L3.7466742857142856 30.264342857142854l0.005005714285714285 0.04940571428571428c0.47400000000000003 4.212651428571428 2.654022857142857 7.8568799999999985 5.799874285714285 10.275394285714285 -0.2443542857142857 0.6956571428571429 -0.42627428571428566 1.4221714285714284 -0.5387657142857143 2.1730285714285715C8.59974857142857 45.520114285714286 10.735817142857142 48 13.524411428571428 48h20.09448c2.788765714285714 0 4.924765714285714 -2.4798857142857145 4.511622857142857 -5.2378285714285715 -0.11245714285714287 -0.7508571428571428 -0.29451428571428573 -1.4773714285714286 -0.5386285714285713 -2.172685714285714 3.1457142857142855 -2.4188571428571426 5.325942857142857 -6.063085714285714 5.799771428571428 -10.275737142857142l0.005142857142857143 -0.04940571428571428 0.7152 -8.028617142857144c0.27977142857142856 -2.602937142857143 -1.3412571428571427 -4.936217142857142 -3.6956571428571428 -5.694342857142857l3.1995428571428572 -6.854228571428571c1.8431999999999997 -2.9628342857142855 0.9438857142857142 -6.872441142857143 -2.031085714285714 -8.726835428571428ZM18.00445714285714 29.682754285714285c-1.1834742857142857 0 -2.142857142857143 0.9593828571428571 -2.142857142857143 2.142857142857143s0.9593828571428571 2.142857142857143 2.142857142857143 2.142857142857143h3.85296v3.853131428571429c0 1.1832 0.9593828571428571 2.142857142857143 2.142857142857143 2.142857142857143 1.1834399999999998 0 2.142857142857143 -0.9596571428571428 2.142857142857143 -2.142857142857143V33.968468571428566h3.85296c1.1834399999999998 0 2.142857142857143 -0.9593828571428571 2.142857142857143 -2.142857142857143s-0.9594171428571429 -2.142857142857143 -2.142857142857143 -2.142857142857143H26.143131428571426V25.829794285714286c0 -1.1834399999999998 -0.9594171428571429 -2.142857142857143 -2.142857142857143 -2.142857142857143 -1.1834742857142857 0 -2.142857142857143 0.9594171428571429 -2.142857142857143 2.142857142857143v3.85296H18.00445714285714ZM7.293222857142857 21.784182857142856c-0.07289142857142857 -0.6477599999999999 0.4339542857142856 -1.214845714285714 1.0858285714285714 -1.214845714285714h30.385405714285714c0.6517714285714286 0 1.1585142857142856 0.5670857142857142 1.0858285714285714 1.214845714285714l-0.005142857142857143 0.04944 -0.7148571428571427 8.02446857142857c-0.4008 3.4938514285714284 -2.4394285714285715 6.44088 -5.303828571428571 8.10785142857143 -1.00824 0.5866285714285714 -1.361897142857143 1.872342857142857 -0.7957028571428572 2.892 0.4262057142857143 0.768 0.7240114285714285 1.6223999999999998 0.8613257142857143 2.5392 0.024994285714285712 0.16697142857142858 -0.10433142857142856 0.3171428571428571 -0.2731885714285714 0.3171428571428571H13.524411428571428c-0.16885714285714284 0 -0.29818285714285714 -0.15017142857142857 -0.2731885714285714 -0.3171428571428571 0.13731428571428572 -0.9168000000000001 0.43511999999999995 -1.7711999999999997 0.86136 -2.5392 0.56616 -1.0196571428571428 0.21250285714285713 -2.3053714285714286 -0.7957028571428572 -2.892 -2.8642285714285713 -1.6669714285714285 -4.902925714285714 -4.614 -5.303691428571429 -8.107782857142857l-0.7149942857142857 -8.024537142857142 -0.004971428571428571 -0.04944Z" clip-rule="evenodd" stroke-width="3.4286"></path>
  </g>
</svg>