<svg xmlns="http://www.w3.org/2000/svg" fill="none" viewBox="0 0 48 48" id="Phone-Mobile-Phone--Streamline-Core-Remix" height="48" width="48">
  <desc>
    Phone Mobile Phone Streamline Icon: https://streamlinehq.com
  </desc>
  <g id="Free Remix/Phone/phone-mobile-phone--android-phone-mobile-device-smartphone-iphone">
    <path id="Union" fill="#000000" fill-rule="evenodd" d="M11.010617142857143 5.505497142857142c0 -0.67368 0.5461028571428571 -1.219782857142857 1.219782857142857 -1.219782857142857h23.538514285714285c0.6737142857142857 0 1.219542857142857 0.5461028571428571 1.219542857142857 1.219782857142857V42.4944c0 0.6737142857142857 -0.5458285714285714 1.2198857142857142 -1.219542857142857 1.2198857142857142H12.2304c-0.67368 0 -1.219782857142857 -0.5461714285714285 -1.219782857142857 -1.2198857142857142V5.505497142857142ZM12.2304 0c-3.0406285714285715 0 -5.505497142857142 2.4648925714285714 -5.505497142857142 5.505497142857142V42.4944c0 3.0408 2.464868571428571 5.505599999999999 5.505497142857142 5.505599999999999h23.538514285714285c3.040457142857143 0 5.505257142857142 -2.4648 5.505257142857142 -5.505599999999999V5.505497142857142C41.27417142857143 2.4648925714285714 38.809371428571424 0 35.76891428571429 0H12.2304Zm10.087954285714286 33.59348571428571c-1.6568571428571428 0 -3 1.3429714285714285 -3 3 0 1.6566857142857143 1.343142857142857 3 3 3h3.36264c1.6568571428571428 0 3 -1.3433142857142857 3 -3 0 -1.6570285714285713 -1.343142857142857 -3 -3 -3h-3.36264Z" clip-rule="evenodd" stroke-width="3.4286"></path>
  </g>
</svg>