<svg xmlns="http://www.w3.org/2000/svg" fill="none" viewBox="0 0 48 48" id="Phone-Ringing-2--Streamline-Core-Remix" height="48" width="48">
  <desc>
    Phone Ringing 2 Streamline Icon: https://streamlinehq.com
  </desc>
  <g id="Free Remix/Phone/phone-ringing-2--android-phone-mobile-device-smartphone-iphone-ringing">
    <path id="Union" fill="#000000" fill-rule="evenodd" d="M5.505462857142857 5.571428571428571c-0.28704 0 -0.7911771428571428 0.30185142857142855 -0.7911771428571428 1.0219885714285715V41.40651428571429c0 0.7203428571428572 0.5041371428571428 1.0220571428571428 0.7911771428571428 1.0220571428571428h20.53824c0.28704 0 0.7911771428571428 -0.30171428571428566 0.7911771428571428 -1.0220571428571428v-4.417371428571428c0 -1.183542857142857 0.9593828571428571 -2.142857142857143 2.142857142857143 -2.142857142857143s2.142857142857143 0.9593142857142857 2.142857142857143 2.142857142857143v4.417371428571428c0 2.7757714285714283 -2.1231085714285713 5.307771428571429 -5.076891428571429 5.307771428571429H5.505462857142857C2.551662857142857 46.71428571428571 0.42857142857142855 44.18228571428571 0.42857142857142855 41.40651428571429V6.593417142857142C0.42857142857142855 3.817748571428571 2.551662857142857 1.2857142857142856 5.505462857142857 1.2857142857142856h20.53824c2.9537828571428566 0 5.076891428571429 2.5320342857142855 5.076891428571429 5.307702857142856v4.549748571428571c0 1.1834742857142857 -0.9593828571428571 2.142857142857143 -2.142857142857143 2.142857142857143s-2.142857142857143 -0.9593828571428571 -2.142857142857143 -2.142857142857143V6.593417142857142c0 -0.7201371428571428 -0.5041371428571428 -1.0219885714285715 -0.7911771428571428 -1.0219885714285715H5.505462857142857Zm5.802308571428571 29.307771428571428c0 -1.6568571428571428 1.343142857142857 -3 3 -3h2.9340342857142856c1.6568228571428572 0 3 1.343142857142857 3 3 0 1.6566857142857143 -1.3431771428571428 3 -3 3H14.307771428571428c-1.6568571428571428 0 -3 -1.3433142857142857 -3 -3Zm27.331199999999995 -20.182457142857142c4.481485714285713 5.104628571428571 4.481485714285713 13.50246857142857 0 18.607062857142857 -0.9370285714285713 1.06728 -0.8310857142857142 2.6920800000000003 0.23588571428571428 3.6287657142857137 1.0673142857142857 0.9370285714285713 2.6921142857142857 0.8314285714285714 3.629142857142857 -0.23588571428571428 6.185142857142857 -7.045577142857142 6.185142857142857 -18.34721142857143 0 -25.392857142857142 -0.9370285714285713 -1.0672457142857141 -2.5618285714285713 -1.1729142857142858 -3.629142857142857 -0.23595428571428573 -1.0669714285714285 0.9369257142857143 -1.1729142857142858 2.561622857142857 -0.23588571428571428 3.628868571428571ZM32.21022857142857 28.98696c1.6066285714285713 -2.8239771428571427 1.5984342857142857 -7.116617142857143 -0.00912 -9.990205714285713 -0.6933257142857143 -1.2393942857142857 -0.25066285714285713 -2.8061828571428573 0.9887314285714286 -3.4995428571428566 1.2395314285714285 -0.69336 2.8060457142857143 -0.25069714285714284 3.499645714285714 0.9887314285714286 2.467542857142857 4.4110628571428565 2.506971428571428 10.621165714285715 -0.009257142857142858 15.044125714285714 -0.7021714285714286 1.2343885714285714 -2.2721142857142853 1.6657371428571428 -3.506537142857143 0.9634971428571428 -1.2343885714285714 -0.7022742857142857 -1.6657371428571428 -2.2722514285714284 -0.9634628571428571 -3.5066057142857137ZM25.01965714285714 22.90830857142857c0.33425142857142853 0.5974971428571428 0.3275314285714286 1.6085485714285714 0.00912 2.1681942857142857 -0.7022742857142857 1.2343542857142857 -0.27089142857142856 2.8043314285714285 0.9634628571428571 3.5065714285714287 1.2343885714285714 0.7022742857142857 2.8043314285714285 0.27092571428571427 3.5066057142857137 -0.9634628571428571 1.2281142857142857 -2.1586285714285713 1.203462857142857 -5.087142857142856 0.00912 -7.2221142857142855 -0.69336 -1.2394285714285713 -2.260148571428571 -1.6820914285714283 -3.4995771428571425 -0.9887314285714286 -1.2393942857142857 0.6933257142857143 -1.6820571428571427 2.260148571428571 -0.9887314285714286 3.4995428571428566Z" clip-rule="evenodd" stroke-width="3.4286"></path>
  </g>
</svg>