<svg xmlns="http://www.w3.org/2000/svg" fill="none" viewBox="0 0 48 48" id="Phone-Ringing-1--Streamline-Core-Remix" height="48" width="48">
  <desc>
    Phone Ringing 1 Streamline Icon: https://streamlinehq.com
  </desc>
  <g id="Free Remix/Phone/phone-ringing-1--android-phone-mobile-device-smartphone-iphone-ringing-incoming-call">
    <path id="Union" fill="#000000" fill-rule="evenodd" d="M27.073611428571425 2.6994994285714284c0 -1.4201622857142857 -1.1512799999999999 -2.5714302857142854 -2.571428571428571 -2.5714302857142854 -3.2079771428571426 0 -6.384582857142857 0.63186 -9.348377142857142 1.859508 -2.9637942857142856 1.2276445714285715 -5.656765714285714 3.027017142857143 -7.925177142857143 5.295428571428571C4.960251428571428 9.551382857142857 3.160865142857143 12.24438857142857 1.9332171428571427 15.208182857142855 0.7055691428571428 18.17197714285714 0.07370982857142856 21.34854857142857 0.07370982857142856 24.556559999999998c0 1.4201485714285715 1.1512673142857142 2.571428571428571 2.5714295999999996 2.571428571428571 1.4201519999999999 0 2.571432 -1.1512799999999999 2.571432 -2.571428571428571 0 -2.532651428571428 0.4988228571428571 -5.04048 1.4680114285714285 -7.380308571428571 0.969222857142857 -2.3398285714285714 2.389782857142857 -4.465851428571429 4.180594285714286 -6.256697142857142 1.7908457142857142 -1.7908457142857142 3.916868571428571 -3.211405714285714 6.256731428571428 -4.180594285714286 2.3398285714285714 -0.9691885714285713 4.847657142857142 -1.4680457142857142 7.380274285714285 -1.4680457142857142 1.4201485714285715 0 2.571428571428571 -1.1512457142857142 2.571428571428571 -2.571414857142857ZM43.32754285714285 8.219451428571427c-2.0108571428571427 -1.9893942857142854 -5.307428571428571 -1.9893942857142854 -7.3182857142857145 0l-0.03668571428571428 0.03733714285714285 -5.16768 5.368902857142857c-1.3518171428571428 1.3686171428571428 -1.7772 3.3354514285714285 -1.2762171428571427 5.080594285714286l8.693725714285714 -6.607131428571428 0.8139428571428571 -0.8455542857142857c0.16525714285714285 -0.15637714285714285 0.38948571428571427 -0.23650285714285713 0.6150857142857142 -0.2403428571428571l3.6761142857142857 -2.7938057142857144Zm-3.6761142857142857 2.7938057142857144 3.6761142857142857 -2.7938057142857144 0 -0.00003428571428571428 0.008228571428571427 0.008125714285714286 1.2665142857142857 1.2666857142857142c3.7512 3.648137142857143 4.466399999999999 9.556594285714285 1.6916571428571427 13.994434285714286 -0.013028571428571428 0.02057142857142857 -0.026057142857142855 0.04093714285714285 -0.03977142857142857 0.06109714285714285 -6.017485714285714 8.934034285714285 -13.704822857142856 16.621097142857142 -22.63889142857143 22.638925714285712l0.00027428571428571427 0.00034285714285714285 -0.03726857142857142 0.024c-4.396114285714286 2.8306285714285715 -10.307691428571427 2.199085714285714 -14.00664 -1.4962285714285715l-0.0007542857142857143 -0.0006857142857142857 -1.2777942857142857 -1.2778285714285713 -0.008125714285714286 -0.008228571428571427c-1.98936 -2.0108571428571427 -1.98936 -5.307428571428571 0 -7.3182857142857145l-0.00003428571428571428 0 0.012925714285714285 -0.012685714285714286 5.3787771428571425 -5.34528 1.0804114285714286 -0.8211085714285714 -0.0016799999999999999 0.0009599999999999999 -1.0773257142857142 0.8187428571428571c0.3281828571428571 -0.3265028571428571 0.6910971428571429 -0.5994171428571429 1.0773257142857142 -0.8187428571428571L29.52867428571428 18.706285714285716l0.00003428571428571428 0.00013714285714285713 8.693691428571428 -6.607062857142857 0 -0.00020571428571428572 1.4290285714285713 -1.085897142857143Zm0 0 -1.4290285714285713 1.086102857142857 -4.340605714285714 4.509634285714285 0.00023999999999999998 0.00020571428571428572 -0.025577142857142854 0.025679999999999998c-0.32705142857142855 0.32845714285714284 -0.32705142857142855 0.9182742857142857 0 1.2467314285714286l0.0048 0.004834285714285714c1.9892571428571428 2.0108914285714286 1.9892571428571428 5.3073942857142855 0 7.3182857142857145l0.00003428571428571428 0.00003428571428571428 -0.00816 0.008125714285714286 -8.574685714285714 8.574685714285714 0.00003428571428571428 0.00003428571428571428 -0.008194285714285715 0.00809142857142857c-2.0108914285714286 1.9893257142857141 -5.3073942857142855 1.9893257142857141 -7.3182857142857145 0l-0.004834285714285714 -0.0048c-0.3284914285714286 -0.32705142857142855 -0.9182742857142857 -0.32705142857142855 -1.2467314285714286 0l-0.0014399999999999999 0.0014399999999999999 -5.371714285714286 5.338285714285714c-0.3319885714285714 0.3408 -0.3314742857142857 0.9425142857142856 0.0015428571428571427 1.2826285714285712l0.0028457142857142856 0.002742857142857143 1.2689828571428572 1.2689142857142857 0.0007199999999999999 0.0006857142857142857c2.2675199999999998 2.2645714285714282 5.940411428571428 2.6612571428571425 8.639177142857143 0.9353142857142857 8.45712 -5.7 15.73590857142857 -12.977348571428571 21.43762285714286 -21.433302857142856 1.685142857142857 -2.7264 1.231542857142857 -6.395862857142856 -1.0714285714285714 -8.62848l0 0.00020571428571428572 -0.023657142857142856 -0.02352 -1.272342857142857 -1.27248c-0.1745142857142857 -0.1708114285714286 -0.41759999999999997 -0.2541942857142857 -0.6593142857142856 -0.25008ZM29.528708571428567 18.706422857142854c0.23184 0.8075657142857142 0.6620571428571428 1.5676457142857143 1.2906514285714286 2.198982857142857l1.5185485714285714 -1.5118971428571426 -1.5233485714285713 1.507062857142857c0.33641142857142853 0.34008 0.33737142857142854 0.9456685714285714 0.002777142857142857 1.2871885714285713L22.253314285714286 30.751782857142857c-0.3407314285714285 0.33377142857142855 -0.9442628571428571 0.3336685714285714 -1.2847542857142857 -0.00037714285714285714 -1.6716685714285713 -1.6621371428571428 -4.244057142857142 -1.9350514285714282 -6.211508571428571 -0.8187085714285713l14.77165714285714 -11.226274285714284ZM24.502182857142856 8.534605714285712c1.4201485714285715 0 2.571428571428571 1.1512457142857142 2.571428571428571 2.571428571428571 0 1.4201485714285715 -1.1512799999999999 2.571428571428571 -2.571428571428571 2.571428571428571 -2.8853142857142857 0 -5.652445714285714 1.1461714285714284 -7.692651428571428 3.1864114285714287 -2.04024 2.0402057142857144 -3.1864114285714287 4.8073371428571425 -3.1864114285714287 7.692651428571428 0 1.4201485714285715 -1.1512799999999999 2.571428571428571 -2.571428571428571 2.571428571428571s-2.571428571428571 -1.1512799999999999 -2.571428571428571 -2.571428571428571c0 -4.249268571428572 1.688022857142857 -8.324537142857142 4.6927200000000004 -11.329234285714286 3.0046971428571427 -3.004662857142857 7.079931428571427 -4.692685714285714 11.329199999999998 -4.692685714285714Z" clip-rule="evenodd" stroke-width="3.4286"></path>
  </g>
</svg>