<svg xmlns="http://www.w3.org/2000/svg" fill="none" viewBox="0 0 48 48" id="Phone-Qr--Streamline-Core-Remix" height="48" width="48">
  <desc>
    Phone Qr Streamline Icon: https://streamlinehq.com
  </desc>
  <g id="Free Remix/Phone/phone-qr--android-phone-mobile-device-smartphone-iphone-qr-code-scan">
    <path id="Union" fill="#000000" fill-rule="evenodd" d="M12.2304 4.285714285714286c-0.67368 0 -1.219782857142857 0.5461028571428571 -1.219782857142857 1.219782857142857V42.4944c0 0.6737142857142857 0.5461028571428571 1.2198857142857142 1.219782857142857 1.2198857142857142h23.538514285714285c0.6737142857142857 0 1.219542857142857 -0.5461714285714285 1.219542857142857 -1.2198857142857142V5.505497142857142c0 -0.67368 -0.5458285714285714 -1.219782857142857 -1.219542857142857 -1.219782857142857H12.2304Zm-5.505497142857142 1.219782857142857C6.724902857142856 2.4648925714285714 9.189771428571428 0 12.2304 0h23.538514285714285c3.040457142857143 0 5.505257142857142 2.4648925714285714 5.505257142857142 5.505497142857142V42.4944c0 3.0408 -2.4648 5.505599999999999 -5.505257142857142 5.505599999999999H12.2304c-3.0406285714285715 0 -5.505497142857142 -2.4648 -5.505497142857142 -5.505599999999999V5.505497142857142ZM13.449771428571427 10.549371428571428c0 -1.1834399999999998 0.9593828571428571 -2.142857142857143 2.142857142857143 -2.142857142857143h3.36264c1.1834742857142857 0 2.142857142857143 0.9594171428571429 2.142857142857143 2.142857142857143 0 1.1834742857142857 -0.9593828571428571 2.142857142857143 -2.142857142857143 2.142857142857143h-1.219782857142857v2.9011199999999997c0 1.1834742857142857 -0.9593828571428571 2.142857142857143 -2.142857142857143 2.142857142857143s-2.142857142857143 -0.9593828571428571 -2.142857142857143 -2.142857142857143V10.549371428571428Zm18.956125714285715 12.989417142857143c1.1834399999999998 0 2.142788571428571 0.9593828571428571 2.142788571428571 2.142857142857143v3.36264c0 1.1834742857142857 -0.9593485714285714 2.142857142857143 -2.142788571428571 2.142857142857143h-3.36264c-1.1834742857142857 0 -2.142857142857143 -0.9593828571428571 -2.142857142857143 -2.142857142857143s0.9593828571428571 -2.142857142857143 2.142857142857143 -2.142857142857143h1.219782857142857v-1.219782857142857c0 -1.1834742857142857 0.9593828571428571 -2.142857142857143 2.142857142857143 -2.142857142857143ZM15.592628571428572 21.857142857142858c-1.1834742857142857 0 -2.142857142857143 0.9593828571428571 -2.142857142857143 2.142857142857143s0.9593828571428571 2.142857142857143 2.142857142857143 2.142857142857143h2.9011199999999997v2.901085714285714c0 1.1834742857142857 0.9593828571428571 2.142857142857143 2.142857142857143 2.142857142857143 1.1834399999999998 0 2.142857142857143 -0.9593828571428571 2.142857142857143 -2.142857142857143V24c0 -1.1834742857142857 -0.9594171428571429 -2.142857142857143 -2.142857142857143 -2.142857142857143H15.592628571428572Zm9.62694857142857 -11.307771428571428c0 -1.1834399999999998 0.9593828571428571 -2.142857142857143 2.142857142857143 -2.142857142857143h5.043977142857143c1.1834399999999998 0 2.14296 0.9594171428571429 2.14296 2.142857142857143v8.406617142857142c0 1.1834742857142857 -0.9595199999999999 2.142857142857143 -2.14296 2.142857142857143 -1.1834742857142857 0 -2.142857142857143 -0.9593828571428571 -2.142857142857143 -2.142857142857143V12.692228571428572h-2.9011199999999997c-1.1834742857142857 0 -2.142857142857143 -0.9593828571428571 -2.142857142857143 -2.142857142857143Zm-1.9429028571428568 4.80912c-1.0585371428571428 -0.5292685714285714 -2.3456914285714285 -0.10021714285714285 -2.8749599999999997 0.9583199999999998 -0.5292342857142857 1.0585028571428572 -0.10018285714285713 2.3456571428571427 0.9583199999999998 2.8749257142857143l3.36264 1.6813371428571426c1.0585371428571428 0.5292342857142857 2.3456914285714285 0.10018285714285713 2.8749599999999997 -0.9583199999999998 0.5292685714285714 -1.0585371428571428 0.10021714285714285 -2.3456914285714285 -0.9583199999999998 -2.8749599999999997l-3.36264 -1.681302857142857ZM22.318354285714285 33.59348571428571c-1.6568571428571428 0 -3 1.3429714285714285 -3 3 0 1.6566857142857143 1.343142857142857 3 3 3h3.36264c1.6568571428571428 0 3 -1.3433142857142857 3 -3 0 -1.6570285714285713 -1.343142857142857 -3 -3 -3h-3.36264Z" clip-rule="evenodd" stroke-width="3.4286"></path>
  </g>
</svg>