<svg xmlns="http://www.w3.org/2000/svg" fill="none" viewBox="0 0 48 48" id="Phone--Streamline-Core-Remix" height="48" width="48">
  <desc>
    Phone Streamline Icon: https://streamlinehq.com
  </desc>
  <g id="Free Remix/Phone/phone--android-phone-mobile-device-smartphone-iphone">
    <path id="Vector (Stroke)" fill="#000000" fill-rule="evenodd" d="M42.69394285714286 1.6460297142857143C41.61668571428571 0.5911851428571429 40.16914285714285 0 38.66125714285714 0c-1.5078857142857143 0 -2.955428571428571 0.5911851428571429 -4.032685714285714 1.6460297142857143l-0.017142857142857144 0.016937142857142855L28.222525714285712 8.061737142857142c-1.0533599999999999 1.0734857142857142 -1.6429714285714285 2.517737142857143 -1.6429714285714285 4.021474285714286 0 1.5037028571428572 0.5896457142857142 2.94792 1.6430057142857142 4.021405714285714l0.024034285714285713 0.02448c0.13368 0.13193142857142856 0.24020571428571427 0.28913142857142854 0.3128228571428571 0.46296000000000004 0.07265142857142858 0.17382857142857142 0.11009142857142856 0.36047999999999997 0.11009142857142856 0.5491199999999999s-0.037439999999999994 0.37529142857142855 -0.11009142857142856 0.5491199999999999c-0.07261714285714285 0.17382857142857142 -0.17893714285714285 0.3312342857142857 -0.3126171428571428 0.4631314285714286l-0.011177142857142856 0.01104 -10.056411428571428 10.071977142857143c-0.2762742857142857 0.26705142857142855 -0.64464 0.4158857142857143 -1.0275085714285714 0.4158857142857143 -0.3859885714285714 0 -0.757302857142857 -0.15130285714285716 -1.0342971428571428 -0.4225028571428571l-1.4992114285714284 1.531097142857143 1.5031885714285713 -1.5271885714285713c-1.0719771428571427 -1.0551428571428572 -2.515508571428571 -1.6469142857142856 -4.019897142857142 -1.6469142857142856 -1.5043542857142855 0 -2.94792 0.5917714285714285 -4.019897142857142 1.6469142857142856l-0.005211428571428572 0.005142857142857143L1.6419257142857142 34.61588571428571c-1.0530719999999998 1.0786285714285713 -1.6419289841142857 2.5268571428571427 -1.6419289841142857 4.0344 0 1.5071999999999999 0.5890661269714285 2.955428571428571 1.6421381269714286 4.034057142857143l0.033733714285714284 0.034628571428571425 1.4973394285714285 1.4657142857142855c2.0711005714285715 2.0955428571428567 4.798769142857142 3.415542857142857 7.726769142857142 3.7381714285714285 2.9346514285714287 0.32331428571428567 5.890697142857142 -0.3754285714285714 8.370994285714284 -1.977942857142857l0.0372 -0.024c10.481314285714285 -7.083428571428571 19.51422857142857 -16.107668571428572 26.61342857142857 -26.586377142857142l0.027428571428571427 -0.041519999999999994c1.5997714285714286 -2.483177142857143 2.2964571428571428 -5.441794285714286 1.9738285714285713 -8.378502857142857 -0.32159999999999994 -2.9300571428571427 -1.6388571428571428 -5.660845714285714 -3.7309714285714284 -7.735069714285714l-1.497942857142857 -1.533414857142857Zm-3.0119999999999996 3.0490902857142856 1.4828571428571427 1.5187542857142855c1.4002285714285714 1.3839085714285713 2.282742857142857 3.2088342857142855 2.4980571428571428 5.168537142857143 0.21428571428571427 1.9518857142857142 -0.24617142857142857 3.9178628571428566 -1.3038857142857143 5.56992C35.57245714285714 26.96365714285714 26.940754285714284 35.58582857142857 16.927474285714283 42.35657142857142c-1.6490057142857142 1.0597714285714284 -3.610902857142857 1.5209142857142857 -5.558194285714285 1.3062857142857143 -1.954285714285714 -0.21531428571428568 -3.775508571428571 -1.0978285714285714 -5.1572571428571425 -2.5004571428571425l-0.02691428571428571 -0.027428571428571427 -1.489302857142857 -1.4578285714285715c-0.26273142857142856 -0.27599999999999997 -0.41009142857142855 -0.6438857142857143 -0.41009142857142855 -1.0268571428571427 0 -0.3850285714285714 0.14862857142857142 -0.7542857142857142 0.4135542857142857 -1.0306285714285712l6.388697142857143 -6.331542857142857c0.0005828571428571429 -0.0006171428571428571 -0.0006171428571428571 0.0005828571428571429 0 0 0.27075428571428567 -0.26561142857142855 0.6358285714285714 -0.4155771428571428 1.01352 -0.4155771428571428 0.3785485714285714 0 0.7425942857142857 0.14886857142857143 1.0135542857142856 0.4155771428571428l0.003977142857142857 0.003908571428571428c1.0772914285714286 1.0548342857142856 2.5247314285714286 1.646022857142857 4.032685714285714 1.646022857142857 1.5079542857142856 0 2.9553942857142856 -0.5911885714285714 4.032685714285714 -1.646022857142857l0.017314285714285713 -0.016937142857142855 10.06182857142857 -10.077531428571428c0.5350628571428572 -0.5297142857142857 0.9599314285714285 -1.16016 1.2502285714285712 -1.854857142857143 0.2914285714285714 -0.6973714285714285 0.44146285714285716 -1.445725714285714 0.44146285714285716 -2.20152 0 -0.7557942857142856 -0.1500342857142857 -1.5041142857142855 -0.44146285714285716 -2.20152 -0.28848 -0.6903771428571429 -0.7098514285714286 -1.3172571428571427 -1.2402171428571427 -1.8449142857142857 -0.2614285714285714 -0.2706857142857143 -0.4082742857142857 -0.6333257142857143 -0.4082742857142857 -1.0115314285714285 0 -0.37968 0.14797714285714283 -0.7436228571428571 0.4112571428571428 -1.0146171428571429l6.357188571428571 -6.36696c0.27634285714285717 -0.26708571428571426 0.6445714285714286 -0.41591999999999996 1.027542857142857 -0.41591999999999996 0.37988571428571427 0 0.7453714285714286 0.1464342857142857 1.0206857142857142 0.40940571428571426Z" clip-rule="evenodd" stroke-width="3.4286"></path>
  </g>
</svg>