<svg xmlns="http://www.w3.org/2000/svg" fill="none" viewBox="0 0 48 48" id="Pi-Symbol-Circle--Streamline-Core-Remix" height="48" width="48">
  <desc>
    Pi Symbol Circle Streamline Icon: https://streamlinehq.com
  </desc>
  <g id="Free Remix/Interface Essential/pi-symbol-circle--interface-math-pi-sign-mathematics-22-7">
    <path id="Union" fill="#000000" fill-rule="evenodd" d="M4.285714285714286 24c0 -10.887908571428571 8.826377142857142 -19.71428571428571 19.71428571428571 -19.71428571428571 10.887771428571428 0 19.71428571428571 8.826377142857142 19.71428571428571 19.71428571428571 0 10.887771428571428 -8.826514285714284 19.71428571428571 -19.71428571428571 19.71428571428571 -10.887908571428571 0 -19.71428571428571 -8.826514285714284 -19.71428571428571 -19.71428571428571ZM24 0C10.745177142857143 0 0 10.745177142857143 0 24c0 13.254857142857142 10.745177142857143 24 24 24 13.254857142857142 0 24 -10.745142857142856 24 -24 0 -13.254822857142857 -10.745142857142856 -24 -24 -24Zm10.156971428571428 15.836022857142854c1.1717142857142857 -0.16577142857142854 1.9873714285714286 -1.2500571428571428 1.8214285714285714 -2.4218742857142854 -0.1656 -1.1717828571428572 -1.2500571428571428 -1.9873714285714286 -2.421702857142857 -1.8215999999999999L33.856834285714285 13.714285714285714l-0.3003085714285714 -2.121702857142857 -0.0005485714285714285 0.00006857142857142857 -0.0019885714285714285 0.00027428571428571427 -0.00785142857142857 0.0011314285714285714 -0.030925714285714286 0.004354285714285714 -0.12047999999999999 0.017108571428571428 -0.45905142857142855 0.06521142857142856c-0.39665142857142854 0.05643428571428571 -0.9660685714285715 0.13765714285714284 -1.6576457142857142 0.23684571428571427 -1.383017142857143 0.19830857142857142 -3.2554285714285713 0.4685828571428572 -5.211977142857142 0.7561028571428571 -3.8698971428571425 0.5686971428571428 -8.191097142857142 1.2224228571428573 -9.60336 1.5131314285714286 -3.1675199999999997 0.6519428571428572 -4.810354285714285 3.3141599999999998 -5.24928 4.982022857142857 -0.30119999999999997 1.1444914285714285 0.38245714285714283 2.31648 1.5269485714285713 2.617645714285714 1.1444914285714285 0.30119999999999997 2.31648 -0.38245714285714283 2.617645714285714 -1.5269485714285713 0.061337142857142854 -0.2330057142857143 0.2609828571428571 -0.6750171428571429 0.6318857142857143 -1.08408 0.35225142857142855 -0.38852571428571425 0.7947771428571427 -0.6793714285714285 1.3368 -0.7909371428571428 0.16837714285714286 -0.03466285714285714 0.38862857142857143 -0.07597714285714285 0.65328 -0.12294857142857143 -0.03617142857142857 1.9070057142857142 -0.13717714285714283 4.197222857142856 -0.4172571428571428 6.478045714285714 -0.4328914285714286 3.525257142857143 -1.2466971428571427 6.5648228571428575 -2.5409485714285713 8.23158857142857 -0.7258285714285714 0.9347314285714284 -0.5564914285714285 2.281028571428571 0.3782742857142857 3.0068571428571427s2.2809257142857144 0.5564571428571429 3.0067542857142855 -0.3785142857142857c2.0685942857142856 -2.663862857142857 2.9690399999999997 -6.7491771428571425 3.40968 -10.337554285714285 0.34330285714285713 -2.795588571428571 0.43566857142857135 -5.572697142857143 0.46031999999999995 -7.688982857142857 1.3520228571428572 -0.20622857142857143 2.836011428571428 -0.42733714285714286 4.294628571428571 -0.6418628571428571V32.480914285714285c0 0.7057714285714286 0.22162285714285715 1.6634057142857142 0.8979428571428572 2.4874285714285715 0.7486628571428571 0.912 1.89168 1.4598857142857142 3.302022857142857 1.4598857142857142 2.7088114285714284 0 4.39512 -1.9172571428571428 4.947462857142857 -2.8861371428571427 0.5859428571428571 -1.0281942857142856 0.22765714285714284 -2.336777142857143 -0.8005714285714286 -2.9228228571428567 -1.0282285714285713 -0.5860457142857143 -2.336845714285714 -0.22765714285714284 -2.9228914285714285 0.8005028571428571l-0.00006857142857142857 0.00013714285714285713 -0.00003428571428571428 0.00003428571428571428c-0.0016114285714285714 0.002674285714285714 -0.011794285714285714 0.01937142857142857 -0.03260571428571428 0.04789714285714285 -0.023451428571428568 0.032125714285714285 -0.055851428571428566 0.07296 -0.09713142857142856 0.1190742857142857 -0.084 0.09377142857142856 -0.19066285714285713 0.19350857142857142 -0.31371428571428567 0.282 -0.21929142857142858 0.15768000000000001 -0.44900571428571423 0.2525485714285714 -0.6946971428571428 0.2705142857142857V16.307794285714284l1.0292228571428572 -0.14790857142857142c0.6898971428571429 -0.0989142857142857 1.2577714285714285 -0.17993142857142855 1.6530857142857143 -0.23619428571428572l0.45719999999999994 -0.06493714285714285 0.11962285714285713 -0.01697142857142857 0.030514285714285713 -0.00432 0.007679999999999999 -0.001097142857142857 0.0018857142857142857 -0.00027428571428571427 0.00047999999999999996 -0.00006857142857142857L33.856834285714285 13.714285714285714l0.3001371428571429 2.1217371428571425Z" clip-rule="evenodd" stroke-width="3.4286"></path>
  </g>
</svg>