<svg xmlns="http://www.w3.org/2000/svg" fill="none" viewBox="0 0 48 48" id="Pictures-Folder-Memories--Streamline-Core-Remix" height="48" width="48">
  <desc>
    Pictures Folder Memories Streamline Icon: https://streamlinehq.com
  </desc>
  <g id="Free Remix/Interface Essential/pictures-folder-memories">
    <path id="Union" fill="#000000" fill-rule="evenodd" d="M4.285714285714286 9c0 -0.7100914285714285 0.5756228571428571 -1.2857142857142856 1.2857142857142856 -1.2857142857142856h11.037325714285714c0.5899885714285714 0 1.10424 0.40152 1.2473485714285715 0.9738857142857144l1.0650171428571429 4.260102857142857c0.23849142857142855 0.9539314285714284 1.0956 1.6231542857142855 2.07888 1.6231542857142855h21.428571428571427c0.7100571428571428 0 1.2857142857142856 0.5756228571428571 1.2857142857142856 1.2857142857142856v23.142857142857142c0 0.7100571428571428 -0.5756571428571428 1.2857142857142856 -1.2857142857142856 1.2857142857142856H31.597817142857142L18.171462857142856 27.441119999999998c-0.33116571428571423 -0.27582857142857137 -0.7485599999999999 -0.42689142857142853 -1.1795657142857143 -0.42689142857142853 -0.4310057142857142 0 -0.8483657142857142 0.15106285714285714 -1.1795657142857143 0.42689142857142853L4.285714285714286 35.698971428571426V9ZM5.571428571428571 3.4285714285714284C2.494412571428571 3.4285714285714284 0 5.922994285714285 0 9v30C0 42.07714285714286 2.4944159999999997 44.57142857142857 5.571428571428571 44.57142857142857h36.857142857142854c3.077142857142857 0 5.571428571428571 -2.494285714285714 5.571428571428571 -5.571428571428571v-23.142857142857142C48 12.780137142857141 45.505714285714284 10.285714285714285 42.42857142857142 10.285714285714285H22.67310857142857l-0.65928 -2.6369828571428573C21.393805714285715 5.168502857142856 19.165302857142855 3.4285714285714284 16.608754285714284 3.4285714285714284H5.571428571428571Zm28.232159999999997 25.299942857142856c-2.8403314285714285 0 -5.142857142857142 -2.3025257142857143 -5.142857142857142 -5.142857142857142s2.3025257142857143 -5.142857142857142 5.142857142857142 -5.142857142857142c2.840297142857143 0 5.142925714285714 2.3025257142857143 5.142925714285714 5.142857142857142s-2.302628571428571 5.142857142857142 -5.142925714285714 5.142857142857142Z" clip-rule="evenodd" stroke-width="3.4286"></path>
  </g>
</svg>