<svg xmlns="http://www.w3.org/2000/svg" fill="none" viewBox="0 0 48 48" id="Piggy-Bank--Streamline-Core-Remix" height="48" width="48">
  <desc>
    Piggy Bank Streamline Icon: https://streamlinehq.com
  </desc>
  <g id="Free Remix/Money Shopping/piggy-bank--institution-saving-bank-payment-finance">
    <path id="Union" fill="#000000" fill-rule="evenodd" d="M34.49897142857143 3.0042514285714286c-2.5084114285714287 -0.07714971428571428 -7.298571428571429 0.9575314285714285 -9.840445714285714 5.0730514285714285 -7.170617142857142 -0.9574628571428572 -12.080468571428572 -0.2227885714285714 -15.581142857142858 1.6045371428571429 -1.2542742857142857 0.65472 -2.287165714285714 1.429302857142857 -3.151782857142857 2.2634057142857142 -0.6971657142857143 -0.8523085714285714 -1.2875657142857142 -1.9085828571428571 -1.7732914285714283 -3.2168914285714285 -0.4119085714285714 -1.1094514285714285 -1.6452445714285713 -1.6749257142857141 -2.754709714285714 -1.2630171428571428 -1.1094696 0.4119085714285714 -1.6749462857142856 1.6452342857142856 -1.2630298285714285 2.75472C0.8872662857142857 12.247371428571428 1.9103931428571426 13.988914285714284 3.2685462857142857 15.40457142857143c-0.36633942857142854 0.6316799999999999 -0.6825942857142856 1.2533142857142856 -0.9679782857142857 1.8430285714285712C0.4668308571428571 21.036685714285714 0.20988377142857143 25.70101714285714 0.6623485714285714 30.111085714285714c0.45679885714285706 4.452342857142857 1.6634331428571427 8.901257142857142 3.0110914285714285 12.442285714285713 0.5762057142857142 1.5140571428571428 2.024742857142857 2.446628571428571 3.572982857142857 2.446628571428571h6.283165714285714c2.1302399999999997 0 3.8571428571428568 -1.7269714285714286 3.8571428571428568 -3.8571428571428568v-1.5764571428571428h6.9571885714285715V41.14285714285714c0 2.1301714285714284 1.726902857142857 3.8571428571428568 3.8571428571428568 3.8571428571428568h5.665097142857142c2.130411428571428 0 3.85704 -1.7269714285714286 3.85704 -3.8571428571428568v-2.2141714285714285c3.8475428571428574 -1.5023999999999997 7.309028571428572 -3.798514285714286 9.765257142857141 -6.683862857142857 0.3298285714285714 -0.38759999999999994 0.5112 -0.8799771428571428 0.5112 -1.388982857142857V24.872434285714284c0 -0.7470171428571428 -0.3891428571428571 -1.4401371428571428 -1.0268571428571427 -1.829245714285714l-4.0525714285714285 -2.47272c-0.14468571428571428 -2.0245714285714285 -0.6603428571428571 -3.822582857142857 -1.5983999999999998 -5.391154285714285 -0.9017142857142857 -1.5071314285714286 -2.1312 -2.6985942857142855 -3.5986285714285717 -3.6532114285714283V6.49968c0 -1.473702857142857 -1.0086857142857142 -3.427278857142857 -3.224228571428571 -3.4954285714285716ZM27.851794285714284 11.226685714285713c1.0487314285714284 -2.582742857142857 3.65208 -3.6679199999999996 5.585794285714285 -3.89472v5.41704c0 0.7916571428571428 0.4364571428571428 1.5187885714285714 1.1350971428571428 1.8910971428571428 1.4478857142857142 0.7715657142857142 2.431542857142857 1.6696799999999998 3.0709714285714287 2.7391885714285715 0.6411428571428571 1.0716342857142858 1.0337142857142856 2.47728 1.0337142857142856 4.420045714285714 0 0.7470171428571428 0.3891428571428571 1.4401028571428571 1.0268571428571427 1.8292114285714285l4.009714285714286 2.446628571428571v3.9615771428571422c-2.1565714285714286 2.2853142857142856 -5.259771428571429 4.181142857142857 -8.805599999999998 5.351931428571429 -0.8777828571428572 0.29005714285714285 -1.4707542857142857 1.1101714285714284 -1.4707542857142857 2.0348571428571427v3.290742857142857H28.629634285714285v-3.290742857142857c0 -1.183542857142857 -0.9593828571428571 -2.142857142857143 -2.142857142857143 -2.142857142857143H15.243874285714286c-1.1834742857142857 0 -2.142857142857143 0.9593142857142857 -2.142857142857143 2.142857142857143v3.290742857142857H7.5605142857142855c-1.19112 -3.2036571428571428 -2.2359771428571427 -7.153028571428571 -2.634822857142857 -11.040617142857142 -0.4163657142857143 -4.058194285714285 -0.10296 -7.799485714285713 1.2325714285714284 -10.559142857142858 1.0915885714285714 -2.2555542857142856 2.35128 -4.301828571428571 4.902308571428571 -5.633417142857143 2.6006742857142857 -1.3575428571428572 6.906377142857142 -2.153931428571428 14.467371428571427 -0.9446057142857142 0.9850628571428571 0.15754285714285712 1.9485599999999998 -0.3855085714285714 2.3238514285714285 -1.3098171428571428Zm-2.135691428571428 7.294388571428572c0 1.6568571428571428 -1.343142857142857 3 -3 3H16.35617142857143c-1.6568571428571428 0 -3 -1.343142857142857 -3 -3s1.343142857142857 -3 3 -3l6.359931428571429 0c1.6568571428571428 0 3 1.343142857142857 3 3Zm4.141748571428571 2.577702857142857c0 1.6568571428571428 1.343142857142857 3 3 3h0.00013714285714285713c1.6567542857142856 0 3.0000685714285713 -1.343142857142857 3.0000685714285713 -3s-1.3433142857142857 -3 -3.0000685714285713 -3h-0.00013714285714285713c-1.6568571428571428 0 -3 1.343142857142857 -3 3Z" clip-rule="evenodd" stroke-width="3.4286"></path>
  </g>
</svg>