<svg xmlns="http://www.w3.org/2000/svg" fill="none" viewBox="0 0 48 48" id="Planet--Streamline-Core-Remix" height="48" width="48">
  <desc>
    Planet Streamline Icon: https://streamlinehq.com
  </desc>
  <g id="Free Remix/Nature Ecology/planet--science-solar-system-ring-planet-saturn-space-astronomy-astronomy">
    <path id="Union" fill="#000000" fill-rule="evenodd" d="M34.00337142857143 7.511588571428571c1.8841714285714284 -0.9977142857142856 3.575485714285714 -1.6840114285714285 5.003485714285714 -2.053988571428571 2.450742857142857 -0.6350742857142857 3.3061714285714285 -0.15802285714285713 3.4995428571428566 0.035348571428571424 0.13954285714285714 0.13947428571428572 0.4786285714285714 0.6447771428571428 0.3048 2.113097142857143 -0.1697142857142857 1.4316685714285713 -0.7933714285714285 3.3507428571428566 -1.9487999999999999 5.661428571428572 -2.2981714285714285 4.596068571428571 -6.4344 10.215668571428571 -11.905885714285713 15.686811428571426 -5.47152 5.470971428571428 -11.091565714285714 9.606857142857143 -15.688011428571427 11.905028571428572 -2.3108914285714284 1.1554285714285715 -4.2301714285714285 1.7787428571428572 -5.662011428571429 1.9484571428571429 -1.4685599999999999 0.17417142857142856 -1.9740685714285713 -0.1649142857142857 -2.113577142857143 -0.30445714285714287 -0.1932342857142857 -0.19337142857142856 -0.6702514285714285 -1.0481142857142858 -0.035691428571428575 -3.4974857142857143 0.36977142857142853 -1.4276571428571427 1.0558971428571429 -3.1186285714285713 2.0535085714285715 -5.002765714285714 0.3261942857142857 0.5377371428571428 0.6797485714285714 1.0609371428571428 1.0600114285714286 1.5680228571428572 0.7100571428571428 0.9469714285714286 2.0532342857142853 1.1386285714285713 3 0.42857142857142855 0.9467657142857142 -0.7100571428571428 1.1386285714285713 -2.0531657142857145 0.42857142857142855 -2.9999314285714282 -2.166445714285714 -2.8885714285714283 -3.218228571428571 -6.461691428571428 -2.962285714285714 -10.063337142857142 0.25597714285714285 -3.6016457142857146 1.8025028571428572 -6.9901028571428565 4.355691428571428 -9.543257142857144 2.5531542857142857 -2.553188571428571 5.941611428571428 -4.099714285714286 9.543257142857144 -4.355657142857143 3.6016457142857146 -0.25597714285714285 7.1747314285714285 0.7958057142857142 10.063337142857142 2.9622514285714283 0.9467657142857142 0.7100914285714285 2.289942857142857 0.5181942857142857 3 -0.42857142857142855 0.7100571428571428 -0.9467657142857142 0.5180571428571429 -2.289908571428571 -0.42857142857142855 -3 -0.506742857142857 -0.3800914285714285 -1.029942857142857 -0.7334742857142857 -1.5673714285714284 -1.0595657142857142Zm-6.064731428571428 -2.3909828571428573C31.416068571428568 2.877058285714286 34.78011428571428 1.24008 37.71668571428571 0.4791565714285714c2.8645714285714283 -0.7422027428571428 6.195085714285714 -0.8538548571428571 8.4264 1.37712 1.7314285714285713 1.731277714285714 2.0369142857142855 4.145540571428572 1.7749714285714286 6.355049142857142 -0.2660571428571428 2.2461599999999997 -1.1592 4.763177142857143 -2.4558857142857144 7.356240000000001 -0.7182857142857142 1.43688 -1.5816 2.9381485714285716 -2.575542857142857 4.479634285714285 0.36479999999999996 1.7422285714285712 0.4878857142857143 3.533348571428571 0.3606857142857143 5.322651428571429 -0.2297142857142857 3.223748571428571 -1.265485714285714 6.338125714285714 -3.0126857142857144 9.05712 -1.7475428571428573 2.718857142857143 -4.1499428571428565 4.954971428571429 -6.987051428571428 6.502971428571429 -2.8368342857142856 1.5476571428571428 -6.017142857142856 2.357828571428571 -9.248777142857143 2.356114285714286h0.0014057142857142855l-0.0008571428571428571 -2.142857142857143 -0.001337142857142857 2.142857142857143c-1.329737142857143 0.00034285714285714285 -2.6526857142857145 -0.13542857142857143 -3.948548571428571 -0.40319999999999995 -1.5420342857142857 0.9942857142857142 -3.0438171428571428 1.8579428571428571 -4.481142857142856 2.576571428571428 -2.593234285714286 1.296342857142857 -5.110388571428571 2.189485714285714 -7.356617142857143 2.455542857142857 -2.209577142857143 0.2619428571428571 -4.6238399999999995 -0.043885714285714285 -6.355206857142857 -1.7749714285714286 -2.2307622857142855 -2.230628571428571 -2.1195839999999997 -5.5604571428571425 -1.377829714285714 -8.424 0.7606628571428571 -2.9365714285714284 2.3976719999999996 -6.300548571428571 4.641322285714285 -9.777874285714285 -0.3610285714285714 -1.7305371428571426 -0.48510857142857144 -3.515314285714286 -0.3578742857142857 -5.305542857142857 0.3290742857142857 -4.630697142857143 2.317474285714286 -8.98728 5.600125714285714 -12.269931428571429 3.282651428571428 -3.2826171428571427 7.639234285714285 -5.271017142857143 12.269931428571429 -5.600125714285714 1.7905371428571428 -0.1272342857142857 3.575622857142857 -0.0030857142857142854 5.306468571428571 0.35808Zm-2.4072342857142854 33.80225142857143c1.9807199999999998 -0.20194285714285715 3.9067199999999995 -0.7968 5.663417142857142 -1.7550857142857144 2.206628571428571 -1.2041142857142857 4.075234285714285 -2.9432914285714284 5.43432 -5.057965714285714 1.276457142857143 -1.9865142857142857 2.065028571428571 -4.2444685714285715 2.304 -6.589405714285714 -1.8798857142857142 2.3558399999999997 -4.007657142857143 4.73832 -6.340182857142857 7.070571428571428 -2.329302857142857 2.3290285714285712 -4.708628571428571 4.4544 -7.061554285714284 6.331885714285714Z" clip-rule="evenodd" stroke-width="3.4286"></path>
  </g>
</svg>