<svg xmlns="http://www.w3.org/2000/svg" fill="none" viewBox="0 0 48 48" id="Play-List-Folder--Streamline-Core-Remix" height="48" width="48">
  <desc>
    Play List Folder Streamline Icon: https://streamlinehq.com
  </desc>
  <g id="Free Remix/Entertainment/play-list-folder--player-television-movies-slider-media-tv-players-video">
    <path id="Union" fill="#000000" fill-rule="evenodd" d="M4.285714285714286 5.505497142857142c0 -0.67368 0.5461028571428571 -1.219782857142857 1.219782857142857 -1.219782857142857h10.825062857142855c0.5597485714285714 0 1.0476342857142857 0.3809485714285714 1.1833714285714285 0.9239314285714285l1.0445485714285714 4.1781942857142855c0.23849142857142855 0.9539314285714284 1.0956 1.6231542857142855 2.07888 1.6231542857142855h21.85704c0.6737142857142857 0 1.2198857142857142 0.5461028571428571 1.2198857142857142 1.219782857142857v8.696639999999999c0 1.1834742857142857 0.9593142857142857 2.142857142857143 2.142857142857143 2.142857142857143s2.142857142857143 -0.9593828571428571 2.142857142857143 -2.142857142857143V12.230777142857143c0 -3.0405942857142856 -2.4648 -5.505497142857142 -5.505599999999999 -5.505497142857142H22.310468571428572l-0.6387771428571428 -2.5550742857142854C21.05897142857143 1.719349714285714 18.85686857142857 0 16.330560000000002 0H5.505497142857142C2.4648925714285714 0 0 2.4648925714285714 0 5.505497142857142v30.26376c0 3.040457142857143 2.464896 5.505599999999999 5.505497142857142 5.505599999999999h15.131862857142856c1.1834742857142857 0 2.142857142857143 -0.9596571428571428 2.142857142857143 -2.142857142857143 0 -1.183542857142857 -0.9593828571428571 -2.142857142857143 -2.142857142857143 -2.142857142857143H5.505497142857142c-0.67368 0 -1.219782857142857 -0.5461714285714285 -1.219782857142857 -1.2198857142857142V5.505497142857142ZM26.011439999999997 41.65405714285714c0 -3.2684571428571427 2.6493942857142856 -5.917714285714285 5.917577142857143 -5.917714285714285 0.5898514285714286 0 1.1595085714285713 0.08639999999999999 1.6971085714285712 0.24685714285714283V25.681371428571428c0 -1.1333485714285714 0.8824457142857143 -2.0706857142857142 2.0138742857142855 -2.138982857142857 1.5682285714285713 -0.09466285714285713 3.1395428571428567 0.12863999999999998 4.619657142857142 0.6565028571428572 1.4797714285714285 0.5278971428571428 2.837828571428571 1.3494514285714285 3.9922285714285715 2.4153599999999997 1.1543999999999999 1.0659085714285714 2.081142857142857 2.35416 2.7253714285714286 3.787337142857143 0.6438857142857143 1.4332114285714286 0.9915428571428572 2.9817942857142854 1.0220571428571428 4.552697142857143 0.02297142857142857 1.1832 -0.9174857142857142 2.161028571428571 -2.1010285714285715 2.1839999999999997 -1.1832 0.02297142857142857 -2.161028571428571 -0.9174857142857142 -2.1839999999999997 -2.1010285714285715 -0.0192 -0.9933599999999999 -0.23897142857142856 -1.972697142857143 -0.6462857142857142 -2.8790742857142853 -0.4073142857142857 -0.9063771428571428 -0.9935999999999999 -1.7210742857142856 -1.7235428571428573 -2.395165714285714 -0.7302857142857142 -0.6740914285714286 -1.5887999999999998 -1.1936571428571428 -2.5248 -1.5274971428571429 -0.29725714285714283 -0.10608 -0.6006857142857143 -0.19272 -0.9078857142857142 -0.2596457142857143V41.65371428571428c0 0.22697142857142855 -0.035314285714285715 0.44571428571428573 -0.10045714285714286 0.6507428571428571 -0.324 2.962285714285714 -2.8340571428571426 5.266971428571428 -5.8822971428571424 5.266971428571428 -3.2681828571428566 0 -5.917577142857143 -2.649257142857143 -5.917577142857143 -5.917371428571428Z" clip-rule="evenodd" stroke-width="3.4286"></path>
  </g>
</svg>