<svg xmlns="http://www.w3.org/2000/svg" fill="none" viewBox="0 0 48 48" id="Play-List-5--Streamline-Core-Remix" height="48" width="48">
  <desc>
    Play List 5 Streamline Icon: https://streamlinehq.com
  </desc>
  <g id="Free Remix/Entertainment/play-list-5--player-television-movies-slider-media-tv-players-video-stack-entertainment">
    <path id="Union" fill="#000000" fill-rule="evenodd" d="M6.612239999999999 5.571428571428571c-0.5748342857142857 0 -1.0408114285714285 0.46597714285714287 -1.0408114285714285 1.0408114285714285v27.061234285714285c0 0.5748342857142857 0.46597714285714287 1.0408114285714285 1.0408114285714285 1.0408114285714285h27.061234285714285c0.5748342857142857 0 1.0408114285714285 -0.46597714285714287 1.0408114285714285 -1.0408114285714285V6.612239999999999c0 -0.5748342857142857 -0.46597714285714287 -1.0408114285714285 -1.0408114285714285 -1.0408114285714285H6.612239999999999ZM1.2857142857142856 6.612239999999999C1.2857142857142856 3.6704914285714283 3.6704914285714283 1.2857142857142856 6.612239999999999 1.2857142857142856h27.061234285714285c2.9416114285714285 0 5.326525714285713 2.3847771428571427 5.326525714285713 5.326525714285713V9.428571428571429h2.387657142857143c2.705142857142857 0 4.898057142857143 2.1928799999999997 4.898057142857143 4.8979542857142855v27.06113142857143c0 2.705142857142857 -2.1929142857142856 4.898057142857143 -4.898057142857143 4.898057142857143H14.326525714285712c-2.7050742857142858 0 -4.8979542857142855 -2.1929142857142856 -4.8979542857142855 -4.898057142857143v-2.387657142857143h-2.8163314285714285C3.6704914285714283 39 1.2857142857142856 36.61508571428571 1.2857142857142856 33.673474285714285V6.612239999999999Zm18.705874285714284 2.8164342857142857c-0.5718171428571429 -0.005417142857142857 -1.1220685714285714 0.21792 -1.5283542857142856 0.6203657142857142 -0.40625142857142854 0.40241142857142853 -0.6348342857142857 0.9505371428571427 -0.6348342857142857 1.5223885714285712v7.2365828571428565c-0.51432 -0.14574857142857142 -1.0570971428571427 -0.2237485714285714 -1.61808 -0.2237485714285714 -3.270685714285714 0 -5.922102857142857 2.6514171428571425 -5.922102857142857 5.922102857142857 0 3.2706514285714285 2.6514171428571425 5.9220685714285715 5.922102857142857 5.9220685714285715s5.9220685714285715 -2.6514171428571425 5.9220685714285715 -5.9220685714285715c0 -0.15778285714285714 -0.006171428571428571 -0.31412571428571423 -0.01827428571428571 -0.4687885714285714V14.068045714285713c0.6952114285714286 0.22635428571428567 1.3559657142857142 0.55848 1.9578514285714284 0.9883885714285713 1.2034285714285713 0.8596114285714285 2.1133371428571426 2.0685942857142856 2.6062628571428568 3.46296 0.39442285714285713 1.1157942857142857 1.6186971428571426 1.7006057142857143 2.7345257142857142 1.3061485714285714 1.1157942857142857 -0.39442285714285713 1.7005714285714284 -1.6187314285714285 1.3061485714285714 -2.7345257142857142 -0.786 -2.2234285714285713 -2.236902857142857 -4.15128 -4.155908571428571 -5.522022857142857 -1.9190057142857144 -1.3707085714285714 -4.213234285714286 -2.1179314285714286 -6.571405714285714 -2.14032Z" clip-rule="evenodd" stroke-width="3.4286"></path>
  </g>
</svg>