<svg xmlns="http://www.w3.org/2000/svg" fill="none" viewBox="0 0 48 48" id="Play-List-9--Streamline-Core-Remix" height="48" width="48">
  <desc>
    Play List 9 Streamline Icon: https://streamlinehq.com
  </desc>
  <g id="Free Remix/Entertainment/play-list-9--player-television-movies-slider-media-tv-players-video-stack-entertainment">
    <path id="Union" fill="#000000" fill-rule="evenodd" d="M0.42857142857142855 8.933862857142858c0 -2.8403314285714285 2.302536 -5.142857142857142 5.142857142857142 -5.142857142857142h25.928571428571427c2.8402285714285713 0 5.142857142857142 2.3025599999999997 5.142857142857142 5.142857142857142V13.45062857142857h5.851542857142857c3.0408 0 5.505599999999999 2.464868571428571 5.505599999999999 5.505462857142857v20.17590857142857c0 3.040457142857143 -2.4648 5.505257142857142 -5.505599999999999 5.505257142857142H16.43406857142857c-3.0405942857142856 0 -5.505497142857142 -2.4648 -5.505497142857142 -5.505257142857142V34.12069714285714H5.571428571428571c-2.840321142857143 0 -5.142857142857142 -2.3025599999999997 -5.142857142857142 -5.142857142857142V8.933862857142858Zm14.785714285714285 10.022228571428572c0 -0.6736457142857142 0.5461028571428571 -1.2197485714285714 1.219782857142857 -1.2197485714285714h26.060331428571427c0.6737142857142857 0 1.2198857142857142 0.5461028571428571 1.2198857142857142 1.2197485714285714v20.17590857142857c0 0.6737142857142857 -0.5461714285714285 1.219542857142857 -1.2198857142857142 1.219542857142857H16.43406857142857c-0.67368 0 -1.219782857142857 -0.5458285714285714 -1.219782857142857 -1.219542857142857V18.956091428571426Zm11.586034285714284 2.3295771428571426c-0.52848 -0.3302742857142857 -1.1945485714285713 -0.34776 -1.7396228571428571 -0.045668571428571426 -0.54504 0.3021257142857143 -0.8832342857142856 0.8762057142857143 -0.8832342857142856 1.499382857142857v12.609874285714286c0 0.6233142857142856 0.3381942857142857 1.1972571428571428 0.8832342857142856 1.4993142857142856 0.5450742857142857 0.30205714285714286 1.211142857142857 0.2845714285714286 1.7396228571428571 -0.045599999999999995l10.088022857142857 -6.3049028571428565c0.5012571428571428 -0.31326857142857145 0.8057142857142856 -0.8626628571428571 0.8057142857142856 -1.4537142857142855 0 -0.5910857142857142 -0.30445714285714287 -1.140445714285714 -0.8057142857142856 -1.4537142857142855L26.80032 21.28566857142857Z" clip-rule="evenodd" stroke-width="3.4286"></path>
  </g>
</svg>