<svg xmlns="http://www.w3.org/2000/svg" fill="none" viewBox="0 0 48 48" id="Play-Station--Streamline-Core-Remix" height="48" width="48">
  <desc>
    Play Station Streamline Icon: https://streamlinehq.com
  </desc>
  <g id="Free Remix/Entertainment/play-station--play-station-entertainment-gaming">
    <path id="Union" fill="#000000" fill-rule="evenodd" d="M20.140182857142857 0.4051302857142857c0.5582742857142857 -0.4028127977142857 1.27608 -0.5128731428571428 1.9293942857142856 -0.2958325714285714L34.24104 4.152822857142858c6.210274285714286 1.9472914285714285 9.088902857142855 7.964982857142856 9.050502857142858 12.917485714285712 -0.019542857142857143 2.4967885714285716 -0.7748571428571428 5.0660228571428565 -2.576571428571428 6.820182857142857 -1.9097142857142857 1.8595199999999998 -4.628914285714286 2.4505371428571427 -7.717885714285715 1.5718285714285714 -0.03198857142857143 -0.00912 -0.06377142857142856 -0.01896 -0.09527999999999999 -0.029519999999999998l-5.634822857142857 -1.8905485714285712c-1.1219999999999999 -0.3764571428571428 -1.7263885714285714 -1.5912 -1.3499314285714286 -2.7132 0.3764571428571428 -1.1219999999999999 1.5911657142857143 -1.7263885714285714 2.713165714285714 -1.3499314285714286l5.584697142857142 1.8737485714285715c1.8598285714285714 0.5172 2.895257142857143 0.06582857142857142 3.5103428571428568 -0.5330742857142857 0.7285714285714285 -0.7091314285714286 1.2668571428571427 -2.0216228571428574 1.2805714285714285 -3.782742857142857 0.02777142857142857 -3.5579657142857144 -2.065028571428571 -7.5531428571428565 -6.060308571428571 -8.798982857142857l-0.037817142857142855 -0.011794285714285714 0.00013714285714285713 -0.00034285714285714285 -9.370971428571428 -3.1131771428571424V45.857142857142854c0 1.183542857142857 -0.9593828571428571 2.142857142857143 -2.142857142857143 2.142857142857143s-2.142857142857143 -0.9593142857142857 -2.142857142857143 -2.142857142857143V2.1428742857142855c0 -0.6884262857142857 0.3307542857142857 -1.334934857142857 0.8890285714285713 -1.737744ZM47.74628571428571 37.16605714285714c-0.684 2.0989714285714283 -2.5933714285714284 3.5873142857142857 -5.172342857142857 4.502057142857143 -0.021942857142857142 0.007542857142857143 -0.043885714285714285 0.015085714285714286 -0.06582857142857142 0.021942857142857142l-14.286137142857141 4.551771428571428c-1.127622857142857 0.3593142857142857 -2.3329714285714283 -0.26331428571428567 -2.6922514285714287 -1.3909714285714285 -0.35927999999999993 -1.127657142857143 0.26358857142857145 -2.333142857142857 1.3912114285714285 -2.6924571428571427l14.251748571428571 -4.5408c1.9203428571428571 -0.6874285714285714 2.395885714285714 -1.464 2.498742857142857 -1.7794285714285714 0.09017142857142857 -0.2770285714285714 0.08228571428571428 -0.7937142857142857 -0.5399999999999999 -1.5147428571428572 -1.291542857142857 -1.4954399999999999 -4.3748571428571426 -2.69712 -7.5888 -1.5646971428571428l-7.235862857142856 2.6433257142857145c-1.1116457142857143 0.40628571428571425 -2.3419542857142854 -0.16594285714285714 -2.7480685714285715 -1.2774171428571428 -0.40608 -1.1116114285714285 0.16584000000000002 -2.3419542857142854 1.2774857142857141 -2.7480685714285715l7.246697142857142 -2.647337142857143 0.020537142857142855 -0.007508571428571429 0.00003428571428571428 0.00010285714285714286c4.839291428571428 -1.7120571428571427 9.795977142857142 -0.06617142857142858 12.271405714285713 2.800422857142857 1.2613714285714286 1.4607771428571428 2.0684571428571425 3.504377142857143 1.3714285714285714 5.643805714285714ZM0.3032225142857143 34.74171428571428C1.0144594285714283 32.72691428571428 2.846317714285714 31.239119999999996 5.3394514285714285 30.27281142857143l9.12150857142857 -4.133657142857143c1.077942857142857 -0.4885028571428571 2.347782857142857 -0.010662857142857142 2.8362857142857143 1.06728 0.4885028571428571 1.077942857142857 0.010662857142857142 2.347817142857143 -1.06728 2.8363199999999997L7.051954285714285 34.20202285714286c-0.03922285714285714 0.017759999999999998 -0.07892571428571428 0.03435428571428571 -0.11914285714285715 0.04971428571428571 -1.904777142857143 0.7282628571428571 -2.45328 1.5339771428571427 -2.588262857142857 1.9166057142857142 -0.11194285714285714 0.3171428571428571 -0.10083428571428571 0.8057142857142856 0.44262857142857137 1.4598857142857142 1.14336 1.3758857142857142 4.100674285714285 2.6036571428571427 7.564834285714285 1.512342857142857l2.1857485714285714 -0.8893714285714286c1.0961828571428571 -0.4460571428571428 2.3464114285714284 0.0809142857142857 2.792502857142857 1.1770285714285713 0.4460914285714286 1.0961142857142856 -0.0809142857142857 2.3465142857142856 -1.1770971428571428 2.7925714285714283l-2.2624799999999996 0.9205714285714286c-0.048685714285714284 0.019885714285714284 -0.09805714285714286 0.03805714285714286 -0.14808 0.05417142857142857 -4.941908571428571 1.598742857142857 -9.839382857142857 0.07474285714285714 -12.251712 -2.8285714285714283 -1.238292 -1.4900571428571427 -1.9279268571428572 -3.5283428571428566 -1.1876711999999998 -5.6252571428571425Z" clip-rule="evenodd" stroke-width="3.4286"></path>
  </g>
</svg>