<svg xmlns="http://www.w3.org/2000/svg" fill="none" viewBox="0 0 48 48" id="Play-List-4--Streamline-Core-Remix" height="48" width="48">
  <desc>
    Play List 4 Streamline Icon: https://streamlinehq.com
  </desc>
  <g id="Free Remix/Entertainment/play-list-4--screen-television-display-player-movies-players-tv-media-video-entertainment">
    <path id="Union" fill="#000000" fill-rule="evenodd" d="M6.593417142857142 5.571428571428571c-0.5644457142857142 0 -1.0219885714285715 0.45754285714285714 -1.0219885714285715 1.0219885714285715V41.40651428571429c0 0.5643428571428571 0.45754285714285714 1.0220571428571428 1.0219885714285715 1.0220571428571428H41.40651428571429c0.5643428571428571 0 1.0220571428571428 -0.45771428571428574 1.0220571428571428 -1.0220571428571428V6.593417142857142c0 -0.5644457142857142 -0.45771428571428574 -1.0219885714285715 -1.0220571428571428 -1.0219885714285715H6.593417142857142ZM1.2857142857142856 6.593417142857142C1.2857142857142856 3.662057142857143 3.662057142857143 1.2857142857142856 6.593417142857142 1.2857142857142856H41.40651428571429c2.931428571428571 0 5.307771428571429 2.3763428571428573 5.307771428571429 5.307702857142856V41.40651428571429c0 2.931428571428571 -2.3763428571428573 5.307771428571429 -5.307771428571429 5.307771428571429H6.593417142857142C3.662057142857143 46.71428571428571 1.2857142857142856 44.337942857142856 1.2857142857142856 41.40651428571429V6.593417142857142Zm16.645645714285713 25.052502857142855h-1.7142857142857142v-14.820342857142858h0.00003428571428571428c0.0028457142857142856 -0.5500457142857142 0.15106285714285714 -1.0895314285714286 0.4296342857142857 -1.5638057142857142 0.2785714285714286 -0.47430857142857136 0.6775542857142857 -0.8665371428571429 1.1565257142857142 -1.1369142857142858 0.47900571428571426 -0.2704114285714285 1.0209599999999999 -0.40937142857142855 1.5709714285714285 -0.4028228571428571 0.5461371428571428 0.006514285714285714 1.0808914285714284 0.15627428571428573 1.55088 0.4341942857142857l12.675325714285712 7.365394285714285 0.002262857142857143 0.001302857142857143c0.47304 0.27384 0.8657485714285714 0.6671999999999999 1.1390057142857142 1.1406171428571428 0.27359999999999995 0.4741714285714286 0.4179428571428571 1.0120457142857142 0.4179428571428571 1.5595199999999998 0 0.5475085714285713 -0.14434285714285713 1.0853485714285713 -0.4179428571428571 1.5595542857142857 -0.2729142857142857 0.4729028571428571 -0.6650742857142857 0.8658514285714285 -1.1373942857142856 1.1396914285714284l-0.003874285714285714 0.0022285714285714283 -12.67350857142857 7.398548571428572c-0.4704342857142857 0.2787428571428571 -1.0058742857142855 0.42891428571428564 -1.5526971428571428 0.4354285714285714 -0.5500114285714286 0.006514285714285714 -1.0919657142857142 -0.13268571428571427 -1.5709714285714285 -0.4028571428571428 -0.4789714285714285 -0.27048 -0.8779542857142857 -0.6626742857142857 -1.1565257142857142 -1.136982857142857 -0.2785714285714286 -0.4742742857142857 -0.4267885714285714 -1.0137942857142856 -0.4296342857142857 -1.5638057142857142l1.7142514285714285 -0.008948571428571427Z" clip-rule="evenodd" stroke-width="3.4286"></path>
  </g>
</svg>