<svg xmlns="http://www.w3.org/2000/svg" fill="none" viewBox="0 0 48 48" id="Play-List-8--Streamline-Core-Remix" height="48" width="48">
  <desc>
    Play List 8 Streamline Icon: https://streamlinehq.com
  </desc>
  <g id="Free Remix/Entertainment/play-list-8--player-television-movies-slider-media-tv-players-video-stack-entertainment">
    <path id="Union" fill="#000000" fill-rule="evenodd" d="M5.571428571428571 6.612239999999999c0 -0.5748342857142857 0.46597714285714287 -1.0408114285714285 1.0408114285714285 -1.0408114285714285h27.061234285714285c0.5748342857142857 0 1.0408114285714285 0.46597714285714287 1.0408114285714285 1.0408114285714285v27.061234285714285c0 0.5748342857142857 -0.46597714285714287 1.0408114285714285 -1.0408114285714285 1.0408114285714285H6.612239999999999c-0.5748342857142857 0 -1.0408114285714285 -0.46597714285714287 -1.0408114285714285 -1.0408114285714285V6.612239999999999ZM6.612239999999999 1.2857142857142856C3.6704914285714283 1.2857142857142856 1.2857142857142856 3.6704914285714283 1.2857142857142856 6.612239999999999v27.061234285714285c0 2.9416114285714285 2.3847771428571427 5.326525714285713 5.326525714285713 5.326525714285713H9.428571428571429v2.387657142857143c0 2.705142857142857 2.1928799999999997 4.898057142857143 4.8979542857142855 4.898057142857143h27.06113142857143c2.705142857142857 0 4.898057142857143 -2.1929142857142856 4.898057142857143 -4.898057142857143V14.326525714285712c0 -2.7050742857142858 -2.1929142857142856 -4.8979542857142855 -4.898057142857143 -4.8979542857142855h-2.387657142857143v-2.8163314285714285c0 -2.9417485714285716 -2.3849142857142858 -5.326525714285713 -5.326525714285713 -5.326525714285713H6.612239999999999Zm5.8982399999999995 25.32096 1.7140799999999998 0.02489142857142857h-1.7142857142857142V26.621828571428573c-0.0048 0.5159999999999999 0.12709714285714285 1.0241485714285712 0.3824228571428571 1.4727771428571428 0.2578285714285714 0.45301714285714284 0.6321257142857143 0.8288228571428571 1.0841142857142856 1.0884685714285713 0.45195428571428564 0.2596457142857143 0.965142857142857 0.3936685714285714 1.4863885714285714 0.3881828571428571 0.5159999999999999 -0.005417142857142857 1.0212685714285714 -0.1473942857142857 1.46448 -0.41132571428571424l11.089405714285714 -6.459085714285713c0.4455085714285714 -0.2542285714285714 0.8163428571428571 -0.6212914285714286 1.0751314285714286 -1.0643657142857141 0.2611885714285714 -0.44725714285714285 0.3988114285714286 -0.9558514285714285 0.3988114285714286 -1.4737714285714285 0 -0.5179199999999999 -0.13762285714285713 -1.0265142857142857 -0.3988114285714286 -1.4737714285714285 -0.25834285714285715 -0.44232000000000005 -0.62832 -0.8088685714285714 -1.0728342857142856 -1.063062857142857L16.930662857142856 11.128285714285715c-0.4504457142857142 -0.26927999999999996 -0.9651771428571427 -0.41232 -1.4901257142857143 -0.414 -0.5296799999999999 -0.0016799999999999999 -1.0498971428571429 0.14064 -1.5049371428571428 0.41173714285714286 -0.45507428571428565 0.2711314285714285 -0.8278971428571428 0.660822857142857 -1.0785942857142856 1.127417142857143 -0.2429142857142857 0.4520571428571428 -0.3623314285714285 0.959862857142857 -0.3467314285714285 1.4722285714285714V26.621828571428573l0.00020571428571428572 -0.015154285714285714Zm-0.00020571428571428572 -12.881005714285713 0.001954285714285714 0.04944 1.7123314285714284 -0.08125714285714285 -1.7142857142857142 0v0.031817142857142856Z" clip-rule="evenodd" stroke-width="3.4286"></path>
  </g>
</svg>