<svg xmlns="http://www.w3.org/2000/svg" fill="none" viewBox="0 0 48 48" id="Podium--Streamline-Core-Remix" height="48" width="48">
  <desc>
    Podium Streamline Icon: https://streamlinehq.com
  </desc>
  <g id="Free Remix/Interface Essential/podium--work-desk-notes-company-presentation-office-podium-microphone">
    <path id="Union" fill="#000000" fill-rule="evenodd" d="M24.000034285714282 0c1.6568228571428572 0 3 1.3431462857142857 3 3V11.142857142857142H35.14285714285714V6.428571428571428c0 -0.23670857142857143 -0.192 -0.42857142857142855 -0.42857142857142855 -0.42857142857142855h-1.7142514285714285c-1.6568571428571428 0 -3 -1.343142857142857 -3 -3 0 -1.656853714285714 1.343142857142857 -3 3 -3h1.7142514285714285C38.26457142857143 0 41.14285714285714 2.8781691428571428 41.14285714285714 6.428571428571428V11.142857142857142h1.7142857142857142c0.6421714285714285 0 1.2500571428571428 0.2878285714285714 1.6570285714285713 0.7843199999999999 0.4073142857142857 0.4964571428571429 0.5701714285714286 1.1492571428571428 0.4443428571428571 1.7787771428571428l-3.4285714285714284 17.142857142857142c-0.20057142857142857 1.0016228571428571 -1.0799999999999998 1.7226171428571428 -2.1013714285714284 1.7226171428571428H33.000034285714285v11.142857142857142H34.285714285714285c1.183542857142857 0 2.142857142857143 0.9593142857142857 2.142857142857143 2.142857142857143S35.46925714285714 48 34.285714285714285 48H13.714319999999997c-1.1834742857142857 0 -2.142857142857143 -0.9593142857142857 -2.142857142857143 -2.142857142857143s0.9593828571428571 -2.142857142857143 2.142857142857143 -2.142857142857143h1.2857142857142856V32.57142857142857h-6.428571428571428c-1.0214742857142856 0 -1.9009371428571429 -0.7209942857142857 -2.1012685714285713 -1.7226171428571428l-3.4285645714285713 -17.142857142857142c-0.12590057142857142 -0.62952 0.03707314285714285 -1.28232 0.444096 -1.7787771428571428 0.40700571428571425 -0.49649142857142853 1.0151657142857142 -0.7843199999999999 1.6571657142857141 -0.7843199999999999h1.7142857142857142V6.428571428571428c0 -3.550402285714285 2.878148571428571 -6.428571428571428 6.428571428571428 -6.428571428571428h1.7142857142857142c1.6568228571428572 0 3 1.3431462857142857 3 3 0 1.6568571428571428 -1.3431771428571428 3 -3 3h-1.7142857142857142c-0.23670857142857143 0 -0.42857142857142855 0.19186285714285714 -0.42857142857142855 0.42857142857142855V11.142857142857142h8.142857142857142V3c0 -1.656853714285714 1.343142857142857 -3 3 -3Zm-4.714285714285714 43.714285714285715h9.428571428571429V30.431245714285716l0 -0.002674285714285714 0 -0.002674285714285714V23.57142857142857c0 -1.1834742857142857 0.9593828571428571 -2.142857142857143 2.142857142857143 -2.142857142857143 1.1834399999999998 0 2.142857142857143 0.9593828571428571 2.142857142857143 2.142857142857143V28.285714285714285h4.671737142857142l2.571428571428571 -12.857142857142856H7.7567314285714275l2.571428571428571 12.857142857142856h4.671874285714286V23.57142857142857c0 -1.1834742857142857 0.9593828571428571 -2.142857142857143 2.142857142857143 -2.142857142857143 1.1834399999999998 0 2.142857142857143 0.9593828571428571 2.142857142857143 2.142857142857143v20.142857142857142Z" clip-rule="evenodd" stroke-width="3.4286"></path>
  </g>
</svg>