<svg xmlns="http://www.w3.org/2000/svg" fill="none" viewBox="0 0 48 48" id="Polaroid-Four--Streamline-Core-Remix" height="48" width="48">
  <desc>
    Polaroid Four Streamline Icon: https://streamlinehq.com
  </desc>
  <g id="Free Remix/Images Photography/polaroid-four--photos-camera-polaroid-picture-photography-pictures-four-photo-image">
    <path id="Union" fill="#000000" fill-rule="evenodd" d="M5.571428571428571 5.571428571428571V13.714285714285714H18V5.571428571428571H5.571428571428571ZM1.2857142857142856 5.142857142857142C1.2857142857142856 3.0126171428571427 3.0126171428571427 1.2857142857142856 5.142857142857142 1.2857142857142856h13.285714285714285C20.558811428571428 1.2857142857142856 22.285714285714285 3.0126171428571427 22.285714285714285 5.142857142857142v13.285714285714285c0 2.1302399999999997 -1.726902857142857 3.8571428571428568 -3.8571428571428568 3.8571428571428568H5.142857142857142C3.0126171428571427 22.285714285714285 1.2857142857142856 20.558811428571428 1.2857142857142856 18.428571428571427V5.142857142857142Zm41.14285714285714 8.571428571428571V5.571428571428571H30V13.714285714285714h12.428571428571427ZM18 38.14285714285714H5.571428571428571V30H18v8.142857142857142Zm12 0h12.428571428571427V30H30v8.142857142857142ZM29.57142857142857 1.2857142857142856C27.44118857142857 1.2857142857142856 25.71428571428571 3.0126171428571427 25.71428571428571 5.142857142857142v13.285714285714285c0 2.1302399999999997 1.726902857142857 3.8571428571428568 3.8571428571428568 3.8571428571428568H42.857142857142854c2.1301714285714284 0 3.8571428571428568 -1.726902857142857 3.8571428571428568 -3.8571428571428568V5.142857142857142c0 -2.1302399999999997 -1.7269714285714286 -3.8571428571428568 -3.8571428571428568 -3.8571428571428568H29.57142857142857ZM25.71428571428571 29.57142857142857c0 -2.1302399999999997 1.726902857142857 -3.8571428571428568 3.8571428571428568 -3.8571428571428568H42.857142857142854c2.1301714285714284 0 3.8571428571428568 1.726902857142857 3.8571428571428568 3.8571428571428568V42.857142857142854c0 2.1301714285714284 -1.7269714285714286 3.8571428571428568 -3.8571428571428568 3.8571428571428568H29.57142857142857c-2.1302399999999997 0 -3.8571428571428568 -1.7269714285714286 -3.8571428571428568 -3.8571428571428568V29.57142857142857ZM5.142857142857142 25.71428571428571C3.0126171428571427 25.71428571428571 1.2857142857142856 27.44118857142857 1.2857142857142856 29.57142857142857V42.857142857142854c0 2.1301714285714284 1.726902857142857 3.8571428571428568 3.8571428571428568 3.8571428571428568h13.285714285714285c2.1302399999999997 0 3.8571428571428568 -1.7269714285714286 3.8571428571428568 -3.8571428571428568V29.57142857142857c0 -2.1302399999999997 -1.726902857142857 -3.8571428571428568 -3.8571428571428568 -3.8571428571428568H5.142857142857142Z" clip-rule="evenodd" stroke-width="3.4286"></path>
  </g>
</svg>