<svg xmlns="http://www.w3.org/2000/svg" fill="none" viewBox="0 0 48 48" id="Politics-Vote-2--Streamline-Core-Remix" height="48" width="48">
  <desc>
    Politics Vote 2 Streamline Icon: https://streamlinehq.com
  </desc>
  <g id="Free Remix/Culture/politics-vote-2">
    <path id="Union" fill="#000000" fill-rule="evenodd" d="M20.30304 2.7184902857142856c1.33896 -1.3389394285714284 3.5097942857142854 -1.3389394285714284 4.848754285714286 0L35.451771428571426 13.01838857142857c1.3388571428571427 1.338925714285714 1.3388571428571427 3.5097942857142854 0 4.848719999999999L27.696651428571425 25.62216c-0.1291885714285714 0.1291885714285714 -0.26612571428571424 0.24589714285714287 -0.4092685714285714 0.35015999999999997H34.285714285714285c1.183542857142857 0 2.142857142857143 0.9593828571428571 2.142857142857143 2.142857142857143 0 1.1834399999999998 -0.9593142857142857 2.142857142857143 -2.142857142857143 2.142857142857143H13.714285714285714c-1.1834742857142857 0 -2.142857142857143 -0.9594171428571429 -2.142857142857143 -2.142857142857143 0 -1.1834742857142857 0.9593828571428571 -2.142857142857143 2.142857142857143 -2.142857142857143h9.542879999999998c-0.14314285714285716 -0.10426285714285713 -0.28008 -0.22097142857142854 -0.4092685714285714 -0.35015999999999997L12.548022857142856 15.322251428571427c-1.33896 -1.338925714285714 -1.33896 -3.5097599999999995 0 -4.848719999999999L20.30304 2.7184902857142856ZM1.7142857142857142 24.467931428571426V44.57142857142857c0 0.9466285714285714 0.7675131428571428 1.7142857142857142 1.7142857142857142 1.7142857142857142h41.14285714285714c0.9466285714285714 0 1.7142857142857142 -0.7676571428571428 1.7142857142857142 -1.7142857142857142V24.46789714285714c0 -3.0770057142857143 -2.494285714285714 -5.571428571428571 -5.571428571428571 -5.571428571428571h-2.373942857142857c-1.183542857142857 0 -2.142857142857143 0.9594171428571429 -2.142857142857143 2.142857142857143 0 1.1834742857142857 0.9593142857142857 2.142857142857143 2.142857142857143 2.142857142857143h2.373942857142857c0.7100571428571428 0 1.2857142857142856 0.5756571428571428 1.2857142857142856 1.2857142857142856v8.580034285714286H6v-8.58c0 -0.7100914285714285 0.5756228571428571 -1.2857485714285715 1.2857142857142856 -1.2857485714285715h4.918559999999999c1.1834742857142857 0 2.142857142857143 -0.9593828571428571 2.142857142857143 -2.142857142857143 0 -1.1834399999999998 -0.9593828571428571 -2.142857142857143 -2.142857142857143 -2.142857142857143H7.285714285714286c-3.0770057142857143 0 -5.571428571428571 2.494422857142857 -5.571428571428571 5.5714628571428575Z" clip-rule="evenodd" stroke-width="3.4286"></path>
  </g>
</svg>