<svg xmlns="http://www.w3.org/2000/svg" fill="none" viewBox="0 0 48 48" id="Politics-Compaign--Streamline-Core-Remix" height="48" width="48">
  <desc>
    Politics Compaign Streamline Icon: https://streamlinehq.com
  </desc>
  <g id="Free Remix/Culture/politics-compaign">
    <path id="Union" fill="#000000" fill-rule="evenodd" d="M4.285714285714286 24c0 -3.5654742857142856 0.9465257142857142 -6.909874285714285 2.6019771428571428 -9.795634285714286h34.22465142857143c1.6553142857142857 2.88576 2.601942857142857 6.23016 2.601942857142857 9.795634285714286 0 3.5654742857142856 -0.9466285714285714 6.909874285714285 -2.601942857142857 9.795634285714286l-34.22465142857143 0C5.23224 30.909874285714285 4.285714285714286 27.565474285714284 4.285714285714286 24ZM0 24c0 -13.254822857142857 10.745177142857143 -24 24 -24 13.254857142857142 0 24 10.745177142857143 24 24 0 13.254857142857142 -10.745142857142856 24 -24 24 -13.254822857142857 0 -24 -10.745142857142856 -24 -24Zm13.53768 -3.926605714285714c0 -0.9468 -0.76752 -1.7142857142857142 -1.7142857142857142 -1.7142857142857142 -0.9468 0 -1.7142857142857142 0.7674857142857142 -1.7142857142857142 1.7142857142857142v1.2643885714285714l-1.38648 -0.4621371428571428c-0.8981828571428571 -0.2994171428571429 -1.8690171428571427 0.186 -2.1684342857142855 1.0842171428571428 -0.2993828571428571 0.8981828571428571 0.1860342857142857 1.8690171428571427 1.0842171428571428 2.1683999999999997l1.5136114285714284 0.5045485714285715 -1.1835771428571429 1.775382857142857c-0.5251885714285714 0.7877485714285714 -0.31230857142857144 1.8521142857142856 0.4754399999999999 2.3772685714285715 0.7877828571428571 0.5251885714285714 1.8521142857142856 0.31230857142857144 2.377302857142857 -0.4754399999999999l1.0022057142857144 -1.5033257142857144 1.0021714285714285 1.5033257142857144c0.5251885714285714 0.7877485714285714 1.5895542857142855 1.0006285714285714 2.377302857142857 0.4754399999999999 0.7877485714285714 -0.5251542857142857 1.0006285714285714 -1.58952 0.4754399999999999 -2.3772685714285715l-1.1835771428571429 -1.775382857142857 1.5136114285714284 -0.5045485714285715c0.8981828571428571 -0.2993828571428571 1.3836 -1.2702171428571427 1.0842171428571428 -2.1683999999999997 -0.2994171428571429 -0.8982171428571428 -1.2702514285714284 -1.3836342857142856 -2.1684342857142855 -1.0842171428571428l-1.3864457142857143 0.4621371428571428v-1.2643885714285714Zm10.32672 -1.7142857142857142c0.9467657142857142 0 1.7142857142857142 0.7674857142857142 1.7142857142857142 1.7142857142857142v1.2643885714285714l1.38648 -0.4621371428571428c0.8981828571428571 -0.2994171428571429 1.8690171428571427 0.186 2.1683999999999997 1.0842171428571428 0.2993828571428571 0.8981828571428571 -0.186 1.8690171428571427 -1.0842171428571428 2.1683999999999997l-1.5136114285714284 0.5045485714285715 1.1836114285714285 1.775382857142857c0.5251542857142857 0.7877485714285714 0.31230857142857144 1.8521142857142856 -0.4754742857142857 2.3772685714285715 -0.7877485714285714 0.5251885714285714 -1.8521142857142856 0.31230857142857144 -2.3772685714285715 -0.4754399999999999l-1.0022057142857144 -1.5033257142857144 -1.0022057142857144 1.5033257142857144c-0.5251542857142857 0.7877485714285714 -1.58952 1.0006285714285714 -2.3772685714285715 0.4754399999999999 -0.7877828571428571 -0.5251542857142857 -1.000662857142857 -1.58952 -0.4754742857142857 -2.3772685714285715l1.1835771428571429 -1.775382857142857 -1.5135771428571427 -0.5045485714285715c-0.8982171428571428 -0.2993828571428571 -1.3836342857142856 -1.2702171428571427 -1.0842171428571428 -2.1683999999999997 0.2993828571428571 -0.8982171428571428 1.2702171428571427 -1.3836342857142856 2.1683999999999997 -1.0842171428571428l1.38648 0.4621371428571428v-1.2643885714285714c0 -0.9468 0.76752 -1.7142857142857142 1.7142857142857142 -1.7142857142857142Zm13.755257142857142 1.7142857142857142c0 -0.9468 -0.7673142857142856 -1.7142857142857142 -1.7142857142857142 -1.7142857142857142 -0.9466285714285714 0 -1.7142514285714285 0.7674857142857142 -1.7142514285714285 1.7142857142857142v1.2643885714285714l-1.3864457142857143 -0.4621371428571428c-0.8982171428571428 -0.2994171428571429 -1.8690514285714284 0.186 -2.1684342857142855 1.0842171428571428 -0.2993828571428571 0.8981828571428571 0.1860342857142857 1.8690171428571427 1.0842171428571428 2.1683999999999997l1.5136114285714284 0.5045485714285715 -1.1836114285714285 1.775382857142857c-0.5251542857142857 0.7877485714285714 -0.31230857142857144 1.8521142857142856 0.4754742857142857 2.3772685714285715 0.7877485714285714 0.5251885714285714 1.8520114285714286 0.31230857142857144 2.3772685714285715 -0.4754399999999999l1.0021714285714285 -1.5033257142857144 1.0021714285714285 1.5033257142857144c0.5252571428571429 0.7877485714285714 1.5894857142857142 1.0006285714285714 2.3773714285714287 0.4754399999999999 0.7878857142857143 -0.5251542857142857 1.0004571428571427 -1.58952 0.4755428571428571 -2.3772685714285715l-1.183542857142857 -1.775382857142857 1.5133714285714286 -0.5045485714285715c0.8982857142857142 -0.2993828571428571 1.3837714285714287 -1.2702171428571427 1.0844571428571428 -2.1683999999999997 -0.29965714285714284 -0.8982171428571428 -1.2702857142857142 -1.3836342857142856 -2.168571428571428 -1.0842171428571428l-1.3865142857142856 0.4621371428571428v-1.2643885714285714Z" clip-rule="evenodd" stroke-width="3.4286"></path>
  </g>
</svg>