<svg xmlns="http://www.w3.org/2000/svg" fill="none" viewBox="0 0 48 48" id="Politics-Speech--Streamline-Core-Remix" height="48" width="48">
  <desc>
    Politics Speech Streamline Icon: https://streamlinehq.com
  </desc>
  <g id="Free Remix/Culture/politics-speech">
    <path id="Union" fill="#000000" fill-rule="evenodd" d="M24.000822857142854 0c-4.260479999999999 0 -7.7142857142857135 3.453805714285714 -7.7142857142857135 7.7142857142857135s3.453805714285714 7.7142857142857135 7.7142857142857135 7.7142857142857135 7.7142857142857135 -3.453805714285714 7.7142857142857135 -7.7142857142857135S28.261302857142855 0 24.000822857142854 0Zm12.48534857142857 27.72274285714286c-1.0429714285714287 -5.950525714285714 -6.235988571428571 -10.472742857142856 -12.48534857142857 -10.472742857142856 -6.249325714285714 0 -11.442445714285714 4.5222171428571425 -12.485485714285714 10.472742857142856H5.568068571428571c-1.1834399999999998 0 -2.142846857142857 0.9593828571428571 -2.142846857142857 2.142857142857143s0.9594068571428571 2.142857142857143 2.142846857142857 2.142857142857143h2.663005714285714l1.3497942857142855 14.05337142857143c0.11314285714285714 1.178057142857143 1.1598857142857142 2.0413714285714284 2.3379085714285712 1.9282285714285714 1.178057142857143 -0.11314285714285714 2.0413371428571425 -1.1598857142857142 1.9281599999999999 -2.3379428571428567l-1.3104342857142857 -13.643657142857142H35.46514285714285l-1.3102628571428572 13.643657142857142c-0.11317714285714284 1.178057142857143 0.7500342857142857 2.2248 1.9280914285714283 2.3379428571428567 1.178057142857143 0.11314285714285714 2.2248 -0.7501714285714285 2.3379428571428567 -1.9282285714285714l1.3498285714285714 -14.05337142857143h2.6636571428571427c1.183542857142857 0 2.142857142857143 -0.9593828571428571 2.142857142857143 -2.142857142857143s-0.9593142857142857 -2.142857142857143 -2.142857142857143 -2.142857142857143h-5.948228571428571Zm-12.48534857142857 6.595542857142856c-2.840297142857143 0 -5.142857142857142 2.302628571428571 -5.142857142857142 5.142857142857142s2.3025599999999997 5.142857142857142 5.142857142857142 5.142857142857142c2.8403314285714285 0 5.142857142857142 -2.302628571428571 5.142857142857142 -5.142857142857142s-2.3025257142857143 -5.142857142857142 -5.142857142857142 -5.142857142857142Z" clip-rule="evenodd" stroke-width="3.4286"></path>
  </g>
</svg>