<svg xmlns="http://www.w3.org/2000/svg" fill="none" viewBox="0 0 48 48" id="Polka-Dot-Circle--Streamline-Core-Remix" height="48" width="48">
  <desc>
    Polka Dot Circle Streamline Icon: https://streamlinehq.com
  </desc>
  <g id="Free Remix/Money Shopping/polka-dot-circle--crypto-circle-payment-blockchain-finance-polka-dot-currency">
    <path id="Union" fill="#000000" fill-rule="evenodd" d="M43.71771428571428 24.00342857142857c0 -10.889794285714286 -8.827885714285715 -19.717714285714287 -19.717645714285712 -19.717714285714287 -10.889794285714286 0 -19.717714285714287 8.827919999999999 -19.717714285714287 19.717714285714287 0 10.889828571428572 8.827919999999999 19.717714285714287 19.717714285714287 19.717714285714287 10.889759999999999 0 19.717645714285712 -8.827885714285715 19.717645714285712 -19.717714285714287ZM24.00006857142857 0C37.25691428571428 0 48.003428571428564 10.746685714285714 48.003428571428564 24.00342857142857c0 13.256571428571426 -10.746514285714285 24.00342857142857 -24.00336 24.00342857142857 -13.256708571428572 0 -24.003416784 -10.746857142857143 -24.003416784 -24.00342857142857C-0.0033482125714285713 10.746685714285714 10.74336 0 24.00006857142857 0Zm0.00013714285714285713 11.695199999999998c-4.4993485714285715 0 -8.111108571428572 3.7603199999999997 -8.111108571428572 8.431577142857142 0 1.1834399999999998 -0.9593828571428571 2.142857142857143 -2.142857142857143 2.142857142857143s-2.142857142857143 -0.9594171428571429 -2.142857142857143 -2.142857142857143c0 -6.864479999999999 5.360468571428571 -12.717291428571428 12.396822857142856 -12.717291428571428 6.9945257142857145 0 12.396822857142856 5.8096114285714275 12.396822857142856 12.396822857142856 0 6.50136 -5.319977142857143 12.717291428571428 -12.396822857142856 12.717291428571428 -1.5538971428571429 0 -3.1382399999999997 0.8964342857142857 -3.8882399999999997 2.588742857142857l-0.41948571428571424 2.097257142857143c-0.23207999999999998 1.1605714285714286 -1.3610057142857142 1.9131428571428573 -2.5214742857142856 1.6810285714285713 -1.160502857142857 -0.2321142857142857 -1.9131085714285714 -1.3607999999999998 -1.6809942857142857 -2.521371428571429l0.2807314285714285 -1.4036571428571427c-0.011828571428571428 -0.2561142857142857 0.022388571428571428 -0.5187428571428571 0.1082742857142857 -0.7764 0.03456 -0.10368 0.07073142857142857 -0.20616 0.10844571428571427 -0.3074057142857143l2.7068914285714287 -13.534422857142857c0.2321142857142857 -1.160502857142857 1.3610057142857142 -1.9131085714285714 2.5215085714285714 -1.6809942857142857 1.1604685714285714 0.23207999999999998 1.9130742857142857 1.3610057142857142 1.6809942857142857 2.5214742857142856l-1.4924914285714284 7.462457142857144c0.8395885714285714 -0.27209142857142854 1.7165485714285713 -0.4124228571428571 2.59584 -0.4124228571428571 4.458857142857142 0 8.111108571428572 -4.038068571428571 8.111108571428572 -8.431577142857142 0 -4.3076228571428565 -3.5699314285714285 -8.111108571428572 -8.111108571428572 -8.111108571428572Zm2.5634399999999995 28.038171428571424 0.023451428571428568 0c1.6151657142857143 -0.012685714285714286 2.920662857142857 -1.3258285714285714 2.920662857142857 -2.9437714285714285 0 -1.6261714285714284 -1.3180457142857143 -2.9441142857142855 -2.943942857142857 -2.9441142857142855l-0.023451428571428568 0.00013714285714285713c-1.6152 0.012514285714285714 -2.920662857142857 1.3256914285714285 -2.920662857142857 2.9439771428571424 0 1.6258285714285714 1.3180457142857143 2.9437714285714285 2.943942857142857 2.9437714285714285Z" clip-rule="evenodd" stroke-width="3.4286"></path>
  </g>
</svg>