<svg xmlns="http://www.w3.org/2000/svg" fill="none" viewBox="0 0 48 48" id="Polygon--Streamline-Core-Remix" height="48" width="48">
  <desc>
    Polygon Streamline Icon: https://streamlinehq.com
  </desc>
  <g id="Free Remix/Interface Essential/polygon--polygon-octangle-design-geometric-shape-shapes-shape">
    <path id="Vector" stroke="#000000" stroke-linecap="round" stroke-linejoin="round" stroke-width="4.2857" d="M33.196011428571424 44.84674285714285c-0.64296 0.6431999999999999 -1.514982857142857 1.0042285714285712 -2.4242399999999997 1.0042285714285712H17.221508571428572c-0.909222857142857 0 -1.7812457142857143 -0.3610285714285714 -2.4242057142857143 -1.0042285714285712L3.1472057142857137 33.19817142857143C2.504136 32.55517714285714 2.142857142857143 31.683051428571428 2.142857142857143 30.77365714285714V17.225794285714283c0 -0.9093600000000001 0.3612788571428571 -1.78152 1.0043485714285714 -2.4245142857142854L14.797302857142856 3.152571428571428c0.64296 -0.6428948571428571 1.514982857142857 -1.0040639999999998 2.4242057142857143 -1.0040639999999998H30.771771428571427c0.9092571428571428 0 1.78128 0.36116914285714286 2.4242399999999997 1.0040639999999998l11.650045714285714 11.64870857142857c0.6431999999999999 0.6429942857142857 1.0042285714285712 1.5151542857142855 1.0042285714285712 2.4245142857142854v13.547862857142857c0 0.9093942857142856 -0.3610285714285714 1.78152 -1.0042285714285712 2.4245142857142854l-11.650045714285714 11.648571428571428Z"></path>
  </g>
</svg>