<svg xmlns="http://www.w3.org/2000/svg" fill="none" viewBox="0 0 48 48" id="Pool-Ladder--Streamline-Core-Remix" height="48" width="48">
  <desc>
    Pool Ladder Streamline Icon: https://streamlinehq.com
  </desc>
  <g id="Free Remix/Map Travel/pool-ladder--pool-stairs-swim-swimming-water-ladder-hotel">
    <path id="Union" fill="#000000" fill-rule="evenodd" d="M8.142857142857142 3.4285714285714284c0 -1.1834674285714284 0.9593828571428571 -2.142857142857143 2.142857142857143 -2.142857142857143 4.023771428571428 0 7.285714285714286 3.261908571428571 7.285714285714286 7.285714285714286v3h12.857142857142856V8.571428571428571c0 -1.6568571428571428 -1.343142857142857 -3 -3 -3 -1.1834742857142857 0 -2.142857142857143 -0.9593828571428571 -2.142857142857143 -2.142857142857143 0 -1.1834674285714284 0.9593828571428571 -2.142857142857143 2.142857142857143 -2.142857142857143 4.023771428571428 0 7.285714285714286 3.261908571428571 7.285714285714286 7.285714285714286V30.857142857142854c0 1.1834742857142857 -0.9593828571428571 2.142857142857143 -2.142857142857143 2.142857142857143S30.428571428571427 32.04061714285714 30.428571428571427 30.857142857142854v-3h-12.857142857142856V30.857142857142854c0 1.1834742857142857 -0.9593828571428571 2.142857142857143 -2.142857142857143 2.142857142857143S13.285714285714285 32.04061714285714 13.285714285714285 30.857142857142854V8.571428571428571c0 -1.6568571428571428 -1.343142857142857 -3 -3 -3 -1.1834742857142857 0 -2.142857142857143 -0.9593828571428571 -2.142857142857143 -2.142857142857143Zm22.285714285714285 14.142857142857142v4.285714285714286h-12.857142857142856v-4.285714285714286h12.857142857142856Zm-16.285714285714285 21.428571428571427c0 -1.183542857142857 -0.9593828571428571 -2.142857142857143 -2.142857142857143 -2.142857142857143s-2.142857142857143 0.9593142857142857 -2.142857142857143 2.142857142857143c0 2.1301714285714284 -1.726902857142857 3.8571428571428568 -3.8571428571428568 3.8571428571428568 -0.5954742857142857 0 -1.1538171428571429 -0.13337142857142856 -1.6519542857142857 -0.36994285714285713 -0.6638742857142856 -0.3154285714285714 -1.4430685714285714 -0.2688 -2.064356571428571 0.12411428571428572 -0.6212914285714286 0.39257142857142857 -0.997974857142857 1.0762285714285713 -0.997974857142857 1.8113142857142857v1.4345142857142856c0 1.183542857142857 0.9593897142857143 2.142857142857143 2.142857142857143 2.142857142857143h41.14285714285714c1.183542857142857 0 2.142857142857143 -0.9593142857142857 2.142857142857143 -2.142857142857143v-1.4345142857142856c0 -0.7350857142857142 -0.37679999999999997 -1.418742857142857 -0.9980571428571429 -1.8113142857142857 -0.6212571428571428 -0.39291428571428566 -1.4005714285714284 -0.4395428571428571 -2.064342857142857 -0.12411428571428572 -0.4981714285714286 0.23657142857142857 -1.056342857142857 0.36994285714285713 -1.6518857142857142 0.36994285714285713 -2.1301714285714284 0 -3.8571428571428568 -1.7269714285714286 -3.8571428571428568 -3.8571428571428568 0 -1.183542857142857 -0.9593142857142857 -2.142857142857143 -2.142857142857143 -2.142857142857143s-2.142857142857143 0.9593142857142857 -2.142857142857143 2.142857142857143c0 2.1301714285714284 -1.726902857142857 3.8571428571428568 -3.8571428571428568 3.8571428571428568s-3.8571428571428568 -1.7269714285714286 -3.8571428571428568 -3.8571428571428568c0 -1.183542857142857 -0.9593828571428571 -2.142857142857143 -2.142857142857143 -2.142857142857143s-2.142857142857143 0.9593142857142857 -2.142857142857143 2.142857142857143c0 2.1301714285714284 -1.726902857142857 3.8571428571428568 -3.8571428571428568 3.8571428571428568s-3.8571428571428568 -1.7269714285714286 -3.8571428571428568 -3.8571428571428568Z" clip-rule="evenodd" stroke-width="3.4286"></path>
  </g>
</svg>