<svg xmlns="http://www.w3.org/2000/svg" fill="none" viewBox="0 0 48 48" id="Popcorn--Streamline-Core-Remix" height="48" width="48">
  <desc>
    Popcorn Streamline Icon: https://streamlinehq.com
  </desc>
  <g id="Free Remix/Food Drink/popcorn--cook-corn-movie-snack-cooking-nutrition-bake-popcorn">
    <path id="Union" fill="#000000" fill-rule="evenodd" d="M14.142857142857142 9c0 -2.6036228571428572 2.110662857142857 -4.714285714285714 4.714285714285714 -4.714285714285714 1.4077371428571428 0 2.6693142857142855 0.6143314285714285 3.536262857142857 1.5965828571428569 0.40676571428571423 0.46086857142857146 0.9918857142857143 0.7248685714285714 1.6065942857142856 0.7248685714285714s1.1998285714285712 -0.26399999999999996 1.6065942857142856 -0.7248685714285714C26.473542857142856 4.900045714285714 27.735120000000002 4.285714285714286 29.142857142857142 4.285714285714286c2.6036228571428572 0 4.714285714285714 2.110662857142857 4.714285714285714 4.714285714285714 0 0.43536 -0.05845714285714285 0.8536457142857142 -0.16669714285714285 1.2490971428571427 -0.19474285714285713 0.7114285714285714 -0.009908571428571428 1.4730171428571428 0.48929142857142854 2.016034285714286 0.49923428571428563 0.5430171428571428 1.2425485714285713 0.7911085714285714 1.9680342857142856 0.6567428571428571 0.22834285714285715 -0.042308571428571425 0.4652571428571428 -0.06473142857142856 0.7093714285714285 -0.06473142857142856 2.1301714285714284 0 3.8571428571428568 1.726902857142857 3.8571428571428568 3.8571428571428568 0 0.7936457142857142 -0.2382857142857143 1.5295885714285715 -0.6490285714285714 2.142857142857143H7.934845714285714c-0.4109485714285714 -0.6132685714285714 -0.6491314285714286 -1.3492114285714285 -0.6491314285714286 -2.142857142857143 0 -2.1302399999999997 1.726902857142857 -3.8571428571428568 3.8571428571428568 -3.8571428571428568 0.2441142857142857 0 0.48109714285714283 0.02242285714285714 0.7095428571428571 0.06473142857142856 0.7252457142857143 0.13436571428571428 1.468662857142857 -0.11372571428571428 1.9678628571428571 -0.6567428571428571s0.6840342857142857 -1.3046057142857144 0.48929142857142854 -2.0160685714285713C14.201314285714286 9.853679999999999 14.142857142857142 9.43536 14.142857142857142 9ZM4.80870857142857 21.831599999999998C3.6789942857142854 20.434285714285714 3 18.652182857142858 3 16.71428571428571c0 -4.061725714285713 2.9738742857142855 -7.428891428571428 6.86304 -8.042845714285713C10.035942857142857 3.8530628571428567 13.996559999999999 0 18.857142857142858 0c1.9119771428571428 0 3.6857142857142855 0.5975622857142857 5.142857142857142 1.6135714285714284C25.457142857142856 0.5975622857142857 27.23088 0 29.142857142857142 0c4.860582857142857 0 8.821371428571428 3.8530628571428567 8.994171428571429 8.67144 3.8890285714285717 0.6139542857142857 6.862971428571428 3.9811199999999998 6.862971428571428 8.042845714285713 0 1.9378971428571425 -0.6788571428571428 3.7199999999999998 -1.8085714285714283 5.1173142857142855l-2.946171428571428 21.358114285714283c-0.3802285714285714 2.7569142857142857 -2.736342857142857 4.8102857142857145 -5.518971428571428 4.8102857142857145H13.273851428571428c-2.7828685714285712 0 -5.138948571428571 -2.0533714285714284 -5.519177142857143 -4.8102857142857145l-2.9459657142857143 -21.358114285714283ZM21.428571428571427 23.142857142857142v20.57142857142857h5.142857142857142v-20.57142857142857h-5.142857142857142Z" clip-rule="evenodd" stroke-width="3.4286"></path>
  </g>
</svg>