<svg xmlns="http://www.w3.org/2000/svg" fill="none" viewBox="0 0 48 48" id="Pork-Meat--Streamline-Core-Remix" height="48" width="48">
  <desc>
    Pork Meat Streamline Icon: https://streamlinehq.com
  </desc>
  <g id="Free Remix/Food Drink/pork-meat">
    <path id="Union" fill="#000000" fill-rule="evenodd" d="M7.815462857142857 1.5119417142857143c-0.6303771428571429 -0.31518857142857143 -1.37544 -0.3002502857142857 -1.9926857142857144 0.039953142857142854 -0.6172457142857143 0.34019999999999995 -1.0277142857142858 0.9621668571428571 -1.097862857142857 1.6634537142857142L3.3513942857142855 16.95061714285714C2.0269885714285714 19.61526857142857 1.2857142857142856 22.58506285714286 1.2857142857142856 25.71428571428571c0 11.769599999999999 10.34886857142857 21 22.71428571428571 21 12.365485714285713 0 22.71428571428571 -9.2304 22.71428571428571 -21 0 -3.129222857142857 -0.7412571428571428 -6.099017142857143 -2.065714285714286 -8.763668571428571L43.275085714285716 3.2153485714285712c-0.07028571428571428 -0.7012868571428571 -0.4806857142857142 -1.3232502857142856 -1.0978285714285714 -1.6634537142857142 -0.6171428571428571 -0.34020342857142855 -1.3621714285714284 -0.3551417142857142 -1.9926857142857144 -0.039953142857142854L31.46142857142857 5.873485714285714C29.120434285714285 5.121428571428571 26.60893714285714 4.714285714285714 24 4.714285714285714s-5.1204342857142855 0.4071428571428571 -7.461428571428571 1.1592L7.815462857142857 1.5119417142857143ZM7.575737142857142 17.778137142857144l1.10424 -11.042365714285713 6.745302857142857 3.3726514285714284c0.5274514285714286 0.2637257142857143 1.14024 0.29842285714285716 1.6940571428571427 0.09596571428571428C19.240457142857142 9.429017142857143 21.561565714285713 9 24 9c2.4384342857142856 0 4.759542857142857 0.4290171428571428 6.880662857142857 1.2043885714285714 0.5538514285714286 0.20245714285714284 1.1666057142857142 0.16776 1.6940571428571427 -0.09596571428571428l6.745165714285714 -3.3726514285714284 1.104342857142857 11.042365714285713c0.027428571428571427 0.27281142857142854 0.10662857142857142 0.53784 0.2338285714285714 0.7807542857142857 1.1372571428571427 2.172171428571428 1.7705142857142855 4.596411428571428 1.7705142857142855 7.155394285714285 0 9.059314285714285 -8.071542857142857 16.71428571428571 -18.428571428571427 16.71428571428571 -10.357131428571428 0 -18.428571428571427 -7.654971428571428 -18.428571428571427 -16.71428571428571 0 -2.558982857142857 0.6331199999999999 -4.983188571428571 1.770445714285714 -7.155394285714285 0.1272 -0.24287999999999998 0.20657142857142854 -0.5079428571428571 0.23386285714285715 -0.7807542857142857ZM14.571428571428571 19.71428571428571c-1.6568571428571428 0 -3 -1.343142857142857 -3 -3S12.914571428571428 13.714285714285714 14.571428571428571 13.714285714285714s3 1.343142857142857 3 3 -1.343142857142857 3 -3 3Zm19.71428571428571 0c-1.6568571428571428 0 -3 -1.343142857142857 -3 -3S32.62885714285714 13.714285714285714 34.285714285714285 13.714285714285714c1.6566857142857143 0 3 1.343142857142857 3 3s-1.3433142857142857 3 -3 3ZM24 37.714285714285715c5.680628571428571 0 10.285714285714285 -3.837565714285714 10.285714285714285 -8.571428571428571S29.68062857142857 20.57142857142857 24 20.57142857142857 13.714285714285714 24.408994285714286 13.714285714285714 29.142857142857142 18.319371428571426 37.714285714285715 24 37.714285714285715Zm-1.7142857142857142 -9.857142857142856c0 -1.1834742857142857 -0.9593828571428571 -2.142857142857143 -2.142857142857143 -2.142857142857143s-2.142857142857143 0.9593828571428571 -2.142857142857143 2.142857142857143v2.571428571428571c0 1.1834742857142857 0.9593828571428571 2.142857142857143 2.142857142857143 2.142857142857143s2.142857142857143 -0.9593828571428571 2.142857142857143 -2.142857142857143v-2.571428571428571ZM27.857142857142854 25.71428571428571c1.1834742857142857 0 2.142857142857143 0.9593828571428571 2.142857142857143 2.142857142857143v2.571428571428571c0 1.1834742857142857 -0.9593828571428571 2.142857142857143 -2.142857142857143 2.142857142857143S25.71428571428571 31.61204571428571 25.71428571428571 30.428571428571427v-2.571428571428571c0 -1.1834742857142857 0.9593828571428571 -2.142857142857143 2.142857142857143 -2.142857142857143Z" clip-rule="evenodd" stroke-width="3.4286"></path>
  </g>
</svg>