<svg xmlns="http://www.w3.org/2000/svg" fill="none" viewBox="0 0 48 48" id="Potted-Flower-Tulip--Streamline-Core-Remix" height="48" width="48">
  <desc>
    Potted Flower Tulip Streamline Icon: https://streamlinehq.com
  </desc>
  <g id="Free Remix/Nature Ecology/potted-flower-tulip--nature-flower-plant-tree-pot">
    <path id="Union" fill="#000000" fill-rule="evenodd" d="M13.063165714285715 0.2823363428571428C12.399942857142856 -0.09664697142857143 11.585142857142856 -0.09392605714285714 10.924457142857143 0.28947839999999997 10.263771428571427 0.6728811428571427 9.857142857142856 1.378992 9.857142857142856 2.142857142857143v12c0 7.082434285714286 5.205977142857143 12.948925714285714 12 13.981577142857143v8.01408C19.325657142857143 32.89484571428571 15.386125714285713 30.857142857142854 11.04089142857143 30.857142857142854H4.714285714285714c-0.5117142857142857 0 -0.9966857142857143 0.22861714285714285 -1.322334857142857 0.6233485714285714 -0.3256525714285714 0.3947314285714285 -0.45794057142857136 0.9142971428571429 -0.36070285714285716 1.4166857142857143l0.7400777142857142 3.823508571428571c1.2225599999999999 6.3168 6.671931428571428 10.9344 13.103622857142856 11.103771428571427l6.651394285714286 0.17485714285714285c0.16138285714285713 0.004457142857142857 0.3206742857142857 -0.014057142857142858 0.47365714285714283 -0.05382857142857142 0.15301714285714285 0.03977142857142857 0.31230857142857144 0.05828571428571429 0.47369142857142854 0.05382857142857142l6.651394285714286 -0.17485714285714285c6.4318285714285715 -0.16937142857142856 11.8812 -4.786971428571428 13.103485714285714 -11.103771428571427l0.7402285714285715 -3.823508571428571c0.09737142857142857 -0.5023885714285714 -0.03497142857142857 -1.0219542857142856 -0.3606857142857143 -1.4166857142857143C44.282399999999996 31.085759999999997 43.797599999999996 30.857142857142854 43.285714285714285 30.857142857142854h-6.326742857142857c-4.345062857142857 0 -8.284594285714284 2.037702857142857 -10.816114285714285 5.281371428571428V28.12443428571428c6.794022857142856 -1.0326514285714286 12 -6.899142857142857 12 -13.981577142857143v-12c0 -0.7638651428571428 -0.4066285714285714 -1.469976 -1.0673142857142857 -1.8533787428571427 -0.6606857142857143 -0.38340445714285715 -1.4753142857142856 -0.3861253714285714 -2.1387428571428573 -0.007142057142857143L24 6.5319771428571425 13.063165714285715 0.2823363428571428ZM14.142857142857142 14.142857142857142V5.835394285714285l8.794011428571428 5.025119999999999c0.6587657142857143 0.3764571428571428 1.4675314285714285 0.3764571428571428 2.1262971428571427 0L33.857142857142854 5.835394285714285V14.142857142857142C33.857142857142854 19.586811428571426 29.443954285714288 24 24 24 18.556079999999998 24 14.142857142857142 19.586811428571426 14.142857142857142 14.142857142857142Z" clip-rule="evenodd" stroke-width="3.4286"></path>
  </g>
</svg>