<svg xmlns="http://www.w3.org/2000/svg" fill="none" viewBox="0 0 48 48" id="Praying-Hand--Streamline-Core-Remix" height="48" width="48">
  <desc>
    Praying Hand Streamline Icon: https://streamlinehq.com
  </desc>
  <g id="Free Remix/Interface Essential/praying-hand">
    <path id="Union" fill="#000000" fill-rule="evenodd" d="M24 0c1.1834742857142857 0 2.142857142857143 0.9593897142857143 2.142857142857143 2.142857142857143V5.142857142857142c0 1.1834742857142857 -0.9593828571428571 2.142857142857143 -2.142857142857143 2.142857142857143s-2.142857142857143 -0.9593828571428571 -2.142857142857143 -2.142857142857143V2.142857142857143C21.857142857142858 0.9593897142857143 22.816525714285714 0 24 0Zm13.515085714285714 1.9133417142857143c0.8369142857142857 0.8368388571428571 0.8369142857142857 2.193606857142857 0 3.030452571428571l-1.7142857142857142 1.7142857142857142c-0.8365714285714285 0.8368457142857142 -2.193462857142857 0.8368457142857142 -3.030308571428571 0 -0.8368457142857142 -0.8368457142857142 -0.8368457142857142 -2.1936 0 -3.030445714285714l1.7144228571428572 -1.714292571428571c0.8365714285714285 -0.8368354285714285 2.1936 -0.8368354285714285 3.0301714285714283 0Zm-23.999862857142855 0c-0.8368457142857142 -0.8368354285714285 -2.1936 -0.8368354285714285 -3.030445714285714 0 -0.8368457142857142 0.8368388571428571 -0.8368457142857142 2.193606857142857 0 3.030452571428571l1.7142857142857142 1.7142857142857142c0.8368457142857142 0.8368457142857142 2.1936 0.8368457142857142 3.030445714285714 0 0.8368457142857142 -0.8368457142857142 0.8368457142857142 -2.1936 0 -3.030445714285714l-1.7142857142857142 -1.714292571428571ZM28.489268571428568 28.570182857142854c-0.12620571428571428 -0.757302857142857 -0.9726514285714285 -1.1526857142857143 -1.6344342857142857 -0.7634057142857142 -0.36497142857142856 0.21469714285714284 -0.57336 0.6207085714285714 -0.5350285714285714 1.042422857142857l0.39466285714285715 4.341291428571428C27.256285714285713 39.15085714285714 32.2536 43.714285714285715 38.23851428571429 43.714285714285715h7.618628571428571c1.183542857142857 0 2.142857142857143 0.9593142857142857 2.142857142857143 2.142857142857143s-0.9593142857142857 2.142857142857143 -2.142857142857143 2.142857142857143h-7.618628571428571C32.02909714285714 48 26.59549714285714 44.41542857142857 24 39.129257142857135 21.404502857142855 44.41542857142857 15.970902857142855 48 9.761622857142857 48H2.142857142857143C0.9593897142857143 48 0 47.040685714285715 0 45.857142857142854s0.9593897142857143 -2.142857142857143 2.142857142857143 -2.142857142857143h7.618765714285714c5.984777142857142 0 10.982091428571428 -4.563428571428571 11.52390857142857 -10.523794285714287l0.39466285714285715 -4.341291428571428c0.03833142857142857 -0.4217142857142857 -0.17005714285714285 -0.8277257142857142 -0.5350285714285714 -1.042422857142857 -0.6617828571428571 -0.38927999999999996 -1.5082285714285715 0.0061028571428571425 -1.6344342857142857 0.7634057142857142L18.570857142857143 34.20942857142857c-0.19457142857142856 1.1672571428571428 -1.29864 1.9558285714285715 -2.4659999999999997 1.7614285714285716 -1.16736 -0.19474285714285713 -1.9559657142857143 -1.2987428571428572 -1.7614285714285716 -2.4659999999999997l0.9398742857142857 -5.639245714285714c0.31803428571428566 -1.9080685714285714 1.5660685714285714 -3.3487542857142856 3.1452685714285713 -4.042285714285714v-8.609142857142857c0 -0.5479542857142856 -0.2579657142857143 -1.0639199999999998 -0.6963428571428572 -1.3926857142857143 -1.0642628571428572 -0.7982057142857142 -2.594262857142857 -0.15606857142857142 -2.7700799999999997 1.1625942857142857l-2.1556457142857144 16.16742857142857c-0.36905142857142853 2.7679199999999997 -2.730137142857143 4.835108571428571 -5.522571428571428 4.835108571428571H2.142857142857143c-1.1834674285714284 0 -2.142857142857143 -0.9593142857142857 -2.142857142857143 -2.1428914285714282 0 -1.1834399999999998 0.9593897142857143 -2.142857142857143 2.142857142857143 -2.142857142857143h5.141074285714285c0.6444 0 1.1892685714285713 -0.47701714285714286 1.2744342857142856 -1.1157599999999999l2.15568 -16.16742857142857C11.322719999999999 9.852651428571427 16.619314285714285 7.629668571428571 20.30365714285714 10.392925714285715c1.51752 1.1381485714285713 2.410628571428571 2.924331428571428 2.410628571428571 4.821257142857142v8.59128c0.20396571428571428 0.08842285714285714 0.4055657142857143 0.19069714285714284 0.6038057142857142 0.30730285714285716 0.24164571428571427 0.1421485714285714 0.46930285714285713 0.3013371428571428 0.6819085714285714 0.4754399999999999 0.2126057142857143 -0.17410285714285714 0.4402628571428571 -0.33329142857142857 0.6819085714285714 -0.4754399999999999 0.19824 -0.11660571428571427 0.39984 -0.21887999999999996 0.6038057142857142 -0.30730285714285716V15.21582857142857c0 -1.8968914285714285 0.8931085714285714 -3.6830742857142855 2.410628571428571 -4.821222857142857 3.684342857142857 -2.763257142857143 8.9808 -0.5402742857142857 9.589714285714285 4.024731428571428l2.155542857142857 16.16742857142857c0.08502857142857143 0.6387771428571428 0.6301714285714285 1.1157942857142857 1.2743999999999998 1.1157942857142857h5.1411428571428575c1.183542857142857 0 2.142857142857143 0.9593828571428571 2.142857142857143 2.142857142857143 0 1.1836114285714285 -0.9593142857142857 2.142925714285714 -2.142857142857143 2.142925714285714h-5.1411428571428575c-2.7922285714285713 0 -5.153485714285714 -2.0672228571428573 -5.5224 -4.8351428571428565l-2.155748571428571 -16.16742857142857c-0.17581714285714284 -1.3186628571428571 -1.7058171428571427 -1.9607999999999999 -2.7700799999999997 -1.1625942857142857 -0.43837714285714285 0.3287657142857143 -0.6963428571428572 0.8447314285714285 -0.6963428571428572 1.3926514285714284v8.607497142857143c1.5792 0.6935314285714285 2.8272342857142854 2.134217142857143 3.1452685714285713 4.042285714285714l0.9398742857142857 5.639245714285714c0.19453714285714285 1.1672571428571428 -0.5940685714285714 2.271257142857143 -1.7614285714285716 2.4659999999999997 -1.16736 0.1944 -2.2714285714285714 -0.5941714285714286 -2.4659999999999997 -1.7614285714285716l-0.9398742857142857 -5.639245714285714Z" clip-rule="evenodd" stroke-width="3.4286"></path>
  </g>
</svg>