<svg xmlns="http://www.w3.org/2000/svg" fill="none" viewBox="0 0 48 48" id="Prescription-Pills-Drugs-Healthcare--Streamline-Core-Remix" height="48" width="48">
  <desc>
    Prescription Pills Drugs Healthcare Streamline Icon: https://streamlinehq.com
  </desc>
  <g id="Free Remix/Health/prescription-pills-drugs-healthcare">
    <path id="Union" fill="#000000" fill-rule="evenodd" d="M3.361608 2.142857142857143c0 -1.1834674285714284 0.9593862857142856 -2.142857142857143 2.1428605714285713 -2.142857142857143h19.335154285714285C31.130228571428574 0 36.22971428571429 5.09952 36.22971428571429 11.390125714285714c0 6.290571428571429 -5.099485714285714 11.390091428571427 -11.390091428571427 11.390091428571427H21.011245714285714l10.15326857142857 9.518674285714285 9.814114285714284 -9.814114285714284c0.8369142857142857 -0.8368457142857142 2.1936 -0.8368457142857142 3.0305142857142857 0 0.8369142857142857 0.8368457142857142 0.8369142857142857 2.1936 0 3.030445714285714l-9.716571428571429 9.716434285714284 9.666857142857143 9.0624c0.8633142857142857 0.8094857142857143 0.9068571428571428 2.1654857142857145 0.09771428571428571 3.0287999999999995 -0.8094857142857143 0.8633142857142857 -2.1654857142857145 0.9072 -3.029142857142857 0.09771428571428571l-9.767314285714287 -9.15702857142857 -9.108754285714285 9.108685714285713c-0.8368114285714285 0.8369142857142857 -2.1936 0.8369142857142857 -3.030445714285714 0 -0.8368457142857142 -0.8365714285714285 -0.8368457142857142 -2.1936 0 -3.0301714285714283l9.010971428571429 -9.010971428571429 -13.387405714285713 -12.550868571428571H7.647325714285714v19.714182857142855c0 1.183542857142857 -0.9593828571428571 2.142857142857143 -2.142857142857143 2.142857142857143s-2.1428605714285713 -0.9593142857142857 -2.1428605714285713 -2.142857142857143V2.142857142857143ZM7.647325714285714 18.49450285714286h17.192297142857143c3.923657142857143 0 7.104411428571428 -3.1807542857142854 7.104411428571428 -7.1043771428571425 0 -3.923657142857143 -3.1807542857142854 -7.104411428571428 -7.104411428571428 -7.104411428571428H7.647325714285714v14.208788571428572Z" clip-rule="evenodd" stroke-width="3.4286"></path>
  </g>
</svg>