<svg xmlns="http://www.w3.org/2000/svg" fill="none" viewBox="0 0 48 48" id="Printer--Streamline-Core-Remix" height="48" width="48">
  <desc>
    Printer Streamline Icon: https://streamlinehq.com
  </desc>
  <g id="Free Remix/Computer Devices/printer--scan-device-electronics-printer-print-computer">
    <path id="Union" fill="#000000" fill-rule="evenodd" d="M10.986857142857142 2.415445714285714C11.710217142857143 1.6920891428571427 12.691302857142857 1.2857142857142856 13.714285714285714 1.2857142857142856h20.57142857142857c1.0230857142857142 0 2.004 0.40637485714285715 2.7274285714285713 1.1297314285714284 0.7234285714285713 0.7233565714285713 1.1297142857142857 1.7044285714285712 1.1297142857142857 2.727411428571428v8.142857142857142H41.14285714285714c1.4777142857142855 0 2.894742857142857 0.5870057142857142 3.9394285714285715 1.6318285714285712 1.0450285714285714 1.044857142857143 1.632 2.4619542857142855 1.632 3.9395999999999995V34.285714285714285c0 1.4777142857142855 -0.5869714285714285 2.894742857142857 -1.632 3.9394285714285715 -1.0446857142857142 1.0450285714285714 -2.4617142857142853 1.632 -3.9394285714285715 1.632h-4.714285714285714v3c0 1.0230857142857142 -0.40628571428571425 2.004 -1.1297142857142857 2.7274285714285713 -0.7234285714285713 0.7234285714285713 -1.7044457142857143 1.1297142857142857 -2.7274285714285713 1.1297142857142857h-17.142857142857142c-1.0229828571428572 0 -2.0040685714285713 -0.40628571428571425 -2.7274285714285713 -1.1297142857142857 -0.7233257142857142 -0.7234285714285713 -1.1297142857142857 -1.704342857142857 -1.1297142857142857 -2.7274285714285713v-3H6.857142857142857c-1.477645714285714 0 -2.894742857142857 -0.5869714285714285 -3.939596571428571 -1.632C1.8727028571428572 37.18045714285714 1.2857142857142856 35.76342857142857 1.2857142857142856 34.285714285714285V18.857142857142858c0 -1.477645714285714 0.5869885714285714 -2.894742857142857 1.631832 -3.9395999999999995C3.9623999999999997 13.872720000000001 5.379497142857143 13.285714285714285 6.857142857142857 13.285714285714285h3V5.142857142857142c0 -1.0229828571428572 0.4063885714285714 -2.0040582857142852 1.1297142857142857 -2.727411428571428ZM14.142857142857142 13.285714285714285h19.71428571428571v-7.7142857142857135h-19.71428571428571v7.7142857142857135Zm1.7142857142857142 19.71428571428571v9.428571428571429h16.285714285714285v-9.428571428571429h-16.285714285714285ZM32.14285714285714 22.285714285714285c0 -1.1834742857142857 0.9593828571428571 -2.142857142857143 2.142857142857143 -2.142857142857143h3.4285714285714284c1.183542857142857 0 2.142857142857143 0.9593828571428571 2.142857142857143 2.142857142857143s-0.9593142857142857 2.142857142857143 -2.142857142857143 2.142857142857143h-3.4285714285714284c-1.1834742857142857 0 -2.142857142857143 -0.9593828571428571 -2.142857142857143 -2.142857142857143Z" clip-rule="evenodd" stroke-width="3.4286"></path>
  </g>
</svg>