<svg xmlns="http://www.w3.org/2000/svg" fill="none" viewBox="0 0 48 48" id="Production-Belt--Streamline-Core-Remix" height="48" width="48">
  <desc>
    Production Belt Streamline Icon: https://streamlinehq.com
  </desc>
  <g id="Free Remix/Money Shopping/production-belt--production-produce-box-belt-factory-product-package-business">
    <path id="Union" fill="#000000" fill-rule="evenodd" d="M11.773165714285714 5.5602857142857145v21.008879999999998c0.011588571428571429 0.0014057142857142855 0.024514285714285714 0.002262857142857143 0.03888 0.002262857142857143H35.81142857142857c0.014057142857142858 0 0.027085714285714286 -0.0008571428571428571 0.03874285714285714 -0.002262857142857143V5.5602857142857145c-0.011657142857142856 -0.0014057142857142855 -0.024685714285714283 -0.002262857142857143 -0.03874285714285714 -0.002262857142857143H29.033074285714285v7.587565714285714c0 0.7800685714285713 -0.34909714285714283 1.4825142857142857 -0.892662857142857 1.9673485714285714 -0.5371542857142857 0.47914285714285715 -1.2277714285714285 0.72 -1.9124914285714285 0.72H21.39696c-0.6847542857142858 0 -1.3753371428571428 -0.24085714285714288 -1.9124914285714285 -0.72 -0.5435657142857142 -0.4848342857142857 -0.892662857142857 -1.1872457142857142 -0.892662857142857 -1.9673485714285714V5.5580228571428565H11.812045714285714c-0.014365714285714285 0 -0.02729142857142857 0.0008571428571428571 -0.03888 0.002262857142857143Zm-4.285714285714286 21.20790857142857c0 0.19127999999999998 0.012891428571428571 0.37731428571428566 0.03771428571428571 0.5578628571428571C3.8634514285714285 28.833737142857146 1.2857142857142856 32.43726857142857 1.2857142857142856 36.64285714285714c0 5.562171428571428 4.50912 10.071428571428571 10.071428571428571 10.071428571428571h25.285714285714285c5.562171428571428 0 10.071428571428571 -4.509257142857142 10.071428571428571 -10.071428571428571 0 -4.342114285714286 -2.747657142857143 -8.042434285714284 -6.599314285714286 -9.456925714285713 0.013714285714285714 -0.1362857142857143 0.020914285714285715 -0.2755885714285714 0.020914285714285715 -0.41773714285714286V5.361257142857143c0 -2.4819942857142854 -2.1730285714285715 -4.088934857142857 -4.324457142857143 -4.088934857142857H11.812045714285714c-2.1515314285714284 0 -4.324594285714285 1.6069405714285714 -4.324594285714285 4.088934857142857v21.406937142857142ZM11.357142857142856 30.857142857142854h25.285714285714285c3.1954285714285713 0 5.785714285714286 2.5903542857142856 5.785714285714286 5.785714285714286 0 3.1954285714285713 -2.590285714285714 5.785714285714286 -5.785714285714286 5.785714285714286h-25.285714285714285c-3.19536 0 -5.785714285714286 -2.590285714285714 -5.785714285714286 -5.785714285714286C5.571428571428571 33.447497142857145 8.161782857142857 30.857142857142854 11.357142857142856 30.857142857142854Zm-1.1232342857142856 5.785714285714286c0 1.4201142857142857 1.1512799999999999 2.571428571428571 2.571428571428571 2.571428571428571 1.420182857142857 0 2.571428571428571 -1.1513142857142855 2.571428571428571 -2.571428571428571s-1.1512457142857142 -2.571428571428571 -2.571428571428571 -2.571428571428571c-1.4201485714285715 0 -2.571428571428571 1.1513142857142855 -2.571428571428571 2.571428571428571Zm11.194457142857143 0c0 1.4201142857142857 1.1512799999999999 2.571428571428571 2.571428571428571 2.571428571428571s2.571428571428571 -1.1513142857142855 2.571428571428571 -2.571428571428571 -1.1512799999999999 -2.571428571428571 -2.571428571428571 -2.571428571428571 -2.571428571428571 1.1513142857142855 -2.571428571428571 2.571428571428571Zm11.194422857142856 0c0 1.4201142857142857 1.1512799999999999 2.571428571428571 2.571497142857143 2.571428571428571 1.4201142857142857 0 2.571428571428571 -1.1513142857142855 2.571428571428571 -2.571428571428571s-1.1513142857142855 -2.571428571428571 -2.571428571428571 -2.571428571428571c-1.4202171428571428 0 -2.571497142857143 1.1513142857142855 -2.571497142857143 2.571428571428571Z" clip-rule="evenodd" stroke-width="3.4286"></path>
  </g>
</svg>