<svg xmlns="http://www.w3.org/2000/svg" fill="none" viewBox="0 0 48 48" id="Projector-Board--Streamline-Core-Remix" height="48" width="48">
  <desc>
    Projector Board Streamline Icon: https://streamlinehq.com
  </desc>
  <g id="Free Remix/Interface Essential/projector-board--projector-screen-work-meeting-presentation">
    <path id="Union" fill="#000000" fill-rule="evenodd" d="M5.571428571428571 30.857142857142854V12h36.857142857142854V30.857142857142854c0 0.7100914285714285 -0.5756571428571428 1.2857142857142856 -1.2857142857142856 1.2857142857142856H6.857142857142857c-0.7100914285714285 0 -1.2857142857142856 -0.5756228571428571 -1.2857142857142856 -1.2857142857142856ZM1.2857142857142856 6.857142857142857C1.2857142857142856 3.780137142857143 3.780137142857143 1.2857142857142856 6.857142857142857 1.2857142857142856h34.285714285714285c3.077142857142857 0 5.571428571428571 2.494422857142857 5.571428571428571 5.571428571428571v24c0 3.0770057142857143 -2.494285714285714 5.571428571428571 -5.571428571428571 5.571428571428571h-5.614628571428571l6.021599999999999 6.021599999999999c1.171542857142857 1.171542857142857 1.171542857142857 3.0709714285714287 0 4.242514285714286s-3.0709714285714287 1.171542857142857 -4.242514285714286 0L27.043062857142854 36.42857142857142H27V44.57142857142857c0 1.6566857142857143 -1.343142857142857 3 -3 3s-3 -1.3433142857142857 -3 -3v-8.142857142857142h-0.04306285714285714l-10.264182857142858 10.264114285714285c-1.1715771428571429 1.171542857142857 -3.0710742857142854 1.171542857142857 -4.2426514285714285 0 -1.1715771428571429 -1.171542857142857 -1.1715771428571429 -3.0709714285714287 0 -4.242514285714286l6.0215314285714285 -6.021599999999999H6.857142857142857C3.780137142857143 36.42857142857142 1.2857142857142856 33.93414857142857 1.2857142857142856 30.857142857142854V6.857142857142857Z" clip-rule="evenodd" stroke-width="3.4286"></path>
  </g>
</svg>