<svg xmlns="http://www.w3.org/2000/svg" fill="none" viewBox="0 0 48 48" id="Pyramid-Shape--Streamline-Core-Remix" height="48" width="48">
  <desc>
    Pyramid Shape Streamline Icon: https://streamlinehq.com
  </desc>
  <g id="Free Remix/Interface Essential/pyramid-shape">
    <path id="Union" fill="#000000" fill-rule="evenodd" d="M24.000822857142854 4.799554285714286c0.4209257142857143 0 0.8418514285714286 0.20300571428571426 1.0932 0.6089828571428572L42.42514285714286 33.40525714285714c0.4066285714285714 0.6564685714285714 0.14674285714285712 1.5205714285714285 -0.5544 1.8442285714285716l-17.331154285714284 7.998857142857143c-0.1709142857142857 0.07885714285714285 -0.3548571428571428 0.11828571428571429 -0.5387657142857143 0.11828571428571429V4.799554285714286ZM28.738011428571426 3.1527291428571425C26.559874285714283 -0.36577714285714286 21.441737142857143 -0.365784 19.263634285714286 3.152725714285714L1.9323154285714284 31.149462857142854C0.17128182857142857 33.99418285714285 1.2969874285714285 37.73862857142857 4.334742857142857 39.14057142857143l17.331325714285715 7.999199999999999c1.4814171428571428 0.6836571428571429 3.1880914285714286 0.6836571428571429 4.669508571428571 0l17.331394285714286 -7.999199999999999c3.0377142857142854 -1.401942857142857 4.163314285714285 -5.146388571428571 2.4023999999999996 -7.991108571428571L28.738011428571426 3.1527291428571425Z" clip-rule="evenodd" stroke-width="3.4286"></path>
  </g>
</svg>