<svg xmlns="http://www.w3.org/2000/svg" fill="none" viewBox="0 0 48 48" id="Qr-Code--Streamline-Core-Remix" height="48" width="48">
  <desc>
    Qr Code Streamline Icon: https://streamlinehq.com
  </desc>
  <g id="Free Remix/Money Shopping/qr-code--codes-tags-code-qr">
    <path id="Union" fill="#000000" fill-rule="evenodd" d="M5.947988571428572 5.947988571428572C6.18912 5.706891428571428 6.516137142857142 5.571428571428571 6.857142857142857 5.571428571428571h6.857142857142857c1.1834742857142857 0 2.142857142857143 -0.9593828571428571 2.142857142857143 -2.142857142857143 0 -1.1834674285714284 -0.9593828571428571 -2.142857142857143 -2.142857142857143 -2.142857142857143H6.857142857142857c-1.477645714285714 0 -2.894742857142857 0.5869885714285714 -3.939596571428571 1.631832C1.8727028571428572 3.9623999999999997 1.2857142857142856 5.379497142857143 1.2857142857142856 6.857142857142857v6.857142857142857c0 1.1834742857142857 0.9593897142857143 2.142857142857143 2.142857142857143 2.142857142857143 1.1834742857142857 0 2.142857142857143 -0.9593828571428571 2.142857142857143 -2.142857142857143V6.857142857142857c0 -0.3410057142857143 0.13546285714285713 -0.6680228571428571 0.37655999999999995 -0.9091542857142857ZM32.14285714285714 3.4285714285714284c0 -1.1834674285714284 0.9593828571428571 -2.142857142857143 2.142857142857143 -2.142857142857143h6.857142857142857c1.4777142857142855 0 2.894742857142857 0.5869885714285714 3.9394285714285715 1.631832 1.0450285714285714 1.0448537142857142 1.632 2.461950857142857 1.632 3.939596571428571v6.857142857142857c0 1.1834742857142857 -0.9593142857142857 2.142857142857143 -2.142857142857143 2.142857142857143s-2.142857142857143 -0.9593828571428571 -2.142857142857143 -2.142857142857143V6.857142857142857c0 -0.3410057142857143 -0.13542857142857143 -0.6680228571428571 -0.3764571428571428 -0.9091542857142857 -0.24137142857142857 -0.24109714285714282 -0.5681142857142857 -0.37655999999999995 -0.9092571428571428 -0.37655999999999995h-6.857142857142857c-1.1834742857142857 0 -2.142857142857143 -0.9593828571428571 -2.142857142857143 -2.142857142857143ZM8.571428571428571 13.714285714285714c0 -2.8403314285714285 2.3025257142857143 -5.142857142857142 5.142857142857142 -5.142857142857142h6.857142857142857c2.8403314285714285 0 5.142857142857142 2.3025257142857143 5.142857142857142 5.142857142857142v6.857142857142857c0 2.8403314285714285 -2.3025257142857143 5.142857142857142 -5.142857142857142 5.142857142857142H13.714285714285714c-2.8403314285714285 0 -5.142857142857142 -2.3025257142857143 -5.142857142857142 -5.142857142857142V13.714285714285714Zm4.285714285714286 18.428571428571427c0 -1.1834742857142857 -0.9593828571428571 -2.142857142857143 -2.142857142857143 -2.142857142857143s-2.142857142857143 0.9593828571428571 -2.142857142857143 2.142857142857143v5.142857142857142c0 1.183542857142857 0.9593828571428571 2.142857142857143 2.142857142857143 2.142857142857143h5.142857142857142c1.1834742857142857 0 2.142857142857143 -0.9593142857142857 2.142857142857143 -2.142857142857143s-0.9593828571428571 -2.142857142857143 -2.142857142857143 -2.142857142857143H12.857142857142856v-3ZM17.142857142857142 31.71428571428571c0 -1.1834742857142857 0.9593828571428571 -2.142857142857143 2.142857142857143 -2.142857142857143h5.142857142857142c1.1834742857142857 0 2.142857142857143 0.9593828571428571 2.142857142857143 2.142857142857143v5.142857142857142c0 1.183542857142857 -0.9593828571428571 2.142857142857143 -2.142857142857143 2.142857142857143s-2.142857142857143 -0.9593142857142857 -2.142857142857143 -2.142857142857143v-3h-3C18.10224 33.857142857142854 17.142857142857142 32.89776 17.142857142857142 31.71428571428571Zm17.142857142857142 -21c0 -1.1834742857142857 -0.9593828571428571 -2.142857142857143 -2.142857142857143 -2.142857142857143s-2.142857142857143 0.9593828571428571 -2.142857142857143 2.142857142857143v5.142857142857142c0 1.1834742857142857 0.9593828571428571 2.142857142857143 2.142857142857143 2.142857142857143h5.142857142857142c1.183542857142857 0 2.142857142857143 -0.9593828571428571 2.142857142857143 -2.142857142857143S38.46925714285714 13.714285714285714 37.285714285714285 13.714285714285714H34.285714285714285v-3Zm-4.285714285714286 12c0 -1.1834742857142857 0.9593828571428571 -2.142857142857143 2.142857142857143 -2.142857142857143h5.142857142857142c1.183542857142857 0 2.142857142857143 0.9593828571428571 2.142857142857143 2.142857142857143v5.142857142857142c0 1.1834742857142857 -0.9593142857142857 2.142857142857143 -2.142857142857143 2.142857142857143s-2.142857142857143 -0.9593828571428571 -2.142857142857143 -2.142857142857143V24.857142857142854h-3c-1.1834742857142857 0 -2.142857142857143 -0.9593828571428571 -2.142857142857143 -2.142857142857143ZM34.285714285714285 32.14285714285714c0 -1.1834742857142857 -0.9593828571428571 -2.142857142857143 -2.142857142857143 -2.142857142857143s-2.142857142857143 0.9593828571428571 -2.142857142857143 2.142857142857143v5.142857142857142c0 1.183542857142857 0.9593828571428571 2.142857142857143 2.142857142857143 2.142857142857143h5.142857142857142c1.183542857142857 0 2.142857142857143 -0.9593142857142857 2.142857142857143 -2.142857142857143s-0.9593142857142857 -2.142857142857143 -2.142857142857143 -2.142857142857143H34.285714285714285v-3Zm10.285714285714285 0c1.183542857142857 0 2.142857142857143 0.9593828571428571 2.142857142857143 2.142857142857143v6.857142857142857c0 1.4777142857142855 -0.5869714285714285 2.894742857142857 -1.632 3.9394285714285715 -1.0446857142857142 1.0450285714285714 -2.4617142857142853 1.632 -3.9394285714285715 1.632h-6.857142857142857c-1.1834742857142857 0 -2.142857142857143 -0.9593142857142857 -2.142857142857143 -2.142857142857143s0.9593828571428571 -2.142857142857143 2.142857142857143 -2.142857142857143h6.857142857142857c0.34114285714285714 0 0.6678857142857143 -0.13542857142857143 0.9092571428571428 -0.3764571428571428 0.24102857142857143 -0.24137142857142857 0.3764571428571428 -0.5681142857142857 0.3764571428571428 -0.9092571428571428v-6.857142857142857c0 -1.1834742857142857 0.9593142857142857 -2.142857142857143 2.142857142857143 -2.142857142857143ZM5.571428571428571 34.285714285714285c0 -1.1834742857142857 -0.9593828571428571 -2.142857142857143 -2.142857142857143 -2.142857142857143 -1.1834674285714284 0 -2.142857142857143 0.9593828571428571 -2.142857142857143 2.142857142857143v6.857142857142857c0 1.4777142857142855 0.5869885714285714 2.894742857142857 1.631832 3.9394285714285715 1.0448537142857142 1.0450285714285714 2.461950857142857 1.632 3.939596571428571 1.632h6.857142857142857c1.1834742857142857 0 2.142857142857143 -0.9593142857142857 2.142857142857143 -2.142857142857143s-0.9593828571428571 -2.142857142857143 -2.142857142857143 -2.142857142857143H6.857142857142857c-0.3410057142857143 0 -0.6680228571428571 -0.13542857142857143 -0.9091542857142857 -0.3764571428571428 -0.24109714285714282 -0.24137142857142857 -0.37655999999999995 -0.5681142857142857 -0.37655999999999995 -0.9092571428571428v-6.857142857142857Z" clip-rule="evenodd" stroke-width="3.4286"></path>
  </g>
</svg>