<svg xmlns="http://www.w3.org/2000/svg" fill="none" viewBox="0 0 48 48" id="Quality-Education--Streamline-Core-Remix" height="48" width="48">
  <desc>
    Quality Education Streamline Icon: https://streamlinehq.com
  </desc>
  <g id="Free Remix/Nature Ecology/quality-education">
    <path id="Union" fill="#000000" fill-rule="evenodd" d="M13.714285714285714 0c-0.32129142857142856 0 -0.6361028571428571 0.09029039999999999 -0.9085714285714286 0.26057417142857137L5.948571428571428 4.546285714285714c-0.5012228571428571 0.31326857142857145 -0.8057142857142856 0.8626628571428571 -0.8057142857142856 1.4537142857142855s0.3044914285714286 1.140445714285714 0.8057142857142856 1.4537142857142855l6.857142857142857 4.285714285714286c0.2724685714285714 0.17029714285714284 0.5872799999999999 0.26057142857142856 0.9085714285714286 0.26057142857142856h23.142857142857142c3.3137142857142856 0 6 -2.686285714285714 6 -6C42.857142857142854 2.6862925714285715 40.17085714285714 0 36.857142857142854 0H13.714285714285714ZM5.142857142857142 15c-1.1834742857142857 0 -2.142857142857143 0.9593828571428571 -2.142857142857143 2.142857142857143v21.857142857142858c0 1.183542857142857 0.9593828571428571 2.142857142857143 2.142857142857143 2.142857142857143 5.732982857142857 0 9.996514285714285 1.0926857142857143 12.827554285714285 2.379428571428571 1.4200114285714285 0.6452571428571429 2.447965714285714 1.3251428571428572 3.1184914285714287 1.9117714285714285 0.6084685714285714 0.5324571428571429 0.7899085714285714 0.8694857142857142 0.8259428571428571 0.9363428571428571l0.005005714285714285 0.008914285714285713 0.00216 0.0030857142857142854c0.06411428571428572 0.2544 0.17365714285714284 0.4906285714285714 0.31954285714285713 0.6997714285714286 0.09305142857142856 0.13337142857142856 0.20060571428571428 0.25508571428571425 0.32016 0.3634285714285714 0.3802628571428571 0.3445714285714286 0.8847771428571428 0.5544 1.4382857142857142 0.5544 0.5535085714285713 0 1.058022857142857 -0.20982857142857142 1.4382857142857142 -0.5544 0.1195542857142857 -0.10834285714285714 0.22710857142857138 -0.23005714285714288 0.32016 -0.3634285714285714 0.14588571428571426 -0.20914285714285713 0.2554285714285714 -0.44537142857142853 0.31954285714285713 -0.6997714285714286 0.0005828571428571429 0 0.002811428571428571 -0.0041142857142857136 0.007165714285714285 -0.012 0.03603428571428571 -0.06685714285714285 0.2174742857142857 -0.4038857142857143 0.8259428571428571 -0.9363428571428571 0.6705257142857143 -0.5866285714285714 1.69848 -1.2665142857142857 3.1184914285714287 -1.9117714285714285C32.86059428571428 42.23554285714285 37.12422857142857 41.14285714285714 42.857142857142854 41.14285714285714c1.183542857142857 0 2.142857142857143 -0.9593142857142857 2.142857142857143 -2.142857142857143V17.142857142857142c0 -1.1834742857142857 -0.9593142857142857 -2.142857142857143 -2.142857142857143 -2.142857142857143 -6.267085714285714 0 -11.14632 1.1931771428571427 -14.601017142857142 2.7634971428571427 -1.722822857142857 0.7831199999999999 -3.123462857142857 1.6748571428571428 -4.167222857142857 2.5881257142857144L24 20.43024l-0.08890285714285714 -0.07861714285714284c-1.0437599999999998 -0.9132685714285713 -2.4444 -1.8050057142857143 -4.167222857142857 -2.5881257142857144C16.28917714285714 16.19317714285714 11.409874285714285 15 5.142857142857142 15Zm23.11326857142857 24.620571428571427c-0.7697828571428571 0.35005714285714284 -1.4752457142857143 0.7217142857142856 -2.1132685714285713 1.1070857142857142V24.41502857142857c0.09425142857142857 -0.14746285714285715 0.31032 -0.43741714285714284 0.7682399999999999 -0.8380799999999999 0.6705257142857143 -0.5867314285714286 1.69848 -1.2664114285714285 3.1184914285714287 -1.9118742857142854 2.466274285714286 -1.1210399999999998 6.019782857142857 -2.0946171428571425 10.684697142857141 -2.3268685714285713v17.566594285714284c-5.2463999999999995 0.23657142857142857 -9.407691428571429 1.3292571428571427 -12.45816 2.7157714285714287Zm-6.398982857142857 1.1070857142857142V24.41502857142857c-0.09425142857142857 -0.14746285714285715 -0.31032 -0.43741714285714284 -0.7682399999999999 -0.8380799999999999 -0.6705257142857143 -0.5867314285714286 -1.69848 -1.2664114285714285 -3.1184914285714287 -1.9118742857142854 -2.466274285714286 -1.1210399999999998 -6.01968 -2.0946171428571425 -10.684697142857141 -2.3268685714285713v17.566594285714284c5.246502857142857 0.23657142857142857 9.407691428571429 1.3292571428571427 12.45816 2.7157714285714287 0.7697828571428571 0.35005714285714284 1.4752457142857143 0.7217142857142856 2.1132685714285713 1.1070857142857142Z" clip-rule="evenodd" stroke-width="3.4286"></path>
  </g>
</svg>