<svg xmlns="http://www.w3.org/2000/svg" fill="none" viewBox="0 0 48 48" id="Quotation-2--Streamline-Core-Remix" height="48" width="48">
  <desc>
    Quotation 2 Streamline Icon: https://streamlinehq.com
  </desc>
  <g id="Free Remix/Interface Essential/quotation-2--quote-quotation-format-formatting-open-close-marks-text">
    <path id="Union" fill="#000000" fill-rule="evenodd" d="M4.25688 11.647748571428572c-0.19453714285714285 -1.16736 -1.2986057142857141 -1.956 -2.4659725714285714 -1.7614285714285716 -1.1673634285714285 0.19457142857142856 -1.955978057142857 1.2986057142857141 -1.7614171885714285 2.4659999999999997l1.714284617142857 10.285714285714285c0.19456114285714285 1.16736 1.2986194285714285 1.9559657142857143 2.465996571428571 1.7613942857142855 1.16736 -0.19453714285714285 1.9559657142857143 -1.2986057142857141 1.7613942857142855 -2.4659657142857143l-1.7142857142857142 -10.285714285714285Zm9.428571428571429 0c-0.19453714285714285 -1.16736 -1.2986057142857141 -1.956 -2.4659657142857143 -1.7614285714285716 -1.16736 0.19457142857142856 -1.956 1.2986057142857141 -1.7614285714285716 2.4659999999999997l1.7142857142857142 10.285714285714285c0.19457142857142856 1.16736 1.29864 1.9559657142857143 2.4659999999999997 1.7613942857142855 1.16736 -0.19453714285714285 1.9559657142857143 -1.2986057142857141 1.7613942857142855 -2.4659657142857143l-1.7142857142857142 -10.285714285714285Zm23.95272 11.952857142857143c1.1674285714285715 0.19457142857142856 1.956 1.2986057142857141 1.7616 2.4659999999999997l-1.7142857142857142 10.285851428571428c-0.19474285714285713 1.167085714285714 -1.2987428571428572 1.9556571428571428 -2.4661714285714287 1.7612571428571429 -1.1671885714285715 -0.1944 -1.9558285714285715 -1.2987428571428572 -1.7612571428571429 -2.4658285714285713l1.7142857142857142 -10.285851428571428c0.1944 -1.16736 1.2987428571428572 -1.956 2.4658285714285713 -1.7614285714285716Zm10.33302857142857 2.4659999999999997c0.1944 -1.1673942857142856 -0.5941714285714286 -2.2714285714285714 -1.7616 -2.4659999999999997 -1.167085714285714 -0.19457142857142856 -2.2714285714285714 0.5940685714285714 -2.4658285714285713 1.7614285714285716l-1.7142857142857142 10.285851428571428c-0.1944 1.167085714285714 0.5941714285714286 2.2714285714285714 1.7612571428571429 2.4658285714285713 1.1674285714285715 0.1944 2.2714285714285714 -0.5941714285714286 2.4661714285714287 -1.7612571428571429l1.7142857142857142 -10.285851428571428Z" clip-rule="evenodd" stroke-width="3.4286"></path>
  </g>
</svg>