<svg xmlns="http://www.w3.org/2000/svg" fill="none" viewBox="0 0 48 48" id="Radioactive-2--Streamline-Core-Remix" height="48" width="48">
  <desc>
    Radioactive 2 Streamline Icon: https://streamlinehq.com
  </desc>
  <g id="Free Remix/Interface Essential/radioactive-2--warning-radioactive-radiation-emergency-danger-safety">
    <path id="Union" fill="#000000" fill-rule="evenodd" d="M17.614045714285712 6.377794285714286c0.8359885714285713 -0.8377028571428571 0.8345828571428571 -2.1944914285714283 -0.00312 -3.0304559999999996 -0.8376685714285714 -0.8359817142857142 -2.194457142857143 -0.8345897142857143 -3.030445714285714 0.003106285714285714 -1.8584571428571428 1.8622868571428568 -3.1232571428571427 4.233624 -3.634525714285714 6.8144468571428565 -0.5113028571428572 2.580788571428571 -0.24617142857142857 5.2552457142857145 0.7618971428571428 7.685417142857142 0.03318857142857142 0.07995428571428571 0.06709714285714286 0.15949714285714284 0.10176 0.23866285714285715 -0.12836571428571428 0.20657142857142854 -0.2516228571428571 0.4166057142857143 -0.3696 0.63 -0.08300571428571428 0.009325714285714286 -0.16594285714285714 0.019405714285714287 -0.24884571428571428 0.030274285714285712 -2.608697142857143 0.34224 -5.057382857142858 1.4500457142857142 -7.036697142857141 3.1834628571428567 -1.9793142857142858 1.733382857142857 -3.4004194285714284 4.014582857142857 -4.083749485714286 6.555325714285714 -0.30736971428571425 1.1428457142857142 0.3699243428571428 2.318502857142857 1.5127803428571427 2.62584 1.1428559999999999 0.3073714285714285 2.3184891428571426 -0.3699085714285714 2.6258605714285714 -1.5127542857142857 0.46326857142857136 -1.7225485714285713 1.4267314285714285 -3.2691085714285713 2.76864 -4.444319999999999 0.8404457142857142 -0.7359771428571428 1.8056914285714285 -1.3056342857142855 2.8442057142857142 -1.685622857142857 -0.10810285714285714 0.70992 -0.16416 1.4369828571428571 -0.16416 2.1771085714285716 0 6.016148571428571 3.704228571428571 11.16702857142857 8.956354285714285 13.296514285714286 -0.8255314285714285 0.6713142857142856 -1.7676342857142857 1.1948571428571426 -2.785405714285714 1.5411428571428571 -1.68864 0.5746285714285714 -3.5097599999999995 0.636 -5.233165714285714 0.17588571428571428 -1.143462857142857 -0.3051428571428571 -2.317782857142857 0.3744 -2.62296 1.5178285714285713 -0.3051428571428571 1.1434285714285715 0.3744 2.3177142857142856 1.517862857142857 2.6228571428571428 2.5420457142857145 0.6785142857142856 5.22816 0.5883428571428572 7.718948571428571 -0.2592 2.4907542857142855 -0.8478857142857142 4.674377142857142 -2.414742857142857 6.274971428571428 -4.502742857142857l0.04395428571428571 -0.05759999999999999c0.15658285714285713 0.0048 0.31381714285714285 0.007542857142857143 0.4716342857142857 0.007542857142857143 0.15764571428571428 0 0.3147085714285714 -0.002742857142857143 0.47112 -0.007542857142857143 0.014605714285714284 0.0192 0.02921142857142857 0.0384 0.04392 0.05759999999999999 1.6005942857142856 2.0879999999999996 3.7842514285714284 3.654857142857143 6.275005714285713 4.502742857142857 2.4907542857142855 0.8475428571428572 5.1768 0.9377142857142857 7.719085714285713 0.2592 1.1434285714285715 -0.3051428571428571 1.8229714285714282 -1.4794285714285713 1.5178285714285713 -2.6228571428571428 -0.3051428571428571 -1.1434285714285715 -1.4797714285714285 -1.8229714285714282 -2.6231999999999998 -1.5178285714285713 -1.7232 0.46011428571428575 -3.5443885714285708 0.3987428571428571 -5.233028571428571 -0.17588571428571428 -1.017702857142857 -0.3462857142857143 -1.9597371428571428 -0.8698285714285713 -2.7852342857142856 -1.5408 5.252434285714285 -2.129485714285714 8.956662857142856 -7.280571428571428 8.956662857142856 -13.296857142857142 0 -0.7400571428571427 -0.055885714285714275 -1.4670171428571428 -0.16422857142857142 -2.1768685714285714 1.0385142857142857 0.3799542857142857 2.003657142857143 0.9495085714285715 2.843657142857143 1.685382857142857 1.341942857142857 1.1752114285714286 2.3053714285714286 2.721771428571428 2.7689142857142857 4.444319999999999 0.3072 1.1428457142857142 1.4828571428571427 1.8201257142857141 2.6256 1.5127542857142857 1.143085714285714 -0.3073371428571428 1.8202285714285715 -1.4829942857142855 1.5130285714285714 -2.62584 -0.6833142857142857 -2.540742857142857 -2.1044571428571426 -4.821942857142857 -4.083771428571429 -6.555325714285714 -1.9793142857142858 -1.7334171428571428 -4.428 -2.8412228571428573 -7.0367999999999995 -3.1834628571428567 -0.08262857142857143 -0.010868571428571429 -0.1656 -0.020914285714285715 -0.24822857142857144 -0.030205714285714284 -0.11794285714285714 -0.21322285714285713 -0.24102857142857143 -0.4231542857142857 -0.36925714285714284 -0.6295885714285714 0.034628571428571425 -0.07930285714285715 0.06857142857142857 -0.15901714285714283 0.10182857142857142 -0.23914285714285716 1.0079999999999998 -2.430171428571428 1.2730285714285714 -5.104628571428571 0.7618285714285714 -7.685417142857142 -0.5112 -2.580822857142857 -1.776 -4.95216 -3.6344571428571424 -6.8144468571428565 -0.8359885714285713 -0.8376959999999999 -2.192777142857143 -0.839088 -3.030445714285714 -0.003106285714285714 -0.8377028571428571 0.8359645714285714 -0.8391085714285714 2.1927531428571427 -0.00312 3.0304559999999996 1.2599657142857141 1.2625714285714287 2.1174514285714285 2.870262857142857 2.46408 4.619965714285715 0.22224 1.1216571428571427 0.22810285714285716 2.269405714285714 0.023657142857142856 3.3829028571428568 -2.441417142857143 -1.9255200000000001 -5.523737142857143 -3.0745714285714287 -8.874445714285713 -3.0745714285714287 -3.3505028571428572 0 -6.432651428571428 1.14888 -8.873999999999999 3.0741942857142854 -0.20437714285714287 -1.11336 -0.19848 -2.2610057142857145 0.023725714285714284 -3.382525714285714 0.3466285714285714 -1.7497028571428568 1.2041142857142857 -3.3573942857142853 2.46408 -4.619965714285715Zm12.015497142857141 13.424639999999998c0.2838171428571429 -0.22655999999999998 0.5530628571428572 -0.4695771428571428 0.8065028571428571 -0.7274742857142857 -1.6590171428571427 -1.6244914285714285 -3.930445714285714 -2.6260114285714287 -6.435805714285714 -2.6260114285714287 -2.505222857142857 0 -4.776548571428571 1.0013828571428571 -6.435531428571428 2.6257714285714284 0.25388571428571427 0.2583771428571428 0.5236457142857143 0.5018057142857142 0.8080457142857143 0.7287771428571428 0.14711999999999997 0.06603428571428571 0.29317714285714286 0.13481142857142855 0.4381371428571428 0.20633142857142855 0.6662399999999999 0.32873142857142856 1.3008 0.7111542857142856 1.8979885714285711 1.1420571428571429 1.04352 0.4088571428571428 2.1595199999999997 0.62184 3.2916 0.62184 1.1312914285714284 0 2.2464685714285713 -0.2126742857142857 3.2893714285714286 -0.6209485714285714 0.5975657142857143 -0.4312457142857143 1.2325028571428571 -0.8139771428571428 1.899222857142857 -1.1429485714285714 0.1457142857142857 -0.07189714285714285 0.2925942857142857 -0.14101714285714284 0.44046857142857143 -0.2073942857142857ZM21.84013714285714 30.57373714285714c-0.1692 -1.1008457142857142 -0.5416457142857143 -2.166514285714286 -1.1042057142857142 -3.1408457142857142 -0.5664 -0.9809485714285713 -1.3093714285714286 -1.8413142857142857 -2.185885714285714 -2.540777142857143 -0.6725828571428571 -0.30191999999999997 -1.3218514285714285 -0.6605485714285714 -1.9403999999999997 -1.073622857142857 -0.1337142857142857 -0.08931428571428571 -0.26564571428571426 -0.18092571428571427 -0.39572571428571424 -0.2747657142857143 -0.3540342857142857 -0.13872 -0.71568 -0.25460571428571427 -1.0826742857142857 -0.34728 -0.21531428571428568 0.7805828571428571 -0.33034285714285716 1.6027885714285715 -0.33034285714285716 2.45184 0 4.238914285714285 2.867005714285714 7.808194285714285 6.767691428571428 8.874685714285713 0.11777142857142855 -0.39510857142857136 0.20866285714285712 -0.798582857142857 0.27154285714285714 -1.2078857142857142 -0.017314285714285713 -0.16745142857142856 -0.03150857142857143 -0.33545142857142857 -0.04251428571428571 -0.5038971428571428 -0.04889142857142857 -0.7490399999999999 -0.034114285714285715 -1.4974285714285713 0.04251428571428571 -2.2374514285714286Zm9.948137142857142 -7.0309028571428565c0.35348571428571424 -0.13837714285714284 0.7145485714285714 -0.2539885714285714 1.0809257142857143 -0.34649142857142856 0.21534857142857144 0.7806171428571428 0.33037714285714287 1.6028571428571428 0.33037714285714287 2.451942857142857 0 4.2390857142857135 -2.867245714285714 7.808502857142857 -6.768171428571429 8.874685714285713 -0.11780571428571429 -0.3950057142857143 -0.20869714285714286 -0.7985485714285714 -0.27161142857142856 -1.2078514285714286 0.01734857142857143 -0.16748571428571427 0.03154285714285714 -0.3354857142857143 0.04251428571428571 -0.5039314285714286 0.04889142857142857 -0.7490399999999999 0.034148571428571424 -1.4974285714285713 -0.04251428571428571 -2.2374514285714286 0.1692342857142857 -1.1008457142857142 0.5416799999999999 -2.166514285714286 1.10424 -3.1408457142857142 0.5660914285714286 -0.9804342857142856 1.308617142857143 -1.840422857142857 2.184548571428571 -2.5397142857142856 0.67344 -0.30216 1.323462857142857 -0.6611314285714286 1.9427657142857142 -1.0746857142857142 0.1341257142857143 -0.08958857142857142 0.2664685714285714 -0.1815085714285714 0.39692571428571427 -0.2756571428571428Z" clip-rule="evenodd" stroke-width="3.4286"></path>
  </g>
</svg>