<svg xmlns="http://www.w3.org/2000/svg" fill="none" viewBox="0 0 48 48" id="Radio--Streamline-Core-Remix" height="48" width="48">
  <desc>
    Radio Streamline Icon: https://streamlinehq.com
  </desc>
  <g id="Free Remix/Entertainment/radio--antenna-audio-music-radio-entertainment">
    <path id="Union" fill="#000000" fill-rule="evenodd" d="M45.22765714285714 5.468674285714285c1.1266285714285713 -0.3624 1.7461714285714285 -1.569462857142857 1.3837714285714287 -2.6960845714285715 -0.3624 -1.1266217142857142 -1.5695999999999999 -1.7461645714285714 -2.696228571428571 -1.383792L6.927394285714286 13.285885714285714H6.857142857142857c-3.0770057142857143 0 -5.571428571428571 2.4943885714285714 -5.571428571428571 5.571428571428571V41.14285714285714c0 3.077142857142857 2.494422857142857 5.571428571428571 5.571428571428571 5.571428571428571h34.285714285714285c3.077142857142857 0 5.571428571428571 -2.494285714285714 5.571428571428571 -5.571428571428571V18.857314285714285c0 -3.0770399999999998 -2.494285714285714 -5.571428571428571 -5.571428571428571 -5.571428571428571H20.92392l24.30373714285714 -7.817211428571428ZM5.571428571428571 41.14285714285714V22.834834285714287h36.857142857142854V41.14285714285714c0 0.7103999999999999 -0.5756571428571428 1.2857142857142856 -1.2857142857142856 1.2857142857142856H6.857142857142857c-0.7100914285714285 0 -1.2857142857142856 -0.5753142857142857 -1.2857142857142856 -1.2857142857142856ZM15.428571428571427 27.000411428571425c-3.3137142857142856 0 -6 2.686285714285714 -6 6 0 3.3136457142857143 2.686285714285714 5.999931428571428 6 5.999931428571428s6 -2.686285714285714 6 -5.999931428571428c0 -3.3137142857142856 -2.686285714285714 -6 -6 -6Zm14.142857142857142 3.428331428571428c0 -1.1834742857142857 0.9593828571428571 -2.142857142857143 2.142857142857143 -2.142857142857143h5.142857142857142c1.183542857142857 0 2.142857142857143 0.9593828571428571 2.142857142857143 2.142857142857143 0 1.1834399999999998 -0.9593142857142857 2.142857142857143 -2.142857142857143 2.142857142857143h-5.142857142857142c-1.1834742857142857 0 -2.142857142857143 -0.9594171428571429 -2.142857142857143 -2.142857142857143ZM31.71428571428571 35.14285714285714c-1.1834742857142857 0 -2.142857142857143 0.9596571428571428 -2.142857142857143 2.142857142857143 0 1.183542857142857 0.9593828571428571 2.142857142857143 2.142857142857143 2.142857142857143h5.142857142857142c1.183542857142857 0 2.142857142857143 -0.9593142857142857 2.142857142857143 -2.142857142857143 0 -1.1832 -0.9593142857142857 -2.142857142857143 -2.142857142857143 -2.142857142857143h-5.142857142857142Z" clip-rule="evenodd" stroke-width="3.4286"></path>
  </g>
</svg>