<svg xmlns="http://www.w3.org/2000/svg" fill="none" viewBox="0 0 48 48" id="Rainbow--Streamline-Core-Remix" height="48" width="48">
  <desc>
    Rainbow Streamline Icon: https://streamlinehq.com
  </desc>
  <g id="Free Remix/Nature Ecology/rainbow--nature-arch-rain-colorful-rainbow-curve-half-circle">
    <path id="Union" fill="#000000" fill-rule="evenodd" d="M4.285714285714286 29.142857142857142c0 -10.887908571428571 8.826377142857142 -19.71428571428571 19.71428571428571 -19.71428571428571 10.887771428571428 0 19.71428571428571 8.826377142857142 19.71428571428571 19.71428571428571V41.14285714285714c0 1.183542857142857 0.9593142857142857 2.142857142857143 2.142857142857143 2.142857142857143S48 42.3264 48 41.14285714285714V29.142857142857142c0 -13.254822857142857 -10.745142857142856 -24 -24 -24 -13.254822857142857 0 -24 10.745177142857143 -24 24V41.14285714285714c0 1.183542857142857 0.9593897142857143 2.142857142857143 2.142857142857143 2.142857142857143s2.142857142857143 -0.9593142857142857 2.142857142857143 -2.142857142857143V29.142857142857142ZM10.285714285714285 29.142857142857142c0 -3.6372685714285713 1.444902857142857 -7.125531428571428 4.016811428571429 -9.697474285714286C16.87446857142857 16.873474285714284 20.362731428571426 15.428571428571427 24 15.428571428571427s7.125531428571428 1.444902857142857 9.697474285714286 4.016811428571429C36.269485714285715 22.01732571428571 37.714285714285715 25.505588571428568 37.714285714285715 29.142857142857142v12.428571428571427c0 0.9466285714285714 -0.7676571428571428 1.7142857142857142 -1.7142857142857142 1.7142857142857142H30.857142857142854c-0.9467657142857142 0 -1.7142857142857142 -0.7676571428571428 -1.7142857142857142 -1.7142857142857142V29.142857142857142c0 -1.3639542857142857 -0.5418514285714285 -2.6720914285714286 -1.5063085714285713 -3.636548571428571C26.672091428571427 24.541851428571427 25.363954285714286 24 24 24c-1.3639542857142857 0 -2.6720914285714286 0.5418514285714285 -3.636548571428571 1.5063085714285713C19.398994285714284 26.470765714285715 18.857142857142858 27.778902857142857 18.857142857142858 29.142857142857142v12.428571428571427c0 0.9466285714285714 -0.76752 1.7142857142857142 -1.7142857142857142 1.7142857142857142H12c-0.9467657142857142 0 -1.7142857142857142 -0.7676571428571428 -1.7142857142857142 -1.7142857142857142V29.142857142857142Z" clip-rule="evenodd" stroke-width="3.4286"></path>
  </g>
</svg>