<svg xmlns="http://www.w3.org/2000/svg" fill="none" viewBox="0 0 48 48" id="Rain-Cloud--Streamline-Core-Remix" height="48" width="48">
  <desc>
    Rain Cloud Streamline Icon: https://streamlinehq.com
  </desc>
  <g id="Free Remix/Interface Essential/rain-cloud--cloud-rain-rainy-meteorology-precipitation-weather">
    <path id="Union" fill="#000000" fill-rule="evenodd" d="M7.286262857142857 14.142857142857142c0 -5.443954285714286 4.413222857142857 -9.857142857142856 9.857142857142856 -9.857142857142856 4.558937142857142 0 8.400034285714284 3.096822857142857 9.52416 7.3051885714285705 0.1896685714285714 0.7100914285714285 0.7300457142857143 1.27344 1.4316685714285713 1.492457142857143 0.7015885714285715 0.21905142857142856 1.4664685714285712 0.06325714285714286 2.0264914285714286 -0.41279999999999994 1.122342857142857 -0.9540685714285715 2.571702857142857 -1.527702857142857 4.160674285714285 -1.527702857142857 3.5502857142857143 0 6.428571428571428 2.878182857142857 6.428571428571428 6.428571428571428S37.836685714285714 24 34.28639999999999 24H17.143405714285713c-5.443919999999999 0 -9.857142857142856 -4.413188571428571 -9.857142857142856 -9.857142857142856ZM17.143405714285713 0C9.332537142857142 0 3.0005622857142855 6.331988571428571 3.0005622857142855 14.142857142857142c0 7.81086857142857 6.331974857142857 14.142857142857142 14.142843428571428 14.142857142857142h17.142994285714284c5.917371428571428 0 10.714285714285714 -4.796948571428572 10.714285714285714 -10.714285714285714S40.20377142857143 6.857142857142857 34.28639999999999 6.857142857142857c-1.59864 0 -3.117188571428571 0.3510857142857143 -4.481005714285714 0.9797485714285714C27.487714285714286 3.1918697142857138 22.690285714285714 0 17.143405714285713 0Zm1.01424 35.007085714285715c0.6351428571428571 -1.270182857142857 0.12027428571428571 -2.8147885714285716 -1.1499771428571428 -3.449897142857142 -1.2702171428571427 -0.6351085714285714 -2.8147885714285716 -0.12023999999999999 -3.4499314285714284 1.1499771428571428l-1.7142857142857142 3.4286057142857143c-0.6351085714285714 1.2702857142857142 -0.12023999999999999 2.8148571428571425 1.1499771428571428 3.4498285714285712 1.2702514285714284 0.6353142857142856 2.814822857142857 0.12034285714285714 3.4499314285714284 -1.149942857142857l1.7142857142857142 -3.4285714285714284Zm15.13573714285714 -3.449897142857142c1.2703885714285714 0.6351085714285714 1.7850171428571429 2.1797142857142857 1.1500457142857143 3.449897142857142l-1.7143542857142857 3.4285714285714284c-0.6351085714285714 1.2702857142857142 -2.17968 1.7852571428571429 -3.4499314285714284 1.149942857142857 -1.2702171428571427 -0.6349714285714285 -1.785085714285714 -2.1795428571428572 -1.1499771428571428 -3.4498285714285712l1.7142857142857142 -3.4286057142857143c0.6351428571428571 -1.2702171428571427 2.1797142857142857 -1.785085714285714 3.4499314285714284 -1.1499771428571428ZM24.58621714285714 42.72137142857142c0.6351428571428571 -1.2702857142857142 0.12027428571428571 -2.8148571428571425 -1.1499771428571428 -3.4498285714285712 -1.2702171428571427 -0.6353142857142856 -2.8147885714285716 -0.12034285714285714 -3.4499314285714284 1.149942857142857l-1.7142857142857142 3.4285714285714284c-0.6351085714285714 1.2702857142857142 -0.12023999999999999 2.8148571428571425 1.1499771428571428 3.4498285714285712 1.2702514285714284 0.6353142857142856 2.814822857142857 0.12034285714285714 3.4499314285714284 -1.149942857142857l1.7142857142857142 -3.4285714285714284Zm-17.435691428571428 -3.4498285714285712c1.2702514285714284 0.6349714285714285 1.78512 2.1795428571428572 1.1499771428571428 3.4498285714285712l-1.7142857142857142 3.4285714285714284c-0.6351085714285714 1.2702857142857142 -2.17968 1.7852571428571429 -3.4499177142857143 1.149942857142857 -1.270230857142857 -0.6349714285714285 -1.7850925714285713 -2.1795428571428572 -1.1499771428571428 -3.4498285714285712l1.7142719999999998 -3.4285714285714284c0.6351428571428571 -1.2702857142857142 2.1797142857142857 -1.7852571428571429 3.4499314285714284 -1.149942857142857Zm33.72147428571429 3.4498285714285712c0.6349714285714285 -1.2702857142857142 0.12034285714285714 -2.8148571428571425 -1.149942857142857 -3.4498285714285712 -1.2702857142857142 -0.6353142857142856 -2.8148571428571425 -0.12034285714285714 -3.4501714285714282 1.149942857142857l-1.7142857142857142 3.4285714285714284c-0.6349714285714285 1.2702857142857142 -0.12000000000000001 2.8148571428571425 1.1502857142857144 3.4498285714285712 1.269942857142857 0.6353142857142856 2.8145142857142855 0.12034285714285714 3.4498285714285712 -1.149942857142857l1.7142857142857142 -3.4285714285714284Z" clip-rule="evenodd" stroke-width="3.4286"></path>
  </g>
</svg>