<svg xmlns="http://www.w3.org/2000/svg" fill="none" viewBox="0 0 48 48" id="Receipt-Subtract--Streamline-Core-Remix" height="48" width="48">
  <desc>
    Receipt Subtract Streamline Icon: https://streamlinehq.com
  </desc>
  <g id="Free Remix/Money Shopping/receipt-subtract--shop-shopping-pay-payment-store-cash-bill-receipt-subtract-minus-remove">
    <path id="Union" fill="#000000" fill-rule="evenodd" d="M10.285714285714285 1.2857142857142856c-2.3869371428571426 0 -4.676125714285714 0.9482125714285713 -6.363977142857142 2.636022857142857C2.233926857142857 5.609588571428572 1.2857142857142856 7.898777142857142 1.2857142857142856 10.285714285714285v34.285714285714285c0 0.7902857142857143 0.4349657142857143 1.516457142857143 1.1317337142857142 1.8891428571428572 0.6967645714285714 0.3730285714285714 1.5422091428571427 0.33222857142857143 2.199774857142857 -0.10628571428571428L11.142857142857142 42.00411428571429 17.66849142857143 46.35428571428571c0.7197942857142856 0.48000000000000004 1.6575085714285713 0.48000000000000004 2.377302857142857 0L26.57142857142857 42.00411428571429 33.09706285714285 46.35428571428571c0.6575657142857142 0.43851428571428575 1.5030514285714285 0.4793142857142857 2.199737142857143 0.10628571428571428 0.6966857142857142 -0.3726857142857143 1.1317714285714284 -1.0988571428571428 1.1317714285714284 -1.8891428571428572V19.285714285714285H44.57142857142857c1.183542857142857 0 2.142857142857143 -0.9593828571428571 2.142857142857143 -2.142857142857143V8.571428571428571c0 -1.9322742857142856 -0.7676571428571428 -3.7854514285714282 -2.133942857142857 -5.151778285714285C43.21405714285714 2.0533131428571427 41.36091428571428 1.2857142857142856 39.42857142857142 1.2857142857142856H10.285714285714285ZM32.14285714285714 8.571428571428571c0 -1.044582857142857 0.22433142857142857 -2.066057142857143 0.64632 -3H10.285714285714285c-1.2502971428571428 0 -2.449405714285714 0.49669714285714284 -3.3334971428571425 1.3807885714285713S5.571428571428571 9.035417142857144 5.571428571428571 10.285714285714285v30.28182857142857l4.382777142857143 -2.921828571428571c0.7197942857142856 -0.48000000000000004 1.6575085714285713 -0.48000000000000004 2.377302857142857 0L18.857142857142858 41.99588571428571 25.382777142857144 37.645714285714284c0.7197942857142856 -0.48000000000000004 1.6575085714285713 -0.48000000000000004 2.377302857142857 0l4.382777142857143 2.921828571428571V8.571428571428571Zm-22.71428571428571 13.714285714285714c0 -1.4201485714285715 1.1512799999999999 -2.571428571428571 2.571428571428571 -2.571428571428571h13.714285714285714c1.4201485714285715 0 2.571428571428571 1.1512799999999999 2.571428571428571 2.571428571428571s-1.1512799999999999 2.571428571428571 -2.571428571428571 2.571428571428571h-13.714285714285714c-1.4201485714285715 0 -2.571428571428571 -1.1512799999999999 -2.571428571428571 -2.571428571428571Z" clip-rule="evenodd" stroke-width="3.4286"></path>
  </g>
</svg>