<svg xmlns="http://www.w3.org/2000/svg" fill="none" viewBox="0 0 48 48" id="Receipt--Streamline-Core-Remix" height="48" width="48">
  <desc>
    Receipt Streamline Icon: https://streamlinehq.com
  </desc>
  <g id="Free Remix/Money Shopping/receipt--shop-shopping-pay-payment-store-cash-bill-receipt">
    <path id="Union" fill="#000000" fill-rule="evenodd" d="M3.9217371428571424 3.9217371428571424C5.609588571428572 2.233926857142857 7.898777142857142 1.2857142857142856 10.285714285714285 1.2857142857142856h29.142857142857142c1.932342857142857 0 3.7854857142857146 0.7675988571428571 5.151771428571428 2.133936 1.3662857142857143 1.366326857142857 2.133942857142857 3.2195039999999997 2.133942857142857 5.151778285714285V17.142857142857142c0 1.1834742857142857 -0.9593142857142857 2.142857142857143 -2.142857142857143 2.142857142857143h-8.142857142857142V44.57142857142857c0 0.7902857142857143 -0.4350857142857143 1.516457142857143 -1.1317714285714284 1.8891428571428572 -0.6966857142857142 0.3730285714285714 -1.5421714285714283 0.33222857142857143 -2.199737142857143 -0.10628571428571428L26.57142857142857 42.00411428571429 20.045794285714283 46.35428571428571c-0.7197942857142856 0.48000000000000004 -1.6575085714285713 0.48000000000000004 -2.377302857142857 0L11.142857142857142 42.00411428571429 4.617222857142857 46.35428571428571c-0.6575657142857142 0.43851428571428575 -1.5030102857142855 0.4793142857142857 -2.199774857142857 0.10628571428571428C1.72068 46.08788571428571 1.2857142857142856 45.36171428571428 1.2857142857142856 44.57142857142857V10.285714285714285c0 -2.3869371428571426 0.9482125714285713 -4.676125714285714 2.636022857142857 -6.363977142857142Zm28.86744 1.6496914285714284c-0.4219885714285714 0.933942857142857 -0.64632 1.9554171428571427 -0.64632 3v31.996114285714285L27.760080000000002 37.645714285714284c-0.7197942857142856 -0.48000000000000004 -1.6575085714285713 -0.48000000000000004 -2.377302857142857 0L18.857142857142858 41.99588571428571 12.331508571428571 37.645714285714284c-0.7197942857142856 -0.48000000000000004 -1.6575085714285713 -0.48000000000000004 -2.377302857142857 0l-4.382777142857143 2.921828571428571V10.285714285714285c0 -1.2502971428571428 0.49669714285714284 -2.449405714285714 1.3807885714285713 -3.3334971428571425S9.035417142857144 5.571428571428571 10.285714285714285 5.571428571428571h22.503462857142857ZM21.190834285714285 11.357142857142856v1.6412914285714286c1.3680685714285714 0.2127085714285714 2.580308571428571 0.8992800000000001 3.459977142857143 1.8821142857142859 0.5028685714285713 0.5618742857142857 0.9001371428571427 1.2233485714285715 1.1580685714285714 1.953085714285714 0.39438857142857137 1.1158285714285714 -0.19045714285714285 2.340102857142857 -1.3062857142857143 2.734491428571429 -1.1158285714285714 0.39438857142857137 -2.340068571428571 -0.19045714285714285 -2.7344571428571425 -1.3062857142857143 -0.06819428571428572 -0.19292571428571428 -0.17417142857142856 -0.3704571428571428 -0.31076571428571426 -0.5230971428571428 -0.29081142857142855 -0.32489142857142855 -0.7065942857142856 -0.5243314285714286 -1.1717828571428572 -0.5243314285714286H17.41062857142857c-0.6476228571428572 0 -1.17264 0.5250171428571427 -1.17264 1.17264 0 0.55104 0.3837257142857143 1.0277485714285715 0.9220457142857142 1.14552l4.377188571428571 0.9574971428571428c2.689645714285714 0.5883771428571428 4.605497142857143 2.9712 4.605497142857143 5.722937142857142 0 2.92608 -2.1462171428571426 5.353474285714285 -4.951885714285714 5.788902857142857v1.640982857142857c0 1.1835085714285714 -0.9593828571428571 2.1428228571428574 -2.142857142857143 2.1428228571428574 -1.1834399999999998 0 -2.142857142857143 -0.9593142857142857 -2.142857142857143 -2.1428228571428574v-1.6407771428571427c-2.1514971428571426 -0.3333257142857143 -3.912685714285714 -1.8372685714285713 -4.619005714285714 -3.835577142857143 -0.39438857142857137 -1.1157942857142857 0.19045714285714285 -2.340068571428571 1.3062857142857143 -2.7344571428571425 1.1158285714285714 -0.39438857142857137 2.340068571428571 0.19045714285714285 2.7344571428571425 1.3062857142857143 0.2167542857142857 0.6132 0.8017028571428572 1.0473942857142855 1.4825485714285713 1.0473942857142855h2.476182857142857c0.8668457142857142 0 1.5714171428571428 -0.7038857142857143 1.5714171428571428 -1.5727542857142858 0 -0.7392342857142856 -0.5149714285714285 -1.37856 -1.2356228571428571 -1.5362057142857142l-4.377188571428571 -0.9575314285714285c-2.50584 -0.5481257142857143 -4.29192 -2.7671314285714286 -4.29192 -5.332217142857142 0 -2.844137142857143 2.1752914285714287 -5.180194285714285 4.952845714285714 -5.435245714285714V11.357142857142856c0 -1.1834742857142857 0.9594171428571429 -2.142857142857143 2.142857142857143 -2.142857142857143 1.1834742857142857 0 2.142857142857143 0.9593828571428571 2.142857142857143 2.142857142857143Z" clip-rule="evenodd" stroke-width="3.4286"></path>
  </g>
</svg>