<svg xmlns="http://www.w3.org/2000/svg" fill="none" viewBox="0 0 48 48" id="Recording-Tape-Bubble-Circle--Streamline-Core-Remix" height="48" width="48">
  <desc>
    Recording Tape Bubble Circle Streamline Icon: https://streamlinehq.com
  </desc>
  <g id="Free Remix/Entertainment/recording-tape-bubble-circle--phone-device-mail-mobile-voice-machine-answering-chat-entertainment">
    <path id="Union" fill="#000000" fill-rule="evenodd" d="M4.285748571428571 24c0 -10.887908571428571 8.826377142857142 -19.71428571428571 19.71428571428571 -19.71428571428571C34.887771428571426 4.285714285714286 43.714285714285715 13.112091428571429 43.714285714285715 24c0 10.887771428571428 -8.826514285714284 19.71428571428571 -19.71425142857143 19.71428571428571 -3.033702857142857 0 -5.901908571428571 -0.6836571428571429 -8.464011428571428 -1.9038857142857142 -0.4330971428571428 -0.26537142857142854 -0.96168 -0.37885714285714284 -1.5009599999999998 -0.2814857142857143l-0.01758857142857143 0.0034285714285714284 -0.00013714285714285713 0 -8.540125714285715 1.5442285714285715 2.3333142857142857 -6.208114285714285 0.00003428571428571428 0 0.003462857142857143 -0.009257142857142858c0.2748 -0.7309714285714285 0.12404571428571427 -1.5178285714285713 -0.32869714285714285 -2.0879999999999996C5.461988571428571 31.675885714285712 4.285748571428571 27.978445714285712 4.285748571428571 24Zm19.71428571428571 24c-3.52368 0 -6.875005714285714 -0.7607999999999999 -9.894205714285714 -2.1284571428571426L2.5241794285714283 47.965714285714284c-0.7589348571428571 0.13714285714285715 -1.5330719999999998 -0.144 -2.027012571428571 -0.7361142857142857 -0.4939403794285714 -0.5924571428571429 -0.6314773714285714 -1.4046857142857143 -0.36013028571428574 -2.1264l3.2863645714285714 -8.743542857142856C1.2500571428571428 32.74834285714286 0.00002989885714285714 28.51741714285714 0.00002989885714285714 24c0 -13.254822857142857 10.745181529714285 -24 24.000004386857142 -24S48 10.745177142857143 48 24c0 13.254857142857142 -10.745142857142856 24 -23.999965714285715 24ZM15.593382857142856 17.241634285714284c-3.73248 0 -6.7582628571428565 3.0257485714285712 -6.7582628571428565 6.758228571428571 0 3.5695885714285716 2.76744 6.492788571428571 6.273805714285714 6.741154285714285 0.15569142857142856 0.036 0.3179314285714286 0.05502857142857142 0.48456 0.05502857142857142h16.8132c0.16673142857142856 0 0.3290057142857143 -0.019062857142857142 0.48476571428571424 -0.05506285714285714C36.397371428571425 30.49234285714285 39.16457142857143 27.56924571428571 39.16457142857143 23.999862857142855c0 -3.73248 -3.0257142857142854 -6.758228571428571 -6.75816 -6.758228571428571 -3.732445714285714 0 -6.758228571428571 3.0257485714285712 -6.758228571428571 6.758228571428571 0 0.887142857142857 0.1709142857142857 1.734308571428571 0.48164571428571423 2.510468571428571H21.869965714285712c0.31073142857142855 -0.77616 0.48164571428571423 -1.6233257142857143 0.48164571428571423 -2.510468571428571 0 -3.73248 -3.0257485714285712 -6.758228571428571 -6.758228571428571 -6.758228571428571Z" clip-rule="evenodd" stroke-width="3.4286"></path>
  </g>
</svg>