<svg xmlns="http://www.w3.org/2000/svg" fill="none" viewBox="0 0 48 48" id="Recording-Tape-Bubble-Square--Streamline-Core-Remix" height="48" width="48">
  <desc>
    Recording Tape Bubble Square Streamline Icon: https://streamlinehq.com
  </desc>
  <g id="Free Remix/Entertainment/recording-tape-bubble-square--phone-device-mail-mobile-voice-machine-answering-chat-entertainment">
    <path id="Union" fill="#000000" fill-rule="evenodd" d="M8.005645714285713 4.642971428571428c0.22875428571428572 -0.22875428571428572 0.53904 -0.35725714285714283 0.8625257142857143 -0.35725714285714283h33.62622857142857c0.3236571428571428 0 0.6339428571428571 0.12850285714285714 0.8626285714285713 0.35725714285714283 0.22868571428571427 0.22875428571428572 0.35725714285714283 0.5390057142857142 0.35725714285714283 0.8625257142857143v33.62650285714285c0 0.32331428571428567 -0.12857142857142856 0.6335999999999999 -0.35725714285714283 0.8622857142857142 -0.22868571428571427 0.22868571428571427 -0.5389714285714285 0.35725714285714283 -0.8626285714285713 0.35725714285714283H15.593451428571429c-0.1752 0 -0.3497485714285714 0.021599999999999998 -0.5197371428571428 0.06411428571428572l-9.663497142857143 2.4157714285714285 2.128217142857143 -6.384685714285714c0.07282285714285713 -0.2184 0.10995428571428571 -0.4470857142857142 0.10995428571428571 -0.6774857142857142V5.505497142857142c0 -0.32352 0.12850285714285714 -0.6337714285714285 0.35725714285714283 -0.8625257142857143ZM8.868171428571427 0c-1.46016 0 -2.8604914285714282 0.5800422857142856 -3.8929714285714287 1.6125222857142856 -1.03248 1.03248 -1.612518857142857 2.4328148571428567 -1.612518857142857 3.892974857142857v29.916102857142853l-3.2526723428571427 9.758057142857142c-0.24732274285714284 0.7419428571428571 -0.07076879999999999 1.5596571428571429 0.46063234285714283 2.1336 0.5313977142857143 0.5736 1.3332274285714285 0.8125714285714285 2.091980571428571 0.6226285714285714l13.194624 -3.298628571428571h26.637154285714285c1.4602285714285714 0 2.8608 -0.5797714285714285 3.893142857142857 -1.6124571428571428 1.032342857142857 -1.032342857142857 1.6124571428571428 -2.432914285714286 1.6124571428571428 -3.8928V5.505497142857142c0 -1.46016 -0.5801142857142857 -2.8604948571428572 -1.6124571428571428 -3.892974857142857C45.355199999999996 0.5800422857142856 43.95462857142857 0 42.4944 0H8.868171428571427Zm7.977874285714286 15.113005714285714c-3.73248 0 -6.7582628571428565 3.0257485714285712 -6.7582628571428565 6.758228571428571 0 3.5695885714285716 2.76744 6.492788571428571 6.273805714285714 6.741154285714285 0.15572571428571427 0.036 0.3179314285714286 0.05502857142857142 0.48459428571428564 0.05502857142857142h16.813165714285713c0.16673142857142856 0 0.3290057142857143 -0.019062857142857142 0.48476571428571424 -0.05506285714285714 3.5060571428571423 -0.24864 6.273257142857143 -3.1717371428571424 6.273257142857143 -6.74112 0 -3.73248 -3.0257142857142854 -6.758228571428571 -6.7582628571428565 -6.758228571428571 -3.73248 0 -6.7582628571428565 3.0257485714285712 -6.7582628571428565 6.758228571428571 0 0.887142857142857 0.17094857142857142 1.734308571428571 0.48164571428571423 2.510468571428571H23.12262857142857c0.31073142857142855 -0.77616 0.48164571428571423 -1.6233257142857143 0.48164571428571423 -2.510468571428571 0 -3.73248 -3.0257485714285712 -6.758228571428571 -6.758228571428571 -6.758228571428571Z" clip-rule="evenodd" stroke-width="3.4286"></path>
  </g>
</svg>