<svg xmlns="http://www.w3.org/2000/svg" fill="none" viewBox="0 0 48 48" id="Recycle-1--Streamline-Core-Remix" height="48" width="48">
  <desc>
    Recycle 1 Streamline Icon: https://streamlinehq.com
  </desc>
  <g id="Free Remix/Nature Ecology/recycle-1--nature-sign-environment-protect-save-arrows">
    <path id="Union" fill="#000000" fill-rule="evenodd" d="M15.63846857142857 -0.0020418342857142857h13.406091428571427c0.7164685714285713 0 1.3855542857142855 0.35806812 1.7829599999999999 0.95420412l1.830857142857143 2.746237714285714 1.7013942857142856 -1.488702857142857c0.6744 -0.5901257142857143 1.6450285714285713 -0.6982354285714285 2.4325714285714284 -0.27100114285714283 0.7878857142857143 0.4272342857142857 1.2267428571428571 1.2995622857142857 1.0998857142857141 2.1867325714285712l-1.6817142857142855 11.77086857142857c-0.15085714285714283 1.0556571428571428 -1.0549714285714284 1.8398057142857143 -2.121222857142857 1.8398057142857143H22.318285714285715c-0.8927314285714285 0 -1.691965714285714 -0.5534742857142857 -2.0059542857142856 -1.3891542857142856 -0.3139885714285714 -0.8357142857142856 -0.07697142857142857 -1.7785028571428572 0.5948571428571428 -2.366365714285714l1.14912 -1.0054628571428572 -5.9909485714285715 -6.989382857142857 -2.6430857142857143 5.286068571428571 1.4465142857142856 0.7232571428571428c1.0585028571428572 0.5292342857142857 1.4875885714285713 1.8163885714285715 0.9583199999999998 2.8749257142857143s-1.816422857142857 1.4875885714285713 -2.8749599999999997 0.9583199999999998l-3.3631199999999994 -1.681542857142857c-0.5083542857142858 -0.25416 -0.8948914285714286 -0.6998399999999999 -1.074582857142857 -1.2389828571428572 -0.17972571428571427 -0.5391771428571429 -0.13789714285714286 -1.127657142857143 0.11626285714285714 -1.6359771428571426L13.667931428571427 1.1974902857142857c0.026777142857142857 -0.05468571428571428 0.055748571428571425 -0.10789028571428572 0.08674285714285714 -0.159528 0.23177142857142854 -0.38712342857142856 0.57048 -0.677376 0.9586628571428571 -0.8516231999999999 0.14396571428571428 -0.06476365714285715 0.2956457142857143 -0.11385085714285714 0.45246857142857144 -0.1456584 0.15466285714285713 -0.03150130285714286 0.3132 -0.04606755428571428 0.47266285714285716 -0.04272252ZM41.43291428571428 18.632605714285713c-0.6521142857142858 -0.9876342857142856 -1.9813714285714283 -1.2596228571428572 -2.969142857142857 -0.607542857142857l-3.1378285714285714 2.0717485714285715c-0.9874285714285713 0.65208 -1.2595885714285713 1.9813028571428568 -0.607542857142857 2.968937142857143 0.6521142857142858 0.9875999999999998 1.9813714285714283 1.2596228571428572 2.9688 0.607542857142857l1.3498285714285714 -0.8910857142857143 3.2561142857142853 4.931725714285714 -9.048205714285714 1.6935085714285714 -0.29622857142857145 -1.4978742857142855c-0.17317714285714284 -0.8757942857142856 -0.8711657142857142 -1.552422857142857 -1.7518971428571428 -1.6983428571428572 -0.8807314285714285 -0.14592 -1.759645714285714 0.2694857142857143 -2.2060114285714283 1.0425942857142858L23.10528 37.44754285714286c-0.5332114285714286 0.9236571428571427 -0.3061714285714286 2.0986285714285713 0.5326628571428571 2.7572571428571426l9.353245714285714 7.341600000000001c0.7049142857142857 0.5533714285714285 1.6798971428571428 0.6096 2.4437828571428573 0.1409142857142857 0.7638857142857143 -0.4686857142857142 1.1554285714285715 -1.3632 0.9815999999999999 -2.2422857142857144l-0.43885714285714283 -2.2176 3.293828571428571 -0.21257142857142855c0.7152 -0.04594285714285714 1.3597714285714286 -0.4464 1.7180571428571427 -1.0669714285714285l6.701142857142856 -11.606879999999999c0.18445714285714285 -0.30346285714285715 0.2897142857142857 -0.647382857142857 0.3089142857142857 -0.9984685714285713 0.01817142857142857 -0.32931428571428567 -0.039428571428571424 -0.6649371428571428 -0.17828571428571427 -0.9793371428571428 -0.0528 -0.12037714285714286 -0.11759999999999998 -0.23684571428571427 -0.19337142857142856 -0.3477942857142857l-6.195085714285714 -9.3828Zm-25.418297142857142 3.063462857142857c-0.27599999999999997 -1.0300457142857142 -1.2674057142857142 -1.7004 -2.326148571428571 -1.5728571428571427L1.8833177142857143 21.54548571428571c-0.8897382857142856 0.10721142857142857 -1.6187989714285713 0.7567542857142857 -1.8275797714285713 1.628262857142857 -0.2087808 0.8715085714285715 0.14681999999999998 1.780902857142857 0.8914049142857141 2.279622857142857l1.8783222857142856 1.2580799999999999 -2.1788125714285713 2.4791999999999996c-0.47297314285714287 0.5381485714285713 -0.6456815965714285 1.2771085714285713 -0.4602414857142857 1.969165714285714L3.655268571428571 44.10548571428571c0.19032 0.7806857142857143 0.8138057142857142 1.4214857142857142 1.65312 1.5932571428571427l11.051348571428571 2.261485714285714c1.15944 0.23725714285714283 2.291657142857143 -0.5101714285714285 2.5289485714285713 -1.6697142857142855l0.7538057142857142 -3.6836571428571427c0.23729142857142854 -1.159542857142857 -0.5103085714285714 -2.291657142857143 -1.6697485714285714 -2.528914285714286 -1.15944 -0.23725714285714283 -2.2916914285714283 0.5101714285714285 -2.5289485714285713 1.6697142857142855l-0.32420571428571426 1.584342857142857 -5.7902057142857135 -1.1849142857142858 5.2008342857142855 -7.596 1.26864 0.8499428571428571c0.7417371428571429 0.49679999999999996 1.7137371428571428 0.48171428571428576 2.439702857142857 -0.03805714285714286 0.7259314285714286 -0.5194285714285714 1.053702857142857 -1.4347885714285713 0.8226171428571428 -2.2971085714285713l-3.04656 -11.369794285714287Z" clip-rule="evenodd" stroke-width="3.4286"></path>
  </g>
</svg>