<svg xmlns="http://www.w3.org/2000/svg" fill="none" viewBox="0 0 48 48" id="Recycle-Bin-2--Streamline-Core-Remix" height="48" width="48">
  <desc>
    Recycle Bin 2 Streamline Icon: https://streamlinehq.com
  </desc>
  <g id="Free Remix/Interface Essential/recycle-bin-2--remove-delete-empty-bin-trash-garbage">
    <path id="Union" fill="#000000" fill-rule="evenodd" d="M20.060399999999998 7.631828571428572C21.105257142857145 6.586971428571428 22.522354285714286 6 24 6c1.477645714285714 0 2.894742857142857 0.5869714285714285 3.9395999999999995 1.6318285714285712 0.7361485714285714 0.736182857142857 1.2450514285714285 1.6571657142857141 1.4814514285714284 2.6538857142857144H18.57894857142857c0.23639999999999997 -0.99672 0.7452685714285714 -1.917702857142857 1.4814514285714284 -2.6538857142857144ZM12.500194285714285 10.285714285714285c0.29012571428571426 -2.5958742857142854 1.4527199999999998 -5.031702857142857 3.3175542857142855 -6.89652C17.987828571428572 1.2191279999999998 20.93105142857143 0 24 0c3.068948571428571 0 6.012171428571428 1.2191279999999998 8.182251428571428 3.389194285714286C34.047085714285714 5.254011428571428 35.209714285714284 7.689839999999999 35.49977142857143 10.285714285714285H44.57142857142857c1.6566857142857143 0 3 1.343142857142857 3 3s-1.3433142857142857 3 -3 3h-3v26.142857142857142c0 1.4777142857142855 -0.5869714285714285 2.894742857142857 -1.632 3.9394285714285715 -1.0446857142857142 1.0450285714285714 -2.4617142857142853 1.632 -3.9394285714285715 1.632h-24c-1.477645714285714 0 -2.894742857142857 -0.5869714285714285 -3.9395999999999995 -1.632 -1.044857142857143 -1.0446857142857142 -1.6318285714285712 -2.4617142857142853 -1.6318285714285712 -3.9394285714285715V16.285714285714285H3.4285714285714284c-1.656853714285714 0 -3 -1.343142857142857 -3 -3S1.7717177142857141 10.285714285714285 3.4285714285714284 10.285714285714285h9.071622857142858Zm24.785519999999998 32.14285714285714V16.285714285714285h-26.57142857142857v26.142857142857142c0 0.34114285714285714 0.13546285714285713 0.6678857142857143 0.37655999999999995 0.9092571428571428 0.24113142857142858 0.24102857142857143 0.5681485714285713 0.3764571428571428 0.9091542857142857 0.3764571428571428h24c0.34114285714285714 0 0.6678857142857143 -0.13542857142857143 0.9092571428571428 -0.3764571428571428 0.24102857142857143 -0.24137142857142857 0.3764571428571428 -0.5681142857142857 0.3764571428571428 -0.9092571428571428ZM18.857142857142858 20.576434285714285c1.1834742857142857 0 2.142857142857143 0.9594171428571429 2.142857142857143 2.142857142857143V36.43885714285714c0 1.1832 -0.9593828571428571 2.142857142857143 -2.142857142857143 2.142857142857143s-2.142857142857143 -0.9596571428571428 -2.142857142857143 -2.142857142857143V22.719291428571427c0 -1.1834399999999998 0.9593828571428571 -2.142857142857143 2.142857142857143 -2.142857142857143Zm12.428571428571427 2.142857142857143c0 -1.1834399999999998 -0.9593828571428571 -2.142857142857143 -2.142857142857143 -2.142857142857143s-2.142857142857143 0.9594171428571429 -2.142857142857143 2.142857142857143V36.43885714285714c0 1.1832 0.9593828571428571 2.142857142857143 2.142857142857143 2.142857142857143s2.142857142857143 -0.9596571428571428 2.142857142857143 -2.142857142857143V22.719291428571427Z" clip-rule="evenodd" stroke-width="3.4286"></path>
  </g>
</svg>