<svg xmlns="http://www.w3.org/2000/svg" fill="none" viewBox="0 0 48 48" id="Reduced-Inequalities--Streamline-Core-Remix" height="48" width="48">
  <desc>
    Reduced Inequalities Streamline Icon: https://streamlinehq.com
  </desc>
  <g id="Free Remix/Nature Ecology/reduced-inequalities">
    <path id="Union" fill="#000000" fill-rule="evenodd" d="M25.59277714285714 0.7093611428571428C25.18638857142857 0.2578316571428571 24.607474285714282 0 24 0c-0.6074742857142857 0 -1.1863885714285713 0.2578316571428571 -1.5927771428571427 0.7093611428571428l-7.7142857142857135 8.571438857142857c-0.5660914285714286 0.6290057142857143 -0.7089942857142857 1.5322285714285715 -0.36473142857142854 2.3052685714285714 0.3442971428571428 0.77304 1.1112685714285715 1.2710742857142856 1.9575085714285714 1.2710742857142856h15.428571428571427c0.84624 0 1.6132114285714285 -0.4980342857142857 1.9575085714285714 -1.2710742857142856 0.34426285714285715 -0.77304 0.20135999999999998 -1.676262857142857 -0.36473142857142854 -2.3052685714285714l-7.7142857142857135 -8.571438857142857ZM24 5.346102857142857 26.9028 8.571428571428571h-5.8056L24 5.346102857142857ZM16.285714285714285 35.14285714285714c-0.84624 0 -1.6132114285714285 0.4981714285714286 -1.9575085714285714 1.2709714285714284 -0.34426285714285715 0.7731428571428571 -0.20135999999999998 1.6762285714285714 0.36473142857142854 2.3053714285714286l7.7142857142857135 8.571428571428571C22.813611428571427 47.742171428571424 23.392525714285714 48 24 48c0.6074742857142857 0 1.1863885714285713 -0.2578285714285714 1.5927771428571427 -0.7093714285714285l7.7142857142857135 -8.571428571428571c0.5660914285714286 -0.6291428571428571 0.7089942857142857 -1.5322285714285715 0.36473142857142854 -2.3053714285714286 -0.3442971428571428 -0.7727999999999999 -1.1112685714285715 -1.2709714285714284 -1.9575085714285714 -1.2709714285714284h-15.428571428571427ZM24 42.65382857142857 21.097199999999997 39.42857142857142h5.8056L24 42.65382857142857Zm12.41382857142857 -28.325622857142854c0.7731428571428571 -0.34426285714285715 1.6762285714285714 -0.20135999999999998 2.3053714285714286 0.36473142857142854l8.571428571428571 7.7142857142857135C47.742171428571424 22.813611428571427 48 23.392525714285714 48 24c0 0.6074742857142857 -0.2578285714285714 1.1863885714285713 -0.7093714285714285 1.5927771428571427l-8.571428571428571 7.7142857142857135c-0.6291428571428571 0.5660914285714286 -1.5322285714285715 0.7089942857142857 -2.3053714285714286 0.36473142857142854 -0.7727999999999999 -0.3442971428571428 -1.2709714285714284 -1.1112685714285715 -1.2709714285714284 -1.9575085714285714v-15.428571428571427c0 -0.84624 0.4981714285714286 -1.6132114285714285 1.2709714285714284 -1.9575085714285714ZM12.857142857142856 16.285714285714285c0 -0.84624 -0.4980342857142857 -1.6132114285714285 -1.2710742857142856 -1.9575085714285714 -0.77304 -0.34426285714285715 -1.676262857142857 -0.20135999999999998 -2.3052685714285714 0.36473142857142854l-8.571438857142857 7.7142857142857135C0.2578316571428571 22.813611428571427 0 23.392525714285714 0 24c0 0.6074742857142857 0.2578316571428571 1.1863885714285713 0.7093611428571428 1.5927771428571427l8.571438857142857 7.7142857142857135c0.6290057142857143 0.5660914285714286 1.5322285714285715 0.7089942857142857 2.3052685714285714 0.36473142857142854 0.77304 -0.3442971428571428 1.2710742857142856 -1.1112685714285715 1.2710742857142856 -1.9575085714285714v-15.428571428571427Zm3 3.4285714285714284c0 -1.1834742857142857 0.9593828571428571 -2.142857142857143 2.142857142857143 -2.142857142857143h12c1.1834742857142857 0 2.142857142857143 0.9593828571428571 2.142857142857143 2.142857142857143s-0.9593828571428571 2.142857142857143 -2.142857142857143 2.142857142857143h-12c-1.1834742857142857 0 -2.142857142857143 -0.9593828571428571 -2.142857142857143 -2.142857142857143Zm2.142857142857143 6.428571428571428c-1.1834742857142857 0 -2.142857142857143 0.9593828571428571 -2.142857142857143 2.142857142857143s0.9593828571428571 2.142857142857143 2.142857142857143 2.142857142857143h12c1.1834742857142857 0 2.142857142857143 -0.9593828571428571 2.142857142857143 -2.142857142857143s-0.9593828571428571 -2.142857142857143 -2.142857142857143 -2.142857142857143h-12Z" clip-rule="evenodd" stroke-width="3.4286"></path>
  </g>
</svg>