<svg xmlns="http://www.w3.org/2000/svg" fill="none" viewBox="0 0 48 48" id="Refrigerator--Streamline-Core-Remix" height="48" width="48">
  <desc>
    Refrigerator Streamline Icon: https://streamlinehq.com
  </desc>
  <g id="Free Remix/Food Drink/refrigerator--fridge-cook-appliances-cooking-nutrition-freezer-appliance-food-kitchenware">
    <path id="Union" fill="#000000" fill-rule="evenodd" d="M9 39V20.57142857142857h30v18.428571428571427c0 0.7100571428571428 -0.5756571428571428 1.2857142857142856 -1.2857142857142856 1.2857142857142856H10.285714285714285c-0.7100914285714285 0 -1.2857142857142856 -0.5756571428571428 -1.2857142857142856 -1.2857142857142856Zm34.285714285714285 0c0 2.9328 -2.265942857142857 5.336228571428571 -5.142857142857142 5.555314285714286v1.3018285714285713c0 1.183542857142857 -0.9593142857142857 2.142857142857143 -2.142857142857143 2.142857142857143s-2.142857142857143 -0.9593142857142857 -2.142857142857143 -2.142857142857143V44.57142857142857h-19.71428571428571v1.2857142857142856c0 1.183542857142857 -0.9593828571428571 2.142857142857143 -2.142857142857143 2.142857142857143s-2.142857142857143 -0.9593142857142857 -2.142857142857143 -2.142857142857143v-1.3018285714285713c-2.8767771428571427 -0.21908571428571427 -5.142857142857142 -2.622514285714286 -5.142857142857142 -5.555314285714286v-33.42857142857142C4.714285714285714 2.494412571428571 7.208708571428571 0 10.285714285714285 0h27.428571428571427c3.077142857142857 0 5.571428571428571 2.494412571428571 5.571428571428571 5.571428571428571v33.42857142857142Zm-27.428571428571427 -29.57142857142857c0 -1.1834742857142857 -0.9593828571428571 -2.142857142857143 -2.142857142857143 -2.142857142857143s-2.142857142857143 0.9593828571428571 -2.142857142857143 2.142857142857143v3.4285714285714284c0 1.1834742857142857 0.9593828571428571 2.142857142857143 2.142857142857143 2.142857142857143s2.142857142857143 -0.9593828571428571 2.142857142857143 -2.142857142857143v-3.4285714285714284Zm0 17.142857142857142c0 -1.1834742857142857 -0.9593828571428571 -2.142857142857143 -2.142857142857143 -2.142857142857143s-2.142857142857143 0.9593828571428571 -2.142857142857143 2.142857142857143v3.4285714285714284c0 1.1834742857142857 0.9593828571428571 2.142857142857143 2.142857142857143 2.142857142857143s2.142857142857143 -0.9593828571428571 2.142857142857143 -2.142857142857143v-3.4285714285714284Z" clip-rule="evenodd" stroke-width="3.4286"></path>
  </g>
</svg>