<svg xmlns="http://www.w3.org/2000/svg" fill="none" viewBox="0 0 48 48" id="Return-2--Streamline-Core-Remix" height="48" width="48">
  <desc>
    Return 2 Streamline Icon: https://streamlinehq.com
  </desc>
  <g id="Free Remix/Computer Devices/return-2--arrow-return-enter-keyboard">
    <path id="Union" fill="#000000" fill-rule="evenodd" d="M20.142857142857142 5.142857142857142c0 -1.1834742857142857 0.9593828571428571 -2.142857142857143 2.142857142857143 -2.142857142857143h11.142857142857142c8.047542857142856 0 14.571428571428571 6.523851428571428 14.571428571428571 14.571428571428571s-6.523885714285714 14.571428571428571 -14.571428571428571 14.571428571428571h-17.142857142857142V42.857142857142854c0 0.6932571428571428 -0.4176685714285714 1.3182857142857143 -1.058262857142857 1.5836571428571427 -0.6405942857142857 0.26537142857142854 -1.3779085714285715 0.11897142857142858 -1.8681942857142855 -0.37131428571428565L0.502104 31.212171428571427c-0.6694714285714286 -0.669462857142857 -0.6694714285714286 -1.7548799999999998 0 -2.424342857142857l12.857153142857142 -12.857142857142856c0.4902857142857142 -0.4902857142857142 1.2275999999999998 -0.63696 1.8681942857142855 -0.37162285714285714S16.285714285714285 16.44949714285714 16.285714285714285 17.142857142857142v10.714285714285714h17.142857142857142c5.6808 0 10.285714285714285 -4.605085714285714 10.285714285714285 -10.285714285714285s-4.604914285714285 -10.285714285714285 -10.285714285714285 -10.285714285714285H22.285714285714285c-1.1834742857142857 0 -2.142857142857143 -0.9593828571428571 -2.142857142857143 -2.142857142857143Z" clip-rule="evenodd" stroke-width="3.4286"></path>
  </g>
</svg>