<svg xmlns="http://www.w3.org/2000/svg" fill="none" viewBox="0 0 48 48" id="Ringing-Bell-Notification--Streamline-Core-Remix" height="48" width="48">
  <desc>
    Ringing Bell Notification Streamline Icon: https://streamlinehq.com
  </desc>
  <g id="Free Remix/Interface Essential/ringing-bell-notification--notification-vibrate-ring-sound-alarm-alert-bell-noise">
    <path id="Union" fill="#000000" fill-rule="evenodd" d="M12.454799999999999 0.8930194285714285c0.6903428571428571 0.9612514285714284 0.47074285714285713 2.300142857142857 -0.4905257142857143 2.9904891428571423 -2.3745942857142857 1.7054057142857142 -4.309405714285714 3.9513257142857143 -5.64456 6.552205714285714 -1.3351542857142855 2.6008799999999996 -2.032354285714286 5.482114285714286 -2.0340000000000003 8.405657142857143 -0.0006857142857142857 1.1834742857142857 -0.9606034285714284 2.142308571428571 -2.144070857142857 2.141657142857143 -1.1834674285714284 -0.0006857142857142857 -2.142312966857143 -0.9606171428571427 -2.1416430778285713 -2.1440914285714285C0.0020412822857142853 15.235474285714284 0.8613805714285714 11.684228571428571 2.507036571428571 8.47848 4.152685714285714 5.272731428571428 6.5374285714285705 2.5045371428571426 9.464297142857141 0.40252114285714286c0.9612342857142857 -0.6903572571428571 2.300125714285714 -0.47075314285714287 2.990502857142857 0.49049828571428566ZM24 5.143028571428571c-4.205588571428572 0 -8.238891428571428 1.67064 -11.212697142857143 4.644445714285714C9.813531428571428 12.761245714285714 8.142857142857142 16.794582857142856 8.142857142857142 21.000171428571427v11.142857142857142c0 0.7956342857142856 -0.31607999999999997 1.5586971428571428 -0.8786742857142857 2.1213257142857143 -0.5626285714285714 0.5627314285714285 -1.3256914285714285 0.8785028571428571 -2.1213257142857143 0.8785028571428571 -1.1834742857142857 0 -2.142857142857143 0.9596571428571428 -2.142857142857143 2.142857142857143 0 1.183542857142857 0.9593828571428571 2.142857142857143 2.142857142857143 2.142857142857143h37.714285714285715c1.183542857142857 0 2.142857142857143 -0.9593142857142857 2.142857142857143 -2.142857142857143 0 -1.1832 -0.9593142857142857 -2.142857142857143 -2.142857142857143 -2.142857142857143 -0.7957714285714286 0 -1.5586285714285713 -0.31577142857142854 -2.121257142857143 -0.8785028571428571 -0.5626285714285714 -0.5626285714285714 -0.878742857142857 -1.3256914285714285 -0.878742857142857 -2.1213257142857143v-11.142857142857142c0 -4.205588571428572 -1.670742857142857 -8.238925714285715 -4.644342857142857 -11.212697142857143C32.23889142857143 6.813668571428571 28.20558857142857 5.143028571428571 24 5.143028571428571Zm11.571428571428571 27c0 1.044582857142857 0.22422857142857142 2.066057142857143 0.6462857142857142 2.999828571428571H11.782251428571428c0.4219885714285714 -0.9337714285714285 0.64632 -1.9552457142857143 0.64632 -2.999828571428571v-11.142857142857142c0 -3.068948571428571 1.2191314285714285 -6.012171428571428 3.3891771428571427 -8.182251428571428C17.987828571428572 10.647874285714286 20.93105142857143 9.428742857142856 24 9.428742857142856c3.068948571428571 0 6.012171428571428 1.2191314285714285 8.182251428571428 3.3891771428571427 2.169977142857143 2.1700799999999996 3.3891771428571427 5.113302857142856 3.3891771428571427 8.182251428571428v11.142857142857142ZM20.57142857142857 42.857142857142854c-1.4201485714285715 0 -2.571428571428571 1.1513142857142855 -2.571428571428571 2.571428571428571 0 1.4204571428571429 1.1512799999999999 2.571428571428571 2.571428571428571 2.571428571428571h6.857142857142857c1.4201485714285715 0 2.571428571428571 -1.1509714285714285 2.571428571428571 -2.571428571428571 0 -1.4201142857142857 -1.1512799999999999 -2.571428571428571 -2.571428571428571 -2.571428571428571H20.57142857142857ZM38.53577142857142 0.40252114285714286c-0.9613714285714284 -0.6903572571428571 -2.3002285714285713 -0.47075314285714287 -2.9903999999999997 0.49049828571428566 -0.6905142857142856 0.9612514285714284 -0.47074285714285713 2.300142857142857 0.4902857142857142 2.9904891428571423 2.374628571428571 1.7054057142857142 4.309371428571428 3.9513257142857143 5.644457142857143 6.552205714285714 1.3354285714285714 2.6008799999999996 2.0324571428571425 5.482114285714286 2.0341714285714287 8.405657142857143 0.0006857142857142857 1.1834742857142857 0.9606857142857143 2.142308571428571 2.144228571428571 2.141657142857143 1.1832 -0.0006857142857142857 2.1421714285714284 -0.9606171428571427 2.1414857142857144 -2.1440914285714285 -0.0020571428571428568 -3.603462857142857 -0.8612571428571427 -7.154708571428571 -2.506971428571428 -10.360457142857141 -1.6457142857142855 -3.2057485714285714 -4.030628571428571 -5.973942857142856 -6.957257142857142 -8.075958857142856Z" clip-rule="evenodd" stroke-width="3.4286"></path>
  </g>
</svg>