<svg xmlns="http://www.w3.org/2000/svg" fill="none" viewBox="0 0 48 48" id="Rock-And-Roll-Hand--Streamline-Core-Remix" height="48" width="48">
  <desc>
    Rock And Roll Hand Streamline Icon: https://streamlinehq.com
  </desc>
  <g id="Free Remix/Interface Essential/rock-and-roll-hand">
    <path id="Union" fill="#000000" fill-rule="evenodd" d="M13.82965714285714 0C10.081988571428571 0 7.043931428571428 3.0380674285714284 7.043931428571428 6.785725714285714v20.77230857142857C5.5200000000000005 28.82057142857143 4.45368 30.64371428571428 4.202502857142857 32.907428571428575c-0.28141714285714287 2.536457142857143 -0.28885714285714287 5.483657142857142 0.80424 8.219999999999999 1.13256 2.835428571428571 3.3602057142857142 5.228914285714285 7.100845714285713 6.720685714285714 1.0993028571428571 0.43851428571428575 2.3457942857142853 -0.09737142857142857 2.7841714285714287 -1.1965714285714284 0.4383428571428571 -1.099542857142857 -0.09744 -2.3458285714285716 -1.196742857142857 -2.7843428571428572 -2.714502857142857 -1.0823999999999998 -4.037211428571428 -2.649257142857143 -4.70832 -4.329599999999999 -0.7105714285714285 -1.7787428571428572 -0.7749257142857142 -3.9013714285714283 -0.5246057142857142 -6.157577142857143 0.23125714285714283 -2.0841942857142857 1.9242857142857144 -3.522308571428571 4.265485714285714 -3.522308571428571 1.5318514285714286 0 3.8512114285714283 0.00312 5.788765714285714 0.00624l2.471828571428571 0.00432 0.7459199999999999 0.0014057142857142855 0.17746285714285714 0.00034285714285714285c1.0616914285714285 0.11924571428571427 1.9008685714285714 1.1318057142857143 1.7903657142857143 2.2766742857142854 -0.06802285714285713 0.7047771428571428 -0.4192457142857143 1.171302857142857 -1.4735657142857141 1.6300799999999998 -0.8510399999999999 0.37032 -1.7560114285714286 0.5706514285714286 -2.79432 0.8007085714285713 -0.46604571428571423 0.10319999999999999 -0.9589371428571428 0.2122285714285714 -1.4859085714285714 0.34559999999999996 -0.8804228571428572 0.2225142857142857 -1.5250285714285712 0.9757714285714286 -1.6087885714285712 1.8798857142857142 -0.08376 0.9041142857142856 0.41149714285714284 1.7629714285714284 1.2360685714285713 2.1435428571428568 0.9342171428571429 0.43097142857142856 2.3340685714285714 1.2551999999999999 3.4220571428571427 2.2597714285714283 1.1819657142857143 1.0913142857142857 1.4826514285714285 1.9052571428571428 1.4345485714285713 2.356114285714286 -0.12552 1.1770285714285713 0.7266857142857143 2.232685714285714 1.9034742857142857 2.358171428571428 1.1767885714285713 0.12548571428571428 2.2325142857142857 -0.7265142857142857 2.3580685714285714 -1.9035428571428572 0.2755542857142857 -2.583428571428571 -1.3862057142857143 -4.664571428571429 -2.7888342857142856 -5.959542857142857 -0.08430857142857143 -0.07782857142857143 -0.16957714285714284 -0.15462857142857142 -0.2556685714285714 -0.23039999999999997 0.09792 -0.039085714285714286 0.19443428571428573 -0.07919999999999999 0.28933714285714285 -0.12068571428571429 1.8355199999999998 -0.7985142857142856 3.754491428571428 -2.299542857142857 4.0294285714285705 -5.147965714285714 0.33236571428571426 -3.4432114285714284 -2.195588571428571 -6.689862857142857 -5.791131428571428 -6.967542857142857 -0.06078857142857142 -0.004697142857142856 -0.12119999999999999 -0.0067885714285714285 -0.18109714285714285 -0.0064114285714285705l-0.05053714285714285 -0.00010285714285714286 -0.2025942857142857 -0.00037714285714285714 -0.7462971428571428 -0.0014399999999999999 -2.4728914285714283 -0.00432c-1.937417142857143 -0.00312 -4.259965714285714 -0.00624 -5.795691428571428 -0.00624 -0.4722171428571428 0 -0.9395657142857142 0.035005714285714286 -1.3979314285714284 0.10368V6.785725714285714c0 -1.38072 1.1192914285714284 -2.5000114285714283 2.5000114285714283 -2.5000114285714283 1.3806857142857143 0 2.499977142857143 1.1192914285714284 2.499977142857143 2.5000114285714283v14.499977142857142c0 0.6216685714285715 0.26999999999999996 1.21272 0.7398857142857143 1.6197257142857142 0.4698857142857143 0.40704 1.0934057142857143 0.5899199999999999 1.7086971428571427 0.5012228571428571 3.0419657142857144 -0.43848 4.632171428571429 -0.5480228571428571 6.0905828571428575 -0.3343885714285714 1.4652342857142857 0.21466285714285713 2.9428799999999997 0.7757485714285713 5.72592 2.0254285714285714 0.6630514285714285 0.29773714285714287 1.4318057142857141 0.23904 2.042022857142857 -0.1558285714285714 0.610182857142857 -0.3949028571428571 0.9786171428571429 -1.072182857142857 0.9786171428571429 -1.7990057142857143V14.214274285714286c0 -1.3806857142857143 1.1191542857142855 -2.499977142857143 2.49984 -2.499977142857143 1.3810285714285713 0 2.5001142857142855 1.1192914285714284 2.5001142857142855 2.499977142857143v20.390639999999998c0 3.0692571428571425 -1.2192 6.0123428571428565 -3.3891428571428572 8.182285714285713l-1.5546171428571427 1.5548571428571427c-0.8368457142857142 0.8365714285714285 -0.8368457142857142 2.1936 0 3.0301714285714283 0.8366742857142857 0.8369142857142857 2.193702857142857 0.8369142857142857 3.0306171428571425 0l1.5545142857142857 -1.5545142857142857c2.9736 -2.9736 4.644342857142857 -7.006971428571427 4.644342857142857 -11.2128V14.214274285714286c0 -3.7476342857142853 -3.038057142857143 -6.785691428571428 -6.7858285714285715 -6.785691428571428 -3.747497142857143 0 -6.785554285714285 3.038057142857143 -6.785554285714285 6.785691428571428v5.688754285714285c-1.3579542857142857 -0.5239885714285714 -2.5721142857142856 -0.8855314285714285 -3.8396914285714283 -1.071222857142857 -1.5140571428571428 -0.22175999999999998 -3.0311657142857142 -0.18250285714285713 -4.874605714285714 0.016114285714285713V6.785725714285714C20.61534857142857 3.0380742857142855 17.577291428571428 0 13.82965714285714 0Z" clip-rule="evenodd" stroke-width="3.4286"></path>
  </g>
</svg>