<svg xmlns="http://www.w3.org/2000/svg" fill="none" viewBox="0 0 48 48" id="Rock-Slide--Streamline-Core-Remix" height="48" width="48">
  <desc>
    Rock Slide Streamline Icon: https://streamlinehq.com
  </desc>
  <g id="Free Remix/Map Travel/rock-slide--hill-cliff-sign-danger-stone">
    <path id="Union" fill="#000000" fill-rule="evenodd" d="M2.608536 1.4488937142857143c0.8007291428571428 -0.33167657142857143 1.7224011428571429 -0.1483405714285714 2.3352582857142856 0.4645131428571428l6.857142857142857 6.857153142857142c0.32783999999999996 0.32783999999999996 0.5405142857142857 0.7531885714285713 0.606102857142857 1.2121714285714285l1.5942514285714284 11.159897142857142 16.480182857142857 13.184228571428571c0.39370285714285713 0.31474285714285716 0.6637371428571429 0.7584 0.7626171428571428 1.2528l1.7142857142857142 8.571428571428571c0.12589714285714285 0.6298285714285714 -0.03706285714285714 1.2826285714285712 -0.44406857142857137 1.7790857142857144 -0.40700571428571425 0.4964571428571429 -1.0151657142857142 0.7841142857142857 -1.6571657142857141 0.7841142857142857H3.4285714285714284c-1.1834674285714284 0 -2.142857142857143 -0.9593142857142857 -2.142857142857143 -2.142857142857143V3.4286399999999997c0 -0.8667119999999999 0.5220891428571428 -1.6480731428571427 1.3228217142857144 -1.9797462857142856ZM31.285714285714285 17.142925714285713c0 -1.6568571428571428 1.343142857142857 -3 3 -3 1.6566857142857143 0 3 1.343142857142857 3 3s-1.3433142857142857 3 -3 3c-1.6568571428571428 0 -3 -1.343142857142857 -3 -3Zm3 -7.285714285714286c-4.023771428571428 0 -7.285714285714286 3.261908571428571 -7.285714285714286 7.285714285714286 0 4.023771428571428 3.261942857142857 7.285714285714286 7.285714285714286 7.285714285714286s7.285714285714286 -3.261942857142857 7.285714285714286 -7.285714285714286c0 -4.023805714285714 -3.261942857142857 -7.285714285714286 -7.285714285714286 -7.285714285714286ZM39.42857142857142 37.714285714285715c0 -1.8936 1.5349714285714284 -3.4285714285714284 3.4285714285714284 -3.4285714285714284s3.4285714285714284 1.5349714285714284 3.4285714285714284 3.4285714285714284 -1.5349714285714284 3.4285714285714284 -3.4285714285714284 3.4285714285714284 -3.4285714285714284 -1.5349714285714284 -3.4285714285714284 -3.4285714285714284ZM20.57142857142857 1.7143474285714284c-1.8935314285714284 0 -3.4285714285714284 1.535022857142857 -3.4285714285714284 3.428578285714286 0 1.8935314285714284 1.53504 3.4285714285714284 3.4285714285714284 3.4285714285714284s3.4285714285714284 -1.53504 3.4285714285714284 -3.4285714285714284C24 3.249370285714286 22.464959999999998 1.7143474285714284 20.57142857142857 1.7143474285714284Z" clip-rule="evenodd" stroke-width="3.4286"></path>
  </g>
</svg>