<svg xmlns="http://www.w3.org/2000/svg" fill="none" viewBox="0 0 48 48" id="Rose--Streamline-Core-Remix" height="48" width="48">
  <desc>
    Rose Streamline Icon: https://streamlinehq.com
  </desc>
  <g id="Free Remix/Nature Ecology/rose--nature-flower-rose-plant-tree">
    <path id="Union" fill="#000000" fill-rule="evenodd" d="M24 4.285714285714286c-3.168342857142857 0 -5.917165714285714 1.810937142857143 -7.262674285714285 4.4553257142857134 2.5597714285714286 0.8587885714285713 4.992582857142857 1.99416 7.262948571428571 3.370525714285714 2.2704 -1.3760914285714285 4.703314285714285 -2.5112228571428568 7.262742857142857 -3.369942857142857C29.917577142857144 6.096925714285714 27.168582857142855 4.285714285714286 24 4.285714285714286ZM5.142857142857142 6.857142857142857c-1.1834742857142857 0 -2.142857142857143 0.9593828571428571 -2.142857142857143 2.142857142857143v11.142857142857142c0 10.579405714285713 7.8231085714285715 19.331657142857143 18 20.78742857142857v4.070057142857142c0 1.6570285714285713 1.343142857142857 3 3 3s3 -1.3429714285714285 3 -3v-4.0704c4.825645714285714 -0.6905142857142856 9.122742857142857 -3.022285714285714 12.304457142857142 -6.4076571428571425 0.07714285714285714 -0.07165714285714285 0.14845714285714284 -0.1488 0.21359999999999998 -0.23039999999999997l0.11519999999999998 -0.12740571428571426C42.96857142857143 30.448114285714283 45 25.53017142857143 45 20.142857142857142v-11.142857142857142c0 -1.1834742857142857 -0.9593142857142857 -2.142857142857143 -2.142857142857143 -2.142857142857143 -1.3765714285714286 0 -2.736 0.07645714285714285 -4.073828571428571 0.22542857142857142 -1.1242285714285714 0.12517714285714285 -2.233028571428571 0.3015428571428571 -3.324342857142857 0.5266971428571429C33.57661714285714 3.1390662857142853 29.156845714285712 0 24 0 18.84332571428571 0 14.423657142857142 3.138864 12.541199999999998 7.608857142857143c-2.23968 -0.4620342857142857 -4.554548571428572 -0.7184571428571428 -6.924068571428571 -0.7486971428571428C5.45928 6.858137142857143 5.301188571428572 6.857142857142857 5.142857142857142 6.857142857142857ZM24 36.857142857142854c4.400228571428571 0 8.401542857142857 -1.6981714285714284 11.388 -4.4797714285714285 -2.3674285714285714 -6.563417142857142 -6.810651428571428 -12.133954285714285 -12.536365714285713 -15.920639999999999 -0.021874285714285714 -0.013851428571428572 -0.043508571428571424 -0.02814857142857143 -0.06493714285714285 -0.04282285714285714C18.281177142857143 13.449805714285713 12.985988571428571 11.5884 7.285714285714286 11.213177142857141V20.142857142857142c0 9.231051428571428 7.4832342857142855 16.71428571428571 16.71428571428571 16.71428571428571Zm16.71428571428571 -16.71428571428571c0 3.059245714285714 -0.8204571428571429 5.924262857142857 -2.254628571428571 8.38992 -2.3845714285714283 -5.377302857142857 -6.03288 -10.070125714285714 -10.568331428571428 -13.70112 2.102982857142857 -1.10856 4.343794285714285 -1.990697142857143 6.690617142857143 -2.6140457142857145 1.9745142857142854 -0.5245028571428572 4.0248 -0.8659542857142857 6.132342857142857 -1.0045371428571428V20.142857142857142Z" clip-rule="evenodd" stroke-width="3.4286"></path>
  </g>
</svg>