<svg xmlns="http://www.w3.org/2000/svg" fill="none" viewBox="0 0 48 48" id="Rotate-Angle-45--Streamline-Core-Remix" height="48" width="48">
  <desc>
    Rotate Angle 45 Streamline Icon: https://streamlinehq.com
  </desc>
  <g id="Free Remix/Interface Essential/rotate-angle-45--rotate-angle-company-office-supplies-work">
    <path id="Union" fill="#000000" fill-rule="evenodd" d="M46.08685714285714 4.943794285714286c0.8365714285714285 -0.8368457142857142 0.8365714285714285 -2.193613714285714 0 -3.030452571428571 -0.8369142857142857 -0.8368354285714285 -2.1936 -0.8368354285714285 -3.0305142857142857 0L1.9134068571428573 43.05634285714285c-0.6128537142857142 0.6126857142857143 -0.7961897142857143 1.5342857142857143 -0.4645131428571428 2.3352 0.33167314285714283 0.8005714285714286 1.1130342857142856 1.322742857142857 1.9797462857142856 1.322742857142857H44.57142857142857c1.183542857142857 0 2.142857142857143 -0.9593142857142857 2.142857142857143 -2.142857142857143s-0.9593142857142857 -2.142857142857143 -2.142857142857143 -2.142857142857143H30.343371428571423c-0.45092571428571426 -5.6660571428571425 -2.680182857142857 -11.048057142857143 -6.367954285714285 -15.373474285714284L46.08685714285714 4.943794285714286ZM19.715519999999998 31.31502857142857 8.601942857142857 42.42857142857142h15.716982857142858c-0.41773714285714286 -4.073485714285714 -2.0184342857142856 -7.937828571428571 -4.603405714285714 -11.113542857142857Z" clip-rule="evenodd" stroke-width="3.4286"></path>
  </g>
</svg>