<svg xmlns="http://www.w3.org/2000/svg" fill="none" viewBox="0 0 48 48" id="Round-Cap--Streamline-Core-Remix" height="48" width="48">
  <desc>
    Round Cap Streamline Icon: https://streamlinehq.com
  </desc>
  <g id="Free Remix/Interface Essential/round-cap">
    <path id="Union" fill="#000000" fill-rule="evenodd" d="M19.285714285714285 4.714285714285714C8.634514285714285 4.714285714285714 0 13.3488 0 24s8.634514285714285 19.285714285714285 19.285714285714285 19.285714285714285h26.57142857142857c1.183542857142857 0 2.142857142857143 -0.9593142857142857 2.142857142857143 -2.142857142857143s-0.9593142857142857 -2.142857142857143 -2.142857142857143 -2.142857142857143h-26.57142857142857C11.001428571428571 39 4.285714285714286 32.28428571428571 4.285714285714286 24s6.715714285714285 -15 15 -15h26.57142857142857c1.183542857142857 0 2.142857142857143 -0.9593828571428571 2.142857142857143 -2.142857142857143s-0.9593142857142857 -2.142857142857143 -2.142857142857143 -2.142857142857143h-26.57142857142857ZM9.857142857142856 24c0 -4.970571428571429 4.0294285714285705 -9 9 -9 4.232125714285714 0 7.782 2.921142857142857 8.743337142857142 6.857142857142857H45.857142857142854c1.183542857142857 0 2.142857142857143 0.9593828571428571 2.142857142857143 2.142857142857143s-0.9593142857142857 2.142857142857143 -2.142857142857143 2.142857142857143H27.60048c-0.9613371428571427 3.9359999999999995 -4.511211428571428 6.857142857142857 -8.743337142857142 6.857142857142857 -4.970571428571429 0 -9 -4.0294285714285705 -9 -9Z" clip-rule="evenodd" stroke-width="3.4286"></path>
  </g>
</svg>