<svg xmlns="http://www.w3.org/2000/svg" fill="none" viewBox="0 0 48 48" id="Rss-Square--Streamline-Core-Remix" height="48" width="48">
  <desc>
    Rss Square Streamline Icon: https://streamlinehq.com
  </desc>
  <g id="Free Remix/Programming/Programming/RSS/rss-square--wireless-rss-feed-square-transmit-broadcast">
    <path id="Union" fill="#000000" fill-rule="evenodd" d="M6.593417142857142 5.571428571428571c-0.5644457142857142 0 -1.0219885714285715 0.45754285714285714 -1.0219885714285715 1.0219885714285715V41.40651428571429c0 0.5643428571428571 0.45754285714285714 1.0220571428571428 1.0219885714285715 1.0220571428571428H41.40651428571429c0.5643428571428571 0 1.0220571428571428 -0.45771428571428574 1.0220571428571428 -1.0220571428571428V6.593417142857142c0 -0.5644457142857142 -0.45771428571428574 -1.0219885714285715 -1.0220571428571428 -1.0219885714285715H6.593417142857142ZM1.2857142857142856 6.593417142857142C1.2857142857142856 3.662057142857143 3.662057142857143 1.2857142857142856 6.593417142857142 1.2857142857142856H41.40651428571429c2.931428571428571 0 5.307771428571429 2.3763428571428573 5.307771428571429 5.307702857142856V41.40651428571429c0 2.931428571428571 -2.3763428571428573 5.307771428571429 -5.307771428571429 5.307771428571429H6.593417142857142C3.662057142857143 46.71428571428571 1.2857142857142856 44.337942857142856 1.2857142857142856 41.40651428571429V6.593417142857142ZM9.428571428571429 34.285714285714285c0 -2.3669485714285714 1.9187657142857142 -4.285714285714286 4.285714285714286 -4.285714285714286s4.285714285714286 1.9187657142857142 4.285714285714286 4.285714285714286c0 2.367085714285714 -1.9187657142857142 4.285714285714286 -4.285714285714286 4.285714285714286S9.428571428571429 36.6528 9.428571428571429 34.285714285714285Zm3.4285714285714284 -12c0 -1.4201485714285715 1.1512799999999999 -2.571428571428571 2.571428571428571 -2.571428571428571 3.4099199999999996 0 6.680194285714285 1.3545942857142856 9.091371428571428 3.765771428571428S28.285714285714285 29.16150857142857 28.285714285714285 32.57142857142857c0 1.4201485714285715 -1.1512799999999999 2.571428571428571 -2.571428571428571 2.571428571428571s-2.571428571428571 -1.1512799999999999 -2.571428571428571 -2.571428571428571c0 -2.0459657142857144 -0.8127428571428571 -4.008102857142857 -2.2594628571428568 -5.454822857142856C19.436674285714286 25.669885714285712 17.47453714285714 24.857142857142854 15.428571428571427 24.857142857142854c-1.4201485714285715 0 -2.571428571428571 -1.1512799999999999 -2.571428571428571 -2.571428571428571Zm2.571428571428571 -12.857142857142856c-1.4201485714285715 0 -2.571428571428571 1.1512799999999999 -2.571428571428571 2.571428571428571s1.1512799999999999 2.571428571428571 2.571428571428571 2.571428571428571c4.773908571428572 0 9.352251428571428 1.8964114285714282 12.72792 5.27208C31.532159999999998 23.21917714285714 33.42857142857142 27.797519999999995 33.42857142857142 32.57142857142857c0 1.4201485714285715 1.1513142857142855 2.571428571428571 2.571428571428571 2.571428571428571s2.571428571428571 -1.1512799999999999 2.571428571428571 -2.571428571428571c0 -6.137862857142857 -2.4384 -12.024342857142855 -6.778388571428572 -16.36446857142857C27.452914285714282 11.866834285714285 21.566434285714283 9.428571428571429 15.428571428571427 9.428571428571429Z" clip-rule="evenodd" stroke-width="3.4286"></path>
  </g>
</svg>