<svg xmlns="http://www.w3.org/2000/svg" fill="none" viewBox="0 0 48 48" id="Rss-Symbol--Streamline-Core-Remix" height="48" width="48">
  <desc>
    Rss Symbol Streamline Icon: https://streamlinehq.com
  </desc>
  <g id="Free Remix/Programming/Programming/RSS/rss-symbol--wireless-feed-rss-transmit-broadcast">
    <path id="Union" fill="#000000" fill-rule="evenodd" d="M5.334548571428571 3.4285714285714284c0 -1.1834674285714284 0.9593828571428571 -2.142857142857143 2.142857142857143 -2.142857142857143 5.15256 0 10.254651428571428 1.014462857142857 15.015051428571427 2.9854971428571426 4.7604 1.9710171428571426 9.085851428571429 4.859999999999999 12.729257142857142 8.50206857142857 3.6435428571428568 3.642068571428571 6.533828571428571 7.965874285714285 8.505942857142857 12.724594285714284 1.9717714285714283 4.758685714285714 2.986628571428571 9.858925714285713 2.986628571428571 15.010011428571426 0 1.1832 -0.9593142857142857 2.142857142857143 -2.142857142857143 2.142857142857143s-2.142857142857143 -0.9596571428571428 -2.142857142857143 -2.142857142857143c0 -4.587771428571428 -0.9037714285714286 -9.130765714285713 -2.6602285714285716 -13.369371428571428 -1.7564571428571427 -4.238639999999999 -4.330971428571429 -8.08998857142857 -7.5763542857142845 -11.334171428571429 -3.245485714285714 -3.2441828571428566 -7.09848 -5.817634285714285 -11.339039999999999 -7.57344 -4.24056 -1.7557714285714285 -8.785577142857143 -2.659474285714286 -13.375542857142856 -2.659474285714286 -1.1834742857142857 0 -2.142857142857143 -0.9593828571428571 -2.142857142857143 -2.142857142857143Zm2.9491199999999997 29.327211428571427c-3.8548114285714283 0 -6.981212571428571 3.1238742857142854 -6.981212571428571 6.979302857142856 0 3.8554285714285714 3.1264011428571425 6.9792 6.981212571428571 6.9792s6.981222857142857 -3.1237714285714286 6.981222857142857 -6.9792 -3.126411428571428 -6.979302857142856 -6.981222857142857 -6.979302857142856Zm-0.0324 -16.12145142857143c-1.1834742857142857 0 -2.142857142857143 0.9594171428571429 -2.142857142857143 2.142857142857143 0 1.1834742857142857 0.9593828571428571 2.142857142857143 2.142857142857143 2.142857142857143 2.472034285714286 0 4.919828571428571 0.48672 7.203668571428571 1.43232 2.283805714285714 0.9456342857142856 4.358879999999999 2.3316 6.1067657142857135 4.078765714285714s3.1343314285714285 3.821314285714285 4.0802057142857135 6.103988571428571c0.9459085714285714 2.282708571428571 1.4327314285714283 4.729337142857142 1.4327314285714283 7.199965714285714 0 1.183542857142857 0.9593828571428571 2.142857142857143 2.142857142857143 2.142857142857143s2.142857142857143 -0.9593142857142857 2.142857142857143 -2.142857142857143c0 -3.033942857142857 -0.5977714285714285 -6.0378171428571425 -1.7591999999999999 -8.840605714285713 -1.1613942857142856 -2.8027542857142858 -2.8636799999999996 -5.34936 -5.009588571428571 -7.4944114285714285 -2.145942857142857 -2.145051428571428 -4.693474285714285 -3.846548571428571 -7.497119999999999 -5.007394285714286 -2.803645714285714 -1.1608457142857143 -5.808582857142857 -1.7583428571428572 -8.843177142857142 -1.7583428571428572Z" clip-rule="evenodd" stroke-width="3.4286"></path>
  </g>
</svg>