<svg xmlns="http://www.w3.org/2000/svg" fill="none" viewBox="0 0 48 48" id="Sad-Face--Streamline-Core-Remix" height="48" width="48">
  <desc>
    Sad Face Streamline Icon: https://streamlinehq.com
  </desc>
  <g id="Free Remix/Mail/Mail/Smiley/sad-face--smiley-chat-message-emoji-sad-face-unsatisfied">
    <path id="Union" fill="#000000" fill-rule="evenodd" d="M24 4.285714285714286C13.112091428571429 4.285714285714286 4.285714285714286 13.112091428571429 4.285714285714286 24c0 10.887771428571428 8.826377142857142 19.71428571428571 19.71428571428571 19.71428571428571 10.887771428571428 0 19.71428571428571 -8.826514285714284 19.71428571428571 -19.71428571428571 0 -10.887908571428571 -8.826514285714284 -19.71428571428571 -19.71428571428571 -19.71428571428571ZM0 24c0 -13.254822857142857 10.745177142857143 -24 24 -24 13.254857142857142 0 24 10.745177142857143 24 24 0 13.254857142857142 -10.745142857142856 24 -24 24 -13.254822857142857 0 -24 -10.745142857142856 -24 -24Zm16.285714285714285 -9.428571428571429c1.8935314285714284 0 3.4285714285714284 1.53504 3.4285714285714284 3.4285714285714284s-1.53504 3.4285714285714284 -3.4285714285714284 3.4285714285714284 -3.4285714285714284 -1.53504 -3.4285714285714284 -3.4285714285714284 1.53504 -3.4285714285714284 3.4285714285714284 -3.4285714285714284Zm12 3.4285714285714284c0 1.8935314285714284 1.535005714285714 3.4285714285714284 3.4285714285714284 3.4285714285714284s3.4285714285714284 -1.53504 3.4285714285714284 -3.4285714285714284 -1.535005714285714 -3.4285714285714284 -3.4285714285714284 -3.4285714285714284 -3.4285714285714284 1.53504 -3.4285714285714284 3.4285714285714284Zm-4.285748571428571 6.857142857142857c-4.600731428571428 0 -8.704559999999999 2.1351771428571427 -11.370857142857142 5.458662857142857 -0.8886857142857142 1.1077371428571428 -0.71112 2.7261599999999997 0.3965828571428571 3.614845714285714 1.1077371428571428 0.8885485714285714 2.7261942857142856 0.7112914285714286 3.61488 -0.3965828571428571C18.372754285714283 31.374925714285716 21.024925714285715 30 23.999965714285715 30c2.9750742857142853 0 5.627245714285714 1.374925714285714 7.359428571428571 3.534068571428571 0.8886857142857142 1.1078742857142856 2.5071085714285712 1.2851314285714286 3.614777142857143 0.3965828571428571 1.1077714285714284 -0.8886857142857142 1.2853714285714286 -2.5071085714285712 0.39668571428571425 -3.614845714285714C32.70452571428571 26.99232 28.600731428571425 24.857142857142854 23.999965714285715 24.857142857142854Z" clip-rule="evenodd" stroke-width="3.4286"></path>
  </g>
</svg>