<svg xmlns="http://www.w3.org/2000/svg" fill="none" viewBox="0 0 48 48" id="Safe-Vault--Streamline-Core-Remix" height="48" width="48">
  <desc>
    Safe Vault Streamline Icon: https://streamlinehq.com
  </desc>
  <g id="Free Remix/Money Shopping/safe-vault--saving-combo-payment-safe-combination-finance">
    <path id="Union" fill="#000000" fill-rule="evenodd" d="M5.571428571428571 6.857142857142857c0 -0.7100914285714285 0.5756228571428571 -1.2857142857142856 1.2857142857142856 -1.2857142857142856h34.285714285714285c0.7100571428571428 0 1.2857142857142856 0.5756228571428571 1.2857142857142856 1.2857142857142856v29.142857142857142c0 0.7100571428571428 -0.5756571428571428 1.2857142857142856 -1.2857142857142856 1.2857142857142856H6.857142857142857c-0.7100914285714285 0 -1.2857142857142856 -0.5756571428571428 -1.2857142857142856 -1.2857142857142856V6.857142857142857ZM40.285714285714285 41.57142857142857H41.14285714285714c3.077142857142857 0 5.571428571428571 -2.494285714285714 5.571428571428571 -5.571428571428571V6.857142857142857c0 -3.0770057142857143 -2.494285714285714 -5.571428571428571 -5.571428571428571 -5.571428571428571H6.857142857142857C3.780137142857143 1.2857142857142856 1.2857142857142856 3.780137142857143 1.2857142857142856 6.857142857142857v29.142857142857142c0 2.7853714285714286 2.0442068571428567 5.093485714285714 4.714285714285714 5.505942857142857V44.57142857142857c0 1.183542857142857 0.9593828571428571 2.142857142857143 2.142857142857143 2.142857142857143S10.285714285714285 45.75497142857142 10.285714285714285 44.57142857142857v-3h25.71428571428571V44.57142857142857c0 1.183542857142857 0.9593142857142857 2.142857142857143 2.142857142857143 2.142857142857143s2.142857142857143 -0.9593142857142857 2.142857142857143 -2.142857142857143v-3ZM31.285714285714285 14.91288V12c0 -1.1834742857142857 -0.9593828571428571 -2.142857142857143 -2.142857142857143 -2.142857142857143s-2.142857142857143 0.9593828571428571 -2.142857142857143 2.142857142857143v2.9128799999999995c-0.9072685714285714 0.29821714285714285 -1.7309485714285713 0.7806171428571428 -2.426777142857143 1.4030057142857142l-2.5242514285714286 -1.457382857142857c-1.024902857142857 -0.5917028571428572 -2.33544 -0.24054857142857142 -2.9271771428571425 0.7843542857142857 -0.5917371428571429 1.024902857142857 -0.24058285714285713 2.3354742857142856 0.7843199999999999 2.9272114285714284l2.523017142857143 1.456662857142857C22.33512 20.47926857142857 22.285714285714285 20.94816 22.285714285714285 21.428571428571427c0 0.48041142857142854 0.04940571428571428 0.9492685714285714 0.14341714285714285 1.4017714285714284l-2.5231542857142855 1.4567314285714283c-1.024902857142857 0.5917371428571429 -1.3760914285714285 1.9023085714285712 -0.7843542857142857 2.9272114285714284 0.5917371428571429 1.024902857142857 1.9023085714285712 1.3760571428571426 2.9272114285714284 0.7843542857142857l2.52432 -1.4574171428571427c0.6958628571428571 0.6223885714285714 1.5195771428571427 1.104822857142857 2.426845714285714 1.4030399999999998V30.857142857142854c0 1.1834742857142857 0.9593828571428571 2.142857142857143 2.142857142857143 2.142857142857143s2.142857142857143 -0.9593828571428571 2.142857142857143 -2.142857142857143v-2.9128799999999995c0.9072685714285714 -0.29821714285714285 1.7309828571428572 -0.7806514285714286 2.426845714285714 -1.4030399999999998l2.5243542857142853 1.4574171428571427c1.0248 0.5917028571428572 2.335542857142857 0.24054857142857142 2.9273142857142855 -0.7843542857142857 0.5914285714285713 -1.024902857142857 0.2403428571428571 -2.3354742857142856 -0.7844571428571429 -2.9272114285714284l-2.523085714285714 -1.4567314285714283c0.09394285714285713 -0.4525028571428571 0.1433142857142857 -0.9213600000000001 0.1433142857142857 -1.4017714285714284 0 -0.48041142857142854 -0.049371428571428566 -0.9493028571428571 -0.1433142857142857 -1.40184l2.522742857142857 -1.456662857142857c1.0251428571428571 -0.5917371428571429 1.3762285714285714 -1.9023085714285712 0.7844571428571429 -2.9272114285714284 -0.5917714285714285 -1.024902857142857 -1.9021714285714284 -1.3760571428571426 -2.9273142857142855 -0.7843542857142857l-2.524045714285714 1.457382857142857c-0.6958628571428571 -0.6223885714285714 -1.519542857142857 -1.1047885714285715 -2.4268114285714284 -1.4030057142857142Zm-17.142857142857142 0.5156914285714285c0 -1.4201485714285715 -1.1512799999999999 -2.571428571428571 -2.571428571428571 -2.571428571428571s-2.571428571428571 1.1512799999999999 -2.571428571428571 2.571428571428571V27.428571428571427c0 1.4201485714285715 1.1512799999999999 2.571428571428571 2.571428571428571 2.571428571428571s2.571428571428571 -1.1512799999999999 2.571428571428571 -2.571428571428571V15.428571428571427Z" clip-rule="evenodd" stroke-width="3.4286"></path>
  </g>
</svg>