<svg xmlns="http://www.w3.org/2000/svg" fill="none" viewBox="0 0 48 48" id="Sail-Ship--Streamline-Core-Remix" height="48" width="48">
  <desc>
    Sail Ship Streamline Icon: https://streamlinehq.com
  </desc>
  <g id="Free Remix/Map Travel/sail-ship--travel-boat-transportation-transport-ocean-ship-sea-water">
    <path id="Union" fill="#000000" fill-rule="evenodd" d="M23.89662857142857 2.0153382857142854c-0.35382857142857144 -0.4030148571428571 -0.8564571428571428 -0.672144 -1.4221028571428571 -0.721518857142857 -0.1092342857142857 -0.009665142857142857 -0.21853714285714287 -0.010854857142857142 -0.3269485714285714 -0.003822857142857143 -0.4282285714285714 0.02724685714285714 -0.8222742857142856 0.18027428571428572 -1.1455885714285714 0.422544 -0.10632 0.07955999999999999 -0.20612571428571427 0.16970742857142856 -0.2977714285714285 0.26999999999999996 -0.025817142857142858 0.028213714285714286 -0.05088 0.05712342857142856 -0.0751542857142857 0.08669485714285714L3.4966971428571427 22.628091428571427c-0.5323028571428571 0.6387428571428571 -0.64704 1.5277371428571427 -0.2943702857142857 2.2807199999999996 0.352656 0.7529485714285714 1.1090674285714284 1.233942857142857 1.9405645714285713 1.233942857142857h15v4.285714285714286h-16.71428571428571c-0.6724251428571428 0 -1.30584 0.3156342857142857 -1.7107645714285713 0.8524457142857143 -0.4049211428571428 0.5368114285714285 -0.534384 1.2325714285714284 -0.34965942857142857 1.8790971428571426l2.0076171428571428 7.026617142857143C4.479702857142857 44.050285714285714 8.011199999999999 46.71428571428571 12.02952 46.71428571428571h23.940994285714282c4.018285714285714 0 7.549714285714285 -2.664 8.653714285714285 -6.527657142857143l2.0077714285714285 -7.026617142857143c0.18445714285714285 -0.6465257142857143 0.0552 -1.3422857142857143 -0.3497142857142857 -1.8790971428571426 -0.40491428571428567 -0.5368114285714285 -1.0385142857142857 -0.8524457142857143 -1.7108571428571429 -0.8524457142857143H24.428605714285712V3.428472c0 -0.5414057142857143 -0.20081142857142856 -1.035918857142857 -0.5319771428571428 -1.413133714285714ZM9.717977142857142 21.85704l10.424914285714285 -12.509897142857142v12.509897142857142h-10.424914285714285Zm21.97350857142857 -14.601291428571427c-0.7265828571428571 -0.9341828571428571 -2.0728799999999996 -1.1024571428571428 -3.0070628571428566 -0.3758742857142857 -0.9341485714285713 0.7265485714285713 -1.1024571428571428 2.0728799999999996 -0.3758742857142857 3.007028571428571l9.31008 11.97013714285714H30.000034285714282c-1.1834742857142857 0 -2.142857142857143 0.9593828571428571 -2.142857142857143 2.142857142857143s0.9593828571428571 2.142857142857143 2.142857142857143 2.142857142857143H42c0.8183999999999999 0 1.5654857142857141 -0.4661828571428571 1.925142857142857 -1.2013714285714285 0.3593142857142857 -0.7352228571428571 0.2688 -1.6110514285714284 -0.23348571428571424 -2.257062857142857l-12.000171428571427 -15.428571428571427Z" clip-rule="evenodd" stroke-width="3.4286"></path>
  </g>
</svg>