<svg xmlns="http://www.w3.org/2000/svg" fill="none" viewBox="0 0 48 48" id="Satellite-Dish--Streamline-Core-Remix" height="48" width="48">
  <desc>
    Satellite Dish Streamline Icon: https://streamlinehq.com
  </desc>
  <g id="Free Remix/Interface Essential/satellite-dish--broadcast-satellite-share-transmit-satellite">
    <path id="Union" fill="#000000" fill-rule="evenodd" d="M18.93246857142857 0.6276274285714285c-0.8368457142857142 -0.8368367999999999 -2.1936342857142854 -0.8368367999999999 -3.030445714285714 0l-0.8331771428571428 0.8331771428571428C8.319702857142856 8.209919999999999 7.456388571428572 18.615977142857144 12.4788 26.30070857142857L3.586354285714285 45.567771428571426c-0.24498171428571427 0.5307428571428571 -0.20257714285714284 1.1496 0.11249142857142856 1.6422857142857141 0.31508571428571425 0.49234285714285714 0.8594057142857142 0.7902857142857143 1.4440114285714285 0.7902857142857143h24c0.5136 0 1.0001142857142857 -0.23039999999999997 1.3257257142857142 -0.6274285714285713 0.32561142857142855 -0.39737142857142854 0.456 -0.9195428571428571 0.35526857142857143 -1.4232l-2.1325371428571427 -10.662514285714286c5.200971428571428 0.10182857142857142 10.434514285714286 -1.8317828571428572 14.40342857142857 -5.800628571428572l0.8331428571428571 -0.8331771428571428c0.4018285714285714 -0.4018628571428571 0.6274285714285713 -0.9469371428571428 0.6274285714285713 -1.515222857142857 0 -0.5683542857142857 -0.22559999999999997 -1.1133942857142856 -0.6274285714285713 -1.5152571428571429L32.95337142857142 14.648537142857144l6.276 -6.276171428571428c0.8369142857142857 -0.8368457142857142 0.8369142857142857 -2.1936 0 -3.030445714285714 -0.8365714285714285 -0.8368457142857142 -2.1936 -0.8368457142857142 -3.0301714285714283 0L29.92289142857143 11.618057142857142 18.93246857142857 0.6276274285714285ZM18.099291428571426 26.456091428571426C12.262937142857142 20.619737142857144 12.042514285714285 11.294057142857142 17.438057142857144 5.194148571428571l21.923314285714287 21.923177142857142c-6.100045714285714 5.395542857142857 -15.425725714285715 5.175154285714285 -21.262079999999997 -0.6612342857142857Z" clip-rule="evenodd" stroke-width="3.4286"></path>
  </g>
</svg>