<svg xmlns="http://www.w3.org/2000/svg" fill="none" viewBox="0 0 48 48" id="Scanner-Bar-Code--Streamline-Core-Remix" height="48" width="48">
  <desc>
    Scanner Bar Code Streamline Icon: https://streamlinehq.com
  </desc>
  <g id="Free Remix/Money Shopping/scanner-bar-code--codes-tags-upc-barcode">
    <path id="Union" fill="#000000" fill-rule="evenodd" d="M5.947988571428572 5.947988571428572C6.18912 5.706891428571428 6.516137142857142 5.571428571428571 6.857142857142857 5.571428571428571h6.857142857142857c1.1834742857142857 0 2.142857142857143 -0.9593828571428571 2.142857142857143 -2.142857142857143 0 -1.1834674285714284 -0.9593828571428571 -2.142857142857143 -2.142857142857143 -2.142857142857143H6.857142857142857c-1.477645714285714 0 -2.894742857142857 0.5869885714285714 -3.939596571428571 1.631832C1.8727028571428572 3.9623999999999997 1.2857142857142856 5.379497142857143 1.2857142857142856 6.857142857142857v6.857142857142857c0 1.1834742857142857 0.9593897142857143 2.142857142857143 2.142857142857143 2.142857142857143 1.1834742857142857 0 2.142857142857143 -0.9593828571428571 2.142857142857143 -2.142857142857143V6.857142857142857c0 -0.3410057142857143 0.13546285714285713 -0.6680228571428571 0.37655999999999995 -0.9091542857142857ZM34.285714285714285 1.2857142857142856c-1.1834742857142857 0 -2.142857142857143 0.9593897142857143 -2.142857142857143 2.142857142857143 0 1.1834742857142857 0.9593828571428571 2.142857142857143 2.142857142857143 2.142857142857143h6.857142857142857c0.34114285714285714 0 0.6678857142857143 0.13546285714285713 0.9092571428571428 0.37655999999999995 0.24102857142857143 0.24113142857142858 0.3764571428571428 0.5681485714285713 0.3764571428571428 0.9091542857142857v6.857142857142857c0 1.1834742857142857 0.9593142857142857 2.142857142857143 2.142857142857143 2.142857142857143s2.142857142857143 -0.9593828571428571 2.142857142857143 -2.142857142857143V6.857142857142857c0 -1.477645714285714 -0.5869714285714285 -2.894742857142857 -1.632 -3.939596571428571C44.0376 1.8727028571428572 42.620571428571424 1.2857142857142856 41.14285714285714 1.2857142857142856h-6.857142857142857Zm10.285714285714285 30.857142857142854c1.183542857142857 0 2.142857142857143 0.9593828571428571 2.142857142857143 2.142857142857143v6.857142857142857c0 1.4777142857142855 -0.5869714285714285 2.894742857142857 -1.632 3.9394285714285715 -1.0446857142857142 1.0450285714285714 -2.4617142857142853 1.632 -3.9394285714285715 1.632h-6.857142857142857c-1.1834742857142857 0 -2.142857142857143 -0.9593142857142857 -2.142857142857143 -2.142857142857143s0.9593828571428571 -2.142857142857143 2.142857142857143 -2.142857142857143h6.857142857142857c0.34114285714285714 0 0.6678857142857143 -0.13542857142857143 0.9092571428571428 -0.3764571428571428 0.24102857142857143 -0.24137142857142857 0.3764571428571428 -0.5681142857142857 0.3764571428571428 -0.9092571428571428v-6.857142857142857c0 -1.1834742857142857 0.9593142857142857 -2.142857142857143 2.142857142857143 -2.142857142857143ZM5.571428571428571 34.285714285714285c0 -1.1834742857142857 -0.9593828571428571 -2.142857142857143 -2.142857142857143 -2.142857142857143 -1.1834674285714284 0 -2.142857142857143 0.9593828571428571 -2.142857142857143 2.142857142857143v6.857142857142857c0 1.4777142857142855 0.5869885714285714 2.894742857142857 1.631832 3.9394285714285715 1.0448537142857142 1.0450285714285714 2.461950857142857 1.632 3.939596571428571 1.632h6.857142857142857c1.1834742857142857 0 2.142857142857143 -0.9593142857142857 2.142857142857143 -2.142857142857143s-0.9593828571428571 -2.142857142857143 -2.142857142857143 -2.142857142857143H6.857142857142857c-0.3410057142857143 0 -0.6680228571428571 -0.13542857142857143 -0.9091542857142857 -0.3764571428571428 -0.24109714285714282 -0.24137142857142857 -0.37655999999999995 -0.5681142857142857 -0.37655999999999995 -0.9092571428571428v-6.857142857142857Zm31.477371428571423 -23.857062857142857c1.4201142857142857 0 2.571428571428571 1.1512457142857142 2.571428571428571 2.571428571428571v22.00014857142857c0 1.4201142857142857 -1.1513142857142855 2.571428571428571 -2.571428571428571 2.571428571428571s-2.571428571428571 -1.1513142857142855 -2.571428571428571 -2.571428571428571V13.000079999999999c0 -1.420182857142857 1.1513142857142855 -2.571428571428571 2.571428571428571 -2.571428571428571Zm-28.669062857142855 2.571428571428571c0 -1.420182857142857 1.1512799999999999 -2.571428571428571 2.571428571428571 -2.571428571428571 1.420182857142857 0 2.571428571428571 1.1512457142857142 2.571428571428571 2.571428571428571v22.00014857142857c0 1.4201142857142857 -1.1512457142857142 2.571428571428571 -2.571428571428571 2.571428571428571 -1.4201485714285715 0 -2.571428571428571 -1.1513142857142855 -2.571428571428571 -2.571428571428571V13.000079999999999Zm19.970434285714283 -2.571428571428571c1.4201485714285715 0 2.571428571428571 1.1512457142857142 2.571428571428571 2.571428571428571v12.99997714285714c0 1.420182857142857 -1.1512799999999999 2.571428571428571 -2.571428571428571 2.571428571428571s-2.571428571428571 -1.1512457142857142 -2.571428571428571 -2.571428571428571V13.000079999999999c0 -1.420182857142857 1.1512799999999999 -2.571428571428571 2.571428571428571 -2.571428571428571Zm-2.571428571428571 24.571234285714286c0 1.4201142857142857 1.1512799999999999 2.571428571428571 2.571428571428571 2.571428571428571s2.571428571428571 -1.1513142857142855 2.571428571428571 -2.571428571428571v-1.857085714285714c0 -1.420182857142857 -1.1512799999999999 -2.571428571428571 -2.571428571428571 -2.571428571428571s-2.571428571428571 1.1512457142857142 -2.571428571428571 2.571428571428571v1.857085714285714ZM19.65068571428571 10.428651428571428c1.4201485714285715 0 2.571428571428571 1.1512457142857142 2.571428571428571 2.571428571428571v12.99997714285714c0 1.420182857142857 -1.1512799999999999 2.571428571428571 -2.571428571428571 2.571428571428571 -1.420182857142857 0 -2.571428571428571 -1.1512457142857142 -2.571428571428571 -2.571428571428571V13.000079999999999c0 -1.420182857142857 1.1512457142857142 -2.571428571428571 2.571428571428571 -2.571428571428571Zm-2.571428571428571 24.571234285714286c0 1.4201142857142857 1.1512457142857142 2.571428571428571 2.571428571428571 2.571428571428571 1.4201485714285715 0 2.571428571428571 -1.1513142857142855 2.571428571428571 -2.571428571428571v-1.857085714285714c0 -1.420182857142857 -1.1512799999999999 -2.571428571428571 -2.571428571428571 -2.571428571428571 -1.420182857142857 0 -2.571428571428571 1.1512457142857142 -2.571428571428571 2.571428571428571v1.857085714285714Z" clip-rule="evenodd" stroke-width="3.4286"></path>
  </g>
</svg>