<svg xmlns="http://www.w3.org/2000/svg" fill="none" viewBox="0 0 48 48" id="Scanner-3--Streamline-Core-Remix" height="48" width="48">
  <desc>
    Scanner 3 Streamline Icon: https://streamlinehq.com
  </desc>
  <g id="Free Remix/Money Shopping/scanner-3--payment-electronic-cash-dollar-codes-tags-upc-barcode-qr">
    <path id="Union" fill="#000000" fill-rule="evenodd" d="M5.947988571428572 5.947988571428572C6.18912 5.706891428571428 6.516137142857142 5.571428571428571 6.857142857142857 5.571428571428571h6.857142857142857c1.1834742857142857 0 2.142857142857143 -0.9593828571428571 2.142857142857143 -2.142857142857143 0 -1.1834674285714284 -0.9593828571428571 -2.142857142857143 -2.142857142857143 -2.142857142857143H6.857142857142857c-1.477645714285714 0 -2.894742857142857 0.5869885714285714 -3.939596571428571 1.631832C1.8727028571428572 3.9623999999999997 1.2857142857142856 5.379497142857143 1.2857142857142856 6.857142857142857v6.857142857142857c0 1.1834742857142857 0.9593897142857143 2.142857142857143 2.142857142857143 2.142857142857143 1.1834742857142857 0 2.142857142857143 -0.9593828571428571 2.142857142857143 -2.142857142857143V6.857142857142857c0 -0.3410057142857143 0.13546285714285713 -0.6680228571428571 0.37655999999999995 -0.9091542857142857ZM32.14285714285714 3.4285714285714284c0 -1.1834674285714284 0.9593828571428571 -2.142857142857143 2.142857142857143 -2.142857142857143h6.857142857142857c1.4777142857142855 0 2.894742857142857 0.5869885714285714 3.9394285714285715 1.631832 1.0450285714285714 1.0448537142857142 1.632 2.461950857142857 1.632 3.939596571428571v6.857142857142857c0 1.1834742857142857 -0.9593142857142857 2.142857142857143 -2.142857142857143 2.142857142857143s-2.142857142857143 -0.9593828571428571 -2.142857142857143 -2.142857142857143V6.857142857142857c0 -0.3410057142857143 -0.13542857142857143 -0.6680228571428571 -0.3764571428571428 -0.9091542857142857 -0.24137142857142857 -0.24109714285714282 -0.5681142857142857 -0.37655999999999995 -0.9092571428571428 -0.37655999999999995h-6.857142857142857c-1.1834742857142857 0 -2.142857142857143 -0.9593828571428571 -2.142857142857143 -2.142857142857143ZM24 7.425702857142857c1.4201485714285715 0 2.571428571428571 1.1512799999999999 2.571428571428571 2.571428571428571v2.076651428571428c1.6913485714285714 0.2491542857142857 3.1908 1.0917257142857142 4.275668571428571 2.3038285714285713 0.6133028571428571 0.6852342857142857 1.0977257142857142 1.4918742857142857 1.412262857142857 2.3817942857142858 0.47328 1.3389942857142856 -0.2285142857142857 2.808102857142857 -1.5675085714285713 3.281382857142857 -1.3389942857142856 0.4732457142857143 -2.808102857142857 -0.2285485714285714 -3.281382857142857 -1.5675428571428571 -0.08681142857142857 -0.24569142857142856 -0.22175999999999998 -0.4716685714285714 -0.39552 -0.6657942857142857 -0.3698742857142857 -0.41328 -0.8992457142857143 -0.6673028571428571 -1.4913257142857144 -0.6673028571428571H21.985165714285714c-0.8334857142857143 0 -1.5091542857142857 0.6756685714285714 -1.5091542857142857 1.5091542857142857 0 0.7092342857142856 0.4938171428571428 1.3227771428571427 1.186662857142857 1.4743199999999999l5.387348571428571 1.178502857142857c3.28008 0.7174971428571428 5.616445714285715 3.6234171428571424 5.616445714285715 6.9792 0 3.587897142857143 -2.646 6.560845714285714 -6.095039999999999 7.068274285714286v2.076c0 1.4201142857142857 -1.1512799999999999 2.571428571428571 -2.571428571428571 2.571428571428571s-2.571428571428571 -1.1513142857142855 -2.571428571428571 -2.571428571428571v-2.076c-2.6488799999999997 -0.3891428571428571 -4.820914285714285 -2.23176 -5.688308571428571 -4.685862857142857 -0.47328 -1.3389942857142856 0.2285485714285714 -2.808102857142857 1.5675085714285713 -3.281382857142857 1.3389942857142856 -0.4732457142857143 2.808102857142857 0.2285485714285714 3.281382857142857 1.5675428571428571 0.27576 0.7802399999999999 1.0200685714285713 1.3330971428571428 1.8868457142857142 1.3330971428571428h1.4855657142857142L24 30.282719999999998l0.03843428571428571 0.00027428571428571427h1.4851885714285713c1.1033485714285713 0 1.9999885714285714 -0.8958857142857142 1.9999885714285714 -2.001668571428571 0 -0.9407999999999999 -0.6553371428571428 -1.7545028571428571 -1.572582857142857 -1.955142857142857l-5.387348571428571 -1.178502857142857c-3.0538628571428568 -0.6680228571428571 -5.230525714285714 -3.372308571428571 -5.230525714285714 -6.498377142857143 0 -3.486342857142857 2.6820342857142854 -6.346285714285714 6.095417142857142 -6.629074285714285v-2.0230971428571425c0 -1.4201485714285715 1.1512799999999999 -2.571428571428571 2.571428571428571 -2.571428571428571ZM44.57142857142857 32.14285714285714c1.183542857142857 0 2.142857142857143 0.9593828571428571 2.142857142857143 2.142857142857143v6.857142857142857c0 1.4777142857142855 -0.5869714285714285 2.894742857142857 -1.632 3.9394285714285715 -1.0446857142857142 1.0450285714285714 -2.4617142857142853 1.632 -3.9394285714285715 1.632h-6.857142857142857c-1.1834742857142857 0 -2.142857142857143 -0.9593142857142857 -2.142857142857143 -2.142857142857143s0.9593828571428571 -2.142857142857143 2.142857142857143 -2.142857142857143h6.857142857142857c0.34114285714285714 0 0.6678857142857143 -0.13542857142857143 0.9092571428571428 -0.3764571428571428 0.24102857142857143 -0.24137142857142857 0.3764571428571428 -0.5681142857142857 0.3764571428571428 -0.9092571428571428v-6.857142857142857c0 -1.1834742857142857 0.9593142857142857 -2.142857142857143 2.142857142857143 -2.142857142857143ZM5.571428571428571 34.285714285714285c0 -1.1834742857142857 -0.9593828571428571 -2.142857142857143 -2.142857142857143 -2.142857142857143 -1.1834674285714284 0 -2.142857142857143 0.9593828571428571 -2.142857142857143 2.142857142857143v6.857142857142857c0 1.4777142857142855 0.5869885714285714 2.894742857142857 1.631832 3.9394285714285715 1.0448537142857142 1.0450285714285714 2.461950857142857 1.632 3.939596571428571 1.632h6.857142857142857c1.1834742857142857 0 2.142857142857143 -0.9593142857142857 2.142857142857143 -2.142857142857143s-0.9593828571428571 -2.142857142857143 -2.142857142857143 -2.142857142857143H6.857142857142857c-0.3410057142857143 0 -0.6680228571428571 -0.13542857142857143 -0.9091542857142857 -0.3764571428571428 -0.24109714285714282 -0.24137142857142857 -0.37655999999999995 -0.5681142857142857 -0.37655999999999995 -0.9092571428571428v-6.857142857142857Z" clip-rule="evenodd" stroke-width="3.4286"></path>
  </g>
</svg>