<svg xmlns="http://www.w3.org/2000/svg" fill="none" viewBox="0 0 48 48" id="Scanner--Streamline-Core-Remix" height="48" width="48">
  <desc>
    Scanner Streamline Icon: https://streamlinehq.com
  </desc>
  <g id="Free Remix/Interface Essential/scanner">
    <path id="Union" fill="#000000" fill-rule="evenodd" d="M35.57142857142857 0c-1.183542857142857 0 -2.142857142857143 0.9593897142857143 -2.142857142857143 2.142857142857143s0.9593142857142857 2.142857142857143 2.142857142857143 2.142857142857143h7.101942857142857c0.5749714285714285 0 1.0409142857142857 0.46597714285714287 1.0409142857142857 1.0408114285714285V12.428571428571427c0 1.1834742857142857 0.9593142857142857 2.142857142857143 2.142857142857143 2.142857142857143S48 13.612045714285713 48 12.428571428571427V5.326525714285713C48 2.384766857142857 45.61508571428571 0 42.67337142857143 0H35.57142857142857ZM2.142857142857143 33.42857142857142c1.1834674285714284 0 2.142857142857143 0.9593142857142857 2.142857142857143 2.142857142857143v7.101942857142857c0 0.5749714285714285 0.46597714285714287 1.0409142857142857 1.0408114285714285 1.0409142857142857l7.102045714285714 0c1.1834742857142857 0 2.142857142857143 0.9593142857142857 2.142857142857143 2.142857142857143S13.612045714285713 48 12.428571428571427 48l-7.102045714285714 0C2.384766857142857 48 0 45.61508571428571 0 42.67337142857143V35.57142857142857c0 -1.183542857142857 0.9593897142857143 -2.142857142857143 2.142857142857143 -2.142857142857143Zm43.714285714285715 0c1.183542857142857 0 2.142857142857143 0.9593142857142857 2.142857142857143 2.142857142857143v7.101942857142857C48 45.61508571428571 45.61508571428571 48 42.67337142857143 48l-7.101942857142857 0c-1.183542857142857 0 -2.142857142857143 -0.9593142857142857 -2.142857142857143 -2.142857142857143s0.9593142857142857 -2.142857142857143 2.142857142857143 -2.142857142857143l7.101942857142857 0c0.5749714285714285 0 1.0409142857142857 -0.4659428571428571 1.0409142857142857 -1.0409142857142857V35.57142857142857c0 -1.183542857142857 0.9593142857142857 -2.142857142857143 2.142857142857143 -2.142857142857143ZM5.326525714285713 4.285714285714286c-0.5748342857142857 0 -1.0408114285714285 0.46597714285714287 -1.0408114285714285 1.0408114285714285V12.428571428571427c0 1.1834742857142857 -0.9593897142857143 2.142857142857143 -2.142857142857143 2.142857142857143S0 13.612045714285713 0 12.428571428571427V5.326525714285713C0 2.3847702857142856 2.3847702857142856 0 5.326525714285713 0H12.428571428571427c1.1834742857142857 0 2.142857142857143 0.9593897142857143 2.142857142857143 2.142857142857143s-0.9593828571428571 2.142857142857143 -2.142857142857143 2.142857142857143H5.326525714285713ZM3 21C1.3431462857142857 21 0 22.343142857142855 0 24s1.3431462857142857 3 3 3h42c1.6566857142857143 0 3 -1.343142857142857 3 -3s-1.3433142857142857 -3 -3 -3H3Z" clip-rule="evenodd" stroke-width="3.4286"></path>
  </g>
</svg>