<svg xmlns="http://www.w3.org/2000/svg" fill="none" viewBox="0 0 48 48" id="School-Bus-Side--Streamline-Core-Remix" height="48" width="48">
  <desc>
    School Bus Side Streamline Icon: https://streamlinehq.com
  </desc>
  <g id="Free Remix/Map Travel/school-bus-side">
    <path id="Union" fill="#000000" fill-rule="evenodd" d="M0.8571428571428571 10.285714285714285c0 -3.0770057142857143 2.494412571428571 -5.571428571428571 5.571428571428571 -5.571428571428571h29.142857142857142C38.64857142857143 4.714285714285714 41.14285714285714 7.208708571428571 41.14285714285714 10.285714285714285v11.571428571428571h0.42857142857142855c3.077142857142857 0 5.571428571428571 2.494422857142857 5.571428571428571 5.571428571428571v8.571428571428571c0 3.077142857142857 -2.494285714285714 5.571428571428571 -5.571428571428571 5.571428571428571h-1.1996571428571428c-0.9010285714285713 2.7377142857142855 -3.478971428571428 4.7139428571428565 -6.518262857142856 4.7139428571428565 -3.039325714285714 0 -5.617062857142857 -1.9762285714285714 -6.518194285714285 -4.7139428571428565H18.086022857142854c-0.9011314285714286 2.7377142857142855 -3.478868571428571 4.7139428571428565 -6.518228571428571 4.7139428571428565 -3.108205714285714 0 -5.733668571428571 -2.066742857142857 -6.576891428571429 -4.901142857142857C2.6106822857142857 40.75028571428572 0.8571428571428571 38.58 0.8571428571428571 36V10.285714285714285Zm26.4756 27H18.088559999999998c-0.8987657142857142 -2.741828571428571 -3.478525714285714 -4.7218285714285715 -6.520765714285714 -4.7218285714285715 -2.79096 0 -5.192708571428571 1.6665257142857142 -6.264377142857143 4.058742857142857C5.201108571428572 36.43817142857143 5.142857142857142 36.225942857142854 5.142857142857142 36V10.285714285714285c0 -0.7100914285714285 0.5756228571428571 -1.2857142857142856 1.2857142857142856 -1.2857142857142856h29.142857142857142c0.7100571428571428 0 1.2857142857142856 0.5756228571428571 1.2857142857142856 1.2857142857142856v13.714285714285714c0 1.1834742857142857 0.9593142857142857 2.142857142857143 2.142857142857143 2.142857142857143h2.571428571428571c0.7100571428571428 0 1.2857142857142856 0.5756228571428571 1.2857142857142856 1.2857142857142856v8.571428571428571c0 0.7100571428571428 -0.5756571428571428 1.2857142857142856 -1.2857142857142856 1.2857142857142856h-1.1972571428571428c-0.8986285714285713 -2.741828571428571 -3.4782857142857138 -4.7218285714285715 -6.520662857142857 -4.7218285714285715 -3.0422399999999996 0 -5.621965714285714 1.98 -6.520765714285714 4.7218285714285715ZM31.71428571428571 24h-8.571428571428571V13.714285714285714h8.571428571428571c0.9467657142857142 0 1.7142857142857142 0.76752 1.7142857142857142 1.7142857142857142v6.857142857142857c0 0.9467657142857142 -0.76752 1.7142857142857142 -1.7142857142857142 1.7142857142857142ZM10.285714285714285 13.714285714285714h8.571428571428571v10.285714285714285H10.285714285714285c-0.9467657142857142 0 -1.7142857142857142 -0.76752 -1.7142857142857142 -1.7142857142857142v-6.857142857142857c0 -0.9467657142857142 0.76752 -1.7142857142857142 1.7142857142857142 -1.7142857142857142Z" clip-rule="evenodd" stroke-width="3.4286"></path>
  </g>
</svg>