<svg xmlns="http://www.w3.org/2000/svg" fill="none" viewBox="0 0 48 48" id="Screen-1--Streamline-Core-Remix" height="48" width="48">
  <desc>
    Screen 1 Streamline Icon: https://streamlinehq.com
  </desc>
  <g id="Free Remix/Computer Devices/screen-1--screen-device-electronics-monitor-diplay-computer">
    <path id="Union" fill="#000000" fill-rule="evenodd" d="M4.285714285714286 7.285714285714286v24.857142857142854h39.42857142857142v-24.857142857142854H4.285714285714286ZM0 6.857142857142857C0 4.726902857142856 1.726902857142857 3 3.8571428571428568 3h40.285714285714285C46.27302857142857 3 48 4.726902857142856 48 6.857142857142857v25.71428571428571c0 2.1301714285714284 -1.7269714285714286 3.8571428571428568 -3.8571428571428568 3.8571428571428568H30.13206857142857l1.7142857142857142 4.285714285714286H34.285714285714285c1.183542857142857 0 2.142857142857143 0.9593142857142857 2.142857142857143 2.142857142857143s-0.9593142857142857 2.142857142857143 -2.142857142857143 2.142857142857143H13.714285714285714c-1.1834742857142857 0 -2.142857142857143 -0.9593142857142857 -2.142857142857143 -2.142857142857143s0.9593828571428571 -2.142857142857143 2.142857142857143 -2.142857142857143h2.4393599999999998l1.7142857142857142 -4.285714285714286H3.8571428571428568C1.726902857142857 36.42857142857142 0 34.7016 0 32.57142857142857V6.857142857142857Z" clip-rule="evenodd" stroke-width="3.4286"></path>
  </g>
</svg>