<svg xmlns="http://www.w3.org/2000/svg" fill="none" viewBox="0 0 48 48" id="Screensaver-Monitor-Wallpaper--Streamline-Core-Remix" height="48" width="48">
  <desc>
    Screensaver Monitor Wallpaper Streamline Icon: https://streamlinehq.com
  </desc>
  <g id="Free Remix/Computer Devices/screensaver-monitor-wallpaper">
    <path id="Union" fill="#000000" fill-rule="evenodd" d="M4.285714285714286 24.419314285714286V5.571428571428571h39.42857142857142v28.285714285714285h-9.071314285714285l-16.890822857142858 -15.84c-0.024274285714285714 -0.022765714285714285 -0.049199999999999994 -0.04481142857142857 -0.07474285714285714 -0.06610285714285713 -0.6156342857142857 -0.5133942857142857 -1.391862857142857 -0.7947771428571427 -2.1937371428571426 -0.7947771428571427 -0.7778057142857142 0 -1.5315085714285712 0.26475428571428566 -2.13792 0.7492114285714285L4.285714285714286 24.419314285714286Zm-0.42857142857142855 13.723542857142856h14.01078857142857l-1.7142857142857142 4.285714285714286H13.714285714285714c-1.1834742857142857 0 -2.142857142857143 0.9593142857142857 -2.142857142857143 2.142857142857143s0.9593828571428571 2.142857142857143 2.142857142857143 2.142857142857143h20.57142857142857c1.183542857142857 0 2.142857142857143 -0.9593142857142857 2.142857142857143 -2.142857142857143s-0.9593142857142857 -2.142857142857143 -2.142857142857143 -2.142857142857143h-2.4393599999999998l-1.7142857142857142 -4.285714285714286H44.14285714285714c2.1301714285714284 0 3.8571428571428568 -1.7269714285714286 3.8571428571428568 -3.8571428571428568V5.142857142857142c0 -2.1302399999999997 -1.7269714285714286 -3.8571428571428568 -3.8571428571428568 -3.8571428571428568H3.8571428571428568C1.726902857142857 1.2857142857142856 0 3.0126171428571427 0 5.142857142857142V34.285714285714285c0 2.1301714285714284 1.726902857142857 3.8571428571428568 3.8571428571428568 3.8571428571428568Zm25.201302857142856 -23.624982857142857c0 2.6332114285714288 2.1320914285714285 4.76784 4.762148571428571 4.76784 2.62992 0 4.762148571428571 -2.1346285714285713 4.762148571428571 -4.76784 0 -2.633245714285714 -2.132228571428571 -4.767874285714286 -4.762148571428571 -4.767874285714286 -2.630057142857143 0 -4.762148571428571 2.1346285714285713 -4.762148571428571 4.767874285714286Z" clip-rule="evenodd" stroke-width="3.4286"></path>
  </g>
</svg>