<svg xmlns="http://www.w3.org/2000/svg" fill="none" viewBox="0 0 48 48" id="Screen-2--Streamline-Core-Remix" height="48" width="48">
  <desc>
    Screen 2 Streamline Icon: https://streamlinehq.com
  </desc>
  <g id="Free Remix/Computer Devices/screen-2--screen-device-electronics-monitor-diplay-computer">
    <path id="Union" fill="#000000" fill-rule="evenodd" d="M4.285714285714286 32.14285714285714v-24.857142857142854h39.42857142857142v24.857142857142854H4.285714285714286Zm29.401302857142852 4.285714285714286H44.14285714285714c2.1301714285714284 0 3.8571428571428568 -1.7269714285714286 3.8571428571428568 -3.8571428571428568V6.857142857142857c0 -2.1302399999999997 -1.7269714285714286 -3.8571428571428568 -3.8571428571428568 -3.8571428571428568H3.8571428571428568C1.726902857142857 3 0 4.726902857142856 0 6.857142857142857v25.71428571428571c0 2.1301714285714284 1.726902857142857 3.8571428571428568 3.8571428571428568 3.8571428571428568h10.455977142857142c-1.7260799999999998 1.899085714285714 -2.8644342857142853 4.273714285714285 -3.2542971428571423 6.834171428571429 -0.2494285714285714 1.6378285714285714 0.8762057142857143 3.168 2.5141714285714283 3.4172571428571428 1.6379657142857142 0.2496 3.1680342857142856 -0.876 3.4174285714285713 -2.5141714285714283 0.25525714285714285 -1.6762285714285714 1.1026971428571428 -3.205371428571428 2.38872 -4.3104000000000005 1.2859885714285715 -1.1050285714285712 2.9253942857142854 -1.7125714285714284 4.620925714285714 -1.7125714285714284 1.6955314285714285 0 3.334937142857143 0.607542857142857 4.620925714285714 1.7125714285714284 1.286022857142857 1.1050285714285712 2.1334628571428573 2.6341714285714284 2.38872 4.3104000000000005 0.2494285714285714 1.6381714285714284 1.779462857142857 2.7637714285714288 3.4172571428571428 2.5141714285714283 1.6381714285714284 -0.24925714285714284 2.7637714285714288 -1.7794285714285714 2.5145142857142857 -3.4172571428571428 -0.39017142857142856 -2.560457142857143 -1.5284571428571427 -4.935085714285714 -3.2544685714285713 -6.834171428571429Z" clip-rule="evenodd" stroke-width="3.4286"></path>
  </g>
</svg>