<svg xmlns="http://www.w3.org/2000/svg" fill="none" viewBox="0 0 48 48" id="Screen-Broadcast--Streamline-Core-Remix" height="48" width="48">
  <desc>
    Screen Broadcast Streamline Icon: https://streamlinehq.com
  </desc>
  <g id="Free Remix/Programming/Programming/RSS/screen-broadcast--wireless-feed-rss-transmit-broadcast-monitor-screen">
    <path id="Union" fill="#000000" fill-rule="evenodd" d="M5.571428571428571 3.4285714285714284c-1.477645714285714 0 -2.894749714285714 0.5869714285714285 -3.939596571428571 1.6318285714285712C0.5869885714285714 6.105257142857142 0 7.522354285714286 0 9v11.142857142857142c0 1.1834742857142857 0.9593897142857143 2.142857142857143 2.142857142857143 2.142857142857143s2.142857142857143 -0.9593828571428571 2.142857142857143 -2.142857142857143v-11.142857142857142c0 -0.3410057142857143 0.13546285714285713 -0.6680228571428571 0.37655999999999995 -0.9091542857142857 0.24113142857142858 -0.24109714285714282 0.5681485714285713 -0.37655999999999995 0.9091542857142857 -0.37655999999999995h36.857142857142854c0.34114285714285714 0 0.6678857142857143 0.13546285714285713 0.9092571428571428 0.37655999999999995 0.24102857142857143 0.24113142857142858 0.3764571428571428 0.5681485714285713 0.3764571428571428 0.9091542857142857v30c0 0.34114285714285714 -0.13542857142857143 0.6678857142857143 -0.3764571428571428 0.9092571428571428 -0.24137142857142857 0.24102857142857143 -0.5681142857142857 0.3764571428571428 -0.9092571428571428 0.3764571428571428h-18c-1.1834742857142857 0 -2.142857142857143 0.9593142857142857 -2.142857142857143 2.142857142857143s0.9593828571428571 2.142857142857143 2.142857142857143 2.142857142857143h18c1.4777142857142855 0 2.894742857142857 -0.5869714285714285 3.9394285714285715 -1.632 1.0450285714285714 -1.0446857142857142 1.632 -2.4617142857142853 1.632 -3.9394285714285715v-30c0 -1.477645714285714 -0.5869714285714285 -2.894742857142857 -1.632 -3.9395999999999995C45.32331428571428 4.015542857142857 43.90628571428571 3.4285714285714284 42.42857142857142 3.4285714285714284H5.571428571428571ZM0 28.285714285714285c0 -1.4201485714285715 1.1512662857142855 -2.571428571428571 2.571428571428571 -2.571428571428571 4.319245714285714 0 8.461577142857143 1.7157942857142856 11.51574857142857 4.769965714285714S18.857142857142858 37.68068571428571 18.857142857142858 42c0 1.4201142857142857 -1.1512799999999999 2.571428571428571 -2.571428571428571 2.571428571428571S13.714285714285714 43.420114285714284 13.714285714285714 42c0 -2.955428571428571 -1.1739771428571428 -5.789485714285714 -3.2636571428571424 -7.879199999999999C8.360914285714285 32.031119999999994 5.526685714285714 30.857142857142854 2.571428571428571 30.857142857142854 1.1512662857142855 30.857142857142854 0 29.705862857142858 0 28.285714285714285Zm0 8.571428571428571c0 -1.4201142857142857 1.1512662857142855 -2.571428571428571 2.571428571428571 -2.571428571428571 2.0459657142857144 0 4.008102857142857 0.8129142857142857 5.454822857142856 2.2594285714285713 1.44672 1.4468571428571426 2.2594628571428568 3.4090285714285713 2.2594628571428568 5.454857142857143 0 1.4201142857142857 -1.1512799999999999 2.571428571428571 -2.571428571428571 2.571428571428571s-2.571428571428571 -1.1513142857142855 -2.571428571428571 -2.571428571428571c0 -0.6819428571428571 -0.27092571428571427 -1.3361142857142856 -0.7531542857142857 -1.8181714285714285C3.9074742857142857 39.69942857142857 3.2534159999999996 39.42857142857142 2.571428571428571 39.42857142857142c-1.4201622857142857 0 -2.571428571428571 -1.1513142857142855 -2.571428571428571 -2.571428571428571Z" clip-rule="evenodd" stroke-width="3.4286"></path>
  </g>
</svg>