<svg xmlns="http://www.w3.org/2000/svg" fill="none" viewBox="0 0 48 48" id="Screen-Curve--Streamline-Core-Remix" height="48" width="48">
  <desc>
    Screen Curve Streamline Icon: https://streamlinehq.com
  </desc>
  <g id="Free Remix/Computer Devices/screen-curve--screen-curved-device-electronics-monitor-diplay-computer">
    <path id="Union" fill="#000000" fill-rule="evenodd" d="M4.414285714285715 2.1882274285714285c13.277177142857143 1.854366857142857 25.893154285714285 1.8544354285714286 39.170399999999994 0.0002297142857142857 1.0878857142857143 -0.17059542857142856 2.2121142857142857 0.14268342857142857 3.0551999999999997 0.8524697142857143 0.8441142857142857 0.7108217142857143 1.344342857142857 1.7675759999999998 1.3597714285714286 2.870341714285714l0.0006857142857142857 0.04206857142857143v28.66289142857143l0 0.004457142857142857c0.0034285714285714284 1.1088 -0.47965714285714284 2.180228571428571 -1.3138285714285713 2.9118857142857144 -0.8403428571428572 0.7374857142857143 -1.9765714285714284 1.0762285714285713 -3.0836571428571427 0.9195428571428571l-0.008914285714285713 -0.0010285714285714284c-5.615314285714285 -0.7995428571428571 -11.113748571428571 -1.2606857142857144 -16.593942857142856 -1.3841142857142856v3.6473142857142857H32.57142857142857c1.6568571428571428 0 3 1.3433142857142857 3 3 0 1.6570285714285713 -1.343142857142857 3 -3 3h-17.142857142857142c-1.6568571428571428 0 -3 -1.3429714285714285 -3 -3 0 -1.6566857142857143 1.343142857142857 -3 3 -3h5.571428571428571v-3.6473142857142857c-5.482354285714286 0.12342857142857142 -10.982811428571429 0.5852571428571428 -16.600559999999998 1.3847999999999998l-0.007885714285714286 0.0013714285714285714c-1.092048 0.15257142857142855 -2.212501714285714 -0.17622857142857143 -3.0487714285714285 -0.8952 -0.8377645714285714 -0.72 -1.3313199428571427 -1.781142857142857 -1.3425269873142855 -2.885828571428571l-0.00004638925714285714 -0.039085714285714286V6.005622857142857C-0.011638217142857142 4.88352 0.4796331428571428 3.7977942857142857 1.330782857142857 3.0661199999999997 2.1761999999999997 2.339358857142857 3.3136319999999997 2.0160411428571425 4.414285714285715 2.1882274285714285ZM4.28592 6.496902857142857v27.643062857142855c13.344377142857143 -1.8566057142857144 26.084194285714286 -1.8566057142857144 39.42870857142857 0V6.496902857142857c-13.346982857142855 1.8238285714285714 -26.081862857142855 1.8238285714285714 -39.42870857142857 0Z" clip-rule="evenodd" stroke-width="3.4286"></path>
  </g>
</svg>