<svg xmlns="http://www.w3.org/2000/svg" fill="none" viewBox="0 0 48 48" id="Script-2--Streamline-Core-Remix" height="48" width="48">
  <desc>
    Script 2 Streamline Icon: https://streamlinehq.com
  </desc>
  <g id="Free Remix/Programming/Programming/Script/script-2--language-programming-code">
    <path id="Union" fill="#000000" fill-rule="evenodd" d="M15.857142857142856 4.285714285714286c-1.2502971428571428 0 -2.449405714285714 0.49669714285714284 -3.3334971428571425 1.3807885714285713S11.142857142857142 7.749702857142857 11.142857142857142 9v30c0 1.677942857142857 -0.46865142857142855 3.307885714285714 -1.33344 4.714285714285714H27c1.2502971428571428 0 2.449405714285714 -0.49679999999999996 3.3334971428571425 -1.3806857142857143 0.8840914285714284 -0.8842285714285715 1.3807885714285713 -2.0832 1.3807885714285713 -3.3336v-30.857142857142854c0 -1.3585371428571427 0.33949714285714283 -2.6820342857142854 0.9714857142857142 -3.8571428571428568H15.857142857142856ZM36 39V14.571428571428571h8.142857142857142c1.0230857142857142 0 2.004 -0.4063885714285714 2.7274285714285713 -1.1297142857142857 0.7234285714285713 -0.72336 1.1297142857142857 -1.7044457142857143 1.1297142857142857 -2.7274285714285713v-2.571428571428571c0 -2.159622857142857 -0.8578285714285713 -4.230788571428572 -2.3849142857142858 -5.757870857142857C44.088 0.857904 42.016799999999996 0 39.857142857142854 0h-24c-2.3869371428571426 0 -4.676125714285714 0.9482125714285713 -6.363977142857142 2.63604C7.805348571428571 4.323874285714286 6.857142857142857 6.6130628571428565 6.857142857142857 9v30c0 1.2504 -0.49669714285714284 2.4493714285714288 -1.3807885714285713 3.3336 -0.8840914285714284 0.8838857142857142 -2.0831931428571426 1.3806857142857143 -3.3334971428571425 1.3806857142857143 -1.1834674285714284 0 -2.142857142857143 0.9593142857142857 -2.142857142857143 2.142857142857143S0.9593897142857143 48 2.142857142857143 48h24.857142857142854c2.3869371428571426 0 4.676125714285714 -0.9483428571428572 6.363977142857142 -2.635885714285714 1.6876799999999998 -1.6878857142857142 2.636022857142857 -3.977142857142857 2.636022857142857 -6.364114285714286Zm-15.428571428571427 -27.428571428571427c-1.1834742857142857 0 -2.142857142857143 0.9593828571428571 -2.142857142857143 2.142857142857143s0.9593828571428571 2.142857142857143 2.142857142857143 2.142857142857143h5.142857142857142c1.1834742857142857 0 2.142857142857143 -0.9593828571428571 2.142857142857143 -2.142857142857143s-0.9593828571428571 -2.142857142857143 -2.142857142857143 -2.142857142857143H20.57142857142857ZM15 24c0 -1.1834742857142857 0.9593828571428571 -2.142857142857143 2.142857142857143 -2.142857142857143h8.571428571428571c1.1834742857142857 0 2.142857142857143 0.9593828571428571 2.142857142857143 2.142857142857143s-0.9593828571428571 2.142857142857143 -2.142857142857143 2.142857142857143H17.142857142857142c-1.1834742857142857 0 -2.142857142857143 -0.9593828571428571 -2.142857142857143 -2.142857142857143ZM17.142857142857142 32.14285714285714c-1.1834742857142857 0 -2.142857142857143 0.9593828571428571 -2.142857142857143 2.142857142857143 0 1.183542857142857 0.9593828571428571 2.142857142857143 2.142857142857143 2.142857142857143h8.571428571428571c1.1834742857142857 0 2.142857142857143 -0.9593142857142857 2.142857142857143 -2.142857142857143 0 -1.1834742857142857 -0.9593828571428571 -2.142857142857143 -2.142857142857143 -2.142857142857143H17.142857142857142Z" clip-rule="evenodd" stroke-width="3.4286"></path>
  </g>
</svg>