<svg xmlns="http://www.w3.org/2000/svg" fill="none" viewBox="0 0 48 48" id="Search-Dollar--Streamline-Core-Remix" height="48" width="48">
  <desc>
    Search Dollar Streamline Icon: https://streamlinehq.com
  </desc>
  <g id="Free Remix/Work Education/search-dollar--search-pay-product-currency-query-magnifying-cash-business-money-glass">
    <path id="Union" fill="#000000" fill-rule="evenodd" d="M22.285714285714285 4.285714285714286c-9.941108571428572 0 -18 8.058891428571428 -18 18 0 9.941142857142857 8.058891428571428 18 18 18 9.941142857142857 0 18 -8.058857142857141 18 -18 0 -9.941108571428572 -8.058857142857141 -18 -18 -18ZM0 22.285714285714285C0 9.977657142857142 9.977657142857142 0 22.285714285714285 0 34.593942857142856 0 44.57142857142857 9.977657142857142 44.57142857142857 22.285714285714285c0 5.072605714285714 -1.694742857142857 9.749348571428571 -4.549028571428571 13.494857142857143l7.098857142857143 7.098857142857143c1.171542857142857 1.171542857142857 1.171542857142857 3.0709714285714287 0 4.242857142857143 -1.171542857142857 1.171542857142857 -3.0709714285714287 1.171542857142857 -4.242514285714286 0l-7.098857142857143 -7.099200000000001C32.03427428571428 42.877028571428575 27.357874285714285 44.57142857142857 22.285714285714285 44.57142857142857 9.977657142857142 44.57142857142857 0 34.593942857142856 0 22.285714285714285Zm20.020662857142856 -7.871657142857143c0 -0.7100914285714285 0.5756228571428571 -1.2857142857142856 1.2857142857142856 -1.2857142857142856h1.9586399999999997c0.7100914285714285 0 1.2857142857142856 0.5756228571428571 1.2857142857142856 1.2857142857142856v0.8914628571428571H20.020662857142856V14.414057142857143Zm-4.285714285714286 0.8914628571428571V14.414057142857143c0 -3.0770057142857143 2.4943885714285714 -5.571428571428571 5.571428571428571 -5.571428571428571h1.9586399999999997c3.0770399999999998 0 5.571428571428571 2.494422857142857 5.571428571428571 5.571428571428571v0.8914628571428571h0.7019657142857143c2.6215542857142853 0 4.74672 2.1252 4.74672 4.74672v8.628137142857142c0 2.6215542857142853 -2.125165714285714 4.74672 -4.74672 4.74672H15.033085714285713c-2.6215542857142853 0 -4.746754285714286 -2.125165714285714 -4.746754285714286 -4.74672V20.052239999999998c0 -2.62152 2.125165714285714 -4.74672 4.746754285714286 -4.74672h0.7018628571428571Z" clip-rule="evenodd" stroke-width="3.4286"></path>
  </g>
</svg>