<svg xmlns="http://www.w3.org/2000/svg" fill="none" viewBox="0 0 48 48" id="Search-Visual--Streamline-Core-Remix" height="48" width="48">
  <desc>
    Search Visual Streamline Icon: https://streamlinehq.com
  </desc>
  <g id="Free Remix/Interface Essential/search-visual">
    <path id="Union" fill="#000000" fill-rule="evenodd" d="M6.857142857142857 5.571428571428571c-0.3410057142857143 0 -0.6680228571428571 0.13546285714285713 -0.9091542857142857 0.37655999999999995C5.706891428571428 6.18912 5.571428571428571 6.516137142857142 5.571428571428571 6.857142857142857v6.857142857142857c0 1.1834742857142857 -0.9593828571428571 2.142857142857143 -2.142857142857143 2.142857142857143 -1.1834674285714284 0 -2.142857142857143 -0.9593828571428571 -2.142857142857143 -2.142857142857143V6.857142857142857c0 -1.477645714285714 0.5869885714285714 -2.894742857142857 1.631832 -3.939596571428571C3.9623999999999997 1.8727028571428572 5.379497142857143 1.2857142857142856 6.857142857142857 1.2857142857142856h6.857142857142857c1.1834742857142857 0 2.142857142857143 0.9593897142857143 2.142857142857143 2.142857142857143 0 1.1834742857142857 -0.9593828571428571 2.142857142857143 -2.142857142857143 2.142857142857143H6.857142857142857Zm27.428571428571427 -4.285714285714286c-1.1834742857142857 0 -2.142857142857143 0.9593897142857143 -2.142857142857143 2.142857142857143 0 1.1834742857142857 0.9593828571428571 2.142857142857143 2.142857142857143 2.142857142857143h6.857142857142857c0.34114285714285714 0 0.6678857142857143 0.13546285714285713 0.9092571428571428 0.37655999999999995 0.24102857142857143 0.24113142857142858 0.3764571428571428 0.5681485714285713 0.3764571428571428 0.9091542857142857v6.857142857142857c0 1.1834742857142857 0.9593142857142857 2.142857142857143 2.142857142857143 2.142857142857143s2.142857142857143 -0.9593828571428571 2.142857142857143 -2.142857142857143V6.857142857142857c0 -1.477645714285714 -0.5869714285714285 -2.894742857142857 -1.632 -3.939596571428571C44.0376 1.8727028571428572 42.620571428571424 1.2857142857142856 41.14285714285714 1.2857142857142856h-6.857142857142857ZM46.71428571428571 34.285714285714285c0 -1.1834742857142857 -0.9593142857142857 -2.142857142857143 -2.142857142857143 -2.142857142857143s-2.142857142857143 0.9593828571428571 -2.142857142857143 2.142857142857143v6.857142857142857c0 0.34114285714285714 -0.13542857142857143 0.6678857142857143 -0.3764571428571428 0.9092571428571428 -0.24137142857142857 0.24102857142857143 -0.5681142857142857 0.3764571428571428 -0.9092571428571428 0.3764571428571428h-6.857142857142857c-1.1834742857142857 0 -2.142857142857143 0.9593142857142857 -2.142857142857143 2.142857142857143s0.9593828571428571 2.142857142857143 2.142857142857143 2.142857142857143h6.857142857142857c1.4777142857142855 0 2.894742857142857 -0.5869714285714285 3.9394285714285715 -1.632 1.0450285714285714 -1.0446857142857142 1.632 -2.4617142857142853 1.632 -3.9394285714285715v-6.857142857142857Zm-41.14285714285714 0c0 -1.1834742857142857 -0.9593828571428571 -2.142857142857143 -2.142857142857143 -2.142857142857143 -1.1834674285714284 0 -2.142857142857143 0.9593828571428571 -2.142857142857143 2.142857142857143v6.857142857142857c0 1.4777142857142855 0.5869885714285714 2.894742857142857 1.631832 3.9394285714285715 1.0448537142857142 1.0450285714285714 2.461950857142857 1.632 3.939596571428571 1.632h6.857142857142857c1.1834742857142857 0 2.142857142857143 -0.9593142857142857 2.142857142857143 -2.142857142857143s-0.9593828571428571 -2.142857142857143 -2.142857142857143 -2.142857142857143H6.857142857142857c-0.3410057142857143 0 -0.6680228571428571 -0.13542857142857143 -0.9091542857142857 -0.3764571428571428 -0.24109714285714282 -0.24137142857142857 -0.37655999999999995 -0.5681142857142857 -0.37655999999999995 -0.9092571428571428v-6.857142857142857ZM21.428571428571427 13.285714285714285c-4.497188571428571 0 -8.142857142857142 3.6456685714285713 -8.142857142857142 8.142857142857142S16.931382857142857 29.57142857142857 21.428571428571427 29.57142857142857 29.57142857142857 25.925759999999997 29.57142857142857 21.428571428571427 25.925759999999997 13.285714285714285 21.428571428571427 13.285714285714285ZM9 21.428571428571427c0 -6.864102857142857 5.564468571428571 -12.428571428571427 12.428571428571427 -12.428571428571427S33.857142857142854 14.56446857142857 33.857142857142854 21.428571428571427c0 2.344422857142857 -0.6491314285714286 4.537234285714286 -1.77744 6.408514285714285l5.184411428571428 5.184445714285714c1.171542857142857 1.1715771428571429 1.171542857142857 3.0710399999999995 0 4.242582857142857s-3.071005714285714 1.171542857142857 -4.242582857142857 0L27.83708571428571 32.079702857142856C25.965805714285715 33.208011428571425 23.772994285714283 33.857142857142854 21.428571428571427 33.857142857142854c-6.864102857142857 0 -12.428571428571427 -5.564468571428571 -12.428571428571427 -12.428571428571427Z" clip-rule="evenodd" stroke-width="3.4286"></path>
  </g>
</svg>