<svg xmlns="http://www.w3.org/2000/svg" fill="none" viewBox="0 0 48 48" id="Select-Circle-Area-1--Streamline-Core-Remix" height="48" width="48">
  <desc>
    Select Circle Area 1 Streamline Icon: https://streamlinehq.com
  </desc>
  <g id="Free Remix/Interface Essential/select-circle-area-1--select-area-object-work">
    <path id="Union" fill="#000000" fill-rule="evenodd" d="M29.524114285714283 0.6238388571428571c-3.6355885714285714 -0.8351334857142857 -7.413188571428572 -0.8351334857142857 -11.048777142857142 0 -1.15344 0.26495657142857143 -1.87368 1.4147828571428571 -1.60872 2.5682091428571425 0.26496 1.1534262857142856 1.4147657142857142 1.8736662857142856 2.568205714285714 1.6087062857142858 3.0041485714285714 -0.6900685714285714 6.1256571428571425 -0.6900685714285714 9.129805714285713 0 1.1534057142857141 0.26496 2.303245714285714 -0.45527999999999996 2.568205714285714 -1.6087062857142858 0.26496 -1.1534262857142856 -0.45531428571428567 -2.303252571428571 -1.60872 -2.5682091428571425ZM13.660937142857144 7.2232457142857145c1.0056685714285714 -0.6238971428571428 1.3151314285714284 -1.9449257142857144 0.6912342857142857 -2.95056 -0.6238971428571428 -1.0056685714285714 -1.9449257142857144 -1.3151417142857142 -2.95056 -0.6912342857142857 -1.5742628571428572 0.976662857142857 -3.0382628571428567 2.120777142857143 -4.366388571428572 3.4123542857142857l-0.04223999999999999 0.042274285714285716c-1.2916114285714284 1.3281257142857141 -2.4357257142857143 2.7920914285714282 -3.4123885714285715 4.366354285714285 -0.6238902857142856 1.0056685714285714 -0.31441371428571424 2.3266628571428574 0.6912342857142857 2.95056 1.0056685714285714 0.6238971428571428 2.326697142857143 0.3144342857142857 2.9505942857142853 -0.6912342857142857 0.8084228571428571 -1.303097142857143 1.7545714285714287 -2.515508571428571 2.82216 -3.6163542857142854 1.1008114285714286 -1.0675542857142857 2.3132228571428572 -2.013702857142857 3.6163542857142854 -2.82216ZM3.19284 16.867611428571426c1.15332 0.26537142857142854 1.873182857142857 1.4154514285714284 1.6078457142857143 2.5687542857142858 -0.6910971428571429 3.003702857142857 -0.6910971428571429 6.124697142857142 0 9.128365714285714 0.2653371428571428 1.1533371428571428 -0.45452571428571426 2.303417142857143 -1.6078457142857143 2.5687542857142858 -1.1533371428571428 0.26537142857142854 -2.3034102857142855 -0.4544914285714286 -2.5687645714285714 -1.6078285714285712 -0.8365645714285713 -3.6360342857142856 -0.8365645714285713 -7.4141828571428565 0 -11.050217142857143 0.2653542857142857 -1.1533371428571428 1.4154274285714286 -1.8731657142857143 2.5687645714285714 -1.6078285714285712ZM7.222422857142856 34.33885714285714c-0.6238971428571428 -1.005702857142857 -1.9449257142857144 -1.3152 -2.9505942857142853 -0.6913028571428571 -1.005648 0.6238971428571428 -1.3151245714285713 1.9447885714285713 -0.6912342857142857 2.9507314285714283 0.976662857142857 1.5740571428571428 2.120777142857143 3.038057142857143 3.4123885714285715 4.3662857142857145l0.04223999999999999 0.04217142857142857c1.3281257142857141 1.291542857142857 2.792125714285714 2.435657142857143 4.366388571428572 3.4124571428571424 1.0056342857142857 0.624 2.3266628571428574 0.3144 2.95056 -0.6911999999999999 0.6238971428571428 -1.0056 0.3144342857142857 -2.326628571428571 -0.6912342857142857 -2.950628571428571 -1.3031314285714284 -0.8084571428571429 -2.515542857142857 -1.7547428571428572 -3.6163542857142854 -2.822057142857143 -1.0675542857142857 -1.1009142857142857 -2.0137371428571424 -2.3132571428571427 -2.82216 -3.6164571428571426Zm9.644194285714285 10.470171428571428c0.26496 -1.1533714285714285 1.4147657142857142 -1.8737142857142857 2.568205714285714 -1.6086857142857143 3.0041485714285714 0.6901714285714285 6.1256571428571425 0.6901714285714285 9.129805714285713 0 1.1534057142857141 -0.2650285714285714 2.303245714285714 0.45531428571428567 2.568205714285714 1.6086857142857143 0.26496 1.1533714285714285 -0.45531428571428567 2.3033142857142854 -1.60872 2.568342857142857 -3.6355885714285714 0.8348571428571427 -7.413188571428572 0.8348571428571427 -11.048777142857142 0 -1.15344 -0.2650285714285714 -1.87368 -1.4149714285714285 -1.60872 -2.568342857142857Zm27.551554285714282 -8.210742857142856c0.624 -1.005942857142857 0.3144 -2.326834285714286 -0.6911999999999999 -2.9507314285714283 -1.0056 -0.6238971428571428 -2.326628571428571 -0.3144 -2.950628571428571 0.6913028571428571 -0.8084571428571429 1.3032 -1.7544 2.515542857142857 -2.822057142857143 3.6164571428571426 -1.1009142857142857 1.0673142857142857 -2.3132571428571427 2.0136 -3.6164571428571426 2.822057142857143 -1.0055314285714285 0.624 -1.3149942857142856 1.9450285714285713 -0.6910971428571429 2.950628571428571s1.9449257142857144 1.3152 2.950525714285714 0.6911999999999999c1.5743999999999998 -0.9767999999999999 3.0383999999999998 -2.1209142857142855 4.3662857142857145 -3.4124571428571424l0.04251428571428571 -0.04217142857142857c1.291542857142857 -1.3282285714285715 2.435657142857143 -2.7922285714285713 3.4121142857142854 -4.3662857142857145Zm0.3891428571428571 -19.730674285714286c1.1533714285714285 -0.2653371428571428 2.303657142857143 0.4544914285714286 2.569028571428571 1.6078285714285712 0.8365714285714285 3.6360342857142856 0.8365714285714285 7.4141828571428565 0 11.050217142857143 -0.26537142857142854 1.1533371428571428 -1.4156571428571427 1.8732 -2.569028571428571 1.6078285714285712 -1.1530285714285713 -0.2653371428571428 -1.8730285714285713 -1.4154171428571427 -1.6076571428571427 -2.5687542857142858 0.6911999999999999 -3.0036685714285714 0.6911999999999999 -6.124662857142857 0 -9.128365714285714 -0.26537142857142854 -1.1533028571428572 0.4546285714285714 -2.3033828571428567 1.6076571428571427 -2.5687542857142858Zm-8.210057142857142 -13.286159999999999c-1.0056 -0.6239074285714286 -2.326628571428571 -0.3144342857142857 -2.950525714285714 0.6912342857142857 -0.6238971428571428 1.0056342857142857 -0.3144342857142857 2.3266628571428574 0.6910971428571429 2.95056 1.3032 0.8084571428571429 2.515542857142857 1.754605714285714 3.6164571428571426 2.82216 1.0676571428571429 1.1008457142857142 2.0136 2.3132571428571427 2.822057142857143 3.6163542857142854 0.624 1.0056685714285714 1.9450285714285713 1.3151314285714284 2.950628571428571 0.6912342857142857 1.0056 -0.6238971428571428 1.3152 -1.9448914285714285 0.6911999999999999 -2.95056 -0.9764571428571428 -1.5742628571428572 -2.1205714285714286 -3.0382285714285713 -3.4121142857142854 -4.366354285714285l-0.04251428571428571 -0.042274285714285716c-1.3278857142857141 -1.2915771428571428 -2.7918857142857143 -2.4356914285714284 -4.3662857142857145 -3.4123542857142857Z" clip-rule="evenodd" stroke-width="3.4286"></path>
  </g>
</svg>