<svg xmlns="http://www.w3.org/2000/svg" fill="none" viewBox="0 0 48 48" id="Send-Email--Streamline-Core-Remix" height="48" width="48">
  <desc>
    Send Email Streamline Icon: https://streamlinehq.com
  </desc>
  <g id="Free Remix/Mail/Mail/Send/send-email--mail-send-email-paper-airplane">
    <path id="Union" fill="#000000" fill-rule="evenodd" d="M40.071771428571424 0.35298857142857143c1.0498285714285716 -0.3818578971428571 2.1870857142857143 -0.45837017142857145 3.2790857142857144 -0.2202510857142857 1.1053714285714287 0.2409768 2.1181714285714284 0.7940876571428571 2.9183999999999997 1.5937607999999999 0.7998857142857143 0.7996868571428571 1.3536 1.812336 1.5949714285714285 2.917604571428571 0.2386285714285714 1.0921714285714286 0.1618285714285714 2.229222857142857 -0.22045714285714282 3.27912L35.62011428571429 43.939542857142854l-0.0010285714285714284 0.0030857142857142854c-0.3178285714285714 0.9610285714285713 -0.8773714285714286 1.824342857142857 -1.625142857142857 2.506971428571428 -0.7449942857142857 0.6802285714285714 -1.6516799999999998 1.1585142857142856 -2.633622857142857 1.3889142857142858 -0.9834857142857142 0.2393142857142857 -2.0124 0.21908571428571427 -2.98584 -0.05897142857142857 -0.9721371428571428 -0.27737142857142855 -1.8555428571428572 -0.8026285714285714 -2.563817142857143 -1.5236571428571428l-6.212091428571428 -6.18 -6.479554285714285 3.348342857142857c-0.6730971428571428 0.34800000000000003 -1.4798399999999998 0.3144 -2.12184 -0.08777142857142857 -0.6419657142857143 -0.4025142857142857 -1.023737142857143 -1.1139428571428571 -1.0040914285714286 -1.8713142857142855l0.2787085714285714 -10.739142857142857L1.7117554285714285 22.170994285714286l-0.0007885714285714285 -0.0007885714285714285C1.0266857142857142 21.486788571428573 0.5228297142857142 20.644114285714284 0.24476811428571427 19.717782857142854c-0.2757410057142857 -0.918582857142857 -0.32084742857142856 -1.8908228571428571 -0.13150148571428572 -2.830765714285714 0.1906848 -1.0257942857142857 0.6498099428571428 -1.9828114285714282 1.3307242285714287 -2.7736799999999997 0.6863897142857143 -0.7972457142857142 1.5732342857142856 -1.396662857142857 2.568774857142857 -1.7365371428571428l0.014434285714285714 -0.004902857142857143 0.00003428571428571428 0.00003428571428571428L40.071771428571424 0.35298857142857143Zm2.366057142857143 3.9670799999999997c-0.3037714285714285 -0.06624 -0.6202285714285715 -0.043885714285714285 -0.9116571428571429 0.06435428571428571 -0.02262857142857143 0.0084 -0.04525714285714286 0.016422857142857142 -0.06822857142857143 0.024034285714285713L5.391634285714285 16.434685714285713c-0.2713028571428571 0.09373714285714285 -0.5127771428571428 0.2576228571428571 -0.6998399999999999 0.4749257142857143 -0.18836571428571428 0.21877714285714286 -0.31474285714285716 0.4837371428571428 -0.36623999999999995 0.7674857142857142l-0.009634285714285713 0.04961142857142857c-0.051874285714285706 0.2518628571428571 -0.040319999999999995 0.5126057142857142 0.03363428571428571 0.7589142857142857 0.07392 0.24630857142857143 0.20794285714285715 0.4705028571428571 0.39017142857142856 0.6524571428571428l0.0008228571428571429 0.0007885714285714285 6.6792 6.675291428571429 21.700834285714286 -14.320045714285714c0.7433828571428571 -0.49056 1.7387314285714284 -0.33010285714285714 2.2900457142857142 0.3692228571428571 0.5516571428571427 0.6993257142857143 0.4758857142857143 1.7045485714285713 -0.1745142857142857 2.313188571428571L14.484377142857143 33.59979428571428l-0.11297142857142857 4.35312 4.647257142857143 -2.4017142857142857c0.8269371428571428 -0.42719999999999997 1.8351771428571426 -0.27188571428571423 2.4951085714285717 0.38468571428571424l7.329291428571429 7.291199999999999 0.022217142857142855 0.022285714285714284 -0.00017142857142857143 0c0.18905142857142856 0.1937142857142857 0.42551999999999995 0.33497142857142853 0.6861257142857142 0.40937142857142855 0.26057142857142856 0.0744 0.5361257142857143 0.07954285714285714 0.7993028571428571 0.014742857142857143l0.0264 -0.006514285714285714 0.00006857142857142857 0.00034285714285714285c0.27133714285714283 -0.06308571428571429 0.5217257142857142 -0.19508571428571428 0.7272 -0.38262857142857143 0.2054742857142857 -0.18754285714285712 0.3590742857142857 -0.42479999999999996 0.44615999999999995 -0.6884571428571429l0.002262857142857143 -0.006857142857142857L43.5888 6.535611428571428c0.007542857142857143 -0.02290285714285714 0.01577142857142857 -0.045668571428571426 0.024 -0.06829714285714285 0.10834285714285714 -0.2907085714285714 0.13062857142857143 -0.6062742857142857 0.06445714285714285 -0.909222857142857s-0.21805714285714287 -0.5807314285714286 -0.43782857142857146 -0.8002285714285714c-0.21942857142857142 -0.21953142857142857 -0.4978285714285714 -0.37155428571428567 -0.8016 -0.4377942857142857Z" clip-rule="evenodd" stroke-width="3.4286"></path>
  </g>
</svg>