<svg xmlns="http://www.w3.org/2000/svg" fill="none" viewBox="0 0 48 48" id="Serving-Dome--Streamline-Core-Remix" height="48" width="48">
  <desc>
    Serving Dome Streamline Icon: https://streamlinehq.com
  </desc>
  <g id="Free Remix/Food Drink/serving-dome--cook-tool-dome-kitchen-serving-paltter-dish-tools-food-kitchenware">
    <path id="Union" fill="#000000" fill-rule="evenodd" d="M23.999897142857144 1.5811954285714285c1.1834742857142857 0 2.142857142857143 0.9593897142857143 2.142857142857143 2.1428502857142857v2.9978742857142855C38.414742857142855 7.824342857142856 48.003428571428564 18.29958857142857 48.003428571428564 30.813154285714287c0 2.9013942857142854 -2.347885714285714 5.322274285714285 -5.295771428571428 5.322274285714285H5.292445714285714c-2.9480331428571427 0 -5.295793926857143 -2.42088 -5.295793926857143 -5.322274285714285 0 -12.513531428571428 9.588605355428571 -22.98870857142857 21.86038821257143 -24.0912v-2.9979085714285714c0 -1.1834605714285713 0.9593828571428571 -2.1428502857142857 2.142857142857143 -2.1428502857142857Zm0.00006857142857142857 9.330644571428572c-10.86648 0 -19.717611428571427 8.988171428571428 -19.717611428571427 19.901314285714285 0 0.5812457142857143 0.47550857142857145 1.0365942857142856 1.0100914285714284 1.0365942857142856H42.707657142857144c0.5345142857142857 0 1.0100571428571428 -0.45534857142857144 1.0100571428571428 -1.0365942857142856 0 -10.913142857142857 -8.851199999999999 -19.901314285714285 -19.71774857142857 -19.901314285714285ZM3 39.857142857142854c-1.656853714285714 0 -3 1.3433142857142857 -3 3s1.3431462857142857 3 3 3h42c1.6566857142857143 0 3 -1.3433142857142857 3 -3s-1.3433142857142857 -3 -3 -3H3Z" clip-rule="evenodd" stroke-width="3.4286"></path>
  </g>
</svg>