<svg xmlns="http://www.w3.org/2000/svg" fill="none" viewBox="0 0 48 48" id="Share-Link--Streamline-Core-Remix" height="48" width="48">
  <desc>
    Share Link Streamline Icon: https://streamlinehq.com
  </desc>
  <g id="Free Remix/Interface Essential/share-link--share-transmit">
    <path id="Union" fill="#000000" fill-rule="evenodd" d="M34.285714285714285 36c0 2.6036571428571427 2.1106285714285713 4.714285714285714 4.714285714285714 4.714285714285714s4.714285714285714 -2.1106285714285713 4.714285714285714 -4.714285714285714c0 -2.6036228571428572 -2.1106285714285713 -4.714285714285714 -4.714285714285714 -4.714285714285714S34.285714285714285 33.39637714285714 34.285714285714285 36Zm4.714285714285714 9c-4.970571428571429 0 -9 -4.029599999999999 -9 -9 0 -0.1488 0.003634285714285714 -0.2969142857142857 0.010765714285714285 -0.4443428571428571L15.712525714285713 29.995302857142857c-1.6481142857142856 1.8439885714285715 -4.044754285714286 3.0046971428571427 -6.7125257142857135 3.0046971428571427C4.0294285714285705 33 0 28.970571428571425 0 24s4.0294285714285705 -9 9 -9c2.6677714285714287 0 5.064411428571428 1.1607085714285714 6.7125257142857135 3.0046971428571427l14.29824 -5.560422857142857C30.003634285714288 12.297085714285714 30 12.148971428571429 30 12c0 -4.970571428571429 4.0294285714285705 -9 9 -9C43.9704 3 48 7.029428571428571 48 12s-4.029599999999999 9 -9 9c-2.6674285714285713 0 -5.063588571428571 -1.1603314285714286 -6.7116685714285715 -3.0037371428571427L17.989302857142857 23.55702857142857c0.007097142857142856 0.14674285714285712 0.010697142857142856 0.29444571428571426 0.010697142857142856 0.44297142857142857 0 0.14852571428571426 -0.0035999999999999995 0.29622857142857145 -0.010697142857142856 0.44297142857142857l14.299028571428572 5.560765714285714C33.936411428571425 28.16033142857143 36.33257142857143 27 39 27 43.9704 27 48 31.02942857142857 48 36c0 4.9704 -4.029599999999999 9 -9 9Zm0 -28.285714285714285C36.396342857142855 16.71428571428571 34.285714285714285 14.603622857142856 34.285714285714285 12s2.1106285714285713 -4.714285714285714 4.714285714285714 -4.714285714285714 4.714285714285714 2.110662857142857 4.714285714285714 4.714285714285714 -2.1106285714285713 4.714285714285714 -4.714285714285714 4.714285714285714Zm-30 12C6.396377142857142 28.71428571428571 4.285714285714286 26.603622857142856 4.285714285714286 24s2.110662857142857 -4.714285714285714 4.714285714285714 -4.714285714285714S13.714285714285714 21.396377142857144 13.714285714285714 24s-2.110662857142857 4.714285714285714 -4.714285714285714 4.714285714285714Z" clip-rule="evenodd" stroke-width="3.4286"></path>
  </g>
</svg>