<svg xmlns="http://www.w3.org/2000/svg" fill="none" viewBox="0 0 48 48" id="Shell--Streamline-Core-Remix" height="48" width="48">
  <desc>
    Shell Streamline Icon: https://streamlinehq.com
  </desc>
  <g id="Free Remix/Nature Ecology/shell--nature-sealife-animals">
    <path id="Union" fill="#000000" fill-rule="evenodd" d="M23.987828571428572 3.9768342857142853c-3.380742857142857 0 -6.391405714285714 1.5741599999999998 -8.34264 4.0239771428571425 -1.1205942857142857 -0.3996685714285714 -2.326834285714286 -0.6171428571428571 -3.58128 -0.6171428571428571 -5.887302857142857 0 -10.659922285714286 4.772605714285714 -10.659922285714286 10.659942857142857 0 1.0525371428571428 0.1531645714285714 2.072022857142857 0.4391177142857142 3.0358971428571424 -0.18437485714285712 0.25285714285714284 -0.36128571428571427 0.5024228571428572 -0.5308354285714285 0.7478057142857142 -2.8220502857142855 4.084422857142857 -0.823488 9.081874285714285 3.0332742857142856 11.224525714285715l8.983097142857142 4.99056v2.1236571428571427c0 3.077142857142857 2.494422857142857 5.571428571428571 5.571428571428571 5.571428571428571h10.177028571428572c3.0770057142857143 0 5.57136 -2.494285714285714 5.57136 -5.571428571428571v-2.0413714285714284l9.026399999999999 -5.067325714285714c3.8345142857142855 -2.1527314285714283 5.813828571428571 -7.134034285714286 3.005142857142857 -11.206217142857142 -0.17485714285714285 -0.25306285714285714 -0.35725714285714283 -0.5106171428571429 -0.5475428571428571 -0.7716342857142857 0.2859428571428571 -0.9638742857142857 0.4391999999999999 -1.9833599999999998 0.4391999999999999 -3.0358971428571424 0 -5.887337142857143 -4.772571428571428 -10.659942857142857 -10.659771428571428 -10.659942857142857 -1.2545142857142857 0 -2.460822857142857 0.2174742857142857 -3.5813828571428568 0.6171428571428571 -1.9512685714285711 -2.449817142857143 -4.961931428571428 -4.0239771428571425 -8.342674285714285 -4.0239771428571425ZM20.966742857142858 20.9712l-2.2706399999999998 -9.889851428571427c1.14696 -1.7034857142857143 3.0905142857142853 -2.8188 5.291725714285714 -2.8188 2.2017257142857143 0 4.145691428571428 1.1158628571428573 5.292514285714286 2.8200342857142853L27.010011428571424 20.9712c-0.26482285714285714 1.15344 0.4555885714285714 2.303177142857143 1.6090285714285713 2.568 1.1534742857142857 0.26482285714285714 2.3032114285714282 -0.45555428571428563 2.5680342857142855 -1.6089942857142856l2.24064 -9.759291428571428c0.7618628571428571 -0.3228 1.600285714285714 -0.5015314285714285 2.4841714285714285 -0.5015314285714285 3.5201142857142855 0 6.374057142857143 2.85384 6.374057142857143 6.374228571428572 0 0.5376342857142857 -0.06617142857142858 1.057885714285714 -0.19028571428571428 1.5539314285714285L33.472834285714285 25.179531428571426c-0.9934628571428572 0.6430971428571428 -1.2774857142857141 1.9698514285714286 -0.6343542857142856 2.9633142857142856 0.6430971428571428 0.9934628571428572 1.9697485714285712 1.2774857142857141 2.9633485714285714 0.6343542857142856l7.222971428571428 -4.675714285714285 0.1272 0.18301714285714282c1.0734857142857142 1.5566057142857144 0.5526857142857143 3.841165714285714 -1.5750857142857142 5.035748571428571L32.10384 34.638171428571425H16.026034285714285L6.426857142857143 29.305474285714286c-2.140765714285714 -1.1893371428571426 -2.6666399999999997 -3.4817485714285707 -1.5886285714285713 -5.041988571428571 0.037302857142857145 -0.053965714285714284 0.07498285714285714 -0.10813714285714285 0.11303999999999999 -0.16254857142857143l7.223794285714285 4.676262857142857c0.9934628571428572 0.6431314285714286 2.320182857142857 0.3591085714285714 2.9633142857142856 -0.6343542857142856 0.6431314285714286 -0.9934628571428572 0.3591085714285714 -2.320217142857143 -0.6343885714285714 -2.9633142857142856L5.879691428571428 19.59665142857143c-0.12394285714285715 -0.49580571428571424 -0.18997714285714284 -1.0157142857142858 -0.18997714285714284 -1.5530399999999998 0 -3.520388571428571 2.85384 -6.374228571428572 6.374194285714285 -6.374228571428572 0.8842285714285715 0 1.7230971428571427 0.17893714285714285 2.485268571428571 0.5020457142857143l2.240502857142857 9.758777142857141c0.26482285714285714 1.15344 1.41456 1.8738171428571426 2.5680342857142855 1.6089942857142856 1.15344 -0.26482285714285714 1.8738514285714285 -1.41456 1.6090285714285713 -2.568Z" clip-rule="evenodd" stroke-width="3.4286"></path>
  </g>
</svg>