<svg xmlns="http://www.w3.org/2000/svg" fill="none" viewBox="0 0 48 48" id="Shelf--Streamline-Core-Remix" height="48" width="48">
  <desc>
    Shelf Streamline Icon: https://streamlinehq.com
  </desc>
  <g id="Free Remix/Money Shopping/shelf--shelf-drawer-cabinet-prodcut-decoration-furniture">
    <path id="Union" fill="#000000" fill-rule="evenodd" d="M8.571428571428571 4.285714285714286c-0.7100914285714285 0 -1.2857142857142856 0.5756228571428571 -1.2857142857142856 1.2857142857142856v8.571428571428571h33.42857142857142v-8.571428571428571c0 -0.7100914285714285 -0.5756571428571428 -1.2857142857142856 -1.2857142857142856 -1.2857142857142856h-30.857142857142854Zm-1.2857142857142856 38.14285714285714v-16.285714285714285h14.571428571428571v17.57142857142857H8.571428571428571c-0.7100914285714285 0 -1.2857142857142856 -0.5756571428571428 -1.2857142857142856 -1.2857142857142856Zm18.857142857142858 1.2857142857142856V26.142857142857142h14.571428571428571v16.285714285714285c0 0.7100571428571428 -0.5756571428571428 1.2857142857142856 -1.2857142857142856 1.2857142857142856H26.142857142857142ZM24 48h15.428571428571427c3.077142857142857 0 5.571428571428571 -2.494285714285714 5.571428571428571 -5.571428571428571V5.571428571428571C45 2.494412571428571 42.505714285714284 0 39.42857142857142 0h-30.857142857142854C5.494422857142857 0 3 2.494412571428571 3 5.571428571428571v36.857142857142854C3 45.505714285714284 5.494422857142857 48 8.571428571428571 48H24Zm7.7142857142857135 -16.71428571428571c1.4201485714285715 0 2.571428571428571 1.1512799999999999 2.571428571428571 2.571428571428571v1.7142857142857142c0 1.4201142857142857 -1.1512799999999999 2.571428571428571 -2.571428571428571 2.571428571428571s-2.571428571428571 -1.1513142857142855 -2.571428571428571 -2.571428571428571v-1.7142857142857142c0 -1.4201485714285715 1.1512799999999999 -2.571428571428571 2.571428571428571 -2.571428571428571Zm-12.857142857142856 2.571428571428571c0 -1.4201485714285715 -1.1512799999999999 -2.571428571428571 -2.571428571428571 -2.571428571428571s-2.571428571428571 1.1512799999999999 -2.571428571428571 2.571428571428571v1.7142857142857142c0 1.4201142857142857 1.1512799999999999 2.571428571428571 2.571428571428571 2.571428571428571s2.571428571428571 -1.1513142857142855 2.571428571428571 -2.571428571428571v-1.7142857142857142Z" clip-rule="evenodd" stroke-width="3.4286"></path>
  </g>
</svg>