<svg xmlns="http://www.w3.org/2000/svg" fill="none" viewBox="0 0 48 48" id="Shield-Check--Streamline-Core-Remix" height="48" width="48">
  <desc>
    Shield Check Streamline Icon: https://streamlinehq.com
  </desc>
  <g id="Free Remix/Interface Essential/shield-check--shield-protection-security-defend-crime-war-cover-check">
    <path id="Union" fill="#000000" fill-rule="evenodd" d="M6.857142857142857 1.2857142857142856C3.780137142857143 1.2857142857142856 1.2857142857142856 3.780137142857143 1.2857142857142856 6.857142857142857v9.172937142857142c0 13.871965714285713 8.876571428571427 26.187634285714285 22.036662857142858 30.57414857142857 0.4398514285714285 0.14674285714285712 0.9153942857142857 0.14674285714285712 1.3552457142857144 0C37.837714285714284 42.21771428571428 46.71428571428571 29.902045714285713 46.71428571428571 16.030079999999998V6.857142857142857c0 -3.0770057142857143 -2.494285714285714 -5.571428571428571 -5.571428571428571 -5.571428571428571H6.857142857142857ZM5.571428571428571 6.857142857142857c0 -0.7100914285714285 0.5756228571428571 -1.2857142857142856 1.2857142857142856 -1.2857142857142856h34.285714285714285c0.7100571428571428 0 1.2857142857142856 0.5756228571428571 1.2857142857142856 1.2857142857142856v9.172937142857142c0 11.7876 -7.392685714285714 22.279062857142854 -18.428571428571427 26.273005714285713 -11.036057142857143 -3.9939428571428572 -18.428571428571427 -14.485405714285715 -18.428571428571427 -26.273005714285713V6.857142857142857Zm30.636342857142857 8.565497142857144c0.9432 -1.0614171428571428 0.8478857142857142 -2.686765714285714 -0.21359999999999998 -3.630274285714285 -1.0614857142857141 -0.9435085714285714 -2.686868571428571 -0.8478857142857142 -3.6303771428571423 0.21356571428571428L20.221439999999998 25.66608 15.257142857142856 21.942857142857143c-1.1361257142857142 -0.852102857142857 -2.7478971428571426 -0.62184 -3.6 0.5142857142857142 -0.852102857142857 1.1361257142857142 -0.62184 2.7478971428571426 0.5142857142857142 3.6l6.857142857142857 5.142857142857142c1.069885714285714 0.8024228571428571 2.576262857142857 0.6507771428571428 3.4647771428571423 -0.3487885714285714l13.714422857142857 -15.428571428571427Z" clip-rule="evenodd" stroke-width="3.4286"></path>
  </g>
</svg>