<svg xmlns="http://www.w3.org/2000/svg" fill="none" viewBox="0 0 48 48" id="Shipping-Box-1--Streamline-Core-Remix" height="48" width="48">
  <desc>
    Shipping Box 1 Streamline Icon: https://streamlinehq.com
  </desc>
  <g id="Free Remix/Shipping/shipping-box-1--box-package-label-delivery-shipment-shipping">
    <path id="Union" fill="#000000" fill-rule="evenodd" d="M6.857142857142857 1.2857142857142856c-1.477645714285714 0 -2.894742857142857 0.5869885714285714 -3.939596571428571 1.631832C1.8727028571428572 3.9623999999999997 1.2857142857142856 5.379497142857143 1.2857142857142856 6.857142857142857v34.285714285714285c0 1.4777142857142855 0.5869885714285714 2.894742857142857 1.631832 3.9394285714285715 1.0448537142857142 1.0450285714285714 2.461950857142857 1.632 3.939596571428571 1.632h34.285714285714285c1.4777142857142855 0 2.894742857142857 -0.5869714285714285 3.9394285714285715 -1.632 1.0450285714285714 -1.0446857142857142 1.632 -2.4617142857142853 1.632 -3.9394285714285715V6.857142857142857c0 -1.477645714285714 -0.5869714285714285 -2.894742857142857 -1.632 -3.939596571428571C44.0376 1.8727028571428572 42.620571428571424 1.2857142857142856 41.14285714285714 1.2857142857142856H6.857142857142857Zm-0.9091542857142857 4.662274285714286C6.18912 5.706891428571428 6.516137142857142 5.571428571428571 6.857142857142857 5.571428571428571h8.571428571428571V20.57142857142857c0 0.6493371428571428 0.3668571428571428 1.2429257142857142 0.9476228571428572 1.5332914285714285 0.5808 0.2904 1.2757714285714286 0.2277257142857143 1.7952342857142858 -0.16186285714285714L24 17.57142857142857 29.828571428571426 21.942857142857143c0.5194628571428571 0.3895885714285714 1.2144342857142858 0.45226285714285713 1.7952342857142858 0.16186285714285714C32.20457142857143 21.814354285714284 32.57142857142857 21.220765714285715 32.57142857142857 20.57142857142857V5.571428571428571H41.14285714285714c0.34114285714285714 0 0.6678857142857143 0.13546285714285713 0.9092571428571428 0.37655999999999995 0.24102857142857143 0.24113142857142858 0.3764571428571428 0.5681485714285713 0.3764571428571428 0.9091542857142857v34.285714285714285c0 0.34114285714285714 -0.13542857142857143 0.6678857142857143 -0.3764571428571428 0.9092571428571428 -0.24137142857142857 0.24102857142857143 -0.5681142857142857 0.3764571428571428 -0.9092571428571428 0.3764571428571428H6.857142857142857c-0.3410057142857143 0 -0.6680228571428571 -0.13542857142857143 -0.9091542857142857 -0.3764571428571428 -0.24109714285714282 -0.24137142857142857 -0.37655999999999995 -0.5681142857142857 -0.37655999999999995 -0.9092571428571428V6.857142857142857c0 -0.3410057142857143 0.13546285714285713 -0.6680228571428571 0.37655999999999995 -0.9091542857142857Z" clip-rule="evenodd" stroke-width="3.4286"></path>
  </g>
</svg>