<svg xmlns="http://www.w3.org/2000/svg" fill="none" viewBox="0 0 48 48" id="Shipment-Upload--Streamline-Core-Remix" height="48" width="48">
  <desc>
    Shipment Upload Streamline Icon: https://streamlinehq.com
  </desc>
  <g id="Free Remix/Shipping/shipment-upload--shipping-parcel-shipment-upload">
    <path id="Union" fill="#000000" fill-rule="evenodd" d="M21.857142857142858 1.7142857142857142H11.59776c-1.9870285714285714 0 -3.7962857142857143 1.1446697142857143 -4.647325714285714 2.94024L1.8794742857142857 15.353691428571427c-0.1331382857142857 0.2809028571428571 -0.1852525714285714 0.58752 -0.1583142857142857 0.8875542857142856C1.7166068571428572 16.29829714285714 1.7142857142857142 16.355965714285713 1.7142857142857142 16.414182857142855v24.56376c0 1.4077714285714287 0.5591999999999999 2.757942857142857 1.5545862857142856 3.7532571428571426 0.9953794285714285 0.9953142857142857 2.3454137142857143 1.5545142857142857 3.7531165714285715 1.5545142857142857h33.955954285714284c1.4077714285714287 0 2.757942857142857 -0.5591999999999999 3.7532571428571426 -1.5545142857142857s1.5545142857142857 -2.345485714285714 1.5545142857142857 -3.7532571428571426V16.414182857142855c0 -0.05821714285714285 -0.0024 -0.11585142857142856 -0.006857142857142857 -0.17290285714285714 0.027085714285714286 -0.3000342857142857 -0.025028571428571428 -0.6066514285714285 -0.15839999999999999 -0.8875885714285714l-5.070857142857143 -10.699165714285714C40.19862857142857 2.8589554285714285 38.38937142857142 1.7142857142857142 36.40217142857143 1.7142857142857142H26.142857142857142l0 16.08792h15.857142857142856v23.17573714285714c0 0.2712 -0.10765714285714284 0.5310857142857143 -0.2993142857142857 0.722742857142857 -0.19165714285714283 0.19165714285714283 -0.45154285714285713 0.2993142857142857 -0.722742857142857 0.2993142857142857H7.0219885714285715c-0.27106285714285716 0 -0.5310171428571427 -0.10765714285714284 -0.7226742857142856 -0.2993142857142857 -0.19165714285714283 -0.19165714285714283 -0.2993142857142857 -0.45154285714285713 -0.2993142857142857 -0.722742857142857V17.802205714285712h15.857142857142856L21.857142857142858 1.7142857142857142Zm10.123439999999999 28.15045714285714c-0.33168000000000003 0.8007428571428571 -1.1130514285714284 1.3228114285714285 -1.97976 1.3228114285714285h-3.8571428571428568v5.999417142857142c0 1.183542857142857 -0.9593828571428571 2.142857142857143 -2.142857142857143 2.142857142857143 -1.1834399999999998 0 -2.142857142857143 -0.9593142857142857 -2.142857142857143 -2.142857142857143V31.187554285714285H17.999417142857144c-0.8667085714285714 0 -1.64808 -0.5220685714285713 -1.9797257142857143 -1.3228114285714285 -0.33168000000000003 -0.8007085714285713 -0.14835428571428572 -1.7224114285714285 0.4645028571428571 -2.3352685714285712l6.000719999999999 -6.000685714285714c0.4483885714285714 -0.44842285714285707 1.0460571428571428 -0.6565371428571428 1.6330285714285713 -0.6244114285714285 0.5606742857142857 0.030205714285714284 1.0640228571428572 0.27589714285714284 1.4287542857142856 0.6557485714285715l5.969382857142857 5.969348571428571c0.6128228571428571 0.6128571428571428 0.7961828571428571 1.53456 0.4645028571428571 2.3352685714285712Z" clip-rule="evenodd" stroke-width="3.4286"></path>
  </g>
</svg>