<svg xmlns="http://www.w3.org/2000/svg" fill="none" viewBox="0 0 48 48" id="Shipment-Remove--Streamline-Core-Remix" height="48" width="48">
  <desc>
    Shipment Remove Streamline Icon: https://streamlinehq.com
  </desc>
  <g id="Free Remix/Shipping/shipment-remove--shipping-parcel-shipment-remove-subtract">
    <path id="Union" fill="#000000" fill-rule="evenodd" d="M21.857142857142858 1.7142857142857142H11.59776c-1.9870285714285714 0 -3.7962857142857143 1.1446697142857143 -4.647325714285714 2.94024L1.8794742857142857 15.353691428571427c-0.1331382857142857 0.2809028571428571 -0.1852525714285714 0.58752 -0.1583142857142857 0.8875542857142856C1.7166068571428572 16.29829714285714 1.7142857142857142 16.355965714285713 1.7142857142857142 16.414182857142855v24.56376c0 1.4077714285714287 0.5591999999999999 2.757942857142857 1.5545862857142856 3.7532571428571426 0.9953794285714285 0.9953142857142857 2.3454137142857143 1.5545142857142857 3.7531165714285715 1.5545142857142857h33.955954285714284c1.4077714285714287 0 2.757942857142857 -0.5591999999999999 3.7532571428571426 -1.5545142857142857s1.5545142857142857 -2.345485714285714 1.5545142857142857 -3.7532571428571426V16.414182857142855c0 -0.05821714285714285 -0.0024 -0.11585142857142856 -0.006857142857142857 -0.17290285714285714 0.027085714285714286 -0.3000342857142857 -0.025028571428571428 -0.6066514285714285 -0.15839999999999999 -0.8875885714285714l-5.070857142857143 -10.699165714285714C40.19862857142857 2.8589554285714285 38.38937142857142 1.7142857142857142 36.40217142857143 1.7142857142857142H26.142857142857142l0 16.08792h15.857142857142856v23.17573714285714c0 0.2712 -0.10765714285714284 0.5310857142857143 -0.2993142857142857 0.722742857142857 -0.19165714285714283 0.19165714285714283 -0.45154285714285713 0.2993142857142857 -0.722742857142857 0.2993142857142857H7.0219885714285715c-0.27106285714285716 0 -0.5310171428571427 -0.10765714285714284 -0.7226742857142856 -0.2993142857142857 -0.19165714285714283 -0.19165714285714283 -0.2993142857142857 -0.45154285714285713 -0.2993142857142857 -0.722742857142857V17.802205714285712h15.857142857142856L21.857142857142858 1.7142857142857142ZM17.142857142857142 28.18693714285714c-1.1834742857142857 0 -2.142857142857143 0.9593828571428571 -2.142857142857143 2.142857142857143s0.9593828571428571 2.142857142857143 2.142857142857143 2.142857142857143h13.714285714285714c1.1834742857142857 0 2.142857142857143 -0.9593828571428571 2.142857142857143 -2.142857142857143s-0.9593828571428571 -2.142857142857143 -2.142857142857143 -2.142857142857143H17.142857142857142Z" clip-rule="evenodd" stroke-width="3.4286"></path>
  </g>
</svg>