<svg xmlns="http://www.w3.org/2000/svg" fill="none" viewBox="0 0 48 48" id="Shipment-Check--Streamline-Core-Remix" height="48" width="48">
  <desc>
    Shipment Check Streamline Icon: https://streamlinehq.com
  </desc>
  <g id="Free Remix/Shipping/shipment-check--shipping-parcel-shipment-check-approved">
    <path id="Union" fill="#000000" fill-rule="evenodd" d="M21.857142857142858 1.0559417142857142H11.59776c-1.9870285714285714 0 -3.7962857142857143 1.1446697142857143 -4.647325714285714 2.940229714285714L1.8794742857142857 14.695371428571429c-0.1331382857142857 0.2809028571428571 -0.1852525714285714 0.58752 -0.1583142857142857 0.8875542857142856C1.7166068571428572 15.639942857142858 1.7142857142857142 15.69761142857143 1.7142857142857142 15.75582857142857v24.563828571428573c0 1.4077714285714287 0.5591999999999999 2.7576 1.5545862857142856 3.7532571428571426 0.9953794285714285 0.9953142857142857 2.3454137142857143 1.5545142857142857 3.7531165714285715 1.5545142857142857h33.955954285714284c1.4077714285714287 0 2.757942857142857 -0.5591999999999999 3.7532571428571426 -1.5545142857142857 0.9953142857142857 -0.9956571428571428 1.5545142857142857 -2.345485714285714 1.5545142857142857 -3.7532571428571426V15.75582857142857c0 -0.05818285714285713 -0.0024 -0.11585142857142856 -0.006857142857142857 -0.17286857142857143 0.027085714285714286 -0.3000685714285714 -0.025028571428571428 -0.6066857142857143 -0.15839999999999999 -0.8875885714285714l-5.070857142857143 -10.6992c-0.8509714285714285 -1.7955599999999998 -2.6602285714285716 -2.940229714285714 -4.647428571428571 -2.940229714285714H26.142857142857142l0 16.08790971428571h15.857142857142856v23.175805714285715c0 0.2712 -0.10765714285714284 0.5310857142857143 -0.2993142857142857 0.722742857142857 -0.19165714285714283 0.19165714285714283 -0.45154285714285713 0.2993142857142857 -0.722742857142857 0.2993142857142857H7.0219885714285715c-0.27106285714285716 0 -0.5310171428571427 -0.10765714285714284 -0.7226742857142856 -0.2993142857142857 -0.19165714285714283 -0.19165714285714283 -0.2993142857142857 -0.45154285714285713 -0.2993142857142857 -0.722742857142857V17.143851428571427h15.857142857142856l0 -16.08790971428571ZM33.42932571428572 25.28472c0.7095085714285715 -0.9471771428571428 0.5168571428571428 -2.2902171428571427 -0.43032000000000004 -2.9997599999999998 -0.9471771428571428 -0.7095085714285715 -2.2902171428571427 -0.5168571428571428 -2.9997599999999998 0.43032000000000004L22.031314285714284 33.35208l-4.46088 -3.3415885714285714c-0.9471771428571428 -0.7095428571428571 -2.2902171428571427 -0.5168914285714286 -2.9997599999999998 0.43032000000000004 -0.7095085714285715 0.9471771428571428 -0.5168571428571428 2.2902171428571427 0.43032000000000004 2.9997257142857143L21.176914285714282 38.066742857142856c0.45486857142857146 0.3408 1.0264457142857142 0.48685714285714277 1.5890057142857141 0.40628571428571425 0.56256 -0.08057142857142857 1.070022857142857 -0.38159999999999994 1.4107542857142856 -0.8365714285714285l9.252651428571427 -12.351737142857143Z" clip-rule="evenodd" stroke-width="3.4286"></path>
  </g>
</svg>