<svg xmlns="http://www.w3.org/2000/svg" fill="none" viewBox="0 0 48 48" id="Shopping-Cart-3--Streamline-Core-Remix" height="48" width="48">
  <desc>
    Shopping Cart 3 Streamline Icon: https://streamlinehq.com
  </desc>
  <g id="Free Remix/Money Shopping/shopping-cart-3--shopping-cart-checkout">
    <path id="Union" fill="#000000" fill-rule="evenodd" d="M2.142857142857143 0C0.9593897142857143 0 0 0.9593897142857143 0 2.142857142857143s0.9593897142857143 2.142857142857143 2.142857142857143 2.142857142857143h6.234205714285714l0.702 6.653417142857142 2.208342857142857 20.930331428571428c0.2995542857142857 2.8393371428571426 2.6976 4.987679999999999 5.548731428571428 4.987679999999999h21.287177142857143c2.5566857142857145 0 4.7904 -1.7362285714285712 5.412342857142857 -4.219028571428571l4.295657142857142 -17.142857142857142C48.714171428571426 11.972262857142855 46.042628571428565 8.571428571428571 42.418971428571425 8.571428571428571H13.138765714285713L12.436765714285714 1.9180148571428568C12.321702857142856 0.8276399999999999 11.402159999999999 0 10.305737142857142 0H2.142857142857143Zm13.406605714285714 31.419805714285715L13.590925714285714 12.857142857142856h28.82804571428571c0.8475428571428572 0 1.4567999999999999 0.7915542857142857 1.2551999999999999 1.5964114285714284l-4.295657142857142 17.142857142857142c-0.1426285714285714 0.5698971428571429 -0.6582857142857143 0.9750171428571429 -1.2551999999999999 0.9750171428571429H16.836137142857144c-0.6662742857142857 0 -1.2180342857142856 -0.5010171428571428 -1.2866742857142857 -1.151622857142857ZM22.928571428571427 16.71428571428571c1.4201485714285715 0 2.571428571428571 1.1512799999999999 2.571428571428571 2.571428571428571v6.857142857142857c0 1.4201485714285715 -1.1512799999999999 2.571428571428571 -2.571428571428571 2.571428571428571s-2.571428571428571 -1.1512799999999999 -2.571428571428571 -2.571428571428571v-6.857142857142857c0 -1.4201485714285715 1.1512799999999999 -2.571428571428571 2.571428571428571 -2.571428571428571Zm10.285714285714285 0c1.4201142857142857 0 2.571428571428571 1.1512799999999999 2.571428571428571 2.571428571428571v6.857142857142857c0 1.4201485714285715 -1.1513142857142855 2.571428571428571 -2.571428571428571 2.571428571428571 -1.4201485714285715 0 -2.571428571428571 -1.1512799999999999 -2.571428571428571 -2.571428571428571v-6.857142857142857c0 -1.4201485714285715 1.1512799999999999 -2.571428571428571 2.571428571428571 -2.571428571428571Zm8.172 27.428571428571427c0 -2.1301714285714284 -1.7266285714285714 -3.8571428571428568 -3.8571428571428568 -3.8571428571428568 -2.1301714285714284 0 -3.857005714285714 1.7269714285714286 -3.857005714285714 3.8571428571428568S35.39897142857143 48 37.52914285714285 48c2.1305142857142854 0 3.8571428571428568 -1.7269714285714286 3.8571428571428568 -3.8571428571428568ZM15.243565714285713 40.285714285714285c2.1302742857142856 0 3.8571428571428568 1.7269714285714286 3.8571428571428568 3.8571428571428568S17.37384 48 15.243565714285713 48c-2.1302399999999997 0 -3.8571428571428568 -1.7269714285714286 -3.8571428571428568 -3.8571428571428568s1.726902857142857 -3.8571428571428568 3.8571428571428568 -3.8571428571428568Z" clip-rule="evenodd" stroke-width="3.4286"></path>
  </g>
</svg>