<svg xmlns="http://www.w3.org/2000/svg" fill="none" viewBox="0 0 48 48" id="Shopping-Basket-1--Streamline-Core-Remix" height="48" width="48">
  <desc>
    Shopping Basket 1 Streamline Icon: https://streamlinehq.com
  </desc>
  <g id="Free Remix/Money Shopping/shopping-basket-1--shopping-basket">
    <path id="Union" fill="#000000" fill-rule="evenodd" d="M28.285714285714285 1.7142857142857142h-8.571428571428571c-2.3410971428571425 0 -4.411268571428572 1.405128 -5.394274285714285 3.4066971428571424 -2.183005714285714 0.5372914285714285 -4.171542857142857 1.6936114285714285 -5.721634285714285 3.3380914285714285 -1.7408571428571429 1.8468342857142857 -2.8345028571428568 4.209325714285714 -3.1161942857142853 6.731657142857142l-0.00041142857142857143 0.0035314285714285716 -0.18654857142857142 1.696182857142857C2.5961211428571427 17.61264 1.0113359999999998 20.427462857142856 1.3294114285714285 22.997657142857143l2.361342857142857 18.853885714285713c0.32687999999999995 2.632457142857143 2.6106514285714284 4.871657142857143 5.361908571428571 4.862742857142856h29.88596571428571c2.7589714285714284 0.018514285714285716 5.0424 -2.2244571428571427 5.369828571428571 -4.862742857142856l2.3615999999999997 -18.857005714285712c0.31817142857142855 -2.5698514285714285 -1.2665142857142857 -5.381965714285713 -3.9648000000000003 -6.103954285714285l-0.18617142857142857 -1.6905942857142855c-0.2657142857142857 -2.535017142857143 -1.3512 -4.914137142857142 -3.0922285714285715 -6.776091428571428 -1.5617142857142856 -1.6704685714285712 -3.574285714285714 -2.842697142857143 -5.785234285714285 -3.380468571428571C32.64462857142857 3.0838011428571424 30.599520000000002 1.7142857142857142 28.285714285714285 1.7142857142857142Zm5.661017142857142 7.948834285714286C33.11317714285715 11.997805714285713 30.84428571428571 13.714285714285714 28.285714285714285 13.714285714285714h-8.571428571428571c-2.566765714285714 0 -4.80288 -1.6853485714285714 -5.64432 -3.9920571428571425 -0.8811428571428571 0.39689142857142856 -1.6818514285714283 0.9645257142857143 -2.35296 1.676502857142857 -1.1033142857142855 1.1704457142857143 -1.7965371428571426 2.6675999999999997 -1.9754057142857142 4.266068571428571l-0.00017142857142857143 0.001577142857142857 -0.11526857142857141 1.0478742857142858 28.74812571428571 0.00020571428571428572 -0.11588571428571427 -1.0516457142857143 -0.0013714285714285714 -0.012137142857142857c-0.16765714285714284 -1.6086171428571427 -0.8561142857142857 -3.1184571428571424 -1.9604571428571427 -4.29984 -0.6692571428571429 -0.7157485714285714 -1.469142857142857 -1.2871885714285713 -2.34984 -1.6877142857142857ZM7.275017142857142 20.999862857142855c-0.025097142857142856 0.00041142857142857143 -0.05022857142857143 0.00041142857142857143 -0.07546285714285714 0l-0.5278971428571428 -0.00003428571428571428c-0.2765142857142857 -0.0024685714285714285 -0.5497028571428572 0.11996571428571429 -0.777462857142857 0.40368 -0.24017142857142856 0.2991428571428571 -0.35674285714285714 0.6994971428571428 -0.3118971428571428 1.0646742857142855l2.361771428571428 18.85741714285714c0.08376 0.6771428571428572 0.6945942857142856 1.1063999999999998 1.0893257142857142 1.1029714285714285l0.019268571428571427 0 29.91305142857143 0c0.39497142857142853 0.0034285714285714284 1.005942857142857 -0.42925714285714284 1.089942857142857 -1.1063999999999998l2.3615999999999997 -18.856011428571428c0.04457142857142857 -0.36493714285714285 -0.07234285714285714 -0.7637142857142857 -0.31234285714285714 -1.0626514285714286 -0.22114285714285714 -0.27576 -0.4854857142857143 -0.3991542857142857 -0.7539428571428571 -0.4035771428571428h-0.04594285714285714l-0.5142857142857142 0h-0.05554285714285714l-33.460182857142854 -0.00006857142857142857ZM14.571428571428571 25.71428571428571c1.4201485714285715 0 2.571428571428571 1.1512799999999999 2.571428571428571 2.571428571428571v6.857142857142857c0 1.4201142857142857 -1.1512799999999999 2.571428571428571 -2.571428571428571 2.571428571428571s-2.571428571428571 -1.1513142857142855 -2.571428571428571 -2.571428571428571v-6.857142857142857c0 -1.4201485714285715 1.1512799999999999 -2.571428571428571 2.571428571428571 -2.571428571428571Zm12 2.571428571428571c0 -1.4201485714285715 -1.1512799999999999 -2.571428571428571 -2.571428571428571 -2.571428571428571s-2.571428571428571 1.1512799999999999 -2.571428571428571 2.571428571428571v6.857142857142857c0 1.4201142857142857 1.1512799999999999 2.571428571428571 2.571428571428571 2.571428571428571s2.571428571428571 -1.1513142857142855 2.571428571428571 -2.571428571428571v-6.857142857142857Zm6.857142857142857 -2.571428571428571c1.4201142857142857 0 2.571428571428571 1.1512799999999999 2.571428571428571 2.571428571428571v6.857142857142857c0 1.4201142857142857 -1.1513142857142855 2.571428571428571 -2.571428571428571 2.571428571428571 -1.4201485714285715 0 -2.571428571428571 -1.1513142857142855 -2.571428571428571 -2.571428571428571v-6.857142857142857c0 -1.4201485714285715 1.1512799999999999 -2.571428571428571 2.571428571428571 -2.571428571428571Z" clip-rule="evenodd" stroke-width="3.4286"></path>
  </g>
</svg>