<svg xmlns="http://www.w3.org/2000/svg" fill="none" viewBox="0 0 48 48" id="Shopping-Cart-2--Streamline-Core-Remix" height="48" width="48">
  <desc>
    Shopping Cart 2 Streamline Icon: https://streamlinehq.com
  </desc>
  <g id="Free Remix/Money Shopping/shopping-cart-2--shopping-cart-checkout">
    <path id="Union" fill="#000000" fill-rule="evenodd" d="M13.065702857142856 32.97089142857143 6.834994285714286 4.285714285714286H2.1495531428571426C0.9660857142857142 4.285714285714286 0.0066964114285714285 3.326324571428571 0.0066964114285714285 2.142857142857143S0.9660857142857142 1.337142857143e-8 2.1495531428571426 1.337142857143e-8H7.1724000000000006C8.935234285714285 -0.00014916857142857143 10.570011428571428 1.250454857142857 10.947702857142858 3.029142857142857l0.7922742857142857 3.64752h32.40905142857143c2.192228571428571 0.007817142857142856 4.276114285714286 1.94736 3.785142857142857 4.51488l-2.8127999999999997 13.360182857142856c-0.4906285714285714 2.329645714285714 -2.733942857142857 3.0389142857142852 -3.794742857142857 3.1023771428571427H16.29648l0.8819314285714286 4.060217142857142H37.72114285714286c1.1832 0 2.142857142857143 0.9593828571428571 2.142857142857143 2.142857142857143 0 1.1835085714285714 -0.9596571428571428 2.1428228571428574 -2.142857142857143 2.1428228571428574H16.84097142857143c-1.7628342857142854 0 -3.3975771428571426 -1.2504 -3.7752685714285716 -3.029108571428571Zm2.299885714285714 -9.602502857142857h25.625382857142856l2.5817142857142854 -12.406011428571428H12.67086857142857l2.69472 12.406011428571428ZM36.00685714285714 40.285714285714285c2.1301714285714284 0 3.8571428571428568 1.7269714285714286 3.8571428571428568 3.8571428571428568S38.13702857142857 48 36.00685714285714 48c-2.130411428571428 0 -3.8573142857142857 -1.7269714285714286 -3.8573142857142857 -3.8571428571428568s1.726902857142857 -3.8571428571428568 3.8573142857142857 -3.8571428571428568Zm-13.285885714285714 3.8571428571428568c0 -2.1301714285714284 -1.726902857142857 -3.8571428571428568 -3.8571428571428568 -3.8571428571428568s-3.8571428571428568 1.7269714285714286 -3.8571428571428568 3.8571428571428568S16.73358857142857 48 18.86382857142857 48s3.8571428571428568 -1.7269714285714286 3.8571428571428568 -3.8571428571428568Z" clip-rule="evenodd" stroke-width="3.4286"></path>
  </g>
</svg>