<svg xmlns="http://www.w3.org/2000/svg" fill="none" viewBox="0 0 48 48" id="Shopping-Basket-2--Streamline-Core-Remix" height="48" width="48">
  <desc>
    Shopping Basket 2 Streamline Icon: https://streamlinehq.com
  </desc>
  <g id="Free Remix/Money Shopping/shopping-basket-2--shopping-basket">
    <path id="Union" fill="#000000" fill-rule="evenodd" d="M29.109874285714284 6.630857142857142c-0.8220342857142857 -1.4385599999999998 -0.3222514285714286 -3.271128 1.1163085714285714 -4.093158857142857 1.4385599999999998 -0.8220274285714285 3.2711314285714286 -0.3222377142857143 4.093131428571428 1.1163017142857141l6.483085714285714 11.345657142857142h1.7036571428571428c0.8194285714285714 -0.013405714285714286 1.6285714285714283 0.16518857142857143 2.3664 0.5186399999999999 0.7453714285714286 0.35688 1.3950857142857143 0.8807314285714285 1.9062857142857144 1.525062857142857 0.5112 0.6439885714285714 0.8722285714285715 1.3933371428571426 1.063542857142857 2.1906171428571426 0.1906285714285714 0.7955657142857142 0.20879999999999999 1.624422857142857 0.05314285714285714 2.427462857142857l-0.0010285714285714284 0.004697142857142856 -3.5900571428571424 18.848605714285714 -0.0013714285714285714 0.007542857142857143c-0.24342857142857138 1.253485714285714 -0.9013714285714286 2.398628571428571 -1.8850285714285713 3.224571428571428 -0.9795428571428572 0.8228571428571427 -2.217942857142857 1.2737142857142856 -3.5036571428571426 1.2528H9.085268571428571c-1.2855771428571428 0.020914285714285715 -2.5241485714285714 -0.4299428571428572 -3.503588571428571 -1.2528 -0.9834857142857142 -0.8259428571428571 -1.6414971428571428 -1.971085714285714 -1.8848914285714287 -3.224571428571428l-0.0014399999999999999 -0.007542857142857143L0.10524308571428571 21.666137142857142l-0.0008958857142857143 -0.004628571428571429c-0.15559371428571428 -0.80304 -0.1375840114285714 -1.6319314285714286 0.053130171428571425 -2.4275314285714287 0.19111234285714285 -0.79728 0.5522780571428572 -1.5466285714285712 1.0633649142857142 -2.1906171428571426 0.5113714285714286 -0.6443314285714286 1.1611714285714285 -1.1681828571428572 1.906381714285714 -1.525062857142857 0.737976 -0.3534514285714286 1.546776 -0.5320457142857143 2.3664102857142857 -0.5186399999999999h1.7037942857142856l6.483222857142857 -11.345657142857142c0.8220342857142857 -1.4385394285714286 2.654605714285714 -1.9383291428571428 4.093165714285714 -1.1163017142857141 1.4385599999999998 0.8220308571428571 1.9383428571428571 2.654598857142857 1.1163085714285714 4.093158857142857l-4.782171428571428 8.3688h19.78409142857143L29.109874285714284 6.630857142857142Zm13.461668571428572 12.654034285714285c0.15085714285714283 -0.0032228571428571428 0.3041142857142857 0.028971428571428568 0.44982857142857147 0.09870857142857142 0.14605714285714286 0.06997714285714286 0.2845714285714286 0.17808 0.40045714285714284 0.3239657142857143 0.11622857142857142 0.14622857142857143 0.20468571428571428 0.3251657142857142 0.2526857142857143 0.5254285714285714 0.048 0.2004342857142857 0.0528 0.41112 0.013028571428571428 0.6144685714285714l-0.0013714285714285714 0.0084 -3.5903999999999994 18.84973714285714 -0.0006857142857142857 0.002742857142857143c-0.0624 0.31748571428571426 -0.22457142857142856 0.5814857142857143 -0.4337142857142857 0.7570285714285714 -0.2070857142857143 0.17417142857142856 -0.4487999999999999 0.2540571428571428 -0.6819428571428571 0.2489142857142857l-0.04525714285714286 -0.0006857142857142857v0.00034285714285714285H9.020194285714284l0 0.00034285714285714285c-0.23297142857142855 0.005142857142857143 -0.47465142857142856 -0.07474285714285714 -0.6819085714285714 -0.2489142857142857 -0.20917714285714284 -0.17554285714285714 -0.37148571428571425 -0.4395428571428571 -0.43381714285714285 -0.7570285714285714l-0.0005485714285714285 -0.002742857142857143 -3.590262857142857 -18.84973714285714 -0.0016114285714285714 -0.0084c-0.03956571428571428 -0.20334857142857143 -0.03497142857142857 -0.4140342857142857 0.013062857142857142 -0.6144685714285714 0.04803428571428571 -0.20026285714285713 0.13666285714285714 -0.3792 0.25272 -0.5254285714285714 0.11578285714285715 -0.14588571428571426 0.25443428571428567 -0.2539885714285714 0.40052571428571426 -0.3239657142857143 0.14561142857142856 -0.06973714285714286 0.29893714285714285 -0.10193142857142856 0.4499314285714286 -0.09870857142857142l0.04556571428571428 0.0009599999999999999V19.285371428571427H42.57154285714286l0 -0.00047999999999999996Z" clip-rule="evenodd" stroke-width="3.4286"></path>
  </g>
</svg>