<svg xmlns="http://www.w3.org/2000/svg" fill="none" viewBox="0 0 48 48" id="Shopping-Bag-Hand-Bag-2--Streamline-Core-Remix" height="48" width="48">
  <desc>
    Shopping Bag Hand Bag 2 Streamline Icon: https://streamlinehq.com
  </desc>
  <g id="Free Remix/Money Shopping/shopping-bag-hand-bag-2--shopping-bag-purse-goods-item-products">
    <path id="Union" fill="#000000" fill-rule="evenodd" d="M24 6c1.477645714285714 0 2.894742857142857 0.5869714285714285 3.9395999999999995 1.6318285714285712 1.044857142857143 1.044857142857143 1.6318285714285712 2.4619542857142855 1.6318285714285712 3.9395999999999995V13.714285714285714h-11.142857142857142v-2.142857142857143c0 -1.477645714285714 0.5869714285714285 -2.894742857142857 1.6318285714285712 -3.9395999999999995C21.105257142857145 6.586971428571428 22.522354285714286 6 24 6Zm0 12h15.362742857142857l4.314857142857142 23.143542857142858c0.024342857142857142 0.13131428571428572 0.03668571428571428 0.2646857142857143 0.03668571428571428 0.39805714285714283 0 1.2 -0.9726857142857143 2.172685714285714 -2.172685714285714 2.172685714285714H6.458297142857142c-1.1998971428571428 0 -2.172582857142857 -0.9726857142857143 -2.172582857142857 -2.172685714285714 0 -0.13337142857142856 0.012308571428571427 -0.2667428571428571 0.03678857142857143 -0.39805714285714283L8.637394285714285 18H24ZM24 48h17.5416C45.10868571428571 48 48 45.10868571428571 48 41.5416c0 -0.3970285714285714 -0.03668571428571428 -0.7933714285714285 -0.10937142857142856 -1.183542857142857l-4.6412571428571425 -24.89365714285714C43.060114285714285 14.449885714285713 42.17485714285714 13.714285714285714 41.14285714285714 13.714285714285714h-5.571428571428571v-2.142857142857143c0 -3.068948571428571 -1.2192 -6.012171428571428 -3.3891771428571427 -8.182234285714285C30.012171428571428 1.2191279999999998 27.06894857142857 0 24 0c-3.068948571428571 0 -6.012171428571428 1.2191279999999998 -8.182251428571428 3.389194285714286C13.647702857142855 5.559257142857143 12.428571428571427 8.50248 12.428571428571427 11.571428571428571V13.714285714285714H6.857142857142857c-1.0319999999999998 0 -1.9173942857142854 0.7355999999999999 -2.106548571428571 1.7501142857142855L0.1094022857142857 40.35805714285714C0.03662125714285714 40.74822857142857 0 41.14457142857143 0 41.5416 0 45.10868571428571 2.891478857142857 48 6.458297142857142 48H24Z" clip-rule="evenodd" stroke-width="3.4286"></path>
  </g>
</svg>