<svg xmlns="http://www.w3.org/2000/svg" fill="none" viewBox="0 0 48 48" id="Shovel-Rake--Streamline-Core-Remix" height="48" width="48">
  <desc>
    Shovel Rake Streamline Icon: https://streamlinehq.com
  </desc>
  <g id="Free Remix/Nature Ecology/shovel-rake--nature-crops-plants">
    <path id="Union" fill="#000000" fill-rule="evenodd" d="M13.285714285714285 1.2857142857142856C8.277119999999998 1.2857142857142856 3.9648000000000003 4.820982857142857 2.9825314285714284 9.73230857142857L0.9896297142857142 19.6968C0.9015188571428571 20.137371428571427 0.8571428571428571 20.58552 0.8571428571428571 21.0348c0 3.7678628571428567 3.05448 6.822342857142856 6.822342857142856 6.822342857142856H11.142857142857142v12.857142857142856h-3c-1.6568571428571428 0 -3 1.3433142857142857 -3 3s1.343142857142857 3 3 3h10.285714285714285c1.6568571428571428 0 3 -1.3433142857142857 3 -3s-1.343142857142857 -3 -3 -3H15.428571428571427v-12.857142857142856h3.4633714285714285C22.659805714285714 27.857142857142854 25.71428571428571 24.802662857142856 25.71428571428571 21.0348c0 -0.44927999999999996 -0.044365714285714286 -0.8974285714285714 -0.13248 -1.3379999999999999L23.58891428571428 9.73230857142857C22.606628571428573 4.820982857142857 18.29430857142857 1.2857142857142856 13.285714285714285 1.2857142857142856Zm2.142857142857143 22.285714285714285h3.4633714285714285c1.4009485714285712 0 2.5366285714285715 -1.1356799999999998 2.5366285714285715 -2.5366285714285715 0 -0.16704 -0.01649142857142857 -0.33370285714285713 -0.049268571428571425 -0.4974857142857143l2.1012685714285713 -0.42023999999999995 -2.1012685714285713 0.42023999999999995 -1.9928914285714285 -9.964525714285713C18.80478857142857 7.66470857142857 16.251394285714284 5.571428571428571 13.285714285714285 5.571428571428571c-2.96568 0 -5.519074285714286 2.0932799999999996 -6.100697142857142 5.00136l-1.9928914285714285 9.964525714285713c-0.03277714285714286 0.16378285714285715 -0.049268571428571425 0.33044571428571423 -0.049268571428571425 0.4974857142857143 0 1.4009485714285712 1.1356799999999998 2.5366285714285715 2.5366285714285715 2.5366285714285715H11.142857142857142V18.857142857142858c0 -1.1834742857142857 0.9593828571428571 -2.142857142857143 2.142857142857143 -2.142857142857143s2.142857142857143 0.9593828571428571 2.142857142857143 2.142857142857143v4.714285714285714Zm26.142857142857142 -16.285714285714285h-3v18.214319999999997c4.890514285714285 0.992742857142857 8.571428571428571 5.316479999999999 8.571428571428571 10.499965714285713V44.57142857142857c0 1.183542857142857 -0.9593142857142857 2.142857142857143 -2.142857142857143 2.142857142857143S42.857142857142854 45.75497142857142 42.857142857142854 44.57142857142857v-8.571428571428571c0 -2.799051428571428 -1.7890285714285714 -5.180262857142857 -4.285714285714286 -6.062777142857143V44.57142857142857c0 1.183542857142857 -0.9593142857142857 2.142857142857143 -2.142857142857143 2.142857142857143S34.285714285714285 45.75497142857142 34.285714285714285 44.57142857142857V29.937222857142856c-2.496822857142857 0.8825142857142857 -4.285714285714286 3.263725714285714 -4.285714285714286 6.062777142857143V44.57142857142857c0 1.183542857142857 -0.9593828571428571 2.142857142857143 -2.142857142857143 2.142857142857143S25.71428571428571 45.75497142857142 25.71428571428571 44.57142857142857v-8.571428571428571c0 -5.183485714285713 3.680914285714286 -9.507222857142857 8.571428571428571 -10.499965714285713V7.285714285714286h-3c-1.6568571428571428 0 -3 -1.343142857142857 -3 -3 0 -1.656853714285714 1.343142857142857 -3 3 -3h10.285714285714285c1.6566857142857143 0 3 1.3431462857142857 3 3 0 1.6568571428571428 -1.3433142857142857 3 -3 3Z" clip-rule="evenodd" stroke-width="3.4286"></path>
  </g>
</svg>