<svg xmlns="http://www.w3.org/2000/svg" fill="none" viewBox="0 0 48 48" id="Shredder--Streamline-Core-Remix" height="48" width="48">
  <desc>
    Shredder Streamline Icon: https://streamlinehq.com
  </desc>
  <g id="Free Remix/Computer Devices/shredder--device-electronics-shred-paper-cut-destroy-remove-delete">
    <path id="Union" fill="#000000" fill-rule="evenodd" d="M12 1.2857142857142856c-1.1834742857142857 0 -2.142857142857143 0.9593897142857143 -2.142857142857143 2.142857142857143v13.285714285714285H6.857142857142857c-1.477645714285714 0 -2.894742857142857 0.5870057142857142 -3.939596571428571 1.6318285714285712C1.8727028571428572 19.39097142857143 1.2857142857142856 20.80806857142857 1.2857142857142856 22.285714285714285v10.285714285714285c0 1.477645714285714 0.5869885714285714 2.894742857142857 1.631832 3.9394285714285715 1.0448537142857142 1.0450285714285714 2.461950857142857 1.632 3.939596571428571 1.632h1.7142857142857142c1.1834742857142857 0 2.142857142857143 -0.9593142857142857 2.142857142857143 -2.142857142857143V32.14285714285714C10.714285714285714 29.539234285714286 12.824948571428571 27.428571428571427 15.428571428571427 27.428571428571427h17.142857142857142c2.6036571428571427 0 4.714285714285714 2.110662857142857 4.714285714285714 4.714285714285714V36c0 1.183542857142857 0.9593142857142857 2.142857142857143 2.142857142857143 2.142857142857143h1.7142857142857142c1.4777142857142855 0 2.894742857142857 -0.5869714285714285 3.9394285714285715 -1.632 1.0450285714285714 -1.0446857142857142 1.632 -2.461782857142857 1.632 -3.9394285714285715v-10.285714285714285c0 -1.477645714285714 -0.5869714285714285 -2.894742857142857 -1.632 -3.9395999999999995 -1.0446857142857142 -1.044822857142857 -2.4617142857142853 -1.6318285714285712 -3.9394285714285715 -1.6318285714285712h-3V10.285714285714285c0 -0.5683199999999999 -0.22559999999999997 -1.11336 -0.6277714285714285 -1.515222857142857L30.65808 1.9133417142857143C30.256217142857142 1.511478857142857 29.711177142857142 1.2857142857142856 29.142857142857142 1.2857142857142856h-17.142857142857142Zm21.857142857142858 15.428571428571427V11.173302857142856L28.255268571428573 5.571428571428571H14.142857142857142v11.142857142857142h19.71428571428571Zm-15.428571428571427 16.285714285714285c0 -1.1834742857142857 -0.9593828571428571 -2.142857142857143 -2.142857142857143 -2.142857142857143s-2.142857142857143 0.9593828571428571 -2.142857142857143 2.142857142857143v5.571428571428571c0 0.7957714285714286 -0.31607999999999997 1.5586285714285713 -0.8786742857142857 2.121257142857143 -0.5626285714285714 0.5626285714285714 -1.3256914285714285 0.878742857142857 -2.1213257142857143 0.878742857142857 -1.1834742857142857 0 -2.142857142857143 0.9593142857142857 -2.142857142857143 2.142857142857143s0.9593828571428571 2.142857142857143 2.142857142857143 2.142857142857143c1.9322742857142856 0 3.7854514285714282 -0.7676571428571428 5.151771428571428 -2.133942857142857 1.3663542857142856 -1.3662857142857143 2.133942857142857 -3.219428571428571 2.133942857142857 -5.151771428571428V33ZM24 30.857142857142854c1.1834742857142857 0 2.142857142857143 0.9593828571428571 2.142857142857143 2.142857142857143v12.428571428571427c0 1.183542857142857 -0.9593828571428571 2.142857142857143 -2.142857142857143 2.142857142857143s-2.142857142857143 -0.9593142857142857 -2.142857142857143 -2.142857142857143V33C21.857142857142858 31.816525714285717 22.816525714285714 30.857142857142854 24 30.857142857142854Zm9.857142857142856 2.142857142857143c0 -1.1834742857142857 -0.9593828571428571 -2.142857142857143 -2.142857142857143 -2.142857142857143s-2.142857142857143 0.9593828571428571 -2.142857142857143 2.142857142857143v5.571428571428571c0 1.932342857142857 0.7675885714285714 3.7854857142857146 2.133942857142857 5.151771428571428 1.3663199999999998 1.3662857142857143 3.219428571428571 2.133942857142857 5.151771428571428 2.133942857142857 1.183542857142857 0 2.142857142857143 -0.9593142857142857 2.142857142857143 -2.142857142857143s-0.9593142857142857 -2.142857142857143 -2.142857142857143 -2.142857142857143c-0.7957714285714286 0 -1.5586285714285713 -0.31611428571428574 -2.121257142857143 -0.878742857142857 -0.5626628571428571 -0.5626285714285714 -0.878742857142857 -1.3254857142857142 -0.878742857142857 -2.121257142857143V33Z" clip-rule="evenodd" stroke-width="3.4286"></path>
  </g>
</svg>