<svg xmlns="http://www.w3.org/2000/svg" fill="none" viewBox="0 0 48 48" id="Shrimp--Streamline-Core-Remix" height="48" width="48">
  <desc>
    Shrimp Streamline Icon: https://streamlinehq.com
  </desc>
  <g id="Free Remix/Food Drink/shrimp--sea-food-shrimp">
    <path id="Union" fill="#000000" fill-rule="evenodd" d="M6.857142857142857 4.285714285714286c-1.4201485714285715 0 -2.571428571428571 1.1512799999999999 -2.571428571428571 2.571428571428571s1.1512799999999999 2.571428571428571 2.571428571428571 2.571428571428571h21.81404571428571c0.030719999999999997 -0.0006514285714285715 0.06154285714285714 -0.0006171428571428571 0.09236571428571427 0.00006857142857142857 6.635759999999999 0.01659428571428571 12.483874285714284 3.3845142857142854 15.941245714285715 8.500697142857142 0.0929142857142857 0.11338285714285715 0.1745142857142857 0.23677714285714282 0.2430857142857143 0.3687085714285714C46.87954285714285 21.302159999999997 48 24.877371428571426 48 28.71428571428571 48 39.36548571428571 39.36548571428571 48 28.71428571428571 48H19.571417142857143C16.81001142857143 48 14.571428571428571 45.76148571428571 14.571428571428571 43.00011428571428c0 -4.339542857142857 3.5177485714285717 -7.857257142857143 7.857154285714285 -7.857257142857143H22.71428571428571c3.34752 0 6.223268571428571 2.0201142857142855 7.474799999999999 4.9076571428571425 1.881325714285714 -0.6192 3.239485714285714 -2.3904 3.239485714285714 -4.479085714285714 0 -2.5908342857142856 -2.089954285714285 -4.693508571428572 -4.675885714285713 -4.714148571428571L28.67118857142857 30.857142857142854H23.57142857142857C14.81376 30.857142857142854 7.7142857142857135 23.757668571428567 7.7142857142857135 15V13.714285714285714H6.857142857142857C3.0700491428571426 13.714285714285714 0 10.644239999999998 0 6.857142857142857 0 3.0700491428571426 3.0700491428571426 0 6.857142857142857 0h15.428571428571427c1.1834742857142857 0 2.142857142857143 0.9593897142857143 2.142857142857143 2.142857142857143s-0.9593828571428571 2.142857142857143 -2.142857142857143 2.142857142857143H6.857142857142857Zm34.1136 15.779108571428571c-1.840457142857143 -2.6036228571428572 -4.490057142857143 -4.594868571428571 -7.582525714285714 -5.608011428571428C33.92509714285714 15.939428571428572 34.285714285714285 17.808102857142856 34.285714285714285 20.142857142857142c0 3.298628571428571 -0.7198285714285714 5.666914285714285 -1.6396114285714285 7.330559999999999 1.2419657142857143 0.6041485714285714 2.3242971428571426 1.4856 3.1660114285714283 2.563817142857143 1.5541714285714283 -0.93408 2.8296 -2.1034285714285716 3.7224000000000004 -3.504788571428571 1.0573714285714286 -1.659805714285714 1.6590857142857143 -3.768754285714286 1.4362285714285714 -6.467622857142857Zm-3.3983999999999996 13.90614857142857c2.2021714285714284 -1.2428914285714285 4.170171428571428 -2.928377142857143 5.5765714285714285 -5.135759999999999 0.19337142857142856 -0.30325714285714284 0.3747428571428571 -0.6145028571428571 0.5437714285714285 -0.9336685714285714 0.014399999999999998 0.2691085714285714 0.021599999999999998 0.5400685714285713 0.021599999999999998 0.8127428571428571 0 6.320914285714285 -3.9096 11.728457142857142 -9.44256 13.936799999999998C36.36788571428571 41.00331428571429 37.714285714285715 38.44457142857142 37.714285714285715 35.57142857142857c0 -0.5461714285714285 -0.048685714285714284 -1.0810285714285714 -0.14194285714285712 -1.6004571428571428ZM12 13.714285714285714h16.015097142857144c0.17101714285714284 0.1612457142857143 0.3950742857142857 0.40693714285714283 0.6305142857142857 0.76008 0.5971542857142856 0.8957142857142856 1.3543885714285713 2.614902857142857 1.3543885714285713 5.6684914285714285s-0.7572342857142856 4.772777142857143 -1.3543885714285713 5.6684914285714285c-0.23543999999999998 0.3531428571428571 -0.4594971428571428 0.5988342857142858 -0.6305142857142857 0.76008H23.57142857142857C17.18070857142857 26.57142857142857 12 21.390719999999998 12 15V13.714285714285714Zm9 8.571428571428571c-1.6568571428571428 0 -3 -1.343142857142857 -3 -3s1.343142857142857 -3 3 -3 3 1.343142857142857 3 3 -1.343142857142857 3 -3 3Z" clip-rule="evenodd" stroke-width="3.4286"></path>
  </g>
</svg>