<svg xmlns="http://www.w3.org/2000/svg" fill="none" viewBox="0 0 48 48" id="Shuffle--Streamline-Core-Remix" height="48" width="48">
  <desc>
    Shuffle Streamline Icon: https://streamlinehq.com
  </desc>
  <g id="Free Remix/Interface Essential/shuffle--multimedia-shuffle-multi-button-controls-media">
    <path id="Union" fill="#000000" fill-rule="evenodd" d="M38.772685714285714 3.559097142857143c0.6404571428571428 -0.26532342857142854 1.377942857142857 -0.11866285714285714 1.8682285714285716 0.37162285714285714l6.857142857142857 6.857142857142857c0.6692571428571429 0.669462857142857 0.6692571428571429 1.7549142857142856 0 2.424377142857143l-6.857142857142857 6.857142857142857c-0.4902857142857142 0.4902857142857142 -1.2277714285714285 0.63696 -1.8682285714285716 0.37158857142857143 -0.6408 -0.2653371428571428 -1.0583999999999998 -0.8903999999999999 -1.0583999999999998 -1.5837942857142857v-4.285714285714286H29.142857142857142c-1.4201485714285715 0 -2.571428571428571 -1.1512457142857142 -2.571428571428571 -2.571428571428571 0 -1.4201485714285715 1.1512799999999999 -2.571428571428571 2.571428571428571 -2.571428571428571H37.714285714285715v-4.285714285714286c0 -0.69336 0.41759999999999997 -1.3184228571428571 1.0583999999999998 -1.5837942857142857Zm1.8682285714285716 24.371622857142857c-0.4902857142857142 -0.4902857142857142 -1.2277714285714285 -0.63696 -1.8682285714285716 -0.37162285714285714 -0.6408 0.26537142857142854 -1.0583999999999998 0.8904342857142856 -1.0583999999999998 1.5837942857142857v4.285714285714286H28.920822857142856l-12.97392 -22.704342857142855c-0.45781714285714287 -0.8011885714285714 -1.3098514285714284 -1.2956571428571428 -2.232617142857143 -1.2956571428571428H2.571428571428571c-1.4201622857142857 0 -2.571428571428571 1.1512799999999999 -2.571428571428571 2.571428571428571 0 1.420182857142857 1.1512662857142855 2.571428571428571 2.571428571428571 2.571428571428571h9.650605714285714l12.97392 22.70430857142857c0.45781714285714287 0.8012571428571428 1.3098514285714284 1.2956571428571428 2.232617142857143 1.2956571428571428h10.285714285714285v4.285714285714286c0 0.6932571428571428 0.41759999999999997 1.3186285714285713 1.0583999999999998 1.584 0.6404571428571428 0.2650285714285714 1.377942857142857 0.11862857142857142 1.8682285714285716 -0.3716571428571428l6.857142857142857 -6.857142857142857c0.6692571428571429 -0.6696 0.6692571428571429 -1.7550857142857144 0 -2.424342857142857l-6.857142857142857 -6.857279999999999ZM2.571428571428571 33.42860571428571c-1.4201622857142857 0 -2.571428571428571 1.1512799999999999 -2.571428571428571 2.5713942857142857 0 1.4201142857142857 1.1512662857142855 2.571428571428571 2.571428571428571 2.571428571428571H13.714285714285714c1.4201485714285715 0 2.571428571428571 -1.1513142857142855 2.571428571428571 -2.571428571428571s-1.1512799999999999 -2.5713942857142857 -2.571428571428571 -2.5713942857142857H2.571428571428571Z" clip-rule="evenodd" stroke-width="3.4286"></path>
  </g>
</svg>