<svg xmlns="http://www.w3.org/2000/svg" fill="none" viewBox="0 0 48 48" id="Signal-Full--Streamline-Core-Remix" height="48" width="48">
  <desc>
    Signal Full Streamline Icon: https://streamlinehq.com
  </desc>
  <g id="Free Remix/Phone/signal-full--phone-mobile-device-signal-wireless-smartphone-iphone-bar-bars-full-android">
    <path id="Union" fill="#000000" fill-rule="evenodd" d="M30.857142857142854 1.2857142857142856c-1.1834742857142857 0 -2.142857142857143 0.9593897142857143 -2.142857142857143 2.142857142857143v9.857142857142856H17.142857142857142c-1.1834742857142857 0 -2.142857142857143 0.9593828571428571 -2.142857142857143 2.142857142857143v8.142857142857142H3.4285714285714284c-1.1834674285714284 0 -2.142857142857143 0.9593828571428571 -2.142857142857143 2.142857142857143V44.57142857142857c0 1.183542857142857 0.9593897142857143 2.142857142857143 2.142857142857143 2.142857142857143h41.14285714285714c1.183542857142857 0 2.142857142857143 -0.9593142857142857 2.142857142857143 -2.142857142857143V3.4285714285714284c0 -1.1834674285714284 -0.9593142857142857 -2.142857142857143 -2.142857142857143 -2.142857142857143H30.857142857142854Zm-2.142857142857143 41.14285714285714v-24.857142857142854h-9.428571428571429v24.857142857142854h9.428571428571429Zm4.285714285714286 0h9.428571428571429V5.571428571428571h-9.428571428571429v36.857142857142854Zm-18 -14.571428571428571v14.571428571428571h-9.428571428571429v-14.571428571428571h9.428571428571429Z" clip-rule="evenodd" stroke-width="3.4286"></path>
  </g>
</svg>