<svg xmlns="http://www.w3.org/2000/svg" fill="none" viewBox="0 0 48 48" id="Signage-3--Streamline-Core-Remix" height="48" width="48">
  <desc>
    Signage 3 Streamline Icon: https://streamlinehq.com
  </desc>
  <g id="Free Remix/Money Shopping/signage-3--street-sandwich-shops-shop-stores-board-sign-store">
    <path id="Union" fill="#000000" fill-rule="evenodd" d="M35.019085714285715 1.2857142857142856c1.3782857142857143 -0.028295999999999998 2.6393142857142857 0.9022799999999999 2.9753142857142856 2.2977257142857144l9.4944 39.42867428571429c0.3881142857142857 1.610742857142857 -0.6034285714285713 3.2310857142857143 -2.2141714285714285 3.618857142857143 -1.610742857142857 0.38777142857142854 -3.2310857142857143 -0.6034285714285713 -3.618857142857143 -2.2141714285714285l-1.9422857142857142 -8.066057142857142H29.678708571428572l-2.008285714285714 8.702399999999999c-0.22436571428571428 0.9723428571428572 -1.0901485714285715 1.661142857142857 -2.0879999999999996 1.661142857142857H3.4286057142857143c-0.65304 0 -1.2704262857142856 -0.2979428571428571 -1.6769691428571427 -0.8088 -0.4065428571428571 -0.5112 -0.5578662857142856 -1.1794285714285713 -0.41102742857142854 -1.8157714285714284L10.83510857142857 2.9467302857142856C11.059474285714286 1.9744491428571427 11.925257142857143 1.2857142857142856 12.923108571428571 1.2857142857142856h22.09597714285714Zm-0.4299428571428572 13.785874285714286L31.06330285714285 30.35070857142857h7.205382857142857l-3.679542857142857 -15.279119999999999ZM14.627759999999999 5.571428571428571l-8.505497142857143 36.857142857142854h17.755508571428567l8.505497142857143 -36.857142857142854H14.627759999999999Z" clip-rule="evenodd" stroke-width="3.4286"></path>
  </g>
</svg>