<svg xmlns="http://www.w3.org/2000/svg" fill="none" viewBox="0 0 48 48" id="Signal-None--Streamline-Core-Remix" height="48" width="48">
  <desc>
    Signal None Streamline Icon: https://streamlinehq.com
  </desc>
  <g id="Free Remix/Phone/signal-none--phone-mobile-device-signal-wireless-smartphone-iphone-bar-bars-no-zero-android">
    <path id="Union" fill="#000000" fill-rule="evenodd" d="M4.582045714285714 42.42857142857142c-1.1834811428571428 0 -2.142870857142857 0.9593142857142857 -2.142870857142857 2.142857142857143s0.9593897142857143 2.142857142857143 2.142870857142857 2.142857142857143h7.7142857142857135c1.1834399999999998 0 2.142857142857143 -0.9593142857142857 2.142857142857143 -2.142857142857143s-0.9594171428571429 -2.142857142857143 -2.142857142857143 -2.142857142857143h-7.7142857142857135ZM18 44.57142857142857c0 -1.183542857142857 0.9593828571428571 -2.142857142857143 2.142857142857143 -2.142857142857143h7.7142857142857135c1.1834742857142857 0 2.142857142857143 0.9593142857142857 2.142857142857143 2.142857142857143s-0.9593828571428571 2.142857142857143 -2.142857142857143 2.142857142857143h-7.7142857142857135c-1.1834742857142857 0 -2.142857142857143 -0.9593142857142857 -2.142857142857143 -2.142857142857143Zm15.560811428571428 0c0 -1.183542857142857 0.9594171428571429 -2.142857142857143 2.14296 -2.142857142857143h7.7142857142857135c1.183542857142857 0 2.142857142857143 0.9593142857142857 2.142857142857143 2.142857142857143s-0.9593142857142857 2.142857142857143 -2.142857142857143 2.142857142857143h-7.7142857142857135c-1.183542857142857 0 -2.14296 -0.9593142857142857 -2.14296 -2.142857142857143Z" clip-rule="evenodd" stroke-width="3.4286"></path>
  </g>
</svg>