<svg xmlns="http://www.w3.org/2000/svg" fill="none" viewBox="0 0 48 48" id="Signage-4--Streamline-Core-Remix" height="48" width="48">
  <desc>
    Signage 4 Streamline Icon: https://streamlinehq.com
  </desc>
  <g id="Free Remix/Money Shopping/signage-4--street-billboard-shops-shop-stores-board-sign-ads-banner">
    <path id="Union" fill="#000000" fill-rule="evenodd" d="M5.142857142857142 1.2857142857142856C3.012613714285714 1.2857142857142856 1.2857142857142856 3.0126171428571427 1.2857142857142856 5.142857142857142v25.75638857142857c0 2.1302399999999997 1.726902857142857 3.857211428571428 3.8571428571428568 3.857211428571428h5.070857142857143l0 9.814971428571427c0 1.6570285714285713 1.343142857142857 3 3 3s3 -1.3429714285714285 3 -3l0 -9.814971428571427h15.572571428571427V44.57142857142857c0 1.6570285714285713 1.343142857142857 3 3 3 1.6566857142857143 0 3 -1.3429714285714285 3 -3v-9.814971428571427H42.857142857142854c2.1301714285714284 0 3.8571428571428568 -1.7269714285714286 3.8571428571428568 -3.857211428571428V5.142857142857142c0 -2.1302434285714287 -1.7269714285714286 -3.8571428571428568 -3.8571428571428568 -3.8571428571428568h-37.714285714285715Zm0.42857142857142855 29.18496V5.571428571428571h4.571999999999999v2.0047542857142857c-1.1174057142857141 0.07296 -2.00112 1.0024114285714285 -2.00112 2.1382285714285714 0 1.1834742857142857 0.9593828571428571 2.142857142857143 2.142857142857143 2.142857142857143H14.285142857142857c1.1834742857142857 0 2.142857142857143 -0.9593828571428571 2.142857142857143 -2.142857142857143 0 -1.1350628571428572 -0.8825485714285715 -2.064034285714286 -1.9988571428571427 -2.1380914285714283V5.571428571428571h7.285714285714286v2.004788571428571c-1.1171314285714284 0.07323428571428571 -2.0005714285714284 1.0025485714285713 -2.0005714285714284 2.1381942857142855 0 1.1834742857142857 0.9593828571428571 2.142857142857143 2.142857142857143 2.142857142857143h4.000011428571429c1.1834399999999998 0 2.142857142857143 -0.9593828571428571 2.142857142857143 -2.142857142857143 0 -1.1352685714285715 -0.8828571428571428 -2.064342857142857 -1.9994399999999999 -2.138125714285714V5.571428571428571h7.570285714285714v2.004685714285714c-1.1163085714285714 0.07405714285714286 -1.9988571428571427 1.0030285714285714 -1.9988571428571427 2.1380914285714283 0 1.1834742857142857 0.9593828571428571 2.142857142857143 2.142857142857143 2.142857142857143h4.000114285714286c1.1832 0 2.142857142857143 -0.9593828571428571 2.142857142857143 -2.142857142857143 0 -1.1358171428571429 -0.8838857142857142 -2.0652685714285712 -2.001257142857143 -2.1382285714285714V5.571428571428571h4.571999999999999v24.899245714285712H5.571428571428571ZM26.57142857142857 23.571222857142853c0 -1.4201485714285715 1.1512799999999999 -2.571428571428571 2.571428571428571 -2.571428571428571h7.142742857142856c1.4201142857142857 0 2.571428571428571 1.1512799999999999 2.571428571428571 2.571428571428571s-1.1513142857142855 2.571428571428571 -2.571428571428571 2.571428571428571H29.142857142857142c-1.4201485714285715 0 -2.571428571428571 -1.1512799999999999 -2.571428571428571 -2.571428571428571Z" clip-rule="evenodd" stroke-width="3.4286"></path>
  </g>
</svg>