<svg xmlns="http://www.w3.org/2000/svg" fill="none" viewBox="0 0 48 48" id="Sign-Cross-Square--Streamline-Core-Remix" height="48" width="48">
  <desc>
    Sign Cross Square Streamline Icon: https://streamlinehq.com
  </desc>
  <g id="Free Remix/Health/sign-cross-square--health-sign-medical-symbol-hospital-cross-square">
    <path id="Union" fill="#000000" fill-rule="evenodd" d="M7.285714285714286 1.7142857142857142C4.208708571428572 1.7142857142857142 1.7142857142857142 4.208708571428572 1.7142857142857142 7.285714285714286v33.42857142857142c0 3.077142857142857 2.494422857142857 5.571428571428571 5.571428571428571 5.571428571428571h33.42857142857142c3.077142857142857 0 5.571428571428571 -2.494285714285714 5.571428571428571 -5.571428571428571v-33.42857142857142C46.285714285714285 4.208708571428572 43.791428571428575 1.7142857142857142 40.714285714285715 1.7142857142857142h-33.42857142857142ZM6 7.285714285714286c0 -0.7100914285714285 0.5756228571428571 -1.2857142857142856 1.2857142857142856 -1.2857142857142856h33.42857142857142c0.7100571428571428 0 1.2857142857142856 0.5756228571428571 1.2857142857142856 1.2857142857142856v33.42857142857142c0 0.7100571428571428 -0.5756571428571428 1.2857142857142856 -1.2857142857142856 1.2857142857142856h-33.42857142857142c-0.7100914285714285 0 -1.2857142857142856 -0.5756571428571428 -1.2857142857142856 -1.2857142857142856v-33.42857142857142Zm13.298194285714285 6.607474285714285c0 -0.8088685714285714 0.6557485714285715 -1.4646171428571428 1.4646514285714285 -1.4646171428571428h6.474308571428571c0.8089028571428571 0 1.4646514285714285 0.6557485714285715 1.4646514285714285 1.4646171428571428v5.405074285714286h5.404971428571428c0.8087657142857142 0 1.4646514285714285 0.6557485714285715 1.4646514285714285 1.4646514285714285V27.237257142857143c0 0.8088685714285714 -0.6558857142857143 1.4646171428571428 -1.4646514285714285 1.4646171428571428H28.70180571428571v5.404902857142857c0 0.8087657142857142 -0.6557485714285715 1.4646514285714285 -1.4646514285714285 1.4646514285714285H20.762845714285714c-0.8089028571428571 0 -1.4646514285714285 -0.6558857142857143 -1.4646514285714285 -1.4646514285714285V28.701874285714286H13.89318857142857c-0.8088685714285714 0 -1.4646171428571428 -0.6557485714285715 -1.4646171428571428 -1.4646171428571428V20.762914285714285c0 -0.8089028571428571 0.6557485714285715 -1.4646514285714285 1.4646171428571428 -1.4646514285714285h5.405005714285714V13.89318857142857Z" clip-rule="evenodd" stroke-width="3.4286"></path>
  </g>
</svg>