<svg xmlns="http://www.w3.org/2000/svg" fill="none" viewBox="0 0 48 48" id="Signal-Low--Streamline-Core-Remix" height="48" width="48">
  <desc>
    Signal Low Streamline Icon: https://streamlinehq.com
  </desc>
  <g id="Free Remix/Phone/signal-low--phone-mobile-device-signal-wireless-smartphone-iphone-bar-low-bars-android">
    <path id="Union" fill="#000000" fill-rule="evenodd" d="M2.142857142857143 23.57142857142857C0.9593897142857143 23.57142857142857 0 24.530811428571425 0 25.71428571428571V44.57142857142857c0 1.183542857142857 0.9593897142857143 2.142857142857143 2.142857142857143 2.142857142857143h12.857142857142856c1.1834742857142857 0 2.142857142857143 -0.9593142857142857 2.142857142857143 -2.142857142857143V25.71428571428571c0 -1.1834742857142857 -0.9593828571428571 -2.142857142857143 -2.142857142857143 -2.142857142857143H2.142857142857143Zm2.142857142857143 18.857142857142858v-14.571428571428571h8.571428571428571v14.571428571428571h-8.571428571428571ZM20.43918857142857 44.57142857142857c0 -1.183542857142857 0.9593828571428571 -2.142857142857143 2.142857142857143 -2.142857142857143h7.7142857142857135c1.1834399999999998 0 2.142857142857143 0.9593142857142857 2.142857142857143 2.142857142857143s-0.9594171428571429 2.142857142857143 -2.142857142857143 2.142857142857143h-7.7142857142857135c-1.1834742857142857 0 -2.142857142857143 -0.9593142857142857 -2.142857142857143 -2.142857142857143ZM36 44.57142857142857c0 -1.183542857142857 0.9593142857142857 -2.142857142857143 2.142857142857143 -2.142857142857143h7.7142857142857135c1.183542857142857 0 2.142857142857143 0.9593142857142857 2.142857142857143 2.142857142857143s-0.9593142857142857 2.142857142857143 -2.142857142857143 2.142857142857143h-7.7142857142857135c-1.183542857142857 0 -2.142857142857143 -0.9593142857142857 -2.142857142857143 -2.142857142857143Z" clip-rule="evenodd" stroke-width="3.4286"></path>
  </g>
</svg>