<svg xmlns="http://www.w3.org/2000/svg" fill="none" viewBox="0 0 48 48" id="Sign-At--Streamline-Core-Remix" height="48" width="48">
  <desc>
    Sign At Streamline Icon: https://streamlinehq.com
  </desc>
  <g id="Free Remix/Mail/Mail/Sign/sign-at--mail-email-at-sign-read-address">
    <path id="Union" fill="#000000" fill-rule="evenodd" d="M4.282354285714286 23.99976c0 -10.889794285714286 8.827885714285715 -19.717714285714287 19.71757714285714 -19.717714285714287 10.889554285714285 0 19.71744 8.827919999999999 19.71744 19.717714285714287v4.203942857142857c0 2.0670514285714288 -1.6755428571428572 3.7426971428571427 -3.742628571428571 3.7426971428571427 -2.066742857142857 0 -3.742628571428571 -1.6756457142857142 -3.742628571428571 -3.7426971428571427V24.04494857142857c0 -0.01505142857142857 0.00034285714285714285 -0.03010285714285714 0.00034285714285714285 -0.045188571428571425 0 -6.755725714285714 -5.476731428571428 -12.232354285714285 -12.232457142857143 -12.232354285714285 -6.755691428571428 0 -12.232285714285714 5.476628571428571 -12.232285714285714 12.232354285714285 0 6.755725714285714 5.4765942857142855 12.232354285714285 12.232285714285714 12.232354285714285 3.5791542857142855 0 6.799234285714285 -1.5370285714285712 9.036137142857143 -3.9873942857142852 1.391862857142857 2.38488 3.9780342857142856 3.9873942857142852 6.938605714285713 3.9873942857142852 4.434171428571428 0 8.028342857142857 -3.5944457142857145 8.028342857142857 -8.028411428571427V23.99976c0 -13.256708571428572 -10.746514285714285 -24.003422125714284 -24.003154285714285 -24.003422125714284S-0.0033482125714285713 10.743051428571428 -0.0033482125714285713 23.99976c0 13.256811428571428 10.746639641142856 24.00332571428571 24.003279641142854 24.00332571428571 3.273771428571428 0 6.3995999999999995 -0.6565714285714286 9.24888 -1.8473142857142855 1.092102857142857 -0.4563428571428571 1.6074171428571429 -1.7111999999999998 1.1510742857142855 -2.8032 -0.45644571428571423 -1.0919999999999999 -1.7115771428571427 -1.6073142857142857 -2.803542857142857 -1.1509714285714285 -2.3351314285714286 0.9757714285714286 -4.899977142857143 1.5157714285714285 -7.596411428571428 1.5157714285714285 -10.889691428571428 0 -19.71757714285714 -8.827885714285715 -19.71757714285714 -19.717611428571427Zm27.664217142857144 -0.0168c-0.00003428571428571428 0.005588571428571428 -0.00006857142857142857 0.01121142857142857 -0.00006857142857142857 0.0168v0.03644571428571428C31.92689142857143 28.40825142857143 28.37664 31.9464 24 31.9464c-4.388742857142857 0 -7.946571428571429 -3.5578285714285713 -7.946571428571429 -7.9466399999999995 0 -4.388811428571429 3.5578285714285713 -7.9466399999999995 7.946571428571429 -7.9466399999999995 4.383188571428571 0 7.937519999999999 3.548742857142857 7.946571428571429 7.92984Z" clip-rule="evenodd" stroke-width="3.4286"></path>
  </g>
</svg>