<svg xmlns="http://www.w3.org/2000/svg" fill="none" viewBox="0 0 48 48" id="Signal-Loading--Streamline-Core-Remix" height="48" width="48">
  <desc>
    Signal Loading Streamline Icon: https://streamlinehq.com
  </desc>
  <g id="Free Remix/Computer Devices/signal-loading--bracket-loading-internet-angle-signal-server-network-connecting-connection">
    <path id="Union" fill="#000000" fill-rule="evenodd" d="M13.943794285714285 15.22950857142857c0.8368457142857142 -0.8368457142857142 0.8368457142857142 -2.1936 0 -3.030445714285714 -0.8368457142857142 -0.8368457142857142 -2.1936 -0.8368457142857142 -3.030445714285714 0l-10.285721142857142 10.285714285714285c-0.8368367999999999 0.8368457142857142 -0.8368367999999999 2.1936 0 3.030445714285714L10.91334857142857 35.8008c0.8368457142857142 0.8369142857142857 2.1936 0.8369142857142857 3.030445714285714 0 0.8368457142857142 -0.8365714285714285 0.8368457142857142 -2.193462857142857 0 -3.030308571428571L5.173302857142857 24l8.770491428571427 -8.770491428571427Zm23.142719999999997 -3.030445714285714c-0.8365714285714285 -0.8368457142857142 -2.1936 -0.8368457142857142 -3.030308571428571 0 -0.8368457142857142 0.8368457142857142 -0.8368457142857142 2.1936 0 3.030445714285714L42.826628571428564 24 34.05620571428571 32.770491428571425c-0.8368457142857142 0.8368457142857142 -0.8368457142857142 2.1937371428571426 0 3.030308571428571 0.8367085714285714 0.8369142857142857 2.1937371428571426 0.8369142857142857 3.030308571428571 0l10.285714285714285 -10.285577142857143c0.8369142857142857 -0.8368457142857142 0.8369142857142857 -2.1936 0 -3.030445714285714l-10.285714285714285 -10.285714285714285ZM20.57142857142857 24c0 1.8935314285714284 1.53504 3.4285714285714284 3.4285714285714284 3.4285714285714284s3.4285714285714284 -1.53504 3.4285714285714284 -3.4285714285714284 -1.53504 -3.4285714285714284 -3.4285714285714284 -3.4285714285714284 -3.4285714285714284 1.53504 -3.4285714285714284 3.4285714285714284Zm9.428571428571429 0c0 1.8935314285714284 1.535005714285714 3.4285714285714284 3.4285714285714284 3.4285714285714284 1.8936 0 3.4285714285714284 -1.53504 3.4285714285714284 -3.4285714285714284s-1.5349714285714284 -3.4285714285714284 -3.4285714285714284 -3.4285714285714284c-1.893565714285714 0 -3.4285714285714284 1.53504 -3.4285714285714284 3.4285714285714284Zm-18.857142857142858 0c0 1.8935314285714284 1.53504 3.4285714285714284 3.4285714285714284 3.4285714285714284s3.4285714285714284 -1.53504 3.4285714285714284 -3.4285714285714284 -1.53504 -3.4285714285714284 -3.4285714285714284 -3.4285714285714284 -3.4285714285714284 1.53504 -3.4285714285714284 3.4285714285714284Z" clip-rule="evenodd" stroke-width="3.4286"></path>
  </g>
</svg>