<svg xmlns="http://www.w3.org/2000/svg" fill="none" viewBox="0 0 48 48" id="Signal-Medium--Streamline-Core-Remix" height="48" width="48">
  <desc>
    Signal Medium Streamline Icon: https://streamlinehq.com
  </desc>
  <g id="Free Remix/Phone/signal-medium--smartphone-phone-mobile-device-iphone-signal-medium-wireless-bar-bars-android">
    <path id="Union" fill="#000000" fill-rule="evenodd" d="M16.285714285714285 13.285714285714285c-1.1834742857142857 0 -2.142857142857143 0.9593828571428571 -2.142857142857143 2.142857142857143v8.142857142857142H2.571428571428571c-1.1834674285714284 0 -2.142857142857143 0.9593828571428571 -2.142857142857143 2.142857142857143V44.57142857142857c0 1.183542857142857 0.9593897142857143 2.142857142857143 2.142857142857143 2.142857142857143h27.428571428571427c1.1834742857142857 0 2.142857142857143 -0.9593142857142857 2.142857142857143 -2.142857142857143V15.428571428571427c0 -1.1834742857142857 -0.9593828571428571 -2.142857142857143 -2.142857142857143 -2.142857142857143h-13.714285714285714Zm-2.142857142857143 29.142857142857142v-14.571428571428571h-9.428571428571429v14.571428571428571h9.428571428571429Zm4.285714285714286 0h9.428571428571429v-24.857142857142854h-9.428571428571429v24.857142857142854Zm16.285714285714285 2.142857142857143c0 -1.183542857142857 0.9593142857142857 -2.142857142857143 2.142857142857143 -2.142857142857143h8.571428571428571c1.183542857142857 0 2.142857142857143 0.9593142857142857 2.142857142857143 2.142857142857143s-0.9593142857142857 2.142857142857143 -2.142857142857143 2.142857142857143h-8.571428571428571c-1.183542857142857 0 -2.142857142857143 -0.9593142857142857 -2.142857142857143 -2.142857142857143Z" clip-rule="evenodd" stroke-width="3.4286"></path>
  </g>
</svg>