<svg xmlns="http://www.w3.org/2000/svg" fill="none" viewBox="0 0 48 48" id="Sign-Hashtag--Streamline-Core-Remix" height="48" width="48">
  <desc>
    Sign Hashtag Streamline Icon: https://streamlinehq.com
  </desc>
  <g id="Free Remix/Mail/Mail/Sign/sign-hashtag--mail-sharp-sign-hashtag-tag">
    <path id="Union" fill="#000000" fill-rule="evenodd" d="M36.352114285714286 1.3148914285714286c1.1674285714285715 0.19456114285714285 1.956 1.2986194285714285 1.7616 2.4659999999999997l-1.7269714285714286 10.362H44.57142857142857c1.183542857142857 0 2.142857142857143 0.9593828571428571 2.142857142857143 2.142857142857143 0 1.1834399999999998 -0.9593142857142857 2.142857142857143 -2.142857142857143 2.142857142857143h-8.898857142857143l-1.8572914285714286 11.142857142857142H42.857142857142854c1.183542857142857 0 2.142857142857143 0.9593828571428571 2.142857142857143 2.142857142857143 0 1.1834399999999998 -0.9593142857142857 2.142857142857143 -2.142857142857143 2.142857142857143H33.10097142857143L31.256571428571426 44.92388571428571c-0.19457142857142856 1.167085714285714 -1.29864 1.9556571428571428 -2.4659999999999997 1.7612571428571429 -1.16736 -0.1944 -1.9559657142857143 -1.2987428571428572 -1.7614285714285716 -2.4658285714285713l1.7270057142857143 -10.362137142857142H15.958114285714284L14.113714285714286 44.92388571428571c-0.19457142857142856 1.167085714285714 -1.29864 1.9556571428571428 -2.4659999999999997 1.7612571428571429 -1.16736 -0.1944 -1.9559657142857143 -1.2987428571428572 -1.7614285714285716 -2.4658285714285713l1.7270057142857143 -10.362137142857142H3.4285714285714284c-1.1834674285714284 0 -2.142857142857143 -0.9594171428571429 -2.142857142857143 -2.142857142857143 0 -1.1834742857142857 0.9593897142857143 -2.142857142857143 2.142857142857143 -2.142857142857143h8.89902857142857l1.85712 -11.142857142857142H5.142857142857142c-1.1834742857142857 0 -2.142857142857143 -0.9594171428571429 -2.142857142857143 -2.142857142857143 0 -1.1834742857142857 0.9593828571428571 -2.142857142857143 2.142857142857143 -2.142857142857143h9.756171428571427L16.74342857142857 3.076309714285714c0.19457142857142856 -1.167366857142857 1.29864 -1.9559794285714283 2.4659999999999997 -1.7614182857142855 1.16736 0.19456114285714285 1.9559657142857143 1.2986194285714285 1.7614285714285716 2.4659999999999997l-1.7270057142857143 10.362h12.798034285714284L33.88628571428571 3.076309714285714c0.19457142857142856 -1.167366857142857 1.2987428571428572 -1.9559794285714283 2.4658285714285713 -1.7614182857142855Zm-17.822571428571425 17.113714285714284 -1.85712 11.142857142857142h12.798034285714284l1.85712 -11.142857142857142H18.529542857142854Z" clip-rule="evenodd" stroke-width="3.4286"></path>
  </g>
</svg>