<svg xmlns="http://www.w3.org/2000/svg" fill="none" viewBox="0 0 48 48" id="Skull-1--Streamline-Core-Remix" height="48" width="48">
  <desc>
    Skull 1 Streamline Icon: https://streamlinehq.com
  </desc>
  <g id="Free Remix/Interface Essential/skull-1--crash-death-delete-die-error-garbage-remove-skull-trash">
    <path id="Union" fill="#000000" fill-rule="evenodd" d="M6.428571428571428 21.857142857142858C6.428571428571428 12.15270857142857 14.295565714285711 4.285714285714286 24 4.285714285714286s17.57142857142857 7.866994285714285 17.57142857142857 17.57142857142857c0 5.678605714285714 -2.6914285714285713 10.727691428571427 -6.87702857142857 13.943314285714283 -0.5278285714285714 0.40559999999999996 -0.8372571428571428 1.0337142857142856 -0.8372571428571428 1.6991999999999998v4.928914285714286c0 0.7100571428571428 -0.5756228571428571 1.2857142857142856 -1.2857142857142856 1.2857142857142856h-2.142857142857143V39.42857142857142c0 -1.183542857142857 -0.9593828571428571 -2.142857142857143 -2.142857142857143 -2.142857142857143s-2.142857142857143 0.9593142857142857 -2.142857142857143 2.142857142857143v4.285714285714286h-4.285714285714286V39.42857142857142c0 -1.183542857142857 -0.9593828571428571 -2.142857142857143 -2.142857142857143 -2.142857142857143s-2.142857142857143 0.9593142857142857 -2.142857142857143 2.142857142857143v4.285714285714286H15.428571428571427c-0.7100914285714285 0 -1.2857142857142856 -0.5756571428571428 -1.2857142857142856 -1.2857142857142856v-4.928914285714286c0 -0.6654857142857142 -0.3094285714285714 -1.2936 -0.83736 -1.6991999999999998C9.119931428571428 32.58483428571428 6.428571428571428 27.53574857142857 6.428571428571428 21.857142857142858ZM24 0C11.928617142857142 0 2.142857142857143 9.78576 2.142857142857143 21.857142857142858c0 6.6792 2.998011428571428 12.658971428571428 7.7142857142857135 16.66525714285714v3.906171428571428c0 3.077142857142857 2.494422857142857 5.571428571428571 5.571428571428571 5.571428571428571h17.142857142857142c3.077142857142857 0 5.571428571428571 -2.494285714285714 5.571428571428571 -5.571428571428571v-3.906171428571428c4.716342857142856 -4.006285714285714 7.7142857142857135 -9.986057142857142 7.7142857142857135 -16.66525714285714C45.857142857142854 9.78576 36.07131428571428 0 24 0ZM20.57142857142857 24c0 2.3669485714285714 -1.9187657142857142 4.285714285714286 -4.285714285714286 4.285714285714286S12 26.36694857142857 12 24s1.9187657142857142 -4.285714285714286 4.285714285714286 -4.285714285714286S20.57142857142857 21.633051428571427 20.57142857142857 24Zm15.428571428571427 0c0 2.3669485714285714 -1.9187657142857142 4.285714285714286 -4.285714285714286 4.285714285714286S27.428571428571427 26.36694857142857 27.428571428571427 24s1.9187657142857142 -4.285714285714286 4.285714285714286 -4.285714285714286S36 21.633051428571427 36 24Z" clip-rule="evenodd" stroke-width="3.4286"></path>
  </g>
</svg>