<svg xmlns="http://www.w3.org/2000/svg" fill="none" viewBox="0 0 48 48" id="Slack--Streamline-Core-Remix" height="48" width="48">
  <desc>
    Slack Streamline Icon: https://streamlinehq.com
  </desc>
  <g id="Free Remix/Computer Devices/slack">
    <path id="Union" fill="#000000" fill-rule="evenodd" d="M11.631702857142857 8.571394285714286c0 -3.9906514285714283 3.235062857142857 -7.225724571428571 7.225714285714285 -7.225724571428571 2.012434285714286 0 3.8326971428571426 0.8226857142857142 5.142857142857142 2.1501017142857144 1.31016 -1.327416 3.130422857142857 -2.1501017142857144 5.142857142857142 -2.1501017142857144 3.9906514285714283 0 7.225782857142857 3.235073142857143 7.225782857142857 7.225724571428571v3.7379999999999995c0.9291428571428572 -0.43498285714285717 1.9662857142857142 -0.678 3.0599999999999996 -0.678 3.9905142857142852 0 7.225714285714285 3.235062857142857 7.225714285714285 7.225714285714285 0 2.012434285714286 -0.8228571428571427 3.8326971428571426 -2.150057142857143 5.142857142857142 1.3272 1.3101257142857143 2.150057142857143 3.130422857142857 2.150057142857143 5.142857142857142 0 3.9906514285714283 -3.2352 7.225748571428571 -7.225714285714285 7.225748571428571h-3.7381714285714285c0.4350857142857143 0.9291428571428572 0.6781714285714285 1.9662857142857142 0.6781714285714285 3.0599999999999996 0 3.9905142857142852 -3.235131428571428 7.225714285714285 -7.225782857142857 7.225714285714285 -2.012434285714286 0 -3.8326971428571426 -0.8228571428571427 -5.142857142857142 -2.150057142857143 -1.31016 1.3272 -3.130422857142857 2.150057142857143 -5.142857142857142 2.150057142857143 -3.9906514285714283 0 -7.225714285714285 -3.2352 -7.225714285714285 -7.225714285714285l0 -3.7381714285714285c-0.9292114285714285 0.4350857142857143 -1.9662171428571427 0.6781714285714285 -3.0599999999999996 0.6781714285714285 -3.9906514285714283 0 -7.225721142857143 -3.2350971428571427 -7.225721142857143 -7.225748571428571 0 -2.012434285714286 0.8226891428571428 -3.8326971428571426 2.1500982857142854 -5.142857142857142 -1.3274125714285714 -1.31016 -2.1500982857142854 -3.130457142857143 -2.1500982857142854 -5.142857142857142 0 -3.9906514285714283 3.2350697142857143 -7.225714285714285 7.225721142857143 -7.225714285714285h3.7380342857142854c-0.4350171428571428 -0.9292114285714285 -0.6780342857142857 -1.9662171428571427 -0.6780342857142857 -3.0599999999999996Zm-3.0599999999999996 13.345714285714285 5.142857142857142 0 5.142857142857142 0c1.6899771428571428 0 3.0599999999999996 -1.370022857142857 3.0599999999999996 -3.0599999999999996 0 -1.6900114285714285 -1.370022857142857 -3.0599999999999996 -3.0599999999999996 -3.0599999999999996h-10.285714285714285c-1.6900114285714285 0 -3.0599999999999996 1.3699885714285713 -3.0599999999999996 3.0599999999999996 0 1.6899771428571428 1.3699885714285713 3.0599999999999996 3.0599999999999996 3.0599999999999996Zm7.225714285714285 7.222491428571428 0 0.0032228571428571428 0 0.004902857142857143 0 10.280845714285714c0 1.689942857142857 1.3699885714285713 3.0599999999999996 3.0599999999999996 3.0599999999999996 1.6899771428571428 0 3.0599999999999996 -1.3700571428571429 3.0599999999999996 -3.0599999999999996l0 -5.142891428571429 0 -5.142857142857142c0 -1.6900114285714285 -1.370022857142857 -3.0599999999999996 -3.0599999999999996 -3.0599999999999996 -1.6889485714285712 0 -3.0582857142857143 1.3682742857142856 -3.0599999999999996 3.056777142857143Zm26.69149714285714 0.0032228571428571428c0 1.6899771428571428 -1.3700571428571429 3.0599999999999996 -3.0599999999999996 3.0599999999999996H29.14313142857143c-1.6900114285714285 0 -3.0599999999999996 -1.370022857142857 -3.0599999999999996 -3.0599999999999996 0 -1.6900114285714285 1.3699885714285713 -3.0599999999999996 3.0599999999999996 -3.0599999999999996l0.004902857142857143 0h5.136068571428571l0.001954285714285714 0h5.142857142857142c1.689942857142857 0 3.0599999999999996 1.3699885714285713 3.0599999999999996 3.0599999999999996Zm-10.285782857142857 -20.57142857142857c0 -1.6900114285714285 -1.370022857142857 -3.0599999999999996 -3.0599999999999996 -3.0599999999999996 -1.6900114285714285 0 -3.0599999999999996 1.3699885714285713 -3.0599999999999996 3.0599999999999996v10.285714285714285c0 1.6899771428571428 1.3699885714285713 3.0599999999999996 3.0599999999999996 3.0599999999999996 1.6899771428571428 0 3.0599999999999996 -1.370022857142857 3.0599999999999996 -3.0599999999999996v-10.285714285714285Zm-8.135622857142856 15.428571428571427 -0.0672342857142857 0.0672342857142857 -0.0672342857142857 -0.0672342857142857 0.0672342857142857 -0.0672342857142857 0.0672342857142857 0.0672342857142857Z" clip-rule="evenodd" stroke-width="3.4286"></path>
  </g>
</svg>