<svg xmlns="http://www.w3.org/2000/svg" fill="none" viewBox="0 0 48 48" id="Sleep--Streamline-Core-Remix" height="48" width="48">
  <desc>
    Sleep Streamline Icon: https://streamlinehq.com
  </desc>
  <g id="Free Remix/Interface Essential/sleep">
    <path id="Union" fill="#000000" fill-rule="evenodd" d="M24 2.142857142857143C24 0.9593897142857143 24.95941714285714 0 26.142857142857142 0h10.285714285714285c0.8115428571428571 0 1.5538285714285713 0.4585748571428572 1.9165714285714286 1.1845405714285713 0.36308571428571423 0.7259691428571429 0.2845714285714286 1.5947074285714284 -0.20228571428571426 2.244030857142857l-7.7142857142857135 10.285714285714285h6c1.183542857142857 0 2.142857142857143 0.9593828571428571 2.142857142857143 2.142857142857143s-0.9593142857142857 2.142857142857143 -2.142857142857143 2.142857142857143h-10.285714285714285c-0.8116457142857142 0 -1.553622857142857 -0.4585714285714286 -1.9166057142857142 -1.184537142857143 -0.36298285714285716 -0.7259657142857143 -0.28463999999999995 -1.5946971428571426 0.20232 -2.2440342857142856l7.7142857142857135 -10.285714285714285h-6C24.95941714285714 4.285714285714286 24 3.326324571428571 24 2.142857142857143ZM3.0000171428571427 17.142857142857142c0 -1.1834742857142857 0.9593999999999999 -2.142857142857143 2.1428399999999996 -2.142857142857143H17.142857142857142c0.8184342857142857 0 1.565382857142857 0.4661828571428571 1.9249714285714286 1.2014057142857142 0.3595885714285714 0.7351885714285714 0.2689714285714286 1.611017142857143 -0.23348571428571424 2.257028571428571L9.524228571428571 30.428571428571427H17.142857142857142c1.1834742857142857 0 2.142857142857143 0.9593828571428571 2.142857142857143 2.142857142857143s-0.9593828571428571 2.142857142857143 -2.142857142857143 2.142857142857143H5.142857142857142c-0.8183999999999999 0 -1.565382857142857 -0.4661828571428571 -1.924944 -1.2013714285714285 -0.3595782857142857 -0.7352228571428571 -0.2689748571428571 -1.6110514285714284 0.2334925714285714 -2.257062857142857L12.761519999999999 19.285714285714285H5.142857142857142c-1.1834399999999998 0 -2.1428399999999996 -0.9593828571428571 -2.1428399999999996 -2.142857142857143ZM30.428571428571427 24.857142857142854c-1.6568228571428572 0 -3 1.343142857142857 -3 3S28.771748571428567 30.857142857142854 30.428571428571427 30.857142857142854h7.472571428571428l-9.815177142857143 12.268799999999999c-0.7203771428571428 0.9003428571428571 -0.8608457142857143 2.1342857142857143 -0.36130285714285715 3.173485714285714 0.49957714285714283 1.039542857142857 1.5507085714285713 1.7005714285714284 2.7039085714285713 1.7005714285714284h13.714285714285714c1.6570285714285713 0 3 -1.3433142857142857 3 -3s-1.3429714285714285 -3 -3 -3h-7.4722285714285706l9.814971428571427 -12.268765714285713c0.7203428571428572 -0.9005142857142856 0.8609142857142856 -2.1342514285714285 0.3610285714285714 -3.1736571428571425 -0.4995428571428571 -1.0394057142857143 -1.5503999999999998 -1.7004342857142856 -2.7037714285714283 -1.7004342857142856h-13.714285714285714Z" clip-rule="evenodd" stroke-width="3.4286"></path>
  </g>
</svg>