<svg xmlns="http://www.w3.org/2000/svg" fill="none" viewBox="0 0 48 48" id="Smiley-Cute--Streamline-Core-Remix" height="48" width="48">
  <desc>
    Smiley Cute Streamline Icon: https://streamlinehq.com
  </desc>
  <g id="Free Remix/Mail/Mail/Smiley/smiley-cute">
    <path id="Union" fill="#000000" fill-rule="evenodd" d="M4.285714285714286 24c0 -10.887908571428571 8.826377142857142 -19.71428571428571 19.71428571428571 -19.71428571428571 10.887771428571428 0 19.71428571428571 8.826377142857142 19.71428571428571 19.71428571428571 0 10.887771428571428 -8.826514285714284 19.71428571428571 -19.71428571428571 19.71428571428571 -10.887908571428571 0 -19.71428571428571 -8.826514285714284 -19.71428571428571 -19.71428571428571ZM24 0C10.745177142857143 0 0 10.745177142857143 0 24c0 13.254857142857142 10.745177142857143 24 24 24 13.254857142857142 0 24 -10.745142857142856 24 -24 0 -13.254822857142857 -10.745142857142856 -24 -24 -24Zm-3.3398057142857143 21.695382857142857c-1.2019542857142855 0.7396457142857142 -2.7736114285714284 0.3718285714285714 -3.5236457142857143 -0.8197714285714286 -0.011005714285714285 -0.010525714285714284 -0.057257142857142854 -0.05348571428571428 -0.16186285714285714 -0.10498285714285714 -0.16066285714285714 -0.07909714285714285 -0.354 -0.12387428571428571 -0.5223085714285715 -0.12387428571428571 -0.1682742857142857 0 -0.36161142857142853 0.044777142857142856 -0.5222742857142857 0.12387428571428571 -0.10460571428571427 0.05149714285714285 -0.15085714285714283 0.09445714285714285 -0.16186285714285714 0.10498285714285714 -0.7500342857142857 1.1916 -2.3216914285714285 1.5594171428571428 -3.5236457142857143 0.8197714285714286 -1.2094628571428572 -0.7443085714285714 -1.5866057142857142 -2.328171428571429 -0.8422971428571429 -3.537668571428571 1.1065371428571429 -1.7981142857142856 3.227314285714286 -2.6538171428571427 5.0500799999999995 -2.6538171428571427 1.8227999999999998 0 3.9435771428571424 0.8557028571428571 5.050114285714286 2.6538171428571427 0.7442742857142857 1.2094971428571426 0.36716571428571426 2.79336 -0.8422971428571429 3.537668571428571Zm6.6796114285714285 0c1.2019542857142855 0.7396457142857142 2.7736114285714284 0.3718285714285714 3.5236457142857143 -0.8197714285714286 0.011005714285714285 -0.010525714285714284 0.057257142857142854 -0.05348571428571428 0.16186285714285714 -0.10498285714285714 0.16066285714285714 -0.07909714285714285 0.354 -0.12387428571428571 0.5223085714285715 -0.12387428571428571 0.1682742857142857 0 0.36161142857142853 0.044777142857142856 0.5222742857142857 0.12387428571428571 0.10460571428571427 0.05149714285714285 0.15085714285714283 0.09445714285714285 0.16186285714285714 0.10498285714285714 0.7500342857142857 1.1916 2.3217257142857144 1.5594171428571428 3.5237828571428573 0.8197714285714286 1.2092571428571428 -0.7443085714285714 1.5863999999999998 -2.328171428571429 0.8420571428571428 -3.537668571428571 -1.1063999999999998 -1.7981142857142856 -3.2272114285714286 -2.6538171428571427 -5.049977142857142 -2.6538171428571427 -1.8227999999999998 0 -3.9435771428571424 0.8557028571428571 -5.050114285714286 2.6538171428571427 -0.7442742857142857 1.2094971428571426 -0.36716571428571426 2.79336 0.8422971428571429 3.537668571428571ZM14.32848 27.031817142857143c1.4201485714285715 0 2.571428571428571 1.1512457142857142 2.571428571428571 2.571428571428571 0 1.249542857142857 1.0129371428571428 2.2624799999999996 2.262514285714286 2.2624799999999996 1.249542857142857 0 2.2624799999999996 -1.0129371428571428 2.2624799999999996 -2.2624799999999996 0 -1.420182857142857 1.1512799999999999 -2.571428571428571 2.571428571428571 -2.571428571428571 1.420182857142857 0 2.571428571428571 1.1512457142857142 2.571428571428571 2.571428571428571 0 1.249542857142857 1.0129714285714284 2.2624799999999996 2.262514285714286 2.2624799999999996 1.249542857142857 0 2.262514285714286 -1.0129371428571428 2.262514285714286 -2.2624799999999996 0 -1.420182857142857 1.1512457142857142 -2.571428571428571 2.571428571428571 -2.571428571428571 1.4200114285714285 0 2.5713257142857144 1.1512457142857142 2.5713257142857144 2.571428571428571 0 4.089874285714285 -3.3153942857142855 7.40544 -7.4052685714285715 7.40544 -1.847382857142857 0 -3.536742857142857 -0.6764571428571429 -4.833942857142857 -1.7951999999999997 -1.2972 1.118742857142857 -2.98656 1.7951999999999997 -4.833908571428571 1.7951999999999997 -4.089874285714285 0 -7.405371428571428 -3.315565714285714 -7.405371428571428 -7.40544 0 -1.420182857142857 1.1512457142857142 -2.571428571428571 2.571428571428571 -2.571428571428571Z" clip-rule="evenodd" stroke-width="3.4286"></path>
  </g>
</svg>