<svg xmlns="http://www.w3.org/2000/svg" fill="none" viewBox="0 0 48 48" id="Smiley-Mask--Streamline-Core-Remix" height="48" width="48">
  <desc>
    Smiley Mask Streamline Icon: https://streamlinehq.com
  </desc>
  <g id="Free Remix/Mail/Mail/Smiley/smiley-mask">
    <path id="Union" fill="#000000" fill-rule="evenodd" d="M4.307177142857142 23.071645714285715C4.791942857142857 12.614777142857143 13.423302857142856 4.285714285714286 24 4.285714285714286c10.5768 0 19.20822857142857 8.329062857142857 19.692685714285712 18.785931428571427 -1.2017142857142855 0.6214971428571427 -3.0401142857142855 1.3872685714285713 -5.490514285714285 2.080765714285714C34.6008 26.171657142857143 29.79702857142857 27 24 27c-5.797028571428571 0 -10.6008 -0.8283428571428572 -14.202171428571427 -1.8475885714285714 -2.4504342857142856 -0.6934971428571428 -4.288902857142857 -1.4592342857142855 -5.490651428571428 -2.080765714285714Zm0.37244571428571427 4.868982857142857C5.783897142857143 33.384 9.130937142857142 38.013257142857135 13.714285714285714 40.8216V30.425245714285712c-1.8658285714285714 -0.32403428571428566 -3.564445714285714 -0.7191428571428571 -5.083542857142857 -1.1490857142857143 -1.4744571428571427 -0.41729142857142854 -2.7976799999999997 -0.8725714285714286 -3.9511199999999995 -1.3355314285714284ZM34.285714285714285 40.8216c4.583314285714286 -2.8083428571428573 7.930285714285715 -7.437599999999999 9.034628571428572 -12.880971428571428 -1.1533714285714285 0.46296000000000004 -2.476457142857143 0.91824 -3.9510857142857145 1.3355314285714284 -1.5191999999999999 0.4299428571428572 -3.2177142857142855 0.8250514285714285 -5.083542857142857 1.1490857142857143v10.396354285714285ZM24 0C10.745177142857143 0 0 10.745177142857143 0 24c0 13.254857142857142 10.745177142857143 24 24 24 13.254857142857142 0 24 -10.745142857142856 24 -24 0 -13.254822857142857 -10.745142857142856 -24 -24 -24Zm6.074468571428571 17.82414857142857c-0.3874285714285714 -0.10241142857142857 -0.6244114285714285 -0.12047999999999999 -0.67344 -0.12421714285714285 -0.008571428571428572 -0.0006514285714285715 -0.011417142857142857 -0.0008571428571428571 -0.008297142857142855 -0.0010285714285714284 -1.4184685714285712 0.0696 -2.624742857142857 -1.0239085714285714 -2.6943428571428574 -2.442342857142857 -0.06956571428571427 -1.4184685714285712 1.0239085714285714 -2.624742857142857 2.4423771428571426 -2.6943428571428574 0.71016 -0.03483428571428571 1.5262628571428571 0.09901714285714285 2.248285714285714 0.28991999999999996 0.7590857142857143 0.20070857142857143 1.62528 0.5202171428571428 2.433805714285714 0.9870514285714285 0.8084571428571429 0.46679999999999994 1.5181714285714285 1.0571657142857143 2.0715428571428567 1.6142057142857142 0.5266285714285713 0.5298514285714285 1.0505142857142857 1.1696571428571427 1.3752 1.802125714285714 0.6490285714285714 1.2631885714285713 0.1512 2.8133142857142857 -1.1118857142857141 3.4622742857142854 -1.2634285714285713 0.6489942857142857 -2.813485714285714 0.15102857142857143 -3.4624457142857143 -1.11216 0.0014057142857142855 0.002742857142857143 -0.00017142857142857143 0.00041142857142857143 -0.005039999999999999 -0.006685714285714285 -0.027737142857142856 -0.040594285714285715 -0.16189714285714285 -0.2368114285714286 -0.4442742857142857 -0.5210742857142857 -0.30469714285714283 -0.30672 -0.6599314285714286 -0.5916685714285714 -0.9945257142857142 -0.7848685714285715 -0.33462857142857144 -0.19319999999999998 -0.7590171428571428 -0.3583542857142857 -1.1769599999999998 -0.46885714285714286Zm-13.463588571428572 -4.966971428571429c0.7220571428571428 -0.19090285714285712 1.5381257142857143 -0.3247542857142857 2.24832 -0.28991999999999996 1.4184342857142858 0.06956571428571427 2.511908571428571 1.2758742857142857 2.442342857142857 2.694308571428571 -0.06956571428571427 1.4184685714285712 -1.2758742857142857 2.511942857142857 -2.694308571428571 2.4423771428571426 0.0030857142857142854 0.00013714285714285713 0.00023999999999999998 0.00034285714285714285 -0.008297142857142855 0.0009942857142857143 -0.04902857142857143 0.0037371428571428573 -0.2860457142857143 0.021805714285714286 -0.67344 0.12425142857142857 -0.4179771428571428 0.11050285714285714 -0.8423314285714285 0.2756571428571428 -1.1769599999999998 0.46885714285714286 -0.33462857142857144 0.19319999999999998 -0.6898285714285713 0.47811428571428566 -0.9945257142857142 0.7848342857142857 -0.28241142857142854 0.2842971428571428 -0.41653714285714283 0.48051428571428567 -0.44430857142857144 0.5211085714285714 -0.004834285714285714 0.007062857142857143 -0.0064457142857142855 0.009428571428571427 -0.005039999999999999 0.006651428571428571 -0.64896 1.263222857142857 -2.199085714285714 1.7611542857142855 -3.4622742857142854 1.1121942857142857 -1.263222857142857 -0.64896 -1.7611542857142855 -2.199085714285714 -1.1121942857142857 -3.4623085714285713 0.32492571428571426 -0.6324342857142857 0.84888 -1.2722742857142857 1.3752342857142856 -1.802125714285714 0.5533714285714285 -0.55704 1.2631542857142857 -1.1474057142857144 2.0716799999999997 -1.6142057142857142 0.8085257142857143 -0.46679999999999994 1.674685714285714 -0.7863085714285714 2.4337714285714283 -0.9870171428571429Z" clip-rule="evenodd" stroke-width="3.4286"></path>
  </g>
</svg>