<svg xmlns="http://www.w3.org/2000/svg" fill="none" viewBox="0 0 48 48" id="Smiley-Crying-1--Streamline-Core-Remix" height="48" width="48">
  <desc>
    Smiley Crying 1 Streamline Icon: https://streamlinehq.com
  </desc>
  <g id="Free Remix/Mail/Mail/Smiley/smiley-crying-1">
    <path id="Union" fill="#000000" fill-rule="evenodd" d="M4.285714285714286 24c0 -10.887908571428571 8.826377142857142 -19.71428571428571 19.71428571428571 -19.71428571428571 10.887771428571428 0 19.71428571428571 8.826377142857142 19.71428571428571 19.71428571428571 0 10.887771428571428 -8.826514285714284 19.71428571428571 -19.71428571428571 19.71428571428571 -10.887908571428571 0 -19.71428571428571 -8.826514285714284 -19.71428571428571 -19.71428571428571ZM24 0C10.745177142857143 0 0 10.745177142857143 0 24c0 13.254857142857142 10.745177142857143 24 24 24 13.254857142857142 0 24 -10.745142857142856 24 -24 0 -13.254822857142857 -10.745142857142856 -24 -24 -24Zm5.401028571428571 17.69993142857143c0.04902857142857143 0.0037371428571428573 0.2860114285714285 0.021805714285714286 0.67344 0.12421714285714285 0.4179428571428571 0.11050285714285714 0.8423314285714285 0.2756571428571428 1.1769599999999998 0.46885714285714286 0.3345942857142857 0.19319999999999998 0.6898285714285713 0.4781485714285714 0.9945257142857142 0.7848685714285715 0.2823771428571428 0.2842628571428571 0.41653714285714283 0.4804799999999999 0.4442742857142857 0.5210742857142857 0.004868571428571429 0.007097142857142856 0.0064457142857142855 0.009428571428571427 0.005039999999999999 0.006685714285714285 0.64896 1.2631885714285713 2.1990171428571426 1.7611542857142855 3.4624457142857143 1.11216 1.2630857142857141 -0.64896 1.7609142857142854 -2.199085714285714 1.1118857142857141 -3.4622742857142854 -0.3246857142857143 -0.6324685714285714 -0.8485714285714285 -1.2722742857142857 -1.3752 -1.802125714285714 -0.5533714285714285 -0.55704 -1.2630857142857141 -1.1474057142857144 -2.0715428571428567 -1.6142057142857142 -0.8085257142857143 -0.4668342857142857 -1.67472 -0.7863428571428571 -2.433805714285714 -0.9870514285714285 -0.7220228571428571 -0.19090285714285712 -1.5381257142857143 -0.3247542857142857 -2.248285714285714 -0.28991999999999996 -1.4184685714285712 0.0696 -2.511942857142857 1.2758742857142857 -2.4423771428571426 2.6943428571428574 0.0696 1.4184342857142858 1.2758742857142857 2.511942857142857 2.6943428571428574 2.442342857142857 -0.00312 0.00017142857142857143 -0.00027428571428571427 0.00037714285714285714 0.008297142857142855 0.0010285714285714284ZM18.8592 12.567257142857141c-0.7101942857142857 -0.03483428571428571 -1.5262628571428571 0.09901714285714285 -2.24832 0.28991999999999996 -0.7590857142857143 0.20070857142857143 -1.6252457142857142 0.5202171428571428 -2.4337714285714283 0.9870171428571429 -0.8085257142857143 0.46679999999999994 -1.5183085714285713 1.0571657142857143 -2.0716799999999997 1.6142057142857142 -0.5263542857142857 0.5298514285714285 -1.0503085714285714 1.1696914285714286 -1.3752342857142856 1.802125714285714 -0.64896 1.263222857142857 -0.15102857142857143 2.813348571428571 1.1121942857142857 3.4623085714285713 1.2631885714285713 0.64896 2.8133142857142857 0.15102857142857143 3.4622742857142854 -1.1121942857142857 -0.0014057142857142855 0.002777142857142857 0.00020571428571428572 0.00041142857142857143 0.005039999999999999 -0.006651428571428571 0.02777142857142857 -0.040594285714285715 0.16189714285714285 -0.2368114285714286 0.44430857142857144 -0.5211085714285714 0.30469714285714283 -0.30672 0.6598971428571428 -0.5916342857142857 0.9945257142857142 -0.7848342857142857 0.33462857142857144 -0.19319999999999998 0.7589828571428572 -0.3583542857142857 1.1769599999999998 -0.46885714285714286 0.3873942857142857 -0.10244571428571428 0.6244114285714285 -0.12051428571428571 0.67344 -0.12425142857142857 0.008537142857142856 -0.0006514285714285715 0.011382857142857142 -0.0008571428571428571 0.008297142857142855 -0.0009942857142857143 1.4184342857142858 0.06956571428571427 2.624742857142857 -1.0239085714285714 2.694308571428571 -2.4423771428571426 0.06956571428571427 -1.4184342857142858 -1.0239085714285714 -2.624742857142857 -2.442342857142857 -2.694308571428571ZM11.511805714285714 30.20276571428571C14.057519999999998 25.97784 18.696445714285712 23.142857142857142 24 23.142857142857142c5.3035885714285715 0 9.942514285714285 2.834982857142857 12.48822857142857 7.059908571428572 0.7330285714285714 1.2163885714285714 0.34114285714285714 2.7966514285714283 -0.8753142857142857 3.5296114285714286 -1.216457142857143 0.7329942857142857 -2.79672 0.34104 -3.52968 -0.875382857142857C30.429325714285714 30.112182857142855 27.42672 28.285714285714285 24 28.285714285714285c-3.426685714285714 0 -6.4293257142857145 1.8264685714285713 -8.083234285714285 4.57128 -0.7329257142857142 1.216422857142857 -2.313188571428571 1.608377142857143 -3.5296114285714286 0.875382857142857 -1.2163885714285714 -0.73296 -1.6083085714285714 -2.3132228571428572 -0.8753485714285714 -3.5296114285714286Z" clip-rule="evenodd" stroke-width="3.4286"></path>
  </g>
</svg>