<svg xmlns="http://www.w3.org/2000/svg" fill="none" viewBox="0 0 48 48" id="Smiley-Drool--Streamline-Core-Remix" height="48" width="48">
  <desc>
    Smiley Drool Streamline Icon: https://streamlinehq.com
  </desc>
  <g id="Free Remix/Mail/Mail/Smiley/smiley-drool">
    <path id="Union" fill="#000000" fill-rule="evenodd" d="M4.285714285714286 24c0 -10.887908571428571 8.826377142857142 -19.71428571428571 19.71428571428571 -19.71428571428571 10.887771428571428 0 19.71428571428571 8.826377142857142 19.71428571428571 19.71428571428571 0 4.6864799999999995 -1.6326857142857143 8.98584 -4.361828571428571 12.368914285714286 -0.7433142857142856 0.9209142857142857 -0.5989714285714285 2.270057142857143 0.3222857142857143 3.0130285714285714 0.9209142857142857 0.7433142857142856 2.270057142857143 0.5989714285714285 3.0130285714285714 -0.3222857142857143C46.00971428571428 34.942628571428564 48 29.700754285714286 48 24c0 -13.254822857142857 -10.745142857142856 -24 -24 -24 -13.254822857142857 0 -24 10.745177142857143 -24 24 0 10.62822857142857 6.906891428571428 19.637485714285713 16.471097142857143 22.794857142857143 1.1238171428571428 0.37097142857142856 2.3356114285714287 -0.2393142857142857 2.7066171428571426 -1.3632 0.37097142857142856 -1.1238857142857142 -0.23928 -2.335542857142857 -1.3630971428571428 -2.7065142857142854C9.954034285714284 40.13005714285714 4.285714285714286 32.724205714285716 4.285714285714286 24Zm25.788754285714283 -6.175851428571429c-0.3874285714285714 -0.10241142857142857 -0.6244114285714285 -0.12047999999999999 -0.67344 -0.12421714285714285 -0.008571428571428572 -0.0006514285714285715 -0.011417142857142857 -0.0008571428571428571 -0.008297142857142855 -0.0010285714285714284 -1.4184685714285712 0.0696 -2.624742857142857 -1.0239085714285714 -2.6943428571428574 -2.442342857142857 -0.06956571428571427 -1.4184685714285712 1.0239085714285714 -2.624742857142857 2.4423771428571426 -2.6943428571428574 0.71016 -0.03483428571428571 1.5262628571428571 0.09901714285714285 2.248285714285714 0.28991999999999996 0.7590857142857143 0.20070857142857143 1.62528 0.5202171428571428 2.433805714285714 0.9870514285714285 0.8084571428571429 0.46679999999999994 1.5181714285714285 1.0571657142857143 2.0715428571428567 1.6142057142857142 0.5266285714285713 0.5298514285714285 1.0505142857142857 1.1696571428571427 1.3752 1.802125714285714 0.6490285714285714 1.2631885714285713 0.1512 2.8133142857142857 -1.1118857142857141 3.4622742857142854 -1.2634285714285713 0.6489942857142857 -2.813485714285714 0.15102857142857143 -3.4624457142857143 -1.11216 0.0014057142857142855 0.002742857142857143 -0.00017142857142857143 0.00041142857142857143 -0.005039999999999999 -0.006685714285714285 -0.027737142857142856 -0.040594285714285715 -0.16189714285714285 -0.2368114285714286 -0.4442742857142857 -0.5210742857142857 -0.30469714285714283 -0.30672 -0.6599314285714286 -0.5916685714285714 -0.9945257142857142 -0.7848685714285715 -0.33462857142857144 -0.19319999999999998 -0.7590171428571428 -0.3583542857142857 -1.1769599999999998 -0.46885714285714286ZM18.8592 12.567257142857141c-0.7101942857142857 -0.03483428571428571 -1.5262628571428571 0.09901714285714285 -2.24832 0.28991999999999996 -0.7590857142857143 0.20070857142857143 -1.6252457142857142 0.5202171428571428 -2.4337714285714283 0.9870171428571429 -0.8085257142857143 0.46679999999999994 -1.5183085714285713 1.0571657142857143 -2.0716799999999997 1.6142057142857142 -0.5263542857142857 0.5298514285714285 -1.0503085714285714 1.1696914285714286 -1.3752342857142856 1.802125714285714 -0.64896 1.263222857142857 -0.15102857142857143 2.813348571428571 1.1121942857142857 3.4623085714285713 1.2631885714285713 0.64896 2.8133142857142857 0.15102857142857143 3.4622742857142854 -1.1121942857142857 -0.0014057142857142855 0.002777142857142857 0.00020571428571428572 0.00041142857142857143 0.005039999999999999 -0.006651428571428571 0.02777142857142857 -0.040594285714285715 0.16189714285714285 -0.2368114285714286 0.44430857142857144 -0.5211085714285714 0.30469714285714283 -0.30672 0.6598971428571428 -0.5916342857142857 0.9945257142857142 -0.7848342857142857 0.33462857142857144 -0.19319999999999998 0.7589828571428572 -0.3583542857142857 1.1769599999999998 -0.46885714285714286 0.3873942857142857 -0.10244571428571428 0.6244114285714285 -0.12051428571428571 0.67344 -0.12425142857142857 0.008537142857142856 -0.0006514285714285715 0.011382857142857142 -0.0008571428571428571 0.008297142857142855 -0.0009942857142857143 1.4184342857142858 0.06956571428571427 2.624742857142857 -1.0239085714285714 2.694308571428571 -2.4423771428571426 0.06956571428571427 -1.4184342857142858 -1.0239085714285714 -2.624742857142857 -2.442342857142857 -2.694308571428571ZM24 37.714285714285715c-6.047142857142856 0 -11.049565714285713 -4.472948571428572 -11.879211428571429 -10.290788571428571C11.987142857142857 26.486194285714284 12.76752 25.71428571428571 13.714285714285714 25.71428571428571h20.57142857142857c0.9466285714285714 0 1.7273142857142858 0.7714971428571428 1.5936 1.7087657142857142 -0.3689142857142857 2.5876114285714285 -1.5634285714285714 4.909165714285714 -3.307885714285714 6.6894857142857145V41.14285714285714c0 2.367085714285714 -1.9187657142857142 4.285714285714286 -4.285714285714286 4.285714285714286S24 43.50994285714285 24 41.14285714285714v-3.4285714285714284Z" clip-rule="evenodd" stroke-width="3.4286"></path>
  </g>
</svg>