<svg xmlns="http://www.w3.org/2000/svg" fill="none" viewBox="0 0 48 48" id="Smiley-Throw-Up--Streamline-Core-Remix" height="48" width="48">
  <desc>
    Smiley Throw Up Streamline Icon: https://streamlinehq.com
  </desc>
  <g id="Free Remix/Mail/Mail/Smiley/smiley-throw-up">
    <path id="Union" fill="#000000" fill-rule="evenodd" d="M4.285714285714286 24c0 -10.887908571428571 8.826377142857142 -19.71428571428571 19.71428571428571 -19.71428571428571 10.887771428571428 0 19.71428571428571 8.826377142857142 19.71428571428571 19.71428571428571 0 4.622914285714285 -1.5884571428571428 8.868891428571429 -4.251085714285714 12.2304 -0.734742857142857 0.9274285714285715 -0.5787428571428571 2.2752 0.3490285714285714 3.0102857142857142 0.9277714285714286 0.734742857142857 2.275542857142857 0.5783999999999999 3.0102857142857142 -0.34937142857142856C46.063542857142856 34.8 48 29.623131428571426 48 24c0 -13.254822857142857 -10.745142857142856 -24 -24 -24 -13.254822857142857 0 -24 10.745177142857143 -24 24 0 5.623131428571428 1.9365017142857142 10.799999999999999 5.177417142857143 14.891314285714286 0.7348457142857142 0.9277714285714286 2.082582857142857 1.0841142857142856 3.0102857142857142 0.34937142857142856 0.9276685714285713 -0.7350857142857142 1.0840114285714286 -2.0828571428571427 0.34916571428571425 -3.0102857142857142C5.874274285714286 32.86889142857142 4.285714285714286 28.622914285714284 4.285714285714286 24Zm9.716468571428571 -12.425279999999999c1.1816571428571427 -0.7877485714285714 2.7781714285714285 -0.46844571428571424 3.5659542857142856 0.7131771428571428l3.4285714285714284 5.142857142857142c0.5260457142857143 0.7890857142857142 0.5750742857142856 1.8036342857142855 0.12761142857142857 2.6397257142857145C20.676822857142856 20.906605714285714 19.805485714285712 21.428571428571427 18.857142857142858 21.428571428571427h-6.857142857142857c-1.4201485714285715 0 -2.571428571428571 -1.1512799999999999 -2.571428571428571 -2.571428571428571s1.1512799999999999 -2.571428571428571 2.571428571428571 -2.571428571428571h2.0523771428571425l-0.7633714285714285 -1.1450399999999998c-0.7877485714285714 -1.1816571428571427 -0.46844571428571424 -2.7781714285714285 0.7131771428571428 -3.5659542857142856ZM34.710857142857144 15.140674285714285c0.7878857142857143 -1.1816571428571427 0.4686857142857142 -2.7781714285714285 -0.7130399999999999 -3.5659542857142856 -1.1816571428571427 -0.7877485714285714 -2.7781714285714285 -0.46844571428571424 -3.5659542857142856 0.7131771428571428l-3.4285714285714284 5.142857142857142c-0.5260457142857143 0.7890857142857142 -0.5750742857142856 1.8036342857142855 -0.12761142857142857 2.6397257142857145 0.4474971428571428 0.8361257142857142 1.3188342857142856 1.3580914285714285 2.267177142857143 1.3580914285714285h6.857142857142857c1.4201142857142857 0 2.571428571428571 -1.1512799999999999 2.571428571428571 -2.571428571428571s-1.1513142857142855 -2.571428571428571 -2.571428571428571 -2.571428571428571h-2.0523771428571425l0.7632342857142856 -1.1450399999999998ZM24 25.71428571428571c-3.5248457142857146 0 -11.232788571428571 1.36056 -10.462114285714286 9.233485714285713 0.06870857142857142 0.7021714285714286 0.6863999999999999 1.2082285714285714 1.3916914285714286 1.2082285714285714h2.5390285714285716c-0.010559999999999998 2.693142857142857 -2.313531428571429 4.095428571428571 -4.308651428571428 5.3105142857142855C11.63262857142857 42.39668571428572 10.285714285714285 43.21714285714285 10.285714285714285 44.422285714285714 10.285714285714285 44.422285714285714 10.876457142857141 48 24 48s13.714285714285714 -3.577714285714286 13.714285714285714 -3.577714285714286c0 -1.205142857142857 -1.3470857142857142 -2.0256 -2.8741714285714286 -2.9557714285714285 -1.995188571428571 -1.215085714285714 -4.29816 -2.6173714285714285 -4.30872 -5.3105142857142855h2.5390285714285716c0.7052914285714286 0 1.3229485714285714 -0.5060571428571429 1.3915199999999999 -1.2082285714285714C35.23268571428571 27.07484571428571 27.52484571428571 25.71428571428571 24 25.71428571428571Z" clip-rule="evenodd" stroke-width="3.4286"></path>
  </g>
</svg>