<svg xmlns="http://www.w3.org/2000/svg" fill="none" viewBox="0 0 48 48" id="Smiley-Kiss--Streamline-Core-Remix" height="48" width="48">
  <desc>
    Smiley Kiss Streamline Icon: https://streamlinehq.com
  </desc>
  <g id="Free Remix/Mail/Mail/Smiley/smiley-kiss">
    <path id="Union" fill="#000000" fill-rule="evenodd" d="M4.285714285714286 24c0 -10.887908571428571 8.826377142857142 -19.71428571428571 19.71428571428571 -19.71428571428571 10.887771428571428 0 19.71428571428571 8.826377142857142 19.71428571428571 19.71428571428571 0 10.887771428571428 -8.826514285714284 19.71428571428571 -19.71428571428571 19.71428571428571 -10.887908571428571 0 -19.71428571428571 -8.826514285714284 -19.71428571428571 -19.71428571428571ZM24 0C10.745177142857143 0 0 10.745177142857143 0 24c0 13.254857142857142 10.745177142857143 24 24 24 13.254857142857142 0 24 -10.745142857142856 24 -24 0 -13.254822857142857 -10.745142857142856 -24 -24 -24ZM16.285714285714285 21.428571428571427c-1.8935314285714284 0 -3.4285714285714284 -1.53504 -3.4285714285714284 -3.4285714285714284s1.53504 -3.4285714285714284 3.4285714285714284 -3.4285714285714284 3.4285714285714284 1.53504 3.4285714285714284 3.4285714285714284 -1.53504 3.4285714285714284 -3.4285714285714284 3.4285714285714284Zm9.052217142857142 0.06277714285714285c-1.3878171428571426 -0.3014057142857143 -2.7571885714285713 0.5792571428571428 -3.058594285714286 1.9670742857142856 -0.30144 1.3878171428571426 0.5792571428571428 2.7571885714285713 1.9670742857142856 3.058594285714286l1.531097142857143 0.33253714285714286c0.10319999999999999 0.02242285714285714 0.15336 0.06037714285714286 0.18466285714285713 0.0924 0.039085714285714286 0.03994285714285714 0.07676571428571428 0.10203428571428572 0.096 0.18246857142857142s0.013748571428571426 0.15284571428571428 -0.003017142857142857 0.20616c-0.013439999999999999 0.04272 -0.04097142857142857 0.09925714285714285 -0.12287999999999999 0.16597714285714285l-1.2639771428571427 1.0294285714285714c-0.5995885714285715 0.4883314285714285 -0.9475542857142857 1.2205371428571428 -0.9475542857142857 1.9938171428571427 0 0.77328 0.34796571428571427 1.505485714285714 0.9475542857142857 1.9938171428571427l1.2639771428571427 1.0294628571428572c0.08190857142857143 0.06668571428571428 0.10943999999999998 0.12322285714285713 0.12287999999999999 0.16594285714285714 0.016765714285714287 0.053348571428571426 0.02225142857142857 0.12572571428571427 0.003017142857142857 0.20616s-0.05691428571428571 0.14252571428571428 -0.096 0.18250285714285713c-0.03130285714285714 0.03198857142857143 -0.08142857142857142 0.06994285714285714 -0.18466285714285713 0.09236571428571427l-1.531097142857143 0.3325714285714286c-1.3878171428571426 0.30137142857142857 -2.2685142857142853 1.670742857142857 -1.9670742857142856 3.0586285714285713 0.3014057142857143 1.3878857142857142 1.6707771428571427 2.2683428571428568 3.058594285714286 1.9669714285714284l1.531097142857143 -0.3325714285714286c4.056857142857142 -0.8811428571428571 5.581131428571429 -5.626765714285714 3.2472 -8.695851428571428 2.3339314285714283 -3.069085714285714 0.8096228571428571 -7.814845714285713 -3.2472 -8.69592l-1.531097142857143 -0.33253714285714286ZM31.71428571428571 21.428571428571427c-1.893565714285714 0 -3.4285714285714284 -1.53504 -3.4285714285714284 -3.4285714285714284s1.535005714285714 -3.4285714285714284 3.4285714285714284 -3.4285714285714284 3.4285714285714284 1.53504 3.4285714285714284 3.4285714285714284 -1.535005714285714 3.4285714285714284 -3.4285714285714284 3.4285714285714284Z" clip-rule="evenodd" stroke-width="3.4286"></path>
  </g>
</svg>