<svg xmlns="http://www.w3.org/2000/svg" fill="none" viewBox="0 0 48 48" id="Smiley-Laughing-3--Streamline-Core-Remix" height="48" width="48">
  <desc>
    Smiley Laughing 3 Streamline Icon: https://streamlinehq.com
  </desc>
  <g id="Free Remix/Mail/Mail/Smiley/smiley-laughing-3">
    <path id="Union" fill="#000000" fill-rule="evenodd" d="M4.285714285714286 24c0 -10.887908571428571 8.826377142857142 -19.71428571428571 19.71428571428571 -19.71428571428571 10.887771428571428 0 19.71428571428571 8.826377142857142 19.71428571428571 19.71428571428571 0 10.887771428571428 -8.826514285714284 19.71428571428571 -19.71428571428571 19.71428571428571 -10.887908571428571 0 -19.71428571428571 -8.826514285714284 -19.71428571428571 -19.71428571428571ZM24 0C10.745177142857143 0 0 10.745177142857143 0 24c0 13.254857142857142 10.745177142857143 24 24 24 13.254857142857142 0 24 -10.745142857142856 24 -24 0 -13.254822857142857 -10.745142857142856 -24 -24 -24Zm6.248639999999999 10.614754285714286c0.3675771428571428 -1.3717714285714286 -0.44650285714285715 -2.7817714285714286 -1.8182742857142855 -3.1493485714285714 -1.3717714285714286 -0.3675771428571428 -2.7817714285714286 0.44650285714285715 -3.1493485714285714 1.8182742857142855l-1.882422857142857 7.02528c-0.26917714285714284 1.004605714285714 0.09332571428571429 2.0724342857142855 0.9184457142857143 2.7055885714285712 0.82512 0.6331199999999999 1.9503771428571428 0.7069028571428572 2.8510971428571428 0.18685714285714283l5.938457142857143 -3.4285714285714284c1.229862857142857 -0.7100571428571428 1.6512342857142857 -2.282742857142857 0.9412114285714285 -3.51264 -0.7100914285714285 -1.2298971428571428 -2.282742857142857 -1.6512685714285713 -3.51264 -0.9412114285714285l-0.5621828571428571 0.3245828571428571 0.2756571428571428 -1.0288114285714285Zm5.751017142857143 10.41078857142857c2.1901714285714284 5.453211428571428 0.09462857142857142 11.828125714285715 -5.1424457142857145 14.851714285714287 -5.236971428571429 3.0236571428571426 -11.805668571428571 1.6511999999999998 -15.433097142857141 -2.9725028571428567 -0.5843999999999999 -0.7448914285714285 -0.29451428571428573 -1.803565714285714 0.5254285714285714 -2.276948571428571l17.815371428571428 -10.285714285714285c0.8197714285714286 -0.47341714285714287 1.8815999999999997 -0.19508571428571428 2.2347428571428574 0.6834514285714285Zm-28.534011428571425 -1.4561485714285713c0.3675771428571428 -1.3717714285714286 1.777577142857143 -2.1858514285714286 3.1493485714285714 -1.8182742857142855l7.02528 1.882422857142857c1.004605714285714 0.26917714285714284 1.7481257142857143 1.1170285714285713 1.8838971428571427 2.1481714285714286 0.13573714285714286 1.0311428571428571 -0.3630171428571428 2.042537142857143 -1.2637371428571427 2.562548571428571l-5.938457142857143 3.4285714285714284c-1.2298971428571428 0.7100914285714285 -2.8025485714285714 0.28868571428571427 -3.51264 -0.9412114285714285 -0.7100571428571428 -1.2298971428571428 -0.28868571428571427 -2.8025485714285714 0.9412114285714285 -3.51264l0.5621828571428571 -0.3245828571428571 -1.0288114285714285 -0.2756571428571428c-1.3717714285714286 -0.3675771428571428 -2.1858514285714286 -1.777577142857143 -1.8182742857142855 -3.1493485714285714Z" clip-rule="evenodd" stroke-width="3.4286"></path>
  </g>
</svg>