<svg xmlns="http://www.w3.org/2000/svg" fill="none" viewBox="0 0 48 48" id="Smiley-Cool--Streamline-Core-Remix" height="48" width="48">
  <desc>
    Smiley Cool Streamline Icon: https://streamlinehq.com
  </desc>
  <g id="Free Remix/Mail/Mail/Smiley/smiley-cool">
    <path id="Union" fill="#000000" fill-rule="evenodd" d="M12.857142857142856 29.142857142857142c-3.247028571428571 0 -6.212914285714286 -1.2036685714285713 -8.47584 -3.18912C5.362217142857142 35.924571428571426 13.771405714285713 43.714285714285715 24 43.714285714285715s18.637714285714285 -7.789714285714284 19.61862857142857 -17.76054857142857c-2.262857142857143 1.9854514285714284 -5.228914285714285 3.18912 -8.475771428571429 3.18912 -4.763074285714286 0 -8.921211428571429 -2.5900457142857145 -11.142857142857142 -6.438548571428571C21.778354285714286 26.552811428571427 17.620217142857143 29.142857142857142 12.857142857142856 29.142857142857142Zm26.785371428571427 -17.142857142857142H8.35734857142857C11.96118857142857 7.309234285714286 17.627485714285715 4.285714285714286 24 4.285714285714286c6.372514285714285 0 12.038742857142855 3.0235199999999995 15.642514285714286 7.7142857142857135Zm5.146628571428572 0C40.63954285714285 4.8264 32.88339428571428 0 24 0S7.360491428571428 4.8264 3.2107714285714284 12H1.7142857142857142c-0.9467725714285714 0 -1.7142857142857142 0.76752 -1.7142857142857142 1.7142857142857142v2.571428571428571c0 1.1228571428571428 0.14394308571428568 2.2121142857142857 0.414384 3.25032C0.1423117714285714 20.982411428571428 0 22.474594285714286 0 24c0 13.254857142857142 10.745177142857143 24 24 24 13.254857142857142 0 24 -10.745142857142856 24 -24 0 -1.5254057142857143 -0.1422857142857143 -3.017588571428571 -0.41451428571428567 -4.4639999999999995 0.2705142857142857 -1.0381714285714285 0.41451428571428567 -2.1273942857142853 0.41451428571428567 -3.250285714285714V13.714285714285714c0 -0.9467657142857142 -0.7676571428571428 -1.7142857142857142 -1.7142857142857142 -1.7142857142857142h-1.4965714285714284Zm-11.459314285714285 23.454514285714286c0.79992 -1.1734971428571428 0.4970742857142857 -2.7732342857142855 -0.6763885714285715 -3.57312 -1.1734628571428571 -0.7998857142857143 -2.7731999999999997 -0.4970742857142857 -3.573085714285714 0.6763885714285715 -0.3334285714285714 0.48912 -0.8270742857142857 1.0153714285714286 -1.3920000000000001 1.4476114285714283 -0.5263542857142857 0.40271999999999997 -1.1186057142857142 0.72672 -1.6550057142857142 0.9269485714285713 -0.26509714285714286 0.09874285714285713 -0.48860571428571425 0.15668571428571426 -0.6599657142857143 0.18514285714285714 -0.14468571428571428 0.024 -0.21812571428571426 0.021257142857142856 -0.23015999999999998 0.020914285714285715l0.0014399999999999999 0.00034285714285714285c-1.4070514285714284 -0.19268571428571427 -2.70384 0.7916571428571428 -2.8964914285714283 2.198742857142857 -0.19265142857142856 1.4070857142857143 0.7917942857142857 2.7037714285714283 2.198845714285714 2.896457142857143 1.1869371428571427 0.1625142857142857 2.398148571428571 -0.11554285714285714 3.3829371428571426 -0.48274285714285714 1.0321714285714285 -0.3850285714285714 2.069588571428571 -0.9620571428571428 2.9836114285714284 -1.661485714285714 0.9749485714285714 -0.7460571428571428 1.8561599999999998 -1.6669714285714285 2.516262857142857 -2.6351999999999998Z" clip-rule="evenodd" stroke-width="3.4286"></path>
  </g>
</svg>