<svg xmlns="http://www.w3.org/2000/svg" fill="none" viewBox="0 0 48 48" id="Smiley-In-Love--Streamline-Core-Remix" height="48" width="48">
  <desc>
    Smiley In Love Streamline Icon: https://streamlinehq.com
  </desc>
  <g id="Free Remix/Mail/Mail/Smiley/smiley-in-love">
    <path id="Union" fill="#000000" fill-rule="evenodd" d="M30.185382857142855 5.274959999999999C28.242754285714284 4.633645714285714 26.16414857142857 4.285714285714286 24 4.285714285714286s-4.242754285714286 0.34793142857142856 -6.185382857142857 0.9892457142857143c-1.1238171428571428 0.37100571428571427 -2.3356114285714287 -0.23928 -2.7066171428571426 -1.3630971428571428 -0.37097142857142856 -1.123813714285714 0.23928 -2.3356011428571426 1.3630971428571428 -2.7065965714285714C18.841782857142856 0.42264342857142856 21.37368 0 24 0c2.6263199999999998 0 5.158217142857143 0.42264342857142856 7.528902857142858 1.2052662857142857 1.1238171428571428 0.37099542857142853 1.7340685714285715 1.582782857142857 1.3630971428571428 2.7065965714285714 -0.37100571428571427 1.1238171428571428 -1.5828 1.7341028571428572 -2.7066171428571426 1.3630971428571428ZM43.714285714285715 24c0 -1.1834742857142857 0.9593142857142857 -2.142857142857143 2.142857142857143 -2.142857142857143S48 22.816525714285714 48 24c0 13.254857142857142 -10.745142857142856 24 -24 24 -13.254822857142857 0 -24 -10.745142857142856 -24 -24 0 -1.1834742857142857 0.9593897142857143 -2.142857142857143 2.142857142857143 -2.142857142857143s2.142857142857143 0.9593828571428571 2.142857142857143 2.142857142857143c0 10.887771428571428 8.826377142857142 19.71428571428571 19.71428571428571 19.71428571428571 10.887771428571428 0 19.71428571428571 -8.826514285714284 19.71428571428571 -19.71428571428571Zm-5.571428571428571 -15.314811428571428c0.8101714285714285 -0.8122285714285714 1.6553142857142857 -1.3459885714285713 2.511085714285714 -1.6176342857142856 1.104342857142857 -0.35057142857142853 2.1689142857142856 -0.24500571428571427 3.0864 0.18250285714285713 1.7958857142857143 0.8369142857142857 2.9437714285714285 2.851337142857143 2.9739428571428568 4.88232v0.01265142857142857c0 2.9417142857142853 -1.7458285714285713 5.523085714285714 -3.5588571428571427 7.313039999999999 -0.9185142857142857 0.9067542857142856 -1.8891428571428572 1.6458857142857142 -2.7390857142857143 2.163702857142857 -0.4244571428571428 0.2586857142857143 -0.8303999999999999 0.46919999999999995 -1.1948571428571426 0.6177942857142856 -0.34217142857142857 0.13974857142857142 -0.7254857142857143 0.2576228571428571 -1.0786285714285713 0.2576228571428571 -0.3531428571428571 0 -0.7364571428571428 -0.11787428571428571 -1.0786285714285713 -0.2576228571428571 -0.36445714285714287 -0.1485942857142857 -0.7704 -0.3591085714285714 -1.1948571428571426 -0.6177942857142856 -0.8499428571428571 -0.5178171428571429 -1.8204 -1.2569485714285713 -2.7389142857142854 -2.163702857142857C31.317325714285708 17.668114285714285 29.57142857142857 15.086742857142855 29.57132571428571 12.14502857142857l0.00020571428571428572 -0.01265142857142857c0.030000000000000002 -2.030982857142857 1.177817142857143 -4.045405714285714 2.9738742857142855 -4.88232 0.9174171428571427 -0.4275085714285714 1.982022857142857 -0.5330742857142857 3.0863657142857144 -0.18250285714285713 0.8557714285714285 0.27164571428571427 1.7009142857142856 0.8054057142857143 2.511085714285714 1.6176342857142856ZM33.03846857142857 26.695062857142855c0.40508571428571427 -1.3611428571428572 1.83696 -2.1361714285714286 3.198102857142857 -1.7310857142857143 1.3611428571428572 0.40508571428571427 2.136342857142857 1.836925714285714 1.7310857142857143 3.198102857142857C36.17691428571428 34.17925714285714 30.60469714285714 38.57142857142857 24 38.57142857142857c-6.604731428571428 0 -12.176879999999999 -4.392171428571428 -13.967657142857142 -10.409348571428572 -0.40512 -1.3611771428571426 0.3699085714285714 -2.7930171428571424 1.7310857142857143 -3.198102857142857 1.3611428571428572 -0.40508571428571427 2.792982857142857 0.36994285714285713 3.198102857142857 1.7310857142857143C16.12117714285714 30.59156571428571 19.73262857142857 33.42857142857142 24 33.42857142857142c4.267371428571429 0 7.878822857142857 -2.837005714285714 9.03846857142857 -6.733508571428571ZM7.345988571428571 7.0675542857142855c0.8558057142857143 0.27164571428571427 1.701085714285714 0.8054057142857143 2.5111542857142855 1.6176342857142856 0.8100685714285714 -0.8122285714285714 1.6553485714285714 -1.3459885714285713 2.5111542857142855 -1.6176342857142856 1.104342857142857 -0.35057142857142853 2.1688799999999997 -0.24500571428571427 3.0862971428571426 0.18250285714285713 1.7960571428571428 0.8369142857142857 2.9438742857142857 2.851337142857143 2.9738742857142855 4.88232l0.00020571428571428572 0.01265142857142857c-0.00010285714285714286 2.9417142857142853 -1.7459999999999998 5.523085714285714 -3.559131428571428 7.313039999999999 -0.9185142857142857 0.9067542857142856 -1.8889714285714287 1.6458857142857142 -2.73888 2.163702857142857 -0.42455999999999994 0.2586857142857143 -0.8306057142857143 0.46919999999999995 -1.1947542857142857 0.6177942857142856 -0.34248 0.13974857142857142 -0.7256228571428571 0.2576228571428571 -1.078765714285714 0.2576228571428571 -0.3531428571428571 0 -0.73632 -0.11787428571428571 -1.0788 -0.2576228571428571 -0.3641485714285714 -0.1485942857142857 -0.77016 -0.3591085714285714 -1.1947542857142857 -0.6177942857142856 -0.8498742857142856 -0.5178171428571429 -1.8203657142857141 -1.2569485714285713 -2.738845714285714 -2.163702857142857C3.0316011428571428 17.668114285714285 1.2857142857142856 15.086742857142855 1.2857142857142856 12.14502857142857v-0.01265142857142857l0.00009599999999999999 0c0.030017142857142857 -2.030982857142857 1.1778034285714285 -4.045405714285714 2.9738811428571426 -4.88232 0.9174171428571427 -0.4275085714285714 1.98192 -0.5330742857142857 3.0862971428571426 -0.18250285714285713Z" clip-rule="evenodd" stroke-width="3.4286"></path>
  </g>
</svg>