<svg xmlns="http://www.w3.org/2000/svg" fill="none" viewBox="0 0 48 48" id="Smiley-Surprised--Streamline-Core-Remix" height="48" width="48">
  <desc>
    Smiley Surprised Streamline Icon: https://streamlinehq.com
  </desc>
  <g id="Free Remix/Mail/Mail/Smiley/smiley-surprised">
    <path id="Union" fill="#000000" fill-rule="evenodd" d="M4.285714285714286 24c0 -10.887908571428571 8.826377142857142 -19.71428571428571 19.71428571428571 -19.71428571428571 10.887771428571428 0 19.71428571428571 8.826377142857142 19.71428571428571 19.71428571428571 0 10.887771428571428 -8.826514285714284 19.71428571428571 -19.71428571428571 19.71428571428571 -10.887908571428571 0 -19.71428571428571 -8.826514285714284 -19.71428571428571 -19.71428571428571ZM24 0C10.745177142857143 0 0 10.745177142857143 0 24c0 13.254857142857142 10.745177142857143 24 24 24 13.254857142857142 0 24 -10.745142857142856 24 -24 0 -13.254822857142857 -10.745142857142856 -24 -24 -24ZM16.285714285714285 19.71428571428571c-1.8935314285714284 0 -3.4285714285714284 -1.53504 -3.4285714285714284 -3.4285714285714284s1.53504 -3.4285714285714284 3.4285714285714284 -3.4285714285714284 3.4285714285714284 1.53504 3.4285714285714284 3.4285714285714284 -1.53504 3.4285714285714284 -3.4285714285714284 3.4285714285714284Zm0.8571428571428571 10.285714285714285c0 -4.003028571428572 2.8316571428571424 -7.7142857142857135 6.857142857142857 -7.7142857142857135 4.025485714285714 0 6.857142857142857 3.7112571428571424 6.857142857142857 7.7142857142857135S28.02548571428571 37.714285714285715 24 37.714285714285715c-4.025485714285714 0 -6.857142857142857 -3.7112571428571424 -6.857142857142857 -7.7142857142857135Zm14.571428571428571 -10.285714285714285c-1.893565714285714 0 -3.4285714285714284 -1.53504 -3.4285714285714284 -3.4285714285714284s1.535005714285714 -3.4285714285714284 3.4285714285714284 -3.4285714285714284 3.4285714285714284 1.53504 3.4285714285714284 3.4285714285714284 -1.535005714285714 3.4285714285714284 -3.4285714285714284 3.4285714285714284Z" clip-rule="evenodd" stroke-width="3.4286"></path>
  </g>
</svg>