<svg xmlns="http://www.w3.org/2000/svg" fill="none" viewBox="0 0 48 48" id="Smiley-Emoji-Terrified--Streamline-Core-Remix" height="48" width="48">
  <desc>
    Smiley Emoji Terrified Streamline Icon: https://streamlinehq.com
  </desc>
  <g id="Free Remix/Mail/Mail/Smiley/smiley-emoji-terrified">
    <path id="Union" fill="#000000" fill-rule="evenodd" d="M4.285714285714286 24c0 -10.887908571428571 8.826377142857142 -19.71428571428571 19.71428571428571 -19.71428571428571 10.887771428571428 0 19.71428571428571 8.826377142857142 19.71428571428571 19.71428571428571 0 10.887771428571428 -8.826514285714284 19.71428571428571 -19.71428571428571 19.71428571428571 -10.887908571428571 0 -19.71428571428571 -8.826514285714284 -19.71428571428571 -19.71428571428571ZM24 0C10.745177142857143 0 0 10.745177142857143 0 24c0 13.254857142857142 10.745177142857143 24 24 24 13.254857142857142 0 24 -10.745142857142856 24 -24 0 -13.254822857142857 -10.745142857142856 -24 -24 -24ZM13.542857142857143 11.657142857142857c-1.1361257142857142 -0.852102857142857 -2.7478971428571426 -0.62184 -3.6 0.5142857142857142 -0.852102857142857 1.1361257142857142 -0.62184 2.7478971428571426 0.5142857142857142 3.6l3.5286171428571427 2.646445714285714 -3.135737142857143 1.567885714285714c-1.2702171428571427 0.6351085714285714 -1.785085714285714 2.1797142857142857 -1.1499771428571428 3.4499314285714284 0.6351085714285714 1.2702171428571427 2.1797142857142857 1.785085714285714 3.4499314285714284 1.1499771428571428l6.857142857142857 -3.4285714285714284c0.7971085714285714 -0.3985714285714286 1.33104 -1.1814171428571427 1.411062857142857 -2.0690399999999998 0.08002285714285713 -0.8875885714285714 -0.3052114285714286 -1.7533371428571427 -1.018182857142857 -2.288057142857143l-6.857142857142857 -5.142857142857142Zm24 4.114285714285714c1.1362285714285714 -0.852102857142857 1.3662857142857143 -2.4638742857142857 0.5142857142857142 -3.6 -0.852 -1.1361257142857142 -2.4637714285714285 -1.3663885714285713 -3.6 -0.5142857142857142l-6.857142857142857 5.142857142857142c-0.7129714285714285 0.53472 -1.0982057142857142 1.4004685714285714 -1.018182857142857 2.288057142857143 0.08002285714285713 0.8876228571428572 0.6139542857142857 1.6704685714285712 1.411062857142857 2.0690399999999998l6.857177142857143 3.4285714285714284c1.2702857142857142 0.6351085714285714 2.8148571428571425 0.12023999999999999 3.4498285714285712 -1.1499771428571428 0.6353142857142856 -1.2702171428571427 0.12034285714285714 -2.814822857142857 -1.149942857142857 -3.4499314285714284l-3.135702857142857 -1.567885714285714L37.54285714285714 15.771428571428569Zm-19.970879999999998 21.64902857142857 0.00023999999999999998 -0.00034285714285714285 0.0015085714285714286 -0.0024 0.009497142857142857 -0.014057142857142858 0.042377142857142856 -0.06342857142857142c0.03836571428571429 -0.05691428571428571 0.09651428571428572 -0.1426285714285714 0.17245714285714284 -0.25302857142857144 0.15198857142857142 -0.22148571428571429 0.3744342857142857 -0.5410285714285714 0.6510171428571428 -0.9257142857142857 0.5557028571428572 -0.7731428571428571 1.3179771428571427 -1.7931428571428571 2.1578057142857143 -2.8035085714285715 0.8518285714285714 -1.024697142857143 1.7261485714285714 -1.969782857142857 2.50512 -2.636297142857143 0.37371428571428567 -0.3197485714285714 0.6716914285714285 -0.5285485714285714 0.888 -0.6495085714285714 0.2163085714285714 0.12095999999999998 0.5142857142857142 0.32976 0.888 0.6495085714285714 0.7789714285714285 0.6665142857142856 1.6532914285714286 1.6116 2.50512 2.636297142857143 0.8398285714285714 1.0103657142857143 1.6021371428571427 2.0303657142857143 2.1578057142857143 2.8035085714285715 0.27658285714285713 0.38468571428571424 0.49902857142857143 0.7042285714285714 0.6510171428571428 0.9257142857142857 0.07594285714285713 0.1104 0.13409142857142856 0.1961142857142857 0.17245714285714284 0.25302857142857144l0.042377142857142856 0.06342857142857142 0.009497142857142857 0.014057142857142858 0.0015085714285714286 0.0024 0.00023999999999999998 0.00034285714285714285c0.7844571428571429 1.183542857142857 2.3798399999999997 1.5071999999999999 3.563622857142857 0.7230857142857142 1.1837828571428572 -0.7844571428571429 1.507782857142857 -2.380114285714286 0.7233257142857142 -3.564l-2.1435428571428568 1.4201142857142857c2.1435428571428568 -1.4201142857142857 2.1435428571428568 -1.4204571428571429 2.1431999999999998 -1.4207999999999998l-0.00034285714285714285 -0.0006857142857142857 -0.0017142857142857142 -0.0020571428571428568 -0.0041142857142857136 -0.006857142857142857 -0.015085714285714286 -0.022285714285714284 -0.05382857142857142 -0.08022857142857143c-0.046285714285714284 -0.06857142857142857 -0.11279999999999998 -0.16697142857142858 -0.1978285714285714 -0.29074285714285714 -0.16995428571428572 -0.24740571428571428 -0.41375999999999996 -0.5974971428571428 -0.7147542857142857 -1.0162628571428571 -0.5994171428571429 -0.8339657142857143 -1.4376 -1.9568571428571426 -2.378982857142857 -3.0893142857142855 -0.9294514285714285 -1.1181257142857144 -2.017165714285714 -2.315862857142857 -3.1165371428571427 -3.2564571428571427 -0.5496342857142857 -0.47026285714285715 -1.16064 -0.9271199999999999 -1.8066171428571427 -1.2774857142857141C25.80558857142857 25.200651428571426 24.96301714285714 24.857142857142854 24 24.857142857142854c-0.9630171428571429 0 -1.8055885714285715 0.34350857142857144 -2.424822857142857 0.6793371428571429 -0.6459771428571428 0.3503657142857143 -1.2569828571428572 0.8072228571428571 -1.8066171428571427 1.2774857142857141 -1.0993714285714284 0.9405942857142856 -2.1870857142857143 2.1383314285714285 -3.1165371428571427 3.2564571428571427 -0.9413828571428571 1.1324571428571428 -1.779565714285714 2.2553485714285713 -2.378982857142857 3.0893142857142855 -0.3009942857142857 0.41876571428571424 -0.5448000000000001 0.7688571428571428 -0.7146514285714285 1.0162628571428571 -0.0849942857142857 0.12377142857142856 -0.15164571428571427 0.22217142857142855 -0.19789714285714285 0.29074285714285714l-0.05382857142857142 0.08022857142857143 -0.014982857142857142 0.022285714285714284 -0.0044228571428571424 0.006857142857142857 -0.0014399999999999999 0.0020571428571428568 -0.0005142857142857142 0.0006857142857142857c-0.00020571428571428572 0.00034285714285714285 -0.00037714285714285714 0.0006857142857142857 2.1432685714285715 1.4207999999999998l-2.143645714285714 -1.4201142857142857c-0.7843542857142857 1.1838857142857142 -0.46045714285714284 2.779542857142857 0.7234285714285713 3.564 1.1837828571428572 0.7841142857142857 2.7791657142857145 0.46045714285714284 3.563622857142857 -0.7230857142857142Z" clip-rule="evenodd" stroke-width="3.4286"></path>
  </g>
</svg>