<svg xmlns="http://www.w3.org/2000/svg" fill="none" viewBox="0 0 48 48" id="Smiley-Sparks--Streamline-Core-Remix" height="48" width="48">
  <desc>
    Smiley Sparks Streamline Icon: https://streamlinehq.com
  </desc>
  <g id="Free Remix/Mail/Mail/Smiley/smiley-sparks">
    <path id="Union" fill="#000000" fill-rule="evenodd" d="M4.285714285714286 24c0 -10.887908571428571 8.826377142857142 -19.71428571428571 19.71428571428571 -19.71428571428571 10.887771428571428 0 19.71428571428571 8.826377142857142 19.71428571428571 19.71428571428571 0 10.887771428571428 -8.826514285714284 19.71428571428571 -19.71428571428571 19.71428571428571 -10.887908571428571 0 -19.71428571428571 -8.826514285714284 -19.71428571428571 -19.71428571428571ZM24 0C10.745177142857143 0 0 10.745177142857143 0 24c0 13.254857142857142 10.745177142857143 24 24 24 13.254857142857142 0 24 -10.745142857142856 24 -24 0 -13.254822857142857 -10.745142857142856 -24 -24 -24ZM18.857142857142858 12c0 -1.4201485714285715 -1.1512799999999999 -2.571428571428571 -2.571428571428571 -2.571428571428571S13.714285714285714 10.579851428571427 13.714285714285714 12V13.714285714285714h-1.7142857142857142c-1.4201485714285715 0 -2.571428571428571 1.1512799999999999 -2.571428571428571 2.571428571428571s1.1512799999999999 2.571428571428571 2.571428571428571 2.571428571428571H13.714285714285714V20.57142857142857c0 1.4201485714285715 1.1512799999999999 2.571428571428571 2.571428571428571 2.571428571428571s2.571428571428571 -1.1512799999999999 2.571428571428571 -2.571428571428571v-1.7142857142857142H20.57142857142857c1.4201485714285715 0 2.571428571428571 -1.1512799999999999 2.571428571428571 -2.571428571428571S21.991577142857142 13.714285714285714 20.57142857142857 13.714285714285714h-1.7142857142857142v-1.7142857142857142ZM12.561977142857142 29.782594285714286c-0.31611428571428574 -0.9943199999999999 0.49319999999999997 -1.9254514285714286 1.5365485714285714 -1.9254514285714286h19.80305142857143c1.0434514285714285 0 1.8525942857142859 0.9311314285714285 1.5364799999999998 1.9254514285714286C33.89681142857143 34.630628571428566 29.358617142857142 38.14285714285714 24.00006857142857 38.14285714285714s-9.896777142857141 -3.512228571428571 -11.438091428571429 -8.360262857142857ZM34.285714285714285 12c0 -1.4201485714285715 -1.1512799999999999 -2.571428571428571 -2.571428571428571 -2.571428571428571s-2.571428571428571 1.1512799999999999 -2.571428571428571 2.571428571428571V13.714285714285714H27.428571428571427c-1.4201485714285715 0 -2.571428571428571 1.1512799999999999 -2.571428571428571 2.571428571428571s1.1512799999999999 2.571428571428571 2.571428571428571 2.571428571428571h1.7142857142857142V20.57142857142857c0 1.4201485714285715 1.1512799999999999 2.571428571428571 2.571428571428571 2.571428571428571S34.285714285714285 21.991577142857142 34.285714285714285 20.57142857142857v-1.7142857142857142h1.7142857142857142c1.4201142857142857 0 2.571428571428571 -1.1512799999999999 2.571428571428571 -2.571428571428571S37.420114285714284 13.714285714285714 36 13.714285714285714H34.285714285714285v-1.7142857142857142Z" clip-rule="evenodd" stroke-width="3.4286"></path>
  </g>
</svg>