<svg xmlns="http://www.w3.org/2000/svg" fill="none" viewBox="0 0 48 48" id="Smiley-Happy--Streamline-Core-Remix" height="48" width="48">
  <desc>
    Smiley Happy Streamline Icon: https://streamlinehq.com
  </desc>
  <g id="Free Remix/Mail/Mail/Smiley/smiley-happy">
    <path id="Union" fill="#000000" fill-rule="evenodd" d="M4.285714285714286 24c0 -10.887908571428571 8.826377142857142 -19.71428571428571 19.71428571428571 -19.71428571428571 10.887771428571428 0 19.71428571428571 8.826377142857142 19.71428571428571 19.71428571428571 0 10.887771428571428 -8.826514285714284 19.71428571428571 -19.71428571428571 19.71428571428571 -10.887908571428571 0 -19.71428571428571 -8.826514285714284 -19.71428571428571 -19.71428571428571ZM24 0C10.745177142857143 0 0 10.745177142857143 0 24c0 13.254857142857142 10.745177142857143 24 24 24 13.254857142857142 0 24 -10.745142857142856 24 -24 0 -13.254822857142857 -10.745142857142856 -24 -24 -24ZM16.285714285714285 19.71428571428571c-1.8935314285714284 0 -3.4285714285714284 -1.53504 -3.4285714285714284 -3.4285714285714284s1.53504 -3.4285714285714284 3.4285714285714284 -3.4285714285714284 3.4285714285714284 1.53504 3.4285714285714284 3.4285714285714284 -1.53504 3.4285714285714284 -3.4285714285714284 3.4285714285714284Zm19.5936 7.709211428571429C35.0496 33.24133714285714 30.047142857142855 37.714285714285715 24 37.714285714285715S12.950434285714286 33.24133714285714 12.12078857142857 27.42349714285714C11.987142857142857 26.486194285714284 12.76752 25.71428571428571 13.714285714285714 25.71428571428571h20.57142857142857c0.9466285714285714 0 1.7273142857142858 0.7719085714285714 1.5936 1.7092114285714286ZM35.14285714285714 16.285714285714285c0 -1.8935314285714284 -1.535005714285714 -3.4285714285714284 -3.4285714285714284 -3.4285714285714284s-3.4285714285714284 1.53504 -3.4285714285714284 3.4285714285714284 1.535005714285714 3.4285714285714284 3.4285714285714284 3.4285714285714284 3.4285714285714284 -1.53504 3.4285714285714284 -3.4285714285714284Z" clip-rule="evenodd" stroke-width="3.4286"></path>
  </g>
</svg>