<svg xmlns="http://www.w3.org/2000/svg" fill="none" viewBox="0 0 48 48" id="Smiley-Very-Shocked--Streamline-Core-Remix" height="48" width="48">
  <desc>
    Smiley Very Shocked Streamline Icon: https://streamlinehq.com
  </desc>
  <g id="Free Remix/Mail/Mail/Smiley/smiley-very-shocked">
    <path id="Union" fill="#000000" fill-rule="evenodd" d="M42.42822857142857 21c0 -3.1865142857142854 -0.614742857142857 -5.847017142857142 -1.6868571428571428 -8.03832 0.2598857142857143 0.9044571428571427 0.40114285714285713 1.8793028571428572 0.40114285714285713 2.895462857142857 0 4.733862857142857 -3.069942857142857 8.571428571428571 -6.857074285714286 8.571428571428571 -3.7870971428571427 0 -6.857142857142857 -3.837565714285714 -6.857142857142857 -8.571428571428571s3.070045714285714 -8.571428571428571 6.857142857142857 -8.571428571428571c0.6263314285714285 0 1.2328457142857143 0.10494857142857142 1.8091885714285714 0.3015428571428571C32.94582857142857 5.414879999999999 28.756765714285713 4.285714285714286 23.999725714285713 4.285714285714286s-8.946102857142856 1.1291657142857143 -12.095074285714285 3.3015428571428567c0.5764114285714285 -0.19659428571428572 1.1830971428571428 -0.3015428571428571 1.80936 -0.3015428571428571 3.7870971428571427 0 6.857142857142857 3.837565714285714 6.857142857142857 8.571428571428571s-3.070045714285714 8.571428571428571 -6.857142857142857 8.571428571428571 -6.857142857142857 -3.837565714285714 -6.857142857142857 -8.571428571428571c0 -1.01616 0.14146285714285714 -1.991005714285714 0.40110857142857137 -2.895462857142857 -1.0721485714285712 2.191302857142857 -1.686822857142857 4.851805714285715 -1.686822857142857 8.03832 0 2.525657142857143 0.3721028571428571 4.1737714285714285 1.0557257142857144 5.5695428571428565 0.22892571428571426 -0.0017828571428571427 0.4664914285714285 0.014674285714285713 0.7124571428571429 0.052148571428571426 2.0978742857142856 0.3194742857142857 3.9071999999999996 2.0672571428571427 5.506628571428571 4.881977142857143 1.258662857142857 2.2149942857142855 2.030468571428571 4.493931428571428 2.4770057142857143 6.612102857142857 0.923862857142857 1.2946285714285712 1.8308914285714284 2.362285714285714 2.9712 3.1656 1.2945257142857143 0.9116571428571429 3.0295885714285715 1.5754285714285714 5.705451428571428 1.5754285714285714s4.410959999999999 -0.6637714285714286 5.705485714285714 -1.5754285714285714c1.1403771428571428 -0.8033142857142856 2.047474285714286 -1.8713142857142855 2.97144 -3.165942857142857 0.44657142857142856 -2.1178285714285714 1.2183428571428572 -4.396902857142857 2.4769371428571425 -6.61176 1.5994285714285714 -2.81472 3.408685714285714 -4.5625028571428565 5.506628571428571 -4.881977142857143 0.24582857142857142 -0.03747428571428572 0.4834285714285714 -0.053931428571428575 0.7124571428571429 -0.052148571428571426 0.6836571428571429 -1.3957714285714287 1.0556571428571428 -3.04392 1.0556571428571428 -5.5695428571428565Zm-31.144422857142857 18.81497142857143c-0.007611428571428572 -0.011314285714285714 -0.015222857142857144 -0.022285714285714284 -0.022799999999999997 -0.0336l0.015325714285714285 -0.010285714285714285c-0.33 -1.925142857142857 -0.9795428571428572 -4.078971428571428 -2.156502857142857 -6.150068571428571 -1.4224114285714287 -2.503165714285714 -2.3411314285714284 -2.749577142857143 -2.4257142857142857 -2.7624685714285713 -0.0037028571428571427 -0.0005828571428571429 -0.00456 -0.001577142857142857 -0.005005714285714285 -0.0021257142857142855 -0.00013714285714285713 -0.00013714285714285713 -0.00023999999999999998 -0.00023999999999999998 -0.00034285714285714285 -0.00030857142857142856 -0.0006514285714285715 -0.00027428571428571427 -0.0020228571428571426 0.0010628571428571427 -0.012377142857142856 0.007097142857142856 -0.04621714285714286 0.026811428571428573 -0.1193142857142857 0.09270857142857143 -0.1770857142857143 0.18421714285714286 -0.027394285714285715 0.04337142857142857 -0.05633142857142857 0.08574857142857142 -0.08674285714285714 0.1270285714285714l-0.00041142857142857143 0.0013714285714285714c-0.03723428571428571 0.11794285714285714 -0.09435428571428571 0.3636342857142857 -0.12198857142857142 0.7681714285714285 -0.055268571428571424 0.8084571428571429 0.014879999999999999 2.1383314285714285 0.4824342857142857 4.112914285714285 1.1658514285714285 4.924114285714285 -0.45113142857142857 9.23177142857143 -1.532365714285714 10.944 -0.6318171428571429 1.0008 -1.9552525714285711 1.2997714285714286 -2.955949714285714 0.6678857142857143 -1.000697142857143 -0.6315428571428571 -1.2997302857142856 -1.9549714285714286 -0.6679097142857143 -2.9557714285714285 0.5975691428571428 -0.9466285714285714 1.8345222857142858 -4.084114285714286 0.9858171428571428 -7.668685714285713 -0.539736 -2.279657142857143 -0.6794228571428571 -4.051714285714286 -0.5877805714285714 -5.39256 0.04579885714285714 -0.6701142857142858 0.15131999999999998 -1.260857142857143 0.3108274285714286 -1.7661257142857143 0.11713714285714286 -0.3710742857142857 0.2954125714285714 -0.7991657142857143 0.5785611428571429 -1.1829942857142857C1.8477291428571427 26.65590857142857 1.2854365714285714 24.316491428571428 1.2854365714285714 21c0 -6.983657142857143 2.5352262857142858 -12.330034285714286 6.803557714285715 -15.89142857142857C12.3012 1.594008 17.97870857142857 0 23.999725714285713 0 30.020742857142857 0 35.69828571428572 1.594008 39.91028571428571 5.1085714285714285c4.268571428571429 3.5613942857142855 6.803657142857142 8.907771428571428 6.803657142857142 15.89142857142857 0 3.316491428571428 -0.5622857142857143 5.655908571428571 -1.618285714285714 7.702662857142856 0.2832 0.3838285714285714 0.4614857142857143 0.81192 0.5783999999999999 1.1829942857142857 0.15977142857142856 0.5052685714285714 0.2650285714285714 1.0960114285714286 0.31097142857142857 1.7661257142857143 0.09154285714285715 1.3408457142857142 -0.048 3.112902857142857 -0.5876571428571428 5.39256 -0.8489142857142856 3.5845714285714285 0.3881142857142857 6.7220571428571425 0.9857142857142855 7.668685714285713 0.6318857142857143 1.0008 0.3329142857142857 2.3242285714285713 -0.6678857142857143 2.9557714285714285 -1.0008 0.6318857142857143 -2.3242285714285713 0.3329142857142857 -2.9561142857142855 -0.6678857142857143 -1.0810285714285714 -1.7122285714285714 -2.697942857142857 -6.019885714285714 -1.5322285714285715 -10.944 0.4676571428571428 -1.974582857142857 0.5376 -3.3044571428571428 0.48239999999999994 -4.112914285714285 -0.02777142857142857 -0.4045371428571428 -0.08468571428571428 -0.6502285714285715 -0.12205714285714285 -0.7681714285714285l-0.00034285714285714285 -0.0013714285714285714c-0.030514285714285713 -0.04128 -0.05931428571428571 -0.08365714285714286 -0.08674285714285714 -0.1270285714285714 -0.05759999999999999 -0.09150857142857141 -0.13097142857142854 -0.1574057142857143 -0.17691428571428572 -0.18421714285714286l-0.009257142857142858 -0.005417142857142857 -0.0030857142857142854 -0.0016799999999999999 -0.0006857142857142857 0.00030857142857142856c-0.00034285714285714285 0.0005485714285714285 -0.0010285714285714284 0.0015428571428571427 -0.0048 0.0021257142857142855 -0.08468571428571428 0.012891428571428571 -1.0032 0.2593028571428571 -2.4257142857142857 2.7624685714285713 -1.1770285714285713 2.0710971428571425 -1.8267428571428572 4.224925714285714 -2.1565714285714286 6.150068571428571l0.015085714285714286 0.010285714285714285 -0.022285714285714284 0.03325714285714285c-0.42308571428571423 2.5001142857142855 -0.30788571428571426 4.6093714285714285 -0.11211428571428571 5.643771428571428 0.22011428571428568 1.1626285714285713 -0.5437714285714285 2.2837714285714283 -1.7067428571428571 2.5042285714285715 -1.1626971428571427 0.22011428571428568 -2.2838742857142855 -0.5437714285714285 -2.5040914285714284 -1.7067428571428571 -0.07772571428571427 -0.41005714285714284 -0.14499428571428571 -0.9130285714285713 -0.19008 -1.4917714285714285l-0.029862857142857142 0.020914285714285715c-2.0869371428571424 1.4701714285714285 -4.703657142857142 2.357485714285714 -8.173371428571429 2.357485714285714 -3.4697142857142858 0 -6.086434285714285 -0.8873142857142856 -8.173371428571429 -2.357485714285714 -0.009908571428571428 -0.006857142857142857 -0.01978285714285714 -0.013714285714285714 -0.029691428571428567 -0.020914285714285715 -0.045085714285714285 0.5787428571428571 -0.11235428571428571 1.0817142857142856 -0.19004571428571426 1.4917714285714285 -0.22025142857142857 1.1629714285714285 -1.3414285714285714 1.926857142857143 -2.5041942857142856 1.7067428571428571 -1.1628 -0.22045714285714282 -1.9268914285714285 -1.3416 -1.70664 -2.5042285714285715 0.1958742857142857 -1.0344 0.3111085714285714 -3.1436571428571427 -0.1118742857142857 -5.643428571428571ZM23.999725714285713 26.57142857142857c-1.6568571428571428 0 -3 1.343142857142857 -3 3v6c0 1.6566857142857143 1.343142857142857 3 3 3s3 -1.3433142857142857 3 -3v-6c0 -1.6568571428571428 -1.343142857142857 -3 -3 -3Zm17.56176 4.5348685714285715c0 0.00027428571428571427 0.0024 0.006274285714285714 0.007542857142857143 0.017142857142857144 -0.004457142857142857 -0.012 -0.007199999999999999 -0.01745142857142857 -0.007542857142857143 -0.017142857142857144Zm-35.123691428571426 0c0.00017142857142857143 0.00027428571428571427 -0.00216 0.006274285714285714 -0.007542857142857143 0.017142857142857144 0.004662857142857143 -0.012 0.007371428571428571 -0.01745142857142857 0.007542857142857143 -0.017142857142857144Z" clip-rule="evenodd" stroke-width="3.4286"></path>
  </g>
</svg>