<svg xmlns="http://www.w3.org/2000/svg" fill="none" viewBox="0 0 48 48" id="Smiley-Nauseas--Streamline-Core-Remix" height="48" width="48">
  <desc>
    Smiley Nauseas Streamline Icon: https://streamlinehq.com
  </desc>
  <g id="Free Remix/Mail/Mail/Smiley/smiley-nauseas">
    <path id="Union" fill="#000000" fill-rule="evenodd" d="M4.285714285714286 24c0 -10.887908571428571 8.826377142857142 -19.71428571428571 19.71428571428571 -19.71428571428571 10.887771428571428 0 19.71428571428571 8.826377142857142 19.71428571428571 19.71428571428571 0 10.887771428571428 -8.826514285714284 19.71428571428571 -19.71428571428571 19.71428571428571 -10.887908571428571 0 -19.71428571428571 -8.826514285714284 -19.71428571428571 -19.71428571428571ZM24 0C10.745177142857143 0 0 10.745177142857143 0 24c0 13.254857142857142 10.745177142857143 24 24 24 13.254857142857142 0 24 -10.745142857142856 24 -24 0 -13.254822857142857 -10.745142857142856 -24 -24 -24ZM16.285714285714285 14.571428571428571c1.8935314285714284 0 3.4285714285714284 1.53504 3.4285714285714284 3.4285714285714284s-1.53504 3.4285714285714284 -3.4285714285714284 3.4285714285714284 -3.4285714285714284 -1.53504 -3.4285714285714284 -3.4285714285714284 1.53504 -3.4285714285714284 3.4285714285714284 -3.4285714285714284Zm12 3.4285714285714284c0 1.8935314285714284 1.535005714285714 3.4285714285714284 3.4285714285714284 3.4285714285714284s3.4285714285714284 -1.53504 3.4285714285714284 -3.4285714285714284 -1.535005714285714 -3.4285714285714284 -3.4285714285714284 -3.4285714285714284 -3.4285714285714284 1.53504 -3.4285714285714284 3.4285714285714284ZM17.518354285714285 27.48757714285714c-0.6498514285714285 -0.7247657142857142 -1.4791885714285713 -1.3374171428571426 -2.50536 -1.783097142857143 -1.3026171428571427 -0.5657485714285714 -2.8171885714285714 0.031611428571428575 -3.3829371428571426 1.3341942857142857 -0.5657485714285714 1.3026171428571427 0.031611428571428575 2.8172228571428573 1.3341942857142857 3.3829714285714285 0.9885942857142856 0.42936 1.7760685714285716 1.823622857142857 1.01496 3.9038399999999998 -0.4879542857142857 1.3337142857142856 0.19762285714285713 2.8104 1.531302857142857 3.298285714285714 1.3337142857142856 0.4878857142857143 2.8104685714285713 -0.19748571428571426 3.298422857142857 -1.5312 0.4162285714285714 -1.1376 0.6250285714285714 -2.3815199999999996 0.5890285714285715 -3.613097142857143 0.8195314285714285 -0.7279199999999999 2.431714285714286 -1.7269714285714286 4.648114285714285 -1.7269714285714286 2.1382971428571427 0 3.71424 0.9298971428571429 4.55856 1.6490742857142857 -0.04731428571428571 1.2569828571428572 0.16141714285714284 2.5293942857142855 0.5864228571428571 3.690994285714286 0.4879542857142857 1.3337142857142856 1.9647085714285712 2.019085714285714 3.298422857142857 1.5312 1.33368 -0.4878857142857143 2.019428571428571 -1.9645714285714284 1.531302857142857 -3.298285714285714 -0.2818285714285714 -0.7703314285714284 -0.3513257142857143 -1.4465142857142856 -0.27689142857142857 -2.0145257142857145 0.05142857142857142 -0.15977142857142856 0.08715428571428571 -0.32413714285714285 0.10673142857142857 -0.4904914285714285 0.21768 -0.6980228571428571 0.6744 -1.1770971428571428 1.1852571428571428 -1.3988228571428571 1.3025142857142857 -0.5657485714285714 1.8997714285714287 -2.080354285714286 1.3340571428571428 -3.3829714285714285 -0.5657142857142857 -1.302582857142857 -2.0804571428571426 -1.8999428571428572 -3.3829371428571426 -1.3341942857142857 -1.0086857142857142 0.43806857142857136 -1.827222857142857 1.0375542857142857 -2.472034285714286 1.7462057142857144 -1.6316914285714286 -1.0160914285714286 -3.818022857142857 -1.8410399999999998 -6.468891428571428 -1.8410399999999998 -2.682857142857143 0 -4.8898971428571425 0.8449714285714285 -6.527725714285714 1.8779314285714286Z" clip-rule="evenodd" stroke-width="3.4286"></path>
  </g>
</svg>