<svg xmlns="http://www.w3.org/2000/svg" fill="none" viewBox="0 0 48 48" id="Smiley-Grumpy--Streamline-Core-Remix" height="48" width="48">
  <desc>
    Smiley Grumpy Streamline Icon: https://streamlinehq.com
  </desc>
  <g id="Free Remix/Mail/Mail/Smiley/smiley-grumpy">
    <path id="Union" fill="#000000" fill-rule="evenodd" d="M4.285714285714286 24c0 -10.887908571428571 8.826377142857142 -19.71428571428571 19.71428571428571 -19.71428571428571 10.887771428571428 0 19.71428571428571 8.826377142857142 19.71428571428571 19.71428571428571 0 10.887771428571428 -8.826514285714284 19.71428571428571 -19.71428571428571 19.71428571428571 -10.887908571428571 0 -19.71428571428571 -8.826514285714284 -19.71428571428571 -19.71428571428571ZM24 0C10.745177142857143 0 0 10.745177142857143 0 24c0 13.254857142857142 10.745177142857143 24 24 24 13.254857142857142 0 24 -10.745142857142856 24 -24 0 -13.254822857142857 -10.745142857142856 -24 -24 -24ZM13.714285714285714 12.857142857142856c-1.4201485714285715 0 -2.571428571428571 1.1512799999999999 -2.571428571428571 2.571428571428571s1.1512799999999999 2.571428571428571 2.571428571428571 2.571428571428571h2.71776c0.35300571428571426 0.9987428571428572 1.3054971428571427 1.7142857142857142 2.4250971428571426 1.7142857142857142 1.4201485714285715 0 2.571428571428571 -1.1512799999999999 2.571428571428571 -2.571428571428571v-1.7142857142857142c0 -1.4201485714285715 -1.1512799999999999 -2.571428571428571 -2.571428571428571 -2.571428571428571H13.714285714285714Zm15.428571428571427 0c-1.4201485714285715 0 -2.571428571428571 1.1512799999999999 -2.571428571428571 2.571428571428571s1.1512799999999999 2.571428571428571 2.571428571428571 2.571428571428571h2.71776c0.35300571428571426 0.9987428571428572 1.3054971428571427 1.7142857142857142 2.4250971428571426 1.7142857142857142 1.4201142857142857 0 2.571428571428571 -1.1512799999999999 2.571428571428571 -2.571428571428571v-1.7142857142857142c0 -1.4201485714285715 -1.1513142857142855 -2.571428571428571 -2.571428571428571 -2.571428571428571H29.142857142857142ZM11.511805714285714 30.20276571428571C14.057519999999998 25.97784 18.696445714285712 23.142857142857142 24 23.142857142857142c5.3035885714285715 0 9.942514285714285 2.834982857142857 12.48822857142857 7.059908571428572 0.7330285714285714 1.2163885714285714 0.34114285714285714 2.7966514285714283 -0.8753142857142857 3.5296114285714286 -1.216457142857143 0.7329942857142857 -2.79672 0.34104 -3.52968 -0.875382857142857C30.429325714285714 30.112182857142855 27.42672 28.285714285714285 24 28.285714285714285c-3.426685714285714 0 -6.4293257142857145 1.8264685714285713 -8.083234285714285 4.57128 -0.7329257142857142 1.216422857142857 -2.313188571428571 1.608377142857143 -3.5296114285714286 0.875382857142857 -1.2163885714285714 -0.73296 -1.6083085714285714 -2.3132228571428572 -0.8753485714285714 -3.5296114285714286Z" clip-rule="evenodd" stroke-width="3.4286"></path>
  </g>
</svg>