<svg xmlns="http://www.w3.org/2000/svg" fill="none" viewBox="0 0 48 48" id="Smiley-Smirk--Streamline-Core-Remix" height="48" width="48">
  <desc>
    Smiley Smirk Streamline Icon: https://streamlinehq.com
  </desc>
  <g id="Free Remix/Mail/Mail/Smiley/smiley-smirk">
    <path id="Union" fill="#000000" fill-rule="evenodd" d="M4.285714285714286 24c0 -10.887908571428571 8.826377142857142 -19.71428571428571 19.71428571428571 -19.71428571428571 10.887771428571428 0 19.71428571428571 8.826377142857142 19.71428571428571 19.71428571428571 0 10.887771428571428 -8.826514285714284 19.71428571428571 -19.71428571428571 19.71428571428571 -10.887908571428571 0 -19.71428571428571 -8.826514285714284 -19.71428571428571 -19.71428571428571ZM24 0C10.745177142857143 0 0 10.745177142857143 0 24c0 13.254857142857142 10.745177142857143 24 24 24 13.254857142857142 0 24 -10.745142857142856 24 -24 0 -13.254822857142857 -10.745142857142856 -24 -24 -24ZM12.857142857142856 18c0 1.8935314285714284 1.53504 3.4285714285714284 3.4285714285714284 3.4285714285714284s3.4285714285714284 -1.53504 3.4285714285714284 -3.4285714285714284 -1.53504 -3.4285714285714284 -3.4285714285714284 -3.4285714285714284 -3.4285714285714284 1.53504 -3.4285714285714284 3.4285714285714284Zm18.857142857142858 -3.4285714285714284c1.893565714285714 0 3.4285714285714284 1.53504 3.4285714285714284 3.4285714285714284s-1.535005714285714 3.4285714285714284 -3.4285714285714284 3.4285714285714284 -3.4285714285714284 -1.53504 -3.4285714285714284 -3.4285714285714284 1.535005714285714 -3.4285714285714284 3.4285714285714284 -3.4285714285714284Zm2.3270399999999998 12.05424c1.4083885714285713 0.1819542857142857 2.4026742857142853 1.4712342857142855 2.22096 2.8796914285714283 -0.1536 1.1881371428571428 -0.7388571428571428 2.2844228571428573 -1.3508571428571428 3.1389942857142854 -0.64128 0.8956114285714285 -1.4695885714285715 1.7459314285714282 -2.3836114285714283 2.44536 -0.9139885714285714 0.6994285714285714 -1.9514057142857142 1.276457142857143 -2.983577142857143 1.661485714285714 -0.9848228571428571 0.36719999999999997 -2.1959999999999997 0.6452571428571429 -3.3829371428571426 0.48274285714285714 -1.4070514285714284 -0.19268571428571427 -2.3914971428571428 -1.4893714285714286 -2.198845714285714 -2.896457142857143 0.19265142857142856 -1.4069485714285714 1.4894399999999999 -2.3913942857142856 2.896457142857143 -2.198742857142857l-0.0014399999999999999 -0.00041142857142857143c0.011965714285714284 0.00044571428571428567 0.08544 0.0032228571428571428 0.2301942857142857 -0.02077714285714286 0.17132571428571428 -0.028388571428571423 0.3948685714285714 -0.08646857142857142 0.6599314285714286 -0.1853142857142857 0.5364 -0.1999885714285714 1.1286857142857143 -0.5241257142857143 1.6550399999999998 -0.9268457142857143 0.5263542857142857 -0.40275428571428573 0.9940799999999999 -0.8896799999999999 1.3273714285714284 -1.3551085714285713 0.16467428571428572 -0.2300228571428571 0.2791885714285714 -0.4305942857142857 0.3513942857142857 -0.5885485714285714 0.0669942857142857 -0.14657142857142857 0.08033142857142857 -0.21853714285714287 0.08063999999999999 -0.2185028571428571l-0.00037714285714285714 0.003257142857142857c0.18192 -1.4084571428571429 1.4711999999999998 -2.402742857142857 2.8796571428571425 -2.2208228571428568Z" clip-rule="evenodd" stroke-width="3.4286"></path>
  </g>
</svg>