<svg xmlns="http://www.w3.org/2000/svg" fill="none" viewBox="0 0 48 48" id="Smiley-Angry--Streamline-Core-Remix" height="48" width="48">
  <desc>
    Smiley Angry Streamline Icon: https://streamlinehq.com
  </desc>
  <g id="Free Remix/Mail/Mail/Smiley/smiley-angry">
    <path id="Union" fill="#000000" fill-rule="evenodd" d="M4.285714285714286 24c0 -10.887908571428571 8.826377142857142 -19.71428571428571 19.71428571428571 -19.71428571428571 10.887771428571428 0 19.71428571428571 8.826377142857142 19.71428571428571 19.71428571428571 0 10.887771428571428 -8.826514285714284 19.71428571428571 -19.71428571428571 19.71428571428571 -10.887908571428571 0 -19.71428571428571 -8.826514285714284 -19.71428571428571 -19.71428571428571ZM24 0C10.745177142857143 0 0 10.745177142857143 0 24c0 13.254857142857142 10.745177142857143 24 24 24 13.254857142857142 0 24 -10.745142857142856 24 -24 0 -13.254822857142857 -10.745142857142856 -24 -24 -24Zm-2.668902857142857 10.060662857142857c-0.84864 -0.21061714285714284 -1.2716914285714285 -0.4513371428571429 -1.3739999999999999 -0.5351657142857142 -1.0985142857142858 -0.9000342857142858 -2.7186857142857144 -0.7391314285714286 -3.618754285714285 0.3593828571428571 -0.9000342857142858 1.0985485714285712 -0.7391314285714286 2.7186857142857144 0.3593828571428571 3.618754285714285 0.9613028571428571 0.7876114285714285 2.2400571428571427 1.26192 3.394525714285714 1.5484457142857142 1.2151885714285715 0.3016114285714286 2.5760914285714285 0.46395428571428565 3.907782857142857 0.46395428571428565 1.3316914285714285 0 2.6925942857142857 -0.16234285714285715 3.907748571428572 -0.46395428571428565 1.154502857142857 -0.2865257142857143 2.4332228571428574 -0.7608342857142857 3.394525714285714 -1.5484457142857142 1.0985142857142858 -0.9000685714285713 1.2594514285714284 -2.5202057142857144 0.3593828571428571 -3.618754285714285 -0.9000342857142858 -1.0985142857142858 -2.5202057142857144 -1.2594171428571428 -3.618754285714285 -0.3593828571428571 -0.10230857142857142 0.08382857142857142 -0.5253599999999999 0.3245485714285714 -1.3739999999999999 0.5351657142857142 -0.7879542857142856 0.1955657142857143 -1.7315657142857144 0.3125142857142857 -2.668902857142857 0.3125142857142857 -0.9373714285714284 0 -1.8809485714285714 -0.11694857142857143 -2.6689371428571427 -0.3125142857142857ZM11.142857142857142 20.142857142857142c0 1.8935314285714284 1.53504 3.4285714285714284 3.4285714285714284 3.4285714285714284s3.4285714285714284 -1.53504 3.4285714285714284 -3.4285714285714284 -1.53504 -3.4285714285714284 -3.4285714285714284 -3.4285714285714284 -3.4285714285714284 1.53504 -3.4285714285714284 3.4285714285714284ZM24 24C19.974514285714285 24 17.142857142857142 27.71125714285714 17.142857142857142 31.71428571428571c0 4.0032 2.8316571428571424 7.7142857142857135 6.857142857142857 7.7142857142857135 4.025485714285714 0 6.857142857142857 -3.7110857142857143 6.857142857142857 -7.7142857142857135C30.857142857142854 27.71125714285714 28.02548571428571 24 24 24Zm6 -3.8571428571428568c0 1.8935314285714284 1.535005714285714 3.4285714285714284 3.4285714285714284 3.4285714285714284 1.8936 0 3.4285714285714284 -1.53504 3.4285714285714284 -3.4285714285714284s-1.5349714285714284 -3.4285714285714284 -3.4285714285714284 -3.4285714285714284c-1.893565714285714 0 -3.4285714285714284 1.53504 -3.4285714285714284 3.4285714285714284Z" clip-rule="evenodd" stroke-width="3.4286"></path>
  </g>
</svg>