<svg xmlns="http://www.w3.org/2000/svg" fill="none" viewBox="0 0 48 48" id="Smiley-Emoji-Kiss-Nervous--Streamline-Core-Remix" height="48" width="48">
  <desc>
    Smiley Emoji Kiss Nervous Streamline Icon: https://streamlinehq.com
  </desc>
  <g id="Free Remix/Mail/Mail/Smiley/smiley-emoji-kiss-nervous">
    <path id="Union" fill="#000000" fill-rule="evenodd" d="M4.285714285714286 24c0 -10.887908571428571 8.826377142857142 -19.71428571428571 19.71428571428571 -19.71428571428571 10.887771428571428 0 19.71428571428571 8.826377142857142 19.71428571428571 19.71428571428571 0 10.887771428571428 -8.826514285714284 19.71428571428571 -19.71428571428571 19.71428571428571 -10.887908571428571 0 -19.71428571428571 -8.826514285714284 -19.71428571428571 -19.71428571428571ZM24 0C10.745177142857143 0 0 10.745177142857143 0 24c0 13.254857142857142 10.745177142857143 24 24 24 13.254857142857142 0 24 -10.745142857142856 24 -24 0 -13.254822857142857 -10.745142857142856 -24 -24 -24ZM9.942857142857141 12.17142857142857c0.852102857142857 -1.1361257142857142 2.4638742857142857 -1.3663885714285713 3.6 -0.5142857142857142l6.857142857142857 5.142857142857142c0.7129714285714285 0.53472 1.0982057142857142 1.4004685714285714 1.018182857142857 2.288057142857143 -0.08002285714285713 0.8876228571428572 -0.6139542857142857 1.6704685714285712 -1.411062857142857 2.0690399999999998l-6.857142857142857 3.4285714285714284c-1.2702171428571427 0.6351085714285714 -2.814822857142857 0.12023999999999999 -3.4499314285714284 -1.1499771428571428 -0.6351085714285714 -1.2702171428571427 -0.12023999999999999 -2.814822857142857 1.1499771428571428 -3.4499314285714284l3.135737142857143 -1.567885714285714L10.457142857142856 15.771428571428569c-1.1361257142857142 -0.852102857142857 -1.3663885714285713 -2.4638742857142857 -0.5142857142857142 -3.6Zm27.6 3.6c1.1362285714285714 -0.852102857142857 1.3662857142857143 -2.4638742857142857 0.5142857142857142 -3.6 -0.852 -1.1361257142857142 -2.4637714285714285 -1.3663885714285713 -3.6 -0.5142857142857142l-6.857142857142857 5.142857142857142c-0.7129714285714285 0.53472 -1.0982057142857142 1.4004685714285714 -1.018182857142857 2.288057142857143 0.08002285714285713 0.8876228571428572 0.6139542857142857 1.6704685714285712 1.411062857142857 2.0690399999999998l6.857177142857143 3.4285714285714284c1.2702857142857142 0.6351085714285714 2.8148571428571425 0.12023999999999999 3.4498285714285712 -1.1499771428571428 0.6353142857142856 -1.2702171428571427 0.12034285714285714 -2.814822857142857 -1.149942857142857 -3.4499314285714284l-3.135702857142857 -1.567885714285714L37.54285714285714 15.771428571428569ZM24.480479999999996 22.348491428571425c-1.3878171428571426 -0.3014057142857143 -2.7571885714285713 0.5792571428571428 -3.0586285714285713 1.9670742857142856 -0.3014057142857143 1.3878171428571426 0.5792914285714286 2.7571885714285713 1.9671085714285714 3.058594285714286l1.531097142857143 0.33253714285714286c0.10319999999999999 0.02242285714285714 0.15336 0.06037714285714286 0.18466285714285713 0.0924 0.039085714285714286 0.03997714285714286 0.07676571428571428 0.10203428571428572 0.096 0.18246857142857142s0.013748571428571426 0.15284571428571428 -0.003017142857142857 0.20616c-0.013439999999999999 0.04272 -0.04097142857142857 0.09925714285714285 -0.12287999999999999 0.16597714285714285l-1.2639771428571427 1.0294285714285714c-0.5995885714285715 0.4883314285714285 -0.9475542857142857 1.2205371428571428 -0.9475542857142857 1.9938171428571427 0 0.77328 0.34796571428571427 1.505485714285714 0.9475542857142857 1.9938171428571427l1.2639771428571427 1.0294628571428572c0.08190857142857143 0.06685714285714285 0.10943999999999998 0.12308571428571428 0.12287999999999999 0.16594285714285714 0.016765714285714287 0.05348571428571428 0.02225142857142857 0.12582857142857143 0.003017142857142857 0.20605714285714286 -0.019234285714285714 0.08057142857142857 -0.05691428571428571 0.1426285714285714 -0.096 0.18274285714285712 -0.03130285714285714 0.03188571428571428 -0.08146285714285714 0.06994285714285714 -0.18466285714285713 0.09222857142857142l-1.531097142857143 0.3325714285714286c-1.3878171428571426 0.30137142857142857 -2.2685142857142853 1.670742857142857 -1.9671085714285714 3.0586285714285713 0.30144 1.3878857142857142 1.6708114285714284 2.2683428571428568 3.0586285714285713 1.9669714285714284l1.531097142857143 -0.3325714285714286c4.0568228571428575 -0.8811428571428571 5.581097142857143 -5.626628571428571 3.247165714285714 -8.695851428571428 2.3339314285714283 -3.069085714285714 0.8096571428571429 -7.814845714285713 -3.2472 -8.69592l-1.531062857142857 -0.33253714285714286Z" clip-rule="evenodd" stroke-width="3.4286"></path>
  </g>
</svg>