<svg xmlns="http://www.w3.org/2000/svg" fill="none" viewBox="0 0 48 48" id="Smoke-Detector--Streamline-Core-Remix" height="48" width="48">
  <desc>
    Smoke Detector Streamline Icon: https://streamlinehq.com
  </desc>
  <g id="Free Remix/Map Travel/smoke-detector--smoke-alert-fire-signal">
    <path id="Union" fill="#000000" fill-rule="evenodd" d="M6.857142857142857 0c-1.1834742857142857 0 -2.142857142857143 0.9593897142857143 -2.142857142857143 2.142857142857143s0.9593828571428571 2.142857142857143 2.142857142857143 2.142857142857143h1.2857142857142856v1.2857142857142856C8.142857142857142 12.435531428571428 13.707325714285714 18 20.57142857142857 18h6.857142857142857c6.863999999999999 0 12.428571428571427 -5.564468571428571 12.428571428571427 -12.428571428571427V4.285714285714286H41.14285714285714c1.183542857142857 0 2.142857142857143 -0.9593897142857143 2.142857142857143 -2.142857142857143S42.3264 0 41.14285714285714 0H6.857142857142857Zm28.71428571428571 4.285714285714286h-23.142857142857142v1.2857142857142856C12.428571428571427 10.068617142857143 16.07424 13.714285714285714 20.57142857142857 13.714285714285714h6.857142857142857c4.497188571428571 0 8.142857142857142 -3.6456685714285713 8.142857142857142 -8.142857142857142V4.285714285714286ZM13.442982857142855 22.8492c1.1089714285714285 0.8871771428571428 1.2887657142857143 2.505325714285714 0.4015885714285714 3.6142971428571427 -1.3590514285714286 1.698822857142857 -1.4959542857142856 2.839234285714286 -1.38624 3.689588571428571 0.13772571428571426 1.06728 0.7012114285714286 2.1220114285714287 1.6109142857142855 3.714l0.08811428571428571 0.15401142857142858c0.7981371428571428 1.3943314285714286 1.8777257142857142 3.280388571428571 2.1581142857142854 5.453417142857143 0.31885714285714284 2.4709714285714286 -0.4013828571428571 4.973485714285713 -2.470902857142857 7.560342857142857 -0.8871771428571428 1.1091428571428572 -2.505325714285714 1.2888 -3.6142971428571427 0.4018285714285714 -1.1089714285714285 -0.8873142857142856 -1.2887657142857143 -2.5056 -0.4015885714285714 -3.6144 1.3590514285714286 -1.6988571428571428 1.4959542857142856 -2.8391999999999995 1.38624 -3.6894857142857145 -0.13772571428571426 -1.0673142857142857 -0.7012114285714286 -2.1222857142857143 -1.6109142857142855 -3.714171428571428l-0.08811428571428571 -0.15394285714285713c-0.7981371428571428 -1.3943999999999999 -1.8777257142857142 -3.280388571428571 -2.1581142857142854 -5.453485714285714 -0.31885714285714284 -2.4710742857142853 0.4013828571428571 -4.97352 2.470902857142857 -7.560411428571428 0.8871771428571428 -1.1089714285714285 2.505325714285714 -1.2887657142857143 3.6142971428571427 -0.4015885714285714Zm12.564822857142858 3.6142971428571427c0.887142857142857 -1.1089714285714285 0.7073485714285713 -2.7271199999999998 -0.4015885714285714 -3.6142971428571427 -1.1089714285714285 -0.8871771428571428 -2.7271542857142856 -0.7073828571428571 -3.614331428571428 0.4015885714285714 -2.0694857142857144 2.5868914285714286 -2.78976 5.089337142857143 -2.4708685714285714 7.560445714285714 0.28038857142857143 2.173062857142857 1.3599771428571428 4.059051428571428 2.1581485714285713 5.453451428571428l0.08811428571428571 0.15394285714285713c0.9097028571428571 1.5918857142857141 1.4732228571428572 2.646857142857143 1.6109485714285714 3.714171428571428 0.10971428571428571 0.8502857142857142 -0.027154285714285714 1.9906285714285714 -1.38624 3.6894857142857145 -0.887142857142857 1.1088 -0.7073485714285713 2.7270857142857143 0.4015885714285714 3.6144 1.1089714285714285 0.8869714285714285 2.7271542857142856 0.7073142857142857 3.614331428571428 -0.4018285714285714 2.0694857142857144 -2.5868571428571427 2.7897257142857144 -5.089371428571428 2.4708685714285714 -7.560342857142857 -0.28038857142857143 -2.1730285714285715 -1.3600114285714286 -4.059085714285714 -2.1581485714285713 -5.453451428571428l-0.08811428571428571 -0.15401142857142858c-0.9097028571428571 -1.5919885714285713 -1.4732228571428572 -2.6467199999999997 -1.6109485714285714 -3.714 -0.10971428571428571 -0.85032 0.027154285714285714 -1.9907314285714284 1.38624 -3.6895542857142853Zm11.762022857142856 -3.6142971428571427c1.1091428571428572 0.8871771428571428 1.2888 2.505325714285714 0.4014857142857142 3.6142971428571427 -1.3590857142857142 1.698822857142857 -1.4958857142857143 2.839234285714286 -1.3861714285714284 3.6895542857142853 0.1378285714285714 1.06728 0.7011428571428571 2.1220114285714287 1.6110857142857142 3.714l0.08811428571428571 0.15401142857142858c0.7981714285714285 1.3943657142857142 1.8778285714285712 3.280422857142857 2.157942857142857 5.453451428571428 0.31885714285714284 2.4709714285714286 -0.40114285714285713 4.973485714285713 -2.470628571428571 7.560342857142857 -0.8873142857142856 1.1091428571428572 -2.5056 1.2888 -3.6144 0.4018285714285714 -1.1089714285714285 -0.8873142857142856 -1.2887657142857143 -2.5056 -0.4016228571428571 -3.6144 1.359222857142857 -1.6988571428571428 1.496022857142857 -2.8391999999999995 1.3863085714285712 -3.6894857142857145 -0.1378285714285714 -1.0673142857142857 -0.7011428571428571 -2.1222857142857143 -1.611017142857143 -3.714171428571428l-0.08811428571428571 -0.15394285714285713c-0.7981714285714285 -1.3943999999999999 -1.8777599999999997 -3.280388571428571 -2.1581485714285713 -5.453451428571428 -0.31889142857142855 -2.4711085714285717 0.4013828571428571 -4.973554285714285 2.4708685714285714 -7.560445714285714 0.8872114285714285 -1.1089714285714285 2.5054971428571426 -1.2887657142857143 3.6142971428571427 -0.4015885714285714Z" clip-rule="evenodd" stroke-width="3.4286"></path>
  </g>
</svg>