<svg xmlns="http://www.w3.org/2000/svg" fill="none" viewBox="0 0 48 48" id="Smoking-Area--Streamline-Core-Remix" height="48" width="48">
  <desc>
    Smoking Area Streamline Icon: https://streamlinehq.com
  </desc>
  <g id="Free Remix/Map Travel/smoking-area">
    <path id="Union" fill="#000000" fill-rule="evenodd" d="M40.985142857142854 1.4207177142857144c-1.1091428571428572 0.8871668571428571 -1.2888 2.5053394285714288 -0.4018285714285714 3.614310857142857 1.4081142857142857 1.7601599999999997 1.4777142857142855 2.7812914285714285 1.3909714285714285 3.3871199999999995 -0.11725714285714285 0.8226171428571428 -0.5989714285714285 1.6235314285714284 -1.5222857142857142 3.008708571428571l-0.10011428571428571 0.14969142857142856c-0.7909714285714284 1.1832342857142855 -1.9364571428571427 2.8968342857142857 -2.2347428571428574 4.984457142857143 -0.3418285714285714 2.3941714285714286 0.44571428571428573 4.801611428571428 2.4661714285714287 7.327165714285714 0.8873142857142856 1.1089714285714285 2.5056 1.2887657142857143 3.6144 0.4015885714285714 1.1091428571428572 -0.8871771428571428 1.2888 -2.50536 0.4014857142857142 -3.6142971428571427 -1.4081142857142857 -1.7601942857142856 -1.4773714285714286 -2.7812914285714285 -1.3906285714285713 -3.387154285714286 0.11725714285714285 -0.8226171428571428 0.5989714285714285 -1.6234971428571427 1.5222857142857142 -3.008708571428571l0.10011428571428571 -0.14969142857142856c0.7909714285714284 -1.1832342857142855 1.9364571428571427 -2.8968342857142857 2.2347428571428574 -4.984457142857143 0.3418285714285714 -2.3941371428571427 -0.4460571428571428 -4.801611428571428 -2.4665142857142857 -7.327145142857143 -0.8869714285714285 -1.1089577142857143 -2.505257142857143 -1.2887554285714287 -3.614057142857143 -0.4015885714285714Zm3.5856 29.00795657142857c1.183542857142857 0 2.142857142857143 0.9593828571428571 2.142857142857143 2.142857142857143V44.57142857142857c0 1.183542857142857 -0.9593142857142857 2.142857142857143 -2.142857142857143 2.142857142857143H6.856594285714285c-3.0770057142857143 0 -5.571421714285714 -2.494285714285714 -5.571421714285714 -5.571428571428571v-5.142857142857142c0 -3.0769371428571426 2.4944159999999997 -5.571325714285714 5.571421714285714 -5.571325714285714H44.570742857142854ZM34.28516571428572 42.42857142857142h-27.428571428571427c-0.7100571428571428 0 -1.2857142857142856 -0.5756571428571428 -1.2857142857142856 -1.2857142857142856v-5.142857142857142c0 -0.7100571428571428 0.5756571428571428 -1.2857142857142856 1.2857142857142856 -1.2857142857142856h27.428571428571427v7.7142857142857135ZM30.57229714285714 5.035028571428572C29.68512 3.9260571428571427 29.86491428571428 2.307884571428571 30.973885714285714 1.4207177142857144c1.1089714285714285 -0.8871668571428571 2.7271199999999998 -0.7073691428571428 3.614228571428571 0.4015885714285714 2.020457142857143 2.525533714285714 2.8083428571428573 4.933007999999999 2.4661714285714287 7.327145142857143 -0.29828571428571427 2.0876228571428572 -1.4434285714285713 3.801222857142857 -2.2343999999999995 4.984457142857143l-0.10011428571428571 0.14969142857142856c-0.9234171428571428 1.3852114285714285 -1.4049942857142856 2.1860914285714284 -1.5225257142857143 3.008708571428571 -0.08653714285714285 0.6058628571428571 -0.017211428571428572 1.62696 1.3908685714285713 3.387154285714286 0.8873142857142856 1.1089371428571428 0.7073142857142857 2.7271199999999998 -0.40152 3.6142971428571427 -1.1089714285714285 0.8871771428571428 -2.7271199999999998 0.7073828571428571 -3.6142971428571427 -0.4015885714285714 -2.020422857142857 -2.5255542857142856 -2.8082399999999996 -4.932994285714286 -2.466205714285714 -7.327165714285714 0.29821714285714285 -2.0876228571428572 1.4436685714285713 -3.801222857142857 2.2346057142857143 -4.984457142857143l0.09997714285714285 -0.14969142857142856c0.9234514285714286 -1.3851771428571427 1.4050285714285713 -2.1860914285714284 1.52256 -3.008708571428571 0.08653714285714285 -0.6058285714285714 0.017211428571428572 -1.62696 -1.3909371428571429 -3.3871199999999995Z" clip-rule="evenodd" stroke-width="3.4286"></path>
  </g>
</svg>