<svg xmlns="http://www.w3.org/2000/svg" fill="none" viewBox="0 0 48 48" id="Snorkle--Streamline-Core-Remix" height="48" width="48">
  <desc>
    Snorkle Streamline Icon: https://streamlinehq.com
  </desc>
  <g id="Free Remix/Map Travel/snorkle--diving-scuba-outdoor-recreation-ocean-mask-water-sea-snorkle-travel-places">
    <path id="Union" fill="#000000" fill-rule="evenodd" d="M48 3C48 1.3431462857142857 46.656685714285715 0 45 0s-3 1.3431462857142857 -3 3v31.71428571428571c0 4.023771428571428 -3.261942857142857 7.285714285714286 -7.285714285714286 7.285714285714286h-6.857142857142857c-3.0770057142857143 0 -5.571428571428571 -2.494285714285714 -5.571428571428571 -5.571428571428571 0 -1.6566857142857143 -1.343142857142857 -3 -3 -3s-3 1.3433142857142857 -3 3C16.285714285714285 42.819428571428574 21.466422857142856 48 27.857142857142854 48h6.857142857142857C42.05177142857143 48 48 42.05177142857143 48 34.714285714285715V3ZM4.285714285714286 17.142857142857142c0 -2.6036228571428572 2.110662857142857 -4.714285714285714 4.714285714285714 -4.714285714285714h20.57142857142857C32.17505142857143 12.428571428571427 34.285714285714285 14.539234285714286 34.285714285714285 17.142857142857142v6.857142857142857c0 2.6036228571428572 -2.110662857142857 4.714285714285714 -4.714285714285714 4.714285714285714h-1.7142857142857142c-0.40467428571428565 0 -0.7857599999999999 -0.19052571428571427 -1.0285714285714285 -0.5142857142857142l-3.0857142857142854 -4.114285714285714c-1.0521942857142856 -1.402902857142857 -2.7034971428571426 -2.2285714285714286 -4.457142857142857 -2.2285714285714286s-3.404948571428571 0.8256685714285714 -4.457142857142857 2.2285714285714286l-3.0857142857142854 4.114285714285714c-0.24281142857142854 0.32376 -0.6238971428571428 0.5142857142857142 -1.0285714285714285 0.5142857142857142h-1.7142857142857142C6.396377142857142 28.71428571428571 4.285714285714286 26.603622857142856 4.285714285714286 24V17.142857142857142Zm4.714285714285714 -9C4.0294285714285705 8.142857142857142 0 12.172285714285714 0 17.142857142857142v6.857142857142857c0 4.970571428571429 4.0294285714285705 9 9 9h1.7142857142857142c1.7536457142857143 0 3.404948571428571 -0.8256685714285714 4.457142857142857 -2.2285714285714286l3.0857142857142854 -4.114285714285714c0.24281142857142854 -0.32376 0.6238971428571428 -0.5142857142857142 1.0285714285714285 -0.5142857142857142s0.7857599999999999 0.19052571428571427 1.0285714285714285 0.5142857142857142l3.0857142857142854 4.114285714285714c1.0521942857142856 1.402902857142857 2.7034971428571426 2.2285714285714286 4.457142857142857 2.2285714285714286h1.7142857142857142c4.9704 0 9 -4.0294285714285705 9 -9V17.142857142857142c0 -4.970571428571429 -4.029599999999999 -9 -9 -9h-20.57142857142857Z" clip-rule="evenodd" stroke-width="3.4286"></path>
  </g>
</svg>