<svg xmlns="http://www.w3.org/2000/svg" fill="none" viewBox="0 0 48 48" id="Snow-Flake--Streamline-Core-Remix" height="48" width="48">
  <desc>
    Snow Flake Streamline Icon: https://streamlinehq.com
  </desc>
  <g id="Free Remix/Interface Essential/snow-flake--winter-freeze-snow-freezing-ice-cold-weather-snowflake">
    <path id="Union" fill="#000000" fill-rule="evenodd" d="M18.658079999999998 1.9133417142857143c-0.8368457142857142 -0.8368354285714285 -2.1936 -0.8368354285714285 -3.030445714285714 0 -0.8368457142857142 0.8368388571428571 -0.8368457142857142 2.193606857142857 0 3.030452571428571L21.857142857142858 11.173302857142856V21.857142857142858H11.173302857142856L4.943794285714286 15.627634285714286c-0.8368457142857142 -0.8368457142857142 -2.193613714285714 -0.8368457142857142 -3.030452571428571 0 -0.8368354285714285 0.8368457142857142 -0.8368354285714285 2.1936 0 3.030445714285714L7.255268571428571 24 1.9133417142857143 29.341919999999995c-0.8368354285714285 0.8368457142857142 -0.8368354285714285 2.1936 0 3.030445714285714 0.8368388571428571 0.8368457142857142 2.193606857142857 0.8368457142857142 3.030452571428571 0L11.173302857142856 26.142857142857142H21.857142857142858v10.683771428571427l-6.229508571428571 6.2297142857142855c-0.8368457142857142 0.8365714285714285 -0.8368457142857142 2.1936 0 3.0301714285714283 0.8368457142857142 0.8369142857142857 2.1936 0.8369142857142857 3.030445714285714 0L24 40.7448l5.34192 5.341714285714286c0.8368457142857142 0.8369142857142857 2.1936 0.8369142857142857 3.030445714285714 0 0.8368457142857142 -0.8365714285714285 0.8368457142857142 -2.1936 0 -3.0301714285714283L26.142857142857142 36.826628571428564V26.142857142857142h10.683771428571427l6.2297142857142855 6.229508571428571c0.8365714285714285 0.8368457142857142 2.1936 0.8368457142857142 3.0301714285714283 0 0.8369142857142857 -0.8368457142857142 0.8369142857142857 -2.1936 0 -3.030445714285714L40.7448 24l5.341714285714286 -5.34192c0.8369142857142857 -0.8368457142857142 0.8369142857142857 -2.1936 0 -3.030445714285714 -0.8365714285714285 -0.8368457142857142 -2.1936 -0.8368457142857142 -3.0301714285714283 0L36.826628571428564 21.857142857142858H26.142857142857142V11.173302857142856l6.229508571428571 -6.229508571428571c0.8368457142857142 -0.8368457142857142 0.8368457142857142 -2.193613714285714 0 -3.030452571428571 -0.8368457142857142 -0.8368354285714285 -2.1936 -0.8368354285714285 -3.030445714285714 0L24 7.255268571428571 18.658079999999998 1.9133417142857143ZM10.484777142857142 10.484777142857142c0.8368457142857142 -0.8368457142857142 2.1936 -0.8368457142857142 3.030445714285714 0l5.142857142857142 5.142857142857142c0.8368457142857142 0.8368457142857142 0.8368457142857142 2.1936 0 3.030445714285714 -0.8368457142857142 0.8368457142857142 -2.1936 0.8368457142857142 -3.030445714285714 0l-5.142857142857142 -5.142857142857142c-0.8368457142857142 -0.8368457142857142 -0.8368457142857142 -2.1936 0 -3.030445714285714Zm8.173302857142856 21.887588571428573c0.8368457142857142 -0.8368457142857142 0.8368457142857142 -2.1936 0 -3.030445714285714 -0.8368457142857142 -0.8368457142857142 -2.1936 -0.8368457142857142 -3.030445714285714 0l-5.142857142857142 5.142994285714286c-0.8368457142857142 0.8365714285714285 -0.8368457142857142 2.1936 0 3.0301714285714283 0.8368457142857142 0.8369142857142857 2.1936 0.8369142857142857 3.030445714285714 0l5.142857142857142 -5.14272Zm18.857005714285712 -21.887588571428573c0.8369142857142857 0.8368457142857142 0.8369142857142857 2.1936 0 3.030445714285714l-5.14272 5.142857142857142c-0.8368457142857142 0.8368457142857142 -2.1936 0.8368457142857142 -3.030445714285714 0 -0.8368457142857142 -0.8368457142857142 -0.8368457142857142 -2.1936 0 -3.030445714285714l5.142994285714286 -5.142857142857142c0.8365714285714285 -0.8368457142857142 2.1936 -0.8368457142857142 3.0301714285714283 0Zm-5.14272 18.857142857142858c-0.8368457142857142 -0.8368457142857142 -2.1936 -0.8368457142857142 -3.030445714285714 0 -0.8368457142857142 0.8368457142857142 -0.8368457142857142 2.1936 0 3.030445714285714l5.142994285714286 5.14272c0.8365714285714285 0.8369142857142857 2.1936 0.8369142857142857 3.0301714285714283 0 0.8369142857142857 -0.8365714285714285 0.8369142857142857 -2.1936 0 -3.0301714285714283L32.37236571428571 29.341919999999995Z" clip-rule="evenodd" stroke-width="3.4286"></path>
  </g>
</svg>