<svg xmlns="http://www.w3.org/2000/svg" fill="none" viewBox="0 0 48 48" id="Song-Recommendation--Streamline-Core-Remix" height="48" width="48">
  <desc>
    Song Recommendation Streamline Icon: https://streamlinehq.com
  </desc>
  <g id="Free Remix/Entertainment/song-recommendation--song-recommendation-entertainment">
    <path id="Union" fill="#000000" fill-rule="evenodd" d="M15.330617142857141 2.487894857142857C14.570605714285714 -0.8441931428571428 9.816891428571427 -0.8234125714285714 9.086057142857143 2.5151897142857145 8.35734857142857 5.843999999999999 5.874205714285714 8.39016 2.6121942857142852 8.957657142857142c-3.482941714285714 0.6059314285714286 -3.482910857142857 5.605817142857142 0 6.211748571428571 3.2620114285714283 0.5674971428571428 5.745154285714285 3.113657142857143 6.473862857142857 6.442457142857143 0.7308342857142857 3.338605714285714 5.484548571428571 3.3594171428571427 6.244559999999999 0.02729142857142857 0.7646742857142856 -3.3526628571428567 3.236571428571428 -5.8944 6.514457142857142 -6.464674285714285 3.488605714285714 -0.6069257142857143 3.488605714285714 -5.614971428571428 0 -6.221897142857143 -3.277885714285714 -0.5702742857142857 -5.749782857142857 -3.1120457142857143 -6.514457142857142 -6.464688ZM6.722742857142857 12.063531428571428c2.4149142857142856 -1.2219085714285713 4.315817142857143 -3.21768 5.498297142857142 -5.620388571428571 1.192697142857143 2.401097142857143 3.092845714285714 4.398342857142857 5.517565714285714 5.620388571428571 -2.4247199999999998 1.2220457142857144 -4.3248685714285715 3.2192914285714282 -5.517565714285714 5.620388571428571 -1.1824799999999998 -2.402708571428571 -3.083382857142857 -4.39848 -5.498297142857142 -5.620388571428571Zm1.3765714285714286 12.961851428571427c0 -1.1834742857142857 -0.9593828571428571 -2.142857142857143 -2.142857142857143 -2.142857142857143 -1.1834399999999998 0 -2.142857142857143 0.9593828571428571 -2.142857142857143 2.142857142857143v1.6707771428571427H2.142857142857143c-1.1834674285714284 0 -2.1428570917714285 0.9593828571428571 -2.1428570917714285 2.142857142857143 0 1.1834399999999998 0.9593896632 2.142857142857143 2.1428570917714285 2.142857142857143h1.670742857142857v1.6703999999999999c0 1.1834742857142857 0.9594171428571429 2.142925714285714 2.142857142857143 2.142925714285714 1.1834742857142857 0 2.142857142857143 -0.9594514285714284 2.142857142857143 -2.142925714285714v-1.6703999999999999h1.6704342857142855c1.1834742857142857 0 2.142857142857143 -0.9594171428571429 2.142857142857143 -2.142857142857143 0 -1.1834742857142857 -0.9593828571428571 -2.142857142857143 -2.142857142857143 -2.142857142857143H8.099314285714284v-1.6707771428571427Zm7.61208 8.423279999999998c-4.018182857142857 0 -7.275565714285714 3.2572799999999997 -7.275565714285714 7.275565714285714 0 4.018285714285714 3.257382857142857 7.275428571428571 7.275565714285714 7.275428571428571 4.018217142857143 0 7.275600000000001 -3.2571428571428567 7.275600000000001 -7.275428571428571 0 -0.14845714285714284 -0.004457142857142857 -0.29588571428571425 -0.013234285714285714 -0.4419428571428571V26.614354285714285l20.740182857142855 -5.761131428571429v6.278708571428571c-0.9089142857142857 -0.4080342857142857 -1.9165714285714286 -0.6350057142857143 -2.977028571428571 -0.6350057142857143 -4.018285714285714 0 -7.275702857142857 3.257382857142857 -7.275702857142857 7.275600000000001 0 4.018217142857143 3.257417142857143 7.275702857142857 7.275702857142857 7.275702857142857 4.017942857142857 0 7.275428571428571 -3.257485714285714 7.275428571428571 -7.275702857142857 0 -0.14605714285714286 -0.0041142857142857136 -0.29112 -0.012685714285714286 -0.43505142857142853l0 -21.79662857142857 0 -0.011828571428571428c-0.0030857142857142854 -0.5385942857142857 -0.12788571428571427 -1.0705371428571429 -0.3658285714285714 -1.5551657142857143 -0.2382857142857143 -0.4847314285714286 -0.5842285714285714 -0.9104914285714286 -1.0138285714285715 -1.24272 -0.4299428571428572 -0.33233142857142856 -0.9312 -0.5618399999999999 -1.4664 -0.6685714285714286 -0.5351999999999999 -0.10673142857142857 -1.087542857142857 -0.08732571428571428 -1.6134857142857142 0.056502857142857146l-0.016114285714285713 0.0044228571428571424 -13.202639999999999 3.718731428571428 -2.4594857142857145 0.7043314285714285c-0.18922285714285714 2.760205714285714 -2.002868571428571 5.407645714285714 -5.440868571428571 6.0057599999999995 -1.7419199999999997 0.3030514285714285 -3.2163085714285713 1.6481142857142856 -3.7329600000000003 3.7379657142857146v11.793188571428571c-0.9086057142857143 -0.40789714285714285 -1.9161257142857142 -0.6348 -2.9766514285714285 -0.6348Z" clip-rule="evenodd" stroke-width="3.4286"></path>
  </g>
</svg>