<svg xmlns="http://www.w3.org/2000/svg" fill="none" viewBox="0 0 48 48" id="Sort-Descending--Streamline-Core-Remix" height="48" width="48">
  <desc>
    Sort Descending Streamline Icon: https://streamlinehq.com
  </desc>
  <g id="Free Remix/Interface Essential/sort-descending">
    <path id="Union" fill="#000000" fill-rule="evenodd" d="M2.142857142857143 0C0.9593897142857143 0 0 0.9593897142857143 0 2.142857142857143s0.9593897142857143 2.142857142857143 2.142857142857143 2.142857142857143h24.857142857142854c1.1834742857142857 0 2.142857142857143 -0.9593897142857143 2.142857142857143 -2.142857142857143S28.183474285714283 0 27 0H2.142857142857143Zm35.14285714285714 0c1.183542857142857 0 2.142857142857143 0.9593897142857143 2.142857142857143 2.142857142857143v33h6.428571428571428c0.8667428571428571 0 1.6481142857142856 0.5221714285714285 1.9796571428571428 1.322742857142857 0.3318857142857143 0.8009142857142857 0.14845714285714284 1.7225142857142854 -0.4645714285714286 2.3352l-8.571428571428571 8.571428571428571c-0.8365714285714285 0.8369142857142857 -2.1936 0.8369142857142857 -3.0301714285714283 0l-8.571565714285713 -8.571428571428571c-0.6128571428571428 -0.6126857142857143 -0.7961828571428571 -1.5342857142857143 -0.4645028571428571 -2.3352 0.33164571428571427 -0.8005714285714286 1.1130171428571427 -1.322742857142857 1.9797257142857143 -1.322742857142857h6.428571428571428V2.142857142857143c0 -1.1834674285714284 0.9593142857142857 -2.142857142857143 2.142857142857143 -2.142857142857143Zm-19.71428571428571 18.857142857142858c-1.1834742857142857 0 -2.142857142857143 0.9593828571428571 -2.142857142857143 2.142857142857143s0.9593828571428571 2.142857142857143 2.142857142857143 2.142857142857143h9.428571428571429c1.1834742857142857 0 2.142857142857143 -0.9593828571428571 2.142857142857143 -2.142857142857143S28.183474285714283 18.857142857142858 27 18.857142857142858h-9.428571428571429ZM8.571428571428571 11.571428571428571c0 -1.1834742857142857 0.9593828571428571 -2.142857142857143 2.142857142857143 -2.142857142857143h16.285714285714285c1.1834742857142857 0 2.142857142857143 0.9593828571428571 2.142857142857143 2.142857142857143S28.183474285714283 13.714285714285714 27 13.714285714285714h-16.285714285714285c-1.1834742857142857 0 -2.142857142857143 -0.9593828571428571 -2.142857142857143 -2.142857142857143Z" clip-rule="evenodd" stroke-width="3.4286"></path>
  </g>
</svg>