<svg xmlns="http://www.w3.org/2000/svg" fill="none" viewBox="0 0 48 48" id="Sos-Help-Emergency-Sign--Streamline-Core-Remix" height="48" width="48">
  <desc>
    Sos Help Emergency Sign Streamline Icon: https://streamlinehq.com
  </desc>
  <g id="Free Remix/Health/sos-help-emergency-sign">
    <path id="Union" fill="#000000" fill-rule="evenodd" d="M0.0005839131428571428 18.84072c0 -3.857417142857143 3.3320320868571427 -6.794262857142857 6.976558944000001 -6.794262857142857 2.9029371428571427 0 5.852777142857143 1.818377142857143 6.854057142857143 4.651234285714286 0.39438857142857137 1.1157942857142857 -0.19045714285714285 2.340068571428571 -1.3062857142857143 2.7344571428571425 -1.1157942857142857 0.39438857142857137 -2.340068571428571 -0.19045714285714285 -2.7344571428571425 -1.3062857142857143 -0.32585142857142857 -0.921942857142857 -1.5069942857142855 -1.7936914285714283 -2.8133142857142857 -1.7936914285714283 -1.4933142857142856 0 -2.690845714285714 1.228182857142857 -2.690845714285714 2.5085485714285713 0 1.017702857142857 0.69264 1.9048114285714286 1.6799314285714286 2.1516342857142856l2.730925714285714 0.6827314285714285c3.0893142857142855 0.7723199999999999 5.256548571428572 3.548057142857143 5.256548571428572 6.7324457142857135v0.28285714285714286c0 3.8530628571428567 -3.123497142857143 6.976697142857143 -6.976559999999999 6.976697142857143 -2.9029371428571427 0 -5.8528011428571425 -1.8185142857142855 -6.854072228571428 -4.651371428571428 -0.39438685714285715 -1.1157942857142857 0.19044994285714284 -2.340068571428571 1.3062699428571427 -2.7344571428571425 1.1158182857142855 -0.39438857142857137 2.3400994285714285 0.19045714285714285 2.734488 1.3062857142857143 0.32585142857142857 0.921942857142857 1.5069942857142855 1.7936914285714283 2.8133142857142857 1.7936914285714283 1.4861142857142857 0 2.690845714285714 -1.2047314285714286 2.690845714285714 -2.690845714285714v-0.28285714285714286c0 -1.2177942857142856 -0.8288228571428571 -2.2793142857142854 -2.0102399999999996 -2.5746857142857142l-2.7309599999999996 -0.6827314285714285C2.031630857142857 24.426342857142856 0.0005839131428571428 21.825017142857142 0.0005839131428571428 18.84072Zm34.04715322971428 0c0 -3.857417142857143 3.3319199999999998 -6.794262857142857 6.9764914285714275 -6.794262857142857 2.9029714285714285 0 5.852914285714285 1.818377142857143 6.854057142857143 4.651234285714286 0.3942857142857143 1.1157942857142857 -0.19028571428571428 2.340068571428571 -1.3062857142857143 2.7344571428571425 -1.115657142857143 0.39438857142857137 -2.34 -0.19045714285714285 -2.734285714285714 -1.3062857142857143 -0.3260571428571429 -0.921942857142857 -1.5071999999999999 -1.7936914285714283 -2.813485714285714 -1.7936914285714283 -1.493142857142857 0 -2.6907428571428573 1.228182857142857 -2.6907428571428573 2.5085485714285713 0 1.017702857142857 0.6925714285714286 1.9048114285714286 1.68 2.1516342857142856l2.730857142857143 0.6827314285714285c3.089142857142857 0.7723199999999999 5.256342857142856 3.548057142857143 5.256342857142856 6.7324457142857135v0.28285714285714286c0 3.8530628571428567 -3.123428571428571 6.976697142857143 -6.976457142857143 6.976697142857143 -2.9029714285714285 0 -5.852571428571428 -1.8185142857142855 -6.853988571428571 -4.651371428571428 -0.39438857142857137 -1.1157942857142857 0.19055999999999998 -2.340068571428571 1.3062171428571427 -2.7344571428571425 1.1159999999999999 -0.39438857142857137 2.34 0.19045714285714285 2.7346285714285714 1.3062857142857143 0.3257142857142857 0.921942857142857 1.5068571428571427 1.7936914285714283 2.813142857142857 1.7936914285714283 1.4862857142857142 0 2.6907428571428573 -1.2047314285714286 2.6907428571428573 -2.690845714285714v-0.28285714285714286c0 -1.2177942857142856 -0.8286857142857142 -2.2793142857142854 -2.0101714285714287 -2.5746857142857142l-2.730857142857143 -0.6827314285714285c-2.895085714285714 -0.7237714285714285 -4.926205714285714 -3.3250971428571425 -4.926205714285714 -6.309394285714285ZM21.309462857142854 19.309714285714282c0 -1.4861142857142857 1.2047314285714286 -2.690845714285714 2.690845714285714 -2.690845714285714s2.690845714285714 1.2047314285714286 2.690845714285714 2.690845714285714v9.667405714285714c0 1.4861142857142857 -1.2047314285714286 2.690845714285714 -2.690845714285714 2.690845714285714s-2.690845714285714 -1.2047314285714286 -2.690845714285714 -2.690845714285714V19.309714285714282Zm2.690845714285714 -6.976559999999999c-3.8530628571428567 0 -6.976559999999999 3.123497142857143 -6.976559999999999 6.976559999999999v9.667405714285714c0 3.853028571428571 3.123497142857143 6.9765942857142855 6.976559999999999 6.9765942857142855 3.853028571428571 0 6.976559999999999 -3.123565714285714 6.976559999999999 -6.9765942857142855V19.309714285714282c0 -3.8530628571428567 -3.1235314285714284 -6.976559999999999 -6.976559999999999 -6.976559999999999Z" clip-rule="evenodd" stroke-width="3.4286"></path>
  </g>
</svg>