<svg xmlns="http://www.w3.org/2000/svg" fill="none" viewBox="0 0 48 48" id="Spades-Symbol--Streamline-Core-Remix" height="48" width="48">
  <desc>
    Spades Symbol Streamline Icon: https://streamlinehq.com
  </desc>
  <g id="Free Remix/Entertainment/spades-symbol--entertainment-gaming-card-spades-symbol">
    <path id="Vector (Stroke)" fill="#000000" fill-rule="evenodd" d="M26.546434285714284 6.570411428571428c-1.4311542857142856 -1.3319657142857142 -3.6473142857142857 -1.3319657142857142 -5.078434285714285 0L8.033485714285714 19.073999999999998c-0.0011314285714285714 0.001097142857142857 -0.002262857142857143 0.00216 -0.0033942857142857143 0.0032228571428571428 -3.0966514285714286 2.9124 -3.1236685714285715 7.519645714285713 -0.8986628571428571 10.88712 1.0888799999999998 1.6479428571428572 2.655188571428571 2.874651428571428 4.506925714285714 3.383862857142857 1.8243085714285712 0.5017028571428571 4.117782857142857 0.36020571428571424 6.79152 -1.0615542857142857 0.7320685714285713 -0.38927999999999996 1.623017142857143 -0.32129142857142856 2.287542857142857 0.17454857142857141 0.6645599999999999 0.49583999999999995 0.9834171428571428 1.3305257142857143 0.8187085714285713 2.1430285714285713L19.95017142857143 42.42857142857142h8.099794285714285l-1.5883542857142856 -7.835999999999999c-0.16470857142857143 -0.8127771428571428 0.15421714285714286 -1.6475314285714284 0.8188457142857142 -2.1433714285714283 0.6646285714285713 -0.49580571428571424 1.5556457142857143 -0.5636914285714285 2.287714285714286 -0.17423999999999998 2.6696914285714284 1.420182857142857 4.960971428571428 1.5609942857142856 6.784628571428571 1.0587771428571426 1.8514285714285714 -0.5097942857142856 3.418971428571428 -1.7371885714285713 4.509942857142857 -3.3856457142857144 2.2296 -3.3700114285714284 2.2045714285714286 -7.971497142857142 -0.8783999999999998 -10.870902857142857 -0.0010285714285714284 -0.0010285714285714284 -0.0024 -0.0020914285714285713 -0.0034285714285714284 -0.003154285714285714L26.546434285714284 6.570411428571428Zm-7.9982742857142854 -3.1372114285714283c3.0764914285714284 -2.86332 7.841588571428571 -2.86332 10.91808 0L42.91542857142857 15.950365714285713c4.9272 4.6287771428571425 4.644 11.643222857142856 1.5212571428571426 16.362685714285714 -1.5860571428571428 2.3967771428571427 -3.9692571428571424 4.332891428571428 -6.946285714285713 5.152662857142857 -1.8836571428571427 0.5187428571428571 -3.9284571428571424 0.5691428571428572 -6.058594285714285 0.0737142857142857l1.3390971428571428 6.606171428571429c0.1277142857142857 0.6301714285714285 -0.03425142857142857 1.284342857142857 -0.44122285714285714 1.7821714285714285 -0.40700571428571425 0.4978285714285714 -1.0159885714285712 0.7865142857142856 -1.6589485714285714 0.7865142857142856H17.329405714285713c-0.64296 0 -1.251942857142857 -0.28868571428571427 -1.6589142857142856 -0.7865142857142856 -0.40700571428571425 -0.4978285714285714 -0.5689714285714285 -1.152 -0.44125714285714285 -1.7821714285714285l1.3365942857142856 -6.593828571428571c-2.132228571428571 0.49679999999999996 -4.178811428571429 0.4470857142857142 -6.063874285714285 -0.0713142857142857 -2.9778857142857142 -0.8187428571428571 -5.361462857142857 -2.7552 -6.9461828571428565 -5.153519999999999 -3.1213542857142853 -4.723988571428571 -3.3914118857142856 -11.74073142857143 1.5433714285714284 -16.376537142857142l0.007234285714285714 -0.0067885714285714285 13.441782857142856 -12.510411428571429Z" clip-rule="evenodd" stroke-width="3.4286"></path>
  </g>
</svg>