<svg xmlns="http://www.w3.org/2000/svg" fill="none" viewBox="0 0 48 48" id="Speaker-2--Streamline-Core-Remix" height="48" width="48">
  <desc>
    Speaker 2 Streamline Icon: https://streamlinehq.com
  </desc>
  <g id="Free Remix/Entertainment/speaker-2--speakers-music-audio-entertainment">
    <path id="Subtract" fill="#000000" fill-rule="evenodd" d="M8.867108571428572 4.285714285714286c-0.67368 0 -1.219782857142857 0.5461028571428571 -1.219782857142857 1.219782857142857V42.4944c0 0.6737142857142857 0.5461028571428571 1.2198857142857142 1.219782857142857 1.2198857142857142h30.263862857142854c0.6733714285714285 0 1.219542857142857 -0.5461714285714285 1.219542857142857 -1.2198857142857142V5.505497142857142c0 -0.67368 -0.5461714285714285 -1.219782857142857 -1.219542857142857 -1.219782857142857H8.867108571428572Zm-5.505500571428572 1.219782857142857C3.361608 2.4648925714285714 5.8265142857142855 0 8.867108571428572 0h30.263862857142854c3.040457142857143 0 5.505257142857142 2.4648925714285714 5.505257142857142 5.505497142857142V42.4944c0 3.0408 -2.4648 5.505599999999999 -5.505257142857142 5.505599999999999H8.867108571428572c-3.0405942857142856 0 -5.505500571428572 -2.4648 -5.505500571428572 -5.505599999999999V5.505497142857142ZM23.999314285714284 17.241634285714284c-6.51816 0 -11.802171428571427 5.284011428571428 -11.802171428571427 11.802205714285714 0 6.517988571428571 5.284011428571428 11.802102857142856 11.802171428571427 11.802102857142856 6.518194285714285 0 11.802171428571427 -5.284114285714285 11.802171428571427 -11.802102857142856 0 -6.518194285714285 -5.283977142857143 -11.802205714285714 -11.802171428571427 -11.802205714285714Zm0.06291428571428571 -3.6206742857142857 -0.06322285714285715 0.0009257142857142857c-1.6477714285714287 0 -2.983508571428571 -1.3357714285714286 -2.983508571428571 -2.983508571428571 0 -1.6266171428571428 1.3016914285714285 -2.949188571428571 2.9202514285714285 -2.9828571428571427l0.06322285714285715 -0.0009257142857142857c1.6477371428571428 0 2.983508571428571 1.3357714285714286 2.983508571428571 2.983508571428571 0 1.6266171428571428 -1.3017257142857142 2.949222857142857 -2.9202514285714285 2.9828571428571427Zm0.0010285714285714284 17.97713142857143c-0.021325714285714285 0.0007885714285714285 -0.04272 0.0012 -0.06425142857142857 0.0012 -1.411062857142857 0 -2.554937142857143 -1.1439085714285713 -2.554937142857143 -2.554937142857143 0 -1.3896685714285715 1.1094171428571427 -2.5201714285714285 2.4908914285714285 -2.554182857142857 0.021257142857142856 -0.0007542857142857143 0.042582857142857145 -0.0011657142857142858 0.06401142857142857 -0.0011657142857142858 1.411062857142857 0 2.554937142857143 1.1439085714285713 2.554937142857143 2.554937142857143 0 1.389565714285714 -1.1092799999999998 2.520034285714286 -2.4906514285714283 2.554148571428571Z" clip-rule="evenodd" stroke-width="3.4286"></path>
  </g>
</svg>