<svg xmlns="http://www.w3.org/2000/svg" fill="none" viewBox="0 0 48 48" id="Speaker-1--Streamline-Core-Remix" height="48" width="48">
  <desc>
    Speaker 1 Streamline Icon: https://streamlinehq.com
  </desc>
  <g id="Free Remix/Entertainment/speaker-1--speaker-music-audio-subwoofer-entertainment">
    <path id="Subtract" fill="#000000" fill-rule="evenodd" d="M8.571428571428571 5.571428571428571c-1.6568571428571428 0 -3 1.343142857142857 -3 3 0 1.212822857142857 0.7198285714285714 2.2620685714285713 1.7646857142857144 2.7352457142857145 0.5600914285714286 0.2536457142857143 0.9842742857142857 0.7357028571428571 1.1646171428571428 1.3235314285714284 0.18034285714285714 0.5878285714285714 0.09946285714285714 1.224822857142857 -0.22203428571428568 1.748948571428571C6.561771428571428 17.17806857142857 5.571428571428571 20.470114285714285 5.571428571428571 24c0 3.529885714285714 0.9903428571428571 6.821931428571428 2.707268571428571 9.620845714285714 0.32149714285714287 0.5241257142857143 0.4023771428571429 1.160982857142857 0.22203428571428568 1.7489828571428572 -0.18034285714285714 0.5876571428571428 -0.6044914285714286 1.0697142857142856 -1.1646171428571428 1.3234285714285714 -1.044857142857143 0.47314285714285714 -1.7646857142857144 1.5226285714285712 -1.7646857142857144 2.7353142857142854 0 1.6566857142857143 1.343142857142857 3 3 3 1.212822857142857 0 2.2620685714285713 -0.7196571428571428 2.7352457142857145 -1.7646857142857144 0.2536457142857143 -0.5602285714285714 0.7357028571428571 -0.9843428571428572 1.3235314285714284 -1.1646857142857143 0.5878285714285714 -0.18034285714285714 1.224822857142857 -0.09942857142857142 1.748948571428571 0.22217142857142855 2.7989142857142855 1.7166857142857144 6.090959999999999 2.7072 9.620845714285714 2.7072 3.529885714285714 0 6.821931428571428 -0.9905142857142857 9.620845714285714 -2.7072 0.5241257142857143 -0.32159999999999994 1.160982857142857 -0.4025142857142857 1.7489828571428572 -0.22217142857142855 0.5876571428571428 0.18034285714285714 1.0697142857142856 0.6044571428571429 1.3234285714285714 1.1646857142857143 0.47314285714285714 1.0450285714285714 1.5226285714285712 1.7646857142857144 2.7353142857142854 1.7646857142857144 1.6566857142857143 0 3 -1.3433142857142857 3 -3 0 -1.2126857142857144 -0.7196571428571428 -2.2621714285714285 -1.7646857142857144 -2.7353142857142854 -0.5602285714285714 -0.25371428571428567 -0.9843428571428572 -0.7357714285714285 -1.1646857142857143 -1.3234285714285714 -0.18034285714285714 -0.588 -0.09942857142857142 -1.2248571428571429 0.22217142857142855 -1.7489828571428572 1.7166857142857144 -2.7989142857142855 2.7072 -6.090959999999999 2.7072 -9.620845714285714 0 -3.529885714285714 -0.9905142857142857 -6.821931428571428 -2.7072 -9.620845714285714 -0.32159999999999994 -0.5241257142857143 -0.4025142857142857 -1.16112 -0.22217142857142855 -1.748948571428571 0.18034285714285714 -0.5878285714285714 0.6044571428571429 -1.069885714285714 1.1646857142857143 -1.3235314285714284 1.0450285714285714 -0.4731771428571428 1.7646857142857144 -1.522422857142857 1.7646857142857144 -2.7352457142857145 0 -1.6568571428571428 -1.3433142857142857 -3 -3 -3 -1.2126857142857144 0 -2.2621714285714285 0.7198285714285714 -2.7353142857142854 1.7646857142857144 -0.25371428571428567 0.5601257142857142 -0.7357714285714285 0.9842742857142857 -1.3234285714285714 1.1646171428571428 -0.588 0.18034285714285714 -1.2248571428571429 0.09946285714285714 -1.7489828571428572 -0.22203428571428568C30.821931428571425 6.561771428571428 27.529885714285715 5.571428571428571 24 5.571428571428571c-3.529885714285714 0 -6.821931428571428 0.9903428571428571 -9.620845714285714 2.707268571428571 -0.5241257142857143 0.32149714285714287 -1.16112 0.4023771428571429 -1.748948571428571 0.22203428571428568 -0.5878285714285714 -0.18034285714285714 -1.069885714285714 -0.6045257142857142 -1.3235314285714284 -1.1646171428571428 -0.4731771428571428 -1.044857142857143 -1.522422857142857 -1.7646857142857144 -2.7352457142857145 -1.7646857142857144ZM1.2857142857142856 8.571428571428571C1.2857142857142856 4.547622857142857 4.547622857142857 1.2857142857142856 8.571428571428571 1.2857142857142856c2.1210171428571427 0 4.028022857142857 0.906270857142857 5.358068571428571 2.3493257142857145C16.96597714285714 2.130925714285714 20.38656 1.2857142857142856 24 1.2857142857142856s7.0340228571428565 0.845214857142857 10.070502857142857 2.34936C35.400685714285714 2.191988571428571 37.30765714285714 1.2857142857142856 39.42857142857142 1.2857142857142856c4.023771428571428 0 7.285714285714286 3.261908571428571 7.285714285714286 7.285714285714286 0 2.1210171428571427 -0.9061714285714284 4.028022857142857 -2.3492571428571427 5.358068571428571 1.5041142857142855 3.0364799999999996 2.3492571428571427 6.457062857142857 2.3492571428571427 10.070502857142857s-0.8451428571428571 7.0340228571428565 -2.3492571428571427 10.070502857142857c1.443085714285714 1.3301828571428571 2.3492571428571427 3.2371542857142854 2.3492571428571427 5.358068571428571 0 4.023771428571428 -3.261942857142857 7.285714285714286 -7.285714285714286 7.285714285714286 -2.1209142857142855 0 -4.0278857142857145 -0.9061714285714284 -5.358068571428571 -2.3492571428571427 -3.0364799999999996 1.5041142857142855 -6.457062857142857 2.3492571428571427 -10.070502857142857 2.3492571428571427s-7.0340228571428565 -0.8451428571428571 -10.070502857142857 -2.3492571428571427c-1.3300457142857143 1.443085714285714 -3.2370514285714282 2.3492571428571427 -5.358068571428571 2.3492571428571427 -4.023805714285714 0 -7.285714285714286 -3.261942857142857 -7.285714285714286 -7.285714285714286 0 -2.1209142857142855 0.9062742857142857 -4.0278857142857145 2.34936 -5.358068571428571C2.1309291428571426 31.03402285714285 1.2857142857142856 27.613439999999997 1.2857142857142856 24s0.8452114285714285 -7.0340228571428565 2.3493257142857145 -10.070502857142857C2.191985142857143 12.599451428571427 1.2857142857142856 10.692445714285714 1.2857142857142856 8.571428571428571ZM24 10.285714285714285C16.425805714285715 10.285714285714285 10.285714285714285 16.425805714285715 10.285714285714285 24s6.140091428571428 13.714285714285714 13.714285714285714 13.714285714285714 13.714285714285714 -6.140091428571428 13.714285714285714 -13.714285714285714 -6.140091428571428 -13.714285714285714 -13.714285714285714 -13.714285714285714Zm0 10.285714285714285c-1.8935314285714284 0 -3.4285714285714284 1.53504 -3.4285714285714284 3.4285714285714284s1.53504 3.4285714285714284 3.4285714285714284 3.4285714285714284 3.4285714285714284 -1.53504 3.4285714285714284 -3.4285714285714284 -1.53504 -3.4285714285714284 -3.4285714285714284 -3.4285714285714284Z" clip-rule="evenodd" stroke-width="3.4286"></path>
  </g>
</svg>