<svg xmlns="http://www.w3.org/2000/svg" fill="none" viewBox="0 0 48 48" id="Spiral-Shape--Streamline-Core-Remix" height="48" width="48">
  <desc>
    Spiral Shape Streamline Icon: https://streamlinehq.com
  </desc>
  <g id="Free Remix/Interface Essential/spiral-shape">
    <path id="Vector 898" stroke="#000000" stroke-linecap="round" stroke-linejoin="round" stroke-width="4.2857" d="M45.860571428571426 20.877531428571427v1.5614742857142856c0 12.073337142857142 -9.787542857142856 21.86053714285714 -21.86057142857143 21.86053714285714h-1.5614742857142856c-11.210811428571429 0 -20.299018285714286 -9.088114285714285 -20.299018285714286 -20.29909714285714v-2.218902857142857c0 -9.985371428571428 8.094744 -18.08009142857143 18.080081142857143 -18.08009142857143 8.986834285714286 0 16.27206857142857 7.285268571428571 16.27206857142857 16.27206857142857v1.50456c0 7.42968 -6.0229028571428564 13.45254857142857 -13.452582857142856 13.45254857142857h-0.6005485714285714c-6.036617142857143 0 -10.93025142857143 -4.893565714285714 -10.93025142857143 -10.930148571428571v-1.5614742857142856c0 -5.174228571428571 4.194548571428571 -9.368777142857143 9.368777142857143 -9.368777142857143 3.4494857142857143 0 6.245862857142857 2.796342857142857 6.245862857142857 6.2458285714285715v0.8922857142857141c0 2.9566971428571427 -2.39688 5.353577142857143 -5.353611428571428 5.353577142857143h-0.8922514285714286"></path>
  </g>
</svg>