<svg xmlns="http://www.w3.org/2000/svg" fill="none" viewBox="0 0 48 48" id="Spotify--Streamline-Core-Remix" height="48" width="48">
  <desc>
    Spotify Streamline Icon: https://streamlinehq.com
  </desc>
  <g id="Free Remix/Computer Devices/spotify">
    <path id="Union" fill="#000000" fill-rule="evenodd" d="M4.282354285714286 24.00342857142857c0 -10.889794285714286 8.827919999999999 -19.717714285714287 19.717714285714287 -19.717714285714287 10.889759999999999 0 19.717645714285712 8.827919999999999 19.717645714285712 19.717714285714287 0 10.889828571428572 -8.827885714285715 19.717714285714287 -19.717645714285712 19.717714285714287 -10.889794285714286 0 -19.717714285714287 -8.827885714285715 -19.717714285714287 -19.717714285714287ZM24.00006857142857 0C10.74336 0 -0.0033482125714285713 10.746685714285714 -0.0033482125714285713 24.00342857142857c0 13.256571428571426 10.746708212571429 24.00342857142857 24.003416784 24.00342857142857 13.256845714285713 0 24.00336 -10.746857142857143 24.00336 -24.00342857142857C48.003428571428564 10.746685714285714 37.25691428571428 0 24.00006857142857 0ZM13.11006857142857 19.120148571428572c8.530491428571429 -1.6288457142857142 15.060651428571427 -0.7502399999999999 23.17998857142857 3.570445714285714 1.253485714285714 0.6671314285714286 2.810742857142857 0.19165714285714283 3.477942857142857 -1.0620342857142855s0.19165714285714283 -2.810845714285714 -1.0621714285714285 -3.4780114285714285C29.54129142857143 13.273542857142855 21.817165714285714 12.22182857142857 12.145508571428572 14.068559999999998c-1.3949485714285714 0.26636571428571426 -2.309862857142857 1.6131085714285713 -2.0435314285714283 3.0080914285714284 0.26636571428571426 1.3949485714285714 1.613142857142857 2.309862857142857 3.0080914285714284 2.043497142857143Zm13.464582857142856 17.150022857142854c-3.7164342857142856 -1.697485714285714 -6.230502857142857 -2.175874285714286 -10.096011428571428 -1.6998857142857142 -1.4095199999999999 0.17348571428571427 -2.692834285714286 -0.8285828571428571 -2.86632 -2.238102857142857 -0.17352 -1.4095199999999999 0.8284457142857142 -2.692834285714286 2.237965714285714 -2.8663542857142854 4.93296 -0.6072342857142856 8.401337142857143 0.08921142857142857 12.861085714285714 2.1262628571428572 1.2917828571428571 0.5900571428571428 1.8606514285714284 2.1155657142857143 1.2706285714285712 3.407451428571428 -0.5900571428571428 1.291542857142857 -2.1155657142857143 1.860685714285714 -3.407348571428571 1.2706285714285712ZM14.979702857142858 26.61366857142857c6.0315771428571425 -1.198902857142857 10.191942857142855 -0.09552 17.15334857142857 3.2669828571428567 1.2787885714285714 0.6176914285714284 2.8160914285714282 0.08173714285714286 3.4339199999999996 -1.1970514285714284 0.6174857142857143 -1.2787885714285714 0.0816 -2.8161942857142854 -1.1969142857142858 -3.4338857142857138 -7.421657142857143 -3.584742857142857 -12.791005714285713 -5.191268571428571 -20.392971428571425 -3.6802285714285707 -1.3929257142857143 0.27685714285714286 -2.2976571428571426 1.6304914285714285 -2.0208 3.023382857142857 0.27689142857142857 1.3929257142857143 1.6304914285714285 2.2976571428571426 3.023417142857143 2.0208Z" clip-rule="evenodd" stroke-width="3.4286"></path>
  </g>
</svg>