<svg xmlns="http://www.w3.org/2000/svg" fill="none" viewBox="0 0 48 48" id="Spray-Paint--Streamline-Core-Remix" height="48" width="48">
  <desc>
    Spray Paint Streamline Icon: https://streamlinehq.com
  </desc>
  <g id="Free Remix/Interface Essential/spray-paint--can-color-colors-design-paint-painting-spray">
    <path id="Union" fill="#000000" fill-rule="evenodd" d="M45.0912 4.221702857142857c1.1482285714285714 -0.2870057142857143 1.846285714285714 -1.4504502857142856 1.5589714285714285 -2.5985794285714285 -0.28697142857142854 -1.1481325714285713 -1.4502857142857142 -1.846192457142857 -2.5985142857142858 -1.5591593142857143L30.33744 3.492548571428571c-1.14816 0.2870057142857143 -1.8462171428571426 1.4504571428571427 -1.5591771428571428 2.598582857142857 0.28704 1.1481257142857142 1.4504571428571427 1.8461828571428571 2.598582857142857 1.559142857142857l13.714354285714286 -3.4285714285714284ZM20.57142857142857 13.714285714285714H16.71428571428571V9.857142857142856h0.8571428571428571C19.228285714285715 9.857142857142856 20.57142857142857 8.513965714285714 20.57142857142857 6.857142857142857c0 -1.6568571428571428 -1.343142857142857 -3 -3 -3h-7.7142857142857135C8.200285714285714 3.8571428571428568 6.857142857142857 5.200285714285714 6.857142857142857 6.857142857142857c0 1.6568228571428572 1.343142857142857 3 3 3h0.8571428571428571V13.714285714285714H6.857142857142857C3.780137142857143 13.714285714285714 1.2857142857142856 16.208674285714284 1.2857142857142856 19.285714285714285v23.142857142857142C1.2857142857142856 45.505714285714284 3.780137142857143 48 6.857142857142857 48h13.714285714285714c3.0770057142857143 0 5.571428571428571 -2.494285714285714 5.571428571428571 -5.571428571428571v-23.142857142857142C26.142857142857142 16.208674285714284 23.648434285714284 13.714285714285714 20.57142857142857 13.714285714285714ZM6.857142857142857 18c-0.7100914285714285 0 -1.2857142857142856 0.5756228571428571 -1.2857142857142856 1.2857142857142856v23.142857142857142c0 0.7100571428571428 0.5756228571428571 1.2857142857142856 1.2857142857142856 1.2857142857142856h13.714285714285714c0.7100914285714285 0 1.2857142857142856 -0.5756571428571428 1.2857142857142856 -1.2857142857142856v-23.142857142857142c0 -0.7100914285714285 -0.5756228571428571 -1.2857142857142856 -1.2857142857142856 -1.2857142857142856H6.857142857142857Zm21.92112 -5.6625942857142855c0.28704 -1.1481257142857142 1.4504571428571427 -1.8461828571428571 2.598582857142857 -1.559142857142857l13.714354285714286 3.4285714285714284c1.1482285714285714 0.2870057142857143 1.846285714285714 1.4504571428571427 1.5589714285714285 2.598582857142857 -0.28697142857142854 1.1481257142857142 -1.4502857142857142 1.8461828571428571 -2.5985142857142858 1.559142857142857l-13.71421714285714 -3.4285714285714284c-1.14816 -0.2870057142857143 -1.8462171428571426 -1.4504571428571427 -1.5591771428571428 -2.598582857142857Z" clip-rule="evenodd" stroke-width="3.4286"></path>
  </g>
</svg>