<svg xmlns="http://www.w3.org/2000/svg" fill="none" viewBox="0 0 48 48" id="Sprout--Streamline-Core-Remix" height="48" width="48">
  <desc>
    Sprout Streamline Icon: https://streamlinehq.com
  </desc>
  <g id="Free Remix/Nature Ecology/sprout">
    <path id="Union" fill="#000000" fill-rule="evenodd" d="M29.863782857142855 9.649577142857142c-1.03776 1.2448114285714285 -1.5792 2.8306285714285715 -1.5177257142857141 4.452377142857142 0.03277714285714286 0.8643771428571428 0.23550857142857143 1.7056114285714286 0.58872 2.4788571428571426l3.593245714285714 -3.593245714285714c0.8368457142857142 -0.8368457142857142 2.193462857142857 -0.8368457142857142 3.0303771428571427 0 0.8369142857142857 0.8368457142857142 0.8369142857142857 2.1936 0 3.030445714285714L31.89147428571428 19.685039999999997c0.8501485714285715 0.43947428571428565 1.7934857142857141 0.6915771428571428 2.76624 0.7284342857142857 1.6237714285714286 0.06157714285714286 3.211542857142857 -0.4813371428571428 4.457142857142857 -1.5217714285714286 0.4419428571428571 -0.47400000000000003 0.9192 -1.4070857142857143 1.3275428571428571 -2.8447199999999997 0.40628571428571425 -1.4304685714285712 0.6747428571428571 -3.1036114285714285 0.8465142857142857 -4.740548571428572 0.15668571428571426 -1.4939657142857143 0.22868571428571427 -2.9095885714285714 0.2598857142857143 -4.006628571428571 -1.1091428571428572 0.024582857142857142 -2.544685714285714 0.08770285714285714 -4.059428571428571 0.23615999999999998 -1.6505142857142856 0.16176 -3.33696 0.41948571428571424 -4.777405714285714 0.816102857142857 -1.4455542857142856 0.39805714285714283 -2.378091428571428 0.8664342857142856 -2.848182857142857 1.2975085714285715Zm-3.8341714285714286 10.444114285714285c-1.1964685714285714 -1.7020114285714283 -1.8864 -3.724182857142857 -1.9661828571428572 -5.829394285714285 -0.10361142857142856 -2.7336342857142855 0.8291314285714285 -5.40552 2.6115085714285713 -7.480731428571429 0.03761142857142857 -0.043782857142857144 0.07697142857142857 -0.08602285714285714 0.11797714285714286 -0.12661714285714284 1.2508114285714285 -1.2382971428571428 3.0783428571428573 -1.9678971428571428 4.781314285714285 -2.436822857142857 1.7675657142857142 -0.4866857142857142 3.7205142857142857 -0.7753371428571428 5.4972 -0.94944 1.7866285714285715 -0.17513828571428572 3.453942857142857 -0.23988342857142855 4.670742857142857 -0.2612777142857143 0.6099428571428571 -0.010728 1.1108571428571428 -0.010621714285714285 1.461942857142857 -0.007769142857142856 0.17554285714285714 0.0014297142857142857 0.31371428571428567 0.003545142857142857 0.4097142857142857 0.005348571428571428l0.11142857142857143 0.002348571428571428 0.030857142857142854 0.0007645714285714285 0.008914285714285713 0.00023999999999999998 0.0030857142857142854 0.00007885714285714286 0.0010285714285714284 0.00002742857142857142c0.00034285714285714285 0.00001028571428571428 0.0006857142857142857 0.00002057142857142857 -0.060000000000000005 2.1420102857142855 2.1421714285714284 -0.04896 2.1421714285714284 -0.04861714285714285 2.1421714285714284 -0.04820571428571428l0 0.0010285714285714284 0.00034285714285714285 0.0028457142857142856 0 0.008982857142857141 0.0006857142857142857 0.03068571428571428 0.0017142857142857142 0.1109142857142857c0.0013714285714285714 0.09527999999999999 0.0024 0.23256 0.0030857142857142854 0.4068 0.0006857142857142857 0.3483428571428571 -0.0020571428571428568 0.8454171428571428 -0.016457142857142854 1.450902857142857 -0.028457142857142854 1.2077142857142857 -0.10319999999999999 2.8627885714285712 -0.28937142857142856 4.637554285714285 -0.18548571428571428 1.7645142857142857 -0.48685714285714277 3.7054285714285715 -0.9863999999999999 5.46384 -0.48171428571428576 1.6965257142857142 -1.2250285714285714 3.511577142857143 -2.469942857142857 4.756457142857142 -0.03805714285714286 0.03826285714285714 -0.07782857142857143 0.07508571428571428 -0.11897142857142858 0.11033142857142857 -2.0753142857142852 1.7823771428571427 -4.7472 2.7151542857142856 -7.4808 2.611542857142857 -1.8679885714285716 -0.0708 -3.6706285714285714 -0.6220114285714285 -5.242217142857142 -1.581222857142857 -1.5992571428571427 2.979634285714286 -2.744537142857143 6.191314285714285 -3.036857142857143 9.516274285714285 11.578731428571428 0.62928 18.94638857142857 6.077725714285714 21.408102857142858 9.155211428571429 0.41177142857142857 0.5142857142857142 0.49199999999999994 1.219542857142857 0.20674285714285712 1.8133714285714286 -0.28559999999999997 0.5938285714285714 -0.8862857142857142 0.9716571428571428 -1.5452571428571427 0.9716571428571428H1.7143028571428571c-0.6589817142857143 0 -1.2596297142857142 -0.3778285714285714 -1.5450922285714284 -0.9716571428571428 -0.28546285714285713 -0.5938285714285714 -0.20520274285714285 -1.2990857142857142 0.20645794285714283 -1.8133714285714286 2.446621714285714 -3.0582857142857143 9.737965714285714 -8.45808 21.192205714285716 -9.14286857142857 -0.27462857142857144 -0.9225599999999999 -0.7415314285714285 -2.0161371428571426 -1.3871314285714285 -3.1709485714285712 -0.66744 -1.1938628571428571 -1.44432 -2.3077371428571425 -2.2130742857142858 -3.2062971428571423 -0.3550628571428571 0.2693142857142857 -0.7305942857142856 0.5123314285714285 -1.1237485714285713 0.7266857142857143 -1.0643314285714285 0.5802514285714285 -2.2354628571428568 0.9381257142857141 -3.44232 1.05192 -1.2068228571428572 0.1137942857142857 -2.4242057142857143 -0.01889142857142857 -3.5782285714285713 -0.38996571428571425 -1.1371885714285712 -0.3656571428571428 -2.1894514285714286 -0.955302857142857 -3.0947999999999998 -1.734 -1.1594057142857144 -0.9278057142857143 -1.9278514285714283 -2.3457942857142853 -2.4570857142857143 -3.625508571428571 -0.5615657142857142 -1.3578171428571428 -0.9772114285714285 -2.8718399999999997 -1.2824125714285715 -4.24416C2.681588571428571 16.66872 2.4734674285714284 15.371211428571428 2.3422251428571426 14.423177142857142c-0.06585257142857141 -0.47568 -0.11290285714285714 -0.8674285714285714 -0.14373257142857143 -1.1428800000000001 -0.015425142857142858 -0.1377942857142857 -0.026821714285714286 -0.24675428571428573 -0.03450171428571429 -0.3228L2.1552034285714283 12.868457142857142l-0.0023828571428571427 -0.025097142857142856 -0.0007028571428571428 -0.007577142857142857 -0.0002297142857142857 -0.0025028571428571426 -0.00008571428571428571 -0.0009257142857142857c-0.00003428571428571428 -0.00037714285714285714 -0.00006514285714285715 -0.0007199999999999999 2.133912 -0.19542857142857142 -0.3106285714285714 -2.1201942857142857 -0.31032 -2.120262857142857 -0.30994285714285713 -2.1202971428571424l0.0009257142857142857 -0.00013714285714285713 0.0024685714285714285 -0.00037714285714285714 0.007508571428571429 -0.0010628571428571427 0.02496 -0.0035999999999999995 0.08869714285714285 -0.012308571428571427c0.07584 -0.01038857142857143 0.18462857142857142 -0.024857142857142855 0.32245714285714283 -0.04223999999999999 0.2754857142857143 -0.03466285714285714 0.6681257142857142 -0.0809142857142857 1.1468571428571428 -0.1286742857142857 0.9541714285714284 -0.09521142857142856 2.266422857142857 -0.198 3.684068571428571 -0.22491428571428573 1.4070514285714284 -0.02674285714285714 2.9770971428571427 0.019885714285714284 4.427794285714286 0.24359999999999998 1.3654285714285714 0.21058285714285713 2.9252914285714287 0.6196114285714285 4.097588571428571 1.5248571428571427 0.9702514285714285 0.6965828571428571 1.7913257142857142 1.5805371428571429 2.41464 2.5998171428571424 0.6324 1.03416 1.0480114285714286 2.1860571428571425 1.2216342857142857 3.385748571428571 0.17362285714285713 1.1997257142857143 0.10162285714285714 2.422182857142857 -0.21168 3.5932114285714283 -0.13141714285714287 0.49134857142857136 -0.3041828571428571 0.9692914285714286 -0.5158285714285714 1.4289942857142857 0.9122742857142856 0.9775885714285714 1.7838171428571425 2.1362742857142853 2.5455085714285715 3.344057142857143 0.7297714285714285 -2.172274285714286 1.7016 -4.22592 2.79624 -6.129908571428571ZM43.70914285714286 5.152457142857142l0.06068571428571429 -2.1419897142857143c1.140342857142857 0.03230742857142857 2.0554285714285716 0.9524468571428572 2.081485714285714 2.093029714285714l-2.1421714285714284 0.04896ZM3.975085714285714 10.516731428571427l0.3106285714285714 2.1201942857142857 -2.133977142857143 0.19470857142857143c-0.10341257142857142 -1.133382857142857 0.6972445714285713 -2.14992 1.8233485714285713 -2.314902857142857Zm12.301474285714285 11.43558857142857c0.36380571428571423 -0.4802742857142857 0.6311657142857142 -1.0267885714285714 0.7870285714285714 -1.6093714285714285 0.1632 -0.6100114285714285 0.20070857142857143 -1.2468 0.11026285714285713 -1.87176 -0.09044571428571428 -0.62496 -0.30695999999999996 -1.2250285714285714 -0.6363771428571429 -1.7637257142857141 -0.32945142857142856 -0.5387314285714285 -0.7649485714285714 -1.00488 -1.2800228571428571 -1.3701599999999998 -0.030445714285714288 -0.021565714285714282 -0.060308571428571434 -0.04392 -0.08955428571428571 -0.06706285714285715 -0.2852571428571428 -0.22556571428571429 -0.9595542857142857 -0.50568 -2.1396685714285715 -0.6876685714285714 -1.1131542857142858 -0.17170285714285713 -2.413062857142857 -0.21863999999999997 -3.6931542857142854 -0.19433142857142857 -0.96048 0.01824 -1.8765942857142859 0.07577142857142857 -2.646102857142857 0.1406742857142857 0.11729142857142856 0.7597028571428571 0.2760685714285714 1.65888 0.48360000000000003 2.5919314285714283 0.27730285714285713 1.2468342857142856 0.6291085714285714 2.49648 1.0592914285714286 3.536708571428571 0.45534857142857144 1.101017142857143 0.8892685714285713 1.6943657142857143 1.1831314285714285 1.9240457142857141 0.029691428571428567 0.023245714285714283 0.05879999999999999 0.04724571428571429 0.08725714285714285 0.072 0.4762971428571428 0.4146171428571428 1.0318971428571428 0.7280571428571428 1.6330628571428571 0.9213600000000001 0.6011314285714285 0.19330285714285714 1.2353142857142856 0.2624228571428571 1.8639771428571428 0.20314285714285713 0.6286971428571428 -0.05928 1.2387428571428571 -0.24572571428571427 1.7931771428571426 -0.5479885714285714 0.5544342857142857 -0.3022628571428571 1.0416342857142857 -0.7140342857142857 1.4320457142857141 -1.2103542857142857l0.04186285714285714 -0.05403428571428571 0.010182857142857143 -0.013405714285714286ZM4.595622857142857 14.757257142857142c-0.00013714285714285713 0.00003428571428571428 -0.00010285714285714286 0.00003428571428571428 0.00003428571428571428 0l-0.00003428571428571428 0Z" clip-rule="evenodd" stroke-width="3.4286"></path>
  </g>
</svg>