<svg xmlns="http://www.w3.org/2000/svg" fill="none" viewBox="0 0 48 48" id="Square-Root-X-Circle--Streamline-Core-Remix" height="48" width="48">
  <desc>
    Square Root X Circle Streamline Icon: https://streamlinehq.com
  </desc>
  <g id="Free Remix/Interface Essential/square-root-x-circle--interface-math-square-root-sign-mathematics">
    <path id="Union" fill="#000000" fill-rule="evenodd" d="M4.285714285714286 24c0 -10.887908571428571 8.826377142857142 -19.71428571428571 19.71428571428571 -19.71428571428571 10.887771428571428 0 19.71428571428571 8.826377142857142 19.71428571428571 19.71428571428571 0 10.887771428571428 -8.826514285714284 19.71428571428571 -19.71428571428571 19.71428571428571 -10.887908571428571 0 -19.71428571428571 -8.826514285714284 -19.71428571428571 -19.71428571428571ZM24 0C10.745177142857143 0 0 10.745177142857143 0 24c0 13.254857142857142 10.745177142857143 24 24 24 13.254857142857142 0 24 -10.745142857142856 24 -24 0 -13.254822857142857 -10.745142857142856 -24 -24 -24ZM20.142857142857142 13.285714285714285c-1.0214742857142856 0 -1.900902857142857 0.7209942857142857 -2.1012342857142854 1.7226171428571428l-2.6433257142857145 13.21662857142857 -2.311645714285714 -2.3116114285714287c-0.8368457142857142 -0.8368457142857142 -2.1936 -0.8368457142857142 -3.030445714285714 0 -0.8368457142857142 0.8368457142857142 -0.8368457142857142 2.1936 0 3.030445714285714l5.142857142857142 5.142857142857142c0.5587885714285714 0.55872 1.3798285714285712 0.7647771428571428 2.136205714285714 0.5357485714285715 0.7563428571428571 -0.22902857142857141 1.32528 -0.8558057142857143 1.4802514285714286 -1.6307314285714285L21.89958857142857 17.57142857142857H34.285714285714285c1.183542857142857 0 2.142857142857143 -0.9593828571428571 2.142857142857143 -2.142857142857143s-0.9593142857142857 -2.142857142857143 -2.142857142857143 -2.142857142857143H20.142857142857142Zm7.24470857142857 9.375668571428571c-0.739302857142857 -0.9241371428571428 -2.0877942857142857 -1.0739657142857142 -3.0118971428571424 -0.33466285714285715 -0.9241371428571428 0.739302857142857 -1.0739657142857142 2.0877942857142857 -0.33466285714285715 3.0118971428571424l2.3576571428571427 2.9470971428571424 -2.3576571428571427 2.9470971428571424c-0.739302857142857 0.9241028571428571 -0.5894742857142857 2.2725942857142853 0.33466285714285715 3.0118971428571424 0.9241028571428571 0.7394057142857142 2.2725942857142853 0.5895771428571428 3.0118971428571424 -0.33466285714285715L29.142857142857142 31.71596571428571l1.7552914285714283 2.1940799999999996c0.739302857142857 0.9242399999999998 2.0877942857142857 1.0740685714285714 3.0118971428571424 0.33466285714285715 0.9242399999999998 -0.739302857142857 1.0740685714285714 -2.0877942857142857 0.33466285714285715 -3.0118971428571424L31.88705142857143 28.285714285714285l2.3576571428571427 -2.9470971428571424c0.7394057142857142 -0.9241028571428571 0.5895771428571428 -2.2725942857142853 -0.33466285714285715 -3.0118971428571424 -0.9241028571428571 -0.739302857142857 -2.2725942857142853 -0.5894742857142857 -3.0118971428571424 0.33466285714285715L29.142857142857142 24.855462857142854l-1.7552914285714283 -2.1940799999999996Z" clip-rule="evenodd" stroke-width="3.4286"></path>
  </g>
</svg>