<svg xmlns="http://www.w3.org/2000/svg" fill="none" viewBox="0 0 48 48" id="Square-Clock--Streamline-Core-Remix" height="48" width="48">
  <desc>
    Square Clock Streamline Icon: https://streamlinehq.com
  </desc>
  <g id="Free Remix/Interface Essential/square-clock--clock-loading-frame-measure-time-circle">
    <path id="Union" fill="#000000" fill-rule="evenodd" d="M6.857142857142857 1.2857142857142856C3.780137142857143 1.2857142857142856 1.2857142857142856 3.780137142857143 1.2857142857142856 6.857142857142857v34.285714285714285c0 3.077142857142857 2.494422857142857 5.571428571428571 5.571428571428571 5.571428571428571h34.285714285714285c3.077142857142857 0 5.571428571428571 -2.494285714285714 5.571428571428571 -5.571428571428571V6.857142857142857c0 -3.0770057142857143 -2.494285714285714 -5.571428571428571 -5.571428571428571 -5.571428571428571H6.857142857142857ZM5.571428571428571 6.857142857142857c0 -0.7100914285714285 0.5756228571428571 -1.2857142857142856 1.2857142857142856 -1.2857142857142856h34.285714285714285c0.7100571428571428 0 1.2857142857142856 0.5756228571428571 1.2857142857142856 1.2857142857142856v34.285714285714285c0 0.7100571428571428 -0.5756571428571428 1.2857142857142856 -1.2857142857142856 1.2857142857142856H6.857142857142857c-0.7100914285714285 0 -1.2857142857142856 -0.5756571428571428 -1.2857142857142856 -1.2857142857142856V6.857142857142857ZM24 37.714285714285715c7.574194285714285 0 13.714285714285714 -6.140091428571428 13.714285714285714 -13.714285714285714S31.574194285714285 10.285714285714285 24 10.285714285714285 10.285714285714285 16.425805714285715 10.285714285714285 24s6.140091428571428 13.714285714285714 13.714285714285714 13.714285714285714Zm0 -21c1.1834742857142857 0 2.142857142857143 0.9593828571428571 2.142857142857143 2.142857142857143v3H29.142857142857142c1.1834742857142857 0 2.142857142857143 0.9593828571428571 2.142857142857143 2.142857142857143s-0.9593828571428571 2.142857142857143 -2.142857142857143 2.142857142857143H24c-1.1834742857142857 0 -2.142857142857143 -0.9593828571428571 -2.142857142857143 -2.142857142857143V18.857142857142858c0 -1.1834742857142857 0.9593828571428571 -2.142857142857143 2.142857142857143 -2.142857142857143Z" clip-rule="evenodd" stroke-width="3.4286"></path>
  </g>
</svg>