<svg xmlns="http://www.w3.org/2000/svg" fill="none" viewBox="0 0 48 48" id="Square-Cap--Streamline-Core-Remix" height="48" width="48">
  <desc>
    Square Cap Streamline Icon: https://streamlinehq.com
  </desc>
  <g id="Free Remix/Interface Essential/square-cap">
    <path id="Union" fill="#000000" fill-rule="evenodd" d="M5.571428571428571 4.714285714285714C2.494412571428571 4.714285714285714 0 7.208708571428571 0 10.285714285714285v27.428571428571427c0 3.077142857142857 2.494412571428571 5.571428571428571 5.571428571428571 5.571428571428571h40.285714285714285c1.183542857142857 0 2.142857142857143 -0.9593142857142857 2.142857142857143 -2.142857142857143s-0.9593142857142857 -2.142857142857143 -2.142857142857143 -2.142857142857143H5.571428571428571c-0.7100914285714285 0 -1.2857142857142856 -0.5756571428571428 -1.2857142857142856 -1.2857142857142856V10.285714285714285c0 -0.7100914285714285 0.5756228571428571 -1.2857142857142856 1.2857142857142856 -1.2857142857142856h40.285714285714285c1.183542857142857 0 2.142857142857143 -0.9593828571428571 2.142857142857143 -2.142857142857143s-0.9593142857142857 -2.142857142857143 -2.142857142857143 -2.142857142857143H5.571428571428571ZM9.857142857142856 24c0 -4.970571428571429 4.0294285714285705 -9 9 -9 4.232125714285714 0 7.782 2.921142857142857 8.743337142857142 6.857142857142857H45.857142857142854c1.183542857142857 0 2.142857142857143 0.9593828571428571 2.142857142857143 2.142857142857143s-0.9593142857142857 2.142857142857143 -2.142857142857143 2.142857142857143H27.60048c-0.9613371428571427 3.9359999999999995 -4.511211428571428 6.857142857142857 -8.743337142857142 6.857142857142857 -4.970571428571429 0 -9 -4.0294285714285705 -9 -9Z" clip-rule="evenodd" stroke-width="3.4286"></path>
  </g>
</svg>