<svg xmlns="http://www.w3.org/2000/svg" fill="none" viewBox="0 0 48 48" id="Star-1--Streamline-Core-Remix" height="48" width="48">
  <desc>
    Star 1 Streamline Icon: https://streamlinehq.com
  </desc>
  <g id="Free Remix/Interface Essential/star-1--reward-rating-rate-social-star-media-favorite-like-stars">
    <path id="Vector" stroke="#000000" stroke-linecap="round" stroke-linejoin="round" stroke-width="4.2857" d="M23.126434285714286 38.65405714285714c0.27209142857142854 -0.13337142857142856 0.5711999999999999 -0.20297142857142858 0.87432 -0.20297142857142858 0.3030857142857143 0 0.6023657142857143 0.0696 0.8744571428571428 0.20297142857142858l10.625931428571429 5.615657142857143c0.3058285714285714 0.1625142857142857 0.6510857142857143 0.23588571428571428 0.9963428571428572 0.2118857142857143 0.3452571428571428 -0.024 0.6771428571428572 -0.14434285714285713 0.9572571428571428 -0.34765714285714283 0.28045714285714285 -0.20297142857142858 0.4981714285714286 -0.4810285714285714 0.6281142857142857 -0.8016 0.13028571428571428 -0.3209142857142857 0.168 -0.6716571428571428 0.10834285714285714 -1.0128l-2.0509714285714282 -12.004765714285712c-0.05211428571428571 -0.29256 -0.03017142857142857 -0.5934514285714285 0.06377142857142856 -0.8753485714285714 0.09394285714285713 -0.28193142857142856 0.2571428571428571 -0.5358514285714285 0.4741714285714286 -0.7386857142857143l8.608457142857143 -8.305782857142857c0.2544 -0.24178285714285713 0.4337142857142857 -0.5522057142857143 0.5156571428571428 -0.8937257142857142 0.0816 -0.34152 0.06274285714285714 -0.6994285714285714 -0.054857142857142854 -1.0303885714285714 -0.11725714285714285 -0.33092571428571427 -0.3281142857142857 -0.620742857142857 -0.6068571428571428 -0.8342742857142856 -0.2787428571428571 -0.21356571428571428 -0.6137142857142857 -0.34169142857142853 -0.9637714285714286 -0.3688457142857142l-11.802857142857142 -1.748605714285714c-0.2979428571428571 -0.03298285714285714 -0.582 -0.14348571428571427 -0.8238857142857143 -0.3205028571428571 -0.24191999999999997 -0.17698285714285714 -0.4331999999999999 -0.4143085714285714 -0.5548114285714285 -0.6882857142857143L25.64862857142857 3.7162285714285717C25.50305142857143 3.401849142857143 25.27052571428571 3.135685714285714 24.978582857142857 2.9491542857142856c-0.2919771428571428 -0.18653485714285714 -0.6313714285714286 -0.28565142857142856 -0.9778285714285714 -0.28565142857142856 -0.34649142857142856 0 -0.6857142857142857 0.09911657142857143 -0.9776571428571429 0.28565142857142856 -0.2919428571428571 0.18653142857142857 -0.5244685714285714 0.45269485714285707 -0.6700457142857142 0.7670742857142857L17.006434285714285 14.510331428571426c-0.12161142857142856 0.2739771428571428 -0.31289142857142854 0.5113028571428572 -0.5548114285714285 0.6882857142857143 -0.2418857142857143 0.17701714285714285 -0.5259771428571428 0.28752 -0.8238857142857143 0.3205028571428571l-11.802891428571428 1.748605714285714c-0.35012571428571426 0.027154285714285714 -0.6848571428571428 0.15527999999999997 -0.9636445714285714 0.3688457142857142 -0.2787874285714285 0.21353142857142857 -0.4896685714285714 0.5033485714285714 -0.607104 0.8342742857142856 -0.11743885714285714 0.33096 -0.13638857142857144 0.6888685714285714 -0.05455542857142857 1.0303885714285714 0.08183314285714285 0.34152 0.2609382857142857 0.6519428571428572 0.515616 0.8937257142857142L11.323542857142858 28.700742857142856c0.21713142857142856 0.2028342857142857 0.3800914285714285 0.4567542857142857 0.4740685714285714 0.7386857142857143 0.09394285714285713 0.28189714285714285 0.11595428571428572 0.5827885714285713 0.06394285714285713 0.8753485714285714l-2.0512114285714285 12.004765714285712c-0.05938285714285713 0.34114285714285714 -0.02184 0.6918857142857143 0.10834285714285714 1.0128 0.13021714285714284 0.32057142857142856 0.34782857142857143 0.5986285714285714 0.6281485714285714 0.8016 0.2802857142857143 0.2033142857142857 0.612 0.3236571428571428 0.9573599999999999 0.34765714285714283 0.3453942857142857 0.024 0.690582857142857 -0.049371428571428566 0.9962742857142857 -0.2118857142857143l10.625965714285714 -5.615657142857143Z"></path>
  </g>
</svg>