<svg xmlns="http://www.w3.org/2000/svg" fill="none" viewBox="0 0 48 48" id="Startup--Streamline-Core-Remix" height="48" width="48">
  <desc>
    Startup Streamline Icon: https://streamlinehq.com
  </desc>
  <g id="Free Remix/Money Shopping/startup--shop-rocket-launch-startup">
    <path id="Union" fill="#000000" fill-rule="evenodd" d="M45.225942857142854 1.6331074285714284c0.0010285714285714284 0.0003977142857142857 0.0017142857142857142 0.0007748571428571428 -0.8334857142857143 1.9740925714285713 1.973142857142857 -0.8353234285714285 1.9734857142857143 -0.834432 1.9741714285714285 -0.833496l0.0006857142857142857 0.0020777142857142856 0.0020571428571428568 0.004923428571428571 0.005485714285714286 0.012870857142857142 0.015428571428571427 0.03772457142857143c0.012342857142857142 0.03041828571428571 0.028799999999999996 0.07133485714285714 0.048685714285714284 0.12232114285714285 0.03977142857142857 0.10194171428571427 0.09325714285714284 0.2443405714285714 0.15668571428571426 0.423768 0.12651428571428572 0.3585188571428571 0.2921142857142857 0.8669417142857143 0.4614857142857143 1.4975931428571427 0.33805714285714283 1.2568114285714285 0.6987428571428571 3.0244114285714283 0.7861714285714285 5.074217142857143 0.1752 4.105097142857143 -0.7501714285714285 9.465668571428571 -5.259771428571429 13.984354285714284 -1.6621714285714284 1.7182285714285712 -4.041942857142857 3.4219199999999996 -6.6658285714285705 5.08512 1.5027428571428572 3.104982857142857 1.5819428571428569 6.196868571428571 0.6493714285714286 9.125211428571427 -1.0868571428571427 3.410742857142857 -3.4948799999999993 6.451199999999999 -6.166525714285714 9.053485714285713 -0.4686857142857142 0.4566857142857143 -1.1202171428571428 0.6740571428571428 -1.7691085714285713 0.5903999999999999 -0.6488914285714286 -0.08365714285714286 -1.224 -0.4590857142857142 -1.5616114285714284 -1.0196571428571428l-6.59136 -10.9416 -8.305988571428571 -8.306057142857142L1.2316319999999998 20.929577142857145C0.6712182857142857 20.592 0.2957324571428571 20.016857142857145 0.2120982857142857 19.368c-0.08363417142857142 -0.6488914285714286 0.13374857142857144 -1.300422857142857 0.5902422857142857 -1.7691085714285713 2.6022719999999997 -2.671645714285714 5.6427565714285715 -5.07984 9.053602285714286 -6.166422857142857 2.9272457142857142 -0.9325371428571428 6.0183085714285705 -0.8534057142857142 9.122365714285715 0.6480342857142857 1.6654285714285715 -2.624228571428571 3.3721371428571425 -5.004925714285714 5.0876914285714285 -6.664251428571428C28.58472 0.906336 33.94529142857143 -0.01900981714285714 38.050285714285714 0.15626365714285712c2.049942857142857 0.08752045714285714 3.817371428571428 0.44807005714285714 5.074285714285714 0.7860414857142857 0.6308571428571428 0.1695977142857143 1.1389714285714285 0.3352388571428571 1.4976 0.4617085714285714 0.1793142857142857 0.06329485714285714 0.32194285714285714 0.11696571428571428 0.4237714285714286 0.156672 0.05108571428571428 0.019858285714285714 0.09188571428571428 0.03624342857142857 0.12240000000000001 0.04861714285714285l0.03771428571428571 0.015493714285714284 0.012685714285714286 0.005365714285714285 0.005142857142857143 0.002070857142857143 0.0020571428571428568 0.0008742857142857143Zm-0.8334857142857143 1.9740925714285713 1.973142857142857 -0.8353234285714285C46.14857142857143 2.259096 45.74057142857142 1.8509485714285714 45.22765714285714 1.6338822857142856l-0.8351999999999999 1.9733177142857143ZM31.803017142857144 26.502925714285713c0.1176342857142857 -0.08026285714285714 0.24041142857142855 -0.14722285714285713 0.3665828571428571 -0.20122285714285712 3.197142857142857 -1.9509942857142857 5.7768 -3.7347085714285715 7.3429714285714285 -5.357828571428571l0.02674285714285714 -0.02753142857142857 0 0.00023999999999999998c3.4223999999999997 -3.4221942857142857 4.164 -7.467359999999999 4.022057142857142 -10.784571428571429 -0.07097142857142856 -1.6633371428571428 -0.36548571428571425 -3.112457142857143 -0.6428571428571428 -4.144045714285714 -0.07097142857142856 -0.2645828571428571 -0.14057142857142857 -0.49998857142857134 -0.20434285714285713 -0.7026514285714286 -0.2026285714285714 -0.06363428571428571 -0.43782857142857146 -0.1332 -0.7025142857142856 -0.20434285714285713 -1.0316571428571428 -0.27740571428571426 -2.4805714285714284 -0.5718857142857142 -4.144114285714286 -0.6428914285714286 -3.317142857142857 -0.1416342857142857 -7.362308571428571 0.5998628571428571 -10.784502857142856 4.022057142857142l-0.027085714285714286 0.027051428571428567 -0.00020571428571428572 -0.00023999999999999998c-1.6171542857142855 1.560377142857143 -3.4011085714285714 4.134274285714286 -5.3472 7.317942857142857 -0.055714285714285716 0.1349142857142857 -0.12613714285714286 0.26616 -0.21168 0.3915428571428571 -0.041417142857142854 0.06065142857142857 -0.08537142857142856 0.11852571428571426 -0.13165714285714283 0.1735542857142857 -0.12963428571428573 0.21462857142857142 -0.2586857142857143 0.42946285714285715 -0.38718857142857144 0.6445371428571428l10.00350857142857 10.003542857142856c0.22535999999999998 -0.1344342857142857 0.4489714285714286 -0.26855999999999997 0.6706285714285714 -0.4023771428571429 0.04820571428571428 -0.039394285714285715 0.09846857142857142 -0.07704 0.15085714285714283 -0.11276571428571429Zm-0.12963428571428573 5.083405714285714c0.032845714285714284 -0.01806857142857143 0.06534857142857142 -0.037097142857142856 0.09744 -0.057051428571428565l0.46031999999999995 -0.27024c0.8485714285714285 1.9682742857142856 0.8177485714285714 3.809074285714286 0.25230857142857144 5.584045714285714 -0.56208 1.7643428571428568 -1.6811314285714285 3.5393142857142856 -3.1968342857142855 5.299542857142857l-4.097759999999999 -6.802285714285714c1.084285714285714 -0.6346285714285713 2.1834857142857143 -1.267542857142857 3.2835085714285714 -1.901005714285714l0.26554285714285714 -0.1529142857142857c0.9842057142857141 -0.5668457142857143 1.9682399999999998 -1.1342057142857143 2.9354742857142857 -1.7000914285714286Zm-4.518479999999999 -2.3339999999999996L18.743211428571428 20.84064l-0.5353371428571428 0.9306857142857143c-0.6848914285714285 1.1912914285714284 -1.3785257142857141 2.397737142857143 -2.098525714285714 3.625097142857143l6.492582857142857 6.492582857142857c1.2367885714285713 -0.7268914285714285 2.4881142857142855 -1.4474742857142857 3.720925714285714 -2.1573942857142856l0.0005485714285714285 -0.00030857142857142856 0.0009257142857142857 -0.0005142857142857142 0.2746971428571428 -0.1581942857142857 0.5558742857142857 -0.3202628571428571ZM11.156811428571428 15.515965714285713c1.7735999999999998 -0.5649942857142857 3.6129942857142856 -0.5962285714285714 5.5796914285714285 0.25049142857142853 -0.7524342857142856 1.2780685714285713 -1.5284914285714284 2.6256 -2.302285714285714 3.9692571428571424l-0.00006857142857142857 0.00013714285714285713 -0.00030857142857142856 0.00047999999999999996 -0.00030857142857142856 0.0005828571428571429 -0.00010285714285714286 0.00020571428571428572 -0.00017142857142857143 0.00023999999999999998c-0.5974628571428571 1.0374857142857141 -1.1935542857142856 2.072605714285714 -1.7764457142857142 3.0715885714285713l-6.799577142857142 -4.096114285714286c1.7602628571428571 -1.515702857142857 3.5351657142857142 -2.6347542857142856 5.299577142857142 -3.1968685714285714ZM0.030944742857142857 45.961371428571425c-0.00003946285714285714 0 -0.00007224 0.00034285714285714285 1.6833684 0.324l-1.68344064 -0.3236571428571428c-0.10739375999999999 0.5581714285714285 0.0691389257142857 1.1338285714285714 0.4712554971428571 1.5356571428571428 0.40212 0.40217142857142857 0.9774754285714284 0.5787428571428571 1.5359211428571429 0.4714285714285714l-0.323736 -1.6834285714285713c0.323736 1.6834285714285713 0.32390742857142857 1.6834285714285713 0.3241131428571429 1.6834285714285713l0.0005794285714285713 -0.00034285714285714285 0.0017725714285714285 -0.00034285714285714285 0.0059588571428571425 -0.0010285714285714284 0.021442285714285712 -0.0041142857142857136 0.07971771428571428 -0.01577142857142857c0.06902742857142857 -0.013714285714285714 0.16922057142857141 -0.0336 0.29669142857142855 -0.05965714285714285 0.2548662857142857 -0.05211428571428571 0.6192617142857143 -0.12857142857142856 1.0620171428571428 -0.22594285714285714 0.8839199999999999 -0.1944 2.087897142857143 -0.47485714285714287 3.3601028571428566 -0.8183999999999999 1.2662057142857144 -0.3418285714285714 2.6310857142857142 -0.7539428571428571 3.8255314285714284 -1.215085714285714 1.1155542857142857 -0.43097142857142856 2.333965714285714 -0.9953142857142857 3.103885714285714 -1.7324571428571427 0.6689142857142857 -0.6260571428571429 1.2056914285714284 -1.3796571428571427 1.5785485714285712 -2.216228571428571 0.3748114285714286 -0.8413714285714285 0.5763085714285714 -1.7492571428571426 0.59256 -2.669828571428571 0.016251428571428573 -0.9209142857142857 -0.15311999999999998 -1.8353142857142857 -0.49799999999999994 -2.6893714285714285 -0.34487999999999996 -0.8537142857142856 -0.8582057142857141 -1.6292571428571427 -1.5093257142857142 -2.2805142857142857 -0.6511542857142857 -0.6511199999999999 -1.4267657142857142 -1.164445714285714 -2.280617142857143 -1.5093257142857142 -0.8538171428571428 -0.34487999999999996 -1.7683885714285714 -0.5142514285714286 -2.689097142857143 -0.49799999999999994 -0.9207085714285714 0.016251428571428573 -1.8286971428571428 0.2177485714285714 -2.669862857142857 0.59256 -0.8368457142857142 0.37285714285714283 -1.5904114285714286 0.9096342857142856 -2.2162971428571425 1.5785485714285712 -0.7371497142857142 0.7699885714285714 -1.3016742857142858 1.9881599999999997 -1.7324811428571425 3.1038171428571424 -0.4612457142857143 1.1945142857142856 -0.8734182857142857 2.5594285714285716 -1.215161142857143 3.8255999999999997 -0.3433645714285714 1.272342857142857 -0.6239794285714285 2.4761142857142855 -0.8184617142857142 3.36 -0.09741977142857143 0.44297142857142857 -0.17365234285714284 0.8074285714285714 -0.22575531428571427 1.0621714285714285 -0.026059885714285712 0.12754285714285712 -0.046108114285714284 0.22765714285714284 -0.05977645714285714 0.29657142857142854l-0.01567885714285714 0.07988571428571428 -0.004169382857142857 0.021257142857142856 -0.00115248 0.006171428571428571 -0.0003413828571428571 0.0017142857142857142 -0.00011166857142857143 0.0006857142857142857ZM36 8.571428571428571c-1.893565714285714 0 -3.4285714285714284 1.53504 -3.4285714285714284 3.4285714285714284s1.535005714285714 3.4285714285714284 3.4285714285714284 3.4285714285714284c1.8936 0 3.4285714285714284 -1.53504 3.4285714285714284 -3.4285714285714284s-1.5349714285714284 -3.4285714285714284 -3.4285714285714284 -3.4285714285714284Z" clip-rule="evenodd" stroke-width="3.4286"></path>
  </g>
</svg>