<svg xmlns="http://www.w3.org/2000/svg" fill="none" viewBox="0 0 48 48" id="Steering-Wheel--Streamline-Core-Remix" height="48" width="48">
  <desc>
    Steering Wheel Streamline Icon: https://streamlinehq.com
  </desc>
  <g id="Free Remix/Map Travel/steering-wheel">
    <path id="Union" fill="#000000" fill-rule="evenodd" d="M4.285714285714286 24c0 -10.887908571428571 8.826377142857142 -19.71428571428571 19.71428571428571 -19.71428571428571 10.887771428571428 0 19.71428571428571 8.826377142857142 19.71428571428571 19.71428571428571 0 10.887771428571428 -8.826514285714284 19.71428571428571 -19.71428571428571 19.71428571428571 -10.887908571428571 0 -19.71428571428571 -8.826514285714284 -19.71428571428571 -19.71428571428571ZM24 0C10.745177142857143 0 0 10.745177142857143 0 24c0 13.254857142857142 10.745177142857143 24 24 24 13.254857142857142 0 24 -10.745142857142856 24 -24 0 -13.254822857142857 -10.745142857142856 -24 -24 -24ZM14.103668571428571 18C16.133142857142854 14.659817142857143 19.805999999999997 12.428571428571427 24 12.428571428571427c4.194 0 7.866857142857143 2.231245714285714 9.896331428571427 5.571428571428571H14.103668571428571Zm-1.6438285714285712 5.142857142857142c-0.020708571428571427 0.2829942857142857 -0.03126857142857142 0.5688342857142857 -0.03126857142857142 0.8571428571428571 0 5.506937142857143 3.8468914285714284 10.115382857142857 9 11.284799999999999V30.857142857142854c0 -0.1274742857142857 0.009291428571428572 -0.2527885714285714 0.027188571428571427 -0.37529142857142855L15.339942857142855 23.142857142857142h-2.880102857142857Zm20.20021714285714 0L26.54424 30.481851428571424C26.56213714285714 30.604354285714287 26.57142857142857 30.729668571428572 26.57142857142857 30.857142857142854v4.427657142857143C31.724537142857145 34.115382857142855 35.57142857142857 29.50693714285714 35.57142857142857 24c0 -0.2883085714285714 -0.010628571428571428 -0.5741485714285713 -0.0312 -0.8571428571428571h-2.8801714285714284ZM24 8.142857142857142C15.242331428571429 8.142857142857142 8.142857142857142 15.242331428571429 8.142857142857142 24S15.242331428571429 39.857142857142854 24 39.857142857142854 39.857142857142854 32.757668571428574 39.857142857142854 24 32.757668571428574 8.142857142857142 24 8.142857142857142Z" clip-rule="evenodd" stroke-width="3.4286"></path>
  </g>
</svg>