<svg xmlns="http://www.w3.org/2000/svg" fill="none" viewBox="0 0 48 48" id="Steps-Number--Streamline-Core-Remix" height="48" width="48">
  <desc>
    Steps Number Streamline Icon: https://streamlinehq.com
  </desc>
  <g id="Free Remix/Programming/Programming/Web/steps-number--interface-number-internet-menu-progress">
    <path id="Union" fill="#000000" fill-rule="evenodd" d="m41.89508571428571 0 -1.8287999999999998 0.00001614445714285714C37.54765714285714 0.00003903291428571428 35.43017142857143 1.6924697142857141 34.778057142857136 3.99792c-0.3222857142857143 1.1388 0.33977142857142856 2.3230628571428573 1.4787428571428571 2.645177142857143 1.1386285714285713 0.32211428571428574 2.3232 -0.3399771428571428 2.645142857142857 -1.4787428571428571 0.144 -0.5089028571428571 0.6137142857142857 -0.8786057142857142 1.1643428571428571 -0.87864l1.8287999999999998 0c0.6682285714285714 0 1.209942857142857 0.5416114285714285 1.209942857142857 1.2097714285714285 0 0.6681257142857142 -0.5417142857142857 1.2097371428571428 -1.209942857142857 1.2097714285714285l-0.3048 0c-1.1832 -0.00006857142857142857 -2.142857142857143 0.9593142857142857 -2.142857142857143 2.1427542857142856 0 1.1834742857142857 0.9593142857142857 2.1428914285714282 2.142857142857143 2.14296l0.3048 0c0.06274285714285714 0 0.12514285714285714 -0.0010628571428571427 0.18754285714285712 -0.003154285714285714 0.03874285714285714 0.0020914285714285713 0.07782857142857143 0.003154285714285714 0.11725714285714285 0.003154285714285714 0.8362285714285714 0 1.5143999999999997 0.6781028571428571 1.5143999999999997 1.5145714285714285v0.6095657142857143c0 0.8364685714285713 -0.6781714285714285 1.5145714285714285 -1.5143999999999997 1.5145714285714285l-2.4384 0c-0.6558857142857143 0 -1.2198857142857142 -0.4183885714285714 -1.4290285714285713 -1.0095085714285712 -0.3942857142857143 -1.1158285714285714 -1.6186285714285713 -1.7006742857142858 -2.734285714285714 -1.30632 -1.1159999999999999 0.39438857142857137 -1.7007085714285712 1.6186285714285713 -1.3062857142857143 2.7344571428571425 0.7950857142857142 2.249965714285714 2.9406857142857143 3.8670857142857136 5.4696 3.8670857142857136l2.4384 0C45.4032 18.91536 48 16.318525714285713 48 13.115142857142857v-0.6096c0 -1.521977142857143 -0.5862857142857143 -2.9070514285714286 -1.5449142857142857 -3.941725714285714 0.5907428571428571 -0.8762742857142856 0.9356571428571427 -1.9320342857142854 0.9356571428571427 -3.0683314285714283 0 -3.035094857142857 -2.4606857142857144 -5.495513098285714 -5.495657142857143 -5.4954857142857145ZM17.311062857142854 3.8670171428571427C18.10628571428571 1.6171131428571428 20.25192 0 22.78073142857143 0h2.5331657142857145c3.1509942857142854 0 5.705382857142856 2.554388571428571 5.705382857142856 5.705382857142856 0 2.2667314285714286 -1.3418742857142856 4.318491428571428 -3.41856 5.227028571428572l-5.427051428571428 2.3743199999999995c-0.5314628571428571 0.23252571428571428 -0.881622857142857 0.7470857142857142 -0.9061028571428571 1.3229142857142857h7.608857142857143c1.1834399999999998 0 2.142857142857143 0.9593828571428571 2.142857142857143 2.142857142857143 0 1.1834399999999998 -0.9594171428571429 2.142857142857143 -2.142857142857143 2.142857142857143H19.123337142857142c-1.1834742857142857 0 -2.142857142857143 -0.9594171428571429 -2.142857142857143 -2.142857142857143v-2.0781942857142854c0 -2.304445714285714 1.36416 -4.390285714285714 3.475405714285714 -5.313942857142857l5.427017142857143 -2.374354285714286c0.5167542857142856 -0.2260457142857143 0.850662857142857 -0.7365942857142856 0.850662857142857 -1.3006285714285715 0 -0.7840457142857142 -0.6356228571428572 -1.4196685714285713 -1.4196685714285713 -1.4196685714285713h-2.5331657142857145c-0.6560914285714285 0 -1.2199885714285712 0.4183885714285714 -1.4289257142857141 1.0095085714285712 -0.39438857142857137 1.1158285714285714 -1.6186285714285713 1.7006742857142858 -2.7344571428571425 1.3062857142857143 -1.1158285714285714 -0.39438857142857137 -1.7006742857142858 -1.618662857142857 -1.3062857142857143 -2.734491428571429ZM7.114525714285715 0.00002615828571428572c1.1834742857142857 5.142857142857e-8 2.142857142857143 0.9593909845714285 2.142857142857143 2.142858413142857l0 12.486726857142855h2.733394285714285c1.1834742857142857 0 2.142857142857143 0.9593828571428571 2.142857142857143 2.142857142857143s-0.9593828571428571 2.142857142857143 -2.142857142857143 2.142857142857143H7.129439999999999l-0.014914285714285713 0.00003428571428571428 -0.014879999999999999 -0.00003428571428571428H2.2376982857142855c-1.1834674285714284 0 -2.142858857142857 -0.9593828571428571 -2.1428585142857144 -2.142857142857143 0 -1.1834742857142857 0.9593910857142858 -2.142857142857143 2.1428585142857144 -2.142857142857143h2.733970285714286l0 -6.886217142857142c-0.48281142857142856 0.13025142857142857 -0.9905485714285713 0.1997142857142857 -1.5145371428571428 0.1997142857142857H2.237989714285714c-1.1834674285714284 0 -2.1428574857142855 -0.9593828571428571 -2.1428574857142855 -2.142857142857143 0 -1.1834399999999998 0.9593900571428572 -2.142857142857143 2.1428574857142855 -2.142857142857143l1.2191417142857142 0c0.8364685714285713 0 1.5145371428571428 -0.6780651428571428 1.5145371428571428 -1.5145097142857142 0 -1.1834674285714284 0.9594171428571429 -2.1428584649142857 2.142857142857143 -2.142858413142857ZM36.20125714285714 25.84477714285714c0.6404571428571428 -0.2653371428571428 1.377942857142857 -0.11866285714285714 1.8682285714285716 0.37162285714285714l9.428571428571429 9.4284c0.6692571428571429 0.6696 0.6692571428571429 1.7550857142857144 0 2.4246857142857143l-9.428571428571429 9.428571428571429c-0.4902857142857142 0.4902857142857142 -1.2277714285714285 0.6366857142857143 -1.8682285714285716 0.37131428571428565 -0.6408 -0.26537142857142854 -1.0583999999999998 -0.8903999999999999 -1.0583999999999998 -1.5836571428571427v-7.285714285714286H2.142857142857143c-1.1834674285714284 0 -2.142857142857143 -0.9593142857142857 -2.142857142857143 -2.142857142857143s0.9593897142857143 -2.142857142857143 2.142857142857143 -2.142857142857143h33V27.428571428571427c0 -0.69336 0.41759999999999997 -1.3184571428571428 1.0583999999999998 -1.5837942857142857Z" clip-rule="evenodd" stroke-width="3.4286"></path>
  </g>
</svg>