<svg xmlns="http://www.w3.org/2000/svg" fill="none" viewBox="0 0 48 48" id="Stethoscope--Streamline-Core-Remix" height="48" width="48">
  <desc>
    Stethoscope Streamline Icon: https://streamlinehq.com
  </desc>
  <g id="Free Remix/Health/stethoscope--instrument-health-medical-stethoscope">
    <path id="Union" fill="#000000" fill-rule="evenodd" d="M1.7142857142857142 4.285714285714286C1.7142857142857142 2.865552 2.865552 1.7142857142857142 4.285714285714286 1.7142857142857142h3.321428571428571c1.4201485714285715 0 2.571428571428571 1.1512662857142855 2.571428571428571 2.571428571428571 0 1.4201485714285715 -1.1512799999999999 2.571428571428571 -2.571428571428571 2.571428571428571H6.857142857142857v9.321428571428571c0 4.201302857142856 3.4058399999999995 7.607142857142857 7.607142857142857 7.607142857142857S22.07142857142857 20.379874285714287 22.07142857142857 16.178571428571427V6.857142857142857h-0.75c-1.4201485714285715 0 -2.571428571428571 -1.1512799999999999 -2.571428571428571 -2.571428571428571 0 -1.4201622857142857 1.1512799999999999 -2.571428571428571 2.571428571428571 -2.571428571428571h3.321428571428571c1.4201485714285715 0 2.571428571428571 1.1512662857142855 2.571428571428571 2.571428571428571v11.892857142857142c0 6.465497142857142 -4.81248 11.806971428571428 -11.050765714285713 12.63774857142857v3.05784c0 5.592239999999999 4.533462857142857 10.12584 10.125805714285713 10.12584 5.592377142857143 0 10.125874285714286 -4.5336 10.125874285714286 -10.12584V23.980491428571426c-1.2353142857142856 -0.3596571428571428 -2.372537142857143 -1.0259314285714285 -3.2985942857142856 -1.9520228571428568C31.669885714285712 20.58178285714286 30.857142857142854 18.619611428571428 30.857142857142854 16.573645714285714c0 -2.0459314285714285 0.8127428571428571 -4.008102857142857 2.2594628571428568 -5.454822857142856 1.446822857142857 -1.4466857142857141 3.4089942857142854 -2.2594628571428568 5.454822857142856 -2.2594628571428568 2.0458285714285713 0 4.008 0.8127771428571428 5.454857142857143 2.2594628571428568 1.4465142857142856 1.44672 2.2594285714285713 3.4088914285714287 2.2594285714285713 5.454822857142856 0 2.0459657142857144 -0.8129142857142857 4.008137142857143 -2.2594285714285713 5.454822857142856 -0.9329142857142857 0.9327771428571429 -2.0797714285714286 1.6019999999999999 -3.325371428571428 1.9597714285714285v7.8859200000000005c0 7.959325714285715 -6.452297142857143 14.411554285714283 -14.41158857142857 14.411554285714283 -7.959257142857142 0 -14.41152 -6.452228571428571 -14.41152 -14.411554285714283v-3.2081142857142853C6.0762857142857145 27.470674285714285 1.7142857142857142 22.33402285714286 1.7142857142857142 16.178571428571427V4.285714285714286Z" clip-rule="evenodd" stroke-width="3.4286"></path>
  </g>
</svg>