<svg xmlns="http://www.w3.org/2000/svg" fill="none" viewBox="0 0 48 48" id="Stock--Streamline-Core-Remix" height="48" width="48">
  <desc>
    Stock Streamline Icon: https://streamlinehq.com
  </desc>
  <g id="Free Remix/Money Shopping/stock--price-stock-wallstreet-dollar-money-currency-fluctuate-candlestick-business">
    <path id="Union" fill="#000000" fill-rule="evenodd" d="M40.72011428571428 0.42857142857142855c1.183542857142857 0 2.142857142857143 0.9593897142857143 2.142857142857143 2.142857142857143v1.641222857142857c1.368342857142857 0.21264 2.5806857142857145 0.8992800000000001 3.460457142857143 1.882182857142857 0.5026285714285714 0.5618742857142857 0.9 1.2233485714285715 1.1578285714285714 1.953085714285714 0.3946285714285714 1.1158285714285714 -0.19028571428571428 2.340102857142857 -1.3062857142857143 2.734491428571429 -1.115657142857143 0.39438857142857137 -2.34 -0.19045714285714285 -2.734285714285714 -1.3062857142857143 -0.06822857142857143 -0.19292571428571428 -0.17417142857142856 -0.3704571428571428 -0.31097142857142857 -0.5230971428571428 -0.29074285714285714 -0.32489142857142855 -0.7066285714285714 -0.5243314285714286 -1.171542857142857 -0.5243314285714286h-2.8752c-0.6476571428571428 0 -1.1725714285714286 0.5250171428571427 -1.1725714285714286 1.17264 0 0.55104 0.3836571428571428 1.0277485714285715 0.921942857142857 1.14552l4.377257142857142 0.9574971428571428c2.6897142857142855 0.5883771428571428 4.6056 2.9712 4.6056 5.722937142857142 0 2.926182857142857 -2.1462857142857144 5.353645714285714 -4.952228571428571 5.788971428571428v1.6407085714285714c0 1.1834742857142857 -0.9593142857142857 2.142857142857143 -2.142857142857143 2.142857142857143s-2.142857142857143 -0.9593828571428571 -2.142857142857143 -2.142857142857143v-1.6406057142857142c-2.1514285714285712 -0.3334285714285714 -3.912342857142857 -1.8373028571428571 -4.618662857142857 -3.835542857142857 -0.39438857142857137 -1.1157942857142857 0.19045714285714285 -2.340068571428571 1.30632 -2.7344571428571425 1.115657142857143 -0.39438857142857137 2.34 0.19045714285714285 2.734285714285714 1.3062857142857143 0.2170285714285714 0.6132 0.8019428571428571 1.0473942857142855 1.4825142857142857 1.0473942857142855h1.2096c0.0096 -0.00013714285714285713 0.0192 -0.00017142857142857143 0.028799999999999996 -0.00017142857142857143 0.0096 0 0.0192 0.00003428571428571428 0.028799999999999996 0.00017142857142857143h1.2092571428571428c0.8667428571428571 0 1.5713142857142857 -0.7038857142857143 1.5713142857142857 -1.5727542857142858 0 -0.7392342857142856 -0.5149714285714285 -1.37856 -1.2356571428571428 -1.5362057142857142l-4.377257142857142 -0.9575314285714285c-2.5056 -0.5481257142857143 -4.291817142857142 -2.7671314285714286 -4.291817142857142 -5.332217142857142 0 -2.8440342857142853 2.175017142857143 -5.180022857142856 4.952502857142857 -5.435211428571428V2.571428571428571c0 -1.1834674285714284 0.9593142857142857 -2.142857142857143 2.142857142857143 -2.142857142857143ZM9.796045714285714 3.064872c0 -1.4201622857142857 -1.1512799999999999 -2.571428571428571 -2.571428571428571 -2.571428571428571 -1.420182857142857 0 -2.571428571428571 1.1512662857142855 -2.571428571428571 2.571428571428571V10.403211428571428c-2.5633405714285713 0.4386514285714285 -4.514237828571428 2.67144 -4.514237828571428 5.3598857142857135V30.59142857142857c0 2.6884457142857143 1.950897257142857 4.921371428571429 4.514237828571428 5.3598857142857135v2.878285714285714c0 1.4201142857142857 1.1512457142857142 2.571428571428571 2.571428571428571 2.571428571428571 1.4201485714285715 0 2.571428571428571 -1.1513142857142855 2.571428571428571 -2.571428571428571v-2.878285714285714c2.563302857142857 -0.43885714285714283 4.5141599999999995 -2.6714742857142855 4.5141599999999995 -5.3598857142857135V15.763097142857143c0 -2.6884114285714285 -1.9508571428571426 -4.9212 -4.5141599999999995 -5.3598857142857135V3.064872ZM5.576982857142856 14.610754285714286c-0.6364114285714285 0 -1.1523085714285715 0.5159314285714286 -1.1523085714285715 1.1523428571428571V30.59142857142857c0 0.6364114285714285 0.5158971428571428 1.1523085714285715 1.1523085714285715 1.1523085714285715h3.2951999999999995c0.6364114285714285 0 1.1523085714285715 -0.5158971428571428 1.1523085714285715 -1.1523085714285715V15.763097142857143c0 -0.6364114285714285 -0.5158971428571428 -1.1523428571428571 -1.1523085714285715 -1.1523428571428571h-3.2951999999999995Zm18.123462857142858 13.180662857142856c-0.6364114285714285 0 -1.1523085714285715 0.5159314285714286 -1.1523085714285715 1.1523428571428571v4.942765714285714c0 0.6364457142857142 0.5158971428571428 1.152445714285714 1.1523085714285715 1.152445714285714h3.2951999999999995c0.6364114285714285 0 1.1523085714285715 -0.5159999999999999 1.1523085714285715 -1.152445714285714V28.943759999999997c0 -0.6364114285714285 -0.5158971428571428 -1.1523428571428571 -1.1523085714285715 -1.1523428571428571h-3.2951999999999995Zm-5.438022857142857 1.1523428571428571c0 -2.6884457142857143 1.9508914285714285 -4.921234285714285 4.514228571428571 -5.3598857142857135V14.115668571428571c0 -1.420182857142857 1.1512457142857142 -2.571428571428571 2.571428571428571 -2.571428571428571 1.4201485714285715 0 2.571428571428571 1.1512457142857142 2.571428571428571 2.571428571428571v9.468205714285713c2.563302857142857 0.4386857142857143 4.5141599999999995 2.6714742857142855 4.5141599999999995 5.3598857142857135v4.942765714285714c0 2.6884457142857143 -1.9508571428571426 4.921131428571428 -4.5141599999999995 5.3599885714285715v5.7466285714285705c0 1.4204571428571429 -1.1512799999999999 2.571428571428571 -2.571428571428571 2.571428571428571 -1.420182857142857 0 -2.571428571428571 -1.1509714285714285 -2.571428571428571 -2.571428571428571v-5.7466285714285705c-2.5633371428571428 -0.43885714285714283 -4.514228571428571 -2.671542857142857 -4.514228571428571 -5.3599885714285715V28.943759999999997Z" clip-rule="evenodd" stroke-width="3.4286"></path>
  </g>
</svg>