<svg xmlns="http://www.w3.org/2000/svg" fill="none" viewBox="0 0 48 48" id="Store-Computer--Streamline-Core-Remix" height="48" width="48">
  <desc>
    Store Computer Streamline Icon: https://streamlinehq.com
  </desc>
  <g id="Free Remix/Money Shopping/store-computer--store-shop-shops-stores-online-computer-website-desktop-app">
    <path id="Union" fill="#000000" fill-rule="evenodd" d="M7.0186971428571425 2.987701714285714C7.859348571428571 1.1663554285714286 9.682251428571428 0 11.688205714285715 0h24.62345142857143c2.0060571428571428 0 3.8290285714285712 1.1663554285714286 4.669714285714286 2.987701714285714l3.4227428571428566 7.416332571428571c0.06377142857142856 0.13309714285714286 0.11074285714285714 0.2757257142857143 0.1385142857142857 0.4251428571428571 0.021257142857142856 0.1140342857142857 0.030514285714285713 0.2295428571428571 0.028457142857142854 0.3447085714285714v2.2546971428571427c0 4.418262857142857 -3.581828571428571 7.999988571428571 -7.999885714285714 7.999988571428571 -2.549554285714285 0 -4.8205028571428565 -1.1926285714285714 -6.2854971428571424 -3.0504 -1.4649599999999998 1.8577714285714286 -3.735908571428571 3.0504 -6.285428571428572 3.0504 -2.54976 0 -4.82088 -1.1928342857142857 -6.285839999999999 -3.0509142857142857 -1.4649599999999998 1.8580799999999997 -3.7361142857142853 3.0509142857142857 -6.285874285714286 3.0509142857142857C7.010297142857143 21.428571428571427 3.4285714285714284 17.846845714285713 3.4285714285714284 13.428582857142857v-2.2821942857142856l0.00030857142857142856 -0.035725714285714284L7.0186971428571425 2.987701714285714ZM3.4288799999999995 11.110662857142858c0.004731428571428571 -0.25769142857142857 0.06634285714285713 -0.5014628571428571 0.17276571428571427 -0.7193142857142856l-0.015291428571428572 0.03312c-0.10097142857142857 0.21874285714285713 -0.15311999999999998 0.4525028571428571 -0.1574742857142857 0.6861942857142858ZM6.553302857142857 24c1.1834399999999998 0 2.142857142857143 0.9593828571428571 2.142857142857143 2.142857142857143v8.035714285714285c0 0.7102285714285714 0.5756228571428571 1.2858857142857143 1.2857142857142856 1.2858857142857143h28.03446857142857c0.7100571428571428 0 1.2857142857142856 -0.5756571428571428 1.2857142857142856 -1.2858857142857143V26.142857142857142c0 -1.1834742857142857 0.9596571428571428 -2.142857142857143 2.142857142857143 -2.142857142857143 1.183542857142857 0 2.142857142857143 0.9593828571428571 2.142857142857143 2.142857142857143v8.035714285714285c0 3.0769714285714285 -2.494285714285714 5.5716 -5.571428571428571 5.5716H30.08835428571428l1.5857142857142856 3.964114285714285h2.610822857142857c1.1833371428571429 0 2.142994285714286 0.9593142857142857 2.142994285714286 2.142857142857143s-0.9596571428571428 2.142857142857143 -2.142994285714286 2.142857142857143H30.89622857142857c-0.026297142857142856 0.0006857142857142857 -0.05259428571428571 0.0006857142857142857 -0.07882285714285714 0H17.180914285714284c-0.026228571428571427 0.0006857142857142857 -0.05249142857142857 0.0006857142857142857 -0.07882285714285714 0h-3.388628571428571c-1.1834742857142857 0 -2.142857142857143 -0.9593142857142857 -2.142857142857143 -2.142857142857143s0.9593828571428571 -2.142857142857143 2.142857142857143 -2.142857142857143h2.6107885714285715l1.5857142857142856 -3.964114285714285H9.981874285714285c-3.0770399999999998 0 -5.571428571428571 -2.494628571428571 -5.571428571428571 -5.5716V26.142857142857142c0 -1.1834742857142857 0.9593828571428571 -2.142857142857143 2.142857142857143 -2.142857142857143Z" clip-rule="evenodd" stroke-width="3.4286"></path>
  </g>
</svg>