<svg xmlns="http://www.w3.org/2000/svg" fill="none" viewBox="0 0 48 48" id="Store-2--Streamline-Core-Remix" height="48" width="48">
  <desc>
    Store 2 Streamline Icon: https://streamlinehq.com
  </desc>
  <g id="Free Remix/Money Shopping/store-2--store-shop-shops-stores">
    <path id="Union" fill="#000000" fill-rule="evenodd" d="M10.369542857142855 1.7142857142857142c-2.0059885714285715 0 -3.828891428571428 1.1663554285714286 -4.669508571428571 2.9876914285714284L1.8720685714285712 12.995897142857142C1.768117714285714 13.221119999999999 1.7142857142857142 13.46622857142857 1.7142857142857142 13.714285714285714v6.857142857142857c0 0.9093257142857143 0.361224 1.781382857142857 1.0042045714285714 2.424377142857143C3.361470857142857 23.63876571428571 4.233531428571428 24 5.142857142857142 24h37.714285714285715c0.9092571428571428 0 1.7814857142857141 -0.3612342857142857 2.424342857142857 -1.0041942857142856 0.6428571428571428 -0.6429942857142857 1.0042285714285712 -1.5150514285714285 1.0042285714285712 -2.424377142857143V13.714285714285714c0 -0.24805714285714284 -0.05382857142857142 -0.49316571428571426 -0.1577142857142857 -0.7183885714285714l-3.828 -8.29392C41.459314285714285 2.880641142857143 39.63634285714286 1.7142857142857142 37.630628571428566 1.7142857142857142H10.369542857142855Zm19.201885714285712 27.428571428571427c0 -1.1834742857142857 -0.9593828571428571 -2.142857142857143 -2.142857142857143 -2.142857142857143s-2.142857142857143 0.9593828571428571 -2.142857142857143 2.142857142857143v3h-18V29.142857142857142c0 -1.1834742857142857 -0.9593828571428571 -2.142857142857143 -2.142857142857143 -2.142857142857143s-2.142857142857143 0.9593828571428571 -2.142857142857143 2.142857142857143v13.714285714285714c0 1.0230857142857142 0.40637485714285715 2.004 1.1297142857142857 2.7274285714285713 0.72336 0.7234285714285713 1.7044457142857143 1.1297142857142857 2.7274285714285713 1.1297142857142857h34.285714285714285c1.0230857142857142 0 2.004 -0.40628571428571425 2.7274285714285713 -1.1297142857142857 0.7234285714285713 -0.7234285714285713 1.1297142857142857 -1.704342857142857 1.1297142857142857 -2.7274285714285713v-13.714285714285714c0 -1.1834742857142857 -0.9593142857142857 -2.142857142857143 -2.142857142857143 -2.142857142857143s-2.142857142857143 0.9593828571428571 -2.142857142857143 2.142857142857143v13.285714285714285h-11.142857142857142V29.142857142857142Zm-4.285714285714286 13.285714285714285v-6h-18v6h18Z" clip-rule="evenodd" stroke-width="3.4286"></path>
  </g>
</svg>