<svg xmlns="http://www.w3.org/2000/svg" fill="none" viewBox="0 0 48 48" id="Store-1--Streamline-Core-Remix" height="48" width="48">
  <desc>
    Store 1 Streamline Icon: https://streamlinehq.com
  </desc>
  <g id="Free Remix/Money Shopping/store-1--store-shop-shops-stores">
    <path id="Union" fill="#000000" fill-rule="evenodd" d="M1.7142857142857142 13.714285714285714v3.4285714285714284C1.7142857142857142 21.87672 5.551851428571428 25.71428571428571 10.285714285714285 25.71428571428571c2.803885714285714 0 5.293337142857142 -1.3462971428571429 6.857142857142857 -3.4277485714285714 1.5638057142857142 2.0814514285714285 4.05312 3.4277485714285714 6.857005714285714 3.4277485714285714 2.803885714285714 0 5.2932 -1.3462971428571429 6.857005714285714 -3.4277485714285714 1.56384 2.0814514285714285 4.053188571428572 3.4277485714285714 6.857074285714286 3.4277485714285714 4.733828571428571 0 8.571428571428571 -3.837565714285714 8.571428571428571 -8.571428571428571V13.714285714285714c0 -0.2569028571428571 -0.05657142857142857 -0.5006057142857142 -0.1577142857142857 -0.7193828571428571l-3.828 -8.292925714285714C41.458971428571424 2.8806377142857142 39.635999999999996 1.7142857142857142 37.63028571428571 1.7142857142857142H10.369542857142855c-2.0059885714285715 0 -3.828891428571428 1.1663519999999998 -4.669508571428571 2.9876914285714284L1.8720719999999997 12.994902857142856C1.7707988571428572 13.21368 1.7142857142857142 13.457382857142855 1.7142857142857142 13.714285714285714Zm3.4285714285714284 15c1.1834742857142857 0 2.142857142857143 0.9593828571428571 2.142857142857143 2.142857142857143v11.571428571428571H17.142857142857142v-4.607314285714286c0 -3.786925714285714 3.070045714285714 -6.856971428571428 6.857142857142857 -6.856971428571428s6.857142857142857 3.070045714285714 6.857142857142857 6.856971428571428v4.607314285714286h9.857142857142856V30.857142857142854c0 -1.1834742857142857 0.9593142857142857 -2.142857142857143 2.142857142857143 -2.142857142857143s2.142857142857143 0.9593828571428571 2.142857142857143 2.142857142857143v12c0 1.0230857142857142 -0.40628571428571425 2.004 -1.1297142857142857 2.7274285714285713 -0.7234285714285713 0.7234285714285713 -1.704342857142857 1.1297142857142857 -2.7274285714285713 1.1297142857142857H6.857142857142857c-1.0229828571428572 0 -2.0040685714285713 -0.40628571428571425 -2.7274285714285713 -1.1297142857142857 -0.7233394285714285 -0.7234285714285713 -1.1297142857142857 -1.704342857142857 -1.1297142857142857 -2.7274285714285713V30.857142857142854c0 -1.1834742857142857 0.9593828571428571 -2.142857142857143 2.142857142857143 -2.142857142857143Z" clip-rule="evenodd" stroke-width="3.4286"></path>
  </g>
</svg>