<svg xmlns="http://www.w3.org/2000/svg" fill="none" viewBox="0 0 48 48" id="Straight-Cap--Streamline-Core-Remix" height="48" width="48">
  <desc>
    Straight Cap Streamline Icon: https://streamlinehq.com
  </desc>
  <g id="Free Remix/Interface Essential/straight-cap">
    <path id="Union" fill="#000000" fill-rule="evenodd" d="M11.142857142857142 10.285714285714285c0 -0.7100914285714285 0.5756228571428571 -1.2857142857142856 1.2857142857142856 -1.2857142857142856h33.42857142857142c1.183542857142857 0 2.142857142857143 -0.9593828571428571 2.142857142857143 -2.142857142857143s-0.9593142857142857 -2.142857142857143 -2.142857142857143 -2.142857142857143h-33.42857142857142C9.351565714285714 4.714285714285714 6.857142857142857 7.208708571428571 6.857142857142857 10.285714285714285v4.970948571428571C2.921132571428571 16.218 0 19.767874285714285 0 24c0 4.232125714285714 2.921132571428571 7.782 6.857142857142857 8.743337142857142V37.714285714285715c0 3.077142857142857 2.494422857142857 5.571428571428571 5.571428571428571 5.571428571428571h33.42857142857142c1.183542857142857 0 2.142857142857143 -0.9593142857142857 2.142857142857143 -2.142857142857143s-0.9593142857142857 -2.142857142857143 -2.142857142857143 -2.142857142857143h-33.42857142857142c-0.7100914285714285 0 -1.2857142857142856 -0.5756571428571428 -1.2857142857142856 -1.2857142857142856V32.74333714285714c3.2492571428571426 -0.7936114285714285 5.806868571428571 -3.351222857142857 6.60048 -6.60048H45.857142857142854c1.183542857142857 0 2.142857142857143 -0.9593828571428571 2.142857142857143 -2.142857142857143s-0.9593142857142857 -2.142857142857143 -2.142857142857143 -2.142857142857143H17.74333714285714C16.949725714285712 18.60788571428571 14.392114285714285 16.050274285714284 11.142857142857142 15.256662857142857V10.285714285714285Z" clip-rule="evenodd" stroke-width="3.4286"></path>
  </g>
</svg>