<svg xmlns="http://www.w3.org/2000/svg" fill="none" viewBox="0 0 48 48" id="Strawberry--Streamline-Core-Remix" height="48" width="48">
  <desc>
    Strawberry Streamline Icon: https://streamlinehq.com
  </desc>
  <g id="Free Remix/Food Drink/strawberry--fruit-sweet-berries-plant-strawberry">
    <path id="Union" fill="#000000" fill-rule="evenodd" d="M13.285714285714285 2.142857142857143C13.285714285714285 0.9593897142857143 14.245097142857142 0 15.428571428571427 0h0.8571428571428571C19.40958857142857 0 22.194034285714284 1.4531417142857141 24 3.7203428571428567 25.805965714285712 1.4531417142857141 28.59041142857143 0 31.71428571428571 0h0.8571428571428571c1.1834742857142857 0 2.142857142857143 0.9593897142857143 2.142857142857143 2.142857142857143s-0.9593828571428571 2.142857142857143 -2.142857142857143 2.142857142857143h-0.8571428571428571c-2.3562171428571426 0 -4.370845714285713 1.462662857142857 -5.185371428571428 3.529542857142857 5.179234285714285 0.4258971428571428 9.216685714285715 2.1854742857142857 12.057599999999999 5.026662857142857 3.2807999999999997 3.2807657142857143 4.6992 7.736742857142856 4.6992 12.443794285714286 0 5.716697142857143 -2.3808 11.3328 -5.874171428571429 15.516342857142856C33.94392 44.955085714285715 29.108982857142852 48 24 48c-5.108982857142856 0 -9.94392 -3.0449142857142855 -13.411645714285713 -7.197942857142857C7.095257142857141 36.618514285714284 4.714285714285714 31.002411428571428 4.714285714285714 25.285714285714285c0 -5.474434285714286 1.37208 -10.01790857142857 4.7608114285714285 -13.145999999999999 2.8840114285714282 -2.662182857142857 6.931097142857142 -4.019622857142857 11.987245714285713 -4.346537142857143C20.642194285714286 5.737954285714285 18.633531428571427 4.285714285714286 16.285714285714285 4.285714285714286H15.428571428571427c-1.1834742857142857 0 -2.142857142857143 -0.9593897142857143 -2.142857142857143 -2.142857142857143ZM24 12c-5.748788571428571 0 -9.398057142857143 1.2397028571428572 -11.61798857142857 3.2888571428571427C10.19934857142857 17.30362285714286 9 20.474434285714285 9 25.285714285714285c0 4.569017142857143 1.9299771428571428 9.23862857142857 4.878068571428572 12.769371428571429C16.851531428571427 41.616342857142854 20.588022857142857 43.714285714285715 24 43.714285714285715s7.148468571428571 -2.097942857142857 10.121931428571429 -5.6592C37.07005714285714 34.524342857142855 39 29.854731428571426 39 25.285714285714285c0 -3.8643771428571427 -1.1530285714285713 -7.122685714285713 -3.4436571428571425 -9.41334857142857C33.27291428571428 13.589074285714286 29.591759999999997 12 24 12ZM12.428571428571427 22.71428571428571c0 1.6568571428571428 1.343142857142857 3 3 3s3 -1.343142857142857 3 -3 -1.343142857142857 -3 -3 -3 -3 1.343142857142857 -3 3Zm4.285714285714286 10.285714285714285c0 1.6566857142857143 1.343142857142857 3 3 3s3 -1.3433142857142857 3 -3c0 -1.6568571428571428 -1.343142857142857 -3 -3 -3s-3 1.343142857142857 -3 3Zm8.571428571428571 0c0 1.6566857142857143 1.343142857142857 3 3 3s3 -1.3433142857142857 3 -3c0 -1.6568571428571428 -1.343142857142857 -3 -3 -3s-3 1.343142857142857 -3 3Zm-4.285714285714286 -10.285714285714285c0 1.6568571428571428 1.343142857142857 3 3 3s3 -1.343142857142857 3 -3S25.65685714285714 19.71428571428571 24 19.71428571428571s-3 1.343142857142857 -3 3Zm8.571428571428571 0c0 1.6568571428571428 1.343142857142857 3 3 3s3 -1.343142857142857 3 -3 -1.343142857142857 -3 -3 -3 -3 1.343142857142857 -3 3Z" clip-rule="evenodd" stroke-width="3.4286"></path>
  </g>
</svg>