<svg xmlns="http://www.w3.org/2000/svg" fill="none" viewBox="0 0 48 48" id="Straight-Face--Streamline-Core-Remix" height="48" width="48">
  <desc>
    Straight Face Streamline Icon: https://streamlinehq.com
  </desc>
  <g id="Free Remix/Mail/Mail/Smiley/straight-face--smiley-chat-message-indifferent-emoji-face-poker">
    <path id="Union" fill="#000000" fill-rule="evenodd" d="M4.285714285714286 24c0 -10.887908571428571 8.826377142857142 -19.71428571428571 19.71428571428571 -19.71428571428571 10.887771428571428 0 19.71428571428571 8.826377142857142 19.71428571428571 19.71428571428571 0 10.887771428571428 -8.826514285714284 19.71428571428571 -19.71428571428571 19.71428571428571 -10.887908571428571 0 -19.71428571428571 -8.826514285714284 -19.71428571428571 -19.71428571428571ZM24 0C10.745177142857143 0 0 10.745177142857143 0 24c0 13.254857142857142 10.745177142857143 24 24 24 13.254857142857142 0 24 -10.745142857142856 24 -24 0 -13.254822857142857 -10.745142857142856 -24 -24 -24ZM16.285714285714285 21.428571428571427c-1.8935314285714284 0 -3.4285714285714284 -1.53504 -3.4285714285714284 -3.4285714285714284s1.53504 -3.4285714285714284 3.4285714285714284 -3.4285714285714284 3.4285714285714284 1.53504 3.4285714285714284 3.4285714285714284 -1.53504 3.4285714285714284 -3.4285714285714284 3.4285714285714284Zm-0.8571428571428571 8.571428571428571c-1.4201485714285715 0 -2.571428571428571 1.1512799999999999 -2.571428571428571 2.571428571428571s1.1512799999999999 2.571428571428571 2.571428571428571 2.571428571428571h17.142857142857142c1.4201485714285715 0 2.571428571428571 -1.1512799999999999 2.571428571428571 -2.571428571428571s-1.1512799999999999 -2.571428571428571 -2.571428571428571 -2.571428571428571h-17.142857142857142Zm16.285714285714285 -8.571428571428571c-1.893565714285714 0 -3.4285714285714284 -1.53504 -3.4285714285714284 -3.4285714285714284s1.535005714285714 -3.4285714285714284 3.4285714285714284 -3.4285714285714284 3.4285714285714284 1.53504 3.4285714285714284 3.4285714285714284 -1.535005714285714 3.4285714285714284 -3.4285714285714284 3.4285714285714284Z" clip-rule="evenodd" stroke-width="3.4286"></path>
  </g>
</svg>