<svg xmlns="http://www.w3.org/2000/svg" fill="none" viewBox="0 0 48 48" id="Strategy-Tasks--Streamline-Core-Remix" height="48" width="48">
  <desc>
    Strategy Tasks Streamline Icon: https://streamlinehq.com
  </desc>
  <g id="Free Remix/Work Education/strategy-tasks--strategy-tasks-work">
    <path id="Union" fill="#000000" fill-rule="evenodd" d="M12.557177142857142 7.7142857142857135H8.571428571428571c-0.7100914285714285 0 -1.2857142857142856 0.5756228571428571 -1.2857142857142856 1.2857142857142856v33.42857142857142c0 0.7100571428571428 0.5756228571428571 1.2857142857142856 1.2857142857142856 1.2857142857142856h30.857142857142854c0.7100571428571428 0 1.2857142857142856 -0.5756571428571428 1.2857142857142856 -1.2857142857142856v-33.42857142857142c0 -0.7100914285714285 -0.5756571428571428 -1.2857142857142856 -1.2857142857142856 -1.2857142857142856h-3.9857142857142858c-0.595542857142857 2.9343085714285713 -3.1899085714285715 5.142857142857142 -6.299999999999999 5.142857142857142h-10.285714285714285c-3.1100914285714283 0 -5.7043542857142855 -2.208548571428571 -6.299965714285714 -5.142857142857142ZM13.170034285714285 3.4285714285714284C14.247908571428571 1.3895142857142857 16.39025142857143 0 18.857142857142858 0h10.285714285714285c2.4668914285714285 0 4.609268571428571 1.3895142857142857 5.686971428571429 3.4285714285714284H39.42857142857142c3.077142857142857 0 5.571428571428571 2.494422857142857 5.571428571428571 5.571428571428571v33.42857142857142c0 3.077142857142857 -2.494285714285714 5.571428571428571 -5.571428571428571 5.571428571428571h-30.857142857142854c-3.0770057142857143 0 -5.571428571428571 -2.494285714285714 -5.571428571428571 -5.571428571428571v-33.42857142857142C3 5.922994285714285 5.494422857142857 3.4285714285714284 8.571428571428571 3.4285714285714284h4.598605714285713Zm2.4170399999999996 19.553554285714284c0 -0.9467657142857142 0.76752 -1.7142857142857142 1.7142857142857142 -1.7142857142857142 0.9468 0 1.7143199999999998 0.76752 1.7143199999999998 1.7142857142857142 0 0.70344 -0.42414857142857143 1.313622857142857 -1.040982857142857 1.5777257142857142 -0.20334857142857143 0.08708571428571428 -0.42922285714285713 0.13656 -0.6733371428571429 0.13656 -0.9467657142857142 0 -1.7142857142857142 -0.7674857142857142 -1.7142857142857142 -1.7142857142857142Zm1.7142857142857142 -6.857142857142857c-3.7870971428571427 0 -6.857142857142857 3.07008 -6.857142857142857 6.857142857142857 0 3.7870971428571427 3.070045714285714 6.857142857142857 6.857142857142857 6.857142857142857 0.952662857142857 0 1.8662742857142856 -0.19573714285714286 2.697565714285714 -0.5516571428571427 2.4412114285714286 -1.0452342857142858 4.159611428571428 -3.471737142857143 4.159611428571428 -6.305485714285714 0 -3.787062857142857 -3.07008 -6.857142857142857 -6.857177142857143 -6.857142857142857Zm10.925417142857142 12.340491428571427c-1.0041942857142856 -1.0041942857142856 -2.63232 -1.0041942857142856 -3.636548571428571 0 -1.0041942857142856 1.0042285714285712 -1.0041942857142856 2.6323542857142854 0 3.636548571428571l1.6125257142857143 1.6124914285714285 -1.608102857142857 1.6079999999999999c-1.0042285714285712 1.0042285714285712 -1.0042285714285712 2.632457142857143 0 3.636685714285714 1.0041942857142856 1.0042285714285712 2.63232 1.0042285714285712 3.636548571428571 0l1.6080685714285714 -1.6079999999999999 1.608102857142857 1.6079999999999999c1.0042285714285712 1.0042285714285712 2.6323542857142854 1.0042285714285712 3.636514285714286 0 1.0042285714285712 -1.0042285714285712 1.0042285714285712 -2.632457142857143 0 -3.636685714285714l-1.6080342857142855 -1.6079999999999999 1.6124914285714285 -1.6124914285714285c1.0042285714285712 -1.0041942857142856 1.0042285714285712 -2.63232 0 -3.636548571428571 -1.0042285714285712 -1.0041942857142856 -2.6323542857142854 -1.0041942857142856 -3.636548571428571 0l-1.6125257142857143 1.6125257142857143 -1.6124914285714285 -1.6125257142857143Z" clip-rule="evenodd" stroke-width="3.4286"></path>
  </g>
</svg>