<svg xmlns="http://www.w3.org/2000/svg" fill="none" viewBox="0 0 48 48" id="Stream--Streamline-Core-Remix" height="48" width="48">
  <desc>
    Stream Streamline Icon: https://streamlinehq.com
  </desc>
  <g id="Free Remix/Entertainment/stream--stream-entertainment-gaming">
    <path id="Union" fill="#000000" fill-rule="evenodd" d="M32.78910857142857 0.02418888C40.720457142857136 -0.43230514285714283 47.519999999999996 5.627211428571428 47.97634285714285 13.558457142857142c0.4464 7.75104 -5.330742857142857 14.421291428571426 -12.996342857142857 15.146502857142856L30.555702857142855 33.76186285714286c0.20009142857142856 0.7405371428571428 0.32705142857142855 1.5116228571428572 0.3726857142857143 2.3046514285714284 0.3581142857142857 6.2221714285714285 -4.3955657142857145 11.556342857142857 -10.617668571428572 11.91462857142857 -5.830731428571428 0.3356571428571428 -10.881874285714286 -3.817714285714285 -11.788902857142856 -9.46182857142857L1.3996594285714286 35.88342857142857c-1.1098896 -0.4110857142857143 -1.6766321142857141 -1.6436571428571427 -1.2658546285714285 -2.7535542857142854 0.4107792 -1.109897142857143 1.643522057142857 -1.67664 2.7534123428571426 -1.265862857142857l8.325651428571428 3.08136c0.036582857142857146 0.012342857142857142 0.07271999999999999 0.02571428571428571 0.10837714285714285 0.04011428571428571l5.601977142857143 2.073257142857143 0.009359999999999999 0.0034285714285714284c0.8270399999999999 0.3106285714285714 1.7472342857142857 -0.12274285714285713 2.034754285714286 -0.957942857142857 0.24744 -0.7189714285714285 -0.056194285714285704 -1.5116571428571428 -0.7205485714285714 -1.8814285714285712L2.819677714285714 25.63817142857143c-1.0341394285714285 -0.5754857142857143 -1.4059679999999999 -1.880297142857143 -0.8305097142857143 -2.9144571428571426 0.5754617142857142 -1.0341257142857143 1.8802834285714285 -1.4059542857142857 2.9144434285714285 -0.8305028571428571l9.093222857142857 5.060057142857143c1.3912457142857142 -0.8085942857142856 2.9756571428571426 -1.3303885714285713 4.673588571428571 -1.4793942857142857l2.155611428571428 -4.498731428571428c-0.8970857142857143 -1.7389714285714284 -1.4517942857142856 -3.68928 -1.5712114285714285 -5.763565714285714C18.798342857142856 7.280297142857142 24.857862857142855 0.4806822857142857 32.78910857142857 0.02418888ZM20.064445714285714 43.70262857142857c-2.631188571428571 0.1512 -5.006434285714286 -1.1712 -6.321942857142857 -3.251314285714286l1.6838057142857141 0.6233142857142856 0.005279999999999999 0.0020571428571428568c3.0849942857142856 1.154742857142857 6.515691428571428 -0.46217142857142857 7.58808 -3.577371428571429 0.9234857142857141 -2.682857142857143 -0.20965714285714285 -5.641817142857143 -2.68896 -7.021474285714286l-1.31544 -0.7319657142857143c0.08118857142857143 -0.0074742857142857146 0.16282285714285713 -0.013577142857142857 0.2448685714285714 -0.018308571428571428 0.23338285714285714 -0.013439999999999999 0.46415999999999996 -0.015325714285714285 0.6918514285714286 -0.00624 0.85488 0.03407999999999999 1.6481142857142856 -0.44362285714285715 2.0178171428571425 -1.2151885714285715l3.20544 -6.6898285714285715c0.3178628571428571 -0.6633257142857143 0.2732571428571428 -1.4433257142857143 -0.11807999999999999 -2.0660914285714282 -0.8752800000000001 -1.3928228571428571 -1.4221028571428571 -3.01992 -1.5236914285714285 -4.784914285714286 -0.3205028571428571 -5.568239999999999 3.933668571428571 -10.342011428571428 9.50190857142857 -10.66248 5.568274285714286 -0.3205028571428571 10.341874285714285 3.933668571428571 10.662445714285713 9.50190857142857 0.32057142857142856 5.568239999999999 -3.9335999999999998 10.342011428571428 -9.501874285714285 10.662514285714286 -0.10083428571428571 0.0057942857142857145 -0.20132571428571427 0.010079999999999999 -0.3015085714285714 0.012925714285714285 -0.5966057142857143 0.016868571428571427 -1.1591657142857141 0.2817942857142857 -1.552182857142857 0.7310057142857143L26.522022857142858 31.863565714285713c-0.53304 0.6092914285714286 -0.6772457142857143 1.466982857142857 -0.37272 2.2170514285714282 0.28031999999999996 0.690582857142857 0.45486857142857146 1.4400685714285713 0.5004685714285714 2.2324114285714285 0.22210285714285716 3.8588571428571425 -2.7262285714285714 7.167428571428571 -6.585325714285714 7.3896Zm13.805005714285715 -24.888514285714283c2.4463199999999996 -0.14081142857142856 4.315234285714285 -2.2380342857142854 4.17432 -4.684285714285714 -0.14057142857142857 -2.4462514285714283 -2.237828571428571 -4.3151657142857145 -4.684182857142857 -4.174388571428572 -2.4462514285714283 0.14081142857142856 -4.3152 2.2380342857142854 -4.174422857142857 4.684251428571428 0.14081142857142856 2.4462514285714283 2.2380342857142854 4.3152 4.684285714285714 4.174422857142857Z" clip-rule="evenodd" stroke-width="3.4286"></path>
  </g>
</svg>