<svg xmlns="http://www.w3.org/2000/svg" fill="none" viewBox="0 0 48 48" id="Street-Sign--Streamline-Core-Remix" height="48" width="48">
  <desc>
    Street Sign Streamline Icon: https://streamlinehq.com
  </desc>
  <g id="Free Remix/Map Travel/street-sign--crossroad-street-sign-metaphor-directions-travel-places">
    <path id="Union" fill="#000000" fill-rule="evenodd" d="M10.285714285714285 1.2857142857142856c-0.5683199999999999 0 -1.11336 0.22576457142857143 -1.515222857142857 0.6276274285714285L1.9133417142857143 8.770491428571427C1.511478857142857 9.172354285714285 1.2857142857142856 9.717394285714285 1.2857142857142856 10.285714285714285c0 0.5683199999999999 0.22576457142857143 1.11336 0.6276274285714285 1.515222857142857l6.857149714285713 6.857142857142857c0.4018628571428571 0.4018628571428571 0.946902857142857 0.6276342857142857 1.515222857142857 0.6276342857142857h11.571428571428571V44.57142857142857c0 1.183542857142857 0.9593828571428571 2.142857142857143 2.142857142857143 2.142857142857143s2.142857142857143 -0.9593142857142857 2.142857142857143 -2.142857142857143V33H37.714285714285715c0.5684571428571429 0 1.1132571428571427 -0.22577142857142857 1.5150857142857141 -0.6276342857142857l6.857142857142857 -6.857142857142857c0.8369142857142857 -0.8368457142857142 0.8369142857142857 -2.1936 0 -3.030445714285714l-6.857142857142857 -6.857142857142857C38.82754285714285 15.225771428571429 38.28274285714286 15 37.714285714285715 15H26.142857142857142V3.4285714285714284c0 -1.1834674285714284 -0.9593828571428571 -2.142857142857143 -2.142857142857143 -2.142857142857143H10.285714285714285Zm15.857142857142856 18v9.428571428571429h10.683771428571427L41.54091428571428 24l-4.714285714285714 -4.714285714285714H26.142857142857142Z" clip-rule="evenodd" stroke-width="3.4286"></path>
  </g>
</svg>