<svg xmlns="http://www.w3.org/2000/svg" fill="none" viewBox="0 0 48 48" id="Street-Road--Streamline-Core-Remix" height="48" width="48">
  <desc>
    Street Road Streamline Icon: https://streamlinehq.com
  </desc>
  <g id="Free Remix/Map Travel/street-road">
    <path id="Union" fill="#000000" fill-rule="evenodd" d="M12.412731428571428 0.04002788571428571c1.16136 0.22771645714285713 1.9182171428571426 1.3537789714285713 1.6904914285714285 2.515132114285714l-8.571428571428571 43.714439999999996c-0.2277257142857143 1.1612571428571428 -1.3537714285714284 1.9179428571428572 -2.5151348571428573 1.6902857142857142 -1.1613531428571426 -0.22765714285714284 -1.918213714285714 -1.3536 -1.6904982857142856 -2.5152L9.897599999999999 1.730526857142857c0.22769142857142854 -1.1613531428571426 1.3537714285714284 -1.9182150857142855 2.5151314285714284 -1.6904989714285714Zm11.587679999999999 -0.04004192605714285c1.6568571428571428 0 3 1.3431466117714286 3 3.0000003260571426V8.571428571428571c0 1.6568571428571428 -1.343142857142857 3 -3 3s-3 -1.343142857142857 -3 -3V2.9999862857142854c0 -1.656853714285714 1.343142857142857 -3.0000003260571426 3 -3.0000003260571426ZM27.000411428571425 39.42857142857142c0 -1.6570285714285713 -1.343142857142857 -3 -3 -3s-3 1.3429714285714285 -3 3v5.571428571428571c0 1.6566857142857143 1.343142857142857 3 3 3s3 -1.3433142857142857 3 -3V39.42857142857142Zm-3 -21.21428571428571c1.6568571428571428 0 3 1.343142857142857 3 3v5.571428571428571c0 1.6568228571428572 -1.343142857142857 3 -3 3s-3 -1.3431771428571428 -3 -3v-5.571428571428571c0 -1.6568571428571428 1.343142857142857 -3 3 -3ZM38.10308571428571 1.730526857142857c-0.22765714285714284 -1.1613531428571426 -1.3536 -1.9182150857142855 -2.5148571428571427 -1.6904989714285714 -1.1616 0.22771645714285713 -1.9183542857142857 1.3537789714285713 -1.6906285714285714 2.515132114285714l8.571428571428571 43.714439999999996c0.22765714285714284 1.1612571428571428 1.3536 1.9179428571428572 2.5152 1.6902857142857142 1.1612571428571428 -0.22765714285714284 1.9182857142857141 -1.3536 1.6902857142857142 -2.5152l-8.571428571428571 -43.714158857142856Z" clip-rule="evenodd" stroke-width="3.4286"></path>
  </g>
</svg>