<svg xmlns="http://www.w3.org/2000/svg" fill="none" viewBox="0 0 48 48" id="Subscription-Cashflow--Streamline-Core-Remix" height="48" width="48">
  <desc>
    Subscription Cashflow Streamline Icon: https://streamlinehq.com
  </desc>
  <g id="Free Remix/Money Shopping/subscription-cashflow">
    <path id="Union" fill="#000000" fill-rule="evenodd" d="M4.282354285714286 24.00342857142857c0 -10.889794285714286 8.827919999999999 -19.717714285714287 19.717714285714287 -19.717714285714287 6.572708571428572 0 12.397302857142858 3.2158971428571426 15.981531428571426 8.165554285714284l-1.7653714285714286 1.7651314285714286c-0.4902857142857142 0.4902857142857142 -0.6366857142857143 1.2275999999999998 -0.37131428571428565 1.8681942857142855 0.26537142857142854 0.6405942857142857 0.8903999999999999 1.058262857142857 1.5836571428571427 1.058262857142857h6.857142857142857c0.9466285714285714 0 1.7142857142857142 -0.76752 1.7142857142857142 -1.7142857142857142v-6.857142857142857c0 -0.69336 -0.41759999999999997 -1.3184571428571428 -1.0583999999999998 -1.5837942857142857 -0.6404571428571428 -0.2653371428571428 -1.377942857142857 -0.11866285714285714 -1.8682285714285716 0.37162285714285714l-2.030057142857143 2.0303314285714285C38.6568 3.682182857142857 31.759851428571427 0 24.00006857142857 0 10.74336 0 -0.0033482125714285713 10.746685714285714 -0.0033482125714285713 24.00342857142857c0 1.1834742857142857 0.9593882125714286 2.142857142857143 2.142855641142857 2.142857142857143 1.1834674285714284 0 2.142846857142857 -0.9593828571428571 2.142846857142857 -2.142857142857143ZM24 9.857142857142856c1.1834742857142857 0 2.142857142857143 0.9593828571428571 2.142857142857143 2.142857142857143v1.9101942857142855c1.4920114285714285 0.1968342857142857 2.81616 0.9297942857142856 3.768754285714286 1.9941257142857143 0.52752 0.5893714285714285 0.9440914285714285 1.2830742857142856 1.2145714285714286 2.0483314285714287 0.39438857142857137 1.1158285714285714 -0.19042285714285712 2.340068571428571 -1.3062514285714284 2.7344571428571425 -1.1158285714285714 0.39438857142857137 -2.340102857142857 -0.19042285714285712 -2.734491428571429 -1.3062514285714284 -0.08070857142857142 -0.22841142857142854 -0.20605714285714286 -0.43823999999999996 -0.36726857142857144 -0.6183428571428572 -0.3430971428571429 -0.38338285714285714 -0.8349257142857142 -0.6195771428571428 -1.3847657142857144 -0.6195771428571428h-3.0961371428571427c-0.7885028571428571 0 -1.4276914285714286 0.6391885714285714 -1.4276914285714286 1.4276914285714286 0 0.6709028571428571 0.4671771428571428 1.2513257142857144 1.122582857142857 1.3947085714285714l4.713977142857143 1.0311771428571428c2.8208228571428573 0.6170399999999999 4.830137142857143 3.116125714285714 4.830137142857143 6.002159999999999 0 3.1173599999999997 -2.3226171428571427 5.6949942857142855 -5.333417142857143 6.091474285714286V36c0 1.183542857142857 -0.9593828571428571 2.142857142857143 -2.142857142857143 2.142857142857143s-2.142857142857143 -0.9593142857142857 -2.142857142857143 -2.142857142857143v-1.9098514285714283c-2.319257142857143 -0.3052457142857143 -4.227257142857143 -1.9038514285714283 -4.983188571428571 -4.042594285714285 -0.39438857142857137 -1.1157942857142857 0.19045714285714285 -2.340068571428571 1.3062857142857143 -2.7344571428571425 1.1157942857142857 -0.39438857142857137 2.340068571428571 0.19045714285714285 2.7344571428571425 1.3062857142857143 0.25597714285714285 0.724182857142857 0.9467657142857142 1.23792 1.7520342857142854 1.23792h1.3020685714285714L24 29.857062857142857l0.0312 0.00023999999999999998h1.3022057142857142c1.024662857142857 0 1.8571542857142855 -0.8319428571428571 1.8571542857142855 -1.8586285714285715 0 -0.8735314285714285 -0.6084342857142857 -1.62912 -1.460262857142857 -1.8154628571428573l-4.713977142857143 -1.0311771428571428c-2.622925714285714 -0.5737714285714285 -4.492457142857143 -2.896457142857143 -4.492457142857143 -5.581405714285714 0 -3.027702857142857 2.355085714285714 -5.5053600000000005 5.333279999999999 -5.700959999999999V12c0 -1.1834742857142857 0.9593828571428571 -2.142857142857143 2.142857142857143 -2.142857142857143ZM1.0582559999999999 41.01222857142857C0.417672 40.74685714285714 6.068571428571e-8 40.121828571428566 0 39.42857142857142l-5.9965714285714e-7 -6.857142857142857C-6.8228571428571e-7 31.624662857142855 0.7675097142857142 30.857142857142854 1.7142857142857142 30.857142857142854h6.857142857142857c0.69336 0 1.3184571428571428 0.4176685714285714 1.5837942857142857 1.058262857142857 0.2653371428571428 0.6405942857142857 0.11866285714285714 1.3779085714285715 -0.37162285714285714 1.8681942857142855l-1.7651314285714286 1.7652C11.602628571428571 40.49828571428571 17.427222857142855 43.714285714285715 23.999931428571426 43.714285714285715c10.889897142857142 0 19.717782857142854 -8.827885714285715 19.717782857142854 -19.717714285714287 0 -1.1834742857142857 0.9593142857142857 -2.142857142857143 2.142857142857143 -2.142857142857143s2.142857142857143 0.9593828571428571 2.142857142857143 2.142857142857143c0 13.256571428571426 -10.746857142857143 24.00342857142857 -24.00349714285714 24.00342857142857 -7.759782857142857 0 -14.656731428571426 -3.6822857142857144 -19.043108571428572 -9.389485714285714l-2.0303554285714287 2.0303999999999998c-0.49028228571428567 0.4902857142857142 -1.227624 0.6366857142857143 -1.8682114285714286 0.37131428571428565Z" clip-rule="evenodd" stroke-width="3.4286"></path>
  </g>
</svg>