<svg xmlns="http://www.w3.org/2000/svg" fill="none" viewBox="0 0 48 48" id="Sun-Cloud--Streamline-Core-Remix" height="48" width="48">
  <desc>
    Sun Cloud Streamline Icon: https://streamlinehq.com
  </desc>
  <g id="Free Remix/Interface Essential/sun-cloud--cloud-meteorology-cloudy-partly-sunny-weather">
    <path id="Union" fill="#000000" fill-rule="evenodd" d="M29.142857142857142 10.285714285714285C29.142857142857142 5.551851428571428 32.980422857142855 1.7142857142857142 37.714285714285715 1.7142857142857142c4.733828571428571 0 8.571428571428571 3.837565714285714 8.571428571428571 8.571428571428571S42.44811428571428 18.857142857142858 37.714285714285715 18.857142857142858C32.980422857142855 18.857142857142858 29.142857142857142 15.019577142857141 29.142857142857142 10.285714285714285ZM5.571428571428571 32.57142857142857c0 -5.443954285714286 4.413188571428571 -9.857142857142856 9.857142857142856 -9.857142857142856 4.558937142857142 0 8.4 3.096822857142857 9.52416 7.3051885714285705 0.1896685714285714 0.7100914285714285 0.7300457142857143 1.27344 1.4316342857142856 1.492457142857143 0.7015885714285715 0.21905142857142856 1.466502857142857 0.06325714285714286 2.0264914285714286 -0.41279999999999994 1.1223771428571427 -0.9540685714285715 2.5717371428571427 -1.527702857142857 4.160571428571428 -1.527702857142857 3.5502857142857143 0 6.428571428571428 2.878182857142857 6.428571428571428 6.428571428571428 0 3.5502857142857143 -2.878285714285714 6.428571428571428 -6.428571428571428 6.428571428571428h-17.142857142857142c-5.443954285714286 0 -9.857142857142856 -4.413257142857142 -9.857142857142856 -9.857142857142856ZM15.428571428571427 18.428571428571427C7.6177028571428576 18.428571428571427 1.2857142857142856 24.760559999999998 1.2857142857142856 32.57142857142857c0 7.8109714285714285 6.331988571428571 14.142857142857142 14.142857142857142 14.142857142857142h17.142857142857142c5.917371428571428 0 10.714285714285714 -4.796914285714285 10.714285714285714 -10.714285714285714 0 -5.917337142857142 -4.796914285714285 -10.714285714285714 -10.714285714285714 -10.714285714285714 -1.5985371428571427 0 -3.117051428571428 0.3510857142857143 -4.480868571428571 0.9797485714285714C25.77284571428571 21.620434285714285 20.97541714285714 18.428571428571427 15.428571428571427 18.428571428571427Z" clip-rule="evenodd" stroke-width="3.4286"></path>
  </g>
</svg>