<svg xmlns="http://www.w3.org/2000/svg" fill="none" viewBox="0 0 48 48" id="Syringe--Streamline-Core-Remix" height="48" width="48">
  <desc>
    Syringe Streamline Icon: https://streamlinehq.com
  </desc>
  <g id="Free Remix/Health/syringe--instrument-medical-syringe-health-beauty-needle">
    <path id="Union" fill="#000000" fill-rule="evenodd" d="M34.07496 0.6288822857142857c0.8368114285714285 -0.8368361142857142 2.1934971428571424 -0.8368361142857142 3.0304114285714285 0l10.117371428571428 10.117426285714284c0.8369142857142857 0.8368457142857142 0.8369142857142857 2.1936342857142854 0 3.03048 -0.8365714285714285 0.8368114285714285 -2.1936 0.8368114285714285 -3.0305142857142857 0l-3.2396571428571423 -3.2396914285714287 -7.086445714285714 7.086617142857143 9.98496 9.984994285714285c0.8369142857142857 0.8368457142857142 0.8369142857142857 2.1936342857142854 0 3.03048 -0.8369142857142857 0.8368114285714285 -2.1936 0.8368114285714285 -3.0305142857142857 0l-3.5283428571428566 -3.5285485714285714 -13.627611428571427 13.90056 -0.014057142857142858 0.014399999999999998 -0.00006857142857142857 0c-0.8254285714285714 0.8262857142857142 -1.8056571428571426 1.4818285714285713 -2.8846285714285713 1.9292571428571428 -1.0789371428571428 0.4470857142857142 -2.235497142857143 0.6774857142857142 -3.403508571428571 0.6774857142857142 -1.1679771428571428 0 -2.324537142857143 -0.23039999999999997 -3.4034742857142857 -0.6774857142857142 -0.7964914285714285 -0.33017142857142856 -1.5391542857142855 -0.7738285714285714 -2.205497142857143 -1.315885714285714l-8.604504 6.048c-0.6815725714285714 0.4789714285714285 -1.608901714285714 0.3987428571428571 -2.1979954285714287 -0.19028571428571428l-0.29808685714285715 -0.2979428571428571c-0.5890923428571427 -0.5893714285714285 -0.6693785485714285 -1.516457142857143 -0.19029942857142856 -2.198057142857143l6.028611428571429 -8.576914285714285c-0.6695657142857142 -0.7464 -1.2087771428571428 -1.6018285714285714 -1.593702857142857 -2.5304571428571427 -0.44725714285714285 -1.0789714285714285 -0.6774857142857142 -2.235497142857143 -0.6774857142857142 -3.403508571428571 0 -1.1679771428571428 0.23022857142857142 -2.324537142857143 0.6774857142857142 -3.4034742857142857 0.4472914285714285 -1.0789714285714285 1.1028342857142857 -2.0592 1.9291885714285713 -2.8846285714285713l0.014228571428571427 -0.014194285714285711 0.00003428571428571428 0.00006857142857142857 13.90069714285714 -13.627542857142856 -3.5282057142857144 -3.5282057142857144c-0.8368457142857142 -0.8368457142857142 -0.8368457142857142 -2.1936342857142854 0 -3.030445714285714 0.8368457142857142 -0.8368491428571427 2.1936342857142854 -0.8368491428571427 3.030445714285714 0l9.985782857142857 9.985782857142857 7.086651428571429 -7.086582857142857 -3.2412685714285714 -3.2412342857142855c-0.8368457142857142 -0.8368457142857142 -0.8368457142857142 -2.193627428571429 0 -3.0304662857142852ZM23.77217142857143 13.590651428571428 9.848914285714285 27.24030857142857c-0.4248342857142857 0.4260685714285714 -0.7620342857142857 0.931302857142857 -0.9924685714285714 1.4871771428571428 -0.23159999999999997 0.5586857142857143 -0.35081142857142855 1.1575542857142855 -0.35081142857142855 1.7623199999999999 0 0.12281142857142856 0.004937142857142857 0.2453142857142857 0.014674285714285713 0.3673371428571428h19.097279999999998l6.643954285714286 -6.77712 -10.48937142857143 -10.48937142857143Z" clip-rule="evenodd" stroke-width="3.4286"></path>
  </g>
</svg>