<svg xmlns="http://www.w3.org/2000/svg" fill="none" viewBox="0 0 48 48" id="Tablet-Capsule--Streamline-Core-Remix" height="48" width="48">
  <desc>
    Tablet Capsule Streamline Icon: https://streamlinehq.com
  </desc>
  <g id="Free Remix/Health/tablet-capsule--health-medical-hospital-medicine-capsule-tablet">
    <path id="Union" fill="#000000" fill-rule="evenodd" d="M15.516617142857143 16.26953142857143 7.650308571428571 24.135839999999998c-2.150022857142857 2.150022857142857 -3.3579085714285712 5.066091428571428 -3.3579085714285712 8.106685714285714 0 3.0405599999999997 1.2078857142857142 5.95656 3.3579085714285712 8.106617142857143 2.150022857142857 2.150057142857143 5.066091428571428 3.357942857142857 8.106685714285714 3.357942857142857 3.0405942857142856 0 5.956662857142857 -1.2078857142857142 8.106685714285714 -3.357942857142857l7.866308571428571 -7.8662399999999995 -16.213371428571428 -16.213371428571428ZM32.24211428571429 0.007114971428571429c-4.1772342857142855 0 -8.183382857142858 1.6594038857142857 -11.137165714285713 4.613159314285714L4.6198628571428575 21.105394285714283C1.6661005714285713 24.059142857142856 0.0066964114285714285 28.065291428571427 0.0066964114285714285 32.24252571428571c0 4.177131428571428 1.6594007314285713 8.183417142857142 4.613166445714286 11.13713142857143 2.953748571428571 2.9537142857142857 6.959897142857143 4.613142857142857 11.13713142857143 4.613142857142857s8.183382857142858 -1.6594285714285713 11.137165714285713 -4.613142857142857l16.485154285714284 -16.485085714285713c2.9537142857142857 -2.953748571428571 4.613142857142857 -6.959897142857143 4.613142857142857 -11.137165714285713 0 -4.1772342857142855 -1.6594285714285713 -8.183382857142858 -4.613142857142857 -11.13713142857143 -2.9537142857142857 -2.9537554285714283 -6.959999999999999 -4.613159314285714 -11.137199999999998 -4.613159314285714Z" clip-rule="evenodd" stroke-width="3.4286"></path>
  </g>
</svg>