<svg xmlns="http://www.w3.org/2000/svg" fill="none" viewBox="0 0 48 48" id="Table-Lamp-1--Streamline-Core-Remix" height="48" width="48">
  <desc>
    Table Lamp 1 Streamline Icon: https://streamlinehq.com
  </desc>
  <g id="Free Remix/Interface Essential/table-lamp-1--lighting-light-incandescent-bulb-lights-table-lamp">
    <path id="Union" fill="#000000" fill-rule="evenodd" d="M12.42912 1.2857142857142856c-1.477645714285714 0 -2.894742857142857 0.5869885714285714 -3.9395999999999995 1.631832C7.444697142857143 3.9623999999999997 6.857691428571429 5.379497142857143 6.857691428571429 6.857142857142857v3.964114285714285c-1.9540799999999998 1.3469142857142855 -3.5855725714285716 3.118662857142857 -4.768405714285714 5.188628571428571 -1.3930114285714286 2.437782857142857 -2.113783474285714 5.201691428571428 -2.0886502148571426 8.00928C0.01116222857142857 25.19513142857143 0.9674228571428571 26.142857142857142 2.143405714285714 26.142857142857142h27.428571428571427c1.1759657142857143 0 2.132228571428571 -0.9477257142857143 2.142788571428571 -2.1236914285714286 0.02513142857142857 -2.8075885714285715 -0.6956571428571429 -5.571497142857142 -2.088685714285714 -8.00928C28.535177142857144 14.10078857142857 27.062605714285713 12.445302857142856 25.307314285714284 11.142857142857142h1.2647314285714284c6.154045714285713 0 11.142925714285715 4.988811428571428 11.142925714285715 11.142857142857142v19.71428571428571H27.429188571428572c-1.4201485714285715 0 -2.571428571428571 1.1513142857142855 -2.571428571428571 2.571428571428571s1.1512799999999999 2.571428571428571 2.571428571428571 2.571428571428571h18.00006857142857c1.4201142857142857 0 2.571428571428571 -1.1513142857142855 2.571428571428571 -2.571428571428571s-1.1513142857142855 -2.571428571428571 -2.571428571428571 -2.571428571428571h-2.571428571428571V22.285714285714285c0 -8.994342857142856 -7.291542857142857 -16.285714285714285 -16.285782857142856 -16.285714285714285h-1.780662857142857c-0.18065142857142857 -1.1602285714285714 -0.7249028571428571 -2.241805714285714 -1.56552 -3.0824537142857142C22.181005714285714 1.8727028571428572 20.76390857142857 1.2857142857142856 19.286262857142855 1.2857142857142856h-6.857142857142857ZM11.52 5.947988571428572c0.24109714285714282 -0.24109714285714282 0.5681142857142857 -0.37655999999999995 0.9091199999999999 -0.37655999999999995h6.857142857142857c0.3410057142857143 0 0.6680228571428571 0.13546285714285713 0.9091542857142857 0.37655999999999995 0.24109714285714282 0.24113142857142858 0.37655999999999995 0.5681485714285713 0.37655999999999995 0.9091542857142857v5.142857142857142c0 0.7656 0.40847999999999995 1.4730514285714285 1.071497142857143 1.8558171428571426 1.774422857142857 1.0243542857142856 3.2450742857142854 2.5014514285714284 4.261577142857143 4.2804 0.66192 1.1583428571428571 1.1158628571428573 2.417622857142857 1.3469142857142855 3.720925714285714H4.463417142857143c0.23105142857142857 -1.303302857142857 0.6849942857142857 -2.562582857142857 1.3469142857142855 -3.720925714285714 1.0165371428571428 -1.7789142857142857 2.4871542857142854 -3.256045714285714 4.261577142857143 -4.2804 0.6630514285714285 -0.38276571428571426 1.071497142857143 -1.0902171428571428 1.071497142857143 -1.8558171428571426V6.857142857142857c0 -0.3410057142857143 0.13546285714285713 -0.6680228571428571 0.37659428571428566 -0.9091542857142857Z" clip-rule="evenodd" stroke-width="3.4286"></path>
  </g>
</svg>