<svg xmlns="http://www.w3.org/2000/svg" fill="none" viewBox="0 0 48 48" id="Tag--Streamline-Core-Remix" height="48" width="48">
  <desc>
    Tag Streamline Icon: https://streamlinehq.com
  </desc>
  <g id="Free Remix/Interface Essential/tag--tags-bookmark-favorite">
    <path id="Union" fill="#000000" fill-rule="evenodd" d="M24.48054857142857 1.631832C25.525405714285714 0.5869885714285714 26.94253714285714 0 28.420148571428573 0H42.42857142857142C45.505714285714284 0 48 2.494412571428571 48 5.571428571428571v14.008422857142858c0 1.4776114285714286 -0.5869714285714285 2.894742857142857 -1.632 3.939565714285714L23.653885714285714 46.233599999999996c-2.1757714285714287 2.1757714285714287 -5.703428571428571 2.1757714285714287 -7.879199999999999 0L1.7662799999999999 32.22531428571428c-2.175774857142857 -2.1757714285714287 -2.1757817142857143 -5.703428571428571 -0.00000342857142857143 -7.879199999999999L24.48054857142857 1.631832ZM28.420148571428573 4.285714285714286c-0.34097142857142854 0 -0.6680228571428571 0.13546285714285713 -0.9091199999999999 0.37655999999999995l-22.71428571428571 22.714319999999997c-0.5021142857142856 0.50208 -0.5021142857142856 1.31616 0 1.8182742857142855L18.805131428571425 43.203428571428574c0.5021142857142856 0.5019428571428571 1.3161942857142857 0.5019428571428571 1.8182742857142855 0l22.714422857142857 -22.714457142857142c0.24102857142857143 -0.24109714285714282 0.3764571428571428 -0.5681485714285713 0.3764571428571428 -0.9091199999999999V5.571428571428571c0 -0.7100914285714285 -0.5756571428571428 -1.2857142857142856 -1.2857142857142856 -1.2857142857142856H28.420148571428573Zm10.579851428571427 8.571428571428571c0 -2.1302399999999997 -1.7269714285714286 -3.8571428571428568 -3.8571428571428568 -3.8571428571428568 -2.1302399999999997 0 -3.8571428571428568 1.726902857142857 -3.8571428571428568 3.8571428571428568s1.726902857142857 3.8571428571428568 3.8571428571428568 3.8571428571428568c2.1301714285714284 0 3.8571428571428568 -1.726902857142857 3.8571428571428568 -3.8571428571428568Z" clip-rule="evenodd" stroke-width="3.4286"></path>
  </g>
</svg>