<svg xmlns="http://www.w3.org/2000/svg" fill="none" viewBox="0 0 48 48" id="Tailless-Line-Arrow-Shrink-Horizontal-2--Streamline-Core-Remix" height="48" width="48">
  <desc>
    Tailless Line Arrow Shrink Horizontal 2 Streamline Icon: https://streamlinehq.com
  </desc>
  <g id="Free Remix/Interface Essential/tailless-line-arrow-shrink-horizontal-2--resize-shrink-bigger-horizontal-smaller-size-arrow-arrows-big">
    <path id="Union" fill="#000000" fill-rule="evenodd" d="M3.4285714285714284 1.2857142857142856c1.1834742857142857 0 2.142857142857143 0.9593897142857143 2.142857142857143 2.142857142857143v41.14285714285714c0 1.183542857142857 -0.9593828571428571 2.142857142857143 -2.142857142857143 2.142857142857143 -1.1834674285714284 0 -2.142857142857143 -0.9593142857142857 -2.142857142857143 -2.142857142857143V3.4285714285714284C1.2857142857142856 2.245104 2.245104 1.2857142857142856 3.4285714285714284 1.2857142857142856Zm9.229508571428571 12.627634285714285c-0.8368457142857142 -0.8368457142857142 -2.1936 -0.8368457142857142 -3.030445714285714 0 -0.8368457142857142 0.8368457142857142 -0.8368457142857142 2.1936 0 3.030445714285714L16.683839999999996 24 9.627634285714285 31.05620571428571c-0.8368457142857142 0.8368457142857142 -0.8368457142857142 2.1936 0 3.030445714285714 0.8368457142857142 0.8367771428571428 2.1936 0.8367771428571428 3.030445714285714 0l8.571428571428571 -8.571428571428571c0.8368457142857142 -0.8368457142857142 0.8368457142857142 -2.1936 0 -3.030445714285714l-8.571428571428571 -8.571428571428571Zm25.71414857142857 3.030445714285714c0.8369142857142857 -0.8368457142857142 0.8369142857142857 -2.1936 0 -3.030445714285714 -0.8365714285714285 -0.8368457142857142 -2.1936 -0.8368457142857142 -3.0301714285714283 0l-8.571565714285713 8.571428571428571c-0.8368457142857142 0.8368457142857142 -0.8368457142857142 2.1936 0 3.030445714285714l8.571565714285713 8.571428571428571c0.8365714285714285 0.8367771428571428 2.1936 0.8367771428571428 3.0301714285714283 0 0.8369142857142857 -0.8368457142857142 0.8369142857142857 -2.1936 0 -3.030445714285714L31.316159999999996 24l7.056068571428571 -7.0562057142857135ZM46.71428571428571 3.4285714285714284c0 -1.1834674285714284 -0.9593142857142857 -2.142857142857143 -2.142857142857143 -2.142857142857143s-2.142857142857143 0.9593897142857143 -2.142857142857143 2.142857142857143v41.14285714285714c0 1.183542857142857 0.9593142857142857 2.142857142857143 2.142857142857143 2.142857142857143s2.142857142857143 -0.9593142857142857 2.142857142857143 -2.142857142857143V3.4285714285714284Z" clip-rule="evenodd" stroke-width="3.4286"></path>
  </g>
</svg>