<svg xmlns="http://www.w3.org/2000/svg" fill="none" viewBox="0 0 48 48" id="Take-Off--Streamline-Core-Remix" height="48" width="48">
  <desc>
    Take Off Streamline Icon: https://streamlinehq.com
  </desc>
  <g id="Free Remix/Map Travel/take-off--travel-plane-adventure-airplane-take-off-airport">
    <path id="Union" fill="#000000" fill-rule="evenodd" d="M34.07917714285714 9.036891428571428c1.1757942857142858 -0.11249142857142856 2.3620799999999997 0.03308571428571429 3.476022857142857 0.4266171428571428 1.1136 0.39353142857142853 2.1281142857142856 1.0254857142857141 2.9722285714285714 1.8517371428571425 0.8238857142857143 0.80616 1.4660571428571427 1.778365714285714 1.884685714285714 2.8516114285714287 0.034628571428571425 0.14982857142857142 0.014399999999999998 0.3077485714285714 -0.057942857142857136 0.44471999999999995 -0.07919999999999999 0.15068571428571428 -0.21531428571428568 0.2637257142857143 -0.37817142857142855 0.3142285714285714l0 -0.00017142857142857143 -0.026057142857142855 0.0084 -11.80830857142857 3.83064c-0.6225257142857142 0.20194285714285715 -1.0893257142857142 0.6618171428571429 -1.3205142857142855 1.2229371428571427 -0.03366857142857143 0.08173714285714286 -0.06233142857142857 0.1656 -0.08574857142857142 0.2511428571428571l-1.9219199999999996 6.576548571428571 -3.668982857142857 1.1912228571428571 0.7915542857142857 -3.8588571428571425c0.04244571428571429 -0.1906285714285714 0.05910857142857142 -0.3883885714285714 0.04734857142857142 -0.5881371428571428 -0.013851428571428572 -0.24058285714285713 -0.06829714285714285 -0.4735885714285714 -0.15778285714285714 -0.690582857142857 -0.22786285714285714 -0.5559428571428571 -0.6689828571428571 -0.97056 -1.1959885714285712 -1.1786742857142856 -0.36397714285714283 -0.14372571428571426 -0.7688914285714284 -0.18898285714285715 -1.17288 -0.11430857142857143 -0.09726857142857143 0.017897142857142855 -0.19272 0.04244571428571429 -0.28570285714285715 0.07326857142857142L10.009782857142856 25.25372571428571c-0.029108571428571425 0.009394285714285713 -0.05797714285714286 0.019405714285714287 -0.08664 0.030034285714285715 -0.07210285714285714 0.02674285714285714 -0.1488 0.03888 -0.22563428571428568 0.035691428571428575 -0.0768342857142857 -0.0031885714285714286 -0.15226285714285712 -0.021634285714285714 -0.22189714285714285 -0.05427428571428571 -0.06963428571428572 -0.03260571428571428 -0.13210285714285713 -0.07875428571428571 -0.18373714285714285 -0.13577142857142857 -0.04741714285714285 -0.052354285714285714 -0.08485714285714285 -0.11290285714285714 -0.11046857142857142 -0.17862857142857141l-3.4151314285714283 -10.59870857142857 3.104982857142857 -0.9972 2.6440114285714285 4.190982857142857c0.5869371428571428 0.9303771428571428 1.7829942857142855 1.2651771428571428 2.76768 0.7747542857142857L30.618514285714287 10.184502857142856c0.04364571428571428 -0.02177142857142857 0.08657142857142858 -0.04498285714285714 0.12863999999999998 -0.06966857142857143 1.0189714285714286 -0.5975657142857143 2.1561257142857144 -0.9654514285714285 3.332022857142857 -1.077942857142857ZM19.006354285714284 26.85195428571428l-7.642148571428571 2.468022857142857c-0.5907085714285714 0.2118857142857143 -1.2170057142857142 0.3075428571428571 -1.8443657142857142 0.2814857142857143 -0.6448457142857142 -0.02674285714285714 -1.2778971428571428 -0.18154285714285712 -1.8623314285714285 -0.45531428571428567 -0.5844685714285714 -0.27380571428571426 -1.1085942857142856 -0.6611314285714286 -1.541862857142857 -1.1394514285714286 -0.4333028571428571 -0.4782857142857143 -0.7671085714285714 -1.0380342857142855 -0.9819771428571428 -1.6466057142857142l-0.018994285714285714 -0.05622857142857143 -3.672329142857143 -11.396914285714285c-0.011578285714285713 -0.035931428571428566 -0.022158857142857143 -0.07196571428571429 -0.031755428571428566 -0.10803428571428572 -0.23850514285714286 -0.8734285714285713 -0.13294971428571428 -1.8056914285714285 0.2959062857142857 -2.60424 0.43507885714285716 -0.8101371428571428 1.168662857142857 -1.4189142857142856 2.0451154285714286 -1.6971771428571427l0.027257142857142858 -0.008468571428571428 4.303062857142857 -1.3819885714285713 0.017245714285714284 -0.005554285714285714 0 0.00010285714285714286c0.7206171428571428 -0.22474285714285713 1.4936228571428571 -0.2172342857142857 2.2097142857142855 0.02146285714285714 0.7160914285714285 0.23869714285714286 1.3389942857142856 0.6965142857142856 1.7806285714285712 1.3086514285714284 0.025988571428571427 0.036 0.05084571428571428 0.07282285714285713 0.07453714285714284 0.1104l1.9422514285714287 3.0786171428571425 14.539097142857141 -7.241382857142857c1.5401142857142855 -0.8904342857142856 3.254125714285714 -1.4392114285714284 5.025634285714285 -1.6086857142857143 1.7968457142857142 -0.1719085714285714 3.6098742857142856 0.050571428571428566 5.311817142857143 0.6519428571428572 1.701942857142857 0.6013714285714286 3.2523428571428568 1.5670971428571427 4.542514285714286 2.8297371428571427 1.2898285714285713 1.26264 2.2889142857142857 2.791714285714286 2.926628571428571 4.4804571428571425 0.01577142857142857 0.04124571428571429 0.03017142857142857 0.08300571428571428 0.04285714285714286 0.12514285714285714 0.38537142857142853 1.2477942857142856 0.25954285714285713 2.5974171428571426 -0.34937142857142856 3.7525371428571423 -0.6068571428571428 1.1505257142857142 -1.6436571428571427 2.014422857142857 -2.8841142857142854 2.4037714285714284L32.54197714285714 22.491600000000002l-1.7008114285714284 5.819862857142857c-0.15754285714285712 0.5836457142857142 -0.4609028571428571 1.11792 -0.8818628571428571 1.5524571428571428 -0.4216114285714285 0.43518857142857137 -0.9469371428571428 0.7556571428571428 -1.5263314285714285 0.9315085714285714l-4.776205714285714 1.5507085714285713c-0.5858399999999999 0.23022857142857142 -1.2219085714285713 0.3058285714285714 -1.8466971428571428 0.2184685714285714 -0.66528 -0.09301714285714285 -1.292125714285714 -0.36719999999999997 -1.8120342857142857 -0.792582857142857 -0.5199085714285714 -0.4253828571428571 -0.9127885714285715 -0.985542857142857 -1.1357142857142857 -1.6192114285714285 -0.222 -0.6311314285714286 -0.26688 -1.3109485714285714 -0.12983999999999998 -1.965702857142857l0.27387428571428574 -1.3351542857142855ZM3.4285714285714284 42c-1.656853714285714 0 -3 1.3433142857142857 -3 3S1.7717177142857141 48 3.4285714285714284 48h41.14285714285714c1.6566857142857143 0 3 -1.3433142857142857 3 -3s-1.3433142857142857 -3 -3 -3H3.4285714285714284Z" clip-rule="evenodd" stroke-width="3.4286"></path>
  </g>
</svg>