<svg xmlns="http://www.w3.org/2000/svg" fill="none" viewBox="0 0 48 48" id="Tall-Hat--Streamline-Core-Remix" height="48" width="48">
  <desc>
    Tall Hat Streamline Icon: https://streamlinehq.com
  </desc>
  <g id="Free Remix/Money Shopping/tall-hat--tall-hat-cloth-clothing-wearable-magician-gentleman-accessories">
    <path id="Union" fill="#000000" fill-rule="evenodd" d="M12.298217142857142 5.571428571428571c-0.7521942857142857 0 -1.3437257142857142 0.6428914285714286 -1.2812571428571427 1.39248L12.972342857142856 30.428571428571427l22.056685714285713 0 1.9553142857142858 -23.464662857142855c0.0624 -0.7495885714285714 -0.5290285714285714 -1.39248 -1.2812571428571427 -1.39248H12.298217142857142Zm-5.55216 1.7484L9.63606857142857 42H3.4285714285714284c-1.4201622857142857 0 -2.571428571428571 1.1513142857142855 -2.571428571428571 2.571428571428571s1.1512662857142855 2.571428571428571 2.571428571428571 2.571428571428571h41.14285714285714c1.4201142857142857 0 2.571428571428571 -1.1513142857142855 2.571428571428571 -2.571428571428571s-1.1513142857142855 -2.571428571428571 -2.571428571428571 -2.571428571428571h-6.2063999999999995l2.890285714285714 -34.68017142857143C41.52582857142857 4.071565714285714 38.962628571428574 1.2857142857142856 35.70308571428571 1.2857142857142856H12.298217142857142c-3.2595085714285714 0 -5.822845714285713 2.7858514285714286 -5.55216 6.034114285714285Z" clip-rule="evenodd" stroke-width="3.4286"></path>
  </g>
</svg>