<svg xmlns="http://www.w3.org/2000/svg" fill="none" viewBox="0 0 48 48" id="Tape-Cassette-Record--Streamline-Core-Remix" height="48" width="48">
  <desc>
    Tape Cassette Record Streamline Icon: https://streamlinehq.com
  </desc>
  <g id="Free Remix/Entertainment/tape-cassette-record--music-entertainment-tape-cassette-record">
    <path id="Union" fill="#000000" fill-rule="evenodd" d="M5.571428571428571 3C2.4944091428571427 3 0 5.494422857142857 0 8.571428571428571v30.132c0 3.0767999999999995 2.494412571428571 5.571428571428571 5.571428571428571 5.571428571428571h36.857142857142854c3.077142857142857 0 5.571428571428571 -2.494628571428571 5.571428571428571 -5.571428571428571V8.571428571428571c0 -3.0770057142857143 -2.494285714285714 -5.571428571428571 -5.571428571428571 -5.571428571428571H5.571428571428571ZM4.285714285714286 8.571428571428571c0 -0.7100914285714285 0.5756228571428571 -1.2857142857142856 1.2857142857142856 -1.2857142857142856h36.857142857142854c0.7100571428571428 0 1.2857142857142856 0.5756228571428571 1.2857142857142856 1.2857142857142856v30.132c0 0.7100571428571428 -0.5756571428571428 1.2857142857142856 -1.2857142857142856 1.2857142857142856h-6.098742857142857l-2.7603085714285713 -6.900925714285714c-0.26033142857142855 -0.6508457142857142 -0.8906742857142858 -1.0776000000000001 -1.591645714285714 -1.0776000000000001H15.164674285714284c-0.7009714285714285 0 -1.3313485714285713 0.4267542857142857 -1.5916799999999998 1.0776000000000001L10.812685714285715 39.98914285714286H5.571428571428571c-0.7100914285714285 0 -1.2857142857142856 -0.5756571428571428 -1.2857142857142856 -1.2857142857142856V8.571428571428571Zm9.214319999999999 5.357142857142857c-3.5048914285714283 0 -6.346148571428571 2.8412571428571427 -6.346148571428571 6.346148571428571s2.8412571428571427 6.346148571428571 6.346148571428571 6.346148571428571h20.142857142857142c3.504994285714285 0 6.346251428571428 -2.8412571428571427 6.346251428571428 -6.346148571428571S37.147885714285714 13.928571428571427 33.642891428571424 13.928571428571427h-20.142857142857142Zm0 4.285714285714286h2.0365371428571426c0.5311885714285715 0.5279657142857143 0.8564914285714286 1.2564 0.8564914285714286 2.060228571428571 0 0.8040685714285714 -0.3254742857142857 1.5326399999999998 -0.8569028571428572 2.06064h-2.0361257142857143c-1.137942857142857 0 -2.060434285714286 -0.9224914285714286 -2.060434285714286 -2.060434285714286 0 -1.137942857142857 0.9224914285714286 -2.060434285714286 2.060434285714286 -2.060434285714286Zm17.24976 2.060228571428571c0 0.8040685714285714 0.3254742857142857 1.5326399999999998 0.8569028571428572 2.06064h2.0361942857142856c1.1379085714285715 0 2.0605371428571426 -0.9224914285714286 2.0605371428571426 -2.060434285714286 0 -1.137942857142857 -0.9226285714285714 -2.060434285714286 -2.0605371428571426 -2.060434285714286H31.606285714285715c-0.5311885714285715 0.5279657142857143 -0.8564914285714286 1.2564 -0.8564914285714286 2.060228571428571Z" clip-rule="evenodd" stroke-width="3.4286"></path>
  </g>
</svg>