<svg xmlns="http://www.w3.org/2000/svg" fill="none" viewBox="0 0 48 48" id="Target-3--Streamline-Core-Remix" height="48" width="48">
  <desc>
    Target 3 Streamline Icon: https://streamlinehq.com
  </desc>
  <g id="Free Remix/Money Shopping/target-3--shop-bullseye-shooting-target">
    <path id="Union" fill="#000000" fill-rule="evenodd" d="M43.534971428571424 21.857142857142858h-3.5530285714285714c-1.183542857142857 0 -2.142857142857143 0.9593828571428571 -2.142857142857143 2.142857142857143s0.9593142857142857 2.142857142857143 2.142857142857143 2.142857142857143h3.5530285714285714c-0.9912000000000001 9.140571428571429 -8.250857142857141 16.40022857142857 -17.391394285714284 17.39142857142857v-3.552685714285714c0 -1.183542857142857 -0.9593828571428571 -2.142857142857143 -2.142857142857143 -2.142857142857143 -1.1834399999999998 0 -2.142857142857143 0.9593142857142857 -2.142857142857143 2.142857142857143v3.552685714285714c-9.140434285714285 -0.9912000000000001 -16.40009142857143 -8.250857142857141 -17.39136 -17.39142857142857h3.552994285714285c1.1834742857142857 0 2.142857142857143 -0.9593828571428571 2.142857142857143 -2.142857142857143s-0.9593828571428571 -2.142857142857143 -2.142857142857143 -2.142857142857143H4.466502857142856c0.9913714285714286 -9.140365714285714 8.250994285714286 -16.399954285714283 17.39136 -17.391257142857143v3.552788571428571c0 1.1834742857142857 0.9594171428571429 2.142857142857143 2.142857142857143 2.142857142857143 1.1834742857142857 0 2.142857142857143 -0.9593828571428571 2.142857142857143 -2.142857142857143V4.465885714285714c9.140537142857141 0.991302857142857 16.399851428571427 8.250891428571428 17.391394285714284 17.391257142857143Zm4.401257142857143 2.14296c0 13.219097142857143 -10.716342857142857 23.935439999999996 -23.93550857142857 23.935439999999996S0.06529028571428572 37.2192 0.06529028571428572 24.000102857142856c0 -13.219165714285714 10.716263999999999 -23.93544034285714 23.935429714285714 -23.93544034285714 13.219165714285714 0 23.93550857142857 10.716274628571428 23.93550857142857 23.93544034285714ZM14.723862857142857 24c0 -1.4201485714285715 1.1512799999999999 -2.571428571428571 2.571428571428571 -2.571428571428571h4.134V17.294777142857143c0 -1.4201485714285715 1.1512799999999999 -2.571428571428571 2.571428571428571 -2.571428571428571 1.420182857142857 0 2.571428571428571 1.1512799999999999 2.571428571428571 2.571428571428571V21.428571428571427h4.133965714285714c1.420182857142857 0 2.571428571428571 1.1512799999999999 2.571428571428571 2.571428571428571s-1.1512457142857142 2.571428571428571 -2.571428571428571 2.571428571428571H26.57214857142857v4.134171428571428c0 1.4201485714285715 -1.1512457142857142 2.571428571428571 -2.571428571428571 2.571428571428571 -1.4201485714285715 0 -2.571428571428571 -1.1512799999999999 -2.571428571428571 -2.571428571428571V26.57142857142857H17.295291428571428c-1.4201485714285715 0 -2.571428571428571 -1.1512799999999999 -2.571428571428571 -2.571428571428571Z" clip-rule="evenodd" stroke-width="3.4286"></path>
  </g>
</svg>