<svg xmlns="http://www.w3.org/2000/svg" fill="none" viewBox="0 0 48 48" id="Target--Streamline-Core-Remix" height="48" width="48">
  <desc>
    Target Streamline Icon: https://streamlinehq.com
  </desc>
  <g id="Free Remix/Money Shopping/target--shop-bullseye-arrow-target">
    <path id="Union" fill="#000000" fill-rule="evenodd" d="M38.17165714285714 0.06224331428571429c0.5952 0.1648608 1.0556571428571428 0.6371372571428571 1.2054857142857143 1.2363075428571428l1.4646857142857144 5.859277714285714 5.859428571428571 1.464822857142857c0.5989714285714285 0.1497942857142857 1.0714285714285714 0.61032 1.236 1.2054857142857143 0.1649142857142857 0.5952 -0.0030857142857142854 1.2330857142857143 -0.43988571428571427 1.669782857142857l-6.857142857142857 6.857177142857143c-0.42548571428571424 0.4257942857142857 -1.0436571428571428 0.5969485714285714 -1.6278857142857142 0.4508914285714285l-5.430617142857143 -1.35768 -8.066914285714285 8.066914285714285c-0.8368457142857142 0.8368457142857142 -2.1936342857142854 0.8368457142857142 -3.030445714285714 0 -0.8368457142857142 -0.8368457142857142 -0.8368457142857142 -2.1936 0 -3.030445714285714L30.551314285714284 14.417828571428569l-1.3576457142857141 -5.4305828571428565c-0.14605714285714286 -0.5841942857142858 0.02513142857142857 -1.20216 0.45092571428571426 -1.6279542857142857L36.501599999999996 0.5021417142857143c0.4368 -0.43671428571428567 1.0748571428571427 -0.604758857142857 1.6700571428571427 -0.43989839999999997ZM22.641085714285712 4.380171428571428c1.1806285714285714 -0.08201142857142857 2.0711999999999997 -1.1055942857142858 1.9891885714285715 -2.286216 -0.08201142857142857 -1.1806217142857143 -1.1056114285714285 -2.0712139885714285 -2.2862057142857144 -1.9891937142857143C17.779405714285716 0.4218788571428571 13.401702857142856 2.0426571428571427 9.731074285714284 4.774525714285715 6.060445714285714 7.506411428571427 3.2511565714285715 11.234571428571428 1.6369919999999998 15.51606857142857 0.02283065142857143 19.797565714285714 -0.3283690285714286 24.452434285714286 0.6251211428571428 28.92764571428571c0.9534857142857143 4.475211428571428 3.1715759999999995 8.58264 6.390764571428571 11.834297142857142 3.2191885714285715 3.251657142857143 7.304125714285714 5.511085714285714 11.769531428571428 6.509485714285714 4.465439999999999 0.9984 9.1236 0.6939428571428571 13.421074285714285 -0.8770285714285715 4.297508571428572 -1.5709714285714285 8.053851428571429 -4.342628571428571 10.822422857142858 -7.985828571428572 2.7685714285714282 -3.642857142857143 4.433142857142856 -8.004102857142856 4.796228571428571 -12.565337142857143 0.09394285714285713 -1.1797371428571428 -0.7865142857142856 -2.2122171428571424 -1.9662857142857142 -2.3060914285714285 -1.1794285714285713 -0.09390857142857142 -2.2121142857142857 0.7863771428571429 -2.3060571428571426 1.9661142857142857 -0.2979428571428571 3.743314285714286 -1.6638857142857142 7.322468571428571 -3.9359999999999995 10.312285714285714 -2.2721142857142853 2.9897142857142853 -5.354914285714285 5.264228571428571 -8.881782857142857 6.553714285714285 -3.526902857142857 1.2891428571428571 -7.349759999999999 1.5390857142857142 -11.014422857142858 0.7196571428571428 -3.6646971428571424 -0.8194285714285714 -7.01712 -2.6736 -9.65904 -5.342057142857143 -2.6419542857142857 -2.6687999999999996 -4.462285714285715 -6.039565714285715 -5.244788571428571 -9.712285714285713 -0.7825371428571428 -3.67272 -0.4942971428571428 -7.492902857142857 0.8303999999999999 -11.006639999999999 1.3247314285714284 -3.5137371428571424 3.63024 -6.573359999999999 6.642651428571428 -8.815371428571428 3.012445714285714 -2.2420114285714283 6.6051085714285716 -3.5721257142857143 10.351268571428571 -3.832388571428571Zm-0.3288342857142857 9.499234285714286c0.4314514285714286 1.1020114285714284 -0.11218285714285714 2.345142857142857 -1.2142285714285714 2.77656 -1.2225599999999999 0.4786285714285714 -2.3065371428571426 1.2544457142857142 -3.153908571428571 2.2572685714285714 -0.8473714285714286 1.0028571428571427 -1.4313942857142856 2.201108571428571 -1.699302857142857 3.486377142857143 -0.26787428571428573 1.285302857142857 -0.21116571428571426 2.617097142857143 0.16501714285714283 3.8749714285714285 0.3761828571428571 1.2578399999999998 1.0599771428571427 2.402091428571428 1.9895314285714285 3.32928 0.9295885714285713 0.9271542857142856 2.0755885714285713 1.6079999999999999 3.3344228571428567 1.9809599999999998 1.2588342857142856 0.37295999999999996 2.590765714285714 0.42623999999999995 3.875348571428571 0.15504 1.284617142857143 -0.2712 2.48136 -0.8583085714285714 3.481988571428571 -1.7082514285714285 1.000662857142857 -0.8499771428571428 1.7737028571428568 -1.935942857142857 2.249142857142857 -3.159737142857143 0.4286057142857143 -1.103142857142857 1.6702971428571427 -1.6499657142857143 2.77344 -1.22136 1.1032114285714285 0.42857142857142855 1.6500685714285712 1.6702971428571427 1.2214971428571426 2.77344 -0.7337142857142857 1.8877714285714284 -1.9259999999999997 3.5629714285714282 -3.4695771428571427 4.874091428571428 -1.5435771428571428 1.310982857142857 -3.3896571428571427 2.2168114285714284 -5.371234285714285 2.6350971428571426s-4.036182857142856 0.336 -5.978022857142856 -0.2393142857142857c-1.94184 -0.5749714285714285 -3.7096457142857138 -1.625382857142857 -5.143542857142857 -3.0556114285714284 -1.4339314285714284 -1.4302285714285714 -2.488731428571428 -3.195325714285714 -3.0690171428571427 -5.135657142857142 -0.5802857142857143 -1.9403657142857142 -0.6677828571428571 -3.9947314285714284 -0.25453714285714285 -5.977405714285713 0.41324571428571427 -1.9826399999999997 1.314137142857143 -3.8310171428571427 2.62128 -5.377988571428571 1.307142857142857 -1.5469371428571428 2.9792571428571426 -2.74368 4.865142857142857 -3.481988571428571 1.1020457142857143 -0.43141714285714283 2.345142857142857 0.11221714285714286 2.77656 1.2142285714285714Z" clip-rule="evenodd" stroke-width="3.4286"></path>
  </g>
</svg>