<svg xmlns="http://www.w3.org/2000/svg" fill="none" viewBox="0 0 48 48" id="Task-List--Streamline-Core-Remix" height="48" width="48">
  <desc>
    Task List Streamline Icon: https://streamlinehq.com
  </desc>
  <g id="Free Remix/Work Education/task-list--task-list-work">
    <path id="Union" fill="#000000" fill-rule="evenodd" d="M8.571428571428571 4.285714285714286c-0.3542742857142857 0 -0.6858514285714286 0.13841142857142857 -0.9239314285714285 0.3718971428571428 -0.23664 0.2321142857142857 -0.36178285714285713 0.5379428571428572 -0.36178285714285713 0.8478857142857142V42.4944c0 0.30994285714285713 0.12514285714285714 0.6157714285714285 0.36178285714285713 0.8478857142857142 0.23807999999999999 0.23348571428571424 0.5696571428571428 0.372 0.9239314285714285 0.372h30.857142857142854c0.3541714285714286 0 0.6857142857142857 -0.1385142857142857 0.924 -0.372 0.23657142857142857 -0.2321142857142857 0.36171428571428565 -0.5379428571428572 0.36171428571428565 -0.8478857142857142V17.03310857142857c0 -0.3453257142857143 -0.13885714285714285 -0.6761142857142857 -0.38537142857142853 -0.9179314285714286L28.642422857142854 4.653497142857143c-0.2403428571428571 -0.2357142857142857 -0.5635885714285714 -0.36778285714285713 -0.9002742857142856 -0.36778285714285713H8.571428571428571ZM4.646605714285713 1.5978822857142856C5.694514285714286 0.5701337142857142 7.107085714285715 0 8.571428571428571 0h19.17072c1.4588914285714285 0 2.8595999999999995 0.572238857142857 3.901165714285714 1.5937714285714284l11.686285714285713 11.46168c1.068342857142857 1.0477714285714284 1.6703999999999999 2.481257142857143 1.6703999999999999 3.977657142857143v25.46129142857143c0 1.473942857142857 -0.5972571428571428 2.878628571428571 -1.646742857142857 3.907885714285714 -1.0477714285714284 1.027542857142857 -2.460342857142857 1.5977142857142856 -3.9246857142857143 1.5977142857142856h-30.857142857142854c-1.464342857142857 0 -2.8769142857142853 -0.5701714285714286 -3.9248228571428574 -1.5977142857142856 -1.0493142857142856 -1.0292571428571429 -1.6466057142857142 -2.4339428571428567 -1.6466057142857142 -3.907885714285714V5.505497142857142c0 -1.4737371428571429 0.5972914285714286 -2.878481142857143 1.6466057142857142 -3.907614857142857ZM24.629451428571425 21.89814857142857c0 -1.1834742857142857 0.9594171428571429 -2.142857142857143 2.142857142857143 -2.142857142857143h7.71432c1.183542857142857 0 2.142857142857143 0.9593828571428571 2.142857142857143 2.142857142857143s-0.9593142857142857 2.142857142857143 -2.142857142857143 2.142857142857143H26.772308571428567c-1.1834399999999998 0 -2.142857142857143 -0.9593828571428571 -2.142857142857143 -2.142857142857143Zm2.142857142857143 10.36230857142857c-1.1834399999999998 0 -2.142857142857143 0.9593828571428571 -2.142857142857143 2.142857142857143 0 1.183542857142857 0.9594171428571429 2.142857142857143 2.142857142857143 2.142857142857143h7.71432c1.183542857142857 0 2.142857142857143 -0.9593142857142857 2.142857142857143 -2.142857142857143 0 -1.1834742857142857 -0.9593142857142857 -2.142857142857143 -2.142857142857143 -2.142857142857143H26.772308571428567ZM21.83077714285714 28.377599999999997c1.1479885714285714 0.8360571428571428 1.4008457142857142 2.444434285714286 0.5647885714285713 3.592422857142857L17.607634285714283 38.54434285714286c-0.4399885714285714 0.6041142857142857 -1.1210742857142857 0.9867428571428571 -1.865897142857143 1.0488 -0.744822857142857 0.06171428571428571 -1.4796685714285713 -0.20365714285714284 -2.013257142857143 -0.7268571428571428l-2.8727657142857144 -2.8175999999999997c-1.0138971428571428 -0.9942857142857142 -1.029702857142857 -2.6224114285714286 -0.035314285714285715 -3.636342857142857 0.9944228571428572 -1.0138971428571428 2.62248 -1.029702857142857 3.636377142857143 -0.03528l0.746742857142857 0.7323771428571428 3.034834285714285 -4.167085714285714c0.8360571428571428 -1.1479542857142857 2.444468571428571 -1.4008114285714284 3.592422857142857 -0.5647542857142857Zm0.5647885714285713 -9.122845714285713c0.8360571428571428 -1.1479885714285714 0.5831999999999999 -2.7563657142857143 -0.5647885714285713 -3.592422857142857 -1.1479542857142857 -0.8360571428571428 -2.7563657142857143 -0.5831999999999999 -3.592422857142857 0.5647885714285713L15.20352 20.394171428571426l-0.746742857142857 -0.7323771428571428c-1.0138971428571428 -0.9944228571428572 -2.6419542857142857 -0.9786171428571429 -3.636377142857143 0.035314285714285715 -0.9943885714285714 1.0138971428571428 -0.9785828571428571 2.6419542857142857 0.035314285714285715 3.636377142857143l2.8727657142857144 2.817497142857143c0.5335885714285714 0.5233371428571428 1.2684342857142856 0.7886057142857142 2.013257142857143 0.7267885714285713 0.744822857142857 -0.06185142857142857 1.4259085714285713 -0.44465142857142853 1.865897142857143 -1.0488l4.7879314285714285 -6.574217142857143Z" clip-rule="evenodd" stroke-width="3.4286"></path>
  </g>
</svg>