<svg xmlns="http://www.w3.org/2000/svg" fill="none" viewBox="0 0 48 48" id="Tea-Cup--Streamline-Core-Remix" height="48" width="48">
  <desc>
    Tea Cup Streamline Icon: https://streamlinehq.com
  </desc>
  <g id="Free Remix/Food Drink/tea-cup--herbal-cook-tea-tisane-cup-drink-cooking-nutrition-mug-food">
    <path id="Union" fill="#000000" fill-rule="evenodd" d="M14.08992 13.244811428571428c-0.9241371428571428 -0.739302857142857 -1.0739657142857142 -2.0877942857142857 -0.33466285714285715 -3.0119314285714287 0.3596571428571428 -0.44955428571428563 0.5060571428571429 -0.7485942857142857 0.5641714285714285 -0.9151542857142856 0.02784 -0.07978285714285714 0.03517714285714286 -0.12826285714285712 0.03737142857142857 -0.15061714285714284 0.0020571428571428568 -0.021257142857142856 0.0009257142857142857 -0.03308571428571429 -0.00047999999999999996 -0.04206857142857143 -0.01570285714285714 -0.09987428571428571 -0.08653714285714285 -0.26585142857142857 -0.6205714285714286 -0.9539657142857142l-0.0713142857142857 -0.09137142857142856c-0.41831999999999997 -0.5347885714285714 -1.1932114285714286 -1.52544 -1.3974171428571427 -2.8251771428571426 -0.24322285714285713 -1.5483085714285714 0.3452571428571428 -3.0214799999999995 1.48824 -4.450220571428571 0.7393371428571428 -0.924134057142857 2.0877942857142857 -1.0739657142857142 3.0119314285714287 -0.33465942857142855 0.9241371428571428 0.7393062857142856 1.0739657142857142 2.087790857142857 0.33466285714285715 3.0119314285714287 -0.35962285714285713 0.44952 -0.5060228571428571 0.7485599999999999 -0.5641714285714285 0.9151542857142856 -0.02784 0.07978285714285714 -0.03517714285714286 0.12826285714285712 -0.03733714285714285 0.15061714285714284 -0.0020914285714285713 0.021222857142857144 -0.0009257142857142857 0.033051428571428565 0.00047999999999999996 0.04203428571428571 0.015668571428571428 0.09990857142857142 0.08650285714285713 0.2658857142857142 0.6205714285714286 0.954l0.07128 0.09137142857142856c0.41831999999999997 0.5347885714285714 1.1932457142857142 1.5254057142857143 1.3974171428571427 2.8251771428571426 0.24325714285714284 1.5483085714285714 -0.3452571428571428 3.0214628571428572 -1.48824 4.450217142857142 -0.739302857142857 0.9241371428571428 -2.0877942857142857 1.0739657142857142 -3.0119314285714287 0.33466285714285715ZM9 20.571497142857144v10.285714285714285c0 2.6036228571428572 2.110662857142857 4.714217142857143 4.714285714285714 4.714217142857143h13.714285714285714c2.6036228571428572 0 4.714285714285714 -2.1105942857142854 4.714285714285714 -4.714217142857143v-10.285714285714285h-23.142857142857142Zm-4.285714285714286 -0.42857142857142855c0 -2.1302399999999997 1.726902857142857 -3.8571428571428568 3.8571428571428568 -3.8571428571428568H37.714285714285715c4.9704 0 9 4.029462857142857 9 9C46.71428571428571 30.25635428571428 42.68468571428571 34.285714285714285 37.714285714285715 34.285714285714285h-1.9618285714285715c-1.3484571428571428 3.269828571428571 -4.567337142857143 5.571428571428571 -8.323885714285714 5.571428571428571H13.714285714285714c-4.970571428571429 0 -9 -4.029257142857142 -9 -8.999931428571427v-10.714285714285714Zm31.71428571428571 9.857142857142856H37.714285714285715c2.6036571428571427 0 4.714285714285714 -2.110662857142857 4.714285714285714 -4.714285714285714s-2.1106285714285713 -4.714285714285714 -4.714285714285714 -4.714285714285714h-1.2857142857142856v9.428571428571429ZM0.8571428571428571 45.42857142857142c0 -1.4201142857142857 1.1512662857142855 -2.571428571428571 2.571428571428571 -2.571428571428571h37.714285714285715c1.4201142857142857 0 2.571428571428571 1.1513142857142855 2.571428571428571 2.571428571428571s-1.1513142857142855 2.571428571428571 -2.571428571428571 2.571428571428571H3.4285714285714284c-1.4201622857142857 0 -2.571428571428571 -1.1513142857142855 -2.571428571428571 -2.571428571428571ZM24.040971428571424 10.23288c-0.739302857142857 0.9241371428571428 -0.5894742857142857 2.2726285714285717 0.33466285714285715 3.0119314285714287s2.2726285714285717 0.5894742857142857 3.0119314285714287 -0.33466285714285715c1.142982857142857 -1.4287542857142856 1.7314971428571428 -2.9019085714285713 1.48824 -4.450217142857142 -0.20417142857142856 -1.2997714285714286 -0.9790971428571428 -2.290388571428571 -1.3974171428571427 -2.8251771428571426l-0.07128 -0.09137142857142856c-0.5340685714285713 -0.6881142857142857 -0.6049028571428571 -0.8540914285714285 -0.6205714285714286 -0.954 -0.0014057142857142855 -0.008982857142857141 -0.0025714285714285713 -0.02081142857142857 -0.00047999999999999996 -0.04203428571428571 0.00216 -0.022354285714285712 0.009497142857142857 -0.07083428571428571 0.03733714285714285 -0.15061714285714284 0.058148571428571424 -0.16659428571428572 0.2045485714285714 -0.46563428571428567 0.5641714285714285 -0.9151542857142856 0.739302857142857 -0.9241405714285713 0.5894742857142857 -2.2726251428571427 -0.33466285714285715 -3.0119314285714287 -0.9241371428571428 -0.7393062857142856 -2.2725942857142853 -0.5894746285714285 -3.0119314285714287 0.33465942857142855 -1.142982857142857 1.4287405714285712 -1.731462857142857 2.901912 -1.48824 4.450220571428571 0.20420571428571427 1.2997371428571427 0.9790971428571428 2.290388571428571 1.3974171428571427 2.8251771428571426l0.0713142857142857 0.09137142857142856c0.5340342857142857 0.6881142857142857 0.6048685714285714 0.8540914285714285 0.6205714285714286 0.9539657142857142 0.0014057142857142855 0.008982857142857141 0.002537142857142857 0.02081142857142857 0.00047999999999999996 0.04206857142857143 -0.002194285714285714 0.022354285714285712 -0.009531428571428571 0.07083428571428571 -0.03737142857142857 0.15061714285714284 -0.05811428571428571 0.16655999999999999 -0.2045142857142857 0.4656 -0.5641714285714285 0.9151542857142856Z" clip-rule="evenodd" stroke-width="3.4286"></path>
  </g>
</svg>