<svg xmlns="http://www.w3.org/2000/svg" fill="none" viewBox="0 0 48 48" id="Telescope--Streamline-Core-Remix" height="48" width="48">
  <desc>
    Telescope Streamline Icon: https://streamlinehq.com
  </desc>
  <g id="Free Remix/Nature Ecology/telescope--science-experiment-star-gazing-sky-night-space-universe-astronomy-astronomy">
    <path id="Union" fill="#000000" fill-rule="evenodd" d="M41.844342857142856 2.8739622857142852c-0.15325714285714284 -0.5713748571428571 -0.5355428571428571 -1.0540491428571428 -1.0566857142857142 -1.333686857142857 -0.5214857142857143 -0.27963428571428567 -1.1352 -0.33135771428571426 -1.6957714285714285 -0.14291657142857142L13.041599999999999 10.152274285714284c-1.0726285714285715 0.36047999999999997 -1.6800685714285715 1.4928 -1.3872 2.5858285714285714l0.44375999999999993 1.6561371428571428 -5.795622857142857 1.5529371428571428 -0.4436571428571428 -1.6557942857142856c-0.30630857142857143 -1.1431542857142856 -1.4813142857142856 -1.8215314285714284 -2.6244548571428568 -1.515222857142857 -1.143144 0.3062742857142857 -1.8215348571428571 1.48128 -1.5152297142857143 2.6244342857142855l3.549524571428571 13.246971428571428c0.30630857142857143 1.1431542857142856 1.4813142857142856 1.8215314285714284 2.6244342857142855 1.5152571428571429 1.1431542857142856 -0.30630857142857143 1.8215314285714284 -1.4813142857142856 1.5152571428571429 -2.6244685714285714l-0.4437257142857143 -1.6559314285714286 5.795622857142857 -1.5529371428571428 0.4435885714285714 1.6555885714285712c0.2928685714285714 1.0930285714285712 1.3851428571428572 1.7699314285714283 2.494285714285714 1.5458057142857142l5.744262857142857 -1.1607085714285714 -6.969085714285713 17.23748571428571c-0.53232 1.3169142857142857 0.10350857142857142 2.8155428571428573 1.4201142857142857 3.348 1.3166399999999998 0.5321142857142857 2.815508571428571 -0.10354285714285714 3.3477942857142855 -1.4201142857142857l6.187474285714286 -15.304422857142857 6.187474285714286 15.304422857142857c0.5322857142857143 1.3165714285714285 2.030982857142857 1.9522285714285714 3.3478971428571427 1.4201142857142857 1.3165714285714285 -0.5324571428571429 1.9522285714285714 -2.031085714285714 1.4201142857142857 -3.348L30.812914285714285 24.880834285714286l13.822971428571428 -2.79312c0.5797714285714285 -0.11715428571428571 1.0854857142857142 -0.4687885714285714 1.3967999999999998 -0.9715885714285715 0.3116571428571428 -0.5028 0.4018285714285714 -1.1120571428571429 0.24857142857142855 -1.6834285714285713L41.844342857142856 2.8739622857142852ZM18.82254857142857 22.931348571428572 16.31509714285714 13.573371428571427l21.97998857142857 -7.386925714285715 3.2561142857142853 12.152228571428571 -22.72865142857143 4.592674285714286Z" clip-rule="evenodd" stroke-width="3.4286"></path>
  </g>
</svg>