<svg xmlns="http://www.w3.org/2000/svg" fill="none" viewBox="0 0 48 48" id="Telegram--Streamline-Core-Remix" height="48" width="48">
  <desc>
    Telegram Streamline Icon: https://streamlinehq.com
  </desc>
  <g id="Free Remix/Computer Devices/telegram">
    <path id="Union" fill="#000000" fill-rule="evenodd" d="M4.282354285714286 24.00342857142857c0 -10.889794285714286 8.827919999999999 -19.717714285714287 19.717714285714287 -19.717714285714287 10.889759999999999 0 19.717645714285712 8.827919999999999 19.717645714285712 19.717714285714287 0 10.889828571428572 -8.827885714285715 19.717714285714287 -19.717645714285712 19.717714285714287 -10.889794285714286 0 -19.717714285714287 -8.827885714285715 -19.717714285714287 -19.717714285714287ZM24.00006857142857 0C10.74336 0 -0.0033482125714285713 10.746685714285714 -0.0033482125714285713 24.00342857142857c0 13.256571428571426 10.746708212571429 24.00342857142857 24.003416784 24.00342857142857 13.256845714285713 0 24.00336 -10.746857142857143 24.00336 -24.00342857142857C48.003428571428564 10.746685714285714 37.25691428571428 0 24.00006857142857 0Zm11.111588571428571 13.199142857142856c0.04662857142857142 -0.60624 -0.23142857142857143 -1.1918399999999998 -0.7306285714285714 -1.5389485714285713 -0.4992685714285714 -0.34714285714285714 -1.1450057142857142 -0.4038171428571428 -1.6971085714285712 -0.14904L9.296194285714286 22.305531428571427c-0.6713142857142856 0.30980571428571424 -1.068342857142857 1.0151314285714286 -0.9849942857142856 1.7497714285714283 0.08338285714285715 0.73464 0.6283542857142856 1.333062857142857 1.3519885714285713 1.4846057142857143l9.689417142857144 2.0290285714285714 4.423371428571428 -5.629474285714285c0.7312114285714285 -0.930582857142857 2.0783314285714285 -1.0922057142857142 3.0088799999999996 -0.36099428571428566 0.930582857142857 0.7311771428571429 1.0922057142857142 2.0782971428571426 0.36099428571428566 3.0088799999999996L22.90453714285714 29.985154285714287l7.47096 7.6667314285714285c0.47005714285714284 0.48239999999999994 1.178982857142857 0.6445714285714286 1.812137142857143 0.41519999999999996 0.6331542857142857 -0.2297142857142857 1.0732114285714285 -0.8088 1.1248799999999999 -1.4801142857142855l1.7991428571428572 -23.387828571428567Z" clip-rule="evenodd" stroke-width="3.4286"></path>
  </g>
</svg>