<svg xmlns="http://www.w3.org/2000/svg" fill="none" viewBox="0 0 48 48" id="Text-Square--Streamline-Core-Remix" height="48" width="48">
  <desc>
    Text Square Streamline Icon: https://streamlinehq.com
  </desc>
  <g id="Free Remix/Interface Essential/text-square--text-options-formatting-format-square-color-border-fill">
    <path id="Union" fill="#000000" fill-rule="evenodd" d="M1.2857142857142856 6.857142857142857C1.2857142857142856 3.780137142857143 3.780137142857143 1.2857142857142856 6.857142857142857 1.2857142857142856h34.285714285714285c3.077142857142857 0 5.571428571428571 2.494422857142857 5.571428571428571 5.571428571428571v34.285714285714285c0 3.077142857142857 -2.494285714285714 5.571428571428571 -5.571428571428571 5.571428571428571H6.857142857142857c-3.0770057142857143 0 -5.571428571428571 -2.494285714285714 -5.571428571428571 -5.571428571428571V6.857142857142857ZM6.857142857142857 5.571428571428571c-0.7100914285714285 0 -1.2857142857142856 0.5756228571428571 -1.2857142857142856 1.2857142857142856v34.285714285714285c0 0.7100571428571428 0.5756228571428571 1.2857142857142856 1.2857142857142856 1.2857142857142856h34.285714285714285c0.7100571428571428 0 1.2857142857142856 -0.5756571428571428 1.2857142857142856 -1.2857142857142856V6.857142857142857c0 -0.7100914285714285 -0.5756571428571428 -1.2857142857142856 -1.2857142857142856 -1.2857142857142856H6.857142857142857ZM28.432319999999997 30l1.6996457142857142 5.098971428571429c0.44907428571428576 1.3470857142857142 1.905325714285714 2.0753142857142852 3.2526171428571424 1.6261714285714284 1.3471885714285714 -0.4491428571428571 2.075417142857143 -1.9052571428571428 1.6262742857142856 -3.252582857142857l-2.2687885714285714 -6.806537142857142c-0.010662857142857142 -0.034319999999999996 -0.021977142857142855 -0.06829714285714285 -0.03401142857142857 -0.10196571428571427L28.695874285714286 14.527439999999999C28.022125714285714 12.506194285714285 26.130582857142855 11.142857142857142 24 11.142857142857142c-2.130582857142857 0 -4.022125714285714 1.3633371428571428 -4.695874285714285 3.384582857142857L15.295474285714285 26.553394285714283c-0.014708571428571428 0.040662857142857146 -0.028422857142857142 0.08184 -0.04114285714285714 0.12342857142857142l-2.265222857142857 6.795737142857142c-0.4491085714285714 1.3473257142857142 0.2790171428571428 2.8034399999999997 1.6263085714285712 3.252582857142857s2.803542857142857 -0.27908571428571427 3.2526171428571424 -1.6261714285714284L19.56768 30h8.86464Zm-1.7142857142857142 -5.142857142857142L24 16.703005714285712 21.28196571428571 24.857142857142854h5.436068571428572Z" clip-rule="evenodd" stroke-width="3.4286"></path>
  </g>
</svg>