<svg xmlns="http://www.w3.org/2000/svg" fill="none" viewBox="0 0 48 48" id="Text-Flow-Rows--Streamline-Core-Remix" height="48" width="48">
  <desc>
    Text Flow Rows Streamline Icon: https://streamlinehq.com
  </desc>
  <g id="Free Remix/Interface Essential/text-flow-rows">
    <path id="Union" fill="#000000" fill-rule="evenodd" d="M17.555177142857143 12.428571428571427h12.889645714285713c0.019954285714285713 0.2623885714285714 0.05808 0.5197371428571428 0.11314285714285714 0.7707085714285713L13.19928 30.55796571428571C12.813017142857142 30.473245714285714 12.411737142857142 30.428571428571427 12 30.428571428571427H6.857142857142857c-3.0770057142857143 0 -5.571428571428571 2.494422857142857 -5.571428571428571 5.571428571428571V41.14285714285714c0 3.077142857142857 2.494422857142857 5.571428571428571 5.571428571428571 5.571428571428571h5.142857142857142c2.9328 0 5.336365714285714 -2.265942857142857 5.555177142857143 -5.142857142857142H35.57142857142857v3.8571428571428568c0 0.8667428571428571 0.5221714285714285 1.6481142857142856 1.322742857142857 1.9796571428571428 0.8009142857142857 0.3318857142857143 1.7225142857142854 0.14845714285714284 2.3352 -0.4645714285714286l6.857142857142857 -6.857142857142857c0.8369142857142857 -0.8365714285714285 0.8369142857142857 -2.1936 0 -3.0301714285714283l-6.857142857142857 -6.857279999999999c-0.6126857142857143 -0.6128571428571428 -1.5342857142857143 -0.7961828571428571 -2.3352 -0.4645371428571428 -0.8005714285714286 0.33168000000000003 -1.322742857142857 1.1130514285714284 -1.322742857142857 1.97976v3.8571428571428568H17.555177142857143c-0.019954285714285713 -0.26262857142857143 -0.05811428571428571 -0.5197714285714286 -0.11317714285714284 -0.7707428571428571l17.358685714285713 -17.358685714285713c0.3860571428571429 0.08475428571428571 0.7875428571428571 0.12942857142857142 1.1993142857142856 0.12942857142857142H41.14285714285714c3.077142857142857 0 5.571428571428571 -2.494422857142857 5.571428571428571 -5.571428571428571V6.857142857142857c0 -3.0770057142857143 -2.494285714285714 -5.571428571428571 -5.571428571428571 -5.571428571428571h-5.142857142857142c-2.9328 0 -5.336365714285714 2.2660799999999997 -5.555177142857143 5.142857142857142H17.555177142857143C17.336365714285716 3.5517942857142857 14.9328 1.2857142857142856 12 1.2857142857142856H6.857142857142857C3.780137142857143 1.2857142857142856 1.2857142857142856 3.780137142857143 1.2857142857142856 6.857142857142857v5.142857142857142c0 3.0770057142857143 2.494422857142857 5.571428571428571 5.571428571428571 5.571428571428571h5.142857142857142c2.9328 0 5.336365714285714 -2.2660799999999997 5.555177142857143 -5.142857142857142Zm18.444822857142857 -6.857142857142857c-0.7100571428571428 0 -1.2857142857142856 0.5756228571428571 -1.2857142857142856 1.2857142857142856v5.142857142857142c0 0.7100914285714285 0.5756571428571428 1.2857142857142856 1.2857142857142856 1.2857142857142856H41.14285714285714c0.7100571428571428 0 1.2857142857142856 -0.5756228571428571 1.2857142857142856 -1.2857142857142856V6.857142857142857c0 -0.7100914285714285 -0.5756571428571428 -1.2857142857142856 -1.2857142857142856 -1.2857142857142856h-5.142857142857142Zm-29.142857142857142 29.142857142857142c-0.7100914285714285 0 -1.2857142857142856 0.5756571428571428 -1.2857142857142856 1.2857142857142856V41.14285714285714c0 0.7100571428571428 0.5756228571428571 1.2857142857142856 1.2857142857142856 1.2857142857142856h5.142857142857142c0.7100914285714285 0 1.2857142857142856 -0.5756571428571428 1.2857142857142856 -1.2857142857142856v-5.142857142857142c0 -0.7100571428571428 -0.5756228571428571 -1.2857142857142856 -1.2857142857142856 -1.2857142857142856H6.857142857142857ZM5.571428571428571 6.857142857142857c0 -0.7100914285714285 0.5756228571428571 -1.2857142857142856 1.2857142857142856 -1.2857142857142856h5.142857142857142c0.7100914285714285 0 1.2857142857142856 0.5756228571428571 1.2857142857142856 1.2857142857142856v5.142857142857142c0 0.7100914285714285 -0.5756228571428571 1.2857142857142856 -1.2857142857142856 1.2857142857142856H6.857142857142857c-0.7100914285714285 0 -1.2857142857142856 -0.5756228571428571 -1.2857142857142856 -1.2857142857142856V6.857142857142857Z" clip-rule="evenodd" stroke-width="3.4286"></path>
  </g>
</svg>