<svg xmlns="http://www.w3.org/2000/svg" fill="none" viewBox="0 0 48 48" id="Text-Style--Streamline-Core-Remix" height="48" width="48">
  <desc>
    Text Style Streamline Icon: https://streamlinehq.com
  </desc>
  <g id="Free Remix/Interface Essential/text-style--text-style-formatting-format">
    <path id="Union" fill="#000000" fill-rule="evenodd" d="M5.571428571428571 6.857142857142857c0 -0.7100914285714285 0.5756228571428571 -1.2857142857142856 1.2857142857142856 -1.2857142857142856h15v36.857142857142854H15.428571428571427c-1.1834742857142857 0 -2.142857142857143 0.9593142857142857 -2.142857142857143 2.142857142857143s0.9593828571428571 2.142857142857143 2.142857142857143 2.142857142857143h17.142857142857142c1.1834742857142857 0 2.142857142857143 -0.9593142857142857 2.142857142857143 -2.142857142857143s-0.9593828571428571 -2.142857142857143 -2.142857142857143 -2.142857142857143H26.142857142857142V5.571428571428571H41.14285714285714c0.7100571428571428 0 1.2857142857142856 0.5756228571428571 1.2857142857142856 1.2857142857142856v5.142857142857142c0 1.1834742857142857 0.9593142857142857 2.142857142857143 2.142857142857143 2.142857142857143s2.142857142857143 -0.9593828571428571 2.142857142857143 -2.142857142857143V6.857142857142857c0 -3.0770057142857143 -2.494285714285714 -5.571428571428571 -5.571428571428571 -5.571428571428571H6.857142857142857C3.780137142857143 1.2857142857142856 1.2857142857142856 3.780137142857143 1.2857142857142856 6.857142857142857v5.142857142857142c0 1.1834742857142857 0.9593897142857143 2.142857142857143 2.142857142857143 2.142857142857143 1.1834742857142857 0 2.142857142857143 -0.9593828571428571 2.142857142857143 -2.142857142857143V6.857142857142857Z" clip-rule="evenodd" stroke-width="3.4286"></path>
  </g>
</svg>