<svg xmlns="http://www.w3.org/2000/svg" fill="none" viewBox="0 0 48 48" id="Thermometer--Streamline-Core-Remix" height="48" width="48">
  <desc>
    Thermometer Streamline Icon: https://streamlinehq.com
  </desc>
  <g id="Free Remix/Interface Essential/thermometer--temperature-thermometer-weather-level-meter-mercury-measure">
    <path id="Union" fill="#000000" fill-rule="evenodd" d="M24 4.285714285714286c-1.6568571428571428 0 -3 1.343142857142857 -3 3v19.376057142857142c0 0.7649142857142857 -0.40775999999999996 1.4718514285714286 -1.069885714285714 1.854857142857143C17.49061714285714 29.927794285714285 15.857142857142856 32.560114285714285 15.857142857142856 35.57142857142857c0 4.497257142857143 3.6456685714285713 8.142857142857142 8.142857142857142 8.142857142857142s8.142857142857142 -3.6455999999999995 8.142857142857142 -8.142857142857142c0 -3.0113142857142856 -1.6334742857142857 -5.643634285714286 -4.072971428571429 -7.0548 -0.6621257142857143 -0.3830057142857143 -1.069885714285714 -1.089942857142857 -1.069885714285714 -1.854857142857143V7.285714285714286c0 -1.6568571428571428 -1.343142857142857 -3 -3 -3Zm-7.285714285714286 3C16.71428571428571 3.2619188571428572 19.976228571428567 0 24 0s7.285714285714286 3.261925714285714 7.285714285714286 7.285714285714286v18.21576c3.1128 2.255897142857143 5.142857142857142 5.924811428571428 5.142857142857142 10.069954285714285C36.42857142857142 42.435428571428574 30.864102857142854 48 24 48s-12.428571428571427 -5.564571428571428 -12.428571428571427 -12.428571428571427c0 -4.145142857142857 2.030125714285714 -7.814057142857143 5.142857142857142 -10.069954285714285V7.285714285714286Zm3.4285714285714284 28.285714285714285c0 -2.1302399999999997 1.726902857142857 -3.8571428571428568 3.8571428571428568 -3.8571428571428568s3.8571428571428568 1.726902857142857 3.8571428571428568 3.8571428571428568c0 2.1301714285714284 -1.726902857142857 3.8571428571428568 -3.8571428571428568 3.8571428571428568s-3.8571428571428568 -1.7269714285714286 -3.8571428571428568 -3.8571428571428568Z" clip-rule="evenodd" stroke-width="3.4286"></path>
  </g>
</svg>