<svg xmlns="http://www.w3.org/2000/svg" fill="none" viewBox="0 0 48 48" id="Threat-Browser-1--Streamline-Core-Remix" height="48" width="48">
  <desc>
    Threat Browser 1 Streamline Icon: https://streamlinehq.com
  </desc>
  <g id="Free Remix/Programming/Programming/Bugs/threat-browser-1--bug-browser-file-threat-danger-internet">
    <path id="Union" fill="#000000" fill-rule="evenodd" d="M0.0368304 5.571428571428571C0.0368304 2.4961782857142856 2.528142857142857 0 5.605268571428572 0h34.25598857142857c3.077142857142857 0 5.5683428571428575 2.496174857142857 5.5683428571428575 5.571428571428571v16.285714285714285c0 1.1834742857142857 -0.9593142857142857 2.142857142857143 -2.142857142857143 2.142857142857143s-2.142857142857143 -0.9593828571428571 -2.142857142857143 -2.142857142857143v-9.428571428571429H4.322537142857143v24c0 0.7117714285714286 0.5760685714285714 1.2857142857142856 1.2827314285714286 1.2857142857142856h9.413622857142856c1.1834742857142857 0 2.142857142857143 0.9593142857142857 2.142857142857143 2.142857142857143s-0.9593828571428571 2.142857142857143 -2.142857142857143 2.142857142857143H5.605268571428572c-3.0771257142857142 0 -5.5684381714285704 -2.496342857142857 -5.5684381714285704 -5.571428571428571v-30.857142857142854ZM21.045497142857144 42.40285714285714l10.072834285714285 -18.165085714285713c0.5610514285714285 -1.2543771428571429 1.8775542857142855 -2.1098399999999997 3.2548114285714287 -2.1098399999999997 1.3800000000000001 0 2.6986285714285714 0.8585485714285714 3.2581714285714285 2.1164571428571426l9.906857142857142 18.174239999999998c0.6041142857142857 1.116342857142857 0.607542857142857 2.5172571428571424 0.0096 3.636342857142857 -0.6065142857142857 1.1718857142857142 -1.877142857142857 1.9453714285714285 -3.197485714285714 1.9450285714285713H24.224742857142857c-1.32024 0.00034285714285714285 -2.590765714285714 -0.7731428571428571 -3.1974171428571427 -1.9450285714285713 -0.5978057142857142 -1.1190857142857142 -0.5943085714285714 -2.52 0.0096 -3.636342857142857l0.008571428571428572 -0.01577142857142857Zm13.259074285714286 -13.20390857142857c1.183542857142857 0 2.142857142857143 0.9593828571428571 2.142857142857143 2.142857142857143v4.285851428571428c0 1.1832 -0.9593142857142857 2.142857142857143 -2.142857142857143 2.142857142857143 -1.1834742857142857 0 -2.1428914285714282 -0.9596571428571428 -2.1428914285714282 -2.142857142857143V31.341805714285716c0 -1.1834742857142857 0.9594171428571429 -2.142857142857143 2.1428914285714282 -2.142857142857143Zm-0.016457142857142854 15.801394285714284c0.0312 0 0.0624 -0.0006857142857142857 0.0936 -0.0017142857142857142 1.3765714285714286 -0.04971428571428571 2.4774857142857143 -1.1814857142857143 2.4774857142857143 -2.570057142857143 0 -1.4204571428571429 -1.1513142857142855 -2.5717714285714286 -2.5717714285714286 -2.5717714285714286 -0.03126857142857142 0 -0.06246857142857143 0.0006857142857142857 -0.09349714285714285 0.0020571428571428568 -1.3766742857142857 0.049371428571428566 -2.4775542857142856 1.181142857142857 -2.4775542857142856 2.570057142857143 0 1.4201142857142857 1.151417142857143 2.571428571428571 2.5717371428571427 2.571428571428571Z" clip-rule="evenodd" stroke-width="3.4286"></path>
  </g>
</svg>