<svg xmlns="http://www.w3.org/2000/svg" fill="none" viewBox="0 0 48 48" id="Threat-Document--Streamline-Core-Remix" height="48" width="48">
  <desc>
    Threat Document Streamline Icon: https://streamlinehq.com
  </desc>
  <g id="Free Remix/Programming/Programming/Bugs/threat-document--bug-document-file-threat-danger">
    <path id="Union" fill="#000000" fill-rule="evenodd" d="M4.662274285714286 4.662274285714286c0.24113142857142858 -0.24109714285714282 0.5681485714285713 -0.37655999999999995 0.9091542857142857 -0.37655999999999995h21.39812571428571L37.714285714285715 15.030445714285715V17.57142857142857c0 1.1834742857142857 0.9593142857142857 2.142857142857143 2.142857142857143 2.142857142857143s2.142857142857143 -0.9593828571428571 2.142857142857143 -2.142857142857143v-3.4285714285714284c0 -0.5683199999999999 -0.22559999999999997 -1.11336 -0.6277714285714285 -1.515222857142857L29.372365714285714 0.6276274285714285C28.970502857142858 0.2257649142857143 28.425462857142858 0 27.857142857142854 0h-22.285714285714285C4.093782857142857 0 2.676678857142857 0.5869885714285714 1.631832 1.631832 0.5869885714285714 2.676678857142857 0 4.093782857142857 0 5.571428571428571v36.857142857142854c0 1.4777142857142855 0.5869885714285714 2.894742857142857 1.631832 3.9394285714285715 1.044846857142857 1.0450285714285714 2.461950857142857 1.632 3.939596571428571 1.632h9.428571428571429c1.1834742857142857 0 2.142857142857143 -0.9593142857142857 2.142857142857143 -2.142857142857143s-0.9593828571428571 -2.142857142857143 -2.142857142857143 -2.142857142857143h-9.428571428571429c-0.3410057142857143 0 -0.6680228571428571 -0.13542857142857143 -0.9091542857142857 -0.3764571428571428 -0.24109714285714282 -0.24137142857142857 -0.37655999999999995 -0.5681142857142857 -0.37655999999999995 -0.9092571428571428V5.571428571428571c0 -0.3410057142857143 0.13546285714285713 -0.6680228571428571 0.37655999999999995 -0.9091542857142857Zm16.3824 37.740582857142854 10.072834285714285 -18.165085714285713c0.5610514285714285 -1.2543771428571429 1.8775542857142855 -2.1098399999999997 3.2549485714285713 -2.1098399999999997 1.3800000000000001 0 2.6982857142857144 0.8585485714285714 3.2578285714285715 2.1164571428571426l9.9072 18.174239999999998c0.6037714285714285 1.116342857142857 0.6072 2.5172571428571424 0.0096 3.636342857142857 -0.6068571428571428 1.1718857142857142 -1.877142857142857 1.9453714285714285 -3.197485714285714 1.9450285714285713h-20.125714285714285c-1.3202057142857142 0.00034285714285714285 -2.5907314285714285 -0.7731428571428571 -3.1974171428571427 -1.9450285714285713 -0.5977714285714285 -1.1190857142857142 -0.5942742857142858 -2.52 0.009634285714285713 -3.636342857142857l0.008571428571428572 -0.01577142857142857Zm13.258868571428572 -13.20390857142857c1.183542857142857 0 2.142857142857143 0.9593828571428571 2.142857142857143 2.142857142857143v4.285851428571428c0 1.1832 -0.9593142857142857 2.142857142857143 -2.142857142857143 2.142857142857143 -1.183302857142857 0 -2.1426857142857143 -0.9596571428571428 -2.1426857142857143 -2.142857142857143V31.341805714285716c0 -1.1834742857142857 0.9593828571428571 -2.142857142857143 2.1426857142857143 -2.142857142857143Zm-0.016114285714285713 15.801394285714284c0.0312 0 0.0624 -0.0006857142857142857 0.09325714285714284 -0.0017142857142857142 1.3769142857142858 -0.04971428571428571 2.4778285714285713 -1.1814857142857143 2.4778285714285713 -2.570057142857143 0 -1.4204571428571429 -1.1516571428571427 -2.5717714285714286 -2.5717714285714286 -2.5717714285714286 -0.031439999999999996 0 -0.06260571428571428 0.0006857142857142857 -0.09363428571428571 0.0020571428571428568 -1.3767085714285714 0.049371428571428566 -2.4775542857142856 1.181142857142857 -2.4775542857142856 2.570057142857143 0 1.4201142857142857 1.151382857142857 2.571428571428571 2.5718742857142853 2.571428571428571Z" clip-rule="evenodd" stroke-width="3.4286"></path>
  </g>
</svg>