<svg xmlns="http://www.w3.org/2000/svg" fill="none" viewBox="0 0 48 48" id="Ticket-1--Streamline-Core-Remix" height="48" width="48">
  <desc>
    Ticket 1 Streamline Icon: https://streamlinehq.com
  </desc>
  <g id="Free Remix/Culture/ticket-1--hobby-ticket-event-entertainment-stub-theater-entertainment-culture">
    <path id="Subtract (Stroke)" fill="#000000" fill-rule="evenodd" d="M27.758571428571425 4.2863999999999995c-0.16546285714285713 -0.007988571428571428 -0.2526171428571428 0.04522285714285714 -0.2976685714285714 0.09027428571428571l-23.084228571428568 23.084228571428568c-0.04505142857142857 0.04505142857142857 -0.09826285714285714 0.13220571428571426 -0.09027428571428571 0.2976685714285714 0.008262857142857141 0.17005714285714285 0.08578285714285715 0.3895885714285714 0.27980571428571427 0.5836114285714286l2.775942857142857 2.775942857142857c2.558502857142857 -0.6791999999999999 5.416217142857143 0.12366857142857142 7.416068571428571 2.12352 1.9998857142857143 1.9999542857142854 2.8027542857142858 4.8576685714285714 2.12352 7.416068571428571l2.775942857142857 2.7761142857142853c0.19405714285714284 0.1937142857142857 0.4135542857142857 0.27154285714285714 0.5836114285714286 0.27977142857142856 0.16549714285714284 0.007885714285714286 0.2526171428571428 -0.04525714285714286 0.29770285714285716 -0.09051428571428571l23.084091428571426 -23.084091428571426c0.04525714285714286 -0.045085714285714285 0.09839999999999999 -0.13220571428571426 0.09051428571428571 -0.29770285714285716 -0.008228571428571427 -0.17005714285714285 -0.08605714285714286 -0.3895542857142857 -0.27977142857142856 -0.5836114285714286l-2.7932571428571427 -2.7930514285714287c-2.546742857142857 0.6574628571428571 -5.381485714285715 -0.1471542857142857 -7.369817142857142 -2.135485714285714 -1.9883314285714282 -1.9882971428571428 -2.792948571428571 -4.823177142857142 -2.135485714285714 -7.369851428571428l-2.793085714285714 -2.793085714285714c-0.19402285714285714 -0.19402285714285714 -0.4135542857142857 -0.27154285714285714 -0.5836114285714286 -0.27980571428571427ZM24.430422857142855 1.3462251428571428c1.9996457142857142 -1.9996251428571425 5.114468571428571 -1.6382338285714286 6.94224 0.189528L35.14525714285714 5.308285714285714c0.6696 0.6698057142857142 0.8204571428571429 1.6999199999999999 0.3702857142857143 2.53344 -0.5629714285714286 1.0425942857142858 -0.4172571428571428 2.6540914285714283 0.7854857142857142 3.856971428571428 1.203085714285714 1.20288 2.8145142857142855 1.3487314285714285 3.8571428571428568 0.7857257142857142 0.8334857142857143 -0.45010285714285714 1.8637714285714284 -0.2995542857142857 2.5333714285714284 0.37025142857142856l3.7724571428571427 3.77256c1.8277714285714286 1.8277714285714286 2.189142857142857 4.942594285714285 0.1896 6.942205714285714L23.569439999999997 46.6536c-1.9996114285714284 1.9995428571428573 -5.114434285714286 1.6381714285714284 -6.942205714285714 -0.1896l-3.7639885714285715 -3.7638857142857143c-0.6750171428571429 -0.6750857142857142 -0.8221371428571428 -1.7149714285714284 -0.3607542857142857 -2.5508571428571427 0.5754514285714285 -1.0422857142857143 0.4364571428571428 -2.6660571428571425 -0.77472 -3.8770285714285713 -1.211177142857143 -1.2113142857142856 -2.834742857142857 -1.3501714285714284 -3.8771314285714285 -0.7748571428571428 -0.8357142857142856 0.4614857142857143 -1.8758742857142856 0.3144 -2.550891428571428 -0.3606857142857143L1.5357565714285715 31.372662857142853c-1.8277642285714286 -1.8277714285714286 -2.1891565714285712 -4.942594285714285 -0.18953142857142857 -6.94224L24.430422857142855 1.3462251428571428Z" clip-rule="evenodd" stroke-width="3.4286"></path>
  </g>
</svg>