<svg xmlns="http://www.w3.org/2000/svg" fill="none" viewBox="0 0 48 48" id="Ticket-2--Streamline-Core-Remix" height="48" width="48">
  <desc>
    Ticket 2 Streamline Icon: https://streamlinehq.com
  </desc>
  <g id="Free Remix/Culture/ticket-2--hobby-ticket-event-entertainment-stub-theater-entertainment-culture">
    <path id="Union" fill="#000000" fill-rule="evenodd" d="M4.285714285714286 9.172422857142857c0 -1.2422742857142857 0.8687657142857143 -1.8867085714285712 1.5142971428571428 -1.8867085714285712H28.23257142857143v4.339268571428571c0 1.6568571428571428 1.343142857142857 3 3 3s3 -1.343142857142857 3 -3V7.285714285714286h7.967314285714285c0.6456 0 1.5143999999999997 0.6444342857142856 1.5143999999999997 1.8867085714285712v5.980251428571428c-3.112457142857143 1.620102857142857 -5.142857142857142 5.044251428571429 -5.142857142857142 8.847325714285715s2.0303999999999998 7.227222857142857 5.142857142857142 8.847325714285715v5.980217142857143c0 1.2421714285714285 -0.8688 1.886742857142857 -1.5143999999999997 1.886742857142857H34.232571428571426v-4.3392c0 -1.6570285714285713 -1.343142857142857 -3.0000685714285713 -3 -3.0000685714285713s-3 1.34304 -3 3.0000685714285713v4.3392H5.800011428571429c-0.6455314285714285 0 -1.5142971428571428 -0.6445714285714286 -1.5142971428571428 -1.886742857142857V32.87694857142857C7.430571428571429 31.269291428571428 9.485725714285714 27.825634285714283 9.485725714285714 24c0 -3.8256342857142855 -2.0551542857142855 -7.269291428571429 -5.200011428571428 -8.87694857142857v-5.950628571428571ZM31.23257142857143 45H5.800011428571429C2.4059417142857145 45 0 42.036342857142856 0 38.82754285714285V31.431188571428567c0 -0.9546171428571428 0.6314742857142858 -1.794102857142857 1.5486582857142857 -2.058822857142857C3.531428571428571 28.800137142857142 5.200011428571428 26.71296 5.200011428571428 24S3.531428571428571 19.199862857142858 1.5486582857142857 18.627634285714286C0.6314742857142858 18.362914285714286 0 17.52342857142857 0 16.568811428571426V9.172422857142857C0 5.96376 2.4059382857142855 3 5.800011428571429 3H42.199885714285706c3.394285714285714 0 5.800114285714285 2.9637599999999997 5.800114285714285 6.172422857142856v7.413154285714286c0 0.9472457142857144 -0.6219428571428571 1.7821028571428572 -1.5294857142857141 2.0532342857142853C44.504571428571424 19.226022857142855 42.857142857142854 21.305142857142858 42.857142857142854 24c0 2.694857142857143 1.6474285714285712 4.7739771428571425 3.6133714285714285 5.361188571428571 0.9075428571428571 0.2711314285714285 1.5294857142857141 1.1059885714285713 1.5294857142857141 2.0532342857142853v7.41312c0 3.2087999999999997 -2.405828571428571 6.172457142857143 -5.800114285714285 6.172457142857143H31.23257142857143Zm3 -24.241062857142857c0 -1.6568571428571428 -1.343142857142857 -3 -3 -3s-3 1.343142857142857 -3 3v6.482125714285714c0 1.6568571428571428 1.343142857142857 3 3 3s3 -1.343142857142857 3 -3V20.758937142857143Z" clip-rule="evenodd" stroke-width="3.4286"></path>
  </g>
</svg>