<svg xmlns="http://www.w3.org/2000/svg" fill="none" viewBox="0 0 48 48" id="Tidal-Wave--Streamline-Core-Remix" height="48" width="48">
  <desc>
    Tidal Wave Streamline Icon: https://streamlinehq.com
  </desc>
  <g id="Free Remix/Nature Ecology/tidal-wave--nature-ocean-wave">
    <path id="Union" fill="#000000" fill-rule="evenodd" d="M14.680285714285713 9.101554285714284c-0.78936 1.2756342857142857 -1.3734171428571427 2.721462857142857 -1.388297142857143 4.117474285714286 -0.004457142857142857 0.15658285714285713 0.008365714285714285 0.31505142857142854 0.03953142857142857 0.47279999999999994 0.11297142857142857 0.5782285714285714 0.45840000000000003 1.0731085714285713 0.9349371428571428 1.3835314285714284 0.23437714285714287 0.1526742857142857 0.5004685714285714 0.26074285714285717 0.7862057142857143 0.31213714285714284 0.2689714285714286 0.04899428571428571 0.5496342857142857 0.04693714285714286 0.8273485714285713 -0.012445714285714286 0.13481142857142855 -0.02849142857142857 0.26492571428571426 -0.06966857142857143 0.3890742857142857 -0.1221942857142857 3.839451428571428 -1.5236571428571428 6.316011428571429 -1.0536685714285714 7.7713028571428575 -0.014879999999999999 1.508502857142857 1.076742857142857 2.528708571428571 3.192411428571428 2.528708571428571 6.176399999999999 0 2.158045714285714 -0.8415085714285714 3.798034285714286 -2.231211428571428 4.938788571428571 -1.431085714285714 1.1747314285714285 -3.592285714285714 1.9326514285714285 -6.337851428571429 1.9326514285714285 -2.1302399999999997 0 -3.8571428571428568 -1.726902857142857 -3.8571428571428568 -3.8571428571428568 0 -1.1834742857142857 -0.9593828571428571 -2.142857142857143 -2.142857142857143 -2.142857142857143 -1.1834399999999998 0 -2.142857142857143 0.9593828571428571 -2.142857142857143 2.142857142857143 0 2.1302399999999997 -1.726902857142857 3.8571428571428568 -3.8571428571428568 3.8571428571428568 -0.945942857142857 0 -1.80744 -0.33781714285714287 -2.4787542857142855 -0.901782857142857 -0.9061474285714285 -0.7612457142857143 -2.257837714285714 -0.6437828571428571 -3.019086857142857 0.2623542857142857 -0.7612515428571428 0.9061371428571429 -0.6437945142857143 2.2578171428571427 0.26234742857142856 3.0190971428571425 1.4145805714285713 1.1883771428571428 3.2440422857142854 1.9060457142857143 5.235493714285714 1.9060457142857143 2.3744914285714285 0 4.511588571428571 -1.0163314285714287 6.000034285714285 -2.6377028571428567 1.4884114285714285 1.6213714285714285 3.625508571428571 2.6377028571428567 5.999965714285714 2.6377028571428567 3.4984114285714285 0 6.693154285714285 -0.9653142857142858 9.057051428571429 -2.905748571428571 2.405245714285714 -1.9744114285714285 3.797725714285714 -4.8415542857142855 3.797725714285714 -8.251405714285713 0 -3.868388571428571 -1.3357371428571427 -7.53126857142857 -4.32456 -9.664662857142856 -1.9935085714285712 -1.4229257142857141 -4.46664 -1.9859657142857141 -7.261028571428571 -1.67352 0.45126857142857135 -0.5269714285714285 0.9871885714285714 -1.0605942857142856 1.6029942857142856 -1.573782857142857C23.12509714285714 6.624925714285713 26.295497142857144 5.142857142857142 29.99646857142857 5.142857142857142c5.309588571428571 0 8.738502857142857 2.2462285714285715 10.876217142857142 4.478537142857143 1.0827428571428572 1.1305714285714286 1.8373714285714287 2.2640571428571428 2.3184 3.110057142857143 0.2393142857142857 0.42130285714285715 0.408 0.766182857142857 0.5132571428571429 0.9964457142857143 0.052457142857142855 0.11495999999999998 0.08914285714285713 0.20081142857142856 0.1104 0.2526857142857143l0.020914285714285715 0.05159999999999999 0.0017142857142857142 0.004388571428571428c0.4172571428571428 1.1034171428571429 1.6484571428571428 1.6626171428571428 2.7545142857142855 1.2492342857142857 1.1088 -0.4143085714285714 1.6714285714285713 -1.6488685714285714 1.2572571428571429 -2.7574285714285716l-2.0074285714285716 0.7502057142857143c2.0074285714285716 -0.7502057142857143 2.006742857142857 -0.7512685714285714 2.0064 -0.7523657142857142l-0.0006857142857142857 -0.0023657142857142857 -0.0020571428571428568 -0.0054514285714285715 -0.005485714285714286 -0.013748571428571426 -0.014742857142857143 -0.03864c-0.012342857142857142 -0.03065142857142857 -0.028457142857142854 -0.07097142857142856 -0.048685714285714284 -0.12030857142857143 -0.0408 -0.09867428571428571 -0.09839999999999999 -0.23365714285714284 -0.1745142857142857 -0.39973714285714285 -0.15154285714285715 -0.3318514285714286 -0.37679999999999997 -0.7900114285714286 -0.6850285714285714 -1.3323085714285714 -0.614742857142857 -1.0812342857142856 -1.5706285714285713 -2.5173942857142855 -2.9489142857142854 -3.9564685714285712C41.18434285714286 3.750205714285714 36.69051428571428 0.8571428571428571 29.99646857142857 0.8571428571428571c-4.8668571428571425 0 -8.98038857142857 1.9465097142857142 -11.867999999999999 4.352948571428571 -1.4442514285714285 1.2035999999999998 -2.619702857142857 2.5526742857142857 -3.4481828571428568 3.8914628571428573ZM14.142891428571426 36.857142857142854c0 -1.183542857142857 -0.9593828571428571 -2.142857142857143 -2.142857142857143 -2.142857142857143 -1.1834399999999998 0 -2.142857142857143 0.9593142857142857 -2.142857142857143 2.142857142857143 0 2.1301714285714284 -1.726902857142857 3.8571428571428568 -3.8571428571428568 3.8571428571428568 -0.945942857142857 0 -1.80744 -0.3377142857142857 -2.4787542857142855 -0.9017142857142857 -0.6378137142857142 -0.5358857142857142 -1.5283474285714285 -0.6534857142857142 -2.283414857142857 -0.30171428571428566 -0.755064 0.35177142857142857 -1.2378159322285713 1.1094857142857142 -1.2378159322285713 1.9422857142857142v4.404c0 1.183542857142857 0.9593885036571428 2.142857142857143 2.142855932228571 2.142857142857143H45.857142857142854c1.183542857142857 0 2.142857142857143 -0.9593142857142857 2.142857142857143 -2.142857142857143v-4.404c0 -0.8328 -0.48274285714285714 -1.5905142857142855 -1.2377142857142855 -1.9422857142857142 -0.7549714285714285 -0.35177142857142857 -1.6457142857142855 -0.23417142857142856 -2.2834285714285714 0.30171428571428566 -0.6713142857142856 0.564 -1.5329142857142857 0.9017142857142857 -2.4788571428571426 0.9017142857142857 -2.1301714285714284 0 -3.8571428571428568 -1.7269714285714286 -3.8571428571428568 -3.8571428571428568 0 -1.183542857142857 -0.9593142857142857 -2.142857142857143 -2.142857142857143 -2.142857142857143s-2.1428228571428574 0.9593142857142857 -2.1428228571428574 2.142857142857143c0 2.1301714285714284 -1.7268685714285712 3.8571428571428568 -3.8571428571428568 3.8571428571428568 -2.1302399999999997 0 -3.8571428571428568 -1.7269714285714286 -3.8571428571428568 -3.8571428571428568 0 -1.183542857142857 -0.9593828571428571 -2.142857142857143 -2.142857142857143 -2.142857142857143 -1.1834399999999998 0 -2.142857142857143 0.9593142857142857 -2.142857142857143 2.142857142857143 0 2.1301714285714284 -1.726902857142857 3.8571428571428568 -3.8571428571428568 3.8571428571428568s-3.8571428571428568 -1.7269714285714286 -3.8571428571428568 -3.8571428571428568Z" clip-rule="evenodd" stroke-width="3.4286"></path>
  </g>
</svg>