<svg xmlns="http://www.w3.org/2000/svg" fill="none" viewBox="0 0 48 48" id="Toast--Streamline-Core-Remix" height="48" width="48">
  <desc>
    Toast Streamline Icon: https://streamlinehq.com
  </desc>
  <g id="Free Remix/Food Drink/toast--bread-toast-breakfast">
    <path id="Union" fill="#000000" fill-rule="evenodd" d="M4.4495314285714285 5.022411428571428C6.273805714285714 3.707554285714285 8.465554285714285 3 10.714285714285714 3h26.57142857142857c1.4070857142857143 0 2.8001142857142853 0.2771348571428571 4.100228571428571 0.8155885714285714 1.2997714285714286 0.5384228571428572 2.480914285714286 1.3276457142857143 3.475885714285714 2.322548571428571 0.9949714285714286 0.9949028571428571 1.7842285714285713 2.1760457142857144 2.3225142857142855 3.4759542857142853 0.5382857142857143 1.2990514285714285 0.8153142857142857 2.691325714285714 0.8156571428571429 4.097382857142857 0.0030857142857142854 1.664742857142857 -0.3829714285714285 3.3072 -1.127657142857143 4.796194285714285 -0.5770285714285714 1.1546742857142858 -1.3577142857142857 2.1922971428571425 -2.3009142857142857 3.064662857142857V39.42857142857142c0 1.4777142857142855 -0.5869714285714285 2.894742857142857 -1.632 3.9394285714285715 -1.0446857142857142 1.0450285714285714 -2.4617142857142853 1.632 -3.9394285714285715 1.632h-30c-1.477645714285714 0 -2.894742857142857 -0.5869714285714285 -3.9395999999999995 -1.632C4.015542857142857 42.32331428571428 3.4285714285714284 40.90628571428571 3.4285714285714284 39.42857142857142V21.570137142857142C2.0631977142857143 20.303862857142857 1.0464205714285713 18.698639999999997 0.4873542857142857 16.908925714285715c-0.6705010285714286 -2.146457142857143 -0.6486466285714286 -4.449462857142857 0.06246857142857143 -6.582788571428571 0.7111131428571429 -2.1333599999999997 2.075437714285714 -3.9888685714285708 3.8997085714285715 -5.303725714285714ZM15.857142857142856 40.714285714285715h13.714285714285714c0.3410057142857143 0 0.6680228571428571 -0.13542857142857143 0.9091199999999999 -0.3764571428571428C30.72168 40.09645714285714 30.857142857142854 39.76971428571429 30.857142857142854 39.42857142857142V20.57142857142857c0 -0.6760114285714286 0.3189942857142857 -1.3123542857142856 0.8606057142857143 -1.7168571428571429 0.7987885714285714 -0.5966057142857143 1.4470285714285713 -1.3717714285714286 1.8929142857142858 -2.2635085714285714 0.4458857142857143 -0.8917714285714285 0.6771085714285714 -1.875462857142857 0.6750514285714285 -2.872457142857143L34.285714285714285 13.714285714285714c0 -0.8442171428571428 -0.1662857142857143 -1.6801714285714284 -0.48935999999999996 -2.460102857142857 -0.32304 -0.7799657142857143 -0.7965599999999999 -1.4886514285714285 -1.393542857142857 -2.0856 -0.5969142857142857 -0.5969485714285714 -1.3056 -1.0704685714285713 -2.085565714285714 -1.3935085714285715 -0.7799314285714285 -0.3230742857142857 -1.6158857142857141 -0.48935999999999996 -2.460102857142857 -0.48935999999999996h-17.142857142857142c-1.3492457142857142 0 -2.6642742857142854 0.4245257142857143 -3.758845714285714 1.21344 -1.0945714285714285 0.7889142857142857 -1.9131771428571427 1.90224 -2.3398285714285714 3.1822285714285714 -0.4266857142857143 1.2800228571428571 -0.4397828571428571 2.6618057142857143 -0.03747428571428572 3.94968 0.4022742857142857 1.2878742857142857 1.199622857142857 2.416525714285714 2.2790057142857143 3.2260799999999996 0.5395885714285714 0.40467428571428565 0.8571428571428571 1.0398171428571428 0.8571428571428571 1.7142857142857142v18.857142857142858c0 0.34114285714285714 0.13546285714285713 0.6678857142857143 0.37655999999999995 0.9092571428571428 0.24113142857142858 0.24102857142857143 0.5681485714285713 0.3764571428571428 0.9091542857142857 0.3764571428571428h6.857142857142857ZM45.857142857142854 13.714285714285714 48 13.709965714285714l0 0.0015085714285714286V13.714285714285714h-2.142857142857143Z" clip-rule="evenodd" stroke-width="3.4286"></path>
  </g>
</svg>