<svg xmlns="http://www.w3.org/2000/svg" fill="none" viewBox="0 0 48 48" id="Toilet-Man--Streamline-Core-Remix" height="48" width="48">
  <desc>
    Toilet Man Streamline Icon: https://streamlinehq.com
  </desc>
  <g id="Free Remix/Map Travel/toilet-man--travel-wayfinder-toilet-man">
    <path id="Union" fill="#000000" fill-rule="evenodd" d="M24 4.285714285714286c-2.6036228571428572 0 -4.714285714285714 2.110662857142857 -4.714285714285714 4.714285714285714S21.396377142857144 13.714285714285714 24 13.714285714285714s4.714285714285714 -2.110662857142857 4.714285714285714 -4.714285714285714S26.603622857142856 4.285714285714286 24 4.285714285714286Zm9 4.714285714285714c0 2.4564 -0.9841028571428572 4.682982857142856 -2.57952 6.306925714285714C34.7592 17.609862857142858 37.714285714285715 22.174114285714285 37.714285714285715 27.428571428571427v4.714285714285714c0 1.1834742857142857 -0.9593142857142857 2.142857142857143 -2.142857142857143 2.142857142857143H31.89168l-1.4796685714285713 11.837142857142856C30.27798857142857 47.19531428571428 29.366400000000002 48 28.285714285714285 48h-8.571428571428571c-1.0806857142857142 0 -1.9922742857142857 -0.8046857142857142 -2.1262971428571427 -1.877142857142857L16.10832 34.285714285714285H12.428571428571427C11.245097142857142 34.285714285714285 10.285714285714285 33.32633142857142 10.285714285714285 32.14285714285714V27.428571428571427c0 -5.2544571428571425 2.954982857142857 -9.818708571428571 7.293805714285714 -12.121645714285714C15.984102857142855 13.682982857142857 15 11.456399999999999 15 9 15 4.0294285714285705 19.02942857142857 0 24 0s9 4.0294285714285705 9 9Z" clip-rule="evenodd" stroke-width="3.4286"></path>
  </g>
</svg>