<svg xmlns="http://www.w3.org/2000/svg" fill="none" viewBox="0 0 48 48" id="Toilet-Man-Woman-1--Streamline-Core-Remix" height="48" width="48">
  <desc>
    Toilet Man Woman 1 Streamline Icon: https://streamlinehq.com
  </desc>
  <g id="Free Remix/Map Travel/toilet-man-woman-1--travel-wayfinder-toilet-man-women">
    <path id="Union" fill="#000000" fill-rule="evenodd" d="M10.285714285714285 7.7142857142857135c-1.6568571428571428 0 -3 1.343142857142857 -3 3S8.628857142857143 13.714285714285714 10.285714285714285 13.714285714285714s3 -1.343142857142857 3 -3S11.942571428571428 7.7142857142857135 10.285714285714285 7.7142857142857135Zm7.285714285714286 3c0 1.7715085714285712 -0.6322628571428571 3.3953485714285714 -1.6833942857142856 4.65816C18.70728 17.206902857142854 20.57142857142857 20.385737142857142 20.57142857142857 24v6.428571428571428c0 1.1834742857142857 -0.9593828571428571 2.142857142857143 -2.142857142857143 2.142857142857143h-1.9245257142857144l-1.0868571428571427 10.506171428571427c-0.11297142857142857 1.092342857142857 -1.0333714285714286 1.9223999999999999 -2.1314742857142854 1.9223999999999999h-6c-1.098102857142857 0 -2.018502857142857 -0.8300571428571428 -2.1314742857142854 -1.9223999999999999L4.067382857142857 32.57142857142857H2.142857142857143C0.9593897142857143 32.57142857142857 0 31.61204571428571 0 30.428571428571427V24c0 -3.6142628571428568 1.8641417142857142 -6.793131428571428 4.683394285714286 -8.627554285714286C3.632262857142857 14.109634285714286 3 12.485794285714285 3 10.714285714285714 3 6.690479999999999 6.261908571428571 3.4285714285714284 10.285714285714285 3.4285714285714284c4.023771428571428 0 7.285714285714286 3.261908571428571 7.285714285714286 7.285714285714286ZM36 13.714285714285714c-1.6566857142857143 0 -3 -1.343142857142857 -3 -3s1.3433142857142857 -3 3 -3 3 1.343142857142857 3 3S37.656685714285715 13.714285714285714 36 13.714285714285714ZM27.954514285714282 19.82190857142857c0.46721142857142856 -1.6740685714285712 1.4249485714285712 -3.1087885714285712 2.691565714285714 -4.166194285714286C29.44693714285714 14.357108571428572 28.71428571428571 12.621257142857143 28.71428571428571 10.714285714285714 28.71428571428571 6.690479999999999 31.976228571428567 3.4285714285714284 36 3.4285714285714284s7.285714285714286 3.261908571428571 7.285714285714286 7.285714285714286c0 1.9069714285714285 -0.7326857142857143 3.642822857142857 -1.9316571428571427 4.941428571428571 1.2665142857142857 1.0574057142857143 2.2241142857142857 2.4921257142857143 2.6914285714285713 4.166228571428571L47.921142857142854 33.709714285714284c0.18 0.6456 0.048 1.3378285714285714 -0.35725714285714283 1.871657142857143 -0.4052571428571428 0.5338285714285714 -1.0368 0.8472 -1.7067428571428571 0.8472h-4.154742857142857l-1.0117714285714283 6.7463999999999995c-0.15737142857142858 1.0491428571428572 -1.0583999999999998 1.8250285714285712 -2.1191999999999998 1.8250285714285712h-5.142857142857142c-1.0606971428571428 0 -1.9617942857142856 -0.7758857142857143 -2.1191314285714284 -1.8250285714285712l-1.0119771428571427 -6.7463999999999995H26.142857142857142c-0.67008 0 -1.3015885714285715 -0.3133714285714285 -1.7067771428571428 -0.8472 -0.4051542857142857 -0.5338285714285714 -0.5373257142857143 -1.2260571428571427 -0.3572228571428571 -1.871657142857143l3.875657142857143 -13.887805714285713ZM36 18c-1.8252 0 -3.4268914285714285 1.2159085714285713 -3.9174857142857142 2.9739085714285713L28.9656 32.14285714285714h3.1772571428571426c1.0606971428571428 0 1.9617942857142856 0.7760228571428571 2.1191314285714284 1.8249942857142858l1.0118399999999999 6.746434285714286h1.452342857142857l1.0117714285714283 -6.746434285714286c0.15737142857142858 -1.0489714285714284 1.0583999999999998 -1.8249942857142858 2.1191999999999998 -1.8249942857142858h3.1772571428571426l-3.1169142857142855 -11.16894857142857C39.42685714285714 19.21590857142857 37.82502857142857 18 36 18Z" clip-rule="evenodd" stroke-width="3.4286"></path>
  </g>
</svg>