<svg xmlns="http://www.w3.org/2000/svg" fill="none" viewBox="0 0 48 48" id="Toilet-Women--Streamline-Core-Remix" height="48" width="48">
  <desc>
    Toilet Women Streamline Icon: https://streamlinehq.com
  </desc>
  <g id="Free Remix/Map Travel/toilet-women--travel-wayfinder-toilet-women">
    <path id="Union" fill="#000000" fill-rule="evenodd" d="M19.285885714285712 9c0 -2.6036228571428572 2.110662857142857 -4.714285714285714 4.714285714285714 -4.714285714285714s4.714285714285714 2.110662857142857 4.714285714285714 4.714285714285714S26.603794285714283 13.714285714285714 24.000171428571427 13.714285714285714s-4.714285714285714 -2.110662857142857 -4.714285714285714 -4.714285714285714ZM24.000171428571427 0c-4.970571428571429 0 -9 4.0294285714285705 -9 9 0 2.571702857142857 1.0786285714285713 4.891474285714286 2.8081714285714283 6.531599999999999 -2.304822857142857 1.5501257142857143 -3.9031542857142854 3.917382857142857 -4.977737142857142 6.404228571428571 -1.8340799999999997 4.244502857142857 -2.3806628571428567 9.273462857142857 -2.510262857142857 12.701657142857142 -0.08389714285714285 2.2193142857142854 1.7203885714285714 3.9339428571428567 3.8226857142857145 3.9339428571428567h2.4973371428571425l1.3943657142857142 7.669028571428571c0.18527999999999997 1.0189714285714286 1.0726971428571428 1.759542857142857 2.108297142857143 1.759542857142857h7.7142857142857135c1.0356342857142857 0 1.9230514285714284 -0.7405714285714285 2.108297142857143 -1.759542857142857l1.3943657142857142 -7.669028571428571h2.4973371428571425c2.1022285714285713 0 3.9066857142857145 -1.7146285714285714 3.8226857142857145 -3.9339428571428567 -0.1296 -3.4281942857142855 -0.6761142857142857 -8.457188571428572 -2.5103999999999997 -12.701657142857142 -1.0744457142857142 -2.4868457142857143 -2.672777142857143 -4.854102857142857 -4.9776 -6.404228571428571 1.7295428571428568 -1.6401257142857142 2.8081714285714283 -3.959897142857143 2.8081714285714283 -6.531599999999999C33.00017142857143 4.0294285714285705 28.970742857142856 0 24.000171428571427 0Z" clip-rule="evenodd" stroke-width="3.4286"></path>
  </g>
</svg>