<svg xmlns="http://www.w3.org/2000/svg" fill="none" viewBox="0 0 48 48" id="Tooth--Streamline-Core-Remix" height="48" width="48">
  <desc>
    Tooth Streamline Icon: https://streamlinehq.com
  </desc>
  <g id="Free Remix/Health/tooth--health-medical-tooth">
    <path id="Union" fill="#000000" fill-rule="evenodd" d="M22.121245714285713 4.108251428571428C18.50173714285714 1.875678857142857 13.86270857142857 0.953070857142857 9.805817142857142 2.432461714285714 5.577737142857143 3.974297142857143 2.528958857142857 7.914822857142856 1.8759599999999996 14.240297142857141c-0.6332365714285714 6.134057142857142 0.6753017142857143 12.342754285714285 2.5034228571428567 17.541874285714286 1.8303085714285712 5.205257142857143 4.237439999999999 9.556799999999999 5.968731428571428 12.033257142857142 1.204182857142857 1.7221714285714285 3.1070742857142855 2.470285714285714 4.9128 2.470285714285714 3.0079885714285712 0 5.581371428571428 -2.001257142857143 6.538354285714285 -4.8270857142857135l1.18488 -3.4985142857142852c0.14746285714285715 -0.4354285714285714 0.55608 -0.7285714285714285 1.0158171428571428 -0.7285714285714285s0.8683542857142856 0.29314285714285715 1.0158171428571428 0.7285714285714285l1.18488 3.4985142857142852c0.956982857142857 2.8258285714285716 3.530365714285714 4.8270857142857135 6.53832 4.8270857142857135 1.8055885714285715 0 3.7087885714285713 -0.7481142857142857 4.912902857142857 -2.470285714285714 1.7310857142857143 -2.476457142857143 4.138285714285714 -6.827999999999999 5.968799999999999 -12.033257142857142 1.8281142857142856 -5.19912 3.1364571428571426 -11.407817142857143 2.5031999999999996 -17.541874285714286 -0.6528 -6.325474285714285 -3.7018285714285715 -10.266 -7.929942857142857 -11.807835428571428C34.13722285714285 0.953070857142857 29.498194285714284 1.875678857142857 25.878685714285712 4.108251428571428c-0.7336114285714285 0.4525028571428571 -1.3475314285714284 0.6125485714285714 -1.87872 0.6125485714285714 -0.5312228571428571 0 -1.1451428571428572 -0.16004571428571426 -1.87872 -0.6125485714285714ZM6.139028571428572 14.680388571428573c0.5221028571428571 -5.0574514285714285 2.7642514285714284 -7.357028571428571 5.1350742857142855 -8.221577142857141 2.542011428571428 -0.9269828571428571 5.809817142857143 -0.4222285714285714 8.597211428571429 1.297062857142857 1.2801942857142856 0.7896342857142856 2.6630399999999996 1.25064 4.128651428571429 1.25064 1.4655771428571427 0 2.848457142857143 -0.46100571428571424 4.128651428571429 -1.25064 2.78736 -1.7192914285714285 6.055165714285714 -2.2240457142857144 8.597211428571429 -1.297062857142857 2.3708571428571426 0.8645485714285713 4.613142857142857 3.164125714285714 5.134971428571428 8.221577142857141 0.5458285714285714 5.285485714285715 -0.5770285714285714 10.827222857142857 -2.2834285714285714 15.68016 -1.704 4.846765714285714 -3.934971428571428 8.848937142857142 -5.437988571428571 10.998994285714286 -0.26756571428571424 0.38262857142857143 -0.7410514285714285 0.6404571428571428 -1.4003999999999999 0.6404571428571428 -1.03248 0 -2.0657828571428567 -0.6956571428571429 -2.479097142857143 -1.915885714285714l-1.18488 -3.4988571428571427c-0.7367657142857142 -2.1754285714285713 -2.7781714285714285 -3.6392914285714286 -5.07504 -3.6392914285714286 -2.296868571428571 0 -4.338274285714285 1.4638628571428571 -5.075074285714285 3.6392914285714286l-1.1848457142857143 3.4988571428571427c-0.4133485714285714 1.2202285714285714 -1.4466514285714285 1.915885714285714 -2.4791314285714283 1.915885714285714 -0.6593485714285714 0 -1.1328 -0.2578285714285714 -1.4003657142857142 -0.6404571428571428 -1.5031542857142854 -2.150057142857143 -3.7338857142857145 -6.152228571428571 -5.438091428571428 -10.998994285714286 -1.7064 -4.852937142857143 -2.829085714285714 -10.394674285714284 -2.2834285714285714 -15.68016Zm22.031657142857142 -1.4654742857142855c1.3342285714285713 -0.4865142857142857 2.810228571428571 0.2006742857142857 3.2967771428571426 1.5349028571428571 0.4865142857142857 1.3342285714285713 -0.2006742857142857 2.810228571428571 -1.5349028571428571 3.296742857142857 -2.203165714285714 0.8033828571428571 -4.1232685714285715 1.2836571428571428 -6.097645714285714 1.2787542857142857 -1.991177142857143 -0.004937142857142857 -3.81912 -0.5024228571428572 -5.837211428571428 -1.3052914285714285 -1.3195885714285713 -0.5249485714285714 -1.9637485714285714 -2.0202514285714286 -1.4387657142857142 -3.3398057142857143 0.5249485714285714 -1.3195885714285713 2.0202514285714286 -1.9637485714285714 3.3398399999999997 -1.4387657142857142 1.7077028571428572 0.6793714285714285 2.8570285714285713 0.9383314285714285 3.948891428571428 0.9410399999999999 1.1086285714285715 0.002742857142857143 2.377302857142857 -0.2580685714285714 4.323017142857142 -0.9675771428571429Z" clip-rule="evenodd" stroke-width="3.4286"></path>
  </g>
</svg>