<svg xmlns="http://www.w3.org/2000/svg" fill="none" viewBox="0 0 48 48" id="Traffic-Cone--Streamline-Core-Remix" height="48" width="48">
  <desc>
    Traffic Cone Streamline Icon: https://streamlinehq.com
  </desc>
  <g id="Free Remix/Map Travel/traffic-cone--street-sign-traffic-cone-road">
    <path id="Union" fill="#000000" fill-rule="evenodd" d="M21.47136 4.285714285714286c-0.5789828571428571 0 -1.0865485714285714 0.38701714285714284 -1.2398399999999998 0.9453599999999999L16.961622857142856 17.142857142857142h14.076754285714284l-3.269897142857143 -11.911782857142857C27.61518857142857 4.672731428571429 27.107622857142857 4.285714285714286 26.52864 4.285714285714286H21.47136Zm-11.803851428571427 39.42857142857142 3.058834285714285 -11.142857142857142h22.547485714285713l3.0586285714285713 11.142857142857142H9.667508571428572Zm-4.4442514285714285 0 10.875428571428571 -39.61772571428571C16.76286857142857 1.6770685714285714 18.962365714285713 0 21.47136 0h5.0572799999999996c2.508994285714286 0 4.7084914285714285 1.677072 5.372674285714285 4.09656L42.776914285714284 43.714285714285715h3.080228571428571c1.183542857142857 0 2.142857142857143 0.9593142857142857 2.142857142857143 2.142857142857143s-0.9593142857142857 2.142857142857143 -2.142857142857143 2.142857142857143H2.142857142857143C0.9593897142857143 48 0 47.040685714285715 0 45.857142857142854s0.9593897142857143 -2.142857142857143 2.142857142857143 -2.142857142857143h3.0803999999999996Z" clip-rule="evenodd" stroke-width="3.4286"></path>
  </g>
</svg>