<svg xmlns="http://www.w3.org/2000/svg" fill="none" viewBox="0 0 48 48" id="Transfer-Van--Streamline-Core-Remix" height="48" width="48">
  <desc>
    Transfer Van Streamline Icon: https://streamlinehq.com
  </desc>
  <g id="Free Remix/Shipping/transfer-van--van-shipping-delivery-transfer">
    <path id="Union" fill="#000000" fill-rule="evenodd" d="M5.571428571428571 7.7142857142857135c-0.7100914285714285 0 -1.2857142857142856 0.5756228571428571 -1.2857142857142856 1.2857142857142856v24.857142857142854c0 0.7100571428571428 0.5756228571428571 1.2857142857142856 1.2857142857142856 1.2857142857142856H6.857142857142857c0.06785142857142856 0 0.13494857142857142 0.0030857142857142854 0.20118857142857144 0.009257142857142858 1.0837371428571427 -1.5638057142857142 2.8912799999999996 -2.5880228571428567 4.938034285714286 -2.5880228571428567 2.396982857142857 0 4.465885714285714 1.4047542857142856 5.428388571428571 3.4359085714285715h11.428971428571428c0.4513028571428571 -0.9524571428571428 1.145862857142857 -1.7670514285714285 2.003417142857143 -2.3637599999999996V9c0 -0.7100914285714285 -0.5756228571428571 -1.2857142857142856 -1.2857142857142856 -1.2857142857142856h-24ZM34.285714285714285 26.142857142857142v6.421234285714285c2.0410285714285714 0.0012342857142857142 3.8441142857142854 1.0210971428571427 4.927885714285714 2.5787657142857143h3.2149714285714284c0.7100571428571428 0 1.2857142857142856 -0.5756571428571428 1.2857142857142856 -1.2857142857142856v-7.7142857142857135H34.285714285714285ZM11.996365714285714 44.57142857142857c3.023417142857143 0 5.524868571428572 -2.2350857142857143 5.942365714285714 -5.142857142857142h10.400982857142857c0.41753142857142855 2.9077714285714285 2.918982857142857 5.142857142857142 5.942365714285714 5.142857142857142 3.0235199999999995 0 5.525005714285713 -2.2350857142857143 5.942262857142857 -5.142857142857142h2.204228571428571c3.077142857142857 0 5.571428571428571 -2.494285714285714 5.571428571428571 -5.571428571428571V24.034525714285714c0.0006857142857142857 -0.03953142857142857 0.00034285714285714285 -0.07916571428571428 -0.0017142857142857142 -0.11883428571428573 -0.01817142857142857 -0.46991999999999995 -0.18754285714285712 -0.9009942857142857 -0.46114285714285713 -1.2459085714285714l-3.9133714285714283 -7.82688C42.75257142857143 13.100571428571428 40.97177142857143 12 39.023999999999994 12H35.14285714285714v-3C35.14285714285714 5.922994285714285 32.64843428571429 3.4285714285714284 29.57142857142857 3.4285714285714284h-24C2.494412571428571 3.4285714285714284 0 5.922994285714285 0 9v24.857142857142854c0 3.077142857142857 2.494412571428571 5.571428571428571 5.571428571428571 5.571428571428571h0.48253714285714283c0.41753142857142855 2.9077714285714285 2.918982857142857 5.142857142857142 5.9424 5.142857142857142Z" clip-rule="evenodd" stroke-width="3.4286"></path>
  </g>
</svg>