<svg xmlns="http://www.w3.org/2000/svg" fill="none" viewBox="0 0 48 48" id="Transfer-Truck-Time--Streamline-Core-Remix" height="48" width="48">
  <desc>
    Transfer Truck Time Streamline Icon: https://streamlinehq.com
  </desc>
  <g id="Free Remix/Shipping/transfer-truck-time--truck-shipping-delivery-time-waiting-delay-transfer">
    <path id="Union" fill="#000000" fill-rule="evenodd" d="M20.57142857142857 13.714285714285714c0 -7.574194285714285 6.140091428571428 -13.714285714285714 13.714285714285714 -13.714285714285714 7.574057142857142 0 13.714285714285714 6.140091428571428 13.714285714285714 13.714285714285714 0 5.491165714285715 -3.227314285714286 10.228594285714285 -7.888457142857143 12.419005714285714 -2.1089142857142855 -2.2540114285714283 -4.982742857142857 -3.7861028571428568 -8.180708571428571 -4.155497142857143C30.98561142857143 17.52990857142857 26.99516571428571 14.142857142857142 22.285714285714285 14.142857142857142h-1.7077028571428572C20.573622857142855 14.000537142857143 20.57142857142857 13.857668571428572 20.57142857142857 13.714285714285714Zm18.658285714285714 -4.943759999999999c0.8369142857142857 0.8368457142857142 0.8369142857142857 2.1936342857142854 0 3.03048l-3.427885714285714 3.42792c-0.8369142857142857 0.8368457142857142 -2.1936685714285713 0.8368457142857142 -3.0305142857142857 0 -0.8368457142857142 -0.8368114285714285 -0.8368457142857142 -2.1936 0 -3.030445714285714l3.427885714285714 -3.4279542857142857c0.8369142857142857 -0.8368114285714285 2.1936 -0.8368114285714285 3.0305142857142857 0ZM22.285714285714285 18.428571428571427c1.477645714285714 0 2.894742857142857 0.5870057142857142 3.9395999999999995 1.6318285714285712C27.27013714285714 21.105257142857145 27.857142857142854 22.522354285714286 27.857142857142854 24v2.1771771428571425h2.571428571428571c2.3869371428571426 0 4.676228571428571 0.9482057142857141 6.364114285714286 2.636022857142857 1.6875428571428572 1.6878514285714286 2.635885714285714 3.9770399999999997 2.635885714285714 6.363942857142857v4.285714285714286c0 3.077142857142857 -2.494285714285714 5.571428571428571 -5.571428571428571 5.571428571428571h-1.7018057142857144c-0.8198399999999999 1.752 -2.5985142857142858 2.9657142857142853 -4.660628571428571 2.9657142857142853 -2.2392342857142853 0 -4.144217142857143 -1.431085714285714 -4.850228571428571 -3.4285714285714284H16.743085714285712c-0.7060114285714285 1.9974857142857143 -2.6109942857142854 3.4285714285714284 -4.850228571428571 3.4285714285714284 -2.0755542857142855 0 -3.863965714285714 -1.229485714285714 -4.676537142857143 -3H5.571428571428571C2.494412571428571 45 0 42.505714285714284 0 39.42857142857142V24c0 -1.477645714285714 0.586992 -2.894742857142857 1.6318354285714285 -3.9395999999999995C2.676678857142857 19.015577142857143 4.093782857142857 18.428571428571427 5.571428571428571 18.428571428571427H22.285714285714285ZM16.743085714285712 41.14285714285714h5.901394285714286c0.7060114285714285 -1.9974857142857143 2.6109942857142854 -3.4285714285714284 4.850228571428571 -3.4285714285714284 2.0889257142857143 0 3.887005714285714 1.2456 4.692137142857143 3.0342857142857143H33.857142857142854c0.7100571428571428 0 1.2857142857142856 -0.5756571428571428 1.2857142857142856 -1.2857142857142856v-4.285714285714286c0 -1.2502628571428571 -0.49679999999999996 -2.4493714285714288 -1.3807885714285713 -3.333462857142857 -0.8840914285714284 -0.8840914285714284 -2.0832 -1.3807885714285713 -3.3334971428571425 -1.3807885714285713h-2.571428571428571V31.71428571428571c0 1.1834742857142857 -0.9593828571428571 2.142857142857143 -2.142857142857143 2.142857142857143s-2.142857142857143 -0.9593828571428571 -2.142857142857143 -2.142857142857143V24c0 -0.3410057142857143 -0.13546285714285713 -0.6680228571428571 -0.37659428571428566 -0.9091199999999999C22.953737142857143 22.84974857142857 22.62672 22.71428571428571 22.285714285714285 22.71428571428571H5.571428571428571c-0.3410057142857143 0 -0.6680228571428571 0.13546285714285713 -0.9091542857142857 0.37659428571428566C4.421177142857142 23.33197714285714 4.285714285714286 23.658994285714286 4.285714285714286 24v15.428571428571427c0 0.7100571428571428 0.5756228571428571 1.2857142857142856 1.2857142857142856 1.2857142857142856h1.6448914285714284c0.8125714285714285 -1.7705142857142855 2.600982857142857 -3 4.676537142857143 -3 2.2392342857142853 0 4.144217142857143 1.431085714285714 4.850228571428571 3.4285714285714284Z" clip-rule="evenodd" stroke-width="3.4286"></path>
  </g>
</svg>