<svg xmlns="http://www.w3.org/2000/svg" fill="none" viewBox="0 0 48 48" id="Transfer-Motorcycle--Streamline-Core-Remix" height="48" width="48">
  <desc>
    Transfer Motorcycle Streamline Icon: https://streamlinehq.com
  </desc>
  <g id="Free Remix/Shipping/transfer-motorcycle--motorcycle-shipping-delivery-courier-transfer">
    <path id="Union" fill="#000000" fill-rule="evenodd" d="M27.428571428571427 3c-1.1834742857142857 0 -2.142857142857143 0.9593828571428571 -2.142857142857143 2.142857142857143s0.9593828571428571 2.142857142857143 2.142857142857143 2.142857142857143h3v28.285714285714285H27.428571428571427c-1.6568571428571428 0 -3 -1.343142857142857 -3 -3V30.857142857142854c0 -3.9432685714285713 -2.5359771428571425 -7.294251428571428 -6.066 -8.510914285714284 0.3171428571428571 -0.6678514285714285 0.4945714285714285 -1.4148685714285714 0.4945714285714285 -2.2033714285714288V12C18.857142857142858 9.15966857142857 16.554617142857143 6.857142857142857 13.714285714285714 6.857142857142857H5.142857142857142C2.302536 6.857142857142857 0 9.15966857142857 0 12v8.142857142857142c0 1.893497142857143 1.0232811428571427 3.547954285714286 2.5470034285714283 4.440617142857143C0.9707245714285714 26.20453714285714 0 28.417474285714285 0 30.857142857142854v6.857142857142857c0 1.183542857142857 0.9593897142857143 2.142857142857143 2.142857142857143 2.142857142857143h3.988662857142857c0.5900228571428571 2.695885714285714 2.9917371428571427 4.714285714285714 5.864845714285714 4.714285714285714s5.274822857142857 -2.0183999999999997 5.864845714285714 -4.714285714285714h12.270342857142857c0.5900228571428571 2.695885714285714 2.9917371428571427 4.714285714285714 5.864674285714286 4.714285714285714 2.8731428571428568 0 5.274857142857143 -2.0183999999999997 5.864914285714285 -4.714285714285714h0.7700571428571428c2.9166857142857143 0 5.964685714285714 -2.446285714285714 5.277257142857143 -5.963074285714286 -1.2713142857142856 -6.5043428571428565 -5.9396571428571425 -11.654262857142857 -13.194171428571428 -12.01656v-2.3252571428571427c0.4110857142857143 0.10577142857142856 0.8417142857142856 0.16203428571428571 1.2857142857142856 0.16203428571428571h3.4285714285714284c0.9466285714285714 0 1.7142857142857142 -0.76752 1.7142857142857142 -1.7142857142857142v-6.857142857142857c0 -0.9467657142857142 -0.7676571428571428 -1.7142857142857142 -1.7142857142857142 -1.7142857142857142h-3.4285714285714284c-0.444 0 -0.8746285714285713 0.05626285714285714 -1.2857142857142856 0.16203428571428571V5.142857142857142c0 -1.1834742857142857 -0.9593828571428571 -2.142857142857143 -2.142857142857143 -2.142857142857143H27.428571428571427Zm7.285714285714286 23.171314285714285v6.529988571428571c0.4131428571428571 -0.08986285714285713 0.8420571428571428 -0.13721142857142857 1.281942857142857 -0.13721142857142857 2.2244571428571427 0 4.1664 1.2098057142857142 5.203885714285714 3.0073371428571427h1.431085714285714c0.40045714285714284 0 0.722742857142857 -0.16285714285714284 0.9048 -0.35177142857142857 0.1614857142857143 -0.16731428571428572 0.2009142857142857 -0.3267428571428571 0.1662857142857143 -0.5036571428571428 -0.9449142857142857 -4.834457142857143 -4.129371428571428 -8.204057142857144 -8.988 -8.544685714285714ZM20.78718857142857 35.57142857142857c-0.4138971428571428 -0.9147428571428571 -0.6443314285714286 -1.930525714285714 -0.6443314285714286 -3V30.857142857142854c0 -2.6036228571428572 -2.110662857142857 -4.714285714285714 -4.714285714285714 -4.714285714285714H9c-2.6036228571428572 0 -4.714285714285714 2.110662857142857 -4.714285714285714 4.714285714285714v4.714285714285714h2.507005714285714c1.0372799999999998 -1.7975314285714283 2.9791885714285713 -3.0073371428571427 5.203645714285714 -3.0073371428571427s4.166365714285714 1.2098057142857142 5.203645714285714 3.0073371428571427h3.5871771428571426Z" clip-rule="evenodd" stroke-width="3.4286"></path>
  </g>
</svg>