<svg xmlns="http://www.w3.org/2000/svg" fill="none" viewBox="0 0 48 48" id="Tree-2--Streamline-Core-Remix" height="48" width="48">
  <desc>
    Tree 2 Streamline Icon: https://streamlinehq.com
  </desc>
  <g id="Free Remix/Nature Ecology/tree-2--nature-tree-plant-circle-round-park">
    <path id="Union" fill="#000000" fill-rule="evenodd" d="M9 19.285714285714285C9 11.001428571428571 15.715714285714286 4.285714285714286 24 4.285714285714286s15 6.715714285714285 15 15S32.28428571428571 34.285714285714285 24 34.285714285714285 9 27.569999999999997 9 19.285714285714285ZM24 0C13.3488 0 4.714285714285714 8.634514285714285 4.714285714285714 19.285714285714285c0 9.630754285714286 7.059291428571428 17.612571428571425 16.285714285714285 19.0536v6.660685714285714c0 1.6566857142857143 1.343142857142857 3 3 3s3 -1.3433142857142857 3 -3v-6.660685714285714c9.226285714285714 -1.4410285714285713 16.285714285714285 -9.422845714285714 16.285714285714285 -19.0536C43.285714285714285 8.634514285714285 34.651199999999996 0 24 0Z" clip-rule="evenodd" stroke-width="3.4286"></path>
  </g>
</svg>