<svg xmlns="http://www.w3.org/2000/svg" fill="none" viewBox="0 0 48 48" id="Tree-3--Streamline-Core-Remix" height="48" width="48">
  <desc>
    Tree 3 Streamline Icon: https://streamlinehq.com
  </desc>
  <g id="Free Remix/Nature Ecology/tree-3--nature-tree-plant-cloud-shape-park">
    <path id="Union" fill="#000000" fill-rule="evenodd" d="M14.187462857142858 13.197325714285713C14.661942857142856 8.198022857142858 18.87534857142857 4.285714285714286 24 4.285714285714286s9.338057142857142 3.912308571428571 9.812537142857142 8.911611428571428c0.0792342857142857 0.8349257142857142 0.6380914285714285 1.5468685714285715 1.4304342857142858 1.8219085714285714 3.1878857142857138 1.1065714285714285 5.471314285714286 4.136914285714285 5.471314285714286 7.695051428571428C40.714285714285715 27.211474285714285 37.068685714285714 30.857142857142854 32.57142857142857 30.857142857142854h-17.142857142857142C10.931382857142857 30.857142857142854 7.285714285714286 27.211474285714285 7.285714285714286 22.71428571428571c0 -3.5581371428571424 2.2833942857142855 -6.58848 5.471211428571428 -7.695051428571428 0.7922742857142857 -0.27504 1.351302857142857 -0.9869828571428572 1.4305371428571427 -1.8219085714285714ZM24 0C17.09910857142857 0 11.354468571428571 4.941085714285713 10.10784 11.479645714285713 5.907839999999999 13.47222857142857 3 17.75136 3 22.71428571428571c0 6.864102857142857 5.564468571428571 12.428571428571427 12.428571428571427 12.428571428571427h5.571428571428571v9.857485714285714c0 1.6570285714285713 1.343142857142857 3 3 3s3 -1.3429714285714285 3 -3V35.14285714285714H32.57142857142857c6.863999999999999 0 12.428571428571427 -5.564468571428571 12.428571428571427 -12.428571428571427 0 -4.9629257142857135 -2.9077714285714285 -9.242057142857144 -7.107771428571429 -11.234639999999999C36.645599999999995 4.94112 30.900891428571427 0 24 0Z" clip-rule="evenodd" stroke-width="3.4286"></path>
  </g>
</svg>