<svg xmlns="http://www.w3.org/2000/svg" fill="none" viewBox="0 0 48 48" id="Trending-Content--Streamline-Core-Remix" height="48" width="48">
  <desc>
    Trending Content Streamline Icon: https://streamlinehq.com
  </desc>
  <g id="Free Remix/Interface Essential/trending-content--lit-flame-torch-trending">
    <path id="Union" fill="#000000" fill-rule="evenodd" d="M18.700354285714287 0.4849782857142857c0.5349942857142858 -0.3195795428571428 1.1465485714285713 -0.4883264982857143 1.7697257142857143 -0.4883264982857143 0.5769942857142857 0 1.144045714285714 0.14466809828571428 1.6495885714285714 0.41978592685714283C35.66502857142857 6.716125714285713 43.381028571428565 19.80541714285714 42.90342857142857 30.826765714285713l-0.0010285714285714284 0.01813714285714286c-0.2074285714285714 4.635668571428572 -1.8713142857142855 8.951211428571428 -5.1178285714285705 12.115097142857142 -3.251314285714286 3.168 -7.899702857142857 4.997142857142857 -13.728651428571428 5.010514285714286 -2.358377142857143 0.14297142857142855 -4.722034285714285 -0.18239999999999998 -6.954582857142857 -0.9572571428571428 -2.256102857142857 -0.7830857142857142 -4.332788571428571 -2.009485714285714 -6.107862857142857 -3.6068571428571428 -1.7750742857142856 -1.5977142857142856 -3.2126399999999995 -3.5341714285714283 -4.228182857142857 -5.695542857142857 -1.0155085714285714 -2.1613714285714285 -1.588422857142857 -4.504182857142857 -1.6850742857142855 -6.890331428571428l-0.001302857142857143 -0.03198857142857143 0.00023999999999999998 0c-0.07083428571428571 -2.7741942857142856 0.6196457142857142 -5.514822857142857 1.9964914285714284 -7.9242857142857135 1.3768457142857142 -2.409462857142857 3.387428571428571 -4.395737142857143 5.813485714285714 -5.7431657142857135 0.5267314285714285 -0.2925257142857142 1.1523085714285715 -0.3498171428571428 1.7234057142857142 -0.15778285714285714s1.0349485714285713 0.6156342857142857 1.2779314285714285 1.166982857142857c0.7231885714285714 1.6411542857142856 1.7091085714285712 3.147805714285714 2.9147314285714288 4.462628571428572 1.3681714285714286 -2.005817142857143 2.0120914285714284 -4.532228571428571 1.9915542857142856 -7.326617142857143 -0.026297142857142856 -3.578502857142857 -1.152102857142857 -7.4286514285714285 -3.0443314285714282 -10.712194285714284 -0.3711771428571428 -0.6214628571428571 -0.5066057142857142 -1.3562091428571428 -0.38064 -2.0699142857142854 0.12822857142857144 -0.7265862857142856 0.5184342857142857 -1.380942857142857 1.0967314285714285 -1.8391474285714282 0.07368 -0.05838171428571429 0.15113142857142856 -0.11185371428571428 0.23184 -0.16006285714285712ZM23.101542857142853 5.757154285714286C33.48137142857143 11.78934857142857 38.97634285714285 22.281942857142855 38.62217142857143 30.625542857142854l-0.0006857142857142857 0.014365714285714285c-0.16457142857142856 3.7431771428571428 -1.4856 6.9677485714285705 -3.828 9.250834285714285 -1.317462857142857 1.2836571428571428 -3.0183085714285713 2.3286857142857142 -5.140902857142857 2.9945142857142852 0.7592571428571429 -1.1039999999999999 1.2037371428571428 -2.441142857142857 1.2037371428571428 -3.8818285714285716 0 -3.7872 -3.070045714285714 -6.8572114285714285 -6.857142857142857 -6.8572114285714285s-6.857142857142857 3.070011428571428 -6.857142857142857 6.8572114285714285c0 1.4537142857142855 0.4525028571428571 2.8021714285714285 1.2243771428571428 3.911657142857143 -1.6620342857142858 -0.5972571428571428 -3.1925142857142856 -1.512342857142857 -4.5059314285714285 -2.6941714285714284 -1.3502399999999999 -1.2154285714285713 -2.4437828571428573 -2.688342857142857 -3.2162742857142854 -4.332685714285714 -0.77016 -1.6390971428571428 -1.2056914285714284 -3.4154742857142852 -1.2811199999999998 -5.224971428571428 -0.04782857142857143 -1.9861028571428572 0.44784 -3.9476228571428567 1.433622857142857 -5.672708571428571 0.6183771428571428 -1.08216 1.4148685714285714 -2.0454514285714285 2.35104 -2.8518514285714285 1.1695542857142855 1.953702857142857 2.657211428571429 3.7057371428571426 4.4067428571428575 5.181222857142857 0.3504342857142857 0.3054171428571429 0.7779771428571428 0.4784228571428571 1.2158057142857142 0.5173028571428571 0.4450971428571428 0.03953142857142857 0.9008571428571428 -0.059519999999999997 1.2970285714285714 -0.2988342857142857 0.13652571428571428 -0.08231999999999999 0.2654057142857143 -0.18095999999999998 0.3836571428571428 -0.29568 3.3483771428571427 -3.196697142857143 4.663748571428571 -7.599702857142857 4.631382857142857 -12.007919999999999 -0.02338285714285714 -3.1816799999999996 -0.7436914285714284 -6.452982857142857 -1.9808228571428572 -9.477634285714286Z" clip-rule="evenodd" stroke-width="3.4286"></path>
  </g>
</svg>