<svg xmlns="http://www.w3.org/2000/svg" fill="none" viewBox="0 0 48 48" id="Triangle-Flag--Streamline-Core-Remix" height="48" width="48">
  <desc>
    Triangle Flag Streamline Icon: https://streamlinehq.com
  </desc>
  <g id="Free Remix/Map Travel/triangle-flag--navigation-map-maps-flag-gps-location-destination-goal">
    <path id="Union" fill="#000000" fill-rule="evenodd" d="M9.857142857142856 33.99984V45c0 1.6566857142857143 -1.343142857142857 3 -3 3s-3 -1.3433142857142857 -3 -3V3c0 -1.654110857142857 1.3386857142857143 -2.99554968 2.9917714285714285 -2.9999893704C6.8516571428571424 0.00000326297142857143 6.8544 0 6.857142857142857 0c0.00312 0 0.00624 0.00000458777142857143 0.009394285714285713 0.00001415005714285714C7.543062857142857 0.002084420571428571 8.166925714285712 0.2281038857142857 8.667805714285713 0.6078342857142857L42.022285714285715 15.617314285714283c0.7690285714285714 0.3460457142857143 1.2634285714285713 1.1108914285714286 1.2634285714285713 1.9541142857142855 0 0.843222857142857 -0.49439999999999995 1.6080685714285714 -1.2634285714285713 1.9541142857142855L9.857142857142856 33.99984Zm0 -4.69968L35.921142857142854 17.57142857142857 9.857142857142856 5.842697142857142v23.457462857142854Z" clip-rule="evenodd" stroke-width="3.4286"></path>
  </g>
</svg>