<svg xmlns="http://www.w3.org/2000/svg" fill="none" viewBox="0 0 48 48" id="Triangle-Arrow-Transfer-Diagonal-3--Streamline-Core-Remix" height="48" width="48">
  <desc>
    Triangle Arrow Transfer Diagonal 3 Streamline Icon: https://streamlinehq.com
  </desc>
  <g id="Free Remix/Interface Essential/triangle-arrow-transfer-diagonal-3--arrows-arrow-server-data-diagonal-internet-transfer-network">
    <path id="Union" fill="#000000" fill-rule="evenodd" d="M17.142857142857142 0c-0.69336 0 -1.3184571428571428 0.417672 -1.5837942857142857 1.0582559999999999 -0.2653371428571428 0.6405839999999999 -0.11866285714285714 1.3779291428571427 0.37162285714285714 1.8682114285714286L20.969554285714285 7.965325714285714 1.6102971428571426 27.324582857142854c-1.0042045714285714 1.0041942857142856 -1.0042045714285714 2.6323542857142854 0 3.636548571428571s2.6323542857142854 1.0041942857142856 3.636548571428571 0l19.359257142857142 -19.359257142857142 5.038868571428571 5.038868571428571c0.4902857142857142 0.4902857142857142 1.2276342857142857 0.63696 1.8681942857142855 0.37162285714285714C32.15376 16.74702857142857 32.57142857142857 16.12193142857143 32.57142857142857 15.428571428571427v-13.714285714285714C32.57142857142857 0.7675131428571428 31.80390857142857 0 30.857142857142854 0H17.142857142857142Zm-0.6560228571428571 30.987634285714282c0.6405942857142857 -0.2653371428571428 1.3779085714285715 -0.11866285714285714 1.8681942857142855 0.37162285714285714l5.038868571428571 5.038799999999999 19.35936 -19.359188571428568c1.0042285714285712 -1.0041942857142856 2.6321142857142856 -1.0041942857142856 3.636342857142857 0 1.0042285714285712 1.0041942857142856 1.0042285714285712 2.6323542857142854 0 3.636548571428571L27.030445714285715 40.03474285714285l5.038868571428571 5.038628571428571c0.4902857142857142 0.4902857142857142 0.63696 1.2277714285714285 0.37162285714285714 1.8682285714285716C32.1756 47.58239999999999 31.550502857142856 48 30.857142857142854 48H17.142857142857142c-0.9467657142857142 0 -1.7142857142857142 -0.7676571428571428 -1.7142857142857142 -1.7142857142857142v-13.714285714285714c0 -0.69336 0.4176685714285714 -1.3184571428571428 1.058262857142857 -1.5837942857142857Z" clip-rule="evenodd" stroke-width="3.4286"></path>
  </g>
</svg>