<svg xmlns="http://www.w3.org/2000/svg" fill="none" viewBox="0 0 48 48" id="Triangle-Arrow-Expand--Streamline-Core-Remix" height="48" width="48">
  <desc>
    Triangle Arrow Expand Streamline Icon: https://streamlinehq.com
  </desc>
  <g id="Free Remix/Interface Essential/triangle-arrow-expand--expand-small-bigger-retract-smaller-big">
    <path id="Union" fill="#000000" fill-rule="evenodd" d="M3.4285714285714284 1.7142857142857142h13.714285714285714c0.69336 0 1.3184571428571428 0.417672 1.5837942857142857 1.0582559999999999 0.2653371428571428 0.6405839999999999 0.11866285714285714 1.3779154285714286 -0.37162285714285714 1.868201142857143L13.31616 9.679611428571429l7.359257142857143 7.359257142857143c1.0041942857142856 1.0041942857142856 1.0041942857142856 2.6323542857142854 0 3.636548571428571s-2.6323542857142854 1.0041942857142856 -3.636548571428571 0L9.679611428571429 13.31616 4.640742857142857 18.355028571428573c-0.4902857142857142 0.4902857142857142 -1.2276171428571427 0.63696 -1.868201142857143 0.37162285714285714C2.131957714285714 18.461314285714284 1.7142857142857142 17.83621714285714 1.7142857142857142 17.142857142857142V3.4285714285714284C1.7142857142857142 2.481798857142857 2.481798857142857 1.7142857142857142 3.4285714285714284 1.7142857142857142Zm34.89188571428571 11.601874285714285L30.961131428571424 20.675417142857142c-1.0041942857142856 1.0041942857142856 -2.6323542857142854 1.0041942857142856 -3.636548571428571 0s-1.0041942857142856 -2.6323542857142854 0 -3.636548571428571l7.359188571428572 -7.359257142857143 -5.038799999999999 -5.038868571428571c-0.4902857142857142 -0.4902857142857142 -0.63696 -1.2276171428571427 -0.37162285714285714 -1.868201142857143C29.53868571428571 2.131957714285714 30.163782857142856 1.7142857142857142 30.857142857142854 1.7142857142857142h13.714285714285714c0.9466285714285714 0 1.7142857142857142 0.7675131428571428 1.7142857142857142 1.7142857142857142v13.714285714285714c0 0.69336 -0.41759999999999997 1.3184571428571428 -1.0583999999999998 1.5837942857142857 -0.6404571428571428 0.2653371428571428 -1.377942857142857 0.11866285714285714 -1.8682285714285716 -0.37162285714285714l-5.038628571428571 -5.038868571428571ZM20.675417142857142 30.961131428571424c1.0041942857142856 -1.0041942857142856 1.0041942857142856 -2.6323542857142854 0 -3.636548571428571s-2.6323542857142854 -1.0041942857142856 -3.636548571428571 0L9.679611428571429 34.683771428571426 4.640742857142857 29.644971428571427c-0.4902857142857142 -0.4902857142857142 -1.2276171428571427 -0.63696 -1.868201142857143 -0.37162285714285714C2.131957714285714 29.53868571428571 1.7142857142857142 30.163782857142856 1.7142857142857142 30.857142857142854v13.714285714285714c0 0.9466285714285714 0.7675131428571428 1.7142857142857142 1.7142857142857142 1.7142857142857142h13.714285714285714c0.69336 0 1.3184571428571428 -0.41759999999999997 1.5837942857142857 -1.0583999999999998 0.2653371428571428 -0.6404571428571428 0.11866285714285714 -1.377942857142857 -0.37162285714285714 -1.8682285714285716l-5.038868571428571 -5.038628571428571 7.359257142857143 -7.359325714285713Zm10.285714285714285 -3.636548571428571c-1.0041942857142856 -1.0041942857142856 -2.6323542857142854 -1.0041942857142856 -3.636548571428571 0s-1.0041942857142856 2.6323542857142854 0 3.636548571428571l7.359188571428572 7.359325714285713 -5.038799999999999 5.038628571428571c-0.4902857142857142 0.4902857142857142 -0.63696 1.2277714285714285 -0.37162285714285714 1.8682285714285716 0.2653371428571428 0.6408 0.8904342857142856 1.0583999999999998 1.5837942857142857 1.0583999999999998h13.714285714285714c0.9466285714285714 0 1.7142857142857142 -0.7676571428571428 1.7142857142857142 -1.7142857142857142V30.857142857142854c0 -0.69336 -0.41759999999999997 -1.3184571428571428 -1.0583999999999998 -1.5837942857142857 -0.6404571428571428 -0.2653371428571428 -1.377942857142857 -0.11866285714285714 -1.8682285714285716 0.37162285714285714l-5.038628571428571 5.038799999999999 -7.359325714285713 -7.359188571428572Z" clip-rule="evenodd" stroke-width="3.4286"></path>
  </g>
</svg>