<svg xmlns="http://www.w3.org/2000/svg" fill="none" viewBox="0 0 48 48" id="Triangle-Arrow-Transfer-Diagonal-1--Streamline-Core-Remix" height="48" width="48">
  <desc>
    Triangle Arrow Transfer Diagonal 1 Streamline Icon: https://streamlinehq.com
  </desc>
  <g id="Free Remix/Interface Essential/triangle-arrow-transfer-diagonal-1--arrows-arrow-server-data-diagonal-internet-transfer-network">
    <path id="Union" fill="#000000" fill-rule="evenodd" d="M15.55872 2.772541714285714C15.824091428571428 2.131957714285714 16.449154285714286 1.7142857142857142 17.142514285714284 1.7142857142857142h18.857142857142858c0.6932571428571428 0 1.3186285714285713 0.417672 1.5836571428571427 1.0582559999999999 0.26537142857142854 0.6405839999999999 0.11897142857142858 1.3779154285714286 -0.37131428571428565 1.868201142857143l-9.42870857142857 9.428571428571429c-0.07854857142857143 0.07858285714285713 -0.16285714285714284 0.14790857142857142 -0.25151999999999997 0.20801142857142857L4.4700685714285715 37.3392c-1.0042285714285712 1.0042285714285712 -2.6323508571428573 1.0042285714285712 -3.6365588571428566 0 -1.0042038857142856 -1.0042285714285712 -1.0042038857142856 -2.632457142857143 0 -3.636685714285714L22.912799999999997 11.623199999999999 15.930342857142856 4.640742857142857c-0.4902857142857142 -0.4902857142857142 -0.63696 -1.2276171428571427 -0.37162285714285714 -1.868201142857143ZM47.2464 14.196205714285712 25.076228571428572 36.36651428571428l6.9927771428571415 6.992571428571428c0.4902857142857142 0.4902857142857142 0.63696 1.2277714285714285 0.37158857142857143 1.8682285714285716 -0.2653371428571428 0.6408 -0.8903999999999999 1.0583999999999998 -1.5837942857142857 1.0583999999999998h-18.857142857142858c-0.69336 0 -1.3184228571428571 -0.41759999999999997 -1.5837942857142857 -1.0583999999999998 -0.2653371428571428 -0.6404571428571428 -0.11866285714285714 -1.377942857142857 0.37162285714285714 -1.8682285714285716l9.428571428571429 -9.4284c0.05948571428571429 -0.05948571428571429 0.12226285714285713 -0.11369142857142857 0.18774857142857143 -0.16261714285714285 0.02064 -0.022148571428571427 0.04172571428571428 -0.043988571428571425 0.06329142857142857 -0.06555428571428572l23.14296 -23.142857142857142c1.0042285714285712 -1.0041942857142856 2.6321142857142856 -1.0041942857142856 3.636342857142857 0 1.0042285714285712 1.0041942857142856 1.0042285714285712 2.6323542857142854 0 3.636548571428571Z" clip-rule="evenodd" stroke-width="3.4286"></path>
  </g>
</svg>