<svg xmlns="http://www.w3.org/2000/svg" fill="none" viewBox="0 0 48 48" id="Triangle-Arrow-Reload-Horizontal-1--Streamline-Core-Remix" height="48" width="48">
  <desc>
    Triangle Arrow Reload Horizontal 1 Streamline Icon: https://streamlinehq.com
  </desc>
  <g id="Free Remix/Interface Essential/triangle-arrow-reload-horizontal-1--arrows-load-arrow-sync-square-loading-reload-synchronize">
    <path id="Union" fill="#000000" fill-rule="evenodd" d="m32.069314285714285 20.06938285714286 8.571599999999998 -8.571428571428571c0.6692571428571429 -0.669462857142857 0.6692571428571429 -1.7549142857142856 0 -2.424377142857143L32.069314285714285 0.502152c-0.4902857142857142 -0.4902814971428571 -1.2275999999999998 -0.6369483428571427 -1.8681942857142855 -0.37160982857142855C29.56052571428571 0.39587999999999995 29.142857142857142 1.0209702857142857 29.142857142857142 1.7143371428571428V7.71432l-23.142857142857142 0.00003428571428571428c-3.313710857142857 0 -6 2.686285714285714 -6 6v8.571428571428571c0 1.4201485714285715 1.1512697142857142 2.571428571428571 2.571428571428571 2.571428571428571 1.4201485714285715 0 2.571428571428571 -1.1512799999999999 2.571428571428571 -2.571428571428571l0 -8.571428571428571c0 -0.4733828571428571 0.38376 -0.8571428571428571 0.8571428571428571 -0.8571428571428571l23.142857142857142 -0.00003428571428571428v6c0 0.6933942857142857 0.4176685714285714 1.3184571428571428 1.058262857142857 1.5837942857142857 0.6405599999999999 0.26537142857142854 1.3779085714285715 0.11869714285714285 1.8681942857142855 -0.37158857142857143Zm-14.270434285714284 7.489714285714285c0.6405942857142857 0.26537142857142854 1.058262857142857 0.8904342857142856 1.058262857142857 1.5837942857142857V35.14285714285714h23.142857142857142c0.4734857142857143 0 0.8571428571428571 -0.3836571428571428 0.8571428571428571 -0.8571428571428571V25.714319999999997c0 -1.4201485714285715 1.1513142857142855 -2.571428571428571 2.571428571428571 -2.571428571428571s2.571428571428571 1.1512799999999999 2.571428571428571 2.571428571428571V34.285714285714285c0 3.3137142857142856 -2.686285714285714 6 -6 6H18.857142857142858v6c0 0.6932571428571428 -0.4176685714285714 1.3186285714285713 -1.058262857142857 1.584 -0.6405942857142857 0.2650285714285714 -1.3779085714285715 0.11862857142857142 -1.8681942857142855 -0.3716571428571428l-8.571428571428571 -8.571428571428571c-0.6694971428571428 -0.6696 -0.6694971428571428 -1.7550857142857144 0 -2.424342857142857l8.571428571428571 -8.571565714285713c0.4902857142857142 -0.4902857142857142 1.2275999999999998 -0.63696 1.8681942857142855 -0.37162285714285714Z" clip-rule="evenodd" stroke-width="3.4286"></path>
  </g>
</svg>