<svg xmlns="http://www.w3.org/2000/svg" fill="none" viewBox="0 0 48 48" id="Triangle-Arrow-Roadmap--Streamline-Core-Remix" height="48" width="48">
  <desc>
    Triangle Arrow Roadmap Streamline Icon: https://streamlinehq.com
  </desc>
  <g id="Free Remix/Interface Essential/triangle-arrow-roadmap">
    <path id="Union" fill="#000000" fill-rule="evenodd" d="M14.870057142857144 7.79742857142857c0 -1.3493485714285713 1.0938514285714285 -2.4432 2.4432 -2.4432 1.3435885714285714 0 2.43384 1.084525714285714 2.4431314285714283 2.4259199999999996l-0.00003428571428571428 0.017417142857142857 0.00003428571428571428 0.01728c-0.009359999999999999 1.3413257142857142 -1.0996114285714285 2.425782857142857 -2.4431314285714283 2.425782857142857 -1.3493485714285713 0 -2.4432 -1.0938514285714285 -2.4432 -2.4432Zm9.582308571428571 2.5715657142857142c-1.0534285714285714 2.923988571428571 -3.8521371428571425 5.014491428571429 -7.139108571428571 5.014491428571429 -3.2869714285714284 0 -6.08568 -2.090502857142857 -7.139108571428571 -5.014491428571429H3.9408342857142857c-1.4201485714285715 0 -2.571414857142857 -1.1512457142857142 -2.571414857142857 -2.571428571428571 0 -1.4201485714285715 1.1512662857142855 -2.571428571428571 2.571414857142857 -2.571428571428571h6.233211428571428C11.227371428571427 2.3020045714285713 14.026182857142858 0.211356 17.31325714285714 0.211356c3.2870742857142856 0 6.085885714285714 2.0906485714285714 7.139211428571428 5.014781142857142h11.665474285714284c5.805257142857142 0 10.511314285714285 4.7060571428571425 10.511314285714285 10.51128 0 5.805222857142857 -4.7060571428571425 10.51128 -10.511314285714285 10.51128h-1.6364571428571428c-1.0533599999999999 2.923988571428571 -3.8520685714285716 5.014525714285714 -7.139074285714285 5.014525714285714 -3.287142857142857 0 -6.085954285714285 -2.0907085714285714 -7.139245714285714 -5.014902857142856H11.880685714285713c-2.9648914285714283 0 -5.368422857142857 2.4035314285714287 -5.368422857142857 5.368422857142857 0 2.4029485714285714 1.5787885714285714 4.437085714285714 3.7556571428571424 5.121771428571428 1.118742857142857 -2.7940114285714284 3.8515542857142853 -4.767668571428572 7.045337142857142 -4.767668571428572 3.286937142857143 0 6.085611428571428 2.0904342857142857 7.13904 5.014525714285714h11.547017142857142V32.57142857142857c0 -0.69336 0.41759999999999997 -1.3184571428571428 1.0583999999999998 -1.5837942857142857 0.6404571428571428 -0.2653371428571428 1.377942857142857 -0.11866285714285714 1.8682285714285716 0.37162285714285714l6.857142857142857 6.856971428571428c0.6692571428571429 0.6696 0.6692571428571429 1.7550857142857144 0 2.4246857142857143l-6.857142857142857 6.857142857142857c-0.4902857142857142 0.4902857142857142 -1.2277714285714285 0.6366857142857143 -1.8682285714285716 0.37131428571428565 -0.6408 -0.26537142857142854 -1.0583999999999998 -0.8903999999999999 -1.0583999999999998 -1.5836571428571427v-4.157485714285714H24.452502857142857c-1.0532914285714285 2.923885714285714 -3.8521028571428566 5.014628571428571 -7.139245714285714 5.014628571428571 -3.3417257142857144 0 -6.178765714285714 -2.160685714285714 -7.190262857142857 -5.161028571428571C5.154514285714286 41.14525714285714 1.3694194285714285 36.8232 1.3694194285714285 31.616742857142857c0 -5.805222857142857 4.706077714285714 -10.51128 10.511266285714285 -10.51128h8.322685714285713c1.0534285714285714 -2.92392 3.8521028571428566 -5.014354285714286 7.13904 -5.014354285714286 3.2870742857142856 0 6.085851428571428 2.090605714285714 7.139074285714285 5.014731428571428h1.6364571428571428c2.9650285714285713 0 5.368457142857143 -2.4035314285714287 5.368457142857143 -5.368422857142857s-2.403428571428571 -5.368422857142857 -5.368457142857143 -5.368422857142857H24.452365714285712Zm0.44688 13.321919999999999c0.00003428571428571428 -0.004662857142857143 0.00003428571428571428 -0.009359999999999999 0.00003428571428571428 -0.014022857142857142 0 -0.004525714285714286 0 -0.009051428571428571 -0.00003428571428571428 -0.013577142857142857 0.0074742857142857146 -1.3429714285714285 1.0984457142857142 -2.429348571428571 2.443165714285714 -2.429348571428571 1.3493485714285713 0 2.4432 1.0938514285714285 2.4432 2.4432s-1.0938514285714285 2.4432 -2.4432 2.4432c-1.3447542857142858 0 -2.4357599999999997 -1.0864457142857142 -2.443165714285714 -2.429451428571429ZM17.31325714285714 37.1136c1.3435199999999998 0 2.433737142857143 1.0844571428571428 2.4431314285714283 2.4257142857142857l-0.00003428571428571428 0.017485714285714285 0.00006857142857142857 0.017485714285714285c-0.009291428571428572 1.3412571428571427 -1.0995771428571428 2.4257142857142857 -2.443165714285714 2.4257142857142857 -1.3493485714285713 0 -2.4432 -1.0937142857142856 -2.4432 -2.4432 0 -1.3491428571428572 1.0938514285714285 -2.4432 2.4432 -2.4432Z" clip-rule="evenodd" stroke-width="3.4286"></path>
  </g>
</svg>