<svg xmlns="http://www.w3.org/2000/svg" fill="none" viewBox="0 0 48 48" id="Triangle-Arrow-Transfer-Diagonal-2--Streamline-Core-Remix" height="48" width="48">
  <desc>
    Triangle Arrow Transfer Diagonal 2 Streamline Icon: https://streamlinehq.com
  </desc>
  <g id="Free Remix/Interface Essential/triangle-arrow-transfer-diagonal-2--arrows-arrow-server-data-diagonal-internet-transfer-network">
    <path id="Union" fill="#000000" fill-rule="evenodd" d="M32.521611428571426 2.772541714285714C32.256274285714284 2.131957714285714 31.63117714285714 1.7142857142857142 30.93781714285714 1.7142857142857142h-18.857142857142858c-0.69336 0 -1.3184571428571428 0.417672 -1.5837942857142857 1.0582559999999999 -0.2653371428571428 0.6405839999999999 -0.11866285714285714 1.3779154285714286 0.37162285714285714 1.868201142857143l9.428571428571429 9.428571428571429c0.07854857142857143 0.07858285714285713 0.16282285714285713 0.14790857142857142 0.25148571428571426 0.20801142857142857l23.06184 23.061874285714282c1.0042285714285712 1.0042285714285712 2.6321142857142856 1.0042285714285712 3.636342857142857 0 1.0042285714285712 -1.0042285714285712 1.0042285714285712 -2.632457142857143 0 -3.636685714285714L25.16756571428571 11.623199999999999l6.982457142857143 -6.982457142857143c0.4902857142857142 -0.4902857142857142 0.6369257142857142 -1.2276171428571427 0.37158857142857143 -1.868201142857143ZM0.8338354285714286 14.196205714285712 23.004102857142854 36.36651428571428l-6.992742857142858 6.992571428571428c-0.4902857142857142 0.4902857142857142 -0.63696 1.2277714285714285 -0.37162285714285714 1.8682285714285716 0.2653371428571428 0.6408 0.8904342857142856 1.0583999999999998 1.5837942857142857 1.0583999999999998h18.85704c0.6936 0 1.3186285714285713 -0.41759999999999997 1.584 -1.0583999999999998 0.26537142857142854 -0.6404571428571428 0.11862857142857142 -1.377942857142857 -0.3716571428571428 -1.8682285714285716L27.864308571428573 33.93068571428571c-0.05948571428571429 -0.05948571428571429 -0.12226285714285713 -0.11369142857142857 -0.18774857142857143 -0.16261714285714285 -0.02064 -0.022148571428571427 -0.04176 -0.043988571428571425 -0.06332571428571428 -0.06555428571428572l-23.142857142857142 -23.142857142857142c-1.0041942857142856 -1.0041942857142856 -2.6323302857142856 -1.0041942857142856 -3.6365417142857144 0 -1.0042018285714285 1.0041942857142856 -1.0042018285714285 2.6323542857142854 0 3.636548571428571Z" clip-rule="evenodd" stroke-width="3.4286"></path>
  </g>
</svg>