<svg xmlns="http://www.w3.org/2000/svg" fill="none" viewBox="0 0 48 48" id="Triangle-Arrow-Curvy-Up-Down-2--Streamline-Core-Remix" height="48" width="48">
  <desc>
    Triangle Arrow Curvy Up Down 2 Streamline Icon: https://streamlinehq.com
  </desc>
  <g id="Free Remix/Interface Essential/triangle-arrow-curvy-up-down-2--both-direction-arrow-curvy-diagram-zigzag-vertical">
    <path id="Union" fill="#000000" d="M0.7532297142857143 9.324651428571428c-0.7354239428571429 0.7354285714285713 -0.9554245714285714 1.8414514285714283 -0.5574161142857142 2.802308571428571 0.39800811428571425 0.9608914285714285 1.3356435428571427 1.5873942857142858 2.3756904 1.5873942857142858H8.571497142857142l0 25.285645714285714c0 4.970742857142857 4.029462857142857 9 9 9 4.970571428571429 0 9 -4.029257142857142 9 -9l0 -29.99993142857143c0 -2.1302399999999997 1.726902857142857 -3.8571428571428568 3.8571428571428568 -3.8571428571428568S34.285714285714285 6.86982857142857 34.285714285714285 9.00006857142857V45.42857142857142c0 1.0402285714285713 0.626742857142857 1.9775999999999998 1.5874285714285714 2.3756571428571425 0.9610285714285713 0.39805714285714283 2.067085714285714 0.17828571428571427 2.8025142857142855 -0.5571428571428572l8.571428571428571 -8.571428571428571c0.7354285714285713 -0.7354285714285713 0.9552 -1.8414857142857142 0.5571428571428572 -2.8025142857142855 -0.39805714285714283 -0.9606857142857143 -1.3354285714285714 -1.5874285714285714 -2.3756571428571425 -1.5874285714285714H39.42857142857142V9.00006857142857c0 -4.970571428571429 -4.029257142857142 -8.999995437599999 -8.999931428571427 -8.999995220228572C25.45806857142857 0.00007356822857142856 21.428639999999998 4.029497142857143 21.428639999999998 9.00006857142857l0 29.99993142857143c0 2.1301714285714284 -1.726902857142857 3.8571428571428568 -3.8571428571428568 3.8571428571428568s-3.8571428571428568 -1.7269714285714286 -3.8571428571428568 -3.8571428571428568l0 -36.428496c0 -1.040046857142857 -0.6265028571428571 -1.9776857142857143 -1.5873942857142858 -2.375690057142857 -0.9608571428571429 -0.39800914285714284 -2.06688 -0.17800789714285714 -2.802308571428571 0.5574157714285713L0.7532297142857143 9.324651428571428Z" stroke-width="3.4286"></path>
  </g>
</svg>