<svg xmlns="http://www.w3.org/2000/svg" fill="none" viewBox="0 0 48 48" id="Triangle-Arrow-Reload-Horizontal-2--Streamline-Core-Remix" height="48" width="48">
  <desc>
    Triangle Arrow Reload Horizontal 2 Streamline Icon: https://streamlinehq.com
  </desc>
  <g id="Free Remix/Interface Essential/triangle-arrow-reload-horizontal-2">
    <path id="Union" fill="#000000" fill-rule="evenodd" d="m19.212171428571427 18.355097142857144 6.857142857142857 -6.857142857142857c0.6694971428571428 -0.669462857142857 0.6694971428571428 -1.7549142857142856 0 -2.424377142857143l-6.857142857142857 -6.857139428571428c-0.4902857142857142 -0.49028228571428567 -1.2275999999999998 -0.6369497142857142 -1.8681942857142855 -0.3716091428571428C16.703382857142856 2.1101657142857144 16.285714285714285 2.735256 16.285714285714285 3.4286057142857143v4.285714285714286l-6.857142857142857 0.00003428571428571428c-5.2072457142857145 0 -9.428571428571429 4.221291428571428 -9.428571428571429 9.428571428571429v13.714285714285714C0 36.064457142857144 4.221325714285714 40.285714285714285 9.428571428571429 40.285714285714285h3.4285714285714284c1.4201485714285715 0 2.571428571428571 -1.1513142857142855 2.571428571428571 -2.571428571428571s-1.1512799999999999 -2.571428571428571 -2.571428571428571 -2.571428571428571h-3.4285714285714284c-2.3669485714285714 0 -4.285714285714286 -1.9187314285714283 -4.285714285714286 -4.285645714285715l0 -13.714285714285714c0 -2.3669485714285714 1.9187657142857142 -4.285714285714286 4.285714285714286 -4.285714285714286l6.857142857142857 -0.00003428571428571428v4.285714285714286c0 0.6933942857142857 0.4176685714285714 1.3184571428571428 1.058262857142857 1.5837942857142857 0.6405942857142857 0.26537142857142854 1.3779085714285715 0.11869714285714285 1.8681942857142855 -0.37158857142857143ZM31.71428571428571 44.57142857142857v-4.285714285714286h6.857142857142857c5.207314285714285 0 9.428571428571429 -4.221257142857143 9.428571428571429 -9.428537142857142v-13.714285714285714c0 -5.2072457142857145 -4.221257142857143 -9.428571428571429 -9.428571428571429 -9.428571428571429h-3.4285714285714284c-1.4201485714285715 0 -2.571428571428571 1.1512799999999999 -2.571428571428571 2.571428571428571 0 1.420182857142857 1.1512799999999999 2.571428571428571 2.571428571428571 2.571428571428571h3.4285714285714284c2.367085714285714 0 4.285714285714286 1.9187999999999998 4.285714285714286 4.285714285714286v13.714285714285714c0 2.3669485714285714 -1.9186285714285713 4.285679999999999 -4.285714285714286 4.285679999999999h-6.857142857142857V30.85717714285714c0 -0.69336 -0.4176685714285714 -1.3184228571428571 -1.058262857142857 -1.5837942857142857 -0.6405942857142857 -0.2653371428571428 -1.3779085714285715 -0.11866285714285714 -1.8681942857142855 0.37162285714285714l-6.857142857142857 6.857279999999999c-0.6694971428571428 0.6692571428571429 -0.6694971428571428 1.7547428571428572 0 2.424342857142857l6.857142857142857 6.857142857142857c0.4902857142857142 0.4902857142857142 1.2275999999999998 0.6366857142857143 1.8681942857142855 0.3716571428571428 0.6405942857142857 -0.26537142857142854 1.058262857142857 -0.8907428571428571 1.058262857142857 -1.584Z" clip-rule="evenodd" stroke-width="3.4286"></path>
  </g>
</svg>