<svg xmlns="http://www.w3.org/2000/svg" fill="none" viewBox="0 0 48 48" id="Twitter--Streamline-Core-Remix" height="48" width="48">
  <desc>
    Twitter Streamline Icon: https://streamlinehq.com
  </desc>
  <g id="Free Remix/Computer Devices/twitter--media-twitter-social">
    <path id="Vector" stroke="#000000" stroke-linecap="round" stroke-linejoin="round" stroke-width="4.2857" d="M13.779531428571428 32.147554285714286c-2.4471771428571425 1.9051885714285712 -5.256034285714286 3.302845714285714 -8.25936 4.1102742857142855 -0.33082285714285714 0.11897142857142858 -0.6166285714285714 0.336 -0.8186057142857143 0.6215999999999999 -0.20197714285714283 0.28559999999999997 -0.3103542857142857 0.6260571428571429 -0.3103542857142857 0.9747428571428571 0 0.3490285714285714 0.10837714285714285 0.6891428571428572 0.3103542857142857 0.9750857142857142 0.20197714285714283 0.28559999999999997 0.48778285714285713 0.5026285714285714 0.8186057142857143 0.6215999999999999C29.23584 49.097828571428565 44.31531428571429 34.18566857142857 42.01885714285714 17.64294857142857l3.838628571428571 -7.880708571428571h-4.4554285714285715C35.85017142857143 3.0024754285714286 21.113554285714287 3.342161142857143 23.546811428571427 17.744845714285713c0 0 -7.882388571428572 1.39272 -17.958102857142855 -8.424205714285714 -0.2330742857142857 -0.2280685714285714 -0.5272114285714286 -0.3851657142857142 -0.8475771428571428 -0.4526742857142857 -0.32036571428571425 -0.06750857142857142 -0.6535542857142858 -0.042582857142857145 -0.9600685714285714 0.07179428571428571 -0.3065142857142857 0.11437714285714286 -0.5735417142857142 0.3134057142857143 -0.7694571428571428 0.5735657142857142 -0.19591199999999998 0.26016 -0.3125005714285714 0.5705142857142856 -0.33595542857142857 0.8943085714285715 -1.0653839999999999 4.340674285714285 -0.5322205714285714 8.915759999999999 1.5034697142857143 12.901405714285714 2.0357142857142856 3.985645714285714 5.440182857142856 7.119942857142856 9.600411428571428 8.838514285714286Z"></path>
  </g>
</svg>