<svg xmlns="http://www.w3.org/2000/svg" fill="none" viewBox="0 0 48 48" id="Two-Finger-Drag-Hotizontal--Streamline-Core-Remix" height="48" width="48">
  <desc>
    Two Finger Drag Hotizontal Streamline Icon: https://streamlinehq.com
  </desc>
  <g id="Free Remix/Interface Essential/two-finger-drag-hotizontal">
    <path id="Union" fill="#000000" fill-rule="evenodd" d="M8.571428571428571 1.7143371428571428c0 -0.6933668571428571 -0.4176685714285714 -1.3184571428571428 -1.058262857142857 -1.5837949714285715 -0.6405942857142857 -0.26533851428571426 -1.3779085714285715 -0.11867170285714285 -1.8681942857142855 0.37160982857142855L0.502104 5.645005714285714c-0.6694714285714286 0.669462857142857 -0.6694714285714286 1.7549142857142856 0 2.424377142857143l5.142867428571428 5.142857142857142c0.4902857142857142 0.4902857142857142 1.2275999999999998 0.63696 1.8681942857142855 0.37158857142857143 0.6405942857142857 -0.2653371428571428 1.058262857142857 -0.8903999999999999 1.058262857142857 -1.5837942857142857v-3H13.714285714285714c1.1834742857142857 0 2.142857142857143 -0.9593828571428571 2.142857142857143 -2.142857142857143 0 -1.1834399999999998 -0.9593828571428571 -2.142857142857143 -2.142857142857143 -2.142857142857143H8.571428571428571V1.7143371428571428Zm31.915542857142857 -1.5837949714285715c0.6404571428571428 -0.26533851428571426 1.377942857142857 -0.11867170285714285 1.8682285714285716 0.37160982857142855l5.142857142857142 5.142853714285715c0.6692571428571429 0.669462857142857 0.6692571428571429 1.7549142857142856 0 2.424377142857143l-5.142857142857142 5.142857142857142c-0.4902857142857142 0.4902857142857142 -1.2277714285714285 0.63696 -1.8682285714285716 0.37158857142857143 -0.6408 -0.2653371428571428 -1.0583999999999998 -0.8903999999999999 -1.0583999999999998 -1.5837942857142857v-3H34.285714285714285c-1.1834742857142857 0 -2.142857142857143 -0.9593828571428571 -2.142857142857143 -2.142857142857143 0 -1.1834399999999998 0.9593828571428571 -2.142857142857143 2.142857142857143 -2.142857142857143h5.142857142857142V1.7143371428571428c0 -0.6933668571428571 0.41759999999999997 -1.3184571428571428 1.0583999999999998 -1.5837949714285715ZM5.080491428571428 44.03108571428571c-3.315236571428571 -4.680342857142857 -0.7917942857142857 -11.226822857142857 4.8071657142857145 -12.471051428571428l1.2551999999999999 -0.2789142857142857 0 -11.11224c0 -3.5352342857142856 2.8545257142857143 -6.407074285714286 6.389725714285714 -6.428434285714285 0.7871999999999999 -0.0047657142857142855 1.5420342857142857 0.13213714285714284 2.2404685714285715 0.3867428571428571 0.4259314285714285 -3.13752 3.115474285714286 -5.555725714285714 6.3698057142857145 -5.555725714285714 3.5503885714285714 0 6.428571428571428 2.878182857142857 6.428571428571428 6.428571428571428v13.29576c4.771542857142856 0.22368000000000002 8.571428571428571 4.163074285714285 8.571428571428571 8.98992v8.571428571428571c0 1.183542857142857 -0.9593142857142857 2.142857142857143 -2.142857142857143 2.142857142857143s-2.142857142857143 -0.9593142857142857 -2.142857142857143 -2.142857142857143v-8.571428571428571c0 -2.6036571428571427 -2.1106285714285713 -4.714251428571428 -4.714285714285714 -4.714251428571428h-1.7142857142857142c-0.5683199999999999 0 -1.11336 -0.22573714285714283 -1.515222857142857 -0.6275999999999999 -0.4018628571428571 -0.4018628571428571 -0.6276342857142857 -0.9469371428571428 -0.6276342857142857 -1.5152571428571429v-15.428571428571427c0 -1.1834399999999998 -0.9593828571428571 -2.142857142857143 -2.142857142857143 -2.142857142857143S24 13.816594285714284 24 15.000034285714284l0 5.168845714285713v8.974011428571428l0 1.2857142857142856c0 1.1834742857142857 -0.9593828571428571 2.142857142857143 -2.142857142857143 2.142857142857143s-2.142857142857143 -0.9593828571428571 -2.142857142857143 -2.142857142857143v-1.28304l0 -0.002674285714285714V20.16888c0 -1.1885142857142856 -0.967302857142857 -2.149988571428571 -2.155817142857143 -2.1428228571428574 -1.1784 0.007131428571428571 -2.1298971428571427 0.964422857142857 -2.1298971428571427 2.1428228571428574l0 12.831154285714286c0 1.004365714285714 -0.6975771428571428 1.8740228571428572 -1.6780114285714285 2.0917371428571427l-2.933211428571428 0.6517714285714286c-2.6084914285714285 0.5797714285714285 -3.784148571428571 3.629828571428571 -2.2396114285714286 5.8104l2.170902857142857 3.0648c0.6840342857142857 0.9654857142857143 0.4556914285714285 2.3029714285714284 -0.5100342857142857 2.986971428571428s-2.303177142857143 0.4556571428571428 -2.9872457142857143 -0.5098285714285714l-2.170868571428571 -3.0648Z" clip-rule="evenodd" stroke-width="3.4286"></path>
  </g>
</svg>