<svg xmlns="http://www.w3.org/2000/svg" fill="none" viewBox="0 0 48 48" id="Two-Finger-Tap--Streamline-Core-Remix" height="48" width="48">
  <desc>
    Two Finger Tap Streamline Icon: https://streamlinehq.com
  </desc>
  <g id="Free Remix/Interface Essential/two-finger-tap">
    <path id="Union" fill="#000000" fill-rule="evenodd" d="M27.779999999999994 5.5200000000000005c-3.2962285714285713 0 -6.222857142857142 1.5795428571428571 -8.066057142857142 4.033371428571428 -0.4758857142857143 0.6335999999999999 -1.2222857142857142 1.0066285714285714 -2.014628571428571 1.0066285714285714 -4.174971428571428 0.00034285714285714285 -7.559314285714286 3.3850285714285713 -7.559314285714286 7.56 0 0.432 0.036 0.8537142857142856 0.10457142857142857 1.2630857142857141 0.23039999999999997 1.3724571428571428 -0.6956571428571429 2.671885714285714 -2.0681142857142856 2.901942857142857 -1.3724571428571428 0.23039999999999997 -2.671885714285714 -0.6956571428571429 -2.902285714285714 -2.0681142857142856 -0.11451428571428571 -0.6836571428571429 -0.17417142857142856 -1.3844571428571428 -0.17417142857142856 -2.0969142857142855 0 -6.538971428571428 4.981371428571428 -11.91462857142857 11.356114285714284 -12.539314285714285C19.223314285714284 2.4558857142857144 23.27108571428571 0.48000000000000004 27.779999999999994 0.48000000000000004c8.35062857142857 0 15.12 6.769371428571428 15.12 15.12 0 0.7724571428571428 -0.05828571428571429 1.5329142857142857 -0.1707428571428571 2.2769142857142857 -0.20845714285714284 1.3762285714285714 -1.492457142857143 2.3232 -2.868342857142857 2.1147428571428573 -1.3762285714285714 -0.2081142857142857 -2.3232 -1.4921142857142855 -2.1147428571428573 -2.868342857142857 0.07474285714285714 -0.4954285714285714 0.11382857142857142 -1.0042285714285712 0.11382857142857142 -1.5233142857142856 0 -5.566971428571428 -4.513028571428571 -10.08 -10.08 -10.08ZM13.079999999999998 32.309485714285714c-5.346171428571428 1.1458285714285714 -7.952228571428571 7.336799999999999 -4.923085714285714 11.98182857142857l1.4842285714285715 2.275542857142857c0.6335999999999999 0.9713142857142857 1.934742857142857 1.2456 2.9060571428571427 0.612 0.9713142857142857 -0.6339428571428571 1.2452571428571428 -1.934742857142857 0.612 -2.9060571428571427l-1.4842285714285715 -2.275885714285714c-1.4437714285714285 -2.213485714285714 -0.14022857142857142 -5.180571428571428 2.4661714285714287 -5.614971428571428l1.3841142857142856 -0.23074285714285714c1.0128 -0.16868571428571427 1.7547428571428572 -1.0450285714285714 1.7547428571428572 -2.0715428571428567v-12.154285714285713c0 -1.154742857142857 0.9325714285714286 -2.093142857142857 2.0873142857142857 -2.1 1.1646857142857143 -0.007199999999999999 2.112685714285714 0.9353142857142857 2.112685714285714 2.1v10.054628571428571c0 1.159542857142857 0.9401142857142857 2.1 2.1 2.1s2.1 -0.9404571428571428 2.1 -2.1v-15.12c0 -1.1598857142857142 0.9401142857142857 -2.1 2.1 -2.1s2.1 0.9401142857142857 2.1 2.1v15.12c0 0.5568 0.22114285714285714 1.0909714285714285 0.6150857142857142 1.4849142857142856 0.39394285714285715 0.39359999999999995 0.9277714285714286 0.6150857142857142 1.4849142857142856 0.6150857142857142h1.68c2.551542857142857 0 4.619999999999999 2.0681142857142856 4.619999999999999 4.619657142857142v6.72c0 1.1598857142857142 0.9401142857142857 2.1 2.1 2.1s2.1 -0.9401142857142857 2.1 -2.1v-6.72c0 -4.7300571428571425 -3.7241142857142857 -8.59062857142857 -8.4 -8.810057142857142V16.86c0 -3.479314285714285 -2.8206857142857142 -6.299999999999999 -6.299999999999999 -6.299999999999999 -3.1892571428571426 0 -5.825142857142857 2.3698285714285716 -6.2424 5.444571428571429 -0.6843428571428571 -0.2496 -1.4242285714285714 -0.3836571428571428 -2.1956571428571428 -0.3792 -3.4645714285714284 0.021257142857142856 -6.261942857142857 2.835428571428571 -6.261942857142857 6.299999999999999v10.384114285714286Z" clip-rule="evenodd" stroke-width="3.4286"></path>
  </g>
</svg>