<svg xmlns="http://www.w3.org/2000/svg" fill="none" viewBox="0 0 48 48" id="Underline-Text-1--Streamline-Core-Remix" height="48" width="48">
  <desc>
    Underline Text 1 Streamline Icon: https://streamlinehq.com
  </desc>
  <g id="Free Remix/Interface Essential/underline-text-1--text-underline-formatting-format">
    <path id="Union" fill="#000000" fill-rule="evenodd" d="M14.142857142857142 2.142857142857143C14.142857142857142 0.9593897142857143 13.183474285714285 0 12 0s-2.142857142857143 0.9593897142857143 -2.142857142857143 2.142857142857143v21.428571428571427C9.857142857142856 31.38229714285714 16.189131428571425 37.714285714285715 24 37.714285714285715c7.81086857142857 0 14.142857142857142 -6.331988571428571 14.142857142857142 -14.142857142857142V2.142857142857143c0 -1.1834674285714284 -0.9593142857142857 -2.142857142857143 -2.142857142857143 -2.142857142857143s-2.142857142857143 0.9593897142857143 -2.142857142857143 2.142857142857143v21.428571428571427C33.857142857142854 29.015382857142857 29.443954285714288 33.42857142857142 24 33.42857142857142S14.142857142857142 29.015382857142857 14.142857142857142 23.57142857142857V2.142857142857143ZM3.4285714285714284 42c-1.656853714285714 0 -3 1.3433142857142857 -3 3S1.7717177142857141 48 3.4285714285714284 48h41.14285714285714c1.6566857142857143 0 3 -1.3433142857142857 3 -3s-1.3433142857142857 -3 -3 -3H3.4285714285714284Z" clip-rule="evenodd" stroke-width="3.4286"></path>
  </g>
</svg>