<svg xmlns="http://www.w3.org/2000/svg" fill="none" viewBox="0 0 48 48" id="Upload-Circle--Streamline-Core-Remix" height="48" width="48">
  <desc>
    Upload Circle Streamline Icon: https://streamlinehq.com
  </desc>
  <g id="Free Remix/Interface Essential/upload-circle--arrow-circle-download-internet-network-server-up-upload">
    <path id="Union" fill="#000000" fill-rule="evenodd" d="M24.00061714285714 47.999314285714284c13.25424 0 23.999039999999997 -10.7448 23.999039999999997 -23.99910857142857 0 -13.254274285714285 -10.7448 -23.998950133714285 -23.999039999999997 -23.998950133714285S0.0016741062857142856 10.745965714285715 0.0016741062857142856 24.000205714285713c0 13.25430857142857 10.744703036571428 23.99910857142857 23.99894303657143 23.99910857142857Zm19.713325714285713 -23.99910857142857c0 10.887222857142858 -8.82582857142857 19.713394285714283 -19.713325714285713 19.713394285714283 -10.887325714285714 0 -19.713222857142856 -8.826171428571428 -19.713222857142856 -19.713394285714283 0 -10.887325714285714 8.825897142857142 -19.713222857142856 19.713222857142856 -19.713222857142856 10.887154285714285 0 19.713325714285713 8.825897142857142 19.713325714285713 19.713222857142856ZM24.001199999999997 38.143542857142855c-1.1834742857142857 0 -2.142857142857143 -0.9593142857142857 -2.142857142857143 -2.142857142857143V21.85796571428571h-5.571428571428571c-0.8667085714285714 0 -1.64808 -0.5221028571428571 -1.97976 -1.3228114285714285 -0.33168000000000003 -0.8007428571428571 -0.14831999999999998 -1.7224114285714285 0.4645028571428571 -2.3352685714285712l7.7142857142857135 -7.7142857142857135c0.41341714285714287 -0.4133828571428571 0.9536571428571429 -0.6225599999999999 1.4954742857142858 -0.6275314285714285l0.01978285714285714 -0.00010285714285714286 0.01978285714285714 0.00010285714285714286c0.28333714285714284 0.002537142857142857 0.5535428571428571 0.06010285714285714 0.8004342857142857 0.16247999999999999 0.25275428571428565 0.10457142857142857 0.4895314285714285 0.25961142857142855 0.6950057142857142 0.46505142857142856l7.7142857142857135 7.7142857142857135c0.6128571428571428 0.6128571428571428 0.7961828571428571 1.5345257142857143 0.4645028571428571 2.3352685714285712 -0.33168000000000003 0.8007085714285713 -1.1130514285714284 1.3228114285714285 -1.9797257142857143 1.3228114285714285h-5.571428571428571v14.142719999999999c0 1.183542857142857 -0.9594171428571429 2.142857142857143 -2.142857142857143 2.142857142857143Z" clip-rule="evenodd" stroke-width="3.4286"></path>
  </g>
</svg>