<svg xmlns="http://www.w3.org/2000/svg" fill="none" viewBox="0 0 48 48" id="Upload-Computer--Streamline-Core-Remix" height="48" width="48">
  <desc>
    Upload Computer Streamline Icon: https://streamlinehq.com
  </desc>
  <g id="Free Remix/Interface Essential/upload-computer--action-actions-computer-desktop-device-display-monitor-screen-upload">
    <path id="Union" fill="#000000" fill-rule="evenodd" d="M23.999931428571426 27.428571428571427c-1.1834742857142857 0 -2.142857142857143 -0.9593828571428571 -2.142857142857143 -2.142857142857143l0 -15 -3.8571428571428568 0c-0.8667085714285714 0 -1.64808 -0.5221028571428571 -1.9797257142857143 -1.3228114285714285 -0.33168000000000003 -0.8007428571428571 -0.14835428571428572 -1.7224114285714285 0.4645028571428571 -2.3352685714285712l6 -6.000003428571428c0.4133828571428571 -0.41339005714285715 0.9536571428571429 -0.6225685371428572 1.4954399999999999 -0.6275402255999999L23.999931428571426 0l0.01978285714285714 0.00009062811428571427C24.30305142857143 0.002652445714285714 24.57325714285714 0.0602064 24.820182857142857 0.16259657142857142c0.25275428571428565 0.10457142857142857 0.4895314285714285 0.25958057142857144 0.6949714285714285 0.46503085714285713l6 6.000006857142857c0.6128571428571428 0.6128571428571428 0.7961828571428571 1.5345257142857143 0.4645371428571428 2.3352685714285712C31.648011428571426 9.763611428571428 30.866639999999997 10.285714285714285 29.99993142857143 10.285714285714285l-3.8571428571428568 0 0 15c0 1.1834742857142857 -0.9593828571428571 2.142857142857143 -2.142857142857143 2.142857142857143Zm6.132137142857142 12H41.14285714285714c3.077142857142857 0 5.571428571428571 -2.494285714285714 5.571428571428571 -5.571428571428571v-20.57142857142857c0 -3.0770057142857143 -2.494285714285714 -5.571428571428571 -5.571428571428571 -5.571428571428571h-1.7142857142857142c-1.183542857142857 0 -2.142857142857143 0.9593828571428571 -2.142857142857143 2.142857142857143s0.9593142857142857 2.142857142857143 2.142857142857143 2.142857142857143h1.7142857142857142c0.7100571428571428 0 1.2857142857142856 0.5756228571428571 1.2857142857142856 1.2857142857142856v20.57142857142857c0 0.7100571428571428 -0.5756571428571428 1.2857142857142856 -1.2857142857142856 1.2857142857142856H6.857142857142857c-0.7100914285714285 0 -1.2857142857142856 -0.5756571428571428 -1.2857142857142856 -1.2857142857142856v-20.57142857142857c0 -0.7100914285714285 0.5756228571428571 -1.2857142857142856 1.2857142857142856 -1.2857142857142856h1.7142857142857142c1.1834742857142857 0 2.142857142857143 -0.9593828571428571 2.142857142857143 -2.142857142857143S9.754902857142858 7.7142857142857135 8.571428571428571 7.7142857142857135H6.857142857142857c-3.0770057142857143 0 -5.571428571428571 2.494422857142857 -5.571428571428571 5.571428571428571v20.57142857142857c0 3.077142857142857 2.494422857142857 5.571428571428571 5.571428571428571 5.571428571428571h11.01078857142857l-1.7142857142857142 4.285714285714286H13.714285714285714c-1.1834742857142857 0 -2.142857142857143 0.9593142857142857 -2.142857142857143 2.142857142857143S12.530811428571427 48 13.714285714285714 48h20.57142857142857c1.183542857142857 0 2.142857142857143 -0.9593142857142857 2.142857142857143 -2.142857142857143s-0.9593142857142857 -2.142857142857143 -2.142857142857143 -2.142857142857143h-2.4393599999999998l-1.7142857142857142 -4.285714285714286Z" clip-rule="evenodd" stroke-width="3.4286"></path>
  </g>
</svg>