<svg xmlns="http://www.w3.org/2000/svg" fill="none" viewBox="0 0 48 48" id="User-Profile-Focus--Streamline-Core-Remix" height="48" width="48">
  <desc>
    User Profile Focus Streamline Icon: https://streamlinehq.com
  </desc>
  <g id="Free Remix/Interface Essential/user-profile-focus--close-geometric-human-person-profile-focus-user">
    <path id="Union" fill="#000000" fill-rule="evenodd" d="M4.733108571428571 4.733931428571428c0.2811085714285714 -0.2811085714285714 0.6623657142857142 -0.43899428571428567 1.05984 -0.43899428571428567h7.283485714285715c1.1834742857142857 0 2.142857142857143 -0.9594034285714286 2.142857142857143 -2.142870857142857s-0.9593828571428571 -2.1428586857142857 -2.142857142857143 -2.1428586857142857H5.792948571428571c-1.534182857142857 0 -3.0055234285714283 0.6094815428571428 -4.090340571428571 1.6943364C0.6177977142857142 2.788395428571428 0.008370548571428571 4.259759999999999 0.008370548571428571 5.793942857142857v7.283725714285715c0 1.1834742857142857 0.9593883085714285 2.142857142857143 2.1428557371428574 2.142857142857143 1.1834674285714284 0 2.1428537142857143 -0.9593828571428571 2.1428537142857143 -2.142857142857143V5.793942857142857c0 -0.39761142857142856 0.1579542857142857 -0.7788685714285715 0.4390285714285714 -1.0600114285714286ZM32.784034285714284 2.1520662857142856c0 -1.1834674285714284 0.9593828571428571 -2.1428586857142857 2.1428228571428574 -2.1428586857142857h7.283657142857143c1.533942857142857 0 3.0054857142857143 0.6094815428571428 4.090285714285714 1.6943364 1.0848 1.0848514285714286 1.6940571428571427 2.5562159999999996 1.6940571428571427 4.090398857142857v7.283725714285715c0 1.1834742857142857 -0.9593142857142857 2.142857142857143 -2.142857142857143 2.142857142857143 -1.1832 0 -2.142857142857143 -0.9593828571428571 -2.142857142857143 -2.142857142857143V5.793942857142857c0 -0.39761142857142856 -0.1577142857142857 -0.7788685714285715 -0.43885714285714283 -1.0600114285714286 -0.28114285714285714 -0.2811085714285714 -0.6624 -0.43899428571428567 -1.0597714285714284 -0.43899428571428567H34.92685714285714c-1.1834399999999998 0 -2.1428228571428574 -0.9594034285714286 -2.1428228571428574 -2.142870857142857ZM45.852 32.785714285714285c1.183542857142857 0 2.142857142857143 0.9593828571428571 2.142857142857143 2.142857142857143v7.283657142857143c0 1.5342857142857143 -0.6092571428571428 3.0054857142857143 -1.6940571428571427 4.090628571428572 -1.0848 1.0848 -2.556342857142857 1.6940571428571427 -4.090285714285714 1.6940571428571427H34.92685714285714c-1.1834399999999998 0 -2.1428228571428574 -0.9593142857142857 -2.1428228571428574 -2.142857142857143 0 -1.1832 0.9593828571428571 -2.142857142857143 2.1428228571428574 -2.142857142857143h7.283657142857143c0.39737142857142854 0 0.7786285714285713 -0.1577142857142857 1.0597714285714284 -0.43885714285714283 0.28114285714285714 -0.28114285714285714 0.43885714285714283 -0.6624 0.43885714285714283 -1.0601142857142856v-7.283657142857143c0 -1.1834742857142857 0.9596571428571428 -2.142857142857143 2.142857142857143 -2.142857142857143Zm-43.70077371428572 0c1.1834674285714284 0 2.1428537142857143 0.9593828571428571 2.1428537142857143 2.142857142857143v7.283657142857143c0 0.3977142857142857 0.1579542857142857 0.7789714285714285 0.4390285714285714 1.0601142857142856 0.2811085714285714 0.28114285714285714 0.6623657142857142 0.43885714285714283 1.05984 0.43885714285714283h7.283485714285715c1.1834742857142857 0 2.142857142857143 0.9596571428571428 2.142857142857143 2.142857142857143 0 1.183542857142857 -0.9593828571428571 2.142857142857143 -2.142857142857143 2.142857142857143H5.792948571428571c-1.534182857142857 0 -3.0055234285714283 -0.6092571428571428 -4.090340571428571 -1.6940571428571427 -1.0848102857142856 -1.0851428571428572 -1.6942374514285714 -2.556342857142857 -1.6942374514285714 -4.090628571428572v-7.283657142857143c0 -1.1834742857142857 0.9593883085714285 -2.142857142857143 2.1428557371428574 -2.142857142857143ZM23.999142857142854 9.857142857142856c-2.6036228571428572 0 -4.714251428571428 2.1106285714285713 -4.714251428571428 4.714251428571428 0 2.6036228571428572 2.1106285714285713 4.714251428571428 4.714251428571428 4.714251428571428 2.6035885714285714 0 4.714217142857143 -2.1106285714285713 4.714217142857143 -4.714251428571428 0 -2.6036228571428572 -2.1106285714285713 -4.714251428571428 -4.714217142857143 -4.714251428571428ZM14.999177142857143 14.571394285714286C14.999177142857143 9.600857142857143 19.02857142857143 5.571428571428571 23.999142857142854 5.571428571428571c4.970537142857142 0 8.999931428571427 4.0294285714285705 8.999931428571427 8.999965714285713S28.96968 23.57136 23.999142857142854 23.57136c-4.970571428571429 0 -8.999965714285713 -4.0294285714285705 -8.999965714285713 -8.999965714285713ZM23.999005714285715 26.57142857142857c-7.191428571428571 0 -13.229759999999999 4.918628571428571 -14.9424 11.572799999999999 -0.13210285714285713 0.5132571428571429 -0.01937142857142857 1.0587428571428572 0.3053485714285714 1.4773714285714286 0.3246857142857143 0.41897142857142855 0.82488 0.6641142857142858 1.3548342857142857 0.6641142857142858h26.56446857142857c0.5300571428571428 0 1.0302857142857142 -0.2451428571428571 1.3549714285714285 -0.6641142857142858 0.3246857142857143 -0.4186285714285714 0.4371428571428571 -0.9641142857142857 0.3051428571428571 -1.4773714285714286C37.2288 31.49005714285714 31.19046857142857 26.57142857142857 23.999005714285715 26.57142857142857Z" clip-rule="evenodd" stroke-width="3.4286"></path>
  </g>
</svg>