<svg xmlns="http://www.w3.org/2000/svg" fill="none" viewBox="0 0 48 48" id="User-Single-Neutral-Male--Streamline-Core-Remix" height="48" width="48">
  <desc>
    User Single Neutral Male Streamline Icon: https://streamlinehq.com
  </desc>
  <g id="Free Remix/Interface Essential/user-single-neutral-male--close-geometric-human-person-single-user-male">
    <path id="Union" fill="#000000" fill-rule="evenodd" d="M15.857142857142856 13.714285714285714V7.880262857142857c0.33383999999999997 -0.23444571428571426 0.7962514285714285 -0.5254628571428571 1.3868914285714284 -0.8207657142857142C18.696274285714285 6.333359999999999 20.941645714285716 5.571428571428571 24 5.571428571428571s5.303725714285714 0.7619314285714286 6.755965714285714 1.4880685714285713c0.5906742857142856 0.29530285714285714 1.0530857142857142 0.58632 1.3868914285714284 0.8207657142857142V13.714285714285714c0 4.497188571428571 -3.6456685714285713 8.142857142857142 -8.142857142857142 8.142857142857142 -4.497154285714285 0 -8.142857142857142 -3.6456685714285713 -8.142857142857142 -8.142857142857142Zm19.943657142857145 -8.372365714285715L34.285714285714285 6.857142857142857c1.5150857142857141 -1.515222857142857 1.5143999999999997 -1.5159771428571427 1.5137142857142856 -1.5167314285714284l-0.0017142857142857142 -0.0016114285714285714 -0.0034285714285714284 -0.0034285714285714284 -0.007885714285714286 -0.007817142857142856 -0.019885714285714284 -0.019337142857142855 -0.05554285714285714 -0.052868571428571424c-0.043885714285714285 -0.04134857142857142 -0.10217142857142857 -0.09466285714285713 -0.17485714285714285 -0.1581942857142857 -0.14502857142857142 -0.1269942857142857 -0.34765714285714283 -0.2950628571428571 -0.607542857142857 -0.49001142857142854 -0.5194285714285714 -0.3896571428571428 -1.2713142857142856 -0.8885828571428571 -2.255965714285714 -1.3809154285714285C30.696274285714285 2.238061714285714 27.798788571428567 1.2857142857142856 24 1.2857142857142856c-3.798788571428571 0 -6.696274285714285 0.9523474285714286 -8.672605714285714 1.9405131428571427 -0.9846514285714285 0.4923325714285714 -1.7363999999999997 0.9912582857142858 -2.255965714285714 1.3809154285714285 -0.25992 0.19494857142857142 -0.4623771428571429 0.3630171428571428 -0.6075085714285714 0.49001142857142854 -0.07258285714285714 0.06353142857142857 -0.13093714285714286 0.11684571428571427 -0.17502857142857142 0.1581942857142857l-0.05554285714285714 0.052868571428571424 -0.01978285714285714 0.019337142857142855 -0.00792 0.007817142857142856 -0.003462857142857143 0.0034285714285714284 -0.0016114285714285714 0.0016114285714285714C12.199817142857142 5.341165714285713 12.199062857142856 5.34192 13.714285714285714 6.857142857142857l-1.515222857142857 -1.515222857142857C11.7972 5.743782857142857 11.571428571428571 6.288822857142857 11.571428571428571 6.857142857142857v6.857142857142857c0 6.864102857142857 5.564468571428571 12.428571428571427 12.428571428571427 12.428571428571427 6.8641371428571425 0 12.428571428571427 -5.564468571428571 12.428571428571427 -12.428571428571427V6.857142857142857c0 -0.5683199999999999 -0.22559999999999997 -1.11336 -0.6277714285714285 -1.515222857142857ZM1.444110857142857 43.746514285714284C5.123794285714285 34.92274285714286 13.834148571428571 28.71428571428571 23.999622857142853 28.71428571428571c10.16544 0 18.87569142857143 6.208457142857142 22.555577142857143 15.032228571428572 0.2756571428571428 0.6613714285714285 0.2026285714285714 1.4170285714285713 -0.19474285714285713 2.013257142857143 -0.39737142857142854 0.5962285714285714 -1.0666285714285713 0.9545142857142856 -1.7832 0.9545142857142856H3.421882285714285c-0.7165851428571428 0 -1.3857428571428572 -0.35828571428571426 -1.783141714285714 -0.9545142857142856 -0.3974022857142857 -0.5962285714285714 -0.47044114285714284 -1.3518857142857141 -0.19462971428571427 -2.013257142857143Z" clip-rule="evenodd" stroke-width="3.4286"></path>
  </g>
</svg>