<svg xmlns="http://www.w3.org/2000/svg" fill="none" viewBox="0 0 48 48" id="User-Multiple-Circle--Streamline-Core-Remix" height="48" width="48">
  <desc>
    User Multiple Circle Streamline Icon: https://streamlinehq.com
  </desc>
  <g id="Free Remix/Interface Essential/user-multiple-circle--close-geometric-human-multiple-person-user-circle">
    <path id="Union" fill="#000000" fill-rule="evenodd" d="M24.00061714285714 0.0016741062857142856C10.746377142857142 0.0016741062857142856 0.0016741062857142856 10.746377142857142 0.0016741062857142856 24.00061714285714c0 5.492948571428571 1.8454138937142854 10.554925714285714 4.9500744651428565 14.599611428571427 0.013062857142857142 0.018514285714285716 0.02650285714285714 0.03668571428571428 0.04035428571428571 0.054514285714285717C9.378137142857142 44.335885714285716 16.261439999999997 48 23.999794285714284 48c1.4487771428571428 0 2.8688571428571428 -0.12857142857142856 4.249028571428571 -0.3754285714285714 0.07673142857142858 -0.013714285714285714 0.15336 -0.02777142857142857 0.22981714285714286 -0.04217142857142857 11.114159999999998 -2.0976 19.52101714285714 -11.857714285714284 19.52101714285714 -23.581782857142855 0 -13.25424 -10.7448 -23.99894303657143 -23.999039999999997 -23.99894303657143ZM30.852137142857142 42.49062857142857c1.4635542857142858 -0.5424 2.8451314285714284 -1.2538285714285715 4.1210057142857135 -2.1102857142857143 -0.4416 -3.209142857142857 -1.7291657142857142 -6.148594285714285 -3.6305142857142854 -8.585759999999999C32.77436571428571 31.191085714285713 34.34811428571428 30.857142857142854 35.99965714285714 30.857142857142854c2.1236571428571427 0 4.119771428571428 0.5526514285714286 5.8508571428571425 1.5209485714285713 1.1952 -2.542525714285714 1.8634285714285712 -5.381965714285713 1.8634285714285712 -8.377474285714285 0 -10.887325714285714 -8.826171428571428 -19.713222857142856 -19.713325714285713 -19.713222857142856 -10.887325714285714 0 -19.713222857142856 8.825897142857142 -19.713222857142856 19.713222857142856 0 3.553782857142857 0.9403542857142857 6.887931428571429 2.5858285714285714 9.767177142857141C9.384617142857142 30.932434285714283 13.053702857142856 29.142857142857142 17.142651428571426 29.142857142857142c7.451622857142857 0 13.51518857142857 5.943085714285714 13.709485714285714 13.347771428571427ZM17.142857142857142 15.307199999999998c-1.9605942857142857 0 -3.5499428571428573 1.5893485714285713 -3.5499428571428573 3.5499428571428573 0 1.9605942857142857 1.5893485714285713 3.5499428571428573 3.5499428571428573 3.5499428571428573 1.9605942857142857 0 3.5499428571428573 -1.5893485714285713 3.5499428571428573 -3.5499428571428573 0 -1.9605942857142857 -1.5893485714285713 -3.5499428571428573 -3.5499428571428573 -3.5499428571428573ZM9.3072 18.857142857142858c0 -4.327508571428571 3.508148571428571 -7.835657142857142 7.835657142857142 -7.835657142857142 4.327508571428571 0 7.835657142857142 3.508148571428571 7.835657142857142 7.835657142857142 0 4.327508571428571 -3.508148571428571 7.835657142857142 -7.835657142857142 7.835657142857142 -4.327508571428571 0 -7.835657142857142 -3.508148571428571 -7.835657142857142 -7.835657142857142Zm24.344022857142857 3.4285714285714284c0 -1.2972 1.0517485714285713 -2.3487771428571427 2.3487771428571427 -2.3487771428571427s2.3489142857142857 1.0515771428571428 2.3489142857142857 2.3487771428571427 -1.0518857142857143 2.3487771428571427 -2.3489142857142857 2.3487771428571427 -2.3487771428571427 -1.0515771428571428 -2.3487771428571427 -2.3487771428571427ZM36 15.651222857142857c-3.6641142857142857 0 -6.634491428571428 2.9703771428571426 -6.634491428571428 6.634491428571428S32.335885714285716 28.920205714285714 36 28.920205714285714 42.63462857142857 25.94982857142857 42.63462857142857 22.285714285714285 39.664114285714284 15.651222857142857 36 15.651222857142857Z" clip-rule="evenodd" stroke-width="3.4286"></path>
  </g>
</svg>