<svg xmlns="http://www.w3.org/2000/svg" fill="none" viewBox="0 0 48 48" id="User-Multiple-Group--Streamline-Core-Remix" height="48" width="48">
  <desc>
    User Multiple Group Streamline Icon: https://streamlinehq.com
  </desc>
  <g id="Free Remix/Interface Essential/user-multiple-group--close-geometric-human-multiple-person-user">
    <path id="Union" fill="#000000" fill-rule="evenodd" d="M30.259474285714283 7.323051428571428c0.19494857142857142 -0.024582857142857142 0.39445714285714284 -0.03733714285714285 0.5979428571428571 -0.03733714285714285 2.6036228571428572 0 4.714354285714285 2.110662857142857 4.714354285714285 4.714285714285714s-2.1107314285714285 4.714285714285714 -4.714354285714285 4.714285714285714c-0.20348571428571427 0 -0.4029942857142857 -0.012754285714285715 -0.5979428571428571 -0.03733714285714285 -1.174182857142857 -0.14790857142857142 -2.245954285714286 0.6840342857142857 -2.3938971428571425 1.8582171428571428 -0.14794285714285713 1.174182857142857 0.684 2.245954285714286 1.858182857142857 2.3938971428571425 0.37220571428571425 0.046902857142857135 0.7506171428571429 0.07093714285714285 1.1336571428571427 0.07093714285714285 4.970468571428571 0 9.00006857142857 -4.0294285714285705 9.00006857142857 -9S35.82788571428571 3 30.857417142857145 3c-0.38304 0 -0.7614514285714286 0.024048 -1.1336571428571427 0.07094057142857142 -1.174182857142857 0.1479325714285714 -2.006125714285714 1.219710857142857 -1.858182857142857 2.3938937142857144 0.14794285714285713 1.174182857142857 1.2197142857142858 2.006125714285714 2.3938971428571425 1.8582171428571428Zm5.655154285714286 17.413817142857145c-1.1328 -0.34213714285714286 -2.328617142857143 0.2989028571428571 -2.6707542857142856 1.4318057142857141 -0.34217142857142857 1.1329371428571429 0.29886857142857143 2.3287199999999997 1.4316685714285713 2.6708914285714282 5.1085714285714285 1.5427885714285714 8.814514285714285 6.083519999999999 9.037028571428571 11.457462857142856H40.285714285714285c-1.1832 0 -2.142857142857143 0.9593142857142857 -2.142857142857143 2.142857142857143s0.9596571428571428 2.142857142857143 2.142857142857143 2.142857142857143h5.580342857142857c1.183542857142857 0 2.142857142857143 -0.9593142857142857 2.142857142857143 -2.142857142857143v-1.6302857142857141c0 -7.592228571428571 -5.1192 -13.966182857142858 -12.094285714285713 -16.072731428571426Zm-18.770742857142857 -0.7427314285714285c-9.424697142857143 0 -17.147233926857144 7.483542857142857 -17.147233926857144 16.815462857142858v1.6302857142857141c0 1.1832 0.9593882125714286 2.142857142857143 2.142855641142857 2.142857142857143H32.14827428571429c1.1834742857142857 0 2.142925714285714 -0.9596571428571428 2.142925714285714 -2.142857142857143v-1.6302857142857141c0 -9.33192 -7.722582857142856 -16.815462857142858 -17.147314285714284 -16.815462857142858ZM12.428571428571427 12c0 -2.6036228571428572 2.110662857142857 -4.714285714285714 4.714285714285714 -4.714285714285714s4.714285714285714 2.110662857142857 4.714285714285714 4.714285714285714S19.74648 16.71428571428571 17.142857142857142 16.71428571428571 12.428571428571427 14.603622857142856 12.428571428571427 12ZM17.142857142857142 3C12.172285714285714 3 8.142857142857142 7.029428571428571 8.142857142857142 12S12.172285714285714 21 17.142857142857142 21 26.142857142857142 16.97057142857143 26.142857142857142 12 22.11342857142857 3 17.142857142857142 3Z" clip-rule="evenodd" stroke-width="3.4286"></path>
  </g>
</svg>