<svg xmlns="http://www.w3.org/2000/svg" fill="none" viewBox="0 0 48 48" id="User-Add-Plus--Streamline-Core-Remix" height="48" width="48">
  <desc>
    User Add Plus Streamline Icon: https://streamlinehq.com
  </desc>
  <g id="Free Remix/Interface Essential/user-add-plus--actions-add-close-geometric-human-person-plus-single-user">
    <path id="Union" fill="#000000" fill-rule="evenodd" d="M11.131131428571427 10.288354285714286c0 -3.3188914285714284 2.6897142857142855 -6.008502857142857 6.006548571428572 -6.008502857142857 3.3168342857142856 0 6.006548571428572 2.6896114285714283 6.006548571428572 6.008502857142857s-2.6897142857142855 6.008502857142857 -6.006548571428572 6.008502857142857c-3.3168342857142856 0 -6.006548571428572 -2.6896114285714283 -6.006548571428572 -6.008502857142857ZM17.13768 -0.005859359999999999c-5.684742857142857 0 -10.292262857142857 4.609367931428571 -10.292262857142857 10.294213645714285 0 5.684845714285714 4.60752 10.294217142857141 10.292262857142857 10.294217142857141S27.42994285714286 15.9732 27.42994285714286 10.288354285714286c0 -5.684845714285714 -4.60752 -10.294213645714285 -10.292262857142857 -10.294213645714285ZM38.57142857142857 26.57142857142857c0 -1.4201485714285715 -1.1513142857142855 -2.571428571428571 -2.571428571428571 -2.571428571428571s-2.571428571428571 1.1512799999999999 -2.571428571428571 2.571428571428571v6.857142857142857h-6.857142857142857c-1.4201485714285715 0 -2.571428571428571 1.1513142857142855 -2.571428571428571 2.571428571428571s1.1512799999999999 2.571428571428571 2.571428571428571 2.571428571428571h6.857142857142857v6.857142857142857c0 1.4201142857142857 1.1513142857142855 2.571428571428571 2.571428571428571 2.571428571428571s2.571428571428571 -1.1513142857142855 2.571428571428571 -2.571428571428571v-6.857142857142857h6.857142857142857c1.4201142857142857 0 2.571428571428571 -1.1513142857142855 2.571428571428571 -2.571428571428571s-1.1513142857142855 -2.571428571428571 -2.571428571428571 -2.571428571428571h-6.857142857142857v-6.857142857142857Zm-8.782662857142856 3.4285714285714284H26.57142857142857C23.257714285714286 30 20.57142857142857 32.68628571428571 20.57142857142857 36s2.686285714285714 6 6 6h3.4285714285714284v2.5649142857142855H2.1445302857142856c-1.1834674285714284 0 -2.142856179428571 -0.9596571428571428 -2.142856179428571 -2.142857142857143C0.0016741062857142856 32.419714285714285 7.511657142857143 24.005862857142855 17.137371428571427 24.005862857142855c5.064857142857142 0 9.543942857142858 2.3294742857142854 12.651394285714284 5.994137142857142Z" clip-rule="evenodd" stroke-width="3.4286"></path>
  </g>
</svg>