<svg xmlns="http://www.w3.org/2000/svg" fill="none" viewBox="0 0 48 48" id="User-Sync-Online-In-Person--Streamline-Core-Remix" height="48" width="48">
  <desc>
    User Sync Online In Person Streamline Icon: https://streamlinehq.com
  </desc>
  <g id="Free Remix/Interface Essential/user-sync-online-in-person">
    <path id="Union" fill="#000000" fill-rule="evenodd" d="M23.998662857142854 4.283211428571429c-10.889005714285714 0 -19.71630857142857 8.827302857142856 -19.71630857142857 19.71630857142857 0 1.1834742857142857 -0.9593725714285714 2.142857142857143 -2.1428399999999996 2.142857142857143s-2.142862498285714 -0.9593828571428571 -2.142862498285714 -2.142857142857143c0 -13.255954285714285 10.746056784 -24.002031161142856 24.002011069714282 -24.002031161142856 7.360834285714286 0 13.944994285714284 3.3131637325714283 18.346594285714286 8.526214018285714l1.9974857142857143 -1.9973828571428571c0.6130285714285714 -0.6128228571428571 1.5346285714285712 -0.7961485714285714 2.3352 -0.4645028571428571 0.8009142857142857 0.33168000000000003 1.322742857142857 1.1130514285714284 1.322742857142857 1.97976v7.550125714285714c0 1.1834742857142857 -0.9593142857142857 2.142857142857143 -2.142857142857143 2.142857142857143h-1.6093714285714285c-0.04354285714285714 0.001337142857142857 -0.08674285714285714 0.001337142857142857 -0.12994285714285714 0h-5.810742857142857c-0.8667428571428571 0 -1.6481142857142856 -0.5220685714285713 -1.9796571428571428 -1.3228114285714285 -0.3318857142857143 -0.8007428571428571 -0.14845714285714284 -1.7224114285714285 0.4645714285714286 -2.3352685714285712l2.5097142857142853 -2.5097142857142853c-3.6164571428571426 -4.445828571428571 -9.13014857142857 -7.283554285714285 -15.303737142857141 -7.283554285714285Zm21.858137142857142 17.57310857142857c1.1832 0 2.142857142857143 0.9593828571428571 2.142857142857143 2.142857142857143 0 13.256022857142856 -10.746171428571428 24.001851428571428 -24.00216 24.001851428571428 -7.360594285714286 0 -13.944651428571428 -3.312685714285714 -18.346251428571428 -8.525485714285715l-1.996525714285714 1.996457142857143c-0.612846857142857 0.6126857142857143 -1.5345257142857143 0.7961142857142857 -2.335254857142857 0.4645714285714286 -0.8007257142857143 -0.3318857142857143 -1.3228133554285713 -1.1132571428571427 -1.3228133554285713 -1.9796571428571428V32.406617142857144c0 -1.1834742857142857 0.9593916411428571 -2.142857142857143 2.1428590697142855 -2.142857142857143H3.7607999999999997c0.03469714285714286 -0.0008571428571428571 0.06936 -0.0008571428571428571 0.10392 0h5.825005714285714c0.8667085714285714 0 1.64808 0.5221028571428571 1.97976 1.3228114285714285 0.33168000000000003 0.8007428571428571 0.14831999999999998 1.7224457142857144 -0.4645371428571428 2.3352685714285712l-2.51064 2.5105028571428574c3.6163885714285713 4.445485714285714 9.12984 7.282971428571429 15.30318857142857 7.282971428571429 10.888902857142858 0 19.716445714285715 -8.8272 19.716445714285715 -19.716137142857143 0 -1.1834742857142857 0.9593142857142857 -2.142857142857143 2.142857142857143 -2.142857142857143ZM20.999177142857143 17.142857142857142c0 -1.6568571428571428 1.343142857142857 -3 3 -3s3 1.343142857142857 3 3 -1.343142857142857 3 -3 3 -3 -1.343142857142857 -3 -3Zm3 -7.285714285714286c-4.023805714285714 0 -7.285714285714286 3.261942857142857 -7.285714285714286 7.285714285714286s3.261908571428571 7.285714285714286 7.285714285714286 7.285714285714286c4.023771428571428 0 7.285714285714286 -3.261942857142857 7.285714285714286 -7.285714285714286s-3.261942857142857 -7.285714285714286 -7.285714285714286 -7.285714285714286ZM23.99910857142857 27.428571428571427c-4.220468571428571 0 -7.843474285714285 2.541668571428571 -9.429085714285714 6.170777142857142 -0.2315657142857143 0.5300228571428571 -0.18027428571428572 1.1409942857142856 0.13642285714285712 1.6251085714285713 0.31669714285714284 0.4837714285714286 0.85608 0.7755428571428571 1.434445714285714 0.7755428571428571h15.716434285714286c0.5783657142857143 0 1.117782857142857 -0.2917714285714285 1.4344799999999998 -0.7755428571428571 0.31666285714285713 -0.48411428571428566 0.3679885714285714 -1.0950857142857142 0.13642285714285712 -1.6251085714285713C31.84258285714285 29.970239999999997 28.21957714285714 27.428571428571427 23.99910857142857 27.428571428571427Z" clip-rule="evenodd" stroke-width="3.4286"></path>
  </g>
</svg>