<svg xmlns="http://www.w3.org/2000/svg" fill="none" viewBox="0 0 48 48" id="User-Identifier-Card--Streamline-Core-Remix" height="48" width="48">
  <desc>
    User Identifier Card Streamline Icon: https://streamlinehq.com
  </desc>
  <g id="Free Remix/Interface Essential/user-identifier-card">
    <path id="Union" fill="#000000" fill-rule="evenodd" d="M24 3.4202022857142853c1.1834742857142857 0 2.142857142857143 0.9593862857142856 2.142857142857143 2.1428605714285713v3h16.77702857142857c2.8073142857142854 0 5.0832 2.2759199999999997 5.0832 5.0834399999999995v25.842411428571427c0 2.8076571428571424 -2.275885714285714 5.083542857142857 -5.0832 5.083542857142857H5.08008c-2.807496 0 -5.083428212571428 -2.2762285714285713 -5.083428212571428 -5.083542857142857V13.646502857142856c0 -2.80752 2.2759390697142856 -5.0834399999999995 5.083428212571428 -5.0834399999999995H21.857142857142858v-3c0 -1.1834742857142857 0.9593828571428571 -2.1428605714285713 2.142857142857143 -2.1428605714285713ZM21.857142857142858 12.848777142857141H5.08008c-0.44057142857142856 0 -0.7977257142857141 0.3571542857142857 -0.7977257142857141 0.7977257142857141v25.842411428571427c0 0.3305142857142857 0.20101714285714284 0.6140571428571429 0.4874742857142857 0.7350857142857142C5.932937142857142 35.81897142857143 9.944914285714285 32.57142857142857 14.715394285714286 32.57142857142857c4.793074285714286 0 8.820411428571429 3.2784 9.96192 7.715314285714286h18.242571428571427c0.44057142857142856 0 0.7974857142857142 -0.35725714285714283 0.7974857142857142 -0.7978285714285713V13.646502857142856c0 -0.44057142857142856 -0.3569142857142857 -0.7977257142857141 -0.7974857142857142 -0.7977257142857141H26.142857142857142v3c0 1.1834742857142857 -0.9593828571428571 2.142857142857143 -2.142857142857143 2.142857142857143s-2.142857142857143 -0.9593828571428571 -2.142857142857143 -2.142857142857143v-3ZM14.715394285714286 21.857142857142858c-1.1834742857142857 0 -2.142857142857143 0.9593828571428571 -2.142857142857143 2.142857142857143s0.9593828571428571 2.142857142857143 2.142857142857143 2.142857142857143 2.142857142857143 -0.9593828571428571 2.142857142857143 -2.142857142857143 -0.9593828571428571 -2.142857142857143 -2.142857142857143 -2.142857142857143ZM8.286822857142857 24c0 -3.5503885714285714 2.878182857142857 -6.428571428571428 6.428571428571428 -6.428571428571428 3.5504228571428564 0 6.428571428571428 2.878182857142857 6.428571428571428 6.428571428571428s-2.878148571428571 6.428571428571428 -6.428571428571428 6.428571428571428c-3.5503885714285714 0 -6.428571428571428 -2.878182857142857 -6.428571428571428 -6.428571428571428ZM29.57142857142857 21.428571428571427c0 -1.1834742857142857 0.9593828571428571 -2.142857142857143 2.142857142857143 -2.142857142857143h6.857142857142857c1.183542857142857 0 2.142857142857143 0.9593828571428571 2.142857142857143 2.142857142857143s-0.9593142857142857 2.142857142857143 -2.142857142857143 2.142857142857143h-6.857142857142857c-1.1834742857142857 0 -2.142857142857143 -0.9593828571428571 -2.142857142857143 -2.142857142857143Zm2.142857142857143 5.571428571428571c-1.1834742857142857 0 -2.142857142857143 0.9593828571428571 -2.142857142857143 2.142857142857143s0.9593828571428571 2.142857142857143 2.142857142857143 2.142857142857143h6.857142857142857c1.183542857142857 0 2.142857142857143 -0.9593828571428571 2.142857142857143 -2.142857142857143s-0.9593142857142857 -2.142857142857143 -2.142857142857143 -2.142857142857143h-6.857142857142857Z" clip-rule="evenodd" stroke-width="3.4286"></path>
  </g>
</svg>