<svg xmlns="http://www.w3.org/2000/svg" fill="none" viewBox="0 0 48 48" id="User-Circle-Single--Streamline-Core-Remix" height="48" width="48">
  <desc>
    User Circle Single Streamline Icon: https://streamlinehq.com
  </desc>
  <g id="Free Remix/Interface Essential/user-circle-single--circle-geometric-human-person-single-user">
    <path id="Union" fill="#000000" fill-rule="evenodd" d="M24.00061714285714 0.0016741062857142856C10.746377142857142 0.0016741062857142856 0.0016741062857142856 10.746377142857142 0.0016741062857142856 24.00061714285714c0 13.25424 10.744703036571428 23.999039999999997 23.99894303657143 23.999039999999997 13.25424 0 23.999039999999997 -10.7448 23.999039999999997 -23.999039999999997S37.25485714285714 0.0016741062857142856 24.00061714285714 0.0016741062857142856ZM4.287394285714286 24.00061714285714c0 -10.887325714285714 8.825897142857142 -19.713222857142856 19.713222857142856 -19.713222857142856 10.887154285714285 0 19.713325714285713 8.825897142857142 19.713325714285713 19.713222857142856 0 5.841428571428572 -2.5409142857142855 11.08944 -6.577371428571428 14.699382857142858C33.99185142857142 34.95325714285714 29.273965714285712 32.57142857142857 23.999794285714284 32.57142857142857c-5.27376 0 -9.991337142857143 2.381485714285714 -13.13598857142857 6.127542857142856 -4.036079999999999 -3.6095999999999995 -6.576411428571428 -8.857371428571428 -6.576411428571428 -14.698354285714284ZM24 12.428571428571427c-3.5503885714285714 0 -6.428571428571428 2.878182857142857 -6.428571428571428 6.428571428571428S20.44961142857143 25.285714285714285 24 25.285714285714285 30.428571428571427 22.407531428571428 30.428571428571427 18.857142857142858 27.55038857142857 12.428571428571427 24 12.428571428571427ZM13.285714285714285 18.857142857142858c0 -5.917337142857142 4.796948571428572 -10.714285714285714 10.714285714285714 -10.714285714285714s10.714285714285714 4.796948571428572 10.714285714285714 10.714285714285714S29.91733714285714 29.57142857142857 24 29.57142857142857 13.285714285714285 24.774479999999997 13.285714285714285 18.857142857142858Z" clip-rule="evenodd" stroke-width="3.4286"></path>
  </g>
</svg>