<svg xmlns="http://www.w3.org/2000/svg" fill="none" viewBox="0 0 48 48" id="User-Remove-Subtract--Streamline-Core-Remix" height="48" width="48">
  <desc>
    User Remove Subtract Streamline Icon: https://streamlinehq.com
  </desc>
  <g id="Free Remix/Interface Essential/user-remove-subtract--actions-remove-close-geometric-human-person-minus-single-user">
    <path id="Union" fill="#000000" fill-rule="evenodd" d="M17.13768 4.279851428571428c-3.3168342857142856 0 -6.006548571428572 2.6896114285714283 -6.006548571428572 6.008502857142857s2.6897142857142855 6.008502857142857 6.006548571428572 6.008502857142857c3.3168342857142856 0 6.006548571428572 -2.6896114285714283 6.006548571428572 -6.008502857142857s-2.6897142857142855 -6.008502857142857 -6.006548571428572 -6.008502857142857ZM6.845417142857142 10.288354285714286c0 -5.684845714285714 4.60752 -10.294213645714285 10.292262857142857 -10.294213645714285S27.42994285714286 4.603508571428571 27.42994285714286 10.288354285714286c0 5.684845714285714 -4.60752 10.294217142857141 -10.292262857142857 10.294217142857141s-10.292262857142857 -4.6093714285714285 -10.292262857142857 -10.294217142857141ZM0.0016741062857142856 42.42205714285714C0.0016741062857142856 32.419714285714285 7.511657142857143 24.005862857142855 17.137371428571427 24.005862857142855c8.64744 0 15.587314285714283 6.790491428571428 16.908651428571428 15.42270857142857H28.237988571428566c-3.020365714285714 0 -5.519485714285714 2.231657142857143 -5.938251428571428 5.136342857142857H2.1445302857142856c-1.1834674285714284 0 -2.142856179428571 -0.9596571428571428 -2.142856179428571 -2.142857142857143Zm25.814405893714284 2.142857142857143h-0.0008228571428571429c0.3548571428571428 -0.9953142857142857 1.3056 -1.7077714285714285 2.4227314285714283 -1.7077714285714285h16.425325714285716c1.4201142857142857 0 2.571428571428571 1.1513142857142855 2.571428571428571 2.571428571428571s-1.1513142857142855 2.571428571428571 -2.571428571428571 2.571428571428571H28.238845714285716c-1.420182857142857 0 -2.571428571428571 -1.1513142857142855 -2.571428571428571 -2.571428571428571 0 -0.3030857142857143 0.05242285714285714 -0.5938285714285714 0.14866285714285715 -0.8636571428571429Z" clip-rule="evenodd" stroke-width="3.4286"></path>
  </g>
</svg>