<svg xmlns="http://www.w3.org/2000/svg" fill="none" viewBox="0 0 48 48" id="Vertical-Slider-Square--Streamline-Core-Remix" height="48" width="48">
  <desc>
    Vertical Slider Square Streamline Icon: https://streamlinehq.com
  </desc>
  <g id="Free Remix/Interface Essential/vertical-slider-square--adjustment-adjust-controls-fader-vertical-settings-slider-square">
    <path id="Union" fill="#000000" fill-rule="evenodd" d="M6.428571428571428 42.857142857142854c-0.7100914285714285 0 -1.2857142857142856 -0.5756571428571428 -1.2857142857142856 -1.2857142857142856l0 -35.14285714285714c0 -0.7100914285714285 0.5756228571428571 -1.2857142857142856 1.2857142857142856 -1.2857142857142856l35.14285714285714 0c0.7100571428571428 0 1.2857142857142856 0.5756228571428571 1.2857142857142856 1.2857142857142856l0 35.14285714285714c0 0.7100571428571428 -0.5756571428571428 1.2857142857142856 -1.2857142857142856 1.2857142857142856l-35.14285714285714 0ZM0.8571428571428571 41.57142857142857c0 3.077142857142857 2.494412571428571 5.571428571428571 5.571428571428571 5.571428571428571l35.14285714285714 0c3.077142857142857 0 5.571428571428571 -2.494285714285714 5.571428571428571 -5.571428571428571l0 -35.14285714285714c0 -3.077012571428571 -2.494285714285714 -5.571432 -5.571428571428571 -5.571432L6.428571428571428 0.8571428571428571C3.3515554285714284 0.8571428571428571 0.8571394285714286 3.3515554285714284 0.8571394285714286 6.428571428571428L0.8571428571428571 41.57142857142857ZM13.714285714285714 22.215839999999996C11.20128 21.19861714285714 9.428571428571429 18.73488 9.428571428571429 15.857142857142856c0 -3.7870971428571427 3.070045714285714 -6.857142857142857 6.857142857142857 -6.857142857142857s6.857142857142857 3.070045714285714 6.857142857142857 6.857142857142857c0 2.8777371428571428 -1.7727085714285715 5.341474285714286 -4.285714285714286 6.358697142857142L18.857142857142858 37.714285714285715c0 1.4201142857142857 -1.1512799999999999 2.571428571428571 -2.571428571428571 2.571428571428571S13.714285714285714 39.13439999999999 13.714285714285714 37.714285714285715l0 -15.498445714285715ZM34.285714285714285 10.285714285714285l0 9.927017142857142c2.513142857142857 1.0172228571428572 4.285714285714286 3.4809599999999996 4.285714285714286 6.358697142857142S36.798857142857145 31.912902857142857 34.285714285714285 32.930125714285715L34.285714285714285 37.714285714285715c0 1.4201142857142857 -1.1512799999999999 2.571428571428571 -2.571428571428571 2.571428571428571s-2.571428571428571 -1.1513142857142855 -2.571428571428571 -2.571428571428571l0 -4.78416C26.629851428571428 31.912902857142857 24.857142857142854 29.449165714285712 24.857142857142854 26.57142857142857s1.7727085714285715 -5.341474285714286 4.285714285714286 -6.358697142857142L29.142857142857142 10.285714285714285c0 -1.4201485714285715 1.1512799999999999 -2.571428571428571 2.571428571428571 -2.571428571428571s2.571428571428571 1.1512799999999999 2.571428571428571 2.571428571428571Z" clip-rule="evenodd" stroke-width="3.4286"></path>
  </g>
</svg>