<svg xmlns="http://www.w3.org/2000/svg" fill="none" viewBox="0 0 48 48" id="Video-Swap-Camera--Streamline-Core-Remix" height="48" width="48">
  <desc>
    Video Swap Camera Streamline Icon: https://streamlinehq.com
  </desc>
  <g id="Free Remix/Interface Essential/video-swap-camera">
    <path id="Union" fill="#000000" fill-rule="evenodd" d="M15.428571428571427 3.4285714285714284c0.40467428571428565 -0.5395851428571428 1.0398171428571428 -0.8571428571428571 1.7142857142857142 -0.8571428571428571h13.714285714285714c0.6744685714285714 0 1.3096114285714284 0.3175577142857143 1.7142857142857142 0.8571428571428571l4.5 6h5.357142857142857c3.077142857142857 0 5.571428571428571 2.494422857142857 5.571428571428571 5.571428571428571v24.857142857142854c0 3.077142857142857 -2.494285714285714 5.571428571428571 -5.571428571428571 5.571428571428571H5.571428571428571C2.494412571428571 45.42857142857142 0 42.934285714285714 0 39.857142857142854v-24.857142857142854C0 11.922994285714285 2.494412571428571 9.428571428571429 5.571428571428571 9.428571428571429h5.357142857142857L15.428571428571427 3.4285714285714284Zm2.7857142857142856 3.4285714285714284L13.714285714285714 12.857142857142856c-0.40467428571428565 0.5395885714285714 -1.0398171428571428 0.8571428571428571 -1.7142857142857142 0.8571428571428571H5.571428571428571c-0.7100914285714285 0 -1.2857142857142856 0.5756228571428571 -1.2857142857142856 1.2857142857142856v24.857142857142854c0 0.7100571428571428 0.5756228571428571 1.2857142857142856 1.2857142857142856 1.2857142857142856h36.857142857142854c0.7100571428571428 0 1.2857142857142856 -0.5756571428571428 1.2857142857142856 -1.2857142857142856v-24.857142857142854c0 -0.7100914285714285 -0.5756571428571428 -1.2857142857142856 -1.2857142857142856 -1.2857142857142856H36c-0.6744 0 -1.3097142857142856 -0.3175542857142857 -1.7142857142857142 -0.8571428571428571L29.785714285714285 6.857142857142857h-11.571428571428571ZM12 27.428571428571427h1.4221028571428571C14.24262857142857 32.53100571428571 18.666171428571428 36.42857142857142 24 36.42857142857142c1.5198514285714286 0 2.9711314285714283 -0.3178285714285714 4.286502857142857 -0.8924571428571427 1.0844914285714284 -0.4738285714285714 1.5795085714285713 -1.7370857142857143 1.10568 -2.8215428571428567 -0.4738285714285714 -1.0844914285714284 -1.7370857142857143 -1.5795085714285713 -2.8215428571428567 -1.10568C25.78614857142857 31.95164571428571 24.91824 32.14285714285714 24 32.14285714285714c-2.9567314285714286 0 -5.447245714285715 -1.9961142857142857 -6.1974857142857145 -4.714285714285714H18.857142857142858c0.69336 0 1.3184571428571428 -0.4176685714285714 1.5837942857142857 -1.058262857142857 0.2653371428571428 -0.6405942857142857 0.11866285714285714 -1.3779085714285715 -0.37162285714285714 -1.8681942857142855l-3.4285714285714284 -3.4285714285714284c-0.669462857142857 -0.6694971428571428 -1.7548799999999998 -0.6694971428571428 -2.424342857142857 0l-3.4285714285714284 3.4285714285714284c-0.4902857142857142 0.4902857142857142 -0.63696 1.2275999999999998 -0.37162285714285714 1.8681942857142855S11.30664 27.428571428571427 12 27.428571428571427Zm9.42936 -7.608891428571427C22.213851428571427 19.476925714285713 23.081759999999996 19.285714285714285 24 19.285714285714285c2.9567314285714286 0 5.447279999999999 1.9961142857142857 6.1974857142857145 4.714285714285714H29.142857142857142c-0.69336 0 -1.3184571428571428 0.4176685714285714 -1.5837942857142857 1.058262857142857 -0.2653371428571428 0.6405942857142857 -0.11866285714285714 1.3779085714285715 0.37162285714285714 1.8681942857142855l3.4285714285714284 3.4285714285714284c0.669462857142857 0.6694971428571428 1.7548799999999998 0.6694971428571428 2.424342857142857 0l3.4287428571428573 -3.4285714285714284c0.4902857142857142 -0.4902857142857142 0.6366857142857143 -1.2275999999999998 0.37131428571428565 -1.8681942857142855C37.31828571428571 24.417668571428568 36.69325714285714 24 36 24h-1.4221714285714284C33.757371428571425 18.897565714285715 29.33382857142857 15 24 15c-1.5198514285714286 0 -2.9711314285714283 0.3177257142857143 -4.286502857142857 0.8924571428571427 -1.0844914285714284 0.4738285714285714 -1.5795085714285713 1.7370857142857143 -1.10568 2.8215428571428567 0.4738285714285714 1.0844914285714284 1.7370857142857143 1.5795085714285713 2.8215428571428567 1.10568Z" clip-rule="evenodd" stroke-width="3.4286"></path>
  </g>
</svg>