<svg xmlns="http://www.w3.org/2000/svg" fill="none" viewBox="0 0 48 48" id="Virtual-Reality--Streamline-Core-Remix" height="48" width="48">
  <desc>
    Virtual Reality Streamline Icon: https://streamlinehq.com
  </desc>
  <g id="Free Remix/Computer Devices/virtual-reality--gaming-virtual-gear-controller-reality-games-headset-technology-vr-eyewear">
    <path id="Union" fill="#000000" fill-rule="evenodd" d="M14.382342857142856 3c-0.9672342857142857 0.000168 -1.917702857142857 0.25229142857142856 -2.7578742857142857 0.7314514285714285 -0.8402057142857142 0.47914285714285715 -1.5410742857142856 1.1687314285714285 -2.0340000000000003 2.0008114285714287l-0.0037714285714285714 0.0064457142857142855L0.32528159999999995 21.131417142857142C0.11915554285714285 21.460662857142857 0 21.84990857142857 0 22.266994285714283c0 1.1834399999999998 0.9593897142857143 2.142857142857143 2.142857142857143 2.142857142857143h43.714285714285715c1.1832 0 2.142857142857143 -0.9594171428571429 2.142857142857143 -2.142857142857143 0 -0.4111885714285714 -0.11588571428571427 -0.7953257142857143 -0.31679999999999997 -1.1215542857142857l-9.2736 -15.413005714285712 0.00034285714285714285 -0.00017142857142857143c-0.4926857142857142 -0.8320799999999999 -1.1938285714285715 -1.5216685714285714 -2.0338285714285713 -2.0008114285714287 -0.8403428571428572 -0.4791599999999999 -1.790742857142857 -0.7312834285714286 -2.7580114285714283 -0.7314514285714285H14.382342857142856Zm17.12886857142857 37.22537142857143c-0.733302857142857 -0.9287999999999998 -2.0808 -1.087542857142857 -3.0096685714285716 -0.3541714285714286 -0.9289028571428571 0.7333714285714286 -1.08744 2.0808 -0.3541028571428571 3.0096 0.5186742857142856 0.6572571428571429 1.1787085714285712 1.1890285714285713 1.9311771428571427 1.555885714285714 0.7524685714285714 0.3668571428571428 1.5779314285714283 0.5595428571428571 2.41512 0.5633142857142857 1.1834399999999998 0.005485714285714286 2.1471771428571427 -0.9493714285714284 2.152662857142857 -2.1329142857142855 0.005485714285714286 -1.183542857142857 -0.94944 -2.1473142857142853 -2.1329142857142855 -2.1528 -0.19278857142857142 -0.0010285714285714284 -0.3829714285714285 -0.04525714285714286 -0.5564914285714285 -0.12994285714285714 -0.17348571428571427 -0.08434285714285714 -0.3258857142857143 -0.2070857142857143 -0.4457828571428571 -0.35897142857142855Z" clip-rule="evenodd" stroke-width="3.4286"></path>
  </g>
</svg>