<svg xmlns="http://www.w3.org/2000/svg" fill="none" viewBox="0 0 48 48" id="Virus-Antivirus--Streamline-Core-Remix" height="48" width="48">
  <desc>
    Virus Antivirus Streamline Icon: https://streamlinehq.com
  </desc>
  <g id="Free Remix/Health/virus-antivirus--health-medical-covid19-flu-influenza-virus-antivirus">
    <path id="Union" fill="#000000" fill-rule="evenodd" d="M24 4.285714285714286c-4.699371428571428 0 -9.01470857142857 1.6442742857142856 -12.40206857142857 4.388914285714286l6.764297142857142 6.764297142857142c1.1635542857142858 -0.7673142857142856 2.493462857142857 -1.3043657142857141 3.923485714285714 -1.5451885714285714V10.714285714285714c0 -0.9467657142857142 0.76752 -1.7142857142857142 1.7142857142857142 -1.7142857142857142s1.7142857142857142 0.76752 1.7142857142857142 1.7142857142857142v3.1798628571428567c1.5525257142857143 0.2617028571428571 2.9864571428571427 0.872502857142857 4.218342857142857 1.7488457142857141l2.249451428571428 -2.249417142857143c0.669462857142857 -0.6694971428571428 1.7548799999999998 -0.6694971428571428 2.4242057142857143 0 0.6696 0.669462857142857 0.6696 1.7548799999999998 0 2.424342857142857l-2.2495885714285713 2.2497599999999998c0.8758971428571427 1.2318857142857143 1.4862514285714283 2.6657142857142855 1.7476457142857142 4.218034285714285h3.181371428571428c0.9466285714285714 0 1.7142857142857142 0.76752 1.7142857142857142 1.7142857142857142s-0.7676571428571428 1.7142857142857142 -1.7142857142857142 1.7142857142857142h-3.181577142857143c-0.24092571428571427 1.4293371428571426 -0.7778742857142856 2.7586285714285714 -1.5448457142857142 3.9216685714285715l6.76608 6.766217142857142C42.069942857142856 33.014708571428564 43.714285714285715 28.699371428571425 43.714285714285715 24c0 -10.887908571428571 -8.826514285714284 -19.71428571428571 -19.71428571428571 -19.71428571428571ZM4.285714285714286 24c0 -4.644617142857143 1.6061828571428571 -8.91408 4.293394285714285 -12.28326857142857l27.70409142857143 27.704297142857143C32.91408 42.108 28.644617142857143 43.714285714285715 24 43.714285714285715c-10.887908571428571 0 -19.71428571428571 -8.826514285714284 -19.71428571428571 -19.71428571428571ZM0 24c0 -13.254822857142857 10.745177142857143 -24 24 -24 13.254857142857142 0 24 10.745177142857143 24 24 0 13.254857142857142 -10.745142857142856 24 -24 24 -13.254822857142857 0 -24 -10.745142857142856 -24 -24Zm17.178 -0.00006857142857142857c0 -0.9467657142857142 -0.7674857142857142 -1.7142857142857142 -1.7142857142857142 -1.7142857142857142L15.447942857142857 22.285714285714285l-0.004457142857142857 0H10.714285714285714c-0.9467657142857142 0 -1.7142857142857142 0.76752 -1.7142857142857142 1.7142857142857142s0.76752 1.7142857142857142 1.7142857142857142 1.7142857142857142h3.177908571428571c0.2615314285714286 1.5529371428571428 0.8722971428571428 2.9873142857142856 1.7487771428571426 4.219542857142857l-2.2482514285714283 2.2482514285714283c-0.669462857142857 0.669462857142857 -0.669462857142857 1.7548799999999998 0 2.4242057142857143 0.669462857142857 0.6696 1.7549142857142856 0.6696 2.424377142857143 0l2.248422857142857 -2.2482514285714283c1.2324342857142856 0.8763771428571429 2.667017142857143 1.487005714285714 4.220194285714285 1.748262857142857v3.1794171428571425c0 0.9466285714285714 0.76752 1.7142857142857142 1.7142857142857142 1.7142857142857142s1.7142857142857142 -0.7676571428571428 1.7142857142857142 -1.7142857142857142V32.55637714285714c0 -0.050091428571428565 -0.00216 -0.0996342857142857 -0.006342857142857143 -0.1485942857142857 -0.0648342857142857 -0.8876228571428572 -0.8055085714285715 -1.5876 -1.7096914285714284 -1.5876 -3.7666971428571423 0 -6.820251428571428 -3.05352 -6.820251428571428 -6.820251428571428Z" clip-rule="evenodd" stroke-width="3.4286"></path>
  </g>
</svg>