<svg xmlns="http://www.w3.org/2000/svg" fill="none" viewBox="0 0 48 48" id="Visible--Streamline-Core-Remix" height="48" width="48">
  <desc>
    Visible Streamline Icon: https://streamlinehq.com
  </desc>
  <g id="Free Remix/Interface Essential/visible--eye-eyeball-open-view">
    <path id="Union" fill="#000000" fill-rule="evenodd" d="M4.736742857142857 22.449874285714284c-0.26633142857142855 0.3732342857142857 -0.4543885714285714 0.9234171428571428 -0.4543885714285714 1.5508457142857142 0 0.6274628571428571 0.18805714285714287 1.1776114285714285 0.4543885714285714 1.55088 1.715725714285714 2.3021142857142856 4.484194285714286 5.633965714285714 7.907760000000001 8.374148571428572C16.10064 36.69188571428571 19.997005714285713 38.67428571428571 24.000685714285716 38.67428571428571c4.003714285714286 0 7.90008 -1.9824000000000002 11.356114285714284 -4.748537142857143 3.4237714285714285 -2.740148571428571 6.192 -6.071999999999999 7.9076571428571425 -8.374114285714285 0.2664 -0.3732342857142857 0.4546285714285714 -0.9234171428571428 0.4546285714285714 -1.5509142857142855 0 -0.6274628571428571 -0.1882285714285714 -1.1776457142857142 -0.4546285714285714 -1.5509142857142855 -1.7156571428571425 -2.3021142857142856 -4.483885714285714 -5.633931428571429 -7.9076571428571425 -8.37408 -3.456034285714286 -2.7662742857142857 -7.352399999999999 -4.748434285714286 -11.356114285714284 -4.748434285714286 -4.00368 0 -7.900045714285715 1.98216 -11.356182857142857 4.748434285714286 -3.423565714285714 2.740182857142857 -6.192034285714285 6.0720342857142855 -7.907760000000001 8.374148571428572Zm5.229702857142857 -11.720091428571427c3.805508571428571 -3.0459085714285714 8.636571428571429 -5.688205714285714 14.03424 -5.688205714285714 5.397702857142857 0 10.228765714285714 2.6422971428571427 14.034171428571428 5.688205714285714 3.831085714285714 3.066342857142857 6.854057142857143 6.726239999999999 8.677371428571428 9.17424l0.017828571428571426 0.023897142857142853 0 0.00010285714285714286c0.8475428571428572 1.1716114285714285 1.2747428571428572 2.6245028571428572 1.2747428571428572 4.072697142857143 0 1.4481942857142855 -0.42719999999999997 2.901085714285714 -1.2747428571428572 4.072697142857143l-0.017485714285714285 0.024137142857142857 -0.00034285714285714285 -0.00013714285714285713c-1.8233142857142859 2.448034285714286 -4.846285714285714 6.107931428571428 -8.677371428571428 9.17424 -3.805405714285714 3.045942857142857 -8.636468571428571 5.688342857142857 -14.034171428571428 5.688342857142857 -5.397668571428571 0 -10.228731428571427 -2.6424 -14.03424 -5.688342857142857C6.1353599999999995 34.205348571428566 3.112316571428571 30.54545142857143 1.2890845714285715 28.097417142857143l-0.01778742857142857 -0.02386285714285714 0.000168 -0.00013714285714285713c-0.8475394285714285 -1.1716114285714285 -1.2748133554285714 -2.6245028571428572 -1.2748133554285714 -4.072697142857143 0 -1.4481942857142855 0.4272739268571428 -2.901085714285714 1.2748133554285714 -4.072697142857143l0.01745142857142857 -0.02410285714285714 0.000168 0.00010285714285714286c1.823232 -2.448 4.8462754285714285 -6.1078971428571425 8.677361142857142 -9.17424ZM24 15.428571428571427C19.266137142857144 15.428571428571427 15.428571428571427 19.266137142857144 15.428571428571427 24S19.266137142857144 32.57142857142857 24 32.57142857142857 32.57142857142857 28.733862857142856 32.57142857142857 24 28.733862857142856 15.428571428571427 24 15.428571428571427Z" clip-rule="evenodd" stroke-width="3.4286"></path>
  </g>
</svg>