<svg xmlns="http://www.w3.org/2000/svg" fill="none" viewBox="0 0 48 48" id="Voice-Mail--Streamline-Core-Remix" height="48" width="48">
  <desc>
    Voice Mail Streamline Icon: https://streamlinehq.com
  </desc>
  <g id="Free Remix/Computer Devices/voice-mail--mic-audio-mike-music-microphone">
    <path id="Union" fill="#000000" fill-rule="evenodd" d="M24 4.285714285714286c-4.497188571428571 0 -8.142925714285715 3.645702857142857 -8.142925714285715 8.142925714285715v7.714148571428572C15.857074285714285 24.640011428571427 19.502811428571427 28.285714285714285 24 28.285714285714285c4.497188571428571 0 8.142925714285715 -3.645702857142857 8.142925714285715 -8.142925714285715V12.42864C32.14292571428571 7.931417142857143 28.497188571428573 4.285714285714286 24 4.285714285714286ZM11.571359999999999 12.42864C11.571359999999999 5.564468571428571 17.135862857142858 0 24 0s12.428571428571427 5.564468571428571 12.428571428571427 12.42864v7.714148571428572C36.42857142857142 27.00696 30.86413714285714 32.57142857142857 24 32.57142857142857S11.571359999999999 27.00696 11.571359999999999 20.14278857142857V12.42864Zm15.000137142857144 28.99021714285714C37.19382857142857 40.14822857142857 45.42857142857142 31.10729142857143 45.42857142857142 20.142857142857142c0 -1.4201485714285715 -1.1513142857142855 -2.571428571428571 -2.571428571428571 -2.571428571428571s-2.571428571428571 1.1512799999999999 -2.571428571428571 2.571428571428571c0 8.994342857142856 -7.291302857142857 16.285714285714285 -16.285645714285714 16.285714285714285 -8.994377142857141 0 -16.285782857142856 -7.291371428571429 -16.285782857142856 -16.285714285714285 0 -1.4201485714285715 -1.1512799999999999 -2.571428571428571 -2.571428571428571 -2.571428571428571s-2.571428571428571 1.1512799999999999 -2.571428571428571 2.571428571428571c0 10.964434285714285 8.234914285714286 20.00537142857143 18.85721142857143 21.276V45.42857142857142c0 1.4201142857142857 1.1512457142857142 2.571428571428571 2.571428571428571 2.571428571428571 1.4201485714285715 0 2.571428571428571 -1.1513142857142855 2.571428571428571 -2.571428571428571v-4.009714285714286Z" clip-rule="evenodd" stroke-width="3.4286"></path>
  </g>
</svg>