<svg xmlns="http://www.w3.org/2000/svg" fill="none" viewBox="0 0 48 48" id="Voice-Mail-Off--Streamline-Core-Remix" height="48" width="48">
  <desc>
    Voice Mail Off Streamline Icon: https://streamlinehq.com
  </desc>
  <g id="Free Remix/Computer Devices/voice-mail-off--mic-audio-mike-music-microphone-mute-off">
    <path id="Union" fill="#000000" fill-rule="evenodd" d="M0.6276274285714285 0.6276274285714285c0.8368388571428571 -0.8368367999999999 2.193624 -0.8368367999999999 3.030452571428571 0L12.045874285714286 9.015394285714285C13.529108571428571 3.810822857142857 18.319474285714286 0 23.999931428571426 0 30.864102857142854 0 36.42857142857142 5.564468571428571 36.42857142857142 12.42864v7.714148571428572c0 3.644228571428571 -1.5689142857142857 6.920331428571428 -4.063474285714285 9.191862857142857l2.730102857142857 2.73c3.1964571428571427 -2.976 5.190514285714285 -7.215805714285715 5.190514285714285 -11.921794285714284 0 -1.4201485714285715 1.1513142857142855 -2.571428571428571 2.571428571428571 -2.571428571428571s2.571428571428571 1.1512799999999999 2.571428571428571 2.571428571428571c0 6.129017142857142 -2.5751999999999997 11.65704 -6.695314285714286 15.559885714285713l8.638971428571427 8.639314285714285c0.8369142857142857 0.8365714285714285 0.8369142857142857 2.1936 0 3.0301714285714283 -0.8365714285714285 0.8369142857142857 -2.1936 0.8369142857142857 -3.0301714285714283 0L27.58272 30.61316571428571l-0.012548571428571428 -0.012445714285714286 -15.371211428571428 -15.371211428571428 -0.012514285714285714 -0.012617142857142856L0.6276274285714285 3.65808c-0.8368378285714285 -0.8368319999999999 -0.8368378285714285 -2.193613714285714 0 -3.030452571428571ZM13.709554285714285 22.281051428571427c1.0850399999999998 -0.4724914285714285 2.34768 0.02406857142857143 2.820205714285714 1.1091085714285713 0.8974628571428571 2.0609142857142855 2.625222857142857 3.6797485714285716 4.755771428571428 4.432765714285714 1.1158285714285714 0.39438857142857137 1.70064 1.618662857142857 1.3062857142857143 2.7344571428571425 -0.39438857142857137 1.1158285714285714 -1.618662857142857 1.7006742857142858 -2.7344571428571425 1.30632 -3.257485714285714 -1.1513485714285714 -5.887508571428571 -3.617794285714286 -7.256914285714285 -6.762411428571428 -0.47252571428571427 -1.0850742857142857 0.02406857142857143 -2.3477142857142854 1.1091085714285713 -2.82024ZM28.461599999999997 41.10582857142857c-0.6209485714285714 0.13165714285714283 -1.251462857142857 0.23622857142857143 -1.8901714285714286 0.3126857142857143V45.42857142857142c0 1.4201142857142857 -1.1512799999999999 2.571428571428571 -2.571428571428571 2.571428571428571s-2.571428571428571 -1.1513142857142855 -2.571428571428571 -2.571428571428571v-4.009714285714286C10.806274285714284 40.14822857142857 2.5713771428571426 31.10729142857143 2.5713771428571426 20.142857142857142c0 -1.4201485714285715 1.1512628571428571 -2.571428571428571 2.5714114285714285 -2.571428571428571 1.420182857142857 0 2.571428571428571 1.1512799999999999 2.571428571428571 2.571428571428571 0 8.994342857142856 7.291439999999999 16.285714285714285 16.285782857142856 16.285714285714285 1.1669142857142856 0 2.3024571428571425 -0.12240000000000001 3.3954171428571427 -0.35382857142857144 1.3893257142857143 -0.29451428571428573 2.75424 0.5931428571428571 3.0486514285714286 1.9824000000000002 0.29441142857142855 1.3892571428571427 -0.5931771428571428 2.7541714285714285 -1.9824685714285712 3.048685714285714Z" clip-rule="evenodd" stroke-width="3.4286"></path>
  </g>
</svg>