<svg xmlns="http://www.w3.org/2000/svg" fill="none" viewBox="0 0 48 48" id="Volcano--Streamline-Core-Remix" height="48" width="48">
  <desc>
    Volcano Streamline Icon: https://streamlinehq.com
  </desc>
  <g id="Free Remix/Nature Ecology/volcano--nature-eruption-erupt-mountain-volcano-lava-magma-explosion">
    <path id="Union" fill="#000000" fill-rule="evenodd" d="M24.000171428571427 5.571428571428571c-2.5631314285714284 0 -4.780182857142857 1.4999314285714285 -5.813314285714285 3.6794057142857137 -0.27966857142857143 0.5899885714285714 -0.8130514285714285 1.0202742857142857 -1.44888 1.1687999999999998 -0.6357942857142856 0.14852571428571426 -1.30464 -0.0009257142857142857 -1.8167314285714284 -0.40594285714285716 -0.8035885714285714 -0.6355885714285714 -1.8151885714285712 -1.0136914285714285 -2.9210742857142855 -1.0136914285714285 -2.6036228571428572 0 -4.714285714285714 2.110662857142857 -4.714285714285714 4.714285714285714s2.110662857142857 4.714285714285714 4.714285714285714 4.714285714285714c1.1834742857142857 0 2.142857142857143 0.9593828571428571 2.142857142857143 2.142857142857143s-0.9593828571428571 2.142857142857143 -2.142857142857143 2.142857142857143C7.029599999999999 22.71428571428571 3.0001714285714285 18.68485714285714 3.0001714285714285 13.714285714285714s4.0294285714285705 -9 9 -9c1.2526285714285714 0 2.447382857142857 0.25683428571428574 3.532662857142857 0.7204114285714285C17.49137142857143 2.912358857142857 20.554422857142857 1.2857142857142856 24.000171428571427 1.2857142857142856s6.5088 1.6266445714285713 8.467337142857142 4.148982857142857c1.0852799999999998 -0.4635428571428571 2.2800342857142857 -0.7204114285714285 3.5324914285714284 -0.7204114285714285 4.970742857142857 0 9 4.0294285714285705 9 9S40.97074285714285 22.71428571428571 36 22.71428571428571c-1.1832 0 -2.1426857142857143 -0.9593828571428571 -2.1426857142857143 -2.142857142857143s0.9594857142857142 -2.142857142857143 2.1426857142857143 -2.142857142857143c2.6036571428571427 0 4.714285714285714 -2.110662857142857 4.714285714285714 -4.714285714285714s-2.1106285714285713 -4.714285714285714 -4.714285714285714 -4.714285714285714c-1.1057142857142856 0 -2.117314285714286 0.37810285714285713 -2.920902857142857 1.0136914285714285 -0.5120914285714285 0.40501714285714285 -1.180937142857143 0.5544685714285714 -1.8167314285714284 0.40594285714285716 -0.6358285714285714 -0.14849142857142858 -1.1692114285714286 -0.5788114285714285 -1.44888 -1.1687999999999998C28.780354285714285 7.071359999999999 26.563302857142855 5.571428571428571 24.000171428571427 5.571428571428571Zm-10.285714285714285 23.57142857142857c0 -0.9467657142857142 0.76752 -1.7142857142857142 1.7142857142857142 -1.7142857142857142h1.2857142857142856V17.142857142857142c0 -1.1834742857142857 0.9593828571428571 -2.142857142857143 2.142857142857143 -2.142857142857143s2.142857142857143 0.9593828571428571 2.142857142857143 2.142857142857143v10.285714285714285h6V17.142857142857142c0 -1.1834742857142857 0.9593828571428571 -2.142857142857143 2.142857142857143 -2.142857142857143s2.142857142857143 0.9593828571428571 2.142857142857143 2.142857142857143v10.285714285714285h1.2857142857142856C33.518365714285714 27.428571428571427 34.285714285714285 28.196091428571428 34.285714285714285 29.142857142857142c0 4.382228571428571 2.5741714285714283 7.806857142857143 5.404114285714286 10.241828571428572 1.3981714285714284 1.2034285714285713 2.8042285714285713 2.1150857142857142 3.863657142857143 2.7264 0.5276571428571428 0.30445714285714287 0.9644571428571428 0.5314285714285714 1.2641142857142857 0.6802285714285714 0.14982857142857142 0.0744 0.26537142857142854 0.1289142857142857 0.3401142857142857 0.16354285714285713l0.0816 0.03737142857142857 0.016457142857142854 0.007199999999999999 0 0.00034285714285714285 0.0010285714285714284 0.00034285714285714285c0.744 0.32434285714285715 1.1585142857142856 1.1259428571428571 0.9932571428571428 1.9206857142857143 -0.1656 0.7950857142857142 -0.8663999999999998 1.3649142857142857 -1.6786285714285714 1.3649142857142857H3.4287428571428573c-0.8121051428571427 0 -1.5127782857142855 -0.5698285714285714 -1.678302857142857 -1.3649142857142857 -0.16536685714285712 -0.7943999999999999 0.24875999999999998 -1.5956571428571427 0.9920811428571428 -1.9203428571428571l0.0006102857142857143 -0.00034285714285714285 0.0005108571428571428 0 0.0007748571428571428 -0.00034285714285714285 0.00018857142857142857 -0.00034285714285714285 0.016433142857142858 -0.007199999999999999 0.08145257142857143 -0.03737142857142857c0.07501714285714285 -0.034628571428571425 0.19032342857142856 -0.08914285714285713 0.34015542857142855 -0.16354285714285713 0.29992457142857143 -0.1488 0.7366217142857143 -0.37577142857142853 1.2643474285714285 -0.6802285714285714 1.059222857142857 -0.6113142857142856 2.4653485714285712 -1.5229714285714284 3.8636228571428566 -2.7264 2.829805714285714 -2.4349714285714286 5.40384 -5.8595999999999995 5.40384 -10.241828571428572Z" clip-rule="evenodd" stroke-width="3.4286"></path>
  </g>
</svg>