<svg xmlns="http://www.w3.org/2000/svg" fill="none" viewBox="0 0 48 48" id="Volume-Off--Streamline-Core-Remix" height="48" width="48">
  <desc>
    Volume Off Streamline Icon: https://streamlinehq.com
  </desc>
  <g id="Free Remix/Entertainment/volume-off--speaker-music-mute-volume-control-audio-off-mute-entertainment">
    <path id="Union" fill="#000000" fill-rule="evenodd" d="M3.65808 0.6276274285714285c-0.8368319999999999 -0.8368367999999999 -2.193613714285714 -0.8368367999999999 -3.030452571428571 0 -0.8368367999999999 0.8368388571428571 -0.8368367999999999 2.1936205714285713 0 3.030452571428571L15.634319999999999 18.6648c0.06349714285714285 0.07261714285714285 0.13179428571428572 0.1409142857142857 0.20441142857142855 0.20437714285714287l28.503325714285715 28.50305142857143c0.8365714285714285 0.8369142857142857 2.1936 0.8369142857142857 3.0301714285714283 0 0.8369142857142857 -0.8365714285714285 0.8369142857142857 -2.1936 0 -3.0301714285714283l-8.619771428571427 -8.619771428571427V8.845577142857142C38.83542857142857 4.472125714285714 33.96552 1.8172045714285714 30.344057142857142 4.330525714285714c-0.08945142857142856 0.062091428571428575 -0.1740342857142857 0.13086857142857142 -0.25299428571428567 0.20578285714285713L18.941897142857144 15.112319999999999h-0.7990971428571428L3.65808 0.6276274285714285ZM11.389782857142857 18.485485714285716c1.1834742857142857 0 2.142857142857143 0.9593828571428571 2.142857142857143 2.142857142857143v6.7457142857142856c0 0.6597599999999999 0.5778514285714286 1.23 1.219782857142857 1.23h5.043942857142857c0.5584114285714284 0 1.0947771428571427 0.21798857142857142 1.4948571428571427 0.6075085714285714L32.59844571428571 40.220571428571425c0.13608 0.07337142857142856 0.2755885714285714 0.11245714285714287 0.41688 0.12582857142857143 1.1782285714285714 0.11142857142857143 2.0431885714285714 1.1571428571428573 1.93176 2.3352 -0.11142857142857143 1.1784 -1.1569714285714285 2.043085714285714 -2.3352 1.9316571428571427 -0.8878628571428572 -0.084 -1.7733599999999998 -0.38845714285714283 -2.5706742857142855 -0.9418285714285713 -0.09706285714285713 -0.0672 -0.18839999999999998 -0.1426285714285714 -0.27308571428571426 -0.22491428571428573L18.92550857142857 32.88977142857143H14.752422857142856c-3.02112 0 -5.505497142857142 -2.50128 -5.505497142857142 -5.515714285714285V20.628342857142858c0 -1.1834742857142857 0.9593828571428571 -2.142857142857143 2.142857142857143 -2.142857142857143Z" clip-rule="evenodd" stroke-width="3.4286"></path>
  </g>
</svg>