<svg xmlns="http://www.w3.org/2000/svg" fill="none" viewBox="0 0 48 48" id="Volume-Level-Off--Streamline-Core-Remix" height="48" width="48">
  <desc>
    Volume Level Off Streamline Icon: https://streamlinehq.com
  </desc>
  <g id="Free Remix/Entertainment/volume-level-off--volume-speaker-control-music-audio-entertainment">
    <path id="Vector (Stroke)" fill="#000000" fill-rule="evenodd" d="M30.063599999999997 8.548114285714284C30.14746285714286 4.122651428571428 25.220262857142856 1.4366331428571428 21.55614857142857 3.9795771428571425c-0.08945142857142856 0.06205714285714286 -0.17400000000000002 0.1308342857142857 -0.25299428571428567 0.20574857142857142L9.923245714285715 14.980251428571426H5.635028571428571c-3.0570068571428566 0 -5.5714124571428565 2.531417142857143 -5.5714124571428565 5.5818514285714285v6.8779885714285705c0 3.0504342857142857 2.5144056 5.5818514285714285 5.5714124571428565 5.5818514285714285h4.271999999999999l11.067462857142855 10.775657142857142c0.08465142857142857 0.08228571428571428 0.1759885714285714 0.1577142857142857 0.27308571428571426 0.22491428571428573 3.6192 2.5117714285714285 8.717965714285713 -0.09085714285714284 8.815508571428571 -4.498628571428571l0.0005142857142857142 -30.975771428571424ZM24.104571428571425 7.435131428571428c0.7516114285714285 -0.4167085714285714 1.6959085714285713 0.11365714285714285 1.6739314285714284 1.0395771428571428l-0.0006171428571428571 0.05088v30.92149714285714c-0.01669714285714286 0.4570285714285714 -0.28546285714285713 0.8667428571428571 -0.7493142857142856 1.1033142857142855 -0.4244914285714286 0.21634285714285714 -0.8666057142857142 0.21394285714285713 -1.2238285714285713 0.021257142857142856l-11.532 -11.22792c-0.40008 -0.38952 -0.9364457142857142 -0.6075085714285714 -1.4948571428571427 -0.6075085714285714h-5.142857142857142c-0.6778285714285713 0 -1.2857142857142856 -0.6003771428571428 -1.2857142857142856 -1.2961371428571427V20.562102857142857c0 -0.6957599999999999 0.6078857142857143 -1.2961371428571427 1.2857142857142856 -1.2961371428571427h5.142857142857142c0.5487771428571429 0 1.07664 -0.2105142857142857 1.4747657142857142 -0.5881714285714286L24.104571428571425 7.435131428571428Z" clip-rule="evenodd" stroke-width="3.4286"></path>
  </g>
</svg>