<svg xmlns="http://www.w3.org/2000/svg" fill="none" viewBox="0 0 48 48" id="Volume-Down--Streamline-Core-Remix" height="48" width="48">
  <desc>
    Volume Down Streamline Icon: https://streamlinehq.com
  </desc>
  <g id="Free Remix/Entertainment/volume-down--speaker-down-volume-control-audio-music-decrease-entertainment">
    <path id="Union" fill="#000000" fill-rule="evenodd" d="M21.096925714285714 4.330525714285714c3.621462857142857 -2.513328 8.491234285714285 0.14156571428571427 8.40857142857143 4.515017142857142V39.226285714285716l-0.0005142857142857142 -0.00034285714285714285C29.408571428571427 43.581942857142856 24.370971428571426 46.153371428571425 20.794285714285714 43.67108571428571c-0.09709714285714285 -0.0672 -0.18843428571428572 -0.1426285714285714 -0.27308571428571426 -0.22491428571428573L9.678582857142857 32.88946285714285H5.505497142857142C2.484384 32.88946285714285 0 30.388148571428573 0 27.373748571428568v-6.7457142857142856c0 -3.0144342857142856 2.484384 -5.515714285714285 5.505497142857142 -5.515714285714285h4.189268571428571l11.149165714285713 -10.576011428571428c0.07899428571428571 -0.07491428571428571 0.16354285714285713 -0.14372571428571426 0.25299428571428567 -0.20578285714285713Zm4.123474285714285 4.441577142857143c0.020742857142857143 -0.8742514285714285 -0.86712 -1.3736914285714286 -1.57608 -0.9850285714285714L12.024205714285713 18.80982857142857c-0.39815999999999996 0.3776571428571428 -0.9259885714285714 0.5882057142857142 -1.4747657142857142 0.5882057142857142H5.505497142857142c-0.6419314285714286 0 -1.219782857142857 0.57024 -1.219782857142857 1.23v6.7457142857142856c0 0.6597599999999999 0.5778514285714286 1.23 1.219782857142857 1.23h5.043942857142857c0.5584114285714284 0 1.094742857142857 0.2179542857142857 1.4948571428571427 0.6075085714285714l11.306057142857142 11.007942857142856c0.3363771428571429 0.1793142857142857 0.7533257142857143 0.1817142857142857 1.1570057142857142 -0.024 0.44307428571428575 -0.22594285714285714 0.6963771428571429 -0.6150857142857142 0.7124228571428571 -1.0464V8.822982857142858l0.0006171428571428571 -0.05088ZM33.67131428571428 21.428571428571427c-1.4201485714285715 0 -2.571428571428571 1.1512457142857142 -2.571428571428571 2.571428571428571 0 1.4201485714285715 1.1512799999999999 2.571428571428571 2.571428571428571 2.571428571428571h11.769257142857143c1.4201142857142857 0 2.571428571428571 -1.1512799999999999 2.571428571428571 -2.571428571428571 0 -1.420182857142857 -1.1513142857142855 -2.571428571428571 -2.571428571428571 -2.571428571428571H33.67131428571428Z" clip-rule="evenodd" stroke-width="3.4286"></path>
  </g>
</svg>