<svg xmlns="http://www.w3.org/2000/svg" fill="none" viewBox="0 0 48 48" id="Volume-Mute--Streamline-Core-Remix" height="48" width="48">
  <desc>
    Volume Mute Streamline Icon: https://streamlinehq.com
  </desc>
  <g id="Free Remix/Entertainment/volume-mute--speaker-remove-volume-control-audio-music-mute-off-cross-entertainment">
    <path id="Union" fill="#000000" fill-rule="evenodd" d="M21.096925714285714 4.330525714285714c3.621462857142857 -2.513328 8.491234285714285 0.14156571428571427 8.40857142857143 4.515017142857142V39.226285714285716l-0.0005142857142857142 -0.00034285714285714285C29.408571428571427 43.581942857142856 24.370971428571426 46.153371428571425 20.794285714285714 43.67108571428571c-0.09709714285714285 -0.0672 -0.18843428571428572 -0.1426285714285714 -0.27308571428571426 -0.22491428571428573L9.678582857142857 32.88946285714285H5.505497142857142C2.484384 32.88946285714285 0 30.388148571428573 0 27.373748571428568v-6.7457142857142856c0 -3.0144342857142856 2.484384 -5.515714285714285 5.505497142857142 -5.515714285714285h4.189268571428571l11.149165714285713 -10.576011428571428c0.07899428571428571 -0.07491428571428571 0.16354285714285713 -0.14372571428571426 0.25299428571428567 -0.20578285714285713Zm4.123474285714285 4.441577142857143c0.020742857142857143 -0.8742514285714285 -0.86712 -1.3736914285714286 -1.57608 -0.9850285714285714L12.024205714285713 18.80982857142857c-0.39815999999999996 0.3776571428571428 -0.9259885714285714 0.5882057142857142 -1.4747657142857142 0.5882057142857142H5.505497142857142c-0.6419314285714286 0 -1.219782857142857 0.57024 -1.219782857142857 1.23v6.7457142857142856c0 0.6597599999999999 0.5778514285714286 1.23 1.219782857142857 1.23h5.043942857142857c0.5584114285714284 0 1.094742857142857 0.2179542857142857 1.4948571428571427 0.6075085714285714l11.306057142857142 11.007942857142856c0.3363771428571429 0.1793142857142857 0.7533257142857143 0.1817142857142857 1.1570057142857142 -0.024 0.44307428571428575 -0.22594285714285714 0.6963771428571429 -0.6150857142857142 0.7124228571428571 -1.0464V8.822982857142858l0.0006171428571428571 -0.05088Zm22.0212 8.365542857142858c1.0042285714285712 1.0041942857142856 1.0042285714285712 2.63232 0 3.636548571428571l-3.2255999999999996 3.2256685714285713 3.2255999999999996 3.2256685714285713c1.0042285714285712 1.0042285714285712 1.0042285714285712 2.6323542857142854 0 3.636548571428571 -1.0042285714285712 1.0042285714285712 -2.632457142857143 1.0042285714285712 -3.636685714285714 0l-3.2255999999999996 -3.2256685714285713 -3.2255999999999996 3.2256685714285713c-1.0042285714285712 1.0042285714285712 -2.632457142857143 1.0042285714285712 -3.6366171428571428 0 -1.0041942857142856 -1.0041942857142856 -1.0041942857142856 -2.63232 0 -3.636548571428571l3.2255314285714283 -3.2256685714285713 -3.2255314285714283 -3.2256685714285713c-1.0041942857142856 -1.0042285714285712 -1.0041942857142856 -2.6323542857142854 0 -3.636548571428571 1.00416 -1.0042285714285712 2.6323885714285713 -1.0042285714285712 3.6366171428571428 0l3.2255999999999996 3.2256685714285713 3.2255999999999996 -3.2256685714285713c1.0042285714285712 -1.0042285714285712 2.632457142857143 -1.0042285714285712 3.636685714285714 0Z" clip-rule="evenodd" stroke-width="3.4286"></path>
  </g>
</svg>