<svg xmlns="http://www.w3.org/2000/svg" fill="none" viewBox="0 0 48 48" id="Volume-Level-High--Streamline-Core-Remix" height="48" width="48">
  <desc>
    Volume Level High Streamline Icon: https://streamlinehq.com
  </desc>
  <g id="Free Remix/Entertainment/volume-level-high--speaker-high-volume-control-audio-music-entertainment">
    <path id="Union" fill="#000000" fill-rule="evenodd" d="M21.104502857142855 4.324045714285714c3.622285714285714 -2.513893714285714 8.493154285714285 0.1416 8.410457142857142 4.516045714285714v30.392022857142855l-0.0005142857142857142 0c-0.09644571428571427 4.356685714285714 -5.135211428571428 6.9288 -8.712685714285714 4.446171428571428 -0.09709714285714285 -0.06754285714285714 -0.18843428571428572 -0.14297142857142855 -0.27308571428571426 -0.22525714285714282L9.681737142857143 32.892239999999994h-4.174971428571428C2.4849599999999996 32.892239999999994 0 30.390377142857144 0 27.37525714285714V20.627005714285712c0 -3.015085714285714 2.4849599999999996 -5.516982857142858 5.506765714285714 -5.516982857142858h4.191188571428571L20.85150857142857 4.529828571428571c0.07899428571428571 -0.07491428571428571 0.16357714285714287 -0.14372571428571426 0.25299428571428567 -0.20578285714285713Zm4.12536 4.4426057142857145c0.02077714285714286 -0.8752114285714285 -0.8681828571428571 -1.3752685714285713 -1.5779314285714283 -0.9860914285714284l-11.624571428571427 11.027005714285712c-0.39812571428571425 0.3776571428571428 -0.9259885714285714 0.5881714285714286 -1.4747657142857142 0.5881714285714286h-5.045828571428571c-0.6426171428571429 0 -1.2210514285714285 0.5708228571428571 -1.2210514285714285 1.2312685714285714v6.748251428571428c0 0.6604457142857142 0.5784342857142857 1.2312685714285714 1.2210514285714285 1.2312685714285714h5.045828571428571c0.5584114285714284 0 1.0947771428571427 0.21798857142857142 1.4948571428571427 0.6075085714285714L23.35782857142857 40.22605714285714c0.3367885714285714 0.17965714285714285 0.7542171428571428 0.18239999999999998 1.1582742857142858 -0.024 0.44348571428571426 -0.22594285714285714 0.6970971428571429 -0.6154285714285713 0.7131428571428571 -1.0470857142857142V8.817531428571428l0.0006171428571428571 -0.05088Zm15.49950857142857 1.2596914285714285c1.2147428571428571 -0.7355657142857143 2.795657142857143 -0.34700571428571425 3.531428571428571 0.8678057142857143 2.3897142857142852 3.946628571428571 3.6792 8.46089142857143 3.735428571428571 13.07424v0.06253714285714285c-0.05622857142857143 4.613348571428571 -1.3457142857142856 9.127577142857142 -3.735428571428571 13.074102857142856 -0.7357714285714285 1.215085714285714 -2.3166857142857142 1.6035428571428572 -3.531428571428571 0.8677714285714285 -1.215085714285714 -0.7354285714285713 -1.6035428571428572 -2.3166857142857142 -0.8677714285714285 -3.531428571428571 1.908685714285714 -3.1524342857142855 2.9413714285714283 -6.757097142857143 2.9917714285714285 -10.441714285714285 -0.05039999999999999 -3.6846514285714282 -1.0830857142857142 -7.289314285714286 -2.9917714285714285 -10.441817142857142 -0.7357714285714285 -1.214845714285714 -0.3473142857142857 -2.7959314285714285 0.8677714285714285 -3.5314971428571424ZM33.71067428571428 16.9728c1.0944685714285713 -0.9051771428571429 2.7151542857142856 -0.7518514285714286 3.6202971428571424 0.34248 1.5517714285714286 1.8758400000000002 2.3598857142857144 4.254754285714285 2.2741714285714285 6.684788571428571 0.08571428571428572 2.4300685714285715 -0.7223999999999999 4.808982857142857 -2.2741714285714285 6.684822857142857 -0.9051428571428571 1.0942971428571429 -2.5258285714285713 1.2476571428571428 -3.6202971428571424 0.34248 -1.0943314285714285 -0.9051771428571429 -1.2476571428571428 -2.5260685714285716 -0.3425142857142857 -3.6203999999999996 0.76128 -0.9202971428571428 1.1517257142857142 -2.0915657142857143 1.0948114285714285 -3.2845714285714283 -0.0037714285714285714 -0.08149714285714285 -0.0037714285714285714 -0.16313142857142857 0 -0.24462857142857142 0.05691428571428571 -1.1930057142857142 -0.3335314285714286 -2.3642742857142856 -1.0948114285714285 -3.2845714285714283 -0.9051428571428571 -1.0943314285714285 -0.7518171428571429 -2.715222857142857 0.3425142857142857 -3.6203999999999996Z" clip-rule="evenodd" stroke-width="3.4286"></path>
  </g>
</svg>