<svg xmlns="http://www.w3.org/2000/svg" fill="none" viewBox="0 0 48 48" id="Volume-Level-Low--Streamline-Core-Remix" height="48" width="48">
  <desc>
    Volume Level Low Streamline Icon: https://streamlinehq.com
  </desc>
  <g id="Free Remix/Entertainment/volume-level-low--volume-speaker-lower-down-control-music-low-audio-entertainment">
    <path id="Union" fill="#000000" fill-rule="evenodd" d="M21.57624 3.9795771428571425c3.6641142857142857 -2.542944 8.591314285714285 0.1430742857142857 8.507451428571427 4.568537142857142v30.975771428571424l-0.0005142857142857142 0c-0.09757714285714285 4.4077714285714285 -5.196308571428571 7.010400000000001 -8.815508571428571 4.498628571428571 -0.09709714285714285 -0.0672 -0.18843428571428572 -0.1426285714285714 -0.27308571428571426 -0.22491428571428573L9.92712 33.021942857142854h-4.271999999999999c-3.0570068571428566 0 -5.571414514285714 -2.531417142857143 -5.571414514285714 -5.5818514285714285V20.562102857142857c0 -3.0504342857142857 2.514407657142857 -5.5818514285714285 5.571414514285714 -5.5818514285714285h4.2882171428571425l11.37990857142857 -10.794925714285714c0.07899428571428571 -0.07491428571428571 0.16354285714285713 -0.14369142857142858 0.25299428571428567 -0.20574857142857142Zm4.222354285714285 4.495131428571429c0.021977142857142855 -0.9259200000000001 -0.92232 -1.4562857142857142 -1.6739314285714284 -1.0395771428571428L12.272742857142855 18.677794285714285c-0.39812571428571425 0.3776571428571428 -0.9259885714285714 0.5881714285714286 -1.4747657142857142 0.5881714285714286h-5.142857142857142c-0.6778285714285713 0 -1.2857142857142856 0.6003771428571428 -1.2857142857142856 1.2961371428571427v6.8779885714285705c0 0.6957599999999999 0.6078857142857143 1.2961371428571427 1.2857142857142856 1.2961371428571427h5.142857142857142c0.5584114285714284 0 1.0947771428571427 0.21798857142857142 1.4948571428571427 0.6075085714285714l11.532 11.22792c0.3572228571428571 0.19268571428571427 0.7993371428571427 0.19508571428571428 1.2238285714285713 -0.021257142857142856 0.4638514285714285 -0.23657142857142857 0.7326171428571429 -0.6462857142857142 0.7493142857142856 -1.1033142857142855V8.525588571428571l0.0006171428571428571 -0.05088Zm12.695005714285713 8.743474285714285c-0.9051428571428571 -1.0943314285714285 -2.5258285714285713 -1.2476571428571428 -3.6202285714285716 -0.34248 -1.0943657142857142 0.9051771428571429 -1.2476914285714285 2.5260685714285716 -0.3425142857142857 3.6203999999999996 0.7837714285714286 0.9474857142857142 1.1856 2.153348571428571 1.1273142857142855 3.3815999999999997 -0.0041142857142857136 0.08146285714285714 -0.0041142857142857136 0.16309714285714286 0 0.2445942857142857 0.05828571428571429 1.2282514285714285 -0.3435428571428571 2.43408 -1.1273142857142855 3.3815999999999997 -0.9051771428571429 1.0943314285714285 -0.7518514285714286 2.715222857142857 0.3425142857142857 3.6203999999999996 1.0943999999999998 0.9051428571428571 2.7150857142857143 0.7518171428571429 3.6202285714285716 -0.34248 1.5740571428571428 -1.9030285714285715 2.3938285714285716 -4.316537142857142 2.3063999999999996 -6.781817142857142 0.08742857142857142 -2.4653142857142853 -0.7323428571428572 -4.878788571428571 -2.3063999999999996 -6.781817142857142Z" clip-rule="evenodd" stroke-width="3.4286"></path>
  </g>
</svg>