<svg xmlns="http://www.w3.org/2000/svg" fill="none" viewBox="0 0 48 48" id="Vpn-Connection--Streamline-Core-Remix" height="48" width="48">
  <desc>
    VPN Connection Streamline Icon: https://streamlinehq.com
  </desc>
  <g id="Free Remix/Computer Devices/VPN-connection">
    <path id="Union" fill="#000000" fill-rule="evenodd" d="M6.857142857142857 1.2857142857142856C3.780137142857143 1.2857142857142856 1.2857142857142856 3.780137142857143 1.2857142857142856 6.857142857142857v9.852171428571427c0 13.466297142857142 8.617028571428571 25.421657142857143 21.392297142857142 29.680285714285716l0.6443657142857142 0.21462857142857142c0.4398514285714285 0.14674285714285712 0.9153942857142857 0.14674285714285712 1.3552457142857144 0l0.6443657142857142 -0.21462857142857142C38.097257142857146 42.13097142857143 46.71428571428571 30.17561142857143 46.71428571428571 16.709314285714285V6.857142857142857c0 -3.0770057142857143 -2.494285714285714 -5.571428571428571 -5.571428571428571 -5.571428571428571H6.857142857142857ZM5.571428571428571 6.857142857142857c0 -0.7100914285714285 0.5756228571428571 -1.2857142857142856 1.2857142857142856 -1.2857142857142856h34.285714285714285c0.7100571428571428 0 1.2857142857142856 0.5756228571428571 1.2857142857142856 1.2857142857142856v9.852171428571427c0 11.609897142857141 -7.421485714285714 21.91868571428571 -18.428571428571427 25.60337142857143 -11.006914285714286 -3.684685714285714 -18.428571428571427 -13.993474285714285 -18.428571428571427 -25.60337142857143V6.857142857142857Zm7.111645714285714 12.255771428571428c1.1701371428571428 -0.7801028571428571 5.4494742857142855 -2.751805714285714 11.30832 -2.751805714285714s10.138182857142857 1.9717028571428572 11.308491428571427 2.751805714285714c1.1814857142857143 0.7877485714285714 2.7778285714285715 0.46844571428571424 3.565714285714286 -0.7132114285714286 0.7878857142857143 -1.181622857142857 0.4683428571428571 -2.7781371428571426 -0.7131428571428571 -3.5659199999999998 -2.0136 -1.3423542857142856 -7.285234285714285 -3.6155314285714284 -14.161062857142856 -3.6155314285714284 -6.875862857142856 0 -12.147531428571428 2.2731771428571426 -14.161062857142856 3.6155314285714284 -1.1816571428571427 0.7877828571428571 -1.5009599999999998 2.3842971428571427 -0.7131771428571428 3.5659199999999998 0.7877485714285714 1.1816571428571427 2.384262857142857 1.5009599999999998 3.5659199999999998 0.7132114285714286ZM23.991085714285713 24.757748571428568c-2.6866285714285714 0 -5.791748571428571 1.1705142857142856 -6.965554285714286 1.7574171428571428 -1.2702171428571427 0.6351085714285714 -2.814822857142857 0.12023999999999999 -3.4499314285714284 -1.1500114285714285 -0.6351085714285714 -1.2702171428571427 -0.12023999999999999 -2.8147885714285716 1.1499771428571428 -3.4499314285714284 1.5313714285714284 -0.7656685714285714 5.459691428571428 -2.3003314285714285 9.26550857142857 -2.3003314285714285s7.7341371428571435 1.534662857142857 9.26550857142857 2.3003314285714285c1.2701485714285714 0.6351428571428571 1.78512 2.1797142857142857 1.149805714285714 3.4499314285714284 -0.6349371428571428 1.2702514285714284 -2.1795428571428572 1.78512 -3.44976 1.1500114285714285 -1.1738057142857141 -0.5869028571428571 -4.278925714285713 -1.7574171428571428 -6.965554285714286 -1.7574171428571428Zm-1.5079542857142856 9.098742857142856c0.07556571428571428 -0.03778285714285714 0.3288342857142857 -0.14856 0.6641485714285714 -0.2460342857142857 0.3416228571428572 -0.09929142857142856 0.6398742857142856 -0.14694857142857143 0.8436685714285714 -0.14694857142857143 0.20375999999999997 0 0.5020457142857143 0.04765714285714285 0.8436685714285714 0.14694857142857143 0.33527999999999997 0.09747428571428571 0.5885828571428571 0.20825142857142856 0.6641485714285714 0.2460342857142857 1.2702171428571427 0.63528 2.814822857142857 0.12023999999999999 3.4499314285714284 -1.1499771428571428 0.6351085714285714 -1.2702171428571427 0.12023999999999999 -2.814822857142857 -1.1499771428571428 -3.4499314285714284 -0.6217371428571429 -0.31086857142857144 -2.185062857142857 -0.9359314285714285 -3.8077714285714284 -0.9359314285714285s-3.1860342857142854 0.6250628571428571 -3.8077714285714284 0.9359314285714285c-1.2702514285714284 0.6351085714285714 -1.785085714285714 2.1797142857142857 -1.1499771428571428 3.4499314285714284 0.6351085714285714 1.2702171428571427 2.17968 1.7852571428571429 3.4499314285714284 1.1499771428571428Z" clip-rule="evenodd" stroke-width="3.4286"></path>
  </g>
</svg>