<svg xmlns="http://www.w3.org/2000/svg" fill="none" viewBox="0 0 48 48" id="Vr-Headset-1--Streamline-Core-Remix" height="48" width="48">
  <desc>
    Vr Headset 1 Streamline Icon: https://streamlinehq.com
  </desc>
  <g id="Free Remix/Entertainment/vr-headset-1--entertainment-gaming-vr-headset">
    <path id="Union" fill="#000000" fill-rule="evenodd" d="M6.396719999999999 16.65318857142857C8.532617142857143 10.207234285714286 14.573485714285715 5.571428571428571 21.673714285714286 5.571428571428571c3.7011771428571425 0 7.159097142857143 1.3484914285714285 9.916114285714285 3.550765714285714H27.18318857142857c-4.690799999999999 0 -8.634925714285714 3.197005714285714 -9.772182857142857 7.530994285714286l-11.014285714285714 0ZM21.673714285714286 1.2857142857142856c6.459085714285713 0 12.221177142857142 3.1827771428571427 15.938057142857142 7.836479999999999H41.14285714285714c3.077142857142857 0 5.571428571428571 2.494422857142857 5.571428571428571 5.571428571428571V23.75485714285714c0 2.764422857142857 -2.013257142857143 5.058582857142857 -4.6536 5.496205714285714v6.380708571428571c0 2.8628571428571425 -2.3207999999999998 5.183657142857142 -5.183657142857142 5.183657142857142H32.938045714285714v3.7563428571428568c0 1.183542857142857 -0.9593828571428571 2.142857142857143 -2.142857142857143 2.142857142857143 -1.1834399999999998 0 -2.142857142857143 -0.9593142857142857 -2.142857142857143 -2.142857142857143v-5.8991999999999996c0 -1.183542857142857 0.9594171428571429 -2.142857142857143 2.142857142857143 -2.142857142857143h6.08184c0.4957714285714286 0 0.8979428571428572 -0.40217142857142857 0.8979428571428572 -0.8979428571428572V29.32628571428571H27.18318857142857c-4.690525714285713 0 -8.634514285714285 -3.196628571428571 -9.771977142857141 -7.53024l-11.839782857142856 0c0.00003428571428571428 6.009599999999999 3.240822857142857 11.252914285714285 8.05806857142857 14.05824 0.6591085714285714 0.3836571428571428 1.064502857142857 1.0889142857142857 1.064502857142857 1.8517714285714286V44.57142857142857c0 1.183542857142857 -0.9593828571428571 2.142857142857143 -2.142857142857143 2.142857142857143s-2.142857142857143 -0.9593142857142857 -2.142857142857143 -2.142857142857143v-5.678399999999999C4.9104342857142855 35.22 1.2857142857142856 28.932205714285715 1.2857142857142856 21.795908571428573 1.2857142857142856 10.481931428571428 10.400262857142856 1.2857142857142856 21.673714285714286 1.2857142857142856Zm8.142137142857143 12.122194285714285V25.040571428571425h-2.632662857142857c-3.212468571428571 0 -5.816571428571428 -2.6041028571428573 -5.816571428571428 -5.816331428571429 0 -3.2121942857142853 2.6041028571428573 -5.816331428571429 5.816571428571428 -5.816331428571429h2.632662857142857Z" clip-rule="evenodd" stroke-width="3.4286"></path>
  </g>
</svg>