<svg xmlns="http://www.w3.org/2000/svg" fill="none" viewBox="0 0 48 48" id="Vr-Headset-2--Streamline-Core-Remix" height="48" width="48">
  <desc>
    Vr Headset 2 Streamline Icon: https://streamlinehq.com
  </desc>
  <g id="Free Remix/Entertainment/vr-headset-2--entertainment-gaming-vr-headset">
    <path id="Union" fill="#000000" fill-rule="evenodd" d="M15.629211428571427 5.2344c0.1363542857142857 -1.0700914285714285 1.0469142857142857 -1.8719554285714284 2.125645714285714 -1.8719554285714284h12.489805714285714c1.0787314285714287 0 1.9892914285714285 0.8018639999999999 2.125645714285714 1.8719554285714284l1.32264 10.377497142857143h5.919394285714286C44.21657142857143 15.611897142857142 48 19.300834285714284 48 23.913702857142855v12.201154285714285c0 5.458285714285714 -5.1486857142857145 9.300685714285713 -10.339542857142856 8.385942857142856C33.47204571428571 43.762971428571426 28.34856 43.06628571428571 24 43.06628571428571c-4.34856 0 -9.472045714285715 0.6966857142857142 -13.660388571428571 1.4345142857142856C5.148548571428571 45.41554285714285 0 41.573142857142855 0 36.11485714285714V23.913702857142855c0 -4.612868571428572 3.783428571428571 -8.301805714285713 8.387759999999998 -8.301805714285713h5.918811428571429l1.32264 -10.377497142857143Zm16.218239999999998 14.663211428571428c-0.02958857142857143 0.0005828571428571429 -0.05910857142857142 0.0005828571428571429 -0.08849142857142857 0h-15.5184c-0.02938285714285714 0.0005828571428571429 -0.05886857142857143 0.0005828571428571429 -0.08849142857142857 0H8.387759999999998c-2.2935771428571425 0 -4.1020457142857145 1.8259542857142856 -4.1020457142857145 4.016091428571428v12.201154285714285c0 2.5553142857142856 2.50248 4.660114285714285 5.310274285714285 4.1653714285714285C13.863017142857142 39.52834285714285 19.276251428571427 38.78057142857143 24 38.78057142857143c4.723748571428572 0 10.13694857142857 0.7477714285714285 14.404114285714286 1.4996571428571428 2.8076571428571424 0.49474285714285715 5.3101714285714285 -1.6100571428571429 5.3101714285714285 -4.1653714285714285V23.913702857142855c0 -2.1901371428571426 -1.8085714285714283 -4.016091428571428 -4.1019428571428564 -4.016091428571428H31.84745142857143ZM14.633382857142855 24.97933714285714c-1.1834742857142857 0 -2.142857142857143 0.9594171428571429 -2.142857142857143 2.142857142857143 0 1.1834742857142857 0.9593828571428571 2.142857142857143 2.142857142857143 2.142857142857143h18.734674285714284c1.1833714285714285 0 2.1430285714285713 -0.9593828571428571 2.1430285714285713 -2.142857142857143 0 -1.1834399999999998 -0.9596571428571428 -2.142857142857143 -2.1430285714285713 -2.142857142857143H14.633382857142855Z" clip-rule="evenodd" stroke-width="3.4286"></path>
  </g>
</svg>