<svg xmlns="http://www.w3.org/2000/svg" fill="none" viewBox="0 0 48 48" id="Waiting-Appointments-Calendar--Streamline-Core-Remix" height="48" width="48">
  <desc>
    Waiting Appointments Calendar Streamline Icon: https://streamlinehq.com
  </desc>
  <g id="Free Remix/Health/waiting-appointments-calendar">
    <path id="Union" fill="#000000" fill-rule="evenodd" d="M14.142857142857142 3C14.142857142857142 1.8165325714285714 13.183474285714285 0.8571428571428571 12 0.8571428571428571s-2.142857142857143 0.9593897142857143 -2.142857142857143 2.142857142857143V6.857142857142857H6.857142857142857c-1.477645714285714 0 -2.894742857142857 0.5869714285714285 -3.939596571428571 1.6318285714285712C1.8727028571428572 9.53382857142857 1.2857142857142856 10.950925714285715 1.2857142857142856 12.428571428571427v28.285714285714285c0 1.4777142857142855 0.5869885714285714 2.894742857142857 1.631832 3.9394285714285715C3.9623999999999997 45.698742857142854 5.379497142857143 46.285714285714285 6.857142857142857 46.285714285714285h34.285714285714285c1.4777142857142855 0 2.894742857142857 -0.5869714285714285 3.9394285714285715 -1.632 1.0450285714285714 -1.0446857142857142 1.632 -2.4617142857142853 1.632 -3.9394285714285715v-28.285714285714285c0 -1.477645714285714 -0.5869714285714285 -2.894742857142857 -1.632 -3.9395999999999995C44.0376 7.444114285714285 42.620571428571424 6.857142857142857 41.14285714285714 6.857142857142857h-3V3c0 -1.1834674285714284 -0.9593142857142857 -2.142857142857143 -2.142857142857143 -2.142857142857143s-2.142857142857143 0.9593897142857143 -2.142857142857143 2.142857142857143V6.857142857142857h-19.71428571428571V3Zm19.71428571428571 10.285714285714285V11.142857142857142h-19.71428571428571v2.142857142857143c0 1.1834742857142857 -0.9593828571428571 2.142857142857143 -2.142857142857143 2.142857142857143s-2.142857142857143 -0.9593828571428571 -2.142857142857143 -2.142857142857143V11.142857142857142H6.857142857142857c-0.3410057142857143 0 -0.6680228571428571 0.13546285714285713 -0.9091542857142857 0.37655999999999995 -0.24109714285714282 0.24113142857142858 -0.37655999999999995 0.5681485714285713 -0.37655999999999995 0.9091542857142857v28.285714285714285c0 0.34114285714285714 0.13546285714285713 0.6678857142857143 0.37655999999999995 0.9092571428571428 0.24113142857142858 0.24102857142857143 0.5681485714285713 0.3764571428571428 0.9091542857142857 0.3764571428571428h34.285714285714285c0.34114285714285714 0 0.6678857142857143 -0.13542857142857143 0.9092571428571428 -0.3764571428571428 0.24102857142857143 -0.24137142857142857 0.3764571428571428 -0.5681142857142857 0.3764571428571428 -0.9092571428571428v-28.285714285714285c0 -0.3410057142857143 -0.13542857142857143 -0.6680228571428571 -0.3764571428571428 -0.9091542857142857C41.810742857142856 11.278319999999999 41.484 11.142857142857142 41.14285714285714 11.142857142857142h-3v2.142857142857143c0 1.1834742857142857 -0.9593142857142857 2.142857142857143 -2.142857142857143 2.142857142857143s-2.142857142857143 -0.9593828571428571 -2.142857142857143 -2.142857142857143ZM19.994777142857142 19.247657142857143c0 -0.6890742857142856 0.5585828571428572 -1.2476571428571428 1.2476228571428571 -1.2476571428571428h5.5152c0.68904 0 1.2476228571428571 0.5585828571428572 1.2476228571428571 1.2476571428571428v4.604297142857142H32.60948571428572c0.6890742857142856 0 1.2476571428571428 0.5586171428571428 1.2476571428571428 1.2476571428571428v5.5152c0 0.68904 -0.5585828571428572 1.2476228571428571 -1.2476571428571428 1.2476228571428571H28.005222857142854v4.604194285714285c0 0.6891428571428572 -0.5585828571428572 1.2476571428571428 -1.2476228571428571 1.2476571428571428H21.2424c-0.68904 0 -1.2476228571428571 -0.5585142857142856 -1.2476228571428571 -1.2476571428571428V31.862434285714286H15.390514285714286c-0.6890742857142856 0 -1.2476571428571428 -0.5585828571428572 -1.2476571428571428 -1.2476228571428571v-5.5152c0 -0.68904 0.5585828571428572 -1.2476571428571428 1.2476571428571428 -1.2476571428571428h4.604262857142857V19.247657142857143Z" clip-rule="evenodd" stroke-width="3.4286"></path>
  </g>
</svg>