<svg xmlns="http://www.w3.org/2000/svg" fill="none" viewBox="0 0 48 48" id="Wallet-Purse--Streamline-Core-Remix" height="48" width="48">
  <desc>
    Wallet Purse Streamline Icon: https://streamlinehq.com
  </desc>
  <g id="Free Remix/Money Shopping/wallet-purse--money-payment-finance-wallet-purse">
    <path id="Union" fill="#000000" fill-rule="evenodd" d="M17.417142857142856 0.6428571428571428c1.6568571428571428 0 3 1.3431462857142857 3 3 0 0.9502285714285714 0.37748571428571426 1.8615428571428572 1.0494171428571428 2.5334742857142856 0.6718971428571429 0.6718971428571429 1.5832114285714285 1.0493828571428572 2.53344 1.0493828571428572s1.8615428571428572 -0.37748571428571426 2.5334742857142856 -1.0493828571428572c0.6718971428571429 -0.6719314285714285 1.0493828571428572 -1.5832457142857144 1.0493828571428572 -2.5334742857142856 0 -1.656853714285714 1.343142857142857 -3 3 -3s3 1.3431462857142857 3 3c0 1.6716342857142856 -0.43676571428571426 3.2982171428571423 -1.2470742857142856 4.727211428571429 5.3935885714285705 1.4731542857142856 10.361931428571427 4.363302857142856 14.374045714285714 8.440971428571428 1.161942857142857 1.1810399999999999 1.1468571428571428 3.0804685714285713 -0.03428571428571429 4.242514285714286 -1.181142857142857 1.1620457142857143 -3.080571428571428 1.1466514285714287 -4.242514285714286 -0.03435428571428571C37.533257142857146 16.039234285714286 30.90226285714285 13.251805714285714 24 13.251805714285714c-6.902262857142857 0 -13.533085714285715 2.787428571428571 -18.432994285714283 7.767394285714285 -1.1620457142857143 1.1810057142857142 -3.0614742857142856 1.1964 -4.242500571428571 0.03435428571428571 -1.1810245714285712 -1.1620457142857143 -1.196412 -3.0614742857142856 -0.034367999999999996 -4.242514285714286C5.302285714285714 12.733371428571429 10.270697142857143 9.843188571428572 15.664251428571427 8.37006857142857 14.85390857142857 6.9410742857142855 14.417142857142856 5.314491428571428 14.417142857142856 3.642857142857143c0 -1.656853714285714 1.343142857142857 -3 3 -3ZM7.934777142857142 24.312068571428572C12.19368 20.031668571428572 17.972297142857144 17.624982857142857 24 17.624982857142857s11.806285714285712 2.406685714285714 16.065257142857142 6.687085714285714c4.258628571428571 4.280057142857143 6.6490285714285715 10.082674285714285 6.6490285714285715 16.131017142857143 0 1.8301714285714286 -0.7234285714285713 3.5876571428571427 -2.0142857142857142 4.885028571428571 -1.2912 1.2980571428571428 -3.0449142857142855 2.0290285714285714 -4.875771428571428 2.0290285714285714H8.175839999999999c-1.8308914285714284 0 -3.5845714285714285 -0.7309714285714285 -4.8758674285714285 -2.0290285714285714C2.0090262857142855 44.030742857142855 1.2857142857142856 42.27325714285714 1.2857142857142856 40.44308571428571c0 -6.048342857142857 2.3905028571428573 -11.850959999999999 6.649062857142857 -16.131017142857143ZM24 21.910697142857142c-4.884068571428571 0 -9.570308571428571 1.9498971428571428 -13.027165714285713 5.424205714285714C7.5156 30.809588571428566 5.571428571428571 35.52445714285714 5.571428571428571 40.44308571428571c0 0.7004571428571429 0.2769942857142857 1.3703999999999998 0.7666285714285713 1.8624 0.48925714285714283 0.49165714285714285 1.1505257142857142 0.765942857142857 1.8377828571428572 0.765942857142857h31.64838857142857c0.6870857142857142 0 1.3484571428571428 -0.2742857142857143 1.8377142857142856 -0.765942857142857 0.48960000000000004 -0.49199999999999994 0.7666285714285713 -1.161942857142857 0.7666285714285713 -1.8624 0 -4.918628571428571 -1.9443428571428572 -9.633497142857141 -5.401371428571428 -13.108182857142857C33.57030857142857 23.860594285714285 28.884068571428568 21.910697142857142 24 21.910697142857142Z" clip-rule="evenodd" stroke-width="3.4286"></path>
  </g>
</svg>