<svg xmlns="http://www.w3.org/2000/svg" fill="none" viewBox="0 0 48 48" id="Wallet--Streamline-Core-Remix" height="48" width="48">
  <desc>
    Wallet Streamline Icon: https://streamlinehq.com
  </desc>
  <g id="Free Remix/Money Shopping/wallet--money-payment-finance-wallet">
    <path id="Union" fill="#000000" fill-rule="evenodd" d="M4.285714285714286 15.428571428571427c0 -4.497188571428571 3.6456685714285713 -8.142857142857142 8.142857142857142 -8.142857142857142h19.71428571428571v4.285714285714286h-19.71428571428571C11.245097142857142 11.571428571428571 10.285714285714285 12.530811428571427 10.285714285714285 13.714285714285714s0.9593828571428571 2.142857142857143 2.142857142857143 2.142857142857143H37.714285714285715c0.34114285714285714 0 0.6678857142857143 0.13546285714285713 0.9092571428571428 0.37655999999999995 0.24102857142857143 0.24113142857142858 0.3764571428571428 0.5681485714285713 0.3764571428571428 0.9091542857142857v4.285714285714286H32.57142857142857c-1.893565714285714 0 -3.4285714285714284 1.53504 -3.4285714285714284 3.4285714285714284v6.857142857142857c0 1.8935314285714284 1.535005714285714 3.4285714285714284 3.4285714285714284 3.4285714285714284h6.428571428571428v4.285714285714286c0 0.34114285714285714 -0.13542857142857143 0.6678857142857143 -0.3764571428571428 0.9092571428571428 -0.24137142857142857 0.24102857142857143 -0.5681142857142857 0.3764571428571428 -0.9092571428571428 0.3764571428571428H5.571428571428571c-0.3410057142857143 0 -0.6680228571428571 -0.13542857142857143 -0.9091542857142857 -0.3764571428571428 -0.24109714285714282 -0.24137142857142857 -0.37655999999999995 -0.5681142857142857 -0.37655999999999995 -0.9092571428571428v-24Zm39 6H44.57142857142857c1.8936 0 3.4285714285714284 1.53504 3.4285714285714284 3.4285714285714284v6.857142857142857c0 1.8935314285714284 -1.5349714285714284 3.4285714285714284 -3.4285714285714284 3.4285714285714284h-1.2857142857142856v4.285714285714286c0 1.4777142857142855 -0.5869714285714285 2.894742857142857 -1.632 3.9394285714285715 -1.0446857142857142 1.0450285714285714 -2.4617142857142853 1.632 -3.9394285714285715 1.632H5.571428571428571c-1.477645714285714 0 -2.894749714285714 -0.5869714285714285 -3.939593142857143 -1.632C0.5869885714285714 42.32331428571428 0 40.90628571428571 0 39.42857142857142v-24C0 8.564468571428572 5.564468571428571 3 12.428571428571427 3H34.285714285714285c1.183542857142857 0 2.142857142857143 0.9593828571428571 2.142857142857143 2.142857142857143v6.428571428571428H37.714285714285715c1.4777142857142855 0 2.894742857142857 0.5870057142857142 3.9394285714285715 1.6318285714285712 1.0450285714285714 1.044857142857143 1.632 2.4619542857142855 1.632 3.9395999999999995v4.285714285714286Z" clip-rule="evenodd" stroke-width="3.4286"></path>
  </g>
</svg>