<svg xmlns="http://www.w3.org/2000/svg" fill="none" viewBox="0 0 48 48" id="Waning-Cresent-Moon--Streamline-Core-Remix" height="48" width="48">
  <desc>
    Waning Cresent Moon Streamline Icon: https://streamlinehq.com
  </desc>
  <g id="Free Remix/Interface Essential/waning-cresent-moon--night-new-moon-crescent-weather-time-waning">
    <path id="Vector" stroke="#000000" stroke-linecap="round" stroke-linejoin="round" stroke-width="4.2857" d="M27.361782857142856 23.99976c0.01584 -4.0774285714285705 1.0903885714285713 -8.0808 3.1184571428571424 -11.618125714285714 2.0280342857142855 -3.537291428571428 4.939988571428572 -6.487234285714285 8.450845714285714 -8.56086857142857C36.327771428571424 2.742936 33.542434285714286 2.1721851428571424 30.724971428571425 2.1391954285714285c-5.797782857142857 0 -11.358102857142857 2.3031702857142853 -15.45774857142857 6.402816C11.167542857142857 12.641657142857142 8.864399999999998 18.201977142857142 8.864399999999998 23.99976c0 5.797782857142857 2.303142857142857 11.358068571428571 6.402822857142857 15.457611428571427 4.099645714285714 4.099885714285714 9.659965714285713 6.402857142857142 15.45774857142857 6.402857142857142 2.8514742857142856 -0.019885714285714284 5.672057142857143 -0.5910857142857142 8.306914285714285 -1.6813714285714285 -3.529371428571429 -2.0612571428571425 -6.461622857142857 -5.005714285714285 -8.507828571428572 -8.54365714285714 -2.04624 -3.53832 -3.1360799999999998 -7.548274285714285 -3.1622742857142856 -11.63544v0Z"></path>
  </g>
</svg>