<svg xmlns="http://www.w3.org/2000/svg" fill="none" viewBox="0 0 48 48" id="Warning-Octagon--Streamline-Core-Remix" height="48" width="48">
  <desc>
    Warning Octagon Streamline Icon: https://streamlinehq.com
  </desc>
  <g id="Free Remix/Interface Essential/warning-octagon--frame-alert-warning-octagon-exclamation-caution">
    <path id="Union" fill="#000000" fill-rule="evenodd" d="M16.796742857142856 5.948022857142856c0.24109714285714282 -0.24113142857142858 0.5681485714285713 -0.37659428571428566 0.9091199999999999 -0.37659428571428566h12.588274285714284c0.34097142857142854 0 0.6680228571428571 0.13546285714285713 0.9091199999999999 0.37655999999999995l10.848857142857142 10.848754285714284c0.24102857142857143 0.24109714285714282 0.3764571428571428 0.5681485714285713 0.3764571428571428 0.9091199999999999v12.588274285714284c0 0.34097142857142854 -0.13542857142857143 0.6680228571428571 -0.3764571428571428 0.9091199999999999L31.20325714285714 42.05211428571428c-0.24109714285714282 0.24102857142857143 -0.5681485714285713 0.3764571428571428 -0.9091199999999999 0.3764571428571428H17.705862857142854c-0.34097142857142854 0 -0.6680228571428571 -0.13542857142857143 -0.9091199999999999 -0.3764571428571428L5.948022857142856 31.20325714285714c-0.24113142857142858 -0.24109714285714282 -0.37659428571428566 -0.5681485714285713 -0.37659428571428566 -0.9091199999999999V17.705862857142854c0 -0.34097142857142854 0.13546285714285713 -0.6680228571428571 0.37655999999999995 -0.9091199999999999l10.848754285714284 -10.84872ZM17.705862857142854 1.2857142857142856c-1.4776114285714286 0 -2.894742857142857 0.5869885714285714 -3.9395999999999995 1.6318354285714285L2.9175462857142858 13.766297142857143C1.8727028571428572 14.811119999999999 1.2857142857142856 16.22825142857143 1.2857142857142856 17.705862857142854v12.588274285714284c0 1.4776114285714286 0.5869885714285714 2.894742857142857 1.6318354285714285 3.9395999999999995L13.766297142857143 45.08228571428571c1.044822857142857 1.0450285714285714 2.4619542857142855 1.632 3.939565714285714 1.632h12.588274285714284c1.4776114285714286 0 2.894742857142857 -0.5869714285714285 3.9395999999999995 -1.632L45.08228571428571 34.23370285714286c1.0450285714285714 -1.044822857142857 1.632 -2.4619542857142855 1.632 -3.939565714285714V17.705862857142854c0 -1.4776114285714286 -0.5869714285714285 -2.894742857142857 -1.632 -3.9395999999999995L34.23370285714286 2.9175462857142858C33.18888 1.8727028571428572 31.771748571428567 1.2857142857142856 30.29413714285714 1.2857142857142856H17.705862857142854ZM26.57142857142857 13.285714285714285c0 -1.4201485714285715 -1.1512799999999999 -2.571428571428571 -2.571428571428571 -2.571428571428571s-2.571428571428571 1.1512799999999999 -2.571428571428571 2.571428571428571v11.142857142857142c0 1.4201485714285715 1.1512799999999999 2.571428571428571 2.571428571428571 2.571428571428571s2.571428571428571 -1.1512799999999999 2.571428571428571 -2.571428571428571v-11.142857142857142Zm-6 20.57142857142857c0 1.8936 1.53504 3.4285714285714284 3.4285714285714284 3.4285714285714284s3.4285714285714284 -1.5349714285714284 3.4285714285714284 -3.4285714285714284c0 -1.893565714285714 -1.53504 -3.4285714285714284 -3.4285714285714284 -3.4285714285714284s-3.4285714285714284 1.535005714285714 -3.4285714285714284 3.4285714285714284Z" clip-rule="evenodd" stroke-width="3.4286"></path>
  </g>
</svg>