<svg xmlns="http://www.w3.org/2000/svg" fill="none" viewBox="0 0 48 48" id="Warning-Triangle--Streamline-Core-Remix" height="48" width="48">
  <desc>
    Warning Triangle Streamline Icon: https://streamlinehq.com
  </desc>
  <g id="Free Remix/Interface Essential/warning-triangle--frame-alert-warning-triangle-exclamation-caution">
    <path id="Union" fill="#000000" fill-rule="evenodd" d="M22.88893714285714 7.503394285714284c0.49614857142857144 -0.8504914285714286 1.7250171428571426 -0.8505257142857143 2.221165714285714 0l18.42624 31.58814857142857c0.5002285714285714 0.8571428571428571 -0.11794285714285714 1.9333714285714283 -1.1105142857142858 1.9333714285714283H5.573142857142857c-0.9923314285714286 0 -1.6105714285714285 -1.0762285714285713 -1.110582857142857 -1.9333714285714283l18.42637714285714 -31.58814857142857Zm5.923062857142857 -2.1594514285714284c-2.149885714285714 -3.6855188571428568 -7.475074285714285 -3.6855325714285714 -9.62496 0L0.7606388571428571 36.932228571428574c-2.1666342857142857 3.714171428571428 0.5125131428571429 8.378400000000001 4.812504 8.378400000000001h36.85268571428571c4.300114285714286 0 6.9792 -4.664228571428572 4.812685714285714 -8.378400000000001L28.811999999999998 5.343942857142857Zm-2.241222857142857 9.655988571428571c0 -1.4201485714285715 -1.1512457142857142 -2.571428571428571 -2.571428571428571 -2.571428571428571 -1.4201485714285715 0 -2.571428571428571 1.1512799999999999 -2.571428571428571 2.571428571428571v11.142857142857142c0 1.420182857142857 1.1512799999999999 2.571428571428571 2.571428571428571 2.571428571428571 1.420182857142857 0 2.571428571428571 -1.1512457142857142 2.571428571428571 -2.571428571428571v-11.142857142857142Zm-6 20.571497142857144c0 1.8936 1.53504 3.4285714285714284 3.4285714285714284 3.4285714285714284 1.893565714285714 0 3.4285714285714284 -1.5349714285714284 3.4285714285714284 -3.4285714285714284s-1.535005714285714 -3.4286399999999997 -3.4285714285714284 -3.4286399999999997c-1.8935314285714284 0 -3.4285714285714284 1.53504 -3.4285714285714284 3.4286399999999997Z" clip-rule="evenodd" stroke-width="3.4286"></path>
  </g>
</svg>