<svg xmlns="http://www.w3.org/2000/svg" fill="none" viewBox="0 0 48 48" id="Watch-Circle-Charging--Streamline-Core-Remix" height="48" width="48">
  <desc>
    Watch Circle Charging Streamline Icon: https://streamlinehq.com
  </desc>
  <g id="Free Remix/Computer Devices/watch-circle-charging--device-timepiece-circle-watch-round-charge-charging-power">
    <path id="Union" fill="#000000" fill-rule="evenodd" d="M15.220594285714284 1.5063085714285713C16.18505142857143 0.5418342857142857 17.49318857142857 0 18.857142857142858 0h10.285714285714285c1.3639542857142857 0 2.6720914285714286 0.5418342857142857 3.636548571428571 1.5063085714285713C33.74386285714286 2.4707794285714284 34.285714285714285 3.7788685714285717 34.285714285714285 5.142857142857142v4.6091999999999995c4.413942857142858 3.1919314285714284 7.285714285714286 8.384571428571428 7.285714285714286 14.247942857142855 0 5.863371428571428 -2.8717714285714284 11.056114285714285 -7.285714285714286 14.248114285714287V42.857142857142854c0 1.3638857142857141 -0.5418514285714285 2.672228571428571 -1.5063085714285713 3.636685714285714S30.506811428571424 48 29.142857142857142 48h-10.285714285714285c-1.3639542857142857 0 -2.6720914285714286 -0.5417142857142857 -3.636548571428571 -1.5061714285714285C14.256137142857142 45.52937142857143 13.714285714285714 44.22102857142857 13.714285714285714 42.857142857142854v-4.6090285714285715C9.300445714285713 35.05611428571429 6.428571428571428 29.86337142857143 6.428571428571428 24c0 -5.863371428571428 2.8718742857142856 -11.056011428571429 7.285714285714286 -14.247942857142855V5.142857142857142c0 -1.3639885714285713 0.5418514285714285 -2.6720777142857144 1.5063085714285713 -3.636548571428571ZM26.92872 17.706171428571427c0.7674171428571428 -0.9009257142857142 0.6591428571428571 -2.2533942857142857 -0.24181714285714284 -3.0207771428571424 -0.9009257142857142 -0.7674171428571428 -2.2533942857142857 -0.6591428571428571 -3.0207771428571424 0.24178285714285713l-6.540719999999999 7.678971428571428c-0.5418514285714285 0.6361714285714285 -0.6644914285714286 1.52928 -0.31412571428571423 2.2879199999999997 0.3503657142857143 0.7586742857142856 1.10976 1.2444342857142856 1.9454057142857142 1.2444342857142856h5.8557942857142855L21.081085714285713 30.29605714285714c-0.766182857142857 0.902022857142857 -0.6560571428571428 2.25432 0.24596571428571426 3.0204685714285713 0.9019885714285714 0.7661485714285714 2.254285714285714 0.6560228571428571 3.0204342857142854 -0.24596571428571426L30.87737142857143 25.38288c0.5406171428571428 -0.6364799999999999 0.6622285714285714 -1.5290742857142856 0.31155428571428573 -2.2869942857142855 -0.35064 -0.7579199999999999 -1.1096571428571427 -1.243097142857143 -1.9447885714285713 -1.243097142857143H23.396742857142854L26.92872 17.706171428571427ZM10.714285714285714 24c0 -7.337485714285713 5.948228571428571 -13.285714285714285 13.285714285714285 -13.285714285714285S37.285714285714285 16.662514285714284 37.285714285714285 24 31.337485714285712 37.285714285714285 24 37.285714285714285 10.714285714285714 31.337485714285712 10.714285714285714 24Z" clip-rule="evenodd" stroke-width="3.4286"></path>
  </g>
</svg>