<svg xmlns="http://www.w3.org/2000/svg" fill="none" viewBox="0 0 48 48" id="Watch-2--Streamline-Core-Remix" height="48" width="48">
  <desc>
    Watch 2 Streamline Icon: https://streamlinehq.com
  </desc>
  <g id="Free Remix/Computer Devices/watch-2--device-square-timepiece-electronics-face-blank-watch-smart">
    <path id="Union" fill="#000000" fill-rule="evenodd" d="M18.857142857142858 0c-1.3639542857142857 0 -2.6720914285714286 0.5418342857142857 -3.636548571428571 1.5063085714285713C14.256137142857142 2.4707794285714284 13.714285714285714 3.7788685714285717 13.714285714285714 5.142857142857142v1.2857142857142856h-1.7142857142857142c-3.0770057142857143 0 -5.571428571428571 2.494422857142857 -5.571428571428571 5.571428571428571v24c0 3.077142857142857 2.494422857142857 5.571428571428571 5.571428571428571 5.571428571428571H13.714285714285714v1.2857142857142856c0 1.3638857142857141 0.5418514285714285 2.672228571428571 1.5063085714285713 3.636685714285714S17.493154285714287 48 18.857142857142858 48h10.285714285714285c1.3639885714285713 0 2.6720914285714286 -0.5417142857142857 3.636548571428571 -1.5061714285714285C33.74386285714286 45.52937142857143 34.285714285714285 44.22102857142857 34.285714285714285 42.857142857142854v-1.2857142857142856h1.7142857142857142c3.077142857142857 0 5.571428571428571 -2.494285714285714 5.571428571428571 -5.571428571428571v-24c0 -3.0770057142857143 -2.494285714285714 -5.571428571428571 -5.571428571428571 -5.571428571428571H34.285714285714285V5.142857142857142c0 -1.3639885714285713 -0.5418514285714285 -2.6720777142857144 -1.5063085714285713 -3.636548571428571C31.814948571428573 0.5418342857142857 30.506811428571424 0 29.142857142857142 0h-10.285714285714285ZM10.714285714285714 12c0 -0.7100914285714285 0.5756228571428571 -1.2857142857142856 1.2857142857142856 -1.2857142857142856h24c0.7100571428571428 0 1.2857142857142856 0.5756228571428571 1.2857142857142856 1.2857142857142856v24c0 0.7100571428571428 -0.5756571428571428 1.2857142857142856 -1.2857142857142856 1.2857142857142856h-24c-0.7100914285714285 0 -1.2857142857142856 -0.5756571428571428 -1.2857142857142856 -1.2857142857142856v-24Z" clip-rule="evenodd" stroke-width="3.4286"></path>
  </g>
</svg>