<svg xmlns="http://www.w3.org/2000/svg" fill="none" viewBox="0 0 48 48" id="Watch-Circle-Heartbeat-Monitor-2--Streamline-Core-Remix" height="48" width="48">
  <desc>
    Watch Circle Heartbeat Monitor 2 Streamline Icon: https://streamlinehq.com
  </desc>
  <g id="Free Remix/Computer Devices/watch-circle-heartbeat-monitor-2--device-timepiece-circle-watch-round-heart-beat-monitor-healthcare">
    <path id="Union" fill="#000000" fill-rule="evenodd" d="M15.220594285714284 1.5063085714285713C16.18505142857143 0.5418342857142857 17.49318857142857 0 18.857142857142858 0h10.285714285714285c1.3639542857142857 0 2.6720914285714286 0.5418342857142857 3.636548571428571 1.5063085714285713C33.74386285714286 2.4707794285714284 34.285714285714285 3.7788685714285717 34.285714285714285 5.142857142857142v4.6091999999999995c4.413942857142858 3.1919314285714284 7.285714285714286 8.384571428571428 7.285714285714286 14.247942857142855 0 5.863371428571428 -2.8717714285714284 11.056114285714285 -7.285714285714286 14.248114285714287V42.857142857142854c0 1.3638857142857141 -0.5418514285714285 2.672228571428571 -1.5063085714285713 3.636685714285714S30.506811428571424 48 29.142857142857142 48h-10.285714285714285c-1.3639542857142857 0 -2.6720914285714286 -0.5417142857142857 -3.636548571428571 -1.5061714285714285C14.256137142857142 45.52937142857143 13.714285714285714 44.22102857142857 13.714285714285714 42.857142857142854v-4.6090285714285715C9.300445714285713 35.05611428571429 6.428571428571428 29.86337142857143 6.428571428571428 24c0 -5.863371428571428 2.8718742857142856 -11.056011428571429 7.285714285714286 -14.247942857142855V5.142857142857142c0 -1.3639885714285713 0.5418514285714285 -2.6720777142857144 1.5063085714285713 -3.636548571428571ZM23.47464 17.374285714285712c-0.29256 -0.7616228571428572 -0.9922628571428571 -1.2910285714285714 -1.8047657142857143 -1.3654971428571427 -0.8124685714285713 -0.07443428571428572 -1.5967542857142858 0.3189257142857143 -2.0228914285714286 1.0146857142857142L16.773942857142856 21.71413714285714h-1.4860114285714285c-1.1834399999999998 0 -2.142857142857143 0.9593828571428571 -2.142857142857143 2.142857142857143s0.9594171428571429 2.142857142857143 2.142857142857143 2.142857142857143h2.686388571428571c0.7457142857142857 0 1.4378057142857141 -0.3877028571428571 1.8273257142857144 -1.0235999999999998l1.2304799999999998 -2.0089714285714284 2.9418514285714283 7.658159999999999c0.2976342857142857 0.774822857142857 1.0159885714285712 1.3080685714285714 1.843782857142857 1.3686857142857143 0.8277942857142856 0.06065142857142857 1.6161942857142855 -0.3622285714285714 2.023577142857143 -1.0854171428571426l2.7652114285714284 -4.908857142857143h2.1044914285714285c1.1834742857142857 0 2.142788571428571 -0.9593828571428571 2.142788571428571 -2.142857142857143s-0.9593142857142857 -2.142857142857143 -2.142788571428571 -2.142857142857143h-3.356845714285714c-0.7736571428571428 0 -1.48728 0.4170514285714285 -1.8669942857142856 1.091142857142857l-1.1452457142857142 2.0330742857142856 -2.8673142857142855 -7.464068571428571ZM10.714285714285714 24c0 -7.337485714285713 5.948228571428571 -13.285714285714285 13.285714285714285 -13.285714285714285S37.285714285714285 16.662514285714284 37.285714285714285 24 31.337485714285712 37.285714285714285 24 37.285714285714285 10.714285714285714 31.337485714285712 10.714285714285714 24Z" clip-rule="evenodd" stroke-width="3.4286"></path>
  </g>
</svg>