<svg xmlns="http://www.w3.org/2000/svg" fill="none" viewBox="0 0 48 48" id="Watch-Circle-Time--Streamline-Core-Remix" height="48" width="48">
  <desc>
    Watch Circle Time Streamline Icon: https://streamlinehq.com
  </desc>
  <g id="Free Remix/Computer Devices/watch-circle-time--device-timepiece-circle-watch-round-time-clock-analog">
    <path id="Union" fill="#000000" fill-rule="evenodd" d="M15.220594285714284 1.5063085714285713C16.18505142857143 0.5418342857142857 17.49318857142857 0 18.857142857142858 0h10.285714285714285c1.3639542857142857 0 2.6720914285714286 0.5418342857142857 3.636548571428571 1.5063085714285713C33.74386285714286 2.4707794285714284 34.285714285714285 3.7788685714285717 34.285714285714285 5.142857142857142v4.6091999999999995c4.413942857142858 3.1919314285714284 7.285714285714286 8.384571428571428 7.285714285714286 14.247942857142855 0 5.863371428571428 -2.8717714285714284 11.056114285714285 -7.285714285714286 14.248114285714287V42.857142857142854c0 1.3638857142857141 -0.5418514285714285 2.672228571428571 -1.5063085714285713 3.636685714285714S30.506811428571424 48 29.142857142857142 48h-10.285714285714285c-1.3639542857142857 0 -2.6720914285714286 -0.5417142857142857 -3.636548571428571 -1.5061714285714285C14.256137142857142 45.52937142857143 13.714285714285714 44.22102857142857 13.714285714285714 42.857142857142854v-4.6090285714285715C9.300445714285713 35.05611428571429 6.428571428571428 29.86337142857143 6.428571428571428 24c0 -5.863371428571428 2.8718742857142856 -11.056011428571429 7.285714285714286 -14.247942857142855V5.142857142857142c0 -1.3639885714285713 0.5418514285714285 -2.6720777142857144 1.5063085714285713 -3.636548571428571ZM24 14.571428571428571c1.1834742857142857 0 2.142857142857143 0.9593828571428571 2.142857142857143 2.142857142857143v6.3981257142857135l3.65808 3.65808c0.8368457142857142 0.8368457142857142 0.8368457142857142 2.1936 0 3.030445714285714 -0.8368457142857142 0.8368457142857142 -2.1936 0.8368457142857142 -3.030445714285714 0l-4.285714285714286 -4.285714285714286C22.082914285714285 25.113359999999997 21.857142857142858 24.568319999999996 21.857142857142858 24V16.71428571428571c0 -1.1834742857142857 0.9593828571428571 -2.142857142857143 2.142857142857143 -2.142857142857143ZM10.714285714285714 24c0 -7.337485714285713 5.948228571428571 -13.285714285714285 13.285714285714285 -13.285714285714285S37.285714285714285 16.662514285714284 37.285714285714285 24 31.337485714285712 37.285714285714285 24 37.285714285714285 10.714285714285714 31.337485714285712 10.714285714285714 24Z" clip-rule="evenodd" stroke-width="3.4286"></path>
  </g>
</svg>