<svg xmlns="http://www.w3.org/2000/svg" fill="none" viewBox="0 0 48 48" id="Watch-Circle-Heartbeat-Monitor-1--Streamline-Core-Remix" height="48" width="48">
  <desc>
    Watch Circle Heartbeat Monitor 1 Streamline Icon: https://streamlinehq.com
  </desc>
  <g id="Free Remix/Computer Devices/watch-circle-heartbeat-monitor-1--device-timepiece-circle-watch-round-heart-beat-monitor-healthcare">
    <path id="Union" fill="#000000" fill-rule="evenodd" d="M15.220594285714284 1.5063085714285713C16.18505142857143 0.5418342857142857 17.49318857142857 0 18.857142857142858 0h10.285714285714285c1.3639542857142857 0 2.6720914285714286 0.5418342857142857 3.636548571428571 1.5063085714285713C33.74386285714286 2.4707794285714284 34.285714285714285 3.7788685714285717 34.285714285714285 5.142857142857142v4.6091999999999995c4.413942857142858 3.1919314285714284 7.285714285714286 8.384571428571428 7.285714285714286 14.247942857142855 0 5.863371428571428 -2.8717714285714284 11.056114285714285 -7.285714285714286 14.248114285714287V42.857142857142854c0 1.3638857142857141 -0.5418514285714285 2.672228571428571 -1.5063085714285713 3.636685714285714S30.506811428571424 48 29.142857142857142 48h-10.285714285714285c-1.3639542857142857 0 -2.6720914285714286 -0.5417142857142857 -3.636548571428571 -1.5061714285714285C14.256137142857142 45.52937142857143 13.714285714285714 44.22102857142857 13.714285714285714 42.857142857142854v-4.6090285714285715C9.300445714285713 35.05611428571429 6.428571428571428 29.86337142857143 6.428571428571428 24c0 -5.863371428571428 2.8718742857142856 -11.056011428571429 7.285714285714286 -14.247942857142855V5.142857142857142c0 -1.3639885714285713 0.5418514285714285 -2.6720777142857144 1.5063085714285713 -3.636548571428571Zm8.782628571428571 16.114285714285714c-1.3802742857142856 -1.02768 -2.804502857142857 -1.5622628571428572 -4.210354285714285 -1.590685714285714 -1.831405714285714 -0.03702857142857143 -3.3634971428571427 0.79248 -4.410822857142857 1.9824685714285712 -1.9905599999999999 2.261725714285714 -2.5045714285714284 6.247782857142857 0.15761142857142854 8.841291428571429l0.005725714285714285 0.005554285714285714 5.6007428571428575 5.4057257142857145c1.603302857142857 1.5474857142857141 4.110342857142856 1.5474857142857141 5.71368 0l5.6007428571428575 -5.4057257142857145 0.005691428571428571 -0.005554285714285714c2.6591314285714285 -2.5906285714285713 2.137645714285714 -6.574628571428571 0.1495542857142857 -8.833371428571429 -1.0464685714285713 -1.1890628571428572 -2.576982857142857 -2.0196342857142855 -4.407017142857143 -1.9844914285714286 -1.4046171428571428 0.02694857142857143 -2.8272342857142854 0.5595771428571428 -4.205554285714285 1.5847885714285712ZM10.714285714285714 24c0 -7.337485714285713 5.948228571428571 -13.285714285714285 13.285714285714285 -13.285714285714285S37.285714285714285 16.662514285714284 37.285714285714285 24 31.337485714285712 37.285714285714285 24 37.285714285714285 10.714285714285714 31.337485714285712 10.714285714285714 24Z" clip-rule="evenodd" stroke-width="3.4286"></path>
  </g>
</svg>