<svg xmlns="http://www.w3.org/2000/svg" fill="none" viewBox="0 0 48 48" id="Wave-Signal-Square--Streamline-Core-Remix" height="48" width="48">
  <desc>
    Wave Signal Square Streamline Icon: https://streamlinehq.com
  </desc>
  <g id="Free Remix/Interface Essential/wave-signal-square--heart-line-stats-beat-square-graph">
    <path id="Union" fill="#000000" fill-rule="evenodd" d="m6.857142857142857 5.571428571428571 34.285714285714285 0c0.7100571428571428 0 1.2857142857142856 0.5756228571428571 1.2857142857142856 1.2857142857142856v14.605714285714285H36c-0.7614857142857142 0 -1.4842285714285715 0.33768 -1.972697142857143 0.9220114285714285L28.077977142857144 29.50025142857143 21.198102857142857 14.364514285714286c-0.37025142857142856 -0.81456 -1.1372914285714286 -1.37808 -2.025257142857143 -1.4879314285714285 -0.8879657142857142 -0.10985142857142856 -1.7692114285714287 0.24977142857142856 -2.326765714285714 0.949542857142857L10.761017142857142 21.462857142857143H5.571428571428571l0 -14.605714285714285c0 -0.7100914285714285 0.5756228571428571 -1.2857142857142856 1.2857142857142856 -1.2857142857142856ZM5.571428571428571 26.605714285714285l0 14.537142857142857c0 0.7100571428571428 0.5756228571428571 1.2857142857142856 1.2857142857142856 1.2857142857142856l34.285714285714285 0c0.7100571428571428 0 1.2857142857142856 -0.5756571428571428 1.2857142857142856 -1.2857142857142856V26.605714285714285h-5.226857142857143l-7.800411428571428 9.329485714285713c-0.5670171428571428 0.6781714285714285 -1.4426057142857143 1.0176 -2.318502857142857 0.8986285714285713 -0.8759314285714285 -0.11897142857142858 -1.6293942857142856 -0.6791999999999999 -1.995188571428571 -1.4838857142857143L18.252857142857142 20.31329142857143 14.011062857142857 25.636731428571427C13.523177142857142 26.249039999999997 12.782914285714284 26.605714285714285 12 26.605714285714285H5.571428571428571ZM41.14285714285714 1.2857142857142856H6.857142857142857C3.780137142857143 1.2857142857142856 1.2857142857142856 3.780137142857143 1.2857142857142856 6.857142857142857v34.285714285714285c0 3.077142857142857 2.494422857142857 5.571428571428571 5.571428571428571 5.571428571428571l34.285714285714285 0c3.077142857142857 0 5.571428571428571 -2.494285714285714 5.571428571428571 -5.571428571428571l0 -34.285714285714285c0 -3.0770057142857143 -2.494285714285714 -5.571428571428571 -5.571428571428571 -5.571428571428571Z" clip-rule="evenodd" stroke-width="3.4286"></path>
  </g>
</svg>