<svg xmlns="http://www.w3.org/2000/svg" fill="none" viewBox="0 0 48 48" id="Waving-Hand--Streamline-Core-Remix" height="48" width="48">
  <desc>
    Waving Hand Streamline Icon: https://streamlinehq.com
  </desc>
  <g id="Free Remix/Interface Essential/waving-hand">
    <path id="Union" fill="#000000" fill-rule="evenodd" d="M16.35877714285714 4.103108571428571c1.0826399999999998 -0.47804571428571424 1.57272 -1.7432159999999997 1.0946742857142857 -2.8258319999999997 -0.47808 -1.082616 -1.7432571428571426 -1.5727103999999998 -2.825862857142857 -1.0946557714285714C12.610971428571428 1.0731051428571428 10.815085714285713 2.530584 9.504205714285714 4.496091428571429c-0.65664 0.984582857142857 -0.3907885714285714 2.3150742857142856 0.5937942857142857 2.9717142857142855 0.984582857142857 0.6566742857142857 2.3150742857142856 0.3908228571428571 2.9717142857142855 -0.59376 0.8453142857142857 -1.2674742857142858 1.9960114285714283 -2.199942857142857 3.289062857142857 -2.7709371428571425Zm29.356765714285714 2.5338514285714284c-0.6987428571428571 -0.955302857142857 -2.0393142857142856 -1.1634514285714284 -2.9948571428571427 -0.46491428571428567 -0.9552 0.6985371428571429 -1.1633142857142855 2.03928 -0.46491428571428567 2.994582857142857 0.8345142857142857 1.1410285714285713 1.3645714285714285 2.5238742857142853 1.4629714285714286 4.044205714285714 0.07645714285714285 1.1810057142857142 1.0957714285714284 2.0764799999999997 2.2769142857142857 2.0000914285714284 1.1807999999999998 -0.07638857142857143 2.076342857142857 -1.0956685714285714 1.9998857142857143 -2.2766742857142854 -0.15257142857142855 -2.3576228571428572 -0.9788571428571428 -4.517794285714285 -2.28 -6.2972914285714285ZM9.20688 25.042491428571427c-0.4390285714285714 -1.0020685714285713 -1.7056799999999999 -1.320377142857143 -2.5662857142857143 -0.64488 -0.5737714285714285 0.45037714285714286 -0.7897371428571428 1.2205028571428571 -0.5338628571428571 1.9035428571428572l2.35656 6.290777142857142c0.783462857142857 2.091497142857143 1.9405371428571427 4.022811428571428 3.414822857142857 5.700411428571428l1.1858057142857141 1.3494857142857142c0.7812685714285713 0.8890285714285713 0.6939428571428571 2.2429714285714284 -0.19501714285714283 3.024 -0.88896 0.7813714285714285 -2.242937142857143 0.6939428571428571 -3.0241714285714285 -0.19508571428571428l-1.18584 -1.3491428571428572c-1.8171428571428572 -2.067771428571428 -3.2432914285714283 -4.448571428571428 -4.2089485714285715 -7.026239999999999l-2.3565702857142856 -6.290742857142857c-0.9111394285714286 -2.432262857142857 -0.14204914285714285 -5.174468571428571 1.901016 -6.778182857142856 2.785748571428571 -2.1866742857142856 6.766491428571428 -1.4488114285714284 8.641782857142855 1.3841485714285715L16.086514285714287 9.533725714285714c0.8580685714285714 -3.2023542857142853 4.149668571428571 -5.102742857142856 7.3519885714285715 -4.244674285714285 0.6114857142857143 0.16381714285714286 1.1754857142857142 0.4164 1.6818514285714283 0.7401257142857143 1.2189257142857142 -2.5662857142857143 4.131634285714285 -3.977852571428571 6.974022857142857 -3.2162399999999995 3.202422857142857 0.8580685714285714 5.10288 4.149668571428571 4.244708571428571 7.3519885714285715l-0.5091428571428571 1.89936c0.5677714285714285 -0.01577142857142857 1.1468571428571428 0.04930285714285714 1.7232 0.2037257142857143 3.2022857142857144 0.8580685714285714 5.102742857142856 4.149668571428571 4.244914285714286 7.3519885714285715l-5.8587428571428575 21.864685714285713c-0.6178285714285714 2.3053714285714286 -2.126125714285714 4.271314285714285 -4.19328 5.4648l-1.3222628571428572 0.7631999999999999c-1.024902857142857 0.5917714285714285 -2.33544 0.24068571428571428 -2.9271771428571425 -0.7841142857142857 -0.5917371428571429 -1.0251428571428571 -0.24058285714285713 -2.335542857142857 0.7843199999999999 -2.9273142857142855l1.3222628571428572 -0.7635428571428571c1.0827771428571427 -0.6250285714285714 1.8728914285714284 -1.6546285714285713 2.1964799999999998 -2.8625142857142856l5.8587428571428575 -21.864411428571426c0.2451428571428571 -0.9160457142857141 -0.29828571428571427 -1.8576342857142856 -1.2144 -2.103085714285714 -0.9154285714285715 -0.24528 -1.8562285714285713 0.29739428571428567 -2.1024 1.2122742857142856l-0.0006857142857142857 0.001954285714285714 -2.5974857142857144 9.69408c-0.30630857142857143 1.1431542857142856 -1.4813142857142856 1.8215314285714284 -2.6244685714285714 1.515222857142857 -1.14312 -0.30630857142857143 -1.8215314285714284 -1.4813142857142856 -1.515222857142857 -2.6244342857142855L30.20125714285714 16.512685714285713l1.998102857142857 -7.456971428571428c0.24545142857142857 -0.9160457142857141 -0.29818285714285714 -1.8576342857142856 -1.2142285714285714 -2.103085714285714 -0.9160457142857141 -0.24545142857142857 -1.8576342857142856 0.2981485714285714 -2.103085714285714 1.2141942857142858l-1.1988685714285714 4.4742171428571424L24.68605714285714 23.826514285714282c-0.30630857142857143 1.1431542857142856 -1.4813142857142856 1.8215314285714284 -2.6244685714285714 1.515222857142857 -1.14312 -0.30630857142857143 -1.8215314285714284 -1.4813142857142856 -1.515222857142857 -2.6244342857142855l2.9971542857142857 -11.18550857142857c0.24545142857142857 -0.9160457142857141 -0.29818285714285714 -1.8576342857142856 -1.2142285714285714 -2.103085714285714 -0.9160457142857141 -0.24545142857142857 -1.8576342857142856 0.29818285714285714 -2.103085714285714 1.2142285714285714L15.731519999999998 27.41725714285714c1.9456457142857142 0.9164571428571427 4.421245714285714 2.583942857142857 5.941885714285714 5.217737142857143 0.5917371428571429 1.024902857142857 0.24054857142857142 2.3354057142857143 -0.7843542857142857 2.9271771428571425 -1.024902857142857 0.5917714285714285 -2.33544 0.24068571428571428 -2.9271771428571425 -0.7844571428571429 -1.3104342857142857 -2.2696114285714284 -3.9837942857142856 -3.5780914285714283 -5.240811428571428 -3.94968 -0.038194285714285715 -0.008057142857142856 -0.07638857142857143 -0.017177142857142856 -0.11454857142857143 -0.027394285714285715 -0.6777599999999999 -0.18161142857142856 -1.1921485714285713 -0.6685714285714286 -1.4347885714285713 -1.2731999999999999l-1.9648457142857143 -4.484948571428571Z" clip-rule="evenodd" stroke-width="3.4286"></path>
  </g>
</svg>