<svg xmlns="http://www.w3.org/2000/svg" fill="none" viewBox="0 0 48 48" id="Web--Streamline-Core-Remix" height="48" width="48">
  <desc>
    Web Streamline Icon: https://streamlinehq.com
  </desc>
  <g id="Free Remix/Programming/Programming/Web/web--server-world-internet-earth-www-globe-worldwide-web-network">
    <path id="Union" fill="#000000" fill-rule="evenodd" d="M19.46372571428571 4.810045714285714c-8.027657142857143 1.890102857142857 -14.162365714285714 8.686285714285715 -15.066274285714286 17.050662857142857h9.211885714285714c0.6255085714285714 -6.068159999999999 2.633862857142857 -11.899577142857142 5.854388571428571 -17.050662857142857Zm9.072822857142857 0.00003428571428571428c3.2205257142857144 5.151085714285714 5.228845714285714 10.982502857142856 5.854422857142857 17.050628571428568h9.211885714285714c-0.9041142857142856 -8.364342857142857 -7.038857142857142 -15.160491428571428 -15.06630857142857 -17.050628571428568Zm1.5431657142857143 17.050628571428568c-0.6711085714285714 -5.802925714285714 -2.7605142857142857 -11.349839999999999 -6.079577142857143 -16.150662857142855 -3.3190971428571427 4.800822857142856 -5.408468571428571 10.347737142857142 -6.079611428571428 16.150662857142855h12.15918857142857Zm-12.159154285714285 4.285714285714286h12.159119999999998c-0.6711428571428572 5.802788571428571 -2.7605142857142857 11.349462857142857 -6.079542857142857 16.150491428571428 -3.319062857142857 -4.801028571428572 -5.408399999999999 -10.347702857142856 -6.079577142857143 -16.150491428571428Zm-4.311188571428572 0H4.397485714285714c0.9040114285714286 8.364205714285715 7.038685714285714 15.160319999999999 15.066239999999997 17.05049142857143 -3.220491428571428 -5.151085714285714 -5.228811428571428 -10.982468571428571 -5.854354285714285 -17.05049142857143Zm14.927177142857143 17.05049142857143c3.2204571428571427 -5.151085714285714 5.228777142857143 -10.982468571428571 5.854422857142857 -17.05049142857143h9.211542857142858c-0.9037714285714286 8.364205714285715 -7.038514285714286 15.160319999999999 -15.065965714285714 17.05049142857143ZM24.00006857142857 48.00685714285714c13.256845714285713 0 24.00336 -10.746514285714285 24.00336 -24.003291428571426V24.00342857142857c0 -13.256708571428572 -10.746514285714285 -24.003399423428572 -24.003291428571426 -24.00342857142857l-0.00006857142857142857 0C10.74336 0 -0.0033482125714285713 10.746685714285714 -0.0033482125714285713 24.00342857142857c0 13.256571428571426 10.746708212571429 24.00342857142857 24.003416784 24.00342857142857Z" clip-rule="evenodd" stroke-width="3.4286"></path>
  </g>
</svg>