<svg xmlns="http://www.w3.org/2000/svg" fill="none" viewBox="0 0 48 48" id="Webcam-Video-Off--Streamline-Core-Remix" height="48" width="48">
  <desc>
    Webcam Video Off Streamline Icon: https://streamlinehq.com
  </desc>
  <g id="Free Remix/Computer Devices/webcam-video-off--work-video-meeting-camera-company-conference-office-off">
    <path id="Union" fill="#000000" fill-rule="evenodd" d="M0.6276274285714285 0.6276274285714285c0.8368388571428571 -0.8368367999999999 2.1936205714285713 -0.8368367999999999 3.030452571428571 0L9.030445714285714 6H30.428571428571427c1.477645714285714 0 2.894742857142857 0.5869714285714285 3.9394285714285715 1.6318285714285712 1.0450285714285714 1.044857142857143 1.632 2.4619542857142855 1.632 3.9395999999999995v2.706205714285714l6.754285714285714 -2.991085714285714c1.1828571428571426 -0.45648 2.5388571428571427 -0.29540571428571427 3.581828571428571 0.42551999999999995 1.0405714285714285 0.7192114285714286 1.6697142857142855 1.9266514285714285 1.6638857142857142 3.19128v18.193268571428572c0.005828571428571428 1.2645257142857143 -0.6233142857142856 2.4720685714285713 -1.6638857142857142 3.191382857142857 -1.0429714285714287 0.7206857142857143 -2.3989714285714285 0.8818285714285713 -3.581828571428571 0.42548571428571424l-5.403085714285714 -2.3928 10.021028571428571 10.021371428571427c0.8369142857142857 0.8365714285714285 0.8369142857142857 2.1936 0 3.0301714285714283 -0.8365714285714285 0.8369142857142857 -2.1936 0.8369142857142857 -3.0301714285714283 0L0.6276274285714285 3.65808c-0.8368367999999999 -0.8368319999999999 -0.8368367999999999 -2.193613714285714 0 -3.030452571428571ZM2.142857142857143 12c1.1834674285714284 0 2.142857142857143 0.9593828571428571 2.142857142857143 2.142857142857143v22.285714285714285c0 0.34114285714285714 0.13546285714285713 0.6678857142857143 0.37655999999999995 0.9092571428571428 0.24113142857142858 0.24102857142857143 0.5681485714285713 0.3764571428571428 0.9091542857142857 0.3764571428571428h22.285714285714285c1.1834742857142857 0 2.142857142857143 0.9593142857142857 2.142857142857143 2.142857142857143s-0.9593828571428571 2.142857142857143 -2.142857142857143 2.142857142857143h-22.285714285714285c-1.477645714285714 0 -2.894749714285714 -0.5869714285714285 -3.939596571428571 -1.632C0.5869885714285714 39.32331428571428 0 37.90628571428571 0 36.42857142857142v-22.285714285714285C0 12.959382857142856 0.9593897142857143 12 2.142857142857143 12Z" clip-rule="evenodd" stroke-width="3.4286"></path>
  </g>
</svg>