<svg xmlns="http://www.w3.org/2000/svg" fill="none" viewBox="0 0 48 48" id="Webcam-Video--Streamline-Core-Remix" height="48" width="48">
  <desc>
    Webcam Video Streamline Icon: https://streamlinehq.com
  </desc>
  <g id="Free Remix/Computer Devices/webcam-video--work-video-meeting-camera-company-conference-office">
    <path id="Vector" stroke="#000000" stroke-linecap="round" stroke-linejoin="round" stroke-width="4.2857" d="m43.52571428571429 13.285714285714285 -9.668571428571427 4.285714285714286v-6c0 -0.9093257142857143 -0.3612342857142857 -1.781382857142857 -1.0041942857142856 -2.424377142857143 -0.6429942857142857 -0.64296 -1.5150514285714285 -1.0041942857142856 -2.424377142857143 -1.0041942857142856h-24.857142857142854c-0.9093257142857143 0 -1.781382857142857 0.3612342857142857 -2.424366857142857 1.0041942857142856C2.504081142857143 9.790045714285714 2.142857142857143 10.662102857142857 2.142857142857143 11.571428571428571v24.857142857142854c0 0.9092571428571428 0.361224 1.7814857142857141 1.0042045714285714 2.424342857142857 0.642984 0.6428571428571428 1.5150411428571426 1.0042285714285712 2.424366857142857 1.0042285714285712h24.857142857142854c0.9093257142857143 0 1.781382857142857 -0.3613714285714285 2.424377142857143 -1.0042285714285712 0.64296 -0.6428571428571428 1.0041942857142856 -1.5150857142857141 1.0041942857142856 -2.424342857142857v-6l9.668571428571427 4.285714285714286c0.26057142857142856 0.10045714285714286 0.5420571428571428 0.13611428571428572 0.8194285714285714 0.10285714285714284 0.27737142857142855 -0.03291428571428571 0.5427428571428571 -0.1330285714285714 0.7724571428571428 -0.2921142857142857 0.2297142857142857 -0.15874285714285713 0.4172571428571428 -0.3713485714285714 0.5461714285714285 -0.6192342857142856 0.1289142857142857 -0.2478857142857143 0.19542857142857142 -0.5235428571428571 0.19337142857142856 -0.8029371428571428v-18.205714285714283c0.0020571428571428568 -0.2793942857142857 -0.06445714285714285 -0.5550514285714285 -0.19337142857142856 -0.8029371428571428 -0.1289142857142857 -0.2478857142857143 -0.3164571428571428 -0.46052571428571426 -0.5461714285714285 -0.6193714285714286 -0.2297142857142857 -0.15888 -0.49508571428571424 -0.2591314285714285 -0.7724571428571428 -0.2921142857142857 -0.27737142857142855 -0.03294857142857143 -0.5588571428571428 0.0024 -0.8194285714285714 0.1029942857142857Z"></path>
  </g>
</svg>