<svg xmlns="http://www.w3.org/2000/svg" fill="none" viewBox="0 0 48 48" id="Webcam--Streamline-Core-Remix" height="48" width="48">
  <desc>
    Webcam Streamline Icon: https://streamlinehq.com
  </desc>
  <g id="Free Remix/Computer Devices/webcam--webcam-camera-future-tech-chat-skype-technology-video">
    <path id="Union" fill="#000000" fill-rule="evenodd" d="M42.42857142857142 22.71428571428571C42.42857142857142 12.536468571428571 34.17781714285714 4.285714285714286 24 4.285714285714286S5.571428571428571 12.536468571428571 5.571428571428571 22.71428571428571 13.822182857142856 41.14285714285714 24 41.14285714285714s18.428571428571427 -8.250754285714285 18.428571428571427 -18.428571428571427ZM24 0c12.544799999999999 0 22.71428571428571 10.16952 22.71428571428571 22.71428571428571 0 6.170125714285714 -2.46 11.765485714285713 -6.452914285714286 15.859200000000001 1.8301714285714286 1.2696 3.5108571428571427 2.754857142857143 5.005028571428571 4.428 1.103657142857143 1.236 0.9963428571428572 3.1323428571428567 -0.2393142857142857 4.236 -1.236 1.103657142857143 -3.1323428571428567 0.9963428571428572 -4.236 -0.2393142857142857 -1.6124571428571428 -1.8054857142857141 -3.4974857142857143 -3.331885714285714 -5.579999999999999 -4.524342857142857 -3.3078514285714284 1.8805714285714283 -7.134034285714286 2.954742857142857 -11.211085714285714 2.954742857142857 -4.077051428571429 0 -7.903234285714285 -1.0741714285714286 -11.21094857142857 -2.954742857142857 -2.082548571428571 1.1924571428571429 -3.967748571428571 2.718857142857143 -5.580102857142856 4.524342857142857 -1.1035885714285714 1.2356571428571428 -3.0000685714285713 1.3429714285714285 -4.23588 0.2393142857142857 -1.235825142857143 -1.103657142857143 -1.343022857142857 -3 -0.2394308571428571 -4.236 1.4942365714285715 -1.673142857142857 3.174956571428571 -3.1584 5.0051622857142855 -4.428C3.7458857142857136 34.479771428571425 1.2857142857142856 28.88441142857143 1.2857142857142856 22.71428571428571 1.2857142857142856 10.16952 11.455234285714285 0 24 0Zm12 22.71428571428571c0 -6.627428571428571 -5.372571428571428 -12 -12 -12s-12 5.372571428571428 -12 12 5.372571428571428 12 12 12 12 -5.372571428571428 12 -12ZM24 18.428571428571427c2.3669485714285714 0 4.285714285714286 1.9187657142857142 4.285714285714286 4.285714285714286S26.36694857142857 27 24 27s-4.285714285714286 -1.9187657142857142 -4.285714285714286 -4.285714285714286 1.9187657142857142 -4.285714285714286 4.285714285714286 -4.285714285714286Z" clip-rule="evenodd" stroke-width="3.4286"></path>
  </g>
</svg>