<svg xmlns="http://www.w3.org/2000/svg" fill="none" viewBox="0 0 48 48" id="Webcam-Video-Circle--Streamline-Core-Remix" height="48" width="48">
  <desc>
    Webcam Video Circle Streamline Icon: https://streamlinehq.com
  </desc>
  <g id="Free Remix/Computer Devices/webcam-video-circle--work-video-meeting-camera-company-conference-office">
    <path id="Union" fill="#000000" fill-rule="evenodd" d="M4.282354285714286 24.00342857142857c0 -10.889794285714286 8.827919999999999 -19.717714285714287 19.717714285714287 -19.717714285714287 10.889759999999999 0 19.717645714285712 8.827919999999999 19.717645714285712 19.717714285714287 0 10.889828571428572 -8.827885714285715 19.717714285714287 -19.717645714285712 19.717714285714287 -10.889794285714286 0 -19.717714285714287 -8.827885714285715 -19.717714285714287 -19.717714285714287ZM24.00006857142857 0C10.74336 0 -0.0033482125714285713 10.746685714285714 -0.0033482125714285713 24.00342857142857c0 13.256571428571426 10.746708212571429 24.00342857142857 24.003416784 24.00342857142857 13.256845714285713 0 24.00336 -10.746857142857143 24.00336 -24.00342857142857C48.003428571428564 10.746685714285714 37.25691428571428 0 24.00006857142857 0ZM11.935062857142857 15.16525714285714c0.5069485714285714 -0.5069828571428571 1.1945485714285713 -0.7917942857142857 1.9114971428571428 -0.7917942857142857h13.84614857142857c0.7169485714285714 0 1.4045485714285715 0.28481142857142855 1.9115314285714284 0.7917942857142857 0.5069485714285714 0.5069485714285714 0.7917599999999999 1.1945485714285713 0.7917599999999999 1.9114971428571428v1.9132457142857142l3.9959999999999996 -1.7712342857142858 0.0030857142857142854 -0.0014399999999999999c1.2648 -0.5689371428571428 2.4623999999999997 0.4889142857142857 2.4623999999999997 1.6502057142857143v10.264594285714285c0 1.1779199999999999 -1.2329142857142856 2.12592 -2.4209142857142854 1.6673485714285714l-0.039428571428571424 -0.015085714285714286 0.0006857142857142857 -0.0009599999999999999 -4.001828571428571 -1.7737714285714283v1.9132457142857142c0 0.7169485714285714 -0.28481142857142855 1.4045485714285715 -0.7917599999999999 1.9115314285714284 -0.5069828571428571 0.5069485714285714 -1.1945828571428572 0.7917599999999999 -1.9115314285714284 0.7917599999999999H13.846559999999998c-0.7169485714285714 0 -1.4045485714285715 -0.28481142857142855 -1.9114971428571428 -0.7917599999999999 -0.5069828571428571 -0.5069828571428571 -0.7917942857142857 -1.1945828571428572 -0.7917942857142857 -1.9115314285714284V17.076754285714284c0 -0.7169485714285714 0.28481142857142855 -1.4045485714285715 0.7917942857142857 -1.9114971428571428Z" clip-rule="evenodd" stroke-width="3.4286"></path>
  </g>
</svg>