<svg xmlns="http://www.w3.org/2000/svg" fill="none" viewBox="0 0 48 48" id="Whatsapp--Streamline-Core-Remix" height="48" width="48">
  <desc>
    Whatsapp Streamline Icon: https://streamlinehq.com
  </desc>
  <g id="Free Remix/Computer Devices/whatsapp">
    <path id="Union" fill="#000000" fill-rule="evenodd" d="M48.000342857142854 24.001062857142855c0 -13.070777142857143 -10.914171428571429 -24.00855888 -24.008022857142855 -24.001163741142854h-0.0006171428571428571C10.905977142857141 0.004310605714285714 0.00509352 10.923977142857142 0.005153622857142857 24.00109714285714 0.005173645714285714 28.339714285714287 1.193358857142857 32.62669714285715 3.425166857142857 36.35005714285714l-3.2898795428571423 8.755542857142856c-0.27126891428571426 0.7220571428571428 -0.1336639954285714 1.5342857142857143 0.3603092571428571 2.1264 0.49397485714285716 0.5921142857142857 1.2681085714285714 0.8732571428571427 2.0270194285714287 0.7361142857142857l11.597578285714285 -2.0976c3.1208914285714284 1.4087999999999998 6.498788571428571 2.1119999999999997 9.871371428571429 2.114057142857143 13.095291428571427 0.008914285714285713 24.00877714285714 -10.895999999999999 24.00877714285714 -23.98350857142857ZM23.994239999999998 4.285611428571428c10.722102857142856 -0.006342857142857143 19.720388571428572 9.008297142857142 19.720388571428572 19.715485714285713 0 10.71798857142857 -8.991771428571427 19.70496 -19.72021714285714 19.69776 -2.9766171428571426 -0.0017142857142857142 -5.945588571428571 -0.6661714285714285 -8.641542857142856 -1.9841142857142855 -0.41002285714285713 -0.20022857142857142 -0.8733257142857143 -0.2646857142857143 -1.3224685714285713 -0.1834285714285714l-8.555211428571429 1.5476571428571428 2.3363314285714285 -6.218057142857143c0.24226285714285714 -0.6445714285714286 0.15984 -1.3666285714285713 -0.22158857142857144 -1.9402285714285712 -2.147382857142857 -3.229165714285714 -3.2990399999999998 -7.052571428571428 -3.2990742857142856 -10.919622857142857 -0.00003428571428571428 -10.713325714285714 8.985634285714285 -19.712125714285712 19.7028 -19.715451428571427h0.0005828571428571429ZM15.1068 13.449771428571427c1.83336 -2.112102857142857 4.699611428571428 -1.5423771428571427 6.289028571428571 -0.09133714285714285l2.955634285714286 2.6982857142857144c0.34577142857142856 0.3156685714285714 0.5474057142857143 0.7590171428571428 0.5580342857142856 1.2270857142857141 0.010662857142857142 0.4680685714285714 -0.17060571428571428 0.9200914285714284 -0.5016685714285715 1.2511542857142857 -0.26609142857142853 0.26609142857142853 -0.67992 0.8930057142857143 -0.8989371428571428 1.619382857142857 -0.2225142857142857 0.7378628571428572 -0.14410285714285712 1.2163885714285714 0.02142857142857143 1.4742514285714283 0.444 0.69168 0.872742857142857 1.2693942857142857 1.4538857142857142 1.7696914285714282 0.5706514285714286 0.49128 1.3529485714285714 0.9621599999999999 2.5501371428571424 1.3265142857142858 0.28186285714285714 0.08578285714285715 0.75096 0.10182857142857142 1.2877714285714286 -0.03366857142857143 0.5364685714285714 -0.1353942857142857 0.9457714285714285 -0.3730285714285714 1.1573142857142857 -0.5845714285714286 0.32808 -0.3280457142857143 0.7750971428571428 -0.5091428571428571 1.2389828571428572 -0.5019085714285714 0.46392 0.007268571428571428 0.9050399999999998 0.20225142857142855 1.2226971428571427 0.5404114285714285l2.6787771428571427 2.8519200000000002c1.754057142857143 1.8671314285714282 2.033142857142857 5.125645714285714 -0.3555428571428571 6.955062857142857 -2.295222857142857 1.7578971428571426 -6.393977142857143 3.9213257142857145 -10.469862857142857 1.3049828571428572 -4.437497142857143 -2.848388571428571 -8.388137142857143 -6.609154285714285 -11.267485714285714 -11.093794285714285 -1.1290628571428571 -1.7585485714285713 -1.1049257142857143 -3.8628685714285713 -0.6262971428571428 -5.679737142857142 0.48425142857142855 -1.8382971428571429 1.4897142857142855 -3.6323657142857138 2.706102857142857 -5.033725714285714Z" clip-rule="evenodd" stroke-width="3.4286"></path>
  </g>
</svg>