<svg xmlns="http://www.w3.org/2000/svg" fill="none" viewBox="0 0 48 48" id="Wheelchair-1--Streamline-Core-Remix" height="48" width="48">
  <desc>
    Wheelchair 1 Streamline Icon: https://streamlinehq.com
  </desc>
  <g id="Free Remix/Map Travel/wheelchair-1--person-access-wheelchair-accomodation-human-disability-disabled-user">
    <path id="Union" fill="#000000" fill-rule="evenodd" d="M28.285714285714285 4.285714285714286c-2.1302399999999997 0 -3.8571428571428568 1.726902857142857 -3.8571428571428568 3.8571428571428568S26.155474285714284 12 28.285714285714285 12s3.8571428571428568 -1.726902857142857 3.8571428571428568 -3.8571428571428568S30.415954285714285 4.285714285714286 28.285714285714285 4.285714285714286ZM20.142857142857142 8.142857142857142C20.142857142857142 3.6456685714285713 23.78852571428571 0 28.285714285714285 0s8.142857142857142 3.6456685714285713 8.142857142857142 8.142857142857142S32.78290285714286 16.285714285714285 28.285714285714285 16.285714285714285 20.142857142857142 12.640045714285714 20.142857142857142 8.142857142857142ZM30.857142857142854 30V22.549508571428568C30.857142857142854 20.036879999999996 28.820262857142858 18 26.307634285714286 18c-2.0876228571428572 0 -3.9073714285714285 1.4207999999999998 -4.4136685714285715 3.446091428571428l-1.5959657142857142 6.383897142857142c-0.10302857142857143 0.4121142857142857 -0.15514285714285714 0.8353028571428571 -0.15514285714285714 1.2601028571428572C20.142857142857142 31.959565714285716 22.469005714285714 34.285714285714285 25.338479999999997 34.285714285714285h1.768662857142857c0.06140571428571428 0 0.1224342857142857 -0.0014742857142857142 0.18311999999999998 -0.004388571428571428C27.336 34.28424 27.382114285714284 34.285714285714285 27.428571428571427 34.285714285714285h7.838742857142858c0.5489142857142857 0 1.0374857142857141 0.34868571428571427 1.2157714285714285 0.8677714285714285l3.9188571428571426 11.400342857142856c0.3850285714285714 1.1190857142857142 1.6038857142857141 1.7146285714285714 2.723314285714286 1.329942857142857 1.1190857142857142 -0.3850285714285714 1.7146285714285714 -1.6038857142857141 1.329942857142857 -2.723314285714286l-3.9188571428571426 -11.400171428571428C39.76285714285714 31.51052571428571 37.6464 30 35.267314285714285 30H30.857142857142854ZM15.808731428571427 24.15685714285714c1.1646857142857143 -0.20993142857142855 1.9386514285714287 -1.32432 1.72872 -2.4890057142857143 -0.20996571428571428 -1.16472 -1.32432 -1.9386857142857141 -2.4890399999999997 -1.72872C8.441177142857141 21.13014857142857 3.4285714285714284 26.90609142857143 3.4285714285714284 33.857211428571425 3.4285714285714284 41.66811428571428 9.76056 48 17.57142857142857 48c5.147142857142857 0 9.649714285714284 -2.750742857142857 12.121131428571427 -6.852342857142856 0.6108 -1.0138285714285715 0.28419428571428573 -2.330742857142857 -0.7294628571428571 -2.9413714285714283 -1.0136914285714285 -0.6109714285714285 -2.3305714285714285 -0.28422857142857144 -2.9413714285714283 0.7292571428571428 -1.7282057142857141 2.868342857142857 -4.8671999999999995 4.7787428571428565 -8.450297142857142 4.7787428571428565 -5.443954285714286 0 -9.857142857142856 -4.413257142857142 -9.857142857142856 -9.857074285714285 0 -4.8408685714285715 3.4917257142857143 -8.870674285714285 8.094445714285714 -9.700354285714285Z" clip-rule="evenodd" stroke-width="3.4286"></path>
  </g>
</svg>