<svg xmlns="http://www.w3.org/2000/svg" fill="none" viewBox="0 0 48 48" id="Wheelchair--Streamline-Core-Remix" height="48" width="48">
  <desc>
    Wheelchair Streamline Icon: https://streamlinehq.com
  </desc>
  <g id="Free Remix/Health/wheelchair--health-medical-hospital-wheelchair-disable-help-sign">
    <path id="Union" fill="#000000" fill-rule="evenodd" d="M3.4285714285714284 1.2857142857142856C2.245104 1.2857142857142856 1.2857142857142856 2.245104 1.2857142857142856 3.4285714285714284c0 1.1834742857142857 0.9593897142857143 2.142857142857143 2.142857142857143 2.142857142857143h6.1548l2.12592 10.647325714285714c0.012034285714285714 0.19978285714285715 0.05142857142857142 0.39215999999999995 0.11451428571428571 0.573462857142857l0.8080114285714285 4.046948571428572C6.455828571428571 21.74454857142857 1.7142857142857142 27.06449142857143 1.7142857142857142 33.49182857142857c0 7.063028571428571 5.725645714285714 12.788742857142855 12.788571428571428 12.788742857142855 7.062925714285715 0 12.788571428571428 -5.725714285714285 12.788571428571428 -12.788742857142855 0 -0.25361142857142854 -0.007371428571428571 -0.5055085714285713 -0.021942857142857142 -0.7554857142857142h9.570514285714285l0.6154285714285713 2.2573714285714286C35.56902857142857 36.004799999999996 34.285714285714285 37.99542857142857 34.285714285714285 40.285714285714285c0 3.3137142857142856 2.686285714285714 6 6 6s6 -2.686285714285714 6 -6c0 -2.8073142857142854 -1.9278857142857142 -5.164114285714286 -4.531885714285714 -5.8189714285714285l-1.2034285714285713 -4.415005714285714 -0.012685714285714286 -0.046354285714285716L38.05714285714286 20.90598857142857c-0.35382857142857144 -1.9519885714285714 -1.3817142857142857 -3.7193828571428567 -2.9060571428571427 -4.992411428571429 -1.5503314285714285 -1.294422857142857 -3.511748571428571 -1.9924114285714283 -5.5308 -1.9685142857142859H15.625611428571428L13.442022857142856 3.008996571428571C13.241999999999999 2.007054857142857 12.362365714285714 1.2857142857142856 11.340651428571428 1.2857142857142856H3.4285714285714284Zm22.83089142857143 27.164914285714282h9.412422857142856l-1.77576 -6.513839999999999c-0.018857142857142854 -0.06925714285714285 -0.03425142857142857 -0.13940571428571427 -0.046079999999999996 -0.21020571428571427 -0.16501714285714283 -0.9868799999999999 -0.6779657142857143 -1.8820457142857143 -1.446 -2.52336 -0.7680342857142857 -0.64128 -1.7403428571428572 -0.9863314285714285 -2.7408342857142856 -0.9726514285714285l-0.029314285714285713 0.00041142857142857143v-0.00020571428571428572H16.481314285714287l0.5433257142857143 2.7210514285714287c4.164548571428571 0.8328685714285714 7.598777142857142 3.688457142857143 9.234822857142857 7.498799999999999ZM7.7142857142857135 33.49182857142857c0 -3.7492114285714284 3.03936 -6.788571428571428 6.788571428571428 -6.788571428571428 3.7492114285714284 0 6.788571428571428 3.03936 6.788571428571428 6.788571428571428 0 3.7493142857142856 -3.03936 6.788742857142857 -6.788571428571428 6.788742857142857 -3.7492114285714284 0 -6.788571428571428 -3.039428571428571 -6.788571428571428 -6.788742857142857Z" clip-rule="evenodd" stroke-width="3.4286"></path>
  </g>
</svg>