<svg xmlns="http://www.w3.org/2000/svg" fill="none" viewBox="0 0 48 48" id="Widget--Streamline-Core-Remix" height="48" width="48">
  <desc>
    Widget Streamline Icon: https://streamlinehq.com
  </desc>
  <g id="Free Remix/Programming/Programming/Applications/widget">
    <path id="Union" fill="#000000" fill-rule="evenodd" d="M29.377337142857144 6.428571428571428v16.285714285714285c0 3.0770057142857143 -2.494422857142857 5.571428571428571 -5.571428571428571 5.571428571428571H6.428571428571428C3.351558857142857 28.285714285714285 0.8571428571428571 25.791291428571427 0.8571428571428571 22.71428571428571v-16.285714285714285C0.8571428571428571 3.3515554285714284 3.351558857142857 0.8571428571428571 6.428571428571428 0.8571428571428571h17.37733714285714c3.0770057142857143 0 5.571428571428571 2.494412571428571 5.571428571428571 5.571428571428571Zm13.051234285714285 35.14285714285714v-4.285714285714286c0 -0.7100571428571428 -0.5756571428571428 -1.2857142857142856 -1.2857142857142856 -1.2857142857142856l-34.28561142857142 0c-0.7100914285714285 0 -1.2857142857142856 0.5756571428571428 -1.2857142857142856 1.2857142857142856l0 4.285714285714286c0 0.7100571428571428 0.5756228571428571 1.2857142857142856 1.2857142857142856 1.2857142857142856L41.14285714285714 42.857142857142854c0.7100571428571428 0 1.2857142857142856 -0.5756571428571428 1.2857142857142856 -1.2857142857142856Zm4.285714285714286 -4.285714285714286v4.285714285714286c0 3.077142857142857 -2.494285714285714 5.571428571428571 -5.571428571428571 5.571428571428571l-34.28561142857142 0c-3.0770057142857143 0 -5.571428571428571 -2.494285714285714 -5.571428571428571 -5.571428571428571l0 -4.285714285714286c0.00000342857142857143 -3.0770057142857143 2.494422857142857 -5.571428571428571 5.571428571428571 -5.571428571428571L41.14285714285714 31.71428571428571c3.077142857142857 0 5.571428571428571 2.494422857142857 5.571428571428571 5.571428571428571ZM42.857142857142854 5.142857142857142h-5.892685714285713v3.8571428571428568l5.892685714285713 0V5.142857142857142Zm4.285714285714286 -0.42857142857142855V9.428571428571429c0 2.1302399999999997 -1.7266285714285714 3.8571428571428568 -3.8571428571428568 3.8571428571428568l-6.749828571428571 0c-2.1301714285714284 0 -3.857211428571428 -1.726902857142857 -3.857211428571428 -3.8571428571428568V4.714285714285714c0 -2.1302399999999997 1.7270399999999997 -3.8571428571428568 3.857211428571428 -3.8571428571428568h6.749828571428571c2.1305142857142854 0 3.8571428571428568 1.726902857142857 3.8571428571428568 3.8571428571428568Zm-10.1784 15.428571428571427H42.857142857142854V24h-5.892685714285713V20.142857142857142Zm10.1784 4.285714285714286V19.71428571428571c0 -2.1302399999999997 -1.7266285714285714 -3.8571428571428568 -3.8571428571428568 -3.8571428571428568h-6.749828571428571c-2.1301714285714284 0 -3.857211428571428 1.726902857142857 -3.857211428571428 3.8571428571428568v4.714285714285714c0 2.1302399999999997 1.7270399999999997 3.8571428571428568 3.857211428571428 3.8571428571428568l6.749828571428571 0c2.1305142857142854 0 3.8571428571428568 -1.726902857142857 3.8571428571428568 -3.8571428571428568Z" clip-rule="evenodd" stroke-width="3.4286"></path>
  </g>
</svg>