<svg xmlns="http://www.w3.org/2000/svg" fill="none" viewBox="0 0 48 48" id="Wifi-Disabled--Streamline-Core-Remix" height="48" width="48">
  <desc>
    Wifi Disabled Streamline Icon: https://streamlinehq.com
  </desc>
  <g id="Free Remix/Computer Devices/wifi-disabled--wireless-wifi-internet-server-network-disabled-off-offline-connection">
    <path id="Union" fill="#000000" fill-rule="evenodd" d="M3.65808 0.6276274285714285c-0.8368285714285714 -0.8368367999999999 -2.1936102857142856 -0.8368367999999999 -3.030449142857143 0 -0.836836457142857 0.8368388571428571 -0.836836457142857 2.1936205714285713 0 3.030452571428571L44.342057142857136 47.37222857142857c0.8365714285714285 0.8369142857142857 2.1936 0.8369142857142857 3.0301714285714283 0 0.8369142857142857 -0.8365714285714285 0.8369142857142857 -2.1936 0 -3.0301714285714283L23.616171428571427 20.585691428571426c0.13152 -0.0024685714285714285 0.2653371428571428 -0.003805714285714286 0.4013828571428571 -0.003805714285714286 2.677645714285714 0 5.328891428571429 0.5293714285714286 7.801234285714285 1.5576685714285714 2.4724114285714283 1.0282971428571428 4.717097142857143 2.535222857142857 6.604868571428571 4.4341028571428565 0.8345142857142857 0.8392457142857143 2.1912 0.8431885714285714 3.0305142857142857 0.00881142857142857 0.8393142857142857 -0.8344114285714286 0.8430857142857142 -2.1912 0.008571428571428572 -3.030445714285714 -2.286171428571428 -2.2995085714285715 -5.0043428571428565 -4.124331428571429 -7.998137142857143 -5.369554285714285 -2.993931428571428 -1.2452571428571428 -6.204479999999999 -1.886297142857143 -9.447051428571427 -1.886297142857143 -1.61424 0 -2.9765485714285713 0.15401142857142858 -3.9444 0.31008 -0.13152 0.021222857142857144 -0.2559428571428571 0.04251428571428571 -0.37295999999999996 0.06349714285714285L15.794194285714283 12.763714285714284c2.6609142857142856 -0.7743428571428571 5.423348571428571 -1.1696914285714286 8.205462857142857 -1.1696914285714286 3.8576228571428572 0 7.677497142857142 0.76008 11.241257142857142 2.2367999999999997 3.391542857142857 1.4052685714285713 6.4875428571428575 3.4333028571428565 9.129257142857142 5.977542857142857 0.8526857142857143 0.8209371428571428 2.209028571428571 0.7954285714285714 3.0301714285714283 -0.05698285714285714 0.8208 -0.8524114285714286 0.7954285714285714 -2.20896 -0.05691428571428571 -3.0299314285714285 -3.027428571428571 -2.91552 -6.575657142857143 -5.239542857142857 -10.461942857142857 -6.849908571428571 -4.083874285714286 -1.69224 -8.4612 -2.5632342857142856 -12.88182857142857 -2.5632342857142856 -3.9610285714285713 0 -7.887257142857143 0.6992914285714286 -11.598788571428571 2.06208L3.65808 0.6276274285714285Zm9.467657142857142 23.125241142857142c0.9974057142857142 -0.6369942857142857 1.289622857142857 -1.9619314285714284 0.6526285714285713 -2.9593371428571427 -0.63696 -0.99744 -1.9618971428571426 -1.2896571428571428 -2.9593371428571427 -0.6526628571428571 -0.8166514285714286 0.52152 -2.5637142857142856 1.7172342857142855 -4.247691428571428 3.4110514285714286 -0.8344114285714286 0.83928 -0.8304685714285713 2.1960342857142856 0.00881142857142857 3.030445714285714 0.83928 0.8344114285714286 2.1960342857142856 0.8304685714285713 3.030445714285714 -0.00881142857142857 1.3782514285714285 -1.3862742857142858 2.8397485714285713 -2.3893714285714283 3.515142857142857 -2.8206857142857142ZM20.962114285714286 27.462514285714285c0.5024571428571428 1.0715314285714284 0.04114285714285714 2.3474742857142856 -1.0303885714285714 2.8499314285714283 -1.0693371428571428 0.5014285714285713 -2.04048 1.19208 -2.866045714285714 2.039622857142857 -0.8257714285714286 0.8477485714285714 -2.182422857142857 0.8655771428571428 -3.0301714285714283 0.039805714285714285 -0.8477828571428571 -0.8257714285714286 -0.8655771428571428 -2.1824571428571424 -0.039805714285714285 -3.030205714285714 1.1857714285714285 -1.2173142857142856 2.5806171428571427 -2.209302857142857 4.116514285714286 -2.9295085714285714 1.071497142857143 -0.5024571428571428 2.3474399999999997 -0.04114285714285714 2.8498971428571425 1.0303542857142858Zm3.03768 7.268914285714285c-3.427302857142857 0 -6.2057142857142855 2.7785142857142855 -6.2057142857142855 6.2057142857142855s2.7784114285714288 6.2057142857142855 6.2057142857142855 6.2057142857142855c3.4273371428571426 0 6.2057142857142855 -2.7785142857142855 6.2057142857142855 -6.2057142857142855s-2.7783771428571424 -6.2057142857142855 -6.2057142857142855 -6.2057142857142855ZM7.0257942857142845 14.317782857142857c0.7155085714285714 0.9426857142857143 0.5313257142857143 2.286925714285714 -0.41136 3.0023999999999997 -1.1376 0.8634171428571428 -2.0898857142857143 1.6357714285714287 -2.9921485714285714 2.496822857142857 -0.8561451428571427 0.8170971428571429 -2.2125565714285713 0.7854171428571428 -3.029622857142857 -0.07076571428571428 -0.8170690285714285 -0.8561485714285714 -0.7853855999999999 -2.21256 0.07076571428571428 -3.029622857142857 1.0682537142857143 -1.0194857142857143 2.1631405714285714 -1.9018285714285712 3.359965714285714 -2.8101942857142856 0.9426857142857143 -0.7155085714285714 2.286925714285714 -0.5313257142857143 3.0023999999999997 0.41136Z" clip-rule="evenodd" stroke-width="3.4286"></path>
  </g>
</svg>