<svg xmlns="http://www.w3.org/2000/svg" fill="none" viewBox="0 0 48 48" id="Wifi-Antenna--Streamline-Core-Remix" height="48" width="48">
  <desc>
    Wifi Antenna Streamline Icon: https://streamlinehq.com
  </desc>
  <g id="Free Remix/Computer Devices/wifi-antenna--wireless-wifi-internet-server-network-antenna-connection">
    <path id="Union" fill="#000000" fill-rule="evenodd" d="M36.430971428571425 3.7902171428571427c-0.9099428571428572 -0.7569051428571427 -1.0337142857142856 -2.1080159999999997 -0.2770285714285714 -3.0177942857142854 0.7570285714285714 -0.9097789714285713 2.108228571428571 -1.033710857142857 3.0178285714285713 -0.27680914285714286C44.562514285714286 4.9805142857142854 48 11.751428571428571 48 19.323634285714284c0 7.572239999999999 -3.437485714285714 14.343154285714284 -8.828228571428571 18.82813714285714 -0.9095999999999999 0.7566857142857143 -2.2607999999999997 0.6329142857142857 -3.0178285714285713 -0.2770285714285714 -0.7566857142857143 -0.9095999999999999 -0.6329142857142857 -2.2607999999999997 0.2770285714285714 -3.017485714285714C40.88365714285714 31.152514285714282 43.714285714285715 25.57062857142857 43.714285714285715 19.323634285714284c0 -6.24696 -2.8306285714285715 -11.828845714285713 -7.283314285714285 -15.533417142857141Zm-6.681085714285714 5.7462857142857136c-1.0197257142857143 -0.6005828571428571 -1.3595314285714284 -1.9141371428571425 -0.7589485714285714 -2.933897142857143 0.6005828571428571 -1.01976 1.914102857142857 -1.3595314285714284 2.9338628571428567 -0.7589485714285714 4.610057142857142 2.7150514285714284 7.711199999999999 7.7351657142857135 7.711199999999999 13.481965714285714 0 5.749302857142856 -3.103885714285714 10.771268571428571 -7.717165714285715 13.485531428571427 -1.0200342857142857 0.6001371428571428 -2.3334171428571424 0.2597485714285714 -2.9335542857142856 -0.7602857142857142 -0.6001371428571428 -1.0199999999999998 -0.2597485714285714 -2.3334171428571424 0.7602857142857142 -2.9335199999999997 3.3585599999999998 -1.9760228571428569 5.60472 -5.62272 5.60472 -9.791725714285713 0 -4.1671885714285715 -2.244205714285714 -7.812514285714284 -5.6004 -9.78912ZM30.857142857142854 19.325931428571426c0 -3.787062857142857 -3.070045714285714 -6.857142857142857 -6.857142857142857 -6.857142857142857s-6.857142857142857 3.07008 -6.857142857142857 6.857142857142857c0 3.0387771428571426 1.97664 5.615862857142857 4.714285714285714 6.515691428571428V45.857142857142854c0 1.183542857142857 0.9593828571428571 2.142857142857143 2.142857142857143 2.142857142857143s2.142857142857143 -0.9593142857142857 2.142857142857143 -2.142857142857143V25.841622857142855C28.880502857142854 24.941794285714284 30.857142857142854 22.36470857142857 30.857142857142854 19.325931428571426ZM19.007554285714285 6.602605714285714c-0.6005828571428571 -1.01976 -1.914102857142857 -1.3595314285714284 -2.9338628571428567 -0.7589485714285714 -4.610022857142857 2.7150514285714284 -7.711371428571429 7.7351657142857135 -7.711371428571429 13.481965714285714 0 5.749302857142856 3.104022857142857 10.771268571428571 7.717337142857143 13.485531428571427 1.0200342857142857 0.6001371428571428 2.3334171428571424 0.2597485714285714 2.9335542857142856 -0.7602857142857142 0.6001371428571428 -1.0199999999999998 0.2597485714285714 -2.3334171428571424 -0.7602857142857142 -2.9335199999999997 -3.358594285714285 -1.9760228571428569 -5.604891428571428 -5.62272 -5.604891428571428 -9.791725714285713 0 -4.1671885714285715 2.2443771428571426 -7.812514285714284 5.600537142857143 -9.78912 1.01976 -0.6005828571428571 1.3595657142857143 -1.9141371428571425 0.7589828571428572 -2.933897142857143Zm-7.438457142857143 -2.8123885714285715c0.9098057142857142 -0.7569051428571427 1.0337142857142856 -2.1080159999999997 0.27682285714285715 -3.0177942857142854 -0.7568914285714285 -0.9097789714285713 -2.108022857142857 -1.033710857142857 -3.0177942857142854 -0.27680914285714286C3.4373828571428566 4.9805142857142854 0 11.751428571428571 0 19.323634285714284c0 7.572239999999999 3.4373828571428566 14.343154285714284 8.828125714285715 18.82813714285714 0.9097714285714285 0.7566857142857143 2.260902857142857 0.6329142857142857 3.0177942857142854 -0.2770285714285714 0.7568914285714285 -0.9095999999999999 0.6329828571428572 -2.2607999999999997 -0.27682285714285715 -3.017485714285714C7.116308571428571 31.152514285714282 4.285714285714286 25.57062857142857 4.285714285714286 19.323634285714284c0 -6.24696 2.8305942857142856 -11.828845714285713 7.283382857142857 -15.533417142857141Z" clip-rule="evenodd" stroke-width="3.4286"></path>
  </g>
</svg>