<svg xmlns="http://www.w3.org/2000/svg" fill="none" viewBox="0 0 48 48" id="Wifi-Router--Streamline-Core-Remix" height="48" width="48">
  <desc>
    Wifi Router Streamline Icon: https://streamlinehq.com
  </desc>
  <g id="Free Remix/Computer Devices/wifi-router--wireless-wifi-internet-server-network-connection">
    <path id="Union" fill="#000000" fill-rule="evenodd" d="M13.9896 9.703988571428571c5.510091428571428 -5.510091428571428 14.510502857142857 -5.510091428571428 20.020594285714285 0 1.0040914285714286 1.0041942857142856 2.63232 1.0041942857142856 3.636548571428571 0 1.0042285714285712 -1.0041942857142856 1.0042285714285712 -2.6323542857142854 0 -3.636548571428571 -7.5184799999999985 -7.518490285714286 -19.775211428571428 -7.518490285714286 -27.293691428571428 0 -1.0041942857142856 1.0041942857142856 -1.0041942857142856 2.6323542857142854 0 3.636548571428571s2.6323542857142854 1.0041942857142856 3.636548571428571 0Zm-8.507965714285714 0.8231314285714285c-0.34008 -1.1335542857142857 -1.5346971428571428 -1.7768228571428573 -2.668244571428571 -1.4367428571428569 -1.1335542857142857 0.3400457142857143 -1.776805714285714 1.534662857142857 -1.4367394285714286 2.668217142857143L5.726399999999999 26.257782857142857C3.191821714285714 26.780571428571427 1.28628 29.02488 1.28628 31.71428571428571v6.857142857142857c0 3.077142857142857 2.494405714285714 5.571428571428571 5.5714114285714285 5.571428571428571h1.2857142857142856v1.2857142857142856c0 1.183542857142857 0.9594171428571429 2.142857142857143 2.142857142857143 2.142857142857143 1.1834742857142857 0 2.142857142857143 -0.9593142857142857 2.142857142857143 -2.142857142857143v-1.2857142857142856h23.142994285714284v1.2857142857142856c0 1.183542857142857 0.9593142857142857 2.142857142857143 2.142857142857143 2.142857142857143 1.1832 0 2.142857142857143 -0.9593142857142857 2.142857142857143 -2.142857142857143v-1.2857142857142856h1.2857142857142856c3.0767999999999995 0 5.571428571428571 -2.494285714285714 5.571428571428571 -5.571428571428571v-6.857142857142857c0 -2.6894057142857144 -1.9055999999999997 -4.933714285714285 -4.4403428571428565 -5.456502857142857l4.349828571428571 -14.49918857142857c0.3401142857142857 -1.1335542857142857 -0.3030857142857143 -2.328171428571429 -1.4365714285714284 -2.668217142857143 -1.1338285714285714 -0.34008 -2.3283428571428573 0.3031885714285714 -2.6684571428571426 1.4367428571428569L37.83462857142857 26.142857142857142H10.166331428571429L5.481634285714286 10.527119999999998ZM37.714971428571424 39.857142857142854h3.4285714285714284c0.7100571428571428 0 1.2857142857142856 -0.5756571428571428 1.2857142857142856 -1.2857142857142856v-6.857142857142857c0 -0.7100914285714285 -0.5756571428571428 -1.2857142857142856 -1.2857142857142856 -1.2857142857142856h-1.6645714285714284c-0.03257142857142857 0.0007542857142857143 -0.06514285714285714 0.0007542857142857143 -0.09805714285714286 0H8.620182857142856c-0.03277714285714286 0.0007542857142857143 -0.06545142857142856 0.0007542857142857143 -0.09802285714285713 0h-1.6644685714285714c-0.7100571428571428 0 -1.2857142857142856 0.5756228571428571 -1.2857142857142856 1.2857142857142856v6.857142857142857c0 0.7100571428571428 0.5756571428571428 1.2857142857142856 1.2857142857142856 1.2857142857142856h30.85728Zm-27.428708571428572 -6.857142857142857c-1.1834399999999998 0 -2.142857142857143 0.9593828571428571 -2.142857142857143 2.142857142857143 0 1.183542857142857 0.9594171428571429 2.142857142857143 2.142857142857143 2.142857142857143h1.7142857142857142c1.1834742857142857 0 2.142857142857143 -0.9593142857142857 2.142857142857143 -2.142857142857143 0 -1.1834742857142857 -0.9593828571428571 -2.142857142857143 -2.142857142857143 -2.142857142857143h-1.7142857142857142Zm6.428571428571428 2.142857142857143c0 -1.1834742857142857 0.9594171428571429 -2.142857142857143 2.142857142857143 -2.142857142857143h1.7142857142857142c1.1834742857142857 0 2.142857142857143 0.9593828571428571 2.142857142857143 2.142857142857143 0 1.183542857142857 -0.9593828571428571 2.142857142857143 -2.142857142857143 2.142857142857143h-1.7142857142857142c-1.1834399999999998 0 -2.142857142857143 -0.9593142857142857 -2.142857142857143 -2.142857142857143Zm10.761771428571429 -20.18352c-1.93968 -1.939645714285714 -5.358171428571429 -1.939645714285714 -7.297817142857142 0 -1.0042285714285712 1.0042285714285712 -2.6323542857142854 1.0042285714285712 -3.636582857142857 0 -1.0041942857142856 -1.0041942857142856 -1.0041942857142856 -2.63232 0 -3.636548571428571 3.9481028571428567 -3.9480685714285717 10.622879999999999 -3.9480685714285717 14.57094857142857 0 1.0041942857142856 1.0042285714285712 1.0041942857142856 2.6323542857142854 0 3.636548571428571 -1.0041942857142856 1.0042285714285712 -2.6323542857142854 1.0042285714285712 -3.636548571428571 0ZM20.401234285714285 20.305234285714285c0 1.893565714285714 1.53504 3.4285714285714284 3.4285714285714284 3.4285714285714284s3.4285714285714284 -1.535005714285714 3.4285714285714284 -3.4285714285714284c0 -1.8935314285714284 -1.53504 -3.4285714285714284 -3.4285714285714284 -3.4285714285714284s-3.4285714285714284 1.53504 -3.4285714285714284 3.4285714285714284Z" clip-rule="evenodd" stroke-width="3.4286"></path>
  </g>
</svg>