<svg xmlns="http://www.w3.org/2000/svg" fill="none" viewBox="0 0 48 48" id="Wifi-Signal-Full--Streamline-Core-Remix" height="48" width="48">
  <desc>
    Wifi Signal Full Streamline Icon: https://streamlinehq.com
  </desc>
  <g id="Free Remix/Computer Devices/wifi-signal-full--wireless-wifi-internet-server-network-connection">
    <path id="Union" fill="#000000" fill-rule="evenodd" d="M3.6203999999999996 15.429188571428572C9.322731428571428 10.000354285714286 16.65781714285714 7.285679999999999 24 7.285714285714286c7.3421828571428565 -0.00003428571428571428 14.677371428571428 2.7146399999999997 20.37942857142857 8.143474285714285 0.8571428571428571 0.816 2.2138285714285715 0.7826742857142857 3.0298285714285713 -0.07446857142857143s0.7827428571428571 -2.21352 -0.07474285714285714 -3.029554285714285C40.804457142857146 6.108171428571428 32.39866285714285 2.999965714285714 24 3 15.601337142857142 2.999965714285714 7.195577142857143 6.108171428571428 0.6653074285714285 12.325165714285713c-0.8571438857142857 0.8160342857142857 -0.8904757714285714 2.1724114285714284 -0.07445142857142857 3.029554285714285 0.8160308571428571 0.8571428571428571 2.172401142857143 0.8904685714285714 3.0295439999999996 0.07446857142857143Zm5.530285714285714 6.826491428571428c8.201005714285714 -8.201005714285714 21.497485714285713 -8.20104 29.698457142857144 0 0.8369142857142857 0.8368114285714285 2.1936 0.8368114285714285 3.0305142857142857 0 0.8369142857142857 -0.8368457142857142 0.8369142857142857 -2.1936342857142854 0 -3.03048 -9.874731428571428 -9.874662857142857 -25.884754285714283 -9.874662857142857 -35.759417142857146 0 -0.8368457142857142 0.8368457142857142 -0.8368457142857142 2.1936342857142854 0 3.03048 0.8368114285714285 0.8368114285714285 2.1936 0.8368114285714285 3.030445714285714 0Zm23.63821714285714 6.308674285714286c-4.853657142857143 -4.853657142857143 -12.722982857142856 -4.853657142857143 -17.57664 0 -0.8368457142857142 0.8368457142857142 -2.1936342857142854 0.8368457142857142 -3.03048 0 -0.8368457142857142 -0.8368457142857142 -0.8368457142857142 -2.1936342857142854 0 -3.030445714285714 6.527348571428571 -6.527348571428571 17.110251428571427 -6.527348571428571 23.637531428571428 0 0.8369142857142857 0.8368114285714285 0.8369142857142857 2.1936 0 3.030445714285714 -0.8369142857142857 0.8368457142857142 -2.193565714285714 0.8368457142857142 -3.0304114285714285 0ZM30.857142857142854 37.714285714285715c0 -3.7870971428571427 -3.070045714285714 -6.857142857142857 -6.857142857142857 -6.857142857142857s-6.857142857142857 3.070045714285714 -6.857142857142857 6.857142857142857c0 3.7872 3.070045714285714 6.857142857142857 6.857142857142857 6.857142857142857s6.857142857142857 -3.069942857142857 6.857142857142857 -6.857142857142857Z" clip-rule="evenodd" stroke-width="3.4286"></path>
  </g>
</svg>