<svg xmlns="http://www.w3.org/2000/svg" fill="none" viewBox="0 0 48 48" id="Wifi-Horizontal--Streamline-Core-Remix" height="48" width="48">
  <desc>
    Wifi Horizontal Streamline Icon: https://streamlinehq.com
  </desc>
  <g id="Free Remix/Computer Devices/wifi-horizontal--wireless-wifi-internet-server-network-horizontal-connection">
    <path id="Union" fill="#000000" fill-rule="evenodd" d="M33.642239999999994 3.9988799999999998c-0.6317485714285714 1.0007314285714284 -0.3326742857142857 2.32416 0.66816 2.955908571428571C39.965828571428574 10.525234285714285 43.714285714285715 16.823177142857144 43.714285714285715 23.994582857142856c0 7.17792 -3.7553142857142854 13.480731428571428 -9.419314285714286 17.049531428571427 -1.0013485714285713 0.6308571428571428 -1.3016571428571428 1.953942857142857 -0.6708 2.955428571428571 0.6308914285714285 1.0011428571428571 1.9541142857142855 1.3014857142857141 2.9552571428571426 0.6706285714285714 6.857142857142857 -4.320342857142857 11.420571428571428 -11.964205714285713 11.420571428571428 -20.67558857142857 0 -8.703462857142856 -4.5552 -16.341462857142854 -11.401714285714284 -20.663742857142857 -1.0008 -0.6317725714285714 -2.324262857142857 -0.3326742857142857 -2.9560457142857137 0.66804ZM24 19.71425142857143c2.3669485714285714 0 4.285714285714286 1.9187657142857142 4.285714285714286 4.285714285714286s-1.9187657142857142 4.285714285714286 -4.285714285714286 4.285714285714286 -4.285714285714286 -1.9187657142857142 -4.285714285714286 -4.285714285714286 1.9187657142857142 -4.285714285714286 4.285714285714286 -4.285714285714286Zm4.013177142857143 -4.823074285714285c-1.063302857142857 -0.5196 -1.5040114285714286 -1.8028114285714283 -0.9844114285714285 -2.8661142857142856 0.5196342857142857 -1.0632685714285715 1.8028114285714283 -1.5040114285714286 2.8661142857142856 -0.9844114285714285 4.788548571428572 2.3400342857142853 8.094034285714285 7.261714285714285 8.094034285714285 12.95952 0 5.692457142857143 -3.299314285714286 10.610228571428571 -8.080491428571428 12.952971428571429 -1.0627542857142858 0.5208 -2.3464457142857142 0.08125714285714285 -2.867142857142857 -0.9815999999999999 -0.5207314285714285 -1.0625142857142857 -0.08136 -2.346308571428571 0.9813942857142857 -2.86704 3.3685371428571425 -1.6505142857142856 5.680457142857143 -5.109462857142857 5.680457142857143 -9.104331428571427 0 -3.9986399999999995 -2.3162742857142855 -7.460331428571429 -5.689954285714285 -9.108994285714285ZM14.35776 3.9988799999999998c0.6317485714285714 1.0007314285714284 0.3326742857142857 2.32416 -0.6680571428571428 2.955908571428571C8.034137142857142 10.525234285714285 4.285714285714286 16.823177142857144 4.285714285714286 23.994582857142856c0 7.17792 3.755245714285714 13.480731428571428 9.419382857142857 17.049531428571427 1.00128 0.6308571428571428 1.3015885714285715 1.953942857142857 0.6707314285714285 2.955428571428571 -0.6308914285714285 1.0011428571428571 -1.9540114285714285 1.3014857142857141 -2.9553257142857143 0.6706285714285714C4.5636 40.349828571428574 0 32.70596571428571 0 23.994582857142856 0 15.29112 4.555337142857143 7.6531199999999995 11.401851428571428 3.33084c1.0007314285714284 -0.6317725714285714 2.324125714285714 -0.3326742857142857 2.955908571428571 0.66804Zm5.6290628571428565 10.892297142857142c1.063302857142857 -0.5196 1.5040114285714286 -1.8028114285714283 0.9844114285714285 -2.8661142857142856 -0.5196342857142857 -1.0632685714285715 -1.8028114285714283 -1.5040114285714286 -2.8661142857142856 -0.9844114285714285 -4.788377142857143 2.3400342857142853 -8.093965714285714 7.261714285714285 -8.093965714285714 12.95952 0 5.692457142857143 3.2993828571428567 10.610228571428571 8.080422857142857 12.952971428571429 1.0627542857142858 0.5208 2.3464457142857142 0.08125714285714285 2.867142857142857 -0.9815999999999999 0.5207314285714285 -1.0625142857142857 0.08136 -2.346308571428571 -0.9813942857142857 -2.86704 -3.3685371428571425 -1.6505142857142856 -5.680457142857143 -5.109462857142857 -5.680457142857143 -9.104331428571427 0 -3.9986399999999995 2.3162742857142855 -7.460331428571429 5.689954285714285 -9.108994285714285Z" clip-rule="evenodd" stroke-width="3.4286"></path>
  </g>
</svg>