<svg xmlns="http://www.w3.org/2000/svg" fill="none" viewBox="0 0 48 48" id="Windows--Streamline-Core-Remix" height="48" width="48">
  <desc>
    Windows Streamline Icon: https://streamlinehq.com
  </desc>
  <g id="Free Remix/Computer Devices/windows--os-system-microsoft">
    <path id="Union" fill="#000000" fill-rule="evenodd" d="m42.42857142857142 5.645382857142857 -19.449771428571427 2.2696457142857143v13.105097142857142H42.42857142857142v-15.374742857142857Zm0 19.660457142857144H22.978799999999996v14.002388571428572l19.449771428571427 3.0263999999999998V25.305839999999996Zm-23.735485714285716 -4.285714285714286V8.415154285714285l-13.121657142857142 1.5312v11.073771428571428h13.121657142857142Zm-13.121657142857142 4.285714285714286h13.121657142857142v13.335531428571429L5.571428571428571 36.6V25.305839999999996Zm-4.285714285714286 -2.142857142857143v13.873131428571428l0.00001714285714285714 0.008228571428571427c0.0033771428571428568 0.876 0.30907885714285716 1.7273142857142858 0.870336 2.4054857142857142 0.5618194285714285 0.6785142857142856 1.3455668571428572 1.1417142857142857 2.218206857142857 1.300457142857143l0.054068571428571424 0.008914285714285713 15.955405714285714 2.482628571428571c0.07895999999999999 0.0168 0.15953142857142857 0.029485714285714285 0.24144 0.03737142857142857l21.77389714285714 3.3881142857142854c2.3063999999999996 0.37234285714285714 4.299771428571428 -1.4633142857142856 4.3152 -3.6750857142857143V5.026628571428571c0.014057142857142858 -2.1776571428571425 -1.9110857142857143 -4.0180045714285715 -4.188342857142857 -3.7073965714285713l-21.757954285714284 2.539008c-0.12421714285714285 0.0038399999999999997 -0.24575999999999998 0.018308571428571428 -0.3637714285714285 0.04244571428571429l-15.831497142857142 1.8474171428571429 0 -0.00003428571428571428 -0.006685714285714285 0.0008228571428571429c-0.8675314285714284 0.10398857142857142 -1.666518857142857 0.5106857142857143 -2.2620822857142855 1.1424685714285714 -0.5949634285714285 0.6311657142857142 -0.9505337142857143 1.4477485714285714 -1.0126697142857142 2.308045714285714 -0.003709714285714286 0.051359999999999996 -0.005568 0.10285714285714284 -0.005568 0.1543542857142857v13.809222857142856Z" clip-rule="evenodd" stroke-width="3.4286"></path>
  </g>
</svg>