<svg xmlns="http://www.w3.org/2000/svg" fill="none" viewBox="0 0 48 48" id="Wind-Flow-1--Streamline-Core-Remix" height="48" width="48">
  <desc>
    Wind Flow 1 Streamline Icon: https://streamlinehq.com
  </desc>
  <g id="Free Remix/Interface Essential/wind-flow-1--wind-high-overcast-gust-weather-meteorology-gale">
    <path id="Union" fill="#000000" fill-rule="evenodd" d="M23.142857142857142 3c0 -1.1834674285714284 0.9593828571428571 -2.142857142857143 2.142857142857143 -2.142857142857143h0.8571428571428571C30.640045714285716 0.8571428571428571 34.285714285714285 4.5028114285714285 34.285714285714285 9S30.640045714285716 17.142857142857142 26.142857142857142 17.142857142857142h-24C0.9593897142857143 17.142857142857142 0 16.183474285714286 0 15s0.9593897142857143 -2.142857142857143 2.142857142857143 -2.142857142857143h24c2.1302399999999997 0 3.8571428571428568 -1.726902857142857 3.8571428571428568 -3.8571428571428568S28.273097142857143 5.142857142857142 26.142857142857142 5.142857142857142h-0.8571428571428571c-1.1834742857142857 0 -2.142857142857143 -0.9593828571428571 -2.142857142857143 -2.142857142857143ZM3.4285714285714284 33C3.4285714285714284 31.816525714285717 4.387954285714286 30.857142857142854 5.571428571428571 30.857142857142854h18.857142857142858C28.92576 30.857142857142854 32.57142857142857 34.502742857142856 32.57142857142857 39S28.92576 47.14285714285714 24.428571428571427 47.14285714285714h-0.8571428571428571c-1.1834742857142857 0 -2.142857142857143 -0.9593142857142857 -2.142857142857143 -2.142857142857143s0.9593828571428571 -2.142857142857143 2.142857142857143 -2.142857142857143h0.8571428571428571c2.1302399999999997 0 3.8571428571428568 -1.7269714285714286 3.8571428571428568 -3.8571428571428568s-1.726902857142857 -3.8571428571428568 -3.8571428571428568 -3.8571428571428568h-18.857142857142858c-1.1834742857142857 0 -2.142857142857143 -0.9593828571428571 -2.142857142857143 -2.142857142857143Zm3.8571428571428568 -11.142857142857142c-1.1834742857142857 0 -2.142857142857143 0.9593828571428571 -2.142857142857143 2.142857142857143s0.9593828571428571 2.142857142857143 2.142857142857143 2.142857142857143h32.57142857142857c2.1301714285714284 0 3.8571428571428568 1.726902857142857 3.8571428571428568 3.8571428571428568s-1.7269714285714286 3.8571428571428568 -3.8571428571428568 3.8571428571428568h-0.8571428571428571c-1.183542857142857 0 -2.142857142857143 0.9593142857142857 -2.142857142857143 2.142857142857143s0.9593142857142857 2.142857142857143 2.142857142857143 2.142857142857143h0.8571428571428571c4.497257142857143 0 8.142857142857142 -3.6455999999999995 8.142857142857142 -8.142857142857142 0 -4.497188571428571 -3.6455999999999995 -8.142857142857142 -8.142857142857142 -8.142857142857142h-32.57142857142857Z" clip-rule="evenodd" stroke-width="3.4286"></path>
  </g>
</svg>