<svg xmlns="http://www.w3.org/2000/svg" fill="none" viewBox="0 0 48 48" id="Windmill--Streamline-Core-Remix" height="48" width="48">
  <desc>
    Windmill Streamline Icon: https://streamlinehq.com
  </desc>
  <g id="Free Remix/Nature Ecology/windmill">
    <path id="Union" fill="#000000" fill-rule="evenodd" d="M30.451337142857145 0.10343005714285713c-0.4272342857142857 -0.15554262857142856 -0.8987657142857142 -0.13498241142857142 -1.31088 0.05715771428571428C28.728377142857145 0.352728 28.40952 0.7007074285714285 28.253999999999998 1.1279657142857142l-3.442628571428571 9.458537142857143c-0.26636571428571426 -0.029485714285714285 -0.5370514285714285 -0.04464 -0.8112685714285713 -0.04464s-0.544902857142857 0.015154285714285714 -0.8112685714285713 0.04464L19.746205714285715 1.1279657142857142C19.59072 0.7007074285714285 19.271828571428568 0.352728 18.859748571428568 0.16058777142857142c-0.41208 -0.19213992 -0.8836457142857143 -0.21270034285714284 -1.31088 -0.05715771428571428C12.322971428571428 2.005957714285714 8.178411428571428 6.150514285714285 6.275862857142856 11.376411428571428c-0.1555542857142857 0.4272342857142857 -0.13498285714285715 0.8987999999999999 0.05715428571428571 1.31088 0.19213714285714284 0.41208 0.5401371428571429 0.7309714285714285 0.9673714285714285 0.8864571428571428l9.45864 3.442662857142857c-0.029485714285714285 0.26633142857142855 -0.04464 0.5369828571428571 -0.04464 0.8111657142857143 0 0.2742171428571428 0.015154285714285714 0.544902857142857 0.04467428571428571 0.8112685714285713L7.300388571428571 22.081508571428568c-0.4272342857142857 0.15552 -0.7752342857142857 0.4743771428571429 -0.9673714285714285 0.8864914285714286 -0.19213714285714284 0.41208 -0.2127085714285714 0.8836114285714285 -0.05715428571428571 1.3108457142857142 1.102182857142857 3.0275314285714283 2.956868571428571 5.692114285714285 5.338354285714286 7.768114285714285 -0.9555085714285714 4.27464 -1.7569714285714284 8.95704 -1.7569714285714284 13.810182857142856 0 1.183542857142857 0.9593828571428571 2.142857142857143 2.142857142857143 2.142857142857143H36c1.183542857142857 0 2.142857142857143 -0.9593142857142857 2.142857142857143 -2.142857142857143 0 -4.853142857142857 -0.8012571428571428 -9.535542857142858 -1.7567999999999997 -13.810114285714285 2.381485714285714 -2.0760342857142855 4.236 -4.740651428571428 5.338285714285714 -7.768182857142857 0.15565714285714286 -0.4272342857142857 0.13508571428571428 -0.8987657142857142 -0.057257142857142854 -1.3108457142857142 -0.192 -0.4121142857142857 -0.5399999999999999 -0.7309714285714285 -0.9672000000000001 -0.8864914285714286L31.241142857142854 18.63884571428571c0.029519999999999998 -0.26636571428571426 0.04467428571428571 -0.5370514285714285 0.04467428571428571 -0.8112685714285713 0 -0.2741828571428571 -0.015154285714285714 -0.5448000000000001 -0.04464 -0.8110971428571428l9.45870857142857 -3.442662857142857c0.42719999999999997 -0.15552 0.7751999999999999 -0.4743771428571429 0.9672000000000001 -0.8864571428571428 0.19234285714285712 -0.4121142857142857 0.21291428571428572 -0.8836457142857143 0.057257142857142854 -1.31088C39.82182857142857 6.150548571428571 35.677371428571426 2.005964571428571 30.451337142857145 0.10343005714285713ZM24.811302857142856 25.068617142857143c-0.26633142857142855 0.029519999999999998 -0.5369828571428571 0.04467428571428571 -0.8111999999999999 0.04467428571428571s-0.5448685714285714 -0.015154285714285714 -0.8111999999999999 -0.04467428571428571L19.746205714285715 34.527428571428565c-0.15548571428571428 0.42719999999999997 -0.4743771428571429 0.7751999999999999 -0.8864571428571428 0.9672000000000001 -0.41208 0.19234285714285712 -0.8836457142857143 0.21291428571428572 -1.31088 0.057257142857142854 -0.7243885714285714 -0.2636571428571428 -1.4279657142857143 -0.5705142857142856 -2.1077142857142857 -0.9174857142857142 -0.60888 2.952342857142857 -1.0853828571428572 5.993142857142857 -1.2426514285714285 9.079885714285714h19.603199999999998c-0.15726857142857142 -3.086742857142857 -0.6337714285714285 -6.127199999999999 -1.2426514285714285 -9.079542857142856 -0.6797142857142857 0.3466285714285714 -1.3833257142857143 0.6534857142857142 -2.1077142857142857 0.9171428571428571 -0.4272342857142857 0.15565714285714286 -0.8987657142857142 0.13508571428571428 -1.31088 -0.057257142857142854 -0.41208 -0.192 -0.7309371428571427 -0.5399999999999999 -0.8864571428571428 -0.9672000000000001L24.811302857142856 25.068617142857143Zm-3.8111999999999995 -7.241039999999999c0 -1.6568571428571428 1.343142857142857 -3 3 -3s3 1.343142857142857 3 3 -1.343142857142857 3 -3 3 -3 -1.343142857142857 -3 -3Z" clip-rule="evenodd" stroke-width="3.4286"></path>
  </g>
</svg>