<svg xmlns="http://www.w3.org/2000/svg" fill="none" viewBox="0 0 48 48" id="Wind-Flow-2--Streamline-Core-Remix" height="48" width="48">
  <desc>
    Wind Flow 2 Streamline Icon: https://streamlinehq.com
  </desc>
  <g id="Free Remix/Interface Essential/wind-flow-2--wind-flow-weather">
    <path id="Union" fill="#000000" fill-rule="evenodd" d="M37.08377142857143 5.898822857142857c0.5293714285714286 -1.0585371428571428 1.816457142857143 -1.4875885714285713 2.8752 -0.9583199999999998l6.857142857142857 3.4285714285714284c0.732 0.3661028571428571 1.1917714285714285 1.1173028571428572 1.1842285714285714 1.9358742857142854 -0.007199999999999999 0.8185371428571429 -0.4803428571428571 1.561405714285714 -1.2188571428571426 1.9142742857142856 -4.542514285714286 2.1702857142857144 -9.484457142857144 3.4104685714285714 -14.105382857142857 3.6353828571428566 -0.03469714285714286 0.0016799999999999999 -0.06942857142857142 0.002537142857142857 -0.10419428571428571 0.002537142857142857 -3.9363085714285715 0 -6.8964 -1.4805599999999999 -9.418114285714285 -2.741828571428571l-0.1116 -0.05581714285714285c-2.5829142857142853 -1.2914742857142858 -4.727348571428571 -2.3339314285714283 -7.566925714285714 -2.3451085714285713 -4.415622857142857 0.2021485714285714 -8.356662857142856 1.2834857142857143 -12.408150857142857 3.2191199999999998 -1.0678525714285714 0.5102057142857143 -2.3471005714285713 0.05811428571428571 -2.8572819428571425 -1.0097485714285714 -0.5101806857142858 -1.0678628571428572 -0.05809782857142857 -2.3470971428571428 1.0097550857142856 -2.8572685714285715C5.743062857142856 7.905325714285714 10.25910857142857 6.65544 15.334251428571427 6.430662857142857c0.031611428571428575 -0.0014057142857142855 0.06318857142857141 -0.0020914285714285713 0.0948 -0.0020914285714285713 3.9363428571428565 0 6.896434285714285 1.4805599999999999 9.41814857142857 2.741828571428571l0.1116 0.05581714285714285c2.5814742857142856 1.2907542857142857 4.724948571428571 2.3327657142857143 7.56222857142857 2.3451085714285713 2.6146285714285713 -0.1322742857142857 5.376342857142857 -0.6403542857142857 8.096914285714286 -1.5096342857142855l-2.575885714285714 -1.2879085714285712c-1.0583999999999998 -0.5292685714285714 -1.4873142857142856 -1.816422857142857 -0.9582857142857143 -2.8749599999999997Zm0 13.714285714285714c0.5293714285714286 -1.0585371428571428 1.816457142857143 -1.4875885714285713 2.8752 -0.9583199999999998l6.857142857142857 3.4285714285714284c0.732 0.3661028571428571 1.1917714285714285 1.1173028571428572 1.1842285714285714 1.9358742857142854 -0.007199999999999999 0.8185371428571429 -0.4803428571428571 1.561405714285714 -1.2188571428571426 1.9142742857142856 -4.523657142857142 2.161165714285714 -9.039428571428571 3.4110514285714286 -14.114742857142854 3.6358285714285707 -0.03157714285714285 0.0014057142857142855 -0.06318857142857141 0.0020914285714285713 -0.0948342857142857 0.0020914285714285713 -3.9363085714285715 0 -6.8964 -1.4805599999999999 -9.418114285714285 -2.741828571428571l-0.1116 -0.05581714285714285c-2.5829142857142853 -1.2914742857142858 -4.727348571428571 -2.3339314285714283 -7.566925714285714 -2.3451085714285713 -4.415622857142857 0.2021485714285714 -8.356662857142856 1.2834857142857143 -12.408150857142857 3.2191199999999998 -1.0678525714285714 0.5102057142857143 -2.3471005714285713 0.05811428571428571 -2.8572819428571425 -1.0097485714285714 -0.5101806857142858 -1.0678628571428572 -0.05809782857142857 -2.3470971428571428 1.0097550857142856 -2.8572685714285715C5.743062857142856 21.619611428571428 10.25910857142857 20.36972571428571 15.334251428571427 20.14494857142857c0.031611428571428575 -0.0014057142857142855 0.06318857142857141 -0.0020914285714285713 0.0948 -0.0020914285714285713 3.9363428571428565 0 6.896434285714285 1.4805599999999999 9.41814857142857 2.741828571428571l0.1116 0.05581714285714285c2.5829142857142853 1.2914742857142858 4.727348571428571 2.3339314285714283 7.566925714285714 2.3451085714285713 2.8567885714285715 -0.1307657142857143 5.514617142857142 -0.62952 8.132674285714286 -1.4895085714285714l-2.616342857142857 -1.3080342857142857c-1.0583999999999998 -0.5292685714285714 -1.4873142857142856 -1.816422857142857 -0.9582857142857143 -2.8749599999999997Zm2.8752 12.755965714285713c-1.0587428571428572 -0.5292685714285714 -2.3458285714285716 -0.10021714285714285 -2.8752 0.9583199999999998 -0.5290285714285714 1.0584342857142857 -0.10011428571428571 2.34552 0.9582857142857143 2.8748914285714284l2.616342857142857 1.308c-2.6180571428571424 0.8602285714285715 -5.275885714285714 1.358742857142857 -8.132674285714286 1.4897142857142855 -2.839577142857143 -0.011314285714285714 -4.984011428571429 -1.0536 -7.566925714285714 -2.345142857142857l-0.1116 -0.055885714285714275c-2.521714285714286 -1.2613714285714286 -5.481805714285714 -2.741828571428571 -9.41814857142857 -2.741828571428571 -0.031611428571428575 0 -0.06318857142857141 0.0006857142857142857 -0.0948 0.0020914285714285713 -5.075142857142857 0.22477714285714281 -9.591188571428571 1.4745942857142855 -14.11466057142857 3.635965714285714 -1.0678529142857143 0.5101714285714285 -1.5199357714285713 1.7893714285714286 -1.0097550857142856 2.8570285714285713 0.5101813714285713 1.0679999999999998 1.7894293714285714 1.5198857142857143 2.8572819428571425 1.0097142857142856 4.051488 -1.9354285714285713 7.992528 -3.0168 12.408150857142857 -3.219085714285714 2.839577142857143 0.011314285714285714 4.984011428571429 1.0536 7.566925714285714 2.345142857142857l0.1116 0.055885714285714275c2.521714285714286 1.2613714285714286 5.481805714285714 2.741828571428571 9.418114285714285 2.741828571428571 0.031645714285714284 0 0.06325714285714286 -0.0006857142857142857 0.0948342857142857 -0.0020571428571428568 5.075314285714286 -0.22491428571428573 9.591085714285715 -1.4746285714285712 14.114742857142854 -3.6359999999999997 0.7385142857142857 -0.3528 1.2116571428571428 -1.0954285714285714 1.2188571428571426 -1.9141714285714286 0.007542857142857143 -0.8183999999999999 -0.45222857142857137 -1.5695999999999999 -1.1842285714285714 -1.9357714285714285l-6.857142857142857 -3.4286399999999997Z" clip-rule="evenodd" stroke-width="3.4286"></path>
  </g>
</svg>