<svg xmlns="http://www.w3.org/2000/svg" fill="none" viewBox="0 0 48 48" id="Wine--Streamline-Core-Remix" height="48" width="48">
  <desc>
    Wine Streamline Icon: https://streamlinehq.com
  </desc>
  <g id="Free Remix/Food Drink/wine--drink-cook-glass-cooking-wine-nutrition-food">
    <path id="Union" fill="#000000" fill-rule="evenodd" d="M12 0c-0.4230514285714285 0 -0.8366399999999999 0.12522445714285715 -1.1886514285714285 0.35989371428571426L12 2.142857142857143C10.81134857142857 0.35989371428571426 10.810114285714286 0.36070971428571424 10.80888 0.3615428571428571l-0.0025714285714285713 0.001734857142857143 -0.005554285714285714 0.003726857142857143 -0.012514285714285714 0.008485714285714286 -0.030582857142857144 0.021133714285714287c-0.022799999999999997 0.015953142857142857 -0.050468571428571425 0.03566057142857143 -0.08262857142857143 0.05923885714285715 -0.06428571428571428 0.04714628571428571 -0.14660571428571428 0.10980342857142857 -0.24428571428571424 0.18888 -0.19532571428571427 0.15812914285714286 -0.45236571428571426 0.38214514285714285 -0.7495542857142857 0.6793131428571428 -0.5948228571428571 0.59484 -1.3493142857142857 1.4816537142857142 -2.0900914285714283 2.716309714285714C6.099565714285713 6.5262514285714275 4.714285714285714 10.337725714285714 4.714285714285714 15.857142857142856c0 10.424982857142856 7.106811428571429 17.75753142857143 16.285714285714285 19.073485714285713V42h-4.285714285714286c-1.6568571428571428 0 -3 1.3433142857142857 -3 3s1.343142857142857 3 3 3h14.571428571428571c1.6568571428571428 0 3 -1.3433142857142857 3 -3s-1.343142857142857 -3 -3 -3h-4.285714285714286v-7.069371428571428c9.178971428571428 -1.3159542857142856 16.285714285714285 -8.648502857142857 16.285714285714285 -19.073485714285713 0 -5.519417142857143 -1.3851428571428572 -9.330891428571428 -2.8769142857142853 -11.816777142857141 -0.7405714285714285 -1.234656 -1.4951999999999999 -2.1214697142857144 -2.090057142857143 -2.716309714285714 -0.29725714285714283 -0.297168 -0.5540571428571428 -0.521184 -0.7494857142857142 -0.6793131428571428 -0.09771428571428571 -0.07907657142857143 -0.18 -0.14173371428571427 -0.24445714285714285 -0.18888 -0.03188571428571428 -0.023578285714285715 -0.05965714285714285 -0.04328571428571429 -0.08262857142857143 -0.05923885714285715l-0.030514285714285713 -0.021133714285714287 -0.012342857142857142 -0.008485714285714286 -0.005485714285714286 -0.003726857142857143 -0.002742857142857143 -0.001734857142857143C37.18971428571428 0.36070971428571424 37.18868571428571 0.35989371428571426 36 2.142857142857143l1.1886857142857143 -1.7829634285714286C36.836571428571425 0.12522445714285715 36.42308571428571 0 36 0h-24Zm27 15.857142857142856c0 -4.766297142857142 -1.1862857142857142 -7.811965714285714 -2.265942857142857 -9.611794285714286 -0.5451428571428572 -0.9081942857142857 -1.0762285714285713 -1.5213942857142857 -1.4458285714285715 -1.8908228571428571L35.21862857142857 4.285714285714286H12.78144l-0.06977142857142857 0.06881142857142857c-0.3694628571428571 0.3694285714285714 -0.9006857142857142 0.9826285714285714 -1.445622857142857 1.8908228571428571C10.18614857142857 8.045177142857142 9 11.090845714285715 9 15.857142857142856h30Z" clip-rule="evenodd" stroke-width="3.4286"></path>
  </g>
</svg>