<svg xmlns="http://www.w3.org/2000/svg" fill="none" viewBox="0 0 48 48" id="Woman-Symbol--Streamline-Core-Remix" height="48" width="48">
  <desc>
    Woman Symbol Streamline Icon: https://streamlinehq.com
  </desc>
  <g id="Free Remix/Map Travel/woman-symbol--geometric-gender-female-person-human-user">
    <path id="Union" fill="#000000" fill-rule="evenodd" d="M24 4.285714285714286c-6.864102857142857 0 -12.428571428571427 5.564468571428571 -12.428571428571427 12.428571428571427S17.13589714285714 29.142857142857142 24 29.142857142857142s12.428571428571427 -5.564468571428571 12.428571428571427 -12.428571428571427S30.864102857142854 4.285714285714286 24 4.285714285714286Zm16.71428571428571 12.428571428571427c0 8.505017142857143 -6.352457142857142 15.526354285714286 -14.571428571428571 16.578205714285712V37.714285714285715H30.857142857142854c1.1834742857142857 0 2.142857142857143 0.9593142857142857 2.142857142857143 2.142857142857143s-0.9593828571428571 2.142857142857143 -2.142857142857143 2.142857142857143H26.142857142857142v3.8571428571428568c0 1.183542857142857 -0.9593828571428571 2.142857142857143 -2.142857142857143 2.142857142857143s-2.142857142857143 -0.9593142857142857 -2.142857142857143 -2.142857142857143V42H17.142857142857142c-1.1834742857142857 0 -2.142857142857143 -0.9593142857142857 -2.142857142857143 -2.142857142857143S15.959382857142856 37.714285714285715 17.142857142857142 37.714285714285715h4.714285714285714V33.292491428571424c-8.219005714285712 -1.0518514285714284 -14.571428571428571 -8.073188571428572 -14.571428571428571 -16.578205714285712C7.285714285714286 7.4832342857142855 14.768948571428572 0 24 0s16.71428571428571 7.4832342857142855 16.71428571428571 16.71428571428571Z" clip-rule="evenodd" stroke-width="3.4286"></path>
  </g>
</svg>