<svg xmlns="http://www.w3.org/2000/svg" fill="none" viewBox="0 0 48 48" id="Workspace-Desk--Streamline-Core-Remix" height="48" width="48">
  <desc>
    Workspace Desk Streamline Icon: https://streamlinehq.com
  </desc>
  <g id="Free Remix/Work Education/workspace-desk--workspace-desk-work">
    <path id="Union" fill="#000000" fill-rule="evenodd" d="M13.471337142857141 4.830822857142857c0 -0.30106285714285713 0.24404571428571425 -0.5451085714285714 0.5450742857142857 -0.5451085714285714h19.96409142857143c0.3010285714285714 0 0.5452114285714286 0.24404571428571425 0.5452114285714286 0.5451085714285714v11.910137142857142c0 0.30106285714285713 -0.24418285714285715 0.5451085714285714 -0.5452114285714286 0.5451085714285714H14.016411428571427c-0.3010285714285714 0 -0.5450742857142857 -0.24404571428571425 -0.5450742857142857 -0.5451085714285714V4.830822857142857ZM14.016411428571427 0c-2.6679771428571426 0 -4.830788571428571 2.162845714285714 -4.830788571428571 4.830822857142857v11.910137142857142c0 2.6679771428571426 2.1628114285714286 4.830822857142857 4.830788571428571 4.830822857142857H21.8568l-0.0031885714285714286 3.8005714285714287H9.110811428571427C5.831382857142857 25.372354285714284 3.4285714285714284 28.179771428571424 3.4285714285714284 31.315954285714284V45.857142857142854c0 1.183542857142857 0.9593828571428571 2.142857142857143 2.142857142857143 2.142857142857143s2.142857142857143 -0.9593142857142857 2.142857142857143 -2.142857142857143v-9.129599999999998l32.57142857142857 0v9.129599999999998c0 1.183542857142857 0.9593142857142857 2.142857142857143 2.142857142857143 2.142857142857143s2.142857142857143 -0.9593142857142857 2.142857142857143 -2.142857142857143v-10.815771428571427c0 -0.0096 0.00034285714285714285 -0.018857142857142854 0.00034285714285714285 -0.028114285714285717 0 -0.009257142857142858 -0.00034285714285714285 -0.018514285714285716 -0.00034285714285714285 -0.02777142857142857V31.315954285714284c0 -3.136182857142857 -2.402742857142857 -5.943599999999999 -5.682171428571428 -5.943599999999999H26.13932571428571l0.0031885714285714286 -3.8005714285714287h7.837988571428571c2.66784 0 4.830925714285714 -2.162845714285714 4.830925714285714 -4.830822857142857V4.830822857142857C38.81142857142857 2.1628422857142855 36.64834285714286 0 33.98050285714286 0H14.016411428571427Z" clip-rule="evenodd" stroke-width="3.4286"></path>
  </g>
</svg>