<svg xmlns="http://www.w3.org/2000/svg" fill="none" viewBox="0 0 48 48" id="Wrench--Streamline-Core-Remix" height="48" width="48">
  <desc>
    Wrench Streamline Icon: https://streamlinehq.com
  </desc>
  <g id="Free Remix/Interface Essential/wrench--crescent-tool-construction-tools-wrench-setting-edit-adjust">
    <path id="Union" stroke="#000000" stroke-linecap="round" stroke-linejoin="round" stroke-width="4.2857" d="M45.54651428571428 12.758777142857141c-0.06617142857142858 -0.3593142857142857 -0.2074285714285714 -0.7006628571428571 -0.4141714285714286 -1.0018971428571428 -0.20674285714285712 -0.3012342857142857 -0.47451428571428567 -0.5556342857142857 -0.7858285714285713 -0.7466742857142856l-6.857142857142857 6.857142857142857c-0.3198857142857143 0.33181714285714287 -0.7031999999999999 0.5957485714285714 -1.1273142857142855 0.7760228571428571 -0.4244571428571428 0.18027428571428572 -0.8804571428571427 0.2731885714285714 -1.3412571428571427 0.2731885714285714 -0.46079999999999993 0 -0.9170742857142856 -0.0929142857142857 -1.341222857142857 -0.2731885714285714 -0.42414857142857143 -0.18027428571428572 -0.8075657142857142 -0.4442057142857143 -1.127417142857143 -0.7760228571428571l-2.6057142857142854 -2.3314285714285714c-0.628182857142857 -0.6409028571428571 -0.9800571428571427 -1.5025714285714284 -0.9800571428571427 -2.4s0.3518742857142857 -1.759097142857143 0.9800571428571427 -2.4l6.8572114285714285 -6.857142857142857c-0.14948571428571428 -0.35129142857142853 -0.3744 -0.6654514285714286 -0.6589714285714285 -0.9202148571428572 -0.28422857142857144 -0.25476 -0.6212571428571428 -0.4439142857142857 -0.9867428571428571 -0.5540742857142856 -2.3925942857142855 -0.47712 -4.87104 -0.2728868571428571 -7.153199999999999 0.5894502857142857 -2.2821942857142856 0.8623474285714285 -4.276388571428571 2.348118857142857 -5.755542857142857 4.288210285714285 -1.4791885714285713 1.9400914285714286 -2.38392 4.2565028571428565 -2.6112 6.685577142857142 -0.21291428571428572 2.2754057142857143 0.17664 4.5639771428571425 1.1257028571428571 6.636994285714285L3.220728 38.14765714285714c-1.358293714285714 1.3583999999999998 -1.3357679999999998 3.567428571428571 0.04994057142857143 4.897714285714286l1.9226571428571428 1.845942857142857c1.3410857142857142 1.2874285714285714 3.463885714285714 1.2713142857142856 4.785565714285714 -0.036l17.75424 -17.552674285714286c2.013017142857143 0.8313257142857142 4.205725714285713 1.147542857142857 6.378514285714285 0.9146057142857142 2.40264 -0.25755428571428574 4.686754285714286 -1.176445714285714 6.598182857142857 -2.654537142857143 1.9114285714285713 -1.4780571428571427 3.3757714285714284 -3.4573371428571424 4.2294857142857145 -5.717794285714285 0.8537142857142856 -2.2604228571428573 1.0638857142857143 -4.713394285714286 0.6072 -7.086137142857143Z"></path>
  </g>
</svg>