<svg xmlns="http://www.w3.org/2000/svg" fill="none" viewBox="0 0 48 48" id="Xbox--Streamline-Core-Remix" height="48" width="48">
  <desc>
    Xbox Streamline Icon: https://streamlinehq.com
  </desc>
  <g id="Free Remix/Entertainment/xbox--xbox-entertainment-gaming">
    <path id="Union" fill="#000000" fill-rule="evenodd" d="M24 4.285714285714286c-4.088194285714286 0 -7.885748571428571 1.2444 -11.034514285714286 3.375051428571428 3.740297142857142 1.0473257142857142 7.534319999999999 3.0582171428571425 11.035371428571427 5.657485714285714 3.5006399999999998 -2.59896 7.294251428571428 -4.609714285714285 11.033999999999999 -5.657142857142857C31.88612571428571 5.530251428571428 28.088399999999996 4.285714285714286 24 4.285714285714286Zm15.664114285714284 7.742125714285714c-0.04354285714285714 0.005657142857142857 -0.08742857142857142 0.010217142857142857 -0.13165714285714283 0.013679999999999998 -3.492685714285714 0.27387428571428574 -7.547142857142856 1.9710514285714285 -11.46168 4.683805714285714 0.4719771428571429 0.4431771428571429 0.93456 0.8958171428571429 1.386685714285714 1.35672C34.330971428571424 23.05025142857143 38.347542857142855 29.343839999999997 39.785828571428574 35.81142857142857 42.25302857142857 32.519417142857144 43.714285714285715 28.430365714285713 43.714285714285715 24c0 -4.5028114285714285 -1.5096 -8.652994285714286 -4.050171428571429 -11.972159999999999Zm-19.733211428571426 4.6974857142857145c-3.9145371428571427 -2.712754285714286 -7.968891428571429 -4.409931428571428 -11.461714285714285 -4.683805714285714 -0.044708571428571424 -0.003497142857142857 -0.0890742857142857 -0.008125714285714286 -0.1330285714285714 -0.013851428571428572C5.795382857142857 15.346834285714285 4.285714285714286 19.49712 4.285714285714286 24c0 4.431154285714285 1.461942857142857 8.520822857142857 3.92976 11.813142857142857 1.4378057142857141 -6.468205714285714 5.4547542857142854 -12.762445714285713 10.328742857142856 -17.73109714285714 0.45212571428571424 -0.4609028571428571 0.9147085714285714 -0.9135428571428572 1.386685714285714 -1.35672ZM12.799885714285713 40.22605714285714c0.0013714285714285714 -0.021599999999999998 0.002537142857142857 -0.043199999999999995 0.0033942857142857143 -0.0648 0.2476114285714286 -6.120754285714286 3.992571428571429 -12.952834285714285 9.412285714285714 -18.47780571428571 0.5828228571428571 -0.5941371428571428 1.1789142857142856 -1.1669485714285714 1.7852571428571429 -1.716754285714286 0.6063771428571428 0.5498057142857142 1.2024685714285712 1.1226171428571428 1.7852914285714285 1.716754285714286C31.20582857142857 27.208422857142857 34.950857142857146 34.040502857142855 35.1984 40.16125714285714l0.0034285714285714284 0.06342857142857142C32.02059428571428 42.42514285714286 28.160811428571428 43.714285714285715 24 43.714285714285715c-4.160125714285714 0 -8.019291428571428 -1.288457142857143 -11.200114285714285 -3.4882285714285715ZM0 24c0 -13.254822857142857 10.745177142857143 -24 24 -24 13.254857142857142 0 24 10.745177142857143 24 24 0 13.254857142857142 -10.745142857142856 24 -24 24 -13.254822857142857 0 -24 -10.745142857142856 -24 -24Z" clip-rule="evenodd" stroke-width="3.4286"></path>
  </g>
</svg>