<svg xmlns="http://www.w3.org/2000/svg" fill="none" viewBox="0 0 48 48" id="Xrp-Circle--Streamline-Core-Remix" height="48" width="48">
  <desc>
    Xrp Circle Streamline Icon: https://streamlinehq.com
  </desc>
  <g id="Free Remix/Money Shopping/xrp-circle--crypto-circle-payment-blockchain-finance-xrp-currency">
    <path id="Union" fill="#000000" fill-rule="evenodd" d="M4.282354285714286 24.00342857142857c0 -10.889794285714286 8.827919999999999 -19.717714285714287 19.717714285714287 -19.717714285714287 10.889759999999999 0 19.717645714285712 8.827919999999999 19.717645714285712 19.717714285714287 0 10.889828571428572 -8.827885714285715 19.717714285714287 -19.717645714285712 19.717714285714287 -10.889794285714286 0 -19.717714285714287 -8.827885714285715 -19.717714285714287 -19.717714285714287ZM24.00006857142857 0C10.74336 0 -0.0033482125714285713 10.746685714285714 -0.0033482125714285713 24.00342857142857c0 13.256571428571426 10.746708212571429 24.00342857142857 24.003416784 24.00342857142857 13.256845714285713 0 24.00336 -10.746857142857143 24.00336 -24.00342857142857C48.003428571428564 10.746685714285714 37.25691428571428 0 24.00006857142857 0ZM13.913348571428571 11.770491428571427c0.8368457142857142 -0.8368457142857142 2.1936 -0.8368457142857142 3.030445714285714 0l6.137142857142857 6.137142857142857 0.006205714285714285 0.006205714285714285c0.11952 0.12051428571428571 0.26173714285714283 0.21617142857142854 0.4183885714285714 0.2814514285714285 0.15668571428571426 0.06528 0.32472 0.09888 0.49446857142857137 0.09888 0.16974857142857142 0 0.3377828571428571 -0.0336 0.49446857142857137 -0.09888 0.15665142857142858 -0.06528 0.29886857142857143 -0.16093714285714286 0.4183885714285714 -0.2814514285714285l0.006171428571428571 -0.00624 0.00003428571428571428 0.00003428571428571428 6.137142857142857 -6.137142857142857c0.8368457142857142 -0.8368457142857142 2.1936 -0.8368457142857142 3.030445714285714 0 0.8367771428571428 0.8368457142857142 0.8367771428571428 2.1936 0 3.030445714285714L27.955714285714286 20.931874285714283l-0.0035657142857142853 0.0035999999999999995c-0.5172 0.5204914285714285 -1.1321485714285713 0.9337371428571429 -1.8094971428571427 1.2159085714285713 -0.6789257142857142 0.28285714285714286 -1.4071542857142856 0.4285028571428571 -2.1426514285714284 0.4285028571428571 -0.7354971428571427 0 -1.4637257142857143 -0.14564571428571427 -2.1426514285714284 -0.4285028571428571 -0.6773828571428571 -0.2822057142857142 -1.2923314285714285 -0.6954514285714285 -1.8095657142857142 -1.2159771428571426L13.913348571428571 14.80093714285714c-0.8368457142857142 -0.8368457142857142 -0.8368457142857142 -2.1936 0 -3.030445714285714ZM24 29.705759999999998c-0.16974857142857142 0 -0.3377828571428571 0.03363428571428571 -0.49446857142857137 0.09888 -0.15665142857142858 0.06528 -0.29886857142857143 0.16093714285714286 -0.4183885714285714 0.2814514285714285l-0.006171428571428571 0.00624 -6.137177142857142 6.13704c-0.8368457142857142 0.8369142857142857 -2.1936 0.8369142857142857 -3.030445714285714 0 -0.8368457142857142 -0.8369142857142857 -0.8368457142857142 -2.1935314285714287 0 -3.0303771428571427l6.134399999999999 -6.134399999999999c0.5172 -0.5205599999999999 1.1321828571428572 -0.93384 1.8096 -1.2160457142857142 0.6789257142857142 -0.28285714285714286 1.4071542857142856 -0.4285028571428571 2.1426514285714284 -0.4285028571428571 0.7354971428571427 0 1.4637257142857143 0.14564571428571427 2.1426514285714284 0.4285028571428571 0.6773828571428571 0.2822057142857142 1.2923314285714285 0.6954514285714285 1.8095657142857142 1.2160114285714285l0.003497142857142857 0.0035314285714285716 6.130937142857142 6.130902857142857c0.8367771428571428 0.8368457142857142 0.8367771428571428 2.193462857142857 0 3.0303771428571427 -0.8368457142857142 0.8369142857142857 -2.1936 0.8369142857142857 -3.030445714285714 0l-6.137142857142857 -6.137074285714285 -0.006205714285714285 -0.006205714285714285c-0.11952 -0.12051428571428571 -0.26173714285714283 -0.21617142857142854 -0.4183885714285714 -0.2814514285714285 -0.15668571428571426 -0.06524571428571428 -0.32472 -0.09888 -0.49446857142857137 -0.09888Z" clip-rule="evenodd" stroke-width="3.4286"></path>
  </g>
</svg>