<svg xmlns="http://www.w3.org/2000/svg" fill="none" viewBox="0 0 48 48" id="Yin-Yang-Symbol--Streamline-Core-Remix" height="48" width="48">
  <desc>
    Yin Yang Symbol Streamline Icon: https://streamlinehq.com
  </desc>
  <g id="Free Remix/Culture/yin-yang-symbol--religion-tao-yin-yang-taoism-culture-symbol">
    <path id="Subtract" fill="#000000" fill-rule="evenodd" d="M4.285714285714286 24c0 -10.887908571428571 8.826377142857142 -19.71428571428571 19.71428571428571 -19.71428571428571 3.3188571428571425 0 6.446194285714285 0.8201142857142857 9.190354285714285 2.2687542857142855 1.2318171428571427 1.792525714285714 1.952502857142857 3.963428571428571 1.952502857142857 6.302674285714285C35.14285714285714 19.01118857142857 30.154045714285715 24 24 24s-11.142857142857142 4.988811428571428 -11.142857142857142 11.142857142857142c0 2.3393142857142855 0.7208228571428571 4.510285714285714 1.952502857142857 6.3027428571428565C8.55126857142857 38.14182857142857 4.285714285714286 31.569017142857142 4.285714285714286 24ZM24 0C10.745177142857143 0 0 10.745177142857143 0 24c0 13.254857142857142 10.745177142857143 24 24 24 13.254857142857142 0 24 -10.745142857142856 24 -24 0 -13.254822857142857 -10.745142857142856 -24 -24 -24ZM18.857142857142858 12.857142857142856c0 -2.8403314285714285 2.3025257142857143 -5.142857142857142 5.142857142857142 -5.142857142857142s5.142857142857142 2.3025257142857143 5.142857142857142 5.142857142857142 -2.3025257142857143 5.142857142857142 -5.142857142857142 5.142857142857142 -5.142857142857142 -2.3025257142857143 -5.142857142857142 -5.142857142857142Zm5.142857142857142 17.142857142857142c-2.8403314285714285 0 -5.142857142857142 2.3025257142857143 -5.142857142857142 5.142857142857142 0 2.8402285714285713 2.3025257142857143 5.142857142857142 5.142857142857142 5.142857142857142s5.142857142857142 -2.302628571428571 5.142857142857142 -5.142857142857142c0 -2.8403314285714285 -2.3025257142857143 -5.142857142857142 -5.142857142857142 -5.142857142857142Z" clip-rule="evenodd" stroke-width="3.4286"></path>
  </g>
</svg>