<svg xmlns="http://www.w3.org/2000/svg" fill="none" viewBox="0 0 48 48" id="Yuan-Yen-Circle--Streamline-Core-Remix" height="48" width="48">
  <desc>
    Yuan Yen Circle Streamline Icon: https://streamlinehq.com
  </desc>
  <g id="Free Remix/Money Shopping/yuan-yen-circle--exchange-payment-forex-finance-yuan-yen-renmindi-foreign-currency">
    <path id="Union" fill="#000000" fill-rule="evenodd" d="M4.282354285714286 24.00342857142857c0 -10.889794285714286 8.827919999999999 -19.717714285714287 19.717714285714287 -19.717714285714287 10.889759999999999 0 19.717645714285712 8.827919999999999 19.717645714285712 19.717714285714287 0 10.889828571428572 -8.827885714285715 19.717714285714287 -19.717645714285712 19.717714285714287 -10.889794285714286 0 -19.717714285714287 -8.827885714285715 -19.717714285714287 -19.717714285714287ZM24.00006857142857 0C10.74336 0 -0.0033482125714285713 10.746685714285714 -0.0033482125714285713 24.00342857142857c0 13.256571428571426 10.746708212571429 24.00342857142857 24.003416784 24.00342857142857 13.256845714285713 0 24.00336 -10.746857142857143 24.00336 -24.00342857142857C48.003428571428564 10.746685714285714 37.25691428571428 0 24.00006857142857 0Zm8.654091428571428 11.99777142857143c0.9480000000000001 0.7084457142857142 1.1422285714285714 2.0512457142857143 0.4337828571428571 2.9992457142857143L26.680354285714284 23.57142857142857h3.1137942857142855c1.1834742857142857 0 2.142857142857143 0.9593828571428571 2.142857142857143 2.142857142857143s-0.9593828571428571 2.142857142857143 -2.142857142857143 2.142857142857143h-3.377142857142857v1.9200000000000002h3.377142857142857c1.1834742857142857 0 2.142857142857143 0.9593828571428571 2.142857142857143 2.142857142857143s-0.9593828571428571 2.142857142857143 -2.142857142857143 2.142857142857143h-3.377142857142857v1.0799999999999998c0 1.183542857142857 -0.9594171428571429 2.142857142857143 -2.142857142857143 2.142857142857143 -1.1834742857142857 0 -2.142857142857143 -0.9593142857142857 -2.142857142857143 -2.142857142857143v-1.0799999999999998h-3.411428571428571c-1.1834742857142857 0 -2.142857142857143 -0.9593828571428571 -2.142857142857143 -2.142857142857143s0.9593828571428571 -2.142857142857143 2.142857142857143 -2.142857142857143h3.411428571428571v-1.9200000000000002h-3.411428571428571c-1.1834742857142857 0 -2.142857142857143 -0.9593828571428571 -2.142857142857143 -2.142857142857143s0.9593828571428571 -2.142857142857143 2.142857142857143 -2.142857142857143h3.145028571428571L15.429325714285712 15.000994285714285c-0.71064 -0.9463542857142856 -0.5195314285714285 -2.2896342857142855 0.4268228571428571 -3.00024 0.9463542857142856 -0.71064 2.2896342857142855 -0.5195314285714285 3.00024 0.4268228571428571l5.413748571428571 7.209668571428571 5.384777142857143 -7.205691428571428c0.7084457142857142 -0.9480000000000001 2.0512457142857143 -1.1422285714285714 2.9992457142857143 -0.4337828571428571Z" clip-rule="evenodd" stroke-width="3.4286"></path>
  </g>
</svg>