<svg xmlns="http://www.w3.org/2000/svg" fill="none" viewBox="0 0 48 48" id="Yuan-Yen--Streamline-Core-Remix" height="48" width="48">
  <desc>
    Yuan Yen Streamline Icon: https://streamlinehq.com
  </desc>
  <g id="Free Remix/Money Shopping/yuan-yen--exchange-payment-forex-finance-yuan-yen-renmindi-foreign-currency">
    <path id="Union" fill="#000000" fill-rule="evenodd" d="M10.229965714285713 2.0715942857142853c-0.7494171428571428 -0.9159531428571427 -2.0994514285714283 -1.0509600000000001 -3.0153942857142857 -0.3015428571428571 -0.9159771428571428 0.7494171428571428 -1.0509600000000001 2.0994685714285715 -0.3015428571428571 3.0154114285714284l14.944182857142856 18.265131428571426v3.9493714285714283h-9.857142857142856c-1.1834742857142857 0 -2.142857142857143 0.9593828571428571 -2.142857142857143 2.142857142857143s0.9593828571428571 2.142857142857143 2.142857142857143 2.142857142857143h9.857142857142856V35.57142857142857h-9.857142857142856c-1.1834742857142857 0 -2.142857142857143 0.9593142857142857 -2.142857142857143 2.142857142857143s0.9593828571428571 2.142857142857143 2.142857142857143 2.142857142857143h9.857142857142856V44.57142857142857c0 1.183542857142857 0.9593828571428571 2.142857142857143 2.142857142857143 2.142857142857143s2.142857142857143 -0.9593142857142857 2.142857142857143 -2.142857142857143v-4.714285714285714H36c1.183542857142857 0 2.142857142857143 -0.9593142857142857 2.142857142857143 -2.142857142857143s-0.9593142857142857 -2.142857142857143 -2.142857142857143 -2.142857142857143H26.142925714285713V31.28568H36c1.183542857142857 0 2.142857142857143 -0.9593828571428571 2.142857142857143 -2.142857142857143s-0.9593142857142857 -2.142857142857143 -2.142857142857143 -2.142857142857143H26.142925714285713v-3.9493714285714283l14.944045714285712 -18.265131428571426c0.7494857142857142 -0.9159428571428571 0.6144 -2.2659942857142856 -0.30137142857142857 -3.0154114285714284 -0.9161142857142857 -0.7494171428571428 -2.265942857142857 -0.6144102857142857 -3.015428571428571 0.3015428571428571L24.00006857142857 18.901714285714284 10.229965714285713 2.0715942857142853Z" clip-rule="evenodd" stroke-width="3.4286"></path>
  </g>
</svg>