<svg xmlns="http://www.w3.org/2000/svg" fill="none" viewBox="0 0 48 48" id="Zero-Hunger--Streamline-Core-Remix" height="48" width="48">
  <desc>
    Zero Hunger Streamline Icon: https://streamlinehq.com
  </desc>
  <g id="Free Remix/Nature Ecology/zero-hunger">
    <path id="Union" fill="#000000" fill-rule="evenodd" d="M11.270262857142857 11.250788571428572c-0.887142857142857 1.1089371428571428 -0.7073485714285713 2.7271199999999998 0.4015885714285714 3.6142971428571427 1.1089714285714285 0.8871771428571428 2.7271542857142856 0.7073485714285713 3.614331428571428 -0.4015885714285714 1.1858742857142857 -1.4823428571428572 1.8456342857142856 -3.074262857142857 1.5769714285714285 -4.7844685714285715 -0.22224 -1.4145942857142857 -1.062342857142857 -2.4860571428571427 -1.4787428571428571 -3.0170742857142856l-0.07477714285714285 -0.09572571428571428c-0.36744 -0.4733828571428571 -0.4849714285714285 -0.6651428571428571 -0.5212457142857142 -0.7317257142857142 0.03576 -0.11249142857142856 0.15133714285714284 -0.36654857142857145 0.49779428571428574 -0.7995771428571428 0.887142857142857 -1.1089714285714285 0.7073485714285713 -2.727147428571428 -0.4015885714285714 -3.614314285714286 -1.1089714285714285 -0.8871668571428571 -2.7271542857142856 -0.7073691428571428 -3.614331428571428 0.40159199999999995 -1.1858742857142857 1.4823428571428572 -1.8456342857142856 3.0742422857142855 -1.5769371428571428 4.784448 0.22220571428571428 1.4145942857142857 1.062342857142857 2.4860571428571427 1.4787085714285713 3.0171085714285715l0.07481142857142857 0.09569142857142857c0.3674057142857143 0.4733828571428571 0.48493714285714284 0.6651771428571428 0.5212114285714285 0.7317257142857142 -0.03576 0.11252571428571428 -0.15133714285714284 0.36654857142857145 -0.49779428571428574 0.7996114285714285Zm3.504205714285714 -5.346685714285714c-0.0014742857142857142 0.00037714285714285714 -0.0014742857142857142 -0.011314285714285714 0.004491428571428571 -0.03613714285714286 0 0.023348571428571427 -0.0029828571428571426 0.03576 -0.004491428571428571 0.03613714285714286Zm-2.9924914285714284 4.477474285714286c0.0014742857142857142 -0.00037714285714285714 0.0014742857142857142 0.011314285714285714 -0.004491428571428571 0.03617142857142857 0 -0.02338285714285714 0.0029828571428571426 -0.03579428571428571 0.004491428571428571 -0.03617142857142857Zm10.202571428571428 0.8692114285714286c-0.887142857142857 1.1089371428571428 -0.7073485714285713 2.7271199999999998 0.4015885714285714 3.6142971428571427 1.1089714285714285 0.8871771428571428 2.7271542857142856 0.7073485714285713 3.614331428571428 -0.4015885714285714 1.1858742857142857 -1.4823428571428572 1.8456342857142856 -3.074262857142857 1.5769714285714285 -4.7844685714285715 -0.22224 -1.4145942857142857 -1.062342857142857 -2.4860571428571427 -1.4787428571428571 -3.0170742857142856l-0.07477714285714285 -0.09572571428571428c-0.36744 -0.4733828571428571 -0.4849714285714285 -0.6651428571428571 -0.5212457142857142 -0.7317257142857142 0.03576 -0.11249142857142856 0.15133714285714284 -0.36654857142857145 0.49779428571428574 -0.7995771428571428 0.887142857142857 -1.1089714285714285 0.7073485714285713 -2.727147428571428 -0.4015885714285714 -3.614314285714286 -1.1089714285714285 -0.8871668571428571 -2.7271542857142856 -0.7073691428571428 -3.614331428571428 0.40159199999999995 -1.1858742857142857 1.4823428571428572 -1.8456342857142856 3.0742422857142855 -1.5769371428571428 4.784448 0.22220571428571428 1.4145942857142857 1.062342857142857 2.4860571428571427 1.4787085714285713 3.0171085714285715l0.07481142857142857 0.09569142857142857c0.3674057142857143 0.4733828571428571 0.48493714285714284 0.6651771428571428 0.5212114285714285 0.7317257142857142 -0.03576 0.11252571428571428 -0.15133714285714284 0.36654857142857145 -0.49779428571428574 0.7996114285714285Zm3.504205714285714 -5.346685714285714c-0.0014742857142857142 0.00037714285714285714 -0.0014742857142857142 -0.011314285714285714 0.004491428571428571 -0.03613714285714286 0 0.023348571428571427 -0.0029828571428571426 0.03576 -0.004491428571428571 0.03613714285714286Zm-2.9924914285714284 4.477474285714286c0.0014742857142857142 -0.00037714285714285714 0.0014742857142857142 0.011314285714285714 -0.004491428571428571 0.03617142857142857 0 -0.02338285714285714 0.0029828571428571426 -0.03579428571428571 0.004491428571428571 -0.03617142857142857Zm10.60416 4.483508571428572c-1.1089371428571428 -0.8871771428571428 -1.2887314285714284 -2.50536 -0.4015885714285714 -3.6142971428571427 0.34645714285714285 -0.43306285714285714 0.4620342857142857 -0.6870857142857142 0.49779428571428574 -0.7996114285714285 -0.03627428571428572 -0.06654857142857143 -0.15380571428571427 -0.25834285714285715 -0.5212457142857142 -0.7317257142857142l-0.07477714285714285 -0.09569142857142857c-0.4163657142857143 -0.5310514285714285 -1.256502857142857 -1.6025142857142856 -1.4787085714285713 -3.0171085714285715 -0.2686971428571428 -1.710205714285714 0.3910628571428571 -3.3021051428571426 1.5769371428571428 -4.784448 0.8871771428571428 -1.1089611428571426 2.5053942857142855 -1.288758857142857 3.614194285714286 -0.40159199999999995 1.1091428571428572 0.8871668571428571 1.2888 2.505342857142857 0.4018285714285714 3.614314285714286 -0.3466285714285714 0.4330285714285714 -0.46217142857142857 0.6870857142857142 -0.4978285714285714 0.7995771428571428 0.03634285714285714 0.06658285714285714 0.1536 0.25834285714285715 0.5211428571428571 0.7317257142857142l0.07474285714285714 0.09572571428571428c0.41657142857142854 0.5310171428571427 1.2565714285714285 1.60248 1.4787428571428571 3.0170742857142856 0.2688 1.710205714285714 -0.39119999999999994 3.302125714285714 -1.5767999999999998 4.7844685714285715 -0.8873142857142856 1.1089371428571428 -2.5054628571428568 1.2887657142857143 -3.6144342857142857 0.4015885714285714Zm3.102548571428571 -8.960982857142858c-0.0013714285714285714 0.00037714285714285714 -0.0013714285714285714 -0.011314285714285714 0.004457142857142857 -0.03613714285714286 0 0.023348571428571427 -0.002742857142857143 0.03576 -0.004457142857142857 0.03613714285714286Zm-2.9924228571428566 4.477474285714286c0.0014742857142857142 -0.00037714285714285714 0.0014742857142857142 0.011314285714285714 -0.004491428571428571 0.03617142857142857 0 -0.02338285714285714 0.0029828571428571426 -0.03579428571428571 0.004491428571428571 -0.03617142857142857ZM3.4285714285714284 21.857142857142858c-1.1834674285714284 0 -2.142857142857143 0.9593828571428571 -2.142857142857143 2.142857142857143 0 7.1995885714285714 3.3514971428571423 13.616571428571428 8.571428571428571 17.775085714285712V44.57142857142857c0 1.183542857142857 0.9593828571428571 2.142857142857143 2.142857142857143 2.142857142857143h24c1.183542857142857 0 2.142857142857143 -0.9593142857142857 2.142857142857143 -2.142857142857143v-2.796342857142857c5.22 -4.158514285714285 8.571428571428571 -10.575497142857142 8.571428571428571 -17.775085714285712 0 -1.1834742857142857 -0.9593142857142857 -2.142857142857143 -2.142857142857143 -2.142857142857143H3.4285714285714284Zm9.822788571428571 17.114057142857142C9.143314285714284 36.01611428571428 6.3052457142857135 31.418639999999996 5.694617142857143 26.142857142857142H42.305485714285716c-0.6106285714285714 5.275782857142857 -3.4488 9.873257142857144 -7.556914285714285 12.828342857142857 -0.5596457142857142 0.4025142857142857 -0.8914285714285715 1.0498285714285716 -0.8914285714285715 1.7393142857142856v1.7180571428571427h-19.71428571428571v-1.7180571428571427c0 -0.6894857142857143 -0.3317828571428571 -1.3368 -0.8914971428571428 -1.7393142857142856Z" clip-rule="evenodd" stroke-width="3.4286"></path>
  </g>
</svg>