<svg xmlns="http://www.w3.org/2000/svg" fill="none" viewBox="0 0 48 48" id="Zodiac-12--Streamline-Core-Remix" height="48" width="48">
  <desc>
    Zodiac 12 Streamline Icon: https://streamlinehq.com
  </desc>
  <g id="Free Remix/Culture/zodiac-12--sign-astrology-stars-space-cancer">
    <path id="Union" fill="#000000" fill-rule="evenodd" d="M4.285714285714286 13.714285714285714c0 -3.5503885714285714 2.878182857142857 -6.428571428571428 6.428571428571428 -6.428571428571428S17.142857142857142 10.163897142857142 17.142857142857142 13.714285714285714s-2.878182857142857 6.428571428571428 -6.428571428571428 6.428571428571428S4.285714285714286 17.264674285714282 4.285714285714286 13.714285714285714ZM0 13.714285714285714C0 8.056594285714285 4.385211428571428 3.42312 9.942137142857142 3.0273942857142857 10.054011428571428 3.0093668571428567 10.168765714285714 3 10.285714285714285 3h35.57142857142857c1.183542857142857 0 2.142857142857143 0.9593828571428571 2.142857142857143 2.142857142857143s-0.9593142857142857 2.142857142857143 -2.142857142857143 2.142857142857143H19.286502857142857C20.631531428571428 9.076422857142857 21.428571428571427 11.302285714285714 21.428571428571427 13.714285714285714c0 5.917337142857142 -4.796948571428572 10.714285714285714 -10.714285714285714 10.714285714285714S0 19.631622857142855 0 13.714285714285714Zm30.857142857142854 20.57142857142857c0 -3.5503885714285714 2.878182857142857 -6.428571428571428 6.428571428571428 -6.428571428571428 3.5502857142857143 0 6.428571428571428 2.878182857142857 6.428571428571428 6.428571428571428 0 3.5502857142857143 -2.878285714285714 6.428571428571428 -6.428571428571428 6.428571428571428C33.735325714285715 40.714285714285715 30.857142857142854 37.836 30.857142857142854 34.285714285714285Zm7.200685714285714 10.686857142857143C43.61485714285714 44.57691428571428 48 39.94354285714285 48 34.285714285714285c0 -5.917337142857142 -4.796914285714285 -10.714285714285714 -10.714285714285714 -10.714285714285714C31.368377142857142 23.57142857142857 26.57142857142857 28.368377142857142 26.57142857142857 34.285714285714285c0 2.412 0.79704 4.637828571428571 2.1420685714285717 6.428571428571428H2.142857142857143c-1.1834674285714284 0 -2.142857142857143 0.9593142857142857 -2.142857142857143 2.142857142857143s0.9593897142857143 2.142857142857143 2.142857142857143 2.142857142857143H37.714285714285715c0.1169142857142857 0 0.23177142857142854 -0.009257142857142858 0.3435428571428571 -0.027428571428571427Z" clip-rule="evenodd" stroke-width="3.4286"></path>
  </g>
</svg>