<svg xmlns="http://www.w3.org/2000/svg" fill="none" viewBox="0 0 48 48" id="Zodiac-7--Streamline-Core-Remix" height="48" width="48">
  <desc>
    Zodiac 7 Streamline Icon: https://streamlinehq.com
  </desc>
  <g id="Free Remix/Culture/zodiac-7--sign-astrology-stars-space-ares">
    <path id="Vector (Stroke)" fill="#000000" fill-rule="evenodd" d="M1.4834605714285714 2.530686857142857C1.9794034285714286 1.4561485714285713 3.2525314285714284 0.9870994285714285 4.327062857142857 1.4830422857142855l-0.8979771428571427 1.9456319999999998c0.8979771428571427 -1.9456319999999998 0.8992800000000001 -1.945038857142857 0.9006171428571429 -1.9444080000000001l0.00312 0.0014468571428571427 0.007679999999999999 0.0035725714285714284 0.020914285714285715 0.009853714285714285 0.06390857142857143 0.030699428571428572c0.05221714285714286 0.02539885714285714 0.12353142857142857 0.060744 0.2126057142857143 0.10643314285714285 0.17818285714285714 0.09136799999999999 0.42768 0.224184 0.73824 0.4016571428571428 0.6209485714285714 0.35483657142857145 1.4874171428571428 0.8889257142857142 2.5169142857142854 1.628070857142857 2.0583771428571427 1.477782857142857 4.775725714285714 3.780445714285714 7.484811428571428 7.114697142857143 3.307885714285714 4.071222857142857 6.571371428571428 9.642274285714286 8.622617142857143 17.05265142857143 2.0512457142857143 -7.410377142857143 5.314731428571428 -12.98142857142857 8.622617142857143 -17.05265142857143 2.7089828571428574 -3.334251428571428 5.426468571428571 -5.636914285714285 7.48464 -7.114697142857143 1.0296 -0.7391451428571428 1.8960000000000001 -1.2732342857142858 2.5172571428571424 -1.628070857142857 0.3102857142857143 -0.17747314285714286 0.5598857142857142 -0.3102891428571428 0.7381714285714285 -0.4016571428571428 0.08914285714285713 -0.04568914285714285 0.16045714285714285 -0.08103428571428571 0.21257142857142855 -0.10643314285714285l0.06377142857142856 -0.030699428571428572 0.020914285714285715 -0.009853714285714285 0.007885714285714286 -0.0035725714285714284 0.0030857142857142854 -0.0014468571428571427c0.0013714285714285714 -0.0006308571428571429 0.0024 -0.001224 0.9006857142857142 1.9444080000000001l-0.8982857142857142 -1.9456319999999998c1.0745142857142858 -0.49594285714285713 2.347885714285714 -0.026893714285714285 2.843657142857143 1.0476445714285714 0.49508571428571424 1.0727074285714286 0.028457142857142854 2.3433017142857144 -1.041942857142857 2.841027428571428 -0.0010285714285714284 0.0005142857142857142 -0.0024 0.0010285714285714284 -0.0034285714285714284 0.0015428571428571427l0 0.00003428571428571428 -0.021942857142857142 0.010628571428571428c-0.02571428571428571 0.012445714285714286 -0.06994285714285714 0.03428571428571429 -0.13131428571428572 0.06586285714285714 -0.12342857142857142 0.0631542857142857 -0.31577142857142854 0.16522285714285712 -0.5677714285714285 0.3091885714285714 -0.5039999999999999 0.2880342857142857 -1.2445714285714284 0.7429371428571427 -2.1435428571428568 1.3883999999999999 -1.7989714285714287 1.2914742857142858 -4.224342857142857 3.340457142857143 -6.6582857142857135 6.335862857142857C31.10646857142857 19.443702857142856 26.143371428571427 29.255691428571424 26.143371428571427 44.57142857142857c0 1.183542857142857 -0.9593828571428571 2.142857142857143 -2.142857142857143 2.142857142857143s-2.142857142857143 -0.9593142857142857 -2.142857142857143 -2.142857142857143c0 -15.315737142857142 -4.963097142857142 -25.127725714285713 -9.805954285714284 -31.088194285714284 -2.4337714285714283 -2.995405714285714 -4.859245714285715 -5.044388571428571 -6.658045714285714 -6.335862857142857 -0.8990742857142857 -0.6454628571428571 -1.6397485714285713 -1.1003657142857142 -2.143796571428571 -1.3883999999999999 -0.25192114285714284 -0.14396571428571428 -0.44439428571428574 -0.2460342857142857 -0.5675657142857142 -0.3091885714285714 -0.06157714285714286 -0.03157714285714285 -0.105792 -0.05341714285714286 -0.13141371428571427 -0.06586285714285714l-0.021953142857142855 -0.010628571428571428c-1.0729954285714285 -0.4966628571428571 -1.5410742857142856 -1.7688 -1.0454674285714285 -2.8426045714285713Zm1.0431085714285715 2.8415074285714286 0.000648 0.00030857142857142856 0.0017108571428571427 0.0007885714285714285 -0.002358857142857143 -0.001097142857142857Zm0 0L2.5251702857142857 5.371542857142857l-0.00034285714285714285 -0.00017142857142857143s0.0005828571428571429 0.00027428571428571427 0.0017417142857142857 0.0008228571428571429Z" clip-rule="evenodd" stroke-width="3.4286"></path>
  </g>
</svg>