<svg xmlns="http://www.w3.org/2000/svg" fill="none" viewBox="0 0 48 48" id="Zodiac-4--Streamline-Core-Remix" height="48" width="48">
  <desc>
    Zodiac 4 Streamline Icon: https://streamlinehq.com
  </desc>
  <g id="Free Remix/Culture/zodiac-4--sign-astrology-stars-space-aquarius">
    <path id="Union" fill="#000000" fill-rule="evenodd" d="M14.60952 8.727462857142857c-0.7037828571428572 -0.2717828571428571 -1.4558742857142857 -0.39603428571428567 -2.209645714285714 -0.36504 -0.7537714285714285 0.030959999999999998 -1.493142857142857 0.2165142857142857 -2.17224 0.5451428571428572 -0.6749142857142857 0.32657142857142857 -1.2760114285714286 0.7875771428571428 -1.7664 1.3546628571428572L0.5313394285714286 19.267337142857144c-0.7821298285714285 0.8882057142857143 -0.6961580571428572 2.242251428571428 0.192024 3.0243771428571424 0.8881817142857141 0.7821257142857142 2.242237714285714 0.6961714285714286 3.0243737142857143 -0.19203428571428569l7.937005714285714 -9.013234285714285 0.00013714285714285713 0.00010285714285714286 0.016045714285714285 -0.018651428571428572c0.10906285714285713 -0.1267542857142857 0.24298285714285714 -0.2297485714285714 0.3934971428571428 -0.30257142857142855 0.1505142857142857 -0.07282285714285713 0.31436571428571425 -0.11393142857142857 0.4814399999999999 -0.12082285714285713 0.16704 -0.006857142857142857 0.33373714285714284 0.02067428571428571 0.48970285714285716 0.0809142857142857 0.1541485714285714 0.059519999999999997 0.2945828571428571 0.14975999999999998 0.41279999999999994 0.2651657142857143l6.713279999999999 6.713211428571428 0.0035657142857142853 0.0035999999999999995c0.5110971428571428 0.5143885714285714 1.1188114285714286 0.9227314285714284 1.7882057142857142 1.2016114285714286 0.6709371428571428 0.2795314285714286 1.3906285714285713 0.4234628571428571 2.1174857142857144 0.4234628571428571 0.7268571428571428 0 1.4465142857142856 -0.14393142857142857 2.1174857142857144 -0.4234628571428571 0.6694285714285714 -0.27887999999999996 1.2771771428571428 -0.6872914285714286 1.7883085714285714 -1.2017142857142855l0.003462857142857143 -0.003497142857142857L34.72354285714286 12.990514285714285c0.11828571428571429 -0.11537142857142857 0.2585142857142857 -0.20557714285714285 0.41279999999999994 -0.26509714285714286 0.156 -0.060239999999999995 0.32262857142857143 -0.08777142857142857 0.48960000000000004 -0.0809142857142857 0.16697142857142858 0.006891428571428571 0.33085714285714285 0.048 0.48137142857142856 0.12082285714285713 0.15017142857142857 0.07265142857142858 0.28388571428571424 0.17530285714285715 0.39257142857142857 0.3015771428571428l0.0010285714285714284 0.0009942857142857143 7.733485714285713 9.011177142857143c0.7707428571428571 0.89808 2.1236571428571427 1.0013142857142856 3.0216 0.23057142857142857 0.8979428571428572 -0.7707428571428571 1.0014857142857143 -2.1235885714285714 0.23074285714285714 -3.021668571428571L39.7512 10.274742857142856l-0.0017142857142857142 -0.0020571428571428568c-0.49199999999999994 -0.5718514285714286 -1.0961142857142856 -1.036525714285714 -1.7753142857142858 -1.36512 -0.6791999999999999 -0.32862857142857144 -1.4183999999999999 -0.514182857142857 -2.172342857142857 -0.5451428571428572 -0.7535999999999999 -0.03099428571428571 -1.5058285714285713 0.09329142857142857 -2.209542857142857 0.36504 -0.7037828571428572 0.2717828571428571 -1.3441714285714286 0.6853028571428571 -1.881462857142857 1.21488l-0.01104 0.010937142857142857 -6.726274285714285 6.726274285714285 -0.00003428571428571428 0 -0.006171428571428571 0.00624c-0.11345142857142856 0.11437714285714286 -0.24839999999999998 0.20516571428571426 -0.3971314285714286 0.26711999999999997 -0.14869714285714283 0.06195428571428571 -0.3081942857142857 0.09383999999999999 -0.46926857142857137 0.09383999999999999 -0.1611085714285714 0 -0.32060571428571427 -0.03188571428571428 -0.46930285714285713 -0.09383999999999999 -0.14869714285714283 -0.06195428571428571 -0.28368 -0.15274285714285712 -0.3971314285714286 -0.26711999999999997l0.00003428571428571428 0 -0.006205714285714285 -0.00624 -6.7263085714285715 -6.726274285714285 0.00003428571428571428 -0.00003428571428571428 -0.01104 -0.010902857142857143c-0.5373257142857143 -0.5295771428571427 -1.1777142857142857 -0.9430971428571427 -1.881462857142857 -1.21488Zm0 16.815805714285712c-0.7037828571428572 -0.2717828571428571 -1.4558742857142857 -0.39603428571428567 -2.209645714285714 -0.36504 -0.7537714285714285 0.030959999999999998 -1.493142857142857 0.2165142857142857 -2.17224 0.5451085714285714 -0.6749142857142857 0.3266057142857143 -1.2760114285714286 0.7876114285714285 -1.7664 1.3546628571428572L0.5313394285714286 36.08331428571429c-0.7821298285714285 0.888 -0.6961580571428572 2.241942857142857 0.192024 3.024342857142857 0.8881817142857141 0.7820571428571428 2.242237714285714 0.6960000000000001 3.0243737142857143 -0.192l7.937005714285714 -9.013405714285714 0.00013714285714285713 0.00010285714285714286 0.016045714285714285 -0.018651428571428572c0.10906285714285713 -0.1267542857142857 0.24298285714285714 -0.2297485714285714 0.3934971428571428 -0.30257142857142855 0.1505142857142857 -0.07282285714285713 0.31436571428571425 -0.11396571428571428 0.4814399999999999 -0.12082285714285713 0.16704 -0.006857142857142857 0.33373714285714284 0.02067428571428571 0.48970285714285716 0.0809142857142857 0.1541485714285714 0.059519999999999997 0.2945828571428571 0.14972571428571427 0.41279999999999994 0.2651657142857143l6.713279999999999 6.713382857142856 0.0035657142857142853 0.0034285714285714284c0.5110971428571428 0.5142857142857142 1.1188114285714286 0.9226285714285714 1.7882057142857142 1.2017142857142855 0.6709371428571428 0.2794285714285714 1.3906285714285713 0.4234285714285714 2.1174857142857144 0.4234285714285714 0.7268571428571428 0 1.4465142857142856 -0.144 2.1174857142857144 -0.4234285714285714 0.6694285714285714 -0.27908571428571427 1.2771771428571428 -0.6874285714285714 1.7883085714285714 -1.2017142857142855l0.003462857142857143 -0.0034285714285714284 6.713382857142856 -6.713451428571428c0.11828571428571429 -0.11537142857142857 0.2585142857142857 -0.20557714285714285 0.41279999999999994 -0.26509714285714286 0.156 -0.060239999999999995 0.32262857142857143 -0.08777142857142857 0.48960000000000004 -0.0809142857142857 0.16697142857142858 0.006891428571428571 0.33085714285714285 0.048 0.48137142857142856 0.12082285714285713 0.15017142857142857 0.07265142857142858 0.28388571428571424 0.17530285714285715 0.39257142857142857 0.3015771428571428l0.0010285714285714284 0.0009942857142857143 7.733485714285713 9.01104c0.7707428571428571 0.8982857142857142 2.1236571428571427 1.0014857142857143 3.0216 0.23074285714285714 0.8979428571428572 -0.7707428571428571 1.0014857142857143 -2.1236571428571427 0.23074285714285714 -3.0216l-7.735542857142858 -9.013337142857143 -0.0017142857142857142 -0.0020571428571428568c-0.49199999999999994 -0.5718514285714286 -1.0961142857142856 -1.036525714285714 -1.7753142857142858 -1.36512 -0.6791999999999999 -0.32862857142857144 -1.4183999999999999 -0.514182857142857 -2.172342857142857 -0.5451428571428572 -0.7535999999999999 -0.03099428571428571 -1.5058285714285713 0.09325714285714284 -2.209542857142857 0.36504 -0.7037828571428572 0.2717828571428571 -1.3441714285714286 0.6853028571428571 -1.881462857142857 1.21488l-0.01104 0.010937142857142857 -6.726274285714285 6.726274285714285 -0.00003428571428571428 0 -0.006171428571428571 0.00624c-0.11345142857142856 0.11437714285714286 -0.24839999999999998 0.20516571428571426 -0.3971314285714286 0.26711999999999997 -0.14869714285714283 0.06195428571428571 -0.3081942857142857 0.09383999999999999 -0.46926857142857137 0.09383999999999999 -0.1611085714285714 0 -0.32060571428571427 -0.03188571428571428 -0.46930285714285713 -0.09383999999999999 -0.14869714285714283 -0.06195428571428571 -0.28368 -0.15274285714285712 -0.3971314285714286 -0.26711999999999997l0.00003428571428571428 0 -0.006205714285714285 -0.00624 -6.7263085714285715 -6.726274285714285 0.00003428571428571428 -0.00003428571428571428 -0.01104 -0.010902857142857143c-0.5373257142857143 -0.5295771428571427 -1.1777142857142857 -0.9430971428571427 -1.881462857142857 -1.21488Z" clip-rule="evenodd" stroke-width="3.4286"></path>
  </g>
</svg>