<svg xmlns="http://www.w3.org/2000/svg" fill="none" viewBox="0 0 48 48" id="Zodiac-2--Streamline-Core-Remix" height="48" width="48">
  <desc>
    Zodiac 2 Streamline Icon: https://streamlinehq.com
  </desc>
  <g id="Free Remix/Culture/zodiac-2--sign-astrology-stars-space-virgo">
    <path id="Union" fill="#000000" fill-rule="evenodd" d="M9.706594285714285 7.645645714285713c-1.4385942857142857 0 -2.8182514285714286 0.5714742857142857 -3.835508571428571 1.5887314285714285 -1.0172228571428572 1.0172228571428572 -1.5887314285714285 2.3969142857142858 -1.5887314285714285 3.835508571428571V34.0896c0 1.183542857142857 -0.9593794285714284 2.142857142857143 -2.142846857142857 2.142857142857143 -1.1834674285714284 0 -2.142855641142857 -0.9593142857142857 -2.142855641142857 -2.142857142857143V13.069885714285714c0 -2.5752342857142856 1.023008784 -5.045005714285714 2.843977926857143 -6.865988571428571C4.661588571428571 4.382948571428571 7.131359999999999 3.359931428571428 9.706594285714285 3.359931428571428c2.5752342857142856 0 5.045005714285714 1.0230171428571426 6.865988571428571 2.843965714285714 0.24877714285714284 0.24881142857142854 0.48267428571428567 0.5097257142857142 0.7011085714285714 0.7813371428571428 0.21843428571428572 -0.27161142857142856 0.4523314285714285 -0.5325257142857143 0.7011428571428571 -0.7813371428571428 1.8209485714285711 -1.8209485714285711 4.290719999999999 -2.843965714285714 6.8659542857142855 -2.843965714285714 2.5752342857142856 0 5.045005714285714 1.0230171428571426 6.865988571428571 2.843965714285714 1.0979314285714286 1.0979657142857142 1.9057714285714282 2.4317485714285714 2.374217142857143 3.8823085714285708h5.044148571428571c3.4583999999999997 0 6.761485714285714 2.1431314285714285 8.148 5.343394285714285 1.3844571428571428 3.19536 0.7086857142857143 7.064125714285713 -1.6765714285714284 9.601165714285713l-0.006514285714285714 0.006822857142857143 -10.964228571428572 11.55966857142857c0.1662857142857143 0.9085714285714286 0.6051428571428571 1.7526857142857142 1.267542857142857 2.414742857142857 0.859542857142857 0.8598857142857144 2.025257142857143 1.3426285714285713 3.240685714285714 1.3426285714285713 1.2157714285714285 0 2.381485714285714 -0.48274285714285714 3.241028571428571 -1.3426285714285713 0.859542857142857 -0.859542857142857 1.3426285714285713 -2.025257142857143 1.3426285714285713 -3.240685714285714v-3.3632914285714284c0 -1.1834742857142857 0.9593142857142857 -2.142857142857143 2.142857142857143 -2.142857142857143s2.142857142857143 0.9593828571428571 2.142857142857143 2.142857142857143v3.3632914285714284c0 2.352 -0.9346285714285714 4.608 -2.5978285714285714 6.271199999999999 -1.6631999999999998 1.6635428571428572 -3.9192 2.5978285714285714 -6.271542857142856 2.5978285714285714 -2.352 0 -4.608 -0.9342857142857143 -6.271302857142857 -2.5978285714285714 -0.5984228571428571 -0.5982857142857142 -1.1025257142857143 -1.2733714285714286 -1.5026742857142856 -2.0022857142857142l-3.729257142857142 3.9318857142857144c-0.8144571428571429 0.8585142857142857 -2.1707657142857144 0.8945142857142857 -3.0294171428571426 0.08022857142857143 -0.8586514285714285 -0.8146285714285714 -0.8945142857142857 -2.1709714285714283 -0.08009142857142856 -3.0294857142857143l5.743714285714285 -6.055542857142857V13.069885714285714c0 -1.4385942857142857 -0.5714742857142857 -2.818285714285714 -1.5887314285714285 -3.835508571428571 -1.0172228571428572 -1.0172571428571429 -2.3969142857142858 -1.5887314285714285 -3.835508571428571 -1.5887314285714285 -1.4385942857142857 0 -2.818285714285714 0.5714742857142857 -3.835508571428571 1.5887314285714285 -1.0036114285714284 1.0036114285714284 -1.5733371428571428 2.360022857142857 -1.588422857142857 3.7777371428571422v21.07748571428571c0 1.183542857142857 -0.9593828571428571 2.142857142857143 -2.142857142857143 2.142857142857143s-2.142857142857143 -0.9593142857142857 -2.142857142857143 -2.142857142857143V13.106537142857142l-0.00030857142857142856 -0.03665142857142857c0 -1.4385942857142857 -0.5714742857142857 -2.818285714285714 -1.5887314285714285 -3.835508571428571 -1.0172228571428572 -1.0172571428571429 -2.3969142857142858 -1.5887314285714285 -3.835508571428571 -1.5887314285714285Zm24.84414857142857 22.803085714285714 7.923428571428571 -8.353679999999999 0.002742857142857143 -0.003017142857142857c1.2113142857142856 -1.2909942857142855 1.5675428571428571 -3.334182857142857 0.8636571428571429 -4.958708571428572 -0.7021714285714286 -1.6208914285714284 -2.452457142857143 -2.761405714285714 -4.215428571428571 -2.761405714285714h-4.5744v16.07681142857143Z" clip-rule="evenodd" stroke-width="3.4286"></path>
  </g>
</svg>