<svg xmlns="http://www.w3.org/2000/svg" fill="none" viewBox="0 0 48 48" id="Zodiac-11--Streamline-Core-Remix" height="48" width="48">
  <desc>
    Zodiac 11 Streamline Icon: https://streamlinehq.com
  </desc>
  <g id="Free Remix/Culture/zodiac-11--sign-astrology-stars-space-sagittarius">
    <path id="Union" fill="#000000" fill-rule="evenodd" d="M47.37222857142857 0.6276274285714285c0.20571428571428568 0.2054502857142857 0.3606857142857143 0.4422411428571428 0.4652571428571428 0.6949817142857142C47.94205714285714 1.575264 48 1.8523097142857141 48 2.142857142857143v17.142857142857142c0 1.1834742857142857 -0.9593142857142857 2.142857142857143 -2.142857142857143 2.142857142857143s-2.142857142857143 -0.9593828571428571 -2.142857142857143 -2.142857142857143V7.31616L16.74473142857143 34.285714285714285l7.0562057142857135 7.056342857142857c0.8368457142857142 0.8365714285714285 0.8368457142857142 2.1936 0 3.0301714285714283 -0.8368457142857142 0.8369142857142857 -2.1936 0.8369142857142857 -3.030445714285714 0L13.714285714285714 37.316228571428574l-10.056205714285714 10.056c-0.8368319999999999 0.8369142857142857 -2.193613714285714 0.8369142857142857 -3.030452571428571 0 -0.8368367999999999 -0.8365714285714285 -0.8368367999999999 -2.1936 0 -3.0301714285714283L10.68384 34.285714285714285 3.6276342857142856 27.229508571428568c-0.8368422857142856 -0.8368457142857142 -0.8368422857142856 -2.1936 0 -3.030445714285714 0.8368457142857142 -0.8368457142857142 2.1936 -0.8368457142857142 3.030445714285714 0L13.714285714285714 31.255268571428573 40.683771428571426 4.285714285714286H28.71428571428571c-1.1834742857142857 0 -2.142857142857143 -0.9593897142857143 -2.142857142857143 -2.142857142857143S27.53081142857143 0 28.71428571428571 0h17.142857142857142c0.5485714285714286 0 1.0968 0.20920937142857143 1.5150857142857141 0.6276274285714285Z" clip-rule="evenodd" stroke-width="3.4286"></path>
  </g>
</svg>