<svg xmlns="http://www.w3.org/2000/svg" fill="none" viewBox="0 0 48 48" id="Zodiac-1--Streamline-Core-Remix" height="48" width="48">
  <desc>
    Zodiac 1 Streamline Icon: https://streamlinehq.com
  </desc>
  <g id="Free Remix/Culture/zodiac-1--sign-astrology-stars-space-scorpio">
    <path id="Union" fill="#000000" fill-rule="evenodd" d="M8.867074285714285 8.06712c-1.2115542857142858 0 -2.375965714285714 0.48390857142857135 -3.2363999999999997 1.3492457142857142 -0.8608457142857143 0.8657828571428572 -1.34664 2.0425714285714283 -1.34664 3.2721942857142854V32.561142857142855c0 1.1834399999999998 -0.9593828571428571 2.142857142857143 -2.1428502857142857 2.142857142857143 -1.1834674285714284 0 -2.1428581062857144 -0.9594171428571429 -2.1428581062857144 -2.142857142857143V12.688559999999999c0 -2.3584114285714284 0.9314341062857143 -4.62264 2.5932798205714285 -6.294 1.6622571428571429 -1.6717714285714285 3.919354285714286 -2.6131542857142858 6.275468571428571 -2.6131542857142858 2.35608 0 4.613177142857142 0.9413828571428571 6.2754514285714285 2.6131542857142858 0.15668571428571426 0.15757714285714286 0.3068914285714286 0.3204342857142857 0.4504114285714285 0.48816 0.14352 -0.16772571428571428 0.29372571428571426 -0.3305828571428571 0.4504114285714285 -0.48816 1.6622742857142856 -1.6717714285714285 3.919371428571429 -2.6131542857142858 6.2754514285714285 -2.6131542857142858 2.356114285714286 0 4.613211428571429 0.9413828571428571 6.2754514285714285 2.6131542857142858 1.6618628571428569 1.67136 2.593302857142857 3.935588571428571 2.593302857142857 6.294v23.50206857142857c0 2.066742857142857 1.6754742857142857 3.742285714285714 3.7423885714285707 3.742285714285714 2.066742857142857 0 3.742285714285714 -1.6755428571428572 3.742285714285714 -3.742285714285714V30.092331428571427l-1.3872 1.3869942857142856c-0.8369142857142857 0.8368457142857142 -2.1936 0.8368457142857142 -3.0303771428571427 0 -0.8368457142857142 -0.8368457142857142 -0.8368457142857142 -2.1936 0 -3.030445714285714L39.29897142857143 23.40445714285714c0.8369142857142857 -0.8368457142857142 2.1936 -0.8368457142857142 3.0305142857142857 0l5.0444571428571425 5.044422857142857c0.8369142857142857 0.8368457142857142 0.8369142857142857 2.1936 0 3.030445714285714 -0.8369142857142857 0.8368457142857142 -2.1936 0.8368457142857142 -3.0305142857142857 0l-1.3854857142857142 -1.385622857142857v6.096925714285714c0 4.433828571428571 -3.5945142857142853 8.027999999999999 -8.027999999999999 8.027999999999999 -4.433862857142857 0 -8.028102857142857 -3.5941714285714284 -8.028102857142857 -8.027999999999999V12.688559999999999c0 -1.2296228571428571 -0.48579428571428573 -2.4064114285714284 -1.34664 -3.2721942857142854 -0.8604342857142857 -0.8653371428571428 -2.024845714285714 -1.3492457142857142 -3.2363999999999997 -1.3492457142857142 -1.21152 0 -2.3759314285714286 0.48390857142857135 -3.2363657142857143 1.3492457142857142 -0.8608457142857143 0.8657828571428572 -1.34664 2.0425714285714283 -1.34664 3.2721942857142854l-0.00010285714285714286 0.021394285714285713V32.407199999999996c0 1.1834742857142857 -0.9593828571428571 2.142857142857143 -2.142857142857143 2.142857142857143s-2.142857142857143 -0.9593828571428571 -2.142857142857143 -2.142857142857143V12.65742857142857c-0.008125714285714286 -1.2183428571428572 -0.49295999999999995 -2.3826171428571428 -1.3465371428571427 -3.241062857142857 -0.8604342857142857 -0.8653371428571428 -2.024845714285714 -1.3492457142857142 -3.2363657142857143 -1.3492457142857142Z" clip-rule="evenodd" stroke-width="3.4286"></path>
  </g>
</svg>