<svg xmlns="http://www.w3.org/2000/svg" fill="none" viewBox="0 0 48 48" id="Zodiac-9--Streamline-Core-Remix" height="48" width="48">
  <desc>
    Zodiac 9 Streamline Icon: https://streamlinehq.com
  </desc>
  <g id="Free Remix/Culture/zodiac-9--sign-astrology-stars-space-gemini">
    <path id="Union" fill="#000000" fill-rule="evenodd" d="M2.2401565714285714 1.6454159999999998c0.9847028571428571 -0.6564685714285714 2.315146285714286 -0.390384 2.971614857142857 0.5943222857142857 1.3598057142857143 2.039736 5.118308571428571 5.459496 10.8432 7.26820457142857l0.03702857142857143 0.011657142857142856c2.3229942857142856 0.7300114285714285 4.9686514285714285 1.1944799999999998 7.908239999999999 1.1944799999999998 2.9395542857142853 0 5.585211428571428 -0.46446857142857145 7.908205714285715 -1.1944799999999998l0.03699428571428571 -0.011657142857142856C37.670399999999994 7.699234285714286 41.428799999999995 4.279474285714286 42.78857142857143 2.2397382857142856c0.6565714285714286 -0.9847062857142858 1.9868571428571429 -1.2507908571428572 2.971885714285714 -0.5943222857142857 0.9846857142857143 0.6564685714285714 1.2507428571428572 1.9869154285714283 0.5941714285714286 2.9716011428571427 -1.742742857142857 2.614217142857143 -5.767542857142857 6.264548571428571 -11.639999999999999 8.468022857142858v21.829474285714284c5.872457142857143 2.2035428571428572 9.897257142857141 5.853942857142857 11.639999999999999 8.46822857142857 0.6565714285714286 0.9846857142857143 0.3905142857142857 2.3149714285714285 -0.5941714285714286 2.971542857142857 -0.9850285714285714 0.6562285714285714 -2.3153142857142854 0.39017142857142856 -2.971885714285714 -0.5945142857142857 -1.358742857142857 -2.0379428571428573 -5.112342857142857 -5.453828571428571 -10.829417142857142 -7.263771428571427 -0.021565714285714282 -0.006514285714285714 -0.04302857142857143 -0.013028571428571428 -0.06431999999999999 -0.020228571428571426 -2.319702857142857 -0.727542857142857 -4.9607657142857144 -1.1904 -7.894594285714285 -1.1904 -2.9338285714285712 0 -5.574891428571428 0.46285714285714286 -7.894628571428571 1.1904 -0.021291428571428572 0.007199999999999999 -0.04275428571428571 0.013714285714285714 -0.06431999999999999 0.020228571428571426 -5.717211428571428 1.809942857142857 -9.470777142857141 5.225828571428571 -10.829519999999999 7.263771428571427 -0.6564685714285714 0.9846857142857143 -1.986912 1.2507428571428572 -2.971614857142857 0.5945142857142857 -0.9847062857142858 -0.6565714285714286 -1.2507908571428572 -1.9868571428571429 -0.5943222857142857 -2.971542857142857 1.7428011428571428 -2.614285714285714 5.7673885714285715 -6.264685714285713 11.64012 -8.46822857142857V13.08504C7.4132228571428564 10.881565714285713 3.3886354285714284 7.231234285714285 1.6458342857142856 4.617017142857143 0.9893657142857143 3.6323314285714288 1.2554502857142857 2.301884571428571 2.2401565714285714 1.6454159999999998ZM17.57166857142857 33.665485714285715c1.9916228571428571 -0.42195428571428567 4.138285714285714 -0.6656914285714285 6.428571428571428 -0.6656914285714285 2.290251428571428 0 4.436914285714286 0.24373714285714285 6.428571428571428 0.6656914285714285V14.334102857142858c-1.9916571428571426 0.4219885714285714 -4.138319999999999 0.6656914285714285 -6.428571428571428 0.6656914285714285 -2.2902857142857145 0 -4.436948571428571 -0.24370285714285714 -6.428571428571428 -0.6656914285714285V33.665485714285715Z" clip-rule="evenodd" stroke-width="3.4286"></path>
  </g>
</svg>