<svg xmlns="http://www.w3.org/2000/svg" fill="none" viewBox="0 0 48 48" id="Zodiac-6--Streamline-Core-Remix" height="48" width="48">
  <desc>
    Zodiac 6 Streamline Icon: https://streamlinehq.com
  </desc>
  <g id="Free Remix/Culture/zodiac-6--sign-astrology-stars-space-capricorn">
    <path id="Union" fill="#000000" fill-rule="evenodd" d="M3.893897142857143 1.336782857142857C2.7385954285714287 1.0800514285714284 1.5939325714285713 1.8084754285714286 1.3372011428571429 2.9637599999999997c-0.2566148571428571 1.1547771428571427 0.47103428571428574 2.2989257142857142 1.625406857142857 2.556342857142857l0.0015702857142857142 0.00034285714285714285 0.012407999999999999 0.0029485714285714284 0.08904685714285714 0.021805714285714286c0.08377714285714284 0.021119999999999996 0.21493028571428568 0.05547428571428571 0.386664 0.10453714285714286 0.34391999999999995 0.09826285714285714 0.8477485714285714 0.2547085714285714 1.45776 0.48065142857142856 1.2267771428571428 0.4543542857142857 2.846777142857143 1.1764114285714284 4.451211428571429 2.2460228571428567 3.195702857142857 2.13048 6.166662857142857 5.502617142857143 6.166662857142857 10.876388571428572 0 1.1834399999999998 0.9593828571428571 2.142857142857143 2.142857142857143 2.142857142857143s2.142857142857143 -0.9594171428571429 2.142857142857143 -2.142857142857143c0 -5.373771428571429 2.97096 -8.74590857142857 6.166662857142857 -10.876388571428572 1.3300457142857143 -0.8866971428571429 2.670822857142857 -1.53456 3.7893942857142857 -1.9890514285714285v23.381862857142856h-26.340685714285712c-1.1834537142857142 0 -2.1428434285714286 0.9593828571428571 -2.1428434285714286 2.142857142857143s0.9593897142857143 2.142857142857143 2.1428434285714286 2.142857142857143h26.340685714285712v4.1198057142857145c-0.00017142857142857143 0.022285714285714284 -0.00027428571428571427 0.04457142857142857 -0.00027428571428571427 0.06685714285714285 0 4.679314285714286 3.7932685714285714 8.472685714285713 8.472514285714286 8.472685714285713 4.679314285714286 0 8.472685714285713 -3.7933714285714286 8.472685714285713 -8.472685714285713 0 -4.676708571428571 -3.7895999999999996 -8.468502857142857 -8.465485714285714 -8.472377142857143l-0.006857142857142857 0H34.05541714285714V3.4286057142857143c0 -0.6499645714285713 -0.2950285714285714 -1.264806857142857 -0.8020114285714285 -1.6715108571428572C32.746388571428575 1.3503874285714286 32.08217142857143 1.1957828571428573 31.44768 1.336782857142857l0.46487999999999996 2.0918228571428568C31.44768 1.336782857142857 31.44678857142857 1.3369885714285714 31.445794285714285 1.3372045714285712l-0.0022285714285714283 0.0004971428571428571 -0.005417142857142857 0.001224 -0.014811428571428571 0.003366857142857143 -0.04494857142857143 0.010481142857142856c-0.03668571428571428 0.008677714285714285 -0.08667428571428572 0.02077714285714286 -0.14910857142857142 0.036504 -0.12486857142857143 0.031439999999999996 -0.29969142857142855 0.07744114285714285 -0.5173714285714286 0.13963885714285715 -0.43491428571428564 0.12426171428571427 -1.0437257142857144 0.3139645714285714 -1.7688685714285715 0.5825417142857142 -1.4435657142857143 0.5346479999999999 -3.384 1.3950102857142856 -5.34 2.6990331428571426 -2.1495085714285715 1.4329714285714283 -4.366388571428572 3.4426971428571425 -5.932251428571428 6.164194285714285 -1.565862857142857 -2.721497142857143 -3.782742857142857 -4.731222857142857 -5.932251428571428 -6.164194285714285 -1.956 -1.3040228571428572 -3.8964342857142857 -2.164385142857143 -5.34 -2.6990331428571426 -0.7251428571428571 -0.26857714285714285 -1.3339542857142856 -0.45828 -1.7688685714285715 -0.5825417142857142 -0.21768 -0.06219771428571429 -0.3925028571428571 -0.10819885714285715 -0.5173714285714286 -0.13963885714285715C4.049862857142857 1.3735508571428572 3.9998742857142857 1.3614514285714285 3.963188571428571 1.3527737142857141L3.9182399999999995 1.3422925714285714 3.9034285714285715 1.338925714285714 3.898011428571428 1.3377017142857142 3.8957828571428568 1.3372045714285712c-0.0009942857142857143 -0.000216 -0.0018857142857142857 -0.00042171428571428573 -0.4667657142857143 2.091401142857143l0.46487999999999996 -2.0918228571428568ZM34.05524571428571 38.26902857142857c0.00010285714285714286 -0.008914285714285713 0.00017142857142857143 -0.01817142857142857 0.00017142857142857143 -0.027085714285714286v-0.04731428571428571c0.025165714285714284 -2.2906285714285715 1.8900685714285714 -4.139691428571429 4.186525714285715 -4.139691428571429 2.3122285714285713 0 4.186971428571429 1.8744342857142857 4.186971428571429 4.186662857142856 0 2.3125714285714283 -1.8747428571428568 4.186971428571429 -4.186971428571429 4.186971428571429 -2.3033142857142854 0 -4.171988571428572 -1.8596571428571427 -4.186697142857143 -4.159542857142857ZM2.9604719999999998 5.519622857142857l-0.0006651428571428571 -0.00017142857142857143c-0.0006137142857142857 -0.00013714285714285713 -0.0003874285714285714 -0.00006857142857142857 0.0006651428571428571 0.00017142857142857143Z" clip-rule="evenodd" stroke-width="3.4286"></path>
  </g>
</svg>