<svg xmlns="http://www.w3.org/2000/svg" fill="none" viewBox="0 0 48 48" id="Zodiac-8--Streamline-Core-Remix" height="48" width="48">
  <desc>
    Zodiac 8 Streamline Icon: https://streamlinehq.com
  </desc>
  <g id="Free Remix/Culture/zodiac-8--sign-astrology-stars-space-libra">
    <path id="Union" fill="#000000" fill-rule="evenodd" d="M24 3c-4.205588571428572 0 -8.238891428571428 1.6706742857142856 -11.212697142857143 4.644445714285714 -2.972331428571428 2.972331428571428 -4.642799999999999 7.003131428571429 -4.644445714285714 11.206457142857142 -0.008708571428571428 1.6078971428571427 0.23314285714285715 3.1999199999999997 0.7105028571428571 4.7205257142857135H2.142857142857143C0.9593897142857143 23.57142857142857 0 24.530811428571425 0 25.71428571428571s0.9593897142857143 2.142857142857143 2.142857142857143 2.142857142857143H12.137142857142857c0.7692685714285714 0 1.4794971428571428 -0.4123542857142857 1.860925714285714 -1.0803771428571427 0.3813942857142857 -0.6680571428571428 0.3754628571428571 -1.489302857142857 -0.015565714285714283 -2.151737142857143 -1.0287085714285713 -1.742742857142857 -1.5657257142857142 -3.73176 -1.5539657142857142 -5.75544H12.428571428571427V18.857142857142858c0 -3.068948571428571 1.2191314285714285 -6.012171428571428 3.3891771428571427 -8.182251428571428C17.987828571428572 8.504845714285713 20.93105142857143 7.285714285714286 24 7.285714285714286c3.068948571428571 0 6.012171428571428 1.2191314285714285 8.182251428571428 3.3891771428571427 2.169977142857143 2.1700799999999996 3.3891771428571427 5.113302857142856 3.3891771428571427 8.182251428571428l0.0006857142857142857 0.04971428571428571c0.04662857142857142 2.0129828571428567 -0.45051428571428564 4.00128 -1.4389714285714286 5.75544 -0.37388571428571427 0.663462857142857 -0.3675085714285714 1.4755542857142856 0.01669714285714286 2.133085714285714 0.38410285714285713 0.6575314285714285 1.0886742857142855 1.06176 1.85016 1.06176h9.857142857142856c1.183542857142857 0 2.142857142857143 -0.9593828571428571 2.142857142857143 -2.142857142857143s-0.9593142857142857 -2.142857142857143 -2.142857142857143 -2.142857142857143h-6.636342857142857c0.4542857142857143 -1.5306514285714286 0.6709714285714286 -3.129085714285714 0.6363428571428571 -4.739211428571429 -0.006514285714285714 -4.196571428571429 -1.6765714285714284 -8.219862857142857 -4.644342857142857 -11.187771428571429C32.23889142857143 4.670674285714285 28.20558857142857 3 24 3Zm-21.857142857142858 37.714285714285715c-1.1834674285714284 0 -2.142857142857143 0.9593142857142857 -2.142857142857143 2.142857142857143s0.9593897142857143 2.142857142857143 2.142857142857143 2.142857142857143h43.714285714285715c1.183542857142857 0 2.142857142857143 -0.9593142857142857 2.142857142857143 -2.142857142857143s-0.9593142857142857 -2.142857142857143 -2.142857142857143 -2.142857142857143H2.142857142857143Z" clip-rule="evenodd" stroke-width="3.4286"></path>
  </g>
</svg>