<svg xmlns="http://www.w3.org/2000/svg" fill="none" viewBox="0 0 48 48" id="Zodiac-5--Streamline-Core-Remix" height="48" width="48">
  <desc>
    Zodiac 5 Streamline Icon: https://streamlinehq.com
  </desc>
  <g id="Free Remix/Culture/zodiac-5--sign-astrology-stars-space-taurus">
    <path id="Union" fill="#000000" fill-rule="evenodd" d="M11.087897142857141 1.9042491428571426c-0.13004571428571426 -1.1763017142857142 -1.1890285714285713 -2.0244692571428566 -2.365337142857143 -1.8944357485714287C7.546251428571428 0.13984697142857141 6.698091428571429 1.1988411428571426 6.828137142857143 2.375142857142857c0.6303085714285714 5.702125714285714 4.033405714285714 10.567508571428572 8.83128 13.217314285714284 -5.327828571428571 2.942605714285714 -8.936194285714286 8.616857142857143 -8.936194285714286 15.13392 0 9.541851428571428 7.7351657142857135 17.277051428571426 17.276982857142855 17.277051428571426 9.541817142857143 0 17.277051428571426 -7.7352 17.277051428571426 -17.277051428571426 0 -6.517234285714285 -3.6085714285714285 -12.191622857142857 -8.93670857142857 -15.13416C37.138285714285715 12.942377142857142 40.54114285714286 8.077097142857143 41.17131428571428 2.375142857142857c0.13028571428571428 -1.1763017142857142 -0.7179428571428571 -2.2352958857142853 -1.8942857142857141 -2.3653294628571424 -1.1763428571428571 -0.13003350857142856 -2.2354285714285713 0.7181340342857142 -2.3653714285714282 1.8944357485714287C36.193714285714286 8.397531428571428 30.685302857142858 13.449394285714286 23.99976 13.449394285714286c-6.685542857142857 0 -12.194091428571427 -5.051862857142857 -12.911862857142857 -11.545145142857143ZM11.008937142857143 30.72637714285714c0 -7.174868571428571 5.8163657142857135 -12.99126857142857 12.99126857142857 -12.99126857142857 7.174868571428571 0 12.991337142857143 5.8164 12.991337142857143 12.99126857142857 0 7.174765714285713 -5.816468571428571 12.991337142857143 -12.991337142857143 12.991337142857143 -7.1749028571428575 0 -12.99126857142857 -5.816571428571428 -12.99126857142857 -12.991337142857143Z" clip-rule="evenodd" stroke-width="3.4286"></path>
  </g>
</svg>