<svg xmlns="http://www.w3.org/2000/svg" fill="none" viewBox="0 0 48 48" id="Zodiac-3--Streamline-Core-Remix" height="48" width="48">
  <desc>
    Zodiac 3 Streamline Icon: https://streamlinehq.com
  </desc>
  <g id="Free Remix/Culture/zodiac-3--sign-astrology-stars-space-leo">
    <path id="Union" fill="#000000" fill-rule="evenodd" d="M17.209302857142855 15.106388571428571c-1.1976342857142857 -5.569302857142857 3.047211428571428 -10.824034285714285 8.743851428571428 -10.824034285714285 5.552228571428571 0 9.76296 5.006091428571429 8.811531428571428 10.476205714285713L30.296811428571427 40.44857142857143c-0.021085714285714284 0.12137142857142857 -0.03171428571428571 0.2441142857142857 -0.03171428571428571 0.36719999999999997 0 1.9062857142857144 0.7572685714285714 3.7343999999999995 2.1052114285714283 5.082514285714285 1.347942857142857 1.3477714285714286 3.176091428571428 2.105142857142857 5.082377142857142 2.105142857142857 1.9062857142857144 0 3.7343999999999995 -0.7573714285714286 5.082514285714285 -2.105142857142857 1.3477714285714286 -1.3481142857142856 2.105142857142857 -3.176228571428571 2.105142857142857 -5.082514285714285 0 -1.183542857142857 -0.9593142857142857 -2.142857142857143 -2.142857142857143 -2.142857142857143s-2.142857142857143 0.9593142857142857 -2.142857142857143 2.142857142857143c0 0.7697142857142857 -0.3058285714285714 1.5078857142857143 -0.8499428571428571 2.052s-1.2822857142857143 0.8499428571428571 -2.052 0.8499428571428571c-0.7697142857142857 0 -1.5078857142857143 -0.3058285714285714 -2.052 -0.8499428571428571 -0.5064 -0.5064 -0.8063999999999999 -1.1807999999999998 -0.8454857142857143 -1.8922285714285711l4.4317714285714285 -25.482685714285715c1.4070857142857143 -8.091291428571429 -4.821051428571428 -15.49620535542857 -13.033817142857142 -15.49620535542857 -8.426365714285714 0 -14.705314285714284 7.772696783999999 -12.933805714285713 16.010731069714286l2.0834742857142854 9.688799999999999c-0.9012342857142857 -0.30850285714285713 -1.86792 -0.47591999999999995 -2.873725714285714 -0.47591999999999995 -4.898297142857143 0 -8.869165714285714 3.970868571428571 -8.869165714285714 8.869165714285714 0 4.898228571428571 3.970868571428571 8.8692 8.869165714285714 8.8692s8.869165714285714 -3.970971428571428 8.869165714285714 -8.8692c0 -0.2825828571428571 -0.013234285714285714 -0.56208 -0.03905142857142857 -0.8378742857142856 0.0009942857142857143 -0.15373714285714285 -0.01464 -0.30997714285714284 -0.04830857142857142 -0.46652571428571427l-0.028319999999999998 -0.13165714285714283c-0.04803428571428571 -0.29509714285714284 -0.11063999999999999 -0.5852914285714286 -0.18702857142857143 -0.8698285714285713L17.209302857142855 15.106388571428571Zm-0.5737714285714285 17.717245714285713 0.12898285714285715 0.5998628571428571c0.031645714285714284 0.21737142857142855 0.04803428571428571 0.43974857142857143 0.04803428571428571 0.6659314285714286 0 2.531485714285714 -2.0520685714285714 4.583485714285715 -4.583451428571428 4.583485714285715s-4.583451428571428 -2.052 -4.583451428571428 -4.583485714285715c0 -2.531382857142857 2.0520685714285714 -4.583451428571428 4.583451428571428 -4.583451428571428 2.092285714285714 0 3.8571428571428568 1.4019085714285713 4.406434285714285 3.3176571428571426Z" clip-rule="evenodd" stroke-width="3.4286"></path>
  </g>
</svg>