<svg xmlns="http://www.w3.org/2000/svg" fill="none" viewBox="0 0 48 48" id="Zodiac-10--Streamline-Core-Remix" height="48" width="48">
  <desc>
    Zodiac 10 Streamline Icon: https://streamlinehq.com
  </desc>
  <g id="Free Remix/Culture/zodiac-10--sign-astrology-stars-space-pisces">
    <path id="Union" fill="#000000" fill-rule="evenodd" d="M5.074182857142857 2.2397382857142856c0.6564685714285714 -0.9847062857142858 1.9868914285714283 -1.2507908571428572 2.9716114285714283 -0.5943222857142857C11.784685714285713 4.138011428571429 17.643085714285714 11.298102857142856 18.356605714285713 21.85693714285714h11.286788571428572C30.356914285714286 11.298102857142856 36.21531428571428 4.138011428571429 39.95417142857143 1.6454159999999998c0.9846857142857143 -0.6564685714285714 2.3153142857142854 -0.390384 2.971542857142857 0.5943222857142857 0.6565714285714286 0.9847028571428571 0.3905142857142857 2.3151531428571426 -0.5941714285714286 2.971621714285714 -2.664685714285714 1.7763771428571427 -7.684114285714285 7.646125714285714 -8.390914285714286 16.645577142857142H44.57142857142857c1.183542857142857 0 2.142857142857143 0.9594171428571429 2.142857142857143 2.142857142857143 0 1.1834742857142857 -0.9593142857142857 2.142857142857143 -2.142857142857143 2.142857142857143H33.94062857142857c0.7068 8.999519999999999 5.726228571428571 14.869234285714285 8.390914285714286 16.645577142857142 0.9846857142857143 0.6565714285714286 1.2507428571428572 1.9868571428571429 0.5941714285714286 2.971542857142857 -0.6562285714285714 0.9846857142857143 -1.9868571428571429 1.2507428571428572 -2.971542857142857 0.5945142857142857 -3.738857142857143 -2.4925714285714284 -9.597257142857142 -9.6528 -10.310777142857143 -20.211634285714286H18.356605714285713C17.643085714285714 36.70148571428571 11.784685714285713 43.86171428571428 8.045794285714285 46.35428571428571c-0.98472 0.6562285714285714 -2.315142857142857 0.39017142857142856 -2.9716114285714283 -0.5945142857142857 -0.6564685714285714 -0.9846857142857143 -0.39037714285714287 -2.3149714285714285 0.5943085714285714 -2.971542857142857 2.664582857142857 -1.776342857142857 7.684182857142858 -7.646057142857143 8.39088 -16.645577142857142H3.4285714285714284c-1.1834674285714284 0 -2.142857142857143 -0.9593828571428571 -2.142857142857143 -2.142857142857143 0 -1.1834399999999998 0.9593897142857143 -2.142857142857143 2.142857142857143 -2.142857142857143h10.630799999999999C13.352674285714285 12.857485714285714 8.333074285714286 6.987737142857142 5.6684914285714285 5.21136c-0.9846857142857143 -0.6564685714285714 -1.2507771428571428 -1.9869188571428569 -0.5943085714285714 -2.971621714285714Z" clip-rule="evenodd" stroke-width="3.4286"></path>
  </g>
</svg>